%TF.GenerationSoftware,KiCad,Pcbnew,5.0.2-bee76a0~70~ubuntu18.10.1*%
%TF.CreationDate,2019-01-07T09:39:01-07:00*%
%TF.ProjectId,thelio-io,7468656c-696f-42d6-996f-2e6b69636164,rev?*%
%TF.SameCoordinates,Original*%
%TF.FileFunction,Copper,L4,Bot*%
%TF.FilePolarity,Positive*%
%FSLAX46Y46*%
G04 Gerber Fmt 4.6, Leading zero omitted, Abs format (unit mm)*
G04 Created by KiCad (PCBNEW 5.0.2-bee76a0~70~ubuntu18.10.1) date Mon Jan  7 09:39:01 2019*
%MOMM*%
%LPD*%
G01*
G04 APERTURE LIST*
%TA.AperFunction,NonConductor*%
%ADD10C,0.200000*%
%TD*%
%TA.AperFunction,NonConductor*%
%ADD11C,0.150000*%
%TD*%
%TA.AperFunction,Conductor*%
%ADD12C,0.350000*%
%TD*%
%TA.AperFunction,SMDPad,CuDef*%
%ADD13C,0.590000*%
%TD*%
%TA.AperFunction,ComponentPad*%
%ADD14O,1.730000X2.030000*%
%TD*%
%TA.AperFunction,ComponentPad*%
%ADD15R,1.730000X2.030000*%
%TD*%
%TA.AperFunction,ComponentPad*%
%ADD16O,1.700000X1.700000*%
%TD*%
%TA.AperFunction,ComponentPad*%
%ADD17R,1.700000X1.700000*%
%TD*%
%TA.AperFunction,SMDPad,CuDef*%
%ADD18R,3.150000X1.000000*%
%TD*%
%TA.AperFunction,SMDPad,CuDef*%
%ADD19R,1.700000X1.000000*%
%TD*%
%TA.AperFunction,SMDPad,CuDef*%
%ADD20R,0.900000X2.300000*%
%TD*%
%TA.AperFunction,ComponentPad*%
%ADD21O,2.000000X2.000000*%
%TD*%
%TA.AperFunction,SMDPad,CuDef*%
%ADD22R,0.250000X0.750000*%
%TD*%
%TA.AperFunction,SMDPad,CuDef*%
%ADD23R,1.500000X0.550000*%
%TD*%
%TA.AperFunction,SMDPad,CuDef*%
%ADD24R,0.550000X1.500000*%
%TD*%
%TA.AperFunction,ViaPad*%
%ADD25C,0.800000*%
%TD*%
%TA.AperFunction,Conductor*%
%ADD26C,0.250000*%
%TD*%
%TA.AperFunction,Conductor*%
%ADD27C,0.500000*%
%TD*%
G04 APERTURE END LIST*
D10*
X77050000Y-53400000D02*
G75*
G02X75450000Y-55000000I-1600000J0D01*
G01*
X73850000Y-55000000D02*
X75450000Y-55000000D01*
X73850000Y-16800000D02*
X75450000Y-16800000D01*
X75450000Y-16800000D02*
G75*
G02X77050000Y-18400000I0J-1600000D01*
G01*
X77050000Y-18400000D02*
X77050000Y-53400000D01*
X-3200000Y-18400000D02*
G75*
G02X-1600000Y-16800000I1600000J0D01*
G01*
X-3200000Y-53400000D02*
X-3200000Y-18400000D01*
X-1600000Y-55000000D02*
G75*
G02X-3200000Y-53400000I0J1600000D01*
G01*
X0Y-55000000D02*
X-1600000Y-55000000D01*
X0Y-16800000D02*
X-1600000Y-16800000D01*
X0Y-55000000D02*
X0Y-68600000D01*
X0Y-16800000D02*
X0Y-3200000D01*
X73850000Y-55000000D02*
X73850000Y-68600000D01*
X73850000Y-16800000D02*
X73850000Y-3200000D01*
D11*
X73850000Y-68600000D02*
G75*
G02X70650000Y-71800000I-3200000J0D01*
G01*
D10*
X3200000Y-71800000D02*
G75*
G02X0Y-68600000I0J3200000D01*
G01*
X70650000Y-71800000D02*
X3200000Y-71800000D01*
X0Y-3200000D02*
G75*
G02X3200000Y0I3200000J0D01*
G01*
X70650000Y0D02*
G75*
G02X73850000Y-3200000I0J-3200000D01*
G01*
X3200000Y0D02*
X70650000Y0D01*
D12*
%TO.N,Net-(AVR0-Pad4)*%
%TO.C,R0*%
G36*
X11616958Y-61965710D02*
X11631276Y-61967834D01*
X11645317Y-61971351D01*
X11658946Y-61976228D01*
X11672031Y-61982417D01*
X11684447Y-61989858D01*
X11696073Y-61998481D01*
X11706798Y-62008202D01*
X11716519Y-62018927D01*
X11725142Y-62030553D01*
X11732583Y-62042969D01*
X11738772Y-62056054D01*
X11743649Y-62069683D01*
X11747166Y-62083724D01*
X11749290Y-62098042D01*
X11750000Y-62112500D01*
X11750000Y-62407500D01*
X11749290Y-62421958D01*
X11747166Y-62436276D01*
X11743649Y-62450317D01*
X11738772Y-62463946D01*
X11732583Y-62477031D01*
X11725142Y-62489447D01*
X11716519Y-62501073D01*
X11706798Y-62511798D01*
X11696073Y-62521519D01*
X11684447Y-62530142D01*
X11672031Y-62537583D01*
X11658946Y-62543772D01*
X11645317Y-62548649D01*
X11631276Y-62552166D01*
X11616958Y-62554290D01*
X11602500Y-62555000D01*
X11257500Y-62555000D01*
X11243042Y-62554290D01*
X11228724Y-62552166D01*
X11214683Y-62548649D01*
X11201054Y-62543772D01*
X11187969Y-62537583D01*
X11175553Y-62530142D01*
X11163927Y-62521519D01*
X11153202Y-62511798D01*
X11143481Y-62501073D01*
X11134858Y-62489447D01*
X11127417Y-62477031D01*
X11121228Y-62463946D01*
X11116351Y-62450317D01*
X11112834Y-62436276D01*
X11110710Y-62421958D01*
X11110000Y-62407500D01*
X11110000Y-62112500D01*
X11110710Y-62098042D01*
X11112834Y-62083724D01*
X11116351Y-62069683D01*
X11121228Y-62056054D01*
X11127417Y-62042969D01*
X11134858Y-62030553D01*
X11143481Y-62018927D01*
X11153202Y-62008202D01*
X11163927Y-61998481D01*
X11175553Y-61989858D01*
X11187969Y-61982417D01*
X11201054Y-61976228D01*
X11214683Y-61971351D01*
X11228724Y-61967834D01*
X11243042Y-61965710D01*
X11257500Y-61965000D01*
X11602500Y-61965000D01*
X11616958Y-61965710D01*
X11616958Y-61965710D01*
G37*
D13*
%TD*%
%TO.P,R0,2*%
%TO.N,Net-(AVR0-Pad4)*%
X11430000Y-62260000D03*
D12*
%TO.N,Net-(R0-Pad1)*%
%TO.C,R0*%
G36*
X11616958Y-62935710D02*
X11631276Y-62937834D01*
X11645317Y-62941351D01*
X11658946Y-62946228D01*
X11672031Y-62952417D01*
X11684447Y-62959858D01*
X11696073Y-62968481D01*
X11706798Y-62978202D01*
X11716519Y-62988927D01*
X11725142Y-63000553D01*
X11732583Y-63012969D01*
X11738772Y-63026054D01*
X11743649Y-63039683D01*
X11747166Y-63053724D01*
X11749290Y-63068042D01*
X11750000Y-63082500D01*
X11750000Y-63377500D01*
X11749290Y-63391958D01*
X11747166Y-63406276D01*
X11743649Y-63420317D01*
X11738772Y-63433946D01*
X11732583Y-63447031D01*
X11725142Y-63459447D01*
X11716519Y-63471073D01*
X11706798Y-63481798D01*
X11696073Y-63491519D01*
X11684447Y-63500142D01*
X11672031Y-63507583D01*
X11658946Y-63513772D01*
X11645317Y-63518649D01*
X11631276Y-63522166D01*
X11616958Y-63524290D01*
X11602500Y-63525000D01*
X11257500Y-63525000D01*
X11243042Y-63524290D01*
X11228724Y-63522166D01*
X11214683Y-63518649D01*
X11201054Y-63513772D01*
X11187969Y-63507583D01*
X11175553Y-63500142D01*
X11163927Y-63491519D01*
X11153202Y-63481798D01*
X11143481Y-63471073D01*
X11134858Y-63459447D01*
X11127417Y-63447031D01*
X11121228Y-63433946D01*
X11116351Y-63420317D01*
X11112834Y-63406276D01*
X11110710Y-63391958D01*
X11110000Y-63377500D01*
X11110000Y-63082500D01*
X11110710Y-63068042D01*
X11112834Y-63053724D01*
X11116351Y-63039683D01*
X11121228Y-63026054D01*
X11127417Y-63012969D01*
X11134858Y-63000553D01*
X11143481Y-62988927D01*
X11153202Y-62978202D01*
X11163927Y-62968481D01*
X11175553Y-62959858D01*
X11187969Y-62952417D01*
X11201054Y-62946228D01*
X11214683Y-62941351D01*
X11228724Y-62937834D01*
X11243042Y-62935710D01*
X11257500Y-62935000D01*
X11602500Y-62935000D01*
X11616958Y-62935710D01*
X11616958Y-62935710D01*
G37*
D13*
%TD*%
%TO.P,R0,1*%
%TO.N,Net-(R0-Pad1)*%
X11430000Y-63230000D03*
D12*
%TO.N,Net-(AVR0-Pad3)*%
%TO.C,R1*%
G36*
X14156958Y-61965710D02*
X14171276Y-61967834D01*
X14185317Y-61971351D01*
X14198946Y-61976228D01*
X14212031Y-61982417D01*
X14224447Y-61989858D01*
X14236073Y-61998481D01*
X14246798Y-62008202D01*
X14256519Y-62018927D01*
X14265142Y-62030553D01*
X14272583Y-62042969D01*
X14278772Y-62056054D01*
X14283649Y-62069683D01*
X14287166Y-62083724D01*
X14289290Y-62098042D01*
X14290000Y-62112500D01*
X14290000Y-62407500D01*
X14289290Y-62421958D01*
X14287166Y-62436276D01*
X14283649Y-62450317D01*
X14278772Y-62463946D01*
X14272583Y-62477031D01*
X14265142Y-62489447D01*
X14256519Y-62501073D01*
X14246798Y-62511798D01*
X14236073Y-62521519D01*
X14224447Y-62530142D01*
X14212031Y-62537583D01*
X14198946Y-62543772D01*
X14185317Y-62548649D01*
X14171276Y-62552166D01*
X14156958Y-62554290D01*
X14142500Y-62555000D01*
X13797500Y-62555000D01*
X13783042Y-62554290D01*
X13768724Y-62552166D01*
X13754683Y-62548649D01*
X13741054Y-62543772D01*
X13727969Y-62537583D01*
X13715553Y-62530142D01*
X13703927Y-62521519D01*
X13693202Y-62511798D01*
X13683481Y-62501073D01*
X13674858Y-62489447D01*
X13667417Y-62477031D01*
X13661228Y-62463946D01*
X13656351Y-62450317D01*
X13652834Y-62436276D01*
X13650710Y-62421958D01*
X13650000Y-62407500D01*
X13650000Y-62112500D01*
X13650710Y-62098042D01*
X13652834Y-62083724D01*
X13656351Y-62069683D01*
X13661228Y-62056054D01*
X13667417Y-62042969D01*
X13674858Y-62030553D01*
X13683481Y-62018927D01*
X13693202Y-62008202D01*
X13703927Y-61998481D01*
X13715553Y-61989858D01*
X13727969Y-61982417D01*
X13741054Y-61976228D01*
X13754683Y-61971351D01*
X13768724Y-61967834D01*
X13783042Y-61965710D01*
X13797500Y-61965000D01*
X14142500Y-61965000D01*
X14156958Y-61965710D01*
X14156958Y-61965710D01*
G37*
D13*
%TD*%
%TO.P,R1,2*%
%TO.N,Net-(AVR0-Pad3)*%
X13970000Y-62260000D03*
D12*
%TO.N,Net-(R1-Pad1)*%
%TO.C,R1*%
G36*
X14156958Y-62935710D02*
X14171276Y-62937834D01*
X14185317Y-62941351D01*
X14198946Y-62946228D01*
X14212031Y-62952417D01*
X14224447Y-62959858D01*
X14236073Y-62968481D01*
X14246798Y-62978202D01*
X14256519Y-62988927D01*
X14265142Y-63000553D01*
X14272583Y-63012969D01*
X14278772Y-63026054D01*
X14283649Y-63039683D01*
X14287166Y-63053724D01*
X14289290Y-63068042D01*
X14290000Y-63082500D01*
X14290000Y-63377500D01*
X14289290Y-63391958D01*
X14287166Y-63406276D01*
X14283649Y-63420317D01*
X14278772Y-63433946D01*
X14272583Y-63447031D01*
X14265142Y-63459447D01*
X14256519Y-63471073D01*
X14246798Y-63481798D01*
X14236073Y-63491519D01*
X14224447Y-63500142D01*
X14212031Y-63507583D01*
X14198946Y-63513772D01*
X14185317Y-63518649D01*
X14171276Y-63522166D01*
X14156958Y-63524290D01*
X14142500Y-63525000D01*
X13797500Y-63525000D01*
X13783042Y-63524290D01*
X13768724Y-63522166D01*
X13754683Y-63518649D01*
X13741054Y-63513772D01*
X13727969Y-63507583D01*
X13715553Y-63500142D01*
X13703927Y-63491519D01*
X13693202Y-63481798D01*
X13683481Y-63471073D01*
X13674858Y-63459447D01*
X13667417Y-63447031D01*
X13661228Y-63433946D01*
X13656351Y-63420317D01*
X13652834Y-63406276D01*
X13650710Y-63391958D01*
X13650000Y-63377500D01*
X13650000Y-63082500D01*
X13650710Y-63068042D01*
X13652834Y-63053724D01*
X13656351Y-63039683D01*
X13661228Y-63026054D01*
X13667417Y-63012969D01*
X13674858Y-63000553D01*
X13683481Y-62988927D01*
X13693202Y-62978202D01*
X13703927Y-62968481D01*
X13715553Y-62959858D01*
X13727969Y-62952417D01*
X13741054Y-62946228D01*
X13754683Y-62941351D01*
X13768724Y-62937834D01*
X13783042Y-62935710D01*
X13797500Y-62935000D01*
X14142500Y-62935000D01*
X14156958Y-62935710D01*
X14156958Y-62935710D01*
G37*
D13*
%TD*%
%TO.P,R1,1*%
%TO.N,Net-(R1-Pad1)*%
X13970000Y-63230000D03*
D12*
%TO.N,Net-(PFP0-Pad4)*%
%TO.C,R2*%
G36*
X23046958Y-66745710D02*
X23061276Y-66747834D01*
X23075317Y-66751351D01*
X23088946Y-66756228D01*
X23102031Y-66762417D01*
X23114447Y-66769858D01*
X23126073Y-66778481D01*
X23136798Y-66788202D01*
X23146519Y-66798927D01*
X23155142Y-66810553D01*
X23162583Y-66822969D01*
X23168772Y-66836054D01*
X23173649Y-66849683D01*
X23177166Y-66863724D01*
X23179290Y-66878042D01*
X23180000Y-66892500D01*
X23180000Y-67187500D01*
X23179290Y-67201958D01*
X23177166Y-67216276D01*
X23173649Y-67230317D01*
X23168772Y-67243946D01*
X23162583Y-67257031D01*
X23155142Y-67269447D01*
X23146519Y-67281073D01*
X23136798Y-67291798D01*
X23126073Y-67301519D01*
X23114447Y-67310142D01*
X23102031Y-67317583D01*
X23088946Y-67323772D01*
X23075317Y-67328649D01*
X23061276Y-67332166D01*
X23046958Y-67334290D01*
X23032500Y-67335000D01*
X22687500Y-67335000D01*
X22673042Y-67334290D01*
X22658724Y-67332166D01*
X22644683Y-67328649D01*
X22631054Y-67323772D01*
X22617969Y-67317583D01*
X22605553Y-67310142D01*
X22593927Y-67301519D01*
X22583202Y-67291798D01*
X22573481Y-67281073D01*
X22564858Y-67269447D01*
X22557417Y-67257031D01*
X22551228Y-67243946D01*
X22546351Y-67230317D01*
X22542834Y-67216276D01*
X22540710Y-67201958D01*
X22540000Y-67187500D01*
X22540000Y-66892500D01*
X22540710Y-66878042D01*
X22542834Y-66863724D01*
X22546351Y-66849683D01*
X22551228Y-66836054D01*
X22557417Y-66822969D01*
X22564858Y-66810553D01*
X22573481Y-66798927D01*
X22583202Y-66788202D01*
X22593927Y-66778481D01*
X22605553Y-66769858D01*
X22617969Y-66762417D01*
X22631054Y-66756228D01*
X22644683Y-66751351D01*
X22658724Y-66747834D01*
X22673042Y-66745710D01*
X22687500Y-66745000D01*
X23032500Y-66745000D01*
X23046958Y-66745710D01*
X23046958Y-66745710D01*
G37*
D13*
%TD*%
%TO.P,R2,2*%
%TO.N,Net-(PFP0-Pad4)*%
X22860000Y-67040000D03*
D12*
%TO.N,OC4A*%
%TO.C,R2*%
G36*
X23046958Y-65775710D02*
X23061276Y-65777834D01*
X23075317Y-65781351D01*
X23088946Y-65786228D01*
X23102031Y-65792417D01*
X23114447Y-65799858D01*
X23126073Y-65808481D01*
X23136798Y-65818202D01*
X23146519Y-65828927D01*
X23155142Y-65840553D01*
X23162583Y-65852969D01*
X23168772Y-65866054D01*
X23173649Y-65879683D01*
X23177166Y-65893724D01*
X23179290Y-65908042D01*
X23180000Y-65922500D01*
X23180000Y-66217500D01*
X23179290Y-66231958D01*
X23177166Y-66246276D01*
X23173649Y-66260317D01*
X23168772Y-66273946D01*
X23162583Y-66287031D01*
X23155142Y-66299447D01*
X23146519Y-66311073D01*
X23136798Y-66321798D01*
X23126073Y-66331519D01*
X23114447Y-66340142D01*
X23102031Y-66347583D01*
X23088946Y-66353772D01*
X23075317Y-66358649D01*
X23061276Y-66362166D01*
X23046958Y-66364290D01*
X23032500Y-66365000D01*
X22687500Y-66365000D01*
X22673042Y-66364290D01*
X22658724Y-66362166D01*
X22644683Y-66358649D01*
X22631054Y-66353772D01*
X22617969Y-66347583D01*
X22605553Y-66340142D01*
X22593927Y-66331519D01*
X22583202Y-66321798D01*
X22573481Y-66311073D01*
X22564858Y-66299447D01*
X22557417Y-66287031D01*
X22551228Y-66273946D01*
X22546351Y-66260317D01*
X22542834Y-66246276D01*
X22540710Y-66231958D01*
X22540000Y-66217500D01*
X22540000Y-65922500D01*
X22540710Y-65908042D01*
X22542834Y-65893724D01*
X22546351Y-65879683D01*
X22551228Y-65866054D01*
X22557417Y-65852969D01*
X22564858Y-65840553D01*
X22573481Y-65828927D01*
X22583202Y-65818202D01*
X22593927Y-65808481D01*
X22605553Y-65799858D01*
X22617969Y-65792417D01*
X22631054Y-65786228D01*
X22644683Y-65781351D01*
X22658724Y-65777834D01*
X22673042Y-65775710D01*
X22687500Y-65775000D01*
X23032500Y-65775000D01*
X23046958Y-65775710D01*
X23046958Y-65775710D01*
G37*
D13*
%TD*%
%TO.P,R2,1*%
%TO.N,OC4A*%
X22860000Y-66070000D03*
D12*
%TO.N,GND*%
%TO.C,C0*%
G36*
X10886958Y-48660710D02*
X10901276Y-48662834D01*
X10915317Y-48666351D01*
X10928946Y-48671228D01*
X10942031Y-48677417D01*
X10954447Y-48684858D01*
X10966073Y-48693481D01*
X10976798Y-48703202D01*
X10986519Y-48713927D01*
X10995142Y-48725553D01*
X11002583Y-48737969D01*
X11008772Y-48751054D01*
X11013649Y-48764683D01*
X11017166Y-48778724D01*
X11019290Y-48793042D01*
X11020000Y-48807500D01*
X11020000Y-49102500D01*
X11019290Y-49116958D01*
X11017166Y-49131276D01*
X11013649Y-49145317D01*
X11008772Y-49158946D01*
X11002583Y-49172031D01*
X10995142Y-49184447D01*
X10986519Y-49196073D01*
X10976798Y-49206798D01*
X10966073Y-49216519D01*
X10954447Y-49225142D01*
X10942031Y-49232583D01*
X10928946Y-49238772D01*
X10915317Y-49243649D01*
X10901276Y-49247166D01*
X10886958Y-49249290D01*
X10872500Y-49250000D01*
X10527500Y-49250000D01*
X10513042Y-49249290D01*
X10498724Y-49247166D01*
X10484683Y-49243649D01*
X10471054Y-49238772D01*
X10457969Y-49232583D01*
X10445553Y-49225142D01*
X10433927Y-49216519D01*
X10423202Y-49206798D01*
X10413481Y-49196073D01*
X10404858Y-49184447D01*
X10397417Y-49172031D01*
X10391228Y-49158946D01*
X10386351Y-49145317D01*
X10382834Y-49131276D01*
X10380710Y-49116958D01*
X10380000Y-49102500D01*
X10380000Y-48807500D01*
X10380710Y-48793042D01*
X10382834Y-48778724D01*
X10386351Y-48764683D01*
X10391228Y-48751054D01*
X10397417Y-48737969D01*
X10404858Y-48725553D01*
X10413481Y-48713927D01*
X10423202Y-48703202D01*
X10433927Y-48693481D01*
X10445553Y-48684858D01*
X10457969Y-48677417D01*
X10471054Y-48671228D01*
X10484683Y-48666351D01*
X10498724Y-48662834D01*
X10513042Y-48660710D01*
X10527500Y-48660000D01*
X10872500Y-48660000D01*
X10886958Y-48660710D01*
X10886958Y-48660710D01*
G37*
D13*
%TD*%
%TO.P,C0,2*%
%TO.N,GND*%
X10700000Y-48955000D03*
D12*
%TO.N,Net-(AVR0-Pad6)*%
%TO.C,C0*%
G36*
X10886958Y-47690710D02*
X10901276Y-47692834D01*
X10915317Y-47696351D01*
X10928946Y-47701228D01*
X10942031Y-47707417D01*
X10954447Y-47714858D01*
X10966073Y-47723481D01*
X10976798Y-47733202D01*
X10986519Y-47743927D01*
X10995142Y-47755553D01*
X11002583Y-47767969D01*
X11008772Y-47781054D01*
X11013649Y-47794683D01*
X11017166Y-47808724D01*
X11019290Y-47823042D01*
X11020000Y-47837500D01*
X11020000Y-48132500D01*
X11019290Y-48146958D01*
X11017166Y-48161276D01*
X11013649Y-48175317D01*
X11008772Y-48188946D01*
X11002583Y-48202031D01*
X10995142Y-48214447D01*
X10986519Y-48226073D01*
X10976798Y-48236798D01*
X10966073Y-48246519D01*
X10954447Y-48255142D01*
X10942031Y-48262583D01*
X10928946Y-48268772D01*
X10915317Y-48273649D01*
X10901276Y-48277166D01*
X10886958Y-48279290D01*
X10872500Y-48280000D01*
X10527500Y-48280000D01*
X10513042Y-48279290D01*
X10498724Y-48277166D01*
X10484683Y-48273649D01*
X10471054Y-48268772D01*
X10457969Y-48262583D01*
X10445553Y-48255142D01*
X10433927Y-48246519D01*
X10423202Y-48236798D01*
X10413481Y-48226073D01*
X10404858Y-48214447D01*
X10397417Y-48202031D01*
X10391228Y-48188946D01*
X10386351Y-48175317D01*
X10382834Y-48161276D01*
X10380710Y-48146958D01*
X10380000Y-48132500D01*
X10380000Y-47837500D01*
X10380710Y-47823042D01*
X10382834Y-47808724D01*
X10386351Y-47794683D01*
X10391228Y-47781054D01*
X10397417Y-47767969D01*
X10404858Y-47755553D01*
X10413481Y-47743927D01*
X10423202Y-47733202D01*
X10433927Y-47723481D01*
X10445553Y-47714858D01*
X10457969Y-47707417D01*
X10471054Y-47701228D01*
X10484683Y-47696351D01*
X10498724Y-47692834D01*
X10513042Y-47690710D01*
X10527500Y-47690000D01*
X10872500Y-47690000D01*
X10886958Y-47690710D01*
X10886958Y-47690710D01*
G37*
D13*
%TD*%
%TO.P,C0,1*%
%TO.N,Net-(AVR0-Pad6)*%
X10700000Y-47985000D03*
D14*
%TO.P,POWER0,4*%
%TO.N,+5V*%
X60960000Y-67990000D03*
%TO.P,POWER0,3*%
%TO.N,GND*%
X63460000Y-67990000D03*
%TO.P,POWER0,2*%
X65960000Y-67990000D03*
D15*
%TO.P,POWER0,1*%
%TO.N,+12V*%
X68460000Y-67990000D03*
%TD*%
D16*
%TO.P,USB0,4*%
%TO.N,GND*%
X8890000Y-65450000D03*
%TO.P,USB0,3*%
%TO.N,Net-(R0-Pad1)*%
X11430000Y-65450000D03*
%TO.P,USB0,2*%
%TO.N,Net-(R1-Pad1)*%
X13970000Y-65450000D03*
D17*
%TO.P,USB0,1*%
%TO.N,VCC*%
X16510000Y-65450000D03*
%TD*%
D18*
%TO.P,ICSP0,6*%
%TO.N,GND*%
X17705000Y-15920000D03*
%TO.P,ICSP0,5*%
%TO.N,RST*%
X12655000Y-15920000D03*
%TO.P,ICSP0,4*%
%TO.N,MOSI*%
X17705000Y-18460000D03*
%TO.P,ICSP0,3*%
%TO.N,SCLK*%
X12655000Y-18460000D03*
%TO.P,ICSP0,2*%
%TO.N,VCC*%
X17705000Y-21000000D03*
%TO.P,ICSP0,1*%
%TO.N,MISO*%
X12655000Y-21000000D03*
%TD*%
D19*
%TO.P,B0,2*%
%TO.N,PB4*%
X2000000Y-29250000D03*
X8300000Y-29250000D03*
%TO.P,B0,1*%
%TO.N,GND*%
X2000000Y-25450000D03*
X8300000Y-25450000D03*
%TD*%
D20*
%TO.P,DATA1,7*%
%TO.N,GND*%
X26100000Y-22760000D03*
%TO.P,DATA1,6*%
%TO.N,Net-(DATA1-Pad6)*%
X27370000Y-22760000D03*
%TO.P,DATA1,5*%
%TO.N,Net-(DATA1-Pad5)*%
X28640000Y-22760000D03*
%TO.P,DATA1,4*%
%TO.N,GND*%
X29910000Y-22760000D03*
%TO.P,DATA1,3*%
%TO.N,Net-(DATA1-Pad3)*%
X31180000Y-22760000D03*
%TO.P,DATA1,2*%
%TO.N,Net-(DATA1-Pad2)*%
X32450000Y-22760000D03*
%TO.P,DATA1,1*%
%TO.N,GND*%
X33720000Y-22760000D03*
D21*
%TO.P,DATA1,*%
X23640000Y-23760000D03*
X36470000Y-22760000D03*
%TD*%
D20*
%TO.P,DATA0,7*%
%TO.N,GND*%
X26100000Y-6760000D03*
%TO.P,DATA0,6*%
%TO.N,Net-(DATA0-Pad6)*%
X27370000Y-6760000D03*
%TO.P,DATA0,5*%
%TO.N,Net-(DATA0-Pad5)*%
X28640000Y-6760000D03*
%TO.P,DATA0,4*%
%TO.N,GND*%
X29910000Y-6760000D03*
%TO.P,DATA0,3*%
%TO.N,Net-(DATA0-Pad3)*%
X31180000Y-6760000D03*
%TO.P,DATA0,2*%
%TO.N,Net-(DATA0-Pad2)*%
X32450000Y-6760000D03*
%TO.P,DATA0,1*%
%TO.N,GND*%
X33720000Y-6760000D03*
D21*
%TO.P,DATA0,*%
X23640000Y-7760000D03*
X36470000Y-6760000D03*
%TD*%
%TO.P,DATA3,*%
%TO.N,GND*%
X36470000Y-54760000D03*
X23640000Y-55760000D03*
D20*
%TO.P,DATA3,1*%
X33720000Y-54760000D03*
%TO.P,DATA3,2*%
%TO.N,Net-(DATA3-Pad2)*%
X32450000Y-54760000D03*
%TO.P,DATA3,3*%
%TO.N,Net-(DATA3-Pad3)*%
X31180000Y-54760000D03*
%TO.P,DATA3,4*%
%TO.N,GND*%
X29910000Y-54760000D03*
%TO.P,DATA3,5*%
%TO.N,Net-(DATA3-Pad5)*%
X28640000Y-54760000D03*
%TO.P,DATA3,6*%
%TO.N,Net-(DATA3-Pad6)*%
X27370000Y-54760000D03*
%TO.P,DATA3,7*%
%TO.N,GND*%
X26100000Y-54760000D03*
%TD*%
%TO.P,DATA2,7*%
%TO.N,GND*%
X26100000Y-39110000D03*
%TO.P,DATA2,6*%
%TO.N,Net-(DATA2-Pad6)*%
X27370000Y-39110000D03*
%TO.P,DATA2,5*%
%TO.N,Net-(DATA2-Pad5)*%
X28640000Y-39110000D03*
%TO.P,DATA2,4*%
%TO.N,GND*%
X29910000Y-39110000D03*
%TO.P,DATA2,3*%
%TO.N,Net-(DATA2-Pad3)*%
X31180000Y-39110000D03*
%TO.P,DATA2,2*%
%TO.N,Net-(DATA2-Pad2)*%
X32450000Y-39110000D03*
%TO.P,DATA2,1*%
%TO.N,GND*%
X33720000Y-39110000D03*
D21*
%TO.P,DATA2,*%
X23640000Y-40110000D03*
X36470000Y-39110000D03*
%TD*%
D14*
%TO.P,CPUOUT0,4*%
%TO.N,Net-(CPUMUX0-Pad5)*%
X38100000Y-67990000D03*
%TO.P,CPUOUT0,3*%
%TO.N,ADC4*%
X40640000Y-67990000D03*
%TO.P,CPUOUT0,2*%
%TO.N,+12V*%
X43180000Y-67990000D03*
D15*
%TO.P,CPUOUT0,1*%
%TO.N,GND*%
X45720000Y-67990000D03*
%TD*%
D22*
%TO.P,CPUMUX0,8*%
%TO.N,VCC*%
X16975000Y-51480000D03*
%TO.P,CPUMUX0,7*%
%TO.N,GND*%
X16475000Y-51480000D03*
%TO.P,CPUMUX0,6*%
%TO.N,PE6*%
X15975000Y-51480000D03*
%TO.P,CPUMUX0,5*%
%TO.N,Net-(CPUMUX0-Pad5)*%
X15475000Y-51480000D03*
%TO.P,CPUMUX0,4*%
%TO.N,GND*%
X15475000Y-54580000D03*
%TO.P,CPUMUX0,3*%
%TO.N,Net-(CPUMUX0-Pad3)*%
X15975000Y-54580000D03*
%TO.P,CPUMUX0,2*%
%TO.N,OC1A*%
X16475000Y-54580000D03*
%TO.P,CPUMUX0,1*%
%TO.N,Net-(CPUIN0-Pad4)*%
X16975000Y-54580000D03*
%TD*%
D23*
%TO.P,AVR0,44*%
%TO.N,VCC*%
X16400000Y-42950000D03*
%TO.P,AVR0,43*%
%TO.N,GND*%
X16400000Y-42150000D03*
%TO.P,AVR0,42*%
%TO.N,Net-(AVR0-Pad42)*%
X16400000Y-41350000D03*
%TO.P,AVR0,41*%
%TO.N,ADC0*%
X16400000Y-40550000D03*
%TO.P,AVR0,40*%
%TO.N,ADC1*%
X16400000Y-39750000D03*
%TO.P,AVR0,39*%
%TO.N,ADC4*%
X16400000Y-38950000D03*
%TO.P,AVR0,38*%
%TO.N,ADC5*%
X16400000Y-38150000D03*
%TO.P,AVR0,37*%
%TO.N,ADC6*%
X16400000Y-37350000D03*
%TO.P,AVR0,36*%
%TO.N,ADC7*%
X16400000Y-36550000D03*
%TO.P,AVR0,35*%
%TO.N,GND*%
X16400000Y-35750000D03*
%TO.P,AVR0,34*%
%TO.N,VCC*%
X16400000Y-34950000D03*
D24*
%TO.P,AVR0,33*%
%TO.N,HWB*%
X14700000Y-33250000D03*
%TO.P,AVR0,32*%
%TO.N,OC4A*%
X13900000Y-33250000D03*
%TO.P,AVR0,31*%
%TO.N,OC3A*%
X13100000Y-33250000D03*
%TO.P,AVR0,30*%
%TO.N,OC1B*%
X12300000Y-33250000D03*
%TO.P,AVR0,29*%
%TO.N,OC1A*%
X11500000Y-33250000D03*
%TO.P,AVR0,28*%
%TO.N,PB4*%
X10700000Y-33250000D03*
%TO.P,AVR0,27*%
%TO.N,ADC10*%
X9900000Y-33250000D03*
%TO.P,AVR0,26*%
%TO.N,ADC9*%
X9100000Y-33250000D03*
%TO.P,AVR0,25*%
%TO.N,ADC8*%
X8300000Y-33250000D03*
%TO.P,AVR0,24*%
%TO.N,VCC*%
X7500000Y-33250000D03*
%TO.P,AVR0,23*%
%TO.N,GND*%
X6700000Y-33250000D03*
D23*
%TO.P,AVR0,22*%
%TO.N,XCK1*%
X5000000Y-34950000D03*
%TO.P,AVR0,21*%
%TO.N,TXD1*%
X5000000Y-35750000D03*
%TO.P,AVR0,20*%
%TO.N,RXD1*%
X5000000Y-36550000D03*
%TO.P,AVR0,19*%
%TO.N,SDA*%
X5000000Y-37350000D03*
%TO.P,AVR0,18*%
%TO.N,SCL*%
X5000000Y-38150000D03*
%TO.P,AVR0,17*%
%TO.N,Net-(AVR0-Pad17)*%
X5000000Y-38950000D03*
%TO.P,AVR0,16*%
%TO.N,Net-(AVR0-Pad16)*%
X5000000Y-39750000D03*
%TO.P,AVR0,15*%
%TO.N,GND*%
X5000000Y-40550000D03*
%TO.P,AVR0,14*%
%TO.N,VCC*%
X5000000Y-41350000D03*
%TO.P,AVR0,13*%
%TO.N,RST*%
X5000000Y-42150000D03*
%TO.P,AVR0,12*%
%TO.N,RTS*%
X5000000Y-42950000D03*
D24*
%TO.P,AVR0,11*%
%TO.N,MISO*%
X6700000Y-44650000D03*
%TO.P,AVR0,10*%
%TO.N,MOSI*%
X7500000Y-44650000D03*
%TO.P,AVR0,9*%
%TO.N,SCLK*%
X8300000Y-44650000D03*
%TO.P,AVR0,8*%
%TO.N,SS*%
X9100000Y-44650000D03*
%TO.P,AVR0,7*%
%TO.N,VCC*%
X9900000Y-44650000D03*
%TO.P,AVR0,6*%
%TO.N,Net-(AVR0-Pad6)*%
X10700000Y-44650000D03*
%TO.P,AVR0,5*%
%TO.N,GND*%
X11500000Y-44650000D03*
%TO.P,AVR0,4*%
%TO.N,Net-(AVR0-Pad4)*%
X12300000Y-44650000D03*
%TO.P,AVR0,3*%
%TO.N,Net-(AVR0-Pad3)*%
X13100000Y-44650000D03*
%TO.P,AVR0,2*%
%TO.N,VCC*%
X13900000Y-44650000D03*
%TO.P,AVR0,1*%
%TO.N,PE6*%
X14700000Y-44650000D03*
%TD*%
D16*
%TO.P,PMB0,4*%
%TO.N,ADC0*%
X11430000Y-69260000D03*
%TO.P,PMB0,3*%
%TO.N,Net-(PMB0-Pad3)*%
X8890000Y-69260000D03*
%TO.P,PMB0,2*%
%TO.N,PB4*%
X6350000Y-69260000D03*
D17*
%TO.P,PMB0,1*%
%TO.N,GND*%
X3810000Y-69260000D03*
%TD*%
D14*
%TO.P,CPUIN0,4*%
%TO.N,Net-(CPUIN0-Pad4)*%
X26670000Y-67990000D03*
%TO.P,CPUIN0,3*%
%TO.N,ADC4*%
X29210000Y-67990000D03*
%TO.P,CPUIN0,2*%
%TO.N,Net-(CPUIN0-Pad2)*%
X31750000Y-67990000D03*
D15*
%TO.P,CPUIN0,1*%
%TO.N,GND*%
X34290000Y-67990000D03*
%TD*%
D14*
%TO.P,INTAKE0,4*%
%TO.N,OC1B*%
X49530000Y-67990000D03*
%TO.P,INTAKE0,3*%
%TO.N,ADC5*%
X52070000Y-67990000D03*
%TO.P,INTAKE0,2*%
%TO.N,+12V*%
X54610000Y-67990000D03*
D15*
%TO.P,INTAKE0,1*%
%TO.N,GND*%
X57150000Y-67990000D03*
%TD*%
D16*
%TO.P,PFP0,4*%
%TO.N,Net-(PFP0-Pad4)*%
X22860000Y-69260000D03*
%TO.P,PFP0,3*%
%TO.N,GND*%
X20320000Y-69260000D03*
%TO.P,PFP0,2*%
%TO.N,ADC1*%
X17780000Y-69260000D03*
D17*
%TO.P,PFP0,1*%
%TO.N,GND*%
X15240000Y-69260000D03*
%TD*%
D25*
%TO.N,Net-(AVR0-Pad17)*%
X2200000Y-38550000D03*
%TO.N,Net-(AVR0-Pad16)*%
X2200000Y-40150000D03*
%TO.N,Net-(CPUIN0-Pad4)*%
X17775000Y-56180000D03*
%TO.N,Net-(DATA2-Pad6)*%
X27370000Y-41110000D03*
%TO.N,Net-(DATA2-Pad5)*%
X28640000Y-41110000D03*
%TO.N,Net-(DATA2-Pad3)*%
X31180000Y-41110000D03*
%TO.N,Net-(DATA2-Pad2)*%
X32450000Y-41110000D03*
%TO.N,Net-(DATA3-Pad6)*%
X27370000Y-57110000D03*
%TO.N,Net-(DATA3-Pad5)*%
X28640000Y-57110000D03*
%TO.N,Net-(DATA3-Pad3)*%
X31180000Y-57110000D03*
%TO.N,Net-(DATA3-Pad2)*%
X32450000Y-57110000D03*
%TO.N,Net-(DATA0-Pad6)*%
X27370000Y-9110000D03*
%TO.N,Net-(DATA0-Pad5)*%
X28640000Y-9110000D03*
%TO.N,Net-(DATA0-Pad3)*%
X31180000Y-9110000D03*
%TO.N,Net-(DATA0-Pad2)*%
X32450000Y-9110000D03*
%TO.N,Net-(DATA1-Pad6)*%
X27370000Y-25110000D03*
%TO.N,Net-(DATA1-Pad5)*%
X28640000Y-25110000D03*
%TO.N,Net-(DATA1-Pad3)*%
X31180000Y-25110000D03*
%TO.N,Net-(DATA1-Pad2)*%
X32450000Y-25110000D03*
%TO.N,OC1B*%
X25400000Y-48940000D03*
X13900000Y-30050000D03*
%TO.N,OC1A*%
X15975000Y-56079994D03*
X13100000Y-29250000D03*
%TO.N,Net-(CPUMUX0-Pad5)*%
X22860000Y-51480000D03*
X14475000Y-51480000D03*
%TO.N,VCC*%
X18000000Y-43350000D03*
X7507115Y-31657115D03*
X17775000Y-50680000D03*
X13900000Y-46250000D03*
X9900000Y-47050000D03*
X18000000Y-34550000D03*
X20245000Y-21000000D03*
X2600000Y-41350000D03*
%TO.N,GND*%
X26100000Y-41110000D03*
X29910000Y-41110000D03*
X33720000Y-41110000D03*
X26100000Y-57110000D03*
X29910000Y-57110000D03*
X33720000Y-57110000D03*
X26100000Y-9110000D03*
X29910000Y-9110000D03*
X33720000Y-9110000D03*
X26100000Y-25110000D03*
X29910000Y-25110000D03*
X33720000Y-25110000D03*
X18000000Y-42150000D03*
X18000000Y-35750000D03*
X6300000Y-31650000D03*
X16975000Y-49980000D03*
X3400000Y-40550000D03*
X14475000Y-56080000D03*
X11500000Y-46250000D03*
X5200000Y-25450000D03*
X20245000Y-15920000D03*
X43880000Y-9110000D03*
X45150000Y-9110000D03*
X46420000Y-9110000D03*
X54040000Y-62190000D03*
X52770000Y-62190000D03*
X51500000Y-62190000D03*
X1000000Y-36550000D03*
X1000000Y-42150000D03*
%TO.N,MISO*%
X6700000Y-47050000D03*
X10115012Y-21000000D03*
%TO.N,MOSI*%
X7499984Y-46250000D03*
X20245000Y-18460000D03*
%TO.N,SCLK*%
X8300000Y-47050000D03*
X11500000Y-25450000D03*
%TO.N,OC4A*%
X21590000Y-50210000D03*
X13899976Y-31650000D03*
%TO.N,PB4*%
X12300000Y-28450000D03*
%TO.N,RST*%
X3400000Y-43750022D03*
X10115000Y-15920000D03*
%TO.N,+12V*%
X57850000Y-62190000D03*
X56580000Y-62190000D03*
X55310000Y-62190000D03*
%TO.N,+5V*%
X48960000Y-62190000D03*
X50230000Y-62190000D03*
X47690000Y-62190000D03*
%TD*%
D26*
%TO.N,Net-(AVR0-Pad17)*%
X2599999Y-38949999D02*
X2200000Y-38550000D01*
X5000000Y-38950000D02*
X2599999Y-38949999D01*
%TO.N,Net-(AVR0-Pad16)*%
X2599999Y-39750001D02*
X2200000Y-40150000D01*
X5000000Y-39750000D02*
X2599999Y-39750001D01*
%TO.N,Net-(AVR0-Pad6)*%
X10700000Y-44650000D02*
X10700000Y-47985000D01*
%TO.N,Net-(CPUIN0-Pad4)*%
X16975000Y-54580000D02*
X16975000Y-55380000D01*
X16975000Y-55380000D02*
X17775000Y-56180000D01*
D27*
%TO.N,Net-(DATA2-Pad6)*%
X27370000Y-41110000D02*
X27370000Y-39110000D01*
%TO.N,Net-(DATA2-Pad5)*%
X28640000Y-41110000D02*
X28640000Y-39110000D01*
%TO.N,Net-(DATA2-Pad3)*%
X31180000Y-41110000D02*
X31180000Y-39110000D01*
%TO.N,Net-(DATA2-Pad2)*%
X32450000Y-41110000D02*
X32450000Y-39110000D01*
%TO.N,Net-(DATA3-Pad6)*%
X27370000Y-57110000D02*
X27370000Y-54760000D01*
%TO.N,Net-(DATA3-Pad5)*%
X28640000Y-57110000D02*
X28640000Y-54760000D01*
%TO.N,Net-(DATA3-Pad3)*%
X31180000Y-57110000D02*
X31180000Y-54760000D01*
%TO.N,Net-(DATA3-Pad2)*%
X32450000Y-57110000D02*
X32450000Y-54760000D01*
%TO.N,Net-(DATA0-Pad6)*%
X27370000Y-9110000D02*
X27370000Y-6760000D01*
%TO.N,Net-(DATA0-Pad5)*%
X28640000Y-9110000D02*
X28640000Y-6760000D01*
%TO.N,Net-(DATA0-Pad3)*%
X31180000Y-9110000D02*
X31180000Y-6760000D01*
%TO.N,Net-(DATA0-Pad2)*%
X32450000Y-9110000D02*
X32450000Y-6760000D01*
%TO.N,Net-(DATA1-Pad6)*%
X27370000Y-25110000D02*
X27370000Y-22760000D01*
%TO.N,Net-(DATA1-Pad5)*%
X28640000Y-25110000D02*
X28640000Y-22760000D01*
%TO.N,Net-(DATA1-Pad3)*%
X31180000Y-25110000D02*
X31180000Y-22760000D01*
%TO.N,Net-(DATA1-Pad2)*%
X32450000Y-25110000D02*
X32450000Y-22760000D01*
D26*
%TO.N,Net-(AVR0-Pad3)*%
X13100000Y-61390000D02*
X13100000Y-44650000D01*
X13970000Y-62260000D02*
X13100000Y-61390000D01*
%TO.N,Net-(AVR0-Pad4)*%
X12300000Y-61390000D02*
X12300000Y-44650000D01*
X11430000Y-62260000D02*
X12300000Y-61390000D01*
%TO.N,Net-(PFP0-Pad4)*%
X22860000Y-69260000D02*
X22860000Y-67040000D01*
%TO.N,Net-(R1-Pad1)*%
X13970000Y-65450000D02*
X13970000Y-63230000D01*
%TO.N,OC1B*%
X12300000Y-33250000D02*
X12300000Y-31650000D01*
X12300000Y-31650000D02*
X13900000Y-30050000D01*
X45720000Y-64180000D02*
X41910000Y-64180000D01*
X40640000Y-62910000D02*
X40640000Y-51480000D01*
X40640000Y-51480000D02*
X38100000Y-48940000D01*
X49530000Y-67990000D02*
X45720000Y-64180000D01*
X41910000Y-64180000D02*
X40640000Y-62910000D01*
X38100000Y-48940000D02*
X25400000Y-48940000D01*
%TO.N,OC1A*%
X16475000Y-54580000D02*
X16475000Y-55579994D01*
X16475000Y-55579994D02*
X15975000Y-56079994D01*
X11500000Y-30850000D02*
X13100000Y-29250000D01*
X11500000Y-33250000D02*
X11500000Y-30850000D01*
%TO.N,Net-(CPUMUX0-Pad5)*%
X35560000Y-51480000D02*
X38100000Y-54020000D01*
X22860000Y-51480000D02*
X35560000Y-51480000D01*
X38100000Y-54020000D02*
X38100000Y-67990000D01*
X14475000Y-51480000D02*
X15475000Y-51480000D01*
%TO.N,VCC*%
X16400000Y-42950000D02*
X17600001Y-42950001D01*
X17600001Y-42950001D02*
X18000000Y-43350000D01*
X7500000Y-31664230D02*
X7507115Y-31657115D01*
X7500000Y-33250000D02*
X7500000Y-31664230D01*
X16975000Y-51480000D02*
X17775000Y-50680000D01*
X13900000Y-44650000D02*
X13900000Y-46250000D01*
X9900000Y-44650000D02*
X9900000Y-47050000D01*
X16400000Y-34950000D02*
X17600001Y-34949999D01*
X17600001Y-34949999D02*
X18000000Y-34550000D01*
X17705000Y-21000000D02*
X20245000Y-21000000D01*
X2600000Y-41350000D02*
X5000000Y-41350000D01*
%TO.N,PE6*%
X14700000Y-48650000D02*
X14700000Y-44650000D01*
X15975000Y-51480000D02*
X15975000Y-49925000D01*
X15975000Y-49925000D02*
X14700000Y-48650000D01*
D27*
%TO.N,GND*%
X26100000Y-41110000D02*
X26100000Y-39110000D01*
X29910000Y-41110000D02*
X29910000Y-39110000D01*
X33720000Y-41110000D02*
X33720000Y-39110000D01*
X26100000Y-57110000D02*
X26100000Y-54760000D01*
X29910000Y-57110000D02*
X29910000Y-54760000D01*
X33720000Y-57110000D02*
X33720000Y-54760000D01*
X26100000Y-9110000D02*
X26100000Y-6760000D01*
X29910000Y-9110000D02*
X29910000Y-6760000D01*
X33720000Y-9110000D02*
X33720000Y-6760000D01*
X26100000Y-25110000D02*
X26100000Y-22760000D01*
X29910000Y-25110000D02*
X29910000Y-22760000D01*
X33720000Y-25110000D02*
X33720000Y-22760000D01*
D26*
X16400000Y-42150000D02*
X18000000Y-42150000D01*
X16400000Y-35750000D02*
X18000000Y-35750000D01*
X6700000Y-33250000D02*
X6699999Y-32049999D01*
X6699999Y-32049999D02*
X6300000Y-31650000D01*
X16475000Y-51480000D02*
X16475000Y-50480000D01*
X16475000Y-50480000D02*
X16975000Y-49980000D01*
X15475000Y-54580000D02*
X15475000Y-54830000D01*
X15475000Y-54830000D02*
X14475000Y-55830000D01*
X14475000Y-55830000D02*
X14475000Y-56080000D01*
X2000000Y-25450000D02*
X5200000Y-25450000D01*
X8300000Y-25450000D02*
X5200000Y-25450000D01*
X17705000Y-15920000D02*
X20245000Y-15920000D01*
X11500000Y-48625000D02*
X11500000Y-46250000D01*
X11500000Y-46250000D02*
X11500000Y-44650000D01*
X5000000Y-40550000D02*
X3400000Y-40550000D01*
X11170000Y-48955000D02*
X10700000Y-48955000D01*
X11500000Y-48625000D02*
X11170000Y-48955000D01*
%TO.N,MISO*%
X6700000Y-44650000D02*
X6700000Y-47050000D01*
X12655000Y-21000000D02*
X10115012Y-21000000D01*
%TO.N,MOSI*%
X7500000Y-44650000D02*
X7500000Y-46249984D01*
X7500000Y-46249984D02*
X7499984Y-46250000D01*
X17705000Y-18460000D02*
X20245000Y-18460000D01*
%TO.N,SCLK*%
X8300000Y-44650000D02*
X8300000Y-47050000D01*
X9100000Y-23050000D02*
X11500000Y-25450000D01*
X12655000Y-18460000D02*
X10490000Y-18460000D01*
X9100000Y-19850000D02*
X9100000Y-23050000D01*
X10490000Y-18460000D02*
X9100000Y-19850000D01*
%TO.N,Net-(R0-Pad1)*%
X11430000Y-65450000D02*
X11430000Y-63230000D01*
%TO.N,ADC5*%
X39370000Y-47670000D02*
X41910000Y-50210000D01*
X23520000Y-47670000D02*
X39370000Y-47670000D01*
X41910000Y-50210000D02*
X41910000Y-61640000D01*
X21200000Y-45350000D02*
X23520000Y-47670000D01*
X16400000Y-38150000D02*
X19600000Y-38150000D01*
X46990000Y-62910000D02*
X52070000Y-67990000D01*
X21200000Y-39750000D02*
X21200000Y-45350000D01*
X19600000Y-38150000D02*
X21200000Y-39750000D01*
X41910000Y-61640000D02*
X43180000Y-62910000D01*
X43180000Y-62910000D02*
X46990000Y-62910000D01*
%TO.N,ADC4*%
X24130000Y-50210000D02*
X36830000Y-50210000D01*
X36830000Y-50210000D02*
X39370000Y-52750000D01*
X20400000Y-46480000D02*
X24130000Y-50210000D01*
X20400000Y-40550000D02*
X20400000Y-46480000D01*
X16400000Y-38950000D02*
X18800000Y-38950000D01*
X39370000Y-66720000D02*
X40640000Y-67990000D01*
X18800000Y-38950000D02*
X20400000Y-40550000D01*
X39370000Y-52750000D02*
X39370000Y-66720000D01*
%TO.N,ADC1*%
X19600000Y-67440000D02*
X17780000Y-69260000D01*
X19600000Y-40950000D02*
X19600000Y-67440000D01*
X16400000Y-39750000D02*
X18400000Y-39750000D01*
X18400000Y-39750000D02*
X19600000Y-40950000D01*
%TO.N,ADC0*%
X18000000Y-40550000D02*
X16400000Y-40550000D01*
X18800000Y-41350000D02*
X18000000Y-40550000D01*
X18800000Y-66335000D02*
X18800000Y-41350000D01*
X17780000Y-67355000D02*
X18800000Y-66335000D01*
X11430000Y-69260000D02*
X13335000Y-67355000D01*
X13335000Y-67355000D02*
X17780000Y-67355000D01*
%TO.N,OC4A*%
X21590000Y-50210000D02*
X20300000Y-51500000D01*
X13900000Y-31650024D02*
X13899976Y-31650000D01*
X13900000Y-33250000D02*
X13900000Y-31650024D01*
X22860000Y-66070000D02*
X20300000Y-63510000D01*
X20300000Y-63510000D02*
X20300000Y-51500000D01*
%TO.N,PB4*%
X10700000Y-33250000D02*
X10700000Y-29250000D01*
X8300000Y-29250000D02*
X10700000Y-29250000D01*
X8300000Y-29250000D02*
X2000000Y-29250000D01*
X11500000Y-29250000D02*
X12300000Y-28450000D01*
X10700000Y-29250000D02*
X11500000Y-29250000D01*
%TO.N,RST*%
X4000000Y-42150000D02*
X3400000Y-42750000D01*
X5000000Y-42150000D02*
X4000000Y-42150000D01*
X3400000Y-42750000D02*
X3400000Y-43750022D01*
X12655000Y-15920000D02*
X10115000Y-15920000D01*
%TD*%
M02*
