%TF.GenerationSoftware,KiCad,Pcbnew,6.0.0-rc1-unknown-ee465fb~66~ubuntu18.04.1*%
%TF.CreationDate,2018-10-03T14:05:45-06:00*%
%TF.ProjectId,thelio-io-sas,7468656C696F2D696F2D7361732E6B69,rev?*%
%TF.SameCoordinates,Original*%
%TF.FileFunction,Paste,Top*%
%TF.FilePolarity,Positive*%
%FSLAX46Y46*%
G04 Gerber Fmt 4.6, Leading zero omitted, Abs format (unit mm)*
G04 Created by KiCad (PCBNEW 6.0.0-rc1-unknown-ee465fb~66~ubuntu18.04.1) date Wed Oct  3 14:05:45 2018*
%MOMM*%
%LPD*%
G01*
G04 APERTURE LIST*
%ADD10C,0.200000*%
%ADD11C,0.150000*%
%ADD12R,0.500000X1.800000*%
%ADD13R,0.700000X1.800000*%
G04 APERTURE END LIST*
D10*
X78650000Y-71800000D02*
X3200000Y-71800000D01*
X0Y-68600000D02*
X0Y-3200000D01*
X81850000Y-3200000D02*
X81850000Y-68600000D01*
X0Y-3200000D02*
G75*
G02X3200000Y0I3200000J0D01*
G01*
X78650000Y0D02*
G75*
G02X81850000Y-3200000I0J-3200000D01*
G01*
X3200000Y0D02*
X78650000Y0D01*
D11*
X81850000Y-68600000D02*
G75*
G02X78650000Y-71800000I-3200000J0D01*
G01*
D10*
X3200000Y-71800000D02*
G75*
G02X0Y-68600000I0J3200000D01*
G01*
D12*
%TO.C,U.2_3*%
X45920000Y-62890000D03*
X46720000Y-62890000D03*
X47520000Y-62890000D03*
X48320000Y-62890000D03*
X49120000Y-62890000D03*
D13*
X51095000Y-62270000D03*
D12*
X49920000Y-62890000D03*
D13*
X37125000Y-62270000D03*
X38395000Y-62270000D03*
X39665000Y-62270000D03*
X40935000Y-62270000D03*
X42205000Y-62270000D03*
X43475000Y-62270000D03*
X44745000Y-62270000D03*
X52365000Y-62270000D03*
X53635000Y-62270000D03*
X54905000Y-62270000D03*
X56175000Y-62270000D03*
X57445000Y-62270000D03*
X58715000Y-62270000D03*
X59985000Y-62270000D03*
X61255000Y-62270000D03*
X62525000Y-62270000D03*
X63795000Y-62270000D03*
X65065000Y-62270000D03*
X66335000Y-62270000D03*
X67605000Y-62270000D03*
X68875000Y-62270000D03*
D12*
X68720000Y-58300000D03*
X67920000Y-58300000D03*
X67120000Y-58300000D03*
X66320000Y-58300000D03*
X65520000Y-58300000D03*
X64720000Y-58300000D03*
X63920000Y-58300000D03*
X63120000Y-58300000D03*
X62320000Y-58300000D03*
X61520000Y-58300000D03*
X60720000Y-58300000D03*
X59920000Y-58300000D03*
X59120000Y-58300000D03*
X58320000Y-58300000D03*
X57520000Y-58300000D03*
X56720000Y-58300000D03*
X55920000Y-58300000D03*
X55120000Y-58300000D03*
X54320000Y-58300000D03*
X53520000Y-58300000D03*
X52720000Y-58300000D03*
X51920000Y-58300000D03*
X51120000Y-58300000D03*
X50320000Y-58300000D03*
X49520000Y-58300000D03*
X48720000Y-58300000D03*
X47920000Y-58300000D03*
X47120000Y-58300000D03*
X46320000Y-58300000D03*
X45520000Y-58300000D03*
X44720000Y-58300000D03*
X43920000Y-58300000D03*
X43120000Y-58300000D03*
X42320000Y-58300000D03*
X41520000Y-58300000D03*
X40720000Y-58300000D03*
X39920000Y-58300000D03*
X39120000Y-58300000D03*
X38320000Y-58300000D03*
X37520000Y-58300000D03*
%TD*%
%TO.C,U.2_2*%
X45920000Y-46890000D03*
X46720000Y-46890000D03*
X47520000Y-46890000D03*
X48320000Y-46890000D03*
X49120000Y-46890000D03*
D13*
X51095000Y-46270000D03*
D12*
X49920000Y-46890000D03*
D13*
X37125000Y-46270000D03*
X38395000Y-46270000D03*
X39665000Y-46270000D03*
X40935000Y-46270000D03*
X42205000Y-46270000D03*
X43475000Y-46270000D03*
X44745000Y-46270000D03*
X52365000Y-46270000D03*
X53635000Y-46270000D03*
X54905000Y-46270000D03*
X56175000Y-46270000D03*
X57445000Y-46270000D03*
X58715000Y-46270000D03*
X59985000Y-46270000D03*
X61255000Y-46270000D03*
X62525000Y-46270000D03*
X63795000Y-46270000D03*
X65065000Y-46270000D03*
X66335000Y-46270000D03*
X67605000Y-46270000D03*
X68875000Y-46270000D03*
D12*
X68720000Y-42300000D03*
X67920000Y-42300000D03*
X67120000Y-42300000D03*
X66320000Y-42300000D03*
X65520000Y-42300000D03*
X64720000Y-42300000D03*
X63920000Y-42300000D03*
X63120000Y-42300000D03*
X62320000Y-42300000D03*
X61520000Y-42300000D03*
X60720000Y-42300000D03*
X59920000Y-42300000D03*
X59120000Y-42300000D03*
X58320000Y-42300000D03*
X57520000Y-42300000D03*
X56720000Y-42300000D03*
X55920000Y-42300000D03*
X55120000Y-42300000D03*
X54320000Y-42300000D03*
X53520000Y-42300000D03*
X52720000Y-42300000D03*
X51920000Y-42300000D03*
X51120000Y-42300000D03*
X50320000Y-42300000D03*
X49520000Y-42300000D03*
X48720000Y-42300000D03*
X47920000Y-42300000D03*
X47120000Y-42300000D03*
X46320000Y-42300000D03*
X45520000Y-42300000D03*
X44720000Y-42300000D03*
X43920000Y-42300000D03*
X43120000Y-42300000D03*
X42320000Y-42300000D03*
X41520000Y-42300000D03*
X40720000Y-42300000D03*
X39920000Y-42300000D03*
X39120000Y-42300000D03*
X38320000Y-42300000D03*
X37520000Y-42300000D03*
%TD*%
%TO.C,U.2_1*%
X37520000Y-26300000D03*
X38320000Y-26300000D03*
X39120000Y-26300000D03*
X39920000Y-26300000D03*
X40720000Y-26300000D03*
X41520000Y-26300000D03*
X42320000Y-26300000D03*
X43120000Y-26300000D03*
X43920000Y-26300000D03*
X44720000Y-26300000D03*
X45520000Y-26300000D03*
X46320000Y-26300000D03*
X47120000Y-26300000D03*
X47920000Y-26300000D03*
X48720000Y-26300000D03*
X49520000Y-26300000D03*
X50320000Y-26300000D03*
X51120000Y-26300000D03*
X51920000Y-26300000D03*
X52720000Y-26300000D03*
X53520000Y-26300000D03*
X54320000Y-26300000D03*
X55120000Y-26300000D03*
X55920000Y-26300000D03*
X56720000Y-26300000D03*
X57520000Y-26300000D03*
X58320000Y-26300000D03*
X59120000Y-26300000D03*
X59920000Y-26300000D03*
X60720000Y-26300000D03*
X61520000Y-26300000D03*
X62320000Y-26300000D03*
X63120000Y-26300000D03*
X63920000Y-26300000D03*
X64720000Y-26300000D03*
X65520000Y-26300000D03*
X66320000Y-26300000D03*
X67120000Y-26300000D03*
X67920000Y-26300000D03*
X68720000Y-26300000D03*
D13*
X68875000Y-30270000D03*
X67605000Y-30270000D03*
X66335000Y-30270000D03*
X65065000Y-30270000D03*
X63795000Y-30270000D03*
X62525000Y-30270000D03*
X61255000Y-30270000D03*
X59985000Y-30270000D03*
X58715000Y-30270000D03*
X57445000Y-30270000D03*
X56175000Y-30270000D03*
X54905000Y-30270000D03*
X53635000Y-30270000D03*
X52365000Y-30270000D03*
X44745000Y-30270000D03*
X43475000Y-30270000D03*
X42205000Y-30270000D03*
X40935000Y-30270000D03*
X39665000Y-30270000D03*
X38395000Y-30270000D03*
X37125000Y-30270000D03*
D12*
X49920000Y-30890000D03*
D13*
X51095000Y-30270000D03*
D12*
X49120000Y-30890000D03*
X48320000Y-30890000D03*
X47520000Y-30890000D03*
X46720000Y-30890000D03*
X45920000Y-30890000D03*
%TD*%
%TO.C,U.2_0*%
X37520000Y-10300000D03*
X38320000Y-10300000D03*
X39120000Y-10300000D03*
X39920000Y-10300000D03*
X40720000Y-10300000D03*
X41520000Y-10300000D03*
X42320000Y-10300000D03*
X43120000Y-10300000D03*
X43920000Y-10300000D03*
X44720000Y-10300000D03*
X45520000Y-10300000D03*
X46320000Y-10300000D03*
X47120000Y-10300000D03*
X47920000Y-10300000D03*
X48720000Y-10300000D03*
X49520000Y-10300000D03*
X50320000Y-10300000D03*
X51120000Y-10300000D03*
X51920000Y-10300000D03*
X52720000Y-10300000D03*
X53520000Y-10300000D03*
X54320000Y-10300000D03*
X55120000Y-10300000D03*
X55920000Y-10300000D03*
X56720000Y-10300000D03*
X57520000Y-10300000D03*
X58320000Y-10300000D03*
X59120000Y-10300000D03*
X59920000Y-10300000D03*
X60720000Y-10300000D03*
X61520000Y-10300000D03*
X62320000Y-10300000D03*
X63120000Y-10300000D03*
X63920000Y-10300000D03*
X64720000Y-10300000D03*
X65520000Y-10300000D03*
X66320000Y-10300000D03*
X67120000Y-10300000D03*
X67920000Y-10300000D03*
X68720000Y-10300000D03*
D13*
X68875000Y-14270000D03*
X67605000Y-14270000D03*
X66335000Y-14270000D03*
X65065000Y-14270000D03*
X63795000Y-14270000D03*
X62525000Y-14270000D03*
X61255000Y-14270000D03*
X59985000Y-14270000D03*
X58715000Y-14270000D03*
X57445000Y-14270000D03*
X56175000Y-14270000D03*
X54905000Y-14270000D03*
X53635000Y-14270000D03*
X52365000Y-14270000D03*
X44745000Y-14270000D03*
X43475000Y-14270000D03*
X42205000Y-14270000D03*
X40935000Y-14270000D03*
X39665000Y-14270000D03*
X38395000Y-14270000D03*
X37125000Y-14270000D03*
D12*
X49920000Y-14890000D03*
D13*
X51095000Y-14270000D03*
D12*
X49120000Y-14890000D03*
X48320000Y-14890000D03*
X47520000Y-14890000D03*
X46720000Y-14890000D03*
X45920000Y-14890000D03*
%TD*%
M02*
