M48
;DRILL file {KiCad 5.0.1-33cea8e~68~ubuntu18.10.1} date Tue Nov 27 14:07:15 2018
;FORMAT={-:-/ absolute / metric / decimal}
FMAT,2
METRIC,TZ
T1C0.400
T2C1.000
T3C1.020
%
G90
G05
M71
T1
X34.6Y-72.95
X34.6Y-74.15
X35.4Y-70.55
X35.4Y-72.15
X35.4Y-75.75
X37.2Y-57.45
X38.3Y-63.65
X38.7Y-79.05
X39.5Y-78.25
X39.507Y-63.657
X40.3Y-79.05
X41.9Y-79.05
X42.115Y-47.92
X42.115Y-53.
X43.5Y-57.45
X43.5Y-82.25
X44.3Y-60.45
X45.1Y-61.25
X45.9Y-63.65
X45.9Y-62.05
X45.9Y-78.25
X45.97Y-83.48
X46.475Y-88.08
X47.975Y-88.08
X48.975Y-81.98
X49.775Y-82.68
X49.775Y-88.18
X50.Y-66.55
X50.Y-67.75
X50.Y-74.15
X50.Y-75.35
X52.245Y-47.92
X52.245Y-50.46
X52.245Y-53.
X53.59Y-82.21
X54.86Y-83.48
X57.4Y-80.94
X58.1Y-41.11
X58.1Y-57.11
X58.1Y-73.11
X58.1Y-89.11
X59.37Y-41.11
X59.37Y-57.11
X59.37Y-73.11
X59.37Y-89.11
X60.64Y-41.11
X60.64Y-57.11
X60.64Y-73.11
X60.64Y-89.11
X61.91Y-41.11
X61.91Y-57.11
X61.91Y-73.11
X61.91Y-89.11
X63.18Y-41.11
X63.18Y-57.11
X63.18Y-73.11
X63.18Y-89.11
X64.45Y-41.11
X64.45Y-57.11
X64.45Y-73.11
X64.45Y-89.11
X65.72Y-41.11
X65.72Y-57.11
X65.72Y-73.11
X65.72Y-89.11
X75.88Y-41.11
X77.15Y-41.11
X78.42Y-41.11
X79.69Y-94.19
X80.96Y-94.19
X82.23Y-94.19
X83.5Y-94.19
X84.77Y-94.19
X86.04Y-94.19
X87.31Y-94.19
X88.58Y-94.19
X89.85Y-94.19
T2
X35.81Y-101.26
X38.35Y-101.26
X40.89Y-101.26
X43.43Y-101.26
X40.89Y-97.45
X43.43Y-97.45
X45.97Y-97.45
X48.51Y-97.45
X47.24Y-101.26
X49.78Y-101.26
X52.32Y-101.26
X54.86Y-101.26
T3
X58.67Y-99.99
X61.21Y-99.99
X63.75Y-99.99
X66.29Y-99.99
X70.1Y-99.99
X72.64Y-99.99
X75.18Y-99.99
X77.72Y-99.99
X81.53Y-99.99
X84.07Y-99.99
X86.61Y-99.99
X89.15Y-99.99
X92.96Y-99.99
X95.46Y-99.99
X97.96Y-99.99
X100.46Y-99.99
T0
M30
