%TF.GenerationSoftware,KiCad,Pcbnew,5.0.0-fee4fd1~66~ubuntu18.04.1*%
%TF.CreationDate,2018-10-08T15:08:01-06:00*%
%TF.ProjectId,thelio-io-sas,7468656C696F2D696F2D7361732E6B69,rev?*%
%TF.SameCoordinates,Original*%
%TF.FileFunction,Copper,L3,Inr,Plane*%
%TF.FilePolarity,Positive*%
%FSLAX46Y46*%
G04 Gerber Fmt 4.6, Leading zero omitted, Abs format (unit mm)*
G04 Created by KiCad (PCBNEW 5.0.0-fee4fd1~66~ubuntu18.04.1) date Mon Oct  8 15:08:01 2018*
%MOMM*%
%LPD*%
G01*
G04 APERTURE LIST*
%TA.AperFunction,NonConductor*%
%ADD10C,0.200000*%
%TD*%
%TA.AperFunction,NonConductor*%
%ADD11C,0.150000*%
%TD*%
%TA.AperFunction,ViaPad*%
%ADD12R,1.730000X2.030000*%
%TD*%
%TA.AperFunction,ViaPad*%
%ADD13O,1.730000X2.030000*%
%TD*%
%TA.AperFunction,WasherPad*%
%ADD14C,2.600000*%
%TD*%
%TA.AperFunction,ViaPad*%
%ADD15C,0.370000*%
%TD*%
%TA.AperFunction,ViaPad*%
%ADD16C,0.800000*%
%TD*%
%TA.AperFunction,Conductor*%
%ADD17C,0.250000*%
%TD*%
%TA.AperFunction,Conductor*%
%ADD18C,0.200000*%
%TD*%
%TA.AperFunction,Conductor*%
%ADD19C,0.254000*%
%TD*%
G04 APERTURE END LIST*
D10*
X77050000Y-18400000D02*
X77050000Y-53400000D01*
X75450000Y-16800000D02*
G75*
G02X77050000Y-18400000I0J-1600000D01*
G01*
X73850000Y-16800000D02*
X75450000Y-16800000D01*
X73850000Y-55000000D02*
X75450000Y-55000000D01*
X77050000Y-53400000D02*
G75*
G02X75450000Y-55000000I-1600000J0D01*
G01*
X70650000Y0D02*
G75*
G02X73850000Y-3200000I0J-3200000D01*
G01*
D11*
X73850000Y-68600000D02*
G75*
G02X70650000Y-71800000I-3200000J0D01*
G01*
D10*
X73850000Y-16800000D02*
X73850000Y-3200000D01*
X73850000Y-55000000D02*
X73850000Y-68600000D01*
X-3200000Y-18400000D02*
G75*
G02X-1600000Y-16800000I1600000J0D01*
G01*
X0Y-16800000D02*
X-1600000Y-16800000D01*
X0Y-55000000D02*
X-1600000Y-55000000D01*
X-1600000Y-55000000D02*
G75*
G02X-3200000Y-53400000I0J1600000D01*
G01*
X-3200000Y-53400000D02*
X-3200000Y-18400000D01*
X0Y-16800000D02*
X0Y-3200000D01*
X0Y-55000000D02*
X0Y-68600000D01*
X3200000Y0D02*
X70650000Y0D01*
X0Y-3200000D02*
G75*
G02X3200000Y0I3200000J0D01*
G01*
X70650000Y-71800000D02*
X3200000Y-71800000D01*
X3200000Y-71800000D02*
G75*
G02X0Y-68600000I0J3200000D01*
G01*
D12*
%TO.N,+12V*%
%TO.C,POWER0*%
X68460000Y-67990000D03*
D13*
%TO.N,GND*%
X65960000Y-67990000D03*
X63460000Y-67990000D03*
%TO.N,+5V*%
X60960000Y-67990000D03*
%TD*%
D14*
%TO.N,*%
%TO.C,U.2_3*%
X22635000Y-60560000D03*
X61365000Y-60560000D03*
%TD*%
D15*
%TO.N,/sas3/R1+*%
%TO.C,SAS3*%
X5420000Y-60450000D03*
%TO.N,GND*%
X4720000Y-61200000D03*
%TO.N,/sas3/CLK-*%
X4020000Y-61950000D03*
%TO.N,/sas3/CLK+*%
X5420000Y-62700000D03*
%TO.N,/sas3/R1-*%
X4020000Y-59700000D03*
%TO.N,/sas3/R3+*%
X5420000Y-58200000D03*
%TO.N,GND*%
X4720000Y-58950000D03*
X4720000Y-56700000D03*
%TO.N,/sas3/R3-*%
X4020000Y-57450000D03*
%TO.N,GND*%
X7820000Y-61950000D03*
X8520000Y-58950000D03*
%TO.N,/sas3/RST*%
X9220000Y-62700000D03*
%TO.N,/sas3/R0+*%
X9220000Y-60450000D03*
%TO.N,GND*%
X8520000Y-56700000D03*
X8520000Y-61200000D03*
%TO.N,/sas3/R0-*%
X7820000Y-59700000D03*
%TO.N,/sas3/R2-*%
X7820000Y-57450000D03*
%TO.N,/sas3/R2+*%
X9220000Y-58200000D03*
%TO.N,Net-(SAS3-PadC2)*%
X11620000Y-61950000D03*
%TO.N,GND*%
X12320000Y-58950000D03*
%TO.N,/sas3/ACT*%
X13020000Y-62700000D03*
%TO.N,/sas3/T1+*%
X13020000Y-60450000D03*
%TO.N,GND*%
X12320000Y-56700000D03*
X12320000Y-61200000D03*
%TO.N,/sas3/T1-*%
X11620000Y-59700000D03*
%TO.N,/sas3/T3-*%
X11620000Y-57450000D03*
%TO.N,/sas3/T3+*%
X13020000Y-58200000D03*
%TO.N,/sas3/SCLK*%
X15420000Y-61950000D03*
%TO.N,GND*%
X16120000Y-58950000D03*
%TO.N,/sas3/SDAT*%
X16820000Y-62700000D03*
%TO.N,/sas3/T0+*%
X16820000Y-60450000D03*
%TO.N,GND*%
X16120000Y-56700000D03*
X16120000Y-61200000D03*
%TO.N,/sas3/T0-*%
X15420000Y-59700000D03*
%TO.N,/sas3/T2-*%
X15420000Y-57450000D03*
%TO.N,/sas3/T2+*%
X16820000Y-58200000D03*
%TD*%
D14*
%TO.N,*%
%TO.C,U.2_2*%
X22635000Y-44560000D03*
X61365000Y-44560000D03*
%TD*%
D15*
%TO.N,/sas2/R1+*%
%TO.C,SAS2*%
X5420000Y-44450000D03*
%TO.N,GND*%
X4720000Y-45200000D03*
%TO.N,/sas2/CLK-*%
X4020000Y-45950000D03*
%TO.N,/sas2/CLK+*%
X5420000Y-46700000D03*
%TO.N,/sas2/R1-*%
X4020000Y-43700000D03*
%TO.N,/sas2/R3+*%
X5420000Y-42200000D03*
%TO.N,GND*%
X4720000Y-42950000D03*
X4720000Y-40700000D03*
%TO.N,/sas2/R3-*%
X4020000Y-41450000D03*
%TO.N,GND*%
X7820000Y-45950000D03*
X8520000Y-42950000D03*
%TO.N,/sas2/RST*%
X9220000Y-46700000D03*
%TO.N,/sas2/R0+*%
X9220000Y-44450000D03*
%TO.N,GND*%
X8520000Y-40700000D03*
X8520000Y-45200000D03*
%TO.N,/sas2/R0-*%
X7820000Y-43700000D03*
%TO.N,/sas2/R2-*%
X7820000Y-41450000D03*
%TO.N,/sas2/R2+*%
X9220000Y-42200000D03*
%TO.N,Net-(SAS2-PadC2)*%
X11620000Y-45950000D03*
%TO.N,GND*%
X12320000Y-42950000D03*
%TO.N,/sas2/ACT*%
X13020000Y-46700000D03*
%TO.N,/sas2/T1+*%
X13020000Y-44450000D03*
%TO.N,GND*%
X12320000Y-40700000D03*
X12320000Y-45200000D03*
%TO.N,/sas2/T1-*%
X11620000Y-43700000D03*
%TO.N,/sas2/T3-*%
X11620000Y-41450000D03*
%TO.N,/sas2/T3+*%
X13020000Y-42200000D03*
%TO.N,/sas2/SCLK*%
X15420000Y-45950000D03*
%TO.N,GND*%
X16120000Y-42950000D03*
%TO.N,/sas2/SDAT*%
X16820000Y-46700000D03*
%TO.N,/sas2/T0+*%
X16820000Y-44450000D03*
%TO.N,GND*%
X16120000Y-40700000D03*
X16120000Y-45200000D03*
%TO.N,/sas2/T0-*%
X15420000Y-43700000D03*
%TO.N,/sas2/T2-*%
X15420000Y-41450000D03*
%TO.N,/sas2/T2+*%
X16820000Y-42200000D03*
%TD*%
D14*
%TO.N,*%
%TO.C,U.2_1*%
X61365000Y-28560000D03*
X22635000Y-28560000D03*
%TD*%
D15*
%TO.N,/sas0/R1+*%
%TO.C,SAS0*%
X5420000Y-12450000D03*
%TO.N,GND*%
X4720000Y-13200000D03*
%TO.N,/sas0/CLK-*%
X4020000Y-13950000D03*
%TO.N,/sas0/CLK+*%
X5420000Y-14700000D03*
%TO.N,/sas0/R1-*%
X4020000Y-11700000D03*
%TO.N,/sas0/R3+*%
X5420000Y-10200000D03*
%TO.N,GND*%
X4720000Y-10950000D03*
X4720000Y-8700000D03*
%TO.N,/sas0/R3-*%
X4020000Y-9450000D03*
%TO.N,GND*%
X7820000Y-13950000D03*
X8520000Y-10950000D03*
%TO.N,/sas0/RST*%
X9220000Y-14700000D03*
%TO.N,/sas0/R0+*%
X9220000Y-12450000D03*
%TO.N,GND*%
X8520000Y-8700000D03*
X8520000Y-13200000D03*
%TO.N,/sas0/R0-*%
X7820000Y-11700000D03*
%TO.N,/sas0/R2-*%
X7820000Y-9450000D03*
%TO.N,/sas0/R2+*%
X9220000Y-10200000D03*
%TO.N,Net-(SAS0-PadC2)*%
X11620000Y-13950000D03*
%TO.N,GND*%
X12320000Y-10950000D03*
%TO.N,/sas0/ACT*%
X13020000Y-14700000D03*
%TO.N,/sas0/T1+*%
X13020000Y-12450000D03*
%TO.N,GND*%
X12320000Y-8700000D03*
X12320000Y-13200000D03*
%TO.N,/sas0/T1-*%
X11620000Y-11700000D03*
%TO.N,/sas0/T3-*%
X11620000Y-9450000D03*
%TO.N,/sas0/T3+*%
X13020000Y-10200000D03*
%TO.N,/sas0/SCLK*%
X15420000Y-13950000D03*
%TO.N,GND*%
X16120000Y-10950000D03*
%TO.N,/sas0/SDAT*%
X16820000Y-14700000D03*
%TO.N,/sas0/T0+*%
X16820000Y-12450000D03*
%TO.N,GND*%
X16120000Y-8700000D03*
X16120000Y-13200000D03*
%TO.N,/sas0/T0-*%
X15420000Y-11700000D03*
%TO.N,/sas0/T2-*%
X15420000Y-9450000D03*
%TO.N,/sas0/T2+*%
X16820000Y-10200000D03*
%TD*%
%TO.N,/sas1/T2+*%
%TO.C,SAS1*%
X16820000Y-26200000D03*
%TO.N,/sas1/T2-*%
X15420000Y-25450000D03*
%TO.N,/sas1/T0-*%
X15420000Y-27700000D03*
%TO.N,GND*%
X16120000Y-29200000D03*
X16120000Y-24700000D03*
%TO.N,/sas1/T0+*%
X16820000Y-28450000D03*
%TO.N,/sas1/SDAT*%
X16820000Y-30700000D03*
%TO.N,GND*%
X16120000Y-26950000D03*
%TO.N,/sas1/SCLK*%
X15420000Y-29950000D03*
%TO.N,/sas1/T3+*%
X13020000Y-26200000D03*
%TO.N,/sas1/T3-*%
X11620000Y-25450000D03*
%TO.N,/sas1/T1-*%
X11620000Y-27700000D03*
%TO.N,GND*%
X12320000Y-29200000D03*
X12320000Y-24700000D03*
%TO.N,/sas1/T1+*%
X13020000Y-28450000D03*
%TO.N,/sas1/ACT*%
X13020000Y-30700000D03*
%TO.N,GND*%
X12320000Y-26950000D03*
%TO.N,Net-(SAS1-PadC2)*%
X11620000Y-29950000D03*
%TO.N,/sas1/R2+*%
X9220000Y-26200000D03*
%TO.N,/sas1/R2-*%
X7820000Y-25450000D03*
%TO.N,/sas1/R0-*%
X7820000Y-27700000D03*
%TO.N,GND*%
X8520000Y-29200000D03*
X8520000Y-24700000D03*
%TO.N,/sas1/R0+*%
X9220000Y-28450000D03*
%TO.N,/sas1/RST*%
X9220000Y-30700000D03*
%TO.N,GND*%
X8520000Y-26950000D03*
X7820000Y-29950000D03*
%TO.N,/sas1/R3-*%
X4020000Y-25450000D03*
%TO.N,GND*%
X4720000Y-24700000D03*
X4720000Y-26950000D03*
%TO.N,/sas1/R3+*%
X5420000Y-26200000D03*
%TO.N,/sas1/R1-*%
X4020000Y-27700000D03*
%TO.N,/sas1/CLK+*%
X5420000Y-30700000D03*
%TO.N,/sas1/CLK-*%
X4020000Y-29950000D03*
%TO.N,GND*%
X4720000Y-29200000D03*
%TO.N,/sas1/R1+*%
X5420000Y-28450000D03*
%TD*%
D14*
%TO.N,*%
%TO.C,U.2_0*%
X61365000Y-12560000D03*
X22635000Y-12560000D03*
%TD*%
D16*
%TO.N,GND*%
X43905000Y-49445000D03*
X54040000Y-49445000D03*
X45175000Y-49445000D03*
X46420000Y-49445000D03*
X51525000Y-49445000D03*
X43905000Y-65445000D03*
X54040000Y-65445000D03*
X45175000Y-65445000D03*
X46420000Y-65445000D03*
X51525000Y-65445000D03*
X51525000Y-33445000D03*
X51525000Y-17570000D03*
X54040000Y-33445000D03*
X54065000Y-17570000D03*
X45175000Y-33445000D03*
X45175000Y-17570000D03*
X46420000Y-33445000D03*
X46445000Y-17570000D03*
X43905000Y-33445000D03*
X43905000Y-17570000D03*
%TO.N,+12V*%
X55310000Y-49445000D03*
X57875000Y-49445000D03*
X56580000Y-49445000D03*
X55310000Y-65445000D03*
X57875000Y-65445000D03*
X56580000Y-65445000D03*
X57875000Y-33445000D03*
X57875000Y-17570000D03*
X56580000Y-33445000D03*
X56605000Y-17570000D03*
X55310000Y-33445000D03*
X55335000Y-17570000D03*
%TO.N,+5V*%
X50255000Y-49445000D03*
X50255000Y-65445000D03*
X50255000Y-33445000D03*
X50255000Y-17570000D03*
%TO.N,/sas0/SDAT*%
X57304997Y-8130734D03*
%TO.N,/sas0/SCLK*%
X56447243Y-7616670D03*
%TO.N,/sas0/T1-*%
X41291232Y-7528768D03*
%TO.N,/sas0/T1+*%
X40548768Y-8271232D03*
%TO.N,/sas0/ACT*%
X52795000Y-17470000D03*
%TO.N,/sas0/R2+*%
X50236282Y-8646230D03*
%TO.N,/sas0/R2-*%
X49493818Y-7903766D03*
%TO.N,/sas0/R0-*%
X32548768Y-7528768D03*
%TO.N,/sas0/R0+*%
X33291232Y-8271232D03*
%TO.N,/sas0/RST*%
X38120000Y-16595000D03*
%TO.N,/sas0/R3-*%
X54948768Y-7528768D03*
%TO.N,/sas0/R3+*%
X55691232Y-8271232D03*
%TO.N,/sas0/R1-*%
X45348768Y-6728768D03*
%TO.N,/sas0/CLK+*%
X25348768Y-8271232D03*
%TO.N,/sas0/CLK-*%
X26091232Y-7528768D03*
%TO.N,/sas0/R1+*%
X46091232Y-7471232D03*
%TO.N,/sas1/SDAT*%
X57304997Y-24130734D03*
%TO.N,/sas1/SCLK*%
X56447243Y-23616670D03*
%TO.N,/sas1/T1-*%
X41291232Y-23528768D03*
%TO.N,/sas1/T1+*%
X40548768Y-24271232D03*
%TO.N,/sas1/ACT*%
X52795000Y-33470000D03*
%TO.N,/sas1/R2+*%
X50236282Y-24646230D03*
%TO.N,/sas1/R2-*%
X49493818Y-23903766D03*
%TO.N,/sas1/R0-*%
X32548768Y-23528768D03*
%TO.N,/sas1/R0+*%
X33291232Y-24271232D03*
%TO.N,/sas1/RST*%
X38120000Y-32595000D03*
%TO.N,/sas1/R3-*%
X54948768Y-23528768D03*
%TO.N,/sas1/R3+*%
X55691232Y-24271232D03*
%TO.N,/sas1/R1-*%
X45348768Y-22728768D03*
%TO.N,/sas1/CLK+*%
X25348768Y-24271232D03*
%TO.N,/sas1/CLK-*%
X26091232Y-23528768D03*
%TO.N,/sas1/R1+*%
X46091232Y-23471232D03*
%TO.N,/sas2/SDAT*%
X57304997Y-40130734D03*
%TO.N,/sas2/SCLK*%
X56447243Y-39616670D03*
%TO.N,/sas2/T1-*%
X41291232Y-39528768D03*
%TO.N,/sas2/T1+*%
X40548768Y-40271232D03*
%TO.N,/sas2/ACT*%
X52795000Y-49470000D03*
%TO.N,/sas2/R2+*%
X50236282Y-40646230D03*
%TO.N,/sas2/R2-*%
X49493818Y-39903766D03*
%TO.N,/sas2/R0-*%
X32548768Y-39528768D03*
%TO.N,/sas2/R0+*%
X33291232Y-40271232D03*
%TO.N,/sas2/RST*%
X38120000Y-48595000D03*
%TO.N,/sas2/R3-*%
X54948768Y-39528768D03*
%TO.N,/sas2/R3+*%
X55691232Y-40271232D03*
%TO.N,/sas2/R1-*%
X45348768Y-38728768D03*
%TO.N,/sas2/CLK+*%
X25348768Y-40271232D03*
%TO.N,/sas2/CLK-*%
X26091232Y-39528768D03*
%TO.N,/sas2/R1+*%
X46091232Y-39471232D03*
%TO.N,/sas3/SDAT*%
X57304997Y-56130734D03*
%TO.N,/sas3/SCLK*%
X56447243Y-55616670D03*
%TO.N,/sas3/T1-*%
X41291232Y-55528768D03*
%TO.N,/sas3/T1+*%
X40548768Y-56271232D03*
%TO.N,/sas3/ACT*%
X52795000Y-65470000D03*
%TO.N,/sas3/R2+*%
X50236282Y-56646230D03*
%TO.N,/sas3/R2-*%
X49493818Y-55903766D03*
%TO.N,/sas3/R0-*%
X32548768Y-55528768D03*
%TO.N,/sas3/R0+*%
X33291232Y-56271232D03*
%TO.N,/sas3/RST*%
X38120000Y-64595000D03*
%TO.N,/sas3/R3-*%
X54948768Y-55528768D03*
%TO.N,/sas3/R3+*%
X55691232Y-56271232D03*
%TO.N,/sas3/R1-*%
X45348768Y-54728768D03*
%TO.N,/sas3/CLK+*%
X25348768Y-56271232D03*
%TO.N,/sas3/CLK-*%
X26091232Y-55528768D03*
%TO.N,/sas3/R1+*%
X46091232Y-55471232D03*
%TD*%
D17*
%TO.N,+5V*%
X50961283Y-64738717D02*
X50255000Y-65445000D01*
X50961283Y-50151283D02*
X50255000Y-49445000D01*
X50961283Y-64738717D02*
X50961283Y-50151283D01*
X50961283Y-32738717D02*
X50255000Y-33445000D01*
X50961283Y-18276283D02*
X50961283Y-32738717D01*
X50255000Y-17570000D02*
X50961283Y-18276283D01*
X51500000Y-34690000D02*
X50255000Y-33445000D01*
X51500000Y-48200000D02*
X51500000Y-34690000D01*
X50255000Y-49445000D02*
X51500000Y-48200000D01*
D18*
%TO.N,/sas0/T1-*%
X33413465Y-9185001D02*
X15887199Y-9185001D01*
X41291232Y-7528768D02*
X40916306Y-7528768D01*
X14934999Y-9466802D02*
X12701801Y-11700000D01*
X12701801Y-11700000D02*
X11620000Y-11700000D01*
X40908769Y-7521231D02*
X35077235Y-7521231D01*
X35077235Y-7521231D02*
X33413465Y-9185001D01*
X40916306Y-7528768D02*
X40908769Y-7521231D01*
X15887199Y-9185001D02*
X15667197Y-8964999D01*
X15187199Y-8964999D02*
X14934999Y-9217199D01*
X14934999Y-9217199D02*
X14934999Y-9466802D01*
X15667197Y-8964999D02*
X15187199Y-8964999D01*
%TO.N,/sas0/T1+*%
X33599857Y-9634992D02*
X15952810Y-9634992D01*
X40548768Y-8271232D02*
X40256304Y-7978768D01*
X15103198Y-9935001D02*
X13020000Y-12018199D01*
X35256081Y-7978768D02*
X33599857Y-9634992D01*
X40256304Y-7978768D02*
X35256081Y-7978768D01*
X15652801Y-9935001D02*
X15103198Y-9935001D01*
X13020000Y-12018199D02*
X13020000Y-12450000D01*
X15952810Y-9634992D02*
X15652801Y-9935001D01*
D17*
%TO.N,/sas0/RST*%
X37720001Y-16195001D02*
X10715001Y-16195001D01*
X38120000Y-16595000D02*
X37720001Y-16195001D01*
X10715001Y-16195001D02*
X9220000Y-14700000D01*
D18*
%TO.N,/sas0/CLK+*%
X11709431Y-7978768D02*
X9705001Y-9983198D01*
X7503198Y-12185001D02*
X5420000Y-14268199D01*
X5420000Y-14268199D02*
X5420000Y-14700000D01*
X25056304Y-7978768D02*
X11709431Y-7978768D01*
X8052801Y-12185001D02*
X7503198Y-12185001D01*
X25348768Y-8271232D02*
X25056304Y-7978768D01*
X9705001Y-9983198D02*
X9705001Y-10532801D01*
X9705001Y-10532801D02*
X8052801Y-12185001D01*
%TO.N,/sas0/CLK-*%
X26091232Y-7528768D02*
X25716306Y-7528768D01*
X25708769Y-7521231D02*
X11530570Y-7521231D01*
X7334999Y-11716802D02*
X5101801Y-13950000D01*
X7334999Y-11367199D02*
X7334999Y-11716802D01*
X8987199Y-9714999D02*
X7334999Y-11367199D01*
X25716306Y-7528768D02*
X25708769Y-7521231D01*
X5101801Y-13950000D02*
X4020000Y-13950000D01*
X9336802Y-9714999D02*
X8987199Y-9714999D01*
X11530570Y-7521231D02*
X9336802Y-9714999D01*
%TO.N,/sas1/T1-*%
X33413465Y-25185001D02*
X15887199Y-25185001D01*
X35077235Y-23521231D02*
X33413465Y-25185001D01*
X15887199Y-25185001D02*
X15667197Y-24964999D01*
X14934999Y-25466802D02*
X12701801Y-27700000D01*
X40908769Y-23521231D02*
X35077235Y-23521231D01*
X41291232Y-23528768D02*
X40916306Y-23528768D01*
X40916306Y-23528768D02*
X40908769Y-23521231D01*
X15667197Y-24964999D02*
X15187199Y-24964999D01*
X15187199Y-24964999D02*
X14934999Y-25217199D01*
X14934999Y-25217199D02*
X14934999Y-25466802D01*
X12701801Y-27700000D02*
X11620000Y-27700000D01*
%TO.N,/sas1/T1+*%
X15103198Y-25935001D02*
X13020000Y-28018199D01*
X15652801Y-25935001D02*
X15103198Y-25935001D01*
X35256081Y-23978768D02*
X33599857Y-25634992D01*
X13020000Y-28018199D02*
X13020000Y-28450000D01*
X40256304Y-23978768D02*
X35256081Y-23978768D01*
X40548768Y-24271232D02*
X40256304Y-23978768D01*
X15952810Y-25634992D02*
X15652801Y-25935001D01*
X33599857Y-25634992D02*
X15952810Y-25634992D01*
D17*
%TO.N,/sas1/RST*%
X37720001Y-32195001D02*
X10715001Y-32195001D01*
X38120000Y-32595000D02*
X37720001Y-32195001D01*
X10715001Y-32195001D02*
X9220000Y-30700000D01*
D18*
%TO.N,/sas1/CLK+*%
X5420000Y-30268199D02*
X5420000Y-30700000D01*
X8052801Y-28185001D02*
X7503198Y-28185001D01*
X25348768Y-24271232D02*
X25056304Y-23978768D01*
X25056304Y-23978768D02*
X11709431Y-23978768D01*
X11709431Y-23978768D02*
X9705001Y-25983198D01*
X9705001Y-26532801D02*
X8052801Y-28185001D01*
X9705001Y-25983198D02*
X9705001Y-26532801D01*
X7503198Y-28185001D02*
X5420000Y-30268199D01*
%TO.N,/sas1/CLK-*%
X8987199Y-25714999D02*
X7334999Y-27367199D01*
X11530570Y-23521231D02*
X9336802Y-25714999D01*
X25716306Y-23528768D02*
X25708769Y-23521231D01*
X9336802Y-25714999D02*
X8987199Y-25714999D01*
X26091232Y-23528768D02*
X25716306Y-23528768D01*
X7334999Y-27367199D02*
X7334999Y-27716802D01*
X7334999Y-27716802D02*
X5101801Y-29950000D01*
X5101801Y-29950000D02*
X4020000Y-29950000D01*
X25708769Y-23521231D02*
X11530570Y-23521231D01*
%TO.N,/sas2/T1-*%
X40916306Y-39528768D02*
X40908769Y-39521231D01*
X15667197Y-40964999D02*
X15187199Y-40964999D01*
X35077235Y-39521231D02*
X33413465Y-41185001D01*
X33413465Y-41185001D02*
X15887199Y-41185001D01*
X15887199Y-41185001D02*
X15667197Y-40964999D01*
X14934999Y-41466802D02*
X12701801Y-43700000D01*
X40908769Y-39521231D02*
X35077235Y-39521231D01*
X41291232Y-39528768D02*
X40916306Y-39528768D01*
X15187199Y-40964999D02*
X14934999Y-41217199D01*
X12701801Y-43700000D02*
X11620000Y-43700000D01*
X14934999Y-41217199D02*
X14934999Y-41466802D01*
%TO.N,/sas2/T1+*%
X15103198Y-41935001D02*
X13020000Y-44018199D01*
X13020000Y-44018199D02*
X13020000Y-44450000D01*
X40256304Y-39978768D02*
X35256081Y-39978768D01*
X15652801Y-41935001D02*
X15103198Y-41935001D01*
X35256081Y-39978768D02*
X33599857Y-41634992D01*
X40548768Y-40271232D02*
X40256304Y-39978768D01*
X33599857Y-41634992D02*
X15952810Y-41634992D01*
X15952810Y-41634992D02*
X15652801Y-41935001D01*
D17*
%TO.N,/sas2/RST*%
X37720001Y-48195001D02*
X10715001Y-48195001D01*
X38120000Y-48595000D02*
X37720001Y-48195001D01*
X10715001Y-48195001D02*
X9220000Y-46700000D01*
D18*
%TO.N,/sas2/CLK+*%
X25348768Y-40271232D02*
X25056304Y-39978768D01*
X25056304Y-39978768D02*
X11709431Y-39978768D01*
X11709431Y-39978768D02*
X9705001Y-41983198D01*
X7503198Y-44185001D02*
X5420000Y-46268199D01*
X5420000Y-46268199D02*
X5420000Y-46700000D01*
X8052801Y-44185001D02*
X7503198Y-44185001D01*
X9705001Y-42532801D02*
X8052801Y-44185001D01*
X9705001Y-41983198D02*
X9705001Y-42532801D01*
%TO.N,/sas2/CLK-*%
X9336802Y-41714999D02*
X8987199Y-41714999D01*
X26091232Y-39528768D02*
X25716306Y-39528768D01*
X7334999Y-43367199D02*
X7334999Y-43716802D01*
X7334999Y-43716802D02*
X5101801Y-45950000D01*
X11530570Y-39521231D02*
X9336802Y-41714999D01*
X25716306Y-39528768D02*
X25708769Y-39521231D01*
X8987199Y-41714999D02*
X7334999Y-43367199D01*
X5101801Y-45950000D02*
X4020000Y-45950000D01*
X25708769Y-39521231D02*
X11530570Y-39521231D01*
%TO.N,/sas3/T1-*%
X40916306Y-55528768D02*
X40908769Y-55521231D01*
X15667197Y-56964999D02*
X15187199Y-56964999D01*
X35077235Y-55521231D02*
X33413465Y-57185001D01*
X33413465Y-57185001D02*
X15887199Y-57185001D01*
X15887199Y-57185001D02*
X15667197Y-56964999D01*
X14934999Y-57466802D02*
X12701801Y-59700000D01*
X40908769Y-55521231D02*
X35077235Y-55521231D01*
X41291232Y-55528768D02*
X40916306Y-55528768D01*
X15187199Y-56964999D02*
X14934999Y-57217199D01*
X12701801Y-59700000D02*
X11620000Y-59700000D01*
X14934999Y-57217199D02*
X14934999Y-57466802D01*
%TO.N,/sas3/T1+*%
X15103198Y-57935001D02*
X13020000Y-60018199D01*
X13020000Y-60018199D02*
X13020000Y-60450000D01*
X40256304Y-55978768D02*
X35256081Y-55978768D01*
X15652801Y-57935001D02*
X15103198Y-57935001D01*
X35256081Y-55978768D02*
X33599857Y-57634992D01*
X40548768Y-56271232D02*
X40256304Y-55978768D01*
X33599857Y-57634992D02*
X15952810Y-57634992D01*
X15952810Y-57634992D02*
X15652801Y-57935001D01*
D17*
%TO.N,/sas3/RST*%
X10715001Y-64195001D02*
X9220000Y-62700000D01*
X37720001Y-64195001D02*
X10715001Y-64195001D01*
X38120000Y-64595000D02*
X37720001Y-64195001D01*
D18*
%TO.N,/sas3/CLK+*%
X25348768Y-56271232D02*
X25056304Y-55978768D01*
X25056304Y-55978768D02*
X11709431Y-55978768D01*
X11709431Y-55978768D02*
X9705001Y-57983198D01*
X7503198Y-60185001D02*
X5420000Y-62268199D01*
X5420000Y-62268199D02*
X5420000Y-62700000D01*
X8052801Y-60185001D02*
X7503198Y-60185001D01*
X9705001Y-58532801D02*
X8052801Y-60185001D01*
X9705001Y-57983198D02*
X9705001Y-58532801D01*
%TO.N,/sas3/CLK-*%
X9336802Y-57714999D02*
X8987199Y-57714999D01*
X26091232Y-55528768D02*
X25716306Y-55528768D01*
X7334999Y-59367199D02*
X7334999Y-59716802D01*
X7334999Y-59716802D02*
X5101801Y-61950000D01*
X11530570Y-55521231D02*
X9336802Y-57714999D01*
X25716306Y-55528768D02*
X25708769Y-55521231D01*
X8987199Y-57714999D02*
X7334999Y-59367199D01*
X5101801Y-61950000D02*
X4020000Y-61950000D01*
X25708769Y-55521231D02*
X11530570Y-55521231D01*
%TD*%
D19*
%TO.N,+12V*%
G36*
X71195092Y-800751D02*
X71713100Y-981140D01*
X72178266Y-1271808D01*
X72567474Y-1658308D01*
X72861386Y-2121438D01*
X73045383Y-2638164D01*
X73115001Y-3221993D01*
X73115000Y-16727612D01*
X73100601Y-16800000D01*
X73157646Y-17086783D01*
X73267161Y-17250683D01*
X73320095Y-17329905D01*
X73563217Y-17492354D01*
X73723000Y-17524137D01*
X73723000Y-54275863D01*
X73563217Y-54307646D01*
X73320095Y-54470095D01*
X73157646Y-54713217D01*
X73100601Y-55000000D01*
X73115000Y-55072388D01*
X73115001Y-68672388D01*
X73122947Y-68712336D01*
X73073780Y-69150669D01*
X72891548Y-69673969D01*
X72597909Y-70143890D01*
X72207451Y-70537083D01*
X71739593Y-70833995D01*
X71217576Y-71019877D01*
X70766155Y-71073706D01*
X70722388Y-71065000D01*
X36127000Y-71065000D01*
X36127000Y-67692268D01*
X59460000Y-67692268D01*
X59460000Y-68287733D01*
X59547032Y-68725271D01*
X59878561Y-69221439D01*
X60374730Y-69552968D01*
X60960000Y-69669386D01*
X61545271Y-69552968D01*
X62041439Y-69221439D01*
X62210000Y-68969169D01*
X62378561Y-69221439D01*
X62874730Y-69552968D01*
X63460000Y-69669386D01*
X64045271Y-69552968D01*
X64541439Y-69221439D01*
X64710000Y-68969169D01*
X64878561Y-69221439D01*
X65374730Y-69552968D01*
X65960000Y-69669386D01*
X66545271Y-69552968D01*
X67006894Y-69244521D01*
X67056673Y-69364698D01*
X67235301Y-69543327D01*
X67468690Y-69640000D01*
X68174250Y-69640000D01*
X68333000Y-69481250D01*
X68333000Y-68117000D01*
X68587000Y-68117000D01*
X68587000Y-69481250D01*
X68745750Y-69640000D01*
X69451310Y-69640000D01*
X69684699Y-69543327D01*
X69863327Y-69364698D01*
X69960000Y-69131309D01*
X69960000Y-68275750D01*
X69801250Y-68117000D01*
X68587000Y-68117000D01*
X68333000Y-68117000D01*
X68313000Y-68117000D01*
X68313000Y-67863000D01*
X68333000Y-67863000D01*
X68333000Y-66498750D01*
X68587000Y-66498750D01*
X68587000Y-67863000D01*
X69801250Y-67863000D01*
X69960000Y-67704250D01*
X69960000Y-66848691D01*
X69863327Y-66615302D01*
X69684699Y-66436673D01*
X69451310Y-66340000D01*
X68745750Y-66340000D01*
X68587000Y-66498750D01*
X68333000Y-66498750D01*
X68174250Y-66340000D01*
X67468690Y-66340000D01*
X67235301Y-66436673D01*
X67056673Y-66615302D01*
X67006894Y-66735479D01*
X66545270Y-66427032D01*
X65960000Y-66310614D01*
X65374729Y-66427032D01*
X64878561Y-66758561D01*
X64710000Y-67010831D01*
X64541439Y-66758561D01*
X64045270Y-66427032D01*
X63460000Y-66310614D01*
X62874729Y-66427032D01*
X62378561Y-66758561D01*
X62210000Y-67010831D01*
X62041439Y-66758561D01*
X61545270Y-66427032D01*
X60960000Y-66310614D01*
X60374729Y-66427032D01*
X59878561Y-66758561D01*
X59547032Y-67254730D01*
X59460000Y-67692268D01*
X36127000Y-67692268D01*
X36127000Y-64955001D01*
X37148841Y-64955001D01*
X37242569Y-65181280D01*
X37533720Y-65472431D01*
X37914126Y-65630000D01*
X38325874Y-65630000D01*
X38706280Y-65472431D01*
X38939585Y-65239126D01*
X42870000Y-65239126D01*
X42870000Y-65650874D01*
X43027569Y-66031280D01*
X43318720Y-66322431D01*
X43699126Y-66480000D01*
X44110874Y-66480000D01*
X44491280Y-66322431D01*
X44540000Y-66273711D01*
X44588720Y-66322431D01*
X44969126Y-66480000D01*
X45380874Y-66480000D01*
X45761280Y-66322431D01*
X45797500Y-66286211D01*
X45833720Y-66322431D01*
X46214126Y-66480000D01*
X46625874Y-66480000D01*
X47006280Y-66322431D01*
X47297431Y-66031280D01*
X47455000Y-65650874D01*
X47455000Y-65239126D01*
X47297431Y-64858720D01*
X47006280Y-64567569D01*
X46625874Y-64410000D01*
X46214126Y-64410000D01*
X45833720Y-64567569D01*
X45797500Y-64603789D01*
X45761280Y-64567569D01*
X45380874Y-64410000D01*
X44969126Y-64410000D01*
X44588720Y-64567569D01*
X44540000Y-64616289D01*
X44491280Y-64567569D01*
X44110874Y-64410000D01*
X43699126Y-64410000D01*
X43318720Y-64567569D01*
X43027569Y-64858720D01*
X42870000Y-65239126D01*
X38939585Y-65239126D01*
X38997431Y-65181280D01*
X39155000Y-64800874D01*
X39155000Y-64389126D01*
X38997431Y-64008720D01*
X38706280Y-63717569D01*
X38325874Y-63560000D01*
X38137618Y-63560000D01*
X38016538Y-63479097D01*
X37794853Y-63435001D01*
X37794848Y-63435001D01*
X37720001Y-63420113D01*
X37645154Y-63435001D01*
X36127000Y-63435001D01*
X36127000Y-56713768D01*
X39611796Y-56713768D01*
X39671337Y-56857512D01*
X39962488Y-57148663D01*
X40342894Y-57306232D01*
X40754642Y-57306232D01*
X41135048Y-57148663D01*
X41426199Y-56857512D01*
X41558385Y-56538385D01*
X41877512Y-56406199D01*
X42168663Y-56115048D01*
X42326232Y-55734642D01*
X42326232Y-55322894D01*
X42168663Y-54942488D01*
X41877512Y-54651337D01*
X41567423Y-54522894D01*
X44313768Y-54522894D01*
X44313768Y-54934642D01*
X44471337Y-55315048D01*
X44762488Y-55606199D01*
X45081615Y-55738385D01*
X45213801Y-56057512D01*
X45504952Y-56348663D01*
X45885358Y-56506232D01*
X46297106Y-56506232D01*
X46677512Y-56348663D01*
X46968663Y-56057512D01*
X47126232Y-55677106D01*
X47126232Y-55265358D01*
X46968663Y-54884952D01*
X46677512Y-54593801D01*
X46358385Y-54461615D01*
X46226199Y-54142488D01*
X45935048Y-53851337D01*
X45554642Y-53693768D01*
X45142894Y-53693768D01*
X44762488Y-53851337D01*
X44471337Y-54142488D01*
X44313768Y-54522894D01*
X41567423Y-54522894D01*
X41497106Y-54493768D01*
X41085358Y-54493768D01*
X40704952Y-54651337D01*
X40570058Y-54786231D01*
X36127000Y-54786231D01*
X36127000Y-48955001D01*
X37148841Y-48955001D01*
X37242569Y-49181280D01*
X37533720Y-49472431D01*
X37914126Y-49630000D01*
X38325874Y-49630000D01*
X38706280Y-49472431D01*
X38939585Y-49239126D01*
X42870000Y-49239126D01*
X42870000Y-49650874D01*
X43027569Y-50031280D01*
X43318720Y-50322431D01*
X43699126Y-50480000D01*
X44110874Y-50480000D01*
X44491280Y-50322431D01*
X44540000Y-50273711D01*
X44588720Y-50322431D01*
X44969126Y-50480000D01*
X45380874Y-50480000D01*
X45761280Y-50322431D01*
X45797500Y-50286211D01*
X45833720Y-50322431D01*
X46214126Y-50480000D01*
X46625874Y-50480000D01*
X47006280Y-50322431D01*
X47297431Y-50031280D01*
X47455000Y-49650874D01*
X47455000Y-49239126D01*
X47297431Y-48858720D01*
X47006280Y-48567569D01*
X46625874Y-48410000D01*
X46214126Y-48410000D01*
X45833720Y-48567569D01*
X45797500Y-48603789D01*
X45761280Y-48567569D01*
X45380874Y-48410000D01*
X44969126Y-48410000D01*
X44588720Y-48567569D01*
X44540000Y-48616289D01*
X44491280Y-48567569D01*
X44110874Y-48410000D01*
X43699126Y-48410000D01*
X43318720Y-48567569D01*
X43027569Y-48858720D01*
X42870000Y-49239126D01*
X38939585Y-49239126D01*
X38997431Y-49181280D01*
X39155000Y-48800874D01*
X39155000Y-48389126D01*
X38997431Y-48008720D01*
X38706280Y-47717569D01*
X38325874Y-47560000D01*
X38137618Y-47560000D01*
X38016538Y-47479097D01*
X37794853Y-47435001D01*
X37794848Y-47435001D01*
X37720001Y-47420113D01*
X37645154Y-47435001D01*
X36127000Y-47435001D01*
X36127000Y-40713768D01*
X39611796Y-40713768D01*
X39671337Y-40857512D01*
X39962488Y-41148663D01*
X40342894Y-41306232D01*
X40754642Y-41306232D01*
X41135048Y-41148663D01*
X41426199Y-40857512D01*
X41558385Y-40538385D01*
X41877512Y-40406199D01*
X42168663Y-40115048D01*
X42326232Y-39734642D01*
X42326232Y-39322894D01*
X42168663Y-38942488D01*
X41877512Y-38651337D01*
X41567423Y-38522894D01*
X44313768Y-38522894D01*
X44313768Y-38934642D01*
X44471337Y-39315048D01*
X44762488Y-39606199D01*
X45081615Y-39738385D01*
X45213801Y-40057512D01*
X45504952Y-40348663D01*
X45885358Y-40506232D01*
X46297106Y-40506232D01*
X46677512Y-40348663D01*
X46968663Y-40057512D01*
X47126232Y-39677106D01*
X47126232Y-39265358D01*
X46968663Y-38884952D01*
X46677512Y-38593801D01*
X46358385Y-38461615D01*
X46226199Y-38142488D01*
X45935048Y-37851337D01*
X45554642Y-37693768D01*
X45142894Y-37693768D01*
X44762488Y-37851337D01*
X44471337Y-38142488D01*
X44313768Y-38522894D01*
X41567423Y-38522894D01*
X41497106Y-38493768D01*
X41085358Y-38493768D01*
X40704952Y-38651337D01*
X40570058Y-38786231D01*
X36127000Y-38786231D01*
X36127000Y-32955001D01*
X37148841Y-32955001D01*
X37242569Y-33181280D01*
X37533720Y-33472431D01*
X37914126Y-33630000D01*
X38325874Y-33630000D01*
X38706280Y-33472431D01*
X38939585Y-33239126D01*
X42870000Y-33239126D01*
X42870000Y-33650874D01*
X43027569Y-34031280D01*
X43318720Y-34322431D01*
X43699126Y-34480000D01*
X44110874Y-34480000D01*
X44491280Y-34322431D01*
X44540000Y-34273711D01*
X44588720Y-34322431D01*
X44969126Y-34480000D01*
X45380874Y-34480000D01*
X45761280Y-34322431D01*
X45797500Y-34286211D01*
X45833720Y-34322431D01*
X46214126Y-34480000D01*
X46625874Y-34480000D01*
X47006280Y-34322431D01*
X47297431Y-34031280D01*
X47455000Y-33650874D01*
X47455000Y-33239126D01*
X47297431Y-32858720D01*
X47006280Y-32567569D01*
X46625874Y-32410000D01*
X46214126Y-32410000D01*
X45833720Y-32567569D01*
X45797500Y-32603789D01*
X45761280Y-32567569D01*
X45380874Y-32410000D01*
X44969126Y-32410000D01*
X44588720Y-32567569D01*
X44540000Y-32616289D01*
X44491280Y-32567569D01*
X44110874Y-32410000D01*
X43699126Y-32410000D01*
X43318720Y-32567569D01*
X43027569Y-32858720D01*
X42870000Y-33239126D01*
X38939585Y-33239126D01*
X38997431Y-33181280D01*
X39155000Y-32800874D01*
X39155000Y-32389126D01*
X38997431Y-32008720D01*
X38706280Y-31717569D01*
X38325874Y-31560000D01*
X38137618Y-31560000D01*
X38016538Y-31479097D01*
X37794853Y-31435001D01*
X37794848Y-31435001D01*
X37720001Y-31420113D01*
X37645154Y-31435001D01*
X36127000Y-31435001D01*
X36127000Y-24713768D01*
X39611796Y-24713768D01*
X39671337Y-24857512D01*
X39962488Y-25148663D01*
X40342894Y-25306232D01*
X40754642Y-25306232D01*
X41135048Y-25148663D01*
X41426199Y-24857512D01*
X41558385Y-24538385D01*
X41877512Y-24406199D01*
X42168663Y-24115048D01*
X42326232Y-23734642D01*
X42326232Y-23322894D01*
X42168663Y-22942488D01*
X41877512Y-22651337D01*
X41567423Y-22522894D01*
X44313768Y-22522894D01*
X44313768Y-22934642D01*
X44471337Y-23315048D01*
X44762488Y-23606199D01*
X45081615Y-23738385D01*
X45213801Y-24057512D01*
X45504952Y-24348663D01*
X45885358Y-24506232D01*
X46297106Y-24506232D01*
X46677512Y-24348663D01*
X46968663Y-24057512D01*
X47117622Y-23697892D01*
X48458818Y-23697892D01*
X48458818Y-24109640D01*
X48616387Y-24490046D01*
X48907538Y-24781197D01*
X49226665Y-24913383D01*
X49358851Y-25232510D01*
X49650002Y-25523661D01*
X50030408Y-25681230D01*
X50201284Y-25681230D01*
X50201284Y-32410000D01*
X50049126Y-32410000D01*
X49668720Y-32567569D01*
X49377569Y-32858720D01*
X49220000Y-33239126D01*
X49220000Y-33650874D01*
X49377569Y-34031280D01*
X49668720Y-34322431D01*
X50049126Y-34480000D01*
X50215199Y-34480000D01*
X50740001Y-35004803D01*
X50740001Y-39734601D01*
X50503435Y-39636613D01*
X50371249Y-39317486D01*
X50080098Y-39026335D01*
X49699692Y-38868766D01*
X49287944Y-38868766D01*
X48907538Y-39026335D01*
X48616387Y-39317486D01*
X48458818Y-39697892D01*
X48458818Y-40109640D01*
X48616387Y-40490046D01*
X48907538Y-40781197D01*
X49226665Y-40913383D01*
X49358851Y-41232510D01*
X49650002Y-41523661D01*
X50030408Y-41681230D01*
X50442156Y-41681230D01*
X50740000Y-41557859D01*
X50740000Y-47885198D01*
X50215199Y-48410000D01*
X50049126Y-48410000D01*
X49668720Y-48567569D01*
X49377569Y-48858720D01*
X49220000Y-49239126D01*
X49220000Y-49650874D01*
X49377569Y-50031280D01*
X49668720Y-50322431D01*
X50049126Y-50480000D01*
X50201284Y-50480000D01*
X50201284Y-55147521D01*
X50080098Y-55026335D01*
X49699692Y-54868766D01*
X49287944Y-54868766D01*
X48907538Y-55026335D01*
X48616387Y-55317486D01*
X48458818Y-55697892D01*
X48458818Y-56109640D01*
X48616387Y-56490046D01*
X48907538Y-56781197D01*
X49226665Y-56913383D01*
X49358851Y-57232510D01*
X49650002Y-57523661D01*
X50030408Y-57681230D01*
X50201283Y-57681230D01*
X50201283Y-64410000D01*
X50049126Y-64410000D01*
X49668720Y-64567569D01*
X49377569Y-64858720D01*
X49220000Y-65239126D01*
X49220000Y-65650874D01*
X49377569Y-66031280D01*
X49668720Y-66322431D01*
X50049126Y-66480000D01*
X50460874Y-66480000D01*
X50841280Y-66322431D01*
X50890000Y-66273711D01*
X50938720Y-66322431D01*
X51319126Y-66480000D01*
X51730874Y-66480000D01*
X52111280Y-66322431D01*
X52147500Y-66286211D01*
X52208720Y-66347431D01*
X52589126Y-66505000D01*
X53000874Y-66505000D01*
X53381280Y-66347431D01*
X53430000Y-66298711D01*
X53453720Y-66322431D01*
X53834126Y-66480000D01*
X54245874Y-66480000D01*
X54626280Y-66322431D01*
X54917431Y-66031280D01*
X55075000Y-65650874D01*
X55075000Y-65239126D01*
X54917431Y-64858720D01*
X54626280Y-64567569D01*
X54245874Y-64410000D01*
X53834126Y-64410000D01*
X53453720Y-64567569D01*
X53405000Y-64616289D01*
X53381280Y-64592569D01*
X53000874Y-64435000D01*
X52589126Y-64435000D01*
X52208720Y-64592569D01*
X52172500Y-64628789D01*
X52111280Y-64567569D01*
X51730874Y-64410000D01*
X51721283Y-64410000D01*
X51721283Y-60175105D01*
X59430000Y-60175105D01*
X59430000Y-60944895D01*
X59724586Y-61656090D01*
X60268910Y-62200414D01*
X60980105Y-62495000D01*
X61749895Y-62495000D01*
X62461090Y-62200414D01*
X63005414Y-61656090D01*
X63300000Y-60944895D01*
X63300000Y-60175105D01*
X63005414Y-59463910D01*
X62461090Y-58919586D01*
X61749895Y-58625000D01*
X60980105Y-58625000D01*
X60268910Y-58919586D01*
X59724586Y-59463910D01*
X59430000Y-60175105D01*
X51721283Y-60175105D01*
X51721283Y-55322894D01*
X53913768Y-55322894D01*
X53913768Y-55734642D01*
X54071337Y-56115048D01*
X54362488Y-56406199D01*
X54681615Y-56538385D01*
X54813801Y-56857512D01*
X55104952Y-57148663D01*
X55485358Y-57306232D01*
X55897106Y-57306232D01*
X56277512Y-57148663D01*
X56568364Y-56857812D01*
X56718717Y-57008165D01*
X57099123Y-57165734D01*
X57510871Y-57165734D01*
X57891277Y-57008165D01*
X58182428Y-56717014D01*
X58339997Y-56336608D01*
X58339997Y-55924860D01*
X58182428Y-55544454D01*
X57891277Y-55253303D01*
X57510871Y-55095734D01*
X57351740Y-55095734D01*
X57324674Y-55030390D01*
X57033523Y-54739239D01*
X56653117Y-54581670D01*
X56241369Y-54581670D01*
X55860963Y-54739239D01*
X55741957Y-54858246D01*
X55535048Y-54651337D01*
X55154642Y-54493768D01*
X54742894Y-54493768D01*
X54362488Y-54651337D01*
X54071337Y-54942488D01*
X53913768Y-55322894D01*
X51721283Y-55322894D01*
X51721283Y-50480000D01*
X51730874Y-50480000D01*
X52111280Y-50322431D01*
X52147500Y-50286211D01*
X52208720Y-50347431D01*
X52589126Y-50505000D01*
X53000874Y-50505000D01*
X53381280Y-50347431D01*
X53430000Y-50298711D01*
X53453720Y-50322431D01*
X53834126Y-50480000D01*
X54245874Y-50480000D01*
X54626280Y-50322431D01*
X54917431Y-50031280D01*
X55075000Y-49650874D01*
X55075000Y-49239126D01*
X54917431Y-48858720D01*
X54626280Y-48567569D01*
X54245874Y-48410000D01*
X53834126Y-48410000D01*
X53453720Y-48567569D01*
X53405000Y-48616289D01*
X53381280Y-48592569D01*
X53000874Y-48435000D01*
X52589126Y-48435000D01*
X52208720Y-48592569D01*
X52172500Y-48628789D01*
X52145546Y-48601835D01*
X52215904Y-48496537D01*
X52260000Y-48274852D01*
X52260000Y-48274847D01*
X52274888Y-48200000D01*
X52260000Y-48125153D01*
X52260000Y-44175105D01*
X59430000Y-44175105D01*
X59430000Y-44944895D01*
X59724586Y-45656090D01*
X60268910Y-46200414D01*
X60980105Y-46495000D01*
X61749895Y-46495000D01*
X62461090Y-46200414D01*
X63005414Y-45656090D01*
X63300000Y-44944895D01*
X63300000Y-44175105D01*
X63005414Y-43463910D01*
X62461090Y-42919586D01*
X61749895Y-42625000D01*
X60980105Y-42625000D01*
X60268910Y-42919586D01*
X59724586Y-43463910D01*
X59430000Y-44175105D01*
X52260000Y-44175105D01*
X52260000Y-39322894D01*
X53913768Y-39322894D01*
X53913768Y-39734642D01*
X54071337Y-40115048D01*
X54362488Y-40406199D01*
X54681615Y-40538385D01*
X54813801Y-40857512D01*
X55104952Y-41148663D01*
X55485358Y-41306232D01*
X55897106Y-41306232D01*
X56277512Y-41148663D01*
X56568364Y-40857812D01*
X56718717Y-41008165D01*
X57099123Y-41165734D01*
X57510871Y-41165734D01*
X57891277Y-41008165D01*
X58182428Y-40717014D01*
X58339997Y-40336608D01*
X58339997Y-39924860D01*
X58182428Y-39544454D01*
X57891277Y-39253303D01*
X57510871Y-39095734D01*
X57351740Y-39095734D01*
X57324674Y-39030390D01*
X57033523Y-38739239D01*
X56653117Y-38581670D01*
X56241369Y-38581670D01*
X55860963Y-38739239D01*
X55741957Y-38858246D01*
X55535048Y-38651337D01*
X55154642Y-38493768D01*
X54742894Y-38493768D01*
X54362488Y-38651337D01*
X54071337Y-38942488D01*
X53913768Y-39322894D01*
X52260000Y-39322894D01*
X52260000Y-34764847D01*
X52274888Y-34690000D01*
X52260000Y-34615153D01*
X52260000Y-34615148D01*
X52215904Y-34393463D01*
X52145546Y-34288165D01*
X52147500Y-34286211D01*
X52208720Y-34347431D01*
X52589126Y-34505000D01*
X53000874Y-34505000D01*
X53381280Y-34347431D01*
X53430000Y-34298711D01*
X53453720Y-34322431D01*
X53834126Y-34480000D01*
X54245874Y-34480000D01*
X54626280Y-34322431D01*
X54917431Y-34031280D01*
X55075000Y-33650874D01*
X55075000Y-33239126D01*
X54917431Y-32858720D01*
X54626280Y-32567569D01*
X54245874Y-32410000D01*
X53834126Y-32410000D01*
X53453720Y-32567569D01*
X53405000Y-32616289D01*
X53381280Y-32592569D01*
X53000874Y-32435000D01*
X52589126Y-32435000D01*
X52208720Y-32592569D01*
X52172500Y-32628789D01*
X52111280Y-32567569D01*
X51730874Y-32410000D01*
X51721283Y-32410000D01*
X51721283Y-28175105D01*
X59430000Y-28175105D01*
X59430000Y-28944895D01*
X59724586Y-29656090D01*
X60268910Y-30200414D01*
X60980105Y-30495000D01*
X61749895Y-30495000D01*
X62461090Y-30200414D01*
X63005414Y-29656090D01*
X63300000Y-28944895D01*
X63300000Y-28175105D01*
X63005414Y-27463910D01*
X62461090Y-26919586D01*
X61749895Y-26625000D01*
X60980105Y-26625000D01*
X60268910Y-26919586D01*
X59724586Y-27463910D01*
X59430000Y-28175105D01*
X51721283Y-28175105D01*
X51721283Y-23322894D01*
X53913768Y-23322894D01*
X53913768Y-23734642D01*
X54071337Y-24115048D01*
X54362488Y-24406199D01*
X54681615Y-24538385D01*
X54813801Y-24857512D01*
X55104952Y-25148663D01*
X55485358Y-25306232D01*
X55897106Y-25306232D01*
X56277512Y-25148663D01*
X56568364Y-24857812D01*
X56718717Y-25008165D01*
X57099123Y-25165734D01*
X57510871Y-25165734D01*
X57891277Y-25008165D01*
X58182428Y-24717014D01*
X58339997Y-24336608D01*
X58339997Y-23924860D01*
X58182428Y-23544454D01*
X57891277Y-23253303D01*
X57510871Y-23095734D01*
X57351740Y-23095734D01*
X57324674Y-23030390D01*
X57033523Y-22739239D01*
X56653117Y-22581670D01*
X56241369Y-22581670D01*
X55860963Y-22739239D01*
X55741957Y-22858246D01*
X55535048Y-22651337D01*
X55154642Y-22493768D01*
X54742894Y-22493768D01*
X54362488Y-22651337D01*
X54071337Y-22942488D01*
X53913768Y-23322894D01*
X51721283Y-23322894D01*
X51721283Y-18605000D01*
X51730874Y-18605000D01*
X52111280Y-18447431D01*
X52210530Y-18348181D01*
X52589126Y-18505000D01*
X53000874Y-18505000D01*
X53379470Y-18348181D01*
X53478720Y-18447431D01*
X53859126Y-18605000D01*
X54270874Y-18605000D01*
X54651280Y-18447431D01*
X54942431Y-18156280D01*
X55100000Y-17775874D01*
X55100000Y-17364126D01*
X54942431Y-16983720D01*
X54651280Y-16692569D01*
X54270874Y-16535000D01*
X53859126Y-16535000D01*
X53480530Y-16691819D01*
X53381280Y-16592569D01*
X53000874Y-16435000D01*
X52589126Y-16435000D01*
X52208720Y-16592569D01*
X52109470Y-16691819D01*
X51730874Y-16535000D01*
X51319126Y-16535000D01*
X50938720Y-16692569D01*
X50890000Y-16741289D01*
X50841280Y-16692569D01*
X50460874Y-16535000D01*
X50049126Y-16535000D01*
X49668720Y-16692569D01*
X49377569Y-16983720D01*
X49220000Y-17364126D01*
X49220000Y-17775874D01*
X49377569Y-18156280D01*
X49668720Y-18447431D01*
X50049126Y-18605000D01*
X50201283Y-18605000D01*
X50201283Y-23147520D01*
X50080098Y-23026335D01*
X49699692Y-22868766D01*
X49287944Y-22868766D01*
X48907538Y-23026335D01*
X48616387Y-23317486D01*
X48458818Y-23697892D01*
X47117622Y-23697892D01*
X47126232Y-23677106D01*
X47126232Y-23265358D01*
X46968663Y-22884952D01*
X46677512Y-22593801D01*
X46358385Y-22461615D01*
X46226199Y-22142488D01*
X45935048Y-21851337D01*
X45554642Y-21693768D01*
X45142894Y-21693768D01*
X44762488Y-21851337D01*
X44471337Y-22142488D01*
X44313768Y-22522894D01*
X41567423Y-22522894D01*
X41497106Y-22493768D01*
X41085358Y-22493768D01*
X40704952Y-22651337D01*
X40570058Y-22786231D01*
X36127000Y-22786231D01*
X36127000Y-16955001D01*
X37148841Y-16955001D01*
X37242569Y-17181280D01*
X37533720Y-17472431D01*
X37914126Y-17630000D01*
X38325874Y-17630000D01*
X38706280Y-17472431D01*
X38814585Y-17364126D01*
X42870000Y-17364126D01*
X42870000Y-17775874D01*
X43027569Y-18156280D01*
X43318720Y-18447431D01*
X43699126Y-18605000D01*
X44110874Y-18605000D01*
X44491280Y-18447431D01*
X44540000Y-18398711D01*
X44588720Y-18447431D01*
X44969126Y-18605000D01*
X45380874Y-18605000D01*
X45761280Y-18447431D01*
X45810000Y-18398711D01*
X45858720Y-18447431D01*
X46239126Y-18605000D01*
X46650874Y-18605000D01*
X47031280Y-18447431D01*
X47322431Y-18156280D01*
X47480000Y-17775874D01*
X47480000Y-17364126D01*
X47322431Y-16983720D01*
X47031280Y-16692569D01*
X46650874Y-16535000D01*
X46239126Y-16535000D01*
X45858720Y-16692569D01*
X45810000Y-16741289D01*
X45761280Y-16692569D01*
X45380874Y-16535000D01*
X44969126Y-16535000D01*
X44588720Y-16692569D01*
X44540000Y-16741289D01*
X44491280Y-16692569D01*
X44110874Y-16535000D01*
X43699126Y-16535000D01*
X43318720Y-16692569D01*
X43027569Y-16983720D01*
X42870000Y-17364126D01*
X38814585Y-17364126D01*
X38997431Y-17181280D01*
X39155000Y-16800874D01*
X39155000Y-16389126D01*
X38997431Y-16008720D01*
X38706280Y-15717569D01*
X38325874Y-15560000D01*
X38137618Y-15560000D01*
X38016538Y-15479097D01*
X37794853Y-15435001D01*
X37794848Y-15435001D01*
X37720001Y-15420113D01*
X37645154Y-15435001D01*
X36127000Y-15435001D01*
X36127000Y-12175105D01*
X59430000Y-12175105D01*
X59430000Y-12944895D01*
X59724586Y-13656090D01*
X60268910Y-14200414D01*
X60980105Y-14495000D01*
X61749895Y-14495000D01*
X62461090Y-14200414D01*
X63005414Y-13656090D01*
X63300000Y-12944895D01*
X63300000Y-12175105D01*
X63005414Y-11463910D01*
X62461090Y-10919586D01*
X61749895Y-10625000D01*
X60980105Y-10625000D01*
X60268910Y-10919586D01*
X59724586Y-11463910D01*
X59430000Y-12175105D01*
X36127000Y-12175105D01*
X36127000Y-8713768D01*
X39611796Y-8713768D01*
X39671337Y-8857512D01*
X39962488Y-9148663D01*
X40342894Y-9306232D01*
X40754642Y-9306232D01*
X41135048Y-9148663D01*
X41426199Y-8857512D01*
X41558385Y-8538385D01*
X41877512Y-8406199D01*
X42168663Y-8115048D01*
X42326232Y-7734642D01*
X42326232Y-7322894D01*
X42168663Y-6942488D01*
X41877512Y-6651337D01*
X41567423Y-6522894D01*
X44313768Y-6522894D01*
X44313768Y-6934642D01*
X44471337Y-7315048D01*
X44762488Y-7606199D01*
X45081615Y-7738385D01*
X45213801Y-8057512D01*
X45504952Y-8348663D01*
X45885358Y-8506232D01*
X46297106Y-8506232D01*
X46677512Y-8348663D01*
X46968663Y-8057512D01*
X47117622Y-7697892D01*
X48458818Y-7697892D01*
X48458818Y-8109640D01*
X48616387Y-8490046D01*
X48907538Y-8781197D01*
X49226665Y-8913383D01*
X49358851Y-9232510D01*
X49650002Y-9523661D01*
X50030408Y-9681230D01*
X50442156Y-9681230D01*
X50822562Y-9523661D01*
X51113713Y-9232510D01*
X51271282Y-8852104D01*
X51271282Y-8440356D01*
X51113713Y-8059950D01*
X50822562Y-7768799D01*
X50503435Y-7636613D01*
X50373490Y-7322894D01*
X53913768Y-7322894D01*
X53913768Y-7734642D01*
X54071337Y-8115048D01*
X54362488Y-8406199D01*
X54681615Y-8538385D01*
X54813801Y-8857512D01*
X55104952Y-9148663D01*
X55485358Y-9306232D01*
X55897106Y-9306232D01*
X56277512Y-9148663D01*
X56568364Y-8857812D01*
X56718717Y-9008165D01*
X57099123Y-9165734D01*
X57510871Y-9165734D01*
X57891277Y-9008165D01*
X58182428Y-8717014D01*
X58339997Y-8336608D01*
X58339997Y-7924860D01*
X58182428Y-7544454D01*
X57891277Y-7253303D01*
X57510871Y-7095734D01*
X57351740Y-7095734D01*
X57324674Y-7030390D01*
X57033523Y-6739239D01*
X56653117Y-6581670D01*
X56241369Y-6581670D01*
X55860963Y-6739239D01*
X55741957Y-6858246D01*
X55535048Y-6651337D01*
X55154642Y-6493768D01*
X54742894Y-6493768D01*
X54362488Y-6651337D01*
X54071337Y-6942488D01*
X53913768Y-7322894D01*
X50373490Y-7322894D01*
X50371249Y-7317486D01*
X50080098Y-7026335D01*
X49699692Y-6868766D01*
X49287944Y-6868766D01*
X48907538Y-7026335D01*
X48616387Y-7317486D01*
X48458818Y-7697892D01*
X47117622Y-7697892D01*
X47126232Y-7677106D01*
X47126232Y-7265358D01*
X46968663Y-6884952D01*
X46677512Y-6593801D01*
X46358385Y-6461615D01*
X46226199Y-6142488D01*
X45935048Y-5851337D01*
X45554642Y-5693768D01*
X45142894Y-5693768D01*
X44762488Y-5851337D01*
X44471337Y-6142488D01*
X44313768Y-6522894D01*
X41567423Y-6522894D01*
X41497106Y-6493768D01*
X41085358Y-6493768D01*
X40704952Y-6651337D01*
X40570058Y-6786231D01*
X36127000Y-6786231D01*
X36127000Y-735000D01*
X70608911Y-735000D01*
X71195092Y-800751D01*
X71195092Y-800751D01*
G37*
X71195092Y-800751D02*
X71713100Y-981140D01*
X72178266Y-1271808D01*
X72567474Y-1658308D01*
X72861386Y-2121438D01*
X73045383Y-2638164D01*
X73115001Y-3221993D01*
X73115000Y-16727612D01*
X73100601Y-16800000D01*
X73157646Y-17086783D01*
X73267161Y-17250683D01*
X73320095Y-17329905D01*
X73563217Y-17492354D01*
X73723000Y-17524137D01*
X73723000Y-54275863D01*
X73563217Y-54307646D01*
X73320095Y-54470095D01*
X73157646Y-54713217D01*
X73100601Y-55000000D01*
X73115000Y-55072388D01*
X73115001Y-68672388D01*
X73122947Y-68712336D01*
X73073780Y-69150669D01*
X72891548Y-69673969D01*
X72597909Y-70143890D01*
X72207451Y-70537083D01*
X71739593Y-70833995D01*
X71217576Y-71019877D01*
X70766155Y-71073706D01*
X70722388Y-71065000D01*
X36127000Y-71065000D01*
X36127000Y-67692268D01*
X59460000Y-67692268D01*
X59460000Y-68287733D01*
X59547032Y-68725271D01*
X59878561Y-69221439D01*
X60374730Y-69552968D01*
X60960000Y-69669386D01*
X61545271Y-69552968D01*
X62041439Y-69221439D01*
X62210000Y-68969169D01*
X62378561Y-69221439D01*
X62874730Y-69552968D01*
X63460000Y-69669386D01*
X64045271Y-69552968D01*
X64541439Y-69221439D01*
X64710000Y-68969169D01*
X64878561Y-69221439D01*
X65374730Y-69552968D01*
X65960000Y-69669386D01*
X66545271Y-69552968D01*
X67006894Y-69244521D01*
X67056673Y-69364698D01*
X67235301Y-69543327D01*
X67468690Y-69640000D01*
X68174250Y-69640000D01*
X68333000Y-69481250D01*
X68333000Y-68117000D01*
X68587000Y-68117000D01*
X68587000Y-69481250D01*
X68745750Y-69640000D01*
X69451310Y-69640000D01*
X69684699Y-69543327D01*
X69863327Y-69364698D01*
X69960000Y-69131309D01*
X69960000Y-68275750D01*
X69801250Y-68117000D01*
X68587000Y-68117000D01*
X68333000Y-68117000D01*
X68313000Y-68117000D01*
X68313000Y-67863000D01*
X68333000Y-67863000D01*
X68333000Y-66498750D01*
X68587000Y-66498750D01*
X68587000Y-67863000D01*
X69801250Y-67863000D01*
X69960000Y-67704250D01*
X69960000Y-66848691D01*
X69863327Y-66615302D01*
X69684699Y-66436673D01*
X69451310Y-66340000D01*
X68745750Y-66340000D01*
X68587000Y-66498750D01*
X68333000Y-66498750D01*
X68174250Y-66340000D01*
X67468690Y-66340000D01*
X67235301Y-66436673D01*
X67056673Y-66615302D01*
X67006894Y-66735479D01*
X66545270Y-66427032D01*
X65960000Y-66310614D01*
X65374729Y-66427032D01*
X64878561Y-66758561D01*
X64710000Y-67010831D01*
X64541439Y-66758561D01*
X64045270Y-66427032D01*
X63460000Y-66310614D01*
X62874729Y-66427032D01*
X62378561Y-66758561D01*
X62210000Y-67010831D01*
X62041439Y-66758561D01*
X61545270Y-66427032D01*
X60960000Y-66310614D01*
X60374729Y-66427032D01*
X59878561Y-66758561D01*
X59547032Y-67254730D01*
X59460000Y-67692268D01*
X36127000Y-67692268D01*
X36127000Y-64955001D01*
X37148841Y-64955001D01*
X37242569Y-65181280D01*
X37533720Y-65472431D01*
X37914126Y-65630000D01*
X38325874Y-65630000D01*
X38706280Y-65472431D01*
X38939585Y-65239126D01*
X42870000Y-65239126D01*
X42870000Y-65650874D01*
X43027569Y-66031280D01*
X43318720Y-66322431D01*
X43699126Y-66480000D01*
X44110874Y-66480000D01*
X44491280Y-66322431D01*
X44540000Y-66273711D01*
X44588720Y-66322431D01*
X44969126Y-66480000D01*
X45380874Y-66480000D01*
X45761280Y-66322431D01*
X45797500Y-66286211D01*
X45833720Y-66322431D01*
X46214126Y-66480000D01*
X46625874Y-66480000D01*
X47006280Y-66322431D01*
X47297431Y-66031280D01*
X47455000Y-65650874D01*
X47455000Y-65239126D01*
X47297431Y-64858720D01*
X47006280Y-64567569D01*
X46625874Y-64410000D01*
X46214126Y-64410000D01*
X45833720Y-64567569D01*
X45797500Y-64603789D01*
X45761280Y-64567569D01*
X45380874Y-64410000D01*
X44969126Y-64410000D01*
X44588720Y-64567569D01*
X44540000Y-64616289D01*
X44491280Y-64567569D01*
X44110874Y-64410000D01*
X43699126Y-64410000D01*
X43318720Y-64567569D01*
X43027569Y-64858720D01*
X42870000Y-65239126D01*
X38939585Y-65239126D01*
X38997431Y-65181280D01*
X39155000Y-64800874D01*
X39155000Y-64389126D01*
X38997431Y-64008720D01*
X38706280Y-63717569D01*
X38325874Y-63560000D01*
X38137618Y-63560000D01*
X38016538Y-63479097D01*
X37794853Y-63435001D01*
X37794848Y-63435001D01*
X37720001Y-63420113D01*
X37645154Y-63435001D01*
X36127000Y-63435001D01*
X36127000Y-56713768D01*
X39611796Y-56713768D01*
X39671337Y-56857512D01*
X39962488Y-57148663D01*
X40342894Y-57306232D01*
X40754642Y-57306232D01*
X41135048Y-57148663D01*
X41426199Y-56857512D01*
X41558385Y-56538385D01*
X41877512Y-56406199D01*
X42168663Y-56115048D01*
X42326232Y-55734642D01*
X42326232Y-55322894D01*
X42168663Y-54942488D01*
X41877512Y-54651337D01*
X41567423Y-54522894D01*
X44313768Y-54522894D01*
X44313768Y-54934642D01*
X44471337Y-55315048D01*
X44762488Y-55606199D01*
X45081615Y-55738385D01*
X45213801Y-56057512D01*
X45504952Y-56348663D01*
X45885358Y-56506232D01*
X46297106Y-56506232D01*
X46677512Y-56348663D01*
X46968663Y-56057512D01*
X47126232Y-55677106D01*
X47126232Y-55265358D01*
X46968663Y-54884952D01*
X46677512Y-54593801D01*
X46358385Y-54461615D01*
X46226199Y-54142488D01*
X45935048Y-53851337D01*
X45554642Y-53693768D01*
X45142894Y-53693768D01*
X44762488Y-53851337D01*
X44471337Y-54142488D01*
X44313768Y-54522894D01*
X41567423Y-54522894D01*
X41497106Y-54493768D01*
X41085358Y-54493768D01*
X40704952Y-54651337D01*
X40570058Y-54786231D01*
X36127000Y-54786231D01*
X36127000Y-48955001D01*
X37148841Y-48955001D01*
X37242569Y-49181280D01*
X37533720Y-49472431D01*
X37914126Y-49630000D01*
X38325874Y-49630000D01*
X38706280Y-49472431D01*
X38939585Y-49239126D01*
X42870000Y-49239126D01*
X42870000Y-49650874D01*
X43027569Y-50031280D01*
X43318720Y-50322431D01*
X43699126Y-50480000D01*
X44110874Y-50480000D01*
X44491280Y-50322431D01*
X44540000Y-50273711D01*
X44588720Y-50322431D01*
X44969126Y-50480000D01*
X45380874Y-50480000D01*
X45761280Y-50322431D01*
X45797500Y-50286211D01*
X45833720Y-50322431D01*
X46214126Y-50480000D01*
X46625874Y-50480000D01*
X47006280Y-50322431D01*
X47297431Y-50031280D01*
X47455000Y-49650874D01*
X47455000Y-49239126D01*
X47297431Y-48858720D01*
X47006280Y-48567569D01*
X46625874Y-48410000D01*
X46214126Y-48410000D01*
X45833720Y-48567569D01*
X45797500Y-48603789D01*
X45761280Y-48567569D01*
X45380874Y-48410000D01*
X44969126Y-48410000D01*
X44588720Y-48567569D01*
X44540000Y-48616289D01*
X44491280Y-48567569D01*
X44110874Y-48410000D01*
X43699126Y-48410000D01*
X43318720Y-48567569D01*
X43027569Y-48858720D01*
X42870000Y-49239126D01*
X38939585Y-49239126D01*
X38997431Y-49181280D01*
X39155000Y-48800874D01*
X39155000Y-48389126D01*
X38997431Y-48008720D01*
X38706280Y-47717569D01*
X38325874Y-47560000D01*
X38137618Y-47560000D01*
X38016538Y-47479097D01*
X37794853Y-47435001D01*
X37794848Y-47435001D01*
X37720001Y-47420113D01*
X37645154Y-47435001D01*
X36127000Y-47435001D01*
X36127000Y-40713768D01*
X39611796Y-40713768D01*
X39671337Y-40857512D01*
X39962488Y-41148663D01*
X40342894Y-41306232D01*
X40754642Y-41306232D01*
X41135048Y-41148663D01*
X41426199Y-40857512D01*
X41558385Y-40538385D01*
X41877512Y-40406199D01*
X42168663Y-40115048D01*
X42326232Y-39734642D01*
X42326232Y-39322894D01*
X42168663Y-38942488D01*
X41877512Y-38651337D01*
X41567423Y-38522894D01*
X44313768Y-38522894D01*
X44313768Y-38934642D01*
X44471337Y-39315048D01*
X44762488Y-39606199D01*
X45081615Y-39738385D01*
X45213801Y-40057512D01*
X45504952Y-40348663D01*
X45885358Y-40506232D01*
X46297106Y-40506232D01*
X46677512Y-40348663D01*
X46968663Y-40057512D01*
X47126232Y-39677106D01*
X47126232Y-39265358D01*
X46968663Y-38884952D01*
X46677512Y-38593801D01*
X46358385Y-38461615D01*
X46226199Y-38142488D01*
X45935048Y-37851337D01*
X45554642Y-37693768D01*
X45142894Y-37693768D01*
X44762488Y-37851337D01*
X44471337Y-38142488D01*
X44313768Y-38522894D01*
X41567423Y-38522894D01*
X41497106Y-38493768D01*
X41085358Y-38493768D01*
X40704952Y-38651337D01*
X40570058Y-38786231D01*
X36127000Y-38786231D01*
X36127000Y-32955001D01*
X37148841Y-32955001D01*
X37242569Y-33181280D01*
X37533720Y-33472431D01*
X37914126Y-33630000D01*
X38325874Y-33630000D01*
X38706280Y-33472431D01*
X38939585Y-33239126D01*
X42870000Y-33239126D01*
X42870000Y-33650874D01*
X43027569Y-34031280D01*
X43318720Y-34322431D01*
X43699126Y-34480000D01*
X44110874Y-34480000D01*
X44491280Y-34322431D01*
X44540000Y-34273711D01*
X44588720Y-34322431D01*
X44969126Y-34480000D01*
X45380874Y-34480000D01*
X45761280Y-34322431D01*
X45797500Y-34286211D01*
X45833720Y-34322431D01*
X46214126Y-34480000D01*
X46625874Y-34480000D01*
X47006280Y-34322431D01*
X47297431Y-34031280D01*
X47455000Y-33650874D01*
X47455000Y-33239126D01*
X47297431Y-32858720D01*
X47006280Y-32567569D01*
X46625874Y-32410000D01*
X46214126Y-32410000D01*
X45833720Y-32567569D01*
X45797500Y-32603789D01*
X45761280Y-32567569D01*
X45380874Y-32410000D01*
X44969126Y-32410000D01*
X44588720Y-32567569D01*
X44540000Y-32616289D01*
X44491280Y-32567569D01*
X44110874Y-32410000D01*
X43699126Y-32410000D01*
X43318720Y-32567569D01*
X43027569Y-32858720D01*
X42870000Y-33239126D01*
X38939585Y-33239126D01*
X38997431Y-33181280D01*
X39155000Y-32800874D01*
X39155000Y-32389126D01*
X38997431Y-32008720D01*
X38706280Y-31717569D01*
X38325874Y-31560000D01*
X38137618Y-31560000D01*
X38016538Y-31479097D01*
X37794853Y-31435001D01*
X37794848Y-31435001D01*
X37720001Y-31420113D01*
X37645154Y-31435001D01*
X36127000Y-31435001D01*
X36127000Y-24713768D01*
X39611796Y-24713768D01*
X39671337Y-24857512D01*
X39962488Y-25148663D01*
X40342894Y-25306232D01*
X40754642Y-25306232D01*
X41135048Y-25148663D01*
X41426199Y-24857512D01*
X41558385Y-24538385D01*
X41877512Y-24406199D01*
X42168663Y-24115048D01*
X42326232Y-23734642D01*
X42326232Y-23322894D01*
X42168663Y-22942488D01*
X41877512Y-22651337D01*
X41567423Y-22522894D01*
X44313768Y-22522894D01*
X44313768Y-22934642D01*
X44471337Y-23315048D01*
X44762488Y-23606199D01*
X45081615Y-23738385D01*
X45213801Y-24057512D01*
X45504952Y-24348663D01*
X45885358Y-24506232D01*
X46297106Y-24506232D01*
X46677512Y-24348663D01*
X46968663Y-24057512D01*
X47117622Y-23697892D01*
X48458818Y-23697892D01*
X48458818Y-24109640D01*
X48616387Y-24490046D01*
X48907538Y-24781197D01*
X49226665Y-24913383D01*
X49358851Y-25232510D01*
X49650002Y-25523661D01*
X50030408Y-25681230D01*
X50201284Y-25681230D01*
X50201284Y-32410000D01*
X50049126Y-32410000D01*
X49668720Y-32567569D01*
X49377569Y-32858720D01*
X49220000Y-33239126D01*
X49220000Y-33650874D01*
X49377569Y-34031280D01*
X49668720Y-34322431D01*
X50049126Y-34480000D01*
X50215199Y-34480000D01*
X50740001Y-35004803D01*
X50740001Y-39734601D01*
X50503435Y-39636613D01*
X50371249Y-39317486D01*
X50080098Y-39026335D01*
X49699692Y-38868766D01*
X49287944Y-38868766D01*
X48907538Y-39026335D01*
X48616387Y-39317486D01*
X48458818Y-39697892D01*
X48458818Y-40109640D01*
X48616387Y-40490046D01*
X48907538Y-40781197D01*
X49226665Y-40913383D01*
X49358851Y-41232510D01*
X49650002Y-41523661D01*
X50030408Y-41681230D01*
X50442156Y-41681230D01*
X50740000Y-41557859D01*
X50740000Y-47885198D01*
X50215199Y-48410000D01*
X50049126Y-48410000D01*
X49668720Y-48567569D01*
X49377569Y-48858720D01*
X49220000Y-49239126D01*
X49220000Y-49650874D01*
X49377569Y-50031280D01*
X49668720Y-50322431D01*
X50049126Y-50480000D01*
X50201284Y-50480000D01*
X50201284Y-55147521D01*
X50080098Y-55026335D01*
X49699692Y-54868766D01*
X49287944Y-54868766D01*
X48907538Y-55026335D01*
X48616387Y-55317486D01*
X48458818Y-55697892D01*
X48458818Y-56109640D01*
X48616387Y-56490046D01*
X48907538Y-56781197D01*
X49226665Y-56913383D01*
X49358851Y-57232510D01*
X49650002Y-57523661D01*
X50030408Y-57681230D01*
X50201283Y-57681230D01*
X50201283Y-64410000D01*
X50049126Y-64410000D01*
X49668720Y-64567569D01*
X49377569Y-64858720D01*
X49220000Y-65239126D01*
X49220000Y-65650874D01*
X49377569Y-66031280D01*
X49668720Y-66322431D01*
X50049126Y-66480000D01*
X50460874Y-66480000D01*
X50841280Y-66322431D01*
X50890000Y-66273711D01*
X50938720Y-66322431D01*
X51319126Y-66480000D01*
X51730874Y-66480000D01*
X52111280Y-66322431D01*
X52147500Y-66286211D01*
X52208720Y-66347431D01*
X52589126Y-66505000D01*
X53000874Y-66505000D01*
X53381280Y-66347431D01*
X53430000Y-66298711D01*
X53453720Y-66322431D01*
X53834126Y-66480000D01*
X54245874Y-66480000D01*
X54626280Y-66322431D01*
X54917431Y-66031280D01*
X55075000Y-65650874D01*
X55075000Y-65239126D01*
X54917431Y-64858720D01*
X54626280Y-64567569D01*
X54245874Y-64410000D01*
X53834126Y-64410000D01*
X53453720Y-64567569D01*
X53405000Y-64616289D01*
X53381280Y-64592569D01*
X53000874Y-64435000D01*
X52589126Y-64435000D01*
X52208720Y-64592569D01*
X52172500Y-64628789D01*
X52111280Y-64567569D01*
X51730874Y-64410000D01*
X51721283Y-64410000D01*
X51721283Y-60175105D01*
X59430000Y-60175105D01*
X59430000Y-60944895D01*
X59724586Y-61656090D01*
X60268910Y-62200414D01*
X60980105Y-62495000D01*
X61749895Y-62495000D01*
X62461090Y-62200414D01*
X63005414Y-61656090D01*
X63300000Y-60944895D01*
X63300000Y-60175105D01*
X63005414Y-59463910D01*
X62461090Y-58919586D01*
X61749895Y-58625000D01*
X60980105Y-58625000D01*
X60268910Y-58919586D01*
X59724586Y-59463910D01*
X59430000Y-60175105D01*
X51721283Y-60175105D01*
X51721283Y-55322894D01*
X53913768Y-55322894D01*
X53913768Y-55734642D01*
X54071337Y-56115048D01*
X54362488Y-56406199D01*
X54681615Y-56538385D01*
X54813801Y-56857512D01*
X55104952Y-57148663D01*
X55485358Y-57306232D01*
X55897106Y-57306232D01*
X56277512Y-57148663D01*
X56568364Y-56857812D01*
X56718717Y-57008165D01*
X57099123Y-57165734D01*
X57510871Y-57165734D01*
X57891277Y-57008165D01*
X58182428Y-56717014D01*
X58339997Y-56336608D01*
X58339997Y-55924860D01*
X58182428Y-55544454D01*
X57891277Y-55253303D01*
X57510871Y-55095734D01*
X57351740Y-55095734D01*
X57324674Y-55030390D01*
X57033523Y-54739239D01*
X56653117Y-54581670D01*
X56241369Y-54581670D01*
X55860963Y-54739239D01*
X55741957Y-54858246D01*
X55535048Y-54651337D01*
X55154642Y-54493768D01*
X54742894Y-54493768D01*
X54362488Y-54651337D01*
X54071337Y-54942488D01*
X53913768Y-55322894D01*
X51721283Y-55322894D01*
X51721283Y-50480000D01*
X51730874Y-50480000D01*
X52111280Y-50322431D01*
X52147500Y-50286211D01*
X52208720Y-50347431D01*
X52589126Y-50505000D01*
X53000874Y-50505000D01*
X53381280Y-50347431D01*
X53430000Y-50298711D01*
X53453720Y-50322431D01*
X53834126Y-50480000D01*
X54245874Y-50480000D01*
X54626280Y-50322431D01*
X54917431Y-50031280D01*
X55075000Y-49650874D01*
X55075000Y-49239126D01*
X54917431Y-48858720D01*
X54626280Y-48567569D01*
X54245874Y-48410000D01*
X53834126Y-48410000D01*
X53453720Y-48567569D01*
X53405000Y-48616289D01*
X53381280Y-48592569D01*
X53000874Y-48435000D01*
X52589126Y-48435000D01*
X52208720Y-48592569D01*
X52172500Y-48628789D01*
X52145546Y-48601835D01*
X52215904Y-48496537D01*
X52260000Y-48274852D01*
X52260000Y-48274847D01*
X52274888Y-48200000D01*
X52260000Y-48125153D01*
X52260000Y-44175105D01*
X59430000Y-44175105D01*
X59430000Y-44944895D01*
X59724586Y-45656090D01*
X60268910Y-46200414D01*
X60980105Y-46495000D01*
X61749895Y-46495000D01*
X62461090Y-46200414D01*
X63005414Y-45656090D01*
X63300000Y-44944895D01*
X63300000Y-44175105D01*
X63005414Y-43463910D01*
X62461090Y-42919586D01*
X61749895Y-42625000D01*
X60980105Y-42625000D01*
X60268910Y-42919586D01*
X59724586Y-43463910D01*
X59430000Y-44175105D01*
X52260000Y-44175105D01*
X52260000Y-39322894D01*
X53913768Y-39322894D01*
X53913768Y-39734642D01*
X54071337Y-40115048D01*
X54362488Y-40406199D01*
X54681615Y-40538385D01*
X54813801Y-40857512D01*
X55104952Y-41148663D01*
X55485358Y-41306232D01*
X55897106Y-41306232D01*
X56277512Y-41148663D01*
X56568364Y-40857812D01*
X56718717Y-41008165D01*
X57099123Y-41165734D01*
X57510871Y-41165734D01*
X57891277Y-41008165D01*
X58182428Y-40717014D01*
X58339997Y-40336608D01*
X58339997Y-39924860D01*
X58182428Y-39544454D01*
X57891277Y-39253303D01*
X57510871Y-39095734D01*
X57351740Y-39095734D01*
X57324674Y-39030390D01*
X57033523Y-38739239D01*
X56653117Y-38581670D01*
X56241369Y-38581670D01*
X55860963Y-38739239D01*
X55741957Y-38858246D01*
X55535048Y-38651337D01*
X55154642Y-38493768D01*
X54742894Y-38493768D01*
X54362488Y-38651337D01*
X54071337Y-38942488D01*
X53913768Y-39322894D01*
X52260000Y-39322894D01*
X52260000Y-34764847D01*
X52274888Y-34690000D01*
X52260000Y-34615153D01*
X52260000Y-34615148D01*
X52215904Y-34393463D01*
X52145546Y-34288165D01*
X52147500Y-34286211D01*
X52208720Y-34347431D01*
X52589126Y-34505000D01*
X53000874Y-34505000D01*
X53381280Y-34347431D01*
X53430000Y-34298711D01*
X53453720Y-34322431D01*
X53834126Y-34480000D01*
X54245874Y-34480000D01*
X54626280Y-34322431D01*
X54917431Y-34031280D01*
X55075000Y-33650874D01*
X55075000Y-33239126D01*
X54917431Y-32858720D01*
X54626280Y-32567569D01*
X54245874Y-32410000D01*
X53834126Y-32410000D01*
X53453720Y-32567569D01*
X53405000Y-32616289D01*
X53381280Y-32592569D01*
X53000874Y-32435000D01*
X52589126Y-32435000D01*
X52208720Y-32592569D01*
X52172500Y-32628789D01*
X52111280Y-32567569D01*
X51730874Y-32410000D01*
X51721283Y-32410000D01*
X51721283Y-28175105D01*
X59430000Y-28175105D01*
X59430000Y-28944895D01*
X59724586Y-29656090D01*
X60268910Y-30200414D01*
X60980105Y-30495000D01*
X61749895Y-30495000D01*
X62461090Y-30200414D01*
X63005414Y-29656090D01*
X63300000Y-28944895D01*
X63300000Y-28175105D01*
X63005414Y-27463910D01*
X62461090Y-26919586D01*
X61749895Y-26625000D01*
X60980105Y-26625000D01*
X60268910Y-26919586D01*
X59724586Y-27463910D01*
X59430000Y-28175105D01*
X51721283Y-28175105D01*
X51721283Y-23322894D01*
X53913768Y-23322894D01*
X53913768Y-23734642D01*
X54071337Y-24115048D01*
X54362488Y-24406199D01*
X54681615Y-24538385D01*
X54813801Y-24857512D01*
X55104952Y-25148663D01*
X55485358Y-25306232D01*
X55897106Y-25306232D01*
X56277512Y-25148663D01*
X56568364Y-24857812D01*
X56718717Y-25008165D01*
X57099123Y-25165734D01*
X57510871Y-25165734D01*
X57891277Y-25008165D01*
X58182428Y-24717014D01*
X58339997Y-24336608D01*
X58339997Y-23924860D01*
X58182428Y-23544454D01*
X57891277Y-23253303D01*
X57510871Y-23095734D01*
X57351740Y-23095734D01*
X57324674Y-23030390D01*
X57033523Y-22739239D01*
X56653117Y-22581670D01*
X56241369Y-22581670D01*
X55860963Y-22739239D01*
X55741957Y-22858246D01*
X55535048Y-22651337D01*
X55154642Y-22493768D01*
X54742894Y-22493768D01*
X54362488Y-22651337D01*
X54071337Y-22942488D01*
X53913768Y-23322894D01*
X51721283Y-23322894D01*
X51721283Y-18605000D01*
X51730874Y-18605000D01*
X52111280Y-18447431D01*
X52210530Y-18348181D01*
X52589126Y-18505000D01*
X53000874Y-18505000D01*
X53379470Y-18348181D01*
X53478720Y-18447431D01*
X53859126Y-18605000D01*
X54270874Y-18605000D01*
X54651280Y-18447431D01*
X54942431Y-18156280D01*
X55100000Y-17775874D01*
X55100000Y-17364126D01*
X54942431Y-16983720D01*
X54651280Y-16692569D01*
X54270874Y-16535000D01*
X53859126Y-16535000D01*
X53480530Y-16691819D01*
X53381280Y-16592569D01*
X53000874Y-16435000D01*
X52589126Y-16435000D01*
X52208720Y-16592569D01*
X52109470Y-16691819D01*
X51730874Y-16535000D01*
X51319126Y-16535000D01*
X50938720Y-16692569D01*
X50890000Y-16741289D01*
X50841280Y-16692569D01*
X50460874Y-16535000D01*
X50049126Y-16535000D01*
X49668720Y-16692569D01*
X49377569Y-16983720D01*
X49220000Y-17364126D01*
X49220000Y-17775874D01*
X49377569Y-18156280D01*
X49668720Y-18447431D01*
X50049126Y-18605000D01*
X50201283Y-18605000D01*
X50201283Y-23147520D01*
X50080098Y-23026335D01*
X49699692Y-22868766D01*
X49287944Y-22868766D01*
X48907538Y-23026335D01*
X48616387Y-23317486D01*
X48458818Y-23697892D01*
X47117622Y-23697892D01*
X47126232Y-23677106D01*
X47126232Y-23265358D01*
X46968663Y-22884952D01*
X46677512Y-22593801D01*
X46358385Y-22461615D01*
X46226199Y-22142488D01*
X45935048Y-21851337D01*
X45554642Y-21693768D01*
X45142894Y-21693768D01*
X44762488Y-21851337D01*
X44471337Y-22142488D01*
X44313768Y-22522894D01*
X41567423Y-22522894D01*
X41497106Y-22493768D01*
X41085358Y-22493768D01*
X40704952Y-22651337D01*
X40570058Y-22786231D01*
X36127000Y-22786231D01*
X36127000Y-16955001D01*
X37148841Y-16955001D01*
X37242569Y-17181280D01*
X37533720Y-17472431D01*
X37914126Y-17630000D01*
X38325874Y-17630000D01*
X38706280Y-17472431D01*
X38814585Y-17364126D01*
X42870000Y-17364126D01*
X42870000Y-17775874D01*
X43027569Y-18156280D01*
X43318720Y-18447431D01*
X43699126Y-18605000D01*
X44110874Y-18605000D01*
X44491280Y-18447431D01*
X44540000Y-18398711D01*
X44588720Y-18447431D01*
X44969126Y-18605000D01*
X45380874Y-18605000D01*
X45761280Y-18447431D01*
X45810000Y-18398711D01*
X45858720Y-18447431D01*
X46239126Y-18605000D01*
X46650874Y-18605000D01*
X47031280Y-18447431D01*
X47322431Y-18156280D01*
X47480000Y-17775874D01*
X47480000Y-17364126D01*
X47322431Y-16983720D01*
X47031280Y-16692569D01*
X46650874Y-16535000D01*
X46239126Y-16535000D01*
X45858720Y-16692569D01*
X45810000Y-16741289D01*
X45761280Y-16692569D01*
X45380874Y-16535000D01*
X44969126Y-16535000D01*
X44588720Y-16692569D01*
X44540000Y-16741289D01*
X44491280Y-16692569D01*
X44110874Y-16535000D01*
X43699126Y-16535000D01*
X43318720Y-16692569D01*
X43027569Y-16983720D01*
X42870000Y-17364126D01*
X38814585Y-17364126D01*
X38997431Y-17181280D01*
X39155000Y-16800874D01*
X39155000Y-16389126D01*
X38997431Y-16008720D01*
X38706280Y-15717569D01*
X38325874Y-15560000D01*
X38137618Y-15560000D01*
X38016538Y-15479097D01*
X37794853Y-15435001D01*
X37794848Y-15435001D01*
X37720001Y-15420113D01*
X37645154Y-15435001D01*
X36127000Y-15435001D01*
X36127000Y-12175105D01*
X59430000Y-12175105D01*
X59430000Y-12944895D01*
X59724586Y-13656090D01*
X60268910Y-14200414D01*
X60980105Y-14495000D01*
X61749895Y-14495000D01*
X62461090Y-14200414D01*
X63005414Y-13656090D01*
X63300000Y-12944895D01*
X63300000Y-12175105D01*
X63005414Y-11463910D01*
X62461090Y-10919586D01*
X61749895Y-10625000D01*
X60980105Y-10625000D01*
X60268910Y-10919586D01*
X59724586Y-11463910D01*
X59430000Y-12175105D01*
X36127000Y-12175105D01*
X36127000Y-8713768D01*
X39611796Y-8713768D01*
X39671337Y-8857512D01*
X39962488Y-9148663D01*
X40342894Y-9306232D01*
X40754642Y-9306232D01*
X41135048Y-9148663D01*
X41426199Y-8857512D01*
X41558385Y-8538385D01*
X41877512Y-8406199D01*
X42168663Y-8115048D01*
X42326232Y-7734642D01*
X42326232Y-7322894D01*
X42168663Y-6942488D01*
X41877512Y-6651337D01*
X41567423Y-6522894D01*
X44313768Y-6522894D01*
X44313768Y-6934642D01*
X44471337Y-7315048D01*
X44762488Y-7606199D01*
X45081615Y-7738385D01*
X45213801Y-8057512D01*
X45504952Y-8348663D01*
X45885358Y-8506232D01*
X46297106Y-8506232D01*
X46677512Y-8348663D01*
X46968663Y-8057512D01*
X47117622Y-7697892D01*
X48458818Y-7697892D01*
X48458818Y-8109640D01*
X48616387Y-8490046D01*
X48907538Y-8781197D01*
X49226665Y-8913383D01*
X49358851Y-9232510D01*
X49650002Y-9523661D01*
X50030408Y-9681230D01*
X50442156Y-9681230D01*
X50822562Y-9523661D01*
X51113713Y-9232510D01*
X51271282Y-8852104D01*
X51271282Y-8440356D01*
X51113713Y-8059950D01*
X50822562Y-7768799D01*
X50503435Y-7636613D01*
X50373490Y-7322894D01*
X53913768Y-7322894D01*
X53913768Y-7734642D01*
X54071337Y-8115048D01*
X54362488Y-8406199D01*
X54681615Y-8538385D01*
X54813801Y-8857512D01*
X55104952Y-9148663D01*
X55485358Y-9306232D01*
X55897106Y-9306232D01*
X56277512Y-9148663D01*
X56568364Y-8857812D01*
X56718717Y-9008165D01*
X57099123Y-9165734D01*
X57510871Y-9165734D01*
X57891277Y-9008165D01*
X58182428Y-8717014D01*
X58339997Y-8336608D01*
X58339997Y-7924860D01*
X58182428Y-7544454D01*
X57891277Y-7253303D01*
X57510871Y-7095734D01*
X57351740Y-7095734D01*
X57324674Y-7030390D01*
X57033523Y-6739239D01*
X56653117Y-6581670D01*
X56241369Y-6581670D01*
X55860963Y-6739239D01*
X55741957Y-6858246D01*
X55535048Y-6651337D01*
X55154642Y-6493768D01*
X54742894Y-6493768D01*
X54362488Y-6651337D01*
X54071337Y-6942488D01*
X53913768Y-7322894D01*
X50373490Y-7322894D01*
X50371249Y-7317486D01*
X50080098Y-7026335D01*
X49699692Y-6868766D01*
X49287944Y-6868766D01*
X48907538Y-7026335D01*
X48616387Y-7317486D01*
X48458818Y-7697892D01*
X47117622Y-7697892D01*
X47126232Y-7677106D01*
X47126232Y-7265358D01*
X46968663Y-6884952D01*
X46677512Y-6593801D01*
X46358385Y-6461615D01*
X46226199Y-6142488D01*
X45935048Y-5851337D01*
X45554642Y-5693768D01*
X45142894Y-5693768D01*
X44762488Y-5851337D01*
X44471337Y-6142488D01*
X44313768Y-6522894D01*
X41567423Y-6522894D01*
X41497106Y-6493768D01*
X41085358Y-6493768D01*
X40704952Y-6651337D01*
X40570058Y-6786231D01*
X36127000Y-6786231D01*
X36127000Y-735000D01*
X70608911Y-735000D01*
X71195092Y-800751D01*
%TD*%
M02*
