%TF.GenerationSoftware,KiCad,Pcbnew,5.0.1-33cea8e~68~ubuntu18.10.1*%
%TF.CreationDate,2018-11-15T12:08:51-07:00*%
%TF.ProjectId,thelio-io,7468656C696F2D696F2E6B696361645F,rev?*%
%TF.SameCoordinates,Original*%
%TF.FileFunction,Paste,Bot*%
%TF.FilePolarity,Positive*%
%FSLAX46Y46*%
G04 Gerber Fmt 4.6, Leading zero omitted, Abs format (unit mm)*
G04 Created by KiCad (PCBNEW 5.0.1-33cea8e~68~ubuntu18.10.1) date Thu Nov 15 12:08:51 2018*
%MOMM*%
%LPD*%
G01*
G04 APERTURE LIST*
%ADD10C,0.200000*%
%ADD11C,0.150000*%
%ADD12R,3.150000X1.000000*%
%ADD13R,1.700000X1.000000*%
%ADD14R,0.900000X2.300000*%
%ADD15C,0.350000*%
%ADD16C,0.318000*%
%ADD17R,0.250000X0.750000*%
%ADD18R,1.500000X0.550000*%
%ADD19R,0.550000X1.500000*%
G04 APERTURE END LIST*
D10*
X77050000Y-53400000D02*
G75*
G02X75450000Y-55000000I-1600000J0D01*
G01*
X73850000Y-55000000D02*
X75450000Y-55000000D01*
X73850000Y-16800000D02*
X75450000Y-16800000D01*
X75450000Y-16800000D02*
G75*
G02X77050000Y-18400000I0J-1600000D01*
G01*
X77050000Y-18400000D02*
X77050000Y-53400000D01*
X-3200000Y-18400000D02*
G75*
G02X-1600000Y-16800000I1600000J0D01*
G01*
X-3200000Y-53400000D02*
X-3200000Y-18400000D01*
X-1600000Y-55000000D02*
G75*
G02X-3200000Y-53400000I0J1600000D01*
G01*
X0Y-55000000D02*
X-1600000Y-55000000D01*
X0Y-16800000D02*
X-1600000Y-16800000D01*
X0Y-55000000D02*
X0Y-68600000D01*
X0Y-16800000D02*
X0Y-3200000D01*
X73850000Y-55000000D02*
X73850000Y-68600000D01*
X73850000Y-16800000D02*
X73850000Y-3200000D01*
D11*
X73850000Y-68600000D02*
G75*
G02X70650000Y-71800000I-3200000J0D01*
G01*
D10*
X3200000Y-71800000D02*
G75*
G02X0Y-68600000I0J3200000D01*
G01*
X70650000Y-71800000D02*
X3200000Y-71800000D01*
X0Y-3200000D02*
G75*
G02X3200000Y0I3200000J0D01*
G01*
X70650000Y0D02*
G75*
G02X73850000Y-3200000I0J-3200000D01*
G01*
X3200000Y0D02*
X70650000Y0D01*
D12*
%TO.C,ICSP0*%
X17705000Y-15920000D03*
X12655000Y-15920000D03*
X17705000Y-18460000D03*
X12655000Y-18460000D03*
X17705000Y-21000000D03*
X12655000Y-21000000D03*
%TD*%
D13*
%TO.C,B0*%
X2000000Y-29250000D03*
X8300000Y-29250000D03*
X2000000Y-25450000D03*
X8300000Y-25450000D03*
%TD*%
D14*
%TO.C,DATA1*%
X33720000Y-22760000D03*
X32450000Y-22760000D03*
X31180000Y-22760000D03*
X29910000Y-22760000D03*
X28640000Y-22760000D03*
X27370000Y-22760000D03*
X26100000Y-22760000D03*
%TD*%
%TO.C,DATA0*%
X33720000Y-6760000D03*
X32450000Y-6760000D03*
X31180000Y-6760000D03*
X29910000Y-6760000D03*
X28640000Y-6760000D03*
X27370000Y-6760000D03*
X26100000Y-6760000D03*
%TD*%
%TO.C,DATA3*%
X33720000Y-54760000D03*
X32450000Y-54760000D03*
X31180000Y-54760000D03*
X29910000Y-54760000D03*
X28640000Y-54760000D03*
X27370000Y-54760000D03*
X26100000Y-54760000D03*
%TD*%
%TO.C,DATA2*%
X33720000Y-39110000D03*
X32450000Y-39110000D03*
X31180000Y-39110000D03*
X29910000Y-39110000D03*
X28640000Y-39110000D03*
X27370000Y-39110000D03*
X26100000Y-39110000D03*
%TD*%
D15*
%TO.C,C0*%
G36*
X10808292Y-48491383D02*
X10816010Y-48492528D01*
X10823578Y-48494423D01*
X10830923Y-48497052D01*
X10837976Y-48500387D01*
X10844668Y-48504398D01*
X10850934Y-48509046D01*
X10856715Y-48514285D01*
X10861954Y-48520066D01*
X10866602Y-48526332D01*
X10870613Y-48533024D01*
X10873948Y-48540077D01*
X10876577Y-48547422D01*
X10878472Y-48554990D01*
X10879617Y-48562708D01*
X10880000Y-48570500D01*
X10880000Y-48729500D01*
X10879617Y-48737292D01*
X10878472Y-48745010D01*
X10876577Y-48752578D01*
X10873948Y-48759923D01*
X10870613Y-48766976D01*
X10866602Y-48773668D01*
X10861954Y-48779934D01*
X10856715Y-48785715D01*
X10850934Y-48790954D01*
X10844668Y-48795602D01*
X10837976Y-48799613D01*
X10830923Y-48802948D01*
X10823578Y-48805577D01*
X10816010Y-48807472D01*
X10808292Y-48808617D01*
X10800500Y-48809000D01*
X10599500Y-48809000D01*
X10591708Y-48808617D01*
X10583990Y-48807472D01*
X10576422Y-48805577D01*
X10569077Y-48802948D01*
X10562024Y-48799613D01*
X10555332Y-48795602D01*
X10549066Y-48790954D01*
X10543285Y-48785715D01*
X10538046Y-48779934D01*
X10533398Y-48773668D01*
X10529387Y-48766976D01*
X10526052Y-48759923D01*
X10523423Y-48752578D01*
X10521528Y-48745010D01*
X10520383Y-48737292D01*
X10520000Y-48729500D01*
X10520000Y-48570500D01*
X10520383Y-48562708D01*
X10521528Y-48554990D01*
X10523423Y-48547422D01*
X10526052Y-48540077D01*
X10529387Y-48533024D01*
X10533398Y-48526332D01*
X10538046Y-48520066D01*
X10543285Y-48514285D01*
X10549066Y-48509046D01*
X10555332Y-48504398D01*
X10562024Y-48500387D01*
X10569077Y-48497052D01*
X10576422Y-48494423D01*
X10583990Y-48492528D01*
X10591708Y-48491383D01*
X10599500Y-48491000D01*
X10800500Y-48491000D01*
X10808292Y-48491383D01*
X10808292Y-48491383D01*
G37*
D16*
X10700000Y-48650000D03*
D15*
G36*
X10808292Y-47801383D02*
X10816010Y-47802528D01*
X10823578Y-47804423D01*
X10830923Y-47807052D01*
X10837976Y-47810387D01*
X10844668Y-47814398D01*
X10850934Y-47819046D01*
X10856715Y-47824285D01*
X10861954Y-47830066D01*
X10866602Y-47836332D01*
X10870613Y-47843024D01*
X10873948Y-47850077D01*
X10876577Y-47857422D01*
X10878472Y-47864990D01*
X10879617Y-47872708D01*
X10880000Y-47880500D01*
X10880000Y-48039500D01*
X10879617Y-48047292D01*
X10878472Y-48055010D01*
X10876577Y-48062578D01*
X10873948Y-48069923D01*
X10870613Y-48076976D01*
X10866602Y-48083668D01*
X10861954Y-48089934D01*
X10856715Y-48095715D01*
X10850934Y-48100954D01*
X10844668Y-48105602D01*
X10837976Y-48109613D01*
X10830923Y-48112948D01*
X10823578Y-48115577D01*
X10816010Y-48117472D01*
X10808292Y-48118617D01*
X10800500Y-48119000D01*
X10599500Y-48119000D01*
X10591708Y-48118617D01*
X10583990Y-48117472D01*
X10576422Y-48115577D01*
X10569077Y-48112948D01*
X10562024Y-48109613D01*
X10555332Y-48105602D01*
X10549066Y-48100954D01*
X10543285Y-48095715D01*
X10538046Y-48089934D01*
X10533398Y-48083668D01*
X10529387Y-48076976D01*
X10526052Y-48069923D01*
X10523423Y-48062578D01*
X10521528Y-48055010D01*
X10520383Y-48047292D01*
X10520000Y-48039500D01*
X10520000Y-47880500D01*
X10520383Y-47872708D01*
X10521528Y-47864990D01*
X10523423Y-47857422D01*
X10526052Y-47850077D01*
X10529387Y-47843024D01*
X10533398Y-47836332D01*
X10538046Y-47830066D01*
X10543285Y-47824285D01*
X10549066Y-47819046D01*
X10555332Y-47814398D01*
X10562024Y-47810387D01*
X10569077Y-47807052D01*
X10576422Y-47804423D01*
X10583990Y-47802528D01*
X10591708Y-47801383D01*
X10599500Y-47801000D01*
X10800500Y-47801000D01*
X10808292Y-47801383D01*
X10808292Y-47801383D01*
G37*
D16*
X10700000Y-47960000D03*
%TD*%
D15*
%TO.C,R0*%
G36*
X11538292Y-62406383D02*
X11546010Y-62407528D01*
X11553578Y-62409423D01*
X11560923Y-62412052D01*
X11567976Y-62415387D01*
X11574668Y-62419398D01*
X11580934Y-62424046D01*
X11586715Y-62429285D01*
X11591954Y-62435066D01*
X11596602Y-62441332D01*
X11600613Y-62448024D01*
X11603948Y-62455077D01*
X11606577Y-62462422D01*
X11608472Y-62469990D01*
X11609617Y-62477708D01*
X11610000Y-62485500D01*
X11610000Y-62644500D01*
X11609617Y-62652292D01*
X11608472Y-62660010D01*
X11606577Y-62667578D01*
X11603948Y-62674923D01*
X11600613Y-62681976D01*
X11596602Y-62688668D01*
X11591954Y-62694934D01*
X11586715Y-62700715D01*
X11580934Y-62705954D01*
X11574668Y-62710602D01*
X11567976Y-62714613D01*
X11560923Y-62717948D01*
X11553578Y-62720577D01*
X11546010Y-62722472D01*
X11538292Y-62723617D01*
X11530500Y-62724000D01*
X11329500Y-62724000D01*
X11321708Y-62723617D01*
X11313990Y-62722472D01*
X11306422Y-62720577D01*
X11299077Y-62717948D01*
X11292024Y-62714613D01*
X11285332Y-62710602D01*
X11279066Y-62705954D01*
X11273285Y-62700715D01*
X11268046Y-62694934D01*
X11263398Y-62688668D01*
X11259387Y-62681976D01*
X11256052Y-62674923D01*
X11253423Y-62667578D01*
X11251528Y-62660010D01*
X11250383Y-62652292D01*
X11250000Y-62644500D01*
X11250000Y-62485500D01*
X11250383Y-62477708D01*
X11251528Y-62469990D01*
X11253423Y-62462422D01*
X11256052Y-62455077D01*
X11259387Y-62448024D01*
X11263398Y-62441332D01*
X11268046Y-62435066D01*
X11273285Y-62429285D01*
X11279066Y-62424046D01*
X11285332Y-62419398D01*
X11292024Y-62415387D01*
X11299077Y-62412052D01*
X11306422Y-62409423D01*
X11313990Y-62407528D01*
X11321708Y-62406383D01*
X11329500Y-62406000D01*
X11530500Y-62406000D01*
X11538292Y-62406383D01*
X11538292Y-62406383D01*
G37*
D16*
X11430000Y-62565000D03*
D15*
G36*
X11538292Y-63096383D02*
X11546010Y-63097528D01*
X11553578Y-63099423D01*
X11560923Y-63102052D01*
X11567976Y-63105387D01*
X11574668Y-63109398D01*
X11580934Y-63114046D01*
X11586715Y-63119285D01*
X11591954Y-63125066D01*
X11596602Y-63131332D01*
X11600613Y-63138024D01*
X11603948Y-63145077D01*
X11606577Y-63152422D01*
X11608472Y-63159990D01*
X11609617Y-63167708D01*
X11610000Y-63175500D01*
X11610000Y-63334500D01*
X11609617Y-63342292D01*
X11608472Y-63350010D01*
X11606577Y-63357578D01*
X11603948Y-63364923D01*
X11600613Y-63371976D01*
X11596602Y-63378668D01*
X11591954Y-63384934D01*
X11586715Y-63390715D01*
X11580934Y-63395954D01*
X11574668Y-63400602D01*
X11567976Y-63404613D01*
X11560923Y-63407948D01*
X11553578Y-63410577D01*
X11546010Y-63412472D01*
X11538292Y-63413617D01*
X11530500Y-63414000D01*
X11329500Y-63414000D01*
X11321708Y-63413617D01*
X11313990Y-63412472D01*
X11306422Y-63410577D01*
X11299077Y-63407948D01*
X11292024Y-63404613D01*
X11285332Y-63400602D01*
X11279066Y-63395954D01*
X11273285Y-63390715D01*
X11268046Y-63384934D01*
X11263398Y-63378668D01*
X11259387Y-63371976D01*
X11256052Y-63364923D01*
X11253423Y-63357578D01*
X11251528Y-63350010D01*
X11250383Y-63342292D01*
X11250000Y-63334500D01*
X11250000Y-63175500D01*
X11250383Y-63167708D01*
X11251528Y-63159990D01*
X11253423Y-63152422D01*
X11256052Y-63145077D01*
X11259387Y-63138024D01*
X11263398Y-63131332D01*
X11268046Y-63125066D01*
X11273285Y-63119285D01*
X11279066Y-63114046D01*
X11285332Y-63109398D01*
X11292024Y-63105387D01*
X11299077Y-63102052D01*
X11306422Y-63099423D01*
X11313990Y-63097528D01*
X11321708Y-63096383D01*
X11329500Y-63096000D01*
X11530500Y-63096000D01*
X11538292Y-63096383D01*
X11538292Y-63096383D01*
G37*
D16*
X11430000Y-63255000D03*
%TD*%
D15*
%TO.C,R1*%
G36*
X14078292Y-62406383D02*
X14086010Y-62407528D01*
X14093578Y-62409423D01*
X14100923Y-62412052D01*
X14107976Y-62415387D01*
X14114668Y-62419398D01*
X14120934Y-62424046D01*
X14126715Y-62429285D01*
X14131954Y-62435066D01*
X14136602Y-62441332D01*
X14140613Y-62448024D01*
X14143948Y-62455077D01*
X14146577Y-62462422D01*
X14148472Y-62469990D01*
X14149617Y-62477708D01*
X14150000Y-62485500D01*
X14150000Y-62644500D01*
X14149617Y-62652292D01*
X14148472Y-62660010D01*
X14146577Y-62667578D01*
X14143948Y-62674923D01*
X14140613Y-62681976D01*
X14136602Y-62688668D01*
X14131954Y-62694934D01*
X14126715Y-62700715D01*
X14120934Y-62705954D01*
X14114668Y-62710602D01*
X14107976Y-62714613D01*
X14100923Y-62717948D01*
X14093578Y-62720577D01*
X14086010Y-62722472D01*
X14078292Y-62723617D01*
X14070500Y-62724000D01*
X13869500Y-62724000D01*
X13861708Y-62723617D01*
X13853990Y-62722472D01*
X13846422Y-62720577D01*
X13839077Y-62717948D01*
X13832024Y-62714613D01*
X13825332Y-62710602D01*
X13819066Y-62705954D01*
X13813285Y-62700715D01*
X13808046Y-62694934D01*
X13803398Y-62688668D01*
X13799387Y-62681976D01*
X13796052Y-62674923D01*
X13793423Y-62667578D01*
X13791528Y-62660010D01*
X13790383Y-62652292D01*
X13790000Y-62644500D01*
X13790000Y-62485500D01*
X13790383Y-62477708D01*
X13791528Y-62469990D01*
X13793423Y-62462422D01*
X13796052Y-62455077D01*
X13799387Y-62448024D01*
X13803398Y-62441332D01*
X13808046Y-62435066D01*
X13813285Y-62429285D01*
X13819066Y-62424046D01*
X13825332Y-62419398D01*
X13832024Y-62415387D01*
X13839077Y-62412052D01*
X13846422Y-62409423D01*
X13853990Y-62407528D01*
X13861708Y-62406383D01*
X13869500Y-62406000D01*
X14070500Y-62406000D01*
X14078292Y-62406383D01*
X14078292Y-62406383D01*
G37*
D16*
X13970000Y-62565000D03*
D15*
G36*
X14078292Y-63096383D02*
X14086010Y-63097528D01*
X14093578Y-63099423D01*
X14100923Y-63102052D01*
X14107976Y-63105387D01*
X14114668Y-63109398D01*
X14120934Y-63114046D01*
X14126715Y-63119285D01*
X14131954Y-63125066D01*
X14136602Y-63131332D01*
X14140613Y-63138024D01*
X14143948Y-63145077D01*
X14146577Y-63152422D01*
X14148472Y-63159990D01*
X14149617Y-63167708D01*
X14150000Y-63175500D01*
X14150000Y-63334500D01*
X14149617Y-63342292D01*
X14148472Y-63350010D01*
X14146577Y-63357578D01*
X14143948Y-63364923D01*
X14140613Y-63371976D01*
X14136602Y-63378668D01*
X14131954Y-63384934D01*
X14126715Y-63390715D01*
X14120934Y-63395954D01*
X14114668Y-63400602D01*
X14107976Y-63404613D01*
X14100923Y-63407948D01*
X14093578Y-63410577D01*
X14086010Y-63412472D01*
X14078292Y-63413617D01*
X14070500Y-63414000D01*
X13869500Y-63414000D01*
X13861708Y-63413617D01*
X13853990Y-63412472D01*
X13846422Y-63410577D01*
X13839077Y-63407948D01*
X13832024Y-63404613D01*
X13825332Y-63400602D01*
X13819066Y-63395954D01*
X13813285Y-63390715D01*
X13808046Y-63384934D01*
X13803398Y-63378668D01*
X13799387Y-63371976D01*
X13796052Y-63364923D01*
X13793423Y-63357578D01*
X13791528Y-63350010D01*
X13790383Y-63342292D01*
X13790000Y-63334500D01*
X13790000Y-63175500D01*
X13790383Y-63167708D01*
X13791528Y-63159990D01*
X13793423Y-63152422D01*
X13796052Y-63145077D01*
X13799387Y-63138024D01*
X13803398Y-63131332D01*
X13808046Y-63125066D01*
X13813285Y-63119285D01*
X13819066Y-63114046D01*
X13825332Y-63109398D01*
X13832024Y-63105387D01*
X13839077Y-63102052D01*
X13846422Y-63099423D01*
X13853990Y-63097528D01*
X13861708Y-63096383D01*
X13869500Y-63096000D01*
X14070500Y-63096000D01*
X14078292Y-63096383D01*
X14078292Y-63096383D01*
G37*
D16*
X13970000Y-63255000D03*
%TD*%
D15*
%TO.C,R2*%
G36*
X22968292Y-66906383D02*
X22976010Y-66907528D01*
X22983578Y-66909423D01*
X22990923Y-66912052D01*
X22997976Y-66915387D01*
X23004668Y-66919398D01*
X23010934Y-66924046D01*
X23016715Y-66929285D01*
X23021954Y-66935066D01*
X23026602Y-66941332D01*
X23030613Y-66948024D01*
X23033948Y-66955077D01*
X23036577Y-66962422D01*
X23038472Y-66969990D01*
X23039617Y-66977708D01*
X23040000Y-66985500D01*
X23040000Y-67144500D01*
X23039617Y-67152292D01*
X23038472Y-67160010D01*
X23036577Y-67167578D01*
X23033948Y-67174923D01*
X23030613Y-67181976D01*
X23026602Y-67188668D01*
X23021954Y-67194934D01*
X23016715Y-67200715D01*
X23010934Y-67205954D01*
X23004668Y-67210602D01*
X22997976Y-67214613D01*
X22990923Y-67217948D01*
X22983578Y-67220577D01*
X22976010Y-67222472D01*
X22968292Y-67223617D01*
X22960500Y-67224000D01*
X22759500Y-67224000D01*
X22751708Y-67223617D01*
X22743990Y-67222472D01*
X22736422Y-67220577D01*
X22729077Y-67217948D01*
X22722024Y-67214613D01*
X22715332Y-67210602D01*
X22709066Y-67205954D01*
X22703285Y-67200715D01*
X22698046Y-67194934D01*
X22693398Y-67188668D01*
X22689387Y-67181976D01*
X22686052Y-67174923D01*
X22683423Y-67167578D01*
X22681528Y-67160010D01*
X22680383Y-67152292D01*
X22680000Y-67144500D01*
X22680000Y-66985500D01*
X22680383Y-66977708D01*
X22681528Y-66969990D01*
X22683423Y-66962422D01*
X22686052Y-66955077D01*
X22689387Y-66948024D01*
X22693398Y-66941332D01*
X22698046Y-66935066D01*
X22703285Y-66929285D01*
X22709066Y-66924046D01*
X22715332Y-66919398D01*
X22722024Y-66915387D01*
X22729077Y-66912052D01*
X22736422Y-66909423D01*
X22743990Y-66907528D01*
X22751708Y-66906383D01*
X22759500Y-66906000D01*
X22960500Y-66906000D01*
X22968292Y-66906383D01*
X22968292Y-66906383D01*
G37*
D16*
X22860000Y-67065000D03*
D15*
G36*
X22968292Y-66216383D02*
X22976010Y-66217528D01*
X22983578Y-66219423D01*
X22990923Y-66222052D01*
X22997976Y-66225387D01*
X23004668Y-66229398D01*
X23010934Y-66234046D01*
X23016715Y-66239285D01*
X23021954Y-66245066D01*
X23026602Y-66251332D01*
X23030613Y-66258024D01*
X23033948Y-66265077D01*
X23036577Y-66272422D01*
X23038472Y-66279990D01*
X23039617Y-66287708D01*
X23040000Y-66295500D01*
X23040000Y-66454500D01*
X23039617Y-66462292D01*
X23038472Y-66470010D01*
X23036577Y-66477578D01*
X23033948Y-66484923D01*
X23030613Y-66491976D01*
X23026602Y-66498668D01*
X23021954Y-66504934D01*
X23016715Y-66510715D01*
X23010934Y-66515954D01*
X23004668Y-66520602D01*
X22997976Y-66524613D01*
X22990923Y-66527948D01*
X22983578Y-66530577D01*
X22976010Y-66532472D01*
X22968292Y-66533617D01*
X22960500Y-66534000D01*
X22759500Y-66534000D01*
X22751708Y-66533617D01*
X22743990Y-66532472D01*
X22736422Y-66530577D01*
X22729077Y-66527948D01*
X22722024Y-66524613D01*
X22715332Y-66520602D01*
X22709066Y-66515954D01*
X22703285Y-66510715D01*
X22698046Y-66504934D01*
X22693398Y-66498668D01*
X22689387Y-66491976D01*
X22686052Y-66484923D01*
X22683423Y-66477578D01*
X22681528Y-66470010D01*
X22680383Y-66462292D01*
X22680000Y-66454500D01*
X22680000Y-66295500D01*
X22680383Y-66287708D01*
X22681528Y-66279990D01*
X22683423Y-66272422D01*
X22686052Y-66265077D01*
X22689387Y-66258024D01*
X22693398Y-66251332D01*
X22698046Y-66245066D01*
X22703285Y-66239285D01*
X22709066Y-66234046D01*
X22715332Y-66229398D01*
X22722024Y-66225387D01*
X22729077Y-66222052D01*
X22736422Y-66219423D01*
X22743990Y-66217528D01*
X22751708Y-66216383D01*
X22759500Y-66216000D01*
X22960500Y-66216000D01*
X22968292Y-66216383D01*
X22968292Y-66216383D01*
G37*
D16*
X22860000Y-66375000D03*
%TD*%
D17*
%TO.C,CPUMUX0*%
X16975000Y-51480000D03*
X16475000Y-51480000D03*
X15975000Y-51480000D03*
X15475000Y-51480000D03*
X15475000Y-54580000D03*
X15975000Y-54580000D03*
X16475000Y-54580000D03*
X16975000Y-54580000D03*
%TD*%
D18*
%TO.C,AVR0*%
X16400000Y-42950000D03*
X16400000Y-42150000D03*
X16400000Y-41350000D03*
X16400000Y-40550000D03*
X16400000Y-39750000D03*
X16400000Y-38950000D03*
X16400000Y-38150000D03*
X16400000Y-37350000D03*
X16400000Y-36550000D03*
X16400000Y-35750000D03*
X16400000Y-34950000D03*
D19*
X14700000Y-33250000D03*
X13900000Y-33250000D03*
X13100000Y-33250000D03*
X12300000Y-33250000D03*
X11500000Y-33250000D03*
X10700000Y-33250000D03*
X9900000Y-33250000D03*
X9100000Y-33250000D03*
X8300000Y-33250000D03*
X7500000Y-33250000D03*
X6700000Y-33250000D03*
D18*
X5000000Y-34950000D03*
X5000000Y-35750000D03*
X5000000Y-36550000D03*
X5000000Y-37350000D03*
X5000000Y-38150000D03*
X5000000Y-38950000D03*
X5000000Y-39750000D03*
X5000000Y-40550000D03*
X5000000Y-41350000D03*
X5000000Y-42150000D03*
X5000000Y-42950000D03*
D19*
X6700000Y-44650000D03*
X7500000Y-44650000D03*
X8300000Y-44650000D03*
X9100000Y-44650000D03*
X9900000Y-44650000D03*
X10700000Y-44650000D03*
X11500000Y-44650000D03*
X12300000Y-44650000D03*
X13100000Y-44650000D03*
X13900000Y-44650000D03*
X14700000Y-44650000D03*
%TD*%
M02*
