%TF.GenerationSoftware,KiCad,Pcbnew,5.0.2-bee76a0~70~ubuntu18.10.1*%
%TF.CreationDate,2019-01-10T16:39:54-07:00*%
%TF.ProjectId,thelio-io-sas,7468656c-696f-42d6-996f-2d7361732e6b,rev?*%
%TF.SameCoordinates,Original*%
%TF.FileFunction,Copper,L4,Inr*%
%TF.FilePolarity,Positive*%
%FSLAX46Y46*%
G04 Gerber Fmt 4.6, Leading zero omitted, Abs format (unit mm)*
G04 Created by KiCad (PCBNEW 5.0.2-bee76a0~70~ubuntu18.10.1) date Thu Jan 10 16:39:54 2019*
%MOMM*%
%LPD*%
G01*
G04 APERTURE LIST*
%TA.AperFunction,NonConductor*%
%ADD10C,0.200000*%
%TD*%
%TA.AperFunction,NonConductor*%
%ADD11C,0.150000*%
%TD*%
%TA.AperFunction,WasherPad*%
%ADD12C,2.600000*%
%TD*%
%TA.AperFunction,ViaPad*%
%ADD13C,0.370000*%
%TD*%
%TA.AperFunction,ViaPad*%
%ADD14O,1.730000X2.030000*%
%TD*%
%TA.AperFunction,ViaPad*%
%ADD15R,1.730000X2.030000*%
%TD*%
%TA.AperFunction,ViaPad*%
%ADD16C,0.400000*%
%TD*%
%TA.AperFunction,ViaPad*%
%ADD17C,0.800000*%
%TD*%
%TA.AperFunction,Conductor*%
%ADD18C,1.250000*%
%TD*%
%TA.AperFunction,Conductor*%
%ADD19C,0.127000*%
%TD*%
G04 APERTURE END LIST*
D10*
X77050000Y-18400000D02*
X77050000Y-53400000D01*
X75450000Y-16800000D02*
G75*
G02X77050000Y-18400000I0J-1600000D01*
G01*
X73850000Y-16800000D02*
X75450000Y-16800000D01*
X73850000Y-55000000D02*
X75450000Y-55000000D01*
X77050000Y-53400000D02*
G75*
G02X75450000Y-55000000I-1600000J0D01*
G01*
X70650000Y0D02*
G75*
G02X73850000Y-3200000I0J-3200000D01*
G01*
D11*
X73850000Y-68600000D02*
G75*
G02X70650000Y-71800000I-3200000J0D01*
G01*
D10*
X73850000Y-16800000D02*
X73850000Y-3200000D01*
X73850000Y-55000000D02*
X73850000Y-68600000D01*
X-3200000Y-18400000D02*
G75*
G02X-1600000Y-16800000I1600000J0D01*
G01*
X0Y-16800000D02*
X-1600000Y-16800000D01*
X0Y-55000000D02*
X-1600000Y-55000000D01*
X-1600000Y-55000000D02*
G75*
G02X-3200000Y-53400000I0J1600000D01*
G01*
X-3200000Y-53400000D02*
X-3200000Y-18400000D01*
X0Y-16800000D02*
X0Y-3200000D01*
X0Y-55000000D02*
X0Y-68600000D01*
X3200000Y0D02*
X70650000Y0D01*
X0Y-3200000D02*
G75*
G02X3200000Y0I3200000J0D01*
G01*
X70650000Y-71800000D02*
X3200000Y-71800000D01*
X3200000Y-71800000D02*
G75*
G02X0Y-68600000I0J3200000D01*
G01*
D12*
%TO.N,*%
%TO.C,U2_0*%
X22635000Y-12560000D03*
X61365000Y-12560000D03*
%TD*%
D13*
%TO.N,/sas0/T1+*%
%TO.C,SAS0*%
X14820000Y-10950000D03*
%TO.N,GND*%
X15520000Y-10200000D03*
%TO.N,/sas0/CLK+*%
X16220000Y-9450000D03*
%TO.N,/sas0/CLK-*%
X14820000Y-8700000D03*
%TO.N,/sas0/T1-*%
X16220000Y-11700000D03*
%TO.N,/sas0/T3+*%
X14820000Y-13200000D03*
%TO.N,GND*%
X15520000Y-12450000D03*
X15520000Y-14700000D03*
%TO.N,/sas0/T3-*%
X16220000Y-13950000D03*
%TO.N,/sas0/RST*%
X12420000Y-9450000D03*
%TO.N,GND*%
X11720000Y-12450000D03*
%TO.N,Net-(SAS0-PadB1)*%
X11020000Y-8700000D03*
%TO.N,/sas0/T0+*%
X11020000Y-10950000D03*
%TO.N,GND*%
X11720000Y-14700000D03*
X11720000Y-10200000D03*
%TO.N,/sas0/T0-*%
X12420000Y-11700000D03*
%TO.N,/sas0/T2-*%
X12420000Y-13950000D03*
%TO.N,/sas0/T2+*%
X11020000Y-13200000D03*
%TO.N,Net-(SAS0-PadC2)*%
X8620000Y-9450000D03*
%TO.N,GND*%
X7920000Y-12450000D03*
%TO.N,/sas0/WAKE*%
X7220000Y-8700000D03*
%TO.N,/sas0/R1+*%
X7220000Y-10950000D03*
%TO.N,GND*%
X7920000Y-14700000D03*
X7920000Y-10200000D03*
%TO.N,/sas0/R1-*%
X8620000Y-11700000D03*
%TO.N,/sas0/R3-*%
X8620000Y-13950000D03*
%TO.N,/sas0/R3+*%
X7220000Y-13200000D03*
%TO.N,/sas0/SDAT*%
X4820000Y-9450000D03*
%TO.N,GND*%
X4120000Y-12450000D03*
%TO.N,/sas0/SCLK*%
X3420000Y-8700000D03*
%TO.N,/sas0/R0+*%
X3420000Y-10950000D03*
%TO.N,GND*%
X4120000Y-14700000D03*
X4120000Y-10200000D03*
%TO.N,/sas0/R0-*%
X4820000Y-11700000D03*
%TO.N,/sas0/R2-*%
X4820000Y-13950000D03*
%TO.N,/sas0/R2+*%
X3420000Y-13200000D03*
%TD*%
D12*
%TO.N,*%
%TO.C,U2_1*%
X22635000Y-28560000D03*
X61365000Y-28560000D03*
%TD*%
D13*
%TO.N,/sas1/T1+*%
%TO.C,SAS1*%
X14820000Y-26950000D03*
%TO.N,GND*%
X15520000Y-26200000D03*
%TO.N,/sas1/CLK+*%
X16220000Y-25450000D03*
%TO.N,/sas1/CLK-*%
X14820000Y-24700000D03*
%TO.N,/sas1/T1-*%
X16220000Y-27700000D03*
%TO.N,/sas1/T3+*%
X14820000Y-29200000D03*
%TO.N,GND*%
X15520000Y-28450000D03*
X15520000Y-30700000D03*
%TO.N,/sas1/T3-*%
X16220000Y-29950000D03*
%TO.N,/sas1/RST*%
X12420000Y-25450000D03*
%TO.N,GND*%
X11720000Y-28450000D03*
%TO.N,Net-(SAS1-PadB1)*%
X11020000Y-24700000D03*
%TO.N,/sas1/T0+*%
X11020000Y-26950000D03*
%TO.N,GND*%
X11720000Y-30700000D03*
X11720000Y-26200000D03*
%TO.N,/sas1/T0-*%
X12420000Y-27700000D03*
%TO.N,/sas1/T2-*%
X12420000Y-29950000D03*
%TO.N,/sas1/T2+*%
X11020000Y-29200000D03*
%TO.N,Net-(SAS1-PadC2)*%
X8620000Y-25450000D03*
%TO.N,GND*%
X7920000Y-28450000D03*
%TO.N,/sas1/WAKE*%
X7220000Y-24700000D03*
%TO.N,/sas1/R1+*%
X7220000Y-26950000D03*
%TO.N,GND*%
X7920000Y-30700000D03*
X7920000Y-26200000D03*
%TO.N,/sas1/R1-*%
X8620000Y-27700000D03*
%TO.N,/sas1/R3-*%
X8620000Y-29950000D03*
%TO.N,/sas1/R3+*%
X7220000Y-29200000D03*
%TO.N,/sas1/SDAT*%
X4820000Y-25450000D03*
%TO.N,GND*%
X4120000Y-28450000D03*
%TO.N,/sas1/SCLK*%
X3420000Y-24700000D03*
%TO.N,/sas1/R0+*%
X3420000Y-26950000D03*
%TO.N,GND*%
X4120000Y-30700000D03*
X4120000Y-26200000D03*
%TO.N,/sas1/R0-*%
X4820000Y-27700000D03*
%TO.N,/sas1/R2-*%
X4820000Y-29950000D03*
%TO.N,/sas1/R2+*%
X3420000Y-29200000D03*
%TD*%
D12*
%TO.N,*%
%TO.C,U2_2*%
X22635000Y-44560000D03*
X61365000Y-44560000D03*
%TD*%
D13*
%TO.N,/sas2/T1+*%
%TO.C,SAS2*%
X14820000Y-42950000D03*
%TO.N,GND*%
X15520000Y-42200000D03*
%TO.N,/sas2/CLK+*%
X16220000Y-41450000D03*
%TO.N,/sas2/CLK-*%
X14820000Y-40700000D03*
%TO.N,/sas2/T1-*%
X16220000Y-43700000D03*
%TO.N,/sas2/T3+*%
X14820000Y-45200000D03*
%TO.N,GND*%
X15520000Y-44450000D03*
X15520000Y-46700000D03*
%TO.N,/sas2/T3-*%
X16220000Y-45950000D03*
%TO.N,/sas2/RST*%
X12420000Y-41450000D03*
%TO.N,GND*%
X11720000Y-44450000D03*
%TO.N,Net-(SAS2-PadB1)*%
X11020000Y-40700000D03*
%TO.N,/sas2/T0+*%
X11020000Y-42950000D03*
%TO.N,GND*%
X11720000Y-46700000D03*
X11720000Y-42200000D03*
%TO.N,/sas2/T0-*%
X12420000Y-43700000D03*
%TO.N,/sas2/T2-*%
X12420000Y-45950000D03*
%TO.N,/sas2/T2+*%
X11020000Y-45200000D03*
%TO.N,Net-(SAS2-PadC2)*%
X8620000Y-41450000D03*
%TO.N,GND*%
X7920000Y-44450000D03*
%TO.N,/sas2/WAKE*%
X7220000Y-40700000D03*
%TO.N,/sas2/R1+*%
X7220000Y-42950000D03*
%TO.N,GND*%
X7920000Y-46700000D03*
X7920000Y-42200000D03*
%TO.N,/sas2/R1-*%
X8620000Y-43700000D03*
%TO.N,/sas2/R3-*%
X8620000Y-45950000D03*
%TO.N,/sas2/R3+*%
X7220000Y-45200000D03*
%TO.N,/sas2/SDAT*%
X4820000Y-41450000D03*
%TO.N,GND*%
X4120000Y-44450000D03*
%TO.N,/sas2/SCLK*%
X3420000Y-40700000D03*
%TO.N,/sas2/R0+*%
X3420000Y-42950000D03*
%TO.N,GND*%
X4120000Y-46700000D03*
X4120000Y-42200000D03*
%TO.N,/sas2/R0-*%
X4820000Y-43700000D03*
%TO.N,/sas2/R2-*%
X4820000Y-45950000D03*
%TO.N,/sas2/R2+*%
X3420000Y-45200000D03*
%TD*%
D12*
%TO.N,*%
%TO.C,U2_3*%
X61365000Y-60560000D03*
X22635000Y-60560000D03*
%TD*%
D13*
%TO.N,/sas3/R2+*%
%TO.C,SAS3*%
X3420000Y-61200000D03*
%TO.N,/sas3/R2-*%
X4820000Y-61950000D03*
%TO.N,/sas3/R0-*%
X4820000Y-59700000D03*
%TO.N,GND*%
X4120000Y-58200000D03*
X4120000Y-62700000D03*
%TO.N,/sas3/R0+*%
X3420000Y-58950000D03*
%TO.N,/sas3/SCLK*%
X3420000Y-56700000D03*
%TO.N,GND*%
X4120000Y-60450000D03*
%TO.N,/sas3/SDAT*%
X4820000Y-57450000D03*
%TO.N,/sas3/R3+*%
X7220000Y-61200000D03*
%TO.N,/sas3/R3-*%
X8620000Y-61950000D03*
%TO.N,/sas3/R1-*%
X8620000Y-59700000D03*
%TO.N,GND*%
X7920000Y-58200000D03*
X7920000Y-62700000D03*
%TO.N,/sas3/R1+*%
X7220000Y-58950000D03*
%TO.N,/sas3/WAKE*%
X7220000Y-56700000D03*
%TO.N,GND*%
X7920000Y-60450000D03*
%TO.N,Net-(SAS3-PadC2)*%
X8620000Y-57450000D03*
%TO.N,/sas3/T2+*%
X11020000Y-61200000D03*
%TO.N,/sas3/T2-*%
X12420000Y-61950000D03*
%TO.N,/sas3/T0-*%
X12420000Y-59700000D03*
%TO.N,GND*%
X11720000Y-58200000D03*
X11720000Y-62700000D03*
%TO.N,/sas3/T0+*%
X11020000Y-58950000D03*
%TO.N,Net-(SAS3-PadB1)*%
X11020000Y-56700000D03*
%TO.N,GND*%
X11720000Y-60450000D03*
%TO.N,/sas3/RST*%
X12420000Y-57450000D03*
%TO.N,/sas3/T3-*%
X16220000Y-61950000D03*
%TO.N,GND*%
X15520000Y-62700000D03*
X15520000Y-60450000D03*
%TO.N,/sas3/T3+*%
X14820000Y-61200000D03*
%TO.N,/sas3/T1-*%
X16220000Y-59700000D03*
%TO.N,/sas3/CLK-*%
X14820000Y-56700000D03*
%TO.N,/sas3/CLK+*%
X16220000Y-57450000D03*
%TO.N,GND*%
X15520000Y-58200000D03*
%TO.N,/sas3/T1+*%
X14820000Y-58950000D03*
%TD*%
D14*
%TO.N,+5V*%
%TO.C,POWER0*%
X60960000Y-67990000D03*
%TO.N,GND*%
X63460000Y-67990000D03*
X65960000Y-67990000D03*
D15*
%TO.N,+12V*%
X68460000Y-67990000D03*
%TD*%
D16*
%TO.N,GND*%
X39320000Y-43500000D03*
X45720000Y-41100000D03*
X32920000Y-41100000D03*
X48120000Y-43500000D03*
X44920000Y-37300000D03*
X25720000Y-37300000D03*
X52920000Y-41100000D03*
X25720000Y-50300000D03*
X45720000Y-43500000D03*
X38520000Y-37300000D03*
X22520000Y-37300000D03*
D17*
X46420000Y-49445000D03*
X45175000Y-49445000D03*
D16*
X40920000Y-43500000D03*
X28920000Y-37300000D03*
X36920000Y-43500000D03*
X52920000Y-43500000D03*
X43320000Y-41100000D03*
D17*
X51525000Y-49445000D03*
D16*
X50520000Y-43500000D03*
X29935000Y-45100000D03*
X55320000Y-43500000D03*
X43320000Y-43500000D03*
X48120000Y-37300000D03*
X9720000Y-50300000D03*
X19320000Y-50300000D03*
X34520000Y-41100000D03*
X6520000Y-37300000D03*
X32920000Y-43500000D03*
D17*
X43905000Y-49445000D03*
X54040000Y-49445000D03*
D16*
X12920000Y-50300000D03*
X48120000Y-41100000D03*
X38520000Y-50300000D03*
X12920000Y-37300000D03*
X57720000Y-41100000D03*
X51320000Y-37300000D03*
X26125000Y-45070000D03*
X34520000Y-43500000D03*
X55320000Y-41100000D03*
X57720000Y-43500000D03*
X50520000Y-41100000D03*
X9720000Y-37300000D03*
X54520000Y-37300000D03*
X33745000Y-45100000D03*
X36920000Y-41100000D03*
X19320000Y-37300000D03*
X57720000Y-37300000D03*
X16120000Y-50300000D03*
X16120000Y-37300000D03*
X41720000Y-37300000D03*
X32120000Y-37300000D03*
X35320000Y-37300000D03*
X32120000Y-50300000D03*
X41720000Y-50300000D03*
X40920000Y-41100000D03*
X22520000Y-50300000D03*
X35320000Y-50300000D03*
X28120000Y-43500000D03*
X6520000Y-50300000D03*
X28920000Y-50300000D03*
X39320000Y-41100000D03*
X30520000Y-43500000D03*
X30520000Y-41100000D03*
X28120000Y-41100000D03*
X39320000Y-27500000D03*
X45720000Y-25100000D03*
X32920000Y-25100000D03*
X48120000Y-27500000D03*
X44920000Y-21300000D03*
X25720000Y-21300000D03*
X52920000Y-25100000D03*
X25720000Y-34300000D03*
X45720000Y-27500000D03*
X38520000Y-21300000D03*
X22520000Y-21300000D03*
D17*
X46420000Y-33445000D03*
X45175000Y-33445000D03*
D16*
X40920000Y-27500000D03*
X28920000Y-21300000D03*
X36920000Y-27500000D03*
X52920000Y-27500000D03*
X43320000Y-25100000D03*
D17*
X51525000Y-33445000D03*
D16*
X50520000Y-27500000D03*
X29935000Y-29100000D03*
X55320000Y-27500000D03*
X43320000Y-27500000D03*
X48120000Y-21300000D03*
X9720000Y-34300000D03*
X19320000Y-34300000D03*
X34520000Y-25100000D03*
X6520000Y-21300000D03*
X32920000Y-27500000D03*
D17*
X43905000Y-33445000D03*
X54040000Y-33445000D03*
D16*
X12920000Y-34300000D03*
X48120000Y-25100000D03*
X38520000Y-34300000D03*
X12920000Y-21300000D03*
X57720000Y-25100000D03*
X51320000Y-21300000D03*
X26125000Y-29070000D03*
X34520000Y-27500000D03*
X55320000Y-25100000D03*
X57720000Y-27500000D03*
X50520000Y-25100000D03*
X9720000Y-21300000D03*
X54520000Y-21300000D03*
X33745000Y-29100000D03*
X36920000Y-25100000D03*
X19320000Y-21300000D03*
X57720000Y-21300000D03*
X16120000Y-34300000D03*
X16120000Y-21300000D03*
X41720000Y-21300000D03*
X32120000Y-21300000D03*
X35320000Y-21300000D03*
X32120000Y-34300000D03*
X41720000Y-34300000D03*
X40920000Y-25100000D03*
X22520000Y-34300000D03*
X35320000Y-34300000D03*
X28120000Y-27500000D03*
X6520000Y-34300000D03*
X28920000Y-34300000D03*
X39320000Y-25100000D03*
X30520000Y-27500000D03*
X30520000Y-25100000D03*
X28120000Y-25100000D03*
X39320000Y-11500000D03*
X45720000Y-9100000D03*
X32920000Y-9100000D03*
X48120000Y-11500000D03*
X44920000Y-5300000D03*
X25720000Y-5300000D03*
X52920000Y-9100000D03*
X25720000Y-18300000D03*
X45720000Y-11500000D03*
X38520000Y-5300000D03*
X22520000Y-5300000D03*
D17*
X46420000Y-17445000D03*
X45175000Y-17445000D03*
D16*
X40920000Y-11500000D03*
X28920000Y-5300000D03*
X36920000Y-11500000D03*
X52920000Y-11500000D03*
X43320000Y-9100000D03*
D17*
X51525000Y-17445000D03*
D16*
X50520000Y-11500000D03*
X29935000Y-13100000D03*
X55320000Y-11500000D03*
X43320000Y-11500000D03*
X48120000Y-5300000D03*
X9720000Y-18300000D03*
X19320000Y-18300000D03*
X34520000Y-9100000D03*
X6520000Y-5300000D03*
X32920000Y-11500000D03*
D17*
X43905000Y-17445000D03*
X54040000Y-17445000D03*
D16*
X12920000Y-18300000D03*
X48120000Y-9100000D03*
X38520000Y-18300000D03*
X12920000Y-5300000D03*
X57720000Y-9100000D03*
X51320000Y-5300000D03*
X26125000Y-13070000D03*
X34520000Y-11500000D03*
X55320000Y-9100000D03*
X57720000Y-11500000D03*
X50520000Y-9100000D03*
X9720000Y-5300000D03*
X54520000Y-5300000D03*
X33745000Y-13100000D03*
X36920000Y-9100000D03*
X19320000Y-5300000D03*
X57720000Y-5300000D03*
X16120000Y-18300000D03*
X16120000Y-5300000D03*
X41720000Y-5300000D03*
X32120000Y-5300000D03*
X35320000Y-5300000D03*
X32120000Y-18300000D03*
X41720000Y-18300000D03*
X40920000Y-9100000D03*
X22520000Y-18300000D03*
X35320000Y-18300000D03*
X28120000Y-11500000D03*
X6520000Y-18300000D03*
X28920000Y-18300000D03*
X39320000Y-9100000D03*
X30520000Y-11500000D03*
X30520000Y-9100000D03*
X28120000Y-9100000D03*
X43320000Y-59500000D03*
X45720000Y-57100000D03*
X39320000Y-59500000D03*
X28120000Y-57100000D03*
X16120000Y-53300000D03*
X16120000Y-66300000D03*
X6520000Y-66300000D03*
X9720000Y-66300000D03*
X12920000Y-66300000D03*
X48120000Y-53300000D03*
X41720000Y-53300000D03*
X28920000Y-53300000D03*
X38520000Y-53300000D03*
X32120000Y-53300000D03*
X35320000Y-53300000D03*
X44920000Y-53300000D03*
X25720000Y-53300000D03*
X22520000Y-53300000D03*
X38520000Y-66300000D03*
X32120000Y-66300000D03*
X41720000Y-66300000D03*
X28920000Y-66300000D03*
X22520000Y-66300000D03*
X35320000Y-66300000D03*
X25720000Y-66300000D03*
X19320000Y-66300000D03*
X6520000Y-53300000D03*
X9720000Y-53300000D03*
X12920000Y-53300000D03*
X19320000Y-53300000D03*
X54520000Y-53300000D03*
X51320000Y-53300000D03*
X57720000Y-53300000D03*
D17*
X43905000Y-65445000D03*
X54040000Y-65445000D03*
X51525000Y-65445000D03*
X46420000Y-65445000D03*
X45175000Y-65445000D03*
D16*
X50520000Y-57100000D03*
X52920000Y-57100000D03*
X55320000Y-57100000D03*
X57720000Y-57100000D03*
X48120000Y-57100000D03*
X43320000Y-57100000D03*
X39320000Y-57100000D03*
X34520000Y-57100000D03*
X32920000Y-57100000D03*
X30520000Y-57100000D03*
X28120000Y-59500000D03*
X30520000Y-59500000D03*
X32920000Y-59500000D03*
X34520000Y-59500000D03*
X36920000Y-59500000D03*
X40920000Y-59500000D03*
X45720000Y-59500000D03*
X48120000Y-59500000D03*
X50520000Y-59500000D03*
X52920000Y-59500000D03*
X55320000Y-59500000D03*
X57720000Y-59500000D03*
X26125000Y-61070000D03*
X29935000Y-61100000D03*
X33745000Y-61100000D03*
X36920000Y-57100000D03*
X40920000Y-57100000D03*
D17*
%TO.N,+12V*%
X55310000Y-49445000D03*
X56580000Y-49445000D03*
X57875000Y-49445000D03*
X55310000Y-33445000D03*
X56580000Y-33445000D03*
X57875000Y-33445000D03*
X55310000Y-17445000D03*
X56580000Y-17445000D03*
X57875000Y-17445000D03*
X57875000Y-65445000D03*
X56580000Y-65445000D03*
X55310000Y-65445000D03*
%TO.N,+5V*%
X48985000Y-49445000D03*
X47715000Y-49420000D03*
X50255000Y-49445000D03*
X48985000Y-33445000D03*
X47715000Y-33420000D03*
X50255000Y-33445000D03*
X48985000Y-17445000D03*
X47715000Y-17420000D03*
X50255000Y-17445000D03*
X47715000Y-65420000D03*
X50255000Y-65445000D03*
X48985000Y-65445000D03*
D16*
%TO.N,/sas3/SDAT*%
X56920000Y-56900000D03*
%TO.N,/sas3/SCLK*%
X56120000Y-56900000D03*
%TO.N,/sas3/R3+*%
X53924284Y-56495716D03*
%TO.N,/sas3/R3-*%
X53515716Y-56904284D03*
%TO.N,/sas3/T3-*%
X52324284Y-56904284D03*
%TO.N,/sas3/T3+*%
X51915716Y-56495716D03*
%TO.N,/sas3/R2+*%
X49124284Y-56495716D03*
%TO.N,/sas3/R2-*%
X48715716Y-56904284D03*
%TO.N,/sas3/T2-*%
X47524284Y-56904284D03*
%TO.N,/sas3/T2+*%
X47115716Y-56495716D03*
%TO.N,/sas3/R1+*%
X44324284Y-56495716D03*
%TO.N,/sas3/R1-*%
X43915716Y-56904284D03*
%TO.N,/sas3/T1-*%
X42724284Y-56904284D03*
%TO.N,/sas3/T1+*%
X42315716Y-56495716D03*
%TO.N,/sas3/R0+*%
X31524284Y-56495716D03*
%TO.N,/sas3/R0-*%
X31115716Y-56904284D03*
%TO.N,/sas3/T0-*%
X29924284Y-56904284D03*
%TO.N,/sas3/T0+*%
X29515716Y-56495716D03*
%TO.N,/sas0/SDAT*%
X56920000Y-8900000D03*
%TO.N,/sas0/SCLK*%
X56120000Y-8900000D03*
%TO.N,/sas0/R3+*%
X53924284Y-8495716D03*
%TO.N,/sas0/R3-*%
X53515716Y-8904284D03*
%TO.N,/sas0/T3-*%
X52324284Y-8904284D03*
%TO.N,/sas0/T3+*%
X51915716Y-8495716D03*
%TO.N,/sas0/R2+*%
X49124284Y-8495716D03*
%TO.N,/sas0/R2-*%
X48715716Y-8904284D03*
%TO.N,/sas0/T2-*%
X47524284Y-8904284D03*
%TO.N,/sas0/T2+*%
X47115716Y-8495716D03*
%TO.N,/sas0/R1+*%
X44324284Y-8495716D03*
%TO.N,/sas0/R1-*%
X43915716Y-8904284D03*
%TO.N,/sas0/T1-*%
X42724284Y-8904284D03*
%TO.N,/sas0/T1+*%
X42315716Y-8495716D03*
%TO.N,/sas0/R0+*%
X31524284Y-8495716D03*
%TO.N,/sas0/R0-*%
X31115716Y-8904284D03*
%TO.N,/sas0/T0-*%
X29924284Y-8904284D03*
%TO.N,/sas0/T0+*%
X29515716Y-8495716D03*
%TO.N,/sas1/SDAT*%
X56920000Y-24900000D03*
%TO.N,/sas1/SCLK*%
X56120000Y-24900000D03*
%TO.N,/sas1/R3+*%
X53924284Y-24495716D03*
%TO.N,/sas1/R3-*%
X53515716Y-24904284D03*
%TO.N,/sas1/T3-*%
X52324284Y-24904284D03*
%TO.N,/sas1/T3+*%
X51915716Y-24495716D03*
%TO.N,/sas1/R2+*%
X49124284Y-24495716D03*
%TO.N,/sas1/R2-*%
X48715716Y-24904284D03*
%TO.N,/sas1/T2-*%
X47524284Y-24904284D03*
%TO.N,/sas1/T2+*%
X47115716Y-24495716D03*
%TO.N,/sas1/R1+*%
X44324284Y-24495716D03*
%TO.N,/sas1/R1-*%
X43915716Y-24904284D03*
%TO.N,/sas1/T1-*%
X42724284Y-24904284D03*
%TO.N,/sas1/T1+*%
X42315716Y-24495716D03*
%TO.N,/sas1/R0+*%
X31524284Y-24495716D03*
%TO.N,/sas1/R0-*%
X31115716Y-24904284D03*
%TO.N,/sas1/T0-*%
X29924284Y-24904284D03*
%TO.N,/sas1/T0+*%
X29515716Y-24495716D03*
%TO.N,/sas2/SDAT*%
X56920000Y-40900000D03*
%TO.N,/sas2/SCLK*%
X56120000Y-40900000D03*
%TO.N,/sas2/R3+*%
X53924284Y-40495716D03*
%TO.N,/sas2/R3-*%
X53515716Y-40904284D03*
%TO.N,/sas2/T3-*%
X52324284Y-40904284D03*
%TO.N,/sas2/T3+*%
X51915716Y-40495716D03*
%TO.N,/sas2/R2+*%
X49124284Y-40495716D03*
%TO.N,/sas2/R2-*%
X48715716Y-40904284D03*
%TO.N,/sas2/T2-*%
X47524284Y-40904284D03*
%TO.N,/sas2/T2+*%
X47115716Y-40495716D03*
%TO.N,/sas2/R1+*%
X44324284Y-40495716D03*
%TO.N,/sas2/R1-*%
X43915716Y-40904284D03*
%TO.N,/sas2/T1-*%
X42724284Y-40904284D03*
%TO.N,/sas2/T1+*%
X42315716Y-40495716D03*
%TO.N,/sas2/R0+*%
X31524284Y-40495716D03*
%TO.N,/sas2/R0-*%
X31115716Y-40904284D03*
%TO.N,/sas2/T0-*%
X29924284Y-40904284D03*
%TO.N,/sas2/T0+*%
X29515716Y-40495716D03*
%TD*%
D18*
%TO.N,+5V*%
X48985000Y-66715000D02*
X47715000Y-65445000D01*
X48985000Y-66715000D02*
X50255000Y-65445000D01*
X48985000Y-65445000D02*
X48985000Y-66715000D01*
X48985000Y-50715000D02*
X50255000Y-51985000D01*
X48985000Y-50715000D02*
X47715000Y-49445000D01*
X48985000Y-50715000D02*
X50255000Y-49445000D01*
X65025000Y-51985000D02*
X66040000Y-53000000D01*
X48985000Y-49445000D02*
X48985000Y-50715000D01*
X50255000Y-51985000D02*
X65025000Y-51985000D01*
X48985000Y-34715000D02*
X50255000Y-35985000D01*
X48985000Y-34715000D02*
X47715000Y-33445000D01*
X48985000Y-34715000D02*
X50255000Y-33445000D01*
X65025000Y-35985000D02*
X66040000Y-37000000D01*
X48985000Y-33445000D02*
X48985000Y-34715000D01*
X50255000Y-35985000D02*
X65025000Y-35985000D01*
X48985000Y-17445000D02*
X48985000Y-18715000D01*
X48985000Y-18715000D02*
X47715000Y-17445000D01*
X48985000Y-18715000D02*
X50255000Y-17445000D01*
X48985000Y-18715000D02*
X50255000Y-19985000D01*
X60960000Y-67990000D02*
X60960000Y-65450000D01*
X60960000Y-65450000D02*
X66040000Y-60370000D01*
X66040000Y-60370000D02*
X66040000Y-21000000D01*
X65025000Y-19985000D02*
X66040000Y-21000000D01*
X50255000Y-19985000D02*
X65025000Y-19985000D01*
X50260000Y-67990000D02*
X60960000Y-67990000D01*
X48985000Y-66715000D02*
X50260000Y-67990000D01*
D19*
%TO.N,/sas3/R3+*%
X44767600Y-56636872D02*
X44767600Y-59436872D01*
X45856872Y-55547600D02*
X44767600Y-56636872D01*
X53731243Y-56495716D02*
X52783127Y-55547600D01*
X52783127Y-55547600D02*
X45856872Y-55547600D01*
X53924284Y-56495716D02*
X53731243Y-56495716D01*
X10272400Y-62636872D02*
X10272400Y-61836872D01*
X9635528Y-61200000D02*
X7220000Y-61200000D01*
X10272400Y-61836872D02*
X9635528Y-61200000D01*
X44767600Y-59436872D02*
X40456872Y-63747600D01*
X11383128Y-63747600D02*
X10272400Y-62636872D01*
X40456872Y-63747600D02*
X11383128Y-63747600D01*
%TO.N,/sas3/R3-*%
X52656873Y-55852400D02*
X53515716Y-56711243D01*
X17181000Y-64179400D02*
X17435000Y-64179400D01*
X17054000Y-64052400D02*
X17181000Y-64179400D01*
X16800000Y-64052400D02*
X17054000Y-64052400D01*
X16673000Y-64179400D02*
X16800000Y-64052400D01*
X11720000Y-64052400D02*
X11847000Y-64179400D01*
X11256872Y-64052400D02*
X11720000Y-64052400D01*
X16038000Y-64052400D02*
X16292000Y-64052400D01*
X15911000Y-64179400D02*
X16038000Y-64052400D01*
X15657000Y-64179400D02*
X15911000Y-64179400D01*
X23150000Y-64052400D02*
X23277000Y-64179400D01*
X15530000Y-64052400D02*
X15657000Y-64179400D01*
X14387000Y-64179400D02*
X14514000Y-64052400D01*
X22896000Y-64052400D02*
X23150000Y-64052400D01*
X15276000Y-64052400D02*
X15530000Y-64052400D01*
X14133000Y-64179400D02*
X14387000Y-64179400D01*
X22769000Y-64179400D02*
X22896000Y-64052400D01*
X14768000Y-64052400D02*
X14895000Y-64179400D01*
X53515716Y-56711243D02*
X53515716Y-56904284D01*
X40583128Y-64052400D02*
X45072400Y-59563128D01*
X14514000Y-64052400D02*
X14768000Y-64052400D01*
X13625000Y-64179400D02*
X13752000Y-64052400D01*
X20229000Y-64179400D02*
X20483000Y-64179400D01*
X9967600Y-62763128D02*
X11256872Y-64052400D01*
X13244000Y-64052400D02*
X13371000Y-64179400D01*
X23912000Y-64052400D02*
X24039000Y-64179400D01*
X9065200Y-61504800D02*
X9509272Y-61504800D01*
X19848000Y-64052400D02*
X20102000Y-64052400D01*
X16419000Y-64179400D02*
X16673000Y-64179400D01*
X9509272Y-61504800D02*
X9967600Y-61963128D01*
X18324000Y-64052400D02*
X18578000Y-64052400D01*
X14895000Y-64179400D02*
X15149000Y-64179400D01*
X22388000Y-64052400D02*
X22515000Y-64179400D01*
X9967600Y-61963128D02*
X9967600Y-62763128D01*
X11847000Y-64179400D02*
X12101000Y-64179400D01*
X13752000Y-64052400D02*
X14006000Y-64052400D01*
X15149000Y-64179400D02*
X15276000Y-64052400D01*
X14006000Y-64052400D02*
X14133000Y-64179400D01*
X22515000Y-64179400D02*
X22769000Y-64179400D01*
X8620000Y-61950000D02*
X9065200Y-61504800D01*
X12101000Y-64179400D02*
X12228000Y-64052400D01*
X18705000Y-64179400D02*
X18959000Y-64179400D01*
X16292000Y-64052400D02*
X16419000Y-64179400D01*
X13371000Y-64179400D02*
X13625000Y-64179400D01*
X20102000Y-64052400D02*
X20229000Y-64179400D01*
X24039000Y-64179400D02*
X24293000Y-64179400D01*
X12609000Y-64179400D02*
X12863000Y-64179400D01*
X12228000Y-64052400D02*
X12482000Y-64052400D01*
X21372000Y-64052400D02*
X21626000Y-64052400D01*
X12863000Y-64179400D02*
X12990000Y-64052400D01*
X19467000Y-64179400D02*
X19721000Y-64179400D01*
X19721000Y-64179400D02*
X19848000Y-64052400D01*
X17435000Y-64179400D02*
X17562000Y-64052400D01*
X17562000Y-64052400D02*
X17816000Y-64052400D01*
X12990000Y-64052400D02*
X13244000Y-64052400D01*
X45983128Y-55852400D02*
X52656873Y-55852400D01*
X17816000Y-64052400D02*
X17943000Y-64179400D01*
X17943000Y-64179400D02*
X18197000Y-64179400D01*
X18197000Y-64179400D02*
X18324000Y-64052400D01*
X24293000Y-64179400D02*
X24420000Y-64052400D01*
X18578000Y-64052400D02*
X18705000Y-64179400D01*
X18959000Y-64179400D02*
X19086000Y-64052400D01*
X19086000Y-64052400D02*
X19340000Y-64052400D01*
X19340000Y-64052400D02*
X19467000Y-64179400D01*
X20483000Y-64179400D02*
X20610000Y-64052400D01*
X20610000Y-64052400D02*
X20864000Y-64052400D01*
X45072400Y-59563128D02*
X45072400Y-56763128D01*
X20864000Y-64052400D02*
X20991000Y-64179400D01*
X20991000Y-64179400D02*
X21245000Y-64179400D01*
X21245000Y-64179400D02*
X21372000Y-64052400D01*
X21626000Y-64052400D02*
X21753000Y-64179400D01*
X21753000Y-64179400D02*
X22007000Y-64179400D01*
X22007000Y-64179400D02*
X22134000Y-64052400D01*
X22134000Y-64052400D02*
X22388000Y-64052400D01*
X23277000Y-64179400D02*
X23531000Y-64179400D01*
X23531000Y-64179400D02*
X23658000Y-64052400D01*
X23658000Y-64052400D02*
X23912000Y-64052400D01*
X12482000Y-64052400D02*
X12609000Y-64179400D01*
X24420000Y-64052400D02*
X40583128Y-64052400D01*
X45072400Y-56763128D02*
X45983128Y-55852400D01*
%TO.N,/sas3/R2+*%
X49124284Y-59911244D02*
X44783128Y-64252400D01*
X49124284Y-56495716D02*
X49124284Y-59911244D01*
X44783128Y-64252400D02*
X42783128Y-64252400D01*
X42783128Y-64252400D02*
X41383128Y-65652400D01*
X7872400Y-65652400D02*
X3420000Y-61200000D01*
X41383128Y-65652400D02*
X7872400Y-65652400D01*
%TO.N,/sas3/R2-*%
X44656872Y-63947600D02*
X48819484Y-59784988D01*
X42656872Y-63947600D02*
X44656872Y-63947600D01*
X28459000Y-65220600D02*
X28713000Y-65220600D01*
X27316000Y-65347600D02*
X27570000Y-65347600D01*
X27189000Y-65220600D02*
X27316000Y-65347600D01*
X26935000Y-65220600D02*
X27189000Y-65220600D01*
X26427000Y-65220600D02*
X26554000Y-65347600D01*
X25284000Y-65347600D02*
X25411000Y-65220600D01*
X25030000Y-65347600D02*
X25284000Y-65347600D01*
X24649000Y-65220600D02*
X24903000Y-65220600D01*
X24522000Y-65347600D02*
X24649000Y-65220600D01*
X24268000Y-65347600D02*
X24522000Y-65347600D01*
X24141000Y-65220600D02*
X24268000Y-65347600D01*
X23887000Y-65220600D02*
X24141000Y-65220600D01*
X23506000Y-65347600D02*
X23760000Y-65347600D01*
X23379000Y-65220600D02*
X23506000Y-65347600D01*
X22744000Y-65347600D02*
X22998000Y-65347600D01*
X13981000Y-65220600D02*
X14235000Y-65220600D01*
X27697000Y-65220600D02*
X27951000Y-65220600D01*
X13219000Y-65220600D02*
X13473000Y-65220600D01*
X23125000Y-65220600D02*
X23379000Y-65220600D01*
X20712000Y-65347600D02*
X20839000Y-65220600D01*
X27570000Y-65347600D02*
X27697000Y-65220600D01*
X13092000Y-65347600D02*
X13219000Y-65220600D01*
X22998000Y-65347600D02*
X23125000Y-65220600D01*
X20458000Y-65347600D02*
X20712000Y-65347600D01*
X12838000Y-65347600D02*
X13092000Y-65347600D01*
X11314000Y-65347600D02*
X11568000Y-65347600D01*
X20331000Y-65220600D02*
X20458000Y-65347600D01*
X12711000Y-65220600D02*
X12838000Y-65347600D01*
X20077000Y-65220600D02*
X20331000Y-65220600D01*
X12457000Y-65220600D02*
X12711000Y-65220600D01*
X19950000Y-65347600D02*
X20077000Y-65220600D01*
X12076000Y-65347600D02*
X12330000Y-65347600D01*
X25411000Y-65220600D02*
X25665000Y-65220600D01*
X11949000Y-65220600D02*
X12076000Y-65347600D01*
X8520000Y-65347600D02*
X8647000Y-65220600D01*
X28840000Y-65347600D02*
X41256872Y-65347600D01*
X14362000Y-65347600D02*
X14616000Y-65347600D01*
X11695000Y-65220600D02*
X11949000Y-65220600D01*
X9790000Y-65347600D02*
X10044000Y-65347600D01*
X11568000Y-65347600D02*
X11695000Y-65220600D01*
X20839000Y-65220600D02*
X21093000Y-65220600D01*
X26173000Y-65220600D02*
X26427000Y-65220600D01*
X10933000Y-65220600D02*
X11187000Y-65220600D01*
X16648000Y-65347600D02*
X16902000Y-65347600D01*
X4820000Y-61950000D02*
X4820000Y-62168947D01*
X11187000Y-65220600D02*
X11314000Y-65347600D01*
X15124000Y-65347600D02*
X15378000Y-65347600D01*
X26808000Y-65347600D02*
X26935000Y-65220600D01*
X22617000Y-65220600D02*
X22744000Y-65347600D01*
X25665000Y-65220600D02*
X25792000Y-65347600D01*
X10425000Y-65220600D02*
X10552000Y-65347600D01*
X8901000Y-65220600D02*
X9028000Y-65347600D01*
X16140000Y-65347600D02*
X16267000Y-65220600D01*
X28332000Y-65347600D02*
X28459000Y-65220600D01*
X13854000Y-65347600D02*
X13981000Y-65220600D01*
X12330000Y-65347600D02*
X12457000Y-65220600D01*
X28713000Y-65220600D02*
X28840000Y-65347600D01*
X14235000Y-65220600D02*
X14362000Y-65347600D01*
X8647000Y-65220600D02*
X8901000Y-65220600D01*
X9028000Y-65347600D02*
X9282000Y-65347600D01*
X17791000Y-65220600D02*
X18045000Y-65220600D01*
X26046000Y-65347600D02*
X26173000Y-65220600D01*
X10806000Y-65347600D02*
X10933000Y-65220600D01*
X16521000Y-65220600D02*
X16648000Y-65347600D01*
X14616000Y-65347600D02*
X14743000Y-65220600D01*
X23760000Y-65347600D02*
X23887000Y-65220600D01*
X4820000Y-62168947D02*
X7998653Y-65347600D01*
X27951000Y-65220600D02*
X28078000Y-65347600D01*
X13473000Y-65220600D02*
X13600000Y-65347600D01*
X9282000Y-65347600D02*
X9409000Y-65220600D01*
X9409000Y-65220600D02*
X9663000Y-65220600D01*
X28078000Y-65347600D02*
X28332000Y-65347600D01*
X7998653Y-65347600D02*
X8520000Y-65347600D01*
X13600000Y-65347600D02*
X13854000Y-65347600D01*
X25792000Y-65347600D02*
X26046000Y-65347600D01*
X10552000Y-65347600D02*
X10806000Y-65347600D01*
X16267000Y-65220600D02*
X16521000Y-65220600D01*
X14743000Y-65220600D02*
X14997000Y-65220600D01*
X48819484Y-59784988D02*
X48819484Y-57008052D01*
X9663000Y-65220600D02*
X9790000Y-65347600D01*
X14997000Y-65220600D02*
X15124000Y-65347600D01*
X15378000Y-65347600D02*
X15505000Y-65220600D01*
X15505000Y-65220600D02*
X15759000Y-65220600D01*
X15759000Y-65220600D02*
X15886000Y-65347600D01*
X24903000Y-65220600D02*
X25030000Y-65347600D01*
X21855000Y-65220600D02*
X21982000Y-65347600D01*
X15886000Y-65347600D02*
X16140000Y-65347600D01*
X16902000Y-65347600D02*
X17029000Y-65220600D01*
X17029000Y-65220600D02*
X17283000Y-65220600D01*
X17283000Y-65220600D02*
X17410000Y-65347600D01*
X17410000Y-65347600D02*
X17664000Y-65347600D01*
X17664000Y-65347600D02*
X17791000Y-65220600D01*
X21601000Y-65220600D02*
X21855000Y-65220600D01*
X41256872Y-65347600D02*
X42656872Y-63947600D01*
X18045000Y-65220600D02*
X18172000Y-65347600D01*
X18172000Y-65347600D02*
X18426000Y-65347600D01*
X18426000Y-65347600D02*
X18553000Y-65220600D01*
X48819484Y-57008052D02*
X48715716Y-56904284D01*
X18553000Y-65220600D02*
X18807000Y-65220600D01*
X18807000Y-65220600D02*
X18934000Y-65347600D01*
X18934000Y-65347600D02*
X19188000Y-65347600D01*
X19188000Y-65347600D02*
X19315000Y-65220600D01*
X19315000Y-65220600D02*
X19569000Y-65220600D01*
X19569000Y-65220600D02*
X19696000Y-65347600D01*
X19696000Y-65347600D02*
X19950000Y-65347600D01*
X10044000Y-65347600D02*
X10171000Y-65220600D01*
X21093000Y-65220600D02*
X21220000Y-65347600D01*
X10171000Y-65220600D02*
X10425000Y-65220600D01*
X21220000Y-65347600D02*
X21474000Y-65347600D01*
X21474000Y-65347600D02*
X21601000Y-65220600D01*
X21982000Y-65347600D02*
X22236000Y-65347600D01*
X22236000Y-65347600D02*
X22363000Y-65220600D01*
X26554000Y-65347600D02*
X26808000Y-65347600D01*
X22363000Y-65220600D02*
X22617000Y-65220600D01*
%TO.N,/sas3/R1+*%
X44131243Y-56495716D02*
X43183127Y-55547600D01*
X44324284Y-56495716D02*
X44131243Y-56495716D01*
X34656872Y-58147600D02*
X19383128Y-58147600D01*
X43183127Y-55547600D02*
X37256872Y-55547600D01*
X19383128Y-58147600D02*
X16583128Y-55347600D01*
X37256872Y-55547600D02*
X34656872Y-58147600D01*
X16583128Y-55347600D02*
X10856872Y-55347600D01*
X10856872Y-55347600D02*
X9567600Y-56636872D01*
X8404473Y-58950000D02*
X7220000Y-58950000D01*
X9567600Y-57786873D02*
X8404473Y-58950000D01*
X9567600Y-56636872D02*
X9567600Y-57786873D01*
%TO.N,/sas3/R1-*%
X43056873Y-55852400D02*
X43915716Y-56711243D01*
X37383128Y-55852400D02*
X43056873Y-55852400D01*
X30134000Y-58452400D02*
X34783128Y-58452400D01*
X30007000Y-58579400D02*
X30134000Y-58452400D01*
X29245000Y-58579400D02*
X29372000Y-58452400D01*
X28864000Y-58452400D02*
X28991000Y-58579400D01*
X28483000Y-58579400D02*
X28610000Y-58452400D01*
X28229000Y-58579400D02*
X28483000Y-58579400D01*
X28102000Y-58452400D02*
X28229000Y-58579400D01*
X27848000Y-58452400D02*
X28102000Y-58452400D01*
X27721000Y-58579400D02*
X27848000Y-58452400D01*
X27086000Y-58452400D02*
X27340000Y-58452400D01*
X26959000Y-58579400D02*
X27086000Y-58452400D01*
X26578000Y-58452400D02*
X26705000Y-58579400D01*
X25816000Y-58452400D02*
X25943000Y-58579400D01*
X25562000Y-58452400D02*
X25816000Y-58452400D01*
X25181000Y-58579400D02*
X25435000Y-58579400D01*
X26197000Y-58579400D02*
X26324000Y-58452400D01*
X21244000Y-58452400D02*
X21371000Y-58579400D01*
X20482000Y-58452400D02*
X20609000Y-58579400D01*
X26705000Y-58579400D02*
X26959000Y-58579400D01*
X9872400Y-57913127D02*
X9872400Y-56763128D01*
X29372000Y-58452400D02*
X29626000Y-58452400D01*
X22006000Y-58452400D02*
X22133000Y-58579400D01*
X25054000Y-58452400D02*
X25181000Y-58579400D01*
X20863000Y-58579400D02*
X20990000Y-58452400D01*
X20228000Y-58452400D02*
X20482000Y-58452400D01*
X19847000Y-58579400D02*
X20101000Y-58579400D01*
X25943000Y-58579400D02*
X26197000Y-58579400D01*
X20990000Y-58452400D02*
X21244000Y-58452400D01*
X43915716Y-56711243D02*
X43915716Y-56904284D01*
X9872400Y-56763128D02*
X10983128Y-55652400D01*
X21752000Y-58452400D02*
X22006000Y-58452400D01*
X24800000Y-58452400D02*
X25054000Y-58452400D01*
X19720000Y-58452400D02*
X19847000Y-58579400D01*
X19256872Y-58452400D02*
X19720000Y-58452400D01*
X34783128Y-58452400D02*
X37383128Y-55852400D01*
X28610000Y-58452400D02*
X28864000Y-58452400D01*
X8620000Y-59700000D02*
X8620000Y-59165527D01*
X25435000Y-58579400D02*
X25562000Y-58452400D01*
X8620000Y-59165527D02*
X9872400Y-57913127D01*
X26324000Y-58452400D02*
X26578000Y-58452400D01*
X21371000Y-58579400D02*
X21625000Y-58579400D01*
X27467000Y-58579400D02*
X27721000Y-58579400D01*
X10983128Y-55652400D02*
X16456872Y-55652400D01*
X24292000Y-58452400D02*
X24419000Y-58579400D01*
X20609000Y-58579400D02*
X20863000Y-58579400D01*
X27340000Y-58452400D02*
X27467000Y-58579400D01*
X20101000Y-58579400D02*
X20228000Y-58452400D01*
X23657000Y-58579400D02*
X23911000Y-58579400D01*
X29626000Y-58452400D02*
X29753000Y-58579400D01*
X22133000Y-58579400D02*
X22387000Y-58579400D01*
X16456872Y-55652400D02*
X19256872Y-58452400D01*
X29753000Y-58579400D02*
X30007000Y-58579400D01*
X22387000Y-58579400D02*
X22514000Y-58452400D01*
X28991000Y-58579400D02*
X29245000Y-58579400D01*
X22514000Y-58452400D02*
X22768000Y-58452400D01*
X23530000Y-58452400D02*
X23657000Y-58579400D01*
X22768000Y-58452400D02*
X22895000Y-58579400D01*
X22895000Y-58579400D02*
X23149000Y-58579400D01*
X23149000Y-58579400D02*
X23276000Y-58452400D01*
X23276000Y-58452400D02*
X23530000Y-58452400D01*
X23911000Y-58579400D02*
X24038000Y-58452400D01*
X21625000Y-58579400D02*
X21752000Y-58452400D01*
X24038000Y-58452400D02*
X24292000Y-58452400D01*
X24419000Y-58579400D02*
X24673000Y-58579400D01*
X24673000Y-58579400D02*
X24800000Y-58452400D01*
%TO.N,/sas3/R0+*%
X4604473Y-58950000D02*
X3420000Y-58950000D01*
X5767600Y-56436872D02*
X5767600Y-57786873D01*
X5767600Y-57786873D02*
X4604473Y-58950000D01*
X28983127Y-54147600D02*
X8056872Y-54147600D01*
X8056872Y-54147600D02*
X5767600Y-56436872D01*
X31524284Y-56495716D02*
X31331243Y-56495716D01*
X31331243Y-56495716D02*
X28983127Y-54147600D01*
%TO.N,/sas3/R0-*%
X18934000Y-54452400D02*
X28856873Y-54452400D01*
X18426000Y-54452400D02*
X18553000Y-54579400D01*
X18172000Y-54452400D02*
X18426000Y-54452400D01*
X18045000Y-54579400D02*
X18172000Y-54452400D01*
X17791000Y-54579400D02*
X18045000Y-54579400D01*
X17664000Y-54452400D02*
X17791000Y-54579400D01*
X17410000Y-54452400D02*
X17664000Y-54452400D01*
X17283000Y-54579400D02*
X17410000Y-54452400D01*
X17029000Y-54579400D02*
X17283000Y-54579400D01*
X16902000Y-54452400D02*
X17029000Y-54579400D01*
X28856873Y-54452400D02*
X31115716Y-56711243D01*
X16648000Y-54452400D02*
X16902000Y-54452400D01*
X16521000Y-54579400D02*
X16648000Y-54452400D01*
X16267000Y-54579400D02*
X16521000Y-54579400D01*
X16140000Y-54452400D02*
X16267000Y-54579400D01*
X15886000Y-54452400D02*
X16140000Y-54452400D01*
X15759000Y-54579400D02*
X15886000Y-54452400D01*
X15378000Y-54452400D02*
X15505000Y-54579400D01*
X15124000Y-54452400D02*
X15378000Y-54452400D01*
X14997000Y-54579400D02*
X15124000Y-54452400D01*
X14743000Y-54579400D02*
X14997000Y-54579400D01*
X14616000Y-54452400D02*
X14743000Y-54579400D01*
X14362000Y-54452400D02*
X14616000Y-54452400D01*
X10425000Y-54579400D02*
X10552000Y-54452400D01*
X10806000Y-54452400D02*
X10933000Y-54579400D01*
X11187000Y-54579400D02*
X11314000Y-54452400D01*
X12076000Y-54452400D02*
X12330000Y-54452400D01*
X18807000Y-54579400D02*
X18934000Y-54452400D01*
X10044000Y-54452400D02*
X10171000Y-54579400D01*
X4820000Y-59165527D02*
X6072400Y-57913127D01*
X9409000Y-54579400D02*
X9663000Y-54579400D01*
X14235000Y-54579400D02*
X14362000Y-54452400D01*
X9028000Y-54452400D02*
X9282000Y-54452400D01*
X8901000Y-54579400D02*
X9028000Y-54452400D01*
X18553000Y-54579400D02*
X18807000Y-54579400D01*
X9790000Y-54452400D02*
X10044000Y-54452400D01*
X9282000Y-54452400D02*
X9409000Y-54579400D01*
X9663000Y-54579400D02*
X9790000Y-54452400D01*
X10171000Y-54579400D02*
X10425000Y-54579400D01*
X10933000Y-54579400D02*
X11187000Y-54579400D01*
X11949000Y-54579400D02*
X12076000Y-54452400D01*
X15505000Y-54579400D02*
X15759000Y-54579400D01*
X8647000Y-54579400D02*
X8901000Y-54579400D01*
X6072400Y-57913127D02*
X6072400Y-56563128D01*
X6072400Y-56563128D02*
X8183128Y-54452400D01*
X11695000Y-54579400D02*
X11949000Y-54579400D01*
X8520000Y-54452400D02*
X8647000Y-54579400D01*
X13473000Y-54579400D02*
X13600000Y-54452400D01*
X10552000Y-54452400D02*
X10806000Y-54452400D01*
X31115716Y-56711243D02*
X31115716Y-56904284D01*
X11314000Y-54452400D02*
X11568000Y-54452400D01*
X12330000Y-54452400D02*
X12457000Y-54579400D01*
X12457000Y-54579400D02*
X12711000Y-54579400D01*
X8183128Y-54452400D02*
X8520000Y-54452400D01*
X12711000Y-54579400D02*
X12838000Y-54452400D01*
X11568000Y-54452400D02*
X11695000Y-54579400D01*
X12838000Y-54452400D02*
X13092000Y-54452400D01*
X13092000Y-54452400D02*
X13219000Y-54579400D01*
X13219000Y-54579400D02*
X13473000Y-54579400D01*
X13600000Y-54452400D02*
X13854000Y-54452400D01*
X13854000Y-54452400D02*
X13981000Y-54579400D01*
X4820000Y-59700000D02*
X4820000Y-59165527D01*
X13981000Y-54579400D02*
X14235000Y-54579400D01*
%TO.N,/sas0/R3+*%
X10272400Y-13836872D02*
X9635528Y-13200000D01*
X44767600Y-8636872D02*
X44767600Y-11436872D01*
X45856872Y-7547600D02*
X44767600Y-8636872D01*
X52783127Y-7547600D02*
X45856872Y-7547600D01*
X10272400Y-14636872D02*
X10272400Y-13836872D01*
X53731243Y-8495716D02*
X52783127Y-7547600D01*
X9635528Y-13200000D02*
X7220000Y-13200000D01*
X40456872Y-15747600D02*
X11383128Y-15747600D01*
X53924284Y-8495716D02*
X53731243Y-8495716D01*
X44767600Y-11436872D02*
X40456872Y-15747600D01*
X11383128Y-15747600D02*
X10272400Y-14636872D01*
%TO.N,/sas0/R3-*%
X16800000Y-16052400D02*
X17054000Y-16052400D01*
X17054000Y-16052400D02*
X17181000Y-16179400D01*
X16673000Y-16179400D02*
X16800000Y-16052400D01*
X11720000Y-16052400D02*
X11847000Y-16179400D01*
X52656873Y-7852400D02*
X53515716Y-8711243D01*
X17181000Y-16179400D02*
X17435000Y-16179400D01*
X11256872Y-16052400D02*
X11720000Y-16052400D01*
X16038000Y-16052400D02*
X16292000Y-16052400D01*
X15911000Y-16179400D02*
X16038000Y-16052400D01*
X15657000Y-16179400D02*
X15911000Y-16179400D01*
X23150000Y-16052400D02*
X23277000Y-16179400D01*
X15530000Y-16052400D02*
X15657000Y-16179400D01*
X14387000Y-16179400D02*
X14514000Y-16052400D01*
X22896000Y-16052400D02*
X23150000Y-16052400D01*
X15276000Y-16052400D02*
X15530000Y-16052400D01*
X14133000Y-16179400D02*
X14387000Y-16179400D01*
X22769000Y-16179400D02*
X22896000Y-16052400D01*
X14768000Y-16052400D02*
X14895000Y-16179400D01*
X53515716Y-8711243D02*
X53515716Y-8904284D01*
X40583128Y-16052400D02*
X45072400Y-11563128D01*
X14514000Y-16052400D02*
X14768000Y-16052400D01*
X17562000Y-16052400D02*
X17816000Y-16052400D01*
X12990000Y-16052400D02*
X13244000Y-16052400D01*
X45983128Y-7852400D02*
X52656873Y-7852400D01*
X17816000Y-16052400D02*
X17943000Y-16179400D01*
X17943000Y-16179400D02*
X18197000Y-16179400D01*
X18197000Y-16179400D02*
X18324000Y-16052400D01*
X24293000Y-16179400D02*
X24420000Y-16052400D01*
X13625000Y-16179400D02*
X13752000Y-16052400D01*
X20229000Y-16179400D02*
X20483000Y-16179400D01*
X9967600Y-14763128D02*
X11256872Y-16052400D01*
X13244000Y-16052400D02*
X13371000Y-16179400D01*
X23912000Y-16052400D02*
X24039000Y-16179400D01*
X9065200Y-13504800D02*
X9509272Y-13504800D01*
X19848000Y-16052400D02*
X20102000Y-16052400D01*
X16419000Y-16179400D02*
X16673000Y-16179400D01*
X9509272Y-13504800D02*
X9967600Y-13963128D01*
X18324000Y-16052400D02*
X18578000Y-16052400D01*
X14895000Y-16179400D02*
X15149000Y-16179400D01*
X22388000Y-16052400D02*
X22515000Y-16179400D01*
X9967600Y-13963128D02*
X9967600Y-14763128D01*
X11847000Y-16179400D02*
X12101000Y-16179400D01*
X13752000Y-16052400D02*
X14006000Y-16052400D01*
X15149000Y-16179400D02*
X15276000Y-16052400D01*
X14006000Y-16052400D02*
X14133000Y-16179400D01*
X22515000Y-16179400D02*
X22769000Y-16179400D01*
X8620000Y-13950000D02*
X9065200Y-13504800D01*
X12101000Y-16179400D02*
X12228000Y-16052400D01*
X18705000Y-16179400D02*
X18959000Y-16179400D01*
X16292000Y-16052400D02*
X16419000Y-16179400D01*
X13371000Y-16179400D02*
X13625000Y-16179400D01*
X20102000Y-16052400D02*
X20229000Y-16179400D01*
X24039000Y-16179400D02*
X24293000Y-16179400D01*
X12609000Y-16179400D02*
X12863000Y-16179400D01*
X12228000Y-16052400D02*
X12482000Y-16052400D01*
X21372000Y-16052400D02*
X21626000Y-16052400D01*
X12863000Y-16179400D02*
X12990000Y-16052400D01*
X19467000Y-16179400D02*
X19721000Y-16179400D01*
X19721000Y-16179400D02*
X19848000Y-16052400D01*
X17435000Y-16179400D02*
X17562000Y-16052400D01*
X18578000Y-16052400D02*
X18705000Y-16179400D01*
X18959000Y-16179400D02*
X19086000Y-16052400D01*
X19086000Y-16052400D02*
X19340000Y-16052400D01*
X19340000Y-16052400D02*
X19467000Y-16179400D01*
X20483000Y-16179400D02*
X20610000Y-16052400D01*
X20610000Y-16052400D02*
X20864000Y-16052400D01*
X45072400Y-11563128D02*
X45072400Y-8763128D01*
X20864000Y-16052400D02*
X20991000Y-16179400D01*
X20991000Y-16179400D02*
X21245000Y-16179400D01*
X21245000Y-16179400D02*
X21372000Y-16052400D01*
X21626000Y-16052400D02*
X21753000Y-16179400D01*
X21753000Y-16179400D02*
X22007000Y-16179400D01*
X22007000Y-16179400D02*
X22134000Y-16052400D01*
X22134000Y-16052400D02*
X22388000Y-16052400D01*
X23277000Y-16179400D02*
X23531000Y-16179400D01*
X23531000Y-16179400D02*
X23658000Y-16052400D01*
X23658000Y-16052400D02*
X23912000Y-16052400D01*
X12482000Y-16052400D02*
X12609000Y-16179400D01*
X24420000Y-16052400D02*
X40583128Y-16052400D01*
X45072400Y-8763128D02*
X45983128Y-7852400D01*
%TO.N,/sas0/R2+*%
X49124284Y-11911244D02*
X44783128Y-16252400D01*
X49124284Y-8495716D02*
X49124284Y-11911244D01*
X7872400Y-17652400D02*
X3420000Y-13200000D01*
X44783128Y-16252400D02*
X42783128Y-16252400D01*
X42783128Y-16252400D02*
X41383128Y-17652400D01*
X41383128Y-17652400D02*
X7872400Y-17652400D01*
%TO.N,/sas0/R2-*%
X27316000Y-17347600D02*
X27570000Y-17347600D01*
X26935000Y-17220600D02*
X27189000Y-17220600D01*
X44656872Y-15947600D02*
X48819484Y-11784988D01*
X27189000Y-17220600D02*
X27316000Y-17347600D01*
X28459000Y-17220600D02*
X28713000Y-17220600D01*
X26427000Y-17220600D02*
X26554000Y-17347600D01*
X42656872Y-15947600D02*
X44656872Y-15947600D01*
X25284000Y-17347600D02*
X25411000Y-17220600D01*
X25030000Y-17347600D02*
X25284000Y-17347600D01*
X24649000Y-17220600D02*
X24903000Y-17220600D01*
X24522000Y-17347600D02*
X24649000Y-17220600D01*
X24268000Y-17347600D02*
X24522000Y-17347600D01*
X24141000Y-17220600D02*
X24268000Y-17347600D01*
X23887000Y-17220600D02*
X24141000Y-17220600D01*
X23506000Y-17347600D02*
X23760000Y-17347600D01*
X23379000Y-17220600D02*
X23506000Y-17347600D01*
X22744000Y-17347600D02*
X22998000Y-17347600D01*
X13981000Y-17220600D02*
X14235000Y-17220600D01*
X27697000Y-17220600D02*
X27951000Y-17220600D01*
X13219000Y-17220600D02*
X13473000Y-17220600D01*
X23125000Y-17220600D02*
X23379000Y-17220600D01*
X20712000Y-17347600D02*
X20839000Y-17220600D01*
X27570000Y-17347600D02*
X27697000Y-17220600D01*
X13092000Y-17347600D02*
X13219000Y-17220600D01*
X22998000Y-17347600D02*
X23125000Y-17220600D01*
X12330000Y-17347600D02*
X12457000Y-17220600D01*
X28713000Y-17220600D02*
X28840000Y-17347600D01*
X14235000Y-17220600D02*
X14362000Y-17347600D01*
X8647000Y-17220600D02*
X8901000Y-17220600D01*
X9028000Y-17347600D02*
X9282000Y-17347600D01*
X17791000Y-17220600D02*
X18045000Y-17220600D01*
X26046000Y-17347600D02*
X26173000Y-17220600D01*
X20458000Y-17347600D02*
X20712000Y-17347600D01*
X12838000Y-17347600D02*
X13092000Y-17347600D01*
X11314000Y-17347600D02*
X11568000Y-17347600D01*
X20331000Y-17220600D02*
X20458000Y-17347600D01*
X12711000Y-17220600D02*
X12838000Y-17347600D01*
X20077000Y-17220600D02*
X20331000Y-17220600D01*
X12457000Y-17220600D02*
X12711000Y-17220600D01*
X19950000Y-17347600D02*
X20077000Y-17220600D01*
X12076000Y-17347600D02*
X12330000Y-17347600D01*
X25411000Y-17220600D02*
X25665000Y-17220600D01*
X11949000Y-17220600D02*
X12076000Y-17347600D01*
X8520000Y-17347600D02*
X8647000Y-17220600D01*
X28840000Y-17347600D02*
X41256872Y-17347600D01*
X14362000Y-17347600D02*
X14616000Y-17347600D01*
X11695000Y-17220600D02*
X11949000Y-17220600D01*
X9790000Y-17347600D02*
X10044000Y-17347600D01*
X11568000Y-17347600D02*
X11695000Y-17220600D01*
X20839000Y-17220600D02*
X21093000Y-17220600D01*
X26173000Y-17220600D02*
X26427000Y-17220600D01*
X10933000Y-17220600D02*
X11187000Y-17220600D01*
X16648000Y-17347600D02*
X16902000Y-17347600D01*
X4820000Y-13950000D02*
X4820000Y-14168947D01*
X11187000Y-17220600D02*
X11314000Y-17347600D01*
X15124000Y-17347600D02*
X15378000Y-17347600D01*
X26808000Y-17347600D02*
X26935000Y-17220600D01*
X22617000Y-17220600D02*
X22744000Y-17347600D01*
X25665000Y-17220600D02*
X25792000Y-17347600D01*
X10425000Y-17220600D02*
X10552000Y-17347600D01*
X8901000Y-17220600D02*
X9028000Y-17347600D01*
X16140000Y-17347600D02*
X16267000Y-17220600D01*
X28332000Y-17347600D02*
X28459000Y-17220600D01*
X13854000Y-17347600D02*
X13981000Y-17220600D01*
X10806000Y-17347600D02*
X10933000Y-17220600D01*
X16521000Y-17220600D02*
X16648000Y-17347600D01*
X14616000Y-17347600D02*
X14743000Y-17220600D01*
X23760000Y-17347600D02*
X23887000Y-17220600D01*
X4820000Y-14168947D02*
X7998653Y-17347600D01*
X27951000Y-17220600D02*
X28078000Y-17347600D01*
X13473000Y-17220600D02*
X13600000Y-17347600D01*
X9282000Y-17347600D02*
X9409000Y-17220600D01*
X9409000Y-17220600D02*
X9663000Y-17220600D01*
X28078000Y-17347600D02*
X28332000Y-17347600D01*
X7998653Y-17347600D02*
X8520000Y-17347600D01*
X13600000Y-17347600D02*
X13854000Y-17347600D01*
X25792000Y-17347600D02*
X26046000Y-17347600D01*
X10552000Y-17347600D02*
X10806000Y-17347600D01*
X16267000Y-17220600D02*
X16521000Y-17220600D01*
X14743000Y-17220600D02*
X14997000Y-17220600D01*
X48819484Y-11784988D02*
X48819484Y-9008052D01*
X9663000Y-17220600D02*
X9790000Y-17347600D01*
X14997000Y-17220600D02*
X15124000Y-17347600D01*
X15378000Y-17347600D02*
X15505000Y-17220600D01*
X15505000Y-17220600D02*
X15759000Y-17220600D01*
X15759000Y-17220600D02*
X15886000Y-17347600D01*
X24903000Y-17220600D02*
X25030000Y-17347600D01*
X21855000Y-17220600D02*
X21982000Y-17347600D01*
X15886000Y-17347600D02*
X16140000Y-17347600D01*
X16902000Y-17347600D02*
X17029000Y-17220600D01*
X17029000Y-17220600D02*
X17283000Y-17220600D01*
X17283000Y-17220600D02*
X17410000Y-17347600D01*
X17410000Y-17347600D02*
X17664000Y-17347600D01*
X17664000Y-17347600D02*
X17791000Y-17220600D01*
X21601000Y-17220600D02*
X21855000Y-17220600D01*
X41256872Y-17347600D02*
X42656872Y-15947600D01*
X18045000Y-17220600D02*
X18172000Y-17347600D01*
X18172000Y-17347600D02*
X18426000Y-17347600D01*
X18426000Y-17347600D02*
X18553000Y-17220600D01*
X48819484Y-9008052D02*
X48715716Y-8904284D01*
X18553000Y-17220600D02*
X18807000Y-17220600D01*
X18807000Y-17220600D02*
X18934000Y-17347600D01*
X18934000Y-17347600D02*
X19188000Y-17347600D01*
X19188000Y-17347600D02*
X19315000Y-17220600D01*
X19315000Y-17220600D02*
X19569000Y-17220600D01*
X19569000Y-17220600D02*
X19696000Y-17347600D01*
X19696000Y-17347600D02*
X19950000Y-17347600D01*
X10044000Y-17347600D02*
X10171000Y-17220600D01*
X21093000Y-17220600D02*
X21220000Y-17347600D01*
X10171000Y-17220600D02*
X10425000Y-17220600D01*
X21220000Y-17347600D02*
X21474000Y-17347600D01*
X21474000Y-17347600D02*
X21601000Y-17220600D01*
X21982000Y-17347600D02*
X22236000Y-17347600D01*
X22236000Y-17347600D02*
X22363000Y-17220600D01*
X26554000Y-17347600D02*
X26808000Y-17347600D01*
X22363000Y-17220600D02*
X22617000Y-17220600D01*
%TO.N,/sas0/R1+*%
X16583128Y-7347600D02*
X10856872Y-7347600D01*
X8404473Y-10950000D02*
X7220000Y-10950000D01*
X9567600Y-8636872D02*
X9567600Y-9786873D01*
X34656872Y-10147600D02*
X19383128Y-10147600D01*
X44324284Y-8495716D02*
X44131243Y-8495716D01*
X9567600Y-9786873D02*
X8404473Y-10950000D01*
X10856872Y-7347600D02*
X9567600Y-8636872D01*
X43183127Y-7547600D02*
X37256872Y-7547600D01*
X19383128Y-10147600D02*
X16583128Y-7347600D01*
X44131243Y-8495716D02*
X43183127Y-7547600D01*
X37256872Y-7547600D02*
X34656872Y-10147600D01*
%TO.N,/sas0/R1-*%
X29245000Y-10579400D02*
X29372000Y-10452400D01*
X30007000Y-10579400D02*
X30134000Y-10452400D01*
X28483000Y-10579400D02*
X28610000Y-10452400D01*
X30134000Y-10452400D02*
X34783128Y-10452400D01*
X37383128Y-7852400D02*
X43056873Y-7852400D01*
X28864000Y-10452400D02*
X28991000Y-10579400D01*
X43056873Y-7852400D02*
X43915716Y-8711243D01*
X28229000Y-10579400D02*
X28483000Y-10579400D01*
X28102000Y-10452400D02*
X28229000Y-10579400D01*
X27848000Y-10452400D02*
X28102000Y-10452400D01*
X27721000Y-10579400D02*
X27848000Y-10452400D01*
X27086000Y-10452400D02*
X27340000Y-10452400D01*
X26959000Y-10579400D02*
X27086000Y-10452400D01*
X26578000Y-10452400D02*
X26705000Y-10579400D01*
X25816000Y-10452400D02*
X25943000Y-10579400D01*
X25562000Y-10452400D02*
X25816000Y-10452400D01*
X25181000Y-10579400D02*
X25435000Y-10579400D01*
X26197000Y-10579400D02*
X26324000Y-10452400D01*
X21244000Y-10452400D02*
X21371000Y-10579400D01*
X20482000Y-10452400D02*
X20609000Y-10579400D01*
X26705000Y-10579400D02*
X26959000Y-10579400D01*
X9872400Y-9913127D02*
X9872400Y-8763128D01*
X22387000Y-10579400D02*
X22514000Y-10452400D01*
X28991000Y-10579400D02*
X29245000Y-10579400D01*
X22514000Y-10452400D02*
X22768000Y-10452400D01*
X23530000Y-10452400D02*
X23657000Y-10579400D01*
X22768000Y-10452400D02*
X22895000Y-10579400D01*
X22895000Y-10579400D02*
X23149000Y-10579400D01*
X23149000Y-10579400D02*
X23276000Y-10452400D01*
X29372000Y-10452400D02*
X29626000Y-10452400D01*
X22006000Y-10452400D02*
X22133000Y-10579400D01*
X25054000Y-10452400D02*
X25181000Y-10579400D01*
X20863000Y-10579400D02*
X20990000Y-10452400D01*
X20228000Y-10452400D02*
X20482000Y-10452400D01*
X19847000Y-10579400D02*
X20101000Y-10579400D01*
X25943000Y-10579400D02*
X26197000Y-10579400D01*
X20990000Y-10452400D02*
X21244000Y-10452400D01*
X43915716Y-8711243D02*
X43915716Y-8904284D01*
X9872400Y-8763128D02*
X10983128Y-7652400D01*
X21752000Y-10452400D02*
X22006000Y-10452400D01*
X24800000Y-10452400D02*
X25054000Y-10452400D01*
X19720000Y-10452400D02*
X19847000Y-10579400D01*
X19256872Y-10452400D02*
X19720000Y-10452400D01*
X34783128Y-10452400D02*
X37383128Y-7852400D01*
X28610000Y-10452400D02*
X28864000Y-10452400D01*
X8620000Y-11700000D02*
X8620000Y-11165527D01*
X25435000Y-10579400D02*
X25562000Y-10452400D01*
X8620000Y-11165527D02*
X9872400Y-9913127D01*
X26324000Y-10452400D02*
X26578000Y-10452400D01*
X21371000Y-10579400D02*
X21625000Y-10579400D01*
X27467000Y-10579400D02*
X27721000Y-10579400D01*
X10983128Y-7652400D02*
X16456872Y-7652400D01*
X24292000Y-10452400D02*
X24419000Y-10579400D01*
X20609000Y-10579400D02*
X20863000Y-10579400D01*
X27340000Y-10452400D02*
X27467000Y-10579400D01*
X20101000Y-10579400D02*
X20228000Y-10452400D01*
X23657000Y-10579400D02*
X23911000Y-10579400D01*
X29626000Y-10452400D02*
X29753000Y-10579400D01*
X22133000Y-10579400D02*
X22387000Y-10579400D01*
X16456872Y-7652400D02*
X19256872Y-10452400D01*
X29753000Y-10579400D02*
X30007000Y-10579400D01*
X23276000Y-10452400D02*
X23530000Y-10452400D01*
X23911000Y-10579400D02*
X24038000Y-10452400D01*
X21625000Y-10579400D02*
X21752000Y-10452400D01*
X24038000Y-10452400D02*
X24292000Y-10452400D01*
X24419000Y-10579400D02*
X24673000Y-10579400D01*
X24673000Y-10579400D02*
X24800000Y-10452400D01*
%TO.N,/sas0/R0+*%
X8056872Y-6147600D02*
X5767600Y-8436872D01*
X28983127Y-6147600D02*
X8056872Y-6147600D01*
X31331243Y-8495716D02*
X28983127Y-6147600D01*
X31524284Y-8495716D02*
X31331243Y-8495716D01*
X5767600Y-9786873D02*
X4604473Y-10950000D01*
X4604473Y-10950000D02*
X3420000Y-10950000D01*
X5767600Y-8436872D02*
X5767600Y-9786873D01*
%TO.N,/sas0/R0-*%
X17791000Y-6579400D02*
X18045000Y-6579400D01*
X18045000Y-6579400D02*
X18172000Y-6452400D01*
X17664000Y-6452400D02*
X17791000Y-6579400D01*
X18934000Y-6452400D02*
X28856873Y-6452400D01*
X18426000Y-6452400D02*
X18553000Y-6579400D01*
X17410000Y-6452400D02*
X17664000Y-6452400D01*
X18172000Y-6452400D02*
X18426000Y-6452400D01*
X17283000Y-6579400D02*
X17410000Y-6452400D01*
X17029000Y-6579400D02*
X17283000Y-6579400D01*
X16902000Y-6452400D02*
X17029000Y-6579400D01*
X28856873Y-6452400D02*
X31115716Y-8711243D01*
X16648000Y-6452400D02*
X16902000Y-6452400D01*
X16521000Y-6579400D02*
X16648000Y-6452400D01*
X16267000Y-6579400D02*
X16521000Y-6579400D01*
X16140000Y-6452400D02*
X16267000Y-6579400D01*
X15886000Y-6452400D02*
X16140000Y-6452400D01*
X15759000Y-6579400D02*
X15886000Y-6452400D01*
X15378000Y-6452400D02*
X15505000Y-6579400D01*
X15124000Y-6452400D02*
X15378000Y-6452400D01*
X14997000Y-6579400D02*
X15124000Y-6452400D01*
X14743000Y-6579400D02*
X14997000Y-6579400D01*
X14616000Y-6452400D02*
X14743000Y-6579400D01*
X14362000Y-6452400D02*
X14616000Y-6452400D01*
X10425000Y-6579400D02*
X10552000Y-6452400D01*
X10806000Y-6452400D02*
X10933000Y-6579400D01*
X11187000Y-6579400D02*
X11314000Y-6452400D01*
X13219000Y-6579400D02*
X13473000Y-6579400D01*
X13600000Y-6452400D02*
X13854000Y-6452400D01*
X13854000Y-6452400D02*
X13981000Y-6579400D01*
X4820000Y-11700000D02*
X4820000Y-11165527D01*
X13981000Y-6579400D02*
X14235000Y-6579400D01*
X12076000Y-6452400D02*
X12330000Y-6452400D01*
X18807000Y-6579400D02*
X18934000Y-6452400D01*
X10044000Y-6452400D02*
X10171000Y-6579400D01*
X4820000Y-11165527D02*
X6072400Y-9913127D01*
X9409000Y-6579400D02*
X9663000Y-6579400D01*
X14235000Y-6579400D02*
X14362000Y-6452400D01*
X9028000Y-6452400D02*
X9282000Y-6452400D01*
X8901000Y-6579400D02*
X9028000Y-6452400D01*
X18553000Y-6579400D02*
X18807000Y-6579400D01*
X9790000Y-6452400D02*
X10044000Y-6452400D01*
X9282000Y-6452400D02*
X9409000Y-6579400D01*
X9663000Y-6579400D02*
X9790000Y-6452400D01*
X10171000Y-6579400D02*
X10425000Y-6579400D01*
X10933000Y-6579400D02*
X11187000Y-6579400D01*
X11949000Y-6579400D02*
X12076000Y-6452400D01*
X15505000Y-6579400D02*
X15759000Y-6579400D01*
X8647000Y-6579400D02*
X8901000Y-6579400D01*
X6072400Y-9913127D02*
X6072400Y-8563128D01*
X6072400Y-8563128D02*
X8183128Y-6452400D01*
X11695000Y-6579400D02*
X11949000Y-6579400D01*
X8520000Y-6452400D02*
X8647000Y-6579400D01*
X13473000Y-6579400D02*
X13600000Y-6452400D01*
X10552000Y-6452400D02*
X10806000Y-6452400D01*
X31115716Y-8711243D02*
X31115716Y-8904284D01*
X11314000Y-6452400D02*
X11568000Y-6452400D01*
X12330000Y-6452400D02*
X12457000Y-6579400D01*
X12457000Y-6579400D02*
X12711000Y-6579400D01*
X8183128Y-6452400D02*
X8520000Y-6452400D01*
X12711000Y-6579400D02*
X12838000Y-6452400D01*
X11568000Y-6452400D02*
X11695000Y-6579400D01*
X12838000Y-6452400D02*
X13092000Y-6452400D01*
X13092000Y-6452400D02*
X13219000Y-6579400D01*
%TO.N,/sas1/R3+*%
X10272400Y-29836872D02*
X9635528Y-29200000D01*
X44767600Y-24636872D02*
X44767600Y-27436872D01*
X45856872Y-23547600D02*
X44767600Y-24636872D01*
X52783127Y-23547600D02*
X45856872Y-23547600D01*
X10272400Y-30636872D02*
X10272400Y-29836872D01*
X53731243Y-24495716D02*
X52783127Y-23547600D01*
X9635528Y-29200000D02*
X7220000Y-29200000D01*
X40456872Y-31747600D02*
X11383128Y-31747600D01*
X53924284Y-24495716D02*
X53731243Y-24495716D01*
X44767600Y-27436872D02*
X40456872Y-31747600D01*
X11383128Y-31747600D02*
X10272400Y-30636872D01*
%TO.N,/sas1/R3-*%
X16800000Y-32052400D02*
X17054000Y-32052400D01*
X17054000Y-32052400D02*
X17181000Y-32179400D01*
X16673000Y-32179400D02*
X16800000Y-32052400D01*
X11720000Y-32052400D02*
X11847000Y-32179400D01*
X52656873Y-23852400D02*
X53515716Y-24711243D01*
X17181000Y-32179400D02*
X17435000Y-32179400D01*
X11256872Y-32052400D02*
X11720000Y-32052400D01*
X16038000Y-32052400D02*
X16292000Y-32052400D01*
X15911000Y-32179400D02*
X16038000Y-32052400D01*
X15657000Y-32179400D02*
X15911000Y-32179400D01*
X23150000Y-32052400D02*
X23277000Y-32179400D01*
X15530000Y-32052400D02*
X15657000Y-32179400D01*
X14387000Y-32179400D02*
X14514000Y-32052400D01*
X22896000Y-32052400D02*
X23150000Y-32052400D01*
X15276000Y-32052400D02*
X15530000Y-32052400D01*
X14133000Y-32179400D02*
X14387000Y-32179400D01*
X22769000Y-32179400D02*
X22896000Y-32052400D01*
X14768000Y-32052400D02*
X14895000Y-32179400D01*
X53515716Y-24711243D02*
X53515716Y-24904284D01*
X40583128Y-32052400D02*
X45072400Y-27563128D01*
X14514000Y-32052400D02*
X14768000Y-32052400D01*
X17562000Y-32052400D02*
X17816000Y-32052400D01*
X12990000Y-32052400D02*
X13244000Y-32052400D01*
X45983128Y-23852400D02*
X52656873Y-23852400D01*
X17816000Y-32052400D02*
X17943000Y-32179400D01*
X17943000Y-32179400D02*
X18197000Y-32179400D01*
X18197000Y-32179400D02*
X18324000Y-32052400D01*
X24293000Y-32179400D02*
X24420000Y-32052400D01*
X13625000Y-32179400D02*
X13752000Y-32052400D01*
X20229000Y-32179400D02*
X20483000Y-32179400D01*
X9967600Y-30763128D02*
X11256872Y-32052400D01*
X13244000Y-32052400D02*
X13371000Y-32179400D01*
X23912000Y-32052400D02*
X24039000Y-32179400D01*
X9065200Y-29504800D02*
X9509272Y-29504800D01*
X19848000Y-32052400D02*
X20102000Y-32052400D01*
X16419000Y-32179400D02*
X16673000Y-32179400D01*
X9509272Y-29504800D02*
X9967600Y-29963128D01*
X18324000Y-32052400D02*
X18578000Y-32052400D01*
X14895000Y-32179400D02*
X15149000Y-32179400D01*
X22388000Y-32052400D02*
X22515000Y-32179400D01*
X9967600Y-29963128D02*
X9967600Y-30763128D01*
X11847000Y-32179400D02*
X12101000Y-32179400D01*
X13752000Y-32052400D02*
X14006000Y-32052400D01*
X15149000Y-32179400D02*
X15276000Y-32052400D01*
X14006000Y-32052400D02*
X14133000Y-32179400D01*
X22515000Y-32179400D02*
X22769000Y-32179400D01*
X8620000Y-29950000D02*
X9065200Y-29504800D01*
X12101000Y-32179400D02*
X12228000Y-32052400D01*
X18705000Y-32179400D02*
X18959000Y-32179400D01*
X16292000Y-32052400D02*
X16419000Y-32179400D01*
X13371000Y-32179400D02*
X13625000Y-32179400D01*
X20102000Y-32052400D02*
X20229000Y-32179400D01*
X24039000Y-32179400D02*
X24293000Y-32179400D01*
X12609000Y-32179400D02*
X12863000Y-32179400D01*
X12228000Y-32052400D02*
X12482000Y-32052400D01*
X21372000Y-32052400D02*
X21626000Y-32052400D01*
X12863000Y-32179400D02*
X12990000Y-32052400D01*
X19467000Y-32179400D02*
X19721000Y-32179400D01*
X19721000Y-32179400D02*
X19848000Y-32052400D01*
X17435000Y-32179400D02*
X17562000Y-32052400D01*
X18578000Y-32052400D02*
X18705000Y-32179400D01*
X18959000Y-32179400D02*
X19086000Y-32052400D01*
X19086000Y-32052400D02*
X19340000Y-32052400D01*
X19340000Y-32052400D02*
X19467000Y-32179400D01*
X20483000Y-32179400D02*
X20610000Y-32052400D01*
X20610000Y-32052400D02*
X20864000Y-32052400D01*
X45072400Y-27563128D02*
X45072400Y-24763128D01*
X20864000Y-32052400D02*
X20991000Y-32179400D01*
X20991000Y-32179400D02*
X21245000Y-32179400D01*
X21245000Y-32179400D02*
X21372000Y-32052400D01*
X21626000Y-32052400D02*
X21753000Y-32179400D01*
X21753000Y-32179400D02*
X22007000Y-32179400D01*
X22007000Y-32179400D02*
X22134000Y-32052400D01*
X22134000Y-32052400D02*
X22388000Y-32052400D01*
X23277000Y-32179400D02*
X23531000Y-32179400D01*
X23531000Y-32179400D02*
X23658000Y-32052400D01*
X23658000Y-32052400D02*
X23912000Y-32052400D01*
X12482000Y-32052400D02*
X12609000Y-32179400D01*
X24420000Y-32052400D02*
X40583128Y-32052400D01*
X45072400Y-24763128D02*
X45983128Y-23852400D01*
%TO.N,/sas1/R2+*%
X49124284Y-27911244D02*
X44783128Y-32252400D01*
X49124284Y-24495716D02*
X49124284Y-27911244D01*
X7872400Y-33652400D02*
X3420000Y-29200000D01*
X44783128Y-32252400D02*
X42783128Y-32252400D01*
X42783128Y-32252400D02*
X41383128Y-33652400D01*
X41383128Y-33652400D02*
X7872400Y-33652400D01*
%TO.N,/sas1/R2-*%
X27316000Y-33347600D02*
X27570000Y-33347600D01*
X26935000Y-33220600D02*
X27189000Y-33220600D01*
X44656872Y-31947600D02*
X48819484Y-27784988D01*
X27189000Y-33220600D02*
X27316000Y-33347600D01*
X28459000Y-33220600D02*
X28713000Y-33220600D01*
X26427000Y-33220600D02*
X26554000Y-33347600D01*
X42656872Y-31947600D02*
X44656872Y-31947600D01*
X25284000Y-33347600D02*
X25411000Y-33220600D01*
X25030000Y-33347600D02*
X25284000Y-33347600D01*
X24649000Y-33220600D02*
X24903000Y-33220600D01*
X24522000Y-33347600D02*
X24649000Y-33220600D01*
X24268000Y-33347600D02*
X24522000Y-33347600D01*
X24141000Y-33220600D02*
X24268000Y-33347600D01*
X23887000Y-33220600D02*
X24141000Y-33220600D01*
X23506000Y-33347600D02*
X23760000Y-33347600D01*
X23379000Y-33220600D02*
X23506000Y-33347600D01*
X22744000Y-33347600D02*
X22998000Y-33347600D01*
X13981000Y-33220600D02*
X14235000Y-33220600D01*
X27697000Y-33220600D02*
X27951000Y-33220600D01*
X13219000Y-33220600D02*
X13473000Y-33220600D01*
X23125000Y-33220600D02*
X23379000Y-33220600D01*
X20712000Y-33347600D02*
X20839000Y-33220600D01*
X27570000Y-33347600D02*
X27697000Y-33220600D01*
X13092000Y-33347600D02*
X13219000Y-33220600D01*
X22998000Y-33347600D02*
X23125000Y-33220600D01*
X12330000Y-33347600D02*
X12457000Y-33220600D01*
X28713000Y-33220600D02*
X28840000Y-33347600D01*
X14235000Y-33220600D02*
X14362000Y-33347600D01*
X8647000Y-33220600D02*
X8901000Y-33220600D01*
X9028000Y-33347600D02*
X9282000Y-33347600D01*
X17791000Y-33220600D02*
X18045000Y-33220600D01*
X26046000Y-33347600D02*
X26173000Y-33220600D01*
X20458000Y-33347600D02*
X20712000Y-33347600D01*
X12838000Y-33347600D02*
X13092000Y-33347600D01*
X11314000Y-33347600D02*
X11568000Y-33347600D01*
X20331000Y-33220600D02*
X20458000Y-33347600D01*
X12711000Y-33220600D02*
X12838000Y-33347600D01*
X20077000Y-33220600D02*
X20331000Y-33220600D01*
X12457000Y-33220600D02*
X12711000Y-33220600D01*
X19950000Y-33347600D02*
X20077000Y-33220600D01*
X12076000Y-33347600D02*
X12330000Y-33347600D01*
X25411000Y-33220600D02*
X25665000Y-33220600D01*
X11949000Y-33220600D02*
X12076000Y-33347600D01*
X8520000Y-33347600D02*
X8647000Y-33220600D01*
X28840000Y-33347600D02*
X41256872Y-33347600D01*
X14362000Y-33347600D02*
X14616000Y-33347600D01*
X11695000Y-33220600D02*
X11949000Y-33220600D01*
X9790000Y-33347600D02*
X10044000Y-33347600D01*
X11568000Y-33347600D02*
X11695000Y-33220600D01*
X20839000Y-33220600D02*
X21093000Y-33220600D01*
X26173000Y-33220600D02*
X26427000Y-33220600D01*
X10933000Y-33220600D02*
X11187000Y-33220600D01*
X16648000Y-33347600D02*
X16902000Y-33347600D01*
X4820000Y-29950000D02*
X4820000Y-30168947D01*
X11187000Y-33220600D02*
X11314000Y-33347600D01*
X15124000Y-33347600D02*
X15378000Y-33347600D01*
X26808000Y-33347600D02*
X26935000Y-33220600D01*
X22617000Y-33220600D02*
X22744000Y-33347600D01*
X25665000Y-33220600D02*
X25792000Y-33347600D01*
X10425000Y-33220600D02*
X10552000Y-33347600D01*
X8901000Y-33220600D02*
X9028000Y-33347600D01*
X16140000Y-33347600D02*
X16267000Y-33220600D01*
X28332000Y-33347600D02*
X28459000Y-33220600D01*
X13854000Y-33347600D02*
X13981000Y-33220600D01*
X10806000Y-33347600D02*
X10933000Y-33220600D01*
X16521000Y-33220600D02*
X16648000Y-33347600D01*
X14616000Y-33347600D02*
X14743000Y-33220600D01*
X23760000Y-33347600D02*
X23887000Y-33220600D01*
X4820000Y-30168947D02*
X7998653Y-33347600D01*
X27951000Y-33220600D02*
X28078000Y-33347600D01*
X13473000Y-33220600D02*
X13600000Y-33347600D01*
X9282000Y-33347600D02*
X9409000Y-33220600D01*
X9409000Y-33220600D02*
X9663000Y-33220600D01*
X28078000Y-33347600D02*
X28332000Y-33347600D01*
X7998653Y-33347600D02*
X8520000Y-33347600D01*
X13600000Y-33347600D02*
X13854000Y-33347600D01*
X25792000Y-33347600D02*
X26046000Y-33347600D01*
X10552000Y-33347600D02*
X10806000Y-33347600D01*
X16267000Y-33220600D02*
X16521000Y-33220600D01*
X14743000Y-33220600D02*
X14997000Y-33220600D01*
X48819484Y-27784988D02*
X48819484Y-25008052D01*
X9663000Y-33220600D02*
X9790000Y-33347600D01*
X14997000Y-33220600D02*
X15124000Y-33347600D01*
X15378000Y-33347600D02*
X15505000Y-33220600D01*
X15505000Y-33220600D02*
X15759000Y-33220600D01*
X15759000Y-33220600D02*
X15886000Y-33347600D01*
X24903000Y-33220600D02*
X25030000Y-33347600D01*
X21855000Y-33220600D02*
X21982000Y-33347600D01*
X15886000Y-33347600D02*
X16140000Y-33347600D01*
X16902000Y-33347600D02*
X17029000Y-33220600D01*
X17029000Y-33220600D02*
X17283000Y-33220600D01*
X17283000Y-33220600D02*
X17410000Y-33347600D01*
X17410000Y-33347600D02*
X17664000Y-33347600D01*
X17664000Y-33347600D02*
X17791000Y-33220600D01*
X21601000Y-33220600D02*
X21855000Y-33220600D01*
X41256872Y-33347600D02*
X42656872Y-31947600D01*
X18045000Y-33220600D02*
X18172000Y-33347600D01*
X18172000Y-33347600D02*
X18426000Y-33347600D01*
X18426000Y-33347600D02*
X18553000Y-33220600D01*
X48819484Y-25008052D02*
X48715716Y-24904284D01*
X18553000Y-33220600D02*
X18807000Y-33220600D01*
X18807000Y-33220600D02*
X18934000Y-33347600D01*
X18934000Y-33347600D02*
X19188000Y-33347600D01*
X19188000Y-33347600D02*
X19315000Y-33220600D01*
X19315000Y-33220600D02*
X19569000Y-33220600D01*
X19569000Y-33220600D02*
X19696000Y-33347600D01*
X19696000Y-33347600D02*
X19950000Y-33347600D01*
X10044000Y-33347600D02*
X10171000Y-33220600D01*
X21093000Y-33220600D02*
X21220000Y-33347600D01*
X10171000Y-33220600D02*
X10425000Y-33220600D01*
X21220000Y-33347600D02*
X21474000Y-33347600D01*
X21474000Y-33347600D02*
X21601000Y-33220600D01*
X21982000Y-33347600D02*
X22236000Y-33347600D01*
X22236000Y-33347600D02*
X22363000Y-33220600D01*
X26554000Y-33347600D02*
X26808000Y-33347600D01*
X22363000Y-33220600D02*
X22617000Y-33220600D01*
%TO.N,/sas1/R1+*%
X16583128Y-23347600D02*
X10856872Y-23347600D01*
X8404473Y-26950000D02*
X7220000Y-26950000D01*
X9567600Y-24636872D02*
X9567600Y-25786873D01*
X34656872Y-26147600D02*
X19383128Y-26147600D01*
X44324284Y-24495716D02*
X44131243Y-24495716D01*
X9567600Y-25786873D02*
X8404473Y-26950000D01*
X10856872Y-23347600D02*
X9567600Y-24636872D01*
X43183127Y-23547600D02*
X37256872Y-23547600D01*
X19383128Y-26147600D02*
X16583128Y-23347600D01*
X44131243Y-24495716D02*
X43183127Y-23547600D01*
X37256872Y-23547600D02*
X34656872Y-26147600D01*
%TO.N,/sas1/R1-*%
X29245000Y-26579400D02*
X29372000Y-26452400D01*
X30007000Y-26579400D02*
X30134000Y-26452400D01*
X28483000Y-26579400D02*
X28610000Y-26452400D01*
X30134000Y-26452400D02*
X34783128Y-26452400D01*
X37383128Y-23852400D02*
X43056873Y-23852400D01*
X28864000Y-26452400D02*
X28991000Y-26579400D01*
X43056873Y-23852400D02*
X43915716Y-24711243D01*
X28229000Y-26579400D02*
X28483000Y-26579400D01*
X28102000Y-26452400D02*
X28229000Y-26579400D01*
X27848000Y-26452400D02*
X28102000Y-26452400D01*
X27721000Y-26579400D02*
X27848000Y-26452400D01*
X27086000Y-26452400D02*
X27340000Y-26452400D01*
X26959000Y-26579400D02*
X27086000Y-26452400D01*
X26578000Y-26452400D02*
X26705000Y-26579400D01*
X25816000Y-26452400D02*
X25943000Y-26579400D01*
X25562000Y-26452400D02*
X25816000Y-26452400D01*
X25181000Y-26579400D02*
X25435000Y-26579400D01*
X26197000Y-26579400D02*
X26324000Y-26452400D01*
X21244000Y-26452400D02*
X21371000Y-26579400D01*
X20482000Y-26452400D02*
X20609000Y-26579400D01*
X26705000Y-26579400D02*
X26959000Y-26579400D01*
X9872400Y-25913127D02*
X9872400Y-24763128D01*
X22387000Y-26579400D02*
X22514000Y-26452400D01*
X28991000Y-26579400D02*
X29245000Y-26579400D01*
X22514000Y-26452400D02*
X22768000Y-26452400D01*
X23530000Y-26452400D02*
X23657000Y-26579400D01*
X22768000Y-26452400D02*
X22895000Y-26579400D01*
X22895000Y-26579400D02*
X23149000Y-26579400D01*
X23149000Y-26579400D02*
X23276000Y-26452400D01*
X29372000Y-26452400D02*
X29626000Y-26452400D01*
X22006000Y-26452400D02*
X22133000Y-26579400D01*
X25054000Y-26452400D02*
X25181000Y-26579400D01*
X20863000Y-26579400D02*
X20990000Y-26452400D01*
X20228000Y-26452400D02*
X20482000Y-26452400D01*
X19847000Y-26579400D02*
X20101000Y-26579400D01*
X25943000Y-26579400D02*
X26197000Y-26579400D01*
X20990000Y-26452400D02*
X21244000Y-26452400D01*
X43915716Y-24711243D02*
X43915716Y-24904284D01*
X9872400Y-24763128D02*
X10983128Y-23652400D01*
X21752000Y-26452400D02*
X22006000Y-26452400D01*
X24800000Y-26452400D02*
X25054000Y-26452400D01*
X19720000Y-26452400D02*
X19847000Y-26579400D01*
X19256872Y-26452400D02*
X19720000Y-26452400D01*
X34783128Y-26452400D02*
X37383128Y-23852400D01*
X28610000Y-26452400D02*
X28864000Y-26452400D01*
X8620000Y-27700000D02*
X8620000Y-27165527D01*
X25435000Y-26579400D02*
X25562000Y-26452400D01*
X8620000Y-27165527D02*
X9872400Y-25913127D01*
X26324000Y-26452400D02*
X26578000Y-26452400D01*
X21371000Y-26579400D02*
X21625000Y-26579400D01*
X27467000Y-26579400D02*
X27721000Y-26579400D01*
X10983128Y-23652400D02*
X16456872Y-23652400D01*
X24292000Y-26452400D02*
X24419000Y-26579400D01*
X20609000Y-26579400D02*
X20863000Y-26579400D01*
X27340000Y-26452400D02*
X27467000Y-26579400D01*
X20101000Y-26579400D02*
X20228000Y-26452400D01*
X23657000Y-26579400D02*
X23911000Y-26579400D01*
X29626000Y-26452400D02*
X29753000Y-26579400D01*
X22133000Y-26579400D02*
X22387000Y-26579400D01*
X16456872Y-23652400D02*
X19256872Y-26452400D01*
X29753000Y-26579400D02*
X30007000Y-26579400D01*
X23276000Y-26452400D02*
X23530000Y-26452400D01*
X23911000Y-26579400D02*
X24038000Y-26452400D01*
X21625000Y-26579400D02*
X21752000Y-26452400D01*
X24038000Y-26452400D02*
X24292000Y-26452400D01*
X24419000Y-26579400D02*
X24673000Y-26579400D01*
X24673000Y-26579400D02*
X24800000Y-26452400D01*
%TO.N,/sas1/R0+*%
X8056872Y-22147600D02*
X5767600Y-24436872D01*
X28983127Y-22147600D02*
X8056872Y-22147600D01*
X31331243Y-24495716D02*
X28983127Y-22147600D01*
X31524284Y-24495716D02*
X31331243Y-24495716D01*
X5767600Y-25786873D02*
X4604473Y-26950000D01*
X4604473Y-26950000D02*
X3420000Y-26950000D01*
X5767600Y-24436872D02*
X5767600Y-25786873D01*
%TO.N,/sas1/R0-*%
X17791000Y-22579400D02*
X18045000Y-22579400D01*
X18045000Y-22579400D02*
X18172000Y-22452400D01*
X17664000Y-22452400D02*
X17791000Y-22579400D01*
X18934000Y-22452400D02*
X28856873Y-22452400D01*
X18426000Y-22452400D02*
X18553000Y-22579400D01*
X17410000Y-22452400D02*
X17664000Y-22452400D01*
X18172000Y-22452400D02*
X18426000Y-22452400D01*
X17283000Y-22579400D02*
X17410000Y-22452400D01*
X17029000Y-22579400D02*
X17283000Y-22579400D01*
X16902000Y-22452400D02*
X17029000Y-22579400D01*
X28856873Y-22452400D02*
X31115716Y-24711243D01*
X16648000Y-22452400D02*
X16902000Y-22452400D01*
X16521000Y-22579400D02*
X16648000Y-22452400D01*
X16267000Y-22579400D02*
X16521000Y-22579400D01*
X16140000Y-22452400D02*
X16267000Y-22579400D01*
X15886000Y-22452400D02*
X16140000Y-22452400D01*
X15759000Y-22579400D02*
X15886000Y-22452400D01*
X15378000Y-22452400D02*
X15505000Y-22579400D01*
X15124000Y-22452400D02*
X15378000Y-22452400D01*
X14997000Y-22579400D02*
X15124000Y-22452400D01*
X14743000Y-22579400D02*
X14997000Y-22579400D01*
X14616000Y-22452400D02*
X14743000Y-22579400D01*
X14362000Y-22452400D02*
X14616000Y-22452400D01*
X10425000Y-22579400D02*
X10552000Y-22452400D01*
X10806000Y-22452400D02*
X10933000Y-22579400D01*
X11187000Y-22579400D02*
X11314000Y-22452400D01*
X13219000Y-22579400D02*
X13473000Y-22579400D01*
X13600000Y-22452400D02*
X13854000Y-22452400D01*
X13854000Y-22452400D02*
X13981000Y-22579400D01*
X4820000Y-27700000D02*
X4820000Y-27165527D01*
X13981000Y-22579400D02*
X14235000Y-22579400D01*
X12076000Y-22452400D02*
X12330000Y-22452400D01*
X18807000Y-22579400D02*
X18934000Y-22452400D01*
X10044000Y-22452400D02*
X10171000Y-22579400D01*
X4820000Y-27165527D02*
X6072400Y-25913127D01*
X9409000Y-22579400D02*
X9663000Y-22579400D01*
X14235000Y-22579400D02*
X14362000Y-22452400D01*
X9028000Y-22452400D02*
X9282000Y-22452400D01*
X8901000Y-22579400D02*
X9028000Y-22452400D01*
X18553000Y-22579400D02*
X18807000Y-22579400D01*
X9790000Y-22452400D02*
X10044000Y-22452400D01*
X9282000Y-22452400D02*
X9409000Y-22579400D01*
X9663000Y-22579400D02*
X9790000Y-22452400D01*
X10171000Y-22579400D02*
X10425000Y-22579400D01*
X10933000Y-22579400D02*
X11187000Y-22579400D01*
X11949000Y-22579400D02*
X12076000Y-22452400D01*
X15505000Y-22579400D02*
X15759000Y-22579400D01*
X8647000Y-22579400D02*
X8901000Y-22579400D01*
X6072400Y-25913127D02*
X6072400Y-24563128D01*
X6072400Y-24563128D02*
X8183128Y-22452400D01*
X11695000Y-22579400D02*
X11949000Y-22579400D01*
X8520000Y-22452400D02*
X8647000Y-22579400D01*
X13473000Y-22579400D02*
X13600000Y-22452400D01*
X10552000Y-22452400D02*
X10806000Y-22452400D01*
X31115716Y-24711243D02*
X31115716Y-24904284D01*
X11314000Y-22452400D02*
X11568000Y-22452400D01*
X12330000Y-22452400D02*
X12457000Y-22579400D01*
X12457000Y-22579400D02*
X12711000Y-22579400D01*
X8183128Y-22452400D02*
X8520000Y-22452400D01*
X12711000Y-22579400D02*
X12838000Y-22452400D01*
X11568000Y-22452400D02*
X11695000Y-22579400D01*
X12838000Y-22452400D02*
X13092000Y-22452400D01*
X13092000Y-22452400D02*
X13219000Y-22579400D01*
%TO.N,/sas2/R3+*%
X10272400Y-45836872D02*
X9635528Y-45200000D01*
X44767600Y-40636872D02*
X44767600Y-43436872D01*
X45856872Y-39547600D02*
X44767600Y-40636872D01*
X52783127Y-39547600D02*
X45856872Y-39547600D01*
X10272400Y-46636872D02*
X10272400Y-45836872D01*
X53731243Y-40495716D02*
X52783127Y-39547600D01*
X9635528Y-45200000D02*
X7220000Y-45200000D01*
X40456872Y-47747600D02*
X11383128Y-47747600D01*
X53924284Y-40495716D02*
X53731243Y-40495716D01*
X44767600Y-43436872D02*
X40456872Y-47747600D01*
X11383128Y-47747600D02*
X10272400Y-46636872D01*
%TO.N,/sas2/R3-*%
X16800000Y-48052400D02*
X17054000Y-48052400D01*
X17054000Y-48052400D02*
X17181000Y-48179400D01*
X16673000Y-48179400D02*
X16800000Y-48052400D01*
X11720000Y-48052400D02*
X11847000Y-48179400D01*
X52656873Y-39852400D02*
X53515716Y-40711243D01*
X17181000Y-48179400D02*
X17435000Y-48179400D01*
X11256872Y-48052400D02*
X11720000Y-48052400D01*
X16038000Y-48052400D02*
X16292000Y-48052400D01*
X15911000Y-48179400D02*
X16038000Y-48052400D01*
X15657000Y-48179400D02*
X15911000Y-48179400D01*
X23150000Y-48052400D02*
X23277000Y-48179400D01*
X15530000Y-48052400D02*
X15657000Y-48179400D01*
X14387000Y-48179400D02*
X14514000Y-48052400D01*
X22896000Y-48052400D02*
X23150000Y-48052400D01*
X15276000Y-48052400D02*
X15530000Y-48052400D01*
X14133000Y-48179400D02*
X14387000Y-48179400D01*
X22769000Y-48179400D02*
X22896000Y-48052400D01*
X14768000Y-48052400D02*
X14895000Y-48179400D01*
X53515716Y-40711243D02*
X53515716Y-40904284D01*
X40583128Y-48052400D02*
X45072400Y-43563128D01*
X14514000Y-48052400D02*
X14768000Y-48052400D01*
X17562000Y-48052400D02*
X17816000Y-48052400D01*
X12990000Y-48052400D02*
X13244000Y-48052400D01*
X45983128Y-39852400D02*
X52656873Y-39852400D01*
X17816000Y-48052400D02*
X17943000Y-48179400D01*
X17943000Y-48179400D02*
X18197000Y-48179400D01*
X18197000Y-48179400D02*
X18324000Y-48052400D01*
X24293000Y-48179400D02*
X24420000Y-48052400D01*
X13625000Y-48179400D02*
X13752000Y-48052400D01*
X20229000Y-48179400D02*
X20483000Y-48179400D01*
X9967600Y-46763128D02*
X11256872Y-48052400D01*
X13244000Y-48052400D02*
X13371000Y-48179400D01*
X23912000Y-48052400D02*
X24039000Y-48179400D01*
X9065200Y-45504800D02*
X9509272Y-45504800D01*
X19848000Y-48052400D02*
X20102000Y-48052400D01*
X16419000Y-48179400D02*
X16673000Y-48179400D01*
X9509272Y-45504800D02*
X9967600Y-45963128D01*
X18324000Y-48052400D02*
X18578000Y-48052400D01*
X14895000Y-48179400D02*
X15149000Y-48179400D01*
X22388000Y-48052400D02*
X22515000Y-48179400D01*
X9967600Y-45963128D02*
X9967600Y-46763128D01*
X11847000Y-48179400D02*
X12101000Y-48179400D01*
X13752000Y-48052400D02*
X14006000Y-48052400D01*
X15149000Y-48179400D02*
X15276000Y-48052400D01*
X14006000Y-48052400D02*
X14133000Y-48179400D01*
X22515000Y-48179400D02*
X22769000Y-48179400D01*
X8620000Y-45950000D02*
X9065200Y-45504800D01*
X12101000Y-48179400D02*
X12228000Y-48052400D01*
X18705000Y-48179400D02*
X18959000Y-48179400D01*
X16292000Y-48052400D02*
X16419000Y-48179400D01*
X13371000Y-48179400D02*
X13625000Y-48179400D01*
X20102000Y-48052400D02*
X20229000Y-48179400D01*
X24039000Y-48179400D02*
X24293000Y-48179400D01*
X12609000Y-48179400D02*
X12863000Y-48179400D01*
X12228000Y-48052400D02*
X12482000Y-48052400D01*
X21372000Y-48052400D02*
X21626000Y-48052400D01*
X12863000Y-48179400D02*
X12990000Y-48052400D01*
X19467000Y-48179400D02*
X19721000Y-48179400D01*
X19721000Y-48179400D02*
X19848000Y-48052400D01*
X17435000Y-48179400D02*
X17562000Y-48052400D01*
X18578000Y-48052400D02*
X18705000Y-48179400D01*
X18959000Y-48179400D02*
X19086000Y-48052400D01*
X19086000Y-48052400D02*
X19340000Y-48052400D01*
X19340000Y-48052400D02*
X19467000Y-48179400D01*
X20483000Y-48179400D02*
X20610000Y-48052400D01*
X20610000Y-48052400D02*
X20864000Y-48052400D01*
X45072400Y-43563128D02*
X45072400Y-40763128D01*
X20864000Y-48052400D02*
X20991000Y-48179400D01*
X20991000Y-48179400D02*
X21245000Y-48179400D01*
X21245000Y-48179400D02*
X21372000Y-48052400D01*
X21626000Y-48052400D02*
X21753000Y-48179400D01*
X21753000Y-48179400D02*
X22007000Y-48179400D01*
X22007000Y-48179400D02*
X22134000Y-48052400D01*
X22134000Y-48052400D02*
X22388000Y-48052400D01*
X23277000Y-48179400D02*
X23531000Y-48179400D01*
X23531000Y-48179400D02*
X23658000Y-48052400D01*
X23658000Y-48052400D02*
X23912000Y-48052400D01*
X12482000Y-48052400D02*
X12609000Y-48179400D01*
X24420000Y-48052400D02*
X40583128Y-48052400D01*
X45072400Y-40763128D02*
X45983128Y-39852400D01*
%TO.N,/sas2/R2+*%
X49124284Y-43911244D02*
X44783128Y-48252400D01*
X49124284Y-40495716D02*
X49124284Y-43911244D01*
X7872400Y-49652400D02*
X3420000Y-45200000D01*
X44783128Y-48252400D02*
X42783128Y-48252400D01*
X42783128Y-48252400D02*
X41383128Y-49652400D01*
X41383128Y-49652400D02*
X7872400Y-49652400D01*
%TO.N,/sas2/R2-*%
X27316000Y-49347600D02*
X27570000Y-49347600D01*
X26935000Y-49220600D02*
X27189000Y-49220600D01*
X44656872Y-47947600D02*
X48819484Y-43784988D01*
X27189000Y-49220600D02*
X27316000Y-49347600D01*
X28459000Y-49220600D02*
X28713000Y-49220600D01*
X26427000Y-49220600D02*
X26554000Y-49347600D01*
X42656872Y-47947600D02*
X44656872Y-47947600D01*
X25284000Y-49347600D02*
X25411000Y-49220600D01*
X25030000Y-49347600D02*
X25284000Y-49347600D01*
X24649000Y-49220600D02*
X24903000Y-49220600D01*
X24522000Y-49347600D02*
X24649000Y-49220600D01*
X24268000Y-49347600D02*
X24522000Y-49347600D01*
X24141000Y-49220600D02*
X24268000Y-49347600D01*
X23887000Y-49220600D02*
X24141000Y-49220600D01*
X23506000Y-49347600D02*
X23760000Y-49347600D01*
X23379000Y-49220600D02*
X23506000Y-49347600D01*
X22744000Y-49347600D02*
X22998000Y-49347600D01*
X13981000Y-49220600D02*
X14235000Y-49220600D01*
X27697000Y-49220600D02*
X27951000Y-49220600D01*
X13219000Y-49220600D02*
X13473000Y-49220600D01*
X23125000Y-49220600D02*
X23379000Y-49220600D01*
X20712000Y-49347600D02*
X20839000Y-49220600D01*
X27570000Y-49347600D02*
X27697000Y-49220600D01*
X13092000Y-49347600D02*
X13219000Y-49220600D01*
X22998000Y-49347600D02*
X23125000Y-49220600D01*
X12330000Y-49347600D02*
X12457000Y-49220600D01*
X28713000Y-49220600D02*
X28840000Y-49347600D01*
X14235000Y-49220600D02*
X14362000Y-49347600D01*
X8647000Y-49220600D02*
X8901000Y-49220600D01*
X9028000Y-49347600D02*
X9282000Y-49347600D01*
X17791000Y-49220600D02*
X18045000Y-49220600D01*
X26046000Y-49347600D02*
X26173000Y-49220600D01*
X20458000Y-49347600D02*
X20712000Y-49347600D01*
X12838000Y-49347600D02*
X13092000Y-49347600D01*
X11314000Y-49347600D02*
X11568000Y-49347600D01*
X20331000Y-49220600D02*
X20458000Y-49347600D01*
X12711000Y-49220600D02*
X12838000Y-49347600D01*
X20077000Y-49220600D02*
X20331000Y-49220600D01*
X12457000Y-49220600D02*
X12711000Y-49220600D01*
X19950000Y-49347600D02*
X20077000Y-49220600D01*
X12076000Y-49347600D02*
X12330000Y-49347600D01*
X25411000Y-49220600D02*
X25665000Y-49220600D01*
X11949000Y-49220600D02*
X12076000Y-49347600D01*
X8520000Y-49347600D02*
X8647000Y-49220600D01*
X28840000Y-49347600D02*
X41256872Y-49347600D01*
X14362000Y-49347600D02*
X14616000Y-49347600D01*
X11695000Y-49220600D02*
X11949000Y-49220600D01*
X9790000Y-49347600D02*
X10044000Y-49347600D01*
X11568000Y-49347600D02*
X11695000Y-49220600D01*
X20839000Y-49220600D02*
X21093000Y-49220600D01*
X26173000Y-49220600D02*
X26427000Y-49220600D01*
X10933000Y-49220600D02*
X11187000Y-49220600D01*
X16648000Y-49347600D02*
X16902000Y-49347600D01*
X4820000Y-45950000D02*
X4820000Y-46168947D01*
X11187000Y-49220600D02*
X11314000Y-49347600D01*
X15124000Y-49347600D02*
X15378000Y-49347600D01*
X26808000Y-49347600D02*
X26935000Y-49220600D01*
X22617000Y-49220600D02*
X22744000Y-49347600D01*
X25665000Y-49220600D02*
X25792000Y-49347600D01*
X10425000Y-49220600D02*
X10552000Y-49347600D01*
X8901000Y-49220600D02*
X9028000Y-49347600D01*
X16140000Y-49347600D02*
X16267000Y-49220600D01*
X28332000Y-49347600D02*
X28459000Y-49220600D01*
X13854000Y-49347600D02*
X13981000Y-49220600D01*
X10806000Y-49347600D02*
X10933000Y-49220600D01*
X16521000Y-49220600D02*
X16648000Y-49347600D01*
X14616000Y-49347600D02*
X14743000Y-49220600D01*
X23760000Y-49347600D02*
X23887000Y-49220600D01*
X4820000Y-46168947D02*
X7998653Y-49347600D01*
X27951000Y-49220600D02*
X28078000Y-49347600D01*
X13473000Y-49220600D02*
X13600000Y-49347600D01*
X9282000Y-49347600D02*
X9409000Y-49220600D01*
X9409000Y-49220600D02*
X9663000Y-49220600D01*
X28078000Y-49347600D02*
X28332000Y-49347600D01*
X7998653Y-49347600D02*
X8520000Y-49347600D01*
X13600000Y-49347600D02*
X13854000Y-49347600D01*
X25792000Y-49347600D02*
X26046000Y-49347600D01*
X10552000Y-49347600D02*
X10806000Y-49347600D01*
X16267000Y-49220600D02*
X16521000Y-49220600D01*
X14743000Y-49220600D02*
X14997000Y-49220600D01*
X48819484Y-43784988D02*
X48819484Y-41008052D01*
X9663000Y-49220600D02*
X9790000Y-49347600D01*
X14997000Y-49220600D02*
X15124000Y-49347600D01*
X15378000Y-49347600D02*
X15505000Y-49220600D01*
X15505000Y-49220600D02*
X15759000Y-49220600D01*
X15759000Y-49220600D02*
X15886000Y-49347600D01*
X24903000Y-49220600D02*
X25030000Y-49347600D01*
X21855000Y-49220600D02*
X21982000Y-49347600D01*
X15886000Y-49347600D02*
X16140000Y-49347600D01*
X16902000Y-49347600D02*
X17029000Y-49220600D01*
X17029000Y-49220600D02*
X17283000Y-49220600D01*
X17283000Y-49220600D02*
X17410000Y-49347600D01*
X17410000Y-49347600D02*
X17664000Y-49347600D01*
X17664000Y-49347600D02*
X17791000Y-49220600D01*
X21601000Y-49220600D02*
X21855000Y-49220600D01*
X41256872Y-49347600D02*
X42656872Y-47947600D01*
X18045000Y-49220600D02*
X18172000Y-49347600D01*
X18172000Y-49347600D02*
X18426000Y-49347600D01*
X18426000Y-49347600D02*
X18553000Y-49220600D01*
X48819484Y-41008052D02*
X48715716Y-40904284D01*
X18553000Y-49220600D02*
X18807000Y-49220600D01*
X18807000Y-49220600D02*
X18934000Y-49347600D01*
X18934000Y-49347600D02*
X19188000Y-49347600D01*
X19188000Y-49347600D02*
X19315000Y-49220600D01*
X19315000Y-49220600D02*
X19569000Y-49220600D01*
X19569000Y-49220600D02*
X19696000Y-49347600D01*
X19696000Y-49347600D02*
X19950000Y-49347600D01*
X10044000Y-49347600D02*
X10171000Y-49220600D01*
X21093000Y-49220600D02*
X21220000Y-49347600D01*
X10171000Y-49220600D02*
X10425000Y-49220600D01*
X21220000Y-49347600D02*
X21474000Y-49347600D01*
X21474000Y-49347600D02*
X21601000Y-49220600D01*
X21982000Y-49347600D02*
X22236000Y-49347600D01*
X22236000Y-49347600D02*
X22363000Y-49220600D01*
X26554000Y-49347600D02*
X26808000Y-49347600D01*
X22363000Y-49220600D02*
X22617000Y-49220600D01*
%TO.N,/sas2/R1+*%
X16583128Y-39347600D02*
X10856872Y-39347600D01*
X8404473Y-42950000D02*
X7220000Y-42950000D01*
X9567600Y-40636872D02*
X9567600Y-41786873D01*
X34656872Y-42147600D02*
X19383128Y-42147600D01*
X44324284Y-40495716D02*
X44131243Y-40495716D01*
X9567600Y-41786873D02*
X8404473Y-42950000D01*
X10856872Y-39347600D02*
X9567600Y-40636872D01*
X43183127Y-39547600D02*
X37256872Y-39547600D01*
X19383128Y-42147600D02*
X16583128Y-39347600D01*
X44131243Y-40495716D02*
X43183127Y-39547600D01*
X37256872Y-39547600D02*
X34656872Y-42147600D01*
%TO.N,/sas2/R1-*%
X29245000Y-42579400D02*
X29372000Y-42452400D01*
X30007000Y-42579400D02*
X30134000Y-42452400D01*
X28483000Y-42579400D02*
X28610000Y-42452400D01*
X30134000Y-42452400D02*
X34783128Y-42452400D01*
X37383128Y-39852400D02*
X43056873Y-39852400D01*
X28864000Y-42452400D02*
X28991000Y-42579400D01*
X43056873Y-39852400D02*
X43915716Y-40711243D01*
X28229000Y-42579400D02*
X28483000Y-42579400D01*
X28102000Y-42452400D02*
X28229000Y-42579400D01*
X27848000Y-42452400D02*
X28102000Y-42452400D01*
X27721000Y-42579400D02*
X27848000Y-42452400D01*
X27086000Y-42452400D02*
X27340000Y-42452400D01*
X26959000Y-42579400D02*
X27086000Y-42452400D01*
X26578000Y-42452400D02*
X26705000Y-42579400D01*
X25816000Y-42452400D02*
X25943000Y-42579400D01*
X25562000Y-42452400D02*
X25816000Y-42452400D01*
X25181000Y-42579400D02*
X25435000Y-42579400D01*
X26197000Y-42579400D02*
X26324000Y-42452400D01*
X21244000Y-42452400D02*
X21371000Y-42579400D01*
X20482000Y-42452400D02*
X20609000Y-42579400D01*
X26705000Y-42579400D02*
X26959000Y-42579400D01*
X9872400Y-41913127D02*
X9872400Y-40763128D01*
X22387000Y-42579400D02*
X22514000Y-42452400D01*
X28991000Y-42579400D02*
X29245000Y-42579400D01*
X22514000Y-42452400D02*
X22768000Y-42452400D01*
X23530000Y-42452400D02*
X23657000Y-42579400D01*
X22768000Y-42452400D02*
X22895000Y-42579400D01*
X22895000Y-42579400D02*
X23149000Y-42579400D01*
X23149000Y-42579400D02*
X23276000Y-42452400D01*
X29372000Y-42452400D02*
X29626000Y-42452400D01*
X22006000Y-42452400D02*
X22133000Y-42579400D01*
X25054000Y-42452400D02*
X25181000Y-42579400D01*
X20863000Y-42579400D02*
X20990000Y-42452400D01*
X20228000Y-42452400D02*
X20482000Y-42452400D01*
X19847000Y-42579400D02*
X20101000Y-42579400D01*
X25943000Y-42579400D02*
X26197000Y-42579400D01*
X20990000Y-42452400D02*
X21244000Y-42452400D01*
X43915716Y-40711243D02*
X43915716Y-40904284D01*
X9872400Y-40763128D02*
X10983128Y-39652400D01*
X21752000Y-42452400D02*
X22006000Y-42452400D01*
X24800000Y-42452400D02*
X25054000Y-42452400D01*
X19720000Y-42452400D02*
X19847000Y-42579400D01*
X19256872Y-42452400D02*
X19720000Y-42452400D01*
X34783128Y-42452400D02*
X37383128Y-39852400D01*
X28610000Y-42452400D02*
X28864000Y-42452400D01*
X8620000Y-43700000D02*
X8620000Y-43165527D01*
X25435000Y-42579400D02*
X25562000Y-42452400D01*
X8620000Y-43165527D02*
X9872400Y-41913127D01*
X26324000Y-42452400D02*
X26578000Y-42452400D01*
X21371000Y-42579400D02*
X21625000Y-42579400D01*
X27467000Y-42579400D02*
X27721000Y-42579400D01*
X10983128Y-39652400D02*
X16456872Y-39652400D01*
X24292000Y-42452400D02*
X24419000Y-42579400D01*
X20609000Y-42579400D02*
X20863000Y-42579400D01*
X27340000Y-42452400D02*
X27467000Y-42579400D01*
X20101000Y-42579400D02*
X20228000Y-42452400D01*
X23657000Y-42579400D02*
X23911000Y-42579400D01*
X29626000Y-42452400D02*
X29753000Y-42579400D01*
X22133000Y-42579400D02*
X22387000Y-42579400D01*
X16456872Y-39652400D02*
X19256872Y-42452400D01*
X29753000Y-42579400D02*
X30007000Y-42579400D01*
X23276000Y-42452400D02*
X23530000Y-42452400D01*
X23911000Y-42579400D02*
X24038000Y-42452400D01*
X21625000Y-42579400D02*
X21752000Y-42452400D01*
X24038000Y-42452400D02*
X24292000Y-42452400D01*
X24419000Y-42579400D02*
X24673000Y-42579400D01*
X24673000Y-42579400D02*
X24800000Y-42452400D01*
%TO.N,/sas2/R0+*%
X8056872Y-38147600D02*
X5767600Y-40436872D01*
X28983127Y-38147600D02*
X8056872Y-38147600D01*
X31331243Y-40495716D02*
X28983127Y-38147600D01*
X31524284Y-40495716D02*
X31331243Y-40495716D01*
X5767600Y-41786873D02*
X4604473Y-42950000D01*
X4604473Y-42950000D02*
X3420000Y-42950000D01*
X5767600Y-40436872D02*
X5767600Y-41786873D01*
%TO.N,/sas2/R0-*%
X17791000Y-38579400D02*
X18045000Y-38579400D01*
X18045000Y-38579400D02*
X18172000Y-38452400D01*
X17664000Y-38452400D02*
X17791000Y-38579400D01*
X18934000Y-38452400D02*
X28856873Y-38452400D01*
X18426000Y-38452400D02*
X18553000Y-38579400D01*
X17410000Y-38452400D02*
X17664000Y-38452400D01*
X18172000Y-38452400D02*
X18426000Y-38452400D01*
X17283000Y-38579400D02*
X17410000Y-38452400D01*
X17029000Y-38579400D02*
X17283000Y-38579400D01*
X16902000Y-38452400D02*
X17029000Y-38579400D01*
X28856873Y-38452400D02*
X31115716Y-40711243D01*
X16648000Y-38452400D02*
X16902000Y-38452400D01*
X16521000Y-38579400D02*
X16648000Y-38452400D01*
X16267000Y-38579400D02*
X16521000Y-38579400D01*
X16140000Y-38452400D02*
X16267000Y-38579400D01*
X15886000Y-38452400D02*
X16140000Y-38452400D01*
X15759000Y-38579400D02*
X15886000Y-38452400D01*
X15378000Y-38452400D02*
X15505000Y-38579400D01*
X15124000Y-38452400D02*
X15378000Y-38452400D01*
X14997000Y-38579400D02*
X15124000Y-38452400D01*
X14743000Y-38579400D02*
X14997000Y-38579400D01*
X14616000Y-38452400D02*
X14743000Y-38579400D01*
X14362000Y-38452400D02*
X14616000Y-38452400D01*
X10425000Y-38579400D02*
X10552000Y-38452400D01*
X10806000Y-38452400D02*
X10933000Y-38579400D01*
X11187000Y-38579400D02*
X11314000Y-38452400D01*
X13219000Y-38579400D02*
X13473000Y-38579400D01*
X13600000Y-38452400D02*
X13854000Y-38452400D01*
X13854000Y-38452400D02*
X13981000Y-38579400D01*
X4820000Y-43700000D02*
X4820000Y-43165527D01*
X13981000Y-38579400D02*
X14235000Y-38579400D01*
X12076000Y-38452400D02*
X12330000Y-38452400D01*
X18807000Y-38579400D02*
X18934000Y-38452400D01*
X10044000Y-38452400D02*
X10171000Y-38579400D01*
X4820000Y-43165527D02*
X6072400Y-41913127D01*
X9409000Y-38579400D02*
X9663000Y-38579400D01*
X14235000Y-38579400D02*
X14362000Y-38452400D01*
X9028000Y-38452400D02*
X9282000Y-38452400D01*
X8901000Y-38579400D02*
X9028000Y-38452400D01*
X18553000Y-38579400D02*
X18807000Y-38579400D01*
X9790000Y-38452400D02*
X10044000Y-38452400D01*
X9282000Y-38452400D02*
X9409000Y-38579400D01*
X9663000Y-38579400D02*
X9790000Y-38452400D01*
X10171000Y-38579400D02*
X10425000Y-38579400D01*
X10933000Y-38579400D02*
X11187000Y-38579400D01*
X11949000Y-38579400D02*
X12076000Y-38452400D01*
X15505000Y-38579400D02*
X15759000Y-38579400D01*
X8647000Y-38579400D02*
X8901000Y-38579400D01*
X6072400Y-41913127D02*
X6072400Y-40563128D01*
X6072400Y-40563128D02*
X8183128Y-38452400D01*
X11695000Y-38579400D02*
X11949000Y-38579400D01*
X8520000Y-38452400D02*
X8647000Y-38579400D01*
X13473000Y-38579400D02*
X13600000Y-38452400D01*
X10552000Y-38452400D02*
X10806000Y-38452400D01*
X31115716Y-40711243D02*
X31115716Y-40904284D01*
X11314000Y-38452400D02*
X11568000Y-38452400D01*
X12330000Y-38452400D02*
X12457000Y-38579400D01*
X12457000Y-38579400D02*
X12711000Y-38579400D01*
X8183128Y-38452400D02*
X8520000Y-38452400D01*
X12711000Y-38579400D02*
X12838000Y-38452400D01*
X11568000Y-38452400D02*
X11695000Y-38579400D01*
X12838000Y-38452400D02*
X13092000Y-38452400D01*
X13092000Y-38452400D02*
X13219000Y-38579400D01*
%TD*%
M02*
