M48
;DRILL file {KiCad 6.0.0-rc1-unknown-ee465fb~66~ubuntu18.04.1} date Wed Oct  3 14:05:45 2018
;FORMAT={-:-/ absolute / metric / decimal}
FMAT,2
METRIC
T1C0.320
T2C0.400
T3C0.600
T4C1.020
T5C4.000
%
G90
G05
M71
T1
X47.02Y-73.45
X47.02Y-75.7
X47.02Y-77.95
X47.72Y-72.7
X47.72Y-74.95
X47.72Y-77.2
X48.42Y-74.2
X48.42Y-76.45
X48.42Y-78.7
X50.82Y-73.45
X50.82Y-75.7
X50.82Y-77.95
X51.52Y-72.7
X51.52Y-74.95
X51.52Y-77.2
X52.22Y-74.2
X52.22Y-76.45
X52.22Y-78.7
X54.62Y-73.45
X54.62Y-75.7
X54.62Y-77.95
X55.32Y-72.7
X55.32Y-74.95
X55.32Y-77.2
X56.02Y-74.2
X56.02Y-76.45
X56.02Y-78.7
X58.42Y-73.45
X58.42Y-75.7
X58.42Y-77.95
X59.12Y-72.7
X59.12Y-74.95
X59.12Y-77.2
X59.82Y-74.2
X59.82Y-76.45
X59.82Y-78.7
X47.02Y-89.45
X47.02Y-91.7
X47.02Y-93.95
X47.72Y-88.7
X47.72Y-90.95
X47.72Y-93.2
X48.42Y-90.2
X48.42Y-92.45
X48.42Y-94.7
X50.82Y-89.45
X50.82Y-91.7
X50.82Y-93.95
X51.52Y-88.7
X51.52Y-90.95
X51.52Y-93.2
X52.22Y-90.2
X52.22Y-92.45
X52.22Y-94.7
X54.62Y-89.45
X54.62Y-91.7
X54.62Y-93.95
X55.32Y-88.7
X55.32Y-90.95
X55.32Y-93.2
X56.02Y-90.2
X56.02Y-92.45
X56.02Y-94.7
X58.42Y-89.45
X58.42Y-91.7
X58.42Y-93.95
X59.12Y-88.7
X59.12Y-90.95
X59.12Y-93.2
X59.82Y-90.2
X59.82Y-92.45
X59.82Y-94.7
X47.02Y-57.45
X47.02Y-59.7
X47.02Y-61.95
X47.72Y-56.7
X47.72Y-58.95
X47.72Y-61.2
X48.42Y-58.2
X48.42Y-60.45
X48.42Y-62.7
X50.82Y-57.45
X50.82Y-59.7
X50.82Y-61.95
X51.52Y-56.7
X51.52Y-58.95
X51.52Y-61.2
X52.22Y-58.2
X52.22Y-60.45
X52.22Y-62.7
X54.62Y-57.45
X54.62Y-59.7
X54.62Y-61.95
X55.32Y-56.7
X55.32Y-58.95
X55.32Y-61.2
X56.02Y-58.2
X56.02Y-60.45
X56.02Y-62.7
X58.42Y-57.45
X58.42Y-59.7
X58.42Y-61.95
X59.12Y-56.7
X59.12Y-58.95
X59.12Y-61.2
X59.82Y-58.2
X59.82Y-60.45
X59.82Y-62.7
X47.02Y-41.45
X47.02Y-43.7
X47.02Y-45.95
X47.72Y-40.7
X47.72Y-42.95
X47.72Y-45.2
X48.42Y-42.2
X48.42Y-44.45
X48.42Y-46.7
X50.82Y-41.45
X50.82Y-43.7
X50.82Y-45.95
X51.52Y-40.7
X51.52Y-42.95
X51.52Y-45.2
X52.22Y-42.2
X52.22Y-44.45
X52.22Y-46.7
X54.62Y-41.45
X54.62Y-43.7
X54.62Y-45.95
X55.32Y-40.7
X55.32Y-42.95
X55.32Y-45.2
X56.02Y-42.2
X56.02Y-44.45
X56.02Y-46.7
X58.42Y-41.45
X58.42Y-43.7
X58.42Y-45.95
X59.12Y-40.7
X59.12Y-42.95
X59.12Y-45.2
X59.82Y-42.2
X59.82Y-44.45
X59.82Y-46.7
T2
X68.349Y-40.271
X68.349Y-56.271
X68.349Y-72.271
X68.349Y-88.271
X69.091Y-39.529
X69.091Y-55.529
X69.091Y-71.529
X69.091Y-87.529
X75.549Y-39.529
X75.549Y-55.529
X75.549Y-71.529
X75.549Y-87.529
X76.291Y-40.271
X76.291Y-56.271
X76.291Y-72.271
X76.291Y-88.271
X81.12Y-48.595
X81.12Y-64.595
X81.12Y-80.595
X81.12Y-96.595
X83.549Y-40.271
X83.549Y-56.271
X83.549Y-72.271
X83.549Y-88.271
X84.291Y-39.529
X84.291Y-55.529
X84.291Y-71.529
X84.291Y-87.529
X86.905Y-49.57
X86.905Y-65.445
X86.905Y-81.445
X86.905Y-97.445
X88.175Y-49.57
X88.175Y-65.445
X88.175Y-81.445
X88.175Y-97.445
X88.349Y-38.729
X88.349Y-54.729
X88.349Y-70.729
X88.349Y-86.729
X89.091Y-39.471
X89.091Y-55.471
X89.091Y-71.471
X89.091Y-87.471
X89.42Y-65.445
X89.42Y-81.445
X89.42Y-97.445
X89.445Y-49.57
X92.494Y-39.904
X92.494Y-55.904
X92.494Y-71.904
X92.494Y-87.904
X93.236Y-40.646
X93.236Y-56.646
X93.236Y-72.646
X93.236Y-88.646
X93.255Y-49.57
X93.255Y-65.445
X93.255Y-81.445
X93.255Y-97.445
X94.525Y-49.57
X94.525Y-65.445
X94.525Y-81.445
X94.525Y-97.445
X95.795Y-49.47
X95.795Y-65.47
X95.795Y-81.47
X95.795Y-97.47
X97.04Y-65.445
X97.04Y-81.445
X97.04Y-97.445
X97.065Y-49.57
X97.949Y-39.529
X97.949Y-55.529
X97.949Y-71.529
X97.949Y-87.529
X98.31Y-65.445
X98.31Y-81.445
X98.31Y-97.445
X98.335Y-49.57
X98.691Y-40.271
X98.691Y-56.271
X98.691Y-72.271
X98.691Y-88.271
X99.447Y-39.617
X99.447Y-55.617
X99.447Y-71.617
X99.447Y-87.617
X99.58Y-65.445
X99.58Y-81.445
X99.58Y-97.445
X99.605Y-49.57
X100.305Y-40.131
X100.305Y-56.131
X100.305Y-72.131
X100.305Y-88.131
X100.875Y-49.57
X100.875Y-65.445
X100.875Y-81.445
X100.875Y-97.445
T3
X33.0Y-52.0
X33.879Y-49.879
X33.879Y-54.121
X36.0Y-49.0
X36.0Y-55.0
X38.121Y-49.879
X38.121Y-54.121
X39.0Y-52.0
X106.85Y-83.8
X107.729Y-81.679
X107.729Y-85.921
X109.85Y-80.8
X109.85Y-86.8
X111.971Y-81.679
X111.971Y-85.921
X112.85Y-83.8
X33.0Y-83.8
X33.879Y-81.679
X33.879Y-85.921
X36.0Y-80.8
X36.0Y-86.8
X38.121Y-81.679
X38.121Y-85.921
X39.0Y-83.8
X106.85Y-52.0
X107.729Y-49.879
X107.729Y-54.121
X109.85Y-49.0
X109.85Y-55.0
X111.971Y-49.879
X111.971Y-54.121
X112.85Y-52.0
T4
X103.96Y-99.99
X106.46Y-99.99
X108.96Y-99.99
X111.46Y-99.99
T5
X36.0Y-52.0
X109.85Y-83.8
X36.0Y-83.8
X109.85Y-52.0
T0
M30
