%TF.GenerationSoftware,KiCad,Pcbnew,5.0.1-33cea8e~68~ubuntu18.10.1*%
%TF.CreationDate,2018-11-27T14:07:15-07:00*%
%TF.ProjectId,thelio-io-sas,7468656C696F2D696F2D7361732E6B69,rev?*%
%TF.SameCoordinates,Original*%
%TF.FileFunction,Copper,L4,Bot,Signal*%
%TF.FilePolarity,Positive*%
%FSLAX46Y46*%
G04 Gerber Fmt 4.6, Leading zero omitted, Abs format (unit mm)*
G04 Created by KiCad (PCBNEW 5.0.1-33cea8e~68~ubuntu18.10.1) date Tue Nov 27 14:07:15 2018*
%MOMM*%
%LPD*%
G01*
G04 APERTURE LIST*
%TA.AperFunction,NonConductor*%
%ADD10C,0.200000*%
%TD*%
%TA.AperFunction,NonConductor*%
%ADD11C,0.150000*%
%TD*%
%TA.AperFunction,ComponentPad*%
%ADD12C,0.370000*%
%TD*%
%TA.AperFunction,WasherPad*%
%ADD13C,2.600000*%
%TD*%
%TA.AperFunction,ComponentPad*%
%ADD14O,1.730000X2.030000*%
%TD*%
%TA.AperFunction,ComponentPad*%
%ADD15R,1.730000X2.030000*%
%TD*%
%TA.AperFunction,ViaPad*%
%ADD16C,0.800000*%
%TD*%
%TA.AperFunction,ViaPad*%
%ADD17C,0.400000*%
%TD*%
%TA.AperFunction,Conductor*%
%ADD18C,0.250000*%
%TD*%
%TA.AperFunction,Conductor*%
%ADD19C,0.127000*%
%TD*%
G04 APERTURE END LIST*
D10*
X77050000Y-18400000D02*
X77050000Y-53400000D01*
X75450000Y-16800000D02*
G75*
G02X77050000Y-18400000I0J-1600000D01*
G01*
X73850000Y-16800000D02*
X75450000Y-16800000D01*
X73850000Y-55000000D02*
X75450000Y-55000000D01*
X77050000Y-53400000D02*
G75*
G02X75450000Y-55000000I-1600000J0D01*
G01*
X70650000Y0D02*
G75*
G02X73850000Y-3200000I0J-3200000D01*
G01*
D11*
X73850000Y-68600000D02*
G75*
G02X70650000Y-71800000I-3200000J0D01*
G01*
D10*
X73850000Y-16800000D02*
X73850000Y-3200000D01*
X73850000Y-55000000D02*
X73850000Y-68600000D01*
X-3200000Y-18400000D02*
G75*
G02X-1600000Y-16800000I1600000J0D01*
G01*
X0Y-16800000D02*
X-1600000Y-16800000D01*
X0Y-55000000D02*
X-1600000Y-55000000D01*
X-1600000Y-55000000D02*
G75*
G02X-3200000Y-53400000I0J1600000D01*
G01*
X-3200000Y-53400000D02*
X-3200000Y-18400000D01*
X0Y-16800000D02*
X0Y-3200000D01*
X0Y-55000000D02*
X0Y-68600000D01*
X3200000Y0D02*
X70650000Y0D01*
X0Y-3200000D02*
G75*
G02X3200000Y0I3200000J0D01*
G01*
X70650000Y-71800000D02*
X3200000Y-71800000D01*
X3200000Y-71800000D02*
G75*
G02X0Y-68600000I0J3200000D01*
G01*
D12*
%TO.P,SAS0,A4*%
%TO.N,/sas0/T1+*%
X14820000Y-10950000D03*
%TO.P,SAS0,A3*%
%TO.N,GND*%
X15520000Y-10200000D03*
%TO.P,SAS0,A2*%
%TO.N,/sas0/CLK+*%
X16220000Y-9450000D03*
%TO.P,SAS0,A1*%
%TO.N,/sas0/CLK-*%
X14820000Y-8700000D03*
%TO.P,SAS0,A5*%
%TO.N,/sas0/T1-*%
X16220000Y-11700000D03*
%TO.P,SAS0,A7*%
%TO.N,/sas0/T3+*%
X14820000Y-13200000D03*
%TO.P,SAS0,A6*%
%TO.N,GND*%
X15520000Y-12450000D03*
%TO.P,SAS0,A9*%
X15520000Y-14700000D03*
%TO.P,SAS0,A8*%
%TO.N,/sas0/T3-*%
X16220000Y-13950000D03*
%TO.P,SAS0,B2*%
%TO.N,/sas0/RST*%
X12420000Y-9450000D03*
%TO.P,SAS0,B6*%
%TO.N,GND*%
X11720000Y-12450000D03*
%TO.P,SAS0,B1*%
%TO.N,Net-(SAS0-PadB1)*%
X11020000Y-8700000D03*
%TO.P,SAS0,B4*%
%TO.N,/sas0/T0+*%
X11020000Y-10950000D03*
%TO.P,SAS0,B9*%
%TO.N,GND*%
X11720000Y-14700000D03*
%TO.P,SAS0,B3*%
X11720000Y-10200000D03*
%TO.P,SAS0,B5*%
%TO.N,/sas0/T0-*%
X12420000Y-11700000D03*
%TO.P,SAS0,B8*%
%TO.N,/sas0/T2-*%
X12420000Y-13950000D03*
%TO.P,SAS0,B7*%
%TO.N,/sas0/T2+*%
X11020000Y-13200000D03*
%TO.P,SAS0,C2*%
%TO.N,Net-(SAS0-PadC2)*%
X8620000Y-9450000D03*
%TO.P,SAS0,C6*%
%TO.N,GND*%
X7920000Y-12450000D03*
%TO.P,SAS0,C1*%
%TO.N,/sas0/WAKE*%
X7220000Y-8700000D03*
%TO.P,SAS0,C4*%
%TO.N,/sas0/R1+*%
X7220000Y-10950000D03*
%TO.P,SAS0,C9*%
%TO.N,GND*%
X7920000Y-14700000D03*
%TO.P,SAS0,C3*%
X7920000Y-10200000D03*
%TO.P,SAS0,C5*%
%TO.N,/sas0/R1-*%
X8620000Y-11700000D03*
%TO.P,SAS0,C8*%
%TO.N,/sas0/R3-*%
X8620000Y-13950000D03*
%TO.P,SAS0,C7*%
%TO.N,/sas0/R3+*%
X7220000Y-13200000D03*
%TO.P,SAS0,D2*%
%TO.N,/sas0/SDAT*%
X4820000Y-9450000D03*
%TO.P,SAS0,D6*%
%TO.N,GND*%
X4120000Y-12450000D03*
%TO.P,SAS0,D1*%
%TO.N,/sas0/SCLK*%
X3420000Y-8700000D03*
%TO.P,SAS0,D4*%
%TO.N,/sas0/R0+*%
X3420000Y-10950000D03*
%TO.P,SAS0,D9*%
%TO.N,GND*%
X4120000Y-14700000D03*
%TO.P,SAS0,D3*%
X4120000Y-10200000D03*
%TO.P,SAS0,D5*%
%TO.N,/sas0/R0-*%
X4820000Y-11700000D03*
%TO.P,SAS0,D8*%
%TO.N,/sas0/R2-*%
X4820000Y-13950000D03*
%TO.P,SAS0,D7*%
%TO.N,/sas0/R2+*%
X3420000Y-13200000D03*
%TD*%
D13*
%TO.P,U2_0,*%
%TO.N,*%
X61365000Y-12560000D03*
X22635000Y-12560000D03*
%TD*%
D12*
%TO.P,SAS1,A4*%
%TO.N,/sas1/T1+*%
X14820000Y-26950000D03*
%TO.P,SAS1,A3*%
%TO.N,GND*%
X15520000Y-26200000D03*
%TO.P,SAS1,A2*%
%TO.N,/sas1/CLK+*%
X16220000Y-25450000D03*
%TO.P,SAS1,A1*%
%TO.N,/sas1/CLK-*%
X14820000Y-24700000D03*
%TO.P,SAS1,A5*%
%TO.N,/sas1/T1-*%
X16220000Y-27700000D03*
%TO.P,SAS1,A7*%
%TO.N,/sas1/T3+*%
X14820000Y-29200000D03*
%TO.P,SAS1,A6*%
%TO.N,GND*%
X15520000Y-28450000D03*
%TO.P,SAS1,A9*%
X15520000Y-30700000D03*
%TO.P,SAS1,A8*%
%TO.N,/sas1/T3-*%
X16220000Y-29950000D03*
%TO.P,SAS1,B2*%
%TO.N,/sas1/RST*%
X12420000Y-25450000D03*
%TO.P,SAS1,B6*%
%TO.N,GND*%
X11720000Y-28450000D03*
%TO.P,SAS1,B1*%
%TO.N,Net-(SAS1-PadB1)*%
X11020000Y-24700000D03*
%TO.P,SAS1,B4*%
%TO.N,/sas1/T0+*%
X11020000Y-26950000D03*
%TO.P,SAS1,B9*%
%TO.N,GND*%
X11720000Y-30700000D03*
%TO.P,SAS1,B3*%
X11720000Y-26200000D03*
%TO.P,SAS1,B5*%
%TO.N,/sas1/T0-*%
X12420000Y-27700000D03*
%TO.P,SAS1,B8*%
%TO.N,/sas1/T2-*%
X12420000Y-29950000D03*
%TO.P,SAS1,B7*%
%TO.N,/sas1/T2+*%
X11020000Y-29200000D03*
%TO.P,SAS1,C2*%
%TO.N,Net-(SAS1-PadC2)*%
X8620000Y-25450000D03*
%TO.P,SAS1,C6*%
%TO.N,GND*%
X7920000Y-28450000D03*
%TO.P,SAS1,C1*%
%TO.N,/sas1/WAKE*%
X7220000Y-24700000D03*
%TO.P,SAS1,C4*%
%TO.N,/sas1/R1+*%
X7220000Y-26950000D03*
%TO.P,SAS1,C9*%
%TO.N,GND*%
X7920000Y-30700000D03*
%TO.P,SAS1,C3*%
X7920000Y-26200000D03*
%TO.P,SAS1,C5*%
%TO.N,/sas1/R1-*%
X8620000Y-27700000D03*
%TO.P,SAS1,C8*%
%TO.N,/sas1/R3-*%
X8620000Y-29950000D03*
%TO.P,SAS1,C7*%
%TO.N,/sas1/R3+*%
X7220000Y-29200000D03*
%TO.P,SAS1,D2*%
%TO.N,/sas1/SDAT*%
X4820000Y-25450000D03*
%TO.P,SAS1,D6*%
%TO.N,GND*%
X4120000Y-28450000D03*
%TO.P,SAS1,D1*%
%TO.N,/sas1/SCLK*%
X3420000Y-24700000D03*
%TO.P,SAS1,D4*%
%TO.N,/sas1/R0+*%
X3420000Y-26950000D03*
%TO.P,SAS1,D9*%
%TO.N,GND*%
X4120000Y-30700000D03*
%TO.P,SAS1,D3*%
X4120000Y-26200000D03*
%TO.P,SAS1,D5*%
%TO.N,/sas1/R0-*%
X4820000Y-27700000D03*
%TO.P,SAS1,D8*%
%TO.N,/sas1/R2-*%
X4820000Y-29950000D03*
%TO.P,SAS1,D7*%
%TO.N,/sas1/R2+*%
X3420000Y-29200000D03*
%TD*%
D13*
%TO.P,U2_1,*%
%TO.N,*%
X61365000Y-28560000D03*
X22635000Y-28560000D03*
%TD*%
D12*
%TO.P,SAS2,A4*%
%TO.N,/sas2/T1+*%
X14820000Y-42950000D03*
%TO.P,SAS2,A3*%
%TO.N,GND*%
X15520000Y-42200000D03*
%TO.P,SAS2,A2*%
%TO.N,/sas2/CLK+*%
X16220000Y-41450000D03*
%TO.P,SAS2,A1*%
%TO.N,/sas2/CLK-*%
X14820000Y-40700000D03*
%TO.P,SAS2,A5*%
%TO.N,/sas2/T1-*%
X16220000Y-43700000D03*
%TO.P,SAS2,A7*%
%TO.N,/sas2/T3+*%
X14820000Y-45200000D03*
%TO.P,SAS2,A6*%
%TO.N,GND*%
X15520000Y-44450000D03*
%TO.P,SAS2,A9*%
X15520000Y-46700000D03*
%TO.P,SAS2,A8*%
%TO.N,/sas2/T3-*%
X16220000Y-45950000D03*
%TO.P,SAS2,B2*%
%TO.N,/sas2/RST*%
X12420000Y-41450000D03*
%TO.P,SAS2,B6*%
%TO.N,GND*%
X11720000Y-44450000D03*
%TO.P,SAS2,B1*%
%TO.N,Net-(SAS2-PadB1)*%
X11020000Y-40700000D03*
%TO.P,SAS2,B4*%
%TO.N,/sas2/T0+*%
X11020000Y-42950000D03*
%TO.P,SAS2,B9*%
%TO.N,GND*%
X11720000Y-46700000D03*
%TO.P,SAS2,B3*%
X11720000Y-42200000D03*
%TO.P,SAS2,B5*%
%TO.N,/sas2/T0-*%
X12420000Y-43700000D03*
%TO.P,SAS2,B8*%
%TO.N,/sas2/T2-*%
X12420000Y-45950000D03*
%TO.P,SAS2,B7*%
%TO.N,/sas2/T2+*%
X11020000Y-45200000D03*
%TO.P,SAS2,C2*%
%TO.N,Net-(SAS2-PadC2)*%
X8620000Y-41450000D03*
%TO.P,SAS2,C6*%
%TO.N,GND*%
X7920000Y-44450000D03*
%TO.P,SAS2,C1*%
%TO.N,/sas2/WAKE*%
X7220000Y-40700000D03*
%TO.P,SAS2,C4*%
%TO.N,/sas2/R1+*%
X7220000Y-42950000D03*
%TO.P,SAS2,C9*%
%TO.N,GND*%
X7920000Y-46700000D03*
%TO.P,SAS2,C3*%
X7920000Y-42200000D03*
%TO.P,SAS2,C5*%
%TO.N,/sas2/R1-*%
X8620000Y-43700000D03*
%TO.P,SAS2,C8*%
%TO.N,/sas2/R3-*%
X8620000Y-45950000D03*
%TO.P,SAS2,C7*%
%TO.N,/sas2/R3+*%
X7220000Y-45200000D03*
%TO.P,SAS2,D2*%
%TO.N,/sas2/SDAT*%
X4820000Y-41450000D03*
%TO.P,SAS2,D6*%
%TO.N,GND*%
X4120000Y-44450000D03*
%TO.P,SAS2,D1*%
%TO.N,/sas2/SCLK*%
X3420000Y-40700000D03*
%TO.P,SAS2,D4*%
%TO.N,/sas2/R0+*%
X3420000Y-42950000D03*
%TO.P,SAS2,D9*%
%TO.N,GND*%
X4120000Y-46700000D03*
%TO.P,SAS2,D3*%
X4120000Y-42200000D03*
%TO.P,SAS2,D5*%
%TO.N,/sas2/R0-*%
X4820000Y-43700000D03*
%TO.P,SAS2,D8*%
%TO.N,/sas2/R2-*%
X4820000Y-45950000D03*
%TO.P,SAS2,D7*%
%TO.N,/sas2/R2+*%
X3420000Y-45200000D03*
%TD*%
D13*
%TO.P,U2_2,*%
%TO.N,*%
X61365000Y-44560000D03*
X22635000Y-44560000D03*
%TD*%
%TO.P,U2_3,*%
%TO.N,*%
X22635000Y-60560000D03*
X61365000Y-60560000D03*
%TD*%
D12*
%TO.P,SAS3,D7*%
%TO.N,/sas3/R2+*%
X3420000Y-61200000D03*
%TO.P,SAS3,D8*%
%TO.N,/sas3/R2-*%
X4820000Y-61950000D03*
%TO.P,SAS3,D5*%
%TO.N,/sas3/R0-*%
X4820000Y-59700000D03*
%TO.P,SAS3,D3*%
%TO.N,GND*%
X4120000Y-58200000D03*
%TO.P,SAS3,D9*%
X4120000Y-62700000D03*
%TO.P,SAS3,D4*%
%TO.N,/sas3/R0+*%
X3420000Y-58950000D03*
%TO.P,SAS3,D1*%
%TO.N,/sas3/SCLK*%
X3420000Y-56700000D03*
%TO.P,SAS3,D6*%
%TO.N,GND*%
X4120000Y-60450000D03*
%TO.P,SAS3,D2*%
%TO.N,/sas3/SDAT*%
X4820000Y-57450000D03*
%TO.P,SAS3,C7*%
%TO.N,/sas3/R3+*%
X7220000Y-61200000D03*
%TO.P,SAS3,C8*%
%TO.N,/sas3/R3-*%
X8620000Y-61950000D03*
%TO.P,SAS3,C5*%
%TO.N,/sas3/R1-*%
X8620000Y-59700000D03*
%TO.P,SAS3,C3*%
%TO.N,GND*%
X7920000Y-58200000D03*
%TO.P,SAS3,C9*%
X7920000Y-62700000D03*
%TO.P,SAS3,C4*%
%TO.N,/sas3/R1+*%
X7220000Y-58950000D03*
%TO.P,SAS3,C1*%
%TO.N,/sas3/WAKE*%
X7220000Y-56700000D03*
%TO.P,SAS3,C6*%
%TO.N,GND*%
X7920000Y-60450000D03*
%TO.P,SAS3,C2*%
%TO.N,Net-(SAS3-PadC2)*%
X8620000Y-57450000D03*
%TO.P,SAS3,B7*%
%TO.N,/sas3/T2+*%
X11020000Y-61200000D03*
%TO.P,SAS3,B8*%
%TO.N,/sas3/T2-*%
X12420000Y-61950000D03*
%TO.P,SAS3,B5*%
%TO.N,/sas3/T0-*%
X12420000Y-59700000D03*
%TO.P,SAS3,B3*%
%TO.N,GND*%
X11720000Y-58200000D03*
%TO.P,SAS3,B9*%
X11720000Y-62700000D03*
%TO.P,SAS3,B4*%
%TO.N,/sas3/T0+*%
X11020000Y-58950000D03*
%TO.P,SAS3,B1*%
%TO.N,Net-(SAS3-PadB1)*%
X11020000Y-56700000D03*
%TO.P,SAS3,B6*%
%TO.N,GND*%
X11720000Y-60450000D03*
%TO.P,SAS3,B2*%
%TO.N,/sas3/RST*%
X12420000Y-57450000D03*
%TO.P,SAS3,A8*%
%TO.N,/sas3/T3-*%
X16220000Y-61950000D03*
%TO.P,SAS3,A9*%
%TO.N,GND*%
X15520000Y-62700000D03*
%TO.P,SAS3,A6*%
X15520000Y-60450000D03*
%TO.P,SAS3,A7*%
%TO.N,/sas3/T3+*%
X14820000Y-61200000D03*
%TO.P,SAS3,A5*%
%TO.N,/sas3/T1-*%
X16220000Y-59700000D03*
%TO.P,SAS3,A1*%
%TO.N,/sas3/CLK-*%
X14820000Y-56700000D03*
%TO.P,SAS3,A2*%
%TO.N,/sas3/CLK+*%
X16220000Y-57450000D03*
%TO.P,SAS3,A3*%
%TO.N,GND*%
X15520000Y-58200000D03*
%TO.P,SAS3,A4*%
%TO.N,/sas3/T1+*%
X14820000Y-58950000D03*
%TD*%
D14*
%TO.P,POWER0,4*%
%TO.N,+5V*%
X60960000Y-67990000D03*
%TO.P,POWER0,3*%
%TO.N,GND*%
X63460000Y-67990000D03*
%TO.P,POWER0,2*%
X65960000Y-67990000D03*
D15*
%TO.P,POWER0,1*%
%TO.N,+12V*%
X68460000Y-67990000D03*
%TD*%
D16*
%TO.N,GND*%
X43905000Y-49445000D03*
X54040000Y-49445000D03*
X51525000Y-49445000D03*
X46420000Y-49445000D03*
X45175000Y-49445000D03*
X43905000Y-33445000D03*
X54040000Y-33445000D03*
X51525000Y-33445000D03*
X46420000Y-33445000D03*
X45175000Y-33445000D03*
X43905000Y-17445000D03*
X54040000Y-17445000D03*
X51525000Y-17445000D03*
X46420000Y-17445000D03*
X45175000Y-17445000D03*
X43905000Y-65445000D03*
X54040000Y-65445000D03*
X51525000Y-65445000D03*
X46420000Y-65445000D03*
X45175000Y-65445000D03*
%TO.N,+12V*%
X57875000Y-49445000D03*
X56580000Y-49445000D03*
X55310000Y-49445000D03*
X57875000Y-33445000D03*
X56580000Y-33445000D03*
X55310000Y-33445000D03*
X57875000Y-17445000D03*
X56580000Y-17445000D03*
X55310000Y-17445000D03*
X57875000Y-65445000D03*
X56580000Y-65445000D03*
X55310000Y-65445000D03*
%TO.N,+5V*%
X47715000Y-49420000D03*
X50255000Y-49445000D03*
X48985000Y-49445000D03*
X47715000Y-33420000D03*
X50255000Y-33445000D03*
X48985000Y-33445000D03*
X47715000Y-17420000D03*
X50255000Y-17445000D03*
X48985000Y-17445000D03*
X47715000Y-65420000D03*
X50255000Y-65445000D03*
X48985000Y-65445000D03*
D17*
%TO.N,/sas0/RST*%
X38120000Y-16300000D03*
%TO.N,/sas0/WAKE*%
X40095000Y-16870000D03*
%TO.N,/sas0/SDAT*%
X56920000Y-8900000D03*
%TO.N,/sas0/SCLK*%
X56120000Y-8500000D03*
%TO.N,/sas0/R3+*%
X53924284Y-8495716D03*
%TO.N,/sas0/R3-*%
X53515716Y-8904284D03*
%TO.N,/sas0/T3-*%
X52324284Y-8904284D03*
%TO.N,/sas0/T3+*%
X51915716Y-8495716D03*
%TO.N,/sas0/R2+*%
X49124284Y-8495716D03*
%TO.N,/sas0/R2-*%
X48715716Y-8904284D03*
%TO.N,/sas0/T2-*%
X47524284Y-8904284D03*
%TO.N,/sas0/T2+*%
X47115716Y-8495716D03*
%TO.N,/sas0/R1+*%
X44324284Y-8495716D03*
%TO.N,/sas0/R1-*%
X43915716Y-8904284D03*
%TO.N,/sas0/T1-*%
X42724284Y-8904284D03*
%TO.N,/sas0/T1+*%
X42315716Y-8495716D03*
%TO.N,/sas0/R0+*%
X31524284Y-8495716D03*
%TO.N,/sas0/R0-*%
X31115716Y-8904284D03*
%TO.N,/sas0/T0-*%
X29924284Y-8904284D03*
%TO.N,/sas0/T0+*%
X29515716Y-8495716D03*
%TO.N,/sas0/CLK-*%
X26724284Y-8495716D03*
%TO.N,/sas0/CLK+*%
X26315716Y-8904284D03*
%TO.N,/sas1/RST*%
X38120000Y-32300000D03*
%TO.N,/sas1/WAKE*%
X40095000Y-32870000D03*
%TO.N,/sas1/SDAT*%
X56920000Y-24900000D03*
%TO.N,/sas1/SCLK*%
X56120000Y-24500000D03*
%TO.N,/sas1/R3+*%
X53924284Y-24495716D03*
%TO.N,/sas1/R3-*%
X53515716Y-24904284D03*
%TO.N,/sas1/T3-*%
X52324284Y-24904284D03*
%TO.N,/sas1/T3+*%
X51915716Y-24495716D03*
%TO.N,/sas1/R2+*%
X49124284Y-24495716D03*
%TO.N,/sas1/R2-*%
X48715716Y-24904284D03*
%TO.N,/sas1/T2-*%
X47524284Y-24904284D03*
%TO.N,/sas1/T2+*%
X47115716Y-24495716D03*
%TO.N,/sas1/R1+*%
X44324284Y-24495716D03*
%TO.N,/sas1/R1-*%
X43915716Y-24904284D03*
%TO.N,/sas1/T1-*%
X42724284Y-24904284D03*
%TO.N,/sas1/T1+*%
X42315716Y-24495716D03*
%TO.N,/sas1/R0+*%
X31524284Y-24495716D03*
%TO.N,/sas1/R0-*%
X31115716Y-24904284D03*
%TO.N,/sas1/T0-*%
X29924284Y-24904284D03*
%TO.N,/sas1/T0+*%
X29515716Y-24495716D03*
%TO.N,/sas1/CLK-*%
X26724284Y-24495716D03*
%TO.N,/sas1/CLK+*%
X26315716Y-24904284D03*
%TO.N,/sas2/RST*%
X38120000Y-48300000D03*
%TO.N,/sas2/WAKE*%
X40095000Y-48870000D03*
%TO.N,/sas2/SDAT*%
X56920000Y-40900000D03*
%TO.N,/sas2/SCLK*%
X56120000Y-40500000D03*
%TO.N,/sas2/R3+*%
X53924284Y-40495716D03*
%TO.N,/sas2/R3-*%
X53515716Y-40904284D03*
%TO.N,/sas2/T3-*%
X52324284Y-40904284D03*
%TO.N,/sas2/T3+*%
X51915716Y-40495716D03*
%TO.N,/sas2/R2+*%
X49124284Y-40495716D03*
%TO.N,/sas2/R2-*%
X48715716Y-40904284D03*
%TO.N,/sas2/T2-*%
X47524284Y-40904284D03*
%TO.N,/sas2/T2+*%
X47115716Y-40495716D03*
%TO.N,/sas2/R1+*%
X44324284Y-40495716D03*
%TO.N,/sas2/R1-*%
X43915716Y-40904284D03*
%TO.N,/sas2/T1-*%
X42724284Y-40904284D03*
%TO.N,/sas2/T1+*%
X42315716Y-40495716D03*
%TO.N,/sas2/R0+*%
X31524284Y-40495716D03*
%TO.N,/sas2/R0-*%
X31115716Y-40904284D03*
%TO.N,/sas2/T0-*%
X29924284Y-40904284D03*
%TO.N,/sas2/T0+*%
X29515716Y-40495716D03*
%TO.N,/sas2/CLK-*%
X26724284Y-40495716D03*
%TO.N,/sas2/CLK+*%
X26315716Y-40904284D03*
%TO.N,/sas3/RST*%
X38120000Y-64300000D03*
%TO.N,/sas3/WAKE*%
X40095000Y-64870000D03*
%TO.N,/sas3/SDAT*%
X56920000Y-56900000D03*
%TO.N,/sas3/SCLK*%
X56120000Y-56500000D03*
%TO.N,/sas3/R3+*%
X53924284Y-56495716D03*
%TO.N,/sas3/R3-*%
X53515716Y-56904284D03*
%TO.N,/sas3/T3-*%
X52324284Y-56904284D03*
%TO.N,/sas3/T3+*%
X51915716Y-56495716D03*
%TO.N,/sas3/R2+*%
X49124284Y-56495716D03*
%TO.N,/sas3/R2-*%
X48715716Y-56904284D03*
%TO.N,/sas3/T2-*%
X47524284Y-56904284D03*
%TO.N,/sas3/T2+*%
X47115716Y-56495716D03*
%TO.N,/sas3/R1+*%
X44324284Y-56495716D03*
%TO.N,/sas3/R1-*%
X43915716Y-56904284D03*
%TO.N,/sas3/T1-*%
X42724284Y-56904284D03*
%TO.N,/sas3/T1+*%
X42315716Y-56495716D03*
%TO.N,/sas3/R0+*%
X31524284Y-56495716D03*
%TO.N,/sas3/R0-*%
X31115716Y-56904284D03*
%TO.N,/sas3/T0-*%
X29924284Y-56904284D03*
%TO.N,/sas3/T0+*%
X29515716Y-56495716D03*
%TO.N,/sas3/CLK-*%
X26724284Y-56495716D03*
%TO.N,/sas3/CLK+*%
X26315716Y-56904284D03*
%TD*%
D18*
%TO.N,GND*%
X54065000Y-49420000D02*
X54040000Y-49445000D01*
X46445000Y-49420000D02*
X46420000Y-49445000D01*
X15520000Y-42200000D02*
X15520000Y-44450000D01*
X54065000Y-33420000D02*
X54040000Y-33445000D01*
X46445000Y-33420000D02*
X46420000Y-33445000D01*
X15520000Y-26200000D02*
X15520000Y-28450000D01*
X54065000Y-17420000D02*
X54040000Y-17445000D01*
X46445000Y-17420000D02*
X46420000Y-17445000D01*
X15520000Y-10200000D02*
X15520000Y-12450000D01*
X54065000Y-65420000D02*
X54040000Y-65445000D01*
X46445000Y-65420000D02*
X46420000Y-65445000D01*
X15520000Y-58200000D02*
X15520000Y-60450000D01*
%TO.N,+12V*%
X56605000Y-49420000D02*
X56580000Y-49445000D01*
X55335000Y-49420000D02*
X55310000Y-49445000D01*
X56605000Y-33420000D02*
X56580000Y-33445000D01*
X55335000Y-33420000D02*
X55310000Y-33445000D01*
X56605000Y-17420000D02*
X56580000Y-17445000D01*
X55335000Y-17420000D02*
X55310000Y-17445000D01*
X56605000Y-65420000D02*
X56580000Y-65445000D01*
X55335000Y-65420000D02*
X55310000Y-65445000D01*
D19*
%TO.N,/sas0/RST*%
X21095000Y-15470000D02*
X15626218Y-15470000D01*
X15626218Y-15470000D02*
X13495000Y-13338782D01*
X13495000Y-13338782D02*
X13495000Y-10525000D01*
X38120000Y-16300000D02*
X21925000Y-16300000D01*
X21925000Y-16300000D02*
X21095000Y-15470000D01*
X13495000Y-10525000D02*
X12420000Y-9450000D01*
%TO.N,/sas0/WAKE*%
X40095000Y-16870000D02*
X21895000Y-16870000D01*
X6495000Y-9425000D02*
X7220000Y-8700000D01*
X7895000Y-15870000D02*
X6495000Y-14470000D01*
X21895000Y-16870000D02*
X20895000Y-15870000D01*
X6495000Y-14470000D02*
X6495000Y-9425000D01*
X20895000Y-15870000D02*
X7895000Y-15870000D01*
%TO.N,/sas0/SDAT*%
X54920000Y-7900000D02*
X6370000Y-7900000D01*
X6370000Y-7900000D02*
X4820000Y-9450000D01*
X56920000Y-8900000D02*
X55920000Y-8900000D01*
X55920000Y-8900000D02*
X54920000Y-7900000D01*
%TO.N,/sas0/SCLK*%
X4620000Y-7500000D02*
X3420000Y-8700000D01*
X56120000Y-8500000D02*
X55120000Y-7500000D01*
X55120000Y-7500000D02*
X4620000Y-7500000D01*
%TO.N,/sas0/CLK-*%
X16004473Y-8700000D02*
X14820000Y-8700000D01*
X26724284Y-8495716D02*
X16208757Y-8495716D01*
X16208757Y-8495716D02*
X16004473Y-8700000D01*
%TO.N,/sas0/CLK+*%
X18425000Y-8978316D02*
X18602800Y-8800516D01*
X24577000Y-8978316D02*
X24780200Y-8978316D01*
X24780200Y-8978316D02*
X24958000Y-8800516D01*
X25339000Y-8978316D02*
X25542200Y-8978316D01*
X24958000Y-8800516D02*
X25161200Y-8800516D01*
X16335011Y-8800516D02*
X16520000Y-8800516D01*
X25542200Y-8978316D02*
X25720000Y-8800516D01*
X18221800Y-8978316D02*
X18425000Y-8978316D01*
X25161200Y-8800516D02*
X25339000Y-8978316D01*
X16520000Y-8800516D02*
X16697800Y-8978316D01*
X25720000Y-8800516D02*
X26211948Y-8800516D01*
X18044000Y-8800516D02*
X18221800Y-8978316D01*
X17840800Y-8800516D02*
X18044000Y-8800516D01*
X20330000Y-8800516D02*
X20507800Y-8978316D01*
X23256200Y-8978316D02*
X23434000Y-8800516D01*
X17663000Y-8978316D02*
X17840800Y-8800516D01*
X16220000Y-8915527D02*
X16335011Y-8800516D01*
X17282000Y-8800516D02*
X17459800Y-8978316D01*
X19364800Y-8800516D02*
X19568000Y-8800516D01*
X16901000Y-8978316D02*
X17078800Y-8800516D01*
X18602800Y-8800516D02*
X18806000Y-8800516D01*
X16697800Y-8978316D02*
X16901000Y-8978316D01*
X24018200Y-8978316D02*
X24196000Y-8800516D01*
X16220000Y-9450000D02*
X16220000Y-8915527D01*
X18983800Y-8978316D02*
X19187000Y-8978316D01*
X17078800Y-8800516D02*
X17282000Y-8800516D01*
X18806000Y-8800516D02*
X18983800Y-8978316D01*
X19187000Y-8978316D02*
X19364800Y-8800516D01*
X19568000Y-8800516D02*
X19745800Y-8978316D01*
X17459800Y-8978316D02*
X17663000Y-8978316D01*
X19745800Y-8978316D02*
X19949000Y-8978316D01*
X19949000Y-8978316D02*
X20126800Y-8800516D01*
X23637200Y-8800516D02*
X23815000Y-8978316D01*
X26211948Y-8800516D02*
X26315716Y-8904284D01*
X20126800Y-8800516D02*
X20330000Y-8800516D01*
X20507800Y-8978316D02*
X20711000Y-8978316D01*
X23053000Y-8978316D02*
X23256200Y-8978316D01*
X24399200Y-8800516D02*
X24577000Y-8978316D01*
X23434000Y-8800516D02*
X23637200Y-8800516D01*
X20711000Y-8978316D02*
X20888800Y-8800516D01*
X22875200Y-8800516D02*
X23053000Y-8978316D01*
X24196000Y-8800516D02*
X24399200Y-8800516D01*
X20888800Y-8800516D02*
X22875200Y-8800516D01*
X23815000Y-8978316D02*
X24018200Y-8978316D01*
%TO.N,/sas1/RST*%
X21095000Y-31470000D02*
X15626218Y-31470000D01*
X15626218Y-31470000D02*
X13495000Y-29338782D01*
X13495000Y-29338782D02*
X13495000Y-26525000D01*
X38120000Y-32300000D02*
X21925000Y-32300000D01*
X21925000Y-32300000D02*
X21095000Y-31470000D01*
X13495000Y-26525000D02*
X12420000Y-25450000D01*
%TO.N,/sas1/WAKE*%
X40095000Y-32870000D02*
X21895000Y-32870000D01*
X6495000Y-25425000D02*
X7220000Y-24700000D01*
X7895000Y-31870000D02*
X6495000Y-30470000D01*
X21895000Y-32870000D02*
X20895000Y-31870000D01*
X6495000Y-30470000D02*
X6495000Y-25425000D01*
X20895000Y-31870000D02*
X7895000Y-31870000D01*
%TO.N,/sas1/SDAT*%
X54920000Y-23900000D02*
X6370000Y-23900000D01*
X6370000Y-23900000D02*
X4820000Y-25450000D01*
X56920000Y-24900000D02*
X55920000Y-24900000D01*
X55920000Y-24900000D02*
X54920000Y-23900000D01*
%TO.N,/sas1/SCLK*%
X4620000Y-23500000D02*
X3420000Y-24700000D01*
X56120000Y-24500000D02*
X55120000Y-23500000D01*
X55120000Y-23500000D02*
X4620000Y-23500000D01*
%TO.N,/sas1/CLK-*%
X16004473Y-24700000D02*
X14820000Y-24700000D01*
X26724284Y-24495716D02*
X16208757Y-24495716D01*
X16208757Y-24495716D02*
X16004473Y-24700000D01*
%TO.N,/sas1/CLK+*%
X18425000Y-24978316D02*
X18602800Y-24800516D01*
X24577000Y-24978316D02*
X24780200Y-24978316D01*
X24780200Y-24978316D02*
X24958000Y-24800516D01*
X25339000Y-24978316D02*
X25542200Y-24978316D01*
X24958000Y-24800516D02*
X25161200Y-24800516D01*
X16335011Y-24800516D02*
X16520000Y-24800516D01*
X25542200Y-24978316D02*
X25720000Y-24800516D01*
X18221800Y-24978316D02*
X18425000Y-24978316D01*
X25161200Y-24800516D02*
X25339000Y-24978316D01*
X16520000Y-24800516D02*
X16697800Y-24978316D01*
X25720000Y-24800516D02*
X26211948Y-24800516D01*
X18044000Y-24800516D02*
X18221800Y-24978316D01*
X17840800Y-24800516D02*
X18044000Y-24800516D01*
X20330000Y-24800516D02*
X20507800Y-24978316D01*
X23256200Y-24978316D02*
X23434000Y-24800516D01*
X17663000Y-24978316D02*
X17840800Y-24800516D01*
X16220000Y-24915527D02*
X16335011Y-24800516D01*
X17282000Y-24800516D02*
X17459800Y-24978316D01*
X19364800Y-24800516D02*
X19568000Y-24800516D01*
X16901000Y-24978316D02*
X17078800Y-24800516D01*
X18602800Y-24800516D02*
X18806000Y-24800516D01*
X16697800Y-24978316D02*
X16901000Y-24978316D01*
X24018200Y-24978316D02*
X24196000Y-24800516D01*
X16220000Y-25450000D02*
X16220000Y-24915527D01*
X18983800Y-24978316D02*
X19187000Y-24978316D01*
X17078800Y-24800516D02*
X17282000Y-24800516D01*
X18806000Y-24800516D02*
X18983800Y-24978316D01*
X19187000Y-24978316D02*
X19364800Y-24800516D01*
X19568000Y-24800516D02*
X19745800Y-24978316D01*
X17459800Y-24978316D02*
X17663000Y-24978316D01*
X19745800Y-24978316D02*
X19949000Y-24978316D01*
X19949000Y-24978316D02*
X20126800Y-24800516D01*
X23637200Y-24800516D02*
X23815000Y-24978316D01*
X26211948Y-24800516D02*
X26315716Y-24904284D01*
X20126800Y-24800516D02*
X20330000Y-24800516D01*
X20507800Y-24978316D02*
X20711000Y-24978316D01*
X23053000Y-24978316D02*
X23256200Y-24978316D01*
X24399200Y-24800516D02*
X24577000Y-24978316D01*
X23434000Y-24800516D02*
X23637200Y-24800516D01*
X20711000Y-24978316D02*
X20888800Y-24800516D01*
X22875200Y-24800516D02*
X23053000Y-24978316D01*
X24196000Y-24800516D02*
X24399200Y-24800516D01*
X20888800Y-24800516D02*
X22875200Y-24800516D01*
X23815000Y-24978316D02*
X24018200Y-24978316D01*
%TO.N,/sas2/RST*%
X21095000Y-47470000D02*
X15626218Y-47470000D01*
X15626218Y-47470000D02*
X13495000Y-45338782D01*
X13495000Y-45338782D02*
X13495000Y-42525000D01*
X38120000Y-48300000D02*
X21925000Y-48300000D01*
X21925000Y-48300000D02*
X21095000Y-47470000D01*
X13495000Y-42525000D02*
X12420000Y-41450000D01*
%TO.N,/sas2/WAKE*%
X40095000Y-48870000D02*
X21895000Y-48870000D01*
X6495000Y-41425000D02*
X7220000Y-40700000D01*
X7895000Y-47870000D02*
X6495000Y-46470000D01*
X21895000Y-48870000D02*
X20895000Y-47870000D01*
X6495000Y-46470000D02*
X6495000Y-41425000D01*
X20895000Y-47870000D02*
X7895000Y-47870000D01*
%TO.N,/sas2/SDAT*%
X54920000Y-39900000D02*
X6370000Y-39900000D01*
X6370000Y-39900000D02*
X4820000Y-41450000D01*
X56920000Y-40900000D02*
X55920000Y-40900000D01*
X55920000Y-40900000D02*
X54920000Y-39900000D01*
%TO.N,/sas2/SCLK*%
X4620000Y-39500000D02*
X3420000Y-40700000D01*
X56120000Y-40500000D02*
X55120000Y-39500000D01*
X55120000Y-39500000D02*
X4620000Y-39500000D01*
%TO.N,/sas2/CLK-*%
X16004473Y-40700000D02*
X14820000Y-40700000D01*
X26724284Y-40495716D02*
X16208757Y-40495716D01*
X16208757Y-40495716D02*
X16004473Y-40700000D01*
%TO.N,/sas2/CLK+*%
X18425000Y-40978316D02*
X18602800Y-40800516D01*
X24577000Y-40978316D02*
X24780200Y-40978316D01*
X24780200Y-40978316D02*
X24958000Y-40800516D01*
X25339000Y-40978316D02*
X25542200Y-40978316D01*
X24958000Y-40800516D02*
X25161200Y-40800516D01*
X16335011Y-40800516D02*
X16520000Y-40800516D01*
X25542200Y-40978316D02*
X25720000Y-40800516D01*
X18221800Y-40978316D02*
X18425000Y-40978316D01*
X25161200Y-40800516D02*
X25339000Y-40978316D01*
X16520000Y-40800516D02*
X16697800Y-40978316D01*
X25720000Y-40800516D02*
X26211948Y-40800516D01*
X18044000Y-40800516D02*
X18221800Y-40978316D01*
X17840800Y-40800516D02*
X18044000Y-40800516D01*
X20330000Y-40800516D02*
X20507800Y-40978316D01*
X23256200Y-40978316D02*
X23434000Y-40800516D01*
X17663000Y-40978316D02*
X17840800Y-40800516D01*
X16220000Y-40915527D02*
X16335011Y-40800516D01*
X17282000Y-40800516D02*
X17459800Y-40978316D01*
X19364800Y-40800516D02*
X19568000Y-40800516D01*
X16901000Y-40978316D02*
X17078800Y-40800516D01*
X18602800Y-40800516D02*
X18806000Y-40800516D01*
X16697800Y-40978316D02*
X16901000Y-40978316D01*
X24018200Y-40978316D02*
X24196000Y-40800516D01*
X16220000Y-41450000D02*
X16220000Y-40915527D01*
X18983800Y-40978316D02*
X19187000Y-40978316D01*
X17078800Y-40800516D02*
X17282000Y-40800516D01*
X18806000Y-40800516D02*
X18983800Y-40978316D01*
X19187000Y-40978316D02*
X19364800Y-40800516D01*
X19568000Y-40800516D02*
X19745800Y-40978316D01*
X17459800Y-40978316D02*
X17663000Y-40978316D01*
X19745800Y-40978316D02*
X19949000Y-40978316D01*
X19949000Y-40978316D02*
X20126800Y-40800516D01*
X23637200Y-40800516D02*
X23815000Y-40978316D01*
X26211948Y-40800516D02*
X26315716Y-40904284D01*
X20126800Y-40800516D02*
X20330000Y-40800516D01*
X20507800Y-40978316D02*
X20711000Y-40978316D01*
X23053000Y-40978316D02*
X23256200Y-40978316D01*
X24399200Y-40800516D02*
X24577000Y-40978316D01*
X23434000Y-40800516D02*
X23637200Y-40800516D01*
X20711000Y-40978316D02*
X20888800Y-40800516D01*
X22875200Y-40800516D02*
X23053000Y-40978316D01*
X24196000Y-40800516D02*
X24399200Y-40800516D01*
X20888800Y-40800516D02*
X22875200Y-40800516D01*
X23815000Y-40978316D02*
X24018200Y-40978316D01*
%TO.N,/sas3/RST*%
X21095000Y-63470000D02*
X15626218Y-63470000D01*
X15626218Y-63470000D02*
X13495000Y-61338782D01*
X13495000Y-61338782D02*
X13495000Y-58525000D01*
X38120000Y-64300000D02*
X21925000Y-64300000D01*
X21925000Y-64300000D02*
X21095000Y-63470000D01*
X13495000Y-58525000D02*
X12420000Y-57450000D01*
%TO.N,/sas3/WAKE*%
X40095000Y-64870000D02*
X21895000Y-64870000D01*
X6495000Y-57425000D02*
X7220000Y-56700000D01*
X7895000Y-63870000D02*
X6495000Y-62470000D01*
X21895000Y-64870000D02*
X20895000Y-63870000D01*
X6495000Y-62470000D02*
X6495000Y-57425000D01*
X20895000Y-63870000D02*
X7895000Y-63870000D01*
%TO.N,/sas3/SDAT*%
X54920000Y-55900000D02*
X6370000Y-55900000D01*
X6370000Y-55900000D02*
X4820000Y-57450000D01*
X56920000Y-56900000D02*
X55920000Y-56900000D01*
X55920000Y-56900000D02*
X54920000Y-55900000D01*
%TO.N,/sas3/SCLK*%
X4620000Y-55500000D02*
X3420000Y-56700000D01*
X56120000Y-56500000D02*
X55120000Y-55500000D01*
X55120000Y-55500000D02*
X4620000Y-55500000D01*
%TO.N,/sas3/CLK-*%
X16208757Y-56495716D02*
X16004473Y-56700000D01*
X26724284Y-56495716D02*
X16208757Y-56495716D01*
X16004473Y-56700000D02*
X14820000Y-56700000D01*
%TO.N,/sas3/CLK+*%
X25542200Y-56978316D02*
X25720000Y-56800516D01*
X25339000Y-56978316D02*
X25542200Y-56978316D01*
X24780200Y-56978316D02*
X24958000Y-56800516D01*
X24577000Y-56978316D02*
X24780200Y-56978316D01*
X18425000Y-56978316D02*
X18602800Y-56800516D01*
X16335011Y-56800516D02*
X16520000Y-56800516D01*
X24958000Y-56800516D02*
X25161200Y-56800516D01*
X18221800Y-56978316D02*
X18425000Y-56978316D01*
X25161200Y-56800516D02*
X25339000Y-56978316D01*
X16520000Y-56800516D02*
X16697800Y-56978316D01*
X25720000Y-56800516D02*
X26211948Y-56800516D01*
X18044000Y-56800516D02*
X18221800Y-56978316D01*
X17840800Y-56800516D02*
X18044000Y-56800516D01*
X20330000Y-56800516D02*
X20507800Y-56978316D01*
X23256200Y-56978316D02*
X23434000Y-56800516D01*
X17663000Y-56978316D02*
X17840800Y-56800516D01*
X16220000Y-56915527D02*
X16335011Y-56800516D01*
X17282000Y-56800516D02*
X17459800Y-56978316D01*
X19364800Y-56800516D02*
X19568000Y-56800516D01*
X16901000Y-56978316D02*
X17078800Y-56800516D01*
X18602800Y-56800516D02*
X18806000Y-56800516D01*
X16697800Y-56978316D02*
X16901000Y-56978316D01*
X24018200Y-56978316D02*
X24196000Y-56800516D01*
X16220000Y-57450000D02*
X16220000Y-56915527D01*
X18983800Y-56978316D02*
X19187000Y-56978316D01*
X17078800Y-56800516D02*
X17282000Y-56800516D01*
X18806000Y-56800516D02*
X18983800Y-56978316D01*
X19187000Y-56978316D02*
X19364800Y-56800516D01*
X19568000Y-56800516D02*
X19745800Y-56978316D01*
X17459800Y-56978316D02*
X17663000Y-56978316D01*
X19745800Y-56978316D02*
X19949000Y-56978316D01*
X19949000Y-56978316D02*
X20126800Y-56800516D01*
X23637200Y-56800516D02*
X23815000Y-56978316D01*
X26211948Y-56800516D02*
X26315716Y-56904284D01*
X20126800Y-56800516D02*
X20330000Y-56800516D01*
X20507800Y-56978316D02*
X20711000Y-56978316D01*
X23053000Y-56978316D02*
X23256200Y-56978316D01*
X24399200Y-56800516D02*
X24577000Y-56978316D01*
X23434000Y-56800516D02*
X23637200Y-56800516D01*
X20711000Y-56978316D02*
X20888800Y-56800516D01*
X22875200Y-56800516D02*
X23053000Y-56978316D01*
X24196000Y-56800516D02*
X24399200Y-56800516D01*
X20888800Y-56800516D02*
X22875200Y-56800516D01*
X23815000Y-56978316D02*
X24018200Y-56978316D01*
%TD*%
M02*
