%TF.GenerationSoftware,KiCad,Pcbnew,5.0.1-33cea8e~68~ubuntu18.10.1*%
%TF.CreationDate,2018-11-27T14:07:15-07:00*%
%TF.ProjectId,thelio-io-sas,7468656C696F2D696F2D7361732E6B69,rev?*%
%TF.SameCoordinates,Original*%
%TF.FileFunction,Legend,Top*%
%TF.FilePolarity,Positive*%
%FSLAX46Y46*%
G04 Gerber Fmt 4.6, Leading zero omitted, Abs format (unit mm)*
G04 Created by KiCad (PCBNEW 5.0.1-33cea8e~68~ubuntu18.10.1) date Tue Nov 27 14:07:15 2018*
%MOMM*%
%LPD*%
G01*
G04 APERTURE LIST*
%ADD10C,0.200000*%
%ADD11C,0.150000*%
%ADD12C,0.120000*%
G04 APERTURE END LIST*
D10*
X77050000Y-18400000D02*
X77050000Y-53400000D01*
X75450000Y-16800000D02*
G75*
G02X77050000Y-18400000I0J-1600000D01*
G01*
X73850000Y-16800000D02*
X75450000Y-16800000D01*
X73850000Y-55000000D02*
X75450000Y-55000000D01*
X77050000Y-53400000D02*
G75*
G02X75450000Y-55000000I-1600000J0D01*
G01*
X70650000Y0D02*
G75*
G02X73850000Y-3200000I0J-3200000D01*
G01*
D11*
X73850000Y-68600000D02*
G75*
G02X70650000Y-71800000I-3200000J0D01*
G01*
D10*
X73850000Y-16800000D02*
X73850000Y-3200000D01*
X73850000Y-55000000D02*
X73850000Y-68600000D01*
X-3200000Y-18400000D02*
G75*
G02X-1600000Y-16800000I1600000J0D01*
G01*
X0Y-16800000D02*
X-1600000Y-16800000D01*
X0Y-55000000D02*
X-1600000Y-55000000D01*
X-1600000Y-55000000D02*
G75*
G02X-3200000Y-53400000I0J1600000D01*
G01*
X-3200000Y-53400000D02*
X-3200000Y-18400000D01*
X0Y-16800000D02*
X0Y-3200000D01*
X0Y-55000000D02*
X0Y-68600000D01*
X3200000Y0D02*
X70650000Y0D01*
X0Y-3200000D02*
G75*
G02X3200000Y0I3200000J0D01*
G01*
X70650000Y-71800000D02*
X3200000Y-71800000D01*
X3200000Y-71800000D02*
G75*
G02X0Y-68600000I0J3200000D01*
G01*
D12*
%TO.C,U2_0*%
X20400000Y-7100000D02*
X63600000Y-7100000D01*
X63600000Y-7100000D02*
X63600000Y-16700000D01*
X63600000Y-16700000D02*
X20400000Y-16700000D01*
X20400000Y-16700000D02*
X20400000Y-7100000D01*
%TO.C,U2_1*%
X20400000Y-23100000D02*
X63600000Y-23100000D01*
X63600000Y-23100000D02*
X63600000Y-32700000D01*
X63600000Y-32700000D02*
X20400000Y-32700000D01*
X20400000Y-32700000D02*
X20400000Y-23100000D01*
%TO.C,U2_2*%
X20400000Y-39100000D02*
X63600000Y-39100000D01*
X63600000Y-39100000D02*
X63600000Y-48700000D01*
X63600000Y-48700000D02*
X20400000Y-48700000D01*
X20400000Y-48700000D02*
X20400000Y-39100000D01*
%TO.C,U2_3*%
X20400000Y-64700000D02*
X20400000Y-55100000D01*
X63600000Y-64700000D02*
X20400000Y-64700000D01*
X63600000Y-55100000D02*
X63600000Y-64700000D01*
X20400000Y-55100000D02*
X63600000Y-55100000D01*
%TD*%
%TO.C,U2_0*%
D11*
X40380952Y-17752380D02*
X40380952Y-18561904D01*
X40428571Y-18657142D01*
X40476190Y-18704761D01*
X40571428Y-18752380D01*
X40761904Y-18752380D01*
X40857142Y-18704761D01*
X40904761Y-18657142D01*
X40952380Y-18561904D01*
X40952380Y-17752380D01*
X41380952Y-17847619D02*
X41428571Y-17800000D01*
X41523809Y-17752380D01*
X41761904Y-17752380D01*
X41857142Y-17800000D01*
X41904761Y-17847619D01*
X41952380Y-17942857D01*
X41952380Y-18038095D01*
X41904761Y-18180952D01*
X41333333Y-18752380D01*
X41952380Y-18752380D01*
X42142857Y-18847619D02*
X42904761Y-18847619D01*
X43333333Y-17752380D02*
X43428571Y-17752380D01*
X43523809Y-17800000D01*
X43571428Y-17847619D01*
X43619047Y-17942857D01*
X43666666Y-18133333D01*
X43666666Y-18371428D01*
X43619047Y-18561904D01*
X43571428Y-18657142D01*
X43523809Y-18704761D01*
X43428571Y-18752380D01*
X43333333Y-18752380D01*
X43238095Y-18704761D01*
X43190476Y-18657142D01*
X43142857Y-18561904D01*
X43095238Y-18371428D01*
X43095238Y-18133333D01*
X43142857Y-17942857D01*
X43190476Y-17847619D01*
X43238095Y-17800000D01*
X43333333Y-17752380D01*
%TO.C,U2_1*%
X40380952Y-33752380D02*
X40380952Y-34561904D01*
X40428571Y-34657142D01*
X40476190Y-34704761D01*
X40571428Y-34752380D01*
X40761904Y-34752380D01*
X40857142Y-34704761D01*
X40904761Y-34657142D01*
X40952380Y-34561904D01*
X40952380Y-33752380D01*
X41380952Y-33847619D02*
X41428571Y-33800000D01*
X41523809Y-33752380D01*
X41761904Y-33752380D01*
X41857142Y-33800000D01*
X41904761Y-33847619D01*
X41952380Y-33942857D01*
X41952380Y-34038095D01*
X41904761Y-34180952D01*
X41333333Y-34752380D01*
X41952380Y-34752380D01*
X42142857Y-34847619D02*
X42904761Y-34847619D01*
X43666666Y-34752380D02*
X43095238Y-34752380D01*
X43380952Y-34752380D02*
X43380952Y-33752380D01*
X43285714Y-33895238D01*
X43190476Y-33990476D01*
X43095238Y-34038095D01*
%TO.C,U2_2*%
X40380952Y-49752380D02*
X40380952Y-50561904D01*
X40428571Y-50657142D01*
X40476190Y-50704761D01*
X40571428Y-50752380D01*
X40761904Y-50752380D01*
X40857142Y-50704761D01*
X40904761Y-50657142D01*
X40952380Y-50561904D01*
X40952380Y-49752380D01*
X41380952Y-49847619D02*
X41428571Y-49800000D01*
X41523809Y-49752380D01*
X41761904Y-49752380D01*
X41857142Y-49800000D01*
X41904761Y-49847619D01*
X41952380Y-49942857D01*
X41952380Y-50038095D01*
X41904761Y-50180952D01*
X41333333Y-50752380D01*
X41952380Y-50752380D01*
X42142857Y-50847619D02*
X42904761Y-50847619D01*
X43095238Y-49847619D02*
X43142857Y-49800000D01*
X43238095Y-49752380D01*
X43476190Y-49752380D01*
X43571428Y-49800000D01*
X43619047Y-49847619D01*
X43666666Y-49942857D01*
X43666666Y-50038095D01*
X43619047Y-50180952D01*
X43047619Y-50752380D01*
X43666666Y-50752380D01*
%TO.C,U2_3*%
X40380952Y-65752380D02*
X40380952Y-66561904D01*
X40428571Y-66657142D01*
X40476190Y-66704761D01*
X40571428Y-66752380D01*
X40761904Y-66752380D01*
X40857142Y-66704761D01*
X40904761Y-66657142D01*
X40952380Y-66561904D01*
X40952380Y-65752380D01*
X41380952Y-65847619D02*
X41428571Y-65800000D01*
X41523809Y-65752380D01*
X41761904Y-65752380D01*
X41857142Y-65800000D01*
X41904761Y-65847619D01*
X41952380Y-65942857D01*
X41952380Y-66038095D01*
X41904761Y-66180952D01*
X41333333Y-66752380D01*
X41952380Y-66752380D01*
X42142857Y-66847619D02*
X42904761Y-66847619D01*
X43047619Y-65752380D02*
X43666666Y-65752380D01*
X43333333Y-66133333D01*
X43476190Y-66133333D01*
X43571428Y-66180952D01*
X43619047Y-66228571D01*
X43666666Y-66323809D01*
X43666666Y-66561904D01*
X43619047Y-66657142D01*
X43571428Y-66704761D01*
X43476190Y-66752380D01*
X43190476Y-66752380D01*
X43095238Y-66704761D01*
X43047619Y-66657142D01*
%TD*%
M02*
