%TF.GenerationSoftware,KiCad,Pcbnew,5.0.0-fee4fd1~66~ubuntu18.04.1*%
%TF.CreationDate,2018-10-04T11:17:12-06:00*%
%TF.ProjectId,thelio-io,7468656C696F2D696F2E6B696361645F,rev?*%
%TF.SameCoordinates,Original*%
%TF.FileFunction,Legend,Top*%
%TF.FilePolarity,Positive*%
%FSLAX46Y46*%
G04 Gerber Fmt 4.6, Leading zero omitted, Abs format (unit mm)*
G04 Created by KiCad (PCBNEW 5.0.0-fee4fd1~66~ubuntu18.04.1) date Thu Oct  4 11:17:12 2018*
%MOMM*%
%LPD*%
G01*
G04 APERTURE LIST*
%ADD10C,0.200000*%
%ADD11C,0.150000*%
%ADD12C,0.120000*%
G04 APERTURE END LIST*
D10*
X-6400000Y-51800000D02*
X-6400000Y-20000000D01*
X70850000Y-55000000D02*
X74050000Y-55000000D01*
X77250000Y-51800000D02*
G75*
G02X74050000Y-55000000I-3200000J0D01*
G01*
X74050000Y-16800000D02*
G75*
G02X77250000Y-20000000I0J-3200000D01*
G01*
X70850000Y-16800000D02*
X74050000Y-16800000D01*
X-3200000Y-55000000D02*
G75*
G02X-6400000Y-51800000I0J3200000D01*
G01*
X0Y-55000000D02*
X-3200000Y-55000000D01*
X0Y-16800000D02*
X-3200000Y-16800000D01*
X0Y-55000000D02*
X0Y-68600000D01*
X0Y-16800000D02*
X0Y-3200000D01*
X-6400000Y-20000000D02*
G75*
G02X-3200000Y-16800000I3200000J0D01*
G01*
X77250000Y-51800000D02*
X77250000Y-20000000D01*
X70850000Y-55000000D02*
X70850000Y-68600000D01*
X70850000Y-16800000D02*
X70850000Y-3200000D01*
D11*
X70850000Y-68600000D02*
G75*
G02X67650000Y-71800000I-3200000J0D01*
G01*
D10*
X3200000Y-71800000D02*
G75*
G02X0Y-68600000I0J3200000D01*
G01*
X67650000Y-71800000D02*
X3200000Y-71800000D01*
X0Y-3200000D02*
G75*
G02X3200000Y0I3200000J0D01*
G01*
X67650000Y0D02*
G75*
G02X70850000Y-3200000I0J-3200000D01*
G01*
X3200000Y0D02*
X67650000Y0D01*
D12*
%TO.C,Y0*%
X7350000Y-42700000D02*
X7350000Y-36150000D01*
X3450000Y-42700000D02*
X7350000Y-42700000D01*
X3450000Y-36150000D02*
X3450000Y-42700000D01*
D11*
%TO.C,SATA3*%
X19115000Y-62825000D02*
X19115000Y-57110000D01*
X64835000Y-62825000D02*
X19115000Y-62825000D01*
X64835000Y-57110000D02*
X64835000Y-62825000D01*
X19115000Y-57110000D02*
X64835000Y-57110000D01*
%TO.C,SATA2*%
X19115000Y-46825000D02*
X19115000Y-41110000D01*
X64835000Y-46825000D02*
X19115000Y-46825000D01*
X64835000Y-41110000D02*
X64835000Y-46825000D01*
X19115000Y-41110000D02*
X64835000Y-41110000D01*
%TO.C,SATA1*%
X19115000Y-30825000D02*
X19115000Y-25110000D01*
X64835000Y-30825000D02*
X19115000Y-30825000D01*
X64835000Y-25110000D02*
X64835000Y-30825000D01*
X19115000Y-25110000D02*
X64835000Y-25110000D01*
%TO.C,SATA0*%
X19115000Y-14825000D02*
X19115000Y-9110000D01*
X64835000Y-14825000D02*
X19115000Y-14825000D01*
X64835000Y-9110000D02*
X64835000Y-14825000D01*
X19115000Y-9110000D02*
X64835000Y-9110000D01*
%TD*%
%TO.C,C1*%
X2033333Y-41307142D02*
X1985714Y-41354761D01*
X1842857Y-41402380D01*
X1747619Y-41402380D01*
X1604761Y-41354761D01*
X1509523Y-41259523D01*
X1461904Y-41164285D01*
X1414285Y-40973809D01*
X1414285Y-40830952D01*
X1461904Y-40640476D01*
X1509523Y-40545238D01*
X1604761Y-40450000D01*
X1747619Y-40402380D01*
X1842857Y-40402380D01*
X1985714Y-40450000D01*
X2033333Y-40497619D01*
X2985714Y-41402380D02*
X2414285Y-41402380D01*
X2700000Y-41402380D02*
X2700000Y-40402380D01*
X2604761Y-40545238D01*
X2509523Y-40640476D01*
X2414285Y-40688095D01*
%TO.C,C2*%
X2033333Y-38257142D02*
X1985714Y-38304761D01*
X1842857Y-38352380D01*
X1747619Y-38352380D01*
X1604761Y-38304761D01*
X1509523Y-38209523D01*
X1461904Y-38114285D01*
X1414285Y-37923809D01*
X1414285Y-37780952D01*
X1461904Y-37590476D01*
X1509523Y-37495238D01*
X1604761Y-37400000D01*
X1747619Y-37352380D01*
X1842857Y-37352380D01*
X1985714Y-37400000D01*
X2033333Y-37447619D01*
X2414285Y-37447619D02*
X2461904Y-37400000D01*
X2557142Y-37352380D01*
X2795238Y-37352380D01*
X2890476Y-37400000D01*
X2938095Y-37447619D01*
X2985714Y-37542857D01*
X2985714Y-37638095D01*
X2938095Y-37780952D01*
X2366666Y-38352380D01*
X2985714Y-38352380D01*
%TO.C,Y0*%
X4923809Y-35096190D02*
X4923809Y-35572380D01*
X4590476Y-34572380D02*
X4923809Y-35096190D01*
X5257142Y-34572380D01*
X5780952Y-34572380D02*
X5876190Y-34572380D01*
X5971428Y-34620000D01*
X6019047Y-34667619D01*
X6066666Y-34762857D01*
X6114285Y-34953333D01*
X6114285Y-35191428D01*
X6066666Y-35381904D01*
X6019047Y-35477142D01*
X5971428Y-35524761D01*
X5876190Y-35572380D01*
X5780952Y-35572380D01*
X5685714Y-35524761D01*
X5638095Y-35477142D01*
X5590476Y-35381904D01*
X5542857Y-35191428D01*
X5542857Y-34953333D01*
X5590476Y-34762857D01*
X5638095Y-34667619D01*
X5685714Y-34620000D01*
X5780952Y-34572380D01*
%TO.C,SATA3*%
X39975000Y-64229761D02*
X40117857Y-64277380D01*
X40355952Y-64277380D01*
X40451190Y-64229761D01*
X40498809Y-64182142D01*
X40546428Y-64086904D01*
X40546428Y-63991666D01*
X40498809Y-63896428D01*
X40451190Y-63848809D01*
X40355952Y-63801190D01*
X40165476Y-63753571D01*
X40070238Y-63705952D01*
X40022619Y-63658333D01*
X39975000Y-63563095D01*
X39975000Y-63467857D01*
X40022619Y-63372619D01*
X40070238Y-63325000D01*
X40165476Y-63277380D01*
X40403571Y-63277380D01*
X40546428Y-63325000D01*
X40927380Y-63991666D02*
X41403571Y-63991666D01*
X40832142Y-64277380D02*
X41165476Y-63277380D01*
X41498809Y-64277380D01*
X41689285Y-63277380D02*
X42260714Y-63277380D01*
X41975000Y-64277380D02*
X41975000Y-63277380D01*
X42546428Y-63991666D02*
X43022619Y-63991666D01*
X42451190Y-64277380D02*
X42784523Y-63277380D01*
X43117857Y-64277380D01*
X43355952Y-63277380D02*
X43975000Y-63277380D01*
X43641666Y-63658333D01*
X43784523Y-63658333D01*
X43879761Y-63705952D01*
X43927380Y-63753571D01*
X43975000Y-63848809D01*
X43975000Y-64086904D01*
X43927380Y-64182142D01*
X43879761Y-64229761D01*
X43784523Y-64277380D01*
X43498809Y-64277380D01*
X43403571Y-64229761D01*
X43355952Y-64182142D01*
%TO.C,SATA2*%
X39975000Y-48229761D02*
X40117857Y-48277380D01*
X40355952Y-48277380D01*
X40451190Y-48229761D01*
X40498809Y-48182142D01*
X40546428Y-48086904D01*
X40546428Y-47991666D01*
X40498809Y-47896428D01*
X40451190Y-47848809D01*
X40355952Y-47801190D01*
X40165476Y-47753571D01*
X40070238Y-47705952D01*
X40022619Y-47658333D01*
X39975000Y-47563095D01*
X39975000Y-47467857D01*
X40022619Y-47372619D01*
X40070238Y-47325000D01*
X40165476Y-47277380D01*
X40403571Y-47277380D01*
X40546428Y-47325000D01*
X40927380Y-47991666D02*
X41403571Y-47991666D01*
X40832142Y-48277380D02*
X41165476Y-47277380D01*
X41498809Y-48277380D01*
X41689285Y-47277380D02*
X42260714Y-47277380D01*
X41975000Y-48277380D02*
X41975000Y-47277380D01*
X42546428Y-47991666D02*
X43022619Y-47991666D01*
X42451190Y-48277380D02*
X42784523Y-47277380D01*
X43117857Y-48277380D01*
X43403571Y-47372619D02*
X43451190Y-47325000D01*
X43546428Y-47277380D01*
X43784523Y-47277380D01*
X43879761Y-47325000D01*
X43927380Y-47372619D01*
X43975000Y-47467857D01*
X43975000Y-47563095D01*
X43927380Y-47705952D01*
X43355952Y-48277380D01*
X43975000Y-48277380D01*
%TO.C,SATA1*%
X39975000Y-32229761D02*
X40117857Y-32277380D01*
X40355952Y-32277380D01*
X40451190Y-32229761D01*
X40498809Y-32182142D01*
X40546428Y-32086904D01*
X40546428Y-31991666D01*
X40498809Y-31896428D01*
X40451190Y-31848809D01*
X40355952Y-31801190D01*
X40165476Y-31753571D01*
X40070238Y-31705952D01*
X40022619Y-31658333D01*
X39975000Y-31563095D01*
X39975000Y-31467857D01*
X40022619Y-31372619D01*
X40070238Y-31325000D01*
X40165476Y-31277380D01*
X40403571Y-31277380D01*
X40546428Y-31325000D01*
X40927380Y-31991666D02*
X41403571Y-31991666D01*
X40832142Y-32277380D02*
X41165476Y-31277380D01*
X41498809Y-32277380D01*
X41689285Y-31277380D02*
X42260714Y-31277380D01*
X41975000Y-32277380D02*
X41975000Y-31277380D01*
X42546428Y-31991666D02*
X43022619Y-31991666D01*
X42451190Y-32277380D02*
X42784523Y-31277380D01*
X43117857Y-32277380D01*
X43975000Y-32277380D02*
X43403571Y-32277380D01*
X43689285Y-32277380D02*
X43689285Y-31277380D01*
X43594047Y-31420238D01*
X43498809Y-31515476D01*
X43403571Y-31563095D01*
%TO.C,SATA0*%
X39975000Y-16229761D02*
X40117857Y-16277380D01*
X40355952Y-16277380D01*
X40451190Y-16229761D01*
X40498809Y-16182142D01*
X40546428Y-16086904D01*
X40546428Y-15991666D01*
X40498809Y-15896428D01*
X40451190Y-15848809D01*
X40355952Y-15801190D01*
X40165476Y-15753571D01*
X40070238Y-15705952D01*
X40022619Y-15658333D01*
X39975000Y-15563095D01*
X39975000Y-15467857D01*
X40022619Y-15372619D01*
X40070238Y-15325000D01*
X40165476Y-15277380D01*
X40403571Y-15277380D01*
X40546428Y-15325000D01*
X40927380Y-15991666D02*
X41403571Y-15991666D01*
X40832142Y-16277380D02*
X41165476Y-15277380D01*
X41498809Y-16277380D01*
X41689285Y-15277380D02*
X42260714Y-15277380D01*
X41975000Y-16277380D02*
X41975000Y-15277380D01*
X42546428Y-15991666D02*
X43022619Y-15991666D01*
X42451190Y-16277380D02*
X42784523Y-15277380D01*
X43117857Y-16277380D01*
X43641666Y-15277380D02*
X43736904Y-15277380D01*
X43832142Y-15325000D01*
X43879761Y-15372619D01*
X43927380Y-15467857D01*
X43975000Y-15658333D01*
X43975000Y-15896428D01*
X43927380Y-16086904D01*
X43879761Y-16182142D01*
X43832142Y-16229761D01*
X43736904Y-16277380D01*
X43641666Y-16277380D01*
X43546428Y-16229761D01*
X43498809Y-16182142D01*
X43451190Y-16086904D01*
X43403571Y-15896428D01*
X43403571Y-15658333D01*
X43451190Y-15467857D01*
X43498809Y-15372619D01*
X43546428Y-15325000D01*
X43641666Y-15277380D01*
%TD*%
M02*
