%TF.GenerationSoftware,KiCad,Pcbnew,5.0.2-bee76a0~70~ubuntu18.10.1*%
%TF.CreationDate,2019-01-10T16:39:54-07:00*%
%TF.ProjectId,thelio-io-sas,7468656c-696f-42d6-996f-2d7361732e6b,rev?*%
%TF.SameCoordinates,Original*%
%TF.FileFunction,Copper,L1,Top*%
%TF.FilePolarity,Positive*%
%FSLAX46Y46*%
G04 Gerber Fmt 4.6, Leading zero omitted, Abs format (unit mm)*
G04 Created by KiCad (PCBNEW 5.0.2-bee76a0~70~ubuntu18.10.1) date Thu Jan 10 16:39:54 2019*
%MOMM*%
%LPD*%
G01*
G04 APERTURE LIST*
%TA.AperFunction,NonConductor*%
%ADD10C,0.200000*%
%TD*%
%TA.AperFunction,NonConductor*%
%ADD11C,0.150000*%
%TD*%
%TA.AperFunction,SMDPad,CuDef*%
%ADD12R,0.500000X1.800000*%
%TD*%
%TA.AperFunction,SMDPad,CuDef*%
%ADD13R,0.700000X1.800000*%
%TD*%
%TA.AperFunction,ConnectorPad*%
%ADD14R,3.360000X3.000000*%
%TD*%
%TA.AperFunction,WasherPad*%
%ADD15C,2.600000*%
%TD*%
%TA.AperFunction,ComponentPad*%
%ADD16C,0.370000*%
%TD*%
%TA.AperFunction,ComponentPad*%
%ADD17O,1.730000X2.030000*%
%TD*%
%TA.AperFunction,ComponentPad*%
%ADD18R,1.730000X2.030000*%
%TD*%
%TA.AperFunction,ViaPad*%
%ADD19C,0.400000*%
%TD*%
%TA.AperFunction,ViaPad*%
%ADD20C,0.800000*%
%TD*%
%TA.AperFunction,Conductor*%
%ADD21C,0.250000*%
%TD*%
%TA.AperFunction,Conductor*%
%ADD22C,0.500000*%
%TD*%
%TA.AperFunction,Conductor*%
%ADD23C,0.127000*%
%TD*%
G04 APERTURE END LIST*
D10*
X77050000Y-18400000D02*
X77050000Y-53400000D01*
X75450000Y-16800000D02*
G75*
G02X77050000Y-18400000I0J-1600000D01*
G01*
X73850000Y-16800000D02*
X75450000Y-16800000D01*
X73850000Y-55000000D02*
X75450000Y-55000000D01*
X77050000Y-53400000D02*
G75*
G02X75450000Y-55000000I-1600000J0D01*
G01*
X70650000Y0D02*
G75*
G02X73850000Y-3200000I0J-3200000D01*
G01*
D11*
X73850000Y-68600000D02*
G75*
G02X70650000Y-71800000I-3200000J0D01*
G01*
D10*
X73850000Y-16800000D02*
X73850000Y-3200000D01*
X73850000Y-55000000D02*
X73850000Y-68600000D01*
X-3200000Y-18400000D02*
G75*
G02X-1600000Y-16800000I1600000J0D01*
G01*
X0Y-16800000D02*
X-1600000Y-16800000D01*
X0Y-55000000D02*
X-1600000Y-55000000D01*
X-1600000Y-55000000D02*
G75*
G02X-3200000Y-53400000I0J1600000D01*
G01*
X-3200000Y-53400000D02*
X-3200000Y-18400000D01*
X0Y-16800000D02*
X0Y-3200000D01*
X0Y-55000000D02*
X0Y-68600000D01*
X3200000Y0D02*
X70650000Y0D01*
X0Y-3200000D02*
G75*
G02X3200000Y0I3200000J0D01*
G01*
X70650000Y-71800000D02*
X3200000Y-71800000D01*
X3200000Y-71800000D02*
G75*
G02X0Y-68600000I0J3200000D01*
G01*
D12*
%TO.P,U2_0,E1*%
%TO.N,Net-(U2_0-PadE1)*%
X34920000Y-14890000D03*
%TO.P,U2_0,E2*%
%TO.N,Net-(U2_0-PadE2)*%
X35720000Y-14890000D03*
%TO.P,U2_0,E3*%
%TO.N,Net-(U2_0-PadE3)*%
X36520000Y-14890000D03*
%TO.P,U2_0,E4*%
%TO.N,Net-(U2_0-PadE4)*%
X37320000Y-14890000D03*
%TO.P,U2_0,E5*%
%TO.N,/sas0/RST*%
X38120000Y-14890000D03*
D13*
%TO.P,U2_0,P1*%
%TO.N,/sas0/WAKE*%
X40095000Y-14270000D03*
D12*
%TO.P,U2_0,E6*%
%TO.N,Net-(U2_0-PadE6)*%
X38920000Y-14890000D03*
D13*
%TO.P,U2_0,S1*%
%TO.N,GND*%
X26125000Y-14270000D03*
%TO.P,U2_0,S2*%
%TO.N,Net-(U2_0-PadS2)*%
X27395000Y-14270000D03*
%TO.P,U2_0,S3*%
%TO.N,Net-(U2_0-PadS3)*%
X28665000Y-14270000D03*
%TO.P,U2_0,S4*%
%TO.N,GND*%
X29935000Y-14270000D03*
%TO.P,U2_0,S5*%
%TO.N,Net-(U2_0-PadS5)*%
X31205000Y-14270000D03*
%TO.P,U2_0,S6*%
%TO.N,Net-(U2_0-PadS6)*%
X32475000Y-14270000D03*
%TO.P,U2_0,S7*%
%TO.N,GND*%
X33745000Y-14270000D03*
%TO.P,U2_0,P2*%
%TO.N,Net-(U2_0-PadP2)*%
X41365000Y-14270000D03*
%TO.P,U2_0,P3*%
%TO.N,Net-(U2_0-PadP3)*%
X42635000Y-14270000D03*
%TO.P,U2_0,P4*%
%TO.N,GND*%
X43905000Y-14270000D03*
%TO.P,U2_0,P5*%
X45175000Y-14270000D03*
%TO.P,U2_0,P6*%
X46445000Y-14270000D03*
%TO.P,U2_0,P7*%
%TO.N,+5V*%
X47715000Y-14270000D03*
%TO.P,U2_0,P8*%
X48985000Y-14270000D03*
%TO.P,U2_0,P9*%
X50255000Y-14270000D03*
%TO.P,U2_0,P10*%
%TO.N,GND*%
X51525000Y-14270000D03*
%TO.P,U2_0,P11*%
%TO.N,/sas0/ACT*%
X52795000Y-14270000D03*
%TO.P,U2_0,P12*%
%TO.N,GND*%
X54065000Y-14270000D03*
%TO.P,U2_0,P13*%
%TO.N,+12V*%
X55335000Y-14270000D03*
%TO.P,U2_0,P14*%
X56605000Y-14270000D03*
%TO.P,U2_0,P15*%
X57875000Y-14270000D03*
D14*
%TO.P,U2_0,*%
%TO.N,*%
X22905000Y-9160000D03*
D15*
X22635000Y-12560000D03*
X61365000Y-12560000D03*
D14*
X61095000Y-9160000D03*
D12*
%TO.P,U2_0,E39*%
%TO.N,GND*%
X57720000Y-10300000D03*
%TO.P,U2_0,E38*%
%TO.N,/sas0/SDAT*%
X56920000Y-10300000D03*
%TO.P,U2_0,E37*%
%TO.N,/sas0/SCLK*%
X56120000Y-10300000D03*
%TO.P,U2_0,E36*%
%TO.N,GND*%
X55320000Y-10300000D03*
%TO.P,U2_0,E35*%
%TO.N,/sas0/R3+*%
X54520000Y-10300000D03*
%TO.P,U2_0,E34*%
%TO.N,/sas0/R3-*%
X53720000Y-10300000D03*
%TO.P,U2_0,E33*%
%TO.N,GND*%
X52920000Y-10300000D03*
%TO.P,U2_0,E32*%
%TO.N,/sas0/T3-*%
X52120000Y-10300000D03*
%TO.P,U2_0,E31*%
%TO.N,/sas0/T3+*%
X51320000Y-10300000D03*
%TO.P,U2_0,E30*%
%TO.N,GND*%
X50520000Y-10300000D03*
%TO.P,U2_0,E29*%
%TO.N,/sas0/R2+*%
X49720000Y-10300000D03*
%TO.P,U2_0,E28*%
%TO.N,/sas0/R2-*%
X48920000Y-10300000D03*
%TO.P,U2_0,E27*%
%TO.N,GND*%
X48120000Y-10300000D03*
%TO.P,U2_0,E26*%
%TO.N,/sas0/T2-*%
X47320000Y-10300000D03*
%TO.P,U2_0,E25*%
%TO.N,/sas0/T2+*%
X46520000Y-10300000D03*
%TO.P,U2_0,E24*%
%TO.N,GND*%
X45720000Y-10300000D03*
%TO.P,U2_0,E23*%
%TO.N,/sas0/R1+*%
X44920000Y-10300000D03*
%TO.P,U2_0,E22*%
%TO.N,/sas0/R1-*%
X44120000Y-10300000D03*
%TO.P,U2_0,E21*%
%TO.N,GND*%
X43320000Y-10300000D03*
%TO.P,U2_0,E20*%
%TO.N,/sas0/T1-*%
X42520000Y-10300000D03*
%TO.P,U2_0,E19*%
%TO.N,/sas0/T1+*%
X41720000Y-10300000D03*
%TO.P,U2_0,E18*%
%TO.N,GND*%
X40920000Y-10300000D03*
%TO.P,U2_0,E17*%
%TO.N,Net-(U2_0-PadE17)*%
X40120000Y-10300000D03*
%TO.P,U2_0,S14*%
%TO.N,GND*%
X39320000Y-10300000D03*
%TO.P,U2_0,S13*%
%TO.N,Net-(U2_0-PadS13)*%
X38520000Y-10300000D03*
%TO.P,U2_0,S12*%
%TO.N,Net-(U2_0-PadS12)*%
X37720000Y-10300000D03*
%TO.P,U2_0,S11*%
%TO.N,GND*%
X36920000Y-10300000D03*
%TO.P,U2_0,S10*%
%TO.N,Net-(U2_0-PadS10)*%
X36120000Y-10300000D03*
%TO.P,U2_0,S9*%
%TO.N,Net-(U2_0-PadS9)*%
X35320000Y-10300000D03*
%TO.P,U2_0,S8*%
%TO.N,GND*%
X34520000Y-10300000D03*
%TO.P,U2_0,E16*%
%TO.N,Net-(U2_0-PadE16)*%
X33720000Y-10300000D03*
%TO.P,U2_0,E15*%
%TO.N,GND*%
X32920000Y-10300000D03*
%TO.P,U2_0,E14*%
%TO.N,/sas0/R0+*%
X32120000Y-10300000D03*
%TO.P,U2_0,E13*%
%TO.N,/sas0/R0-*%
X31320000Y-10300000D03*
%TO.P,U2_0,E12*%
%TO.N,GND*%
X30520000Y-10300000D03*
%TO.P,U2_0,E11*%
%TO.N,/sas0/T0-*%
X29720000Y-10300000D03*
%TO.P,U2_0,E10*%
%TO.N,/sas0/T0+*%
X28920000Y-10300000D03*
%TO.P,U2_0,E9*%
%TO.N,GND*%
X28120000Y-10300000D03*
%TO.P,U2_0,E8*%
%TO.N,/sas0/CLK-*%
X27320000Y-10300000D03*
%TO.P,U2_0,E7*%
%TO.N,/sas0/CLK+*%
X26520000Y-10300000D03*
%TD*%
D16*
%TO.P,SAS0,A4*%
%TO.N,/sas0/T1+*%
X14820000Y-10950000D03*
%TO.P,SAS0,A3*%
%TO.N,GND*%
X15520000Y-10200000D03*
%TO.P,SAS0,A2*%
%TO.N,/sas0/CLK+*%
X16220000Y-9450000D03*
%TO.P,SAS0,A1*%
%TO.N,/sas0/CLK-*%
X14820000Y-8700000D03*
%TO.P,SAS0,A5*%
%TO.N,/sas0/T1-*%
X16220000Y-11700000D03*
%TO.P,SAS0,A7*%
%TO.N,/sas0/T3+*%
X14820000Y-13200000D03*
%TO.P,SAS0,A6*%
%TO.N,GND*%
X15520000Y-12450000D03*
%TO.P,SAS0,A9*%
X15520000Y-14700000D03*
%TO.P,SAS0,A8*%
%TO.N,/sas0/T3-*%
X16220000Y-13950000D03*
%TO.P,SAS0,B2*%
%TO.N,/sas0/RST*%
X12420000Y-9450000D03*
%TO.P,SAS0,B6*%
%TO.N,GND*%
X11720000Y-12450000D03*
%TO.P,SAS0,B1*%
%TO.N,Net-(SAS0-PadB1)*%
X11020000Y-8700000D03*
%TO.P,SAS0,B4*%
%TO.N,/sas0/T0+*%
X11020000Y-10950000D03*
%TO.P,SAS0,B9*%
%TO.N,GND*%
X11720000Y-14700000D03*
%TO.P,SAS0,B3*%
X11720000Y-10200000D03*
%TO.P,SAS0,B5*%
%TO.N,/sas0/T0-*%
X12420000Y-11700000D03*
%TO.P,SAS0,B8*%
%TO.N,/sas0/T2-*%
X12420000Y-13950000D03*
%TO.P,SAS0,B7*%
%TO.N,/sas0/T2+*%
X11020000Y-13200000D03*
%TO.P,SAS0,C2*%
%TO.N,Net-(SAS0-PadC2)*%
X8620000Y-9450000D03*
%TO.P,SAS0,C6*%
%TO.N,GND*%
X7920000Y-12450000D03*
%TO.P,SAS0,C1*%
%TO.N,/sas0/WAKE*%
X7220000Y-8700000D03*
%TO.P,SAS0,C4*%
%TO.N,/sas0/R1+*%
X7220000Y-10950000D03*
%TO.P,SAS0,C9*%
%TO.N,GND*%
X7920000Y-14700000D03*
%TO.P,SAS0,C3*%
X7920000Y-10200000D03*
%TO.P,SAS0,C5*%
%TO.N,/sas0/R1-*%
X8620000Y-11700000D03*
%TO.P,SAS0,C8*%
%TO.N,/sas0/R3-*%
X8620000Y-13950000D03*
%TO.P,SAS0,C7*%
%TO.N,/sas0/R3+*%
X7220000Y-13200000D03*
%TO.P,SAS0,D2*%
%TO.N,/sas0/SDAT*%
X4820000Y-9450000D03*
%TO.P,SAS0,D6*%
%TO.N,GND*%
X4120000Y-12450000D03*
%TO.P,SAS0,D1*%
%TO.N,/sas0/SCLK*%
X3420000Y-8700000D03*
%TO.P,SAS0,D4*%
%TO.N,/sas0/R0+*%
X3420000Y-10950000D03*
%TO.P,SAS0,D9*%
%TO.N,GND*%
X4120000Y-14700000D03*
%TO.P,SAS0,D3*%
X4120000Y-10200000D03*
%TO.P,SAS0,D5*%
%TO.N,/sas0/R0-*%
X4820000Y-11700000D03*
%TO.P,SAS0,D8*%
%TO.N,/sas0/R2-*%
X4820000Y-13950000D03*
%TO.P,SAS0,D7*%
%TO.N,/sas0/R2+*%
X3420000Y-13200000D03*
%TD*%
D12*
%TO.P,U2_1,E1*%
%TO.N,Net-(U2_1-PadE1)*%
X34920000Y-30890000D03*
%TO.P,U2_1,E2*%
%TO.N,Net-(U2_1-PadE2)*%
X35720000Y-30890000D03*
%TO.P,U2_1,E3*%
%TO.N,Net-(U2_1-PadE3)*%
X36520000Y-30890000D03*
%TO.P,U2_1,E4*%
%TO.N,Net-(U2_1-PadE4)*%
X37320000Y-30890000D03*
%TO.P,U2_1,E5*%
%TO.N,/sas1/RST*%
X38120000Y-30890000D03*
D13*
%TO.P,U2_1,P1*%
%TO.N,/sas1/WAKE*%
X40095000Y-30270000D03*
D12*
%TO.P,U2_1,E6*%
%TO.N,Net-(U2_1-PadE6)*%
X38920000Y-30890000D03*
D13*
%TO.P,U2_1,S1*%
%TO.N,GND*%
X26125000Y-30270000D03*
%TO.P,U2_1,S2*%
%TO.N,Net-(U2_1-PadS2)*%
X27395000Y-30270000D03*
%TO.P,U2_1,S3*%
%TO.N,Net-(U2_1-PadS3)*%
X28665000Y-30270000D03*
%TO.P,U2_1,S4*%
%TO.N,GND*%
X29935000Y-30270000D03*
%TO.P,U2_1,S5*%
%TO.N,Net-(U2_1-PadS5)*%
X31205000Y-30270000D03*
%TO.P,U2_1,S6*%
%TO.N,Net-(U2_1-PadS6)*%
X32475000Y-30270000D03*
%TO.P,U2_1,S7*%
%TO.N,GND*%
X33745000Y-30270000D03*
%TO.P,U2_1,P2*%
%TO.N,Net-(U2_1-PadP2)*%
X41365000Y-30270000D03*
%TO.P,U2_1,P3*%
%TO.N,Net-(U2_1-PadP3)*%
X42635000Y-30270000D03*
%TO.P,U2_1,P4*%
%TO.N,GND*%
X43905000Y-30270000D03*
%TO.P,U2_1,P5*%
X45175000Y-30270000D03*
%TO.P,U2_1,P6*%
X46445000Y-30270000D03*
%TO.P,U2_1,P7*%
%TO.N,+5V*%
X47715000Y-30270000D03*
%TO.P,U2_1,P8*%
X48985000Y-30270000D03*
%TO.P,U2_1,P9*%
X50255000Y-30270000D03*
%TO.P,U2_1,P10*%
%TO.N,GND*%
X51525000Y-30270000D03*
%TO.P,U2_1,P11*%
%TO.N,/sas1/ACT*%
X52795000Y-30270000D03*
%TO.P,U2_1,P12*%
%TO.N,GND*%
X54065000Y-30270000D03*
%TO.P,U2_1,P13*%
%TO.N,+12V*%
X55335000Y-30270000D03*
%TO.P,U2_1,P14*%
X56605000Y-30270000D03*
%TO.P,U2_1,P15*%
X57875000Y-30270000D03*
D14*
%TO.P,U2_1,*%
%TO.N,*%
X22905000Y-25160000D03*
D15*
X22635000Y-28560000D03*
X61365000Y-28560000D03*
D14*
X61095000Y-25160000D03*
D12*
%TO.P,U2_1,E39*%
%TO.N,GND*%
X57720000Y-26300000D03*
%TO.P,U2_1,E38*%
%TO.N,/sas1/SDAT*%
X56920000Y-26300000D03*
%TO.P,U2_1,E37*%
%TO.N,/sas1/SCLK*%
X56120000Y-26300000D03*
%TO.P,U2_1,E36*%
%TO.N,GND*%
X55320000Y-26300000D03*
%TO.P,U2_1,E35*%
%TO.N,/sas1/R3+*%
X54520000Y-26300000D03*
%TO.P,U2_1,E34*%
%TO.N,/sas1/R3-*%
X53720000Y-26300000D03*
%TO.P,U2_1,E33*%
%TO.N,GND*%
X52920000Y-26300000D03*
%TO.P,U2_1,E32*%
%TO.N,/sas1/T3-*%
X52120000Y-26300000D03*
%TO.P,U2_1,E31*%
%TO.N,/sas1/T3+*%
X51320000Y-26300000D03*
%TO.P,U2_1,E30*%
%TO.N,GND*%
X50520000Y-26300000D03*
%TO.P,U2_1,E29*%
%TO.N,/sas1/R2+*%
X49720000Y-26300000D03*
%TO.P,U2_1,E28*%
%TO.N,/sas1/R2-*%
X48920000Y-26300000D03*
%TO.P,U2_1,E27*%
%TO.N,GND*%
X48120000Y-26300000D03*
%TO.P,U2_1,E26*%
%TO.N,/sas1/T2-*%
X47320000Y-26300000D03*
%TO.P,U2_1,E25*%
%TO.N,/sas1/T2+*%
X46520000Y-26300000D03*
%TO.P,U2_1,E24*%
%TO.N,GND*%
X45720000Y-26300000D03*
%TO.P,U2_1,E23*%
%TO.N,/sas1/R1+*%
X44920000Y-26300000D03*
%TO.P,U2_1,E22*%
%TO.N,/sas1/R1-*%
X44120000Y-26300000D03*
%TO.P,U2_1,E21*%
%TO.N,GND*%
X43320000Y-26300000D03*
%TO.P,U2_1,E20*%
%TO.N,/sas1/T1-*%
X42520000Y-26300000D03*
%TO.P,U2_1,E19*%
%TO.N,/sas1/T1+*%
X41720000Y-26300000D03*
%TO.P,U2_1,E18*%
%TO.N,GND*%
X40920000Y-26300000D03*
%TO.P,U2_1,E17*%
%TO.N,Net-(U2_1-PadE17)*%
X40120000Y-26300000D03*
%TO.P,U2_1,S14*%
%TO.N,GND*%
X39320000Y-26300000D03*
%TO.P,U2_1,S13*%
%TO.N,Net-(U2_1-PadS13)*%
X38520000Y-26300000D03*
%TO.P,U2_1,S12*%
%TO.N,Net-(U2_1-PadS12)*%
X37720000Y-26300000D03*
%TO.P,U2_1,S11*%
%TO.N,GND*%
X36920000Y-26300000D03*
%TO.P,U2_1,S10*%
%TO.N,Net-(U2_1-PadS10)*%
X36120000Y-26300000D03*
%TO.P,U2_1,S9*%
%TO.N,Net-(U2_1-PadS9)*%
X35320000Y-26300000D03*
%TO.P,U2_1,S8*%
%TO.N,GND*%
X34520000Y-26300000D03*
%TO.P,U2_1,E16*%
%TO.N,Net-(U2_1-PadE16)*%
X33720000Y-26300000D03*
%TO.P,U2_1,E15*%
%TO.N,GND*%
X32920000Y-26300000D03*
%TO.P,U2_1,E14*%
%TO.N,/sas1/R0+*%
X32120000Y-26300000D03*
%TO.P,U2_1,E13*%
%TO.N,/sas1/R0-*%
X31320000Y-26300000D03*
%TO.P,U2_1,E12*%
%TO.N,GND*%
X30520000Y-26300000D03*
%TO.P,U2_1,E11*%
%TO.N,/sas1/T0-*%
X29720000Y-26300000D03*
%TO.P,U2_1,E10*%
%TO.N,/sas1/T0+*%
X28920000Y-26300000D03*
%TO.P,U2_1,E9*%
%TO.N,GND*%
X28120000Y-26300000D03*
%TO.P,U2_1,E8*%
%TO.N,/sas1/CLK-*%
X27320000Y-26300000D03*
%TO.P,U2_1,E7*%
%TO.N,/sas1/CLK+*%
X26520000Y-26300000D03*
%TD*%
D16*
%TO.P,SAS1,A4*%
%TO.N,/sas1/T1+*%
X14820000Y-26950000D03*
%TO.P,SAS1,A3*%
%TO.N,GND*%
X15520000Y-26200000D03*
%TO.P,SAS1,A2*%
%TO.N,/sas1/CLK+*%
X16220000Y-25450000D03*
%TO.P,SAS1,A1*%
%TO.N,/sas1/CLK-*%
X14820000Y-24700000D03*
%TO.P,SAS1,A5*%
%TO.N,/sas1/T1-*%
X16220000Y-27700000D03*
%TO.P,SAS1,A7*%
%TO.N,/sas1/T3+*%
X14820000Y-29200000D03*
%TO.P,SAS1,A6*%
%TO.N,GND*%
X15520000Y-28450000D03*
%TO.P,SAS1,A9*%
X15520000Y-30700000D03*
%TO.P,SAS1,A8*%
%TO.N,/sas1/T3-*%
X16220000Y-29950000D03*
%TO.P,SAS1,B2*%
%TO.N,/sas1/RST*%
X12420000Y-25450000D03*
%TO.P,SAS1,B6*%
%TO.N,GND*%
X11720000Y-28450000D03*
%TO.P,SAS1,B1*%
%TO.N,Net-(SAS1-PadB1)*%
X11020000Y-24700000D03*
%TO.P,SAS1,B4*%
%TO.N,/sas1/T0+*%
X11020000Y-26950000D03*
%TO.P,SAS1,B9*%
%TO.N,GND*%
X11720000Y-30700000D03*
%TO.P,SAS1,B3*%
X11720000Y-26200000D03*
%TO.P,SAS1,B5*%
%TO.N,/sas1/T0-*%
X12420000Y-27700000D03*
%TO.P,SAS1,B8*%
%TO.N,/sas1/T2-*%
X12420000Y-29950000D03*
%TO.P,SAS1,B7*%
%TO.N,/sas1/T2+*%
X11020000Y-29200000D03*
%TO.P,SAS1,C2*%
%TO.N,Net-(SAS1-PadC2)*%
X8620000Y-25450000D03*
%TO.P,SAS1,C6*%
%TO.N,GND*%
X7920000Y-28450000D03*
%TO.P,SAS1,C1*%
%TO.N,/sas1/WAKE*%
X7220000Y-24700000D03*
%TO.P,SAS1,C4*%
%TO.N,/sas1/R1+*%
X7220000Y-26950000D03*
%TO.P,SAS1,C9*%
%TO.N,GND*%
X7920000Y-30700000D03*
%TO.P,SAS1,C3*%
X7920000Y-26200000D03*
%TO.P,SAS1,C5*%
%TO.N,/sas1/R1-*%
X8620000Y-27700000D03*
%TO.P,SAS1,C8*%
%TO.N,/sas1/R3-*%
X8620000Y-29950000D03*
%TO.P,SAS1,C7*%
%TO.N,/sas1/R3+*%
X7220000Y-29200000D03*
%TO.P,SAS1,D2*%
%TO.N,/sas1/SDAT*%
X4820000Y-25450000D03*
%TO.P,SAS1,D6*%
%TO.N,GND*%
X4120000Y-28450000D03*
%TO.P,SAS1,D1*%
%TO.N,/sas1/SCLK*%
X3420000Y-24700000D03*
%TO.P,SAS1,D4*%
%TO.N,/sas1/R0+*%
X3420000Y-26950000D03*
%TO.P,SAS1,D9*%
%TO.N,GND*%
X4120000Y-30700000D03*
%TO.P,SAS1,D3*%
X4120000Y-26200000D03*
%TO.P,SAS1,D5*%
%TO.N,/sas1/R0-*%
X4820000Y-27700000D03*
%TO.P,SAS1,D8*%
%TO.N,/sas1/R2-*%
X4820000Y-29950000D03*
%TO.P,SAS1,D7*%
%TO.N,/sas1/R2+*%
X3420000Y-29200000D03*
%TD*%
D12*
%TO.P,U2_2,E1*%
%TO.N,Net-(U2_2-PadE1)*%
X34920000Y-46890000D03*
%TO.P,U2_2,E2*%
%TO.N,Net-(U2_2-PadE2)*%
X35720000Y-46890000D03*
%TO.P,U2_2,E3*%
%TO.N,Net-(U2_2-PadE3)*%
X36520000Y-46890000D03*
%TO.P,U2_2,E4*%
%TO.N,Net-(U2_2-PadE4)*%
X37320000Y-46890000D03*
%TO.P,U2_2,E5*%
%TO.N,/sas2/RST*%
X38120000Y-46890000D03*
D13*
%TO.P,U2_2,P1*%
%TO.N,/sas2/WAKE*%
X40095000Y-46270000D03*
D12*
%TO.P,U2_2,E6*%
%TO.N,Net-(U2_2-PadE6)*%
X38920000Y-46890000D03*
D13*
%TO.P,U2_2,S1*%
%TO.N,GND*%
X26125000Y-46270000D03*
%TO.P,U2_2,S2*%
%TO.N,Net-(U2_2-PadS2)*%
X27395000Y-46270000D03*
%TO.P,U2_2,S3*%
%TO.N,Net-(U2_2-PadS3)*%
X28665000Y-46270000D03*
%TO.P,U2_2,S4*%
%TO.N,GND*%
X29935000Y-46270000D03*
%TO.P,U2_2,S5*%
%TO.N,Net-(U2_2-PadS5)*%
X31205000Y-46270000D03*
%TO.P,U2_2,S6*%
%TO.N,Net-(U2_2-PadS6)*%
X32475000Y-46270000D03*
%TO.P,U2_2,S7*%
%TO.N,GND*%
X33745000Y-46270000D03*
%TO.P,U2_2,P2*%
%TO.N,Net-(U2_2-PadP2)*%
X41365000Y-46270000D03*
%TO.P,U2_2,P3*%
%TO.N,Net-(U2_2-PadP3)*%
X42635000Y-46270000D03*
%TO.P,U2_2,P4*%
%TO.N,GND*%
X43905000Y-46270000D03*
%TO.P,U2_2,P5*%
X45175000Y-46270000D03*
%TO.P,U2_2,P6*%
X46445000Y-46270000D03*
%TO.P,U2_2,P7*%
%TO.N,+5V*%
X47715000Y-46270000D03*
%TO.P,U2_2,P8*%
X48985000Y-46270000D03*
%TO.P,U2_2,P9*%
X50255000Y-46270000D03*
%TO.P,U2_2,P10*%
%TO.N,GND*%
X51525000Y-46270000D03*
%TO.P,U2_2,P11*%
%TO.N,/sas2/ACT*%
X52795000Y-46270000D03*
%TO.P,U2_2,P12*%
%TO.N,GND*%
X54065000Y-46270000D03*
%TO.P,U2_2,P13*%
%TO.N,+12V*%
X55335000Y-46270000D03*
%TO.P,U2_2,P14*%
X56605000Y-46270000D03*
%TO.P,U2_2,P15*%
X57875000Y-46270000D03*
D14*
%TO.P,U2_2,*%
%TO.N,*%
X22905000Y-41160000D03*
D15*
X22635000Y-44560000D03*
X61365000Y-44560000D03*
D14*
X61095000Y-41160000D03*
D12*
%TO.P,U2_2,E39*%
%TO.N,GND*%
X57720000Y-42300000D03*
%TO.P,U2_2,E38*%
%TO.N,/sas2/SDAT*%
X56920000Y-42300000D03*
%TO.P,U2_2,E37*%
%TO.N,/sas2/SCLK*%
X56120000Y-42300000D03*
%TO.P,U2_2,E36*%
%TO.N,GND*%
X55320000Y-42300000D03*
%TO.P,U2_2,E35*%
%TO.N,/sas2/R3+*%
X54520000Y-42300000D03*
%TO.P,U2_2,E34*%
%TO.N,/sas2/R3-*%
X53720000Y-42300000D03*
%TO.P,U2_2,E33*%
%TO.N,GND*%
X52920000Y-42300000D03*
%TO.P,U2_2,E32*%
%TO.N,/sas2/T3-*%
X52120000Y-42300000D03*
%TO.P,U2_2,E31*%
%TO.N,/sas2/T3+*%
X51320000Y-42300000D03*
%TO.P,U2_2,E30*%
%TO.N,GND*%
X50520000Y-42300000D03*
%TO.P,U2_2,E29*%
%TO.N,/sas2/R2+*%
X49720000Y-42300000D03*
%TO.P,U2_2,E28*%
%TO.N,/sas2/R2-*%
X48920000Y-42300000D03*
%TO.P,U2_2,E27*%
%TO.N,GND*%
X48120000Y-42300000D03*
%TO.P,U2_2,E26*%
%TO.N,/sas2/T2-*%
X47320000Y-42300000D03*
%TO.P,U2_2,E25*%
%TO.N,/sas2/T2+*%
X46520000Y-42300000D03*
%TO.P,U2_2,E24*%
%TO.N,GND*%
X45720000Y-42300000D03*
%TO.P,U2_2,E23*%
%TO.N,/sas2/R1+*%
X44920000Y-42300000D03*
%TO.P,U2_2,E22*%
%TO.N,/sas2/R1-*%
X44120000Y-42300000D03*
%TO.P,U2_2,E21*%
%TO.N,GND*%
X43320000Y-42300000D03*
%TO.P,U2_2,E20*%
%TO.N,/sas2/T1-*%
X42520000Y-42300000D03*
%TO.P,U2_2,E19*%
%TO.N,/sas2/T1+*%
X41720000Y-42300000D03*
%TO.P,U2_2,E18*%
%TO.N,GND*%
X40920000Y-42300000D03*
%TO.P,U2_2,E17*%
%TO.N,Net-(U2_2-PadE17)*%
X40120000Y-42300000D03*
%TO.P,U2_2,S14*%
%TO.N,GND*%
X39320000Y-42300000D03*
%TO.P,U2_2,S13*%
%TO.N,Net-(U2_2-PadS13)*%
X38520000Y-42300000D03*
%TO.P,U2_2,S12*%
%TO.N,Net-(U2_2-PadS12)*%
X37720000Y-42300000D03*
%TO.P,U2_2,S11*%
%TO.N,GND*%
X36920000Y-42300000D03*
%TO.P,U2_2,S10*%
%TO.N,Net-(U2_2-PadS10)*%
X36120000Y-42300000D03*
%TO.P,U2_2,S9*%
%TO.N,Net-(U2_2-PadS9)*%
X35320000Y-42300000D03*
%TO.P,U2_2,S8*%
%TO.N,GND*%
X34520000Y-42300000D03*
%TO.P,U2_2,E16*%
%TO.N,Net-(U2_2-PadE16)*%
X33720000Y-42300000D03*
%TO.P,U2_2,E15*%
%TO.N,GND*%
X32920000Y-42300000D03*
%TO.P,U2_2,E14*%
%TO.N,/sas2/R0+*%
X32120000Y-42300000D03*
%TO.P,U2_2,E13*%
%TO.N,/sas2/R0-*%
X31320000Y-42300000D03*
%TO.P,U2_2,E12*%
%TO.N,GND*%
X30520000Y-42300000D03*
%TO.P,U2_2,E11*%
%TO.N,/sas2/T0-*%
X29720000Y-42300000D03*
%TO.P,U2_2,E10*%
%TO.N,/sas2/T0+*%
X28920000Y-42300000D03*
%TO.P,U2_2,E9*%
%TO.N,GND*%
X28120000Y-42300000D03*
%TO.P,U2_2,E8*%
%TO.N,/sas2/CLK-*%
X27320000Y-42300000D03*
%TO.P,U2_2,E7*%
%TO.N,/sas2/CLK+*%
X26520000Y-42300000D03*
%TD*%
D16*
%TO.P,SAS2,A4*%
%TO.N,/sas2/T1+*%
X14820000Y-42950000D03*
%TO.P,SAS2,A3*%
%TO.N,GND*%
X15520000Y-42200000D03*
%TO.P,SAS2,A2*%
%TO.N,/sas2/CLK+*%
X16220000Y-41450000D03*
%TO.P,SAS2,A1*%
%TO.N,/sas2/CLK-*%
X14820000Y-40700000D03*
%TO.P,SAS2,A5*%
%TO.N,/sas2/T1-*%
X16220000Y-43700000D03*
%TO.P,SAS2,A7*%
%TO.N,/sas2/T3+*%
X14820000Y-45200000D03*
%TO.P,SAS2,A6*%
%TO.N,GND*%
X15520000Y-44450000D03*
%TO.P,SAS2,A9*%
X15520000Y-46700000D03*
%TO.P,SAS2,A8*%
%TO.N,/sas2/T3-*%
X16220000Y-45950000D03*
%TO.P,SAS2,B2*%
%TO.N,/sas2/RST*%
X12420000Y-41450000D03*
%TO.P,SAS2,B6*%
%TO.N,GND*%
X11720000Y-44450000D03*
%TO.P,SAS2,B1*%
%TO.N,Net-(SAS2-PadB1)*%
X11020000Y-40700000D03*
%TO.P,SAS2,B4*%
%TO.N,/sas2/T0+*%
X11020000Y-42950000D03*
%TO.P,SAS2,B9*%
%TO.N,GND*%
X11720000Y-46700000D03*
%TO.P,SAS2,B3*%
X11720000Y-42200000D03*
%TO.P,SAS2,B5*%
%TO.N,/sas2/T0-*%
X12420000Y-43700000D03*
%TO.P,SAS2,B8*%
%TO.N,/sas2/T2-*%
X12420000Y-45950000D03*
%TO.P,SAS2,B7*%
%TO.N,/sas2/T2+*%
X11020000Y-45200000D03*
%TO.P,SAS2,C2*%
%TO.N,Net-(SAS2-PadC2)*%
X8620000Y-41450000D03*
%TO.P,SAS2,C6*%
%TO.N,GND*%
X7920000Y-44450000D03*
%TO.P,SAS2,C1*%
%TO.N,/sas2/WAKE*%
X7220000Y-40700000D03*
%TO.P,SAS2,C4*%
%TO.N,/sas2/R1+*%
X7220000Y-42950000D03*
%TO.P,SAS2,C9*%
%TO.N,GND*%
X7920000Y-46700000D03*
%TO.P,SAS2,C3*%
X7920000Y-42200000D03*
%TO.P,SAS2,C5*%
%TO.N,/sas2/R1-*%
X8620000Y-43700000D03*
%TO.P,SAS2,C8*%
%TO.N,/sas2/R3-*%
X8620000Y-45950000D03*
%TO.P,SAS2,C7*%
%TO.N,/sas2/R3+*%
X7220000Y-45200000D03*
%TO.P,SAS2,D2*%
%TO.N,/sas2/SDAT*%
X4820000Y-41450000D03*
%TO.P,SAS2,D6*%
%TO.N,GND*%
X4120000Y-44450000D03*
%TO.P,SAS2,D1*%
%TO.N,/sas2/SCLK*%
X3420000Y-40700000D03*
%TO.P,SAS2,D4*%
%TO.N,/sas2/R0+*%
X3420000Y-42950000D03*
%TO.P,SAS2,D9*%
%TO.N,GND*%
X4120000Y-46700000D03*
%TO.P,SAS2,D3*%
X4120000Y-42200000D03*
%TO.P,SAS2,D5*%
%TO.N,/sas2/R0-*%
X4820000Y-43700000D03*
%TO.P,SAS2,D8*%
%TO.N,/sas2/R2-*%
X4820000Y-45950000D03*
%TO.P,SAS2,D7*%
%TO.N,/sas2/R2+*%
X3420000Y-45200000D03*
%TD*%
D12*
%TO.P,U2_3,E7*%
%TO.N,/sas3/CLK+*%
X26520000Y-58300000D03*
%TO.P,U2_3,E8*%
%TO.N,/sas3/CLK-*%
X27320000Y-58300000D03*
%TO.P,U2_3,E9*%
%TO.N,GND*%
X28120000Y-58300000D03*
%TO.P,U2_3,E10*%
%TO.N,/sas3/T0+*%
X28920000Y-58300000D03*
%TO.P,U2_3,E11*%
%TO.N,/sas3/T0-*%
X29720000Y-58300000D03*
%TO.P,U2_3,E12*%
%TO.N,GND*%
X30520000Y-58300000D03*
%TO.P,U2_3,E13*%
%TO.N,/sas3/R0-*%
X31320000Y-58300000D03*
%TO.P,U2_3,E14*%
%TO.N,/sas3/R0+*%
X32120000Y-58300000D03*
%TO.P,U2_3,E15*%
%TO.N,GND*%
X32920000Y-58300000D03*
%TO.P,U2_3,E16*%
%TO.N,Net-(U2_3-PadE16)*%
X33720000Y-58300000D03*
%TO.P,U2_3,S8*%
%TO.N,GND*%
X34520000Y-58300000D03*
%TO.P,U2_3,S9*%
%TO.N,Net-(U2_3-PadS9)*%
X35320000Y-58300000D03*
%TO.P,U2_3,S10*%
%TO.N,Net-(U2_3-PadS10)*%
X36120000Y-58300000D03*
%TO.P,U2_3,S11*%
%TO.N,GND*%
X36920000Y-58300000D03*
%TO.P,U2_3,S12*%
%TO.N,Net-(U2_3-PadS12)*%
X37720000Y-58300000D03*
%TO.P,U2_3,S13*%
%TO.N,Net-(U2_3-PadS13)*%
X38520000Y-58300000D03*
%TO.P,U2_3,S14*%
%TO.N,GND*%
X39320000Y-58300000D03*
%TO.P,U2_3,E17*%
%TO.N,Net-(U2_3-PadE17)*%
X40120000Y-58300000D03*
%TO.P,U2_3,E18*%
%TO.N,GND*%
X40920000Y-58300000D03*
%TO.P,U2_3,E19*%
%TO.N,/sas3/T1+*%
X41720000Y-58300000D03*
%TO.P,U2_3,E20*%
%TO.N,/sas3/T1-*%
X42520000Y-58300000D03*
%TO.P,U2_3,E21*%
%TO.N,GND*%
X43320000Y-58300000D03*
%TO.P,U2_3,E22*%
%TO.N,/sas3/R1-*%
X44120000Y-58300000D03*
%TO.P,U2_3,E23*%
%TO.N,/sas3/R1+*%
X44920000Y-58300000D03*
%TO.P,U2_3,E24*%
%TO.N,GND*%
X45720000Y-58300000D03*
%TO.P,U2_3,E25*%
%TO.N,/sas3/T2+*%
X46520000Y-58300000D03*
%TO.P,U2_3,E26*%
%TO.N,/sas3/T2-*%
X47320000Y-58300000D03*
%TO.P,U2_3,E27*%
%TO.N,GND*%
X48120000Y-58300000D03*
%TO.P,U2_3,E28*%
%TO.N,/sas3/R2-*%
X48920000Y-58300000D03*
%TO.P,U2_3,E29*%
%TO.N,/sas3/R2+*%
X49720000Y-58300000D03*
%TO.P,U2_3,E30*%
%TO.N,GND*%
X50520000Y-58300000D03*
%TO.P,U2_3,E31*%
%TO.N,/sas3/T3+*%
X51320000Y-58300000D03*
%TO.P,U2_3,E32*%
%TO.N,/sas3/T3-*%
X52120000Y-58300000D03*
%TO.P,U2_3,E33*%
%TO.N,GND*%
X52920000Y-58300000D03*
%TO.P,U2_3,E34*%
%TO.N,/sas3/R3-*%
X53720000Y-58300000D03*
%TO.P,U2_3,E35*%
%TO.N,/sas3/R3+*%
X54520000Y-58300000D03*
%TO.P,U2_3,E36*%
%TO.N,GND*%
X55320000Y-58300000D03*
%TO.P,U2_3,E37*%
%TO.N,/sas3/SCLK*%
X56120000Y-58300000D03*
%TO.P,U2_3,E38*%
%TO.N,/sas3/SDAT*%
X56920000Y-58300000D03*
%TO.P,U2_3,E39*%
%TO.N,GND*%
X57720000Y-58300000D03*
D14*
%TO.P,U2_3,*%
%TO.N,*%
X61095000Y-57160000D03*
D15*
X61365000Y-60560000D03*
X22635000Y-60560000D03*
D14*
X22905000Y-57160000D03*
D13*
%TO.P,U2_3,P15*%
%TO.N,+12V*%
X57875000Y-62270000D03*
%TO.P,U2_3,P14*%
X56605000Y-62270000D03*
%TO.P,U2_3,P13*%
X55335000Y-62270000D03*
%TO.P,U2_3,P12*%
%TO.N,GND*%
X54065000Y-62270000D03*
%TO.P,U2_3,P11*%
%TO.N,/sas3/ACT*%
X52795000Y-62270000D03*
%TO.P,U2_3,P10*%
%TO.N,GND*%
X51525000Y-62270000D03*
%TO.P,U2_3,P9*%
%TO.N,+5V*%
X50255000Y-62270000D03*
%TO.P,U2_3,P8*%
X48985000Y-62270000D03*
%TO.P,U2_3,P7*%
X47715000Y-62270000D03*
%TO.P,U2_3,P6*%
%TO.N,GND*%
X46445000Y-62270000D03*
%TO.P,U2_3,P5*%
X45175000Y-62270000D03*
%TO.P,U2_3,P4*%
X43905000Y-62270000D03*
%TO.P,U2_3,P3*%
%TO.N,Net-(U2_3-PadP3)*%
X42635000Y-62270000D03*
%TO.P,U2_3,P2*%
%TO.N,Net-(U2_3-PadP2)*%
X41365000Y-62270000D03*
%TO.P,U2_3,S7*%
%TO.N,GND*%
X33745000Y-62270000D03*
%TO.P,U2_3,S6*%
%TO.N,Net-(U2_3-PadS6)*%
X32475000Y-62270000D03*
%TO.P,U2_3,S5*%
%TO.N,Net-(U2_3-PadS5)*%
X31205000Y-62270000D03*
%TO.P,U2_3,S4*%
%TO.N,GND*%
X29935000Y-62270000D03*
%TO.P,U2_3,S3*%
%TO.N,Net-(U2_3-PadS3)*%
X28665000Y-62270000D03*
%TO.P,U2_3,S2*%
%TO.N,Net-(U2_3-PadS2)*%
X27395000Y-62270000D03*
%TO.P,U2_3,S1*%
%TO.N,GND*%
X26125000Y-62270000D03*
D12*
%TO.P,U2_3,E6*%
%TO.N,Net-(U2_3-PadE6)*%
X38920000Y-62890000D03*
D13*
%TO.P,U2_3,P1*%
%TO.N,/sas3/WAKE*%
X40095000Y-62270000D03*
D12*
%TO.P,U2_3,E5*%
%TO.N,/sas3/RST*%
X38120000Y-62890000D03*
%TO.P,U2_3,E4*%
%TO.N,Net-(U2_3-PadE4)*%
X37320000Y-62890000D03*
%TO.P,U2_3,E3*%
%TO.N,Net-(U2_3-PadE3)*%
X36520000Y-62890000D03*
%TO.P,U2_3,E2*%
%TO.N,Net-(U2_3-PadE2)*%
X35720000Y-62890000D03*
%TO.P,U2_3,E1*%
%TO.N,Net-(U2_3-PadE1)*%
X34920000Y-62890000D03*
%TD*%
D16*
%TO.P,SAS3,D7*%
%TO.N,/sas3/R2+*%
X3420000Y-61200000D03*
%TO.P,SAS3,D8*%
%TO.N,/sas3/R2-*%
X4820000Y-61950000D03*
%TO.P,SAS3,D5*%
%TO.N,/sas3/R0-*%
X4820000Y-59700000D03*
%TO.P,SAS3,D3*%
%TO.N,GND*%
X4120000Y-58200000D03*
%TO.P,SAS3,D9*%
X4120000Y-62700000D03*
%TO.P,SAS3,D4*%
%TO.N,/sas3/R0+*%
X3420000Y-58950000D03*
%TO.P,SAS3,D1*%
%TO.N,/sas3/SCLK*%
X3420000Y-56700000D03*
%TO.P,SAS3,D6*%
%TO.N,GND*%
X4120000Y-60450000D03*
%TO.P,SAS3,D2*%
%TO.N,/sas3/SDAT*%
X4820000Y-57450000D03*
%TO.P,SAS3,C7*%
%TO.N,/sas3/R3+*%
X7220000Y-61200000D03*
%TO.P,SAS3,C8*%
%TO.N,/sas3/R3-*%
X8620000Y-61950000D03*
%TO.P,SAS3,C5*%
%TO.N,/sas3/R1-*%
X8620000Y-59700000D03*
%TO.P,SAS3,C3*%
%TO.N,GND*%
X7920000Y-58200000D03*
%TO.P,SAS3,C9*%
X7920000Y-62700000D03*
%TO.P,SAS3,C4*%
%TO.N,/sas3/R1+*%
X7220000Y-58950000D03*
%TO.P,SAS3,C1*%
%TO.N,/sas3/WAKE*%
X7220000Y-56700000D03*
%TO.P,SAS3,C6*%
%TO.N,GND*%
X7920000Y-60450000D03*
%TO.P,SAS3,C2*%
%TO.N,Net-(SAS3-PadC2)*%
X8620000Y-57450000D03*
%TO.P,SAS3,B7*%
%TO.N,/sas3/T2+*%
X11020000Y-61200000D03*
%TO.P,SAS3,B8*%
%TO.N,/sas3/T2-*%
X12420000Y-61950000D03*
%TO.P,SAS3,B5*%
%TO.N,/sas3/T0-*%
X12420000Y-59700000D03*
%TO.P,SAS3,B3*%
%TO.N,GND*%
X11720000Y-58200000D03*
%TO.P,SAS3,B9*%
X11720000Y-62700000D03*
%TO.P,SAS3,B4*%
%TO.N,/sas3/T0+*%
X11020000Y-58950000D03*
%TO.P,SAS3,B1*%
%TO.N,Net-(SAS3-PadB1)*%
X11020000Y-56700000D03*
%TO.P,SAS3,B6*%
%TO.N,GND*%
X11720000Y-60450000D03*
%TO.P,SAS3,B2*%
%TO.N,/sas3/RST*%
X12420000Y-57450000D03*
%TO.P,SAS3,A8*%
%TO.N,/sas3/T3-*%
X16220000Y-61950000D03*
%TO.P,SAS3,A9*%
%TO.N,GND*%
X15520000Y-62700000D03*
%TO.P,SAS3,A6*%
X15520000Y-60450000D03*
%TO.P,SAS3,A7*%
%TO.N,/sas3/T3+*%
X14820000Y-61200000D03*
%TO.P,SAS3,A5*%
%TO.N,/sas3/T1-*%
X16220000Y-59700000D03*
%TO.P,SAS3,A1*%
%TO.N,/sas3/CLK-*%
X14820000Y-56700000D03*
%TO.P,SAS3,A2*%
%TO.N,/sas3/CLK+*%
X16220000Y-57450000D03*
%TO.P,SAS3,A3*%
%TO.N,GND*%
X15520000Y-58200000D03*
%TO.P,SAS3,A4*%
%TO.N,/sas3/T1+*%
X14820000Y-58950000D03*
%TD*%
D17*
%TO.P,POWER0,4*%
%TO.N,+5V*%
X60960000Y-67990000D03*
%TO.P,POWER0,3*%
%TO.N,GND*%
X63460000Y-67990000D03*
%TO.P,POWER0,2*%
X65960000Y-67990000D03*
D18*
%TO.P,POWER0,1*%
%TO.N,+12V*%
X68460000Y-67990000D03*
%TD*%
D19*
%TO.N,GND*%
X39320000Y-43500000D03*
X45720000Y-41100000D03*
X32920000Y-41100000D03*
X48120000Y-43500000D03*
X44920000Y-37300000D03*
X25720000Y-37300000D03*
X52920000Y-41100000D03*
X25720000Y-50300000D03*
X45720000Y-43500000D03*
X38520000Y-37300000D03*
X22520000Y-37300000D03*
D20*
X46420000Y-49445000D03*
X45175000Y-49445000D03*
D19*
X40920000Y-43500000D03*
X28920000Y-37300000D03*
X36920000Y-43500000D03*
X52920000Y-43500000D03*
X43320000Y-41100000D03*
D20*
X51525000Y-49445000D03*
D19*
X50520000Y-43500000D03*
X29935000Y-45100000D03*
X55320000Y-43500000D03*
X43320000Y-43500000D03*
X48120000Y-37300000D03*
X9720000Y-50300000D03*
X19320000Y-50300000D03*
X34520000Y-41100000D03*
X6520000Y-37300000D03*
X32920000Y-43500000D03*
D20*
X43905000Y-49445000D03*
X54040000Y-49445000D03*
D19*
X12920000Y-50300000D03*
X48120000Y-41100000D03*
X38520000Y-50300000D03*
X12920000Y-37300000D03*
X57720000Y-41100000D03*
X51320000Y-37300000D03*
X26125000Y-45070000D03*
X34520000Y-43500000D03*
X55320000Y-41100000D03*
X57720000Y-43500000D03*
X50520000Y-41100000D03*
X9720000Y-37300000D03*
X54520000Y-37300000D03*
X33745000Y-45100000D03*
X36920000Y-41100000D03*
X19320000Y-37300000D03*
X57720000Y-37300000D03*
X16120000Y-50300000D03*
X16120000Y-37300000D03*
X41720000Y-37300000D03*
X32120000Y-37300000D03*
X35320000Y-37300000D03*
X32120000Y-50300000D03*
X41720000Y-50300000D03*
X40920000Y-41100000D03*
X22520000Y-50300000D03*
X35320000Y-50300000D03*
X28120000Y-43500000D03*
X6520000Y-50300000D03*
X28920000Y-50300000D03*
X39320000Y-41100000D03*
X30520000Y-43500000D03*
X30520000Y-41100000D03*
X28120000Y-41100000D03*
X39320000Y-27500000D03*
X45720000Y-25100000D03*
X32920000Y-25100000D03*
X48120000Y-27500000D03*
X44920000Y-21300000D03*
X25720000Y-21300000D03*
X52920000Y-25100000D03*
X25720000Y-34300000D03*
X45720000Y-27500000D03*
X38520000Y-21300000D03*
X22520000Y-21300000D03*
D20*
X46420000Y-33445000D03*
X45175000Y-33445000D03*
D19*
X40920000Y-27500000D03*
X28920000Y-21300000D03*
X36920000Y-27500000D03*
X52920000Y-27500000D03*
X43320000Y-25100000D03*
D20*
X51525000Y-33445000D03*
D19*
X50520000Y-27500000D03*
X29935000Y-29100000D03*
X55320000Y-27500000D03*
X43320000Y-27500000D03*
X48120000Y-21300000D03*
X9720000Y-34300000D03*
X19320000Y-34300000D03*
X34520000Y-25100000D03*
X6520000Y-21300000D03*
X32920000Y-27500000D03*
D20*
X43905000Y-33445000D03*
X54040000Y-33445000D03*
D19*
X12920000Y-34300000D03*
X48120000Y-25100000D03*
X38520000Y-34300000D03*
X12920000Y-21300000D03*
X57720000Y-25100000D03*
X51320000Y-21300000D03*
X26125000Y-29070000D03*
X34520000Y-27500000D03*
X55320000Y-25100000D03*
X57720000Y-27500000D03*
X50520000Y-25100000D03*
X9720000Y-21300000D03*
X54520000Y-21300000D03*
X33745000Y-29100000D03*
X36920000Y-25100000D03*
X19320000Y-21300000D03*
X57720000Y-21300000D03*
X16120000Y-34300000D03*
X16120000Y-21300000D03*
X41720000Y-21300000D03*
X32120000Y-21300000D03*
X35320000Y-21300000D03*
X32120000Y-34300000D03*
X41720000Y-34300000D03*
X40920000Y-25100000D03*
X22520000Y-34300000D03*
X35320000Y-34300000D03*
X28120000Y-27500000D03*
X6520000Y-34300000D03*
X28920000Y-34300000D03*
X39320000Y-25100000D03*
X30520000Y-27500000D03*
X30520000Y-25100000D03*
X28120000Y-25100000D03*
X39320000Y-11500000D03*
X45720000Y-9100000D03*
X32920000Y-9100000D03*
X48120000Y-11500000D03*
X44920000Y-5300000D03*
X25720000Y-5300000D03*
X52920000Y-9100000D03*
X25720000Y-18300000D03*
X45720000Y-11500000D03*
X38520000Y-5300000D03*
X22520000Y-5300000D03*
D20*
X46420000Y-17445000D03*
X45175000Y-17445000D03*
D19*
X40920000Y-11500000D03*
X28920000Y-5300000D03*
X36920000Y-11500000D03*
X52920000Y-11500000D03*
X43320000Y-9100000D03*
D20*
X51525000Y-17445000D03*
D19*
X50520000Y-11500000D03*
X29935000Y-13100000D03*
X55320000Y-11500000D03*
X43320000Y-11500000D03*
X48120000Y-5300000D03*
X9720000Y-18300000D03*
X19320000Y-18300000D03*
X34520000Y-9100000D03*
X6520000Y-5300000D03*
X32920000Y-11500000D03*
D20*
X43905000Y-17445000D03*
X54040000Y-17445000D03*
D19*
X12920000Y-18300000D03*
X48120000Y-9100000D03*
X38520000Y-18300000D03*
X12920000Y-5300000D03*
X57720000Y-9100000D03*
X51320000Y-5300000D03*
X26125000Y-13070000D03*
X34520000Y-11500000D03*
X55320000Y-9100000D03*
X57720000Y-11500000D03*
X50520000Y-9100000D03*
X9720000Y-5300000D03*
X54520000Y-5300000D03*
X33745000Y-13100000D03*
X36920000Y-9100000D03*
X19320000Y-5300000D03*
X57720000Y-5300000D03*
X16120000Y-18300000D03*
X16120000Y-5300000D03*
X41720000Y-5300000D03*
X32120000Y-5300000D03*
X35320000Y-5300000D03*
X32120000Y-18300000D03*
X41720000Y-18300000D03*
X40920000Y-9100000D03*
X22520000Y-18300000D03*
X35320000Y-18300000D03*
X28120000Y-11500000D03*
X6520000Y-18300000D03*
X28920000Y-18300000D03*
X39320000Y-9100000D03*
X30520000Y-11500000D03*
X30520000Y-9100000D03*
X28120000Y-9100000D03*
X43320000Y-59500000D03*
X45720000Y-57100000D03*
X39320000Y-59500000D03*
X28120000Y-57100000D03*
X16120000Y-53300000D03*
X16120000Y-66300000D03*
X6520000Y-66300000D03*
X9720000Y-66300000D03*
X12920000Y-66300000D03*
X48120000Y-53300000D03*
X41720000Y-53300000D03*
X28920000Y-53300000D03*
X38520000Y-53300000D03*
X32120000Y-53300000D03*
X35320000Y-53300000D03*
X44920000Y-53300000D03*
X25720000Y-53300000D03*
X22520000Y-53300000D03*
X38520000Y-66300000D03*
X32120000Y-66300000D03*
X41720000Y-66300000D03*
X28920000Y-66300000D03*
X22520000Y-66300000D03*
X35320000Y-66300000D03*
X25720000Y-66300000D03*
X19320000Y-66300000D03*
X6520000Y-53300000D03*
X9720000Y-53300000D03*
X12920000Y-53300000D03*
X19320000Y-53300000D03*
X54520000Y-53300000D03*
X51320000Y-53300000D03*
X57720000Y-53300000D03*
D20*
X43905000Y-65445000D03*
X54040000Y-65445000D03*
X51525000Y-65445000D03*
X46420000Y-65445000D03*
X45175000Y-65445000D03*
D19*
X50520000Y-57100000D03*
X52920000Y-57100000D03*
X55320000Y-57100000D03*
X57720000Y-57100000D03*
X48120000Y-57100000D03*
X43320000Y-57100000D03*
X39320000Y-57100000D03*
X34520000Y-57100000D03*
X32920000Y-57100000D03*
X30520000Y-57100000D03*
X28120000Y-59500000D03*
X30520000Y-59500000D03*
X32920000Y-59500000D03*
X34520000Y-59500000D03*
X36920000Y-59500000D03*
X40920000Y-59500000D03*
X45720000Y-59500000D03*
X48120000Y-59500000D03*
X50520000Y-59500000D03*
X52920000Y-59500000D03*
X55320000Y-59500000D03*
X57720000Y-59500000D03*
X26125000Y-61070000D03*
X29935000Y-61100000D03*
X33745000Y-61100000D03*
X36920000Y-57100000D03*
X40920000Y-57100000D03*
D20*
%TO.N,+12V*%
X55310000Y-49445000D03*
X56580000Y-49445000D03*
X57875000Y-49445000D03*
X55310000Y-33445000D03*
X56580000Y-33445000D03*
X57875000Y-33445000D03*
X55310000Y-17445000D03*
X56580000Y-17445000D03*
X57875000Y-17445000D03*
X57875000Y-65445000D03*
X56580000Y-65445000D03*
X55310000Y-65445000D03*
%TO.N,+5V*%
X48985000Y-49445000D03*
X47715000Y-49420000D03*
X50255000Y-49445000D03*
X48985000Y-33445000D03*
X47715000Y-33420000D03*
X50255000Y-33445000D03*
X48985000Y-17445000D03*
X47715000Y-17420000D03*
X50255000Y-17445000D03*
X47715000Y-65420000D03*
X50255000Y-65445000D03*
X48985000Y-65445000D03*
D19*
%TO.N,/sas3/SDAT*%
X56920000Y-56900000D03*
%TO.N,/sas3/SCLK*%
X56120000Y-56900000D03*
%TO.N,/sas3/R3+*%
X53924284Y-56495716D03*
%TO.N,/sas3/R3-*%
X53515716Y-56904284D03*
%TO.N,/sas3/T3-*%
X52324284Y-56904284D03*
%TO.N,/sas3/T3+*%
X51915716Y-56495716D03*
%TO.N,/sas3/R2+*%
X49124284Y-56495716D03*
%TO.N,/sas3/R2-*%
X48715716Y-56904284D03*
%TO.N,/sas3/T2-*%
X47524284Y-56904284D03*
%TO.N,/sas3/T2+*%
X47115716Y-56495716D03*
%TO.N,/sas3/R1+*%
X44324284Y-56495716D03*
%TO.N,/sas3/R1-*%
X43915716Y-56904284D03*
%TO.N,/sas3/T1-*%
X42724284Y-56904284D03*
%TO.N,/sas3/T1+*%
X42315716Y-56495716D03*
%TO.N,/sas3/R0+*%
X31524284Y-56495716D03*
%TO.N,/sas3/R0-*%
X31115716Y-56904284D03*
%TO.N,/sas3/T0-*%
X29924284Y-56904284D03*
%TO.N,/sas3/T0+*%
X29515716Y-56495716D03*
%TO.N,/sas0/SDAT*%
X56920000Y-8900000D03*
%TO.N,/sas0/SCLK*%
X56120000Y-8900000D03*
%TO.N,/sas0/R3+*%
X53924284Y-8495716D03*
%TO.N,/sas0/R3-*%
X53515716Y-8904284D03*
%TO.N,/sas0/T3-*%
X52324284Y-8904284D03*
%TO.N,/sas0/T3+*%
X51915716Y-8495716D03*
%TO.N,/sas0/R2+*%
X49124284Y-8495716D03*
%TO.N,/sas0/R2-*%
X48715716Y-8904284D03*
%TO.N,/sas0/T2-*%
X47524284Y-8904284D03*
%TO.N,/sas0/T2+*%
X47115716Y-8495716D03*
%TO.N,/sas0/R1+*%
X44324284Y-8495716D03*
%TO.N,/sas0/R1-*%
X43915716Y-8904284D03*
%TO.N,/sas0/T1-*%
X42724284Y-8904284D03*
%TO.N,/sas0/T1+*%
X42315716Y-8495716D03*
%TO.N,/sas0/R0+*%
X31524284Y-8495716D03*
%TO.N,/sas0/R0-*%
X31115716Y-8904284D03*
%TO.N,/sas0/T0-*%
X29924284Y-8904284D03*
%TO.N,/sas0/T0+*%
X29515716Y-8495716D03*
%TO.N,/sas1/SDAT*%
X56920000Y-24900000D03*
%TO.N,/sas1/SCLK*%
X56120000Y-24900000D03*
%TO.N,/sas1/R3+*%
X53924284Y-24495716D03*
%TO.N,/sas1/R3-*%
X53515716Y-24904284D03*
%TO.N,/sas1/T3-*%
X52324284Y-24904284D03*
%TO.N,/sas1/T3+*%
X51915716Y-24495716D03*
%TO.N,/sas1/R2+*%
X49124284Y-24495716D03*
%TO.N,/sas1/R2-*%
X48715716Y-24904284D03*
%TO.N,/sas1/T2-*%
X47524284Y-24904284D03*
%TO.N,/sas1/T2+*%
X47115716Y-24495716D03*
%TO.N,/sas1/R1+*%
X44324284Y-24495716D03*
%TO.N,/sas1/R1-*%
X43915716Y-24904284D03*
%TO.N,/sas1/T1-*%
X42724284Y-24904284D03*
%TO.N,/sas1/T1+*%
X42315716Y-24495716D03*
%TO.N,/sas1/R0+*%
X31524284Y-24495716D03*
%TO.N,/sas1/R0-*%
X31115716Y-24904284D03*
%TO.N,/sas1/T0-*%
X29924284Y-24904284D03*
%TO.N,/sas1/T0+*%
X29515716Y-24495716D03*
%TO.N,/sas2/SDAT*%
X56920000Y-40900000D03*
%TO.N,/sas2/SCLK*%
X56120000Y-40900000D03*
%TO.N,/sas2/R3+*%
X53924284Y-40495716D03*
%TO.N,/sas2/R3-*%
X53515716Y-40904284D03*
%TO.N,/sas2/T3-*%
X52324284Y-40904284D03*
%TO.N,/sas2/T3+*%
X51915716Y-40495716D03*
%TO.N,/sas2/R2+*%
X49124284Y-40495716D03*
%TO.N,/sas2/R2-*%
X48715716Y-40904284D03*
%TO.N,/sas2/T2-*%
X47524284Y-40904284D03*
%TO.N,/sas2/T2+*%
X47115716Y-40495716D03*
%TO.N,/sas2/R1+*%
X44324284Y-40495716D03*
%TO.N,/sas2/R1-*%
X43915716Y-40904284D03*
%TO.N,/sas2/T1-*%
X42724284Y-40904284D03*
%TO.N,/sas2/T1+*%
X42315716Y-40495716D03*
%TO.N,/sas2/R0+*%
X31524284Y-40495716D03*
%TO.N,/sas2/R0-*%
X31115716Y-40904284D03*
%TO.N,/sas2/T0-*%
X29924284Y-40904284D03*
%TO.N,/sas2/T0+*%
X29515716Y-40495716D03*
%TD*%
D21*
%TO.N,GND*%
X46420000Y-46295000D02*
X46445000Y-46270000D01*
X30520000Y-42300000D02*
X30520000Y-41100000D01*
X50520000Y-42300000D02*
X50520000Y-43500000D01*
X54040000Y-46295000D02*
X54065000Y-46270000D01*
X55320000Y-42300000D02*
X55320000Y-41100000D01*
X48120000Y-42300000D02*
X48120000Y-43500000D01*
X45720000Y-42300000D02*
X45720000Y-43500000D01*
X45150000Y-46295000D02*
X45175000Y-46270000D01*
D22*
X54040000Y-49445000D02*
X54040000Y-46295000D01*
D21*
X36920000Y-42300000D02*
X36920000Y-43500000D01*
X39320000Y-42300000D02*
X39320000Y-41100000D01*
D22*
X46420000Y-49445000D02*
X46420000Y-46295000D01*
D21*
X52920000Y-42300000D02*
X52920000Y-43500000D01*
X55320000Y-42300000D02*
X55320000Y-43500000D01*
X29935000Y-46270000D02*
X29935000Y-45100000D01*
X39320000Y-42300000D02*
X39320000Y-43500000D01*
X28120000Y-42300000D02*
X28120000Y-41100000D01*
X34520000Y-42300000D02*
X34520000Y-41100000D01*
X32920000Y-42300000D02*
X32920000Y-43500000D01*
X43320000Y-42300000D02*
X43320000Y-41100000D01*
X57720000Y-42300000D02*
X57720000Y-41100000D01*
D22*
X43905000Y-46270000D02*
X43905000Y-49445000D01*
X51525000Y-46270000D02*
X51525000Y-49445000D01*
D21*
X48120000Y-42300000D02*
X48120000Y-41100000D01*
X26125000Y-46270000D02*
X26125000Y-45070000D01*
X34520000Y-42300000D02*
X34520000Y-43500000D01*
X57720000Y-42300000D02*
X57720000Y-43500000D01*
X52920000Y-42300000D02*
X52920000Y-41100000D01*
X40920000Y-42300000D02*
X40920000Y-43500000D01*
D22*
X45175000Y-49445000D02*
X45175000Y-46270000D01*
D21*
X50520000Y-42300000D02*
X50520000Y-41100000D01*
X33745000Y-46270000D02*
X33745000Y-45100000D01*
X32920000Y-42300000D02*
X32920000Y-41100000D01*
X36920000Y-42300000D02*
X36920000Y-41100000D01*
X40920000Y-42300000D02*
X40920000Y-41100000D01*
X30520000Y-42300000D02*
X30520000Y-43500000D01*
X45720000Y-42300000D02*
X45720000Y-41100000D01*
X28120000Y-42300000D02*
X28120000Y-43500000D01*
X43320000Y-42300000D02*
X43320000Y-43500000D01*
X46420000Y-30295000D02*
X46445000Y-30270000D01*
X30520000Y-26300000D02*
X30520000Y-25100000D01*
X50520000Y-26300000D02*
X50520000Y-27500000D01*
X54040000Y-30295000D02*
X54065000Y-30270000D01*
X55320000Y-26300000D02*
X55320000Y-25100000D01*
X48120000Y-26300000D02*
X48120000Y-27500000D01*
X45720000Y-26300000D02*
X45720000Y-27500000D01*
X45150000Y-30295000D02*
X45175000Y-30270000D01*
D22*
X54040000Y-33445000D02*
X54040000Y-30295000D01*
D21*
X36920000Y-26300000D02*
X36920000Y-27500000D01*
X39320000Y-26300000D02*
X39320000Y-25100000D01*
D22*
X46420000Y-33445000D02*
X46420000Y-30295000D01*
D21*
X52920000Y-26300000D02*
X52920000Y-27500000D01*
X55320000Y-26300000D02*
X55320000Y-27500000D01*
X29935000Y-30270000D02*
X29935000Y-29100000D01*
X39320000Y-26300000D02*
X39320000Y-27500000D01*
X28120000Y-26300000D02*
X28120000Y-25100000D01*
X34520000Y-26300000D02*
X34520000Y-25100000D01*
X32920000Y-26300000D02*
X32920000Y-27500000D01*
X43320000Y-26300000D02*
X43320000Y-25100000D01*
X57720000Y-26300000D02*
X57720000Y-25100000D01*
D22*
X43905000Y-30270000D02*
X43905000Y-33445000D01*
X51525000Y-30270000D02*
X51525000Y-33445000D01*
D21*
X48120000Y-26300000D02*
X48120000Y-25100000D01*
X26125000Y-30270000D02*
X26125000Y-29070000D01*
X34520000Y-26300000D02*
X34520000Y-27500000D01*
X57720000Y-26300000D02*
X57720000Y-27500000D01*
X52920000Y-26300000D02*
X52920000Y-25100000D01*
X40920000Y-26300000D02*
X40920000Y-27500000D01*
D22*
X45175000Y-33445000D02*
X45175000Y-30270000D01*
D21*
X50520000Y-26300000D02*
X50520000Y-25100000D01*
X33745000Y-30270000D02*
X33745000Y-29100000D01*
X32920000Y-26300000D02*
X32920000Y-25100000D01*
X36920000Y-26300000D02*
X36920000Y-25100000D01*
X40920000Y-26300000D02*
X40920000Y-25100000D01*
X30520000Y-26300000D02*
X30520000Y-27500000D01*
X45720000Y-26300000D02*
X45720000Y-25100000D01*
X28120000Y-26300000D02*
X28120000Y-27500000D01*
X43320000Y-26300000D02*
X43320000Y-27500000D01*
X46420000Y-14295000D02*
X46445000Y-14270000D01*
X30520000Y-10300000D02*
X30520000Y-9100000D01*
X50520000Y-10300000D02*
X50520000Y-11500000D01*
X54040000Y-14295000D02*
X54065000Y-14270000D01*
X55320000Y-10300000D02*
X55320000Y-9100000D01*
X48120000Y-10300000D02*
X48120000Y-11500000D01*
X45720000Y-10300000D02*
X45720000Y-11500000D01*
X45150000Y-14295000D02*
X45175000Y-14270000D01*
D22*
X54040000Y-17445000D02*
X54040000Y-14295000D01*
D21*
X36920000Y-10300000D02*
X36920000Y-11500000D01*
X39320000Y-10300000D02*
X39320000Y-9100000D01*
D22*
X46420000Y-17445000D02*
X46420000Y-14295000D01*
D21*
X52920000Y-10300000D02*
X52920000Y-11500000D01*
X55320000Y-10300000D02*
X55320000Y-11500000D01*
X29935000Y-14270000D02*
X29935000Y-13100000D01*
X39320000Y-10300000D02*
X39320000Y-11500000D01*
X28120000Y-10300000D02*
X28120000Y-9100000D01*
X34520000Y-10300000D02*
X34520000Y-9100000D01*
X32920000Y-10300000D02*
X32920000Y-11500000D01*
X43320000Y-10300000D02*
X43320000Y-9100000D01*
X57720000Y-10300000D02*
X57720000Y-9100000D01*
D22*
X43905000Y-14270000D02*
X43905000Y-17445000D01*
X51525000Y-14270000D02*
X51525000Y-17445000D01*
D21*
X48120000Y-10300000D02*
X48120000Y-9100000D01*
X26125000Y-14270000D02*
X26125000Y-13070000D01*
X34520000Y-10300000D02*
X34520000Y-11500000D01*
X57720000Y-10300000D02*
X57720000Y-11500000D01*
X52920000Y-10300000D02*
X52920000Y-9100000D01*
X40920000Y-10300000D02*
X40920000Y-11500000D01*
D22*
X45175000Y-17445000D02*
X45175000Y-14270000D01*
D21*
X50520000Y-10300000D02*
X50520000Y-9100000D01*
X33745000Y-14270000D02*
X33745000Y-13100000D01*
X32920000Y-10300000D02*
X32920000Y-9100000D01*
X36920000Y-10300000D02*
X36920000Y-9100000D01*
X40920000Y-10300000D02*
X40920000Y-9100000D01*
X30520000Y-10300000D02*
X30520000Y-11500000D01*
X45720000Y-10300000D02*
X45720000Y-9100000D01*
X28120000Y-10300000D02*
X28120000Y-11500000D01*
X43320000Y-10300000D02*
X43320000Y-11500000D01*
X43320000Y-58300000D02*
X43320000Y-59500000D01*
X45720000Y-58300000D02*
X45720000Y-57100000D01*
X39320000Y-58300000D02*
X39320000Y-59500000D01*
X28120000Y-58300000D02*
X28120000Y-57100000D01*
D22*
X51525000Y-62270000D02*
X51525000Y-65445000D01*
D21*
X46420000Y-62295000D02*
X46445000Y-62270000D01*
X54040000Y-62295000D02*
X54065000Y-62270000D01*
D22*
X46420000Y-65445000D02*
X46420000Y-62295000D01*
X43905000Y-62270000D02*
X43905000Y-65445000D01*
D21*
X45150000Y-62295000D02*
X45175000Y-62270000D01*
D22*
X54040000Y-65445000D02*
X54040000Y-62295000D01*
X45175000Y-65445000D02*
X45175000Y-62270000D01*
D21*
X50520000Y-58300000D02*
X50520000Y-57100000D01*
X52920000Y-58300000D02*
X52920000Y-57100000D01*
X55320000Y-58300000D02*
X55320000Y-57100000D01*
X57720000Y-58300000D02*
X57720000Y-57100000D01*
X48120000Y-58300000D02*
X48120000Y-57100000D01*
X43320000Y-58300000D02*
X43320000Y-57100000D01*
X39320000Y-58300000D02*
X39320000Y-57100000D01*
X34520000Y-58300000D02*
X34520000Y-57100000D01*
X32920000Y-58300000D02*
X32920000Y-57100000D01*
X30520000Y-58300000D02*
X30520000Y-57100000D01*
X28120000Y-58300000D02*
X28120000Y-59500000D01*
X30520000Y-58300000D02*
X30520000Y-59500000D01*
X32920000Y-58300000D02*
X32920000Y-59500000D01*
X34520000Y-58300000D02*
X34520000Y-59500000D01*
X36920000Y-58300000D02*
X36920000Y-59500000D01*
X40920000Y-58300000D02*
X40920000Y-59500000D01*
X45720000Y-58300000D02*
X45720000Y-59500000D01*
X48120000Y-58300000D02*
X48120000Y-59500000D01*
X50520000Y-58300000D02*
X50520000Y-59500000D01*
X52920000Y-58300000D02*
X52920000Y-59500000D01*
X55320000Y-58300000D02*
X55320000Y-59500000D01*
X57720000Y-58300000D02*
X57720000Y-59500000D01*
X26125000Y-62270000D02*
X26125000Y-61070000D01*
X29935000Y-62270000D02*
X29935000Y-61100000D01*
X33745000Y-62270000D02*
X33745000Y-61100000D01*
X36920000Y-58300000D02*
X36920000Y-57100000D01*
X40920000Y-58300000D02*
X40920000Y-57100000D01*
D22*
%TO.N,+12V*%
X55310000Y-49445000D02*
X55310000Y-46295000D01*
D21*
X56580000Y-46295000D02*
X56605000Y-46270000D01*
D22*
X57875000Y-49445000D02*
X57875000Y-46270000D01*
X56580000Y-49445000D02*
X56580000Y-46295000D01*
D21*
X55310000Y-46295000D02*
X55335000Y-46270000D01*
D22*
X55310000Y-33445000D02*
X55310000Y-30295000D01*
D21*
X56580000Y-30295000D02*
X56605000Y-30270000D01*
D22*
X57875000Y-33445000D02*
X57875000Y-30270000D01*
X56580000Y-33445000D02*
X56580000Y-30295000D01*
D21*
X55310000Y-30295000D02*
X55335000Y-30270000D01*
D22*
X55310000Y-17445000D02*
X55310000Y-14295000D01*
D21*
X56580000Y-14295000D02*
X56605000Y-14270000D01*
D22*
X57875000Y-17445000D02*
X57875000Y-14270000D01*
X56580000Y-17445000D02*
X56580000Y-14295000D01*
D21*
X55310000Y-14295000D02*
X55335000Y-14270000D01*
D22*
X57875000Y-65445000D02*
X57875000Y-62270000D01*
X56580000Y-65445000D02*
X56580000Y-62295000D01*
D21*
X55310000Y-62295000D02*
X55335000Y-62270000D01*
X56580000Y-62295000D02*
X56605000Y-62270000D01*
D22*
X55310000Y-65445000D02*
X55310000Y-62295000D01*
%TO.N,+5V*%
X48985000Y-46270000D02*
X48985000Y-49445000D01*
D21*
X50230000Y-46295000D02*
X50255000Y-46270000D01*
D22*
X50255000Y-49445000D02*
X50255000Y-46270000D01*
D21*
X48960000Y-46295000D02*
X48985000Y-46270000D01*
D22*
X47715000Y-49420000D02*
X47715000Y-46270000D01*
D21*
X47690000Y-46295000D02*
X47715000Y-46270000D01*
D22*
X48985000Y-30270000D02*
X48985000Y-33445000D01*
D21*
X50230000Y-30295000D02*
X50255000Y-30270000D01*
D22*
X50255000Y-33445000D02*
X50255000Y-30270000D01*
D21*
X48960000Y-30295000D02*
X48985000Y-30270000D01*
D22*
X47715000Y-33420000D02*
X47715000Y-30270000D01*
D21*
X47690000Y-30295000D02*
X47715000Y-30270000D01*
D22*
X48985000Y-14270000D02*
X48985000Y-17445000D01*
D21*
X50230000Y-14295000D02*
X50255000Y-14270000D01*
D22*
X50255000Y-17445000D02*
X50255000Y-14270000D01*
D21*
X48960000Y-14295000D02*
X48985000Y-14270000D01*
D22*
X47715000Y-17420000D02*
X47715000Y-14270000D01*
D21*
X47690000Y-14295000D02*
X47715000Y-14270000D01*
D22*
X50255000Y-65445000D02*
X50255000Y-62270000D01*
D21*
X48960000Y-62295000D02*
X48985000Y-62270000D01*
D22*
X47715000Y-65420000D02*
X47715000Y-62270000D01*
D21*
X47690000Y-62295000D02*
X47715000Y-62270000D01*
D22*
X48985000Y-62270000D02*
X48985000Y-65445000D01*
D21*
X50230000Y-62295000D02*
X50255000Y-62270000D01*
D23*
%TO.N,/sas3/RST*%
X15320000Y-65100000D02*
X13320000Y-63100000D01*
X36937000Y-65100000D02*
X15320000Y-65100000D01*
X13320000Y-63100000D02*
X13320000Y-58350000D01*
X38120000Y-62890000D02*
X38120000Y-63917000D01*
X13320000Y-58350000D02*
X12420000Y-57450000D01*
X38120000Y-63917000D02*
X36937000Y-65100000D01*
%TO.N,/sas3/WAKE*%
X8920000Y-56700000D02*
X7220000Y-56700000D01*
X40095000Y-62270000D02*
X40095000Y-63297000D01*
X37892000Y-65500000D02*
X12120000Y-65500000D01*
X12120000Y-65500000D02*
X9720000Y-63100000D01*
X40095000Y-63297000D02*
X37892000Y-65500000D01*
X9720000Y-63100000D02*
X9720000Y-57500000D01*
X9720000Y-57500000D02*
X8920000Y-56700000D01*
%TO.N,/sas3/SDAT*%
X56920000Y-58300000D02*
X56920000Y-56900000D01*
X6520000Y-53900000D02*
X53920000Y-53900000D01*
X53920000Y-53900000D02*
X56920000Y-56900000D01*
X4820000Y-57450000D02*
X4820000Y-55600000D01*
X4820000Y-55600000D02*
X6520000Y-53900000D01*
%TO.N,/sas3/SCLK*%
X56120000Y-58300000D02*
X56120000Y-56900000D01*
%TO.N,/sas3/R3+*%
X54272400Y-57036873D02*
X53924284Y-56688757D01*
X54272400Y-57402400D02*
X54272400Y-57036873D01*
X54520000Y-57650000D02*
X54272400Y-57402400D01*
X54520000Y-58300000D02*
X54520000Y-57650000D01*
X53924284Y-56688757D02*
X53924284Y-56495716D01*
%TO.N,/sas3/R3-*%
X53708757Y-56904284D02*
X53515716Y-56904284D01*
X53720000Y-58300000D02*
X53720000Y-57650000D01*
X53720000Y-57650000D02*
X53967600Y-57402400D01*
X53967600Y-57402400D02*
X53967600Y-57163127D01*
X53967600Y-57163127D02*
X53708757Y-56904284D01*
%TO.N,/sas3/T3-*%
X52131243Y-56904284D02*
X52324284Y-56904284D01*
X52120000Y-58300000D02*
X52120000Y-57650000D01*
X52120000Y-57650000D02*
X51872400Y-57402400D01*
X51872400Y-57402400D02*
X51872400Y-57163127D01*
X51872400Y-57163127D02*
X52131243Y-56904284D01*
%TO.N,/sas3/T3+*%
X51915716Y-56688757D02*
X51915716Y-56495716D01*
X51567600Y-57036873D02*
X51915716Y-56688757D01*
X51567600Y-57402400D02*
X51567600Y-57036873D01*
X51320000Y-57650000D02*
X51567600Y-57402400D01*
X51320000Y-58300000D02*
X51320000Y-57650000D01*
%TO.N,/sas3/R2+*%
X49124284Y-56688757D02*
X49124284Y-56495716D01*
X49720000Y-57650000D02*
X49472400Y-57402400D01*
X49720000Y-58300000D02*
X49720000Y-57650000D01*
X49472400Y-57402400D02*
X49472400Y-57036873D01*
X49472400Y-57036873D02*
X49124284Y-56688757D01*
%TO.N,/sas3/R2-*%
X48908757Y-56904284D02*
X48715716Y-56904284D01*
X49167600Y-57163127D02*
X48908757Y-56904284D01*
X48920000Y-58300000D02*
X48920000Y-57650000D01*
X48920000Y-57650000D02*
X49167600Y-57402400D01*
X49167600Y-57402400D02*
X49167600Y-57163127D01*
%TO.N,/sas3/T2-*%
X47331243Y-56904284D02*
X47524284Y-56904284D01*
X47320000Y-58300000D02*
X47320000Y-57650000D01*
X47320000Y-57650000D02*
X47072400Y-57402400D01*
X47072400Y-57402400D02*
X47072400Y-57163127D01*
X47072400Y-57163127D02*
X47331243Y-56904284D01*
%TO.N,/sas3/T2+*%
X47115716Y-56688757D02*
X47115716Y-56495716D01*
X46767600Y-57036873D02*
X47115716Y-56688757D01*
X46520000Y-57650000D02*
X46767600Y-57402400D01*
X46520000Y-58300000D02*
X46520000Y-57650000D01*
X46767600Y-57402400D02*
X46767600Y-57036873D01*
%TO.N,/sas3/R1+*%
X44324284Y-56688757D02*
X44324284Y-56495716D01*
X44672400Y-57036873D02*
X44324284Y-56688757D01*
X44672400Y-57402400D02*
X44672400Y-57036873D01*
X44920000Y-58300000D02*
X44920000Y-57650000D01*
X44920000Y-57650000D02*
X44672400Y-57402400D01*
%TO.N,/sas3/R1-*%
X44367600Y-57163127D02*
X44108757Y-56904284D01*
X44120000Y-58300000D02*
X44120000Y-57650000D01*
X44120000Y-57650000D02*
X44367600Y-57402400D01*
X44108757Y-56904284D02*
X43915716Y-56904284D01*
X44367600Y-57402400D02*
X44367600Y-57163127D01*
%TO.N,/sas3/T1-*%
X42531243Y-56904284D02*
X42724284Y-56904284D01*
X42272400Y-57163127D02*
X42531243Y-56904284D01*
X42272400Y-57402400D02*
X42272400Y-57163127D01*
X42520000Y-58300000D02*
X42520000Y-57650000D01*
X42520000Y-57650000D02*
X42272400Y-57402400D01*
%TO.N,/sas3/T1+*%
X42315716Y-56688757D02*
X42315716Y-56495716D01*
X41967600Y-57036873D02*
X42315716Y-56688757D01*
X41967600Y-57402400D02*
X41967600Y-57036873D01*
X41720000Y-57650000D02*
X41967600Y-57402400D01*
X41720000Y-58300000D02*
X41720000Y-57650000D01*
%TO.N,/sas3/R0+*%
X31872400Y-57402400D02*
X31872400Y-57036873D01*
X32120000Y-58300000D02*
X32120000Y-57650000D01*
X32120000Y-57650000D02*
X31872400Y-57402400D01*
X31524284Y-56688757D02*
X31524284Y-56495716D01*
X31872400Y-57036873D02*
X31524284Y-56688757D01*
%TO.N,/sas3/R0-*%
X31320000Y-58300000D02*
X31320000Y-57650000D01*
X31308757Y-56904284D02*
X31115716Y-56904284D01*
X31320000Y-57650000D02*
X31567600Y-57402400D01*
X31567600Y-57402400D02*
X31567600Y-57163127D01*
X31567600Y-57163127D02*
X31308757Y-56904284D01*
%TO.N,/sas3/T0-*%
X29731243Y-56904284D02*
X29924284Y-56904284D01*
X29720000Y-58300000D02*
X29720000Y-57650000D01*
X29720000Y-57650000D02*
X29472400Y-57402400D01*
X29472400Y-57402400D02*
X29472400Y-57163127D01*
X29472400Y-57163127D02*
X29731243Y-56904284D01*
%TO.N,/sas3/T0+*%
X29167600Y-57036873D02*
X29515716Y-56688757D01*
X29515716Y-56688757D02*
X29515716Y-56495716D01*
X29167600Y-57402400D02*
X29167600Y-57036873D01*
X28920000Y-57650000D02*
X29167600Y-57402400D01*
X28920000Y-58300000D02*
X28920000Y-57650000D01*
%TO.N,/sas3/CLK-*%
X16972400Y-54547600D02*
X14820000Y-56700000D01*
X27072400Y-55836872D02*
X25783128Y-54547600D01*
X25783128Y-54547600D02*
X16972400Y-54547600D01*
X27320000Y-58300000D02*
X27320000Y-57650000D01*
X27320000Y-57650000D02*
X27072400Y-57402400D01*
X27072400Y-57402400D02*
X27072400Y-55836872D01*
%TO.N,/sas3/CLK+*%
X26520000Y-57650000D02*
X26520000Y-58300000D01*
X26767600Y-57402400D02*
X26520000Y-57650000D01*
X22800000Y-54852400D02*
X25656872Y-54852400D01*
X22673000Y-54979400D02*
X22800000Y-54852400D01*
X22038000Y-54852400D02*
X22292000Y-54852400D01*
X21657000Y-54979400D02*
X21911000Y-54979400D01*
X21911000Y-54979400D02*
X22038000Y-54852400D01*
X21276000Y-54852400D02*
X21530000Y-54852400D01*
X21149000Y-54979400D02*
X21276000Y-54852400D01*
X25656872Y-54852400D02*
X26767600Y-55963128D01*
X20895000Y-54979400D02*
X21149000Y-54979400D01*
X21530000Y-54852400D02*
X21657000Y-54979400D01*
X17720000Y-54852400D02*
X17847000Y-54979400D01*
X22292000Y-54852400D02*
X22419000Y-54979400D01*
X20387000Y-54979400D02*
X20514000Y-54852400D01*
X17847000Y-54979400D02*
X18101000Y-54979400D01*
X17098653Y-54852400D02*
X17720000Y-54852400D01*
X20133000Y-54979400D02*
X20387000Y-54979400D01*
X16220000Y-57450000D02*
X16220000Y-55731053D01*
X18228000Y-54852400D02*
X18482000Y-54852400D01*
X18101000Y-54979400D02*
X18228000Y-54852400D01*
X19244000Y-54852400D02*
X19371000Y-54979400D01*
X26767600Y-55963128D02*
X26767600Y-57402400D01*
X19752000Y-54852400D02*
X20006000Y-54852400D01*
X16220000Y-55731053D02*
X17098653Y-54852400D01*
X19371000Y-54979400D02*
X19625000Y-54979400D01*
X20006000Y-54852400D02*
X20133000Y-54979400D01*
X20514000Y-54852400D02*
X20768000Y-54852400D01*
X18482000Y-54852400D02*
X18609000Y-54979400D01*
X19625000Y-54979400D02*
X19752000Y-54852400D01*
X18609000Y-54979400D02*
X18863000Y-54979400D01*
X22419000Y-54979400D02*
X22673000Y-54979400D01*
X18863000Y-54979400D02*
X18990000Y-54852400D01*
X20768000Y-54852400D02*
X20895000Y-54979400D01*
X18990000Y-54852400D02*
X19244000Y-54852400D01*
%TO.N,/sas0/RST*%
X15320000Y-17100000D02*
X13320000Y-15100000D01*
X13320000Y-10350000D02*
X12420000Y-9450000D01*
X38120000Y-14890000D02*
X38120000Y-15917000D01*
X38120000Y-15917000D02*
X36937000Y-17100000D01*
X13320000Y-15100000D02*
X13320000Y-10350000D01*
X36937000Y-17100000D02*
X15320000Y-17100000D01*
%TO.N,/sas0/WAKE*%
X9720000Y-9500000D02*
X8920000Y-8700000D01*
X8920000Y-8700000D02*
X7220000Y-8700000D01*
X9720000Y-15100000D02*
X9720000Y-9500000D01*
X12120000Y-17500000D02*
X9720000Y-15100000D01*
X37892000Y-17500000D02*
X12120000Y-17500000D01*
X40095000Y-14270000D02*
X40095000Y-15297000D01*
X40095000Y-15297000D02*
X37892000Y-17500000D01*
%TO.N,/sas0/SDAT*%
X4820000Y-9450000D02*
X4820000Y-7600000D01*
X56920000Y-10300000D02*
X56920000Y-8900000D01*
X53920000Y-5900000D02*
X56920000Y-8900000D01*
X6520000Y-5900000D02*
X53920000Y-5900000D01*
X4820000Y-7600000D02*
X6520000Y-5900000D01*
%TO.N,/sas0/SCLK*%
X56120000Y-10300000D02*
X56120000Y-8900000D01*
%TO.N,/sas0/R3+*%
X53924284Y-8688757D02*
X53924284Y-8495716D01*
X54272400Y-9036873D02*
X53924284Y-8688757D01*
X54272400Y-9402400D02*
X54272400Y-9036873D01*
X54520000Y-9650000D02*
X54272400Y-9402400D01*
X54520000Y-10300000D02*
X54520000Y-9650000D01*
%TO.N,/sas0/R3-*%
X53967600Y-9163127D02*
X53708757Y-8904284D01*
X53720000Y-10300000D02*
X53720000Y-9650000D01*
X53720000Y-9650000D02*
X53967600Y-9402400D01*
X53708757Y-8904284D02*
X53515716Y-8904284D01*
X53967600Y-9402400D02*
X53967600Y-9163127D01*
%TO.N,/sas0/T3-*%
X51872400Y-9402400D02*
X51872400Y-9163127D01*
X51872400Y-9163127D02*
X52131243Y-8904284D01*
X52131243Y-8904284D02*
X52324284Y-8904284D01*
X52120000Y-10300000D02*
X52120000Y-9650000D01*
X52120000Y-9650000D02*
X51872400Y-9402400D01*
%TO.N,/sas0/T3+*%
X51320000Y-10300000D02*
X51320000Y-9650000D01*
X51915716Y-8688757D02*
X51915716Y-8495716D01*
X51567600Y-9036873D02*
X51915716Y-8688757D01*
X51567600Y-9402400D02*
X51567600Y-9036873D01*
X51320000Y-9650000D02*
X51567600Y-9402400D01*
%TO.N,/sas0/R2+*%
X49124284Y-8688757D02*
X49124284Y-8495716D01*
X49720000Y-9650000D02*
X49472400Y-9402400D01*
X49720000Y-10300000D02*
X49720000Y-9650000D01*
X49472400Y-9402400D02*
X49472400Y-9036873D01*
X49472400Y-9036873D02*
X49124284Y-8688757D01*
%TO.N,/sas0/R2-*%
X48908757Y-8904284D02*
X48715716Y-8904284D01*
X49167600Y-9163127D02*
X48908757Y-8904284D01*
X48920000Y-10300000D02*
X48920000Y-9650000D01*
X48920000Y-9650000D02*
X49167600Y-9402400D01*
X49167600Y-9402400D02*
X49167600Y-9163127D01*
%TO.N,/sas0/T2-*%
X47072400Y-9402400D02*
X47072400Y-9163127D01*
X47072400Y-9163127D02*
X47331243Y-8904284D01*
X47331243Y-8904284D02*
X47524284Y-8904284D01*
X47320000Y-10300000D02*
X47320000Y-9650000D01*
X47320000Y-9650000D02*
X47072400Y-9402400D01*
%TO.N,/sas0/T2+*%
X46520000Y-9650000D02*
X46767600Y-9402400D01*
X46520000Y-10300000D02*
X46520000Y-9650000D01*
X46767600Y-9402400D02*
X46767600Y-9036873D01*
X47115716Y-8688757D02*
X47115716Y-8495716D01*
X46767600Y-9036873D02*
X47115716Y-8688757D01*
%TO.N,/sas0/R1+*%
X44324284Y-8688757D02*
X44324284Y-8495716D01*
X44672400Y-9036873D02*
X44324284Y-8688757D01*
X44672400Y-9402400D02*
X44672400Y-9036873D01*
X44920000Y-10300000D02*
X44920000Y-9650000D01*
X44920000Y-9650000D02*
X44672400Y-9402400D01*
%TO.N,/sas0/R1-*%
X44367600Y-9402400D02*
X44367600Y-9163127D01*
X44367600Y-9163127D02*
X44108757Y-8904284D01*
X44120000Y-10300000D02*
X44120000Y-9650000D01*
X44120000Y-9650000D02*
X44367600Y-9402400D01*
X44108757Y-8904284D02*
X43915716Y-8904284D01*
%TO.N,/sas0/T1-*%
X42531243Y-8904284D02*
X42724284Y-8904284D01*
X42272400Y-9163127D02*
X42531243Y-8904284D01*
X42272400Y-9402400D02*
X42272400Y-9163127D01*
X42520000Y-10300000D02*
X42520000Y-9650000D01*
X42520000Y-9650000D02*
X42272400Y-9402400D01*
%TO.N,/sas0/T1+*%
X41967600Y-9402400D02*
X41967600Y-9036873D01*
X41720000Y-9650000D02*
X41967600Y-9402400D01*
X41720000Y-10300000D02*
X41720000Y-9650000D01*
X42315716Y-8688757D02*
X42315716Y-8495716D01*
X41967600Y-9036873D02*
X42315716Y-8688757D01*
%TO.N,/sas0/R0+*%
X31524284Y-8688757D02*
X31524284Y-8495716D01*
X31872400Y-9036873D02*
X31524284Y-8688757D01*
X31872400Y-9402400D02*
X31872400Y-9036873D01*
X32120000Y-10300000D02*
X32120000Y-9650000D01*
X32120000Y-9650000D02*
X31872400Y-9402400D01*
%TO.N,/sas0/R0-*%
X31320000Y-9650000D02*
X31567600Y-9402400D01*
X31567600Y-9402400D02*
X31567600Y-9163127D01*
X31567600Y-9163127D02*
X31308757Y-8904284D01*
X31320000Y-10300000D02*
X31320000Y-9650000D01*
X31308757Y-8904284D02*
X31115716Y-8904284D01*
%TO.N,/sas0/T0-*%
X29731243Y-8904284D02*
X29924284Y-8904284D01*
X29720000Y-10300000D02*
X29720000Y-9650000D01*
X29720000Y-9650000D02*
X29472400Y-9402400D01*
X29472400Y-9402400D02*
X29472400Y-9163127D01*
X29472400Y-9163127D02*
X29731243Y-8904284D01*
%TO.N,/sas0/T0+*%
X29167600Y-9036873D02*
X29515716Y-8688757D01*
X29515716Y-8688757D02*
X29515716Y-8495716D01*
X29167600Y-9402400D02*
X29167600Y-9036873D01*
X28920000Y-9650000D02*
X29167600Y-9402400D01*
X28920000Y-10300000D02*
X28920000Y-9650000D01*
%TO.N,/sas0/CLK-*%
X27320000Y-9650000D02*
X27072400Y-9402400D01*
X27072400Y-7836872D02*
X25783128Y-6547600D01*
X16972400Y-6547600D02*
X14820000Y-8700000D01*
X27072400Y-9402400D02*
X27072400Y-7836872D01*
X27320000Y-10300000D02*
X27320000Y-9650000D01*
X25783128Y-6547600D02*
X16972400Y-6547600D01*
%TO.N,/sas0/CLK+*%
X22673000Y-6979400D02*
X22800000Y-6852400D01*
X26520000Y-9650000D02*
X26520000Y-10300000D01*
X21657000Y-6979400D02*
X21911000Y-6979400D01*
X22038000Y-6852400D02*
X22292000Y-6852400D01*
X21911000Y-6979400D02*
X22038000Y-6852400D01*
X22800000Y-6852400D02*
X25656872Y-6852400D01*
X26767600Y-9402400D02*
X26520000Y-9650000D01*
X21276000Y-6852400D02*
X21530000Y-6852400D01*
X21149000Y-6979400D02*
X21276000Y-6852400D01*
X25656872Y-6852400D02*
X26767600Y-7963128D01*
X20895000Y-6979400D02*
X21149000Y-6979400D01*
X21530000Y-6852400D02*
X21657000Y-6979400D01*
X17720000Y-6852400D02*
X17847000Y-6979400D01*
X22292000Y-6852400D02*
X22419000Y-6979400D01*
X20387000Y-6979400D02*
X20514000Y-6852400D01*
X17847000Y-6979400D02*
X18101000Y-6979400D01*
X17098653Y-6852400D02*
X17720000Y-6852400D01*
X20133000Y-6979400D02*
X20387000Y-6979400D01*
X16220000Y-9450000D02*
X16220000Y-7731053D01*
X18228000Y-6852400D02*
X18482000Y-6852400D01*
X18101000Y-6979400D02*
X18228000Y-6852400D01*
X19244000Y-6852400D02*
X19371000Y-6979400D01*
X26767600Y-7963128D02*
X26767600Y-9402400D01*
X19752000Y-6852400D02*
X20006000Y-6852400D01*
X16220000Y-7731053D02*
X17098653Y-6852400D01*
X19371000Y-6979400D02*
X19625000Y-6979400D01*
X20006000Y-6852400D02*
X20133000Y-6979400D01*
X20514000Y-6852400D02*
X20768000Y-6852400D01*
X18482000Y-6852400D02*
X18609000Y-6979400D01*
X19625000Y-6979400D02*
X19752000Y-6852400D01*
X18609000Y-6979400D02*
X18863000Y-6979400D01*
X22419000Y-6979400D02*
X22673000Y-6979400D01*
X18863000Y-6979400D02*
X18990000Y-6852400D01*
X20768000Y-6852400D02*
X20895000Y-6979400D01*
X18990000Y-6852400D02*
X19244000Y-6852400D01*
%TO.N,/sas1/RST*%
X15320000Y-33100000D02*
X13320000Y-31100000D01*
X13320000Y-26350000D02*
X12420000Y-25450000D01*
X38120000Y-30890000D02*
X38120000Y-31917000D01*
X38120000Y-31917000D02*
X36937000Y-33100000D01*
X13320000Y-31100000D02*
X13320000Y-26350000D01*
X36937000Y-33100000D02*
X15320000Y-33100000D01*
%TO.N,/sas1/WAKE*%
X9720000Y-25500000D02*
X8920000Y-24700000D01*
X8920000Y-24700000D02*
X7220000Y-24700000D01*
X9720000Y-31100000D02*
X9720000Y-25500000D01*
X12120000Y-33500000D02*
X9720000Y-31100000D01*
X37892000Y-33500000D02*
X12120000Y-33500000D01*
X40095000Y-30270000D02*
X40095000Y-31297000D01*
X40095000Y-31297000D02*
X37892000Y-33500000D01*
%TO.N,/sas1/SDAT*%
X4820000Y-25450000D02*
X4820000Y-23600000D01*
X56920000Y-26300000D02*
X56920000Y-24900000D01*
X53920000Y-21900000D02*
X56920000Y-24900000D01*
X6520000Y-21900000D02*
X53920000Y-21900000D01*
X4820000Y-23600000D02*
X6520000Y-21900000D01*
%TO.N,/sas1/SCLK*%
X56120000Y-26300000D02*
X56120000Y-24900000D01*
%TO.N,/sas1/R3+*%
X53924284Y-24688757D02*
X53924284Y-24495716D01*
X54272400Y-25036873D02*
X53924284Y-24688757D01*
X54272400Y-25402400D02*
X54272400Y-25036873D01*
X54520000Y-25650000D02*
X54272400Y-25402400D01*
X54520000Y-26300000D02*
X54520000Y-25650000D01*
%TO.N,/sas1/R3-*%
X53967600Y-25163127D02*
X53708757Y-24904284D01*
X53720000Y-26300000D02*
X53720000Y-25650000D01*
X53720000Y-25650000D02*
X53967600Y-25402400D01*
X53708757Y-24904284D02*
X53515716Y-24904284D01*
X53967600Y-25402400D02*
X53967600Y-25163127D01*
%TO.N,/sas1/T3-*%
X51872400Y-25402400D02*
X51872400Y-25163127D01*
X51872400Y-25163127D02*
X52131243Y-24904284D01*
X52131243Y-24904284D02*
X52324284Y-24904284D01*
X52120000Y-26300000D02*
X52120000Y-25650000D01*
X52120000Y-25650000D02*
X51872400Y-25402400D01*
%TO.N,/sas1/T3+*%
X51320000Y-26300000D02*
X51320000Y-25650000D01*
X51915716Y-24688757D02*
X51915716Y-24495716D01*
X51567600Y-25036873D02*
X51915716Y-24688757D01*
X51567600Y-25402400D02*
X51567600Y-25036873D01*
X51320000Y-25650000D02*
X51567600Y-25402400D01*
%TO.N,/sas1/R2+*%
X49124284Y-24688757D02*
X49124284Y-24495716D01*
X49720000Y-25650000D02*
X49472400Y-25402400D01*
X49720000Y-26300000D02*
X49720000Y-25650000D01*
X49472400Y-25402400D02*
X49472400Y-25036873D01*
X49472400Y-25036873D02*
X49124284Y-24688757D01*
%TO.N,/sas1/R2-*%
X48908757Y-24904284D02*
X48715716Y-24904284D01*
X49167600Y-25163127D02*
X48908757Y-24904284D01*
X48920000Y-26300000D02*
X48920000Y-25650000D01*
X48920000Y-25650000D02*
X49167600Y-25402400D01*
X49167600Y-25402400D02*
X49167600Y-25163127D01*
%TO.N,/sas1/T2-*%
X47072400Y-25402400D02*
X47072400Y-25163127D01*
X47072400Y-25163127D02*
X47331243Y-24904284D01*
X47331243Y-24904284D02*
X47524284Y-24904284D01*
X47320000Y-26300000D02*
X47320000Y-25650000D01*
X47320000Y-25650000D02*
X47072400Y-25402400D01*
%TO.N,/sas1/T2+*%
X46520000Y-25650000D02*
X46767600Y-25402400D01*
X46520000Y-26300000D02*
X46520000Y-25650000D01*
X46767600Y-25402400D02*
X46767600Y-25036873D01*
X47115716Y-24688757D02*
X47115716Y-24495716D01*
X46767600Y-25036873D02*
X47115716Y-24688757D01*
%TO.N,/sas1/R1+*%
X44324284Y-24688757D02*
X44324284Y-24495716D01*
X44672400Y-25036873D02*
X44324284Y-24688757D01*
X44672400Y-25402400D02*
X44672400Y-25036873D01*
X44920000Y-26300000D02*
X44920000Y-25650000D01*
X44920000Y-25650000D02*
X44672400Y-25402400D01*
%TO.N,/sas1/R1-*%
X44367600Y-25402400D02*
X44367600Y-25163127D01*
X44367600Y-25163127D02*
X44108757Y-24904284D01*
X44120000Y-26300000D02*
X44120000Y-25650000D01*
X44120000Y-25650000D02*
X44367600Y-25402400D01*
X44108757Y-24904284D02*
X43915716Y-24904284D01*
%TO.N,/sas1/T1-*%
X42531243Y-24904284D02*
X42724284Y-24904284D01*
X42272400Y-25163127D02*
X42531243Y-24904284D01*
X42272400Y-25402400D02*
X42272400Y-25163127D01*
X42520000Y-26300000D02*
X42520000Y-25650000D01*
X42520000Y-25650000D02*
X42272400Y-25402400D01*
%TO.N,/sas1/T1+*%
X41967600Y-25402400D02*
X41967600Y-25036873D01*
X41720000Y-25650000D02*
X41967600Y-25402400D01*
X41720000Y-26300000D02*
X41720000Y-25650000D01*
X42315716Y-24688757D02*
X42315716Y-24495716D01*
X41967600Y-25036873D02*
X42315716Y-24688757D01*
%TO.N,/sas1/R0+*%
X31524284Y-24688757D02*
X31524284Y-24495716D01*
X31872400Y-25036873D02*
X31524284Y-24688757D01*
X31872400Y-25402400D02*
X31872400Y-25036873D01*
X32120000Y-26300000D02*
X32120000Y-25650000D01*
X32120000Y-25650000D02*
X31872400Y-25402400D01*
%TO.N,/sas1/R0-*%
X31320000Y-25650000D02*
X31567600Y-25402400D01*
X31567600Y-25402400D02*
X31567600Y-25163127D01*
X31567600Y-25163127D02*
X31308757Y-24904284D01*
X31320000Y-26300000D02*
X31320000Y-25650000D01*
X31308757Y-24904284D02*
X31115716Y-24904284D01*
%TO.N,/sas1/T0-*%
X29731243Y-24904284D02*
X29924284Y-24904284D01*
X29720000Y-26300000D02*
X29720000Y-25650000D01*
X29720000Y-25650000D02*
X29472400Y-25402400D01*
X29472400Y-25402400D02*
X29472400Y-25163127D01*
X29472400Y-25163127D02*
X29731243Y-24904284D01*
%TO.N,/sas1/T0+*%
X29167600Y-25036873D02*
X29515716Y-24688757D01*
X29515716Y-24688757D02*
X29515716Y-24495716D01*
X29167600Y-25402400D02*
X29167600Y-25036873D01*
X28920000Y-25650000D02*
X29167600Y-25402400D01*
X28920000Y-26300000D02*
X28920000Y-25650000D01*
%TO.N,/sas1/CLK-*%
X27320000Y-25650000D02*
X27072400Y-25402400D01*
X27072400Y-23836872D02*
X25783128Y-22547600D01*
X16972400Y-22547600D02*
X14820000Y-24700000D01*
X27072400Y-25402400D02*
X27072400Y-23836872D01*
X27320000Y-26300000D02*
X27320000Y-25650000D01*
X25783128Y-22547600D02*
X16972400Y-22547600D01*
%TO.N,/sas1/CLK+*%
X22673000Y-22979400D02*
X22800000Y-22852400D01*
X26520000Y-25650000D02*
X26520000Y-26300000D01*
X21657000Y-22979400D02*
X21911000Y-22979400D01*
X22038000Y-22852400D02*
X22292000Y-22852400D01*
X21911000Y-22979400D02*
X22038000Y-22852400D01*
X22800000Y-22852400D02*
X25656872Y-22852400D01*
X26767600Y-25402400D02*
X26520000Y-25650000D01*
X21276000Y-22852400D02*
X21530000Y-22852400D01*
X21149000Y-22979400D02*
X21276000Y-22852400D01*
X25656872Y-22852400D02*
X26767600Y-23963128D01*
X20895000Y-22979400D02*
X21149000Y-22979400D01*
X21530000Y-22852400D02*
X21657000Y-22979400D01*
X17720000Y-22852400D02*
X17847000Y-22979400D01*
X22292000Y-22852400D02*
X22419000Y-22979400D01*
X20387000Y-22979400D02*
X20514000Y-22852400D01*
X17847000Y-22979400D02*
X18101000Y-22979400D01*
X17098653Y-22852400D02*
X17720000Y-22852400D01*
X20133000Y-22979400D02*
X20387000Y-22979400D01*
X16220000Y-25450000D02*
X16220000Y-23731053D01*
X18228000Y-22852400D02*
X18482000Y-22852400D01*
X18101000Y-22979400D02*
X18228000Y-22852400D01*
X19244000Y-22852400D02*
X19371000Y-22979400D01*
X26767600Y-23963128D02*
X26767600Y-25402400D01*
X19752000Y-22852400D02*
X20006000Y-22852400D01*
X16220000Y-23731053D02*
X17098653Y-22852400D01*
X19371000Y-22979400D02*
X19625000Y-22979400D01*
X20006000Y-22852400D02*
X20133000Y-22979400D01*
X20514000Y-22852400D02*
X20768000Y-22852400D01*
X18482000Y-22852400D02*
X18609000Y-22979400D01*
X19625000Y-22979400D02*
X19752000Y-22852400D01*
X18609000Y-22979400D02*
X18863000Y-22979400D01*
X22419000Y-22979400D02*
X22673000Y-22979400D01*
X18863000Y-22979400D02*
X18990000Y-22852400D01*
X20768000Y-22852400D02*
X20895000Y-22979400D01*
X18990000Y-22852400D02*
X19244000Y-22852400D01*
%TO.N,/sas2/RST*%
X15320000Y-49100000D02*
X13320000Y-47100000D01*
X13320000Y-42350000D02*
X12420000Y-41450000D01*
X38120000Y-46890000D02*
X38120000Y-47917000D01*
X38120000Y-47917000D02*
X36937000Y-49100000D01*
X13320000Y-47100000D02*
X13320000Y-42350000D01*
X36937000Y-49100000D02*
X15320000Y-49100000D01*
%TO.N,/sas2/WAKE*%
X9720000Y-41500000D02*
X8920000Y-40700000D01*
X8920000Y-40700000D02*
X7220000Y-40700000D01*
X9720000Y-47100000D02*
X9720000Y-41500000D01*
X12120000Y-49500000D02*
X9720000Y-47100000D01*
X37892000Y-49500000D02*
X12120000Y-49500000D01*
X40095000Y-46270000D02*
X40095000Y-47297000D01*
X40095000Y-47297000D02*
X37892000Y-49500000D01*
%TO.N,/sas2/SDAT*%
X4820000Y-41450000D02*
X4820000Y-39600000D01*
X56920000Y-42300000D02*
X56920000Y-40900000D01*
X53920000Y-37900000D02*
X56920000Y-40900000D01*
X6520000Y-37900000D02*
X53920000Y-37900000D01*
X4820000Y-39600000D02*
X6520000Y-37900000D01*
%TO.N,/sas2/SCLK*%
X56120000Y-42300000D02*
X56120000Y-40900000D01*
%TO.N,/sas2/R3+*%
X53924284Y-40688757D02*
X53924284Y-40495716D01*
X54272400Y-41036873D02*
X53924284Y-40688757D01*
X54272400Y-41402400D02*
X54272400Y-41036873D01*
X54520000Y-41650000D02*
X54272400Y-41402400D01*
X54520000Y-42300000D02*
X54520000Y-41650000D01*
%TO.N,/sas2/R3-*%
X53967600Y-41163127D02*
X53708757Y-40904284D01*
X53720000Y-42300000D02*
X53720000Y-41650000D01*
X53720000Y-41650000D02*
X53967600Y-41402400D01*
X53708757Y-40904284D02*
X53515716Y-40904284D01*
X53967600Y-41402400D02*
X53967600Y-41163127D01*
%TO.N,/sas2/T3-*%
X51872400Y-41402400D02*
X51872400Y-41163127D01*
X51872400Y-41163127D02*
X52131243Y-40904284D01*
X52131243Y-40904284D02*
X52324284Y-40904284D01*
X52120000Y-42300000D02*
X52120000Y-41650000D01*
X52120000Y-41650000D02*
X51872400Y-41402400D01*
%TO.N,/sas2/T3+*%
X51320000Y-42300000D02*
X51320000Y-41650000D01*
X51915716Y-40688757D02*
X51915716Y-40495716D01*
X51567600Y-41036873D02*
X51915716Y-40688757D01*
X51567600Y-41402400D02*
X51567600Y-41036873D01*
X51320000Y-41650000D02*
X51567600Y-41402400D01*
%TO.N,/sas2/R2+*%
X49124284Y-40688757D02*
X49124284Y-40495716D01*
X49720000Y-41650000D02*
X49472400Y-41402400D01*
X49720000Y-42300000D02*
X49720000Y-41650000D01*
X49472400Y-41402400D02*
X49472400Y-41036873D01*
X49472400Y-41036873D02*
X49124284Y-40688757D01*
%TO.N,/sas2/R2-*%
X48908757Y-40904284D02*
X48715716Y-40904284D01*
X49167600Y-41163127D02*
X48908757Y-40904284D01*
X48920000Y-42300000D02*
X48920000Y-41650000D01*
X48920000Y-41650000D02*
X49167600Y-41402400D01*
X49167600Y-41402400D02*
X49167600Y-41163127D01*
%TO.N,/sas2/T2-*%
X47072400Y-41402400D02*
X47072400Y-41163127D01*
X47072400Y-41163127D02*
X47331243Y-40904284D01*
X47331243Y-40904284D02*
X47524284Y-40904284D01*
X47320000Y-42300000D02*
X47320000Y-41650000D01*
X47320000Y-41650000D02*
X47072400Y-41402400D01*
%TO.N,/sas2/T2+*%
X46520000Y-41650000D02*
X46767600Y-41402400D01*
X46520000Y-42300000D02*
X46520000Y-41650000D01*
X46767600Y-41402400D02*
X46767600Y-41036873D01*
X47115716Y-40688757D02*
X47115716Y-40495716D01*
X46767600Y-41036873D02*
X47115716Y-40688757D01*
%TO.N,/sas2/R1+*%
X44324284Y-40688757D02*
X44324284Y-40495716D01*
X44672400Y-41036873D02*
X44324284Y-40688757D01*
X44672400Y-41402400D02*
X44672400Y-41036873D01*
X44920000Y-42300000D02*
X44920000Y-41650000D01*
X44920000Y-41650000D02*
X44672400Y-41402400D01*
%TO.N,/sas2/R1-*%
X44367600Y-41402400D02*
X44367600Y-41163127D01*
X44367600Y-41163127D02*
X44108757Y-40904284D01*
X44120000Y-42300000D02*
X44120000Y-41650000D01*
X44120000Y-41650000D02*
X44367600Y-41402400D01*
X44108757Y-40904284D02*
X43915716Y-40904284D01*
%TO.N,/sas2/T1-*%
X42531243Y-40904284D02*
X42724284Y-40904284D01*
X42272400Y-41163127D02*
X42531243Y-40904284D01*
X42272400Y-41402400D02*
X42272400Y-41163127D01*
X42520000Y-42300000D02*
X42520000Y-41650000D01*
X42520000Y-41650000D02*
X42272400Y-41402400D01*
%TO.N,/sas2/T1+*%
X41967600Y-41402400D02*
X41967600Y-41036873D01*
X41720000Y-41650000D02*
X41967600Y-41402400D01*
X41720000Y-42300000D02*
X41720000Y-41650000D01*
X42315716Y-40688757D02*
X42315716Y-40495716D01*
X41967600Y-41036873D02*
X42315716Y-40688757D01*
%TO.N,/sas2/R0+*%
X31524284Y-40688757D02*
X31524284Y-40495716D01*
X31872400Y-41036873D02*
X31524284Y-40688757D01*
X31872400Y-41402400D02*
X31872400Y-41036873D01*
X32120000Y-42300000D02*
X32120000Y-41650000D01*
X32120000Y-41650000D02*
X31872400Y-41402400D01*
%TO.N,/sas2/R0-*%
X31320000Y-41650000D02*
X31567600Y-41402400D01*
X31567600Y-41402400D02*
X31567600Y-41163127D01*
X31567600Y-41163127D02*
X31308757Y-40904284D01*
X31320000Y-42300000D02*
X31320000Y-41650000D01*
X31308757Y-40904284D02*
X31115716Y-40904284D01*
%TO.N,/sas2/T0-*%
X29731243Y-40904284D02*
X29924284Y-40904284D01*
X29720000Y-42300000D02*
X29720000Y-41650000D01*
X29720000Y-41650000D02*
X29472400Y-41402400D01*
X29472400Y-41402400D02*
X29472400Y-41163127D01*
X29472400Y-41163127D02*
X29731243Y-40904284D01*
%TO.N,/sas2/T0+*%
X29167600Y-41036873D02*
X29515716Y-40688757D01*
X29515716Y-40688757D02*
X29515716Y-40495716D01*
X29167600Y-41402400D02*
X29167600Y-41036873D01*
X28920000Y-41650000D02*
X29167600Y-41402400D01*
X28920000Y-42300000D02*
X28920000Y-41650000D01*
%TO.N,/sas2/CLK-*%
X27320000Y-41650000D02*
X27072400Y-41402400D01*
X27072400Y-39836872D02*
X25783128Y-38547600D01*
X16972400Y-38547600D02*
X14820000Y-40700000D01*
X27072400Y-41402400D02*
X27072400Y-39836872D01*
X27320000Y-42300000D02*
X27320000Y-41650000D01*
X25783128Y-38547600D02*
X16972400Y-38547600D01*
%TO.N,/sas2/CLK+*%
X22673000Y-38979400D02*
X22800000Y-38852400D01*
X26520000Y-41650000D02*
X26520000Y-42300000D01*
X21657000Y-38979400D02*
X21911000Y-38979400D01*
X22038000Y-38852400D02*
X22292000Y-38852400D01*
X21911000Y-38979400D02*
X22038000Y-38852400D01*
X22800000Y-38852400D02*
X25656872Y-38852400D01*
X26767600Y-41402400D02*
X26520000Y-41650000D01*
X21276000Y-38852400D02*
X21530000Y-38852400D01*
X21149000Y-38979400D02*
X21276000Y-38852400D01*
X25656872Y-38852400D02*
X26767600Y-39963128D01*
X20895000Y-38979400D02*
X21149000Y-38979400D01*
X21530000Y-38852400D02*
X21657000Y-38979400D01*
X17720000Y-38852400D02*
X17847000Y-38979400D01*
X22292000Y-38852400D02*
X22419000Y-38979400D01*
X20387000Y-38979400D02*
X20514000Y-38852400D01*
X17847000Y-38979400D02*
X18101000Y-38979400D01*
X17098653Y-38852400D02*
X17720000Y-38852400D01*
X20133000Y-38979400D02*
X20387000Y-38979400D01*
X16220000Y-41450000D02*
X16220000Y-39731053D01*
X18228000Y-38852400D02*
X18482000Y-38852400D01*
X18101000Y-38979400D02*
X18228000Y-38852400D01*
X19244000Y-38852400D02*
X19371000Y-38979400D01*
X26767600Y-39963128D02*
X26767600Y-41402400D01*
X19752000Y-38852400D02*
X20006000Y-38852400D01*
X16220000Y-39731053D02*
X17098653Y-38852400D01*
X19371000Y-38979400D02*
X19625000Y-38979400D01*
X20006000Y-38852400D02*
X20133000Y-38979400D01*
X20514000Y-38852400D02*
X20768000Y-38852400D01*
X18482000Y-38852400D02*
X18609000Y-38979400D01*
X19625000Y-38979400D02*
X19752000Y-38852400D01*
X18609000Y-38979400D02*
X18863000Y-38979400D01*
X22419000Y-38979400D02*
X22673000Y-38979400D01*
X18863000Y-38979400D02*
X18990000Y-38852400D01*
X20768000Y-38852400D02*
X20895000Y-38979400D01*
X18990000Y-38852400D02*
X19244000Y-38852400D01*
%TD*%
M02*
