M48
;DRILL file {KiCad 5.0.1-33cea8e~67~ubuntu18.10.1} date Mon Oct 22 09:25:40 2018
;FORMAT={-:-/ absolute / metric / decimal}
FMAT,2
METRIC,TZ
T1C2.200
T2C2.500
%
G90
G05
M71
T1
X36.12Y-53.7
X36.12Y-37.7
X36.12Y-49.7
X48.12Y-49.7
X36.12Y-69.7
X36.12Y-81.7
X48.12Y-81.7
X36.12Y-85.7
X36.12Y-97.7
X48.12Y-97.7
X36.12Y-65.7
X48.12Y-65.7
T2
X54.635Y-92.56
X93.365Y-92.56
X54.635Y-60.56
X93.365Y-60.56
X54.635Y-76.56
X93.365Y-76.56
X54.635Y-44.56
X93.365Y-44.56
T0
M30
