%TF.GenerationSoftware,KiCad,Pcbnew,6.0.0-rc1-unknown-4a57541~66~ubuntu18.04.1*%
%TF.CreationDate,2018-09-13T10:12:08-06:00*%
%TF.ProjectId,thelio-io-sas,7468656C696F2D696F2D7361732E6B69,rev?*%
%TF.SameCoordinates,Original*%
%TF.FileFunction,Paste,Top*%
%TF.FilePolarity,Positive*%
%FSLAX46Y46*%
G04 Gerber Fmt 4.6, Leading zero omitted, Abs format (unit mm)*
G04 Created by KiCad (PCBNEW 6.0.0-rc1-unknown-4a57541~66~ubuntu18.04.1) date Thu Sep 13 10:12:08 2018*
%MOMM*%
%LPD*%
G01*
G04 APERTURE LIST*
%ADD10C,0.200000*%
%ADD11C,0.150000*%
%ADD12R,0.500000X1.800000*%
%ADD13R,0.700000X1.800000*%
G04 APERTURE END LIST*
D10*
X0Y-32800000D02*
X0Y-3200000D01*
X70850000Y-3200000D02*
X70850000Y-32800000D01*
X0Y-3200000D02*
G75*
G02X3200000Y0I3200000J0D01*
G01*
X67650000Y0D02*
G75*
G02X70850000Y-3200000I0J-3200000D01*
G01*
X3200000Y0D02*
X67650000Y0D01*
X67650000Y-36000000D02*
X3200000Y-36000000D01*
D11*
X70850000Y-32800000D02*
G75*
G02X67650000Y-36000000I-3200000J0D01*
G01*
D10*
X3200000Y-36000000D02*
G75*
G02X0Y-32800000I0J3200000D01*
G01*
D12*
%TO.C,U.21*%
X26520000Y-26300000D03*
X27320000Y-26300000D03*
X28120000Y-26300000D03*
X28920000Y-26300000D03*
X29720000Y-26300000D03*
X30520000Y-26300000D03*
X31320000Y-26300000D03*
X32120000Y-26300000D03*
X32920000Y-26300000D03*
X33720000Y-26300000D03*
X34520000Y-26300000D03*
X35320000Y-26300000D03*
X36120000Y-26300000D03*
X36920000Y-26300000D03*
X37720000Y-26300000D03*
X38520000Y-26300000D03*
X39320000Y-26300000D03*
X40120000Y-26300000D03*
X40920000Y-26300000D03*
X41720000Y-26300000D03*
X42520000Y-26300000D03*
X43320000Y-26300000D03*
X44120000Y-26300000D03*
X44920000Y-26300000D03*
X45720000Y-26300000D03*
X46520000Y-26300000D03*
X47320000Y-26300000D03*
X48120000Y-26300000D03*
X48920000Y-26300000D03*
X49720000Y-26300000D03*
X50520000Y-26300000D03*
X51320000Y-26300000D03*
X52120000Y-26300000D03*
X52920000Y-26300000D03*
X53720000Y-26300000D03*
X54520000Y-26300000D03*
X55320000Y-26300000D03*
X56120000Y-26300000D03*
X56920000Y-26300000D03*
X57720000Y-26300000D03*
D13*
X57875000Y-30270000D03*
X56605000Y-30270000D03*
X55335000Y-30270000D03*
X54065000Y-30270000D03*
X52795000Y-30270000D03*
X51525000Y-30270000D03*
X50255000Y-30270000D03*
X48985000Y-30270000D03*
X47715000Y-30270000D03*
X46445000Y-30270000D03*
X45175000Y-30270000D03*
X43905000Y-30270000D03*
X42635000Y-30270000D03*
X41365000Y-30270000D03*
X33745000Y-30270000D03*
X32475000Y-30270000D03*
X31205000Y-30270000D03*
X29935000Y-30270000D03*
X28665000Y-30270000D03*
X27395000Y-30270000D03*
X26125000Y-30270000D03*
D12*
X38920000Y-30890000D03*
D13*
X40095000Y-30270000D03*
D12*
X38120000Y-30890000D03*
X37320000Y-30890000D03*
X36520000Y-30890000D03*
X35720000Y-30890000D03*
X34920000Y-30890000D03*
%TD*%
%TO.C,U.20*%
X26520000Y-10300000D03*
X27320000Y-10300000D03*
X28120000Y-10300000D03*
X28920000Y-10300000D03*
X29720000Y-10300000D03*
X30520000Y-10300000D03*
X31320000Y-10300000D03*
X32120000Y-10300000D03*
X32920000Y-10300000D03*
X33720000Y-10300000D03*
X34520000Y-10300000D03*
X35320000Y-10300000D03*
X36120000Y-10300000D03*
X36920000Y-10300000D03*
X37720000Y-10300000D03*
X38520000Y-10300000D03*
X39320000Y-10300000D03*
X40120000Y-10300000D03*
X40920000Y-10300000D03*
X41720000Y-10300000D03*
X42520000Y-10300000D03*
X43320000Y-10300000D03*
X44120000Y-10300000D03*
X44920000Y-10300000D03*
X45720000Y-10300000D03*
X46520000Y-10300000D03*
X47320000Y-10300000D03*
X48120000Y-10300000D03*
X48920000Y-10300000D03*
X49720000Y-10300000D03*
X50520000Y-10300000D03*
X51320000Y-10300000D03*
X52120000Y-10300000D03*
X52920000Y-10300000D03*
X53720000Y-10300000D03*
X54520000Y-10300000D03*
X55320000Y-10300000D03*
X56120000Y-10300000D03*
X56920000Y-10300000D03*
X57720000Y-10300000D03*
D13*
X57875000Y-14270000D03*
X56605000Y-14270000D03*
X55335000Y-14270000D03*
X54065000Y-14270000D03*
X52795000Y-14270000D03*
X51525000Y-14270000D03*
X50255000Y-14270000D03*
X48985000Y-14270000D03*
X47715000Y-14270000D03*
X46445000Y-14270000D03*
X45175000Y-14270000D03*
X43905000Y-14270000D03*
X42635000Y-14270000D03*
X41365000Y-14270000D03*
X33745000Y-14270000D03*
X32475000Y-14270000D03*
X31205000Y-14270000D03*
X29935000Y-14270000D03*
X28665000Y-14270000D03*
X27395000Y-14270000D03*
X26125000Y-14270000D03*
D12*
X38920000Y-14890000D03*
D13*
X40095000Y-14270000D03*
D12*
X38120000Y-14890000D03*
X37320000Y-14890000D03*
X36520000Y-14890000D03*
X35720000Y-14890000D03*
X34920000Y-14890000D03*
%TD*%
M02*
