M48
;DRILL file {KiCad 6.0.0-rc1-unknown-ee465fb~66~ubuntu18.04.1} date Wed Oct  3 14:05:45 2018
;FORMAT={-:-/ absolute / metric / decimal}
FMAT,2
METRIC
T1C2.200
T2C2.500
%
G90
G05
M71
T1
X47.12Y-69.7
X47.12Y-81.7
X59.12Y-81.7
X47.12Y-85.7
X47.12Y-97.7
X59.12Y-97.7
X47.12Y-53.7
X47.12Y-65.7
X59.12Y-65.7
X47.12Y-37.7
X47.12Y-49.7
X59.12Y-49.7
T2
X65.635Y-60.56
X104.365Y-60.56
X65.635Y-76.56
X104.365Y-76.56
X65.635Y-92.56
X104.365Y-92.56
X65.635Y-44.56
X104.365Y-44.56
T0
M30
