%TF.GenerationSoftware,KiCad,Pcbnew,5.0.2-bee76a0~70~ubuntu18.10.1*%
%TF.CreationDate,2019-01-07T09:39:01-07:00*%
%TF.ProjectId,thelio-io,7468656c-696f-42d6-996f-2e6b69636164,rev?*%
%TF.SameCoordinates,Original*%
%TF.FileFunction,Legend,Top*%
%TF.FilePolarity,Positive*%
%FSLAX46Y46*%
G04 Gerber Fmt 4.6, Leading zero omitted, Abs format (unit mm)*
G04 Created by KiCad (PCBNEW 5.0.2-bee76a0~70~ubuntu18.10.1) date Mon Jan  7 09:39:01 2019*
%MOMM*%
%LPD*%
G01*
G04 APERTURE LIST*
%ADD10C,0.200000*%
%ADD11C,0.150000*%
%ADD12C,0.120000*%
G04 APERTURE END LIST*
D10*
X77050000Y-53400000D02*
G75*
G02X75450000Y-55000000I-1600000J0D01*
G01*
X73850000Y-55000000D02*
X75450000Y-55000000D01*
X73850000Y-16800000D02*
X75450000Y-16800000D01*
X75450000Y-16800000D02*
G75*
G02X77050000Y-18400000I0J-1600000D01*
G01*
X77050000Y-18400000D02*
X77050000Y-53400000D01*
X-3200000Y-18400000D02*
G75*
G02X-1600000Y-16800000I1600000J0D01*
G01*
X-3200000Y-53400000D02*
X-3200000Y-18400000D01*
X-1600000Y-55000000D02*
G75*
G02X-3200000Y-53400000I0J1600000D01*
G01*
X0Y-55000000D02*
X-1600000Y-55000000D01*
X0Y-16800000D02*
X-1600000Y-16800000D01*
X0Y-55000000D02*
X0Y-68600000D01*
X0Y-16800000D02*
X0Y-3200000D01*
X73850000Y-55000000D02*
X73850000Y-68600000D01*
X73850000Y-16800000D02*
X73850000Y-3200000D01*
D11*
X73850000Y-68600000D02*
G75*
G02X70650000Y-71800000I-3200000J0D01*
G01*
D10*
X3200000Y-71800000D02*
G75*
G02X0Y-68600000I0J3200000D01*
G01*
X70650000Y-71800000D02*
X3200000Y-71800000D01*
X0Y-3200000D02*
G75*
G02X3200000Y0I3200000J0D01*
G01*
X70650000Y0D02*
G75*
G02X73850000Y-3200000I0J-3200000D01*
G01*
X3200000Y0D02*
X70650000Y0D01*
D12*
%TO.C,Y0*%
X7350000Y-42700000D02*
X7350000Y-36150000D01*
X3450000Y-42700000D02*
X7350000Y-42700000D01*
X3450000Y-36150000D02*
X3450000Y-42700000D01*
D11*
%TO.C,SATA3*%
X19115000Y-62825000D02*
X19115000Y-57110000D01*
X64835000Y-62825000D02*
X19115000Y-62825000D01*
X64835000Y-57110000D02*
X64835000Y-62825000D01*
X19115000Y-57110000D02*
X64835000Y-57110000D01*
%TO.C,SATA2*%
X19115000Y-46825000D02*
X19115000Y-41110000D01*
X64835000Y-46825000D02*
X19115000Y-46825000D01*
X64835000Y-41110000D02*
X64835000Y-46825000D01*
X19115000Y-41110000D02*
X64835000Y-41110000D01*
%TO.C,SATA1*%
X19115000Y-30825000D02*
X19115000Y-25110000D01*
X64835000Y-30825000D02*
X19115000Y-30825000D01*
X64835000Y-25110000D02*
X64835000Y-30825000D01*
X19115000Y-25110000D02*
X64835000Y-25110000D01*
%TO.C,SATA0*%
X19115000Y-14825000D02*
X19115000Y-9110000D01*
X64835000Y-14825000D02*
X19115000Y-14825000D01*
X64835000Y-9110000D02*
X64835000Y-14825000D01*
X19115000Y-9110000D02*
X64835000Y-9110000D01*
%TD*%
%TO.C,C1*%
X187142Y-40801666D02*
X234761Y-40849285D01*
X282380Y-40992142D01*
X282380Y-41087380D01*
X234761Y-41230238D01*
X139523Y-41325476D01*
X44285Y-41373095D01*
X-146191Y-41420714D01*
X-289048Y-41420714D01*
X-479524Y-41373095D01*
X-574762Y-41325476D01*
X-670000Y-41230238D01*
X-717620Y-41087380D01*
X-717620Y-40992142D01*
X-670000Y-40849285D01*
X-622381Y-40801666D01*
X282380Y-39849285D02*
X282380Y-40420714D01*
X282380Y-40135000D02*
X-717620Y-40135000D01*
X-574762Y-40230238D01*
X-479524Y-40325476D01*
X-431905Y-40420714D01*
%TO.C,C2*%
X157142Y-38231666D02*
X204761Y-38279285D01*
X252380Y-38422142D01*
X252380Y-38517380D01*
X204761Y-38660238D01*
X109523Y-38755476D01*
X14285Y-38803095D01*
X-176191Y-38850714D01*
X-319048Y-38850714D01*
X-509524Y-38803095D01*
X-604762Y-38755476D01*
X-700000Y-38660238D01*
X-747620Y-38517380D01*
X-747620Y-38422142D01*
X-700000Y-38279285D01*
X-652381Y-38231666D01*
X-652381Y-37850714D02*
X-700000Y-37803095D01*
X-747620Y-37707857D01*
X-747620Y-37469761D01*
X-700000Y-37374523D01*
X-652381Y-37326904D01*
X-557143Y-37279285D01*
X-461905Y-37279285D01*
X-319048Y-37326904D01*
X252380Y-37898333D01*
X252380Y-37279285D01*
%TO.C,Y0*%
X4923809Y-35096190D02*
X4923809Y-35572380D01*
X4590476Y-34572380D02*
X4923809Y-35096190D01*
X5257142Y-34572380D01*
X5780952Y-34572380D02*
X5876190Y-34572380D01*
X5971428Y-34620000D01*
X6019047Y-34667619D01*
X6066666Y-34762857D01*
X6114285Y-34953333D01*
X6114285Y-35191428D01*
X6066666Y-35381904D01*
X6019047Y-35477142D01*
X5971428Y-35524761D01*
X5876190Y-35572380D01*
X5780952Y-35572380D01*
X5685714Y-35524761D01*
X5638095Y-35477142D01*
X5590476Y-35381904D01*
X5542857Y-35191428D01*
X5542857Y-34953333D01*
X5590476Y-34762857D01*
X5638095Y-34667619D01*
X5685714Y-34620000D01*
X5780952Y-34572380D01*
%TO.C,SATA3*%
X39975000Y-64229761D02*
X40117857Y-64277380D01*
X40355952Y-64277380D01*
X40451190Y-64229761D01*
X40498809Y-64182142D01*
X40546428Y-64086904D01*
X40546428Y-63991666D01*
X40498809Y-63896428D01*
X40451190Y-63848809D01*
X40355952Y-63801190D01*
X40165476Y-63753571D01*
X40070238Y-63705952D01*
X40022619Y-63658333D01*
X39975000Y-63563095D01*
X39975000Y-63467857D01*
X40022619Y-63372619D01*
X40070238Y-63325000D01*
X40165476Y-63277380D01*
X40403571Y-63277380D01*
X40546428Y-63325000D01*
X40927380Y-63991666D02*
X41403571Y-63991666D01*
X40832142Y-64277380D02*
X41165476Y-63277380D01*
X41498809Y-64277380D01*
X41689285Y-63277380D02*
X42260714Y-63277380D01*
X41975000Y-64277380D02*
X41975000Y-63277380D01*
X42546428Y-63991666D02*
X43022619Y-63991666D01*
X42451190Y-64277380D02*
X42784523Y-63277380D01*
X43117857Y-64277380D01*
X43355952Y-63277380D02*
X43975000Y-63277380D01*
X43641666Y-63658333D01*
X43784523Y-63658333D01*
X43879761Y-63705952D01*
X43927380Y-63753571D01*
X43975000Y-63848809D01*
X43975000Y-64086904D01*
X43927380Y-64182142D01*
X43879761Y-64229761D01*
X43784523Y-64277380D01*
X43498809Y-64277380D01*
X43403571Y-64229761D01*
X43355952Y-64182142D01*
%TO.C,SATA2*%
X39975000Y-48229761D02*
X40117857Y-48277380D01*
X40355952Y-48277380D01*
X40451190Y-48229761D01*
X40498809Y-48182142D01*
X40546428Y-48086904D01*
X40546428Y-47991666D01*
X40498809Y-47896428D01*
X40451190Y-47848809D01*
X40355952Y-47801190D01*
X40165476Y-47753571D01*
X40070238Y-47705952D01*
X40022619Y-47658333D01*
X39975000Y-47563095D01*
X39975000Y-47467857D01*
X40022619Y-47372619D01*
X40070238Y-47325000D01*
X40165476Y-47277380D01*
X40403571Y-47277380D01*
X40546428Y-47325000D01*
X40927380Y-47991666D02*
X41403571Y-47991666D01*
X40832142Y-48277380D02*
X41165476Y-47277380D01*
X41498809Y-48277380D01*
X41689285Y-47277380D02*
X42260714Y-47277380D01*
X41975000Y-48277380D02*
X41975000Y-47277380D01*
X42546428Y-47991666D02*
X43022619Y-47991666D01*
X42451190Y-48277380D02*
X42784523Y-47277380D01*
X43117857Y-48277380D01*
X43403571Y-47372619D02*
X43451190Y-47325000D01*
X43546428Y-47277380D01*
X43784523Y-47277380D01*
X43879761Y-47325000D01*
X43927380Y-47372619D01*
X43975000Y-47467857D01*
X43975000Y-47563095D01*
X43927380Y-47705952D01*
X43355952Y-48277380D01*
X43975000Y-48277380D01*
%TO.C,SATA1*%
X39975000Y-32229761D02*
X40117857Y-32277380D01*
X40355952Y-32277380D01*
X40451190Y-32229761D01*
X40498809Y-32182142D01*
X40546428Y-32086904D01*
X40546428Y-31991666D01*
X40498809Y-31896428D01*
X40451190Y-31848809D01*
X40355952Y-31801190D01*
X40165476Y-31753571D01*
X40070238Y-31705952D01*
X40022619Y-31658333D01*
X39975000Y-31563095D01*
X39975000Y-31467857D01*
X40022619Y-31372619D01*
X40070238Y-31325000D01*
X40165476Y-31277380D01*
X40403571Y-31277380D01*
X40546428Y-31325000D01*
X40927380Y-31991666D02*
X41403571Y-31991666D01*
X40832142Y-32277380D02*
X41165476Y-31277380D01*
X41498809Y-32277380D01*
X41689285Y-31277380D02*
X42260714Y-31277380D01*
X41975000Y-32277380D02*
X41975000Y-31277380D01*
X42546428Y-31991666D02*
X43022619Y-31991666D01*
X42451190Y-32277380D02*
X42784523Y-31277380D01*
X43117857Y-32277380D01*
X43975000Y-32277380D02*
X43403571Y-32277380D01*
X43689285Y-32277380D02*
X43689285Y-31277380D01*
X43594047Y-31420238D01*
X43498809Y-31515476D01*
X43403571Y-31563095D01*
%TO.C,SATA0*%
X39975000Y-16229761D02*
X40117857Y-16277380D01*
X40355952Y-16277380D01*
X40451190Y-16229761D01*
X40498809Y-16182142D01*
X40546428Y-16086904D01*
X40546428Y-15991666D01*
X40498809Y-15896428D01*
X40451190Y-15848809D01*
X40355952Y-15801190D01*
X40165476Y-15753571D01*
X40070238Y-15705952D01*
X40022619Y-15658333D01*
X39975000Y-15563095D01*
X39975000Y-15467857D01*
X40022619Y-15372619D01*
X40070238Y-15325000D01*
X40165476Y-15277380D01*
X40403571Y-15277380D01*
X40546428Y-15325000D01*
X40927380Y-15991666D02*
X41403571Y-15991666D01*
X40832142Y-16277380D02*
X41165476Y-15277380D01*
X41498809Y-16277380D01*
X41689285Y-15277380D02*
X42260714Y-15277380D01*
X41975000Y-16277380D02*
X41975000Y-15277380D01*
X42546428Y-15991666D02*
X43022619Y-15991666D01*
X42451190Y-16277380D02*
X42784523Y-15277380D01*
X43117857Y-16277380D01*
X43641666Y-15277380D02*
X43736904Y-15277380D01*
X43832142Y-15325000D01*
X43879761Y-15372619D01*
X43927380Y-15467857D01*
X43975000Y-15658333D01*
X43975000Y-15896428D01*
X43927380Y-16086904D01*
X43879761Y-16182142D01*
X43832142Y-16229761D01*
X43736904Y-16277380D01*
X43641666Y-16277380D01*
X43546428Y-16229761D01*
X43498809Y-16182142D01*
X43451190Y-16086904D01*
X43403571Y-15896428D01*
X43403571Y-15658333D01*
X43451190Y-15467857D01*
X43498809Y-15372619D01*
X43546428Y-15325000D01*
X43641666Y-15277380D01*
%TD*%
M02*
