%TF.GenerationSoftware,KiCad,Pcbnew,5.0.2-bee76a0~70~ubuntu18.10.1*%
%TF.CreationDate,2019-01-07T09:39:01-07:00*%
%TF.ProjectId,thelio-io,7468656c-696f-42d6-996f-2e6b69636164,rev?*%
%TF.SameCoordinates,Original*%
%TF.FileFunction,Soldermask,Bot*%
%TF.FilePolarity,Negative*%
%FSLAX46Y46*%
G04 Gerber Fmt 4.6, Leading zero omitted, Abs format (unit mm)*
G04 Created by KiCad (PCBNEW 5.0.2-bee76a0~70~ubuntu18.10.1) date Mon Jan  7 09:39:01 2019*
%MOMM*%
%LPD*%
G01*
G04 APERTURE LIST*
%ADD10C,0.200000*%
%ADD11C,0.150000*%
%ADD12C,0.350000*%
G04 APERTURE END LIST*
D10*
X77050000Y-53400000D02*
G75*
G02X75450000Y-55000000I-1600000J0D01*
G01*
X73850000Y-55000000D02*
X75450000Y-55000000D01*
X73850000Y-16800000D02*
X75450000Y-16800000D01*
X75450000Y-16800000D02*
G75*
G02X77050000Y-18400000I0J-1600000D01*
G01*
X77050000Y-18400000D02*
X77050000Y-53400000D01*
X-3200000Y-18400000D02*
G75*
G02X-1600000Y-16800000I1600000J0D01*
G01*
X-3200000Y-53400000D02*
X-3200000Y-18400000D01*
X-1600000Y-55000000D02*
G75*
G02X-3200000Y-53400000I0J1600000D01*
G01*
X0Y-55000000D02*
X-1600000Y-55000000D01*
X0Y-16800000D02*
X-1600000Y-16800000D01*
X0Y-55000000D02*
X0Y-68600000D01*
X0Y-16800000D02*
X0Y-3200000D01*
X73850000Y-55000000D02*
X73850000Y-68600000D01*
X73850000Y-16800000D02*
X73850000Y-3200000D01*
D11*
X73850000Y-68600000D02*
G75*
G02X70650000Y-71800000I-3200000J0D01*
G01*
D10*
X3200000Y-71800000D02*
G75*
G02X0Y-68600000I0J3200000D01*
G01*
X70650000Y-71800000D02*
X3200000Y-71800000D01*
X0Y-3200000D02*
G75*
G02X3200000Y0I3200000J0D01*
G01*
X70650000Y0D02*
G75*
G02X73850000Y-3200000I0J-3200000D01*
G01*
X3200000Y0D02*
X70650000Y0D01*
D12*
G36*
X22988707Y-68217596D02*
X23065836Y-68225193D01*
X23197787Y-68265220D01*
X23263763Y-68285233D01*
X23446172Y-68382733D01*
X23606054Y-68513946D01*
X23737267Y-68673828D01*
X23834767Y-68856237D01*
X23834767Y-68856238D01*
X23894807Y-69054164D01*
X23915080Y-69260000D01*
X23894807Y-69465836D01*
X23854780Y-69597787D01*
X23834767Y-69663763D01*
X23737267Y-69846172D01*
X23606054Y-70006054D01*
X23446172Y-70137267D01*
X23263763Y-70234767D01*
X23197787Y-70254780D01*
X23065836Y-70294807D01*
X22988707Y-70302404D01*
X22911580Y-70310000D01*
X22808420Y-70310000D01*
X22731293Y-70302404D01*
X22654164Y-70294807D01*
X22522213Y-70254780D01*
X22456237Y-70234767D01*
X22273828Y-70137267D01*
X22113946Y-70006054D01*
X21982733Y-69846172D01*
X21885233Y-69663763D01*
X21865220Y-69597787D01*
X21825193Y-69465836D01*
X21804920Y-69260000D01*
X21825193Y-69054164D01*
X21885233Y-68856238D01*
X21885233Y-68856237D01*
X21982733Y-68673828D01*
X22113946Y-68513946D01*
X22273828Y-68382733D01*
X22456237Y-68285233D01*
X22522213Y-68265220D01*
X22654164Y-68225193D01*
X22731293Y-68217596D01*
X22808420Y-68210000D01*
X22911580Y-68210000D01*
X22988707Y-68217596D01*
X22988707Y-68217596D01*
G37*
G36*
X6478707Y-68217596D02*
X6555836Y-68225193D01*
X6687787Y-68265220D01*
X6753763Y-68285233D01*
X6936172Y-68382733D01*
X7096054Y-68513946D01*
X7227267Y-68673828D01*
X7324767Y-68856237D01*
X7324767Y-68856238D01*
X7384807Y-69054164D01*
X7405080Y-69260000D01*
X7384807Y-69465836D01*
X7344780Y-69597787D01*
X7324767Y-69663763D01*
X7227267Y-69846172D01*
X7096054Y-70006054D01*
X6936172Y-70137267D01*
X6753763Y-70234767D01*
X6687787Y-70254780D01*
X6555836Y-70294807D01*
X6478707Y-70302404D01*
X6401580Y-70310000D01*
X6298420Y-70310000D01*
X6221293Y-70302404D01*
X6144164Y-70294807D01*
X6012213Y-70254780D01*
X5946237Y-70234767D01*
X5763828Y-70137267D01*
X5603946Y-70006054D01*
X5472733Y-69846172D01*
X5375233Y-69663763D01*
X5355220Y-69597787D01*
X5315193Y-69465836D01*
X5294920Y-69260000D01*
X5315193Y-69054164D01*
X5375233Y-68856238D01*
X5375233Y-68856237D01*
X5472733Y-68673828D01*
X5603946Y-68513946D01*
X5763828Y-68382733D01*
X5946237Y-68285233D01*
X6012213Y-68265220D01*
X6144164Y-68225193D01*
X6221293Y-68217596D01*
X6298420Y-68210000D01*
X6401580Y-68210000D01*
X6478707Y-68217596D01*
X6478707Y-68217596D01*
G37*
G36*
X4860000Y-70310000D02*
X2760000Y-70310000D01*
X2760000Y-68210000D01*
X4860000Y-68210000D01*
X4860000Y-70310000D01*
X4860000Y-70310000D01*
G37*
G36*
X9018707Y-68217596D02*
X9095836Y-68225193D01*
X9227787Y-68265220D01*
X9293763Y-68285233D01*
X9476172Y-68382733D01*
X9636054Y-68513946D01*
X9767267Y-68673828D01*
X9864767Y-68856237D01*
X9864767Y-68856238D01*
X9924807Y-69054164D01*
X9945080Y-69260000D01*
X9924807Y-69465836D01*
X9884780Y-69597787D01*
X9864767Y-69663763D01*
X9767267Y-69846172D01*
X9636054Y-70006054D01*
X9476172Y-70137267D01*
X9293763Y-70234767D01*
X9227787Y-70254780D01*
X9095836Y-70294807D01*
X9018707Y-70302404D01*
X8941580Y-70310000D01*
X8838420Y-70310000D01*
X8761293Y-70302404D01*
X8684164Y-70294807D01*
X8552213Y-70254780D01*
X8486237Y-70234767D01*
X8303828Y-70137267D01*
X8143946Y-70006054D01*
X8012733Y-69846172D01*
X7915233Y-69663763D01*
X7895220Y-69597787D01*
X7855193Y-69465836D01*
X7834920Y-69260000D01*
X7855193Y-69054164D01*
X7915233Y-68856238D01*
X7915233Y-68856237D01*
X8012733Y-68673828D01*
X8143946Y-68513946D01*
X8303828Y-68382733D01*
X8486237Y-68285233D01*
X8552213Y-68265220D01*
X8684164Y-68225193D01*
X8761293Y-68217596D01*
X8838420Y-68210000D01*
X8941580Y-68210000D01*
X9018707Y-68217596D01*
X9018707Y-68217596D01*
G37*
G36*
X11558707Y-68217596D02*
X11635836Y-68225193D01*
X11767787Y-68265220D01*
X11833763Y-68285233D01*
X12016172Y-68382733D01*
X12176054Y-68513946D01*
X12307267Y-68673828D01*
X12404767Y-68856237D01*
X12404767Y-68856238D01*
X12464807Y-69054164D01*
X12485080Y-69260000D01*
X12464807Y-69465836D01*
X12424780Y-69597787D01*
X12404767Y-69663763D01*
X12307267Y-69846172D01*
X12176054Y-70006054D01*
X12016172Y-70137267D01*
X11833763Y-70234767D01*
X11767787Y-70254780D01*
X11635836Y-70294807D01*
X11558707Y-70302404D01*
X11481580Y-70310000D01*
X11378420Y-70310000D01*
X11301293Y-70302404D01*
X11224164Y-70294807D01*
X11092213Y-70254780D01*
X11026237Y-70234767D01*
X10843828Y-70137267D01*
X10683946Y-70006054D01*
X10552733Y-69846172D01*
X10455233Y-69663763D01*
X10435220Y-69597787D01*
X10395193Y-69465836D01*
X10374920Y-69260000D01*
X10395193Y-69054164D01*
X10455233Y-68856238D01*
X10455233Y-68856237D01*
X10552733Y-68673828D01*
X10683946Y-68513946D01*
X10843828Y-68382733D01*
X11026237Y-68285233D01*
X11092213Y-68265220D01*
X11224164Y-68225193D01*
X11301293Y-68217596D01*
X11378420Y-68210000D01*
X11481580Y-68210000D01*
X11558707Y-68217596D01*
X11558707Y-68217596D01*
G37*
G36*
X17908707Y-68217596D02*
X17985836Y-68225193D01*
X18117787Y-68265220D01*
X18183763Y-68285233D01*
X18366172Y-68382733D01*
X18526054Y-68513946D01*
X18657267Y-68673828D01*
X18754767Y-68856237D01*
X18754767Y-68856238D01*
X18814807Y-69054164D01*
X18835080Y-69260000D01*
X18814807Y-69465836D01*
X18774780Y-69597787D01*
X18754767Y-69663763D01*
X18657267Y-69846172D01*
X18526054Y-70006054D01*
X18366172Y-70137267D01*
X18183763Y-70234767D01*
X18117787Y-70254780D01*
X17985836Y-70294807D01*
X17908707Y-70302404D01*
X17831580Y-70310000D01*
X17728420Y-70310000D01*
X17651293Y-70302404D01*
X17574164Y-70294807D01*
X17442213Y-70254780D01*
X17376237Y-70234767D01*
X17193828Y-70137267D01*
X17033946Y-70006054D01*
X16902733Y-69846172D01*
X16805233Y-69663763D01*
X16785220Y-69597787D01*
X16745193Y-69465836D01*
X16724920Y-69260000D01*
X16745193Y-69054164D01*
X16805233Y-68856238D01*
X16805233Y-68856237D01*
X16902733Y-68673828D01*
X17033946Y-68513946D01*
X17193828Y-68382733D01*
X17376237Y-68285233D01*
X17442213Y-68265220D01*
X17574164Y-68225193D01*
X17651293Y-68217596D01*
X17728420Y-68210000D01*
X17831580Y-68210000D01*
X17908707Y-68217596D01*
X17908707Y-68217596D01*
G37*
G36*
X16290000Y-70310000D02*
X14190000Y-70310000D01*
X14190000Y-68210000D01*
X16290000Y-68210000D01*
X16290000Y-70310000D01*
X16290000Y-70310000D01*
G37*
G36*
X20448707Y-68217596D02*
X20525836Y-68225193D01*
X20657787Y-68265220D01*
X20723763Y-68285233D01*
X20906172Y-68382733D01*
X21066054Y-68513946D01*
X21197267Y-68673828D01*
X21294767Y-68856237D01*
X21294767Y-68856238D01*
X21354807Y-69054164D01*
X21375080Y-69260000D01*
X21354807Y-69465836D01*
X21314780Y-69597787D01*
X21294767Y-69663763D01*
X21197267Y-69846172D01*
X21066054Y-70006054D01*
X20906172Y-70137267D01*
X20723763Y-70234767D01*
X20657787Y-70254780D01*
X20525836Y-70294807D01*
X20448707Y-70302404D01*
X20371580Y-70310000D01*
X20268420Y-70310000D01*
X20191293Y-70302404D01*
X20114164Y-70294807D01*
X19982213Y-70254780D01*
X19916237Y-70234767D01*
X19733828Y-70137267D01*
X19573946Y-70006054D01*
X19442733Y-69846172D01*
X19345233Y-69663763D01*
X19325220Y-69597787D01*
X19285193Y-69465836D01*
X19264920Y-69260000D01*
X19285193Y-69054164D01*
X19345233Y-68856238D01*
X19345233Y-68856237D01*
X19442733Y-68673828D01*
X19573946Y-68513946D01*
X19733828Y-68382733D01*
X19916237Y-68285233D01*
X19982213Y-68265220D01*
X20114164Y-68225193D01*
X20191293Y-68217596D01*
X20268420Y-68210000D01*
X20371580Y-68210000D01*
X20448707Y-68217596D01*
X20448707Y-68217596D01*
G37*
G36*
X49704419Y-66787026D02*
X49738777Y-66790410D01*
X49872611Y-66831009D01*
X49939529Y-66851308D01*
X50124545Y-66950200D01*
X50286712Y-67083288D01*
X50419800Y-67245455D01*
X50518692Y-67430470D01*
X50525357Y-67452441D01*
X50579590Y-67631222D01*
X50579590Y-67631224D01*
X50595000Y-67787682D01*
X50595000Y-68192317D01*
X50593258Y-68210000D01*
X50579590Y-68348777D01*
X50569289Y-68382733D01*
X50518692Y-68549529D01*
X50419800Y-68734545D01*
X50286712Y-68896712D01*
X50124545Y-69029800D01*
X49939530Y-69128692D01*
X49872612Y-69148991D01*
X49738778Y-69189590D01*
X49704420Y-69192974D01*
X49530000Y-69210153D01*
X49355581Y-69192974D01*
X49321223Y-69189590D01*
X49187389Y-69148991D01*
X49120471Y-69128692D01*
X48935456Y-69029800D01*
X48773289Y-68896712D01*
X48640200Y-68734545D01*
X48541308Y-68549530D01*
X48504769Y-68429078D01*
X48480410Y-68348778D01*
X48476558Y-68309662D01*
X48465000Y-68192318D01*
X48465000Y-67787683D01*
X48480410Y-67631225D01*
X48480410Y-67631223D01*
X48526166Y-67480387D01*
X48541308Y-67430471D01*
X48640200Y-67245455D01*
X48773288Y-67083288D01*
X48935455Y-66950200D01*
X49120470Y-66851308D01*
X49187388Y-66831009D01*
X49321222Y-66790410D01*
X49355580Y-66787026D01*
X49530000Y-66769847D01*
X49704419Y-66787026D01*
X49704419Y-66787026D01*
G37*
G36*
X31924419Y-66787026D02*
X31958777Y-66790410D01*
X32092611Y-66831009D01*
X32159529Y-66851308D01*
X32344545Y-66950200D01*
X32506712Y-67083288D01*
X32639800Y-67245455D01*
X32738692Y-67430470D01*
X32745357Y-67452441D01*
X32799590Y-67631222D01*
X32799590Y-67631224D01*
X32815000Y-67787682D01*
X32815000Y-68192317D01*
X32813258Y-68210000D01*
X32799590Y-68348777D01*
X32789289Y-68382733D01*
X32738692Y-68549529D01*
X32639800Y-68734545D01*
X32506712Y-68896712D01*
X32344545Y-69029800D01*
X32159530Y-69128692D01*
X32092612Y-69148991D01*
X31958778Y-69189590D01*
X31924420Y-69192974D01*
X31750000Y-69210153D01*
X31575581Y-69192974D01*
X31541223Y-69189590D01*
X31407389Y-69148991D01*
X31340471Y-69128692D01*
X31155456Y-69029800D01*
X30993289Y-68896712D01*
X30860200Y-68734545D01*
X30761308Y-68549530D01*
X30724769Y-68429078D01*
X30700410Y-68348778D01*
X30696558Y-68309662D01*
X30685000Y-68192318D01*
X30685000Y-67787683D01*
X30700410Y-67631225D01*
X30700410Y-67631223D01*
X30746166Y-67480387D01*
X30761308Y-67430471D01*
X30860200Y-67245455D01*
X30993288Y-67083288D01*
X31155455Y-66950200D01*
X31340470Y-66851308D01*
X31407388Y-66831009D01*
X31541222Y-66790410D01*
X31575580Y-66787026D01*
X31750000Y-66769847D01*
X31924419Y-66787026D01*
X31924419Y-66787026D01*
G37*
G36*
X29356318Y-65094411D02*
X29428767Y-65108822D01*
X29485303Y-65132240D01*
X29565257Y-65165358D01*
X29688100Y-65247439D01*
X29792561Y-65351900D01*
X29874642Y-65474743D01*
X29907760Y-65554697D01*
X29931178Y-65611233D01*
X29934834Y-65629613D01*
X29960000Y-65756130D01*
X29960000Y-65903870D01*
X29931178Y-66048766D01*
X29874642Y-66185257D01*
X29792561Y-66308100D01*
X29688100Y-66412561D01*
X29565257Y-66494642D01*
X29472459Y-66533080D01*
X29428767Y-66551178D01*
X29428766Y-66551178D01*
X29422091Y-66553943D01*
X29412414Y-66556878D01*
X29390802Y-66568429D01*
X29371860Y-66583974D01*
X29356314Y-66602915D01*
X29344762Y-66624526D01*
X29337648Y-66647974D01*
X29335245Y-66672361D01*
X29337646Y-66696747D01*
X29344758Y-66720196D01*
X29356309Y-66741808D01*
X29371854Y-66760750D01*
X29390795Y-66776296D01*
X29412406Y-66787848D01*
X29423959Y-66791982D01*
X29549816Y-66830161D01*
X29619529Y-66851308D01*
X29804545Y-66950200D01*
X29966712Y-67083288D01*
X30099800Y-67245455D01*
X30198692Y-67430470D01*
X30205357Y-67452441D01*
X30259590Y-67631222D01*
X30259590Y-67631224D01*
X30275000Y-67787682D01*
X30275000Y-68192317D01*
X30273258Y-68210000D01*
X30259590Y-68348777D01*
X30249289Y-68382733D01*
X30198692Y-68549529D01*
X30099800Y-68734545D01*
X29966712Y-68896712D01*
X29804545Y-69029800D01*
X29619530Y-69128692D01*
X29552612Y-69148991D01*
X29418778Y-69189590D01*
X29384420Y-69192974D01*
X29210000Y-69210153D01*
X29035581Y-69192974D01*
X29001223Y-69189590D01*
X28867389Y-69148991D01*
X28800471Y-69128692D01*
X28615456Y-69029800D01*
X28453289Y-68896712D01*
X28320200Y-68734545D01*
X28221308Y-68549530D01*
X28184769Y-68429078D01*
X28160410Y-68348778D01*
X28156558Y-68309662D01*
X28145000Y-68192318D01*
X28145000Y-67787683D01*
X28160410Y-67631225D01*
X28160410Y-67631223D01*
X28206166Y-67480387D01*
X28221308Y-67430471D01*
X28320200Y-67245455D01*
X28453288Y-67083288D01*
X28615455Y-66950200D01*
X28800470Y-66851308D01*
X28908797Y-66818447D01*
X28996041Y-66791982D01*
X29018680Y-66782605D01*
X29039054Y-66768991D01*
X29056382Y-66751664D01*
X29069995Y-66731289D01*
X29079373Y-66708650D01*
X29084153Y-66684617D01*
X29084153Y-66660112D01*
X29079372Y-66636079D01*
X29069995Y-66613440D01*
X29056381Y-66593066D01*
X29039054Y-66575738D01*
X29018679Y-66562125D01*
X28996040Y-66552747D01*
X28993464Y-66552102D01*
X28854743Y-66494642D01*
X28731900Y-66412561D01*
X28627439Y-66308100D01*
X28545358Y-66185257D01*
X28488822Y-66048766D01*
X28460000Y-65903870D01*
X28460000Y-65756130D01*
X28485166Y-65629613D01*
X28488822Y-65611233D01*
X28512240Y-65554697D01*
X28545358Y-65474743D01*
X28627439Y-65351900D01*
X28731900Y-65247439D01*
X28854743Y-65165358D01*
X28934697Y-65132240D01*
X28991233Y-65108822D01*
X29063682Y-65094411D01*
X29136130Y-65080000D01*
X29283870Y-65080000D01*
X29356318Y-65094411D01*
X29356318Y-65094411D01*
G37*
G36*
X26844419Y-66787026D02*
X26878777Y-66790410D01*
X27012611Y-66831009D01*
X27079529Y-66851308D01*
X27264545Y-66950200D01*
X27426712Y-67083288D01*
X27559800Y-67245455D01*
X27658692Y-67430470D01*
X27665357Y-67452441D01*
X27719590Y-67631222D01*
X27719590Y-67631224D01*
X27735000Y-67787682D01*
X27735000Y-68192317D01*
X27733258Y-68210000D01*
X27719590Y-68348777D01*
X27709289Y-68382733D01*
X27658692Y-68549529D01*
X27559800Y-68734545D01*
X27426712Y-68896712D01*
X27264545Y-69029800D01*
X27079530Y-69128692D01*
X27012612Y-69148991D01*
X26878778Y-69189590D01*
X26844420Y-69192974D01*
X26670000Y-69210153D01*
X26495581Y-69192974D01*
X26461223Y-69189590D01*
X26327389Y-69148991D01*
X26260471Y-69128692D01*
X26075456Y-69029800D01*
X25913289Y-68896712D01*
X25780200Y-68734545D01*
X25681308Y-68549530D01*
X25644769Y-68429078D01*
X25620410Y-68348778D01*
X25616558Y-68309662D01*
X25605000Y-68192318D01*
X25605000Y-67787683D01*
X25620410Y-67631225D01*
X25620410Y-67631223D01*
X25666166Y-67480387D01*
X25681308Y-67430471D01*
X25780200Y-67245455D01*
X25913288Y-67083288D01*
X26075455Y-66950200D01*
X26260470Y-66851308D01*
X26327388Y-66831009D01*
X26461222Y-66790410D01*
X26495580Y-66787026D01*
X26670000Y-66769847D01*
X26844419Y-66787026D01*
X26844419Y-66787026D01*
G37*
G36*
X52216318Y-65094411D02*
X52288767Y-65108822D01*
X52345303Y-65132240D01*
X52425257Y-65165358D01*
X52548100Y-65247439D01*
X52652561Y-65351900D01*
X52734642Y-65474743D01*
X52767760Y-65554697D01*
X52791178Y-65611233D01*
X52794834Y-65629613D01*
X52820000Y-65756130D01*
X52820000Y-65903870D01*
X52791178Y-66048766D01*
X52734642Y-66185257D01*
X52652561Y-66308100D01*
X52548100Y-66412561D01*
X52425257Y-66494642D01*
X52332459Y-66533080D01*
X52288767Y-66551178D01*
X52288766Y-66551178D01*
X52282091Y-66553943D01*
X52272414Y-66556878D01*
X52250802Y-66568429D01*
X52231860Y-66583974D01*
X52216314Y-66602915D01*
X52204762Y-66624526D01*
X52197648Y-66647974D01*
X52195245Y-66672361D01*
X52197646Y-66696747D01*
X52204758Y-66720196D01*
X52216309Y-66741808D01*
X52231854Y-66760750D01*
X52250795Y-66776296D01*
X52272406Y-66787848D01*
X52283959Y-66791982D01*
X52409816Y-66830161D01*
X52479529Y-66851308D01*
X52664545Y-66950200D01*
X52826712Y-67083288D01*
X52959800Y-67245455D01*
X53058692Y-67430470D01*
X53065357Y-67452441D01*
X53119590Y-67631222D01*
X53119590Y-67631224D01*
X53135000Y-67787682D01*
X53135000Y-68192317D01*
X53133258Y-68210000D01*
X53119590Y-68348777D01*
X53109289Y-68382733D01*
X53058692Y-68549529D01*
X52959800Y-68734545D01*
X52826712Y-68896712D01*
X52664545Y-69029800D01*
X52479530Y-69128692D01*
X52412612Y-69148991D01*
X52278778Y-69189590D01*
X52244420Y-69192974D01*
X52070000Y-69210153D01*
X51895581Y-69192974D01*
X51861223Y-69189590D01*
X51727389Y-69148991D01*
X51660471Y-69128692D01*
X51475456Y-69029800D01*
X51313289Y-68896712D01*
X51180200Y-68734545D01*
X51081308Y-68549530D01*
X51044769Y-68429078D01*
X51020410Y-68348778D01*
X51016558Y-68309662D01*
X51005000Y-68192318D01*
X51005000Y-67787683D01*
X51020410Y-67631225D01*
X51020410Y-67631223D01*
X51066166Y-67480387D01*
X51081308Y-67430471D01*
X51180200Y-67245455D01*
X51313288Y-67083288D01*
X51475455Y-66950200D01*
X51660470Y-66851308D01*
X51768797Y-66818447D01*
X51856041Y-66791982D01*
X51878680Y-66782605D01*
X51899054Y-66768991D01*
X51916382Y-66751664D01*
X51929995Y-66731289D01*
X51939373Y-66708650D01*
X51944153Y-66684617D01*
X51944153Y-66660112D01*
X51939372Y-66636079D01*
X51929995Y-66613440D01*
X51916381Y-66593066D01*
X51899054Y-66575738D01*
X51878679Y-66562125D01*
X51856040Y-66552747D01*
X51853464Y-66552102D01*
X51714743Y-66494642D01*
X51591900Y-66412561D01*
X51487439Y-66308100D01*
X51405358Y-66185257D01*
X51348822Y-66048766D01*
X51320000Y-65903870D01*
X51320000Y-65756130D01*
X51345166Y-65629613D01*
X51348822Y-65611233D01*
X51372240Y-65554697D01*
X51405358Y-65474743D01*
X51487439Y-65351900D01*
X51591900Y-65247439D01*
X51714743Y-65165358D01*
X51794697Y-65132240D01*
X51851233Y-65108822D01*
X51923682Y-65094411D01*
X51996130Y-65080000D01*
X52143870Y-65080000D01*
X52216318Y-65094411D01*
X52216318Y-65094411D01*
G37*
G36*
X54784419Y-66787026D02*
X54818777Y-66790410D01*
X54952611Y-66831009D01*
X55019529Y-66851308D01*
X55204545Y-66950200D01*
X55366712Y-67083288D01*
X55499800Y-67245455D01*
X55598692Y-67430470D01*
X55605357Y-67452441D01*
X55659590Y-67631222D01*
X55659590Y-67631224D01*
X55675000Y-67787682D01*
X55675000Y-68192317D01*
X55673258Y-68210000D01*
X55659590Y-68348777D01*
X55649289Y-68382733D01*
X55598692Y-68549529D01*
X55499800Y-68734545D01*
X55366712Y-68896712D01*
X55204545Y-69029800D01*
X55019530Y-69128692D01*
X54952612Y-69148991D01*
X54818778Y-69189590D01*
X54784420Y-69192974D01*
X54610000Y-69210153D01*
X54435581Y-69192974D01*
X54401223Y-69189590D01*
X54267389Y-69148991D01*
X54200471Y-69128692D01*
X54015456Y-69029800D01*
X53853289Y-68896712D01*
X53720200Y-68734545D01*
X53621308Y-68549530D01*
X53584769Y-68429078D01*
X53560410Y-68348778D01*
X53556558Y-68309662D01*
X53545000Y-68192318D01*
X53545000Y-67787683D01*
X53560410Y-67631225D01*
X53560410Y-67631223D01*
X53606166Y-67480387D01*
X53621308Y-67430471D01*
X53720200Y-67245455D01*
X53853288Y-67083288D01*
X54015455Y-66950200D01*
X54200470Y-66851308D01*
X54267388Y-66831009D01*
X54401222Y-66790410D01*
X54435580Y-66787026D01*
X54610000Y-66769847D01*
X54784419Y-66787026D01*
X54784419Y-66787026D01*
G37*
G36*
X43354419Y-66787026D02*
X43388777Y-66790410D01*
X43522611Y-66831009D01*
X43589529Y-66851308D01*
X43774545Y-66950200D01*
X43936712Y-67083288D01*
X44069800Y-67245455D01*
X44168692Y-67430470D01*
X44175357Y-67452441D01*
X44229590Y-67631222D01*
X44229590Y-67631224D01*
X44245000Y-67787682D01*
X44245000Y-68192317D01*
X44243258Y-68210000D01*
X44229590Y-68348777D01*
X44219289Y-68382733D01*
X44168692Y-68549529D01*
X44069800Y-68734545D01*
X43936712Y-68896712D01*
X43774545Y-69029800D01*
X43589530Y-69128692D01*
X43522612Y-69148991D01*
X43388778Y-69189590D01*
X43354420Y-69192974D01*
X43180000Y-69210153D01*
X43005581Y-69192974D01*
X42971223Y-69189590D01*
X42837389Y-69148991D01*
X42770471Y-69128692D01*
X42585456Y-69029800D01*
X42423289Y-68896712D01*
X42290200Y-68734545D01*
X42191308Y-68549530D01*
X42154769Y-68429078D01*
X42130410Y-68348778D01*
X42126558Y-68309662D01*
X42115000Y-68192318D01*
X42115000Y-67787683D01*
X42130410Y-67631225D01*
X42130410Y-67631223D01*
X42176166Y-67480387D01*
X42191308Y-67430471D01*
X42290200Y-67245455D01*
X42423288Y-67083288D01*
X42585455Y-66950200D01*
X42770470Y-66851308D01*
X42837388Y-66831009D01*
X42971222Y-66790410D01*
X43005580Y-66787026D01*
X43180000Y-66769847D01*
X43354419Y-66787026D01*
X43354419Y-66787026D01*
G37*
G36*
X38274419Y-66787026D02*
X38308777Y-66790410D01*
X38442611Y-66831009D01*
X38509529Y-66851308D01*
X38694545Y-66950200D01*
X38856712Y-67083288D01*
X38989800Y-67245455D01*
X39088692Y-67430470D01*
X39095357Y-67452441D01*
X39149590Y-67631222D01*
X39149590Y-67631224D01*
X39165000Y-67787682D01*
X39165000Y-68192317D01*
X39163258Y-68210000D01*
X39149590Y-68348777D01*
X39139289Y-68382733D01*
X39088692Y-68549529D01*
X38989800Y-68734545D01*
X38856712Y-68896712D01*
X38694545Y-69029800D01*
X38509530Y-69128692D01*
X38442612Y-69148991D01*
X38308778Y-69189590D01*
X38274420Y-69192974D01*
X38100000Y-69210153D01*
X37925581Y-69192974D01*
X37891223Y-69189590D01*
X37757389Y-69148991D01*
X37690471Y-69128692D01*
X37505456Y-69029800D01*
X37343289Y-68896712D01*
X37210200Y-68734545D01*
X37111308Y-68549530D01*
X37074769Y-68429078D01*
X37050410Y-68348778D01*
X37046558Y-68309662D01*
X37035000Y-68192318D01*
X37035000Y-67787683D01*
X37050410Y-67631225D01*
X37050410Y-67631223D01*
X37096166Y-67480387D01*
X37111308Y-67430471D01*
X37210200Y-67245455D01*
X37343288Y-67083288D01*
X37505455Y-66950200D01*
X37690470Y-66851308D01*
X37757388Y-66831009D01*
X37891222Y-66790410D01*
X37925580Y-66787026D01*
X38100000Y-66769847D01*
X38274419Y-66787026D01*
X38274419Y-66787026D01*
G37*
G36*
X66134419Y-66787026D02*
X66168777Y-66790410D01*
X66302611Y-66831009D01*
X66369529Y-66851308D01*
X66554545Y-66950200D01*
X66716712Y-67083288D01*
X66849800Y-67245455D01*
X66948692Y-67430470D01*
X66955357Y-67452441D01*
X67009590Y-67631222D01*
X67009590Y-67631224D01*
X67025000Y-67787682D01*
X67025000Y-68192317D01*
X67023258Y-68210000D01*
X67009590Y-68348777D01*
X66999289Y-68382733D01*
X66948692Y-68549529D01*
X66849800Y-68734545D01*
X66716712Y-68896712D01*
X66554545Y-69029800D01*
X66369530Y-69128692D01*
X66302612Y-69148991D01*
X66168778Y-69189590D01*
X66134420Y-69192974D01*
X65960000Y-69210153D01*
X65785581Y-69192974D01*
X65751223Y-69189590D01*
X65617389Y-69148991D01*
X65550471Y-69128692D01*
X65365456Y-69029800D01*
X65203289Y-68896712D01*
X65070200Y-68734545D01*
X64971308Y-68549530D01*
X64934769Y-68429078D01*
X64910410Y-68348778D01*
X64906558Y-68309662D01*
X64895000Y-68192318D01*
X64895000Y-67787683D01*
X64910410Y-67631225D01*
X64910410Y-67631223D01*
X64956166Y-67480387D01*
X64971308Y-67430471D01*
X65070200Y-67245455D01*
X65203288Y-67083288D01*
X65365455Y-66950200D01*
X65550470Y-66851308D01*
X65617388Y-66831009D01*
X65751222Y-66790410D01*
X65785580Y-66787026D01*
X65960000Y-66769847D01*
X66134419Y-66787026D01*
X66134419Y-66787026D01*
G37*
G36*
X63634419Y-66787026D02*
X63668777Y-66790410D01*
X63802611Y-66831009D01*
X63869529Y-66851308D01*
X64054545Y-66950200D01*
X64216712Y-67083288D01*
X64349800Y-67245455D01*
X64448692Y-67430470D01*
X64455357Y-67452441D01*
X64509590Y-67631222D01*
X64509590Y-67631224D01*
X64525000Y-67787682D01*
X64525000Y-68192317D01*
X64523258Y-68210000D01*
X64509590Y-68348777D01*
X64499289Y-68382733D01*
X64448692Y-68549529D01*
X64349800Y-68734545D01*
X64216712Y-68896712D01*
X64054545Y-69029800D01*
X63869530Y-69128692D01*
X63802612Y-69148991D01*
X63668778Y-69189590D01*
X63634420Y-69192974D01*
X63460000Y-69210153D01*
X63285581Y-69192974D01*
X63251223Y-69189590D01*
X63117389Y-69148991D01*
X63050471Y-69128692D01*
X62865456Y-69029800D01*
X62703289Y-68896712D01*
X62570200Y-68734545D01*
X62471308Y-68549530D01*
X62434769Y-68429078D01*
X62410410Y-68348778D01*
X62406558Y-68309662D01*
X62395000Y-68192318D01*
X62395000Y-67787683D01*
X62410410Y-67631225D01*
X62410410Y-67631223D01*
X62456166Y-67480387D01*
X62471308Y-67430471D01*
X62570200Y-67245455D01*
X62703288Y-67083288D01*
X62865455Y-66950200D01*
X63050470Y-66851308D01*
X63117388Y-66831009D01*
X63251222Y-66790410D01*
X63285580Y-66787026D01*
X63460000Y-66769847D01*
X63634419Y-66787026D01*
X63634419Y-66787026D01*
G37*
G36*
X61134419Y-66787026D02*
X61168777Y-66790410D01*
X61302611Y-66831009D01*
X61369529Y-66851308D01*
X61554545Y-66950200D01*
X61716712Y-67083288D01*
X61849800Y-67245455D01*
X61948692Y-67430470D01*
X61955357Y-67452441D01*
X62009590Y-67631222D01*
X62009590Y-67631224D01*
X62025000Y-67787682D01*
X62025000Y-68192317D01*
X62023258Y-68210000D01*
X62009590Y-68348777D01*
X61999289Y-68382733D01*
X61948692Y-68549529D01*
X61849800Y-68734545D01*
X61716712Y-68896712D01*
X61554545Y-69029800D01*
X61369530Y-69128692D01*
X61302612Y-69148991D01*
X61168778Y-69189590D01*
X61134420Y-69192974D01*
X60960000Y-69210153D01*
X60785581Y-69192974D01*
X60751223Y-69189590D01*
X60617389Y-69148991D01*
X60550471Y-69128692D01*
X60365456Y-69029800D01*
X60203289Y-68896712D01*
X60070200Y-68734545D01*
X59971308Y-68549530D01*
X59934769Y-68429078D01*
X59910410Y-68348778D01*
X59906558Y-68309662D01*
X59895000Y-68192318D01*
X59895000Y-67787683D01*
X59910410Y-67631225D01*
X59910410Y-67631223D01*
X59956166Y-67480387D01*
X59971308Y-67430471D01*
X60070200Y-67245455D01*
X60203288Y-67083288D01*
X60365455Y-66950200D01*
X60550470Y-66851308D01*
X60617388Y-66831009D01*
X60751222Y-66790410D01*
X60785580Y-66787026D01*
X60960000Y-66769847D01*
X61134419Y-66787026D01*
X61134419Y-66787026D01*
G37*
G36*
X40786318Y-65094411D02*
X40858767Y-65108822D01*
X40915303Y-65132240D01*
X40995257Y-65165358D01*
X41118100Y-65247439D01*
X41222561Y-65351900D01*
X41304642Y-65474743D01*
X41337760Y-65554697D01*
X41361178Y-65611233D01*
X41364834Y-65629613D01*
X41390000Y-65756130D01*
X41390000Y-65903870D01*
X41361178Y-66048766D01*
X41304642Y-66185257D01*
X41222561Y-66308100D01*
X41118100Y-66412561D01*
X40995257Y-66494642D01*
X40902459Y-66533080D01*
X40858767Y-66551178D01*
X40858766Y-66551178D01*
X40852091Y-66553943D01*
X40842414Y-66556878D01*
X40820802Y-66568429D01*
X40801860Y-66583974D01*
X40786314Y-66602915D01*
X40774762Y-66624526D01*
X40767648Y-66647974D01*
X40765245Y-66672361D01*
X40767646Y-66696747D01*
X40774758Y-66720196D01*
X40786309Y-66741808D01*
X40801854Y-66760750D01*
X40820795Y-66776296D01*
X40842406Y-66787848D01*
X40853959Y-66791982D01*
X40979816Y-66830161D01*
X41049529Y-66851308D01*
X41234545Y-66950200D01*
X41396712Y-67083288D01*
X41529800Y-67245455D01*
X41628692Y-67430470D01*
X41635357Y-67452441D01*
X41689590Y-67631222D01*
X41689590Y-67631224D01*
X41705000Y-67787682D01*
X41705000Y-68192317D01*
X41703258Y-68210000D01*
X41689590Y-68348777D01*
X41679289Y-68382733D01*
X41628692Y-68549529D01*
X41529800Y-68734545D01*
X41396712Y-68896712D01*
X41234545Y-69029800D01*
X41049530Y-69128692D01*
X40982612Y-69148991D01*
X40848778Y-69189590D01*
X40814420Y-69192974D01*
X40640000Y-69210153D01*
X40465581Y-69192974D01*
X40431223Y-69189590D01*
X40297389Y-69148991D01*
X40230471Y-69128692D01*
X40045456Y-69029800D01*
X39883289Y-68896712D01*
X39750200Y-68734545D01*
X39651308Y-68549530D01*
X39614769Y-68429078D01*
X39590410Y-68348778D01*
X39586558Y-68309662D01*
X39575000Y-68192318D01*
X39575000Y-67787683D01*
X39590410Y-67631225D01*
X39590410Y-67631223D01*
X39636166Y-67480387D01*
X39651308Y-67430471D01*
X39750200Y-67245455D01*
X39883288Y-67083288D01*
X40045455Y-66950200D01*
X40230470Y-66851308D01*
X40338797Y-66818447D01*
X40426041Y-66791982D01*
X40448680Y-66782605D01*
X40469054Y-66768991D01*
X40486382Y-66751664D01*
X40499995Y-66731289D01*
X40509373Y-66708650D01*
X40514153Y-66684617D01*
X40514153Y-66660112D01*
X40509372Y-66636079D01*
X40499995Y-66613440D01*
X40486381Y-66593066D01*
X40469054Y-66575738D01*
X40448679Y-66562125D01*
X40426040Y-66552747D01*
X40423464Y-66552102D01*
X40284743Y-66494642D01*
X40161900Y-66412561D01*
X40057439Y-66308100D01*
X39975358Y-66185257D01*
X39918822Y-66048766D01*
X39890000Y-65903870D01*
X39890000Y-65756130D01*
X39915166Y-65629613D01*
X39918822Y-65611233D01*
X39942240Y-65554697D01*
X39975358Y-65474743D01*
X40057439Y-65351900D01*
X40161900Y-65247439D01*
X40284743Y-65165358D01*
X40364697Y-65132240D01*
X40421233Y-65108822D01*
X40493682Y-65094411D01*
X40566130Y-65080000D01*
X40713870Y-65080000D01*
X40786318Y-65094411D01*
X40786318Y-65094411D01*
G37*
G36*
X35355000Y-69205000D02*
X33225000Y-69205000D01*
X33225000Y-66775000D01*
X35355000Y-66775000D01*
X35355000Y-69205000D01*
X35355000Y-69205000D01*
G37*
G36*
X46785000Y-69205000D02*
X44655000Y-69205000D01*
X44655000Y-66775000D01*
X46785000Y-66775000D01*
X46785000Y-69205000D01*
X46785000Y-69205000D01*
G37*
G36*
X69525000Y-69205000D02*
X67395000Y-69205000D01*
X67395000Y-66775000D01*
X69525000Y-66775000D01*
X69525000Y-69205000D01*
X69525000Y-69205000D01*
G37*
G36*
X58215000Y-69205000D02*
X56085000Y-69205000D01*
X56085000Y-66775000D01*
X58215000Y-66775000D01*
X58215000Y-69205000D01*
X58215000Y-69205000D01*
G37*
G36*
X23230974Y-65579148D02*
X23265568Y-65589642D01*
X23297441Y-65606678D01*
X23325387Y-65629613D01*
X23348322Y-65657559D01*
X23365358Y-65689432D01*
X23375852Y-65724026D01*
X23380000Y-65766141D01*
X23380000Y-66373859D01*
X23375852Y-66415974D01*
X23365358Y-66450568D01*
X23344213Y-66490128D01*
X23340243Y-66496069D01*
X23330864Y-66518708D01*
X23326083Y-66542741D01*
X23326081Y-66567245D01*
X23330860Y-66591279D01*
X23340237Y-66613918D01*
X23344205Y-66619858D01*
X23365358Y-66659432D01*
X23375852Y-66694026D01*
X23380000Y-66736141D01*
X23380000Y-67343859D01*
X23375852Y-67385974D01*
X23365358Y-67420568D01*
X23348322Y-67452441D01*
X23325387Y-67480387D01*
X23297441Y-67503322D01*
X23265568Y-67520358D01*
X23230974Y-67530852D01*
X23188859Y-67535000D01*
X22531141Y-67535000D01*
X22489026Y-67530852D01*
X22454432Y-67520358D01*
X22422559Y-67503322D01*
X22394613Y-67480387D01*
X22371678Y-67452441D01*
X22354642Y-67420568D01*
X22344148Y-67385974D01*
X22340000Y-67343859D01*
X22340000Y-66736141D01*
X22344148Y-66694026D01*
X22354642Y-66659432D01*
X22375787Y-66619872D01*
X22379757Y-66613931D01*
X22389136Y-66591292D01*
X22393917Y-66567259D01*
X22393919Y-66542755D01*
X22389140Y-66518721D01*
X22379763Y-66496082D01*
X22375795Y-66490142D01*
X22354642Y-66450568D01*
X22344148Y-66415974D01*
X22340000Y-66373859D01*
X22340000Y-65766141D01*
X22344148Y-65724026D01*
X22354642Y-65689432D01*
X22371678Y-65657559D01*
X22394613Y-65629613D01*
X22422559Y-65606678D01*
X22454432Y-65589642D01*
X22489026Y-65579148D01*
X22531141Y-65575000D01*
X23188859Y-65575000D01*
X23230974Y-65579148D01*
X23230974Y-65579148D01*
G37*
G36*
X11558707Y-64407596D02*
X11635836Y-64415193D01*
X11767787Y-64455220D01*
X11833763Y-64475233D01*
X12016172Y-64572733D01*
X12176054Y-64703946D01*
X12307267Y-64863828D01*
X12404767Y-65046237D01*
X12404767Y-65046238D01*
X12464807Y-65244164D01*
X12485080Y-65450000D01*
X12464807Y-65655836D01*
X12444122Y-65724026D01*
X12404767Y-65853763D01*
X12307267Y-66036172D01*
X12176054Y-66196054D01*
X12016172Y-66327267D01*
X11833763Y-66424767D01*
X11767787Y-66444780D01*
X11635836Y-66484807D01*
X11558707Y-66492404D01*
X11481580Y-66500000D01*
X11378420Y-66500000D01*
X11301293Y-66492404D01*
X11224164Y-66484807D01*
X11092213Y-66444780D01*
X11026237Y-66424767D01*
X10843828Y-66327267D01*
X10683946Y-66196054D01*
X10552733Y-66036172D01*
X10455233Y-65853763D01*
X10415878Y-65724026D01*
X10395193Y-65655836D01*
X10374920Y-65450000D01*
X10395193Y-65244164D01*
X10455233Y-65046238D01*
X10455233Y-65046237D01*
X10552733Y-64863828D01*
X10683946Y-64703946D01*
X10843828Y-64572733D01*
X11026237Y-64475233D01*
X11092213Y-64455220D01*
X11224164Y-64415193D01*
X11301293Y-64407596D01*
X11378420Y-64400000D01*
X11481580Y-64400000D01*
X11558707Y-64407596D01*
X11558707Y-64407596D01*
G37*
G36*
X17560000Y-66500000D02*
X15460000Y-66500000D01*
X15460000Y-64400000D01*
X17560000Y-64400000D01*
X17560000Y-66500000D01*
X17560000Y-66500000D01*
G37*
G36*
X9018707Y-64407596D02*
X9095836Y-64415193D01*
X9227787Y-64455220D01*
X9293763Y-64475233D01*
X9476172Y-64572733D01*
X9636054Y-64703946D01*
X9767267Y-64863828D01*
X9864767Y-65046237D01*
X9864767Y-65046238D01*
X9924807Y-65244164D01*
X9945080Y-65450000D01*
X9924807Y-65655836D01*
X9904122Y-65724026D01*
X9864767Y-65853763D01*
X9767267Y-66036172D01*
X9636054Y-66196054D01*
X9476172Y-66327267D01*
X9293763Y-66424767D01*
X9227787Y-66444780D01*
X9095836Y-66484807D01*
X9018707Y-66492404D01*
X8941580Y-66500000D01*
X8838420Y-66500000D01*
X8761293Y-66492404D01*
X8684164Y-66484807D01*
X8552213Y-66444780D01*
X8486237Y-66424767D01*
X8303828Y-66327267D01*
X8143946Y-66196054D01*
X8012733Y-66036172D01*
X7915233Y-65853763D01*
X7875878Y-65724026D01*
X7855193Y-65655836D01*
X7834920Y-65450000D01*
X7855193Y-65244164D01*
X7915233Y-65046238D01*
X7915233Y-65046237D01*
X8012733Y-64863828D01*
X8143946Y-64703946D01*
X8303828Y-64572733D01*
X8486237Y-64475233D01*
X8552213Y-64455220D01*
X8684164Y-64415193D01*
X8761293Y-64407596D01*
X8838420Y-64400000D01*
X8941580Y-64400000D01*
X9018707Y-64407596D01*
X9018707Y-64407596D01*
G37*
G36*
X14098707Y-64407596D02*
X14175836Y-64415193D01*
X14307787Y-64455220D01*
X14373763Y-64475233D01*
X14556172Y-64572733D01*
X14716054Y-64703946D01*
X14847267Y-64863828D01*
X14944767Y-65046237D01*
X14944767Y-65046238D01*
X15004807Y-65244164D01*
X15025080Y-65450000D01*
X15004807Y-65655836D01*
X14984122Y-65724026D01*
X14944767Y-65853763D01*
X14847267Y-66036172D01*
X14716054Y-66196054D01*
X14556172Y-66327267D01*
X14373763Y-66424767D01*
X14307787Y-66444780D01*
X14175836Y-66484807D01*
X14098707Y-66492404D01*
X14021580Y-66500000D01*
X13918420Y-66500000D01*
X13841293Y-66492404D01*
X13764164Y-66484807D01*
X13632213Y-66444780D01*
X13566237Y-66424767D01*
X13383828Y-66327267D01*
X13223946Y-66196054D01*
X13092733Y-66036172D01*
X12995233Y-65853763D01*
X12955878Y-65724026D01*
X12935193Y-65655836D01*
X12914920Y-65450000D01*
X12935193Y-65244164D01*
X12995233Y-65046238D01*
X12995233Y-65046237D01*
X13092733Y-64863828D01*
X13223946Y-64703946D01*
X13383828Y-64572733D01*
X13566237Y-64475233D01*
X13632213Y-64455220D01*
X13764164Y-64415193D01*
X13841293Y-64407596D01*
X13918420Y-64400000D01*
X14021580Y-64400000D01*
X14098707Y-64407596D01*
X14098707Y-64407596D01*
G37*
G36*
X11800974Y-61769148D02*
X11835568Y-61779642D01*
X11867441Y-61796678D01*
X11895387Y-61819613D01*
X11918322Y-61847559D01*
X11935358Y-61879432D01*
X11945852Y-61914026D01*
X11950000Y-61956141D01*
X11950000Y-62563859D01*
X11945852Y-62605974D01*
X11935358Y-62640568D01*
X11914213Y-62680128D01*
X11910243Y-62686069D01*
X11900864Y-62708708D01*
X11896083Y-62732741D01*
X11896081Y-62757245D01*
X11900860Y-62781279D01*
X11910237Y-62803918D01*
X11914205Y-62809858D01*
X11935358Y-62849432D01*
X11945852Y-62884026D01*
X11950000Y-62926141D01*
X11950000Y-63533859D01*
X11945852Y-63575974D01*
X11935358Y-63610568D01*
X11918322Y-63642441D01*
X11895387Y-63670387D01*
X11867441Y-63693322D01*
X11835568Y-63710358D01*
X11800974Y-63720852D01*
X11758859Y-63725000D01*
X11101141Y-63725000D01*
X11059026Y-63720852D01*
X11024432Y-63710358D01*
X10992559Y-63693322D01*
X10964613Y-63670387D01*
X10941678Y-63642441D01*
X10924642Y-63610568D01*
X10914148Y-63575974D01*
X10910000Y-63533859D01*
X10910000Y-62926141D01*
X10914148Y-62884026D01*
X10924642Y-62849432D01*
X10945787Y-62809872D01*
X10949757Y-62803931D01*
X10959136Y-62781292D01*
X10963917Y-62757259D01*
X10963919Y-62732755D01*
X10959140Y-62708721D01*
X10949763Y-62686082D01*
X10945795Y-62680142D01*
X10924642Y-62640568D01*
X10914148Y-62605974D01*
X10910000Y-62563859D01*
X10910000Y-61956141D01*
X10914148Y-61914026D01*
X10924642Y-61879432D01*
X10941678Y-61847559D01*
X10964613Y-61819613D01*
X10992559Y-61796678D01*
X11024432Y-61779642D01*
X11059026Y-61769148D01*
X11101141Y-61765000D01*
X11758859Y-61765000D01*
X11800974Y-61769148D01*
X11800974Y-61769148D01*
G37*
G36*
X14340974Y-61769148D02*
X14375568Y-61779642D01*
X14407441Y-61796678D01*
X14435387Y-61819613D01*
X14458322Y-61847559D01*
X14475358Y-61879432D01*
X14485852Y-61914026D01*
X14490000Y-61956141D01*
X14490000Y-62563859D01*
X14485852Y-62605974D01*
X14475358Y-62640568D01*
X14454213Y-62680128D01*
X14450243Y-62686069D01*
X14440864Y-62708708D01*
X14436083Y-62732741D01*
X14436081Y-62757245D01*
X14440860Y-62781279D01*
X14450237Y-62803918D01*
X14454205Y-62809858D01*
X14475358Y-62849432D01*
X14485852Y-62884026D01*
X14490000Y-62926141D01*
X14490000Y-63533859D01*
X14485852Y-63575974D01*
X14475358Y-63610568D01*
X14458322Y-63642441D01*
X14435387Y-63670387D01*
X14407441Y-63693322D01*
X14375568Y-63710358D01*
X14340974Y-63720852D01*
X14298859Y-63725000D01*
X13641141Y-63725000D01*
X13599026Y-63720852D01*
X13564432Y-63710358D01*
X13532559Y-63693322D01*
X13504613Y-63670387D01*
X13481678Y-63642441D01*
X13464642Y-63610568D01*
X13454148Y-63575974D01*
X13450000Y-63533859D01*
X13450000Y-62926141D01*
X13454148Y-62884026D01*
X13464642Y-62849432D01*
X13485787Y-62809872D01*
X13489757Y-62803931D01*
X13499136Y-62781292D01*
X13503917Y-62757259D01*
X13503919Y-62732755D01*
X13499140Y-62708721D01*
X13489763Y-62686082D01*
X13485795Y-62680142D01*
X13464642Y-62640568D01*
X13454148Y-62605974D01*
X13450000Y-62563859D01*
X13450000Y-61956141D01*
X13454148Y-61914026D01*
X13464642Y-61879432D01*
X13481678Y-61847559D01*
X13504613Y-61819613D01*
X13532559Y-61796678D01*
X13564432Y-61779642D01*
X13599026Y-61769148D01*
X13641141Y-61765000D01*
X14298859Y-61765000D01*
X14340974Y-61769148D01*
X14340974Y-61769148D01*
G37*
G36*
X23939612Y-59348037D02*
X24167096Y-59442264D01*
X24371831Y-59579064D01*
X24545936Y-59753169D01*
X24682736Y-59957904D01*
X24776963Y-60185388D01*
X24825000Y-60426885D01*
X24825000Y-60673115D01*
X24776963Y-60914612D01*
X24682736Y-61142096D01*
X24545936Y-61346831D01*
X24371831Y-61520936D01*
X24167096Y-61657736D01*
X23939612Y-61751963D01*
X23698115Y-61800000D01*
X23451885Y-61800000D01*
X23210388Y-61751963D01*
X22982904Y-61657736D01*
X22778169Y-61520936D01*
X22604064Y-61346831D01*
X22467264Y-61142096D01*
X22373037Y-60914612D01*
X22325000Y-60673115D01*
X22325000Y-60426885D01*
X22373037Y-60185388D01*
X22467264Y-59957904D01*
X22604064Y-59753169D01*
X22778169Y-59579064D01*
X22982904Y-59442264D01*
X23210388Y-59348037D01*
X23451885Y-59300000D01*
X23698115Y-59300000D01*
X23939612Y-59348037D01*
X23939612Y-59348037D01*
G37*
G36*
X60739612Y-59298037D02*
X60967096Y-59392264D01*
X61171831Y-59529064D01*
X61345936Y-59703169D01*
X61482736Y-59907904D01*
X61576963Y-60135388D01*
X61625000Y-60376885D01*
X61625000Y-60623115D01*
X61576963Y-60864612D01*
X61482736Y-61092096D01*
X61345936Y-61296831D01*
X61171831Y-61470936D01*
X60967096Y-61607736D01*
X60739612Y-61701963D01*
X60498115Y-61750000D01*
X60251885Y-61750000D01*
X60010388Y-61701963D01*
X59782904Y-61607736D01*
X59578169Y-61470936D01*
X59404064Y-61296831D01*
X59267264Y-61092096D01*
X59173037Y-60864612D01*
X59125000Y-60623115D01*
X59125000Y-60376885D01*
X59173037Y-60135388D01*
X59267264Y-59907904D01*
X59404064Y-59703169D01*
X59578169Y-59529064D01*
X59782904Y-59392264D01*
X60010388Y-59298037D01*
X60251885Y-59250000D01*
X60498115Y-59250000D01*
X60739612Y-59298037D01*
X60739612Y-59298037D01*
G37*
G36*
X23734208Y-54563473D02*
X23875241Y-54577363D01*
X24101442Y-54645981D01*
X24101444Y-54645982D01*
X24101447Y-54645983D01*
X24309910Y-54757408D01*
X24492634Y-54907366D01*
X24642592Y-55090090D01*
X24754017Y-55298553D01*
X24754018Y-55298556D01*
X24754019Y-55298558D01*
X24822637Y-55524759D01*
X24845806Y-55760000D01*
X24822637Y-55995241D01*
X24754019Y-56221442D01*
X24754017Y-56221447D01*
X24642592Y-56429910D01*
X24492634Y-56612634D01*
X24309910Y-56762592D01*
X24101447Y-56874017D01*
X24101444Y-56874018D01*
X24101442Y-56874019D01*
X23875241Y-56942637D01*
X23734208Y-56956527D01*
X23698951Y-56960000D01*
X23581049Y-56960000D01*
X23545792Y-56956527D01*
X23404759Y-56942637D01*
X23178558Y-56874019D01*
X23178556Y-56874018D01*
X23178553Y-56874017D01*
X22970090Y-56762592D01*
X22787366Y-56612634D01*
X22637408Y-56429910D01*
X22525983Y-56221447D01*
X22525981Y-56221442D01*
X22457363Y-55995241D01*
X22434194Y-55760000D01*
X22457363Y-55524759D01*
X22525981Y-55298558D01*
X22525982Y-55298556D01*
X22525983Y-55298553D01*
X22637408Y-55090090D01*
X22787366Y-54907366D01*
X22970090Y-54757408D01*
X23178553Y-54645983D01*
X23178556Y-54645982D01*
X23178558Y-54645981D01*
X23404759Y-54577363D01*
X23545792Y-54563473D01*
X23581049Y-54560000D01*
X23698951Y-54560000D01*
X23734208Y-54563473D01*
X23734208Y-54563473D01*
G37*
G36*
X34370000Y-56110000D02*
X25450000Y-56110000D01*
X25450000Y-53410000D01*
X34370000Y-53410000D01*
X34370000Y-56110000D01*
X34370000Y-56110000D01*
G37*
G36*
X36564208Y-53563473D02*
X36705241Y-53577363D01*
X36931442Y-53645981D01*
X36931444Y-53645982D01*
X36931447Y-53645983D01*
X37139910Y-53757408D01*
X37322634Y-53907366D01*
X37472592Y-54090090D01*
X37584017Y-54298553D01*
X37584018Y-54298556D01*
X37584019Y-54298558D01*
X37652637Y-54524759D01*
X37675806Y-54760000D01*
X37652637Y-54995241D01*
X37584019Y-55221442D01*
X37584017Y-55221447D01*
X37472592Y-55429910D01*
X37322634Y-55612634D01*
X37139910Y-55762592D01*
X36931447Y-55874017D01*
X36931444Y-55874018D01*
X36931442Y-55874019D01*
X36705241Y-55942637D01*
X36564208Y-55956527D01*
X36528951Y-55960000D01*
X36411049Y-55960000D01*
X36375792Y-55956527D01*
X36234759Y-55942637D01*
X36008558Y-55874019D01*
X36008556Y-55874018D01*
X36008553Y-55874017D01*
X35800090Y-55762592D01*
X35617366Y-55612634D01*
X35467408Y-55429910D01*
X35355983Y-55221447D01*
X35355981Y-55221442D01*
X35287363Y-54995241D01*
X35264194Y-54760000D01*
X35287363Y-54524759D01*
X35355981Y-54298558D01*
X35355982Y-54298556D01*
X35355983Y-54298553D01*
X35467408Y-54090090D01*
X35617366Y-53907366D01*
X35800090Y-53757408D01*
X36008553Y-53645983D01*
X36008556Y-53645982D01*
X36008558Y-53645981D01*
X36234759Y-53577363D01*
X36375792Y-53563473D01*
X36411049Y-53560000D01*
X36528951Y-53560000D01*
X36564208Y-53563473D01*
X36564208Y-53563473D01*
G37*
G36*
X17300000Y-55155000D02*
X15150000Y-55155000D01*
X15150000Y-54005000D01*
X17300000Y-54005000D01*
X17300000Y-55155000D01*
X17300000Y-55155000D01*
G37*
G36*
X17300000Y-52055000D02*
X15150000Y-52055000D01*
X15150000Y-50905000D01*
X17300000Y-50905000D01*
X17300000Y-52055000D01*
X17300000Y-52055000D01*
G37*
G36*
X11070974Y-47494148D02*
X11105568Y-47504642D01*
X11137441Y-47521678D01*
X11165387Y-47544613D01*
X11188322Y-47572559D01*
X11205358Y-47604432D01*
X11215852Y-47639026D01*
X11220000Y-47681141D01*
X11220000Y-48288859D01*
X11215852Y-48330974D01*
X11205358Y-48365568D01*
X11184213Y-48405128D01*
X11180243Y-48411069D01*
X11170864Y-48433708D01*
X11166083Y-48457741D01*
X11166081Y-48482245D01*
X11170860Y-48506279D01*
X11180237Y-48528918D01*
X11184205Y-48534858D01*
X11205358Y-48574432D01*
X11215852Y-48609026D01*
X11220000Y-48651141D01*
X11220000Y-49258859D01*
X11215852Y-49300974D01*
X11205358Y-49335568D01*
X11188322Y-49367441D01*
X11165387Y-49395387D01*
X11137441Y-49418322D01*
X11105568Y-49435358D01*
X11070974Y-49445852D01*
X11028859Y-49450000D01*
X10371141Y-49450000D01*
X10329026Y-49445852D01*
X10294432Y-49435358D01*
X10262559Y-49418322D01*
X10234613Y-49395387D01*
X10211678Y-49367441D01*
X10194642Y-49335568D01*
X10184148Y-49300974D01*
X10180000Y-49258859D01*
X10180000Y-48651141D01*
X10184148Y-48609026D01*
X10194642Y-48574432D01*
X10215787Y-48534872D01*
X10219757Y-48528931D01*
X10229136Y-48506292D01*
X10233917Y-48482259D01*
X10233919Y-48457755D01*
X10229140Y-48433721D01*
X10219763Y-48411082D01*
X10215795Y-48405142D01*
X10194642Y-48365568D01*
X10184148Y-48330974D01*
X10180000Y-48288859D01*
X10180000Y-47681141D01*
X10184148Y-47639026D01*
X10194642Y-47604432D01*
X10211678Y-47572559D01*
X10234613Y-47544613D01*
X10262559Y-47521678D01*
X10294432Y-47504642D01*
X10329026Y-47494148D01*
X10371141Y-47490000D01*
X11028859Y-47490000D01*
X11070974Y-47494148D01*
X11070974Y-47494148D01*
G37*
G36*
X23939612Y-43348037D02*
X24167096Y-43442264D01*
X24371831Y-43579064D01*
X24545936Y-43753169D01*
X24682736Y-43957904D01*
X24776963Y-44185388D01*
X24825000Y-44426885D01*
X24825000Y-44673115D01*
X24776963Y-44914612D01*
X24682736Y-45142096D01*
X24545936Y-45346831D01*
X24371831Y-45520936D01*
X24167096Y-45657736D01*
X23939612Y-45751963D01*
X23698115Y-45800000D01*
X23451885Y-45800000D01*
X23210388Y-45751963D01*
X22982904Y-45657736D01*
X22778169Y-45520936D01*
X22604064Y-45346831D01*
X22467264Y-45142096D01*
X22373037Y-44914612D01*
X22325000Y-44673115D01*
X22325000Y-44426885D01*
X22373037Y-44185388D01*
X22467264Y-43957904D01*
X22604064Y-43753169D01*
X22778169Y-43579064D01*
X22982904Y-43442264D01*
X23210388Y-43348037D01*
X23451885Y-43300000D01*
X23698115Y-43300000D01*
X23939612Y-43348037D01*
X23939612Y-43348037D01*
G37*
G36*
X60739612Y-43298037D02*
X60967096Y-43392264D01*
X61171831Y-43529064D01*
X61345936Y-43703169D01*
X61482736Y-43907904D01*
X61576963Y-44135388D01*
X61625000Y-44376885D01*
X61625000Y-44623115D01*
X61576963Y-44864612D01*
X61482736Y-45092096D01*
X61345936Y-45296831D01*
X61171831Y-45470936D01*
X60967096Y-45607736D01*
X60739612Y-45701963D01*
X60498115Y-45750000D01*
X60251885Y-45750000D01*
X60010388Y-45701963D01*
X59782904Y-45607736D01*
X59578169Y-45470936D01*
X59404064Y-45296831D01*
X59267264Y-45092096D01*
X59173037Y-44864612D01*
X59125000Y-44623115D01*
X59125000Y-44376885D01*
X59173037Y-44135388D01*
X59267264Y-43907904D01*
X59404064Y-43703169D01*
X59578169Y-43529064D01*
X59782904Y-43392264D01*
X60010388Y-43298037D01*
X60251885Y-43250000D01*
X60498115Y-43250000D01*
X60739612Y-43298037D01*
X60739612Y-43298037D01*
G37*
G36*
X15175000Y-45600000D02*
X6225000Y-45600000D01*
X6225000Y-43700000D01*
X15175000Y-43700000D01*
X15175000Y-45600000D01*
X15175000Y-45600000D01*
G37*
G36*
X17350000Y-43425000D02*
X15450000Y-43425000D01*
X15450000Y-34475000D01*
X17350000Y-34475000D01*
X17350000Y-43425000D01*
X17350000Y-43425000D01*
G37*
G36*
X5950000Y-43425000D02*
X4050000Y-43425000D01*
X4050000Y-34475000D01*
X5950000Y-34475000D01*
X5950000Y-43425000D01*
X5950000Y-43425000D01*
G37*
G36*
X23734208Y-38913473D02*
X23875241Y-38927363D01*
X24101442Y-38995981D01*
X24101444Y-38995982D01*
X24101447Y-38995983D01*
X24309910Y-39107408D01*
X24492634Y-39257366D01*
X24642592Y-39440090D01*
X24754017Y-39648553D01*
X24754018Y-39648556D01*
X24754019Y-39648558D01*
X24822637Y-39874759D01*
X24845806Y-40110000D01*
X24822637Y-40345241D01*
X24754019Y-40571442D01*
X24754017Y-40571447D01*
X24642592Y-40779910D01*
X24492634Y-40962634D01*
X24309910Y-41112592D01*
X24101447Y-41224017D01*
X24101444Y-41224018D01*
X24101442Y-41224019D01*
X23875241Y-41292637D01*
X23734208Y-41306527D01*
X23698951Y-41310000D01*
X23581049Y-41310000D01*
X23545792Y-41306527D01*
X23404759Y-41292637D01*
X23178558Y-41224019D01*
X23178556Y-41224018D01*
X23178553Y-41224017D01*
X22970090Y-41112592D01*
X22787366Y-40962634D01*
X22637408Y-40779910D01*
X22525983Y-40571447D01*
X22525981Y-40571442D01*
X22457363Y-40345241D01*
X22434194Y-40110000D01*
X22457363Y-39874759D01*
X22525981Y-39648558D01*
X22525982Y-39648556D01*
X22525983Y-39648553D01*
X22637408Y-39440090D01*
X22787366Y-39257366D01*
X22970090Y-39107408D01*
X23178553Y-38995983D01*
X23178556Y-38995982D01*
X23178558Y-38995981D01*
X23404759Y-38927363D01*
X23545792Y-38913473D01*
X23581049Y-38910000D01*
X23698951Y-38910000D01*
X23734208Y-38913473D01*
X23734208Y-38913473D01*
G37*
G36*
X34370000Y-40460000D02*
X25450000Y-40460000D01*
X25450000Y-37760000D01*
X34370000Y-37760000D01*
X34370000Y-40460000D01*
X34370000Y-40460000D01*
G37*
G36*
X36564208Y-37913473D02*
X36705241Y-37927363D01*
X36931442Y-37995981D01*
X36931444Y-37995982D01*
X36931447Y-37995983D01*
X37139910Y-38107408D01*
X37322634Y-38257366D01*
X37472592Y-38440090D01*
X37584017Y-38648553D01*
X37584018Y-38648556D01*
X37584019Y-38648558D01*
X37652637Y-38874759D01*
X37675806Y-39110000D01*
X37652637Y-39345241D01*
X37584019Y-39571442D01*
X37584017Y-39571447D01*
X37472592Y-39779910D01*
X37322634Y-39962634D01*
X37139910Y-40112592D01*
X36931447Y-40224017D01*
X36931444Y-40224018D01*
X36931442Y-40224019D01*
X36705241Y-40292637D01*
X36564208Y-40306527D01*
X36528951Y-40310000D01*
X36411049Y-40310000D01*
X36375792Y-40306527D01*
X36234759Y-40292637D01*
X36008558Y-40224019D01*
X36008556Y-40224018D01*
X36008553Y-40224017D01*
X35800090Y-40112592D01*
X35617366Y-39962634D01*
X35467408Y-39779910D01*
X35355983Y-39571447D01*
X35355981Y-39571442D01*
X35287363Y-39345241D01*
X35264194Y-39110000D01*
X35287363Y-38874759D01*
X35355981Y-38648558D01*
X35355982Y-38648556D01*
X35355983Y-38648553D01*
X35467408Y-38440090D01*
X35617366Y-38257366D01*
X35800090Y-38107408D01*
X36008553Y-37995983D01*
X36008556Y-37995982D01*
X36008558Y-37995981D01*
X36234759Y-37927363D01*
X36375792Y-37913473D01*
X36411049Y-37910000D01*
X36528951Y-37910000D01*
X36564208Y-37913473D01*
X36564208Y-37913473D01*
G37*
G36*
X15175000Y-34200000D02*
X6225000Y-34200000D01*
X6225000Y-32300000D01*
X15175000Y-32300000D01*
X15175000Y-34200000D01*
X15175000Y-34200000D01*
G37*
G36*
X3050000Y-29950000D02*
X950000Y-29950000D01*
X950000Y-28550000D01*
X3050000Y-28550000D01*
X3050000Y-29950000D01*
X3050000Y-29950000D01*
G37*
G36*
X9350000Y-29950000D02*
X7250000Y-29950000D01*
X7250000Y-28550000D01*
X9350000Y-28550000D01*
X9350000Y-29950000D01*
X9350000Y-29950000D01*
G37*
G36*
X23939612Y-27348037D02*
X24167096Y-27442264D01*
X24371831Y-27579064D01*
X24545936Y-27753169D01*
X24682736Y-27957904D01*
X24776963Y-28185388D01*
X24825000Y-28426885D01*
X24825000Y-28673115D01*
X24776963Y-28914612D01*
X24682736Y-29142096D01*
X24545936Y-29346831D01*
X24371831Y-29520936D01*
X24167096Y-29657736D01*
X23939612Y-29751963D01*
X23698115Y-29800000D01*
X23451885Y-29800000D01*
X23210388Y-29751963D01*
X22982904Y-29657736D01*
X22778169Y-29520936D01*
X22604064Y-29346831D01*
X22467264Y-29142096D01*
X22373037Y-28914612D01*
X22325000Y-28673115D01*
X22325000Y-28426885D01*
X22373037Y-28185388D01*
X22467264Y-27957904D01*
X22604064Y-27753169D01*
X22778169Y-27579064D01*
X22982904Y-27442264D01*
X23210388Y-27348037D01*
X23451885Y-27300000D01*
X23698115Y-27300000D01*
X23939612Y-27348037D01*
X23939612Y-27348037D01*
G37*
G36*
X60739612Y-27298037D02*
X60967096Y-27392264D01*
X61171831Y-27529064D01*
X61345936Y-27703169D01*
X61482736Y-27907904D01*
X61576963Y-28135388D01*
X61625000Y-28376885D01*
X61625000Y-28623115D01*
X61576963Y-28864612D01*
X61482736Y-29092096D01*
X61345936Y-29296831D01*
X61171831Y-29470936D01*
X60967096Y-29607736D01*
X60739612Y-29701963D01*
X60498115Y-29750000D01*
X60251885Y-29750000D01*
X60010388Y-29701963D01*
X59782904Y-29607736D01*
X59578169Y-29470936D01*
X59404064Y-29296831D01*
X59267264Y-29092096D01*
X59173037Y-28864612D01*
X59125000Y-28623115D01*
X59125000Y-28376885D01*
X59173037Y-28135388D01*
X59267264Y-27907904D01*
X59404064Y-27703169D01*
X59578169Y-27529064D01*
X59782904Y-27392264D01*
X60010388Y-27298037D01*
X60251885Y-27250000D01*
X60498115Y-27250000D01*
X60739612Y-27298037D01*
X60739612Y-27298037D01*
G37*
G36*
X3050000Y-26150000D02*
X950000Y-26150000D01*
X950000Y-24750000D01*
X3050000Y-24750000D01*
X3050000Y-26150000D01*
X3050000Y-26150000D01*
G37*
G36*
X9350000Y-26150000D02*
X7250000Y-26150000D01*
X7250000Y-24750000D01*
X9350000Y-24750000D01*
X9350000Y-26150000D01*
X9350000Y-26150000D01*
G37*
G36*
X23734208Y-22563473D02*
X23875241Y-22577363D01*
X24101442Y-22645981D01*
X24101444Y-22645982D01*
X24101447Y-22645983D01*
X24309910Y-22757408D01*
X24492634Y-22907366D01*
X24642592Y-23090090D01*
X24754017Y-23298553D01*
X24754018Y-23298556D01*
X24754019Y-23298558D01*
X24822637Y-23524759D01*
X24845806Y-23760000D01*
X24822637Y-23995241D01*
X24754019Y-24221442D01*
X24754017Y-24221447D01*
X24642592Y-24429910D01*
X24492634Y-24612634D01*
X24309910Y-24762592D01*
X24101447Y-24874017D01*
X24101444Y-24874018D01*
X24101442Y-24874019D01*
X23875241Y-24942637D01*
X23734208Y-24956527D01*
X23698951Y-24960000D01*
X23581049Y-24960000D01*
X23545792Y-24956527D01*
X23404759Y-24942637D01*
X23178558Y-24874019D01*
X23178556Y-24874018D01*
X23178553Y-24874017D01*
X22970090Y-24762592D01*
X22787366Y-24612634D01*
X22637408Y-24429910D01*
X22525983Y-24221447D01*
X22525981Y-24221442D01*
X22457363Y-23995241D01*
X22434194Y-23760000D01*
X22457363Y-23524759D01*
X22525981Y-23298558D01*
X22525982Y-23298556D01*
X22525983Y-23298553D01*
X22637408Y-23090090D01*
X22787366Y-22907366D01*
X22970090Y-22757408D01*
X23178553Y-22645983D01*
X23178556Y-22645982D01*
X23178558Y-22645981D01*
X23404759Y-22577363D01*
X23545792Y-22563473D01*
X23581049Y-22560000D01*
X23698951Y-22560000D01*
X23734208Y-22563473D01*
X23734208Y-22563473D01*
G37*
G36*
X34370000Y-24110000D02*
X25450000Y-24110000D01*
X25450000Y-21410000D01*
X34370000Y-21410000D01*
X34370000Y-24110000D01*
X34370000Y-24110000D01*
G37*
G36*
X36564208Y-21563473D02*
X36705241Y-21577363D01*
X36931442Y-21645981D01*
X36931444Y-21645982D01*
X36931447Y-21645983D01*
X37139910Y-21757408D01*
X37322634Y-21907366D01*
X37472592Y-22090090D01*
X37584017Y-22298553D01*
X37584018Y-22298556D01*
X37584019Y-22298558D01*
X37652637Y-22524759D01*
X37675806Y-22760000D01*
X37652637Y-22995241D01*
X37584019Y-23221442D01*
X37584017Y-23221447D01*
X37472592Y-23429910D01*
X37322634Y-23612634D01*
X37139910Y-23762592D01*
X36931447Y-23874017D01*
X36931444Y-23874018D01*
X36931442Y-23874019D01*
X36705241Y-23942637D01*
X36564208Y-23956527D01*
X36528951Y-23960000D01*
X36411049Y-23960000D01*
X36375792Y-23956527D01*
X36234759Y-23942637D01*
X36008558Y-23874019D01*
X36008556Y-23874018D01*
X36008553Y-23874017D01*
X35800090Y-23762592D01*
X35617366Y-23612634D01*
X35467408Y-23429910D01*
X35355983Y-23221447D01*
X35355981Y-23221442D01*
X35287363Y-22995241D01*
X35264194Y-22760000D01*
X35287363Y-22524759D01*
X35355981Y-22298558D01*
X35355982Y-22298556D01*
X35355983Y-22298553D01*
X35467408Y-22090090D01*
X35617366Y-21907366D01*
X35800090Y-21757408D01*
X36008553Y-21645983D01*
X36008556Y-21645982D01*
X36008558Y-21645981D01*
X36234759Y-21577363D01*
X36375792Y-21563473D01*
X36411049Y-21560000D01*
X36528951Y-21560000D01*
X36564208Y-21563473D01*
X36564208Y-21563473D01*
G37*
G36*
X19480000Y-21700000D02*
X15930000Y-21700000D01*
X15930000Y-20300000D01*
X19480000Y-20300000D01*
X19480000Y-21700000D01*
X19480000Y-21700000D01*
G37*
G36*
X14430000Y-21700000D02*
X10880000Y-21700000D01*
X10880000Y-20300000D01*
X14430000Y-20300000D01*
X14430000Y-21700000D01*
X14430000Y-21700000D01*
G37*
G36*
X19480000Y-19160000D02*
X15930000Y-19160000D01*
X15930000Y-17760000D01*
X19480000Y-17760000D01*
X19480000Y-19160000D01*
X19480000Y-19160000D01*
G37*
G36*
X14430000Y-19160000D02*
X10880000Y-19160000D01*
X10880000Y-17760000D01*
X14430000Y-17760000D01*
X14430000Y-19160000D01*
X14430000Y-19160000D01*
G37*
G36*
X19480000Y-16620000D02*
X15930000Y-16620000D01*
X15930000Y-15220000D01*
X19480000Y-15220000D01*
X19480000Y-16620000D01*
X19480000Y-16620000D01*
G37*
G36*
X14430000Y-16620000D02*
X10880000Y-16620000D01*
X10880000Y-15220000D01*
X14430000Y-15220000D01*
X14430000Y-16620000D01*
X14430000Y-16620000D01*
G37*
G36*
X23939612Y-11348037D02*
X24167096Y-11442264D01*
X24371831Y-11579064D01*
X24545936Y-11753169D01*
X24682736Y-11957904D01*
X24776963Y-12185388D01*
X24825000Y-12426885D01*
X24825000Y-12673115D01*
X24776963Y-12914612D01*
X24682736Y-13142096D01*
X24545936Y-13346831D01*
X24371831Y-13520936D01*
X24167096Y-13657736D01*
X23939612Y-13751963D01*
X23698115Y-13800000D01*
X23451885Y-13800000D01*
X23210388Y-13751963D01*
X22982904Y-13657736D01*
X22778169Y-13520936D01*
X22604064Y-13346831D01*
X22467264Y-13142096D01*
X22373037Y-12914612D01*
X22325000Y-12673115D01*
X22325000Y-12426885D01*
X22373037Y-12185388D01*
X22467264Y-11957904D01*
X22604064Y-11753169D01*
X22778169Y-11579064D01*
X22982904Y-11442264D01*
X23210388Y-11348037D01*
X23451885Y-11300000D01*
X23698115Y-11300000D01*
X23939612Y-11348037D01*
X23939612Y-11348037D01*
G37*
G36*
X60739612Y-11298037D02*
X60967096Y-11392264D01*
X61171831Y-11529064D01*
X61345936Y-11703169D01*
X61482736Y-11907904D01*
X61576963Y-12135388D01*
X61625000Y-12376885D01*
X61625000Y-12623115D01*
X61576963Y-12864612D01*
X61482736Y-13092096D01*
X61345936Y-13296831D01*
X61171831Y-13470936D01*
X60967096Y-13607736D01*
X60739612Y-13701963D01*
X60498115Y-13750000D01*
X60251885Y-13750000D01*
X60010388Y-13701963D01*
X59782904Y-13607736D01*
X59578169Y-13470936D01*
X59404064Y-13296831D01*
X59267264Y-13092096D01*
X59173037Y-12864612D01*
X59125000Y-12623115D01*
X59125000Y-12376885D01*
X59173037Y-12135388D01*
X59267264Y-11907904D01*
X59404064Y-11703169D01*
X59578169Y-11529064D01*
X59782904Y-11392264D01*
X60010388Y-11298037D01*
X60251885Y-11250000D01*
X60498115Y-11250000D01*
X60739612Y-11298037D01*
X60739612Y-11298037D01*
G37*
G36*
X23734208Y-6563473D02*
X23875241Y-6577363D01*
X24101442Y-6645981D01*
X24101444Y-6645982D01*
X24101447Y-6645983D01*
X24309910Y-6757408D01*
X24492634Y-6907366D01*
X24642592Y-7090090D01*
X24754017Y-7298553D01*
X24754018Y-7298556D01*
X24754019Y-7298558D01*
X24822637Y-7524759D01*
X24845806Y-7760000D01*
X24822637Y-7995241D01*
X24754019Y-8221442D01*
X24754017Y-8221447D01*
X24642592Y-8429910D01*
X24492634Y-8612634D01*
X24309910Y-8762592D01*
X24101447Y-8874017D01*
X24101444Y-8874018D01*
X24101442Y-8874019D01*
X23875241Y-8942637D01*
X23734208Y-8956527D01*
X23698951Y-8960000D01*
X23581049Y-8960000D01*
X23545792Y-8956527D01*
X23404759Y-8942637D01*
X23178558Y-8874019D01*
X23178556Y-8874018D01*
X23178553Y-8874017D01*
X22970090Y-8762592D01*
X22787366Y-8612634D01*
X22637408Y-8429910D01*
X22525983Y-8221447D01*
X22525981Y-8221442D01*
X22457363Y-7995241D01*
X22434194Y-7760000D01*
X22457363Y-7524759D01*
X22525981Y-7298558D01*
X22525982Y-7298556D01*
X22525983Y-7298553D01*
X22637408Y-7090090D01*
X22787366Y-6907366D01*
X22970090Y-6757408D01*
X23178553Y-6645983D01*
X23178556Y-6645982D01*
X23178558Y-6645981D01*
X23404759Y-6577363D01*
X23545792Y-6563473D01*
X23581049Y-6560000D01*
X23698951Y-6560000D01*
X23734208Y-6563473D01*
X23734208Y-6563473D01*
G37*
G36*
X34370000Y-8110000D02*
X25450000Y-8110000D01*
X25450000Y-5410000D01*
X34370000Y-5410000D01*
X34370000Y-8110000D01*
X34370000Y-8110000D01*
G37*
G36*
X36564208Y-5563473D02*
X36705241Y-5577363D01*
X36931442Y-5645981D01*
X36931444Y-5645982D01*
X36931447Y-5645983D01*
X37139910Y-5757408D01*
X37322634Y-5907366D01*
X37472592Y-6090090D01*
X37584017Y-6298553D01*
X37584018Y-6298556D01*
X37584019Y-6298558D01*
X37652637Y-6524759D01*
X37675806Y-6760000D01*
X37652637Y-6995241D01*
X37584019Y-7221442D01*
X37584017Y-7221447D01*
X37472592Y-7429910D01*
X37322634Y-7612634D01*
X37139910Y-7762592D01*
X36931447Y-7874017D01*
X36931444Y-7874018D01*
X36931442Y-7874019D01*
X36705241Y-7942637D01*
X36564208Y-7956527D01*
X36528951Y-7960000D01*
X36411049Y-7960000D01*
X36375792Y-7956527D01*
X36234759Y-7942637D01*
X36008558Y-7874019D01*
X36008556Y-7874018D01*
X36008553Y-7874017D01*
X35800090Y-7762592D01*
X35617366Y-7612634D01*
X35467408Y-7429910D01*
X35355983Y-7221447D01*
X35355981Y-7221442D01*
X35287363Y-6995241D01*
X35264194Y-6760000D01*
X35287363Y-6524759D01*
X35355981Y-6298558D01*
X35355982Y-6298556D01*
X35355983Y-6298553D01*
X35467408Y-6090090D01*
X35617366Y-5907366D01*
X35800090Y-5757408D01*
X36008553Y-5645983D01*
X36008556Y-5645982D01*
X36008558Y-5645981D01*
X36234759Y-5577363D01*
X36375792Y-5563473D01*
X36411049Y-5560000D01*
X36528951Y-5560000D01*
X36564208Y-5563473D01*
X36564208Y-5563473D01*
G37*
M02*
