%TF.GenerationSoftware,KiCad,Pcbnew,6.0.0-rc1-unknown-4a57541~66~ubuntu18.04.1*%
%TF.CreationDate,2018-09-13T13:12:40-06:00*%
%TF.ProjectId,thelio-io-sas,7468656C696F2D696F2D7361732E6B69,rev?*%
%TF.SameCoordinates,Original*%
%TF.FileFunction,Legend,Top*%
%TF.FilePolarity,Positive*%
%FSLAX46Y46*%
G04 Gerber Fmt 4.6, Leading zero omitted, Abs format (unit mm)*
G04 Created by KiCad (PCBNEW 6.0.0-rc1-unknown-4a57541~66~ubuntu18.04.1) date Thu Sep 13 13:12:40 2018*
%MOMM*%
%LPD*%
G01*
G04 APERTURE LIST*
%ADD10C,0.200000*%
%ADD11C,0.150000*%
%ADD12C,0.120000*%
G04 APERTURE END LIST*
D10*
X75650000Y-71800000D02*
X3200000Y-71800000D01*
X0Y-68600000D02*
X0Y-3200000D01*
X78850000Y-3200000D02*
X78850000Y-68600000D01*
X0Y-3200000D02*
G75*
G02X3200000Y0I3200000J0D01*
G01*
X75650000Y0D02*
G75*
G02X78850000Y-3200000I0J-3200000D01*
G01*
X3200000Y0D02*
X75650000Y0D01*
D11*
X78850000Y-68600000D02*
G75*
G02X75650000Y-71800000I-3200000J0D01*
G01*
D10*
X3200000Y-71800000D02*
G75*
G02X0Y-68600000I0J3200000D01*
G01*
D12*
%TO.C,U.2_3*%
X28400000Y-64700000D02*
X28400000Y-55100000D01*
X71600000Y-64700000D02*
X28400000Y-64700000D01*
X71600000Y-55100000D02*
X71600000Y-64700000D01*
X28400000Y-55100000D02*
X71600000Y-55100000D01*
%TO.C,U.2_2*%
X28400000Y-48700000D02*
X28400000Y-39100000D01*
X71600000Y-48700000D02*
X28400000Y-48700000D01*
X71600000Y-39100000D02*
X71600000Y-48700000D01*
X28400000Y-39100000D02*
X71600000Y-39100000D01*
%TO.C,U.2_1*%
X28400000Y-23100000D02*
X71600000Y-23100000D01*
X71600000Y-23100000D02*
X71600000Y-32700000D01*
X71600000Y-32700000D02*
X28400000Y-32700000D01*
X28400000Y-32700000D02*
X28400000Y-23100000D01*
%TO.C,U.2_0*%
X28400000Y-7100000D02*
X71600000Y-7100000D01*
X71600000Y-7100000D02*
X71600000Y-16700000D01*
X71600000Y-16700000D02*
X28400000Y-16700000D01*
X28400000Y-16700000D02*
X28400000Y-7100000D01*
%TD*%
%TO.C,U.2_3*%
D11*
X48142857Y-65752380D02*
X48142857Y-66561904D01*
X48190476Y-66657142D01*
X48238095Y-66704761D01*
X48333333Y-66752380D01*
X48523809Y-66752380D01*
X48619047Y-66704761D01*
X48666666Y-66657142D01*
X48714285Y-66561904D01*
X48714285Y-65752380D01*
X49190476Y-66657142D02*
X49238095Y-66704761D01*
X49190476Y-66752380D01*
X49142857Y-66704761D01*
X49190476Y-66657142D01*
X49190476Y-66752380D01*
X49619047Y-65847619D02*
X49666666Y-65800000D01*
X49761904Y-65752380D01*
X50000000Y-65752380D01*
X50095238Y-65800000D01*
X50142857Y-65847619D01*
X50190476Y-65942857D01*
X50190476Y-66038095D01*
X50142857Y-66180952D01*
X49571428Y-66752380D01*
X50190476Y-66752380D01*
X50380952Y-66847619D02*
X51142857Y-66847619D01*
X51285714Y-65752380D02*
X51904761Y-65752380D01*
X51571428Y-66133333D01*
X51714285Y-66133333D01*
X51809523Y-66180952D01*
X51857142Y-66228571D01*
X51904761Y-66323809D01*
X51904761Y-66561904D01*
X51857142Y-66657142D01*
X51809523Y-66704761D01*
X51714285Y-66752380D01*
X51428571Y-66752380D01*
X51333333Y-66704761D01*
X51285714Y-66657142D01*
%TO.C,U.2_2*%
X48142857Y-49752380D02*
X48142857Y-50561904D01*
X48190476Y-50657142D01*
X48238095Y-50704761D01*
X48333333Y-50752380D01*
X48523809Y-50752380D01*
X48619047Y-50704761D01*
X48666666Y-50657142D01*
X48714285Y-50561904D01*
X48714285Y-49752380D01*
X49190476Y-50657142D02*
X49238095Y-50704761D01*
X49190476Y-50752380D01*
X49142857Y-50704761D01*
X49190476Y-50657142D01*
X49190476Y-50752380D01*
X49619047Y-49847619D02*
X49666666Y-49800000D01*
X49761904Y-49752380D01*
X50000000Y-49752380D01*
X50095238Y-49800000D01*
X50142857Y-49847619D01*
X50190476Y-49942857D01*
X50190476Y-50038095D01*
X50142857Y-50180952D01*
X49571428Y-50752380D01*
X50190476Y-50752380D01*
X50380952Y-50847619D02*
X51142857Y-50847619D01*
X51333333Y-49847619D02*
X51380952Y-49800000D01*
X51476190Y-49752380D01*
X51714285Y-49752380D01*
X51809523Y-49800000D01*
X51857142Y-49847619D01*
X51904761Y-49942857D01*
X51904761Y-50038095D01*
X51857142Y-50180952D01*
X51285714Y-50752380D01*
X51904761Y-50752380D01*
%TO.C,U.2_1*%
X48142857Y-33752380D02*
X48142857Y-34561904D01*
X48190476Y-34657142D01*
X48238095Y-34704761D01*
X48333333Y-34752380D01*
X48523809Y-34752380D01*
X48619047Y-34704761D01*
X48666666Y-34657142D01*
X48714285Y-34561904D01*
X48714285Y-33752380D01*
X49190476Y-34657142D02*
X49238095Y-34704761D01*
X49190476Y-34752380D01*
X49142857Y-34704761D01*
X49190476Y-34657142D01*
X49190476Y-34752380D01*
X49619047Y-33847619D02*
X49666666Y-33800000D01*
X49761904Y-33752380D01*
X50000000Y-33752380D01*
X50095238Y-33800000D01*
X50142857Y-33847619D01*
X50190476Y-33942857D01*
X50190476Y-34038095D01*
X50142857Y-34180952D01*
X49571428Y-34752380D01*
X50190476Y-34752380D01*
X50380952Y-34847619D02*
X51142857Y-34847619D01*
X51904761Y-34752380D02*
X51333333Y-34752380D01*
X51619047Y-34752380D02*
X51619047Y-33752380D01*
X51523809Y-33895238D01*
X51428571Y-33990476D01*
X51333333Y-34038095D01*
%TO.C,U.2_0*%
X48142857Y-17752380D02*
X48142857Y-18561904D01*
X48190476Y-18657142D01*
X48238095Y-18704761D01*
X48333333Y-18752380D01*
X48523809Y-18752380D01*
X48619047Y-18704761D01*
X48666666Y-18657142D01*
X48714285Y-18561904D01*
X48714285Y-17752380D01*
X49190476Y-18657142D02*
X49238095Y-18704761D01*
X49190476Y-18752380D01*
X49142857Y-18704761D01*
X49190476Y-18657142D01*
X49190476Y-18752380D01*
X49619047Y-17847619D02*
X49666666Y-17800000D01*
X49761904Y-17752380D01*
X50000000Y-17752380D01*
X50095238Y-17800000D01*
X50142857Y-17847619D01*
X50190476Y-17942857D01*
X50190476Y-18038095D01*
X50142857Y-18180952D01*
X49571428Y-18752380D01*
X50190476Y-18752380D01*
X50380952Y-18847619D02*
X51142857Y-18847619D01*
X51571428Y-17752380D02*
X51666666Y-17752380D01*
X51761904Y-17800000D01*
X51809523Y-17847619D01*
X51857142Y-17942857D01*
X51904761Y-18133333D01*
X51904761Y-18371428D01*
X51857142Y-18561904D01*
X51809523Y-18657142D01*
X51761904Y-18704761D01*
X51666666Y-18752380D01*
X51571428Y-18752380D01*
X51476190Y-18704761D01*
X51428571Y-18657142D01*
X51380952Y-18561904D01*
X51333333Y-18371428D01*
X51333333Y-18133333D01*
X51380952Y-17942857D01*
X51428571Y-17847619D01*
X51476190Y-17800000D01*
X51571428Y-17752380D01*
%TD*%
M02*
