M48
;DRILL file {KiCad 5.0.1-33cea8e~68~ubuntu18.10.1} date Fri Nov  9 13:17:00 2018
;FORMAT={-:-/ absolute / metric / decimal}
FMAT,2
METRIC,TZ
T1C0.320
T2C0.400
T3C1.020
%
G90
G05
M71
T1
X36.02Y-73.45
X36.02Y-75.7
X36.02Y-77.95
X36.72Y-72.7
X36.72Y-74.95
X36.72Y-77.2
X37.42Y-74.2
X37.42Y-76.45
X37.42Y-78.7
X39.82Y-73.45
X39.82Y-75.7
X39.82Y-77.95
X40.52Y-72.7
X40.52Y-74.95
X40.52Y-77.2
X41.22Y-74.2
X41.22Y-76.45
X41.22Y-78.7
X43.62Y-73.45
X43.62Y-75.7
X43.62Y-77.95
X44.32Y-72.7
X44.32Y-74.95
X44.32Y-77.2
X45.02Y-74.2
X45.02Y-76.45
X45.02Y-78.7
X47.42Y-73.45
X47.42Y-75.7
X47.42Y-77.95
X48.12Y-72.7
X48.12Y-74.95
X48.12Y-77.2
X48.82Y-74.2
X48.82Y-76.45
X48.82Y-78.7
X36.02Y-89.45
X36.02Y-91.7
X36.02Y-93.95
X36.72Y-88.7
X36.72Y-90.95
X36.72Y-93.2
X37.42Y-90.2
X37.42Y-92.45
X37.42Y-94.7
X39.82Y-89.45
X39.82Y-91.7
X39.82Y-93.95
X40.52Y-88.7
X40.52Y-90.95
X40.52Y-93.2
X41.22Y-90.2
X41.22Y-92.45
X41.22Y-94.7
X43.62Y-89.45
X43.62Y-91.7
X43.62Y-93.95
X44.32Y-88.7
X44.32Y-90.95
X44.32Y-93.2
X45.02Y-90.2
X45.02Y-92.45
X45.02Y-94.7
X47.42Y-89.45
X47.42Y-91.7
X47.42Y-93.95
X48.12Y-88.7
X48.12Y-90.95
X48.12Y-93.2
X48.82Y-90.2
X48.82Y-92.45
X48.82Y-94.7
X36.02Y-57.45
X36.02Y-59.7
X36.02Y-61.95
X36.72Y-56.7
X36.72Y-58.95
X36.72Y-61.2
X37.42Y-58.2
X37.42Y-60.45
X37.42Y-62.7
X39.82Y-57.45
X39.82Y-59.7
X39.82Y-61.95
X40.52Y-56.7
X40.52Y-58.95
X40.52Y-61.2
X41.22Y-58.2
X41.22Y-60.45
X41.22Y-62.7
X43.62Y-57.45
X43.62Y-59.7
X43.62Y-61.95
X44.32Y-56.7
X44.32Y-58.95
X44.32Y-61.2
X45.02Y-58.2
X45.02Y-60.45
X45.02Y-62.7
X47.42Y-57.45
X47.42Y-59.7
X47.42Y-61.95
X48.12Y-56.7
X48.12Y-58.95
X48.12Y-61.2
X48.82Y-58.2
X48.82Y-60.45
X48.82Y-62.7
X36.02Y-41.45
X36.02Y-43.7
X36.02Y-45.95
X36.72Y-40.7
X36.72Y-42.95
X36.72Y-45.2
X37.42Y-42.2
X37.42Y-44.45
X37.42Y-46.7
X39.82Y-41.45
X39.82Y-43.7
X39.82Y-45.95
X40.52Y-40.7
X40.52Y-42.95
X40.52Y-45.2
X41.22Y-42.2
X41.22Y-44.45
X41.22Y-46.7
X43.62Y-41.45
X43.62Y-43.7
X43.62Y-45.95
X44.32Y-40.7
X44.32Y-42.95
X44.32Y-45.2
X45.02Y-42.2
X45.02Y-44.45
X45.02Y-46.7
X47.42Y-41.45
X47.42Y-43.7
X47.42Y-45.95
X48.12Y-40.7
X48.12Y-42.95
X48.12Y-45.2
X48.82Y-42.2
X48.82Y-44.45
X48.82Y-46.7
T2
X57.747Y-40.657
X57.747Y-56.657
X57.747Y-72.657
X57.747Y-88.657
X58.489Y-39.914
X58.489Y-55.914
X58.489Y-71.914
X58.489Y-87.914
X60.151Y-40.656
X60.151Y-56.656
X60.151Y-72.656
X60.151Y-88.656
X60.893Y-39.914
X60.893Y-55.914
X60.893Y-71.914
X60.893Y-87.914
X62.551Y-40.656
X62.551Y-56.656
X62.551Y-72.656
X62.551Y-88.656
X63.293Y-39.914
X63.293Y-55.914
X63.293Y-71.914
X63.293Y-87.914
X70.12Y-48.49
X70.12Y-64.49
X70.12Y-80.49
X70.12Y-96.49
X72.095Y-49.445
X72.095Y-65.445
X72.095Y-81.445
X72.095Y-97.445
X72.586Y-40.292
X72.586Y-56.292
X72.586Y-72.292
X72.586Y-88.292
X73.329Y-39.549
X73.329Y-55.549
X73.329Y-71.549
X73.329Y-87.549
X75.351Y-40.656
X75.351Y-56.656
X75.351Y-72.656
X75.351Y-88.656
X75.905Y-49.445
X75.905Y-65.445
X75.905Y-81.445
X75.905Y-97.445
X76.093Y-39.914
X76.093Y-55.914
X76.093Y-71.914
X76.093Y-87.914
X77.175Y-49.445
X77.175Y-65.445
X77.175Y-81.445
X77.175Y-97.445
X77.751Y-40.656
X77.751Y-56.656
X77.751Y-72.656
X77.751Y-88.656
X78.42Y-49.445
X78.42Y-65.445
X78.42Y-81.445
X78.42Y-97.445
X78.493Y-39.914
X78.493Y-55.914
X78.493Y-71.914
X78.493Y-87.914
X79.715Y-49.42
X79.715Y-65.42
X79.715Y-81.42
X79.715Y-97.42
X80.985Y-49.445
X80.985Y-65.445
X80.985Y-81.445
X80.985Y-97.445
X81.751Y-39.914
X81.751Y-55.914
X81.751Y-71.914
X81.751Y-87.914
X82.255Y-49.445
X82.255Y-65.445
X82.255Y-81.445
X82.255Y-97.445
X82.493Y-40.656
X82.493Y-56.656
X82.493Y-72.656
X82.493Y-88.656
X83.525Y-49.445
X83.525Y-65.445
X83.525Y-81.445
X83.525Y-97.445
X84.151Y-39.914
X84.151Y-55.914
X84.151Y-71.914
X84.151Y-87.914
X84.893Y-40.656
X84.893Y-56.656
X84.893Y-72.656
X84.893Y-88.656
X86.04Y-49.445
X86.04Y-65.445
X86.04Y-81.445
X86.04Y-97.445
X86.551Y-39.914
X86.551Y-55.914
X86.551Y-71.914
X86.551Y-87.914
X87.293Y-40.656
X87.293Y-56.656
X87.293Y-72.656
X87.293Y-88.656
X87.31Y-49.445
X87.31Y-65.445
X87.31Y-81.445
X87.31Y-97.445
X88.58Y-49.445
X88.58Y-65.445
X88.58Y-81.445
X88.58Y-97.445
X89.875Y-49.445
X89.875Y-65.445
X89.875Y-81.445
X89.875Y-97.445
T3
X92.96Y-99.99
X95.46Y-99.99
X97.96Y-99.99
X100.46Y-99.99
T0
M30
