%TF.GenerationSoftware,KiCad,Pcbnew,5.0.2-bee76a0~70~ubuntu18.10.1*%
%TF.CreationDate,2018-12-17T11:53:32-07:00*%
%TF.ProjectId,thelio-io-sas,7468656c-696f-42d6-996f-2d7361732e6b,rev?*%
%TF.SameCoordinates,Original*%
%TF.FileFunction,Copper,L4,Inr*%
%TF.FilePolarity,Positive*%
%FSLAX46Y46*%
G04 Gerber Fmt 4.6, Leading zero omitted, Abs format (unit mm)*
G04 Created by KiCad (PCBNEW 5.0.2-bee76a0~70~ubuntu18.10.1) date Mon Dec 17 11:53:32 2018*
%MOMM*%
%LPD*%
G01*
G04 APERTURE LIST*
%TA.AperFunction,NonConductor*%
%ADD10C,0.200000*%
%TD*%
%TA.AperFunction,NonConductor*%
%ADD11C,0.150000*%
%TD*%
%TA.AperFunction,ViaPad*%
%ADD12C,0.370000*%
%TD*%
%TA.AperFunction,WasherPad*%
%ADD13C,2.600000*%
%TD*%
%TA.AperFunction,ViaPad*%
%ADD14O,1.730000X2.030000*%
%TD*%
%TA.AperFunction,ViaPad*%
%ADD15R,1.730000X2.030000*%
%TD*%
%TA.AperFunction,ViaPad*%
%ADD16C,0.400000*%
%TD*%
%TA.AperFunction,ViaPad*%
%ADD17C,0.800000*%
%TD*%
%TA.AperFunction,Conductor*%
%ADD18C,0.127000*%
%TD*%
G04 APERTURE END LIST*
D10*
X77050000Y-18400000D02*
X77050000Y-53400000D01*
X75450000Y-16800000D02*
G75*
G02X77050000Y-18400000I0J-1600000D01*
G01*
X73850000Y-16800000D02*
X75450000Y-16800000D01*
X73850000Y-55000000D02*
X75450000Y-55000000D01*
X77050000Y-53400000D02*
G75*
G02X75450000Y-55000000I-1600000J0D01*
G01*
X70650000Y0D02*
G75*
G02X73850000Y-3200000I0J-3200000D01*
G01*
D11*
X73850000Y-68600000D02*
G75*
G02X70650000Y-71800000I-3200000J0D01*
G01*
D10*
X73850000Y-16800000D02*
X73850000Y-3200000D01*
X73850000Y-55000000D02*
X73850000Y-68600000D01*
X-3200000Y-18400000D02*
G75*
G02X-1600000Y-16800000I1600000J0D01*
G01*
X0Y-16800000D02*
X-1600000Y-16800000D01*
X0Y-55000000D02*
X-1600000Y-55000000D01*
X-1600000Y-55000000D02*
G75*
G02X-3200000Y-53400000I0J1600000D01*
G01*
X-3200000Y-53400000D02*
X-3200000Y-18400000D01*
X0Y-16800000D02*
X0Y-3200000D01*
X0Y-55000000D02*
X0Y-68600000D01*
X3200000Y0D02*
X70650000Y0D01*
X0Y-3200000D02*
G75*
G02X3200000Y0I3200000J0D01*
G01*
X70650000Y-71800000D02*
X3200000Y-71800000D01*
X3200000Y-71800000D02*
G75*
G02X0Y-68600000I0J3200000D01*
G01*
D12*
%TO.N,/sas0/R2+*%
%TO.C,SAS0*%
X3420000Y-13200000D03*
%TO.N,/sas0/R2-*%
X4820000Y-13950000D03*
%TO.N,/sas0/R0-*%
X4820000Y-11700000D03*
%TO.N,GND*%
X4120000Y-10200000D03*
X4120000Y-14700000D03*
%TO.N,/sas0/R0+*%
X3420000Y-10950000D03*
%TO.N,/sas0/SCLK*%
X3420000Y-8700000D03*
%TO.N,GND*%
X4120000Y-12450000D03*
%TO.N,/sas0/SDAT*%
X4820000Y-9450000D03*
%TO.N,/sas0/R3+*%
X7220000Y-13200000D03*
%TO.N,/sas0/R3-*%
X8620000Y-13950000D03*
%TO.N,/sas0/R1-*%
X8620000Y-11700000D03*
%TO.N,GND*%
X7920000Y-10200000D03*
X7920000Y-14700000D03*
%TO.N,/sas0/R1+*%
X7220000Y-10950000D03*
%TO.N,/sas0/WAKE*%
X7220000Y-8700000D03*
%TO.N,GND*%
X7920000Y-12450000D03*
%TO.N,Net-(SAS0-PadC2)*%
X8620000Y-9450000D03*
%TO.N,/sas0/T2+*%
X11020000Y-13200000D03*
%TO.N,/sas0/T2-*%
X12420000Y-13950000D03*
%TO.N,/sas0/T0-*%
X12420000Y-11700000D03*
%TO.N,GND*%
X11720000Y-10200000D03*
X11720000Y-14700000D03*
%TO.N,/sas0/T0+*%
X11020000Y-10950000D03*
%TO.N,Net-(SAS0-PadB1)*%
X11020000Y-8700000D03*
%TO.N,GND*%
X11720000Y-12450000D03*
%TO.N,/sas0/RST*%
X12420000Y-9450000D03*
%TO.N,/sas0/T3-*%
X16220000Y-13950000D03*
%TO.N,GND*%
X15520000Y-14700000D03*
X15520000Y-12450000D03*
%TO.N,/sas0/T3+*%
X14820000Y-13200000D03*
%TO.N,/sas0/T1-*%
X16220000Y-11700000D03*
%TO.N,/sas0/CLK-*%
X14820000Y-8700000D03*
%TO.N,/sas0/CLK+*%
X16220000Y-9450000D03*
%TO.N,GND*%
X15520000Y-10200000D03*
%TO.N,/sas0/T1+*%
X14820000Y-10950000D03*
%TD*%
D13*
%TO.N,*%
%TO.C,U2_0*%
X22635000Y-12560000D03*
X61365000Y-12560000D03*
%TD*%
D12*
%TO.N,/sas1/R2+*%
%TO.C,SAS1*%
X3420000Y-29200000D03*
%TO.N,/sas1/R2-*%
X4820000Y-29950000D03*
%TO.N,/sas1/R0-*%
X4820000Y-27700000D03*
%TO.N,GND*%
X4120000Y-26200000D03*
X4120000Y-30700000D03*
%TO.N,/sas1/R0+*%
X3420000Y-26950000D03*
%TO.N,/sas1/SCLK*%
X3420000Y-24700000D03*
%TO.N,GND*%
X4120000Y-28450000D03*
%TO.N,/sas1/SDAT*%
X4820000Y-25450000D03*
%TO.N,/sas1/R3+*%
X7220000Y-29200000D03*
%TO.N,/sas1/R3-*%
X8620000Y-29950000D03*
%TO.N,/sas1/R1-*%
X8620000Y-27700000D03*
%TO.N,GND*%
X7920000Y-26200000D03*
X7920000Y-30700000D03*
%TO.N,/sas1/R1+*%
X7220000Y-26950000D03*
%TO.N,/sas1/WAKE*%
X7220000Y-24700000D03*
%TO.N,GND*%
X7920000Y-28450000D03*
%TO.N,Net-(SAS1-PadC2)*%
X8620000Y-25450000D03*
%TO.N,/sas1/T2+*%
X11020000Y-29200000D03*
%TO.N,/sas1/T2-*%
X12420000Y-29950000D03*
%TO.N,/sas1/T0-*%
X12420000Y-27700000D03*
%TO.N,GND*%
X11720000Y-26200000D03*
X11720000Y-30700000D03*
%TO.N,/sas1/T0+*%
X11020000Y-26950000D03*
%TO.N,Net-(SAS1-PadB1)*%
X11020000Y-24700000D03*
%TO.N,GND*%
X11720000Y-28450000D03*
%TO.N,/sas1/RST*%
X12420000Y-25450000D03*
%TO.N,/sas1/T3-*%
X16220000Y-29950000D03*
%TO.N,GND*%
X15520000Y-30700000D03*
X15520000Y-28450000D03*
%TO.N,/sas1/T3+*%
X14820000Y-29200000D03*
%TO.N,/sas1/T1-*%
X16220000Y-27700000D03*
%TO.N,/sas1/CLK-*%
X14820000Y-24700000D03*
%TO.N,/sas1/CLK+*%
X16220000Y-25450000D03*
%TO.N,GND*%
X15520000Y-26200000D03*
%TO.N,/sas1/T1+*%
X14820000Y-26950000D03*
%TD*%
D13*
%TO.N,*%
%TO.C,U2_1*%
X22635000Y-28560000D03*
X61365000Y-28560000D03*
%TD*%
D12*
%TO.N,/sas2/R2+*%
%TO.C,SAS2*%
X3420000Y-45200000D03*
%TO.N,/sas2/R2-*%
X4820000Y-45950000D03*
%TO.N,/sas2/R0-*%
X4820000Y-43700000D03*
%TO.N,GND*%
X4120000Y-42200000D03*
X4120000Y-46700000D03*
%TO.N,/sas2/R0+*%
X3420000Y-42950000D03*
%TO.N,/sas2/SCLK*%
X3420000Y-40700000D03*
%TO.N,GND*%
X4120000Y-44450000D03*
%TO.N,/sas2/SDAT*%
X4820000Y-41450000D03*
%TO.N,/sas2/R3+*%
X7220000Y-45200000D03*
%TO.N,/sas2/R3-*%
X8620000Y-45950000D03*
%TO.N,/sas2/R1-*%
X8620000Y-43700000D03*
%TO.N,GND*%
X7920000Y-42200000D03*
X7920000Y-46700000D03*
%TO.N,/sas2/R1+*%
X7220000Y-42950000D03*
%TO.N,/sas2/WAKE*%
X7220000Y-40700000D03*
%TO.N,GND*%
X7920000Y-44450000D03*
%TO.N,Net-(SAS2-PadC2)*%
X8620000Y-41450000D03*
%TO.N,/sas2/T2+*%
X11020000Y-45200000D03*
%TO.N,/sas2/T2-*%
X12420000Y-45950000D03*
%TO.N,/sas2/T0-*%
X12420000Y-43700000D03*
%TO.N,GND*%
X11720000Y-42200000D03*
X11720000Y-46700000D03*
%TO.N,/sas2/T0+*%
X11020000Y-42950000D03*
%TO.N,Net-(SAS2-PadB1)*%
X11020000Y-40700000D03*
%TO.N,GND*%
X11720000Y-44450000D03*
%TO.N,/sas2/RST*%
X12420000Y-41450000D03*
%TO.N,/sas2/T3-*%
X16220000Y-45950000D03*
%TO.N,GND*%
X15520000Y-46700000D03*
X15520000Y-44450000D03*
%TO.N,/sas2/T3+*%
X14820000Y-45200000D03*
%TO.N,/sas2/T1-*%
X16220000Y-43700000D03*
%TO.N,/sas2/CLK-*%
X14820000Y-40700000D03*
%TO.N,/sas2/CLK+*%
X16220000Y-41450000D03*
%TO.N,GND*%
X15520000Y-42200000D03*
%TO.N,/sas2/T1+*%
X14820000Y-42950000D03*
%TD*%
D13*
%TO.N,*%
%TO.C,U2_2*%
X22635000Y-44560000D03*
X61365000Y-44560000D03*
%TD*%
%TO.N,*%
%TO.C,U2_3*%
X61365000Y-60560000D03*
X22635000Y-60560000D03*
%TD*%
D12*
%TO.N,/sas3/T1+*%
%TO.C,SAS3*%
X14820000Y-58950000D03*
%TO.N,GND*%
X15520000Y-58200000D03*
%TO.N,/sas3/CLK+*%
X16220000Y-57450000D03*
%TO.N,/sas3/CLK-*%
X14820000Y-56700000D03*
%TO.N,/sas3/T1-*%
X16220000Y-59700000D03*
%TO.N,/sas3/T3+*%
X14820000Y-61200000D03*
%TO.N,GND*%
X15520000Y-60450000D03*
X15520000Y-62700000D03*
%TO.N,/sas3/T3-*%
X16220000Y-61950000D03*
%TO.N,/sas3/RST*%
X12420000Y-57450000D03*
%TO.N,GND*%
X11720000Y-60450000D03*
%TO.N,Net-(SAS3-PadB1)*%
X11020000Y-56700000D03*
%TO.N,/sas3/T0+*%
X11020000Y-58950000D03*
%TO.N,GND*%
X11720000Y-62700000D03*
X11720000Y-58200000D03*
%TO.N,/sas3/T0-*%
X12420000Y-59700000D03*
%TO.N,/sas3/T2-*%
X12420000Y-61950000D03*
%TO.N,/sas3/T2+*%
X11020000Y-61200000D03*
%TO.N,Net-(SAS3-PadC2)*%
X8620000Y-57450000D03*
%TO.N,GND*%
X7920000Y-60450000D03*
%TO.N,/sas3/WAKE*%
X7220000Y-56700000D03*
%TO.N,/sas3/R1+*%
X7220000Y-58950000D03*
%TO.N,GND*%
X7920000Y-62700000D03*
X7920000Y-58200000D03*
%TO.N,/sas3/R1-*%
X8620000Y-59700000D03*
%TO.N,/sas3/R3-*%
X8620000Y-61950000D03*
%TO.N,/sas3/R3+*%
X7220000Y-61200000D03*
%TO.N,/sas3/SDAT*%
X4820000Y-57450000D03*
%TO.N,GND*%
X4120000Y-60450000D03*
%TO.N,/sas3/SCLK*%
X3420000Y-56700000D03*
%TO.N,/sas3/R0+*%
X3420000Y-58950000D03*
%TO.N,GND*%
X4120000Y-62700000D03*
X4120000Y-58200000D03*
%TO.N,/sas3/R0-*%
X4820000Y-59700000D03*
%TO.N,/sas3/R2-*%
X4820000Y-61950000D03*
%TO.N,/sas3/R2+*%
X3420000Y-61200000D03*
%TD*%
D14*
%TO.N,+5V*%
%TO.C,POWER0*%
X60960000Y-67990000D03*
%TO.N,GND*%
X63460000Y-67990000D03*
X65960000Y-67990000D03*
D15*
%TO.N,+12V*%
X68460000Y-67990000D03*
%TD*%
D16*
%TO.N,GND*%
X6520000Y-21300000D03*
X41720000Y-37300000D03*
X9720000Y-37300000D03*
X38520000Y-50300000D03*
X35320000Y-37300000D03*
X19320000Y-37300000D03*
X44920000Y-37300000D03*
X6520000Y-50300000D03*
X48120000Y-37300000D03*
X25720000Y-50300000D03*
X25720000Y-37300000D03*
X6520000Y-37300000D03*
X32120000Y-37300000D03*
X9720000Y-50300000D03*
X35320000Y-50300000D03*
X28920000Y-50300000D03*
X38520000Y-37300000D03*
X57720000Y-37300000D03*
X28920000Y-37300000D03*
X51320000Y-37300000D03*
X12920000Y-50300000D03*
X32120000Y-50300000D03*
X41720000Y-50300000D03*
X22520000Y-50300000D03*
X12920000Y-37300000D03*
X22520000Y-37300000D03*
X19320000Y-50300000D03*
X54520000Y-37300000D03*
X41720000Y-21300000D03*
X9720000Y-21300000D03*
X38520000Y-34300000D03*
X35320000Y-21300000D03*
X19320000Y-21300000D03*
X44920000Y-21300000D03*
X6520000Y-34300000D03*
X48120000Y-21300000D03*
X25720000Y-34300000D03*
X25720000Y-21300000D03*
X32120000Y-21300000D03*
X9720000Y-34300000D03*
X35320000Y-34300000D03*
X28920000Y-34300000D03*
X38520000Y-21300000D03*
X57720000Y-21300000D03*
X28920000Y-21300000D03*
X51320000Y-21300000D03*
X12920000Y-34300000D03*
X32120000Y-34300000D03*
X41720000Y-34300000D03*
X22520000Y-34300000D03*
X12920000Y-21300000D03*
X22520000Y-21300000D03*
X19320000Y-34300000D03*
X54520000Y-21300000D03*
X41720000Y-5300000D03*
X9720000Y-5300000D03*
X38520000Y-18300000D03*
X35320000Y-5300000D03*
X19320000Y-5300000D03*
X44920000Y-5300000D03*
X6520000Y-18300000D03*
X48120000Y-5300000D03*
X25720000Y-18300000D03*
X25720000Y-5300000D03*
X6520000Y-5300000D03*
X32120000Y-5300000D03*
X9720000Y-18300000D03*
X35320000Y-18300000D03*
X28920000Y-18300000D03*
X38520000Y-5300000D03*
X57720000Y-5300000D03*
X28920000Y-5300000D03*
X51320000Y-5300000D03*
X12920000Y-18300000D03*
X32120000Y-18300000D03*
X41720000Y-18300000D03*
X22520000Y-18300000D03*
X12920000Y-5300000D03*
X22520000Y-5300000D03*
X19320000Y-18300000D03*
X54520000Y-5300000D03*
D17*
X43905000Y-49445000D03*
X54040000Y-49445000D03*
X51525000Y-49445000D03*
X46420000Y-49445000D03*
X45175000Y-49445000D03*
X43905000Y-33445000D03*
X54040000Y-33445000D03*
X51525000Y-33445000D03*
X46420000Y-33445000D03*
X45175000Y-33445000D03*
X43905000Y-17445000D03*
X54040000Y-17445000D03*
X51525000Y-17445000D03*
X46420000Y-17445000D03*
X45175000Y-17445000D03*
D16*
X6520000Y-66300000D03*
X9720000Y-66300000D03*
X12920000Y-66300000D03*
X48120000Y-53300000D03*
X41720000Y-53300000D03*
X28920000Y-53300000D03*
X38520000Y-53300000D03*
X32120000Y-53300000D03*
X35320000Y-53300000D03*
X44920000Y-53300000D03*
X25720000Y-53300000D03*
X22520000Y-53300000D03*
X38520000Y-66300000D03*
X32120000Y-66300000D03*
X41720000Y-66300000D03*
X28920000Y-66300000D03*
X22520000Y-66300000D03*
X35320000Y-66300000D03*
X25720000Y-66300000D03*
X19320000Y-66300000D03*
X6520000Y-53300000D03*
X9720000Y-53300000D03*
X12920000Y-53300000D03*
X19320000Y-53300000D03*
X54520000Y-53300000D03*
X51320000Y-53300000D03*
X57720000Y-53300000D03*
D17*
X43905000Y-65445000D03*
X54040000Y-65445000D03*
X51525000Y-65445000D03*
X46420000Y-65445000D03*
X45175000Y-65445000D03*
%TO.N,+12V*%
X57875000Y-49445000D03*
X56580000Y-49445000D03*
X55310000Y-49445000D03*
X57875000Y-33445000D03*
X56580000Y-33445000D03*
X55310000Y-33445000D03*
X57875000Y-17445000D03*
X56580000Y-17445000D03*
X55310000Y-17445000D03*
X57875000Y-65445000D03*
X56580000Y-65445000D03*
X55310000Y-65445000D03*
%TO.N,+5V*%
X47715000Y-49420000D03*
X50255000Y-49445000D03*
X48985000Y-49445000D03*
X47715000Y-33420000D03*
X50255000Y-33445000D03*
X48985000Y-33445000D03*
X47715000Y-17420000D03*
X50255000Y-17445000D03*
X48985000Y-17445000D03*
X47715000Y-65420000D03*
X50255000Y-65445000D03*
X48985000Y-65445000D03*
D16*
%TO.N,/sas0/SDAT*%
X56920000Y-8900000D03*
%TO.N,/sas0/SCLK*%
X56120000Y-8900000D03*
%TO.N,/sas0/R3+*%
X53924284Y-8495716D03*
%TO.N,/sas0/R3-*%
X53515716Y-8904284D03*
%TO.N,/sas0/T3-*%
X52324284Y-8904284D03*
%TO.N,/sas0/T3+*%
X51915716Y-8495716D03*
%TO.N,/sas0/R2+*%
X49124284Y-8495716D03*
%TO.N,/sas0/R2-*%
X48715716Y-8904284D03*
%TO.N,/sas0/T2-*%
X47524284Y-8904284D03*
%TO.N,/sas0/T2+*%
X47115716Y-8495716D03*
%TO.N,/sas0/R1+*%
X44324284Y-8495716D03*
%TO.N,/sas0/R1-*%
X43915716Y-8904284D03*
%TO.N,/sas0/T1-*%
X42724284Y-8904284D03*
%TO.N,/sas0/T1+*%
X42315716Y-8495716D03*
%TO.N,/sas0/R0+*%
X31524284Y-8495716D03*
%TO.N,/sas0/R0-*%
X31115716Y-8904284D03*
%TO.N,/sas0/T0-*%
X29924284Y-8904284D03*
%TO.N,/sas0/T0+*%
X29515716Y-8495716D03*
%TO.N,/sas1/SDAT*%
X56920000Y-24900000D03*
%TO.N,/sas1/SCLK*%
X56120000Y-24900000D03*
%TO.N,/sas1/R3+*%
X53924284Y-24495716D03*
%TO.N,/sas1/R3-*%
X53515716Y-24904284D03*
%TO.N,/sas1/T3-*%
X52324284Y-24904284D03*
%TO.N,/sas1/T3+*%
X51915716Y-24495716D03*
%TO.N,/sas1/R2+*%
X49124284Y-24495716D03*
%TO.N,/sas1/R2-*%
X48715716Y-24904284D03*
%TO.N,/sas1/T2-*%
X47524284Y-24904284D03*
%TO.N,/sas1/T2+*%
X47115716Y-24495716D03*
%TO.N,/sas1/R1+*%
X44324284Y-24495716D03*
%TO.N,/sas1/R1-*%
X43915716Y-24904284D03*
%TO.N,/sas1/T1-*%
X42724284Y-24904284D03*
%TO.N,/sas1/T1+*%
X42315716Y-24495716D03*
%TO.N,/sas1/R0+*%
X31524284Y-24495716D03*
%TO.N,/sas1/R0-*%
X31115716Y-24904284D03*
%TO.N,/sas1/T0-*%
X29924284Y-24904284D03*
%TO.N,/sas1/T0+*%
X29515716Y-24495716D03*
%TO.N,/sas2/SDAT*%
X56920000Y-40900000D03*
%TO.N,/sas2/SCLK*%
X56120000Y-40900000D03*
%TO.N,/sas2/R3+*%
X53924284Y-40495716D03*
%TO.N,/sas2/R3-*%
X53515716Y-40904284D03*
%TO.N,/sas2/T3-*%
X52324284Y-40904284D03*
%TO.N,/sas2/T3+*%
X51915716Y-40495716D03*
%TO.N,/sas2/R2+*%
X49124284Y-40495716D03*
%TO.N,/sas2/R2-*%
X48715716Y-40904284D03*
%TO.N,/sas2/T2-*%
X47524284Y-40904284D03*
%TO.N,/sas2/T2+*%
X47115716Y-40495716D03*
%TO.N,/sas2/R1+*%
X44324284Y-40495716D03*
%TO.N,/sas2/R1-*%
X43915716Y-40904284D03*
%TO.N,/sas2/T1-*%
X42724284Y-40904284D03*
%TO.N,/sas2/T1+*%
X42315716Y-40495716D03*
%TO.N,/sas2/R0+*%
X31524284Y-40495716D03*
%TO.N,/sas2/R0-*%
X31115716Y-40904284D03*
%TO.N,/sas2/T0-*%
X29924284Y-40904284D03*
%TO.N,/sas2/T0+*%
X29515716Y-40495716D03*
%TO.N,/sas3/SDAT*%
X56920000Y-56900000D03*
%TO.N,/sas3/SCLK*%
X56120000Y-56900000D03*
%TO.N,/sas3/R3+*%
X53924284Y-56495716D03*
%TO.N,/sas3/R3-*%
X53515716Y-56904284D03*
%TO.N,/sas3/T3-*%
X52324284Y-56904284D03*
%TO.N,/sas3/T3+*%
X51915716Y-56495716D03*
%TO.N,/sas3/R2+*%
X49124284Y-56495716D03*
%TO.N,/sas3/R2-*%
X48715716Y-56904284D03*
%TO.N,/sas3/T2-*%
X47524284Y-56904284D03*
%TO.N,/sas3/T2+*%
X47115716Y-56495716D03*
%TO.N,/sas3/R1+*%
X44324284Y-56495716D03*
%TO.N,/sas3/R1-*%
X43915716Y-56904284D03*
%TO.N,/sas3/T1-*%
X42724284Y-56904284D03*
%TO.N,/sas3/T1+*%
X42315716Y-56495716D03*
%TO.N,/sas3/R0+*%
X31524284Y-56495716D03*
%TO.N,/sas3/R0-*%
X31115716Y-56904284D03*
%TO.N,/sas3/T0-*%
X29924284Y-56904284D03*
%TO.N,/sas3/T0+*%
X29515716Y-56495716D03*
%TD*%
D18*
%TO.N,/sas0/SDAT*%
X55120000Y-7100000D02*
X7170000Y-7100000D01*
X56920000Y-8900000D02*
X55120000Y-7100000D01*
X7170000Y-7100000D02*
X4820000Y-9450000D01*
%TO.N,/sas0/R3+*%
X15056872Y-13747600D02*
X13383128Y-13747600D01*
X13383128Y-13747600D02*
X12783128Y-13147600D01*
X53924284Y-8495716D02*
X53731243Y-8495716D01*
X11056872Y-13747600D02*
X10583128Y-13747600D01*
X39656872Y-14547600D02*
X17866429Y-14547600D01*
X10583128Y-13747600D02*
X10035528Y-13200000D01*
X10035528Y-13200000D02*
X9065200Y-13200000D01*
X53731243Y-8495716D02*
X52783127Y-7547600D01*
X15656872Y-13147600D02*
X15056872Y-13747600D01*
X12783128Y-13147600D02*
X11656872Y-13147600D01*
X52783127Y-7547600D02*
X46656872Y-7547600D01*
X16466429Y-13147600D02*
X15656872Y-13147600D01*
X46656872Y-7547600D02*
X39656872Y-14547600D01*
X11656872Y-13147600D02*
X11056872Y-13747600D01*
X17866429Y-14547600D02*
X16466429Y-13147600D01*
X9065200Y-13200000D02*
X7220000Y-13200000D01*
%TO.N,/sas0/R3-*%
X20915173Y-14979400D02*
X21169173Y-14979400D01*
X39783128Y-14852400D02*
X46783128Y-7852400D01*
X20788173Y-14852400D02*
X20915173Y-14979400D01*
X20534173Y-14852400D02*
X20788173Y-14852400D01*
X53515716Y-8711243D02*
X53515716Y-8904284D01*
X46783128Y-7852400D02*
X52656873Y-7852400D01*
X28154173Y-14852400D02*
X28408173Y-14852400D01*
X28027173Y-14979400D02*
X28154173Y-14852400D01*
X20153173Y-14979400D02*
X20407173Y-14979400D01*
X9909272Y-13504800D02*
X10456872Y-14052400D01*
X21677173Y-14979400D02*
X21931173Y-14979400D01*
X21169173Y-14979400D02*
X21296173Y-14852400D01*
X20407173Y-14979400D02*
X20534173Y-14852400D01*
X27773173Y-14979400D02*
X28027173Y-14979400D01*
X18883173Y-14979400D02*
X19010173Y-14852400D01*
X23836173Y-14852400D02*
X23963173Y-14979400D01*
X30313173Y-14979400D02*
X30440173Y-14852400D01*
X18121173Y-14979400D02*
X18248173Y-14852400D01*
X52656873Y-7852400D02*
X53515716Y-8711243D01*
X18502173Y-14852400D02*
X18629173Y-14979400D01*
X24979173Y-14979400D02*
X25106173Y-14852400D01*
X22439173Y-14979400D02*
X22693173Y-14979400D01*
X18629173Y-14979400D02*
X18883173Y-14979400D01*
X22693173Y-14979400D02*
X22820173Y-14852400D01*
X27646173Y-14852400D02*
X27773173Y-14979400D01*
X11783128Y-13452400D02*
X12656872Y-13452400D01*
X27265173Y-14979400D02*
X27392173Y-14852400D01*
X22058173Y-14852400D02*
X22312173Y-14852400D01*
X20026173Y-14852400D02*
X20153173Y-14979400D01*
X27011173Y-14979400D02*
X27265173Y-14979400D01*
X15183128Y-14052400D02*
X15783128Y-13452400D01*
X26630173Y-14852400D02*
X26884173Y-14852400D01*
X12656872Y-13452400D02*
X13256872Y-14052400D01*
X19645173Y-14979400D02*
X19772173Y-14852400D01*
X28916173Y-14852400D02*
X29170173Y-14852400D01*
X10456872Y-14052400D02*
X11183128Y-14052400D01*
X9065200Y-13504800D02*
X9909272Y-13504800D01*
X21296173Y-14852400D02*
X21550173Y-14852400D01*
X19010173Y-14852400D02*
X19264173Y-14852400D01*
X13256872Y-14052400D02*
X15183128Y-14052400D01*
X27392173Y-14852400D02*
X27646173Y-14852400D01*
X21550173Y-14852400D02*
X21677173Y-14979400D01*
X8620000Y-13950000D02*
X9065200Y-13504800D01*
X21931173Y-14979400D02*
X22058173Y-14852400D01*
X11183128Y-14052400D02*
X11783128Y-13452400D01*
X29297173Y-14979400D02*
X29551173Y-14979400D01*
X28408173Y-14852400D02*
X28535173Y-14979400D01*
X15783128Y-13452400D02*
X16340173Y-13452400D01*
X25487173Y-14979400D02*
X25741173Y-14979400D01*
X18248173Y-14852400D02*
X18502173Y-14852400D01*
X23582173Y-14852400D02*
X23836173Y-14852400D01*
X22312173Y-14852400D02*
X22439173Y-14979400D01*
X17867173Y-14979400D02*
X18121173Y-14979400D01*
X16340173Y-13452400D02*
X17867173Y-14979400D01*
X19391173Y-14979400D02*
X19645173Y-14979400D01*
X28789173Y-14979400D02*
X28916173Y-14852400D01*
X22820173Y-14852400D02*
X23074173Y-14852400D01*
X23074173Y-14852400D02*
X23201173Y-14979400D01*
X23201173Y-14979400D02*
X23455173Y-14979400D01*
X23455173Y-14979400D02*
X23582173Y-14852400D01*
X23963173Y-14979400D02*
X24217173Y-14979400D01*
X24344173Y-14852400D02*
X24598173Y-14852400D01*
X24598173Y-14852400D02*
X24725173Y-14979400D01*
X24725173Y-14979400D02*
X24979173Y-14979400D01*
X25106173Y-14852400D02*
X25360173Y-14852400D01*
X25741173Y-14979400D02*
X25868173Y-14852400D01*
X25868173Y-14852400D02*
X26122173Y-14852400D01*
X26122173Y-14852400D02*
X26249173Y-14979400D01*
X26249173Y-14979400D02*
X26503173Y-14979400D01*
X26503173Y-14979400D02*
X26630173Y-14852400D01*
X26884173Y-14852400D02*
X27011173Y-14979400D01*
X24217173Y-14979400D02*
X24344173Y-14852400D01*
X29678173Y-14852400D02*
X29932173Y-14852400D01*
X19264173Y-14852400D02*
X19391173Y-14979400D01*
X28535173Y-14979400D02*
X28789173Y-14979400D01*
X19772173Y-14852400D02*
X20026173Y-14852400D01*
X29170173Y-14852400D02*
X29297173Y-14979400D01*
X25360173Y-14852400D02*
X25487173Y-14979400D01*
X29551173Y-14979400D02*
X29678173Y-14852400D01*
X29932173Y-14852400D02*
X30059173Y-14979400D01*
X30059173Y-14979400D02*
X30313173Y-14979400D01*
X30440173Y-14852400D02*
X39783128Y-14852400D01*
%TO.N,/sas0/R2+*%
X4604474Y-14384474D02*
X3420000Y-13200000D01*
X44783128Y-16252400D02*
X6472400Y-16252400D01*
X49124284Y-8495716D02*
X49124284Y-11911244D01*
X49124284Y-11911244D02*
X44783128Y-16252400D01*
X6472400Y-16252400D02*
X4604474Y-14384474D01*
%TO.N,/sas0/R2-*%
X25516000Y-15947600D02*
X25770000Y-15947600D01*
X26659000Y-15820600D02*
X26913000Y-15820600D01*
X25389000Y-15820600D02*
X25516000Y-15947600D01*
X48819484Y-11784988D02*
X48819484Y-9008052D01*
X24627000Y-15820600D02*
X24754000Y-15947600D01*
X48819484Y-9008052D02*
X48715716Y-8904284D01*
X25135000Y-15820600D02*
X25389000Y-15820600D01*
X24373000Y-15820600D02*
X24627000Y-15820600D01*
X24246000Y-15947600D02*
X24373000Y-15820600D01*
X23992000Y-15947600D02*
X24246000Y-15947600D01*
X23865000Y-15820600D02*
X23992000Y-15947600D01*
X23230000Y-15947600D02*
X23484000Y-15947600D01*
X23103000Y-15820600D02*
X23230000Y-15947600D01*
X22849000Y-15820600D02*
X23103000Y-15820600D01*
X22722000Y-15947600D02*
X22849000Y-15820600D01*
X22087000Y-15820600D02*
X22341000Y-15820600D01*
X21960000Y-15947600D02*
X22087000Y-15820600D01*
X21579000Y-15820600D02*
X21706000Y-15947600D01*
X20944000Y-15947600D02*
X21198000Y-15947600D01*
X12816000Y-15947600D02*
X12943000Y-15820600D01*
X26913000Y-15820600D02*
X27040000Y-15947600D01*
X12435000Y-15820600D02*
X12562000Y-15947600D01*
X19801000Y-15820600D02*
X20055000Y-15820600D01*
X12181000Y-15820600D02*
X12435000Y-15820600D01*
X26532000Y-15947600D02*
X26659000Y-15820600D01*
X12054000Y-15947600D02*
X12181000Y-15820600D01*
X10530000Y-15947600D02*
X10657000Y-15820600D01*
X8752000Y-15947600D02*
X9006000Y-15947600D01*
X8371000Y-15820600D02*
X8625000Y-15820600D01*
X6720000Y-15947600D02*
X6847000Y-15820600D01*
X8244000Y-15947600D02*
X8371000Y-15820600D01*
X9387000Y-15820600D02*
X9514000Y-15947600D01*
X11038000Y-15947600D02*
X11292000Y-15947600D01*
X18531000Y-15820600D02*
X18658000Y-15947600D01*
X10276000Y-15947600D02*
X10530000Y-15947600D01*
X23611000Y-15820600D02*
X23865000Y-15820600D01*
X10149000Y-15820600D02*
X10276000Y-15947600D01*
X27040000Y-15947600D02*
X44656872Y-15947600D01*
X12562000Y-15947600D02*
X12816000Y-15947600D01*
X9895000Y-15820600D02*
X10149000Y-15820600D01*
X23484000Y-15947600D02*
X23611000Y-15820600D01*
X20436000Y-15947600D02*
X20563000Y-15820600D01*
X26278000Y-15947600D02*
X26532000Y-15947600D01*
X11800000Y-15947600D02*
X12054000Y-15947600D01*
X9133000Y-15820600D02*
X9387000Y-15820600D01*
X44656872Y-15947600D02*
X48819484Y-11784988D01*
X16245000Y-15820600D02*
X16372000Y-15947600D01*
X10657000Y-15820600D02*
X10911000Y-15820600D01*
X4820000Y-14168947D02*
X6598653Y-15947600D01*
X18150000Y-15947600D02*
X18277000Y-15820600D01*
X14848000Y-15947600D02*
X15102000Y-15947600D01*
X22341000Y-15820600D02*
X22468000Y-15947600D01*
X6598653Y-15947600D02*
X6720000Y-15947600D01*
X10911000Y-15820600D02*
X11038000Y-15947600D01*
X18277000Y-15820600D02*
X18531000Y-15820600D01*
X9768000Y-15947600D02*
X9895000Y-15820600D01*
X6847000Y-15820600D02*
X7101000Y-15820600D01*
X13197000Y-15820600D02*
X13324000Y-15947600D01*
X7228000Y-15947600D02*
X7482000Y-15947600D01*
X15229000Y-15820600D02*
X15483000Y-15820600D01*
X4820000Y-13950000D02*
X4820000Y-14168947D01*
X13578000Y-15947600D02*
X13705000Y-15820600D01*
X25897000Y-15820600D02*
X26151000Y-15820600D01*
X11419000Y-15820600D02*
X11673000Y-15820600D01*
X21325000Y-15820600D02*
X21579000Y-15820600D01*
X18912000Y-15947600D02*
X19039000Y-15820600D01*
X7990000Y-15947600D02*
X8244000Y-15947600D01*
X25770000Y-15947600D02*
X25897000Y-15820600D01*
X11292000Y-15947600D02*
X11419000Y-15820600D01*
X21198000Y-15947600D02*
X21325000Y-15820600D01*
X18658000Y-15947600D02*
X18912000Y-15947600D01*
X21706000Y-15947600D02*
X21960000Y-15947600D01*
X8625000Y-15820600D02*
X8752000Y-15947600D01*
X26151000Y-15820600D02*
X26278000Y-15947600D01*
X11673000Y-15820600D02*
X11800000Y-15947600D01*
X9006000Y-15947600D02*
X9133000Y-15820600D01*
X12943000Y-15820600D02*
X13197000Y-15820600D01*
X13324000Y-15947600D02*
X13578000Y-15947600D01*
X25008000Y-15947600D02*
X25135000Y-15820600D01*
X20817000Y-15820600D02*
X20944000Y-15947600D01*
X13705000Y-15820600D02*
X13959000Y-15820600D01*
X7863000Y-15820600D02*
X7990000Y-15947600D01*
X13959000Y-15820600D02*
X14086000Y-15947600D01*
X14086000Y-15947600D02*
X14340000Y-15947600D01*
X14340000Y-15947600D02*
X14467000Y-15820600D01*
X14467000Y-15820600D02*
X14721000Y-15820600D01*
X14721000Y-15820600D02*
X14848000Y-15947600D01*
X9514000Y-15947600D02*
X9768000Y-15947600D01*
X7482000Y-15947600D02*
X7609000Y-15820600D01*
X15102000Y-15947600D02*
X15229000Y-15820600D01*
X7609000Y-15820600D02*
X7863000Y-15820600D01*
X15483000Y-15820600D02*
X15610000Y-15947600D01*
X15610000Y-15947600D02*
X15864000Y-15947600D01*
X15864000Y-15947600D02*
X15991000Y-15820600D01*
X20182000Y-15947600D02*
X20436000Y-15947600D01*
X15991000Y-15820600D02*
X16245000Y-15820600D01*
X16372000Y-15947600D02*
X16626000Y-15947600D01*
X16626000Y-15947600D02*
X16753000Y-15820600D01*
X16753000Y-15820600D02*
X17007000Y-15820600D01*
X17007000Y-15820600D02*
X17134000Y-15947600D01*
X17134000Y-15947600D02*
X17388000Y-15947600D01*
X17388000Y-15947600D02*
X17515000Y-15820600D01*
X17515000Y-15820600D02*
X17769000Y-15820600D01*
X7101000Y-15820600D02*
X7228000Y-15947600D01*
X17769000Y-15820600D02*
X17896000Y-15947600D01*
X17896000Y-15947600D02*
X18150000Y-15947600D01*
X19039000Y-15820600D02*
X19293000Y-15820600D01*
X19293000Y-15820600D02*
X19420000Y-15947600D01*
X19420000Y-15947600D02*
X19674000Y-15947600D01*
X19674000Y-15947600D02*
X19801000Y-15820600D01*
X22468000Y-15947600D02*
X22722000Y-15947600D01*
X20055000Y-15820600D02*
X20182000Y-15947600D01*
X24754000Y-15947600D02*
X25008000Y-15947600D01*
X20563000Y-15820600D02*
X20817000Y-15820600D01*
%TO.N,/sas0/R1+*%
X41856872Y-7747600D02*
X39456872Y-10147600D01*
X12983128Y-10947600D02*
X11656872Y-10947600D01*
X15056872Y-11347600D02*
X13383128Y-11347600D01*
X44324284Y-8495716D02*
X44131243Y-8495716D01*
X10383128Y-11347600D02*
X9985528Y-10950000D01*
X13383128Y-11347600D02*
X12983128Y-10947600D01*
X9985528Y-10950000D02*
X9065200Y-10950000D01*
X44131243Y-8495716D02*
X43383127Y-7747600D01*
X43383127Y-7747600D02*
X41856872Y-7747600D01*
X11656872Y-10947600D02*
X11256872Y-11347600D01*
X11256872Y-11347600D02*
X10383128Y-11347600D01*
X16256872Y-10147600D02*
X15056872Y-11347600D01*
X39456872Y-10147600D02*
X16256872Y-10147600D01*
X9065200Y-10950000D02*
X7220000Y-10950000D01*
%TO.N,/sas0/R1-*%
X28477000Y-10579400D02*
X28731000Y-10579400D01*
X43915716Y-8711243D02*
X43915716Y-8904284D01*
X27334000Y-10452400D02*
X27588000Y-10452400D01*
X26953000Y-10579400D02*
X27207000Y-10579400D01*
X27207000Y-10579400D02*
X27334000Y-10452400D01*
X21111000Y-10579400D02*
X21238000Y-10452400D01*
X19587000Y-10579400D02*
X19714000Y-10452400D01*
X19333000Y-10579400D02*
X19587000Y-10579400D01*
X26826000Y-10452400D02*
X26953000Y-10579400D01*
X11783128Y-11252400D02*
X12856872Y-11252400D01*
X29112000Y-10452400D02*
X29239000Y-10579400D01*
X29620000Y-10452400D02*
X39583128Y-10452400D01*
X16383128Y-10452400D02*
X16920000Y-10452400D01*
X21619000Y-10579400D02*
X21873000Y-10579400D01*
X13256872Y-11652400D02*
X15183128Y-11652400D01*
X17047000Y-10579400D02*
X17301000Y-10579400D01*
X20857000Y-10579400D02*
X21111000Y-10579400D01*
X9065200Y-11254800D02*
X9859272Y-11254800D01*
X18063000Y-10579400D02*
X18190000Y-10452400D01*
X18571000Y-10579400D02*
X18825000Y-10579400D01*
X25683000Y-10579400D02*
X25810000Y-10452400D01*
X17809000Y-10579400D02*
X18063000Y-10579400D01*
X22000000Y-10452400D02*
X22254000Y-10452400D01*
X29493000Y-10579400D02*
X29620000Y-10452400D01*
X22254000Y-10452400D02*
X22381000Y-10579400D01*
X22381000Y-10579400D02*
X22635000Y-10579400D01*
X29239000Y-10579400D02*
X29493000Y-10579400D01*
X41983128Y-8052400D02*
X43256873Y-8052400D01*
X21492000Y-10452400D02*
X21619000Y-10579400D01*
X10256872Y-11652400D02*
X11383128Y-11652400D01*
X25302000Y-10452400D02*
X25429000Y-10579400D01*
X9859272Y-11254800D02*
X10256872Y-11652400D01*
X16920000Y-10452400D02*
X17047000Y-10579400D01*
X27715000Y-10579400D02*
X27969000Y-10579400D01*
X21238000Y-10452400D02*
X21492000Y-10452400D01*
X8620000Y-11700000D02*
X9065200Y-11254800D01*
X20476000Y-10452400D02*
X20730000Y-10452400D01*
X19714000Y-10452400D02*
X19968000Y-10452400D01*
X18444000Y-10452400D02*
X18571000Y-10579400D01*
X25429000Y-10579400D02*
X25683000Y-10579400D01*
X17682000Y-10452400D02*
X17809000Y-10579400D01*
X11383128Y-11652400D02*
X11783128Y-11252400D01*
X12856872Y-11252400D02*
X13256872Y-11652400D01*
X19206000Y-10452400D02*
X19333000Y-10579400D01*
X23905000Y-10579400D02*
X24159000Y-10579400D01*
X15183128Y-11652400D02*
X16383128Y-10452400D01*
X18825000Y-10579400D02*
X18952000Y-10452400D01*
X20095000Y-10579400D02*
X20349000Y-10579400D01*
X27588000Y-10452400D02*
X27715000Y-10579400D01*
X23778000Y-10452400D02*
X23905000Y-10579400D01*
X17301000Y-10579400D02*
X17428000Y-10452400D01*
X21873000Y-10579400D02*
X22000000Y-10452400D01*
X18952000Y-10452400D02*
X19206000Y-10452400D01*
X20349000Y-10579400D02*
X20476000Y-10452400D01*
X17428000Y-10452400D02*
X17682000Y-10452400D01*
X28731000Y-10579400D02*
X28858000Y-10452400D01*
X20730000Y-10452400D02*
X20857000Y-10579400D01*
X19968000Y-10452400D02*
X20095000Y-10579400D01*
X22635000Y-10579400D02*
X22762000Y-10452400D01*
X22762000Y-10452400D02*
X23016000Y-10452400D01*
X39583128Y-10452400D02*
X41983128Y-8052400D01*
X23016000Y-10452400D02*
X23143000Y-10579400D01*
X23143000Y-10579400D02*
X23397000Y-10579400D01*
X23397000Y-10579400D02*
X23524000Y-10452400D01*
X23524000Y-10452400D02*
X23778000Y-10452400D01*
X24159000Y-10579400D02*
X24286000Y-10452400D01*
X24286000Y-10452400D02*
X24540000Y-10452400D01*
X24540000Y-10452400D02*
X24667000Y-10579400D01*
X24921000Y-10579400D02*
X25048000Y-10452400D01*
X24667000Y-10579400D02*
X24921000Y-10579400D01*
X28858000Y-10452400D02*
X29112000Y-10452400D01*
X43256873Y-8052400D02*
X43915716Y-8711243D01*
X25048000Y-10452400D02*
X25302000Y-10452400D01*
X25810000Y-10452400D02*
X26064000Y-10452400D01*
X26064000Y-10452400D02*
X26191000Y-10579400D01*
X26191000Y-10579400D02*
X26445000Y-10579400D01*
X26445000Y-10579400D02*
X26572000Y-10452400D01*
X26572000Y-10452400D02*
X26826000Y-10452400D01*
X27969000Y-10579400D02*
X28096000Y-10452400D01*
X18190000Y-10452400D02*
X18444000Y-10452400D01*
X28096000Y-10452400D02*
X28350000Y-10452400D01*
X28350000Y-10452400D02*
X28477000Y-10579400D01*
%TO.N,/sas0/R0+*%
X31524284Y-8495716D02*
X31331243Y-8495716D01*
X30583127Y-7747600D02*
X7056872Y-7747600D01*
X31331243Y-8495716D02*
X30583127Y-7747600D01*
X4604473Y-10950000D02*
X3420000Y-10950000D01*
X7056872Y-7747600D02*
X5767600Y-9036872D01*
X5767600Y-9786873D02*
X4604473Y-10950000D01*
X5767600Y-9036872D02*
X5767600Y-9786873D01*
%TO.N,/sas0/R0-*%
X17372000Y-8052400D02*
X17626000Y-8052400D01*
X18007000Y-8179400D02*
X18134000Y-8052400D01*
X17753000Y-8179400D02*
X18007000Y-8179400D01*
X18134000Y-8052400D02*
X30456873Y-8052400D01*
X17626000Y-8052400D02*
X17753000Y-8179400D01*
X31115716Y-8711243D02*
X31115716Y-8904284D01*
X16991000Y-8179400D02*
X17245000Y-8179400D01*
X16864000Y-8052400D02*
X16991000Y-8179400D01*
X16610000Y-8052400D02*
X16864000Y-8052400D01*
X16229000Y-8179400D02*
X16483000Y-8179400D01*
X16102000Y-8052400D02*
X16229000Y-8179400D01*
X15721000Y-8179400D02*
X15848000Y-8052400D01*
X15467000Y-8179400D02*
X15721000Y-8179400D01*
X14959000Y-8179400D02*
X15086000Y-8052400D01*
X14705000Y-8179400D02*
X14959000Y-8179400D01*
X14578000Y-8052400D02*
X14705000Y-8179400D01*
X14324000Y-8052400D02*
X14578000Y-8052400D01*
X14197000Y-8179400D02*
X14324000Y-8052400D01*
X13943000Y-8179400D02*
X14197000Y-8179400D01*
X13816000Y-8052400D02*
X13943000Y-8179400D01*
X13562000Y-8052400D02*
X13816000Y-8052400D01*
X9244000Y-8052400D02*
X9371000Y-8179400D01*
X9625000Y-8179400D02*
X9752000Y-8052400D01*
X10387000Y-8179400D02*
X10514000Y-8052400D01*
X16483000Y-8179400D02*
X16610000Y-8052400D01*
X8990000Y-8052400D02*
X9244000Y-8052400D01*
X12419000Y-8179400D02*
X12673000Y-8179400D01*
X12673000Y-8179400D02*
X12800000Y-8052400D01*
X12800000Y-8052400D02*
X13054000Y-8052400D01*
X10006000Y-8052400D02*
X10133000Y-8179400D01*
X13181000Y-8179400D02*
X13435000Y-8179400D01*
X9371000Y-8179400D02*
X9625000Y-8179400D01*
X10133000Y-8179400D02*
X10387000Y-8179400D01*
X8609000Y-8179400D02*
X8863000Y-8179400D01*
X8482000Y-8052400D02*
X8609000Y-8179400D01*
X9752000Y-8052400D02*
X10006000Y-8052400D01*
X15086000Y-8052400D02*
X15340000Y-8052400D01*
X8863000Y-8179400D02*
X8990000Y-8052400D01*
X13054000Y-8052400D02*
X13181000Y-8179400D01*
X11911000Y-8179400D02*
X12038000Y-8052400D01*
X10514000Y-8052400D02*
X10768000Y-8052400D01*
X6072400Y-9163128D02*
X7183128Y-8052400D01*
X30456873Y-8052400D02*
X31115716Y-8711243D01*
X15848000Y-8052400D02*
X16102000Y-8052400D01*
X7183128Y-8052400D02*
X7720000Y-8052400D01*
X10768000Y-8052400D02*
X10895000Y-8179400D01*
X8228000Y-8052400D02*
X8482000Y-8052400D01*
X11149000Y-8179400D02*
X11276000Y-8052400D01*
X17245000Y-8179400D02*
X17372000Y-8052400D01*
X6072400Y-9913127D02*
X6072400Y-9163128D01*
X15340000Y-8052400D02*
X15467000Y-8179400D01*
X7720000Y-8052400D02*
X7847000Y-8179400D01*
X4820000Y-11700000D02*
X4820000Y-11165527D01*
X13435000Y-8179400D02*
X13562000Y-8052400D01*
X8101000Y-8179400D02*
X8228000Y-8052400D01*
X10895000Y-8179400D02*
X11149000Y-8179400D01*
X11276000Y-8052400D02*
X11530000Y-8052400D01*
X11530000Y-8052400D02*
X11657000Y-8179400D01*
X11657000Y-8179400D02*
X11911000Y-8179400D01*
X12038000Y-8052400D02*
X12292000Y-8052400D01*
X7847000Y-8179400D02*
X8101000Y-8179400D01*
X12292000Y-8052400D02*
X12419000Y-8179400D01*
X4820000Y-11165527D02*
X6072400Y-9913127D01*
%TO.N,/sas1/SDAT*%
X55120000Y-23100000D02*
X7170000Y-23100000D01*
X56920000Y-24900000D02*
X55120000Y-23100000D01*
X7170000Y-23100000D02*
X4820000Y-25450000D01*
%TO.N,/sas1/R3+*%
X15056872Y-29747600D02*
X13383128Y-29747600D01*
X13383128Y-29747600D02*
X12783128Y-29147600D01*
X53924284Y-24495716D02*
X53731243Y-24495716D01*
X11056872Y-29747600D02*
X10583128Y-29747600D01*
X39656872Y-30547600D02*
X17866429Y-30547600D01*
X10583128Y-29747600D02*
X10035528Y-29200000D01*
X10035528Y-29200000D02*
X9065200Y-29200000D01*
X53731243Y-24495716D02*
X52783127Y-23547600D01*
X15656872Y-29147600D02*
X15056872Y-29747600D01*
X12783128Y-29147600D02*
X11656872Y-29147600D01*
X52783127Y-23547600D02*
X46656872Y-23547600D01*
X16466429Y-29147600D02*
X15656872Y-29147600D01*
X46656872Y-23547600D02*
X39656872Y-30547600D01*
X11656872Y-29147600D02*
X11056872Y-29747600D01*
X17866429Y-30547600D02*
X16466429Y-29147600D01*
X9065200Y-29200000D02*
X7220000Y-29200000D01*
%TO.N,/sas1/R3-*%
X20915173Y-30979400D02*
X21169173Y-30979400D01*
X39783128Y-30852400D02*
X46783128Y-23852400D01*
X20788173Y-30852400D02*
X20915173Y-30979400D01*
X20534173Y-30852400D02*
X20788173Y-30852400D01*
X53515716Y-24711243D02*
X53515716Y-24904284D01*
X46783128Y-23852400D02*
X52656873Y-23852400D01*
X28154173Y-30852400D02*
X28408173Y-30852400D01*
X28027173Y-30979400D02*
X28154173Y-30852400D01*
X20153173Y-30979400D02*
X20407173Y-30979400D01*
X9909272Y-29504800D02*
X10456872Y-30052400D01*
X21677173Y-30979400D02*
X21931173Y-30979400D01*
X21169173Y-30979400D02*
X21296173Y-30852400D01*
X20407173Y-30979400D02*
X20534173Y-30852400D01*
X27773173Y-30979400D02*
X28027173Y-30979400D01*
X18883173Y-30979400D02*
X19010173Y-30852400D01*
X23836173Y-30852400D02*
X23963173Y-30979400D01*
X30313173Y-30979400D02*
X30440173Y-30852400D01*
X18121173Y-30979400D02*
X18248173Y-30852400D01*
X52656873Y-23852400D02*
X53515716Y-24711243D01*
X18502173Y-30852400D02*
X18629173Y-30979400D01*
X24979173Y-30979400D02*
X25106173Y-30852400D01*
X22439173Y-30979400D02*
X22693173Y-30979400D01*
X18629173Y-30979400D02*
X18883173Y-30979400D01*
X22693173Y-30979400D02*
X22820173Y-30852400D01*
X27646173Y-30852400D02*
X27773173Y-30979400D01*
X11783128Y-29452400D02*
X12656872Y-29452400D01*
X27265173Y-30979400D02*
X27392173Y-30852400D01*
X22058173Y-30852400D02*
X22312173Y-30852400D01*
X20026173Y-30852400D02*
X20153173Y-30979400D01*
X27011173Y-30979400D02*
X27265173Y-30979400D01*
X15183128Y-30052400D02*
X15783128Y-29452400D01*
X26630173Y-30852400D02*
X26884173Y-30852400D01*
X12656872Y-29452400D02*
X13256872Y-30052400D01*
X19645173Y-30979400D02*
X19772173Y-30852400D01*
X28916173Y-30852400D02*
X29170173Y-30852400D01*
X10456872Y-30052400D02*
X11183128Y-30052400D01*
X9065200Y-29504800D02*
X9909272Y-29504800D01*
X21296173Y-30852400D02*
X21550173Y-30852400D01*
X19010173Y-30852400D02*
X19264173Y-30852400D01*
X13256872Y-30052400D02*
X15183128Y-30052400D01*
X27392173Y-30852400D02*
X27646173Y-30852400D01*
X21550173Y-30852400D02*
X21677173Y-30979400D01*
X8620000Y-29950000D02*
X9065200Y-29504800D01*
X21931173Y-30979400D02*
X22058173Y-30852400D01*
X11183128Y-30052400D02*
X11783128Y-29452400D01*
X29297173Y-30979400D02*
X29551173Y-30979400D01*
X28408173Y-30852400D02*
X28535173Y-30979400D01*
X15783128Y-29452400D02*
X16340173Y-29452400D01*
X25487173Y-30979400D02*
X25741173Y-30979400D01*
X18248173Y-30852400D02*
X18502173Y-30852400D01*
X23582173Y-30852400D02*
X23836173Y-30852400D01*
X22312173Y-30852400D02*
X22439173Y-30979400D01*
X17867173Y-30979400D02*
X18121173Y-30979400D01*
X16340173Y-29452400D02*
X17867173Y-30979400D01*
X19391173Y-30979400D02*
X19645173Y-30979400D01*
X28789173Y-30979400D02*
X28916173Y-30852400D01*
X22820173Y-30852400D02*
X23074173Y-30852400D01*
X23074173Y-30852400D02*
X23201173Y-30979400D01*
X23201173Y-30979400D02*
X23455173Y-30979400D01*
X23455173Y-30979400D02*
X23582173Y-30852400D01*
X23963173Y-30979400D02*
X24217173Y-30979400D01*
X24344173Y-30852400D02*
X24598173Y-30852400D01*
X24598173Y-30852400D02*
X24725173Y-30979400D01*
X24725173Y-30979400D02*
X24979173Y-30979400D01*
X25106173Y-30852400D02*
X25360173Y-30852400D01*
X25741173Y-30979400D02*
X25868173Y-30852400D01*
X25868173Y-30852400D02*
X26122173Y-30852400D01*
X26122173Y-30852400D02*
X26249173Y-30979400D01*
X26249173Y-30979400D02*
X26503173Y-30979400D01*
X26503173Y-30979400D02*
X26630173Y-30852400D01*
X26884173Y-30852400D02*
X27011173Y-30979400D01*
X24217173Y-30979400D02*
X24344173Y-30852400D01*
X29678173Y-30852400D02*
X29932173Y-30852400D01*
X19264173Y-30852400D02*
X19391173Y-30979400D01*
X28535173Y-30979400D02*
X28789173Y-30979400D01*
X19772173Y-30852400D02*
X20026173Y-30852400D01*
X29170173Y-30852400D02*
X29297173Y-30979400D01*
X25360173Y-30852400D02*
X25487173Y-30979400D01*
X29551173Y-30979400D02*
X29678173Y-30852400D01*
X29932173Y-30852400D02*
X30059173Y-30979400D01*
X30059173Y-30979400D02*
X30313173Y-30979400D01*
X30440173Y-30852400D02*
X39783128Y-30852400D01*
%TO.N,/sas1/R2+*%
X4604474Y-30384474D02*
X3420000Y-29200000D01*
X44783128Y-32252400D02*
X6472400Y-32252400D01*
X49124284Y-24495716D02*
X49124284Y-27911244D01*
X49124284Y-27911244D02*
X44783128Y-32252400D01*
X6472400Y-32252400D02*
X4604474Y-30384474D01*
%TO.N,/sas1/R2-*%
X25516000Y-31947600D02*
X25770000Y-31947600D01*
X26659000Y-31820600D02*
X26913000Y-31820600D01*
X25389000Y-31820600D02*
X25516000Y-31947600D01*
X48819484Y-27784988D02*
X48819484Y-25008052D01*
X24627000Y-31820600D02*
X24754000Y-31947600D01*
X48819484Y-25008052D02*
X48715716Y-24904284D01*
X25135000Y-31820600D02*
X25389000Y-31820600D01*
X24373000Y-31820600D02*
X24627000Y-31820600D01*
X24246000Y-31947600D02*
X24373000Y-31820600D01*
X23992000Y-31947600D02*
X24246000Y-31947600D01*
X23865000Y-31820600D02*
X23992000Y-31947600D01*
X23230000Y-31947600D02*
X23484000Y-31947600D01*
X23103000Y-31820600D02*
X23230000Y-31947600D01*
X22849000Y-31820600D02*
X23103000Y-31820600D01*
X22722000Y-31947600D02*
X22849000Y-31820600D01*
X22087000Y-31820600D02*
X22341000Y-31820600D01*
X21960000Y-31947600D02*
X22087000Y-31820600D01*
X21579000Y-31820600D02*
X21706000Y-31947600D01*
X20944000Y-31947600D02*
X21198000Y-31947600D01*
X12816000Y-31947600D02*
X12943000Y-31820600D01*
X26913000Y-31820600D02*
X27040000Y-31947600D01*
X12435000Y-31820600D02*
X12562000Y-31947600D01*
X19801000Y-31820600D02*
X20055000Y-31820600D01*
X12181000Y-31820600D02*
X12435000Y-31820600D01*
X26532000Y-31947600D02*
X26659000Y-31820600D01*
X12054000Y-31947600D02*
X12181000Y-31820600D01*
X10530000Y-31947600D02*
X10657000Y-31820600D01*
X8752000Y-31947600D02*
X9006000Y-31947600D01*
X8371000Y-31820600D02*
X8625000Y-31820600D01*
X6720000Y-31947600D02*
X6847000Y-31820600D01*
X8244000Y-31947600D02*
X8371000Y-31820600D01*
X9387000Y-31820600D02*
X9514000Y-31947600D01*
X11038000Y-31947600D02*
X11292000Y-31947600D01*
X18531000Y-31820600D02*
X18658000Y-31947600D01*
X10276000Y-31947600D02*
X10530000Y-31947600D01*
X23611000Y-31820600D02*
X23865000Y-31820600D01*
X10149000Y-31820600D02*
X10276000Y-31947600D01*
X27040000Y-31947600D02*
X44656872Y-31947600D01*
X12562000Y-31947600D02*
X12816000Y-31947600D01*
X9895000Y-31820600D02*
X10149000Y-31820600D01*
X23484000Y-31947600D02*
X23611000Y-31820600D01*
X20436000Y-31947600D02*
X20563000Y-31820600D01*
X26278000Y-31947600D02*
X26532000Y-31947600D01*
X11800000Y-31947600D02*
X12054000Y-31947600D01*
X9133000Y-31820600D02*
X9387000Y-31820600D01*
X44656872Y-31947600D02*
X48819484Y-27784988D01*
X16245000Y-31820600D02*
X16372000Y-31947600D01*
X10657000Y-31820600D02*
X10911000Y-31820600D01*
X4820000Y-30168947D02*
X6598653Y-31947600D01*
X18150000Y-31947600D02*
X18277000Y-31820600D01*
X14848000Y-31947600D02*
X15102000Y-31947600D01*
X22341000Y-31820600D02*
X22468000Y-31947600D01*
X6598653Y-31947600D02*
X6720000Y-31947600D01*
X10911000Y-31820600D02*
X11038000Y-31947600D01*
X18277000Y-31820600D02*
X18531000Y-31820600D01*
X9768000Y-31947600D02*
X9895000Y-31820600D01*
X6847000Y-31820600D02*
X7101000Y-31820600D01*
X13197000Y-31820600D02*
X13324000Y-31947600D01*
X7228000Y-31947600D02*
X7482000Y-31947600D01*
X15229000Y-31820600D02*
X15483000Y-31820600D01*
X4820000Y-29950000D02*
X4820000Y-30168947D01*
X13578000Y-31947600D02*
X13705000Y-31820600D01*
X25897000Y-31820600D02*
X26151000Y-31820600D01*
X11419000Y-31820600D02*
X11673000Y-31820600D01*
X21325000Y-31820600D02*
X21579000Y-31820600D01*
X18912000Y-31947600D02*
X19039000Y-31820600D01*
X7990000Y-31947600D02*
X8244000Y-31947600D01*
X25770000Y-31947600D02*
X25897000Y-31820600D01*
X11292000Y-31947600D02*
X11419000Y-31820600D01*
X21198000Y-31947600D02*
X21325000Y-31820600D01*
X18658000Y-31947600D02*
X18912000Y-31947600D01*
X21706000Y-31947600D02*
X21960000Y-31947600D01*
X8625000Y-31820600D02*
X8752000Y-31947600D01*
X26151000Y-31820600D02*
X26278000Y-31947600D01*
X11673000Y-31820600D02*
X11800000Y-31947600D01*
X9006000Y-31947600D02*
X9133000Y-31820600D01*
X12943000Y-31820600D02*
X13197000Y-31820600D01*
X13324000Y-31947600D02*
X13578000Y-31947600D01*
X25008000Y-31947600D02*
X25135000Y-31820600D01*
X20817000Y-31820600D02*
X20944000Y-31947600D01*
X13705000Y-31820600D02*
X13959000Y-31820600D01*
X7863000Y-31820600D02*
X7990000Y-31947600D01*
X13959000Y-31820600D02*
X14086000Y-31947600D01*
X14086000Y-31947600D02*
X14340000Y-31947600D01*
X14340000Y-31947600D02*
X14467000Y-31820600D01*
X14467000Y-31820600D02*
X14721000Y-31820600D01*
X14721000Y-31820600D02*
X14848000Y-31947600D01*
X9514000Y-31947600D02*
X9768000Y-31947600D01*
X7482000Y-31947600D02*
X7609000Y-31820600D01*
X15102000Y-31947600D02*
X15229000Y-31820600D01*
X7609000Y-31820600D02*
X7863000Y-31820600D01*
X15483000Y-31820600D02*
X15610000Y-31947600D01*
X15610000Y-31947600D02*
X15864000Y-31947600D01*
X15864000Y-31947600D02*
X15991000Y-31820600D01*
X20182000Y-31947600D02*
X20436000Y-31947600D01*
X15991000Y-31820600D02*
X16245000Y-31820600D01*
X16372000Y-31947600D02*
X16626000Y-31947600D01*
X16626000Y-31947600D02*
X16753000Y-31820600D01*
X16753000Y-31820600D02*
X17007000Y-31820600D01*
X17007000Y-31820600D02*
X17134000Y-31947600D01*
X17134000Y-31947600D02*
X17388000Y-31947600D01*
X17388000Y-31947600D02*
X17515000Y-31820600D01*
X17515000Y-31820600D02*
X17769000Y-31820600D01*
X7101000Y-31820600D02*
X7228000Y-31947600D01*
X17769000Y-31820600D02*
X17896000Y-31947600D01*
X17896000Y-31947600D02*
X18150000Y-31947600D01*
X19039000Y-31820600D02*
X19293000Y-31820600D01*
X19293000Y-31820600D02*
X19420000Y-31947600D01*
X19420000Y-31947600D02*
X19674000Y-31947600D01*
X19674000Y-31947600D02*
X19801000Y-31820600D01*
X22468000Y-31947600D02*
X22722000Y-31947600D01*
X20055000Y-31820600D02*
X20182000Y-31947600D01*
X24754000Y-31947600D02*
X25008000Y-31947600D01*
X20563000Y-31820600D02*
X20817000Y-31820600D01*
%TO.N,/sas1/R1+*%
X41856872Y-23747600D02*
X39456872Y-26147600D01*
X12983128Y-26947600D02*
X11656872Y-26947600D01*
X15056872Y-27347600D02*
X13383128Y-27347600D01*
X44324284Y-24495716D02*
X44131243Y-24495716D01*
X10383128Y-27347600D02*
X9985528Y-26950000D01*
X13383128Y-27347600D02*
X12983128Y-26947600D01*
X9985528Y-26950000D02*
X9065200Y-26950000D01*
X44131243Y-24495716D02*
X43383127Y-23747600D01*
X43383127Y-23747600D02*
X41856872Y-23747600D01*
X11656872Y-26947600D02*
X11256872Y-27347600D01*
X11256872Y-27347600D02*
X10383128Y-27347600D01*
X16256872Y-26147600D02*
X15056872Y-27347600D01*
X39456872Y-26147600D02*
X16256872Y-26147600D01*
X9065200Y-26950000D02*
X7220000Y-26950000D01*
%TO.N,/sas1/R1-*%
X28477000Y-26579400D02*
X28731000Y-26579400D01*
X43915716Y-24711243D02*
X43915716Y-24904284D01*
X27334000Y-26452400D02*
X27588000Y-26452400D01*
X26953000Y-26579400D02*
X27207000Y-26579400D01*
X27207000Y-26579400D02*
X27334000Y-26452400D01*
X21111000Y-26579400D02*
X21238000Y-26452400D01*
X19587000Y-26579400D02*
X19714000Y-26452400D01*
X19333000Y-26579400D02*
X19587000Y-26579400D01*
X26826000Y-26452400D02*
X26953000Y-26579400D01*
X11783128Y-27252400D02*
X12856872Y-27252400D01*
X29112000Y-26452400D02*
X29239000Y-26579400D01*
X29620000Y-26452400D02*
X39583128Y-26452400D01*
X16383128Y-26452400D02*
X16920000Y-26452400D01*
X21619000Y-26579400D02*
X21873000Y-26579400D01*
X13256872Y-27652400D02*
X15183128Y-27652400D01*
X17047000Y-26579400D02*
X17301000Y-26579400D01*
X20857000Y-26579400D02*
X21111000Y-26579400D01*
X9065200Y-27254800D02*
X9859272Y-27254800D01*
X18063000Y-26579400D02*
X18190000Y-26452400D01*
X18571000Y-26579400D02*
X18825000Y-26579400D01*
X25683000Y-26579400D02*
X25810000Y-26452400D01*
X17809000Y-26579400D02*
X18063000Y-26579400D01*
X22000000Y-26452400D02*
X22254000Y-26452400D01*
X29493000Y-26579400D02*
X29620000Y-26452400D01*
X22254000Y-26452400D02*
X22381000Y-26579400D01*
X22381000Y-26579400D02*
X22635000Y-26579400D01*
X29239000Y-26579400D02*
X29493000Y-26579400D01*
X41983128Y-24052400D02*
X43256873Y-24052400D01*
X21492000Y-26452400D02*
X21619000Y-26579400D01*
X10256872Y-27652400D02*
X11383128Y-27652400D01*
X25302000Y-26452400D02*
X25429000Y-26579400D01*
X9859272Y-27254800D02*
X10256872Y-27652400D01*
X16920000Y-26452400D02*
X17047000Y-26579400D01*
X27715000Y-26579400D02*
X27969000Y-26579400D01*
X21238000Y-26452400D02*
X21492000Y-26452400D01*
X8620000Y-27700000D02*
X9065200Y-27254800D01*
X20476000Y-26452400D02*
X20730000Y-26452400D01*
X19714000Y-26452400D02*
X19968000Y-26452400D01*
X18444000Y-26452400D02*
X18571000Y-26579400D01*
X25429000Y-26579400D02*
X25683000Y-26579400D01*
X17682000Y-26452400D02*
X17809000Y-26579400D01*
X11383128Y-27652400D02*
X11783128Y-27252400D01*
X12856872Y-27252400D02*
X13256872Y-27652400D01*
X19206000Y-26452400D02*
X19333000Y-26579400D01*
X23905000Y-26579400D02*
X24159000Y-26579400D01*
X15183128Y-27652400D02*
X16383128Y-26452400D01*
X18825000Y-26579400D02*
X18952000Y-26452400D01*
X20095000Y-26579400D02*
X20349000Y-26579400D01*
X27588000Y-26452400D02*
X27715000Y-26579400D01*
X23778000Y-26452400D02*
X23905000Y-26579400D01*
X17301000Y-26579400D02*
X17428000Y-26452400D01*
X21873000Y-26579400D02*
X22000000Y-26452400D01*
X18952000Y-26452400D02*
X19206000Y-26452400D01*
X20349000Y-26579400D02*
X20476000Y-26452400D01*
X17428000Y-26452400D02*
X17682000Y-26452400D01*
X28731000Y-26579400D02*
X28858000Y-26452400D01*
X20730000Y-26452400D02*
X20857000Y-26579400D01*
X19968000Y-26452400D02*
X20095000Y-26579400D01*
X22635000Y-26579400D02*
X22762000Y-26452400D01*
X22762000Y-26452400D02*
X23016000Y-26452400D01*
X39583128Y-26452400D02*
X41983128Y-24052400D01*
X23016000Y-26452400D02*
X23143000Y-26579400D01*
X23143000Y-26579400D02*
X23397000Y-26579400D01*
X23397000Y-26579400D02*
X23524000Y-26452400D01*
X23524000Y-26452400D02*
X23778000Y-26452400D01*
X24159000Y-26579400D02*
X24286000Y-26452400D01*
X24286000Y-26452400D02*
X24540000Y-26452400D01*
X24540000Y-26452400D02*
X24667000Y-26579400D01*
X24921000Y-26579400D02*
X25048000Y-26452400D01*
X24667000Y-26579400D02*
X24921000Y-26579400D01*
X28858000Y-26452400D02*
X29112000Y-26452400D01*
X43256873Y-24052400D02*
X43915716Y-24711243D01*
X25048000Y-26452400D02*
X25302000Y-26452400D01*
X25810000Y-26452400D02*
X26064000Y-26452400D01*
X26064000Y-26452400D02*
X26191000Y-26579400D01*
X26191000Y-26579400D02*
X26445000Y-26579400D01*
X26445000Y-26579400D02*
X26572000Y-26452400D01*
X26572000Y-26452400D02*
X26826000Y-26452400D01*
X27969000Y-26579400D02*
X28096000Y-26452400D01*
X18190000Y-26452400D02*
X18444000Y-26452400D01*
X28096000Y-26452400D02*
X28350000Y-26452400D01*
X28350000Y-26452400D02*
X28477000Y-26579400D01*
%TO.N,/sas1/R0+*%
X31524284Y-24495716D02*
X31331243Y-24495716D01*
X30583127Y-23747600D02*
X7056872Y-23747600D01*
X31331243Y-24495716D02*
X30583127Y-23747600D01*
X4604473Y-26950000D02*
X3420000Y-26950000D01*
X7056872Y-23747600D02*
X5767600Y-25036872D01*
X5767600Y-25786873D02*
X4604473Y-26950000D01*
X5767600Y-25036872D02*
X5767600Y-25786873D01*
%TO.N,/sas1/R0-*%
X17372000Y-24052400D02*
X17626000Y-24052400D01*
X18007000Y-24179400D02*
X18134000Y-24052400D01*
X17753000Y-24179400D02*
X18007000Y-24179400D01*
X18134000Y-24052400D02*
X30456873Y-24052400D01*
X17626000Y-24052400D02*
X17753000Y-24179400D01*
X31115716Y-24711243D02*
X31115716Y-24904284D01*
X16991000Y-24179400D02*
X17245000Y-24179400D01*
X16864000Y-24052400D02*
X16991000Y-24179400D01*
X16610000Y-24052400D02*
X16864000Y-24052400D01*
X16229000Y-24179400D02*
X16483000Y-24179400D01*
X16102000Y-24052400D02*
X16229000Y-24179400D01*
X15721000Y-24179400D02*
X15848000Y-24052400D01*
X15467000Y-24179400D02*
X15721000Y-24179400D01*
X14959000Y-24179400D02*
X15086000Y-24052400D01*
X14705000Y-24179400D02*
X14959000Y-24179400D01*
X14578000Y-24052400D02*
X14705000Y-24179400D01*
X14324000Y-24052400D02*
X14578000Y-24052400D01*
X14197000Y-24179400D02*
X14324000Y-24052400D01*
X13943000Y-24179400D02*
X14197000Y-24179400D01*
X13816000Y-24052400D02*
X13943000Y-24179400D01*
X13562000Y-24052400D02*
X13816000Y-24052400D01*
X9244000Y-24052400D02*
X9371000Y-24179400D01*
X9625000Y-24179400D02*
X9752000Y-24052400D01*
X10387000Y-24179400D02*
X10514000Y-24052400D01*
X16483000Y-24179400D02*
X16610000Y-24052400D01*
X8990000Y-24052400D02*
X9244000Y-24052400D01*
X12419000Y-24179400D02*
X12673000Y-24179400D01*
X12673000Y-24179400D02*
X12800000Y-24052400D01*
X12800000Y-24052400D02*
X13054000Y-24052400D01*
X10006000Y-24052400D02*
X10133000Y-24179400D01*
X13181000Y-24179400D02*
X13435000Y-24179400D01*
X9371000Y-24179400D02*
X9625000Y-24179400D01*
X10133000Y-24179400D02*
X10387000Y-24179400D01*
X8609000Y-24179400D02*
X8863000Y-24179400D01*
X8482000Y-24052400D02*
X8609000Y-24179400D01*
X9752000Y-24052400D02*
X10006000Y-24052400D01*
X15086000Y-24052400D02*
X15340000Y-24052400D01*
X8863000Y-24179400D02*
X8990000Y-24052400D01*
X13054000Y-24052400D02*
X13181000Y-24179400D01*
X11911000Y-24179400D02*
X12038000Y-24052400D01*
X10514000Y-24052400D02*
X10768000Y-24052400D01*
X6072400Y-25163128D02*
X7183128Y-24052400D01*
X30456873Y-24052400D02*
X31115716Y-24711243D01*
X15848000Y-24052400D02*
X16102000Y-24052400D01*
X7183128Y-24052400D02*
X7720000Y-24052400D01*
X10768000Y-24052400D02*
X10895000Y-24179400D01*
X8228000Y-24052400D02*
X8482000Y-24052400D01*
X11149000Y-24179400D02*
X11276000Y-24052400D01*
X17245000Y-24179400D02*
X17372000Y-24052400D01*
X6072400Y-25913127D02*
X6072400Y-25163128D01*
X15340000Y-24052400D02*
X15467000Y-24179400D01*
X7720000Y-24052400D02*
X7847000Y-24179400D01*
X4820000Y-27700000D02*
X4820000Y-27165527D01*
X13435000Y-24179400D02*
X13562000Y-24052400D01*
X8101000Y-24179400D02*
X8228000Y-24052400D01*
X10895000Y-24179400D02*
X11149000Y-24179400D01*
X11276000Y-24052400D02*
X11530000Y-24052400D01*
X11530000Y-24052400D02*
X11657000Y-24179400D01*
X11657000Y-24179400D02*
X11911000Y-24179400D01*
X12038000Y-24052400D02*
X12292000Y-24052400D01*
X7847000Y-24179400D02*
X8101000Y-24179400D01*
X12292000Y-24052400D02*
X12419000Y-24179400D01*
X4820000Y-27165527D02*
X6072400Y-25913127D01*
%TO.N,/sas2/SDAT*%
X55120000Y-39100000D02*
X7170000Y-39100000D01*
X56920000Y-40900000D02*
X55120000Y-39100000D01*
X7170000Y-39100000D02*
X4820000Y-41450000D01*
%TO.N,/sas2/R3+*%
X15056872Y-45747600D02*
X13383128Y-45747600D01*
X13383128Y-45747600D02*
X12783128Y-45147600D01*
X53924284Y-40495716D02*
X53731243Y-40495716D01*
X11056872Y-45747600D02*
X10583128Y-45747600D01*
X39656872Y-46547600D02*
X17866429Y-46547600D01*
X10583128Y-45747600D02*
X10035528Y-45200000D01*
X10035528Y-45200000D02*
X9065200Y-45200000D01*
X53731243Y-40495716D02*
X52783127Y-39547600D01*
X15656872Y-45147600D02*
X15056872Y-45747600D01*
X12783128Y-45147600D02*
X11656872Y-45147600D01*
X52783127Y-39547600D02*
X46656872Y-39547600D01*
X16466429Y-45147600D02*
X15656872Y-45147600D01*
X46656872Y-39547600D02*
X39656872Y-46547600D01*
X11656872Y-45147600D02*
X11056872Y-45747600D01*
X17866429Y-46547600D02*
X16466429Y-45147600D01*
X9065200Y-45200000D02*
X7220000Y-45200000D01*
%TO.N,/sas2/R3-*%
X20915173Y-46979400D02*
X21169173Y-46979400D01*
X39783128Y-46852400D02*
X46783128Y-39852400D01*
X20788173Y-46852400D02*
X20915173Y-46979400D01*
X20534173Y-46852400D02*
X20788173Y-46852400D01*
X53515716Y-40711243D02*
X53515716Y-40904284D01*
X46783128Y-39852400D02*
X52656873Y-39852400D01*
X28154173Y-46852400D02*
X28408173Y-46852400D01*
X28027173Y-46979400D02*
X28154173Y-46852400D01*
X20153173Y-46979400D02*
X20407173Y-46979400D01*
X9909272Y-45504800D02*
X10456872Y-46052400D01*
X21677173Y-46979400D02*
X21931173Y-46979400D01*
X21169173Y-46979400D02*
X21296173Y-46852400D01*
X20407173Y-46979400D02*
X20534173Y-46852400D01*
X27773173Y-46979400D02*
X28027173Y-46979400D01*
X18883173Y-46979400D02*
X19010173Y-46852400D01*
X23836173Y-46852400D02*
X23963173Y-46979400D01*
X30313173Y-46979400D02*
X30440173Y-46852400D01*
X18121173Y-46979400D02*
X18248173Y-46852400D01*
X52656873Y-39852400D02*
X53515716Y-40711243D01*
X18502173Y-46852400D02*
X18629173Y-46979400D01*
X24979173Y-46979400D02*
X25106173Y-46852400D01*
X22439173Y-46979400D02*
X22693173Y-46979400D01*
X18629173Y-46979400D02*
X18883173Y-46979400D01*
X22693173Y-46979400D02*
X22820173Y-46852400D01*
X27646173Y-46852400D02*
X27773173Y-46979400D01*
X11783128Y-45452400D02*
X12656872Y-45452400D01*
X27265173Y-46979400D02*
X27392173Y-46852400D01*
X22058173Y-46852400D02*
X22312173Y-46852400D01*
X20026173Y-46852400D02*
X20153173Y-46979400D01*
X27011173Y-46979400D02*
X27265173Y-46979400D01*
X15183128Y-46052400D02*
X15783128Y-45452400D01*
X26630173Y-46852400D02*
X26884173Y-46852400D01*
X12656872Y-45452400D02*
X13256872Y-46052400D01*
X19645173Y-46979400D02*
X19772173Y-46852400D01*
X28916173Y-46852400D02*
X29170173Y-46852400D01*
X10456872Y-46052400D02*
X11183128Y-46052400D01*
X9065200Y-45504800D02*
X9909272Y-45504800D01*
X21296173Y-46852400D02*
X21550173Y-46852400D01*
X19010173Y-46852400D02*
X19264173Y-46852400D01*
X13256872Y-46052400D02*
X15183128Y-46052400D01*
X27392173Y-46852400D02*
X27646173Y-46852400D01*
X21550173Y-46852400D02*
X21677173Y-46979400D01*
X8620000Y-45950000D02*
X9065200Y-45504800D01*
X21931173Y-46979400D02*
X22058173Y-46852400D01*
X11183128Y-46052400D02*
X11783128Y-45452400D01*
X29297173Y-46979400D02*
X29551173Y-46979400D01*
X28408173Y-46852400D02*
X28535173Y-46979400D01*
X15783128Y-45452400D02*
X16340173Y-45452400D01*
X25487173Y-46979400D02*
X25741173Y-46979400D01*
X18248173Y-46852400D02*
X18502173Y-46852400D01*
X23582173Y-46852400D02*
X23836173Y-46852400D01*
X22312173Y-46852400D02*
X22439173Y-46979400D01*
X17867173Y-46979400D02*
X18121173Y-46979400D01*
X16340173Y-45452400D02*
X17867173Y-46979400D01*
X19391173Y-46979400D02*
X19645173Y-46979400D01*
X28789173Y-46979400D02*
X28916173Y-46852400D01*
X22820173Y-46852400D02*
X23074173Y-46852400D01*
X23074173Y-46852400D02*
X23201173Y-46979400D01*
X23201173Y-46979400D02*
X23455173Y-46979400D01*
X23455173Y-46979400D02*
X23582173Y-46852400D01*
X23963173Y-46979400D02*
X24217173Y-46979400D01*
X24344173Y-46852400D02*
X24598173Y-46852400D01*
X24598173Y-46852400D02*
X24725173Y-46979400D01*
X24725173Y-46979400D02*
X24979173Y-46979400D01*
X25106173Y-46852400D02*
X25360173Y-46852400D01*
X25741173Y-46979400D02*
X25868173Y-46852400D01*
X25868173Y-46852400D02*
X26122173Y-46852400D01*
X26122173Y-46852400D02*
X26249173Y-46979400D01*
X26249173Y-46979400D02*
X26503173Y-46979400D01*
X26503173Y-46979400D02*
X26630173Y-46852400D01*
X26884173Y-46852400D02*
X27011173Y-46979400D01*
X24217173Y-46979400D02*
X24344173Y-46852400D01*
X29678173Y-46852400D02*
X29932173Y-46852400D01*
X19264173Y-46852400D02*
X19391173Y-46979400D01*
X28535173Y-46979400D02*
X28789173Y-46979400D01*
X19772173Y-46852400D02*
X20026173Y-46852400D01*
X29170173Y-46852400D02*
X29297173Y-46979400D01*
X25360173Y-46852400D02*
X25487173Y-46979400D01*
X29551173Y-46979400D02*
X29678173Y-46852400D01*
X29932173Y-46852400D02*
X30059173Y-46979400D01*
X30059173Y-46979400D02*
X30313173Y-46979400D01*
X30440173Y-46852400D02*
X39783128Y-46852400D01*
%TO.N,/sas2/R2+*%
X4604474Y-46384474D02*
X3420000Y-45200000D01*
X44783128Y-48252400D02*
X6472400Y-48252400D01*
X49124284Y-40495716D02*
X49124284Y-43911244D01*
X49124284Y-43911244D02*
X44783128Y-48252400D01*
X6472400Y-48252400D02*
X4604474Y-46384474D01*
%TO.N,/sas2/R2-*%
X25516000Y-47947600D02*
X25770000Y-47947600D01*
X26659000Y-47820600D02*
X26913000Y-47820600D01*
X25389000Y-47820600D02*
X25516000Y-47947600D01*
X48819484Y-43784988D02*
X48819484Y-41008052D01*
X24627000Y-47820600D02*
X24754000Y-47947600D01*
X48819484Y-41008052D02*
X48715716Y-40904284D01*
X25135000Y-47820600D02*
X25389000Y-47820600D01*
X24373000Y-47820600D02*
X24627000Y-47820600D01*
X24246000Y-47947600D02*
X24373000Y-47820600D01*
X23992000Y-47947600D02*
X24246000Y-47947600D01*
X23865000Y-47820600D02*
X23992000Y-47947600D01*
X23230000Y-47947600D02*
X23484000Y-47947600D01*
X23103000Y-47820600D02*
X23230000Y-47947600D01*
X22849000Y-47820600D02*
X23103000Y-47820600D01*
X22722000Y-47947600D02*
X22849000Y-47820600D01*
X22087000Y-47820600D02*
X22341000Y-47820600D01*
X21960000Y-47947600D02*
X22087000Y-47820600D01*
X21579000Y-47820600D02*
X21706000Y-47947600D01*
X20944000Y-47947600D02*
X21198000Y-47947600D01*
X12816000Y-47947600D02*
X12943000Y-47820600D01*
X26913000Y-47820600D02*
X27040000Y-47947600D01*
X12435000Y-47820600D02*
X12562000Y-47947600D01*
X19801000Y-47820600D02*
X20055000Y-47820600D01*
X12181000Y-47820600D02*
X12435000Y-47820600D01*
X26532000Y-47947600D02*
X26659000Y-47820600D01*
X12054000Y-47947600D02*
X12181000Y-47820600D01*
X10530000Y-47947600D02*
X10657000Y-47820600D01*
X8752000Y-47947600D02*
X9006000Y-47947600D01*
X8371000Y-47820600D02*
X8625000Y-47820600D01*
X6720000Y-47947600D02*
X6847000Y-47820600D01*
X8244000Y-47947600D02*
X8371000Y-47820600D01*
X9387000Y-47820600D02*
X9514000Y-47947600D01*
X11038000Y-47947600D02*
X11292000Y-47947600D01*
X18531000Y-47820600D02*
X18658000Y-47947600D01*
X10276000Y-47947600D02*
X10530000Y-47947600D01*
X23611000Y-47820600D02*
X23865000Y-47820600D01*
X10149000Y-47820600D02*
X10276000Y-47947600D01*
X27040000Y-47947600D02*
X44656872Y-47947600D01*
X12562000Y-47947600D02*
X12816000Y-47947600D01*
X9895000Y-47820600D02*
X10149000Y-47820600D01*
X23484000Y-47947600D02*
X23611000Y-47820600D01*
X20436000Y-47947600D02*
X20563000Y-47820600D01*
X26278000Y-47947600D02*
X26532000Y-47947600D01*
X11800000Y-47947600D02*
X12054000Y-47947600D01*
X9133000Y-47820600D02*
X9387000Y-47820600D01*
X44656872Y-47947600D02*
X48819484Y-43784988D01*
X16245000Y-47820600D02*
X16372000Y-47947600D01*
X10657000Y-47820600D02*
X10911000Y-47820600D01*
X4820000Y-46168947D02*
X6598653Y-47947600D01*
X18150000Y-47947600D02*
X18277000Y-47820600D01*
X14848000Y-47947600D02*
X15102000Y-47947600D01*
X22341000Y-47820600D02*
X22468000Y-47947600D01*
X6598653Y-47947600D02*
X6720000Y-47947600D01*
X10911000Y-47820600D02*
X11038000Y-47947600D01*
X18277000Y-47820600D02*
X18531000Y-47820600D01*
X9768000Y-47947600D02*
X9895000Y-47820600D01*
X6847000Y-47820600D02*
X7101000Y-47820600D01*
X13197000Y-47820600D02*
X13324000Y-47947600D01*
X7228000Y-47947600D02*
X7482000Y-47947600D01*
X15229000Y-47820600D02*
X15483000Y-47820600D01*
X4820000Y-45950000D02*
X4820000Y-46168947D01*
X13578000Y-47947600D02*
X13705000Y-47820600D01*
X25897000Y-47820600D02*
X26151000Y-47820600D01*
X11419000Y-47820600D02*
X11673000Y-47820600D01*
X21325000Y-47820600D02*
X21579000Y-47820600D01*
X18912000Y-47947600D02*
X19039000Y-47820600D01*
X7990000Y-47947600D02*
X8244000Y-47947600D01*
X25770000Y-47947600D02*
X25897000Y-47820600D01*
X11292000Y-47947600D02*
X11419000Y-47820600D01*
X21198000Y-47947600D02*
X21325000Y-47820600D01*
X18658000Y-47947600D02*
X18912000Y-47947600D01*
X21706000Y-47947600D02*
X21960000Y-47947600D01*
X8625000Y-47820600D02*
X8752000Y-47947600D01*
X26151000Y-47820600D02*
X26278000Y-47947600D01*
X11673000Y-47820600D02*
X11800000Y-47947600D01*
X9006000Y-47947600D02*
X9133000Y-47820600D01*
X12943000Y-47820600D02*
X13197000Y-47820600D01*
X13324000Y-47947600D02*
X13578000Y-47947600D01*
X25008000Y-47947600D02*
X25135000Y-47820600D01*
X20817000Y-47820600D02*
X20944000Y-47947600D01*
X13705000Y-47820600D02*
X13959000Y-47820600D01*
X7863000Y-47820600D02*
X7990000Y-47947600D01*
X13959000Y-47820600D02*
X14086000Y-47947600D01*
X14086000Y-47947600D02*
X14340000Y-47947600D01*
X14340000Y-47947600D02*
X14467000Y-47820600D01*
X14467000Y-47820600D02*
X14721000Y-47820600D01*
X14721000Y-47820600D02*
X14848000Y-47947600D01*
X9514000Y-47947600D02*
X9768000Y-47947600D01*
X7482000Y-47947600D02*
X7609000Y-47820600D01*
X15102000Y-47947600D02*
X15229000Y-47820600D01*
X7609000Y-47820600D02*
X7863000Y-47820600D01*
X15483000Y-47820600D02*
X15610000Y-47947600D01*
X15610000Y-47947600D02*
X15864000Y-47947600D01*
X15864000Y-47947600D02*
X15991000Y-47820600D01*
X20182000Y-47947600D02*
X20436000Y-47947600D01*
X15991000Y-47820600D02*
X16245000Y-47820600D01*
X16372000Y-47947600D02*
X16626000Y-47947600D01*
X16626000Y-47947600D02*
X16753000Y-47820600D01*
X16753000Y-47820600D02*
X17007000Y-47820600D01*
X17007000Y-47820600D02*
X17134000Y-47947600D01*
X17134000Y-47947600D02*
X17388000Y-47947600D01*
X17388000Y-47947600D02*
X17515000Y-47820600D01*
X17515000Y-47820600D02*
X17769000Y-47820600D01*
X7101000Y-47820600D02*
X7228000Y-47947600D01*
X17769000Y-47820600D02*
X17896000Y-47947600D01*
X17896000Y-47947600D02*
X18150000Y-47947600D01*
X19039000Y-47820600D02*
X19293000Y-47820600D01*
X19293000Y-47820600D02*
X19420000Y-47947600D01*
X19420000Y-47947600D02*
X19674000Y-47947600D01*
X19674000Y-47947600D02*
X19801000Y-47820600D01*
X22468000Y-47947600D02*
X22722000Y-47947600D01*
X20055000Y-47820600D02*
X20182000Y-47947600D01*
X24754000Y-47947600D02*
X25008000Y-47947600D01*
X20563000Y-47820600D02*
X20817000Y-47820600D01*
%TO.N,/sas2/R1+*%
X41856872Y-39747600D02*
X39456872Y-42147600D01*
X12983128Y-42947600D02*
X11656872Y-42947600D01*
X15056872Y-43347600D02*
X13383128Y-43347600D01*
X44324284Y-40495716D02*
X44131243Y-40495716D01*
X10383128Y-43347600D02*
X9985528Y-42950000D01*
X13383128Y-43347600D02*
X12983128Y-42947600D01*
X9985528Y-42950000D02*
X9065200Y-42950000D01*
X44131243Y-40495716D02*
X43383127Y-39747600D01*
X43383127Y-39747600D02*
X41856872Y-39747600D01*
X11656872Y-42947600D02*
X11256872Y-43347600D01*
X11256872Y-43347600D02*
X10383128Y-43347600D01*
X16256872Y-42147600D02*
X15056872Y-43347600D01*
X39456872Y-42147600D02*
X16256872Y-42147600D01*
X9065200Y-42950000D02*
X7220000Y-42950000D01*
%TO.N,/sas2/R1-*%
X28477000Y-42579400D02*
X28731000Y-42579400D01*
X43915716Y-40711243D02*
X43915716Y-40904284D01*
X27334000Y-42452400D02*
X27588000Y-42452400D01*
X26953000Y-42579400D02*
X27207000Y-42579400D01*
X27207000Y-42579400D02*
X27334000Y-42452400D01*
X21111000Y-42579400D02*
X21238000Y-42452400D01*
X19587000Y-42579400D02*
X19714000Y-42452400D01*
X19333000Y-42579400D02*
X19587000Y-42579400D01*
X26826000Y-42452400D02*
X26953000Y-42579400D01*
X11783128Y-43252400D02*
X12856872Y-43252400D01*
X29112000Y-42452400D02*
X29239000Y-42579400D01*
X29620000Y-42452400D02*
X39583128Y-42452400D01*
X16383128Y-42452400D02*
X16920000Y-42452400D01*
X21619000Y-42579400D02*
X21873000Y-42579400D01*
X13256872Y-43652400D02*
X15183128Y-43652400D01*
X17047000Y-42579400D02*
X17301000Y-42579400D01*
X20857000Y-42579400D02*
X21111000Y-42579400D01*
X9065200Y-43254800D02*
X9859272Y-43254800D01*
X18063000Y-42579400D02*
X18190000Y-42452400D01*
X18571000Y-42579400D02*
X18825000Y-42579400D01*
X25683000Y-42579400D02*
X25810000Y-42452400D01*
X17809000Y-42579400D02*
X18063000Y-42579400D01*
X22000000Y-42452400D02*
X22254000Y-42452400D01*
X29493000Y-42579400D02*
X29620000Y-42452400D01*
X22254000Y-42452400D02*
X22381000Y-42579400D01*
X22381000Y-42579400D02*
X22635000Y-42579400D01*
X29239000Y-42579400D02*
X29493000Y-42579400D01*
X41983128Y-40052400D02*
X43256873Y-40052400D01*
X21492000Y-42452400D02*
X21619000Y-42579400D01*
X10256872Y-43652400D02*
X11383128Y-43652400D01*
X25302000Y-42452400D02*
X25429000Y-42579400D01*
X9859272Y-43254800D02*
X10256872Y-43652400D01*
X16920000Y-42452400D02*
X17047000Y-42579400D01*
X27715000Y-42579400D02*
X27969000Y-42579400D01*
X21238000Y-42452400D02*
X21492000Y-42452400D01*
X8620000Y-43700000D02*
X9065200Y-43254800D01*
X20476000Y-42452400D02*
X20730000Y-42452400D01*
X19714000Y-42452400D02*
X19968000Y-42452400D01*
X18444000Y-42452400D02*
X18571000Y-42579400D01*
X25429000Y-42579400D02*
X25683000Y-42579400D01*
X17682000Y-42452400D02*
X17809000Y-42579400D01*
X11383128Y-43652400D02*
X11783128Y-43252400D01*
X12856872Y-43252400D02*
X13256872Y-43652400D01*
X19206000Y-42452400D02*
X19333000Y-42579400D01*
X23905000Y-42579400D02*
X24159000Y-42579400D01*
X15183128Y-43652400D02*
X16383128Y-42452400D01*
X18825000Y-42579400D02*
X18952000Y-42452400D01*
X20095000Y-42579400D02*
X20349000Y-42579400D01*
X27588000Y-42452400D02*
X27715000Y-42579400D01*
X23778000Y-42452400D02*
X23905000Y-42579400D01*
X17301000Y-42579400D02*
X17428000Y-42452400D01*
X21873000Y-42579400D02*
X22000000Y-42452400D01*
X18952000Y-42452400D02*
X19206000Y-42452400D01*
X20349000Y-42579400D02*
X20476000Y-42452400D01*
X17428000Y-42452400D02*
X17682000Y-42452400D01*
X28731000Y-42579400D02*
X28858000Y-42452400D01*
X20730000Y-42452400D02*
X20857000Y-42579400D01*
X19968000Y-42452400D02*
X20095000Y-42579400D01*
X22635000Y-42579400D02*
X22762000Y-42452400D01*
X22762000Y-42452400D02*
X23016000Y-42452400D01*
X39583128Y-42452400D02*
X41983128Y-40052400D01*
X23016000Y-42452400D02*
X23143000Y-42579400D01*
X23143000Y-42579400D02*
X23397000Y-42579400D01*
X23397000Y-42579400D02*
X23524000Y-42452400D01*
X23524000Y-42452400D02*
X23778000Y-42452400D01*
X24159000Y-42579400D02*
X24286000Y-42452400D01*
X24286000Y-42452400D02*
X24540000Y-42452400D01*
X24540000Y-42452400D02*
X24667000Y-42579400D01*
X24921000Y-42579400D02*
X25048000Y-42452400D01*
X24667000Y-42579400D02*
X24921000Y-42579400D01*
X28858000Y-42452400D02*
X29112000Y-42452400D01*
X43256873Y-40052400D02*
X43915716Y-40711243D01*
X25048000Y-42452400D02*
X25302000Y-42452400D01*
X25810000Y-42452400D02*
X26064000Y-42452400D01*
X26064000Y-42452400D02*
X26191000Y-42579400D01*
X26191000Y-42579400D02*
X26445000Y-42579400D01*
X26445000Y-42579400D02*
X26572000Y-42452400D01*
X26572000Y-42452400D02*
X26826000Y-42452400D01*
X27969000Y-42579400D02*
X28096000Y-42452400D01*
X18190000Y-42452400D02*
X18444000Y-42452400D01*
X28096000Y-42452400D02*
X28350000Y-42452400D01*
X28350000Y-42452400D02*
X28477000Y-42579400D01*
%TO.N,/sas2/R0+*%
X31524284Y-40495716D02*
X31331243Y-40495716D01*
X30583127Y-39747600D02*
X7056872Y-39747600D01*
X31331243Y-40495716D02*
X30583127Y-39747600D01*
X4604473Y-42950000D02*
X3420000Y-42950000D01*
X7056872Y-39747600D02*
X5767600Y-41036872D01*
X5767600Y-41786873D02*
X4604473Y-42950000D01*
X5767600Y-41036872D02*
X5767600Y-41786873D01*
%TO.N,/sas2/R0-*%
X17372000Y-40052400D02*
X17626000Y-40052400D01*
X18007000Y-40179400D02*
X18134000Y-40052400D01*
X17753000Y-40179400D02*
X18007000Y-40179400D01*
X18134000Y-40052400D02*
X30456873Y-40052400D01*
X17626000Y-40052400D02*
X17753000Y-40179400D01*
X31115716Y-40711243D02*
X31115716Y-40904284D01*
X16991000Y-40179400D02*
X17245000Y-40179400D01*
X16864000Y-40052400D02*
X16991000Y-40179400D01*
X16610000Y-40052400D02*
X16864000Y-40052400D01*
X16229000Y-40179400D02*
X16483000Y-40179400D01*
X16102000Y-40052400D02*
X16229000Y-40179400D01*
X15721000Y-40179400D02*
X15848000Y-40052400D01*
X15467000Y-40179400D02*
X15721000Y-40179400D01*
X14959000Y-40179400D02*
X15086000Y-40052400D01*
X14705000Y-40179400D02*
X14959000Y-40179400D01*
X14578000Y-40052400D02*
X14705000Y-40179400D01*
X14324000Y-40052400D02*
X14578000Y-40052400D01*
X14197000Y-40179400D02*
X14324000Y-40052400D01*
X13943000Y-40179400D02*
X14197000Y-40179400D01*
X13816000Y-40052400D02*
X13943000Y-40179400D01*
X13562000Y-40052400D02*
X13816000Y-40052400D01*
X9244000Y-40052400D02*
X9371000Y-40179400D01*
X9625000Y-40179400D02*
X9752000Y-40052400D01*
X10387000Y-40179400D02*
X10514000Y-40052400D01*
X16483000Y-40179400D02*
X16610000Y-40052400D01*
X8990000Y-40052400D02*
X9244000Y-40052400D01*
X12419000Y-40179400D02*
X12673000Y-40179400D01*
X12673000Y-40179400D02*
X12800000Y-40052400D01*
X12800000Y-40052400D02*
X13054000Y-40052400D01*
X10006000Y-40052400D02*
X10133000Y-40179400D01*
X13181000Y-40179400D02*
X13435000Y-40179400D01*
X9371000Y-40179400D02*
X9625000Y-40179400D01*
X10133000Y-40179400D02*
X10387000Y-40179400D01*
X8609000Y-40179400D02*
X8863000Y-40179400D01*
X8482000Y-40052400D02*
X8609000Y-40179400D01*
X9752000Y-40052400D02*
X10006000Y-40052400D01*
X15086000Y-40052400D02*
X15340000Y-40052400D01*
X8863000Y-40179400D02*
X8990000Y-40052400D01*
X13054000Y-40052400D02*
X13181000Y-40179400D01*
X11911000Y-40179400D02*
X12038000Y-40052400D01*
X10514000Y-40052400D02*
X10768000Y-40052400D01*
X6072400Y-41163128D02*
X7183128Y-40052400D01*
X30456873Y-40052400D02*
X31115716Y-40711243D01*
X15848000Y-40052400D02*
X16102000Y-40052400D01*
X7183128Y-40052400D02*
X7720000Y-40052400D01*
X10768000Y-40052400D02*
X10895000Y-40179400D01*
X8228000Y-40052400D02*
X8482000Y-40052400D01*
X11149000Y-40179400D02*
X11276000Y-40052400D01*
X17245000Y-40179400D02*
X17372000Y-40052400D01*
X6072400Y-41913127D02*
X6072400Y-41163128D01*
X15340000Y-40052400D02*
X15467000Y-40179400D01*
X7720000Y-40052400D02*
X7847000Y-40179400D01*
X4820000Y-43700000D02*
X4820000Y-43165527D01*
X13435000Y-40179400D02*
X13562000Y-40052400D01*
X8101000Y-40179400D02*
X8228000Y-40052400D01*
X10895000Y-40179400D02*
X11149000Y-40179400D01*
X11276000Y-40052400D02*
X11530000Y-40052400D01*
X11530000Y-40052400D02*
X11657000Y-40179400D01*
X11657000Y-40179400D02*
X11911000Y-40179400D01*
X12038000Y-40052400D02*
X12292000Y-40052400D01*
X7847000Y-40179400D02*
X8101000Y-40179400D01*
X12292000Y-40052400D02*
X12419000Y-40179400D01*
X4820000Y-43165527D02*
X6072400Y-41913127D01*
%TO.N,/sas3/SDAT*%
X56920000Y-56900000D02*
X55120000Y-55100000D01*
X7170000Y-55100000D02*
X4820000Y-57450000D01*
X55120000Y-55100000D02*
X7170000Y-55100000D01*
%TO.N,/sas3/R3+*%
X53731243Y-56495716D02*
X52783127Y-55547600D01*
X53924284Y-56495716D02*
X53731243Y-56495716D01*
X52783127Y-55547600D02*
X46656872Y-55547600D01*
X46656872Y-55547600D02*
X39656872Y-62547600D01*
X39656872Y-62547600D02*
X17866429Y-62547600D01*
X17866429Y-62547600D02*
X16466429Y-61147600D01*
X16466429Y-61147600D02*
X15656872Y-61147600D01*
X15656872Y-61147600D02*
X15056872Y-61747600D01*
X15056872Y-61747600D02*
X13383128Y-61747600D01*
X13383128Y-61747600D02*
X12783128Y-61147600D01*
X12783128Y-61147600D02*
X11656872Y-61147600D01*
X11656872Y-61147600D02*
X11056872Y-61747600D01*
X11056872Y-61747600D02*
X10583128Y-61747600D01*
X10035528Y-61200000D02*
X7220000Y-61200000D01*
X10583128Y-61747600D02*
X10035528Y-61200000D01*
%TO.N,/sas3/R3-*%
X53515716Y-56711243D02*
X53515716Y-56904284D01*
X46783128Y-55852400D02*
X52656873Y-55852400D01*
X39783128Y-62852400D02*
X46783128Y-55852400D01*
X20915173Y-62979400D02*
X21169173Y-62979400D01*
X20788173Y-62852400D02*
X20915173Y-62979400D01*
X28154173Y-62852400D02*
X28408173Y-62852400D01*
X20534173Y-62852400D02*
X20788173Y-62852400D01*
X28027173Y-62979400D02*
X28154173Y-62852400D01*
X20153173Y-62979400D02*
X20407173Y-62979400D01*
X9909272Y-61504800D02*
X10456872Y-62052400D01*
X21677173Y-62979400D02*
X21931173Y-62979400D01*
X21169173Y-62979400D02*
X21296173Y-62852400D01*
X20407173Y-62979400D02*
X20534173Y-62852400D01*
X27773173Y-62979400D02*
X28027173Y-62979400D01*
X18883173Y-62979400D02*
X19010173Y-62852400D01*
X23836173Y-62852400D02*
X23963173Y-62979400D01*
X30313173Y-62979400D02*
X30440173Y-62852400D01*
X27646173Y-62852400D02*
X27773173Y-62979400D01*
X11783128Y-61452400D02*
X12656872Y-61452400D01*
X27265173Y-62979400D02*
X27392173Y-62852400D01*
X22058173Y-62852400D02*
X22312173Y-62852400D01*
X20026173Y-62852400D02*
X20153173Y-62979400D01*
X27011173Y-62979400D02*
X27265173Y-62979400D01*
X15183128Y-62052400D02*
X15783128Y-61452400D01*
X26630173Y-62852400D02*
X26884173Y-62852400D01*
X12656872Y-61452400D02*
X13256872Y-62052400D01*
X19645173Y-62979400D02*
X19772173Y-62852400D01*
X28916173Y-62852400D02*
X29170173Y-62852400D01*
X10456872Y-62052400D02*
X11183128Y-62052400D01*
X9065200Y-61504800D02*
X9909272Y-61504800D01*
X21296173Y-62852400D02*
X21550173Y-62852400D01*
X19010173Y-62852400D02*
X19264173Y-62852400D01*
X13256872Y-62052400D02*
X15183128Y-62052400D01*
X27392173Y-62852400D02*
X27646173Y-62852400D01*
X21550173Y-62852400D02*
X21677173Y-62979400D01*
X8620000Y-61950000D02*
X9065200Y-61504800D01*
X21931173Y-62979400D02*
X22058173Y-62852400D01*
X11183128Y-62052400D02*
X11783128Y-61452400D01*
X29297173Y-62979400D02*
X29551173Y-62979400D01*
X28408173Y-62852400D02*
X28535173Y-62979400D01*
X15783128Y-61452400D02*
X16340173Y-61452400D01*
X25487173Y-62979400D02*
X25741173Y-62979400D01*
X18248173Y-62852400D02*
X18502173Y-62852400D01*
X23582173Y-62852400D02*
X23836173Y-62852400D01*
X22312173Y-62852400D02*
X22439173Y-62979400D01*
X17867173Y-62979400D02*
X18121173Y-62979400D01*
X16340173Y-61452400D02*
X17867173Y-62979400D01*
X19391173Y-62979400D02*
X19645173Y-62979400D01*
X28789173Y-62979400D02*
X28916173Y-62852400D01*
X18121173Y-62979400D02*
X18248173Y-62852400D01*
X52656873Y-55852400D02*
X53515716Y-56711243D01*
X18502173Y-62852400D02*
X18629173Y-62979400D01*
X24979173Y-62979400D02*
X25106173Y-62852400D01*
X22439173Y-62979400D02*
X22693173Y-62979400D01*
X18629173Y-62979400D02*
X18883173Y-62979400D01*
X22693173Y-62979400D02*
X22820173Y-62852400D01*
X22820173Y-62852400D02*
X23074173Y-62852400D01*
X23074173Y-62852400D02*
X23201173Y-62979400D01*
X23201173Y-62979400D02*
X23455173Y-62979400D01*
X23455173Y-62979400D02*
X23582173Y-62852400D01*
X23963173Y-62979400D02*
X24217173Y-62979400D01*
X24344173Y-62852400D02*
X24598173Y-62852400D01*
X24598173Y-62852400D02*
X24725173Y-62979400D01*
X24725173Y-62979400D02*
X24979173Y-62979400D01*
X25106173Y-62852400D02*
X25360173Y-62852400D01*
X25741173Y-62979400D02*
X25868173Y-62852400D01*
X25868173Y-62852400D02*
X26122173Y-62852400D01*
X26122173Y-62852400D02*
X26249173Y-62979400D01*
X26249173Y-62979400D02*
X26503173Y-62979400D01*
X26503173Y-62979400D02*
X26630173Y-62852400D01*
X26884173Y-62852400D02*
X27011173Y-62979400D01*
X24217173Y-62979400D02*
X24344173Y-62852400D01*
X29678173Y-62852400D02*
X29932173Y-62852400D01*
X19264173Y-62852400D02*
X19391173Y-62979400D01*
X28535173Y-62979400D02*
X28789173Y-62979400D01*
X19772173Y-62852400D02*
X20026173Y-62852400D01*
X29170173Y-62852400D02*
X29297173Y-62979400D01*
X25360173Y-62852400D02*
X25487173Y-62979400D01*
X29551173Y-62979400D02*
X29678173Y-62852400D01*
X29932173Y-62852400D02*
X30059173Y-62979400D01*
X30059173Y-62979400D02*
X30313173Y-62979400D01*
X30440173Y-62852400D02*
X39783128Y-62852400D01*
%TO.N,/sas3/R2+*%
X49124284Y-59911244D02*
X44783128Y-64252400D01*
X49124284Y-56495716D02*
X49124284Y-59911244D01*
X6472400Y-64252400D02*
X3420000Y-61200000D01*
X44783128Y-64252400D02*
X6472400Y-64252400D01*
%TO.N,/sas3/R2-*%
X48819484Y-57008052D02*
X48715716Y-56904284D01*
X48819484Y-59784988D02*
X48819484Y-57008052D01*
X26659000Y-63820600D02*
X26913000Y-63820600D01*
X25516000Y-63947600D02*
X25770000Y-63947600D01*
X25389000Y-63820600D02*
X25516000Y-63947600D01*
X25135000Y-63820600D02*
X25389000Y-63820600D01*
X24627000Y-63820600D02*
X24754000Y-63947600D01*
X24373000Y-63820600D02*
X24627000Y-63820600D01*
X24246000Y-63947600D02*
X24373000Y-63820600D01*
X23992000Y-63947600D02*
X24246000Y-63947600D01*
X23865000Y-63820600D02*
X23992000Y-63947600D01*
X23230000Y-63947600D02*
X23484000Y-63947600D01*
X23103000Y-63820600D02*
X23230000Y-63947600D01*
X22849000Y-63820600D02*
X23103000Y-63820600D01*
X22722000Y-63947600D02*
X22849000Y-63820600D01*
X22087000Y-63820600D02*
X22341000Y-63820600D01*
X21960000Y-63947600D02*
X22087000Y-63820600D01*
X21579000Y-63820600D02*
X21706000Y-63947600D01*
X20944000Y-63947600D02*
X21198000Y-63947600D01*
X12816000Y-63947600D02*
X12943000Y-63820600D01*
X26913000Y-63820600D02*
X27040000Y-63947600D01*
X12435000Y-63820600D02*
X12562000Y-63947600D01*
X19801000Y-63820600D02*
X20055000Y-63820600D01*
X12181000Y-63820600D02*
X12435000Y-63820600D01*
X26532000Y-63947600D02*
X26659000Y-63820600D01*
X12054000Y-63947600D02*
X12181000Y-63820600D01*
X10530000Y-63947600D02*
X10657000Y-63820600D01*
X10276000Y-63947600D02*
X10530000Y-63947600D01*
X23611000Y-63820600D02*
X23865000Y-63820600D01*
X10149000Y-63820600D02*
X10276000Y-63947600D01*
X27040000Y-63947600D02*
X44656872Y-63947600D01*
X12562000Y-63947600D02*
X12816000Y-63947600D01*
X9895000Y-63820600D02*
X10149000Y-63820600D01*
X23484000Y-63947600D02*
X23611000Y-63820600D01*
X20436000Y-63947600D02*
X20563000Y-63820600D01*
X26278000Y-63947600D02*
X26532000Y-63947600D01*
X11800000Y-63947600D02*
X12054000Y-63947600D01*
X9133000Y-63820600D02*
X9387000Y-63820600D01*
X44656872Y-63947600D02*
X48819484Y-59784988D01*
X16245000Y-63820600D02*
X16372000Y-63947600D01*
X10657000Y-63820600D02*
X10911000Y-63820600D01*
X4820000Y-62168947D02*
X6598653Y-63947600D01*
X18150000Y-63947600D02*
X18277000Y-63820600D01*
X14848000Y-63947600D02*
X15102000Y-63947600D01*
X22341000Y-63820600D02*
X22468000Y-63947600D01*
X6598653Y-63947600D02*
X6720000Y-63947600D01*
X10911000Y-63820600D02*
X11038000Y-63947600D01*
X18277000Y-63820600D02*
X18531000Y-63820600D01*
X9768000Y-63947600D02*
X9895000Y-63820600D01*
X6847000Y-63820600D02*
X7101000Y-63820600D01*
X13197000Y-63820600D02*
X13324000Y-63947600D01*
X7228000Y-63947600D02*
X7482000Y-63947600D01*
X15229000Y-63820600D02*
X15483000Y-63820600D01*
X4820000Y-61950000D02*
X4820000Y-62168947D01*
X13578000Y-63947600D02*
X13705000Y-63820600D01*
X25897000Y-63820600D02*
X26151000Y-63820600D01*
X11419000Y-63820600D02*
X11673000Y-63820600D01*
X21325000Y-63820600D02*
X21579000Y-63820600D01*
X18912000Y-63947600D02*
X19039000Y-63820600D01*
X8752000Y-63947600D02*
X9006000Y-63947600D01*
X8371000Y-63820600D02*
X8625000Y-63820600D01*
X6720000Y-63947600D02*
X6847000Y-63820600D01*
X8244000Y-63947600D02*
X8371000Y-63820600D01*
X9387000Y-63820600D02*
X9514000Y-63947600D01*
X11038000Y-63947600D02*
X11292000Y-63947600D01*
X18531000Y-63820600D02*
X18658000Y-63947600D01*
X7990000Y-63947600D02*
X8244000Y-63947600D01*
X25770000Y-63947600D02*
X25897000Y-63820600D01*
X11292000Y-63947600D02*
X11419000Y-63820600D01*
X21198000Y-63947600D02*
X21325000Y-63820600D01*
X18658000Y-63947600D02*
X18912000Y-63947600D01*
X21706000Y-63947600D02*
X21960000Y-63947600D01*
X8625000Y-63820600D02*
X8752000Y-63947600D01*
X26151000Y-63820600D02*
X26278000Y-63947600D01*
X11673000Y-63820600D02*
X11800000Y-63947600D01*
X9006000Y-63947600D02*
X9133000Y-63820600D01*
X12943000Y-63820600D02*
X13197000Y-63820600D01*
X13324000Y-63947600D02*
X13578000Y-63947600D01*
X25008000Y-63947600D02*
X25135000Y-63820600D01*
X20817000Y-63820600D02*
X20944000Y-63947600D01*
X13705000Y-63820600D02*
X13959000Y-63820600D01*
X7863000Y-63820600D02*
X7990000Y-63947600D01*
X13959000Y-63820600D02*
X14086000Y-63947600D01*
X14086000Y-63947600D02*
X14340000Y-63947600D01*
X14340000Y-63947600D02*
X14467000Y-63820600D01*
X14467000Y-63820600D02*
X14721000Y-63820600D01*
X14721000Y-63820600D02*
X14848000Y-63947600D01*
X9514000Y-63947600D02*
X9768000Y-63947600D01*
X7482000Y-63947600D02*
X7609000Y-63820600D01*
X15102000Y-63947600D02*
X15229000Y-63820600D01*
X7609000Y-63820600D02*
X7863000Y-63820600D01*
X15483000Y-63820600D02*
X15610000Y-63947600D01*
X15610000Y-63947600D02*
X15864000Y-63947600D01*
X15864000Y-63947600D02*
X15991000Y-63820600D01*
X20182000Y-63947600D02*
X20436000Y-63947600D01*
X15991000Y-63820600D02*
X16245000Y-63820600D01*
X16372000Y-63947600D02*
X16626000Y-63947600D01*
X16626000Y-63947600D02*
X16753000Y-63820600D01*
X16753000Y-63820600D02*
X17007000Y-63820600D01*
X17007000Y-63820600D02*
X17134000Y-63947600D01*
X17134000Y-63947600D02*
X17388000Y-63947600D01*
X17388000Y-63947600D02*
X17515000Y-63820600D01*
X17515000Y-63820600D02*
X17769000Y-63820600D01*
X7101000Y-63820600D02*
X7228000Y-63947600D01*
X17769000Y-63820600D02*
X17896000Y-63947600D01*
X17896000Y-63947600D02*
X18150000Y-63947600D01*
X19039000Y-63820600D02*
X19293000Y-63820600D01*
X19293000Y-63820600D02*
X19420000Y-63947600D01*
X19420000Y-63947600D02*
X19674000Y-63947600D01*
X19674000Y-63947600D02*
X19801000Y-63820600D01*
X22468000Y-63947600D02*
X22722000Y-63947600D01*
X20055000Y-63820600D02*
X20182000Y-63947600D01*
X24754000Y-63947600D02*
X25008000Y-63947600D01*
X20563000Y-63820600D02*
X20817000Y-63820600D01*
%TO.N,/sas3/R1+*%
X44131243Y-56495716D02*
X43383127Y-55747600D01*
X44324284Y-56495716D02*
X44131243Y-56495716D01*
X43383127Y-55747600D02*
X41856872Y-55747600D01*
X41856872Y-55747600D02*
X39456872Y-58147600D01*
X39456872Y-58147600D02*
X16256872Y-58147600D01*
X16256872Y-58147600D02*
X15056872Y-59347600D01*
X15056872Y-59347600D02*
X13383128Y-59347600D01*
X13383128Y-59347600D02*
X12983128Y-58947600D01*
X12983128Y-58947600D02*
X11656872Y-58947600D01*
X11656872Y-58947600D02*
X11256872Y-59347600D01*
X11256872Y-59347600D02*
X10383128Y-59347600D01*
X9985528Y-58950000D02*
X7220000Y-58950000D01*
X10383128Y-59347600D02*
X9985528Y-58950000D01*
%TO.N,/sas3/R1-*%
X43915716Y-56711243D02*
X43915716Y-56904284D01*
X21111000Y-58579400D02*
X21238000Y-58452400D01*
X28477000Y-58579400D02*
X28731000Y-58579400D01*
X27334000Y-58452400D02*
X27588000Y-58452400D01*
X27207000Y-58579400D02*
X27334000Y-58452400D01*
X19587000Y-58579400D02*
X19714000Y-58452400D01*
X26953000Y-58579400D02*
X27207000Y-58579400D01*
X19333000Y-58579400D02*
X19587000Y-58579400D01*
X26826000Y-58452400D02*
X26953000Y-58579400D01*
X11783128Y-59252400D02*
X12856872Y-59252400D01*
X29112000Y-58452400D02*
X29239000Y-58579400D01*
X29620000Y-58452400D02*
X39583128Y-58452400D01*
X16383128Y-58452400D02*
X16920000Y-58452400D01*
X21619000Y-58579400D02*
X21873000Y-58579400D01*
X13256872Y-59652400D02*
X15183128Y-59652400D01*
X17047000Y-58579400D02*
X17301000Y-58579400D01*
X20857000Y-58579400D02*
X21111000Y-58579400D01*
X9065200Y-59254800D02*
X9859272Y-59254800D01*
X18063000Y-58579400D02*
X18190000Y-58452400D01*
X29239000Y-58579400D02*
X29493000Y-58579400D01*
X41983128Y-56052400D02*
X43256873Y-56052400D01*
X21492000Y-58452400D02*
X21619000Y-58579400D01*
X10256872Y-59652400D02*
X11383128Y-59652400D01*
X25302000Y-58452400D02*
X25429000Y-58579400D01*
X9859272Y-59254800D02*
X10256872Y-59652400D01*
X16920000Y-58452400D02*
X17047000Y-58579400D01*
X27715000Y-58579400D02*
X27969000Y-58579400D01*
X21238000Y-58452400D02*
X21492000Y-58452400D01*
X8620000Y-59700000D02*
X9065200Y-59254800D01*
X20476000Y-58452400D02*
X20730000Y-58452400D01*
X19714000Y-58452400D02*
X19968000Y-58452400D01*
X18444000Y-58452400D02*
X18571000Y-58579400D01*
X25429000Y-58579400D02*
X25683000Y-58579400D01*
X17682000Y-58452400D02*
X17809000Y-58579400D01*
X11383128Y-59652400D02*
X11783128Y-59252400D01*
X12856872Y-59252400D02*
X13256872Y-59652400D01*
X19206000Y-58452400D02*
X19333000Y-58579400D01*
X23905000Y-58579400D02*
X24159000Y-58579400D01*
X15183128Y-59652400D02*
X16383128Y-58452400D01*
X18825000Y-58579400D02*
X18952000Y-58452400D01*
X20095000Y-58579400D02*
X20349000Y-58579400D01*
X27588000Y-58452400D02*
X27715000Y-58579400D01*
X23778000Y-58452400D02*
X23905000Y-58579400D01*
X17301000Y-58579400D02*
X17428000Y-58452400D01*
X21873000Y-58579400D02*
X22000000Y-58452400D01*
X18952000Y-58452400D02*
X19206000Y-58452400D01*
X20349000Y-58579400D02*
X20476000Y-58452400D01*
X17428000Y-58452400D02*
X17682000Y-58452400D01*
X28731000Y-58579400D02*
X28858000Y-58452400D01*
X20730000Y-58452400D02*
X20857000Y-58579400D01*
X19968000Y-58452400D02*
X20095000Y-58579400D01*
X18571000Y-58579400D02*
X18825000Y-58579400D01*
X25683000Y-58579400D02*
X25810000Y-58452400D01*
X17809000Y-58579400D02*
X18063000Y-58579400D01*
X22000000Y-58452400D02*
X22254000Y-58452400D01*
X29493000Y-58579400D02*
X29620000Y-58452400D01*
X22254000Y-58452400D02*
X22381000Y-58579400D01*
X22381000Y-58579400D02*
X22635000Y-58579400D01*
X22635000Y-58579400D02*
X22762000Y-58452400D01*
X22762000Y-58452400D02*
X23016000Y-58452400D01*
X39583128Y-58452400D02*
X41983128Y-56052400D01*
X23016000Y-58452400D02*
X23143000Y-58579400D01*
X23143000Y-58579400D02*
X23397000Y-58579400D01*
X23397000Y-58579400D02*
X23524000Y-58452400D01*
X23524000Y-58452400D02*
X23778000Y-58452400D01*
X24159000Y-58579400D02*
X24286000Y-58452400D01*
X24286000Y-58452400D02*
X24540000Y-58452400D01*
X24540000Y-58452400D02*
X24667000Y-58579400D01*
X24921000Y-58579400D02*
X25048000Y-58452400D01*
X24667000Y-58579400D02*
X24921000Y-58579400D01*
X28858000Y-58452400D02*
X29112000Y-58452400D01*
X43256873Y-56052400D02*
X43915716Y-56711243D01*
X25048000Y-58452400D02*
X25302000Y-58452400D01*
X25810000Y-58452400D02*
X26064000Y-58452400D01*
X26064000Y-58452400D02*
X26191000Y-58579400D01*
X26191000Y-58579400D02*
X26445000Y-58579400D01*
X26445000Y-58579400D02*
X26572000Y-58452400D01*
X26572000Y-58452400D02*
X26826000Y-58452400D01*
X27969000Y-58579400D02*
X28096000Y-58452400D01*
X18190000Y-58452400D02*
X18444000Y-58452400D01*
X28096000Y-58452400D02*
X28350000Y-58452400D01*
X28350000Y-58452400D02*
X28477000Y-58579400D01*
%TO.N,/sas3/R0+*%
X31331243Y-56495716D02*
X30583127Y-55747600D01*
X31524284Y-56495716D02*
X31331243Y-56495716D01*
X30583127Y-55747600D02*
X7056872Y-55747600D01*
X7056872Y-55747600D02*
X5767600Y-57036872D01*
X5767600Y-57786873D02*
X4604473Y-58950000D01*
X5767600Y-57036872D02*
X5767600Y-57786873D01*
X4604473Y-58950000D02*
X3420000Y-58950000D01*
%TO.N,/sas3/R0-*%
X31115716Y-56711243D02*
X31115716Y-56904284D01*
X18134000Y-56052400D02*
X30456873Y-56052400D01*
X18007000Y-56179400D02*
X18134000Y-56052400D01*
X17753000Y-56179400D02*
X18007000Y-56179400D01*
X17626000Y-56052400D02*
X17753000Y-56179400D01*
X17372000Y-56052400D02*
X17626000Y-56052400D01*
X16991000Y-56179400D02*
X17245000Y-56179400D01*
X16864000Y-56052400D02*
X16991000Y-56179400D01*
X16610000Y-56052400D02*
X16864000Y-56052400D01*
X16229000Y-56179400D02*
X16483000Y-56179400D01*
X16102000Y-56052400D02*
X16229000Y-56179400D01*
X15721000Y-56179400D02*
X15848000Y-56052400D01*
X15467000Y-56179400D02*
X15721000Y-56179400D01*
X14959000Y-56179400D02*
X15086000Y-56052400D01*
X14705000Y-56179400D02*
X14959000Y-56179400D01*
X14578000Y-56052400D02*
X14705000Y-56179400D01*
X14324000Y-56052400D02*
X14578000Y-56052400D01*
X14197000Y-56179400D02*
X14324000Y-56052400D01*
X13943000Y-56179400D02*
X14197000Y-56179400D01*
X13816000Y-56052400D02*
X13943000Y-56179400D01*
X13562000Y-56052400D02*
X13816000Y-56052400D01*
X9244000Y-56052400D02*
X9371000Y-56179400D01*
X9625000Y-56179400D02*
X9752000Y-56052400D01*
X10387000Y-56179400D02*
X10514000Y-56052400D01*
X16483000Y-56179400D02*
X16610000Y-56052400D01*
X8990000Y-56052400D02*
X9244000Y-56052400D01*
X9371000Y-56179400D02*
X9625000Y-56179400D01*
X10133000Y-56179400D02*
X10387000Y-56179400D01*
X8609000Y-56179400D02*
X8863000Y-56179400D01*
X8482000Y-56052400D02*
X8609000Y-56179400D01*
X9752000Y-56052400D02*
X10006000Y-56052400D01*
X15086000Y-56052400D02*
X15340000Y-56052400D01*
X8863000Y-56179400D02*
X8990000Y-56052400D01*
X13054000Y-56052400D02*
X13181000Y-56179400D01*
X11911000Y-56179400D02*
X12038000Y-56052400D01*
X10514000Y-56052400D02*
X10768000Y-56052400D01*
X6072400Y-57163128D02*
X7183128Y-56052400D01*
X30456873Y-56052400D02*
X31115716Y-56711243D01*
X15848000Y-56052400D02*
X16102000Y-56052400D01*
X7183128Y-56052400D02*
X7720000Y-56052400D01*
X10768000Y-56052400D02*
X10895000Y-56179400D01*
X8228000Y-56052400D02*
X8482000Y-56052400D01*
X11149000Y-56179400D02*
X11276000Y-56052400D01*
X17245000Y-56179400D02*
X17372000Y-56052400D01*
X6072400Y-57913127D02*
X6072400Y-57163128D01*
X15340000Y-56052400D02*
X15467000Y-56179400D01*
X7720000Y-56052400D02*
X7847000Y-56179400D01*
X4820000Y-59700000D02*
X4820000Y-59165527D01*
X13435000Y-56179400D02*
X13562000Y-56052400D01*
X8101000Y-56179400D02*
X8228000Y-56052400D01*
X10895000Y-56179400D02*
X11149000Y-56179400D01*
X11276000Y-56052400D02*
X11530000Y-56052400D01*
X11530000Y-56052400D02*
X11657000Y-56179400D01*
X11657000Y-56179400D02*
X11911000Y-56179400D01*
X12038000Y-56052400D02*
X12292000Y-56052400D01*
X7847000Y-56179400D02*
X8101000Y-56179400D01*
X12292000Y-56052400D02*
X12419000Y-56179400D01*
X4820000Y-59165527D02*
X6072400Y-57913127D01*
X12419000Y-56179400D02*
X12673000Y-56179400D01*
X12673000Y-56179400D02*
X12800000Y-56052400D01*
X12800000Y-56052400D02*
X13054000Y-56052400D01*
X10006000Y-56052400D02*
X10133000Y-56179400D01*
X13181000Y-56179400D02*
X13435000Y-56179400D01*
%TD*%
M02*
