%TF.GenerationSoftware,KiCad,Pcbnew,5.0.2-bee76a0~70~ubuntu18.10.1*%
%TF.CreationDate,2019-01-14T09:07:37-07:00*%
%TF.ProjectId,thelio-io,7468656c-696f-42d6-996f-2e6b69636164,rev?*%
%TF.SameCoordinates,Original*%
%TF.FileFunction,Paste,Top*%
%TF.FilePolarity,Positive*%
%FSLAX46Y46*%
G04 Gerber Fmt 4.6, Leading zero omitted, Abs format (unit mm)*
G04 Created by KiCad (PCBNEW 5.0.2-bee76a0~70~ubuntu18.10.1) date Mon Jan 14 09:07:37 2019*
%MOMM*%
%LPD*%
G01*
G04 APERTURE LIST*
%ADD10C,0.200000*%
%ADD11C,0.150000*%
%ADD12C,0.350000*%
%ADD13C,0.875000*%
%ADD14R,2.500000X1.900000*%
%ADD15R,0.600000X3.800000*%
G04 APERTURE END LIST*
D10*
X77050000Y-53400000D02*
G75*
G02X75450000Y-55000000I-1600000J0D01*
G01*
X73850000Y-55000000D02*
X75450000Y-55000000D01*
X73850000Y-16800000D02*
X75450000Y-16800000D01*
X75450000Y-16800000D02*
G75*
G02X77050000Y-18400000I0J-1600000D01*
G01*
X77050000Y-18400000D02*
X77050000Y-53400000D01*
X-3200000Y-18400000D02*
G75*
G02X-1600000Y-16800000I1600000J0D01*
G01*
X-3200000Y-53400000D02*
X-3200000Y-18400000D01*
X-1600000Y-55000000D02*
G75*
G02X-3200000Y-53400000I0J1600000D01*
G01*
X0Y-55000000D02*
X-1600000Y-55000000D01*
X0Y-16800000D02*
X-1600000Y-16800000D01*
X0Y-55000000D02*
X0Y-68600000D01*
X0Y-16800000D02*
X0Y-3200000D01*
X73850000Y-55000000D02*
X73850000Y-68600000D01*
X73850000Y-16800000D02*
X73850000Y-3200000D01*
D11*
X73850000Y-68600000D02*
G75*
G02X70650000Y-71800000I-3200000J0D01*
G01*
D10*
X3200000Y-71800000D02*
G75*
G02X0Y-68600000I0J3200000D01*
G01*
X70650000Y-71800000D02*
X3200000Y-71800000D01*
X0Y-3200000D02*
G75*
G02X3200000Y0I3200000J0D01*
G01*
X70650000Y0D02*
G75*
G02X73850000Y-3200000I0J-3200000D01*
G01*
X3200000Y0D02*
X70650000Y0D01*
D12*
%TO.C,C1*%
G36*
X1277691Y-41288553D02*
X1298926Y-41291703D01*
X1319750Y-41296919D01*
X1339962Y-41304151D01*
X1359368Y-41313330D01*
X1377781Y-41324366D01*
X1395024Y-41337154D01*
X1410930Y-41351570D01*
X1425346Y-41367476D01*
X1438134Y-41384719D01*
X1449170Y-41403132D01*
X1458349Y-41422538D01*
X1465581Y-41442750D01*
X1470797Y-41463574D01*
X1473947Y-41484809D01*
X1475000Y-41506250D01*
X1475000Y-41943750D01*
X1473947Y-41965191D01*
X1470797Y-41986426D01*
X1465581Y-42007250D01*
X1458349Y-42027462D01*
X1449170Y-42046868D01*
X1438134Y-42065281D01*
X1425346Y-42082524D01*
X1410930Y-42098430D01*
X1395024Y-42112846D01*
X1377781Y-42125634D01*
X1359368Y-42136670D01*
X1339962Y-42145849D01*
X1319750Y-42153081D01*
X1298926Y-42158297D01*
X1277691Y-42161447D01*
X1256250Y-42162500D01*
X743750Y-42162500D01*
X722309Y-42161447D01*
X701074Y-42158297D01*
X680250Y-42153081D01*
X660038Y-42145849D01*
X640632Y-42136670D01*
X622219Y-42125634D01*
X604976Y-42112846D01*
X589070Y-42098430D01*
X574654Y-42082524D01*
X561866Y-42065281D01*
X550830Y-42046868D01*
X541651Y-42027462D01*
X534419Y-42007250D01*
X529203Y-41986426D01*
X526053Y-41965191D01*
X525000Y-41943750D01*
X525000Y-41506250D01*
X526053Y-41484809D01*
X529203Y-41463574D01*
X534419Y-41442750D01*
X541651Y-41422538D01*
X550830Y-41403132D01*
X561866Y-41384719D01*
X574654Y-41367476D01*
X589070Y-41351570D01*
X604976Y-41337154D01*
X622219Y-41324366D01*
X640632Y-41313330D01*
X660038Y-41304151D01*
X680250Y-41296919D01*
X701074Y-41291703D01*
X722309Y-41288553D01*
X743750Y-41287500D01*
X1256250Y-41287500D01*
X1277691Y-41288553D01*
X1277691Y-41288553D01*
G37*
D13*
X1000000Y-41725000D03*
D12*
G36*
X1277691Y-39713553D02*
X1298926Y-39716703D01*
X1319750Y-39721919D01*
X1339962Y-39729151D01*
X1359368Y-39738330D01*
X1377781Y-39749366D01*
X1395024Y-39762154D01*
X1410930Y-39776570D01*
X1425346Y-39792476D01*
X1438134Y-39809719D01*
X1449170Y-39828132D01*
X1458349Y-39847538D01*
X1465581Y-39867750D01*
X1470797Y-39888574D01*
X1473947Y-39909809D01*
X1475000Y-39931250D01*
X1475000Y-40368750D01*
X1473947Y-40390191D01*
X1470797Y-40411426D01*
X1465581Y-40432250D01*
X1458349Y-40452462D01*
X1449170Y-40471868D01*
X1438134Y-40490281D01*
X1425346Y-40507524D01*
X1410930Y-40523430D01*
X1395024Y-40537846D01*
X1377781Y-40550634D01*
X1359368Y-40561670D01*
X1339962Y-40570849D01*
X1319750Y-40578081D01*
X1298926Y-40583297D01*
X1277691Y-40586447D01*
X1256250Y-40587500D01*
X743750Y-40587500D01*
X722309Y-40586447D01*
X701074Y-40583297D01*
X680250Y-40578081D01*
X660038Y-40570849D01*
X640632Y-40561670D01*
X622219Y-40550634D01*
X604976Y-40537846D01*
X589070Y-40523430D01*
X574654Y-40507524D01*
X561866Y-40490281D01*
X550830Y-40471868D01*
X541651Y-40452462D01*
X534419Y-40432250D01*
X529203Y-40411426D01*
X526053Y-40390191D01*
X525000Y-40368750D01*
X525000Y-39931250D01*
X526053Y-39909809D01*
X529203Y-39888574D01*
X534419Y-39867750D01*
X541651Y-39847538D01*
X550830Y-39828132D01*
X561866Y-39809719D01*
X574654Y-39792476D01*
X589070Y-39776570D01*
X604976Y-39762154D01*
X622219Y-39749366D01*
X640632Y-39738330D01*
X660038Y-39729151D01*
X680250Y-39721919D01*
X701074Y-39716703D01*
X722309Y-39713553D01*
X743750Y-39712500D01*
X1256250Y-39712500D01*
X1277691Y-39713553D01*
X1277691Y-39713553D01*
G37*
D13*
X1000000Y-40150000D03*
%TD*%
D12*
%TO.C,C2*%
G36*
X1277691Y-36538553D02*
X1298926Y-36541703D01*
X1319750Y-36546919D01*
X1339962Y-36554151D01*
X1359368Y-36563330D01*
X1377781Y-36574366D01*
X1395024Y-36587154D01*
X1410930Y-36601570D01*
X1425346Y-36617476D01*
X1438134Y-36634719D01*
X1449170Y-36653132D01*
X1458349Y-36672538D01*
X1465581Y-36692750D01*
X1470797Y-36713574D01*
X1473947Y-36734809D01*
X1475000Y-36756250D01*
X1475000Y-37193750D01*
X1473947Y-37215191D01*
X1470797Y-37236426D01*
X1465581Y-37257250D01*
X1458349Y-37277462D01*
X1449170Y-37296868D01*
X1438134Y-37315281D01*
X1425346Y-37332524D01*
X1410930Y-37348430D01*
X1395024Y-37362846D01*
X1377781Y-37375634D01*
X1359368Y-37386670D01*
X1339962Y-37395849D01*
X1319750Y-37403081D01*
X1298926Y-37408297D01*
X1277691Y-37411447D01*
X1256250Y-37412500D01*
X743750Y-37412500D01*
X722309Y-37411447D01*
X701074Y-37408297D01*
X680250Y-37403081D01*
X660038Y-37395849D01*
X640632Y-37386670D01*
X622219Y-37375634D01*
X604976Y-37362846D01*
X589070Y-37348430D01*
X574654Y-37332524D01*
X561866Y-37315281D01*
X550830Y-37296868D01*
X541651Y-37277462D01*
X534419Y-37257250D01*
X529203Y-37236426D01*
X526053Y-37215191D01*
X525000Y-37193750D01*
X525000Y-36756250D01*
X526053Y-36734809D01*
X529203Y-36713574D01*
X534419Y-36692750D01*
X541651Y-36672538D01*
X550830Y-36653132D01*
X561866Y-36634719D01*
X574654Y-36617476D01*
X589070Y-36601570D01*
X604976Y-36587154D01*
X622219Y-36574366D01*
X640632Y-36563330D01*
X660038Y-36554151D01*
X680250Y-36546919D01*
X701074Y-36541703D01*
X722309Y-36538553D01*
X743750Y-36537500D01*
X1256250Y-36537500D01*
X1277691Y-36538553D01*
X1277691Y-36538553D01*
G37*
D13*
X1000000Y-36975000D03*
D12*
G36*
X1277691Y-38113553D02*
X1298926Y-38116703D01*
X1319750Y-38121919D01*
X1339962Y-38129151D01*
X1359368Y-38138330D01*
X1377781Y-38149366D01*
X1395024Y-38162154D01*
X1410930Y-38176570D01*
X1425346Y-38192476D01*
X1438134Y-38209719D01*
X1449170Y-38228132D01*
X1458349Y-38247538D01*
X1465581Y-38267750D01*
X1470797Y-38288574D01*
X1473947Y-38309809D01*
X1475000Y-38331250D01*
X1475000Y-38768750D01*
X1473947Y-38790191D01*
X1470797Y-38811426D01*
X1465581Y-38832250D01*
X1458349Y-38852462D01*
X1449170Y-38871868D01*
X1438134Y-38890281D01*
X1425346Y-38907524D01*
X1410930Y-38923430D01*
X1395024Y-38937846D01*
X1377781Y-38950634D01*
X1359368Y-38961670D01*
X1339962Y-38970849D01*
X1319750Y-38978081D01*
X1298926Y-38983297D01*
X1277691Y-38986447D01*
X1256250Y-38987500D01*
X743750Y-38987500D01*
X722309Y-38986447D01*
X701074Y-38983297D01*
X680250Y-38978081D01*
X660038Y-38970849D01*
X640632Y-38961670D01*
X622219Y-38950634D01*
X604976Y-38937846D01*
X589070Y-38923430D01*
X574654Y-38907524D01*
X561866Y-38890281D01*
X550830Y-38871868D01*
X541651Y-38852462D01*
X534419Y-38832250D01*
X529203Y-38811426D01*
X526053Y-38790191D01*
X525000Y-38768750D01*
X525000Y-38331250D01*
X526053Y-38309809D01*
X529203Y-38288574D01*
X534419Y-38267750D01*
X541651Y-38247538D01*
X550830Y-38228132D01*
X561866Y-38209719D01*
X574654Y-38192476D01*
X589070Y-38176570D01*
X604976Y-38162154D01*
X622219Y-38149366D01*
X640632Y-38138330D01*
X660038Y-38129151D01*
X680250Y-38121919D01*
X701074Y-38116703D01*
X722309Y-38113553D01*
X743750Y-38112500D01*
X1256250Y-38112500D01*
X1277691Y-38113553D01*
X1277691Y-38113553D01*
G37*
D13*
X1000000Y-38550000D03*
%TD*%
D14*
%TO.C,Y0*%
X5800000Y-37150000D03*
X5800000Y-41550000D03*
%TD*%
D15*
%TO.C,SATA3*%
X57850000Y-59650000D03*
X56580000Y-59650000D03*
X55310000Y-59650000D03*
X54040000Y-59650000D03*
X52770000Y-59650000D03*
X51500000Y-59650000D03*
X50230000Y-59650000D03*
X48960000Y-59650000D03*
X47690000Y-59650000D03*
X46420000Y-59650000D03*
X45150000Y-59650000D03*
X43880000Y-59650000D03*
X42610000Y-59650000D03*
X41340000Y-59650000D03*
X40070000Y-59650000D03*
X33720000Y-59650000D03*
X32450000Y-59650000D03*
X31180000Y-59650000D03*
X29910000Y-59650000D03*
X28640000Y-59650000D03*
X27370000Y-59650000D03*
X26100000Y-59650000D03*
%TD*%
%TO.C,SATA2*%
X57850000Y-43650000D03*
X56580000Y-43650000D03*
X55310000Y-43650000D03*
X54040000Y-43650000D03*
X52770000Y-43650000D03*
X51500000Y-43650000D03*
X50230000Y-43650000D03*
X48960000Y-43650000D03*
X47690000Y-43650000D03*
X46420000Y-43650000D03*
X45150000Y-43650000D03*
X43880000Y-43650000D03*
X42610000Y-43650000D03*
X41340000Y-43650000D03*
X40070000Y-43650000D03*
X33720000Y-43650000D03*
X32450000Y-43650000D03*
X31180000Y-43650000D03*
X29910000Y-43650000D03*
X28640000Y-43650000D03*
X27370000Y-43650000D03*
X26100000Y-43650000D03*
%TD*%
%TO.C,SATA1*%
X57850000Y-27650000D03*
X56580000Y-27650000D03*
X55310000Y-27650000D03*
X54040000Y-27650000D03*
X52770000Y-27650000D03*
X51500000Y-27650000D03*
X50230000Y-27650000D03*
X48960000Y-27650000D03*
X47690000Y-27650000D03*
X46420000Y-27650000D03*
X45150000Y-27650000D03*
X43880000Y-27650000D03*
X42610000Y-27650000D03*
X41340000Y-27650000D03*
X40070000Y-27650000D03*
X33720000Y-27650000D03*
X32450000Y-27650000D03*
X31180000Y-27650000D03*
X29910000Y-27650000D03*
X28640000Y-27650000D03*
X27370000Y-27650000D03*
X26100000Y-27650000D03*
%TD*%
%TO.C,SATA0*%
X57850000Y-11650000D03*
X56580000Y-11650000D03*
X55310000Y-11650000D03*
X54040000Y-11650000D03*
X52770000Y-11650000D03*
X51500000Y-11650000D03*
X50230000Y-11650000D03*
X48960000Y-11650000D03*
X47690000Y-11650000D03*
X46420000Y-11650000D03*
X45150000Y-11650000D03*
X43880000Y-11650000D03*
X42610000Y-11650000D03*
X41340000Y-11650000D03*
X40070000Y-11650000D03*
X33720000Y-11650000D03*
X32450000Y-11650000D03*
X31180000Y-11650000D03*
X29910000Y-11650000D03*
X28640000Y-11650000D03*
X27370000Y-11650000D03*
X26100000Y-11650000D03*
%TD*%
M02*
