%TF.GenerationSoftware,KiCad,Pcbnew,6.0.0-rc1-unknown-51473d9~66~ubuntu18.04.1*%
%TF.CreationDate,2018-10-04T17:45:44-06:00*%
%TF.ProjectId,thelio-io,7468656C696F2D696F2E6B696361645F,rev?*%
%TF.SameCoordinates,Original*%
%TF.FileFunction,Copper,L3,Inr,Plane*%
%TF.FilePolarity,Positive*%
%FSLAX46Y46*%
G04 Gerber Fmt 4.6, Leading zero omitted, Abs format (unit mm)*
G04 Created by KiCad (PCBNEW 6.0.0-rc1-unknown-51473d9~66~ubuntu18.04.1) date Thu Oct  4 17:45:44 2018*
%MOMM*%
%LPD*%
G01*
G04 APERTURE LIST*
%TA.AperFunction,NonConductor*%
%ADD10C,0.200000*%
%TD*%
%TA.AperFunction,NonConductor*%
%ADD11C,0.150000*%
%TD*%
%TA.AperFunction,ViaPad*%
%ADD12O,1.730000X2.030000*%
%TD*%
%TA.AperFunction,ViaPad*%
%ADD13R,1.730000X2.030000*%
%TD*%
%TA.AperFunction,ViaPad*%
%ADD14O,1.700000X1.700000*%
%TD*%
%TA.AperFunction,ViaPad*%
%ADD15R,1.700000X1.700000*%
%TD*%
%TA.AperFunction,ViaPad*%
%ADD16C,0.800000*%
%TD*%
%TA.AperFunction,Conductor*%
%ADD17C,0.254000*%
%TD*%
G04 APERTURE END LIST*
D10*
X77050000Y-53400000D02*
G75*
G02X75450000Y-55000000I-1600000J0D01*
G01*
X73850000Y-55000000D02*
X75450000Y-55000000D01*
X73850000Y-16800000D02*
X75450000Y-16800000D01*
X75450000Y-16800000D02*
G75*
G02X77050000Y-18400000I0J-1600000D01*
G01*
X77050000Y-18400000D02*
X77050000Y-53400000D01*
X-3200000Y-18400000D02*
G75*
G02X-1600000Y-16800000I1600000J0D01*
G01*
X-3200000Y-53400000D02*
X-3200000Y-18400000D01*
X-1600000Y-55000000D02*
G75*
G02X-3200000Y-53400000I0J1600000D01*
G01*
X0Y-55000000D02*
X-1600000Y-55000000D01*
X0Y-16800000D02*
X-1600000Y-16800000D01*
X0Y-55000000D02*
X0Y-68600000D01*
X0Y-16800000D02*
X0Y-3200000D01*
X73850000Y-55000000D02*
X73850000Y-68600000D01*
X73850000Y-16800000D02*
X73850000Y-3200000D01*
D11*
X73850000Y-68600000D02*
G75*
G02X70650000Y-71800000I-3200000J0D01*
G01*
D10*
X3200000Y-71800000D02*
G75*
G02X0Y-68600000I0J3200000D01*
G01*
X70650000Y-71800000D02*
X3200000Y-71800000D01*
X0Y-3200000D02*
G75*
G02X3200000Y0I3200000J0D01*
G01*
X70650000Y0D02*
G75*
G02X73850000Y-3200000I0J-3200000D01*
G01*
X3200000Y0D02*
X70650000Y0D01*
D12*
%TO.N,+5V*%
%TO.C,POWER0*%
X60960000Y-67990000D03*
%TO.N,GND*%
X63460000Y-67990000D03*
X65960000Y-67990000D03*
D13*
%TO.N,+12V*%
X68460000Y-67990000D03*
%TD*%
D14*
%TO.N,GND*%
%TO.C,USB0*%
X8890000Y-65450000D03*
%TO.N,Net-(R0-Pad1)*%
X11430000Y-65450000D03*
%TO.N,Net-(R1-Pad1)*%
X13970000Y-65450000D03*
D15*
%TO.N,VCC*%
X16510000Y-65450000D03*
%TD*%
D12*
%TO.N,Net-(CPUMUX0-Pad5)*%
%TO.C,CPUOUT0*%
X38100000Y-67990000D03*
%TO.N,ADC4*%
X40640000Y-67990000D03*
%TO.N,+12V*%
X43180000Y-67990000D03*
D13*
%TO.N,GND*%
X45720000Y-67990000D03*
%TD*%
D14*
%TO.N,ADC0*%
%TO.C,PMB0*%
X11430000Y-69260000D03*
%TO.N,Net-(PMB0-Pad3)*%
X8890000Y-69260000D03*
%TO.N,PB4*%
X6350000Y-69260000D03*
D15*
%TO.N,GND*%
X3810000Y-69260000D03*
%TD*%
D12*
%TO.N,Net-(CPUIN0-Pad4)*%
%TO.C,CPUIN0*%
X26670000Y-67990000D03*
%TO.N,ADC4*%
X29210000Y-67990000D03*
%TO.N,Net-(CPUIN0-Pad2)*%
X31750000Y-67990000D03*
D13*
%TO.N,GND*%
X34290000Y-67990000D03*
%TD*%
D12*
%TO.N,OC1B*%
%TO.C,INTAKE0*%
X49530000Y-67990000D03*
%TO.N,ADC5*%
X52070000Y-67990000D03*
%TO.N,+12V*%
X54610000Y-67990000D03*
D13*
%TO.N,GND*%
X57150000Y-67990000D03*
%TD*%
D14*
%TO.N,Net-(PFP0-Pad4)*%
%TO.C,PFP0*%
X22860000Y-69260000D03*
%TO.N,GND*%
X20320000Y-69260000D03*
%TO.N,ADC1*%
X17780000Y-69260000D03*
D15*
%TO.N,GND*%
X15240000Y-69260000D03*
%TD*%
D16*
%TO.N,Net-(AVR0-Pad17)*%
X3400000Y-38549998D03*
%TO.N,Net-(AVR0-Pad16)*%
X3400000Y-40150000D03*
%TO.N,Net-(CPUIN0-Pad4)*%
X17775000Y-56180000D03*
%TO.N,Net-(DATA2-Pad7)*%
X26100000Y-41110000D03*
%TO.N,Net-(DATA2-Pad6)*%
X27370000Y-41110000D03*
%TO.N,Net-(DATA2-Pad5)*%
X28640000Y-41110000D03*
%TO.N,Net-(DATA2-Pad4)*%
X29910000Y-41110000D03*
%TO.N,Net-(DATA2-Pad3)*%
X31180000Y-41110000D03*
%TO.N,Net-(DATA2-Pad2)*%
X32450000Y-41110000D03*
%TO.N,Net-(DATA2-Pad1)*%
X33720000Y-41110000D03*
%TO.N,Net-(DATA3-Pad7)*%
X26100000Y-57110000D03*
%TO.N,Net-(DATA3-Pad6)*%
X27370000Y-57110000D03*
%TO.N,Net-(DATA3-Pad5)*%
X28640000Y-57110000D03*
%TO.N,Net-(DATA3-Pad4)*%
X29910000Y-57110000D03*
%TO.N,Net-(DATA3-Pad3)*%
X31180000Y-57110000D03*
%TO.N,Net-(DATA3-Pad2)*%
X32450000Y-57110000D03*
%TO.N,Net-(DATA3-Pad1)*%
X33720000Y-57110000D03*
%TO.N,Net-(DATA0-Pad7)*%
X26100000Y-9110000D03*
%TO.N,Net-(DATA0-Pad6)*%
X27370000Y-9110000D03*
%TO.N,Net-(DATA0-Pad5)*%
X28640000Y-9110000D03*
%TO.N,Net-(DATA0-Pad4)*%
X29910000Y-9110000D03*
%TO.N,Net-(DATA0-Pad3)*%
X31180000Y-9110000D03*
%TO.N,Net-(DATA0-Pad2)*%
X32450000Y-9110000D03*
%TO.N,Net-(DATA0-Pad1)*%
X33720000Y-9110000D03*
%TO.N,Net-(DATA1-Pad7)*%
X26100000Y-25110000D03*
%TO.N,Net-(DATA1-Pad6)*%
X27370000Y-25110000D03*
%TO.N,Net-(DATA1-Pad5)*%
X28640000Y-25110000D03*
%TO.N,Net-(DATA1-Pad4)*%
X29910000Y-25110000D03*
%TO.N,Net-(DATA1-Pad3)*%
X31180000Y-25110000D03*
%TO.N,Net-(DATA1-Pad2)*%
X32450000Y-25110000D03*
%TO.N,Net-(DATA1-Pad1)*%
X33720000Y-25110000D03*
%TO.N,OC1B*%
X25400000Y-48940000D03*
X13900000Y-30050000D03*
%TO.N,OC1A*%
X15975000Y-56079994D03*
X13100000Y-29250000D03*
%TO.N,Net-(CPUMUX0-Pad5)*%
X13970000Y-51480000D03*
X22860000Y-51480000D03*
%TO.N,VCC*%
X18000000Y-43350000D03*
X7507115Y-31657115D03*
X17775000Y-50680000D03*
X13900000Y-46250000D03*
X2600000Y-42150000D03*
X9900000Y-47050000D03*
X18000000Y-34550000D03*
X20245000Y-21000000D03*
%TO.N,GND*%
X18000000Y-42150000D03*
X18000000Y-35750000D03*
X6300000Y-31650000D03*
X16975000Y-49980000D03*
X2600000Y-40950000D03*
X14475000Y-56080000D03*
X11500000Y-50250000D03*
X5200000Y-25450000D03*
X20245000Y-15920000D03*
X43880000Y-9110000D03*
X45150000Y-9110000D03*
X46420000Y-9110000D03*
X54040000Y-62190000D03*
X52770000Y-62190000D03*
X51500000Y-62190000D03*
%TO.N,MISO*%
X6700000Y-47050000D03*
X10115012Y-21000000D03*
%TO.N,MOSI*%
X7499984Y-46250000D03*
X20245000Y-18460000D03*
%TO.N,SCLK*%
X8300000Y-47050000D03*
X11500000Y-25450000D03*
%TO.N,OC4A*%
X21590000Y-50210000D03*
X13899976Y-31650000D03*
%TO.N,PB4*%
X12300000Y-28450000D03*
%TO.N,RST*%
X3400000Y-43750022D03*
X10115000Y-15920000D03*
%TO.N,+12V*%
X57850000Y-62190000D03*
X56580000Y-62190000D03*
X55310000Y-62190000D03*
%TD*%
D17*
%TO.N,+12V*%
G36*
X71195092Y-800751D02*
X71713100Y-981140D01*
X72178266Y-1271808D01*
X72567474Y-1658308D01*
X72861386Y-2121438D01*
X73045383Y-2638164D01*
X73115001Y-3221993D01*
X73115000Y-16727612D01*
X73100601Y-16800000D01*
X73157646Y-17086783D01*
X73267161Y-17250683D01*
X73320095Y-17329905D01*
X73563217Y-17492354D01*
X73723000Y-17524137D01*
X73723000Y-54275863D01*
X73563217Y-54307646D01*
X73320095Y-54470095D01*
X73157646Y-54713217D01*
X73100601Y-55000000D01*
X73115000Y-55072388D01*
X73115001Y-68672388D01*
X73122947Y-68712336D01*
X73073780Y-69150669D01*
X72891548Y-69673969D01*
X72597909Y-70143890D01*
X72207451Y-70537083D01*
X71739593Y-70833995D01*
X71217576Y-71019877D01*
X70766155Y-71073706D01*
X70722388Y-71065000D01*
X36127000Y-71065000D01*
X36127000Y-67692268D01*
X36600000Y-67692268D01*
X36600000Y-68287733D01*
X36687032Y-68725271D01*
X37018561Y-69221439D01*
X37514730Y-69552968D01*
X38100000Y-69669386D01*
X38685271Y-69552968D01*
X39181439Y-69221439D01*
X39370000Y-68939237D01*
X39558561Y-69221439D01*
X40054730Y-69552968D01*
X40640000Y-69669386D01*
X41225271Y-69552968D01*
X41721439Y-69221439D01*
X41913929Y-68933357D01*
X42279143Y-69340793D01*
X42807240Y-69594131D01*
X42820754Y-69596346D01*
X43053000Y-69475224D01*
X43053000Y-68117000D01*
X43033000Y-68117000D01*
X43033000Y-67863000D01*
X43053000Y-67863000D01*
X43053000Y-66504776D01*
X43307000Y-66504776D01*
X43307000Y-67863000D01*
X43327000Y-67863000D01*
X43327000Y-68117000D01*
X43307000Y-68117000D01*
X43307000Y-69475224D01*
X43539246Y-69596346D01*
X43552760Y-69594131D01*
X44080857Y-69340793D01*
X44239213Y-69164130D01*
X44256843Y-69252765D01*
X44397191Y-69462809D01*
X44607235Y-69603157D01*
X44855000Y-69652440D01*
X46585000Y-69652440D01*
X46832765Y-69603157D01*
X47042809Y-69462809D01*
X47183157Y-69252765D01*
X47232440Y-69005000D01*
X47232440Y-67692268D01*
X48030000Y-67692268D01*
X48030000Y-68287733D01*
X48117032Y-68725271D01*
X48448561Y-69221439D01*
X48944730Y-69552968D01*
X49530000Y-69669386D01*
X50115271Y-69552968D01*
X50611439Y-69221439D01*
X50800000Y-68939237D01*
X50988561Y-69221439D01*
X51484730Y-69552968D01*
X52070000Y-69669386D01*
X52655271Y-69552968D01*
X53151439Y-69221439D01*
X53343929Y-68933357D01*
X53709143Y-69340793D01*
X54237240Y-69594131D01*
X54250754Y-69596346D01*
X54483000Y-69475224D01*
X54483000Y-68117000D01*
X54463000Y-68117000D01*
X54463000Y-67863000D01*
X54483000Y-67863000D01*
X54483000Y-66504776D01*
X54737000Y-66504776D01*
X54737000Y-67863000D01*
X54757000Y-67863000D01*
X54757000Y-68117000D01*
X54737000Y-68117000D01*
X54737000Y-69475224D01*
X54969246Y-69596346D01*
X54982760Y-69594131D01*
X55510857Y-69340793D01*
X55669213Y-69164130D01*
X55686843Y-69252765D01*
X55827191Y-69462809D01*
X56037235Y-69603157D01*
X56285000Y-69652440D01*
X58015000Y-69652440D01*
X58262765Y-69603157D01*
X58472809Y-69462809D01*
X58613157Y-69252765D01*
X58662440Y-69005000D01*
X58662440Y-67692268D01*
X59460000Y-67692268D01*
X59460000Y-68287733D01*
X59547032Y-68725271D01*
X59878561Y-69221439D01*
X60374730Y-69552968D01*
X60960000Y-69669386D01*
X61545271Y-69552968D01*
X62041439Y-69221439D01*
X62210000Y-68969169D01*
X62378561Y-69221439D01*
X62874730Y-69552968D01*
X63460000Y-69669386D01*
X64045271Y-69552968D01*
X64541439Y-69221439D01*
X64710000Y-68969169D01*
X64878561Y-69221439D01*
X65374730Y-69552968D01*
X65960000Y-69669386D01*
X66545271Y-69552968D01*
X67006894Y-69244521D01*
X67056673Y-69364698D01*
X67235301Y-69543327D01*
X67468690Y-69640000D01*
X68174250Y-69640000D01*
X68333000Y-69481250D01*
X68333000Y-68117000D01*
X68587000Y-68117000D01*
X68587000Y-69481250D01*
X68745750Y-69640000D01*
X69451310Y-69640000D01*
X69684699Y-69543327D01*
X69863327Y-69364698D01*
X69960000Y-69131309D01*
X69960000Y-68275750D01*
X69801250Y-68117000D01*
X68587000Y-68117000D01*
X68333000Y-68117000D01*
X68313000Y-68117000D01*
X68313000Y-67863000D01*
X68333000Y-67863000D01*
X68333000Y-66498750D01*
X68587000Y-66498750D01*
X68587000Y-67863000D01*
X69801250Y-67863000D01*
X69960000Y-67704250D01*
X69960000Y-66848691D01*
X69863327Y-66615302D01*
X69684699Y-66436673D01*
X69451310Y-66340000D01*
X68745750Y-66340000D01*
X68587000Y-66498750D01*
X68333000Y-66498750D01*
X68174250Y-66340000D01*
X67468690Y-66340000D01*
X67235301Y-66436673D01*
X67056673Y-66615302D01*
X67006894Y-66735479D01*
X66545270Y-66427032D01*
X65960000Y-66310614D01*
X65374729Y-66427032D01*
X64878561Y-66758561D01*
X64710000Y-67010831D01*
X64541439Y-66758561D01*
X64045270Y-66427032D01*
X63460000Y-66310614D01*
X62874729Y-66427032D01*
X62378561Y-66758561D01*
X62210000Y-67010831D01*
X62041439Y-66758561D01*
X61545270Y-66427032D01*
X60960000Y-66310614D01*
X60374729Y-66427032D01*
X59878561Y-66758561D01*
X59547032Y-67254730D01*
X59460000Y-67692268D01*
X58662440Y-67692268D01*
X58662440Y-66975000D01*
X58613157Y-66727235D01*
X58472809Y-66517191D01*
X58262765Y-66376843D01*
X58015000Y-66327560D01*
X56285000Y-66327560D01*
X56037235Y-66376843D01*
X55827191Y-66517191D01*
X55686843Y-66727235D01*
X55669213Y-66815870D01*
X55510857Y-66639207D01*
X54982760Y-66385869D01*
X54969246Y-66383654D01*
X54737000Y-66504776D01*
X54483000Y-66504776D01*
X54250754Y-66383654D01*
X54237240Y-66385869D01*
X53709143Y-66639207D01*
X53343929Y-67046643D01*
X53151439Y-66758561D01*
X52951127Y-66624717D01*
X53074595Y-66501249D01*
X53255000Y-66065711D01*
X53255000Y-65594289D01*
X53074595Y-65158751D01*
X52741249Y-64825405D01*
X52305711Y-64645000D01*
X51834289Y-64645000D01*
X51398751Y-64825405D01*
X51065405Y-65158751D01*
X50885000Y-65594289D01*
X50885000Y-66065711D01*
X51065405Y-66501249D01*
X51188873Y-66624717D01*
X50988561Y-66758561D01*
X50800000Y-67040763D01*
X50611439Y-66758561D01*
X50115270Y-66427032D01*
X49530000Y-66310614D01*
X48944729Y-66427032D01*
X48448561Y-66758561D01*
X48117032Y-67254730D01*
X48030000Y-67692268D01*
X47232440Y-67692268D01*
X47232440Y-66975000D01*
X47183157Y-66727235D01*
X47042809Y-66517191D01*
X46832765Y-66376843D01*
X46585000Y-66327560D01*
X44855000Y-66327560D01*
X44607235Y-66376843D01*
X44397191Y-66517191D01*
X44256843Y-66727235D01*
X44239213Y-66815870D01*
X44080857Y-66639207D01*
X43552760Y-66385869D01*
X43539246Y-66383654D01*
X43307000Y-66504776D01*
X43053000Y-66504776D01*
X42820754Y-66383654D01*
X42807240Y-66385869D01*
X42279143Y-66639207D01*
X41913929Y-67046643D01*
X41721439Y-66758561D01*
X41521127Y-66624717D01*
X41644595Y-66501249D01*
X41825000Y-66065711D01*
X41825000Y-65594289D01*
X41644595Y-65158751D01*
X41311249Y-64825405D01*
X40875711Y-64645000D01*
X40404289Y-64645000D01*
X39968751Y-64825405D01*
X39635405Y-65158751D01*
X39455000Y-65594289D01*
X39455000Y-66065711D01*
X39635405Y-66501249D01*
X39758873Y-66624717D01*
X39558561Y-66758561D01*
X39370000Y-67040763D01*
X39181439Y-66758561D01*
X38685270Y-66427032D01*
X38100000Y-66310614D01*
X37514729Y-66427032D01*
X37018561Y-66758561D01*
X36687032Y-67254730D01*
X36600000Y-67692268D01*
X36127000Y-67692268D01*
X36127000Y-61984126D01*
X50465000Y-61984126D01*
X50465000Y-62395874D01*
X50622569Y-62776280D01*
X50913720Y-63067431D01*
X51294126Y-63225000D01*
X51705874Y-63225000D01*
X52086280Y-63067431D01*
X52135000Y-63018711D01*
X52183720Y-63067431D01*
X52564126Y-63225000D01*
X52975874Y-63225000D01*
X53356280Y-63067431D01*
X53405000Y-63018711D01*
X53453720Y-63067431D01*
X53834126Y-63225000D01*
X54245874Y-63225000D01*
X54626280Y-63067431D01*
X54917431Y-62776280D01*
X55075000Y-62395874D01*
X55075000Y-61984126D01*
X54917431Y-61603720D01*
X54626280Y-61312569D01*
X54245874Y-61155000D01*
X53834126Y-61155000D01*
X53453720Y-61312569D01*
X53405000Y-61361289D01*
X53356280Y-61312569D01*
X52975874Y-61155000D01*
X52564126Y-61155000D01*
X52183720Y-61312569D01*
X52135000Y-61361289D01*
X52086280Y-61312569D01*
X51705874Y-61155000D01*
X51294126Y-61155000D01*
X50913720Y-61312569D01*
X50622569Y-61603720D01*
X50465000Y-61984126D01*
X36127000Y-61984126D01*
X36127000Y-60164833D01*
X58690000Y-60164833D01*
X58690000Y-60835167D01*
X58946526Y-61454476D01*
X59420524Y-61928474D01*
X60039833Y-62185000D01*
X60710167Y-62185000D01*
X61329476Y-61928474D01*
X61803474Y-61454476D01*
X62060000Y-60835167D01*
X62060000Y-60164833D01*
X61803474Y-59545524D01*
X61329476Y-59071526D01*
X60710167Y-58815000D01*
X60039833Y-58815000D01*
X59420524Y-59071526D01*
X58946526Y-59545524D01*
X58690000Y-60164833D01*
X36127000Y-60164833D01*
X36127000Y-56027437D01*
X36340978Y-56070000D01*
X36599022Y-56070000D01*
X36981136Y-55993993D01*
X37414457Y-55704457D01*
X37703993Y-55271136D01*
X37805664Y-54760000D01*
X37703993Y-54248864D01*
X37414457Y-53815543D01*
X36981136Y-53526007D01*
X36599022Y-53450000D01*
X36340978Y-53450000D01*
X36127000Y-53492563D01*
X36127000Y-44164833D01*
X58690000Y-44164833D01*
X58690000Y-44835167D01*
X58946526Y-45454476D01*
X59420524Y-45928474D01*
X60039833Y-46185000D01*
X60710167Y-46185000D01*
X61329476Y-45928474D01*
X61803474Y-45454476D01*
X62060000Y-44835167D01*
X62060000Y-44164833D01*
X61803474Y-43545524D01*
X61329476Y-43071526D01*
X60710167Y-42815000D01*
X60039833Y-42815000D01*
X59420524Y-43071526D01*
X58946526Y-43545524D01*
X58690000Y-44164833D01*
X36127000Y-44164833D01*
X36127000Y-40377437D01*
X36340978Y-40420000D01*
X36599022Y-40420000D01*
X36981136Y-40343993D01*
X37414457Y-40054457D01*
X37703993Y-39621136D01*
X37805664Y-39110000D01*
X37703993Y-38598864D01*
X37414457Y-38165543D01*
X36981136Y-37876007D01*
X36599022Y-37800000D01*
X36340978Y-37800000D01*
X36127000Y-37842563D01*
X36127000Y-28164833D01*
X58690000Y-28164833D01*
X58690000Y-28835167D01*
X58946526Y-29454476D01*
X59420524Y-29928474D01*
X60039833Y-30185000D01*
X60710167Y-30185000D01*
X61329476Y-29928474D01*
X61803474Y-29454476D01*
X62060000Y-28835167D01*
X62060000Y-28164833D01*
X61803474Y-27545524D01*
X61329476Y-27071526D01*
X60710167Y-26815000D01*
X60039833Y-26815000D01*
X59420524Y-27071526D01*
X58946526Y-27545524D01*
X58690000Y-28164833D01*
X36127000Y-28164833D01*
X36127000Y-24027437D01*
X36340978Y-24070000D01*
X36599022Y-24070000D01*
X36981136Y-23993993D01*
X37414457Y-23704457D01*
X37703993Y-23271136D01*
X37805664Y-22760000D01*
X37703993Y-22248864D01*
X37414457Y-21815543D01*
X36981136Y-21526007D01*
X36599022Y-21450000D01*
X36340978Y-21450000D01*
X36127000Y-21492563D01*
X36127000Y-12164833D01*
X58690000Y-12164833D01*
X58690000Y-12835167D01*
X58946526Y-13454476D01*
X59420524Y-13928474D01*
X60039833Y-14185000D01*
X60710167Y-14185000D01*
X61329476Y-13928474D01*
X61803474Y-13454476D01*
X62060000Y-12835167D01*
X62060000Y-12164833D01*
X61803474Y-11545524D01*
X61329476Y-11071526D01*
X60710167Y-10815000D01*
X60039833Y-10815000D01*
X59420524Y-11071526D01*
X58946526Y-11545524D01*
X58690000Y-12164833D01*
X36127000Y-12164833D01*
X36127000Y-8904126D01*
X42845000Y-8904126D01*
X42845000Y-9315874D01*
X43002569Y-9696280D01*
X43293720Y-9987431D01*
X43674126Y-10145000D01*
X44085874Y-10145000D01*
X44466280Y-9987431D01*
X44515000Y-9938711D01*
X44563720Y-9987431D01*
X44944126Y-10145000D01*
X45355874Y-10145000D01*
X45736280Y-9987431D01*
X45785000Y-9938711D01*
X45833720Y-9987431D01*
X46214126Y-10145000D01*
X46625874Y-10145000D01*
X47006280Y-9987431D01*
X47297431Y-9696280D01*
X47455000Y-9315874D01*
X47455000Y-8904126D01*
X47297431Y-8523720D01*
X47006280Y-8232569D01*
X46625874Y-8075000D01*
X46214126Y-8075000D01*
X45833720Y-8232569D01*
X45785000Y-8281289D01*
X45736280Y-8232569D01*
X45355874Y-8075000D01*
X44944126Y-8075000D01*
X44563720Y-8232569D01*
X44515000Y-8281289D01*
X44466280Y-8232569D01*
X44085874Y-8075000D01*
X43674126Y-8075000D01*
X43293720Y-8232569D01*
X43002569Y-8523720D01*
X42845000Y-8904126D01*
X36127000Y-8904126D01*
X36127000Y-8027437D01*
X36340978Y-8070000D01*
X36599022Y-8070000D01*
X36981136Y-7993993D01*
X37414457Y-7704457D01*
X37703993Y-7271136D01*
X37805664Y-6760000D01*
X37703993Y-6248864D01*
X37414457Y-5815543D01*
X36981136Y-5526007D01*
X36599022Y-5450000D01*
X36340978Y-5450000D01*
X36127000Y-5492563D01*
X36127000Y-735000D01*
X70608911Y-735000D01*
X71195092Y-800751D01*
X71195092Y-800751D01*
G37*
X71195092Y-800751D02*
X71713100Y-981140D01*
X72178266Y-1271808D01*
X72567474Y-1658308D01*
X72861386Y-2121438D01*
X73045383Y-2638164D01*
X73115001Y-3221993D01*
X73115000Y-16727612D01*
X73100601Y-16800000D01*
X73157646Y-17086783D01*
X73267161Y-17250683D01*
X73320095Y-17329905D01*
X73563217Y-17492354D01*
X73723000Y-17524137D01*
X73723000Y-54275863D01*
X73563217Y-54307646D01*
X73320095Y-54470095D01*
X73157646Y-54713217D01*
X73100601Y-55000000D01*
X73115000Y-55072388D01*
X73115001Y-68672388D01*
X73122947Y-68712336D01*
X73073780Y-69150669D01*
X72891548Y-69673969D01*
X72597909Y-70143890D01*
X72207451Y-70537083D01*
X71739593Y-70833995D01*
X71217576Y-71019877D01*
X70766155Y-71073706D01*
X70722388Y-71065000D01*
X36127000Y-71065000D01*
X36127000Y-67692268D01*
X36600000Y-67692268D01*
X36600000Y-68287733D01*
X36687032Y-68725271D01*
X37018561Y-69221439D01*
X37514730Y-69552968D01*
X38100000Y-69669386D01*
X38685271Y-69552968D01*
X39181439Y-69221439D01*
X39370000Y-68939237D01*
X39558561Y-69221439D01*
X40054730Y-69552968D01*
X40640000Y-69669386D01*
X41225271Y-69552968D01*
X41721439Y-69221439D01*
X41913929Y-68933357D01*
X42279143Y-69340793D01*
X42807240Y-69594131D01*
X42820754Y-69596346D01*
X43053000Y-69475224D01*
X43053000Y-68117000D01*
X43033000Y-68117000D01*
X43033000Y-67863000D01*
X43053000Y-67863000D01*
X43053000Y-66504776D01*
X43307000Y-66504776D01*
X43307000Y-67863000D01*
X43327000Y-67863000D01*
X43327000Y-68117000D01*
X43307000Y-68117000D01*
X43307000Y-69475224D01*
X43539246Y-69596346D01*
X43552760Y-69594131D01*
X44080857Y-69340793D01*
X44239213Y-69164130D01*
X44256843Y-69252765D01*
X44397191Y-69462809D01*
X44607235Y-69603157D01*
X44855000Y-69652440D01*
X46585000Y-69652440D01*
X46832765Y-69603157D01*
X47042809Y-69462809D01*
X47183157Y-69252765D01*
X47232440Y-69005000D01*
X47232440Y-67692268D01*
X48030000Y-67692268D01*
X48030000Y-68287733D01*
X48117032Y-68725271D01*
X48448561Y-69221439D01*
X48944730Y-69552968D01*
X49530000Y-69669386D01*
X50115271Y-69552968D01*
X50611439Y-69221439D01*
X50800000Y-68939237D01*
X50988561Y-69221439D01*
X51484730Y-69552968D01*
X52070000Y-69669386D01*
X52655271Y-69552968D01*
X53151439Y-69221439D01*
X53343929Y-68933357D01*
X53709143Y-69340793D01*
X54237240Y-69594131D01*
X54250754Y-69596346D01*
X54483000Y-69475224D01*
X54483000Y-68117000D01*
X54463000Y-68117000D01*
X54463000Y-67863000D01*
X54483000Y-67863000D01*
X54483000Y-66504776D01*
X54737000Y-66504776D01*
X54737000Y-67863000D01*
X54757000Y-67863000D01*
X54757000Y-68117000D01*
X54737000Y-68117000D01*
X54737000Y-69475224D01*
X54969246Y-69596346D01*
X54982760Y-69594131D01*
X55510857Y-69340793D01*
X55669213Y-69164130D01*
X55686843Y-69252765D01*
X55827191Y-69462809D01*
X56037235Y-69603157D01*
X56285000Y-69652440D01*
X58015000Y-69652440D01*
X58262765Y-69603157D01*
X58472809Y-69462809D01*
X58613157Y-69252765D01*
X58662440Y-69005000D01*
X58662440Y-67692268D01*
X59460000Y-67692268D01*
X59460000Y-68287733D01*
X59547032Y-68725271D01*
X59878561Y-69221439D01*
X60374730Y-69552968D01*
X60960000Y-69669386D01*
X61545271Y-69552968D01*
X62041439Y-69221439D01*
X62210000Y-68969169D01*
X62378561Y-69221439D01*
X62874730Y-69552968D01*
X63460000Y-69669386D01*
X64045271Y-69552968D01*
X64541439Y-69221439D01*
X64710000Y-68969169D01*
X64878561Y-69221439D01*
X65374730Y-69552968D01*
X65960000Y-69669386D01*
X66545271Y-69552968D01*
X67006894Y-69244521D01*
X67056673Y-69364698D01*
X67235301Y-69543327D01*
X67468690Y-69640000D01*
X68174250Y-69640000D01*
X68333000Y-69481250D01*
X68333000Y-68117000D01*
X68587000Y-68117000D01*
X68587000Y-69481250D01*
X68745750Y-69640000D01*
X69451310Y-69640000D01*
X69684699Y-69543327D01*
X69863327Y-69364698D01*
X69960000Y-69131309D01*
X69960000Y-68275750D01*
X69801250Y-68117000D01*
X68587000Y-68117000D01*
X68333000Y-68117000D01*
X68313000Y-68117000D01*
X68313000Y-67863000D01*
X68333000Y-67863000D01*
X68333000Y-66498750D01*
X68587000Y-66498750D01*
X68587000Y-67863000D01*
X69801250Y-67863000D01*
X69960000Y-67704250D01*
X69960000Y-66848691D01*
X69863327Y-66615302D01*
X69684699Y-66436673D01*
X69451310Y-66340000D01*
X68745750Y-66340000D01*
X68587000Y-66498750D01*
X68333000Y-66498750D01*
X68174250Y-66340000D01*
X67468690Y-66340000D01*
X67235301Y-66436673D01*
X67056673Y-66615302D01*
X67006894Y-66735479D01*
X66545270Y-66427032D01*
X65960000Y-66310614D01*
X65374729Y-66427032D01*
X64878561Y-66758561D01*
X64710000Y-67010831D01*
X64541439Y-66758561D01*
X64045270Y-66427032D01*
X63460000Y-66310614D01*
X62874729Y-66427032D01*
X62378561Y-66758561D01*
X62210000Y-67010831D01*
X62041439Y-66758561D01*
X61545270Y-66427032D01*
X60960000Y-66310614D01*
X60374729Y-66427032D01*
X59878561Y-66758561D01*
X59547032Y-67254730D01*
X59460000Y-67692268D01*
X58662440Y-67692268D01*
X58662440Y-66975000D01*
X58613157Y-66727235D01*
X58472809Y-66517191D01*
X58262765Y-66376843D01*
X58015000Y-66327560D01*
X56285000Y-66327560D01*
X56037235Y-66376843D01*
X55827191Y-66517191D01*
X55686843Y-66727235D01*
X55669213Y-66815870D01*
X55510857Y-66639207D01*
X54982760Y-66385869D01*
X54969246Y-66383654D01*
X54737000Y-66504776D01*
X54483000Y-66504776D01*
X54250754Y-66383654D01*
X54237240Y-66385869D01*
X53709143Y-66639207D01*
X53343929Y-67046643D01*
X53151439Y-66758561D01*
X52951127Y-66624717D01*
X53074595Y-66501249D01*
X53255000Y-66065711D01*
X53255000Y-65594289D01*
X53074595Y-65158751D01*
X52741249Y-64825405D01*
X52305711Y-64645000D01*
X51834289Y-64645000D01*
X51398751Y-64825405D01*
X51065405Y-65158751D01*
X50885000Y-65594289D01*
X50885000Y-66065711D01*
X51065405Y-66501249D01*
X51188873Y-66624717D01*
X50988561Y-66758561D01*
X50800000Y-67040763D01*
X50611439Y-66758561D01*
X50115270Y-66427032D01*
X49530000Y-66310614D01*
X48944729Y-66427032D01*
X48448561Y-66758561D01*
X48117032Y-67254730D01*
X48030000Y-67692268D01*
X47232440Y-67692268D01*
X47232440Y-66975000D01*
X47183157Y-66727235D01*
X47042809Y-66517191D01*
X46832765Y-66376843D01*
X46585000Y-66327560D01*
X44855000Y-66327560D01*
X44607235Y-66376843D01*
X44397191Y-66517191D01*
X44256843Y-66727235D01*
X44239213Y-66815870D01*
X44080857Y-66639207D01*
X43552760Y-66385869D01*
X43539246Y-66383654D01*
X43307000Y-66504776D01*
X43053000Y-66504776D01*
X42820754Y-66383654D01*
X42807240Y-66385869D01*
X42279143Y-66639207D01*
X41913929Y-67046643D01*
X41721439Y-66758561D01*
X41521127Y-66624717D01*
X41644595Y-66501249D01*
X41825000Y-66065711D01*
X41825000Y-65594289D01*
X41644595Y-65158751D01*
X41311249Y-64825405D01*
X40875711Y-64645000D01*
X40404289Y-64645000D01*
X39968751Y-64825405D01*
X39635405Y-65158751D01*
X39455000Y-65594289D01*
X39455000Y-66065711D01*
X39635405Y-66501249D01*
X39758873Y-66624717D01*
X39558561Y-66758561D01*
X39370000Y-67040763D01*
X39181439Y-66758561D01*
X38685270Y-66427032D01*
X38100000Y-66310614D01*
X37514729Y-66427032D01*
X37018561Y-66758561D01*
X36687032Y-67254730D01*
X36600000Y-67692268D01*
X36127000Y-67692268D01*
X36127000Y-61984126D01*
X50465000Y-61984126D01*
X50465000Y-62395874D01*
X50622569Y-62776280D01*
X50913720Y-63067431D01*
X51294126Y-63225000D01*
X51705874Y-63225000D01*
X52086280Y-63067431D01*
X52135000Y-63018711D01*
X52183720Y-63067431D01*
X52564126Y-63225000D01*
X52975874Y-63225000D01*
X53356280Y-63067431D01*
X53405000Y-63018711D01*
X53453720Y-63067431D01*
X53834126Y-63225000D01*
X54245874Y-63225000D01*
X54626280Y-63067431D01*
X54917431Y-62776280D01*
X55075000Y-62395874D01*
X55075000Y-61984126D01*
X54917431Y-61603720D01*
X54626280Y-61312569D01*
X54245874Y-61155000D01*
X53834126Y-61155000D01*
X53453720Y-61312569D01*
X53405000Y-61361289D01*
X53356280Y-61312569D01*
X52975874Y-61155000D01*
X52564126Y-61155000D01*
X52183720Y-61312569D01*
X52135000Y-61361289D01*
X52086280Y-61312569D01*
X51705874Y-61155000D01*
X51294126Y-61155000D01*
X50913720Y-61312569D01*
X50622569Y-61603720D01*
X50465000Y-61984126D01*
X36127000Y-61984126D01*
X36127000Y-60164833D01*
X58690000Y-60164833D01*
X58690000Y-60835167D01*
X58946526Y-61454476D01*
X59420524Y-61928474D01*
X60039833Y-62185000D01*
X60710167Y-62185000D01*
X61329476Y-61928474D01*
X61803474Y-61454476D01*
X62060000Y-60835167D01*
X62060000Y-60164833D01*
X61803474Y-59545524D01*
X61329476Y-59071526D01*
X60710167Y-58815000D01*
X60039833Y-58815000D01*
X59420524Y-59071526D01*
X58946526Y-59545524D01*
X58690000Y-60164833D01*
X36127000Y-60164833D01*
X36127000Y-56027437D01*
X36340978Y-56070000D01*
X36599022Y-56070000D01*
X36981136Y-55993993D01*
X37414457Y-55704457D01*
X37703993Y-55271136D01*
X37805664Y-54760000D01*
X37703993Y-54248864D01*
X37414457Y-53815543D01*
X36981136Y-53526007D01*
X36599022Y-53450000D01*
X36340978Y-53450000D01*
X36127000Y-53492563D01*
X36127000Y-44164833D01*
X58690000Y-44164833D01*
X58690000Y-44835167D01*
X58946526Y-45454476D01*
X59420524Y-45928474D01*
X60039833Y-46185000D01*
X60710167Y-46185000D01*
X61329476Y-45928474D01*
X61803474Y-45454476D01*
X62060000Y-44835167D01*
X62060000Y-44164833D01*
X61803474Y-43545524D01*
X61329476Y-43071526D01*
X60710167Y-42815000D01*
X60039833Y-42815000D01*
X59420524Y-43071526D01*
X58946526Y-43545524D01*
X58690000Y-44164833D01*
X36127000Y-44164833D01*
X36127000Y-40377437D01*
X36340978Y-40420000D01*
X36599022Y-40420000D01*
X36981136Y-40343993D01*
X37414457Y-40054457D01*
X37703993Y-39621136D01*
X37805664Y-39110000D01*
X37703993Y-38598864D01*
X37414457Y-38165543D01*
X36981136Y-37876007D01*
X36599022Y-37800000D01*
X36340978Y-37800000D01*
X36127000Y-37842563D01*
X36127000Y-28164833D01*
X58690000Y-28164833D01*
X58690000Y-28835167D01*
X58946526Y-29454476D01*
X59420524Y-29928474D01*
X60039833Y-30185000D01*
X60710167Y-30185000D01*
X61329476Y-29928474D01*
X61803474Y-29454476D01*
X62060000Y-28835167D01*
X62060000Y-28164833D01*
X61803474Y-27545524D01*
X61329476Y-27071526D01*
X60710167Y-26815000D01*
X60039833Y-26815000D01*
X59420524Y-27071526D01*
X58946526Y-27545524D01*
X58690000Y-28164833D01*
X36127000Y-28164833D01*
X36127000Y-24027437D01*
X36340978Y-24070000D01*
X36599022Y-24070000D01*
X36981136Y-23993993D01*
X37414457Y-23704457D01*
X37703993Y-23271136D01*
X37805664Y-22760000D01*
X37703993Y-22248864D01*
X37414457Y-21815543D01*
X36981136Y-21526007D01*
X36599022Y-21450000D01*
X36340978Y-21450000D01*
X36127000Y-21492563D01*
X36127000Y-12164833D01*
X58690000Y-12164833D01*
X58690000Y-12835167D01*
X58946526Y-13454476D01*
X59420524Y-13928474D01*
X60039833Y-14185000D01*
X60710167Y-14185000D01*
X61329476Y-13928474D01*
X61803474Y-13454476D01*
X62060000Y-12835167D01*
X62060000Y-12164833D01*
X61803474Y-11545524D01*
X61329476Y-11071526D01*
X60710167Y-10815000D01*
X60039833Y-10815000D01*
X59420524Y-11071526D01*
X58946526Y-11545524D01*
X58690000Y-12164833D01*
X36127000Y-12164833D01*
X36127000Y-8904126D01*
X42845000Y-8904126D01*
X42845000Y-9315874D01*
X43002569Y-9696280D01*
X43293720Y-9987431D01*
X43674126Y-10145000D01*
X44085874Y-10145000D01*
X44466280Y-9987431D01*
X44515000Y-9938711D01*
X44563720Y-9987431D01*
X44944126Y-10145000D01*
X45355874Y-10145000D01*
X45736280Y-9987431D01*
X45785000Y-9938711D01*
X45833720Y-9987431D01*
X46214126Y-10145000D01*
X46625874Y-10145000D01*
X47006280Y-9987431D01*
X47297431Y-9696280D01*
X47455000Y-9315874D01*
X47455000Y-8904126D01*
X47297431Y-8523720D01*
X47006280Y-8232569D01*
X46625874Y-8075000D01*
X46214126Y-8075000D01*
X45833720Y-8232569D01*
X45785000Y-8281289D01*
X45736280Y-8232569D01*
X45355874Y-8075000D01*
X44944126Y-8075000D01*
X44563720Y-8232569D01*
X44515000Y-8281289D01*
X44466280Y-8232569D01*
X44085874Y-8075000D01*
X43674126Y-8075000D01*
X43293720Y-8232569D01*
X43002569Y-8523720D01*
X42845000Y-8904126D01*
X36127000Y-8904126D01*
X36127000Y-8027437D01*
X36340978Y-8070000D01*
X36599022Y-8070000D01*
X36981136Y-7993993D01*
X37414457Y-7704457D01*
X37703993Y-7271136D01*
X37805664Y-6760000D01*
X37703993Y-6248864D01*
X37414457Y-5815543D01*
X36981136Y-5526007D01*
X36599022Y-5450000D01*
X36340978Y-5450000D01*
X36127000Y-5492563D01*
X36127000Y-735000D01*
X70608911Y-735000D01*
X71195092Y-800751D01*
%TO.N,VCC*%
G36*
X20673000Y-14977007D02*
X20450874Y-14885000D01*
X20039126Y-14885000D01*
X19658720Y-15042569D01*
X19367569Y-15333720D01*
X19210000Y-15714126D01*
X19210000Y-16125874D01*
X19367569Y-16506280D01*
X19658720Y-16797431D01*
X20039126Y-16955000D01*
X20450874Y-16955000D01*
X20673000Y-16862993D01*
X20673000Y-17517007D01*
X20450874Y-17425000D01*
X20039126Y-17425000D01*
X19658720Y-17582569D01*
X19367569Y-17873720D01*
X19210000Y-18254126D01*
X19210000Y-18665874D01*
X19367569Y-19046280D01*
X19658720Y-19337431D01*
X20039126Y-19495000D01*
X20450874Y-19495000D01*
X20673000Y-19402993D01*
X20673000Y-49719248D01*
X20555000Y-50004126D01*
X20555000Y-50415874D01*
X20673000Y-50700752D01*
X20673000Y-67816124D01*
X20466256Y-67775000D01*
X20173744Y-67775000D01*
X19740582Y-67861161D01*
X19249375Y-68189375D01*
X19050000Y-68487761D01*
X18850625Y-68189375D01*
X18359418Y-67861161D01*
X17926256Y-67775000D01*
X17633744Y-67775000D01*
X17200582Y-67861161D01*
X16709375Y-68189375D01*
X16697184Y-68207619D01*
X16688157Y-68162235D01*
X16547809Y-67952191D01*
X16337765Y-67811843D01*
X16090000Y-67762560D01*
X14390000Y-67762560D01*
X14142235Y-67811843D01*
X13932191Y-67952191D01*
X13791843Y-68162235D01*
X13742560Y-68410000D01*
X13742560Y-70110000D01*
X13791843Y-70357765D01*
X13932191Y-70567809D01*
X14142235Y-70708157D01*
X14390000Y-70757440D01*
X16090000Y-70757440D01*
X16337765Y-70708157D01*
X16547809Y-70567809D01*
X16688157Y-70357765D01*
X16697184Y-70312381D01*
X16709375Y-70330625D01*
X17200582Y-70658839D01*
X17633744Y-70745000D01*
X17926256Y-70745000D01*
X18359418Y-70658839D01*
X18850625Y-70330625D01*
X19050000Y-70032239D01*
X19249375Y-70330625D01*
X19740582Y-70658839D01*
X20173744Y-70745000D01*
X20466256Y-70745000D01*
X20673000Y-70703876D01*
X20673000Y-71065000D01*
X3241089Y-71065000D01*
X2654908Y-70999249D01*
X2136899Y-70818859D01*
X1671734Y-70528192D01*
X1282524Y-70141689D01*
X988614Y-69678562D01*
X804617Y-69161837D01*
X735000Y-68578016D01*
X735000Y-68410000D01*
X2312560Y-68410000D01*
X2312560Y-70110000D01*
X2361843Y-70357765D01*
X2502191Y-70567809D01*
X2712235Y-70708157D01*
X2960000Y-70757440D01*
X4660000Y-70757440D01*
X4907765Y-70708157D01*
X5117809Y-70567809D01*
X5258157Y-70357765D01*
X5267184Y-70312381D01*
X5279375Y-70330625D01*
X5770582Y-70658839D01*
X6203744Y-70745000D01*
X6496256Y-70745000D01*
X6929418Y-70658839D01*
X7420625Y-70330625D01*
X7620000Y-70032239D01*
X7819375Y-70330625D01*
X8310582Y-70658839D01*
X8743744Y-70745000D01*
X9036256Y-70745000D01*
X9469418Y-70658839D01*
X9960625Y-70330625D01*
X10160000Y-70032239D01*
X10359375Y-70330625D01*
X10850582Y-70658839D01*
X11283744Y-70745000D01*
X11576256Y-70745000D01*
X12009418Y-70658839D01*
X12500625Y-70330625D01*
X12828839Y-69839418D01*
X12944092Y-69260000D01*
X12828839Y-68680582D01*
X12500625Y-68189375D01*
X12009418Y-67861161D01*
X11576256Y-67775000D01*
X11283744Y-67775000D01*
X10850582Y-67861161D01*
X10359375Y-68189375D01*
X10160000Y-68487761D01*
X9960625Y-68189375D01*
X9469418Y-67861161D01*
X9036256Y-67775000D01*
X8743744Y-67775000D01*
X8310582Y-67861161D01*
X7819375Y-68189375D01*
X7620000Y-68487761D01*
X7420625Y-68189375D01*
X6929418Y-67861161D01*
X6496256Y-67775000D01*
X6203744Y-67775000D01*
X5770582Y-67861161D01*
X5279375Y-68189375D01*
X5267184Y-68207619D01*
X5258157Y-68162235D01*
X5117809Y-67952191D01*
X4907765Y-67811843D01*
X4660000Y-67762560D01*
X2960000Y-67762560D01*
X2712235Y-67811843D01*
X2502191Y-67952191D01*
X2361843Y-68162235D01*
X2312560Y-68410000D01*
X735000Y-68410000D01*
X735000Y-65450000D01*
X7375908Y-65450000D01*
X7491161Y-66029418D01*
X7819375Y-66520625D01*
X8310582Y-66848839D01*
X8743744Y-66935000D01*
X9036256Y-66935000D01*
X9469418Y-66848839D01*
X9960625Y-66520625D01*
X10160000Y-66222239D01*
X10359375Y-66520625D01*
X10850582Y-66848839D01*
X11283744Y-66935000D01*
X11576256Y-66935000D01*
X12009418Y-66848839D01*
X12500625Y-66520625D01*
X12700000Y-66222239D01*
X12899375Y-66520625D01*
X13390582Y-66848839D01*
X13823744Y-66935000D01*
X14116256Y-66935000D01*
X14549418Y-66848839D01*
X15040625Y-66520625D01*
X15055096Y-66498967D01*
X15121673Y-66659698D01*
X15300301Y-66838327D01*
X15533690Y-66935000D01*
X16224250Y-66935000D01*
X16383000Y-66776250D01*
X16383000Y-65577000D01*
X16637000Y-65577000D01*
X16637000Y-66776250D01*
X16795750Y-66935000D01*
X17486310Y-66935000D01*
X17719699Y-66838327D01*
X17898327Y-66659698D01*
X17995000Y-66426309D01*
X17995000Y-65735750D01*
X17836250Y-65577000D01*
X16637000Y-65577000D01*
X16383000Y-65577000D01*
X16363000Y-65577000D01*
X16363000Y-65323000D01*
X16383000Y-65323000D01*
X16383000Y-64123750D01*
X16637000Y-64123750D01*
X16637000Y-65323000D01*
X17836250Y-65323000D01*
X17995000Y-65164250D01*
X17995000Y-64473691D01*
X17898327Y-64240302D01*
X17719699Y-64061673D01*
X17486310Y-63965000D01*
X16795750Y-63965000D01*
X16637000Y-64123750D01*
X16383000Y-64123750D01*
X16224250Y-63965000D01*
X15533690Y-63965000D01*
X15300301Y-64061673D01*
X15121673Y-64240302D01*
X15055096Y-64401033D01*
X15040625Y-64379375D01*
X14549418Y-64051161D01*
X14116256Y-63965000D01*
X13823744Y-63965000D01*
X13390582Y-64051161D01*
X12899375Y-64379375D01*
X12700000Y-64677761D01*
X12500625Y-64379375D01*
X12009418Y-64051161D01*
X11576256Y-63965000D01*
X11283744Y-63965000D01*
X10850582Y-64051161D01*
X10359375Y-64379375D01*
X10160000Y-64677761D01*
X9960625Y-64379375D01*
X9469418Y-64051161D01*
X9036256Y-63965000D01*
X8743744Y-63965000D01*
X8310582Y-64051161D01*
X7819375Y-64379375D01*
X7491161Y-64870582D01*
X7375908Y-65450000D01*
X735000Y-65450000D01*
X735000Y-55874126D01*
X13440000Y-55874126D01*
X13440000Y-56285874D01*
X13597569Y-56666280D01*
X13888720Y-56957431D01*
X14269126Y-57115000D01*
X14680874Y-57115000D01*
X15061280Y-56957431D01*
X15225003Y-56793708D01*
X15388720Y-56957425D01*
X15769126Y-57114994D01*
X16180874Y-57114994D01*
X16561280Y-56957425D01*
X16852431Y-56666274D01*
X16854288Y-56661791D01*
X16897569Y-56766280D01*
X17188720Y-57057431D01*
X17569126Y-57215000D01*
X17980874Y-57215000D01*
X18361280Y-57057431D01*
X18652431Y-56766280D01*
X18810000Y-56385874D01*
X18810000Y-55974126D01*
X18652431Y-55593720D01*
X18361280Y-55302569D01*
X17980874Y-55145000D01*
X17569126Y-55145000D01*
X17188720Y-55302569D01*
X16897569Y-55593720D01*
X16895712Y-55598203D01*
X16852431Y-55493714D01*
X16561280Y-55202563D01*
X16180874Y-55044994D01*
X15769126Y-55044994D01*
X15388720Y-55202563D01*
X15224997Y-55366286D01*
X15061280Y-55202569D01*
X14680874Y-55045000D01*
X14269126Y-55045000D01*
X13888720Y-55202569D01*
X13597569Y-55493720D01*
X13440000Y-55874126D01*
X735000Y-55874126D01*
X735000Y-55072388D01*
X749399Y-55000000D01*
X692354Y-54713217D01*
X529905Y-54470095D01*
X286783Y-54307646D01*
X127000Y-54275863D01*
X127000Y-50044126D01*
X10465000Y-50044126D01*
X10465000Y-50455874D01*
X10622569Y-50836280D01*
X10913720Y-51127431D01*
X11294126Y-51285000D01*
X11705874Y-51285000D01*
X11732126Y-51274126D01*
X12935000Y-51274126D01*
X12935000Y-51685874D01*
X13092569Y-52066280D01*
X13383720Y-52357431D01*
X13764126Y-52515000D01*
X14175874Y-52515000D01*
X14556280Y-52357431D01*
X14847431Y-52066280D01*
X15005000Y-51685874D01*
X15005000Y-51274126D01*
X14847431Y-50893720D01*
X14556280Y-50602569D01*
X14175874Y-50445000D01*
X13764126Y-50445000D01*
X13383720Y-50602569D01*
X13092569Y-50893720D01*
X12935000Y-51274126D01*
X11732126Y-51274126D01*
X12086280Y-51127431D01*
X12377431Y-50836280D01*
X12535000Y-50455874D01*
X12535000Y-50044126D01*
X12423163Y-49774126D01*
X15940000Y-49774126D01*
X15940000Y-50185874D01*
X16097569Y-50566280D01*
X16388720Y-50857431D01*
X16769126Y-51015000D01*
X17180874Y-51015000D01*
X17561280Y-50857431D01*
X17852431Y-50566280D01*
X18010000Y-50185874D01*
X18010000Y-49774126D01*
X17852431Y-49393720D01*
X17561280Y-49102569D01*
X17180874Y-48945000D01*
X16769126Y-48945000D01*
X16388720Y-49102569D01*
X16097569Y-49393720D01*
X15940000Y-49774126D01*
X12423163Y-49774126D01*
X12377431Y-49663720D01*
X12086280Y-49372569D01*
X11705874Y-49215000D01*
X11294126Y-49215000D01*
X10913720Y-49372569D01*
X10622569Y-49663720D01*
X10465000Y-50044126D01*
X127000Y-50044126D01*
X127000Y-46844126D01*
X5665000Y-46844126D01*
X5665000Y-47255874D01*
X5822569Y-47636280D01*
X6113720Y-47927431D01*
X6494126Y-48085000D01*
X6905874Y-48085000D01*
X7286280Y-47927431D01*
X7500000Y-47713711D01*
X7713720Y-47927431D01*
X8094126Y-48085000D01*
X8505874Y-48085000D01*
X8886280Y-47927431D01*
X9177431Y-47636280D01*
X9335000Y-47255874D01*
X9335000Y-46844126D01*
X9177431Y-46463720D01*
X8886280Y-46172569D01*
X8526450Y-46023523D01*
X8377415Y-45663720D01*
X8086264Y-45372569D01*
X7705858Y-45215000D01*
X7294110Y-45215000D01*
X6913704Y-45372569D01*
X6622553Y-45663720D01*
X6473511Y-46023539D01*
X6113720Y-46172569D01*
X5822569Y-46463720D01*
X5665000Y-46844126D01*
X127000Y-46844126D01*
X127000Y-43544148D01*
X2365000Y-43544148D01*
X2365000Y-43955896D01*
X2522569Y-44336302D01*
X2813720Y-44627453D01*
X3194126Y-44785022D01*
X3605874Y-44785022D01*
X3986280Y-44627453D01*
X4277431Y-44336302D01*
X4435000Y-43955896D01*
X4435000Y-43544148D01*
X4277431Y-43163742D01*
X3986280Y-42872591D01*
X3605874Y-42715022D01*
X3194126Y-42715022D01*
X2813720Y-42872591D01*
X2522569Y-43163742D01*
X2365000Y-43544148D01*
X127000Y-43544148D01*
X127000Y-40744126D01*
X1565000Y-40744126D01*
X1565000Y-41155874D01*
X1722569Y-41536280D01*
X2013720Y-41827431D01*
X2394126Y-41985000D01*
X2805874Y-41985000D01*
X2904552Y-41944126D01*
X16965000Y-41944126D01*
X16965000Y-42355874D01*
X17122569Y-42736280D01*
X17413720Y-43027431D01*
X17794126Y-43185000D01*
X18205874Y-43185000D01*
X18586280Y-43027431D01*
X18877431Y-42736280D01*
X19035000Y-42355874D01*
X19035000Y-41944126D01*
X18877431Y-41563720D01*
X18586280Y-41272569D01*
X18205874Y-41115000D01*
X17794126Y-41115000D01*
X17413720Y-41272569D01*
X17122569Y-41563720D01*
X16965000Y-41944126D01*
X2904552Y-41944126D01*
X3186280Y-41827431D01*
X3477431Y-41536280D01*
X3626469Y-41176469D01*
X3986280Y-41027431D01*
X4277431Y-40736280D01*
X4435000Y-40355874D01*
X4435000Y-39944126D01*
X4277431Y-39563720D01*
X4063710Y-39349999D01*
X4277431Y-39136278D01*
X4435000Y-38755872D01*
X4435000Y-38344124D01*
X4277431Y-37963718D01*
X3986280Y-37672567D01*
X3605874Y-37514998D01*
X3194126Y-37514998D01*
X2813720Y-37672567D01*
X2522569Y-37963718D01*
X2365000Y-38344124D01*
X2365000Y-38755872D01*
X2522569Y-39136278D01*
X2736290Y-39349999D01*
X2522569Y-39563720D01*
X2373531Y-39923531D01*
X2013720Y-40072569D01*
X1722569Y-40363720D01*
X1565000Y-40744126D01*
X127000Y-40744126D01*
X127000Y-35544126D01*
X16965000Y-35544126D01*
X16965000Y-35955874D01*
X17122569Y-36336280D01*
X17413720Y-36627431D01*
X17794126Y-36785000D01*
X18205874Y-36785000D01*
X18586280Y-36627431D01*
X18877431Y-36336280D01*
X19035000Y-35955874D01*
X19035000Y-35544126D01*
X18877431Y-35163720D01*
X18586280Y-34872569D01*
X18205874Y-34715000D01*
X17794126Y-34715000D01*
X17413720Y-34872569D01*
X17122569Y-35163720D01*
X16965000Y-35544126D01*
X127000Y-35544126D01*
X127000Y-31444126D01*
X5265000Y-31444126D01*
X5265000Y-31855874D01*
X5422569Y-32236280D01*
X5713720Y-32527431D01*
X6094126Y-32685000D01*
X6505874Y-32685000D01*
X6886280Y-32527431D01*
X7177431Y-32236280D01*
X7335000Y-31855874D01*
X7335000Y-31444126D01*
X7177431Y-31063720D01*
X6886280Y-30772569D01*
X6505874Y-30615000D01*
X6094126Y-30615000D01*
X5713720Y-30772569D01*
X5422569Y-31063720D01*
X5265000Y-31444126D01*
X127000Y-31444126D01*
X127000Y-28244126D01*
X11265000Y-28244126D01*
X11265000Y-28655874D01*
X11422569Y-29036280D01*
X11713720Y-29327431D01*
X12073531Y-29476469D01*
X12222569Y-29836280D01*
X12513720Y-30127431D01*
X12873531Y-30276469D01*
X13022569Y-30636280D01*
X13236277Y-30849988D01*
X13022545Y-31063720D01*
X12864976Y-31444126D01*
X12864976Y-31855874D01*
X13022545Y-32236280D01*
X13313696Y-32527431D01*
X13694102Y-32685000D01*
X14105850Y-32685000D01*
X14486256Y-32527431D01*
X14777407Y-32236280D01*
X14934976Y-31855874D01*
X14934976Y-31444126D01*
X14777407Y-31063720D01*
X14563699Y-30850012D01*
X14777431Y-30636280D01*
X14935000Y-30255874D01*
X14935000Y-29844126D01*
X14777431Y-29463720D01*
X14486280Y-29172569D01*
X14126469Y-29023531D01*
X13977431Y-28663720D01*
X13686280Y-28372569D01*
X13326469Y-28223531D01*
X13177431Y-27863720D01*
X12886280Y-27572569D01*
X12505874Y-27415000D01*
X12094126Y-27415000D01*
X11713720Y-27572569D01*
X11422569Y-27863720D01*
X11265000Y-28244126D01*
X127000Y-28244126D01*
X127000Y-25244126D01*
X4165000Y-25244126D01*
X4165000Y-25655874D01*
X4322569Y-26036280D01*
X4613720Y-26327431D01*
X4994126Y-26485000D01*
X5405874Y-26485000D01*
X5786280Y-26327431D01*
X6077431Y-26036280D01*
X6235000Y-25655874D01*
X6235000Y-25244126D01*
X10465000Y-25244126D01*
X10465000Y-25655874D01*
X10622569Y-26036280D01*
X10913720Y-26327431D01*
X11294126Y-26485000D01*
X11705874Y-26485000D01*
X12086280Y-26327431D01*
X12377431Y-26036280D01*
X12535000Y-25655874D01*
X12535000Y-25244126D01*
X12377431Y-24863720D01*
X12086280Y-24572569D01*
X11705874Y-24415000D01*
X11294126Y-24415000D01*
X10913720Y-24572569D01*
X10622569Y-24863720D01*
X10465000Y-25244126D01*
X6235000Y-25244126D01*
X6077431Y-24863720D01*
X5786280Y-24572569D01*
X5405874Y-24415000D01*
X4994126Y-24415000D01*
X4613720Y-24572569D01*
X4322569Y-24863720D01*
X4165000Y-25244126D01*
X127000Y-25244126D01*
X127000Y-20794126D01*
X9080012Y-20794126D01*
X9080012Y-21205874D01*
X9237581Y-21586280D01*
X9528732Y-21877431D01*
X9909138Y-22035000D01*
X10320886Y-22035000D01*
X10701292Y-21877431D01*
X10992443Y-21586280D01*
X11150012Y-21205874D01*
X11150012Y-20794126D01*
X10992443Y-20413720D01*
X10701292Y-20122569D01*
X10320886Y-19965000D01*
X9909138Y-19965000D01*
X9528732Y-20122569D01*
X9237581Y-20413720D01*
X9080012Y-20794126D01*
X127000Y-20794126D01*
X127000Y-17524137D01*
X286783Y-17492354D01*
X529905Y-17329905D01*
X692354Y-17086783D01*
X749399Y-16800000D01*
X735000Y-16727612D01*
X735000Y-15714126D01*
X9080000Y-15714126D01*
X9080000Y-16125874D01*
X9237569Y-16506280D01*
X9528720Y-16797431D01*
X9909126Y-16955000D01*
X10320874Y-16955000D01*
X10701280Y-16797431D01*
X10992431Y-16506280D01*
X11150000Y-16125874D01*
X11150000Y-15714126D01*
X10992431Y-15333720D01*
X10701280Y-15042569D01*
X10320874Y-14885000D01*
X9909126Y-14885000D01*
X9528720Y-15042569D01*
X9237569Y-15333720D01*
X9080000Y-15714126D01*
X735000Y-15714126D01*
X735000Y-3241089D01*
X800751Y-2654908D01*
X981140Y-2136900D01*
X1271808Y-1671734D01*
X1658308Y-1282526D01*
X2121438Y-988614D01*
X2638164Y-804617D01*
X3221984Y-735000D01*
X20673000Y-735000D01*
X20673000Y-14977007D01*
X20673000Y-14977007D01*
G37*
X20673000Y-14977007D02*
X20450874Y-14885000D01*
X20039126Y-14885000D01*
X19658720Y-15042569D01*
X19367569Y-15333720D01*
X19210000Y-15714126D01*
X19210000Y-16125874D01*
X19367569Y-16506280D01*
X19658720Y-16797431D01*
X20039126Y-16955000D01*
X20450874Y-16955000D01*
X20673000Y-16862993D01*
X20673000Y-17517007D01*
X20450874Y-17425000D01*
X20039126Y-17425000D01*
X19658720Y-17582569D01*
X19367569Y-17873720D01*
X19210000Y-18254126D01*
X19210000Y-18665874D01*
X19367569Y-19046280D01*
X19658720Y-19337431D01*
X20039126Y-19495000D01*
X20450874Y-19495000D01*
X20673000Y-19402993D01*
X20673000Y-49719248D01*
X20555000Y-50004126D01*
X20555000Y-50415874D01*
X20673000Y-50700752D01*
X20673000Y-67816124D01*
X20466256Y-67775000D01*
X20173744Y-67775000D01*
X19740582Y-67861161D01*
X19249375Y-68189375D01*
X19050000Y-68487761D01*
X18850625Y-68189375D01*
X18359418Y-67861161D01*
X17926256Y-67775000D01*
X17633744Y-67775000D01*
X17200582Y-67861161D01*
X16709375Y-68189375D01*
X16697184Y-68207619D01*
X16688157Y-68162235D01*
X16547809Y-67952191D01*
X16337765Y-67811843D01*
X16090000Y-67762560D01*
X14390000Y-67762560D01*
X14142235Y-67811843D01*
X13932191Y-67952191D01*
X13791843Y-68162235D01*
X13742560Y-68410000D01*
X13742560Y-70110000D01*
X13791843Y-70357765D01*
X13932191Y-70567809D01*
X14142235Y-70708157D01*
X14390000Y-70757440D01*
X16090000Y-70757440D01*
X16337765Y-70708157D01*
X16547809Y-70567809D01*
X16688157Y-70357765D01*
X16697184Y-70312381D01*
X16709375Y-70330625D01*
X17200582Y-70658839D01*
X17633744Y-70745000D01*
X17926256Y-70745000D01*
X18359418Y-70658839D01*
X18850625Y-70330625D01*
X19050000Y-70032239D01*
X19249375Y-70330625D01*
X19740582Y-70658839D01*
X20173744Y-70745000D01*
X20466256Y-70745000D01*
X20673000Y-70703876D01*
X20673000Y-71065000D01*
X3241089Y-71065000D01*
X2654908Y-70999249D01*
X2136899Y-70818859D01*
X1671734Y-70528192D01*
X1282524Y-70141689D01*
X988614Y-69678562D01*
X804617Y-69161837D01*
X735000Y-68578016D01*
X735000Y-68410000D01*
X2312560Y-68410000D01*
X2312560Y-70110000D01*
X2361843Y-70357765D01*
X2502191Y-70567809D01*
X2712235Y-70708157D01*
X2960000Y-70757440D01*
X4660000Y-70757440D01*
X4907765Y-70708157D01*
X5117809Y-70567809D01*
X5258157Y-70357765D01*
X5267184Y-70312381D01*
X5279375Y-70330625D01*
X5770582Y-70658839D01*
X6203744Y-70745000D01*
X6496256Y-70745000D01*
X6929418Y-70658839D01*
X7420625Y-70330625D01*
X7620000Y-70032239D01*
X7819375Y-70330625D01*
X8310582Y-70658839D01*
X8743744Y-70745000D01*
X9036256Y-70745000D01*
X9469418Y-70658839D01*
X9960625Y-70330625D01*
X10160000Y-70032239D01*
X10359375Y-70330625D01*
X10850582Y-70658839D01*
X11283744Y-70745000D01*
X11576256Y-70745000D01*
X12009418Y-70658839D01*
X12500625Y-70330625D01*
X12828839Y-69839418D01*
X12944092Y-69260000D01*
X12828839Y-68680582D01*
X12500625Y-68189375D01*
X12009418Y-67861161D01*
X11576256Y-67775000D01*
X11283744Y-67775000D01*
X10850582Y-67861161D01*
X10359375Y-68189375D01*
X10160000Y-68487761D01*
X9960625Y-68189375D01*
X9469418Y-67861161D01*
X9036256Y-67775000D01*
X8743744Y-67775000D01*
X8310582Y-67861161D01*
X7819375Y-68189375D01*
X7620000Y-68487761D01*
X7420625Y-68189375D01*
X6929418Y-67861161D01*
X6496256Y-67775000D01*
X6203744Y-67775000D01*
X5770582Y-67861161D01*
X5279375Y-68189375D01*
X5267184Y-68207619D01*
X5258157Y-68162235D01*
X5117809Y-67952191D01*
X4907765Y-67811843D01*
X4660000Y-67762560D01*
X2960000Y-67762560D01*
X2712235Y-67811843D01*
X2502191Y-67952191D01*
X2361843Y-68162235D01*
X2312560Y-68410000D01*
X735000Y-68410000D01*
X735000Y-65450000D01*
X7375908Y-65450000D01*
X7491161Y-66029418D01*
X7819375Y-66520625D01*
X8310582Y-66848839D01*
X8743744Y-66935000D01*
X9036256Y-66935000D01*
X9469418Y-66848839D01*
X9960625Y-66520625D01*
X10160000Y-66222239D01*
X10359375Y-66520625D01*
X10850582Y-66848839D01*
X11283744Y-66935000D01*
X11576256Y-66935000D01*
X12009418Y-66848839D01*
X12500625Y-66520625D01*
X12700000Y-66222239D01*
X12899375Y-66520625D01*
X13390582Y-66848839D01*
X13823744Y-66935000D01*
X14116256Y-66935000D01*
X14549418Y-66848839D01*
X15040625Y-66520625D01*
X15055096Y-66498967D01*
X15121673Y-66659698D01*
X15300301Y-66838327D01*
X15533690Y-66935000D01*
X16224250Y-66935000D01*
X16383000Y-66776250D01*
X16383000Y-65577000D01*
X16637000Y-65577000D01*
X16637000Y-66776250D01*
X16795750Y-66935000D01*
X17486310Y-66935000D01*
X17719699Y-66838327D01*
X17898327Y-66659698D01*
X17995000Y-66426309D01*
X17995000Y-65735750D01*
X17836250Y-65577000D01*
X16637000Y-65577000D01*
X16383000Y-65577000D01*
X16363000Y-65577000D01*
X16363000Y-65323000D01*
X16383000Y-65323000D01*
X16383000Y-64123750D01*
X16637000Y-64123750D01*
X16637000Y-65323000D01*
X17836250Y-65323000D01*
X17995000Y-65164250D01*
X17995000Y-64473691D01*
X17898327Y-64240302D01*
X17719699Y-64061673D01*
X17486310Y-63965000D01*
X16795750Y-63965000D01*
X16637000Y-64123750D01*
X16383000Y-64123750D01*
X16224250Y-63965000D01*
X15533690Y-63965000D01*
X15300301Y-64061673D01*
X15121673Y-64240302D01*
X15055096Y-64401033D01*
X15040625Y-64379375D01*
X14549418Y-64051161D01*
X14116256Y-63965000D01*
X13823744Y-63965000D01*
X13390582Y-64051161D01*
X12899375Y-64379375D01*
X12700000Y-64677761D01*
X12500625Y-64379375D01*
X12009418Y-64051161D01*
X11576256Y-63965000D01*
X11283744Y-63965000D01*
X10850582Y-64051161D01*
X10359375Y-64379375D01*
X10160000Y-64677761D01*
X9960625Y-64379375D01*
X9469418Y-64051161D01*
X9036256Y-63965000D01*
X8743744Y-63965000D01*
X8310582Y-64051161D01*
X7819375Y-64379375D01*
X7491161Y-64870582D01*
X7375908Y-65450000D01*
X735000Y-65450000D01*
X735000Y-55874126D01*
X13440000Y-55874126D01*
X13440000Y-56285874D01*
X13597569Y-56666280D01*
X13888720Y-56957431D01*
X14269126Y-57115000D01*
X14680874Y-57115000D01*
X15061280Y-56957431D01*
X15225003Y-56793708D01*
X15388720Y-56957425D01*
X15769126Y-57114994D01*
X16180874Y-57114994D01*
X16561280Y-56957425D01*
X16852431Y-56666274D01*
X16854288Y-56661791D01*
X16897569Y-56766280D01*
X17188720Y-57057431D01*
X17569126Y-57215000D01*
X17980874Y-57215000D01*
X18361280Y-57057431D01*
X18652431Y-56766280D01*
X18810000Y-56385874D01*
X18810000Y-55974126D01*
X18652431Y-55593720D01*
X18361280Y-55302569D01*
X17980874Y-55145000D01*
X17569126Y-55145000D01*
X17188720Y-55302569D01*
X16897569Y-55593720D01*
X16895712Y-55598203D01*
X16852431Y-55493714D01*
X16561280Y-55202563D01*
X16180874Y-55044994D01*
X15769126Y-55044994D01*
X15388720Y-55202563D01*
X15224997Y-55366286D01*
X15061280Y-55202569D01*
X14680874Y-55045000D01*
X14269126Y-55045000D01*
X13888720Y-55202569D01*
X13597569Y-55493720D01*
X13440000Y-55874126D01*
X735000Y-55874126D01*
X735000Y-55072388D01*
X749399Y-55000000D01*
X692354Y-54713217D01*
X529905Y-54470095D01*
X286783Y-54307646D01*
X127000Y-54275863D01*
X127000Y-50044126D01*
X10465000Y-50044126D01*
X10465000Y-50455874D01*
X10622569Y-50836280D01*
X10913720Y-51127431D01*
X11294126Y-51285000D01*
X11705874Y-51285000D01*
X11732126Y-51274126D01*
X12935000Y-51274126D01*
X12935000Y-51685874D01*
X13092569Y-52066280D01*
X13383720Y-52357431D01*
X13764126Y-52515000D01*
X14175874Y-52515000D01*
X14556280Y-52357431D01*
X14847431Y-52066280D01*
X15005000Y-51685874D01*
X15005000Y-51274126D01*
X14847431Y-50893720D01*
X14556280Y-50602569D01*
X14175874Y-50445000D01*
X13764126Y-50445000D01*
X13383720Y-50602569D01*
X13092569Y-50893720D01*
X12935000Y-51274126D01*
X11732126Y-51274126D01*
X12086280Y-51127431D01*
X12377431Y-50836280D01*
X12535000Y-50455874D01*
X12535000Y-50044126D01*
X12423163Y-49774126D01*
X15940000Y-49774126D01*
X15940000Y-50185874D01*
X16097569Y-50566280D01*
X16388720Y-50857431D01*
X16769126Y-51015000D01*
X17180874Y-51015000D01*
X17561280Y-50857431D01*
X17852431Y-50566280D01*
X18010000Y-50185874D01*
X18010000Y-49774126D01*
X17852431Y-49393720D01*
X17561280Y-49102569D01*
X17180874Y-48945000D01*
X16769126Y-48945000D01*
X16388720Y-49102569D01*
X16097569Y-49393720D01*
X15940000Y-49774126D01*
X12423163Y-49774126D01*
X12377431Y-49663720D01*
X12086280Y-49372569D01*
X11705874Y-49215000D01*
X11294126Y-49215000D01*
X10913720Y-49372569D01*
X10622569Y-49663720D01*
X10465000Y-50044126D01*
X127000Y-50044126D01*
X127000Y-46844126D01*
X5665000Y-46844126D01*
X5665000Y-47255874D01*
X5822569Y-47636280D01*
X6113720Y-47927431D01*
X6494126Y-48085000D01*
X6905874Y-48085000D01*
X7286280Y-47927431D01*
X7500000Y-47713711D01*
X7713720Y-47927431D01*
X8094126Y-48085000D01*
X8505874Y-48085000D01*
X8886280Y-47927431D01*
X9177431Y-47636280D01*
X9335000Y-47255874D01*
X9335000Y-46844126D01*
X9177431Y-46463720D01*
X8886280Y-46172569D01*
X8526450Y-46023523D01*
X8377415Y-45663720D01*
X8086264Y-45372569D01*
X7705858Y-45215000D01*
X7294110Y-45215000D01*
X6913704Y-45372569D01*
X6622553Y-45663720D01*
X6473511Y-46023539D01*
X6113720Y-46172569D01*
X5822569Y-46463720D01*
X5665000Y-46844126D01*
X127000Y-46844126D01*
X127000Y-43544148D01*
X2365000Y-43544148D01*
X2365000Y-43955896D01*
X2522569Y-44336302D01*
X2813720Y-44627453D01*
X3194126Y-44785022D01*
X3605874Y-44785022D01*
X3986280Y-44627453D01*
X4277431Y-44336302D01*
X4435000Y-43955896D01*
X4435000Y-43544148D01*
X4277431Y-43163742D01*
X3986280Y-42872591D01*
X3605874Y-42715022D01*
X3194126Y-42715022D01*
X2813720Y-42872591D01*
X2522569Y-43163742D01*
X2365000Y-43544148D01*
X127000Y-43544148D01*
X127000Y-40744126D01*
X1565000Y-40744126D01*
X1565000Y-41155874D01*
X1722569Y-41536280D01*
X2013720Y-41827431D01*
X2394126Y-41985000D01*
X2805874Y-41985000D01*
X2904552Y-41944126D01*
X16965000Y-41944126D01*
X16965000Y-42355874D01*
X17122569Y-42736280D01*
X17413720Y-43027431D01*
X17794126Y-43185000D01*
X18205874Y-43185000D01*
X18586280Y-43027431D01*
X18877431Y-42736280D01*
X19035000Y-42355874D01*
X19035000Y-41944126D01*
X18877431Y-41563720D01*
X18586280Y-41272569D01*
X18205874Y-41115000D01*
X17794126Y-41115000D01*
X17413720Y-41272569D01*
X17122569Y-41563720D01*
X16965000Y-41944126D01*
X2904552Y-41944126D01*
X3186280Y-41827431D01*
X3477431Y-41536280D01*
X3626469Y-41176469D01*
X3986280Y-41027431D01*
X4277431Y-40736280D01*
X4435000Y-40355874D01*
X4435000Y-39944126D01*
X4277431Y-39563720D01*
X4063710Y-39349999D01*
X4277431Y-39136278D01*
X4435000Y-38755872D01*
X4435000Y-38344124D01*
X4277431Y-37963718D01*
X3986280Y-37672567D01*
X3605874Y-37514998D01*
X3194126Y-37514998D01*
X2813720Y-37672567D01*
X2522569Y-37963718D01*
X2365000Y-38344124D01*
X2365000Y-38755872D01*
X2522569Y-39136278D01*
X2736290Y-39349999D01*
X2522569Y-39563720D01*
X2373531Y-39923531D01*
X2013720Y-40072569D01*
X1722569Y-40363720D01*
X1565000Y-40744126D01*
X127000Y-40744126D01*
X127000Y-35544126D01*
X16965000Y-35544126D01*
X16965000Y-35955874D01*
X17122569Y-36336280D01*
X17413720Y-36627431D01*
X17794126Y-36785000D01*
X18205874Y-36785000D01*
X18586280Y-36627431D01*
X18877431Y-36336280D01*
X19035000Y-35955874D01*
X19035000Y-35544126D01*
X18877431Y-35163720D01*
X18586280Y-34872569D01*
X18205874Y-34715000D01*
X17794126Y-34715000D01*
X17413720Y-34872569D01*
X17122569Y-35163720D01*
X16965000Y-35544126D01*
X127000Y-35544126D01*
X127000Y-31444126D01*
X5265000Y-31444126D01*
X5265000Y-31855874D01*
X5422569Y-32236280D01*
X5713720Y-32527431D01*
X6094126Y-32685000D01*
X6505874Y-32685000D01*
X6886280Y-32527431D01*
X7177431Y-32236280D01*
X7335000Y-31855874D01*
X7335000Y-31444126D01*
X7177431Y-31063720D01*
X6886280Y-30772569D01*
X6505874Y-30615000D01*
X6094126Y-30615000D01*
X5713720Y-30772569D01*
X5422569Y-31063720D01*
X5265000Y-31444126D01*
X127000Y-31444126D01*
X127000Y-28244126D01*
X11265000Y-28244126D01*
X11265000Y-28655874D01*
X11422569Y-29036280D01*
X11713720Y-29327431D01*
X12073531Y-29476469D01*
X12222569Y-29836280D01*
X12513720Y-30127431D01*
X12873531Y-30276469D01*
X13022569Y-30636280D01*
X13236277Y-30849988D01*
X13022545Y-31063720D01*
X12864976Y-31444126D01*
X12864976Y-31855874D01*
X13022545Y-32236280D01*
X13313696Y-32527431D01*
X13694102Y-32685000D01*
X14105850Y-32685000D01*
X14486256Y-32527431D01*
X14777407Y-32236280D01*
X14934976Y-31855874D01*
X14934976Y-31444126D01*
X14777407Y-31063720D01*
X14563699Y-30850012D01*
X14777431Y-30636280D01*
X14935000Y-30255874D01*
X14935000Y-29844126D01*
X14777431Y-29463720D01*
X14486280Y-29172569D01*
X14126469Y-29023531D01*
X13977431Y-28663720D01*
X13686280Y-28372569D01*
X13326469Y-28223531D01*
X13177431Y-27863720D01*
X12886280Y-27572569D01*
X12505874Y-27415000D01*
X12094126Y-27415000D01*
X11713720Y-27572569D01*
X11422569Y-27863720D01*
X11265000Y-28244126D01*
X127000Y-28244126D01*
X127000Y-25244126D01*
X4165000Y-25244126D01*
X4165000Y-25655874D01*
X4322569Y-26036280D01*
X4613720Y-26327431D01*
X4994126Y-26485000D01*
X5405874Y-26485000D01*
X5786280Y-26327431D01*
X6077431Y-26036280D01*
X6235000Y-25655874D01*
X6235000Y-25244126D01*
X10465000Y-25244126D01*
X10465000Y-25655874D01*
X10622569Y-26036280D01*
X10913720Y-26327431D01*
X11294126Y-26485000D01*
X11705874Y-26485000D01*
X12086280Y-26327431D01*
X12377431Y-26036280D01*
X12535000Y-25655874D01*
X12535000Y-25244126D01*
X12377431Y-24863720D01*
X12086280Y-24572569D01*
X11705874Y-24415000D01*
X11294126Y-24415000D01*
X10913720Y-24572569D01*
X10622569Y-24863720D01*
X10465000Y-25244126D01*
X6235000Y-25244126D01*
X6077431Y-24863720D01*
X5786280Y-24572569D01*
X5405874Y-24415000D01*
X4994126Y-24415000D01*
X4613720Y-24572569D01*
X4322569Y-24863720D01*
X4165000Y-25244126D01*
X127000Y-25244126D01*
X127000Y-20794126D01*
X9080012Y-20794126D01*
X9080012Y-21205874D01*
X9237581Y-21586280D01*
X9528732Y-21877431D01*
X9909138Y-22035000D01*
X10320886Y-22035000D01*
X10701292Y-21877431D01*
X10992443Y-21586280D01*
X11150012Y-21205874D01*
X11150012Y-20794126D01*
X10992443Y-20413720D01*
X10701292Y-20122569D01*
X10320886Y-19965000D01*
X9909138Y-19965000D01*
X9528732Y-20122569D01*
X9237581Y-20413720D01*
X9080012Y-20794126D01*
X127000Y-20794126D01*
X127000Y-17524137D01*
X286783Y-17492354D01*
X529905Y-17329905D01*
X692354Y-17086783D01*
X749399Y-16800000D01*
X735000Y-16727612D01*
X735000Y-15714126D01*
X9080000Y-15714126D01*
X9080000Y-16125874D01*
X9237569Y-16506280D01*
X9528720Y-16797431D01*
X9909126Y-16955000D01*
X10320874Y-16955000D01*
X10701280Y-16797431D01*
X10992431Y-16506280D01*
X11150000Y-16125874D01*
X11150000Y-15714126D01*
X10992431Y-15333720D01*
X10701280Y-15042569D01*
X10320874Y-14885000D01*
X9909126Y-14885000D01*
X9528720Y-15042569D01*
X9237569Y-15333720D01*
X9080000Y-15714126D01*
X735000Y-15714126D01*
X735000Y-3241089D01*
X800751Y-2654908D01*
X981140Y-2136900D01*
X1271808Y-1671734D01*
X1658308Y-1282526D01*
X2121438Y-988614D01*
X2638164Y-804617D01*
X3221984Y-735000D01*
X20673000Y-735000D01*
X20673000Y-14977007D01*
%TD*%
M02*
