%TF.GenerationSoftware,KiCad,Pcbnew,5.0.1-33cea8e~68~ubuntu18.10.1*%
%TF.CreationDate,2018-11-09T13:17:00-07:00*%
%TF.ProjectId,thelio-io-sas,7468656C696F2D696F2D7361732E6B69,rev?*%
%TF.SameCoordinates,Original*%
%TF.FileFunction,Copper,L2,Inr,Plane*%
%TF.FilePolarity,Positive*%
%FSLAX46Y46*%
G04 Gerber Fmt 4.6, Leading zero omitted, Abs format (unit mm)*
G04 Created by KiCad (PCBNEW 5.0.1-33cea8e~68~ubuntu18.10.1) date Fri Nov  9 13:17:00 2018*
%MOMM*%
%LPD*%
G01*
G04 APERTURE LIST*
%TA.AperFunction,NonConductor*%
%ADD10C,0.200000*%
%TD*%
%TA.AperFunction,NonConductor*%
%ADD11C,0.150000*%
%TD*%
%TA.AperFunction,ViaPad*%
%ADD12C,0.370000*%
%TD*%
%TA.AperFunction,WasherPad*%
%ADD13C,2.600000*%
%TD*%
%TA.AperFunction,ViaPad*%
%ADD14O,1.730000X2.030000*%
%TD*%
%TA.AperFunction,ViaPad*%
%ADD15R,1.730000X2.030000*%
%TD*%
%TA.AperFunction,ViaPad*%
%ADD16C,0.800000*%
%TD*%
%TA.AperFunction,Conductor*%
%ADD17C,0.200000*%
%TD*%
%TA.AperFunction,Conductor*%
%ADD18C,0.254000*%
%TD*%
G04 APERTURE END LIST*
D10*
X77050000Y-18400000D02*
X77050000Y-53400000D01*
X75450000Y-16800000D02*
G75*
G02X77050000Y-18400000I0J-1600000D01*
G01*
X73850000Y-16800000D02*
X75450000Y-16800000D01*
X73850000Y-55000000D02*
X75450000Y-55000000D01*
X77050000Y-53400000D02*
G75*
G02X75450000Y-55000000I-1600000J0D01*
G01*
X70650000Y0D02*
G75*
G02X73850000Y-3200000I0J-3200000D01*
G01*
D11*
X73850000Y-68600000D02*
G75*
G02X70650000Y-71800000I-3200000J0D01*
G01*
D10*
X73850000Y-16800000D02*
X73850000Y-3200000D01*
X73850000Y-55000000D02*
X73850000Y-68600000D01*
X-3200000Y-18400000D02*
G75*
G02X-1600000Y-16800000I1600000J0D01*
G01*
X0Y-16800000D02*
X-1600000Y-16800000D01*
X0Y-55000000D02*
X-1600000Y-55000000D01*
X-1600000Y-55000000D02*
G75*
G02X-3200000Y-53400000I0J1600000D01*
G01*
X-3200000Y-53400000D02*
X-3200000Y-18400000D01*
X0Y-16800000D02*
X0Y-3200000D01*
X0Y-55000000D02*
X0Y-68600000D01*
X3200000Y0D02*
X70650000Y0D01*
X0Y-3200000D02*
G75*
G02X3200000Y0I3200000J0D01*
G01*
X70650000Y-71800000D02*
X3200000Y-71800000D01*
X3200000Y-71800000D02*
G75*
G02X0Y-68600000I0J3200000D01*
G01*
D12*
%TO.N,/sas0/T1+*%
%TO.C,SAS0*%
X5420000Y-12450000D03*
%TO.N,GND*%
X4720000Y-13200000D03*
%TO.N,Net-(SAS0-PadA2)*%
X4020000Y-13950000D03*
%TO.N,Net-(SAS0-PadA1)*%
X5420000Y-14700000D03*
%TO.N,/sas0/T1-*%
X4020000Y-11700000D03*
%TO.N,/sas0/T3+*%
X5420000Y-10200000D03*
%TO.N,GND*%
X4720000Y-10950000D03*
X4720000Y-8700000D03*
%TO.N,/sas0/T3-*%
X4020000Y-9450000D03*
%TO.N,/sas0/WAKE*%
X7820000Y-13950000D03*
%TO.N,GND*%
X8520000Y-10950000D03*
%TO.N,Net-(SAS0-PadB1)*%
X9220000Y-14700000D03*
%TO.N,/sas0/T0+*%
X9220000Y-12450000D03*
%TO.N,GND*%
X8520000Y-8700000D03*
X8520000Y-13200000D03*
%TO.N,/sas0/T0-*%
X7820000Y-11700000D03*
%TO.N,/sas0/T2-*%
X7820000Y-9450000D03*
%TO.N,/sas0/T2+*%
X9220000Y-10200000D03*
%TO.N,/sas0/CLK+*%
X11620000Y-13950000D03*
%TO.N,GND*%
X12320000Y-10950000D03*
%TO.N,/sas0/RST*%
X13020000Y-14700000D03*
%TO.N,/sas0/R1+*%
X13020000Y-12450000D03*
%TO.N,GND*%
X12320000Y-8700000D03*
X12320000Y-13200000D03*
%TO.N,/sas0/R1-*%
X11620000Y-11700000D03*
%TO.N,/sas0/R3-*%
X11620000Y-9450000D03*
%TO.N,/sas0/R3+*%
X13020000Y-10200000D03*
%TO.N,/sas0/CLK-*%
X15420000Y-13950000D03*
%TO.N,GND*%
X16120000Y-10950000D03*
%TO.N,Net-(SAS0-PadD1)*%
X16820000Y-14700000D03*
%TO.N,/sas0/R0+*%
X16820000Y-12450000D03*
%TO.N,GND*%
X16120000Y-8700000D03*
X16120000Y-13200000D03*
%TO.N,/sas0/R0-*%
X15420000Y-11700000D03*
%TO.N,/sas0/R2-*%
X15420000Y-9450000D03*
%TO.N,/sas0/R2+*%
X16820000Y-10200000D03*
%TD*%
D13*
%TO.N,*%
%TO.C,U.2_0*%
X61365000Y-12560000D03*
X22635000Y-12560000D03*
%TD*%
D12*
%TO.N,/sas1/T1+*%
%TO.C,SAS1*%
X5420000Y-28450000D03*
%TO.N,GND*%
X4720000Y-29200000D03*
%TO.N,Net-(SAS1-PadA2)*%
X4020000Y-29950000D03*
%TO.N,Net-(SAS1-PadA1)*%
X5420000Y-30700000D03*
%TO.N,/sas1/T1-*%
X4020000Y-27700000D03*
%TO.N,/sas1/T3+*%
X5420000Y-26200000D03*
%TO.N,GND*%
X4720000Y-26950000D03*
X4720000Y-24700000D03*
%TO.N,/sas1/T3-*%
X4020000Y-25450000D03*
%TO.N,/sas1/WAKE*%
X7820000Y-29950000D03*
%TO.N,GND*%
X8520000Y-26950000D03*
%TO.N,Net-(SAS1-PadB1)*%
X9220000Y-30700000D03*
%TO.N,/sas1/T0+*%
X9220000Y-28450000D03*
%TO.N,GND*%
X8520000Y-24700000D03*
X8520000Y-29200000D03*
%TO.N,/sas1/T0-*%
X7820000Y-27700000D03*
%TO.N,/sas1/T2-*%
X7820000Y-25450000D03*
%TO.N,/sas1/T2+*%
X9220000Y-26200000D03*
%TO.N,/sas1/CLK+*%
X11620000Y-29950000D03*
%TO.N,GND*%
X12320000Y-26950000D03*
%TO.N,/sas1/RST*%
X13020000Y-30700000D03*
%TO.N,/sas1/R1+*%
X13020000Y-28450000D03*
%TO.N,GND*%
X12320000Y-24700000D03*
X12320000Y-29200000D03*
%TO.N,/sas1/R1-*%
X11620000Y-27700000D03*
%TO.N,/sas1/R3-*%
X11620000Y-25450000D03*
%TO.N,/sas1/R3+*%
X13020000Y-26200000D03*
%TO.N,/sas1/CLK-*%
X15420000Y-29950000D03*
%TO.N,GND*%
X16120000Y-26950000D03*
%TO.N,Net-(SAS1-PadD1)*%
X16820000Y-30700000D03*
%TO.N,/sas1/R0+*%
X16820000Y-28450000D03*
%TO.N,GND*%
X16120000Y-24700000D03*
X16120000Y-29200000D03*
%TO.N,/sas1/R0-*%
X15420000Y-27700000D03*
%TO.N,/sas1/R2-*%
X15420000Y-25450000D03*
%TO.N,/sas1/R2+*%
X16820000Y-26200000D03*
%TD*%
D13*
%TO.N,*%
%TO.C,U.2_1*%
X61365000Y-28560000D03*
X22635000Y-28560000D03*
%TD*%
D12*
%TO.N,/sas2/T1+*%
%TO.C,SAS2*%
X5420000Y-44450000D03*
%TO.N,GND*%
X4720000Y-45200000D03*
%TO.N,Net-(SAS2-PadA2)*%
X4020000Y-45950000D03*
%TO.N,Net-(SAS2-PadA1)*%
X5420000Y-46700000D03*
%TO.N,/sas2/T1-*%
X4020000Y-43700000D03*
%TO.N,/sas2/T3+*%
X5420000Y-42200000D03*
%TO.N,GND*%
X4720000Y-42950000D03*
X4720000Y-40700000D03*
%TO.N,/sas2/T3-*%
X4020000Y-41450000D03*
%TO.N,/sas2/WAKE*%
X7820000Y-45950000D03*
%TO.N,GND*%
X8520000Y-42950000D03*
%TO.N,Net-(SAS2-PadB1)*%
X9220000Y-46700000D03*
%TO.N,/sas2/T0+*%
X9220000Y-44450000D03*
%TO.N,GND*%
X8520000Y-40700000D03*
X8520000Y-45200000D03*
%TO.N,/sas2/T0-*%
X7820000Y-43700000D03*
%TO.N,/sas2/T2-*%
X7820000Y-41450000D03*
%TO.N,/sas2/T2+*%
X9220000Y-42200000D03*
%TO.N,/sas2/CLK+*%
X11620000Y-45950000D03*
%TO.N,GND*%
X12320000Y-42950000D03*
%TO.N,/sas2/RST*%
X13020000Y-46700000D03*
%TO.N,/sas2/R1+*%
X13020000Y-44450000D03*
%TO.N,GND*%
X12320000Y-40700000D03*
X12320000Y-45200000D03*
%TO.N,/sas2/R1-*%
X11620000Y-43700000D03*
%TO.N,/sas2/R3-*%
X11620000Y-41450000D03*
%TO.N,/sas2/R3+*%
X13020000Y-42200000D03*
%TO.N,/sas2/CLK-*%
X15420000Y-45950000D03*
%TO.N,GND*%
X16120000Y-42950000D03*
%TO.N,Net-(SAS2-PadD1)*%
X16820000Y-46700000D03*
%TO.N,/sas2/R0+*%
X16820000Y-44450000D03*
%TO.N,GND*%
X16120000Y-40700000D03*
X16120000Y-45200000D03*
%TO.N,/sas2/R0-*%
X15420000Y-43700000D03*
%TO.N,/sas2/R2-*%
X15420000Y-41450000D03*
%TO.N,/sas2/R2+*%
X16820000Y-42200000D03*
%TD*%
D13*
%TO.N,*%
%TO.C,U.2_2*%
X61365000Y-44560000D03*
X22635000Y-44560000D03*
%TD*%
%TO.N,*%
%TO.C,U.2_3*%
X61365000Y-60560000D03*
X22635000Y-60560000D03*
%TD*%
D12*
%TO.N,/sas3/T1+*%
%TO.C,SAS3*%
X5420000Y-60450000D03*
%TO.N,GND*%
X4720000Y-61200000D03*
%TO.N,Net-(SAS3-PadA2)*%
X4020000Y-61950000D03*
%TO.N,Net-(SAS3-PadA1)*%
X5420000Y-62700000D03*
%TO.N,/sas3/T1-*%
X4020000Y-59700000D03*
%TO.N,/sas3/T3+*%
X5420000Y-58200000D03*
%TO.N,GND*%
X4720000Y-58950000D03*
X4720000Y-56700000D03*
%TO.N,/sas3/T3-*%
X4020000Y-57450000D03*
%TO.N,/sas3/WAKE*%
X7820000Y-61950000D03*
%TO.N,GND*%
X8520000Y-58950000D03*
%TO.N,Net-(SAS3-PadB1)*%
X9220000Y-62700000D03*
%TO.N,/sas3/T0+*%
X9220000Y-60450000D03*
%TO.N,GND*%
X8520000Y-56700000D03*
X8520000Y-61200000D03*
%TO.N,/sas3/T0-*%
X7820000Y-59700000D03*
%TO.N,/sas3/T2-*%
X7820000Y-57450000D03*
%TO.N,/sas3/T2+*%
X9220000Y-58200000D03*
%TO.N,/sas3/CLK+*%
X11620000Y-61950000D03*
%TO.N,GND*%
X12320000Y-58950000D03*
%TO.N,/sas3/RST*%
X13020000Y-62700000D03*
%TO.N,/sas3/R1+*%
X13020000Y-60450000D03*
%TO.N,GND*%
X12320000Y-56700000D03*
X12320000Y-61200000D03*
%TO.N,/sas3/R1-*%
X11620000Y-59700000D03*
%TO.N,/sas3/R3-*%
X11620000Y-57450000D03*
%TO.N,/sas3/R3+*%
X13020000Y-58200000D03*
%TO.N,/sas3/CLK-*%
X15420000Y-61950000D03*
%TO.N,GND*%
X16120000Y-58950000D03*
%TO.N,Net-(SAS3-PadD1)*%
X16820000Y-62700000D03*
%TO.N,/sas3/R0+*%
X16820000Y-60450000D03*
%TO.N,GND*%
X16120000Y-56700000D03*
X16120000Y-61200000D03*
%TO.N,/sas3/R0-*%
X15420000Y-59700000D03*
%TO.N,/sas3/R2-*%
X15420000Y-57450000D03*
%TO.N,/sas3/R2+*%
X16820000Y-58200000D03*
%TD*%
D14*
%TO.N,+5V*%
%TO.C,POWER0*%
X60960000Y-67990000D03*
%TO.N,GND*%
X63460000Y-67990000D03*
X65960000Y-67990000D03*
D15*
%TO.N,+12V*%
X68460000Y-67990000D03*
%TD*%
D16*
%TO.N,GND*%
X54040000Y-49445000D03*
X51525000Y-49445000D03*
X43905000Y-49445000D03*
X46420000Y-49445000D03*
X45175000Y-49445000D03*
X54040000Y-33445000D03*
X51525000Y-33445000D03*
X43905000Y-33445000D03*
X46420000Y-33445000D03*
X45175000Y-33445000D03*
X54040000Y-17445000D03*
X51525000Y-17445000D03*
X43905000Y-17445000D03*
X46420000Y-17445000D03*
X45175000Y-17445000D03*
X43905000Y-65445000D03*
X54040000Y-65445000D03*
X45175000Y-65445000D03*
X46420000Y-65445000D03*
X51525000Y-65445000D03*
%TO.N,+12V*%
X55310000Y-49445000D03*
X57875000Y-49445000D03*
X56580000Y-49445000D03*
X55310000Y-33445000D03*
X57875000Y-33445000D03*
X56580000Y-33445000D03*
X55310000Y-17445000D03*
X57875000Y-17445000D03*
X56580000Y-17445000D03*
X55310000Y-65445000D03*
X57875000Y-65445000D03*
X56580000Y-65445000D03*
%TO.N,+5V*%
X47715000Y-49420000D03*
X50255000Y-49445000D03*
X48985000Y-49445000D03*
X47715000Y-33420000D03*
X50255000Y-33445000D03*
X48985000Y-33445000D03*
X47715000Y-17420000D03*
X50255000Y-17445000D03*
X48985000Y-17445000D03*
X50255000Y-65445000D03*
X47715000Y-65420000D03*
X48985000Y-65445000D03*
%TO.N,/sas3/T2+*%
X45750700Y-56656017D03*
%TO.N,/sas3/T2-*%
X46493164Y-55913553D03*
%TO.N,/sas3/T0-*%
X28893164Y-55913553D03*
%TO.N,/sas3/T0+*%
X28150700Y-56656017D03*
%TO.N,/sas3/T3+*%
X52150700Y-55913553D03*
%TO.N,/sas3/T3-*%
X52893164Y-56656017D03*
%TO.N,/sas3/T1-*%
X41328865Y-55549254D03*
%TO.N,/sas3/T1+*%
X40586401Y-56291718D03*
%TO.N,/sas3/R2+*%
X50493164Y-56656017D03*
%TO.N,/sas3/R2-*%
X49750700Y-55913553D03*
%TO.N,/sas3/R0-*%
X30550700Y-56656017D03*
%TO.N,/sas3/R0+*%
X31293164Y-55913553D03*
%TO.N,/sas3/RST*%
X38120000Y-64490000D03*
%TO.N,/sas3/R3-*%
X54550700Y-55913553D03*
%TO.N,/sas3/R3+*%
X55293164Y-56656017D03*
%TO.N,/sas3/R1-*%
X43350700Y-56656017D03*
%TO.N,/sas3/CLK+*%
X25746766Y-56656546D03*
%TO.N,/sas3/CLK-*%
X26489230Y-55914082D03*
%TO.N,/sas3/R1+*%
X44093164Y-55913553D03*
%TO.N,/sas3/WAKE*%
X40095000Y-65445000D03*
%TO.N,/sas0/RST*%
X38120000Y-16490000D03*
%TO.N,/sas0/WAKE*%
X40095000Y-17445000D03*
%TO.N,/sas0/R3+*%
X55293164Y-8656017D03*
%TO.N,/sas0/R3-*%
X54550700Y-7913553D03*
%TO.N,/sas0/T3-*%
X52893164Y-8656017D03*
%TO.N,/sas0/T3+*%
X52150700Y-7913553D03*
%TO.N,/sas0/R2+*%
X50493164Y-8656017D03*
%TO.N,/sas0/R2-*%
X49750700Y-7913553D03*
%TO.N,/sas0/T2-*%
X46493164Y-7913553D03*
%TO.N,/sas0/T2+*%
X45750700Y-8656017D03*
%TO.N,/sas0/R1+*%
X44093164Y-7913553D03*
%TO.N,/sas0/R1-*%
X43350700Y-8656017D03*
%TO.N,/sas0/T1-*%
X41328865Y-7549254D03*
%TO.N,/sas0/T1+*%
X40586401Y-8291718D03*
%TO.N,/sas0/R0+*%
X31293164Y-7913553D03*
%TO.N,/sas0/R0-*%
X30550700Y-8656017D03*
%TO.N,/sas0/T0-*%
X28893164Y-7913553D03*
%TO.N,/sas0/T0+*%
X28150700Y-8656017D03*
%TO.N,/sas0/CLK-*%
X26489230Y-7914082D03*
%TO.N,/sas0/CLK+*%
X25746766Y-8656546D03*
%TO.N,/sas1/RST*%
X38120000Y-32490000D03*
%TO.N,/sas1/WAKE*%
X40095000Y-33445000D03*
%TO.N,/sas1/R3+*%
X55293164Y-24656017D03*
%TO.N,/sas1/R3-*%
X54550700Y-23913553D03*
%TO.N,/sas1/T3-*%
X52893164Y-24656017D03*
%TO.N,/sas1/T3+*%
X52150700Y-23913553D03*
%TO.N,/sas1/R2+*%
X50493164Y-24656017D03*
%TO.N,/sas1/R2-*%
X49750700Y-23913553D03*
%TO.N,/sas1/T2-*%
X46493164Y-23913553D03*
%TO.N,/sas1/T2+*%
X45750700Y-24656017D03*
%TO.N,/sas1/R1+*%
X44093164Y-23913553D03*
%TO.N,/sas1/R1-*%
X43350700Y-24656017D03*
%TO.N,/sas1/T1-*%
X41328865Y-23549254D03*
%TO.N,/sas1/T1+*%
X40586401Y-24291718D03*
%TO.N,/sas1/R0+*%
X31293164Y-23913553D03*
%TO.N,/sas1/R0-*%
X30550700Y-24656017D03*
%TO.N,/sas1/T0-*%
X28893164Y-23913553D03*
%TO.N,/sas1/T0+*%
X28150700Y-24656017D03*
%TO.N,/sas1/CLK-*%
X26489230Y-23914082D03*
%TO.N,/sas1/CLK+*%
X25746766Y-24656546D03*
%TO.N,/sas2/RST*%
X38120000Y-48490000D03*
%TO.N,/sas2/WAKE*%
X40095000Y-49445000D03*
%TO.N,/sas2/R3+*%
X55293164Y-40656017D03*
%TO.N,/sas2/R3-*%
X54550700Y-39913553D03*
%TO.N,/sas2/T3-*%
X52893164Y-40656017D03*
%TO.N,/sas2/T3+*%
X52150700Y-39913553D03*
%TO.N,/sas2/R2+*%
X50493164Y-40656017D03*
%TO.N,/sas2/R2-*%
X49750700Y-39913553D03*
%TO.N,/sas2/T2-*%
X46493164Y-39913553D03*
%TO.N,/sas2/T2+*%
X45750700Y-40656017D03*
%TO.N,/sas2/R1+*%
X44093164Y-39913553D03*
%TO.N,/sas2/R1-*%
X43350700Y-40656017D03*
%TO.N,/sas2/T1-*%
X41328865Y-39549254D03*
%TO.N,/sas2/T1+*%
X40586401Y-40291718D03*
%TO.N,/sas2/R0+*%
X31293164Y-39913553D03*
%TO.N,/sas2/R0-*%
X30550700Y-40656017D03*
%TO.N,/sas2/T0-*%
X28893164Y-39913553D03*
%TO.N,/sas2/T0+*%
X28150700Y-40656017D03*
%TO.N,/sas2/CLK-*%
X26489230Y-39914082D03*
%TO.N,/sas2/CLK+*%
X25746766Y-40656546D03*
%TD*%
D17*
%TO.N,/sas3/R2+*%
X50493164Y-56656017D02*
X48957817Y-56656017D01*
X47101105Y-54799305D02*
X25938895Y-54799305D01*
X48957817Y-56656017D02*
X47101105Y-54799305D01*
X17120000Y-57900000D02*
X16820000Y-58200000D01*
X22838200Y-57900000D02*
X17120000Y-57900000D01*
X25938895Y-54799305D02*
X22838200Y-57900000D01*
%TO.N,/sas3/R2-*%
X47287505Y-54349305D02*
X25752495Y-54349305D01*
X49750700Y-55913553D02*
X49458236Y-56206017D01*
X49458236Y-56206017D02*
X49144217Y-56206017D01*
X49144217Y-56206017D02*
X47287505Y-54349305D01*
X22651800Y-57450000D02*
X15420000Y-57450000D01*
X25752495Y-54349305D02*
X22651800Y-57450000D01*
%TO.N,/sas3/R0-*%
X30550700Y-56656017D02*
X30843164Y-56948481D01*
X30843164Y-56948481D02*
X30843164Y-57258636D01*
X20490615Y-59700000D02*
X15420000Y-59700000D01*
X30843164Y-57258636D02*
X28401800Y-59700000D01*
X28401800Y-59700000D02*
X24779385Y-59700000D01*
X24779385Y-59700000D02*
X23589393Y-58510008D01*
X23589393Y-58510008D02*
X21680607Y-58510008D01*
X21680607Y-58510008D02*
X20490615Y-59700000D01*
%TO.N,/sas3/R0+*%
X20676998Y-60150000D02*
X17120000Y-60150000D01*
X21866999Y-58959999D02*
X20676998Y-60150000D01*
X23403001Y-58959999D02*
X21866999Y-58959999D01*
X28588200Y-60150000D02*
X24593002Y-60150000D01*
X31293164Y-57445036D02*
X28588200Y-60150000D01*
X31293164Y-55913553D02*
X31293164Y-57445036D01*
X24593002Y-60150000D02*
X23403001Y-58959999D01*
X17120000Y-60150000D02*
X16820000Y-60450000D01*
%TO.N,/sas3/R3-*%
X14476801Y-55675000D02*
X12701801Y-57450000D01*
X22826800Y-55675000D02*
X14476801Y-55675000D01*
X25226800Y-53275000D02*
X22826800Y-55675000D01*
X51158727Y-53275000D02*
X25226800Y-53275000D01*
X12701801Y-57450000D02*
X11620000Y-57450000D01*
X54550700Y-55913553D02*
X54258236Y-56206017D01*
X54258236Y-56206017D02*
X54089744Y-56206017D01*
X54089744Y-56206017D02*
X51158727Y-53275000D01*
%TO.N,/sas3/R3+*%
X14663199Y-56125000D02*
X13020000Y-57768199D01*
X23013200Y-56125000D02*
X14663199Y-56125000D01*
X25413200Y-53725000D02*
X23013200Y-56125000D01*
X50972327Y-53725000D02*
X25413200Y-53725000D01*
X53903344Y-56656017D02*
X50972327Y-53725000D01*
X55293164Y-56656017D02*
X53903344Y-56656017D01*
X13020000Y-57768199D02*
X13020000Y-58200000D01*
%TO.N,/sas3/R1-*%
X43350700Y-56656017D02*
X43058236Y-56363553D01*
X43058236Y-56363553D02*
X42774647Y-56363553D01*
X42774647Y-56363553D02*
X36502855Y-62635345D01*
X17052801Y-62214999D02*
X16509186Y-62214999D01*
X15839193Y-62884992D02*
X14804992Y-62884992D01*
X17305001Y-62467199D02*
X17052801Y-62214999D01*
X36502855Y-62635345D02*
X17305001Y-62635345D01*
X17305001Y-62635345D02*
X17305001Y-62467199D01*
X12855001Y-60935001D02*
X12787199Y-60935001D01*
X16509186Y-62214999D02*
X15839193Y-62884992D01*
X12787199Y-60935001D02*
X12534999Y-60682801D01*
X12534999Y-60682801D02*
X12534999Y-60614999D01*
X12534999Y-60614999D02*
X11620000Y-59700000D01*
X14804992Y-62884992D02*
X12855001Y-60935001D01*
%TO.N,/sas3/R1+*%
X42588247Y-55913553D02*
X36316455Y-62185345D01*
X44093164Y-55913553D02*
X42588247Y-55913553D01*
X14991398Y-62435001D02*
X13020000Y-60463603D01*
X15652801Y-62435001D02*
X14991398Y-62435001D01*
X17659530Y-62185345D02*
X17239193Y-61765008D01*
X13020000Y-60463603D02*
X13020000Y-60450000D01*
X17239193Y-61765008D02*
X16322794Y-61765008D01*
X36316455Y-62185345D02*
X17659530Y-62185345D01*
X16322794Y-61765008D02*
X15652801Y-62435001D01*
%TO.N,/sas0/R3+*%
X14663199Y-8125000D02*
X13020000Y-9768199D01*
X53903344Y-8656017D02*
X50972327Y-5725000D01*
X13020000Y-9768199D02*
X13020000Y-10200000D01*
X55293164Y-8656017D02*
X53903344Y-8656017D01*
X50972327Y-5725000D02*
X25413200Y-5725000D01*
X25413200Y-5725000D02*
X23013200Y-8125000D01*
X23013200Y-8125000D02*
X14663199Y-8125000D01*
%TO.N,/sas0/R3-*%
X25226800Y-5275000D02*
X22826800Y-7675000D01*
X12701801Y-9450000D02*
X11620000Y-9450000D01*
X51158727Y-5275000D02*
X25226800Y-5275000D01*
X54258236Y-8206017D02*
X54089744Y-8206017D01*
X22826800Y-7675000D02*
X14476801Y-7675000D01*
X14476801Y-7675000D02*
X12701801Y-9450000D01*
X54089744Y-8206017D02*
X51158727Y-5275000D01*
X54550700Y-7913553D02*
X54258236Y-8206017D01*
%TO.N,/sas0/R2+*%
X25938895Y-6799305D02*
X22838200Y-9900000D01*
X22838200Y-9900000D02*
X17120000Y-9900000D01*
X47101105Y-6799305D02*
X25938895Y-6799305D01*
X17120000Y-9900000D02*
X16820000Y-10200000D01*
X50493164Y-8656017D02*
X48957817Y-8656017D01*
X48957817Y-8656017D02*
X47101105Y-6799305D01*
%TO.N,/sas0/R2-*%
X22651800Y-9450000D02*
X15420000Y-9450000D01*
X49750700Y-7913553D02*
X49458236Y-8206017D01*
X47287505Y-6349305D02*
X25752495Y-6349305D01*
X25752495Y-6349305D02*
X22651800Y-9450000D01*
X49144217Y-8206017D02*
X47287505Y-6349305D01*
X49458236Y-8206017D02*
X49144217Y-8206017D01*
%TO.N,/sas0/R1+*%
X44093164Y-7913553D02*
X42588247Y-7913553D01*
X17239193Y-13765008D02*
X16322794Y-13765008D01*
X14991398Y-14435001D02*
X13020000Y-12463603D01*
X13020000Y-12463603D02*
X13020000Y-12450000D01*
X15652801Y-14435001D02*
X14991398Y-14435001D01*
X42588247Y-7913553D02*
X36316455Y-14185345D01*
X17659530Y-14185345D02*
X17239193Y-13765008D01*
X16322794Y-13765008D02*
X15652801Y-14435001D01*
X36316455Y-14185345D02*
X17659530Y-14185345D01*
%TO.N,/sas0/R1-*%
X12534999Y-12614999D02*
X11620000Y-11700000D01*
X43350700Y-8656017D02*
X43058236Y-8363553D01*
X17305001Y-14635345D02*
X17305001Y-14467199D01*
X16509186Y-14214999D02*
X15839193Y-14884992D01*
X17052801Y-14214999D02*
X16509186Y-14214999D01*
X12855001Y-12935001D02*
X12787199Y-12935001D01*
X42774647Y-8363553D02*
X36502855Y-14635345D01*
X15839193Y-14884992D02*
X14804992Y-14884992D01*
X12534999Y-12682801D02*
X12534999Y-12614999D01*
X14804992Y-14884992D02*
X12855001Y-12935001D01*
X12787199Y-12935001D02*
X12534999Y-12682801D01*
X36502855Y-14635345D02*
X17305001Y-14635345D01*
X43058236Y-8363553D02*
X42774647Y-8363553D01*
X17305001Y-14467199D02*
X17052801Y-14214999D01*
%TO.N,/sas0/R0+*%
X31293164Y-7913553D02*
X31293164Y-9445036D01*
X20676998Y-12150000D02*
X17120000Y-12150000D01*
X31293164Y-9445036D02*
X28588200Y-12150000D01*
X28588200Y-12150000D02*
X24593002Y-12150000D01*
X21866999Y-10959999D02*
X20676998Y-12150000D01*
X23403001Y-10959999D02*
X21866999Y-10959999D01*
X17120000Y-12150000D02*
X16820000Y-12450000D01*
X24593002Y-12150000D02*
X23403001Y-10959999D01*
%TO.N,/sas0/R0-*%
X28401800Y-11700000D02*
X24779385Y-11700000D01*
X23589393Y-10510008D02*
X21680607Y-10510008D01*
X20490615Y-11700000D02*
X15420000Y-11700000D01*
X30843164Y-8948481D02*
X30843164Y-9258636D01*
X21680607Y-10510008D02*
X20490615Y-11700000D01*
X24779385Y-11700000D02*
X23589393Y-10510008D01*
X30843164Y-9258636D02*
X28401800Y-11700000D01*
X30550700Y-8656017D02*
X30843164Y-8948481D01*
%TO.N,/sas1/R3+*%
X14663199Y-24125000D02*
X13020000Y-25768199D01*
X53903344Y-24656017D02*
X50972327Y-21725000D01*
X13020000Y-25768199D02*
X13020000Y-26200000D01*
X55293164Y-24656017D02*
X53903344Y-24656017D01*
X50972327Y-21725000D02*
X25413200Y-21725000D01*
X25413200Y-21725000D02*
X23013200Y-24125000D01*
X23013200Y-24125000D02*
X14663199Y-24125000D01*
%TO.N,/sas1/R3-*%
X25226800Y-21275000D02*
X22826800Y-23675000D01*
X12701801Y-25450000D02*
X11620000Y-25450000D01*
X51158727Y-21275000D02*
X25226800Y-21275000D01*
X54258236Y-24206017D02*
X54089744Y-24206017D01*
X22826800Y-23675000D02*
X14476801Y-23675000D01*
X14476801Y-23675000D02*
X12701801Y-25450000D01*
X54089744Y-24206017D02*
X51158727Y-21275000D01*
X54550700Y-23913553D02*
X54258236Y-24206017D01*
%TO.N,/sas1/R2+*%
X25938895Y-22799305D02*
X22838200Y-25900000D01*
X22838200Y-25900000D02*
X17120000Y-25900000D01*
X47101105Y-22799305D02*
X25938895Y-22799305D01*
X17120000Y-25900000D02*
X16820000Y-26200000D01*
X50493164Y-24656017D02*
X48957817Y-24656017D01*
X48957817Y-24656017D02*
X47101105Y-22799305D01*
%TO.N,/sas1/R2-*%
X22651800Y-25450000D02*
X15420000Y-25450000D01*
X49750700Y-23913553D02*
X49458236Y-24206017D01*
X47287505Y-22349305D02*
X25752495Y-22349305D01*
X25752495Y-22349305D02*
X22651800Y-25450000D01*
X49144217Y-24206017D02*
X47287505Y-22349305D01*
X49458236Y-24206017D02*
X49144217Y-24206017D01*
%TO.N,/sas1/R1+*%
X44093164Y-23913553D02*
X42588247Y-23913553D01*
X17239193Y-29765008D02*
X16322794Y-29765008D01*
X14991398Y-30435001D02*
X13020000Y-28463603D01*
X13020000Y-28463603D02*
X13020000Y-28450000D01*
X15652801Y-30435001D02*
X14991398Y-30435001D01*
X42588247Y-23913553D02*
X36316455Y-30185345D01*
X17659530Y-30185345D02*
X17239193Y-29765008D01*
X16322794Y-29765008D02*
X15652801Y-30435001D01*
X36316455Y-30185345D02*
X17659530Y-30185345D01*
%TO.N,/sas1/R1-*%
X12534999Y-28614999D02*
X11620000Y-27700000D01*
X43350700Y-24656017D02*
X43058236Y-24363553D01*
X17305001Y-30635345D02*
X17305001Y-30467199D01*
X16509186Y-30214999D02*
X15839193Y-30884992D01*
X17052801Y-30214999D02*
X16509186Y-30214999D01*
X12855001Y-28935001D02*
X12787199Y-28935001D01*
X42774647Y-24363553D02*
X36502855Y-30635345D01*
X15839193Y-30884992D02*
X14804992Y-30884992D01*
X12534999Y-28682801D02*
X12534999Y-28614999D01*
X14804992Y-30884992D02*
X12855001Y-28935001D01*
X12787199Y-28935001D02*
X12534999Y-28682801D01*
X36502855Y-30635345D02*
X17305001Y-30635345D01*
X43058236Y-24363553D02*
X42774647Y-24363553D01*
X17305001Y-30467199D02*
X17052801Y-30214999D01*
%TO.N,/sas1/R0+*%
X31293164Y-23913553D02*
X31293164Y-25445036D01*
X20676998Y-28150000D02*
X17120000Y-28150000D01*
X31293164Y-25445036D02*
X28588200Y-28150000D01*
X28588200Y-28150000D02*
X24593002Y-28150000D01*
X21866999Y-26959999D02*
X20676998Y-28150000D01*
X23403001Y-26959999D02*
X21866999Y-26959999D01*
X17120000Y-28150000D02*
X16820000Y-28450000D01*
X24593002Y-28150000D02*
X23403001Y-26959999D01*
%TO.N,/sas1/R0-*%
X28401800Y-27700000D02*
X24779385Y-27700000D01*
X23589393Y-26510008D02*
X21680607Y-26510008D01*
X20490615Y-27700000D02*
X15420000Y-27700000D01*
X30843164Y-24948481D02*
X30843164Y-25258636D01*
X21680607Y-26510008D02*
X20490615Y-27700000D01*
X24779385Y-27700000D02*
X23589393Y-26510008D01*
X30843164Y-25258636D02*
X28401800Y-27700000D01*
X30550700Y-24656017D02*
X30843164Y-24948481D01*
%TO.N,/sas2/R3+*%
X14663199Y-40125000D02*
X13020000Y-41768199D01*
X53903344Y-40656017D02*
X50972327Y-37725000D01*
X13020000Y-41768199D02*
X13020000Y-42200000D01*
X55293164Y-40656017D02*
X53903344Y-40656017D01*
X50972327Y-37725000D02*
X25413200Y-37725000D01*
X25413200Y-37725000D02*
X23013200Y-40125000D01*
X23013200Y-40125000D02*
X14663199Y-40125000D01*
%TO.N,/sas2/R3-*%
X25226800Y-37275000D02*
X22826800Y-39675000D01*
X12701801Y-41450000D02*
X11620000Y-41450000D01*
X51158727Y-37275000D02*
X25226800Y-37275000D01*
X54258236Y-40206017D02*
X54089744Y-40206017D01*
X22826800Y-39675000D02*
X14476801Y-39675000D01*
X14476801Y-39675000D02*
X12701801Y-41450000D01*
X54089744Y-40206017D02*
X51158727Y-37275000D01*
X54550700Y-39913553D02*
X54258236Y-40206017D01*
%TO.N,/sas2/R2+*%
X25938895Y-38799305D02*
X22838200Y-41900000D01*
X22838200Y-41900000D02*
X17120000Y-41900000D01*
X47101105Y-38799305D02*
X25938895Y-38799305D01*
X17120000Y-41900000D02*
X16820000Y-42200000D01*
X50493164Y-40656017D02*
X48957817Y-40656017D01*
X48957817Y-40656017D02*
X47101105Y-38799305D01*
%TO.N,/sas2/R2-*%
X22651800Y-41450000D02*
X15420000Y-41450000D01*
X49750700Y-39913553D02*
X49458236Y-40206017D01*
X47287505Y-38349305D02*
X25752495Y-38349305D01*
X25752495Y-38349305D02*
X22651800Y-41450000D01*
X49144217Y-40206017D02*
X47287505Y-38349305D01*
X49458236Y-40206017D02*
X49144217Y-40206017D01*
%TO.N,/sas2/R1+*%
X44093164Y-39913553D02*
X42588247Y-39913553D01*
X17239193Y-45765008D02*
X16322794Y-45765008D01*
X14991398Y-46435001D02*
X13020000Y-44463603D01*
X13020000Y-44463603D02*
X13020000Y-44450000D01*
X15652801Y-46435001D02*
X14991398Y-46435001D01*
X42588247Y-39913553D02*
X36316455Y-46185345D01*
X17659530Y-46185345D02*
X17239193Y-45765008D01*
X16322794Y-45765008D02*
X15652801Y-46435001D01*
X36316455Y-46185345D02*
X17659530Y-46185345D01*
%TO.N,/sas2/R1-*%
X12534999Y-44614999D02*
X11620000Y-43700000D01*
X43350700Y-40656017D02*
X43058236Y-40363553D01*
X17305001Y-46635345D02*
X17305001Y-46467199D01*
X16509186Y-46214999D02*
X15839193Y-46884992D01*
X17052801Y-46214999D02*
X16509186Y-46214999D01*
X12855001Y-44935001D02*
X12787199Y-44935001D01*
X42774647Y-40363553D02*
X36502855Y-46635345D01*
X15839193Y-46884992D02*
X14804992Y-46884992D01*
X12534999Y-44682801D02*
X12534999Y-44614999D01*
X14804992Y-46884992D02*
X12855001Y-44935001D01*
X12787199Y-44935001D02*
X12534999Y-44682801D01*
X36502855Y-46635345D02*
X17305001Y-46635345D01*
X43058236Y-40363553D02*
X42774647Y-40363553D01*
X17305001Y-46467199D02*
X17052801Y-46214999D01*
%TO.N,/sas2/R0+*%
X31293164Y-39913553D02*
X31293164Y-41445036D01*
X20676998Y-44150000D02*
X17120000Y-44150000D01*
X31293164Y-41445036D02*
X28588200Y-44150000D01*
X28588200Y-44150000D02*
X24593002Y-44150000D01*
X21866999Y-42959999D02*
X20676998Y-44150000D01*
X23403001Y-42959999D02*
X21866999Y-42959999D01*
X17120000Y-44150000D02*
X16820000Y-44450000D01*
X24593002Y-44150000D02*
X23403001Y-42959999D01*
%TO.N,/sas2/R0-*%
X28401800Y-43700000D02*
X24779385Y-43700000D01*
X23589393Y-42510008D02*
X21680607Y-42510008D01*
X20490615Y-43700000D02*
X15420000Y-43700000D01*
X30843164Y-40948481D02*
X30843164Y-41258636D01*
X21680607Y-42510008D02*
X20490615Y-43700000D01*
X24779385Y-43700000D02*
X23589393Y-42510008D01*
X30843164Y-41258636D02*
X28401800Y-43700000D01*
X30550700Y-40656017D02*
X30843164Y-40948481D01*
%TD*%
D18*
%TO.N,GND*%
G36*
X71195092Y-800751D02*
X71713100Y-981140D01*
X72178266Y-1271808D01*
X72567474Y-1658308D01*
X72861386Y-2121438D01*
X73045383Y-2638164D01*
X73115001Y-3221993D01*
X73115000Y-16727612D01*
X73100601Y-16800000D01*
X73157646Y-17086783D01*
X73267161Y-17250683D01*
X73320095Y-17329905D01*
X73563217Y-17492354D01*
X73850000Y-17549399D01*
X73873000Y-17544824D01*
X73873000Y-54255176D01*
X73850000Y-54250601D01*
X73777612Y-54265000D01*
X73563217Y-54307646D01*
X73320095Y-54470095D01*
X73157646Y-54713217D01*
X73100601Y-55000000D01*
X73115000Y-55072388D01*
X73115001Y-68672388D01*
X73122947Y-68712336D01*
X73073780Y-69150669D01*
X72891548Y-69673969D01*
X72597909Y-70143890D01*
X72207451Y-70537083D01*
X71739593Y-70833995D01*
X71217576Y-71019877D01*
X70766155Y-71073706D01*
X70722388Y-71065000D01*
X3241089Y-71065000D01*
X2654908Y-70999249D01*
X2136899Y-70818859D01*
X1671734Y-70528192D01*
X1282524Y-70141689D01*
X988614Y-69678562D01*
X804617Y-69161837D01*
X735000Y-68578016D01*
X735000Y-67692268D01*
X59460000Y-67692268D01*
X59460000Y-68287733D01*
X59547032Y-68725271D01*
X59878561Y-69221439D01*
X60374730Y-69552968D01*
X60960000Y-69669386D01*
X61545271Y-69552968D01*
X62041439Y-69221439D01*
X62216846Y-68958923D01*
X62559143Y-69340793D01*
X63087240Y-69594131D01*
X63100754Y-69596346D01*
X63333000Y-69475224D01*
X63333000Y-68117000D01*
X63587000Y-68117000D01*
X63587000Y-69475224D01*
X63819246Y-69596346D01*
X63832760Y-69594131D01*
X64360857Y-69340793D01*
X64710000Y-68951285D01*
X65059143Y-69340793D01*
X65587240Y-69594131D01*
X65600754Y-69596346D01*
X65833000Y-69475224D01*
X65833000Y-68117000D01*
X63587000Y-68117000D01*
X63333000Y-68117000D01*
X63313000Y-68117000D01*
X63313000Y-67863000D01*
X63333000Y-67863000D01*
X63333000Y-66504776D01*
X63587000Y-66504776D01*
X63587000Y-67863000D01*
X65833000Y-67863000D01*
X65833000Y-66504776D01*
X66087000Y-66504776D01*
X66087000Y-67863000D01*
X66107000Y-67863000D01*
X66107000Y-68117000D01*
X66087000Y-68117000D01*
X66087000Y-69475224D01*
X66319246Y-69596346D01*
X66332760Y-69594131D01*
X66860857Y-69340793D01*
X66986477Y-69200650D01*
X66996843Y-69252765D01*
X67137191Y-69462809D01*
X67347235Y-69603157D01*
X67595000Y-69652440D01*
X69325000Y-69652440D01*
X69572765Y-69603157D01*
X69782809Y-69462809D01*
X69923157Y-69252765D01*
X69972440Y-69005000D01*
X69972440Y-66975000D01*
X69923157Y-66727235D01*
X69782809Y-66517191D01*
X69572765Y-66376843D01*
X69325000Y-66327560D01*
X67595000Y-66327560D01*
X67347235Y-66376843D01*
X67137191Y-66517191D01*
X66996843Y-66727235D01*
X66986477Y-66779350D01*
X66860857Y-66639207D01*
X66332760Y-66385869D01*
X66319246Y-66383654D01*
X66087000Y-66504776D01*
X65833000Y-66504776D01*
X65600754Y-66383654D01*
X65587240Y-66385869D01*
X65059143Y-66639207D01*
X64710000Y-67028715D01*
X64360857Y-66639207D01*
X63832760Y-66385869D01*
X63819246Y-66383654D01*
X63587000Y-66504776D01*
X63333000Y-66504776D01*
X63100754Y-66383654D01*
X63087240Y-66385869D01*
X62559143Y-66639207D01*
X62216846Y-67021077D01*
X62041439Y-66758561D01*
X61545270Y-66427032D01*
X60960000Y-66310614D01*
X60374729Y-66427032D01*
X59878561Y-66758561D01*
X59547032Y-67254730D01*
X59460000Y-67692268D01*
X735000Y-67692268D01*
X735000Y-65354887D01*
X2385000Y-65354887D01*
X2385000Y-66045113D01*
X2649138Y-66682799D01*
X3137201Y-67170862D01*
X3774887Y-67435000D01*
X4465113Y-67435000D01*
X5102799Y-67170862D01*
X5590862Y-66682799D01*
X5855000Y-66045113D01*
X5855000Y-65354887D01*
X14385000Y-65354887D01*
X14385000Y-66045113D01*
X14649138Y-66682799D01*
X15137201Y-67170862D01*
X15774887Y-67435000D01*
X16465113Y-67435000D01*
X17102799Y-67170862D01*
X17590862Y-66682799D01*
X17855000Y-66045113D01*
X17855000Y-65354887D01*
X17590862Y-64717201D01*
X17157787Y-64284126D01*
X37085000Y-64284126D01*
X37085000Y-64695874D01*
X37242569Y-65076280D01*
X37533720Y-65367431D01*
X37914126Y-65525000D01*
X38325874Y-65525000D01*
X38706280Y-65367431D01*
X38834585Y-65239126D01*
X39060000Y-65239126D01*
X39060000Y-65650874D01*
X39217569Y-66031280D01*
X39508720Y-66322431D01*
X39889126Y-66480000D01*
X40300874Y-66480000D01*
X40681280Y-66322431D01*
X40972431Y-66031280D01*
X41130000Y-65650874D01*
X41130000Y-65239126D01*
X41119645Y-65214126D01*
X46680000Y-65214126D01*
X46680000Y-65625874D01*
X46837569Y-66006280D01*
X47128720Y-66297431D01*
X47509126Y-66455000D01*
X47920874Y-66455000D01*
X48301280Y-66297431D01*
X48337500Y-66261211D01*
X48398720Y-66322431D01*
X48779126Y-66480000D01*
X49190874Y-66480000D01*
X49571280Y-66322431D01*
X49620000Y-66273711D01*
X49668720Y-66322431D01*
X50049126Y-66480000D01*
X50460874Y-66480000D01*
X50841280Y-66322431D01*
X51132431Y-66031280D01*
X51290000Y-65650874D01*
X51290000Y-65239126D01*
X54275000Y-65239126D01*
X54275000Y-65650874D01*
X54432569Y-66031280D01*
X54723720Y-66322431D01*
X55104126Y-66480000D01*
X55515874Y-66480000D01*
X55896280Y-66322431D01*
X55945000Y-66273711D01*
X55993720Y-66322431D01*
X56374126Y-66480000D01*
X56785874Y-66480000D01*
X57166280Y-66322431D01*
X57227500Y-66261211D01*
X57288720Y-66322431D01*
X57669126Y-66480000D01*
X58080874Y-66480000D01*
X58461280Y-66322431D01*
X58752431Y-66031280D01*
X58910000Y-65650874D01*
X58910000Y-65239126D01*
X58752431Y-64858720D01*
X58461280Y-64567569D01*
X58080874Y-64410000D01*
X57669126Y-64410000D01*
X57288720Y-64567569D01*
X57227500Y-64628789D01*
X57166280Y-64567569D01*
X56785874Y-64410000D01*
X56374126Y-64410000D01*
X55993720Y-64567569D01*
X55945000Y-64616289D01*
X55896280Y-64567569D01*
X55515874Y-64410000D01*
X55104126Y-64410000D01*
X54723720Y-64567569D01*
X54432569Y-64858720D01*
X54275000Y-65239126D01*
X51290000Y-65239126D01*
X51132431Y-64858720D01*
X50841280Y-64567569D01*
X50460874Y-64410000D01*
X50049126Y-64410000D01*
X49668720Y-64567569D01*
X49620000Y-64616289D01*
X49571280Y-64567569D01*
X49190874Y-64410000D01*
X48779126Y-64410000D01*
X48398720Y-64567569D01*
X48362500Y-64603789D01*
X48301280Y-64542569D01*
X47920874Y-64385000D01*
X47509126Y-64385000D01*
X47128720Y-64542569D01*
X46837569Y-64833720D01*
X46680000Y-65214126D01*
X41119645Y-65214126D01*
X40972431Y-64858720D01*
X40681280Y-64567569D01*
X40300874Y-64410000D01*
X39889126Y-64410000D01*
X39508720Y-64567569D01*
X39217569Y-64858720D01*
X39060000Y-65239126D01*
X38834585Y-65239126D01*
X38997431Y-65076280D01*
X39155000Y-64695874D01*
X39155000Y-64284126D01*
X38997431Y-63903720D01*
X38706280Y-63612569D01*
X38325874Y-63455000D01*
X37914126Y-63455000D01*
X37533720Y-63612569D01*
X37242569Y-63903720D01*
X37085000Y-64284126D01*
X17157787Y-64284126D01*
X17102799Y-64229138D01*
X16465113Y-63965000D01*
X15774887Y-63965000D01*
X15137201Y-64229138D01*
X14649138Y-64717201D01*
X14385000Y-65354887D01*
X5855000Y-65354887D01*
X5590862Y-64717201D01*
X5102799Y-64229138D01*
X4465113Y-63965000D01*
X3774887Y-63965000D01*
X3137201Y-64229138D01*
X2649138Y-64717201D01*
X2385000Y-65354887D01*
X735000Y-65354887D01*
X735000Y-61786892D01*
X3200000Y-61786892D01*
X3200000Y-62113108D01*
X3324837Y-62414493D01*
X3555507Y-62645163D01*
X3856892Y-62770000D01*
X4183108Y-62770000D01*
X4484493Y-62645163D01*
X4605117Y-62524539D01*
X4600000Y-62536892D01*
X4600000Y-62863108D01*
X4724837Y-63164493D01*
X4955507Y-63395163D01*
X5256892Y-63520000D01*
X5583108Y-63520000D01*
X5884493Y-63395163D01*
X6115163Y-63164493D01*
X6240000Y-62863108D01*
X6240000Y-62536892D01*
X6115163Y-62235507D01*
X5884493Y-62004837D01*
X5583108Y-61880000D01*
X5256892Y-61880000D01*
X4955507Y-62004837D01*
X4834883Y-62125461D01*
X4840000Y-62113108D01*
X4840000Y-62013501D01*
X4941348Y-62006232D01*
X5133575Y-61926609D01*
X5130182Y-61786892D01*
X7000000Y-61786892D01*
X7000000Y-62113108D01*
X7124837Y-62414493D01*
X7355507Y-62645163D01*
X7656892Y-62770000D01*
X7983108Y-62770000D01*
X8284493Y-62645163D01*
X8405117Y-62524539D01*
X8400000Y-62536892D01*
X8400000Y-62863108D01*
X8524837Y-63164493D01*
X8755507Y-63395163D01*
X9056892Y-63520000D01*
X9383108Y-63520000D01*
X9684493Y-63395163D01*
X9915163Y-63164493D01*
X10040000Y-62863108D01*
X10040000Y-62536892D01*
X9915163Y-62235507D01*
X9684493Y-62004837D01*
X9383108Y-61880000D01*
X9056892Y-61880000D01*
X8755507Y-62004837D01*
X8634883Y-62125461D01*
X8640000Y-62113108D01*
X8640000Y-62013501D01*
X8741348Y-62006232D01*
X8933575Y-61926609D01*
X8929039Y-61739854D01*
X8520000Y-61330815D01*
X8481463Y-61369353D01*
X8350648Y-61238538D01*
X8389185Y-61200000D01*
X7980146Y-60790961D01*
X7793391Y-60786425D01*
X7690432Y-61095968D01*
X7692873Y-61130000D01*
X7656892Y-61130000D01*
X7355507Y-61254837D01*
X7124837Y-61485507D01*
X7000000Y-61786892D01*
X5130182Y-61786892D01*
X5129039Y-61739854D01*
X4720000Y-61330815D01*
X4681463Y-61369353D01*
X4550648Y-61238538D01*
X4589185Y-61200000D01*
X4180146Y-60790961D01*
X3993391Y-60786425D01*
X3890432Y-61095968D01*
X3892873Y-61130000D01*
X3856892Y-61130000D01*
X3555507Y-61254837D01*
X3324837Y-61485507D01*
X3200000Y-61786892D01*
X735000Y-61786892D01*
X735000Y-59536892D01*
X3200000Y-59536892D01*
X3200000Y-59863108D01*
X3324837Y-60164493D01*
X3555507Y-60395163D01*
X3856892Y-60520000D01*
X4183108Y-60520000D01*
X4484493Y-60395163D01*
X4605117Y-60274539D01*
X4600000Y-60286892D01*
X4600000Y-60386499D01*
X4498652Y-60393768D01*
X4306425Y-60473391D01*
X4310961Y-60660146D01*
X4720000Y-61069185D01*
X4758538Y-61030648D01*
X4889353Y-61161463D01*
X4850815Y-61200000D01*
X5259854Y-61609039D01*
X5446609Y-61613575D01*
X5549568Y-61304032D01*
X5547127Y-61270000D01*
X5583108Y-61270000D01*
X5884493Y-61145163D01*
X6115163Y-60914493D01*
X6240000Y-60613108D01*
X6240000Y-60286892D01*
X6115163Y-59985507D01*
X5884493Y-59754837D01*
X5583108Y-59630000D01*
X5256892Y-59630000D01*
X4955507Y-59754837D01*
X4834883Y-59875461D01*
X4840000Y-59863108D01*
X4840000Y-59763501D01*
X4941348Y-59756232D01*
X5133575Y-59676609D01*
X5130182Y-59536892D01*
X7000000Y-59536892D01*
X7000000Y-59863108D01*
X7124837Y-60164493D01*
X7355507Y-60395163D01*
X7656892Y-60520000D01*
X7983108Y-60520000D01*
X8284493Y-60395163D01*
X8405117Y-60274539D01*
X8400000Y-60286892D01*
X8400000Y-60386499D01*
X8298652Y-60393768D01*
X8106425Y-60473391D01*
X8110961Y-60660146D01*
X8520000Y-61069185D01*
X8558538Y-61030648D01*
X8689353Y-61161463D01*
X8650815Y-61200000D01*
X9059854Y-61609039D01*
X9246609Y-61613575D01*
X9349568Y-61304032D01*
X9347127Y-61270000D01*
X9383108Y-61270000D01*
X9684493Y-61145163D01*
X9915163Y-60914493D01*
X10040000Y-60613108D01*
X10040000Y-60286892D01*
X9915163Y-59985507D01*
X9684493Y-59754837D01*
X9383108Y-59630000D01*
X9056892Y-59630000D01*
X8755507Y-59754837D01*
X8634883Y-59875461D01*
X8640000Y-59863108D01*
X8640000Y-59763501D01*
X8741348Y-59756232D01*
X8933575Y-59676609D01*
X8929039Y-59489854D01*
X8520000Y-59080815D01*
X8481463Y-59119353D01*
X8350648Y-58988538D01*
X8389185Y-58950000D01*
X7980146Y-58540961D01*
X7793391Y-58536425D01*
X7690432Y-58845968D01*
X7692873Y-58880000D01*
X7656892Y-58880000D01*
X7355507Y-59004837D01*
X7124837Y-59235507D01*
X7000000Y-59536892D01*
X5130182Y-59536892D01*
X5129039Y-59489854D01*
X4720000Y-59080815D01*
X4681463Y-59119353D01*
X4550648Y-58988538D01*
X4589185Y-58950000D01*
X4180146Y-58540961D01*
X3993391Y-58536425D01*
X3890432Y-58845968D01*
X3892873Y-58880000D01*
X3856892Y-58880000D01*
X3555507Y-59004837D01*
X3324837Y-59235507D01*
X3200000Y-59536892D01*
X735000Y-59536892D01*
X735000Y-57286892D01*
X3200000Y-57286892D01*
X3200000Y-57613108D01*
X3324837Y-57914493D01*
X3555507Y-58145163D01*
X3856892Y-58270000D01*
X4183108Y-58270000D01*
X4484493Y-58145163D01*
X4605117Y-58024539D01*
X4600000Y-58036892D01*
X4600000Y-58136499D01*
X4498652Y-58143768D01*
X4306425Y-58223391D01*
X4310961Y-58410146D01*
X4720000Y-58819185D01*
X4758538Y-58780648D01*
X4889353Y-58911463D01*
X4850815Y-58950000D01*
X5259854Y-59359039D01*
X5446609Y-59363575D01*
X5549568Y-59054032D01*
X5547127Y-59020000D01*
X5583108Y-59020000D01*
X5884493Y-58895163D01*
X6115163Y-58664493D01*
X6240000Y-58363108D01*
X6240000Y-58036892D01*
X6115163Y-57735507D01*
X5884493Y-57504837D01*
X5583108Y-57380000D01*
X5256892Y-57380000D01*
X4955507Y-57504837D01*
X4834883Y-57625461D01*
X4840000Y-57613108D01*
X4840000Y-57513501D01*
X4941348Y-57506232D01*
X5133575Y-57426609D01*
X5130182Y-57286892D01*
X7000000Y-57286892D01*
X7000000Y-57613108D01*
X7124837Y-57914493D01*
X7355507Y-58145163D01*
X7656892Y-58270000D01*
X7983108Y-58270000D01*
X8284493Y-58145163D01*
X8405117Y-58024539D01*
X8400000Y-58036892D01*
X8400000Y-58136499D01*
X8298652Y-58143768D01*
X8106425Y-58223391D01*
X8110961Y-58410146D01*
X8520000Y-58819185D01*
X8558538Y-58780648D01*
X8689353Y-58911463D01*
X8650815Y-58950000D01*
X9059854Y-59359039D01*
X9246609Y-59363575D01*
X9349568Y-59054032D01*
X9347127Y-59020000D01*
X9383108Y-59020000D01*
X9684493Y-58895163D01*
X9915163Y-58664493D01*
X10040000Y-58363108D01*
X10040000Y-58036892D01*
X9915163Y-57735507D01*
X9684493Y-57504837D01*
X9383108Y-57380000D01*
X9056892Y-57380000D01*
X8755507Y-57504837D01*
X8634883Y-57625461D01*
X8640000Y-57613108D01*
X8640000Y-57513501D01*
X8741348Y-57506232D01*
X8933575Y-57426609D01*
X8930182Y-57286892D01*
X10800000Y-57286892D01*
X10800000Y-57613108D01*
X10924837Y-57914493D01*
X11155507Y-58145163D01*
X11456892Y-58270000D01*
X11783108Y-58270000D01*
X11988317Y-58185000D01*
X11999109Y-58185000D01*
X11906425Y-58223391D01*
X11910961Y-58410146D01*
X12320000Y-58819185D01*
X12358538Y-58780648D01*
X12489353Y-58911463D01*
X12450815Y-58950000D01*
X12859854Y-59359039D01*
X13046609Y-59363575D01*
X13149568Y-59054032D01*
X13147127Y-59020000D01*
X13183108Y-59020000D01*
X13484493Y-58895163D01*
X13715163Y-58664493D01*
X13840000Y-58363108D01*
X13840000Y-58036892D01*
X13825576Y-58002069D01*
X14641893Y-57185753D01*
X14600000Y-57286892D01*
X14600000Y-57613108D01*
X14724837Y-57914493D01*
X14955507Y-58145163D01*
X15256892Y-58270000D01*
X15583108Y-58270000D01*
X15788317Y-58185000D01*
X15799109Y-58185000D01*
X15706425Y-58223391D01*
X15710961Y-58410146D01*
X16120000Y-58819185D01*
X16158538Y-58780648D01*
X16289353Y-58911463D01*
X16250815Y-58950000D01*
X16265815Y-58965000D01*
X15974185Y-58965000D01*
X15989185Y-58950000D01*
X15580146Y-58540961D01*
X15393391Y-58536425D01*
X15290432Y-58845968D01*
X15292873Y-58880000D01*
X15256892Y-58880000D01*
X14955507Y-59004837D01*
X14724837Y-59235507D01*
X14600000Y-59536892D01*
X14600000Y-59863108D01*
X14724837Y-60164493D01*
X14955507Y-60395163D01*
X15256892Y-60520000D01*
X15583108Y-60520000D01*
X15788317Y-60435000D01*
X15799109Y-60435000D01*
X15706425Y-60473391D01*
X15710961Y-60660146D01*
X16108959Y-61058144D01*
X16036011Y-61072654D01*
X15931603Y-61142418D01*
X15580146Y-60790961D01*
X15393391Y-60786425D01*
X15290432Y-61095968D01*
X15292873Y-61130000D01*
X15256892Y-61130000D01*
X14955507Y-61254837D01*
X14903094Y-61307250D01*
X13809782Y-60213939D01*
X13715163Y-59985507D01*
X13484493Y-59754837D01*
X13183108Y-59630000D01*
X12856892Y-59630000D01*
X12667779Y-59708333D01*
X12664618Y-59705172D01*
X12733575Y-59676609D01*
X12729039Y-59489854D01*
X12320000Y-59080815D01*
X12281463Y-59119353D01*
X12150648Y-58988538D01*
X12189185Y-58950000D01*
X11780146Y-58540961D01*
X11593391Y-58536425D01*
X11490432Y-58845968D01*
X11492873Y-58880000D01*
X11456892Y-58880000D01*
X11155507Y-59004837D01*
X10924837Y-59235507D01*
X10800000Y-59536892D01*
X10800000Y-59863108D01*
X10924837Y-60164493D01*
X11155507Y-60395163D01*
X11360717Y-60480163D01*
X11668810Y-60788257D01*
X11593391Y-60786425D01*
X11490432Y-61095968D01*
X11492873Y-61130000D01*
X11456892Y-61130000D01*
X11155507Y-61254837D01*
X10924837Y-61485507D01*
X10800000Y-61786892D01*
X10800000Y-62113108D01*
X10924837Y-62414493D01*
X11155507Y-62645163D01*
X11456892Y-62770000D01*
X11783108Y-62770000D01*
X12084493Y-62645163D01*
X12205117Y-62524539D01*
X12200000Y-62536892D01*
X12200000Y-62863108D01*
X12324837Y-63164493D01*
X12555507Y-63395163D01*
X12856892Y-63520000D01*
X13183108Y-63520000D01*
X13484493Y-63395163D01*
X13715163Y-63164493D01*
X13811783Y-62931230D01*
X14234082Y-63353529D01*
X14275087Y-63414897D01*
X14518209Y-63577346D01*
X14732604Y-63619992D01*
X14804992Y-63634391D01*
X14877380Y-63619992D01*
X15766809Y-63619992D01*
X15839193Y-63634390D01*
X15911577Y-63619992D01*
X15911581Y-63619992D01*
X16125976Y-63577346D01*
X16369098Y-63414897D01*
X16376479Y-63403850D01*
X16656892Y-63520000D01*
X16983108Y-63520000D01*
X17284493Y-63395163D01*
X17296586Y-63383070D01*
X17305001Y-63384744D01*
X17377389Y-63370345D01*
X36430471Y-63370345D01*
X36502855Y-63384743D01*
X36575239Y-63370345D01*
X36575243Y-63370345D01*
X36789638Y-63327699D01*
X37032760Y-63165250D01*
X37073766Y-63103880D01*
X40002541Y-60175105D01*
X59430000Y-60175105D01*
X59430000Y-60944895D01*
X59724586Y-61656090D01*
X60268910Y-62200414D01*
X60980105Y-62495000D01*
X61749895Y-62495000D01*
X62461090Y-62200414D01*
X63005414Y-61656090D01*
X63300000Y-60944895D01*
X63300000Y-60175105D01*
X63005414Y-59463910D01*
X62461090Y-58919586D01*
X61749895Y-58625000D01*
X60980105Y-58625000D01*
X60268910Y-58919586D01*
X59724586Y-59463910D01*
X59430000Y-60175105D01*
X40002541Y-60175105D01*
X42704309Y-57473337D01*
X42764420Y-57533448D01*
X43144826Y-57691017D01*
X43556574Y-57691017D01*
X43936980Y-57533448D01*
X44228131Y-57242297D01*
X44360317Y-56923170D01*
X44679444Y-56790984D01*
X44715700Y-56754728D01*
X44715700Y-56861891D01*
X44873269Y-57242297D01*
X45164420Y-57533448D01*
X45544826Y-57691017D01*
X45956574Y-57691017D01*
X46336980Y-57533448D01*
X46628131Y-57242297D01*
X46760317Y-56923170D01*
X47079444Y-56790984D01*
X47370595Y-56499833D01*
X47485289Y-56222936D01*
X48386907Y-57124554D01*
X48427912Y-57185922D01*
X48671034Y-57348371D01*
X48885429Y-57391017D01*
X48885432Y-57391017D01*
X48957816Y-57405415D01*
X49030200Y-57391017D01*
X49764453Y-57391017D01*
X49906884Y-57533448D01*
X50287290Y-57691017D01*
X50699038Y-57691017D01*
X51079444Y-57533448D01*
X51370595Y-57242297D01*
X51528164Y-56861891D01*
X51528164Y-56754728D01*
X51564420Y-56790984D01*
X51883547Y-56923170D01*
X52015733Y-57242297D01*
X52306884Y-57533448D01*
X52687290Y-57691017D01*
X53099038Y-57691017D01*
X53479444Y-57533448D01*
X53656564Y-57356328D01*
X53830956Y-57391017D01*
X53830960Y-57391017D01*
X53903344Y-57405415D01*
X53975728Y-57391017D01*
X54564453Y-57391017D01*
X54706884Y-57533448D01*
X55087290Y-57691017D01*
X55499038Y-57691017D01*
X55879444Y-57533448D01*
X56170595Y-57242297D01*
X56328164Y-56861891D01*
X56328164Y-56450143D01*
X56170595Y-56069737D01*
X55879444Y-55778586D01*
X55560317Y-55646400D01*
X55428131Y-55327273D01*
X55136980Y-55036122D01*
X54756574Y-54878553D01*
X54344826Y-54878553D01*
X53964420Y-55036122D01*
X53961858Y-55038684D01*
X51729638Y-52806465D01*
X51688632Y-52745095D01*
X51445510Y-52582646D01*
X51231115Y-52540000D01*
X51231111Y-52540000D01*
X51158727Y-52525602D01*
X51086343Y-52540000D01*
X25299188Y-52540000D01*
X25226800Y-52525601D01*
X25154412Y-52540000D01*
X24940017Y-52582646D01*
X24696895Y-52745095D01*
X24655891Y-52806463D01*
X22522354Y-54940000D01*
X17333661Y-54940000D01*
X17590862Y-54682799D01*
X17855000Y-54045113D01*
X17855000Y-53354887D01*
X17590862Y-52717201D01*
X17102799Y-52229138D01*
X16465113Y-51965000D01*
X15774887Y-51965000D01*
X15137201Y-52229138D01*
X14649138Y-52717201D01*
X14385000Y-53354887D01*
X14385000Y-54045113D01*
X14649138Y-54682799D01*
X14906339Y-54940000D01*
X14549184Y-54940000D01*
X14476800Y-54925602D01*
X14404416Y-54940000D01*
X14404413Y-54940000D01*
X14190018Y-54982646D01*
X13946896Y-55145095D01*
X13905891Y-55206463D01*
X12397355Y-56715000D01*
X12174185Y-56715000D01*
X12189185Y-56700000D01*
X11780146Y-56290961D01*
X11593391Y-56286425D01*
X11490432Y-56595968D01*
X11492873Y-56630000D01*
X11456892Y-56630000D01*
X11155507Y-56754837D01*
X10924837Y-56985507D01*
X10800000Y-57286892D01*
X8930182Y-57286892D01*
X8929039Y-57239854D01*
X8520000Y-56830815D01*
X8481463Y-56869353D01*
X8350648Y-56738538D01*
X8389185Y-56700000D01*
X8650815Y-56700000D01*
X9059854Y-57109039D01*
X9246609Y-57113575D01*
X9349568Y-56804032D01*
X9326232Y-56478652D01*
X9246609Y-56286425D01*
X9059854Y-56290961D01*
X8650815Y-56700000D01*
X8389185Y-56700000D01*
X7980146Y-56290961D01*
X7793391Y-56286425D01*
X7690432Y-56595968D01*
X7692873Y-56630000D01*
X7656892Y-56630000D01*
X7355507Y-56754837D01*
X7124837Y-56985507D01*
X7000000Y-57286892D01*
X5130182Y-57286892D01*
X5129039Y-57239854D01*
X4720000Y-56830815D01*
X4681463Y-56869353D01*
X4550648Y-56738538D01*
X4589185Y-56700000D01*
X4850815Y-56700000D01*
X5259854Y-57109039D01*
X5446609Y-57113575D01*
X5549568Y-56804032D01*
X5526232Y-56478652D01*
X5446609Y-56286425D01*
X5259854Y-56290961D01*
X4850815Y-56700000D01*
X4589185Y-56700000D01*
X4180146Y-56290961D01*
X3993391Y-56286425D01*
X3890432Y-56595968D01*
X3892873Y-56630000D01*
X3856892Y-56630000D01*
X3555507Y-56754837D01*
X3324837Y-56985507D01*
X3200000Y-57286892D01*
X735000Y-57286892D01*
X735000Y-55973391D01*
X4306425Y-55973391D01*
X4310961Y-56160146D01*
X4720000Y-56569185D01*
X5129039Y-56160146D01*
X5133575Y-55973391D01*
X8106425Y-55973391D01*
X8110961Y-56160146D01*
X8520000Y-56569185D01*
X8929039Y-56160146D01*
X8933575Y-55973391D01*
X11906425Y-55973391D01*
X11910961Y-56160146D01*
X12320000Y-56569185D01*
X12729039Y-56160146D01*
X12733575Y-55973391D01*
X12424032Y-55870432D01*
X12098652Y-55893768D01*
X11906425Y-55973391D01*
X8933575Y-55973391D01*
X8624032Y-55870432D01*
X8298652Y-55893768D01*
X8106425Y-55973391D01*
X5133575Y-55973391D01*
X4824032Y-55870432D01*
X4498652Y-55893768D01*
X4306425Y-55973391D01*
X735000Y-55973391D01*
X735000Y-55072388D01*
X749399Y-55000000D01*
X692354Y-54713217D01*
X529905Y-54470095D01*
X286783Y-54307646D01*
X127000Y-54275863D01*
X127000Y-53354887D01*
X2385000Y-53354887D01*
X2385000Y-54045113D01*
X2649138Y-54682799D01*
X3137201Y-55170862D01*
X3774887Y-55435000D01*
X4465113Y-55435000D01*
X5102799Y-55170862D01*
X5590862Y-54682799D01*
X5855000Y-54045113D01*
X5855000Y-53354887D01*
X5590862Y-52717201D01*
X5102799Y-52229138D01*
X4465113Y-51965000D01*
X3774887Y-51965000D01*
X3137201Y-52229138D01*
X2649138Y-52717201D01*
X2385000Y-53354887D01*
X127000Y-53354887D01*
X127000Y-49354887D01*
X2385000Y-49354887D01*
X2385000Y-50045113D01*
X2649138Y-50682799D01*
X3137201Y-51170862D01*
X3774887Y-51435000D01*
X4465113Y-51435000D01*
X5102799Y-51170862D01*
X5590862Y-50682799D01*
X5855000Y-50045113D01*
X5855000Y-49354887D01*
X14385000Y-49354887D01*
X14385000Y-50045113D01*
X14649138Y-50682799D01*
X15137201Y-51170862D01*
X15774887Y-51435000D01*
X16465113Y-51435000D01*
X17102799Y-51170862D01*
X17590862Y-50682799D01*
X17855000Y-50045113D01*
X17855000Y-49354887D01*
X17590862Y-48717201D01*
X17157787Y-48284126D01*
X37085000Y-48284126D01*
X37085000Y-48695874D01*
X37242569Y-49076280D01*
X37533720Y-49367431D01*
X37914126Y-49525000D01*
X38325874Y-49525000D01*
X38706280Y-49367431D01*
X38834585Y-49239126D01*
X39060000Y-49239126D01*
X39060000Y-49650874D01*
X39217569Y-50031280D01*
X39508720Y-50322431D01*
X39889126Y-50480000D01*
X40300874Y-50480000D01*
X40681280Y-50322431D01*
X40972431Y-50031280D01*
X41130000Y-49650874D01*
X41130000Y-49239126D01*
X41119645Y-49214126D01*
X46680000Y-49214126D01*
X46680000Y-49625874D01*
X46837569Y-50006280D01*
X47128720Y-50297431D01*
X47509126Y-50455000D01*
X47920874Y-50455000D01*
X48301280Y-50297431D01*
X48337500Y-50261211D01*
X48398720Y-50322431D01*
X48779126Y-50480000D01*
X49190874Y-50480000D01*
X49571280Y-50322431D01*
X49620000Y-50273711D01*
X49668720Y-50322431D01*
X50049126Y-50480000D01*
X50460874Y-50480000D01*
X50841280Y-50322431D01*
X51132431Y-50031280D01*
X51290000Y-49650874D01*
X51290000Y-49239126D01*
X54275000Y-49239126D01*
X54275000Y-49650874D01*
X54432569Y-50031280D01*
X54723720Y-50322431D01*
X55104126Y-50480000D01*
X55515874Y-50480000D01*
X55896280Y-50322431D01*
X55945000Y-50273711D01*
X55993720Y-50322431D01*
X56374126Y-50480000D01*
X56785874Y-50480000D01*
X57166280Y-50322431D01*
X57227500Y-50261211D01*
X57288720Y-50322431D01*
X57669126Y-50480000D01*
X58080874Y-50480000D01*
X58461280Y-50322431D01*
X58752431Y-50031280D01*
X58910000Y-49650874D01*
X58910000Y-49239126D01*
X58752431Y-48858720D01*
X58461280Y-48567569D01*
X58080874Y-48410000D01*
X57669126Y-48410000D01*
X57288720Y-48567569D01*
X57227500Y-48628789D01*
X57166280Y-48567569D01*
X56785874Y-48410000D01*
X56374126Y-48410000D01*
X55993720Y-48567569D01*
X55945000Y-48616289D01*
X55896280Y-48567569D01*
X55515874Y-48410000D01*
X55104126Y-48410000D01*
X54723720Y-48567569D01*
X54432569Y-48858720D01*
X54275000Y-49239126D01*
X51290000Y-49239126D01*
X51132431Y-48858720D01*
X50841280Y-48567569D01*
X50460874Y-48410000D01*
X50049126Y-48410000D01*
X49668720Y-48567569D01*
X49620000Y-48616289D01*
X49571280Y-48567569D01*
X49190874Y-48410000D01*
X48779126Y-48410000D01*
X48398720Y-48567569D01*
X48362500Y-48603789D01*
X48301280Y-48542569D01*
X47920874Y-48385000D01*
X47509126Y-48385000D01*
X47128720Y-48542569D01*
X46837569Y-48833720D01*
X46680000Y-49214126D01*
X41119645Y-49214126D01*
X40972431Y-48858720D01*
X40681280Y-48567569D01*
X40300874Y-48410000D01*
X39889126Y-48410000D01*
X39508720Y-48567569D01*
X39217569Y-48858720D01*
X39060000Y-49239126D01*
X38834585Y-49239126D01*
X38997431Y-49076280D01*
X39155000Y-48695874D01*
X39155000Y-48284126D01*
X38997431Y-47903720D01*
X38706280Y-47612569D01*
X38325874Y-47455000D01*
X37914126Y-47455000D01*
X37533720Y-47612569D01*
X37242569Y-47903720D01*
X37085000Y-48284126D01*
X17157787Y-48284126D01*
X17102799Y-48229138D01*
X16465113Y-47965000D01*
X15774887Y-47965000D01*
X15137201Y-48229138D01*
X14649138Y-48717201D01*
X14385000Y-49354887D01*
X5855000Y-49354887D01*
X5590862Y-48717201D01*
X5102799Y-48229138D01*
X4465113Y-47965000D01*
X3774887Y-47965000D01*
X3137201Y-48229138D01*
X2649138Y-48717201D01*
X2385000Y-49354887D01*
X127000Y-49354887D01*
X127000Y-45786892D01*
X3200000Y-45786892D01*
X3200000Y-46113108D01*
X3324837Y-46414493D01*
X3555507Y-46645163D01*
X3856892Y-46770000D01*
X4183108Y-46770000D01*
X4484493Y-46645163D01*
X4605117Y-46524539D01*
X4600000Y-46536892D01*
X4600000Y-46863108D01*
X4724837Y-47164493D01*
X4955507Y-47395163D01*
X5256892Y-47520000D01*
X5583108Y-47520000D01*
X5884493Y-47395163D01*
X6115163Y-47164493D01*
X6240000Y-46863108D01*
X6240000Y-46536892D01*
X6115163Y-46235507D01*
X5884493Y-46004837D01*
X5583108Y-45880000D01*
X5256892Y-45880000D01*
X4955507Y-46004837D01*
X4834883Y-46125461D01*
X4840000Y-46113108D01*
X4840000Y-46013501D01*
X4941348Y-46006232D01*
X5133575Y-45926609D01*
X5130182Y-45786892D01*
X7000000Y-45786892D01*
X7000000Y-46113108D01*
X7124837Y-46414493D01*
X7355507Y-46645163D01*
X7656892Y-46770000D01*
X7983108Y-46770000D01*
X8284493Y-46645163D01*
X8405117Y-46524539D01*
X8400000Y-46536892D01*
X8400000Y-46863108D01*
X8524837Y-47164493D01*
X8755507Y-47395163D01*
X9056892Y-47520000D01*
X9383108Y-47520000D01*
X9684493Y-47395163D01*
X9915163Y-47164493D01*
X10040000Y-46863108D01*
X10040000Y-46536892D01*
X9915163Y-46235507D01*
X9684493Y-46004837D01*
X9383108Y-45880000D01*
X9056892Y-45880000D01*
X8755507Y-46004837D01*
X8634883Y-46125461D01*
X8640000Y-46113108D01*
X8640000Y-46013501D01*
X8741348Y-46006232D01*
X8933575Y-45926609D01*
X8929039Y-45739854D01*
X8520000Y-45330815D01*
X8481463Y-45369353D01*
X8350648Y-45238538D01*
X8389185Y-45200000D01*
X7980146Y-44790961D01*
X7793391Y-44786425D01*
X7690432Y-45095968D01*
X7692873Y-45130000D01*
X7656892Y-45130000D01*
X7355507Y-45254837D01*
X7124837Y-45485507D01*
X7000000Y-45786892D01*
X5130182Y-45786892D01*
X5129039Y-45739854D01*
X4720000Y-45330815D01*
X4681463Y-45369353D01*
X4550648Y-45238538D01*
X4589185Y-45200000D01*
X4180146Y-44790961D01*
X3993391Y-44786425D01*
X3890432Y-45095968D01*
X3892873Y-45130000D01*
X3856892Y-45130000D01*
X3555507Y-45254837D01*
X3324837Y-45485507D01*
X3200000Y-45786892D01*
X127000Y-45786892D01*
X127000Y-43536892D01*
X3200000Y-43536892D01*
X3200000Y-43863108D01*
X3324837Y-44164493D01*
X3555507Y-44395163D01*
X3856892Y-44520000D01*
X4183108Y-44520000D01*
X4484493Y-44395163D01*
X4605117Y-44274539D01*
X4600000Y-44286892D01*
X4600000Y-44386499D01*
X4498652Y-44393768D01*
X4306425Y-44473391D01*
X4310961Y-44660146D01*
X4720000Y-45069185D01*
X4758538Y-45030648D01*
X4889353Y-45161463D01*
X4850815Y-45200000D01*
X5259854Y-45609039D01*
X5446609Y-45613575D01*
X5549568Y-45304032D01*
X5547127Y-45270000D01*
X5583108Y-45270000D01*
X5884493Y-45145163D01*
X6115163Y-44914493D01*
X6240000Y-44613108D01*
X6240000Y-44286892D01*
X6115163Y-43985507D01*
X5884493Y-43754837D01*
X5583108Y-43630000D01*
X5256892Y-43630000D01*
X4955507Y-43754837D01*
X4834883Y-43875461D01*
X4840000Y-43863108D01*
X4840000Y-43763501D01*
X4941348Y-43756232D01*
X5133575Y-43676609D01*
X5130182Y-43536892D01*
X7000000Y-43536892D01*
X7000000Y-43863108D01*
X7124837Y-44164493D01*
X7355507Y-44395163D01*
X7656892Y-44520000D01*
X7983108Y-44520000D01*
X8284493Y-44395163D01*
X8405117Y-44274539D01*
X8400000Y-44286892D01*
X8400000Y-44386499D01*
X8298652Y-44393768D01*
X8106425Y-44473391D01*
X8110961Y-44660146D01*
X8520000Y-45069185D01*
X8558538Y-45030648D01*
X8689353Y-45161463D01*
X8650815Y-45200000D01*
X9059854Y-45609039D01*
X9246609Y-45613575D01*
X9349568Y-45304032D01*
X9347127Y-45270000D01*
X9383108Y-45270000D01*
X9684493Y-45145163D01*
X9915163Y-44914493D01*
X10040000Y-44613108D01*
X10040000Y-44286892D01*
X9915163Y-43985507D01*
X9684493Y-43754837D01*
X9383108Y-43630000D01*
X9056892Y-43630000D01*
X8755507Y-43754837D01*
X8634883Y-43875461D01*
X8640000Y-43863108D01*
X8640000Y-43763501D01*
X8741348Y-43756232D01*
X8933575Y-43676609D01*
X8929039Y-43489854D01*
X8520000Y-43080815D01*
X8481463Y-43119353D01*
X8350648Y-42988538D01*
X8389185Y-42950000D01*
X7980146Y-42540961D01*
X7793391Y-42536425D01*
X7690432Y-42845968D01*
X7692873Y-42880000D01*
X7656892Y-42880000D01*
X7355507Y-43004837D01*
X7124837Y-43235507D01*
X7000000Y-43536892D01*
X5130182Y-43536892D01*
X5129039Y-43489854D01*
X4720000Y-43080815D01*
X4681463Y-43119353D01*
X4550648Y-42988538D01*
X4589185Y-42950000D01*
X4180146Y-42540961D01*
X3993391Y-42536425D01*
X3890432Y-42845968D01*
X3892873Y-42880000D01*
X3856892Y-42880000D01*
X3555507Y-43004837D01*
X3324837Y-43235507D01*
X3200000Y-43536892D01*
X127000Y-43536892D01*
X127000Y-41286892D01*
X3200000Y-41286892D01*
X3200000Y-41613108D01*
X3324837Y-41914493D01*
X3555507Y-42145163D01*
X3856892Y-42270000D01*
X4183108Y-42270000D01*
X4484493Y-42145163D01*
X4605117Y-42024539D01*
X4600000Y-42036892D01*
X4600000Y-42136499D01*
X4498652Y-42143768D01*
X4306425Y-42223391D01*
X4310961Y-42410146D01*
X4720000Y-42819185D01*
X4758538Y-42780648D01*
X4889353Y-42911463D01*
X4850815Y-42950000D01*
X5259854Y-43359039D01*
X5446609Y-43363575D01*
X5549568Y-43054032D01*
X5547127Y-43020000D01*
X5583108Y-43020000D01*
X5884493Y-42895163D01*
X6115163Y-42664493D01*
X6240000Y-42363108D01*
X6240000Y-42036892D01*
X6115163Y-41735507D01*
X5884493Y-41504837D01*
X5583108Y-41380000D01*
X5256892Y-41380000D01*
X4955507Y-41504837D01*
X4834883Y-41625461D01*
X4840000Y-41613108D01*
X4840000Y-41513501D01*
X4941348Y-41506232D01*
X5133575Y-41426609D01*
X5130182Y-41286892D01*
X7000000Y-41286892D01*
X7000000Y-41613108D01*
X7124837Y-41914493D01*
X7355507Y-42145163D01*
X7656892Y-42270000D01*
X7983108Y-42270000D01*
X8284493Y-42145163D01*
X8405117Y-42024539D01*
X8400000Y-42036892D01*
X8400000Y-42136499D01*
X8298652Y-42143768D01*
X8106425Y-42223391D01*
X8110961Y-42410146D01*
X8520000Y-42819185D01*
X8558538Y-42780648D01*
X8689353Y-42911463D01*
X8650815Y-42950000D01*
X9059854Y-43359039D01*
X9246609Y-43363575D01*
X9349568Y-43054032D01*
X9347127Y-43020000D01*
X9383108Y-43020000D01*
X9684493Y-42895163D01*
X9915163Y-42664493D01*
X10040000Y-42363108D01*
X10040000Y-42036892D01*
X9915163Y-41735507D01*
X9684493Y-41504837D01*
X9383108Y-41380000D01*
X9056892Y-41380000D01*
X8755507Y-41504837D01*
X8634883Y-41625461D01*
X8640000Y-41613108D01*
X8640000Y-41513501D01*
X8741348Y-41506232D01*
X8933575Y-41426609D01*
X8930182Y-41286892D01*
X10800000Y-41286892D01*
X10800000Y-41613108D01*
X10924837Y-41914493D01*
X11155507Y-42145163D01*
X11456892Y-42270000D01*
X11783108Y-42270000D01*
X11988317Y-42185000D01*
X11999109Y-42185000D01*
X11906425Y-42223391D01*
X11910961Y-42410146D01*
X12320000Y-42819185D01*
X12358538Y-42780648D01*
X12489353Y-42911463D01*
X12450815Y-42950000D01*
X12859854Y-43359039D01*
X13046609Y-43363575D01*
X13149568Y-43054032D01*
X13147127Y-43020000D01*
X13183108Y-43020000D01*
X13484493Y-42895163D01*
X13715163Y-42664493D01*
X13840000Y-42363108D01*
X13840000Y-42036892D01*
X13825576Y-42002069D01*
X14641893Y-41185753D01*
X14600000Y-41286892D01*
X14600000Y-41613108D01*
X14724837Y-41914493D01*
X14955507Y-42145163D01*
X15256892Y-42270000D01*
X15583108Y-42270000D01*
X15788317Y-42185000D01*
X15799109Y-42185000D01*
X15706425Y-42223391D01*
X15710961Y-42410146D01*
X16120000Y-42819185D01*
X16158538Y-42780648D01*
X16289353Y-42911463D01*
X16250815Y-42950000D01*
X16265815Y-42965000D01*
X15974185Y-42965000D01*
X15989185Y-42950000D01*
X15580146Y-42540961D01*
X15393391Y-42536425D01*
X15290432Y-42845968D01*
X15292873Y-42880000D01*
X15256892Y-42880000D01*
X14955507Y-43004837D01*
X14724837Y-43235507D01*
X14600000Y-43536892D01*
X14600000Y-43863108D01*
X14724837Y-44164493D01*
X14955507Y-44395163D01*
X15256892Y-44520000D01*
X15583108Y-44520000D01*
X15788317Y-44435000D01*
X15799109Y-44435000D01*
X15706425Y-44473391D01*
X15710961Y-44660146D01*
X16108959Y-45058144D01*
X16036011Y-45072654D01*
X15931603Y-45142418D01*
X15580146Y-44790961D01*
X15393391Y-44786425D01*
X15290432Y-45095968D01*
X15292873Y-45130000D01*
X15256892Y-45130000D01*
X14955507Y-45254837D01*
X14903094Y-45307250D01*
X13809782Y-44213939D01*
X13715163Y-43985507D01*
X13484493Y-43754837D01*
X13183108Y-43630000D01*
X12856892Y-43630000D01*
X12667779Y-43708333D01*
X12664618Y-43705172D01*
X12733575Y-43676609D01*
X12729039Y-43489854D01*
X12320000Y-43080815D01*
X12281463Y-43119353D01*
X12150648Y-42988538D01*
X12189185Y-42950000D01*
X11780146Y-42540961D01*
X11593391Y-42536425D01*
X11490432Y-42845968D01*
X11492873Y-42880000D01*
X11456892Y-42880000D01*
X11155507Y-43004837D01*
X10924837Y-43235507D01*
X10800000Y-43536892D01*
X10800000Y-43863108D01*
X10924837Y-44164493D01*
X11155507Y-44395163D01*
X11360717Y-44480163D01*
X11668810Y-44788257D01*
X11593391Y-44786425D01*
X11490432Y-45095968D01*
X11492873Y-45130000D01*
X11456892Y-45130000D01*
X11155507Y-45254837D01*
X10924837Y-45485507D01*
X10800000Y-45786892D01*
X10800000Y-46113108D01*
X10924837Y-46414493D01*
X11155507Y-46645163D01*
X11456892Y-46770000D01*
X11783108Y-46770000D01*
X12084493Y-46645163D01*
X12205117Y-46524539D01*
X12200000Y-46536892D01*
X12200000Y-46863108D01*
X12324837Y-47164493D01*
X12555507Y-47395163D01*
X12856892Y-47520000D01*
X13183108Y-47520000D01*
X13484493Y-47395163D01*
X13715163Y-47164493D01*
X13811783Y-46931230D01*
X14234082Y-47353529D01*
X14275087Y-47414897D01*
X14518209Y-47577346D01*
X14732604Y-47619992D01*
X14804992Y-47634391D01*
X14877380Y-47619992D01*
X15766809Y-47619992D01*
X15839193Y-47634390D01*
X15911577Y-47619992D01*
X15911581Y-47619992D01*
X16125976Y-47577346D01*
X16369098Y-47414897D01*
X16376479Y-47403850D01*
X16656892Y-47520000D01*
X16983108Y-47520000D01*
X17284493Y-47395163D01*
X17296586Y-47383070D01*
X17305001Y-47384744D01*
X17377389Y-47370345D01*
X36430471Y-47370345D01*
X36502855Y-47384743D01*
X36575239Y-47370345D01*
X36575243Y-47370345D01*
X36789638Y-47327699D01*
X37032760Y-47165250D01*
X37073766Y-47103880D01*
X40002541Y-44175105D01*
X59430000Y-44175105D01*
X59430000Y-44944895D01*
X59724586Y-45656090D01*
X60268910Y-46200414D01*
X60980105Y-46495000D01*
X61749895Y-46495000D01*
X62461090Y-46200414D01*
X63005414Y-45656090D01*
X63300000Y-44944895D01*
X63300000Y-44175105D01*
X63005414Y-43463910D01*
X62461090Y-42919586D01*
X61749895Y-42625000D01*
X60980105Y-42625000D01*
X60268910Y-42919586D01*
X59724586Y-43463910D01*
X59430000Y-44175105D01*
X40002541Y-44175105D01*
X42704309Y-41473337D01*
X42764420Y-41533448D01*
X43144826Y-41691017D01*
X43556574Y-41691017D01*
X43936980Y-41533448D01*
X44228131Y-41242297D01*
X44360317Y-40923170D01*
X44679444Y-40790984D01*
X44715700Y-40754728D01*
X44715700Y-40861891D01*
X44873269Y-41242297D01*
X45164420Y-41533448D01*
X45544826Y-41691017D01*
X45956574Y-41691017D01*
X46336980Y-41533448D01*
X46628131Y-41242297D01*
X46760317Y-40923170D01*
X47079444Y-40790984D01*
X47370595Y-40499833D01*
X47485289Y-40222936D01*
X48386907Y-41124554D01*
X48427912Y-41185922D01*
X48671034Y-41348371D01*
X48885429Y-41391017D01*
X48885432Y-41391017D01*
X48957816Y-41405415D01*
X49030200Y-41391017D01*
X49764453Y-41391017D01*
X49906884Y-41533448D01*
X50287290Y-41691017D01*
X50699038Y-41691017D01*
X51079444Y-41533448D01*
X51370595Y-41242297D01*
X51528164Y-40861891D01*
X51528164Y-40754728D01*
X51564420Y-40790984D01*
X51883547Y-40923170D01*
X52015733Y-41242297D01*
X52306884Y-41533448D01*
X52687290Y-41691017D01*
X53099038Y-41691017D01*
X53479444Y-41533448D01*
X53656564Y-41356328D01*
X53830956Y-41391017D01*
X53830960Y-41391017D01*
X53903344Y-41405415D01*
X53975728Y-41391017D01*
X54564453Y-41391017D01*
X54706884Y-41533448D01*
X55087290Y-41691017D01*
X55499038Y-41691017D01*
X55879444Y-41533448D01*
X56170595Y-41242297D01*
X56328164Y-40861891D01*
X56328164Y-40450143D01*
X56170595Y-40069737D01*
X55879444Y-39778586D01*
X55560317Y-39646400D01*
X55428131Y-39327273D01*
X55136980Y-39036122D01*
X54756574Y-38878553D01*
X54344826Y-38878553D01*
X53964420Y-39036122D01*
X53961858Y-39038684D01*
X51729638Y-36806465D01*
X51688632Y-36745095D01*
X51445510Y-36582646D01*
X51231115Y-36540000D01*
X51231111Y-36540000D01*
X51158727Y-36525602D01*
X51086343Y-36540000D01*
X25299188Y-36540000D01*
X25226800Y-36525601D01*
X25154412Y-36540000D01*
X24940017Y-36582646D01*
X24696895Y-36745095D01*
X24655891Y-36806463D01*
X22522354Y-38940000D01*
X17333661Y-38940000D01*
X17590862Y-38682799D01*
X17855000Y-38045113D01*
X17855000Y-37354887D01*
X17590862Y-36717201D01*
X17102799Y-36229138D01*
X16465113Y-35965000D01*
X15774887Y-35965000D01*
X15137201Y-36229138D01*
X14649138Y-36717201D01*
X14385000Y-37354887D01*
X14385000Y-38045113D01*
X14649138Y-38682799D01*
X14906339Y-38940000D01*
X14549184Y-38940000D01*
X14476800Y-38925602D01*
X14404416Y-38940000D01*
X14404413Y-38940000D01*
X14190018Y-38982646D01*
X13946896Y-39145095D01*
X13905891Y-39206463D01*
X12397355Y-40715000D01*
X12174185Y-40715000D01*
X12189185Y-40700000D01*
X11780146Y-40290961D01*
X11593391Y-40286425D01*
X11490432Y-40595968D01*
X11492873Y-40630000D01*
X11456892Y-40630000D01*
X11155507Y-40754837D01*
X10924837Y-40985507D01*
X10800000Y-41286892D01*
X8930182Y-41286892D01*
X8929039Y-41239854D01*
X8520000Y-40830815D01*
X8481463Y-40869353D01*
X8350648Y-40738538D01*
X8389185Y-40700000D01*
X8650815Y-40700000D01*
X9059854Y-41109039D01*
X9246609Y-41113575D01*
X9349568Y-40804032D01*
X9326232Y-40478652D01*
X9246609Y-40286425D01*
X9059854Y-40290961D01*
X8650815Y-40700000D01*
X8389185Y-40700000D01*
X7980146Y-40290961D01*
X7793391Y-40286425D01*
X7690432Y-40595968D01*
X7692873Y-40630000D01*
X7656892Y-40630000D01*
X7355507Y-40754837D01*
X7124837Y-40985507D01*
X7000000Y-41286892D01*
X5130182Y-41286892D01*
X5129039Y-41239854D01*
X4720000Y-40830815D01*
X4681463Y-40869353D01*
X4550648Y-40738538D01*
X4589185Y-40700000D01*
X4850815Y-40700000D01*
X5259854Y-41109039D01*
X5446609Y-41113575D01*
X5549568Y-40804032D01*
X5526232Y-40478652D01*
X5446609Y-40286425D01*
X5259854Y-40290961D01*
X4850815Y-40700000D01*
X4589185Y-40700000D01*
X4180146Y-40290961D01*
X3993391Y-40286425D01*
X3890432Y-40595968D01*
X3892873Y-40630000D01*
X3856892Y-40630000D01*
X3555507Y-40754837D01*
X3324837Y-40985507D01*
X3200000Y-41286892D01*
X127000Y-41286892D01*
X127000Y-39973391D01*
X4306425Y-39973391D01*
X4310961Y-40160146D01*
X4720000Y-40569185D01*
X5129039Y-40160146D01*
X5133575Y-39973391D01*
X8106425Y-39973391D01*
X8110961Y-40160146D01*
X8520000Y-40569185D01*
X8929039Y-40160146D01*
X8933575Y-39973391D01*
X11906425Y-39973391D01*
X11910961Y-40160146D01*
X12320000Y-40569185D01*
X12729039Y-40160146D01*
X12733575Y-39973391D01*
X12424032Y-39870432D01*
X12098652Y-39893768D01*
X11906425Y-39973391D01*
X8933575Y-39973391D01*
X8624032Y-39870432D01*
X8298652Y-39893768D01*
X8106425Y-39973391D01*
X5133575Y-39973391D01*
X4824032Y-39870432D01*
X4498652Y-39893768D01*
X4306425Y-39973391D01*
X127000Y-39973391D01*
X127000Y-37354887D01*
X2385000Y-37354887D01*
X2385000Y-38045113D01*
X2649138Y-38682799D01*
X3137201Y-39170862D01*
X3774887Y-39435000D01*
X4465113Y-39435000D01*
X5102799Y-39170862D01*
X5590862Y-38682799D01*
X5855000Y-38045113D01*
X5855000Y-37354887D01*
X5590862Y-36717201D01*
X5102799Y-36229138D01*
X4465113Y-35965000D01*
X3774887Y-35965000D01*
X3137201Y-36229138D01*
X2649138Y-36717201D01*
X2385000Y-37354887D01*
X127000Y-37354887D01*
X127000Y-33354887D01*
X2385000Y-33354887D01*
X2385000Y-34045113D01*
X2649138Y-34682799D01*
X3137201Y-35170862D01*
X3774887Y-35435000D01*
X4465113Y-35435000D01*
X5102799Y-35170862D01*
X5590862Y-34682799D01*
X5855000Y-34045113D01*
X5855000Y-33354887D01*
X14385000Y-33354887D01*
X14385000Y-34045113D01*
X14649138Y-34682799D01*
X15137201Y-35170862D01*
X15774887Y-35435000D01*
X16465113Y-35435000D01*
X17102799Y-35170862D01*
X17590862Y-34682799D01*
X17855000Y-34045113D01*
X17855000Y-33354887D01*
X17590862Y-32717201D01*
X17157787Y-32284126D01*
X37085000Y-32284126D01*
X37085000Y-32695874D01*
X37242569Y-33076280D01*
X37533720Y-33367431D01*
X37914126Y-33525000D01*
X38325874Y-33525000D01*
X38706280Y-33367431D01*
X38834585Y-33239126D01*
X39060000Y-33239126D01*
X39060000Y-33650874D01*
X39217569Y-34031280D01*
X39508720Y-34322431D01*
X39889126Y-34480000D01*
X40300874Y-34480000D01*
X40681280Y-34322431D01*
X40972431Y-34031280D01*
X41130000Y-33650874D01*
X41130000Y-33239126D01*
X41119645Y-33214126D01*
X46680000Y-33214126D01*
X46680000Y-33625874D01*
X46837569Y-34006280D01*
X47128720Y-34297431D01*
X47509126Y-34455000D01*
X47920874Y-34455000D01*
X48301280Y-34297431D01*
X48337500Y-34261211D01*
X48398720Y-34322431D01*
X48779126Y-34480000D01*
X49190874Y-34480000D01*
X49571280Y-34322431D01*
X49620000Y-34273711D01*
X49668720Y-34322431D01*
X50049126Y-34480000D01*
X50460874Y-34480000D01*
X50841280Y-34322431D01*
X51132431Y-34031280D01*
X51290000Y-33650874D01*
X51290000Y-33239126D01*
X54275000Y-33239126D01*
X54275000Y-33650874D01*
X54432569Y-34031280D01*
X54723720Y-34322431D01*
X55104126Y-34480000D01*
X55515874Y-34480000D01*
X55896280Y-34322431D01*
X55945000Y-34273711D01*
X55993720Y-34322431D01*
X56374126Y-34480000D01*
X56785874Y-34480000D01*
X57166280Y-34322431D01*
X57227500Y-34261211D01*
X57288720Y-34322431D01*
X57669126Y-34480000D01*
X58080874Y-34480000D01*
X58461280Y-34322431D01*
X58752431Y-34031280D01*
X58910000Y-33650874D01*
X58910000Y-33239126D01*
X58752431Y-32858720D01*
X58461280Y-32567569D01*
X58080874Y-32410000D01*
X57669126Y-32410000D01*
X57288720Y-32567569D01*
X57227500Y-32628789D01*
X57166280Y-32567569D01*
X56785874Y-32410000D01*
X56374126Y-32410000D01*
X55993720Y-32567569D01*
X55945000Y-32616289D01*
X55896280Y-32567569D01*
X55515874Y-32410000D01*
X55104126Y-32410000D01*
X54723720Y-32567569D01*
X54432569Y-32858720D01*
X54275000Y-33239126D01*
X51290000Y-33239126D01*
X51132431Y-32858720D01*
X50841280Y-32567569D01*
X50460874Y-32410000D01*
X50049126Y-32410000D01*
X49668720Y-32567569D01*
X49620000Y-32616289D01*
X49571280Y-32567569D01*
X49190874Y-32410000D01*
X48779126Y-32410000D01*
X48398720Y-32567569D01*
X48362500Y-32603789D01*
X48301280Y-32542569D01*
X47920874Y-32385000D01*
X47509126Y-32385000D01*
X47128720Y-32542569D01*
X46837569Y-32833720D01*
X46680000Y-33214126D01*
X41119645Y-33214126D01*
X40972431Y-32858720D01*
X40681280Y-32567569D01*
X40300874Y-32410000D01*
X39889126Y-32410000D01*
X39508720Y-32567569D01*
X39217569Y-32858720D01*
X39060000Y-33239126D01*
X38834585Y-33239126D01*
X38997431Y-33076280D01*
X39155000Y-32695874D01*
X39155000Y-32284126D01*
X38997431Y-31903720D01*
X38706280Y-31612569D01*
X38325874Y-31455000D01*
X37914126Y-31455000D01*
X37533720Y-31612569D01*
X37242569Y-31903720D01*
X37085000Y-32284126D01*
X17157787Y-32284126D01*
X17102799Y-32229138D01*
X16465113Y-31965000D01*
X15774887Y-31965000D01*
X15137201Y-32229138D01*
X14649138Y-32717201D01*
X14385000Y-33354887D01*
X5855000Y-33354887D01*
X5590862Y-32717201D01*
X5102799Y-32229138D01*
X4465113Y-31965000D01*
X3774887Y-31965000D01*
X3137201Y-32229138D01*
X2649138Y-32717201D01*
X2385000Y-33354887D01*
X127000Y-33354887D01*
X127000Y-29786892D01*
X3200000Y-29786892D01*
X3200000Y-30113108D01*
X3324837Y-30414493D01*
X3555507Y-30645163D01*
X3856892Y-30770000D01*
X4183108Y-30770000D01*
X4484493Y-30645163D01*
X4605117Y-30524539D01*
X4600000Y-30536892D01*
X4600000Y-30863108D01*
X4724837Y-31164493D01*
X4955507Y-31395163D01*
X5256892Y-31520000D01*
X5583108Y-31520000D01*
X5884493Y-31395163D01*
X6115163Y-31164493D01*
X6240000Y-30863108D01*
X6240000Y-30536892D01*
X6115163Y-30235507D01*
X5884493Y-30004837D01*
X5583108Y-29880000D01*
X5256892Y-29880000D01*
X4955507Y-30004837D01*
X4834883Y-30125461D01*
X4840000Y-30113108D01*
X4840000Y-30013501D01*
X4941348Y-30006232D01*
X5133575Y-29926609D01*
X5130182Y-29786892D01*
X7000000Y-29786892D01*
X7000000Y-30113108D01*
X7124837Y-30414493D01*
X7355507Y-30645163D01*
X7656892Y-30770000D01*
X7983108Y-30770000D01*
X8284493Y-30645163D01*
X8405117Y-30524539D01*
X8400000Y-30536892D01*
X8400000Y-30863108D01*
X8524837Y-31164493D01*
X8755507Y-31395163D01*
X9056892Y-31520000D01*
X9383108Y-31520000D01*
X9684493Y-31395163D01*
X9915163Y-31164493D01*
X10040000Y-30863108D01*
X10040000Y-30536892D01*
X9915163Y-30235507D01*
X9684493Y-30004837D01*
X9383108Y-29880000D01*
X9056892Y-29880000D01*
X8755507Y-30004837D01*
X8634883Y-30125461D01*
X8640000Y-30113108D01*
X8640000Y-30013501D01*
X8741348Y-30006232D01*
X8933575Y-29926609D01*
X8929039Y-29739854D01*
X8520000Y-29330815D01*
X8481463Y-29369353D01*
X8350648Y-29238538D01*
X8389185Y-29200000D01*
X7980146Y-28790961D01*
X7793391Y-28786425D01*
X7690432Y-29095968D01*
X7692873Y-29130000D01*
X7656892Y-29130000D01*
X7355507Y-29254837D01*
X7124837Y-29485507D01*
X7000000Y-29786892D01*
X5130182Y-29786892D01*
X5129039Y-29739854D01*
X4720000Y-29330815D01*
X4681463Y-29369353D01*
X4550648Y-29238538D01*
X4589185Y-29200000D01*
X4180146Y-28790961D01*
X3993391Y-28786425D01*
X3890432Y-29095968D01*
X3892873Y-29130000D01*
X3856892Y-29130000D01*
X3555507Y-29254837D01*
X3324837Y-29485507D01*
X3200000Y-29786892D01*
X127000Y-29786892D01*
X127000Y-27536892D01*
X3200000Y-27536892D01*
X3200000Y-27863108D01*
X3324837Y-28164493D01*
X3555507Y-28395163D01*
X3856892Y-28520000D01*
X4183108Y-28520000D01*
X4484493Y-28395163D01*
X4605117Y-28274539D01*
X4600000Y-28286892D01*
X4600000Y-28386499D01*
X4498652Y-28393768D01*
X4306425Y-28473391D01*
X4310961Y-28660146D01*
X4720000Y-29069185D01*
X4758538Y-29030648D01*
X4889353Y-29161463D01*
X4850815Y-29200000D01*
X5259854Y-29609039D01*
X5446609Y-29613575D01*
X5549568Y-29304032D01*
X5547127Y-29270000D01*
X5583108Y-29270000D01*
X5884493Y-29145163D01*
X6115163Y-28914493D01*
X6240000Y-28613108D01*
X6240000Y-28286892D01*
X6115163Y-27985507D01*
X5884493Y-27754837D01*
X5583108Y-27630000D01*
X5256892Y-27630000D01*
X4955507Y-27754837D01*
X4834883Y-27875461D01*
X4840000Y-27863108D01*
X4840000Y-27763501D01*
X4941348Y-27756232D01*
X5133575Y-27676609D01*
X5130182Y-27536892D01*
X7000000Y-27536892D01*
X7000000Y-27863108D01*
X7124837Y-28164493D01*
X7355507Y-28395163D01*
X7656892Y-28520000D01*
X7983108Y-28520000D01*
X8284493Y-28395163D01*
X8405117Y-28274539D01*
X8400000Y-28286892D01*
X8400000Y-28386499D01*
X8298652Y-28393768D01*
X8106425Y-28473391D01*
X8110961Y-28660146D01*
X8520000Y-29069185D01*
X8558538Y-29030648D01*
X8689353Y-29161463D01*
X8650815Y-29200000D01*
X9059854Y-29609039D01*
X9246609Y-29613575D01*
X9349568Y-29304032D01*
X9347127Y-29270000D01*
X9383108Y-29270000D01*
X9684493Y-29145163D01*
X9915163Y-28914493D01*
X10040000Y-28613108D01*
X10040000Y-28286892D01*
X9915163Y-27985507D01*
X9684493Y-27754837D01*
X9383108Y-27630000D01*
X9056892Y-27630000D01*
X8755507Y-27754837D01*
X8634883Y-27875461D01*
X8640000Y-27863108D01*
X8640000Y-27763501D01*
X8741348Y-27756232D01*
X8933575Y-27676609D01*
X8929039Y-27489854D01*
X8520000Y-27080815D01*
X8481463Y-27119353D01*
X8350648Y-26988538D01*
X8389185Y-26950000D01*
X7980146Y-26540961D01*
X7793391Y-26536425D01*
X7690432Y-26845968D01*
X7692873Y-26880000D01*
X7656892Y-26880000D01*
X7355507Y-27004837D01*
X7124837Y-27235507D01*
X7000000Y-27536892D01*
X5130182Y-27536892D01*
X5129039Y-27489854D01*
X4720000Y-27080815D01*
X4681463Y-27119353D01*
X4550648Y-26988538D01*
X4589185Y-26950000D01*
X4180146Y-26540961D01*
X3993391Y-26536425D01*
X3890432Y-26845968D01*
X3892873Y-26880000D01*
X3856892Y-26880000D01*
X3555507Y-27004837D01*
X3324837Y-27235507D01*
X3200000Y-27536892D01*
X127000Y-27536892D01*
X127000Y-25286892D01*
X3200000Y-25286892D01*
X3200000Y-25613108D01*
X3324837Y-25914493D01*
X3555507Y-26145163D01*
X3856892Y-26270000D01*
X4183108Y-26270000D01*
X4484493Y-26145163D01*
X4605117Y-26024539D01*
X4600000Y-26036892D01*
X4600000Y-26136499D01*
X4498652Y-26143768D01*
X4306425Y-26223391D01*
X4310961Y-26410146D01*
X4720000Y-26819185D01*
X4758538Y-26780648D01*
X4889353Y-26911463D01*
X4850815Y-26950000D01*
X5259854Y-27359039D01*
X5446609Y-27363575D01*
X5549568Y-27054032D01*
X5547127Y-27020000D01*
X5583108Y-27020000D01*
X5884493Y-26895163D01*
X6115163Y-26664493D01*
X6240000Y-26363108D01*
X6240000Y-26036892D01*
X6115163Y-25735507D01*
X5884493Y-25504837D01*
X5583108Y-25380000D01*
X5256892Y-25380000D01*
X4955507Y-25504837D01*
X4834883Y-25625461D01*
X4840000Y-25613108D01*
X4840000Y-25513501D01*
X4941348Y-25506232D01*
X5133575Y-25426609D01*
X5130182Y-25286892D01*
X7000000Y-25286892D01*
X7000000Y-25613108D01*
X7124837Y-25914493D01*
X7355507Y-26145163D01*
X7656892Y-26270000D01*
X7983108Y-26270000D01*
X8284493Y-26145163D01*
X8405117Y-26024539D01*
X8400000Y-26036892D01*
X8400000Y-26136499D01*
X8298652Y-26143768D01*
X8106425Y-26223391D01*
X8110961Y-26410146D01*
X8520000Y-26819185D01*
X8558538Y-26780648D01*
X8689353Y-26911463D01*
X8650815Y-26950000D01*
X9059854Y-27359039D01*
X9246609Y-27363575D01*
X9349568Y-27054032D01*
X9347127Y-27020000D01*
X9383108Y-27020000D01*
X9684493Y-26895163D01*
X9915163Y-26664493D01*
X10040000Y-26363108D01*
X10040000Y-26036892D01*
X9915163Y-25735507D01*
X9684493Y-25504837D01*
X9383108Y-25380000D01*
X9056892Y-25380000D01*
X8755507Y-25504837D01*
X8634883Y-25625461D01*
X8640000Y-25613108D01*
X8640000Y-25513501D01*
X8741348Y-25506232D01*
X8933575Y-25426609D01*
X8930182Y-25286892D01*
X10800000Y-25286892D01*
X10800000Y-25613108D01*
X10924837Y-25914493D01*
X11155507Y-26145163D01*
X11456892Y-26270000D01*
X11783108Y-26270000D01*
X11988317Y-26185000D01*
X11999109Y-26185000D01*
X11906425Y-26223391D01*
X11910961Y-26410146D01*
X12320000Y-26819185D01*
X12358538Y-26780648D01*
X12489353Y-26911463D01*
X12450815Y-26950000D01*
X12859854Y-27359039D01*
X13046609Y-27363575D01*
X13149568Y-27054032D01*
X13147127Y-27020000D01*
X13183108Y-27020000D01*
X13484493Y-26895163D01*
X13715163Y-26664493D01*
X13840000Y-26363108D01*
X13840000Y-26036892D01*
X13825576Y-26002069D01*
X14641893Y-25185753D01*
X14600000Y-25286892D01*
X14600000Y-25613108D01*
X14724837Y-25914493D01*
X14955507Y-26145163D01*
X15256892Y-26270000D01*
X15583108Y-26270000D01*
X15788317Y-26185000D01*
X15799109Y-26185000D01*
X15706425Y-26223391D01*
X15710961Y-26410146D01*
X16120000Y-26819185D01*
X16158538Y-26780648D01*
X16289353Y-26911463D01*
X16250815Y-26950000D01*
X16265815Y-26965000D01*
X15974185Y-26965000D01*
X15989185Y-26950000D01*
X15580146Y-26540961D01*
X15393391Y-26536425D01*
X15290432Y-26845968D01*
X15292873Y-26880000D01*
X15256892Y-26880000D01*
X14955507Y-27004837D01*
X14724837Y-27235507D01*
X14600000Y-27536892D01*
X14600000Y-27863108D01*
X14724837Y-28164493D01*
X14955507Y-28395163D01*
X15256892Y-28520000D01*
X15583108Y-28520000D01*
X15788317Y-28435000D01*
X15799109Y-28435000D01*
X15706425Y-28473391D01*
X15710961Y-28660146D01*
X16108959Y-29058144D01*
X16036011Y-29072654D01*
X15931603Y-29142418D01*
X15580146Y-28790961D01*
X15393391Y-28786425D01*
X15290432Y-29095968D01*
X15292873Y-29130000D01*
X15256892Y-29130000D01*
X14955507Y-29254837D01*
X14903094Y-29307250D01*
X13809782Y-28213939D01*
X13715163Y-27985507D01*
X13484493Y-27754837D01*
X13183108Y-27630000D01*
X12856892Y-27630000D01*
X12667779Y-27708333D01*
X12664618Y-27705172D01*
X12733575Y-27676609D01*
X12729039Y-27489854D01*
X12320000Y-27080815D01*
X12281463Y-27119353D01*
X12150648Y-26988538D01*
X12189185Y-26950000D01*
X11780146Y-26540961D01*
X11593391Y-26536425D01*
X11490432Y-26845968D01*
X11492873Y-26880000D01*
X11456892Y-26880000D01*
X11155507Y-27004837D01*
X10924837Y-27235507D01*
X10800000Y-27536892D01*
X10800000Y-27863108D01*
X10924837Y-28164493D01*
X11155507Y-28395163D01*
X11360717Y-28480163D01*
X11668810Y-28788257D01*
X11593391Y-28786425D01*
X11490432Y-29095968D01*
X11492873Y-29130000D01*
X11456892Y-29130000D01*
X11155507Y-29254837D01*
X10924837Y-29485507D01*
X10800000Y-29786892D01*
X10800000Y-30113108D01*
X10924837Y-30414493D01*
X11155507Y-30645163D01*
X11456892Y-30770000D01*
X11783108Y-30770000D01*
X12084493Y-30645163D01*
X12205117Y-30524539D01*
X12200000Y-30536892D01*
X12200000Y-30863108D01*
X12324837Y-31164493D01*
X12555507Y-31395163D01*
X12856892Y-31520000D01*
X13183108Y-31520000D01*
X13484493Y-31395163D01*
X13715163Y-31164493D01*
X13811783Y-30931230D01*
X14234082Y-31353529D01*
X14275087Y-31414897D01*
X14518209Y-31577346D01*
X14732604Y-31619992D01*
X14804992Y-31634391D01*
X14877380Y-31619992D01*
X15766809Y-31619992D01*
X15839193Y-31634390D01*
X15911577Y-31619992D01*
X15911581Y-31619992D01*
X16125976Y-31577346D01*
X16369098Y-31414897D01*
X16376479Y-31403850D01*
X16656892Y-31520000D01*
X16983108Y-31520000D01*
X17284493Y-31395163D01*
X17296586Y-31383070D01*
X17305001Y-31384744D01*
X17377389Y-31370345D01*
X36430471Y-31370345D01*
X36502855Y-31384743D01*
X36575239Y-31370345D01*
X36575243Y-31370345D01*
X36789638Y-31327699D01*
X37032760Y-31165250D01*
X37073766Y-31103880D01*
X40002541Y-28175105D01*
X59430000Y-28175105D01*
X59430000Y-28944895D01*
X59724586Y-29656090D01*
X60268910Y-30200414D01*
X60980105Y-30495000D01*
X61749895Y-30495000D01*
X62461090Y-30200414D01*
X63005414Y-29656090D01*
X63300000Y-28944895D01*
X63300000Y-28175105D01*
X63005414Y-27463910D01*
X62461090Y-26919586D01*
X61749895Y-26625000D01*
X60980105Y-26625000D01*
X60268910Y-26919586D01*
X59724586Y-27463910D01*
X59430000Y-28175105D01*
X40002541Y-28175105D01*
X42704309Y-25473337D01*
X42764420Y-25533448D01*
X43144826Y-25691017D01*
X43556574Y-25691017D01*
X43936980Y-25533448D01*
X44228131Y-25242297D01*
X44360317Y-24923170D01*
X44679444Y-24790984D01*
X44715700Y-24754728D01*
X44715700Y-24861891D01*
X44873269Y-25242297D01*
X45164420Y-25533448D01*
X45544826Y-25691017D01*
X45956574Y-25691017D01*
X46336980Y-25533448D01*
X46628131Y-25242297D01*
X46760317Y-24923170D01*
X47079444Y-24790984D01*
X47370595Y-24499833D01*
X47485289Y-24222936D01*
X48386907Y-25124554D01*
X48427912Y-25185922D01*
X48671034Y-25348371D01*
X48885429Y-25391017D01*
X48885432Y-25391017D01*
X48957816Y-25405415D01*
X49030200Y-25391017D01*
X49764453Y-25391017D01*
X49906884Y-25533448D01*
X50287290Y-25691017D01*
X50699038Y-25691017D01*
X51079444Y-25533448D01*
X51370595Y-25242297D01*
X51528164Y-24861891D01*
X51528164Y-24754728D01*
X51564420Y-24790984D01*
X51883547Y-24923170D01*
X52015733Y-25242297D01*
X52306884Y-25533448D01*
X52687290Y-25691017D01*
X53099038Y-25691017D01*
X53479444Y-25533448D01*
X53656564Y-25356328D01*
X53830956Y-25391017D01*
X53830960Y-25391017D01*
X53903344Y-25405415D01*
X53975728Y-25391017D01*
X54564453Y-25391017D01*
X54706884Y-25533448D01*
X55087290Y-25691017D01*
X55499038Y-25691017D01*
X55879444Y-25533448D01*
X56170595Y-25242297D01*
X56328164Y-24861891D01*
X56328164Y-24450143D01*
X56170595Y-24069737D01*
X55879444Y-23778586D01*
X55560317Y-23646400D01*
X55428131Y-23327273D01*
X55136980Y-23036122D01*
X54756574Y-22878553D01*
X54344826Y-22878553D01*
X53964420Y-23036122D01*
X53961858Y-23038684D01*
X51729638Y-20806465D01*
X51688632Y-20745095D01*
X51445510Y-20582646D01*
X51231115Y-20540000D01*
X51231111Y-20540000D01*
X51158727Y-20525602D01*
X51086343Y-20540000D01*
X25299188Y-20540000D01*
X25226800Y-20525601D01*
X25154412Y-20540000D01*
X24940017Y-20582646D01*
X24696895Y-20745095D01*
X24655891Y-20806463D01*
X22522354Y-22940000D01*
X17333661Y-22940000D01*
X17590862Y-22682799D01*
X17855000Y-22045113D01*
X17855000Y-21354887D01*
X17590862Y-20717201D01*
X17102799Y-20229138D01*
X16465113Y-19965000D01*
X15774887Y-19965000D01*
X15137201Y-20229138D01*
X14649138Y-20717201D01*
X14385000Y-21354887D01*
X14385000Y-22045113D01*
X14649138Y-22682799D01*
X14906339Y-22940000D01*
X14549184Y-22940000D01*
X14476800Y-22925602D01*
X14404416Y-22940000D01*
X14404413Y-22940000D01*
X14190018Y-22982646D01*
X13946896Y-23145095D01*
X13905891Y-23206463D01*
X12397355Y-24715000D01*
X12174185Y-24715000D01*
X12189185Y-24700000D01*
X11780146Y-24290961D01*
X11593391Y-24286425D01*
X11490432Y-24595968D01*
X11492873Y-24630000D01*
X11456892Y-24630000D01*
X11155507Y-24754837D01*
X10924837Y-24985507D01*
X10800000Y-25286892D01*
X8930182Y-25286892D01*
X8929039Y-25239854D01*
X8520000Y-24830815D01*
X8481463Y-24869353D01*
X8350648Y-24738538D01*
X8389185Y-24700000D01*
X8650815Y-24700000D01*
X9059854Y-25109039D01*
X9246609Y-25113575D01*
X9349568Y-24804032D01*
X9326232Y-24478652D01*
X9246609Y-24286425D01*
X9059854Y-24290961D01*
X8650815Y-24700000D01*
X8389185Y-24700000D01*
X7980146Y-24290961D01*
X7793391Y-24286425D01*
X7690432Y-24595968D01*
X7692873Y-24630000D01*
X7656892Y-24630000D01*
X7355507Y-24754837D01*
X7124837Y-24985507D01*
X7000000Y-25286892D01*
X5130182Y-25286892D01*
X5129039Y-25239854D01*
X4720000Y-24830815D01*
X4681463Y-24869353D01*
X4550648Y-24738538D01*
X4589185Y-24700000D01*
X4850815Y-24700000D01*
X5259854Y-25109039D01*
X5446609Y-25113575D01*
X5549568Y-24804032D01*
X5526232Y-24478652D01*
X5446609Y-24286425D01*
X5259854Y-24290961D01*
X4850815Y-24700000D01*
X4589185Y-24700000D01*
X4180146Y-24290961D01*
X3993391Y-24286425D01*
X3890432Y-24595968D01*
X3892873Y-24630000D01*
X3856892Y-24630000D01*
X3555507Y-24754837D01*
X3324837Y-24985507D01*
X3200000Y-25286892D01*
X127000Y-25286892D01*
X127000Y-23973391D01*
X4306425Y-23973391D01*
X4310961Y-24160146D01*
X4720000Y-24569185D01*
X5129039Y-24160146D01*
X5133575Y-23973391D01*
X8106425Y-23973391D01*
X8110961Y-24160146D01*
X8520000Y-24569185D01*
X8929039Y-24160146D01*
X8933575Y-23973391D01*
X11906425Y-23973391D01*
X11910961Y-24160146D01*
X12320000Y-24569185D01*
X12729039Y-24160146D01*
X12733575Y-23973391D01*
X12424032Y-23870432D01*
X12098652Y-23893768D01*
X11906425Y-23973391D01*
X8933575Y-23973391D01*
X8624032Y-23870432D01*
X8298652Y-23893768D01*
X8106425Y-23973391D01*
X5133575Y-23973391D01*
X4824032Y-23870432D01*
X4498652Y-23893768D01*
X4306425Y-23973391D01*
X127000Y-23973391D01*
X127000Y-21354887D01*
X2385000Y-21354887D01*
X2385000Y-22045113D01*
X2649138Y-22682799D01*
X3137201Y-23170862D01*
X3774887Y-23435000D01*
X4465113Y-23435000D01*
X5102799Y-23170862D01*
X5590862Y-22682799D01*
X5855000Y-22045113D01*
X5855000Y-21354887D01*
X5590862Y-20717201D01*
X5102799Y-20229138D01*
X4465113Y-19965000D01*
X3774887Y-19965000D01*
X3137201Y-20229138D01*
X2649138Y-20717201D01*
X2385000Y-21354887D01*
X127000Y-21354887D01*
X127000Y-17524137D01*
X286783Y-17492354D01*
X492516Y-17354887D01*
X2385000Y-17354887D01*
X2385000Y-18045113D01*
X2649138Y-18682799D01*
X3137201Y-19170862D01*
X3774887Y-19435000D01*
X4465113Y-19435000D01*
X5102799Y-19170862D01*
X5590862Y-18682799D01*
X5855000Y-18045113D01*
X5855000Y-17354887D01*
X14385000Y-17354887D01*
X14385000Y-18045113D01*
X14649138Y-18682799D01*
X15137201Y-19170862D01*
X15774887Y-19435000D01*
X16465113Y-19435000D01*
X17102799Y-19170862D01*
X17590862Y-18682799D01*
X17855000Y-18045113D01*
X17855000Y-17354887D01*
X17590862Y-16717201D01*
X17157787Y-16284126D01*
X37085000Y-16284126D01*
X37085000Y-16695874D01*
X37242569Y-17076280D01*
X37533720Y-17367431D01*
X37914126Y-17525000D01*
X38325874Y-17525000D01*
X38706280Y-17367431D01*
X38834585Y-17239126D01*
X39060000Y-17239126D01*
X39060000Y-17650874D01*
X39217569Y-18031280D01*
X39508720Y-18322431D01*
X39889126Y-18480000D01*
X40300874Y-18480000D01*
X40681280Y-18322431D01*
X40972431Y-18031280D01*
X41130000Y-17650874D01*
X41130000Y-17239126D01*
X41119645Y-17214126D01*
X46680000Y-17214126D01*
X46680000Y-17625874D01*
X46837569Y-18006280D01*
X47128720Y-18297431D01*
X47509126Y-18455000D01*
X47920874Y-18455000D01*
X48301280Y-18297431D01*
X48337500Y-18261211D01*
X48398720Y-18322431D01*
X48779126Y-18480000D01*
X49190874Y-18480000D01*
X49571280Y-18322431D01*
X49620000Y-18273711D01*
X49668720Y-18322431D01*
X50049126Y-18480000D01*
X50460874Y-18480000D01*
X50841280Y-18322431D01*
X51132431Y-18031280D01*
X51290000Y-17650874D01*
X51290000Y-17239126D01*
X54275000Y-17239126D01*
X54275000Y-17650874D01*
X54432569Y-18031280D01*
X54723720Y-18322431D01*
X55104126Y-18480000D01*
X55515874Y-18480000D01*
X55896280Y-18322431D01*
X55945000Y-18273711D01*
X55993720Y-18322431D01*
X56374126Y-18480000D01*
X56785874Y-18480000D01*
X57166280Y-18322431D01*
X57227500Y-18261211D01*
X57288720Y-18322431D01*
X57669126Y-18480000D01*
X58080874Y-18480000D01*
X58461280Y-18322431D01*
X58752431Y-18031280D01*
X58910000Y-17650874D01*
X58910000Y-17239126D01*
X58752431Y-16858720D01*
X58461280Y-16567569D01*
X58080874Y-16410000D01*
X57669126Y-16410000D01*
X57288720Y-16567569D01*
X57227500Y-16628789D01*
X57166280Y-16567569D01*
X56785874Y-16410000D01*
X56374126Y-16410000D01*
X55993720Y-16567569D01*
X55945000Y-16616289D01*
X55896280Y-16567569D01*
X55515874Y-16410000D01*
X55104126Y-16410000D01*
X54723720Y-16567569D01*
X54432569Y-16858720D01*
X54275000Y-17239126D01*
X51290000Y-17239126D01*
X51132431Y-16858720D01*
X50841280Y-16567569D01*
X50460874Y-16410000D01*
X50049126Y-16410000D01*
X49668720Y-16567569D01*
X49620000Y-16616289D01*
X49571280Y-16567569D01*
X49190874Y-16410000D01*
X48779126Y-16410000D01*
X48398720Y-16567569D01*
X48362500Y-16603789D01*
X48301280Y-16542569D01*
X47920874Y-16385000D01*
X47509126Y-16385000D01*
X47128720Y-16542569D01*
X46837569Y-16833720D01*
X46680000Y-17214126D01*
X41119645Y-17214126D01*
X40972431Y-16858720D01*
X40681280Y-16567569D01*
X40300874Y-16410000D01*
X39889126Y-16410000D01*
X39508720Y-16567569D01*
X39217569Y-16858720D01*
X39060000Y-17239126D01*
X38834585Y-17239126D01*
X38997431Y-17076280D01*
X39155000Y-16695874D01*
X39155000Y-16284126D01*
X38997431Y-15903720D01*
X38706280Y-15612569D01*
X38325874Y-15455000D01*
X37914126Y-15455000D01*
X37533720Y-15612569D01*
X37242569Y-15903720D01*
X37085000Y-16284126D01*
X17157787Y-16284126D01*
X17102799Y-16229138D01*
X16465113Y-15965000D01*
X15774887Y-15965000D01*
X15137201Y-16229138D01*
X14649138Y-16717201D01*
X14385000Y-17354887D01*
X5855000Y-17354887D01*
X5590862Y-16717201D01*
X5102799Y-16229138D01*
X4465113Y-15965000D01*
X3774887Y-15965000D01*
X3137201Y-16229138D01*
X2649138Y-16717201D01*
X2385000Y-17354887D01*
X492516Y-17354887D01*
X529905Y-17329905D01*
X692354Y-17086783D01*
X749399Y-16800000D01*
X735000Y-16727612D01*
X735000Y-13786892D01*
X3200000Y-13786892D01*
X3200000Y-14113108D01*
X3324837Y-14414493D01*
X3555507Y-14645163D01*
X3856892Y-14770000D01*
X4183108Y-14770000D01*
X4484493Y-14645163D01*
X4605117Y-14524539D01*
X4600000Y-14536892D01*
X4600000Y-14863108D01*
X4724837Y-15164493D01*
X4955507Y-15395163D01*
X5256892Y-15520000D01*
X5583108Y-15520000D01*
X5884493Y-15395163D01*
X6115163Y-15164493D01*
X6240000Y-14863108D01*
X6240000Y-14536892D01*
X6115163Y-14235507D01*
X5884493Y-14004837D01*
X5583108Y-13880000D01*
X5256892Y-13880000D01*
X4955507Y-14004837D01*
X4834883Y-14125461D01*
X4840000Y-14113108D01*
X4840000Y-14013501D01*
X4941348Y-14006232D01*
X5133575Y-13926609D01*
X5130182Y-13786892D01*
X7000000Y-13786892D01*
X7000000Y-14113108D01*
X7124837Y-14414493D01*
X7355507Y-14645163D01*
X7656892Y-14770000D01*
X7983108Y-14770000D01*
X8284493Y-14645163D01*
X8405117Y-14524539D01*
X8400000Y-14536892D01*
X8400000Y-14863108D01*
X8524837Y-15164493D01*
X8755507Y-15395163D01*
X9056892Y-15520000D01*
X9383108Y-15520000D01*
X9684493Y-15395163D01*
X9915163Y-15164493D01*
X10040000Y-14863108D01*
X10040000Y-14536892D01*
X9915163Y-14235507D01*
X9684493Y-14004837D01*
X9383108Y-13880000D01*
X9056892Y-13880000D01*
X8755507Y-14004837D01*
X8634883Y-14125461D01*
X8640000Y-14113108D01*
X8640000Y-14013501D01*
X8741348Y-14006232D01*
X8933575Y-13926609D01*
X8929039Y-13739854D01*
X8520000Y-13330815D01*
X8481463Y-13369353D01*
X8350648Y-13238538D01*
X8389185Y-13200000D01*
X7980146Y-12790961D01*
X7793391Y-12786425D01*
X7690432Y-13095968D01*
X7692873Y-13130000D01*
X7656892Y-13130000D01*
X7355507Y-13254837D01*
X7124837Y-13485507D01*
X7000000Y-13786892D01*
X5130182Y-13786892D01*
X5129039Y-13739854D01*
X4720000Y-13330815D01*
X4681463Y-13369353D01*
X4550648Y-13238538D01*
X4589185Y-13200000D01*
X4180146Y-12790961D01*
X3993391Y-12786425D01*
X3890432Y-13095968D01*
X3892873Y-13130000D01*
X3856892Y-13130000D01*
X3555507Y-13254837D01*
X3324837Y-13485507D01*
X3200000Y-13786892D01*
X735000Y-13786892D01*
X735000Y-11536892D01*
X3200000Y-11536892D01*
X3200000Y-11863108D01*
X3324837Y-12164493D01*
X3555507Y-12395163D01*
X3856892Y-12520000D01*
X4183108Y-12520000D01*
X4484493Y-12395163D01*
X4605117Y-12274539D01*
X4600000Y-12286892D01*
X4600000Y-12386499D01*
X4498652Y-12393768D01*
X4306425Y-12473391D01*
X4310961Y-12660146D01*
X4720000Y-13069185D01*
X4758538Y-13030648D01*
X4889353Y-13161463D01*
X4850815Y-13200000D01*
X5259854Y-13609039D01*
X5446609Y-13613575D01*
X5549568Y-13304032D01*
X5547127Y-13270000D01*
X5583108Y-13270000D01*
X5884493Y-13145163D01*
X6115163Y-12914493D01*
X6240000Y-12613108D01*
X6240000Y-12286892D01*
X6115163Y-11985507D01*
X5884493Y-11754837D01*
X5583108Y-11630000D01*
X5256892Y-11630000D01*
X4955507Y-11754837D01*
X4834883Y-11875461D01*
X4840000Y-11863108D01*
X4840000Y-11763501D01*
X4941348Y-11756232D01*
X5133575Y-11676609D01*
X5130182Y-11536892D01*
X7000000Y-11536892D01*
X7000000Y-11863108D01*
X7124837Y-12164493D01*
X7355507Y-12395163D01*
X7656892Y-12520000D01*
X7983108Y-12520000D01*
X8284493Y-12395163D01*
X8405117Y-12274539D01*
X8400000Y-12286892D01*
X8400000Y-12386499D01*
X8298652Y-12393768D01*
X8106425Y-12473391D01*
X8110961Y-12660146D01*
X8520000Y-13069185D01*
X8558538Y-13030648D01*
X8689353Y-13161463D01*
X8650815Y-13200000D01*
X9059854Y-13609039D01*
X9246609Y-13613575D01*
X9349568Y-13304032D01*
X9347127Y-13270000D01*
X9383108Y-13270000D01*
X9684493Y-13145163D01*
X9915163Y-12914493D01*
X10040000Y-12613108D01*
X10040000Y-12286892D01*
X9915163Y-11985507D01*
X9684493Y-11754837D01*
X9383108Y-11630000D01*
X9056892Y-11630000D01*
X8755507Y-11754837D01*
X8634883Y-11875461D01*
X8640000Y-11863108D01*
X8640000Y-11763501D01*
X8741348Y-11756232D01*
X8933575Y-11676609D01*
X8929039Y-11489854D01*
X8520000Y-11080815D01*
X8481463Y-11119353D01*
X8350648Y-10988538D01*
X8389185Y-10950000D01*
X7980146Y-10540961D01*
X7793391Y-10536425D01*
X7690432Y-10845968D01*
X7692873Y-10880000D01*
X7656892Y-10880000D01*
X7355507Y-11004837D01*
X7124837Y-11235507D01*
X7000000Y-11536892D01*
X5130182Y-11536892D01*
X5129039Y-11489854D01*
X4720000Y-11080815D01*
X4681463Y-11119353D01*
X4550648Y-10988538D01*
X4589185Y-10950000D01*
X4180146Y-10540961D01*
X3993391Y-10536425D01*
X3890432Y-10845968D01*
X3892873Y-10880000D01*
X3856892Y-10880000D01*
X3555507Y-11004837D01*
X3324837Y-11235507D01*
X3200000Y-11536892D01*
X735000Y-11536892D01*
X735000Y-9286892D01*
X3200000Y-9286892D01*
X3200000Y-9613108D01*
X3324837Y-9914493D01*
X3555507Y-10145163D01*
X3856892Y-10270000D01*
X4183108Y-10270000D01*
X4484493Y-10145163D01*
X4605117Y-10024539D01*
X4600000Y-10036892D01*
X4600000Y-10136499D01*
X4498652Y-10143768D01*
X4306425Y-10223391D01*
X4310961Y-10410146D01*
X4720000Y-10819185D01*
X4758538Y-10780648D01*
X4889353Y-10911463D01*
X4850815Y-10950000D01*
X5259854Y-11359039D01*
X5446609Y-11363575D01*
X5549568Y-11054032D01*
X5547127Y-11020000D01*
X5583108Y-11020000D01*
X5884493Y-10895163D01*
X6115163Y-10664493D01*
X6240000Y-10363108D01*
X6240000Y-10036892D01*
X6115163Y-9735507D01*
X5884493Y-9504837D01*
X5583108Y-9380000D01*
X5256892Y-9380000D01*
X4955507Y-9504837D01*
X4834883Y-9625461D01*
X4840000Y-9613108D01*
X4840000Y-9513501D01*
X4941348Y-9506232D01*
X5133575Y-9426609D01*
X5130182Y-9286892D01*
X7000000Y-9286892D01*
X7000000Y-9613108D01*
X7124837Y-9914493D01*
X7355507Y-10145163D01*
X7656892Y-10270000D01*
X7983108Y-10270000D01*
X8284493Y-10145163D01*
X8405117Y-10024539D01*
X8400000Y-10036892D01*
X8400000Y-10136499D01*
X8298652Y-10143768D01*
X8106425Y-10223391D01*
X8110961Y-10410146D01*
X8520000Y-10819185D01*
X8558538Y-10780648D01*
X8689353Y-10911463D01*
X8650815Y-10950000D01*
X9059854Y-11359039D01*
X9246609Y-11363575D01*
X9349568Y-11054032D01*
X9347127Y-11020000D01*
X9383108Y-11020000D01*
X9684493Y-10895163D01*
X9915163Y-10664493D01*
X10040000Y-10363108D01*
X10040000Y-10036892D01*
X9915163Y-9735507D01*
X9684493Y-9504837D01*
X9383108Y-9380000D01*
X9056892Y-9380000D01*
X8755507Y-9504837D01*
X8634883Y-9625461D01*
X8640000Y-9613108D01*
X8640000Y-9513501D01*
X8741348Y-9506232D01*
X8933575Y-9426609D01*
X8930182Y-9286892D01*
X10800000Y-9286892D01*
X10800000Y-9613108D01*
X10924837Y-9914493D01*
X11155507Y-10145163D01*
X11456892Y-10270000D01*
X11783108Y-10270000D01*
X11988317Y-10185000D01*
X11999109Y-10185000D01*
X11906425Y-10223391D01*
X11910961Y-10410146D01*
X12320000Y-10819185D01*
X12358538Y-10780648D01*
X12489353Y-10911463D01*
X12450815Y-10950000D01*
X12859854Y-11359039D01*
X13046609Y-11363575D01*
X13149568Y-11054032D01*
X13147127Y-11020000D01*
X13183108Y-11020000D01*
X13484493Y-10895163D01*
X13715163Y-10664493D01*
X13840000Y-10363108D01*
X13840000Y-10036892D01*
X13825576Y-10002069D01*
X14641893Y-9185753D01*
X14600000Y-9286892D01*
X14600000Y-9613108D01*
X14724837Y-9914493D01*
X14955507Y-10145163D01*
X15256892Y-10270000D01*
X15583108Y-10270000D01*
X15788317Y-10185000D01*
X15799109Y-10185000D01*
X15706425Y-10223391D01*
X15710961Y-10410146D01*
X16120000Y-10819185D01*
X16158538Y-10780648D01*
X16289353Y-10911463D01*
X16250815Y-10950000D01*
X16265815Y-10965000D01*
X15974185Y-10965000D01*
X15989185Y-10950000D01*
X15580146Y-10540961D01*
X15393391Y-10536425D01*
X15290432Y-10845968D01*
X15292873Y-10880000D01*
X15256892Y-10880000D01*
X14955507Y-11004837D01*
X14724837Y-11235507D01*
X14600000Y-11536892D01*
X14600000Y-11863108D01*
X14724837Y-12164493D01*
X14955507Y-12395163D01*
X15256892Y-12520000D01*
X15583108Y-12520000D01*
X15788317Y-12435000D01*
X15799109Y-12435000D01*
X15706425Y-12473391D01*
X15710961Y-12660146D01*
X16108959Y-13058144D01*
X16036011Y-13072654D01*
X15931603Y-13142418D01*
X15580146Y-12790961D01*
X15393391Y-12786425D01*
X15290432Y-13095968D01*
X15292873Y-13130000D01*
X15256892Y-13130000D01*
X14955507Y-13254837D01*
X14903094Y-13307250D01*
X13809782Y-12213939D01*
X13715163Y-11985507D01*
X13484493Y-11754837D01*
X13183108Y-11630000D01*
X12856892Y-11630000D01*
X12667779Y-11708333D01*
X12664618Y-11705172D01*
X12733575Y-11676609D01*
X12729039Y-11489854D01*
X12320000Y-11080815D01*
X12281463Y-11119353D01*
X12150648Y-10988538D01*
X12189185Y-10950000D01*
X11780146Y-10540961D01*
X11593391Y-10536425D01*
X11490432Y-10845968D01*
X11492873Y-10880000D01*
X11456892Y-10880000D01*
X11155507Y-11004837D01*
X10924837Y-11235507D01*
X10800000Y-11536892D01*
X10800000Y-11863108D01*
X10924837Y-12164493D01*
X11155507Y-12395163D01*
X11360717Y-12480163D01*
X11668810Y-12788257D01*
X11593391Y-12786425D01*
X11490432Y-13095968D01*
X11492873Y-13130000D01*
X11456892Y-13130000D01*
X11155507Y-13254837D01*
X10924837Y-13485507D01*
X10800000Y-13786892D01*
X10800000Y-14113108D01*
X10924837Y-14414493D01*
X11155507Y-14645163D01*
X11456892Y-14770000D01*
X11783108Y-14770000D01*
X12084493Y-14645163D01*
X12205117Y-14524539D01*
X12200000Y-14536892D01*
X12200000Y-14863108D01*
X12324837Y-15164493D01*
X12555507Y-15395163D01*
X12856892Y-15520000D01*
X13183108Y-15520000D01*
X13484493Y-15395163D01*
X13715163Y-15164493D01*
X13811783Y-14931230D01*
X14234082Y-15353529D01*
X14275087Y-15414897D01*
X14518209Y-15577346D01*
X14732604Y-15619992D01*
X14804992Y-15634391D01*
X14877380Y-15619992D01*
X15766809Y-15619992D01*
X15839193Y-15634390D01*
X15911577Y-15619992D01*
X15911581Y-15619992D01*
X16125976Y-15577346D01*
X16369098Y-15414897D01*
X16376479Y-15403850D01*
X16656892Y-15520000D01*
X16983108Y-15520000D01*
X17284493Y-15395163D01*
X17296586Y-15383070D01*
X17305001Y-15384744D01*
X17377389Y-15370345D01*
X36430471Y-15370345D01*
X36502855Y-15384743D01*
X36575239Y-15370345D01*
X36575243Y-15370345D01*
X36789638Y-15327699D01*
X37032760Y-15165250D01*
X37073766Y-15103880D01*
X40002541Y-12175105D01*
X59430000Y-12175105D01*
X59430000Y-12944895D01*
X59724586Y-13656090D01*
X60268910Y-14200414D01*
X60980105Y-14495000D01*
X61749895Y-14495000D01*
X62461090Y-14200414D01*
X63005414Y-13656090D01*
X63300000Y-12944895D01*
X63300000Y-12175105D01*
X63005414Y-11463910D01*
X62461090Y-10919586D01*
X61749895Y-10625000D01*
X60980105Y-10625000D01*
X60268910Y-10919586D01*
X59724586Y-11463910D01*
X59430000Y-12175105D01*
X40002541Y-12175105D01*
X42704309Y-9473337D01*
X42764420Y-9533448D01*
X43144826Y-9691017D01*
X43556574Y-9691017D01*
X43936980Y-9533448D01*
X44228131Y-9242297D01*
X44360317Y-8923170D01*
X44679444Y-8790984D01*
X44715700Y-8754728D01*
X44715700Y-8861891D01*
X44873269Y-9242297D01*
X45164420Y-9533448D01*
X45544826Y-9691017D01*
X45956574Y-9691017D01*
X46336980Y-9533448D01*
X46628131Y-9242297D01*
X46760317Y-8923170D01*
X47079444Y-8790984D01*
X47370595Y-8499833D01*
X47485289Y-8222936D01*
X48386907Y-9124554D01*
X48427912Y-9185922D01*
X48671034Y-9348371D01*
X48885429Y-9391017D01*
X48885432Y-9391017D01*
X48957816Y-9405415D01*
X49030200Y-9391017D01*
X49764453Y-9391017D01*
X49906884Y-9533448D01*
X50287290Y-9691017D01*
X50699038Y-9691017D01*
X51079444Y-9533448D01*
X51370595Y-9242297D01*
X51528164Y-8861891D01*
X51528164Y-8754728D01*
X51564420Y-8790984D01*
X51883547Y-8923170D01*
X52015733Y-9242297D01*
X52306884Y-9533448D01*
X52687290Y-9691017D01*
X53099038Y-9691017D01*
X53479444Y-9533448D01*
X53656564Y-9356328D01*
X53830956Y-9391017D01*
X53830960Y-9391017D01*
X53903344Y-9405415D01*
X53975728Y-9391017D01*
X54564453Y-9391017D01*
X54706884Y-9533448D01*
X55087290Y-9691017D01*
X55499038Y-9691017D01*
X55879444Y-9533448D01*
X56170595Y-9242297D01*
X56328164Y-8861891D01*
X56328164Y-8450143D01*
X56170595Y-8069737D01*
X55879444Y-7778586D01*
X55560317Y-7646400D01*
X55428131Y-7327273D01*
X55136980Y-7036122D01*
X54756574Y-6878553D01*
X54344826Y-6878553D01*
X53964420Y-7036122D01*
X53961858Y-7038684D01*
X51729638Y-4806465D01*
X51688632Y-4745095D01*
X51445510Y-4582646D01*
X51231115Y-4540000D01*
X51231111Y-4540000D01*
X51158727Y-4525602D01*
X51086343Y-4540000D01*
X25299188Y-4540000D01*
X25226800Y-4525601D01*
X25154412Y-4540000D01*
X24940017Y-4582646D01*
X24696895Y-4745095D01*
X24655891Y-4806463D01*
X22522354Y-6940000D01*
X17333661Y-6940000D01*
X17590862Y-6682799D01*
X17855000Y-6045113D01*
X17855000Y-5354887D01*
X17590862Y-4717201D01*
X17102799Y-4229138D01*
X16465113Y-3965000D01*
X15774887Y-3965000D01*
X15137201Y-4229138D01*
X14649138Y-4717201D01*
X14385000Y-5354887D01*
X14385000Y-6045113D01*
X14649138Y-6682799D01*
X14906339Y-6940000D01*
X14549184Y-6940000D01*
X14476800Y-6925602D01*
X14404416Y-6940000D01*
X14404413Y-6940000D01*
X14190018Y-6982646D01*
X13946896Y-7145095D01*
X13905891Y-7206463D01*
X12397355Y-8715000D01*
X12174185Y-8715000D01*
X12189185Y-8700000D01*
X11780146Y-8290961D01*
X11593391Y-8286425D01*
X11490432Y-8595968D01*
X11492873Y-8630000D01*
X11456892Y-8630000D01*
X11155507Y-8754837D01*
X10924837Y-8985507D01*
X10800000Y-9286892D01*
X8930182Y-9286892D01*
X8929039Y-9239854D01*
X8520000Y-8830815D01*
X8481463Y-8869353D01*
X8350648Y-8738538D01*
X8389185Y-8700000D01*
X8650815Y-8700000D01*
X9059854Y-9109039D01*
X9246609Y-9113575D01*
X9349568Y-8804032D01*
X9326232Y-8478652D01*
X9246609Y-8286425D01*
X9059854Y-8290961D01*
X8650815Y-8700000D01*
X8389185Y-8700000D01*
X7980146Y-8290961D01*
X7793391Y-8286425D01*
X7690432Y-8595968D01*
X7692873Y-8630000D01*
X7656892Y-8630000D01*
X7355507Y-8754837D01*
X7124837Y-8985507D01*
X7000000Y-9286892D01*
X5130182Y-9286892D01*
X5129039Y-9239854D01*
X4720000Y-8830815D01*
X4681463Y-8869353D01*
X4550648Y-8738538D01*
X4589185Y-8700000D01*
X4850815Y-8700000D01*
X5259854Y-9109039D01*
X5446609Y-9113575D01*
X5549568Y-8804032D01*
X5526232Y-8478652D01*
X5446609Y-8286425D01*
X5259854Y-8290961D01*
X4850815Y-8700000D01*
X4589185Y-8700000D01*
X4180146Y-8290961D01*
X3993391Y-8286425D01*
X3890432Y-8595968D01*
X3892873Y-8630000D01*
X3856892Y-8630000D01*
X3555507Y-8754837D01*
X3324837Y-8985507D01*
X3200000Y-9286892D01*
X735000Y-9286892D01*
X735000Y-7973391D01*
X4306425Y-7973391D01*
X4310961Y-8160146D01*
X4720000Y-8569185D01*
X5129039Y-8160146D01*
X5133575Y-7973391D01*
X8106425Y-7973391D01*
X8110961Y-8160146D01*
X8520000Y-8569185D01*
X8929039Y-8160146D01*
X8933575Y-7973391D01*
X11906425Y-7973391D01*
X11910961Y-8160146D01*
X12320000Y-8569185D01*
X12729039Y-8160146D01*
X12733575Y-7973391D01*
X12424032Y-7870432D01*
X12098652Y-7893768D01*
X11906425Y-7973391D01*
X8933575Y-7973391D01*
X8624032Y-7870432D01*
X8298652Y-7893768D01*
X8106425Y-7973391D01*
X5133575Y-7973391D01*
X4824032Y-7870432D01*
X4498652Y-7893768D01*
X4306425Y-7973391D01*
X735000Y-7973391D01*
X735000Y-5354887D01*
X2385000Y-5354887D01*
X2385000Y-6045113D01*
X2649138Y-6682799D01*
X3137201Y-7170862D01*
X3774887Y-7435000D01*
X4465113Y-7435000D01*
X5102799Y-7170862D01*
X5590862Y-6682799D01*
X5855000Y-6045113D01*
X5855000Y-5354887D01*
X5590862Y-4717201D01*
X5102799Y-4229138D01*
X4465113Y-3965000D01*
X3774887Y-3965000D01*
X3137201Y-4229138D01*
X2649138Y-4717201D01*
X2385000Y-5354887D01*
X735000Y-5354887D01*
X735000Y-3241089D01*
X800751Y-2654908D01*
X981140Y-2136900D01*
X1271808Y-1671734D01*
X1658308Y-1282526D01*
X2121438Y-988614D01*
X2638164Y-804617D01*
X3221984Y-735000D01*
X70608911Y-735000D01*
X71195092Y-800751D01*
X71195092Y-800751D01*
G37*
X71195092Y-800751D02*
X71713100Y-981140D01*
X72178266Y-1271808D01*
X72567474Y-1658308D01*
X72861386Y-2121438D01*
X73045383Y-2638164D01*
X73115001Y-3221993D01*
X73115000Y-16727612D01*
X73100601Y-16800000D01*
X73157646Y-17086783D01*
X73267161Y-17250683D01*
X73320095Y-17329905D01*
X73563217Y-17492354D01*
X73850000Y-17549399D01*
X73873000Y-17544824D01*
X73873000Y-54255176D01*
X73850000Y-54250601D01*
X73777612Y-54265000D01*
X73563217Y-54307646D01*
X73320095Y-54470095D01*
X73157646Y-54713217D01*
X73100601Y-55000000D01*
X73115000Y-55072388D01*
X73115001Y-68672388D01*
X73122947Y-68712336D01*
X73073780Y-69150669D01*
X72891548Y-69673969D01*
X72597909Y-70143890D01*
X72207451Y-70537083D01*
X71739593Y-70833995D01*
X71217576Y-71019877D01*
X70766155Y-71073706D01*
X70722388Y-71065000D01*
X3241089Y-71065000D01*
X2654908Y-70999249D01*
X2136899Y-70818859D01*
X1671734Y-70528192D01*
X1282524Y-70141689D01*
X988614Y-69678562D01*
X804617Y-69161837D01*
X735000Y-68578016D01*
X735000Y-67692268D01*
X59460000Y-67692268D01*
X59460000Y-68287733D01*
X59547032Y-68725271D01*
X59878561Y-69221439D01*
X60374730Y-69552968D01*
X60960000Y-69669386D01*
X61545271Y-69552968D01*
X62041439Y-69221439D01*
X62216846Y-68958923D01*
X62559143Y-69340793D01*
X63087240Y-69594131D01*
X63100754Y-69596346D01*
X63333000Y-69475224D01*
X63333000Y-68117000D01*
X63587000Y-68117000D01*
X63587000Y-69475224D01*
X63819246Y-69596346D01*
X63832760Y-69594131D01*
X64360857Y-69340793D01*
X64710000Y-68951285D01*
X65059143Y-69340793D01*
X65587240Y-69594131D01*
X65600754Y-69596346D01*
X65833000Y-69475224D01*
X65833000Y-68117000D01*
X63587000Y-68117000D01*
X63333000Y-68117000D01*
X63313000Y-68117000D01*
X63313000Y-67863000D01*
X63333000Y-67863000D01*
X63333000Y-66504776D01*
X63587000Y-66504776D01*
X63587000Y-67863000D01*
X65833000Y-67863000D01*
X65833000Y-66504776D01*
X66087000Y-66504776D01*
X66087000Y-67863000D01*
X66107000Y-67863000D01*
X66107000Y-68117000D01*
X66087000Y-68117000D01*
X66087000Y-69475224D01*
X66319246Y-69596346D01*
X66332760Y-69594131D01*
X66860857Y-69340793D01*
X66986477Y-69200650D01*
X66996843Y-69252765D01*
X67137191Y-69462809D01*
X67347235Y-69603157D01*
X67595000Y-69652440D01*
X69325000Y-69652440D01*
X69572765Y-69603157D01*
X69782809Y-69462809D01*
X69923157Y-69252765D01*
X69972440Y-69005000D01*
X69972440Y-66975000D01*
X69923157Y-66727235D01*
X69782809Y-66517191D01*
X69572765Y-66376843D01*
X69325000Y-66327560D01*
X67595000Y-66327560D01*
X67347235Y-66376843D01*
X67137191Y-66517191D01*
X66996843Y-66727235D01*
X66986477Y-66779350D01*
X66860857Y-66639207D01*
X66332760Y-66385869D01*
X66319246Y-66383654D01*
X66087000Y-66504776D01*
X65833000Y-66504776D01*
X65600754Y-66383654D01*
X65587240Y-66385869D01*
X65059143Y-66639207D01*
X64710000Y-67028715D01*
X64360857Y-66639207D01*
X63832760Y-66385869D01*
X63819246Y-66383654D01*
X63587000Y-66504776D01*
X63333000Y-66504776D01*
X63100754Y-66383654D01*
X63087240Y-66385869D01*
X62559143Y-66639207D01*
X62216846Y-67021077D01*
X62041439Y-66758561D01*
X61545270Y-66427032D01*
X60960000Y-66310614D01*
X60374729Y-66427032D01*
X59878561Y-66758561D01*
X59547032Y-67254730D01*
X59460000Y-67692268D01*
X735000Y-67692268D01*
X735000Y-65354887D01*
X2385000Y-65354887D01*
X2385000Y-66045113D01*
X2649138Y-66682799D01*
X3137201Y-67170862D01*
X3774887Y-67435000D01*
X4465113Y-67435000D01*
X5102799Y-67170862D01*
X5590862Y-66682799D01*
X5855000Y-66045113D01*
X5855000Y-65354887D01*
X14385000Y-65354887D01*
X14385000Y-66045113D01*
X14649138Y-66682799D01*
X15137201Y-67170862D01*
X15774887Y-67435000D01*
X16465113Y-67435000D01*
X17102799Y-67170862D01*
X17590862Y-66682799D01*
X17855000Y-66045113D01*
X17855000Y-65354887D01*
X17590862Y-64717201D01*
X17157787Y-64284126D01*
X37085000Y-64284126D01*
X37085000Y-64695874D01*
X37242569Y-65076280D01*
X37533720Y-65367431D01*
X37914126Y-65525000D01*
X38325874Y-65525000D01*
X38706280Y-65367431D01*
X38834585Y-65239126D01*
X39060000Y-65239126D01*
X39060000Y-65650874D01*
X39217569Y-66031280D01*
X39508720Y-66322431D01*
X39889126Y-66480000D01*
X40300874Y-66480000D01*
X40681280Y-66322431D01*
X40972431Y-66031280D01*
X41130000Y-65650874D01*
X41130000Y-65239126D01*
X41119645Y-65214126D01*
X46680000Y-65214126D01*
X46680000Y-65625874D01*
X46837569Y-66006280D01*
X47128720Y-66297431D01*
X47509126Y-66455000D01*
X47920874Y-66455000D01*
X48301280Y-66297431D01*
X48337500Y-66261211D01*
X48398720Y-66322431D01*
X48779126Y-66480000D01*
X49190874Y-66480000D01*
X49571280Y-66322431D01*
X49620000Y-66273711D01*
X49668720Y-66322431D01*
X50049126Y-66480000D01*
X50460874Y-66480000D01*
X50841280Y-66322431D01*
X51132431Y-66031280D01*
X51290000Y-65650874D01*
X51290000Y-65239126D01*
X54275000Y-65239126D01*
X54275000Y-65650874D01*
X54432569Y-66031280D01*
X54723720Y-66322431D01*
X55104126Y-66480000D01*
X55515874Y-66480000D01*
X55896280Y-66322431D01*
X55945000Y-66273711D01*
X55993720Y-66322431D01*
X56374126Y-66480000D01*
X56785874Y-66480000D01*
X57166280Y-66322431D01*
X57227500Y-66261211D01*
X57288720Y-66322431D01*
X57669126Y-66480000D01*
X58080874Y-66480000D01*
X58461280Y-66322431D01*
X58752431Y-66031280D01*
X58910000Y-65650874D01*
X58910000Y-65239126D01*
X58752431Y-64858720D01*
X58461280Y-64567569D01*
X58080874Y-64410000D01*
X57669126Y-64410000D01*
X57288720Y-64567569D01*
X57227500Y-64628789D01*
X57166280Y-64567569D01*
X56785874Y-64410000D01*
X56374126Y-64410000D01*
X55993720Y-64567569D01*
X55945000Y-64616289D01*
X55896280Y-64567569D01*
X55515874Y-64410000D01*
X55104126Y-64410000D01*
X54723720Y-64567569D01*
X54432569Y-64858720D01*
X54275000Y-65239126D01*
X51290000Y-65239126D01*
X51132431Y-64858720D01*
X50841280Y-64567569D01*
X50460874Y-64410000D01*
X50049126Y-64410000D01*
X49668720Y-64567569D01*
X49620000Y-64616289D01*
X49571280Y-64567569D01*
X49190874Y-64410000D01*
X48779126Y-64410000D01*
X48398720Y-64567569D01*
X48362500Y-64603789D01*
X48301280Y-64542569D01*
X47920874Y-64385000D01*
X47509126Y-64385000D01*
X47128720Y-64542569D01*
X46837569Y-64833720D01*
X46680000Y-65214126D01*
X41119645Y-65214126D01*
X40972431Y-64858720D01*
X40681280Y-64567569D01*
X40300874Y-64410000D01*
X39889126Y-64410000D01*
X39508720Y-64567569D01*
X39217569Y-64858720D01*
X39060000Y-65239126D01*
X38834585Y-65239126D01*
X38997431Y-65076280D01*
X39155000Y-64695874D01*
X39155000Y-64284126D01*
X38997431Y-63903720D01*
X38706280Y-63612569D01*
X38325874Y-63455000D01*
X37914126Y-63455000D01*
X37533720Y-63612569D01*
X37242569Y-63903720D01*
X37085000Y-64284126D01*
X17157787Y-64284126D01*
X17102799Y-64229138D01*
X16465113Y-63965000D01*
X15774887Y-63965000D01*
X15137201Y-64229138D01*
X14649138Y-64717201D01*
X14385000Y-65354887D01*
X5855000Y-65354887D01*
X5590862Y-64717201D01*
X5102799Y-64229138D01*
X4465113Y-63965000D01*
X3774887Y-63965000D01*
X3137201Y-64229138D01*
X2649138Y-64717201D01*
X2385000Y-65354887D01*
X735000Y-65354887D01*
X735000Y-61786892D01*
X3200000Y-61786892D01*
X3200000Y-62113108D01*
X3324837Y-62414493D01*
X3555507Y-62645163D01*
X3856892Y-62770000D01*
X4183108Y-62770000D01*
X4484493Y-62645163D01*
X4605117Y-62524539D01*
X4600000Y-62536892D01*
X4600000Y-62863108D01*
X4724837Y-63164493D01*
X4955507Y-63395163D01*
X5256892Y-63520000D01*
X5583108Y-63520000D01*
X5884493Y-63395163D01*
X6115163Y-63164493D01*
X6240000Y-62863108D01*
X6240000Y-62536892D01*
X6115163Y-62235507D01*
X5884493Y-62004837D01*
X5583108Y-61880000D01*
X5256892Y-61880000D01*
X4955507Y-62004837D01*
X4834883Y-62125461D01*
X4840000Y-62113108D01*
X4840000Y-62013501D01*
X4941348Y-62006232D01*
X5133575Y-61926609D01*
X5130182Y-61786892D01*
X7000000Y-61786892D01*
X7000000Y-62113108D01*
X7124837Y-62414493D01*
X7355507Y-62645163D01*
X7656892Y-62770000D01*
X7983108Y-62770000D01*
X8284493Y-62645163D01*
X8405117Y-62524539D01*
X8400000Y-62536892D01*
X8400000Y-62863108D01*
X8524837Y-63164493D01*
X8755507Y-63395163D01*
X9056892Y-63520000D01*
X9383108Y-63520000D01*
X9684493Y-63395163D01*
X9915163Y-63164493D01*
X10040000Y-62863108D01*
X10040000Y-62536892D01*
X9915163Y-62235507D01*
X9684493Y-62004837D01*
X9383108Y-61880000D01*
X9056892Y-61880000D01*
X8755507Y-62004837D01*
X8634883Y-62125461D01*
X8640000Y-62113108D01*
X8640000Y-62013501D01*
X8741348Y-62006232D01*
X8933575Y-61926609D01*
X8929039Y-61739854D01*
X8520000Y-61330815D01*
X8481463Y-61369353D01*
X8350648Y-61238538D01*
X8389185Y-61200000D01*
X7980146Y-60790961D01*
X7793391Y-60786425D01*
X7690432Y-61095968D01*
X7692873Y-61130000D01*
X7656892Y-61130000D01*
X7355507Y-61254837D01*
X7124837Y-61485507D01*
X7000000Y-61786892D01*
X5130182Y-61786892D01*
X5129039Y-61739854D01*
X4720000Y-61330815D01*
X4681463Y-61369353D01*
X4550648Y-61238538D01*
X4589185Y-61200000D01*
X4180146Y-60790961D01*
X3993391Y-60786425D01*
X3890432Y-61095968D01*
X3892873Y-61130000D01*
X3856892Y-61130000D01*
X3555507Y-61254837D01*
X3324837Y-61485507D01*
X3200000Y-61786892D01*
X735000Y-61786892D01*
X735000Y-59536892D01*
X3200000Y-59536892D01*
X3200000Y-59863108D01*
X3324837Y-60164493D01*
X3555507Y-60395163D01*
X3856892Y-60520000D01*
X4183108Y-60520000D01*
X4484493Y-60395163D01*
X4605117Y-60274539D01*
X4600000Y-60286892D01*
X4600000Y-60386499D01*
X4498652Y-60393768D01*
X4306425Y-60473391D01*
X4310961Y-60660146D01*
X4720000Y-61069185D01*
X4758538Y-61030648D01*
X4889353Y-61161463D01*
X4850815Y-61200000D01*
X5259854Y-61609039D01*
X5446609Y-61613575D01*
X5549568Y-61304032D01*
X5547127Y-61270000D01*
X5583108Y-61270000D01*
X5884493Y-61145163D01*
X6115163Y-60914493D01*
X6240000Y-60613108D01*
X6240000Y-60286892D01*
X6115163Y-59985507D01*
X5884493Y-59754837D01*
X5583108Y-59630000D01*
X5256892Y-59630000D01*
X4955507Y-59754837D01*
X4834883Y-59875461D01*
X4840000Y-59863108D01*
X4840000Y-59763501D01*
X4941348Y-59756232D01*
X5133575Y-59676609D01*
X5130182Y-59536892D01*
X7000000Y-59536892D01*
X7000000Y-59863108D01*
X7124837Y-60164493D01*
X7355507Y-60395163D01*
X7656892Y-60520000D01*
X7983108Y-60520000D01*
X8284493Y-60395163D01*
X8405117Y-60274539D01*
X8400000Y-60286892D01*
X8400000Y-60386499D01*
X8298652Y-60393768D01*
X8106425Y-60473391D01*
X8110961Y-60660146D01*
X8520000Y-61069185D01*
X8558538Y-61030648D01*
X8689353Y-61161463D01*
X8650815Y-61200000D01*
X9059854Y-61609039D01*
X9246609Y-61613575D01*
X9349568Y-61304032D01*
X9347127Y-61270000D01*
X9383108Y-61270000D01*
X9684493Y-61145163D01*
X9915163Y-60914493D01*
X10040000Y-60613108D01*
X10040000Y-60286892D01*
X9915163Y-59985507D01*
X9684493Y-59754837D01*
X9383108Y-59630000D01*
X9056892Y-59630000D01*
X8755507Y-59754837D01*
X8634883Y-59875461D01*
X8640000Y-59863108D01*
X8640000Y-59763501D01*
X8741348Y-59756232D01*
X8933575Y-59676609D01*
X8929039Y-59489854D01*
X8520000Y-59080815D01*
X8481463Y-59119353D01*
X8350648Y-58988538D01*
X8389185Y-58950000D01*
X7980146Y-58540961D01*
X7793391Y-58536425D01*
X7690432Y-58845968D01*
X7692873Y-58880000D01*
X7656892Y-58880000D01*
X7355507Y-59004837D01*
X7124837Y-59235507D01*
X7000000Y-59536892D01*
X5130182Y-59536892D01*
X5129039Y-59489854D01*
X4720000Y-59080815D01*
X4681463Y-59119353D01*
X4550648Y-58988538D01*
X4589185Y-58950000D01*
X4180146Y-58540961D01*
X3993391Y-58536425D01*
X3890432Y-58845968D01*
X3892873Y-58880000D01*
X3856892Y-58880000D01*
X3555507Y-59004837D01*
X3324837Y-59235507D01*
X3200000Y-59536892D01*
X735000Y-59536892D01*
X735000Y-57286892D01*
X3200000Y-57286892D01*
X3200000Y-57613108D01*
X3324837Y-57914493D01*
X3555507Y-58145163D01*
X3856892Y-58270000D01*
X4183108Y-58270000D01*
X4484493Y-58145163D01*
X4605117Y-58024539D01*
X4600000Y-58036892D01*
X4600000Y-58136499D01*
X4498652Y-58143768D01*
X4306425Y-58223391D01*
X4310961Y-58410146D01*
X4720000Y-58819185D01*
X4758538Y-58780648D01*
X4889353Y-58911463D01*
X4850815Y-58950000D01*
X5259854Y-59359039D01*
X5446609Y-59363575D01*
X5549568Y-59054032D01*
X5547127Y-59020000D01*
X5583108Y-59020000D01*
X5884493Y-58895163D01*
X6115163Y-58664493D01*
X6240000Y-58363108D01*
X6240000Y-58036892D01*
X6115163Y-57735507D01*
X5884493Y-57504837D01*
X5583108Y-57380000D01*
X5256892Y-57380000D01*
X4955507Y-57504837D01*
X4834883Y-57625461D01*
X4840000Y-57613108D01*
X4840000Y-57513501D01*
X4941348Y-57506232D01*
X5133575Y-57426609D01*
X5130182Y-57286892D01*
X7000000Y-57286892D01*
X7000000Y-57613108D01*
X7124837Y-57914493D01*
X7355507Y-58145163D01*
X7656892Y-58270000D01*
X7983108Y-58270000D01*
X8284493Y-58145163D01*
X8405117Y-58024539D01*
X8400000Y-58036892D01*
X8400000Y-58136499D01*
X8298652Y-58143768D01*
X8106425Y-58223391D01*
X8110961Y-58410146D01*
X8520000Y-58819185D01*
X8558538Y-58780648D01*
X8689353Y-58911463D01*
X8650815Y-58950000D01*
X9059854Y-59359039D01*
X9246609Y-59363575D01*
X9349568Y-59054032D01*
X9347127Y-59020000D01*
X9383108Y-59020000D01*
X9684493Y-58895163D01*
X9915163Y-58664493D01*
X10040000Y-58363108D01*
X10040000Y-58036892D01*
X9915163Y-57735507D01*
X9684493Y-57504837D01*
X9383108Y-57380000D01*
X9056892Y-57380000D01*
X8755507Y-57504837D01*
X8634883Y-57625461D01*
X8640000Y-57613108D01*
X8640000Y-57513501D01*
X8741348Y-57506232D01*
X8933575Y-57426609D01*
X8930182Y-57286892D01*
X10800000Y-57286892D01*
X10800000Y-57613108D01*
X10924837Y-57914493D01*
X11155507Y-58145163D01*
X11456892Y-58270000D01*
X11783108Y-58270000D01*
X11988317Y-58185000D01*
X11999109Y-58185000D01*
X11906425Y-58223391D01*
X11910961Y-58410146D01*
X12320000Y-58819185D01*
X12358538Y-58780648D01*
X12489353Y-58911463D01*
X12450815Y-58950000D01*
X12859854Y-59359039D01*
X13046609Y-59363575D01*
X13149568Y-59054032D01*
X13147127Y-59020000D01*
X13183108Y-59020000D01*
X13484493Y-58895163D01*
X13715163Y-58664493D01*
X13840000Y-58363108D01*
X13840000Y-58036892D01*
X13825576Y-58002069D01*
X14641893Y-57185753D01*
X14600000Y-57286892D01*
X14600000Y-57613108D01*
X14724837Y-57914493D01*
X14955507Y-58145163D01*
X15256892Y-58270000D01*
X15583108Y-58270000D01*
X15788317Y-58185000D01*
X15799109Y-58185000D01*
X15706425Y-58223391D01*
X15710961Y-58410146D01*
X16120000Y-58819185D01*
X16158538Y-58780648D01*
X16289353Y-58911463D01*
X16250815Y-58950000D01*
X16265815Y-58965000D01*
X15974185Y-58965000D01*
X15989185Y-58950000D01*
X15580146Y-58540961D01*
X15393391Y-58536425D01*
X15290432Y-58845968D01*
X15292873Y-58880000D01*
X15256892Y-58880000D01*
X14955507Y-59004837D01*
X14724837Y-59235507D01*
X14600000Y-59536892D01*
X14600000Y-59863108D01*
X14724837Y-60164493D01*
X14955507Y-60395163D01*
X15256892Y-60520000D01*
X15583108Y-60520000D01*
X15788317Y-60435000D01*
X15799109Y-60435000D01*
X15706425Y-60473391D01*
X15710961Y-60660146D01*
X16108959Y-61058144D01*
X16036011Y-61072654D01*
X15931603Y-61142418D01*
X15580146Y-60790961D01*
X15393391Y-60786425D01*
X15290432Y-61095968D01*
X15292873Y-61130000D01*
X15256892Y-61130000D01*
X14955507Y-61254837D01*
X14903094Y-61307250D01*
X13809782Y-60213939D01*
X13715163Y-59985507D01*
X13484493Y-59754837D01*
X13183108Y-59630000D01*
X12856892Y-59630000D01*
X12667779Y-59708333D01*
X12664618Y-59705172D01*
X12733575Y-59676609D01*
X12729039Y-59489854D01*
X12320000Y-59080815D01*
X12281463Y-59119353D01*
X12150648Y-58988538D01*
X12189185Y-58950000D01*
X11780146Y-58540961D01*
X11593391Y-58536425D01*
X11490432Y-58845968D01*
X11492873Y-58880000D01*
X11456892Y-58880000D01*
X11155507Y-59004837D01*
X10924837Y-59235507D01*
X10800000Y-59536892D01*
X10800000Y-59863108D01*
X10924837Y-60164493D01*
X11155507Y-60395163D01*
X11360717Y-60480163D01*
X11668810Y-60788257D01*
X11593391Y-60786425D01*
X11490432Y-61095968D01*
X11492873Y-61130000D01*
X11456892Y-61130000D01*
X11155507Y-61254837D01*
X10924837Y-61485507D01*
X10800000Y-61786892D01*
X10800000Y-62113108D01*
X10924837Y-62414493D01*
X11155507Y-62645163D01*
X11456892Y-62770000D01*
X11783108Y-62770000D01*
X12084493Y-62645163D01*
X12205117Y-62524539D01*
X12200000Y-62536892D01*
X12200000Y-62863108D01*
X12324837Y-63164493D01*
X12555507Y-63395163D01*
X12856892Y-63520000D01*
X13183108Y-63520000D01*
X13484493Y-63395163D01*
X13715163Y-63164493D01*
X13811783Y-62931230D01*
X14234082Y-63353529D01*
X14275087Y-63414897D01*
X14518209Y-63577346D01*
X14732604Y-63619992D01*
X14804992Y-63634391D01*
X14877380Y-63619992D01*
X15766809Y-63619992D01*
X15839193Y-63634390D01*
X15911577Y-63619992D01*
X15911581Y-63619992D01*
X16125976Y-63577346D01*
X16369098Y-63414897D01*
X16376479Y-63403850D01*
X16656892Y-63520000D01*
X16983108Y-63520000D01*
X17284493Y-63395163D01*
X17296586Y-63383070D01*
X17305001Y-63384744D01*
X17377389Y-63370345D01*
X36430471Y-63370345D01*
X36502855Y-63384743D01*
X36575239Y-63370345D01*
X36575243Y-63370345D01*
X36789638Y-63327699D01*
X37032760Y-63165250D01*
X37073766Y-63103880D01*
X40002541Y-60175105D01*
X59430000Y-60175105D01*
X59430000Y-60944895D01*
X59724586Y-61656090D01*
X60268910Y-62200414D01*
X60980105Y-62495000D01*
X61749895Y-62495000D01*
X62461090Y-62200414D01*
X63005414Y-61656090D01*
X63300000Y-60944895D01*
X63300000Y-60175105D01*
X63005414Y-59463910D01*
X62461090Y-58919586D01*
X61749895Y-58625000D01*
X60980105Y-58625000D01*
X60268910Y-58919586D01*
X59724586Y-59463910D01*
X59430000Y-60175105D01*
X40002541Y-60175105D01*
X42704309Y-57473337D01*
X42764420Y-57533448D01*
X43144826Y-57691017D01*
X43556574Y-57691017D01*
X43936980Y-57533448D01*
X44228131Y-57242297D01*
X44360317Y-56923170D01*
X44679444Y-56790984D01*
X44715700Y-56754728D01*
X44715700Y-56861891D01*
X44873269Y-57242297D01*
X45164420Y-57533448D01*
X45544826Y-57691017D01*
X45956574Y-57691017D01*
X46336980Y-57533448D01*
X46628131Y-57242297D01*
X46760317Y-56923170D01*
X47079444Y-56790984D01*
X47370595Y-56499833D01*
X47485289Y-56222936D01*
X48386907Y-57124554D01*
X48427912Y-57185922D01*
X48671034Y-57348371D01*
X48885429Y-57391017D01*
X48885432Y-57391017D01*
X48957816Y-57405415D01*
X49030200Y-57391017D01*
X49764453Y-57391017D01*
X49906884Y-57533448D01*
X50287290Y-57691017D01*
X50699038Y-57691017D01*
X51079444Y-57533448D01*
X51370595Y-57242297D01*
X51528164Y-56861891D01*
X51528164Y-56754728D01*
X51564420Y-56790984D01*
X51883547Y-56923170D01*
X52015733Y-57242297D01*
X52306884Y-57533448D01*
X52687290Y-57691017D01*
X53099038Y-57691017D01*
X53479444Y-57533448D01*
X53656564Y-57356328D01*
X53830956Y-57391017D01*
X53830960Y-57391017D01*
X53903344Y-57405415D01*
X53975728Y-57391017D01*
X54564453Y-57391017D01*
X54706884Y-57533448D01*
X55087290Y-57691017D01*
X55499038Y-57691017D01*
X55879444Y-57533448D01*
X56170595Y-57242297D01*
X56328164Y-56861891D01*
X56328164Y-56450143D01*
X56170595Y-56069737D01*
X55879444Y-55778586D01*
X55560317Y-55646400D01*
X55428131Y-55327273D01*
X55136980Y-55036122D01*
X54756574Y-54878553D01*
X54344826Y-54878553D01*
X53964420Y-55036122D01*
X53961858Y-55038684D01*
X51729638Y-52806465D01*
X51688632Y-52745095D01*
X51445510Y-52582646D01*
X51231115Y-52540000D01*
X51231111Y-52540000D01*
X51158727Y-52525602D01*
X51086343Y-52540000D01*
X25299188Y-52540000D01*
X25226800Y-52525601D01*
X25154412Y-52540000D01*
X24940017Y-52582646D01*
X24696895Y-52745095D01*
X24655891Y-52806463D01*
X22522354Y-54940000D01*
X17333661Y-54940000D01*
X17590862Y-54682799D01*
X17855000Y-54045113D01*
X17855000Y-53354887D01*
X17590862Y-52717201D01*
X17102799Y-52229138D01*
X16465113Y-51965000D01*
X15774887Y-51965000D01*
X15137201Y-52229138D01*
X14649138Y-52717201D01*
X14385000Y-53354887D01*
X14385000Y-54045113D01*
X14649138Y-54682799D01*
X14906339Y-54940000D01*
X14549184Y-54940000D01*
X14476800Y-54925602D01*
X14404416Y-54940000D01*
X14404413Y-54940000D01*
X14190018Y-54982646D01*
X13946896Y-55145095D01*
X13905891Y-55206463D01*
X12397355Y-56715000D01*
X12174185Y-56715000D01*
X12189185Y-56700000D01*
X11780146Y-56290961D01*
X11593391Y-56286425D01*
X11490432Y-56595968D01*
X11492873Y-56630000D01*
X11456892Y-56630000D01*
X11155507Y-56754837D01*
X10924837Y-56985507D01*
X10800000Y-57286892D01*
X8930182Y-57286892D01*
X8929039Y-57239854D01*
X8520000Y-56830815D01*
X8481463Y-56869353D01*
X8350648Y-56738538D01*
X8389185Y-56700000D01*
X8650815Y-56700000D01*
X9059854Y-57109039D01*
X9246609Y-57113575D01*
X9349568Y-56804032D01*
X9326232Y-56478652D01*
X9246609Y-56286425D01*
X9059854Y-56290961D01*
X8650815Y-56700000D01*
X8389185Y-56700000D01*
X7980146Y-56290961D01*
X7793391Y-56286425D01*
X7690432Y-56595968D01*
X7692873Y-56630000D01*
X7656892Y-56630000D01*
X7355507Y-56754837D01*
X7124837Y-56985507D01*
X7000000Y-57286892D01*
X5130182Y-57286892D01*
X5129039Y-57239854D01*
X4720000Y-56830815D01*
X4681463Y-56869353D01*
X4550648Y-56738538D01*
X4589185Y-56700000D01*
X4850815Y-56700000D01*
X5259854Y-57109039D01*
X5446609Y-57113575D01*
X5549568Y-56804032D01*
X5526232Y-56478652D01*
X5446609Y-56286425D01*
X5259854Y-56290961D01*
X4850815Y-56700000D01*
X4589185Y-56700000D01*
X4180146Y-56290961D01*
X3993391Y-56286425D01*
X3890432Y-56595968D01*
X3892873Y-56630000D01*
X3856892Y-56630000D01*
X3555507Y-56754837D01*
X3324837Y-56985507D01*
X3200000Y-57286892D01*
X735000Y-57286892D01*
X735000Y-55973391D01*
X4306425Y-55973391D01*
X4310961Y-56160146D01*
X4720000Y-56569185D01*
X5129039Y-56160146D01*
X5133575Y-55973391D01*
X8106425Y-55973391D01*
X8110961Y-56160146D01*
X8520000Y-56569185D01*
X8929039Y-56160146D01*
X8933575Y-55973391D01*
X11906425Y-55973391D01*
X11910961Y-56160146D01*
X12320000Y-56569185D01*
X12729039Y-56160146D01*
X12733575Y-55973391D01*
X12424032Y-55870432D01*
X12098652Y-55893768D01*
X11906425Y-55973391D01*
X8933575Y-55973391D01*
X8624032Y-55870432D01*
X8298652Y-55893768D01*
X8106425Y-55973391D01*
X5133575Y-55973391D01*
X4824032Y-55870432D01*
X4498652Y-55893768D01*
X4306425Y-55973391D01*
X735000Y-55973391D01*
X735000Y-55072388D01*
X749399Y-55000000D01*
X692354Y-54713217D01*
X529905Y-54470095D01*
X286783Y-54307646D01*
X127000Y-54275863D01*
X127000Y-53354887D01*
X2385000Y-53354887D01*
X2385000Y-54045113D01*
X2649138Y-54682799D01*
X3137201Y-55170862D01*
X3774887Y-55435000D01*
X4465113Y-55435000D01*
X5102799Y-55170862D01*
X5590862Y-54682799D01*
X5855000Y-54045113D01*
X5855000Y-53354887D01*
X5590862Y-52717201D01*
X5102799Y-52229138D01*
X4465113Y-51965000D01*
X3774887Y-51965000D01*
X3137201Y-52229138D01*
X2649138Y-52717201D01*
X2385000Y-53354887D01*
X127000Y-53354887D01*
X127000Y-49354887D01*
X2385000Y-49354887D01*
X2385000Y-50045113D01*
X2649138Y-50682799D01*
X3137201Y-51170862D01*
X3774887Y-51435000D01*
X4465113Y-51435000D01*
X5102799Y-51170862D01*
X5590862Y-50682799D01*
X5855000Y-50045113D01*
X5855000Y-49354887D01*
X14385000Y-49354887D01*
X14385000Y-50045113D01*
X14649138Y-50682799D01*
X15137201Y-51170862D01*
X15774887Y-51435000D01*
X16465113Y-51435000D01*
X17102799Y-51170862D01*
X17590862Y-50682799D01*
X17855000Y-50045113D01*
X17855000Y-49354887D01*
X17590862Y-48717201D01*
X17157787Y-48284126D01*
X37085000Y-48284126D01*
X37085000Y-48695874D01*
X37242569Y-49076280D01*
X37533720Y-49367431D01*
X37914126Y-49525000D01*
X38325874Y-49525000D01*
X38706280Y-49367431D01*
X38834585Y-49239126D01*
X39060000Y-49239126D01*
X39060000Y-49650874D01*
X39217569Y-50031280D01*
X39508720Y-50322431D01*
X39889126Y-50480000D01*
X40300874Y-50480000D01*
X40681280Y-50322431D01*
X40972431Y-50031280D01*
X41130000Y-49650874D01*
X41130000Y-49239126D01*
X41119645Y-49214126D01*
X46680000Y-49214126D01*
X46680000Y-49625874D01*
X46837569Y-50006280D01*
X47128720Y-50297431D01*
X47509126Y-50455000D01*
X47920874Y-50455000D01*
X48301280Y-50297431D01*
X48337500Y-50261211D01*
X48398720Y-50322431D01*
X48779126Y-50480000D01*
X49190874Y-50480000D01*
X49571280Y-50322431D01*
X49620000Y-50273711D01*
X49668720Y-50322431D01*
X50049126Y-50480000D01*
X50460874Y-50480000D01*
X50841280Y-50322431D01*
X51132431Y-50031280D01*
X51290000Y-49650874D01*
X51290000Y-49239126D01*
X54275000Y-49239126D01*
X54275000Y-49650874D01*
X54432569Y-50031280D01*
X54723720Y-50322431D01*
X55104126Y-50480000D01*
X55515874Y-50480000D01*
X55896280Y-50322431D01*
X55945000Y-50273711D01*
X55993720Y-50322431D01*
X56374126Y-50480000D01*
X56785874Y-50480000D01*
X57166280Y-50322431D01*
X57227500Y-50261211D01*
X57288720Y-50322431D01*
X57669126Y-50480000D01*
X58080874Y-50480000D01*
X58461280Y-50322431D01*
X58752431Y-50031280D01*
X58910000Y-49650874D01*
X58910000Y-49239126D01*
X58752431Y-48858720D01*
X58461280Y-48567569D01*
X58080874Y-48410000D01*
X57669126Y-48410000D01*
X57288720Y-48567569D01*
X57227500Y-48628789D01*
X57166280Y-48567569D01*
X56785874Y-48410000D01*
X56374126Y-48410000D01*
X55993720Y-48567569D01*
X55945000Y-48616289D01*
X55896280Y-48567569D01*
X55515874Y-48410000D01*
X55104126Y-48410000D01*
X54723720Y-48567569D01*
X54432569Y-48858720D01*
X54275000Y-49239126D01*
X51290000Y-49239126D01*
X51132431Y-48858720D01*
X50841280Y-48567569D01*
X50460874Y-48410000D01*
X50049126Y-48410000D01*
X49668720Y-48567569D01*
X49620000Y-48616289D01*
X49571280Y-48567569D01*
X49190874Y-48410000D01*
X48779126Y-48410000D01*
X48398720Y-48567569D01*
X48362500Y-48603789D01*
X48301280Y-48542569D01*
X47920874Y-48385000D01*
X47509126Y-48385000D01*
X47128720Y-48542569D01*
X46837569Y-48833720D01*
X46680000Y-49214126D01*
X41119645Y-49214126D01*
X40972431Y-48858720D01*
X40681280Y-48567569D01*
X40300874Y-48410000D01*
X39889126Y-48410000D01*
X39508720Y-48567569D01*
X39217569Y-48858720D01*
X39060000Y-49239126D01*
X38834585Y-49239126D01*
X38997431Y-49076280D01*
X39155000Y-48695874D01*
X39155000Y-48284126D01*
X38997431Y-47903720D01*
X38706280Y-47612569D01*
X38325874Y-47455000D01*
X37914126Y-47455000D01*
X37533720Y-47612569D01*
X37242569Y-47903720D01*
X37085000Y-48284126D01*
X17157787Y-48284126D01*
X17102799Y-48229138D01*
X16465113Y-47965000D01*
X15774887Y-47965000D01*
X15137201Y-48229138D01*
X14649138Y-48717201D01*
X14385000Y-49354887D01*
X5855000Y-49354887D01*
X5590862Y-48717201D01*
X5102799Y-48229138D01*
X4465113Y-47965000D01*
X3774887Y-47965000D01*
X3137201Y-48229138D01*
X2649138Y-48717201D01*
X2385000Y-49354887D01*
X127000Y-49354887D01*
X127000Y-45786892D01*
X3200000Y-45786892D01*
X3200000Y-46113108D01*
X3324837Y-46414493D01*
X3555507Y-46645163D01*
X3856892Y-46770000D01*
X4183108Y-46770000D01*
X4484493Y-46645163D01*
X4605117Y-46524539D01*
X4600000Y-46536892D01*
X4600000Y-46863108D01*
X4724837Y-47164493D01*
X4955507Y-47395163D01*
X5256892Y-47520000D01*
X5583108Y-47520000D01*
X5884493Y-47395163D01*
X6115163Y-47164493D01*
X6240000Y-46863108D01*
X6240000Y-46536892D01*
X6115163Y-46235507D01*
X5884493Y-46004837D01*
X5583108Y-45880000D01*
X5256892Y-45880000D01*
X4955507Y-46004837D01*
X4834883Y-46125461D01*
X4840000Y-46113108D01*
X4840000Y-46013501D01*
X4941348Y-46006232D01*
X5133575Y-45926609D01*
X5130182Y-45786892D01*
X7000000Y-45786892D01*
X7000000Y-46113108D01*
X7124837Y-46414493D01*
X7355507Y-46645163D01*
X7656892Y-46770000D01*
X7983108Y-46770000D01*
X8284493Y-46645163D01*
X8405117Y-46524539D01*
X8400000Y-46536892D01*
X8400000Y-46863108D01*
X8524837Y-47164493D01*
X8755507Y-47395163D01*
X9056892Y-47520000D01*
X9383108Y-47520000D01*
X9684493Y-47395163D01*
X9915163Y-47164493D01*
X10040000Y-46863108D01*
X10040000Y-46536892D01*
X9915163Y-46235507D01*
X9684493Y-46004837D01*
X9383108Y-45880000D01*
X9056892Y-45880000D01*
X8755507Y-46004837D01*
X8634883Y-46125461D01*
X8640000Y-46113108D01*
X8640000Y-46013501D01*
X8741348Y-46006232D01*
X8933575Y-45926609D01*
X8929039Y-45739854D01*
X8520000Y-45330815D01*
X8481463Y-45369353D01*
X8350648Y-45238538D01*
X8389185Y-45200000D01*
X7980146Y-44790961D01*
X7793391Y-44786425D01*
X7690432Y-45095968D01*
X7692873Y-45130000D01*
X7656892Y-45130000D01*
X7355507Y-45254837D01*
X7124837Y-45485507D01*
X7000000Y-45786892D01*
X5130182Y-45786892D01*
X5129039Y-45739854D01*
X4720000Y-45330815D01*
X4681463Y-45369353D01*
X4550648Y-45238538D01*
X4589185Y-45200000D01*
X4180146Y-44790961D01*
X3993391Y-44786425D01*
X3890432Y-45095968D01*
X3892873Y-45130000D01*
X3856892Y-45130000D01*
X3555507Y-45254837D01*
X3324837Y-45485507D01*
X3200000Y-45786892D01*
X127000Y-45786892D01*
X127000Y-43536892D01*
X3200000Y-43536892D01*
X3200000Y-43863108D01*
X3324837Y-44164493D01*
X3555507Y-44395163D01*
X3856892Y-44520000D01*
X4183108Y-44520000D01*
X4484493Y-44395163D01*
X4605117Y-44274539D01*
X4600000Y-44286892D01*
X4600000Y-44386499D01*
X4498652Y-44393768D01*
X4306425Y-44473391D01*
X4310961Y-44660146D01*
X4720000Y-45069185D01*
X4758538Y-45030648D01*
X4889353Y-45161463D01*
X4850815Y-45200000D01*
X5259854Y-45609039D01*
X5446609Y-45613575D01*
X5549568Y-45304032D01*
X5547127Y-45270000D01*
X5583108Y-45270000D01*
X5884493Y-45145163D01*
X6115163Y-44914493D01*
X6240000Y-44613108D01*
X6240000Y-44286892D01*
X6115163Y-43985507D01*
X5884493Y-43754837D01*
X5583108Y-43630000D01*
X5256892Y-43630000D01*
X4955507Y-43754837D01*
X4834883Y-43875461D01*
X4840000Y-43863108D01*
X4840000Y-43763501D01*
X4941348Y-43756232D01*
X5133575Y-43676609D01*
X5130182Y-43536892D01*
X7000000Y-43536892D01*
X7000000Y-43863108D01*
X7124837Y-44164493D01*
X7355507Y-44395163D01*
X7656892Y-44520000D01*
X7983108Y-44520000D01*
X8284493Y-44395163D01*
X8405117Y-44274539D01*
X8400000Y-44286892D01*
X8400000Y-44386499D01*
X8298652Y-44393768D01*
X8106425Y-44473391D01*
X8110961Y-44660146D01*
X8520000Y-45069185D01*
X8558538Y-45030648D01*
X8689353Y-45161463D01*
X8650815Y-45200000D01*
X9059854Y-45609039D01*
X9246609Y-45613575D01*
X9349568Y-45304032D01*
X9347127Y-45270000D01*
X9383108Y-45270000D01*
X9684493Y-45145163D01*
X9915163Y-44914493D01*
X10040000Y-44613108D01*
X10040000Y-44286892D01*
X9915163Y-43985507D01*
X9684493Y-43754837D01*
X9383108Y-43630000D01*
X9056892Y-43630000D01*
X8755507Y-43754837D01*
X8634883Y-43875461D01*
X8640000Y-43863108D01*
X8640000Y-43763501D01*
X8741348Y-43756232D01*
X8933575Y-43676609D01*
X8929039Y-43489854D01*
X8520000Y-43080815D01*
X8481463Y-43119353D01*
X8350648Y-42988538D01*
X8389185Y-42950000D01*
X7980146Y-42540961D01*
X7793391Y-42536425D01*
X7690432Y-42845968D01*
X7692873Y-42880000D01*
X7656892Y-42880000D01*
X7355507Y-43004837D01*
X7124837Y-43235507D01*
X7000000Y-43536892D01*
X5130182Y-43536892D01*
X5129039Y-43489854D01*
X4720000Y-43080815D01*
X4681463Y-43119353D01*
X4550648Y-42988538D01*
X4589185Y-42950000D01*
X4180146Y-42540961D01*
X3993391Y-42536425D01*
X3890432Y-42845968D01*
X3892873Y-42880000D01*
X3856892Y-42880000D01*
X3555507Y-43004837D01*
X3324837Y-43235507D01*
X3200000Y-43536892D01*
X127000Y-43536892D01*
X127000Y-41286892D01*
X3200000Y-41286892D01*
X3200000Y-41613108D01*
X3324837Y-41914493D01*
X3555507Y-42145163D01*
X3856892Y-42270000D01*
X4183108Y-42270000D01*
X4484493Y-42145163D01*
X4605117Y-42024539D01*
X4600000Y-42036892D01*
X4600000Y-42136499D01*
X4498652Y-42143768D01*
X4306425Y-42223391D01*
X4310961Y-42410146D01*
X4720000Y-42819185D01*
X4758538Y-42780648D01*
X4889353Y-42911463D01*
X4850815Y-42950000D01*
X5259854Y-43359039D01*
X5446609Y-43363575D01*
X5549568Y-43054032D01*
X5547127Y-43020000D01*
X5583108Y-43020000D01*
X5884493Y-42895163D01*
X6115163Y-42664493D01*
X6240000Y-42363108D01*
X6240000Y-42036892D01*
X6115163Y-41735507D01*
X5884493Y-41504837D01*
X5583108Y-41380000D01*
X5256892Y-41380000D01*
X4955507Y-41504837D01*
X4834883Y-41625461D01*
X4840000Y-41613108D01*
X4840000Y-41513501D01*
X4941348Y-41506232D01*
X5133575Y-41426609D01*
X5130182Y-41286892D01*
X7000000Y-41286892D01*
X7000000Y-41613108D01*
X7124837Y-41914493D01*
X7355507Y-42145163D01*
X7656892Y-42270000D01*
X7983108Y-42270000D01*
X8284493Y-42145163D01*
X8405117Y-42024539D01*
X8400000Y-42036892D01*
X8400000Y-42136499D01*
X8298652Y-42143768D01*
X8106425Y-42223391D01*
X8110961Y-42410146D01*
X8520000Y-42819185D01*
X8558538Y-42780648D01*
X8689353Y-42911463D01*
X8650815Y-42950000D01*
X9059854Y-43359039D01*
X9246609Y-43363575D01*
X9349568Y-43054032D01*
X9347127Y-43020000D01*
X9383108Y-43020000D01*
X9684493Y-42895163D01*
X9915163Y-42664493D01*
X10040000Y-42363108D01*
X10040000Y-42036892D01*
X9915163Y-41735507D01*
X9684493Y-41504837D01*
X9383108Y-41380000D01*
X9056892Y-41380000D01*
X8755507Y-41504837D01*
X8634883Y-41625461D01*
X8640000Y-41613108D01*
X8640000Y-41513501D01*
X8741348Y-41506232D01*
X8933575Y-41426609D01*
X8930182Y-41286892D01*
X10800000Y-41286892D01*
X10800000Y-41613108D01*
X10924837Y-41914493D01*
X11155507Y-42145163D01*
X11456892Y-42270000D01*
X11783108Y-42270000D01*
X11988317Y-42185000D01*
X11999109Y-42185000D01*
X11906425Y-42223391D01*
X11910961Y-42410146D01*
X12320000Y-42819185D01*
X12358538Y-42780648D01*
X12489353Y-42911463D01*
X12450815Y-42950000D01*
X12859854Y-43359039D01*
X13046609Y-43363575D01*
X13149568Y-43054032D01*
X13147127Y-43020000D01*
X13183108Y-43020000D01*
X13484493Y-42895163D01*
X13715163Y-42664493D01*
X13840000Y-42363108D01*
X13840000Y-42036892D01*
X13825576Y-42002069D01*
X14641893Y-41185753D01*
X14600000Y-41286892D01*
X14600000Y-41613108D01*
X14724837Y-41914493D01*
X14955507Y-42145163D01*
X15256892Y-42270000D01*
X15583108Y-42270000D01*
X15788317Y-42185000D01*
X15799109Y-42185000D01*
X15706425Y-42223391D01*
X15710961Y-42410146D01*
X16120000Y-42819185D01*
X16158538Y-42780648D01*
X16289353Y-42911463D01*
X16250815Y-42950000D01*
X16265815Y-42965000D01*
X15974185Y-42965000D01*
X15989185Y-42950000D01*
X15580146Y-42540961D01*
X15393391Y-42536425D01*
X15290432Y-42845968D01*
X15292873Y-42880000D01*
X15256892Y-42880000D01*
X14955507Y-43004837D01*
X14724837Y-43235507D01*
X14600000Y-43536892D01*
X14600000Y-43863108D01*
X14724837Y-44164493D01*
X14955507Y-44395163D01*
X15256892Y-44520000D01*
X15583108Y-44520000D01*
X15788317Y-44435000D01*
X15799109Y-44435000D01*
X15706425Y-44473391D01*
X15710961Y-44660146D01*
X16108959Y-45058144D01*
X16036011Y-45072654D01*
X15931603Y-45142418D01*
X15580146Y-44790961D01*
X15393391Y-44786425D01*
X15290432Y-45095968D01*
X15292873Y-45130000D01*
X15256892Y-45130000D01*
X14955507Y-45254837D01*
X14903094Y-45307250D01*
X13809782Y-44213939D01*
X13715163Y-43985507D01*
X13484493Y-43754837D01*
X13183108Y-43630000D01*
X12856892Y-43630000D01*
X12667779Y-43708333D01*
X12664618Y-43705172D01*
X12733575Y-43676609D01*
X12729039Y-43489854D01*
X12320000Y-43080815D01*
X12281463Y-43119353D01*
X12150648Y-42988538D01*
X12189185Y-42950000D01*
X11780146Y-42540961D01*
X11593391Y-42536425D01*
X11490432Y-42845968D01*
X11492873Y-42880000D01*
X11456892Y-42880000D01*
X11155507Y-43004837D01*
X10924837Y-43235507D01*
X10800000Y-43536892D01*
X10800000Y-43863108D01*
X10924837Y-44164493D01*
X11155507Y-44395163D01*
X11360717Y-44480163D01*
X11668810Y-44788257D01*
X11593391Y-44786425D01*
X11490432Y-45095968D01*
X11492873Y-45130000D01*
X11456892Y-45130000D01*
X11155507Y-45254837D01*
X10924837Y-45485507D01*
X10800000Y-45786892D01*
X10800000Y-46113108D01*
X10924837Y-46414493D01*
X11155507Y-46645163D01*
X11456892Y-46770000D01*
X11783108Y-46770000D01*
X12084493Y-46645163D01*
X12205117Y-46524539D01*
X12200000Y-46536892D01*
X12200000Y-46863108D01*
X12324837Y-47164493D01*
X12555507Y-47395163D01*
X12856892Y-47520000D01*
X13183108Y-47520000D01*
X13484493Y-47395163D01*
X13715163Y-47164493D01*
X13811783Y-46931230D01*
X14234082Y-47353529D01*
X14275087Y-47414897D01*
X14518209Y-47577346D01*
X14732604Y-47619992D01*
X14804992Y-47634391D01*
X14877380Y-47619992D01*
X15766809Y-47619992D01*
X15839193Y-47634390D01*
X15911577Y-47619992D01*
X15911581Y-47619992D01*
X16125976Y-47577346D01*
X16369098Y-47414897D01*
X16376479Y-47403850D01*
X16656892Y-47520000D01*
X16983108Y-47520000D01*
X17284493Y-47395163D01*
X17296586Y-47383070D01*
X17305001Y-47384744D01*
X17377389Y-47370345D01*
X36430471Y-47370345D01*
X36502855Y-47384743D01*
X36575239Y-47370345D01*
X36575243Y-47370345D01*
X36789638Y-47327699D01*
X37032760Y-47165250D01*
X37073766Y-47103880D01*
X40002541Y-44175105D01*
X59430000Y-44175105D01*
X59430000Y-44944895D01*
X59724586Y-45656090D01*
X60268910Y-46200414D01*
X60980105Y-46495000D01*
X61749895Y-46495000D01*
X62461090Y-46200414D01*
X63005414Y-45656090D01*
X63300000Y-44944895D01*
X63300000Y-44175105D01*
X63005414Y-43463910D01*
X62461090Y-42919586D01*
X61749895Y-42625000D01*
X60980105Y-42625000D01*
X60268910Y-42919586D01*
X59724586Y-43463910D01*
X59430000Y-44175105D01*
X40002541Y-44175105D01*
X42704309Y-41473337D01*
X42764420Y-41533448D01*
X43144826Y-41691017D01*
X43556574Y-41691017D01*
X43936980Y-41533448D01*
X44228131Y-41242297D01*
X44360317Y-40923170D01*
X44679444Y-40790984D01*
X44715700Y-40754728D01*
X44715700Y-40861891D01*
X44873269Y-41242297D01*
X45164420Y-41533448D01*
X45544826Y-41691017D01*
X45956574Y-41691017D01*
X46336980Y-41533448D01*
X46628131Y-41242297D01*
X46760317Y-40923170D01*
X47079444Y-40790984D01*
X47370595Y-40499833D01*
X47485289Y-40222936D01*
X48386907Y-41124554D01*
X48427912Y-41185922D01*
X48671034Y-41348371D01*
X48885429Y-41391017D01*
X48885432Y-41391017D01*
X48957816Y-41405415D01*
X49030200Y-41391017D01*
X49764453Y-41391017D01*
X49906884Y-41533448D01*
X50287290Y-41691017D01*
X50699038Y-41691017D01*
X51079444Y-41533448D01*
X51370595Y-41242297D01*
X51528164Y-40861891D01*
X51528164Y-40754728D01*
X51564420Y-40790984D01*
X51883547Y-40923170D01*
X52015733Y-41242297D01*
X52306884Y-41533448D01*
X52687290Y-41691017D01*
X53099038Y-41691017D01*
X53479444Y-41533448D01*
X53656564Y-41356328D01*
X53830956Y-41391017D01*
X53830960Y-41391017D01*
X53903344Y-41405415D01*
X53975728Y-41391017D01*
X54564453Y-41391017D01*
X54706884Y-41533448D01*
X55087290Y-41691017D01*
X55499038Y-41691017D01*
X55879444Y-41533448D01*
X56170595Y-41242297D01*
X56328164Y-40861891D01*
X56328164Y-40450143D01*
X56170595Y-40069737D01*
X55879444Y-39778586D01*
X55560317Y-39646400D01*
X55428131Y-39327273D01*
X55136980Y-39036122D01*
X54756574Y-38878553D01*
X54344826Y-38878553D01*
X53964420Y-39036122D01*
X53961858Y-39038684D01*
X51729638Y-36806465D01*
X51688632Y-36745095D01*
X51445510Y-36582646D01*
X51231115Y-36540000D01*
X51231111Y-36540000D01*
X51158727Y-36525602D01*
X51086343Y-36540000D01*
X25299188Y-36540000D01*
X25226800Y-36525601D01*
X25154412Y-36540000D01*
X24940017Y-36582646D01*
X24696895Y-36745095D01*
X24655891Y-36806463D01*
X22522354Y-38940000D01*
X17333661Y-38940000D01*
X17590862Y-38682799D01*
X17855000Y-38045113D01*
X17855000Y-37354887D01*
X17590862Y-36717201D01*
X17102799Y-36229138D01*
X16465113Y-35965000D01*
X15774887Y-35965000D01*
X15137201Y-36229138D01*
X14649138Y-36717201D01*
X14385000Y-37354887D01*
X14385000Y-38045113D01*
X14649138Y-38682799D01*
X14906339Y-38940000D01*
X14549184Y-38940000D01*
X14476800Y-38925602D01*
X14404416Y-38940000D01*
X14404413Y-38940000D01*
X14190018Y-38982646D01*
X13946896Y-39145095D01*
X13905891Y-39206463D01*
X12397355Y-40715000D01*
X12174185Y-40715000D01*
X12189185Y-40700000D01*
X11780146Y-40290961D01*
X11593391Y-40286425D01*
X11490432Y-40595968D01*
X11492873Y-40630000D01*
X11456892Y-40630000D01*
X11155507Y-40754837D01*
X10924837Y-40985507D01*
X10800000Y-41286892D01*
X8930182Y-41286892D01*
X8929039Y-41239854D01*
X8520000Y-40830815D01*
X8481463Y-40869353D01*
X8350648Y-40738538D01*
X8389185Y-40700000D01*
X8650815Y-40700000D01*
X9059854Y-41109039D01*
X9246609Y-41113575D01*
X9349568Y-40804032D01*
X9326232Y-40478652D01*
X9246609Y-40286425D01*
X9059854Y-40290961D01*
X8650815Y-40700000D01*
X8389185Y-40700000D01*
X7980146Y-40290961D01*
X7793391Y-40286425D01*
X7690432Y-40595968D01*
X7692873Y-40630000D01*
X7656892Y-40630000D01*
X7355507Y-40754837D01*
X7124837Y-40985507D01*
X7000000Y-41286892D01*
X5130182Y-41286892D01*
X5129039Y-41239854D01*
X4720000Y-40830815D01*
X4681463Y-40869353D01*
X4550648Y-40738538D01*
X4589185Y-40700000D01*
X4850815Y-40700000D01*
X5259854Y-41109039D01*
X5446609Y-41113575D01*
X5549568Y-40804032D01*
X5526232Y-40478652D01*
X5446609Y-40286425D01*
X5259854Y-40290961D01*
X4850815Y-40700000D01*
X4589185Y-40700000D01*
X4180146Y-40290961D01*
X3993391Y-40286425D01*
X3890432Y-40595968D01*
X3892873Y-40630000D01*
X3856892Y-40630000D01*
X3555507Y-40754837D01*
X3324837Y-40985507D01*
X3200000Y-41286892D01*
X127000Y-41286892D01*
X127000Y-39973391D01*
X4306425Y-39973391D01*
X4310961Y-40160146D01*
X4720000Y-40569185D01*
X5129039Y-40160146D01*
X5133575Y-39973391D01*
X8106425Y-39973391D01*
X8110961Y-40160146D01*
X8520000Y-40569185D01*
X8929039Y-40160146D01*
X8933575Y-39973391D01*
X11906425Y-39973391D01*
X11910961Y-40160146D01*
X12320000Y-40569185D01*
X12729039Y-40160146D01*
X12733575Y-39973391D01*
X12424032Y-39870432D01*
X12098652Y-39893768D01*
X11906425Y-39973391D01*
X8933575Y-39973391D01*
X8624032Y-39870432D01*
X8298652Y-39893768D01*
X8106425Y-39973391D01*
X5133575Y-39973391D01*
X4824032Y-39870432D01*
X4498652Y-39893768D01*
X4306425Y-39973391D01*
X127000Y-39973391D01*
X127000Y-37354887D01*
X2385000Y-37354887D01*
X2385000Y-38045113D01*
X2649138Y-38682799D01*
X3137201Y-39170862D01*
X3774887Y-39435000D01*
X4465113Y-39435000D01*
X5102799Y-39170862D01*
X5590862Y-38682799D01*
X5855000Y-38045113D01*
X5855000Y-37354887D01*
X5590862Y-36717201D01*
X5102799Y-36229138D01*
X4465113Y-35965000D01*
X3774887Y-35965000D01*
X3137201Y-36229138D01*
X2649138Y-36717201D01*
X2385000Y-37354887D01*
X127000Y-37354887D01*
X127000Y-33354887D01*
X2385000Y-33354887D01*
X2385000Y-34045113D01*
X2649138Y-34682799D01*
X3137201Y-35170862D01*
X3774887Y-35435000D01*
X4465113Y-35435000D01*
X5102799Y-35170862D01*
X5590862Y-34682799D01*
X5855000Y-34045113D01*
X5855000Y-33354887D01*
X14385000Y-33354887D01*
X14385000Y-34045113D01*
X14649138Y-34682799D01*
X15137201Y-35170862D01*
X15774887Y-35435000D01*
X16465113Y-35435000D01*
X17102799Y-35170862D01*
X17590862Y-34682799D01*
X17855000Y-34045113D01*
X17855000Y-33354887D01*
X17590862Y-32717201D01*
X17157787Y-32284126D01*
X37085000Y-32284126D01*
X37085000Y-32695874D01*
X37242569Y-33076280D01*
X37533720Y-33367431D01*
X37914126Y-33525000D01*
X38325874Y-33525000D01*
X38706280Y-33367431D01*
X38834585Y-33239126D01*
X39060000Y-33239126D01*
X39060000Y-33650874D01*
X39217569Y-34031280D01*
X39508720Y-34322431D01*
X39889126Y-34480000D01*
X40300874Y-34480000D01*
X40681280Y-34322431D01*
X40972431Y-34031280D01*
X41130000Y-33650874D01*
X41130000Y-33239126D01*
X41119645Y-33214126D01*
X46680000Y-33214126D01*
X46680000Y-33625874D01*
X46837569Y-34006280D01*
X47128720Y-34297431D01*
X47509126Y-34455000D01*
X47920874Y-34455000D01*
X48301280Y-34297431D01*
X48337500Y-34261211D01*
X48398720Y-34322431D01*
X48779126Y-34480000D01*
X49190874Y-34480000D01*
X49571280Y-34322431D01*
X49620000Y-34273711D01*
X49668720Y-34322431D01*
X50049126Y-34480000D01*
X50460874Y-34480000D01*
X50841280Y-34322431D01*
X51132431Y-34031280D01*
X51290000Y-33650874D01*
X51290000Y-33239126D01*
X54275000Y-33239126D01*
X54275000Y-33650874D01*
X54432569Y-34031280D01*
X54723720Y-34322431D01*
X55104126Y-34480000D01*
X55515874Y-34480000D01*
X55896280Y-34322431D01*
X55945000Y-34273711D01*
X55993720Y-34322431D01*
X56374126Y-34480000D01*
X56785874Y-34480000D01*
X57166280Y-34322431D01*
X57227500Y-34261211D01*
X57288720Y-34322431D01*
X57669126Y-34480000D01*
X58080874Y-34480000D01*
X58461280Y-34322431D01*
X58752431Y-34031280D01*
X58910000Y-33650874D01*
X58910000Y-33239126D01*
X58752431Y-32858720D01*
X58461280Y-32567569D01*
X58080874Y-32410000D01*
X57669126Y-32410000D01*
X57288720Y-32567569D01*
X57227500Y-32628789D01*
X57166280Y-32567569D01*
X56785874Y-32410000D01*
X56374126Y-32410000D01*
X55993720Y-32567569D01*
X55945000Y-32616289D01*
X55896280Y-32567569D01*
X55515874Y-32410000D01*
X55104126Y-32410000D01*
X54723720Y-32567569D01*
X54432569Y-32858720D01*
X54275000Y-33239126D01*
X51290000Y-33239126D01*
X51132431Y-32858720D01*
X50841280Y-32567569D01*
X50460874Y-32410000D01*
X50049126Y-32410000D01*
X49668720Y-32567569D01*
X49620000Y-32616289D01*
X49571280Y-32567569D01*
X49190874Y-32410000D01*
X48779126Y-32410000D01*
X48398720Y-32567569D01*
X48362500Y-32603789D01*
X48301280Y-32542569D01*
X47920874Y-32385000D01*
X47509126Y-32385000D01*
X47128720Y-32542569D01*
X46837569Y-32833720D01*
X46680000Y-33214126D01*
X41119645Y-33214126D01*
X40972431Y-32858720D01*
X40681280Y-32567569D01*
X40300874Y-32410000D01*
X39889126Y-32410000D01*
X39508720Y-32567569D01*
X39217569Y-32858720D01*
X39060000Y-33239126D01*
X38834585Y-33239126D01*
X38997431Y-33076280D01*
X39155000Y-32695874D01*
X39155000Y-32284126D01*
X38997431Y-31903720D01*
X38706280Y-31612569D01*
X38325874Y-31455000D01*
X37914126Y-31455000D01*
X37533720Y-31612569D01*
X37242569Y-31903720D01*
X37085000Y-32284126D01*
X17157787Y-32284126D01*
X17102799Y-32229138D01*
X16465113Y-31965000D01*
X15774887Y-31965000D01*
X15137201Y-32229138D01*
X14649138Y-32717201D01*
X14385000Y-33354887D01*
X5855000Y-33354887D01*
X5590862Y-32717201D01*
X5102799Y-32229138D01*
X4465113Y-31965000D01*
X3774887Y-31965000D01*
X3137201Y-32229138D01*
X2649138Y-32717201D01*
X2385000Y-33354887D01*
X127000Y-33354887D01*
X127000Y-29786892D01*
X3200000Y-29786892D01*
X3200000Y-30113108D01*
X3324837Y-30414493D01*
X3555507Y-30645163D01*
X3856892Y-30770000D01*
X4183108Y-30770000D01*
X4484493Y-30645163D01*
X4605117Y-30524539D01*
X4600000Y-30536892D01*
X4600000Y-30863108D01*
X4724837Y-31164493D01*
X4955507Y-31395163D01*
X5256892Y-31520000D01*
X5583108Y-31520000D01*
X5884493Y-31395163D01*
X6115163Y-31164493D01*
X6240000Y-30863108D01*
X6240000Y-30536892D01*
X6115163Y-30235507D01*
X5884493Y-30004837D01*
X5583108Y-29880000D01*
X5256892Y-29880000D01*
X4955507Y-30004837D01*
X4834883Y-30125461D01*
X4840000Y-30113108D01*
X4840000Y-30013501D01*
X4941348Y-30006232D01*
X5133575Y-29926609D01*
X5130182Y-29786892D01*
X7000000Y-29786892D01*
X7000000Y-30113108D01*
X7124837Y-30414493D01*
X7355507Y-30645163D01*
X7656892Y-30770000D01*
X7983108Y-30770000D01*
X8284493Y-30645163D01*
X8405117Y-30524539D01*
X8400000Y-30536892D01*
X8400000Y-30863108D01*
X8524837Y-31164493D01*
X8755507Y-31395163D01*
X9056892Y-31520000D01*
X9383108Y-31520000D01*
X9684493Y-31395163D01*
X9915163Y-31164493D01*
X10040000Y-30863108D01*
X10040000Y-30536892D01*
X9915163Y-30235507D01*
X9684493Y-30004837D01*
X9383108Y-29880000D01*
X9056892Y-29880000D01*
X8755507Y-30004837D01*
X8634883Y-30125461D01*
X8640000Y-30113108D01*
X8640000Y-30013501D01*
X8741348Y-30006232D01*
X8933575Y-29926609D01*
X8929039Y-29739854D01*
X8520000Y-29330815D01*
X8481463Y-29369353D01*
X8350648Y-29238538D01*
X8389185Y-29200000D01*
X7980146Y-28790961D01*
X7793391Y-28786425D01*
X7690432Y-29095968D01*
X7692873Y-29130000D01*
X7656892Y-29130000D01*
X7355507Y-29254837D01*
X7124837Y-29485507D01*
X7000000Y-29786892D01*
X5130182Y-29786892D01*
X5129039Y-29739854D01*
X4720000Y-29330815D01*
X4681463Y-29369353D01*
X4550648Y-29238538D01*
X4589185Y-29200000D01*
X4180146Y-28790961D01*
X3993391Y-28786425D01*
X3890432Y-29095968D01*
X3892873Y-29130000D01*
X3856892Y-29130000D01*
X3555507Y-29254837D01*
X3324837Y-29485507D01*
X3200000Y-29786892D01*
X127000Y-29786892D01*
X127000Y-27536892D01*
X3200000Y-27536892D01*
X3200000Y-27863108D01*
X3324837Y-28164493D01*
X3555507Y-28395163D01*
X3856892Y-28520000D01*
X4183108Y-28520000D01*
X4484493Y-28395163D01*
X4605117Y-28274539D01*
X4600000Y-28286892D01*
X4600000Y-28386499D01*
X4498652Y-28393768D01*
X4306425Y-28473391D01*
X4310961Y-28660146D01*
X4720000Y-29069185D01*
X4758538Y-29030648D01*
X4889353Y-29161463D01*
X4850815Y-29200000D01*
X5259854Y-29609039D01*
X5446609Y-29613575D01*
X5549568Y-29304032D01*
X5547127Y-29270000D01*
X5583108Y-29270000D01*
X5884493Y-29145163D01*
X6115163Y-28914493D01*
X6240000Y-28613108D01*
X6240000Y-28286892D01*
X6115163Y-27985507D01*
X5884493Y-27754837D01*
X5583108Y-27630000D01*
X5256892Y-27630000D01*
X4955507Y-27754837D01*
X4834883Y-27875461D01*
X4840000Y-27863108D01*
X4840000Y-27763501D01*
X4941348Y-27756232D01*
X5133575Y-27676609D01*
X5130182Y-27536892D01*
X7000000Y-27536892D01*
X7000000Y-27863108D01*
X7124837Y-28164493D01*
X7355507Y-28395163D01*
X7656892Y-28520000D01*
X7983108Y-28520000D01*
X8284493Y-28395163D01*
X8405117Y-28274539D01*
X8400000Y-28286892D01*
X8400000Y-28386499D01*
X8298652Y-28393768D01*
X8106425Y-28473391D01*
X8110961Y-28660146D01*
X8520000Y-29069185D01*
X8558538Y-29030648D01*
X8689353Y-29161463D01*
X8650815Y-29200000D01*
X9059854Y-29609039D01*
X9246609Y-29613575D01*
X9349568Y-29304032D01*
X9347127Y-29270000D01*
X9383108Y-29270000D01*
X9684493Y-29145163D01*
X9915163Y-28914493D01*
X10040000Y-28613108D01*
X10040000Y-28286892D01*
X9915163Y-27985507D01*
X9684493Y-27754837D01*
X9383108Y-27630000D01*
X9056892Y-27630000D01*
X8755507Y-27754837D01*
X8634883Y-27875461D01*
X8640000Y-27863108D01*
X8640000Y-27763501D01*
X8741348Y-27756232D01*
X8933575Y-27676609D01*
X8929039Y-27489854D01*
X8520000Y-27080815D01*
X8481463Y-27119353D01*
X8350648Y-26988538D01*
X8389185Y-26950000D01*
X7980146Y-26540961D01*
X7793391Y-26536425D01*
X7690432Y-26845968D01*
X7692873Y-26880000D01*
X7656892Y-26880000D01*
X7355507Y-27004837D01*
X7124837Y-27235507D01*
X7000000Y-27536892D01*
X5130182Y-27536892D01*
X5129039Y-27489854D01*
X4720000Y-27080815D01*
X4681463Y-27119353D01*
X4550648Y-26988538D01*
X4589185Y-26950000D01*
X4180146Y-26540961D01*
X3993391Y-26536425D01*
X3890432Y-26845968D01*
X3892873Y-26880000D01*
X3856892Y-26880000D01*
X3555507Y-27004837D01*
X3324837Y-27235507D01*
X3200000Y-27536892D01*
X127000Y-27536892D01*
X127000Y-25286892D01*
X3200000Y-25286892D01*
X3200000Y-25613108D01*
X3324837Y-25914493D01*
X3555507Y-26145163D01*
X3856892Y-26270000D01*
X4183108Y-26270000D01*
X4484493Y-26145163D01*
X4605117Y-26024539D01*
X4600000Y-26036892D01*
X4600000Y-26136499D01*
X4498652Y-26143768D01*
X4306425Y-26223391D01*
X4310961Y-26410146D01*
X4720000Y-26819185D01*
X4758538Y-26780648D01*
X4889353Y-26911463D01*
X4850815Y-26950000D01*
X5259854Y-27359039D01*
X5446609Y-27363575D01*
X5549568Y-27054032D01*
X5547127Y-27020000D01*
X5583108Y-27020000D01*
X5884493Y-26895163D01*
X6115163Y-26664493D01*
X6240000Y-26363108D01*
X6240000Y-26036892D01*
X6115163Y-25735507D01*
X5884493Y-25504837D01*
X5583108Y-25380000D01*
X5256892Y-25380000D01*
X4955507Y-25504837D01*
X4834883Y-25625461D01*
X4840000Y-25613108D01*
X4840000Y-25513501D01*
X4941348Y-25506232D01*
X5133575Y-25426609D01*
X5130182Y-25286892D01*
X7000000Y-25286892D01*
X7000000Y-25613108D01*
X7124837Y-25914493D01*
X7355507Y-26145163D01*
X7656892Y-26270000D01*
X7983108Y-26270000D01*
X8284493Y-26145163D01*
X8405117Y-26024539D01*
X8400000Y-26036892D01*
X8400000Y-26136499D01*
X8298652Y-26143768D01*
X8106425Y-26223391D01*
X8110961Y-26410146D01*
X8520000Y-26819185D01*
X8558538Y-26780648D01*
X8689353Y-26911463D01*
X8650815Y-26950000D01*
X9059854Y-27359039D01*
X9246609Y-27363575D01*
X9349568Y-27054032D01*
X9347127Y-27020000D01*
X9383108Y-27020000D01*
X9684493Y-26895163D01*
X9915163Y-26664493D01*
X10040000Y-26363108D01*
X10040000Y-26036892D01*
X9915163Y-25735507D01*
X9684493Y-25504837D01*
X9383108Y-25380000D01*
X9056892Y-25380000D01*
X8755507Y-25504837D01*
X8634883Y-25625461D01*
X8640000Y-25613108D01*
X8640000Y-25513501D01*
X8741348Y-25506232D01*
X8933575Y-25426609D01*
X8930182Y-25286892D01*
X10800000Y-25286892D01*
X10800000Y-25613108D01*
X10924837Y-25914493D01*
X11155507Y-26145163D01*
X11456892Y-26270000D01*
X11783108Y-26270000D01*
X11988317Y-26185000D01*
X11999109Y-26185000D01*
X11906425Y-26223391D01*
X11910961Y-26410146D01*
X12320000Y-26819185D01*
X12358538Y-26780648D01*
X12489353Y-26911463D01*
X12450815Y-26950000D01*
X12859854Y-27359039D01*
X13046609Y-27363575D01*
X13149568Y-27054032D01*
X13147127Y-27020000D01*
X13183108Y-27020000D01*
X13484493Y-26895163D01*
X13715163Y-26664493D01*
X13840000Y-26363108D01*
X13840000Y-26036892D01*
X13825576Y-26002069D01*
X14641893Y-25185753D01*
X14600000Y-25286892D01*
X14600000Y-25613108D01*
X14724837Y-25914493D01*
X14955507Y-26145163D01*
X15256892Y-26270000D01*
X15583108Y-26270000D01*
X15788317Y-26185000D01*
X15799109Y-26185000D01*
X15706425Y-26223391D01*
X15710961Y-26410146D01*
X16120000Y-26819185D01*
X16158538Y-26780648D01*
X16289353Y-26911463D01*
X16250815Y-26950000D01*
X16265815Y-26965000D01*
X15974185Y-26965000D01*
X15989185Y-26950000D01*
X15580146Y-26540961D01*
X15393391Y-26536425D01*
X15290432Y-26845968D01*
X15292873Y-26880000D01*
X15256892Y-26880000D01*
X14955507Y-27004837D01*
X14724837Y-27235507D01*
X14600000Y-27536892D01*
X14600000Y-27863108D01*
X14724837Y-28164493D01*
X14955507Y-28395163D01*
X15256892Y-28520000D01*
X15583108Y-28520000D01*
X15788317Y-28435000D01*
X15799109Y-28435000D01*
X15706425Y-28473391D01*
X15710961Y-28660146D01*
X16108959Y-29058144D01*
X16036011Y-29072654D01*
X15931603Y-29142418D01*
X15580146Y-28790961D01*
X15393391Y-28786425D01*
X15290432Y-29095968D01*
X15292873Y-29130000D01*
X15256892Y-29130000D01*
X14955507Y-29254837D01*
X14903094Y-29307250D01*
X13809782Y-28213939D01*
X13715163Y-27985507D01*
X13484493Y-27754837D01*
X13183108Y-27630000D01*
X12856892Y-27630000D01*
X12667779Y-27708333D01*
X12664618Y-27705172D01*
X12733575Y-27676609D01*
X12729039Y-27489854D01*
X12320000Y-27080815D01*
X12281463Y-27119353D01*
X12150648Y-26988538D01*
X12189185Y-26950000D01*
X11780146Y-26540961D01*
X11593391Y-26536425D01*
X11490432Y-26845968D01*
X11492873Y-26880000D01*
X11456892Y-26880000D01*
X11155507Y-27004837D01*
X10924837Y-27235507D01*
X10800000Y-27536892D01*
X10800000Y-27863108D01*
X10924837Y-28164493D01*
X11155507Y-28395163D01*
X11360717Y-28480163D01*
X11668810Y-28788257D01*
X11593391Y-28786425D01*
X11490432Y-29095968D01*
X11492873Y-29130000D01*
X11456892Y-29130000D01*
X11155507Y-29254837D01*
X10924837Y-29485507D01*
X10800000Y-29786892D01*
X10800000Y-30113108D01*
X10924837Y-30414493D01*
X11155507Y-30645163D01*
X11456892Y-30770000D01*
X11783108Y-30770000D01*
X12084493Y-30645163D01*
X12205117Y-30524539D01*
X12200000Y-30536892D01*
X12200000Y-30863108D01*
X12324837Y-31164493D01*
X12555507Y-31395163D01*
X12856892Y-31520000D01*
X13183108Y-31520000D01*
X13484493Y-31395163D01*
X13715163Y-31164493D01*
X13811783Y-30931230D01*
X14234082Y-31353529D01*
X14275087Y-31414897D01*
X14518209Y-31577346D01*
X14732604Y-31619992D01*
X14804992Y-31634391D01*
X14877380Y-31619992D01*
X15766809Y-31619992D01*
X15839193Y-31634390D01*
X15911577Y-31619992D01*
X15911581Y-31619992D01*
X16125976Y-31577346D01*
X16369098Y-31414897D01*
X16376479Y-31403850D01*
X16656892Y-31520000D01*
X16983108Y-31520000D01*
X17284493Y-31395163D01*
X17296586Y-31383070D01*
X17305001Y-31384744D01*
X17377389Y-31370345D01*
X36430471Y-31370345D01*
X36502855Y-31384743D01*
X36575239Y-31370345D01*
X36575243Y-31370345D01*
X36789638Y-31327699D01*
X37032760Y-31165250D01*
X37073766Y-31103880D01*
X40002541Y-28175105D01*
X59430000Y-28175105D01*
X59430000Y-28944895D01*
X59724586Y-29656090D01*
X60268910Y-30200414D01*
X60980105Y-30495000D01*
X61749895Y-30495000D01*
X62461090Y-30200414D01*
X63005414Y-29656090D01*
X63300000Y-28944895D01*
X63300000Y-28175105D01*
X63005414Y-27463910D01*
X62461090Y-26919586D01*
X61749895Y-26625000D01*
X60980105Y-26625000D01*
X60268910Y-26919586D01*
X59724586Y-27463910D01*
X59430000Y-28175105D01*
X40002541Y-28175105D01*
X42704309Y-25473337D01*
X42764420Y-25533448D01*
X43144826Y-25691017D01*
X43556574Y-25691017D01*
X43936980Y-25533448D01*
X44228131Y-25242297D01*
X44360317Y-24923170D01*
X44679444Y-24790984D01*
X44715700Y-24754728D01*
X44715700Y-24861891D01*
X44873269Y-25242297D01*
X45164420Y-25533448D01*
X45544826Y-25691017D01*
X45956574Y-25691017D01*
X46336980Y-25533448D01*
X46628131Y-25242297D01*
X46760317Y-24923170D01*
X47079444Y-24790984D01*
X47370595Y-24499833D01*
X47485289Y-24222936D01*
X48386907Y-25124554D01*
X48427912Y-25185922D01*
X48671034Y-25348371D01*
X48885429Y-25391017D01*
X48885432Y-25391017D01*
X48957816Y-25405415D01*
X49030200Y-25391017D01*
X49764453Y-25391017D01*
X49906884Y-25533448D01*
X50287290Y-25691017D01*
X50699038Y-25691017D01*
X51079444Y-25533448D01*
X51370595Y-25242297D01*
X51528164Y-24861891D01*
X51528164Y-24754728D01*
X51564420Y-24790984D01*
X51883547Y-24923170D01*
X52015733Y-25242297D01*
X52306884Y-25533448D01*
X52687290Y-25691017D01*
X53099038Y-25691017D01*
X53479444Y-25533448D01*
X53656564Y-25356328D01*
X53830956Y-25391017D01*
X53830960Y-25391017D01*
X53903344Y-25405415D01*
X53975728Y-25391017D01*
X54564453Y-25391017D01*
X54706884Y-25533448D01*
X55087290Y-25691017D01*
X55499038Y-25691017D01*
X55879444Y-25533448D01*
X56170595Y-25242297D01*
X56328164Y-24861891D01*
X56328164Y-24450143D01*
X56170595Y-24069737D01*
X55879444Y-23778586D01*
X55560317Y-23646400D01*
X55428131Y-23327273D01*
X55136980Y-23036122D01*
X54756574Y-22878553D01*
X54344826Y-22878553D01*
X53964420Y-23036122D01*
X53961858Y-23038684D01*
X51729638Y-20806465D01*
X51688632Y-20745095D01*
X51445510Y-20582646D01*
X51231115Y-20540000D01*
X51231111Y-20540000D01*
X51158727Y-20525602D01*
X51086343Y-20540000D01*
X25299188Y-20540000D01*
X25226800Y-20525601D01*
X25154412Y-20540000D01*
X24940017Y-20582646D01*
X24696895Y-20745095D01*
X24655891Y-20806463D01*
X22522354Y-22940000D01*
X17333661Y-22940000D01*
X17590862Y-22682799D01*
X17855000Y-22045113D01*
X17855000Y-21354887D01*
X17590862Y-20717201D01*
X17102799Y-20229138D01*
X16465113Y-19965000D01*
X15774887Y-19965000D01*
X15137201Y-20229138D01*
X14649138Y-20717201D01*
X14385000Y-21354887D01*
X14385000Y-22045113D01*
X14649138Y-22682799D01*
X14906339Y-22940000D01*
X14549184Y-22940000D01*
X14476800Y-22925602D01*
X14404416Y-22940000D01*
X14404413Y-22940000D01*
X14190018Y-22982646D01*
X13946896Y-23145095D01*
X13905891Y-23206463D01*
X12397355Y-24715000D01*
X12174185Y-24715000D01*
X12189185Y-24700000D01*
X11780146Y-24290961D01*
X11593391Y-24286425D01*
X11490432Y-24595968D01*
X11492873Y-24630000D01*
X11456892Y-24630000D01*
X11155507Y-24754837D01*
X10924837Y-24985507D01*
X10800000Y-25286892D01*
X8930182Y-25286892D01*
X8929039Y-25239854D01*
X8520000Y-24830815D01*
X8481463Y-24869353D01*
X8350648Y-24738538D01*
X8389185Y-24700000D01*
X8650815Y-24700000D01*
X9059854Y-25109039D01*
X9246609Y-25113575D01*
X9349568Y-24804032D01*
X9326232Y-24478652D01*
X9246609Y-24286425D01*
X9059854Y-24290961D01*
X8650815Y-24700000D01*
X8389185Y-24700000D01*
X7980146Y-24290961D01*
X7793391Y-24286425D01*
X7690432Y-24595968D01*
X7692873Y-24630000D01*
X7656892Y-24630000D01*
X7355507Y-24754837D01*
X7124837Y-24985507D01*
X7000000Y-25286892D01*
X5130182Y-25286892D01*
X5129039Y-25239854D01*
X4720000Y-24830815D01*
X4681463Y-24869353D01*
X4550648Y-24738538D01*
X4589185Y-24700000D01*
X4850815Y-24700000D01*
X5259854Y-25109039D01*
X5446609Y-25113575D01*
X5549568Y-24804032D01*
X5526232Y-24478652D01*
X5446609Y-24286425D01*
X5259854Y-24290961D01*
X4850815Y-24700000D01*
X4589185Y-24700000D01*
X4180146Y-24290961D01*
X3993391Y-24286425D01*
X3890432Y-24595968D01*
X3892873Y-24630000D01*
X3856892Y-24630000D01*
X3555507Y-24754837D01*
X3324837Y-24985507D01*
X3200000Y-25286892D01*
X127000Y-25286892D01*
X127000Y-23973391D01*
X4306425Y-23973391D01*
X4310961Y-24160146D01*
X4720000Y-24569185D01*
X5129039Y-24160146D01*
X5133575Y-23973391D01*
X8106425Y-23973391D01*
X8110961Y-24160146D01*
X8520000Y-24569185D01*
X8929039Y-24160146D01*
X8933575Y-23973391D01*
X11906425Y-23973391D01*
X11910961Y-24160146D01*
X12320000Y-24569185D01*
X12729039Y-24160146D01*
X12733575Y-23973391D01*
X12424032Y-23870432D01*
X12098652Y-23893768D01*
X11906425Y-23973391D01*
X8933575Y-23973391D01*
X8624032Y-23870432D01*
X8298652Y-23893768D01*
X8106425Y-23973391D01*
X5133575Y-23973391D01*
X4824032Y-23870432D01*
X4498652Y-23893768D01*
X4306425Y-23973391D01*
X127000Y-23973391D01*
X127000Y-21354887D01*
X2385000Y-21354887D01*
X2385000Y-22045113D01*
X2649138Y-22682799D01*
X3137201Y-23170862D01*
X3774887Y-23435000D01*
X4465113Y-23435000D01*
X5102799Y-23170862D01*
X5590862Y-22682799D01*
X5855000Y-22045113D01*
X5855000Y-21354887D01*
X5590862Y-20717201D01*
X5102799Y-20229138D01*
X4465113Y-19965000D01*
X3774887Y-19965000D01*
X3137201Y-20229138D01*
X2649138Y-20717201D01*
X2385000Y-21354887D01*
X127000Y-21354887D01*
X127000Y-17524137D01*
X286783Y-17492354D01*
X492516Y-17354887D01*
X2385000Y-17354887D01*
X2385000Y-18045113D01*
X2649138Y-18682799D01*
X3137201Y-19170862D01*
X3774887Y-19435000D01*
X4465113Y-19435000D01*
X5102799Y-19170862D01*
X5590862Y-18682799D01*
X5855000Y-18045113D01*
X5855000Y-17354887D01*
X14385000Y-17354887D01*
X14385000Y-18045113D01*
X14649138Y-18682799D01*
X15137201Y-19170862D01*
X15774887Y-19435000D01*
X16465113Y-19435000D01*
X17102799Y-19170862D01*
X17590862Y-18682799D01*
X17855000Y-18045113D01*
X17855000Y-17354887D01*
X17590862Y-16717201D01*
X17157787Y-16284126D01*
X37085000Y-16284126D01*
X37085000Y-16695874D01*
X37242569Y-17076280D01*
X37533720Y-17367431D01*
X37914126Y-17525000D01*
X38325874Y-17525000D01*
X38706280Y-17367431D01*
X38834585Y-17239126D01*
X39060000Y-17239126D01*
X39060000Y-17650874D01*
X39217569Y-18031280D01*
X39508720Y-18322431D01*
X39889126Y-18480000D01*
X40300874Y-18480000D01*
X40681280Y-18322431D01*
X40972431Y-18031280D01*
X41130000Y-17650874D01*
X41130000Y-17239126D01*
X41119645Y-17214126D01*
X46680000Y-17214126D01*
X46680000Y-17625874D01*
X46837569Y-18006280D01*
X47128720Y-18297431D01*
X47509126Y-18455000D01*
X47920874Y-18455000D01*
X48301280Y-18297431D01*
X48337500Y-18261211D01*
X48398720Y-18322431D01*
X48779126Y-18480000D01*
X49190874Y-18480000D01*
X49571280Y-18322431D01*
X49620000Y-18273711D01*
X49668720Y-18322431D01*
X50049126Y-18480000D01*
X50460874Y-18480000D01*
X50841280Y-18322431D01*
X51132431Y-18031280D01*
X51290000Y-17650874D01*
X51290000Y-17239126D01*
X54275000Y-17239126D01*
X54275000Y-17650874D01*
X54432569Y-18031280D01*
X54723720Y-18322431D01*
X55104126Y-18480000D01*
X55515874Y-18480000D01*
X55896280Y-18322431D01*
X55945000Y-18273711D01*
X55993720Y-18322431D01*
X56374126Y-18480000D01*
X56785874Y-18480000D01*
X57166280Y-18322431D01*
X57227500Y-18261211D01*
X57288720Y-18322431D01*
X57669126Y-18480000D01*
X58080874Y-18480000D01*
X58461280Y-18322431D01*
X58752431Y-18031280D01*
X58910000Y-17650874D01*
X58910000Y-17239126D01*
X58752431Y-16858720D01*
X58461280Y-16567569D01*
X58080874Y-16410000D01*
X57669126Y-16410000D01*
X57288720Y-16567569D01*
X57227500Y-16628789D01*
X57166280Y-16567569D01*
X56785874Y-16410000D01*
X56374126Y-16410000D01*
X55993720Y-16567569D01*
X55945000Y-16616289D01*
X55896280Y-16567569D01*
X55515874Y-16410000D01*
X55104126Y-16410000D01*
X54723720Y-16567569D01*
X54432569Y-16858720D01*
X54275000Y-17239126D01*
X51290000Y-17239126D01*
X51132431Y-16858720D01*
X50841280Y-16567569D01*
X50460874Y-16410000D01*
X50049126Y-16410000D01*
X49668720Y-16567569D01*
X49620000Y-16616289D01*
X49571280Y-16567569D01*
X49190874Y-16410000D01*
X48779126Y-16410000D01*
X48398720Y-16567569D01*
X48362500Y-16603789D01*
X48301280Y-16542569D01*
X47920874Y-16385000D01*
X47509126Y-16385000D01*
X47128720Y-16542569D01*
X46837569Y-16833720D01*
X46680000Y-17214126D01*
X41119645Y-17214126D01*
X40972431Y-16858720D01*
X40681280Y-16567569D01*
X40300874Y-16410000D01*
X39889126Y-16410000D01*
X39508720Y-16567569D01*
X39217569Y-16858720D01*
X39060000Y-17239126D01*
X38834585Y-17239126D01*
X38997431Y-17076280D01*
X39155000Y-16695874D01*
X39155000Y-16284126D01*
X38997431Y-15903720D01*
X38706280Y-15612569D01*
X38325874Y-15455000D01*
X37914126Y-15455000D01*
X37533720Y-15612569D01*
X37242569Y-15903720D01*
X37085000Y-16284126D01*
X17157787Y-16284126D01*
X17102799Y-16229138D01*
X16465113Y-15965000D01*
X15774887Y-15965000D01*
X15137201Y-16229138D01*
X14649138Y-16717201D01*
X14385000Y-17354887D01*
X5855000Y-17354887D01*
X5590862Y-16717201D01*
X5102799Y-16229138D01*
X4465113Y-15965000D01*
X3774887Y-15965000D01*
X3137201Y-16229138D01*
X2649138Y-16717201D01*
X2385000Y-17354887D01*
X492516Y-17354887D01*
X529905Y-17329905D01*
X692354Y-17086783D01*
X749399Y-16800000D01*
X735000Y-16727612D01*
X735000Y-13786892D01*
X3200000Y-13786892D01*
X3200000Y-14113108D01*
X3324837Y-14414493D01*
X3555507Y-14645163D01*
X3856892Y-14770000D01*
X4183108Y-14770000D01*
X4484493Y-14645163D01*
X4605117Y-14524539D01*
X4600000Y-14536892D01*
X4600000Y-14863108D01*
X4724837Y-15164493D01*
X4955507Y-15395163D01*
X5256892Y-15520000D01*
X5583108Y-15520000D01*
X5884493Y-15395163D01*
X6115163Y-15164493D01*
X6240000Y-14863108D01*
X6240000Y-14536892D01*
X6115163Y-14235507D01*
X5884493Y-14004837D01*
X5583108Y-13880000D01*
X5256892Y-13880000D01*
X4955507Y-14004837D01*
X4834883Y-14125461D01*
X4840000Y-14113108D01*
X4840000Y-14013501D01*
X4941348Y-14006232D01*
X5133575Y-13926609D01*
X5130182Y-13786892D01*
X7000000Y-13786892D01*
X7000000Y-14113108D01*
X7124837Y-14414493D01*
X7355507Y-14645163D01*
X7656892Y-14770000D01*
X7983108Y-14770000D01*
X8284493Y-14645163D01*
X8405117Y-14524539D01*
X8400000Y-14536892D01*
X8400000Y-14863108D01*
X8524837Y-15164493D01*
X8755507Y-15395163D01*
X9056892Y-15520000D01*
X9383108Y-15520000D01*
X9684493Y-15395163D01*
X9915163Y-15164493D01*
X10040000Y-14863108D01*
X10040000Y-14536892D01*
X9915163Y-14235507D01*
X9684493Y-14004837D01*
X9383108Y-13880000D01*
X9056892Y-13880000D01*
X8755507Y-14004837D01*
X8634883Y-14125461D01*
X8640000Y-14113108D01*
X8640000Y-14013501D01*
X8741348Y-14006232D01*
X8933575Y-13926609D01*
X8929039Y-13739854D01*
X8520000Y-13330815D01*
X8481463Y-13369353D01*
X8350648Y-13238538D01*
X8389185Y-13200000D01*
X7980146Y-12790961D01*
X7793391Y-12786425D01*
X7690432Y-13095968D01*
X7692873Y-13130000D01*
X7656892Y-13130000D01*
X7355507Y-13254837D01*
X7124837Y-13485507D01*
X7000000Y-13786892D01*
X5130182Y-13786892D01*
X5129039Y-13739854D01*
X4720000Y-13330815D01*
X4681463Y-13369353D01*
X4550648Y-13238538D01*
X4589185Y-13200000D01*
X4180146Y-12790961D01*
X3993391Y-12786425D01*
X3890432Y-13095968D01*
X3892873Y-13130000D01*
X3856892Y-13130000D01*
X3555507Y-13254837D01*
X3324837Y-13485507D01*
X3200000Y-13786892D01*
X735000Y-13786892D01*
X735000Y-11536892D01*
X3200000Y-11536892D01*
X3200000Y-11863108D01*
X3324837Y-12164493D01*
X3555507Y-12395163D01*
X3856892Y-12520000D01*
X4183108Y-12520000D01*
X4484493Y-12395163D01*
X4605117Y-12274539D01*
X4600000Y-12286892D01*
X4600000Y-12386499D01*
X4498652Y-12393768D01*
X4306425Y-12473391D01*
X4310961Y-12660146D01*
X4720000Y-13069185D01*
X4758538Y-13030648D01*
X4889353Y-13161463D01*
X4850815Y-13200000D01*
X5259854Y-13609039D01*
X5446609Y-13613575D01*
X5549568Y-13304032D01*
X5547127Y-13270000D01*
X5583108Y-13270000D01*
X5884493Y-13145163D01*
X6115163Y-12914493D01*
X6240000Y-12613108D01*
X6240000Y-12286892D01*
X6115163Y-11985507D01*
X5884493Y-11754837D01*
X5583108Y-11630000D01*
X5256892Y-11630000D01*
X4955507Y-11754837D01*
X4834883Y-11875461D01*
X4840000Y-11863108D01*
X4840000Y-11763501D01*
X4941348Y-11756232D01*
X5133575Y-11676609D01*
X5130182Y-11536892D01*
X7000000Y-11536892D01*
X7000000Y-11863108D01*
X7124837Y-12164493D01*
X7355507Y-12395163D01*
X7656892Y-12520000D01*
X7983108Y-12520000D01*
X8284493Y-12395163D01*
X8405117Y-12274539D01*
X8400000Y-12286892D01*
X8400000Y-12386499D01*
X8298652Y-12393768D01*
X8106425Y-12473391D01*
X8110961Y-12660146D01*
X8520000Y-13069185D01*
X8558538Y-13030648D01*
X8689353Y-13161463D01*
X8650815Y-13200000D01*
X9059854Y-13609039D01*
X9246609Y-13613575D01*
X9349568Y-13304032D01*
X9347127Y-13270000D01*
X9383108Y-13270000D01*
X9684493Y-13145163D01*
X9915163Y-12914493D01*
X10040000Y-12613108D01*
X10040000Y-12286892D01*
X9915163Y-11985507D01*
X9684493Y-11754837D01*
X9383108Y-11630000D01*
X9056892Y-11630000D01*
X8755507Y-11754837D01*
X8634883Y-11875461D01*
X8640000Y-11863108D01*
X8640000Y-11763501D01*
X8741348Y-11756232D01*
X8933575Y-11676609D01*
X8929039Y-11489854D01*
X8520000Y-11080815D01*
X8481463Y-11119353D01*
X8350648Y-10988538D01*
X8389185Y-10950000D01*
X7980146Y-10540961D01*
X7793391Y-10536425D01*
X7690432Y-10845968D01*
X7692873Y-10880000D01*
X7656892Y-10880000D01*
X7355507Y-11004837D01*
X7124837Y-11235507D01*
X7000000Y-11536892D01*
X5130182Y-11536892D01*
X5129039Y-11489854D01*
X4720000Y-11080815D01*
X4681463Y-11119353D01*
X4550648Y-10988538D01*
X4589185Y-10950000D01*
X4180146Y-10540961D01*
X3993391Y-10536425D01*
X3890432Y-10845968D01*
X3892873Y-10880000D01*
X3856892Y-10880000D01*
X3555507Y-11004837D01*
X3324837Y-11235507D01*
X3200000Y-11536892D01*
X735000Y-11536892D01*
X735000Y-9286892D01*
X3200000Y-9286892D01*
X3200000Y-9613108D01*
X3324837Y-9914493D01*
X3555507Y-10145163D01*
X3856892Y-10270000D01*
X4183108Y-10270000D01*
X4484493Y-10145163D01*
X4605117Y-10024539D01*
X4600000Y-10036892D01*
X4600000Y-10136499D01*
X4498652Y-10143768D01*
X4306425Y-10223391D01*
X4310961Y-10410146D01*
X4720000Y-10819185D01*
X4758538Y-10780648D01*
X4889353Y-10911463D01*
X4850815Y-10950000D01*
X5259854Y-11359039D01*
X5446609Y-11363575D01*
X5549568Y-11054032D01*
X5547127Y-11020000D01*
X5583108Y-11020000D01*
X5884493Y-10895163D01*
X6115163Y-10664493D01*
X6240000Y-10363108D01*
X6240000Y-10036892D01*
X6115163Y-9735507D01*
X5884493Y-9504837D01*
X5583108Y-9380000D01*
X5256892Y-9380000D01*
X4955507Y-9504837D01*
X4834883Y-9625461D01*
X4840000Y-9613108D01*
X4840000Y-9513501D01*
X4941348Y-9506232D01*
X5133575Y-9426609D01*
X5130182Y-9286892D01*
X7000000Y-9286892D01*
X7000000Y-9613108D01*
X7124837Y-9914493D01*
X7355507Y-10145163D01*
X7656892Y-10270000D01*
X7983108Y-10270000D01*
X8284493Y-10145163D01*
X8405117Y-10024539D01*
X8400000Y-10036892D01*
X8400000Y-10136499D01*
X8298652Y-10143768D01*
X8106425Y-10223391D01*
X8110961Y-10410146D01*
X8520000Y-10819185D01*
X8558538Y-10780648D01*
X8689353Y-10911463D01*
X8650815Y-10950000D01*
X9059854Y-11359039D01*
X9246609Y-11363575D01*
X9349568Y-11054032D01*
X9347127Y-11020000D01*
X9383108Y-11020000D01*
X9684493Y-10895163D01*
X9915163Y-10664493D01*
X10040000Y-10363108D01*
X10040000Y-10036892D01*
X9915163Y-9735507D01*
X9684493Y-9504837D01*
X9383108Y-9380000D01*
X9056892Y-9380000D01*
X8755507Y-9504837D01*
X8634883Y-9625461D01*
X8640000Y-9613108D01*
X8640000Y-9513501D01*
X8741348Y-9506232D01*
X8933575Y-9426609D01*
X8930182Y-9286892D01*
X10800000Y-9286892D01*
X10800000Y-9613108D01*
X10924837Y-9914493D01*
X11155507Y-10145163D01*
X11456892Y-10270000D01*
X11783108Y-10270000D01*
X11988317Y-10185000D01*
X11999109Y-10185000D01*
X11906425Y-10223391D01*
X11910961Y-10410146D01*
X12320000Y-10819185D01*
X12358538Y-10780648D01*
X12489353Y-10911463D01*
X12450815Y-10950000D01*
X12859854Y-11359039D01*
X13046609Y-11363575D01*
X13149568Y-11054032D01*
X13147127Y-11020000D01*
X13183108Y-11020000D01*
X13484493Y-10895163D01*
X13715163Y-10664493D01*
X13840000Y-10363108D01*
X13840000Y-10036892D01*
X13825576Y-10002069D01*
X14641893Y-9185753D01*
X14600000Y-9286892D01*
X14600000Y-9613108D01*
X14724837Y-9914493D01*
X14955507Y-10145163D01*
X15256892Y-10270000D01*
X15583108Y-10270000D01*
X15788317Y-10185000D01*
X15799109Y-10185000D01*
X15706425Y-10223391D01*
X15710961Y-10410146D01*
X16120000Y-10819185D01*
X16158538Y-10780648D01*
X16289353Y-10911463D01*
X16250815Y-10950000D01*
X16265815Y-10965000D01*
X15974185Y-10965000D01*
X15989185Y-10950000D01*
X15580146Y-10540961D01*
X15393391Y-10536425D01*
X15290432Y-10845968D01*
X15292873Y-10880000D01*
X15256892Y-10880000D01*
X14955507Y-11004837D01*
X14724837Y-11235507D01*
X14600000Y-11536892D01*
X14600000Y-11863108D01*
X14724837Y-12164493D01*
X14955507Y-12395163D01*
X15256892Y-12520000D01*
X15583108Y-12520000D01*
X15788317Y-12435000D01*
X15799109Y-12435000D01*
X15706425Y-12473391D01*
X15710961Y-12660146D01*
X16108959Y-13058144D01*
X16036011Y-13072654D01*
X15931603Y-13142418D01*
X15580146Y-12790961D01*
X15393391Y-12786425D01*
X15290432Y-13095968D01*
X15292873Y-13130000D01*
X15256892Y-13130000D01*
X14955507Y-13254837D01*
X14903094Y-13307250D01*
X13809782Y-12213939D01*
X13715163Y-11985507D01*
X13484493Y-11754837D01*
X13183108Y-11630000D01*
X12856892Y-11630000D01*
X12667779Y-11708333D01*
X12664618Y-11705172D01*
X12733575Y-11676609D01*
X12729039Y-11489854D01*
X12320000Y-11080815D01*
X12281463Y-11119353D01*
X12150648Y-10988538D01*
X12189185Y-10950000D01*
X11780146Y-10540961D01*
X11593391Y-10536425D01*
X11490432Y-10845968D01*
X11492873Y-10880000D01*
X11456892Y-10880000D01*
X11155507Y-11004837D01*
X10924837Y-11235507D01*
X10800000Y-11536892D01*
X10800000Y-11863108D01*
X10924837Y-12164493D01*
X11155507Y-12395163D01*
X11360717Y-12480163D01*
X11668810Y-12788257D01*
X11593391Y-12786425D01*
X11490432Y-13095968D01*
X11492873Y-13130000D01*
X11456892Y-13130000D01*
X11155507Y-13254837D01*
X10924837Y-13485507D01*
X10800000Y-13786892D01*
X10800000Y-14113108D01*
X10924837Y-14414493D01*
X11155507Y-14645163D01*
X11456892Y-14770000D01*
X11783108Y-14770000D01*
X12084493Y-14645163D01*
X12205117Y-14524539D01*
X12200000Y-14536892D01*
X12200000Y-14863108D01*
X12324837Y-15164493D01*
X12555507Y-15395163D01*
X12856892Y-15520000D01*
X13183108Y-15520000D01*
X13484493Y-15395163D01*
X13715163Y-15164493D01*
X13811783Y-14931230D01*
X14234082Y-15353529D01*
X14275087Y-15414897D01*
X14518209Y-15577346D01*
X14732604Y-15619992D01*
X14804992Y-15634391D01*
X14877380Y-15619992D01*
X15766809Y-15619992D01*
X15839193Y-15634390D01*
X15911577Y-15619992D01*
X15911581Y-15619992D01*
X16125976Y-15577346D01*
X16369098Y-15414897D01*
X16376479Y-15403850D01*
X16656892Y-15520000D01*
X16983108Y-15520000D01*
X17284493Y-15395163D01*
X17296586Y-15383070D01*
X17305001Y-15384744D01*
X17377389Y-15370345D01*
X36430471Y-15370345D01*
X36502855Y-15384743D01*
X36575239Y-15370345D01*
X36575243Y-15370345D01*
X36789638Y-15327699D01*
X37032760Y-15165250D01*
X37073766Y-15103880D01*
X40002541Y-12175105D01*
X59430000Y-12175105D01*
X59430000Y-12944895D01*
X59724586Y-13656090D01*
X60268910Y-14200414D01*
X60980105Y-14495000D01*
X61749895Y-14495000D01*
X62461090Y-14200414D01*
X63005414Y-13656090D01*
X63300000Y-12944895D01*
X63300000Y-12175105D01*
X63005414Y-11463910D01*
X62461090Y-10919586D01*
X61749895Y-10625000D01*
X60980105Y-10625000D01*
X60268910Y-10919586D01*
X59724586Y-11463910D01*
X59430000Y-12175105D01*
X40002541Y-12175105D01*
X42704309Y-9473337D01*
X42764420Y-9533448D01*
X43144826Y-9691017D01*
X43556574Y-9691017D01*
X43936980Y-9533448D01*
X44228131Y-9242297D01*
X44360317Y-8923170D01*
X44679444Y-8790984D01*
X44715700Y-8754728D01*
X44715700Y-8861891D01*
X44873269Y-9242297D01*
X45164420Y-9533448D01*
X45544826Y-9691017D01*
X45956574Y-9691017D01*
X46336980Y-9533448D01*
X46628131Y-9242297D01*
X46760317Y-8923170D01*
X47079444Y-8790984D01*
X47370595Y-8499833D01*
X47485289Y-8222936D01*
X48386907Y-9124554D01*
X48427912Y-9185922D01*
X48671034Y-9348371D01*
X48885429Y-9391017D01*
X48885432Y-9391017D01*
X48957816Y-9405415D01*
X49030200Y-9391017D01*
X49764453Y-9391017D01*
X49906884Y-9533448D01*
X50287290Y-9691017D01*
X50699038Y-9691017D01*
X51079444Y-9533448D01*
X51370595Y-9242297D01*
X51528164Y-8861891D01*
X51528164Y-8754728D01*
X51564420Y-8790984D01*
X51883547Y-8923170D01*
X52015733Y-9242297D01*
X52306884Y-9533448D01*
X52687290Y-9691017D01*
X53099038Y-9691017D01*
X53479444Y-9533448D01*
X53656564Y-9356328D01*
X53830956Y-9391017D01*
X53830960Y-9391017D01*
X53903344Y-9405415D01*
X53975728Y-9391017D01*
X54564453Y-9391017D01*
X54706884Y-9533448D01*
X55087290Y-9691017D01*
X55499038Y-9691017D01*
X55879444Y-9533448D01*
X56170595Y-9242297D01*
X56328164Y-8861891D01*
X56328164Y-8450143D01*
X56170595Y-8069737D01*
X55879444Y-7778586D01*
X55560317Y-7646400D01*
X55428131Y-7327273D01*
X55136980Y-7036122D01*
X54756574Y-6878553D01*
X54344826Y-6878553D01*
X53964420Y-7036122D01*
X53961858Y-7038684D01*
X51729638Y-4806465D01*
X51688632Y-4745095D01*
X51445510Y-4582646D01*
X51231115Y-4540000D01*
X51231111Y-4540000D01*
X51158727Y-4525602D01*
X51086343Y-4540000D01*
X25299188Y-4540000D01*
X25226800Y-4525601D01*
X25154412Y-4540000D01*
X24940017Y-4582646D01*
X24696895Y-4745095D01*
X24655891Y-4806463D01*
X22522354Y-6940000D01*
X17333661Y-6940000D01*
X17590862Y-6682799D01*
X17855000Y-6045113D01*
X17855000Y-5354887D01*
X17590862Y-4717201D01*
X17102799Y-4229138D01*
X16465113Y-3965000D01*
X15774887Y-3965000D01*
X15137201Y-4229138D01*
X14649138Y-4717201D01*
X14385000Y-5354887D01*
X14385000Y-6045113D01*
X14649138Y-6682799D01*
X14906339Y-6940000D01*
X14549184Y-6940000D01*
X14476800Y-6925602D01*
X14404416Y-6940000D01*
X14404413Y-6940000D01*
X14190018Y-6982646D01*
X13946896Y-7145095D01*
X13905891Y-7206463D01*
X12397355Y-8715000D01*
X12174185Y-8715000D01*
X12189185Y-8700000D01*
X11780146Y-8290961D01*
X11593391Y-8286425D01*
X11490432Y-8595968D01*
X11492873Y-8630000D01*
X11456892Y-8630000D01*
X11155507Y-8754837D01*
X10924837Y-8985507D01*
X10800000Y-9286892D01*
X8930182Y-9286892D01*
X8929039Y-9239854D01*
X8520000Y-8830815D01*
X8481463Y-8869353D01*
X8350648Y-8738538D01*
X8389185Y-8700000D01*
X8650815Y-8700000D01*
X9059854Y-9109039D01*
X9246609Y-9113575D01*
X9349568Y-8804032D01*
X9326232Y-8478652D01*
X9246609Y-8286425D01*
X9059854Y-8290961D01*
X8650815Y-8700000D01*
X8389185Y-8700000D01*
X7980146Y-8290961D01*
X7793391Y-8286425D01*
X7690432Y-8595968D01*
X7692873Y-8630000D01*
X7656892Y-8630000D01*
X7355507Y-8754837D01*
X7124837Y-8985507D01*
X7000000Y-9286892D01*
X5130182Y-9286892D01*
X5129039Y-9239854D01*
X4720000Y-8830815D01*
X4681463Y-8869353D01*
X4550648Y-8738538D01*
X4589185Y-8700000D01*
X4850815Y-8700000D01*
X5259854Y-9109039D01*
X5446609Y-9113575D01*
X5549568Y-8804032D01*
X5526232Y-8478652D01*
X5446609Y-8286425D01*
X5259854Y-8290961D01*
X4850815Y-8700000D01*
X4589185Y-8700000D01*
X4180146Y-8290961D01*
X3993391Y-8286425D01*
X3890432Y-8595968D01*
X3892873Y-8630000D01*
X3856892Y-8630000D01*
X3555507Y-8754837D01*
X3324837Y-8985507D01*
X3200000Y-9286892D01*
X735000Y-9286892D01*
X735000Y-7973391D01*
X4306425Y-7973391D01*
X4310961Y-8160146D01*
X4720000Y-8569185D01*
X5129039Y-8160146D01*
X5133575Y-7973391D01*
X8106425Y-7973391D01*
X8110961Y-8160146D01*
X8520000Y-8569185D01*
X8929039Y-8160146D01*
X8933575Y-7973391D01*
X11906425Y-7973391D01*
X11910961Y-8160146D01*
X12320000Y-8569185D01*
X12729039Y-8160146D01*
X12733575Y-7973391D01*
X12424032Y-7870432D01*
X12098652Y-7893768D01*
X11906425Y-7973391D01*
X8933575Y-7973391D01*
X8624032Y-7870432D01*
X8298652Y-7893768D01*
X8106425Y-7973391D01*
X5133575Y-7973391D01*
X4824032Y-7870432D01*
X4498652Y-7893768D01*
X4306425Y-7973391D01*
X735000Y-7973391D01*
X735000Y-5354887D01*
X2385000Y-5354887D01*
X2385000Y-6045113D01*
X2649138Y-6682799D01*
X3137201Y-7170862D01*
X3774887Y-7435000D01*
X4465113Y-7435000D01*
X5102799Y-7170862D01*
X5590862Y-6682799D01*
X5855000Y-6045113D01*
X5855000Y-5354887D01*
X5590862Y-4717201D01*
X5102799Y-4229138D01*
X4465113Y-3965000D01*
X3774887Y-3965000D01*
X3137201Y-4229138D01*
X2649138Y-4717201D01*
X2385000Y-5354887D01*
X735000Y-5354887D01*
X735000Y-3241089D01*
X800751Y-2654908D01*
X981140Y-2136900D01*
X1271808Y-1671734D01*
X1658308Y-1282526D01*
X2121438Y-988614D01*
X2638164Y-804617D01*
X3221984Y-735000D01*
X70608911Y-735000D01*
X71195092Y-800751D01*
G36*
X16173246Y-61045356D02*
X16136524Y-61052661D01*
X16158538Y-61030648D01*
X16173246Y-61045356D01*
X16173246Y-61045356D01*
G37*
X16173246Y-61045356D02*
X16136524Y-61052661D01*
X16158538Y-61030648D01*
X16173246Y-61045356D01*
G36*
X16173246Y-45045356D02*
X16136524Y-45052661D01*
X16158538Y-45030648D01*
X16173246Y-45045356D01*
X16173246Y-45045356D01*
G37*
X16173246Y-45045356D02*
X16136524Y-45052661D01*
X16158538Y-45030648D01*
X16173246Y-45045356D01*
G36*
X16173246Y-29045356D02*
X16136524Y-29052661D01*
X16158538Y-29030648D01*
X16173246Y-29045356D01*
X16173246Y-29045356D01*
G37*
X16173246Y-29045356D02*
X16136524Y-29052661D01*
X16158538Y-29030648D01*
X16173246Y-29045356D01*
G36*
X16173246Y-13045356D02*
X16136524Y-13052661D01*
X16158538Y-13030648D01*
X16173246Y-13045356D01*
X16173246Y-13045356D01*
G37*
X16173246Y-13045356D02*
X16136524Y-13052661D01*
X16158538Y-13030648D01*
X16173246Y-13045356D01*
%TD*%
M02*
