M48
;DRILL file {KiCad 5.0.1-33cea8e~68~ubuntu18.10.1} date Thu Nov  1 12:10:29 2018
;FORMAT={-:-/ absolute / metric / decimal}
FMAT,2
METRIC,TZ
T1C0.100
%
G90
G05
M71
T1
X62.726Y-40.494
X62.726Y-56.494
X62.726Y-72.494
X62.726Y-88.494
X63.114Y-40.106
X63.114Y-56.106
X63.114Y-72.106
X63.114Y-88.106
X75.526Y-40.494
X75.526Y-56.494
X75.526Y-72.494
X75.526Y-88.494
X75.914Y-40.106
X75.914Y-56.106
X75.914Y-72.106
X75.914Y-88.106
X82.726Y-40.494
X82.726Y-56.494
X82.726Y-72.494
X82.726Y-88.494
X83.114Y-40.106
X83.114Y-56.106
X83.114Y-72.106
X83.114Y-88.106
T0
M30
