%TF.GenerationSoftware,KiCad,Pcbnew,5.0.2-bee76a0~70~ubuntu18.10.1*%
%TF.CreationDate,2019-01-08T09:40:25-07:00*%
%TF.ProjectId,thelio-io,7468656c-696f-42d6-996f-2e6b69636164,rev?*%
%TF.SameCoordinates,Original*%
%TF.FileFunction,Legend,Top*%
%TF.FilePolarity,Positive*%
%FSLAX46Y46*%
G04 Gerber Fmt 4.6, Leading zero omitted, Abs format (unit mm)*
G04 Created by KiCad (PCBNEW 5.0.2-bee76a0~70~ubuntu18.10.1) date Tue Jan  8 09:40:25 2019*
%MOMM*%
%LPD*%
G01*
G04 APERTURE LIST*
%ADD10C,0.200000*%
%ADD11C,0.150000*%
%ADD12C,0.120000*%
G04 APERTURE END LIST*
D10*
X77050000Y-53400000D02*
G75*
G02X75450000Y-55000000I-1600000J0D01*
G01*
X73850000Y-55000000D02*
X75450000Y-55000000D01*
X73850000Y-16800000D02*
X75450000Y-16800000D01*
X75450000Y-16800000D02*
G75*
G02X77050000Y-18400000I0J-1600000D01*
G01*
X77050000Y-18400000D02*
X77050000Y-53400000D01*
X-3200000Y-18400000D02*
G75*
G02X-1600000Y-16800000I1600000J0D01*
G01*
X-3200000Y-53400000D02*
X-3200000Y-18400000D01*
X-1600000Y-55000000D02*
G75*
G02X-3200000Y-53400000I0J1600000D01*
G01*
X0Y-55000000D02*
X-1600000Y-55000000D01*
X0Y-16800000D02*
X-1600000Y-16800000D01*
X0Y-55000000D02*
X0Y-68600000D01*
X0Y-16800000D02*
X0Y-3200000D01*
X73850000Y-55000000D02*
X73850000Y-68600000D01*
X73850000Y-16800000D02*
X73850000Y-3200000D01*
D11*
X73850000Y-68600000D02*
G75*
G02X70650000Y-71800000I-3200000J0D01*
G01*
D10*
X3200000Y-71800000D02*
G75*
G02X0Y-68600000I0J3200000D01*
G01*
X70650000Y-71800000D02*
X3200000Y-71800000D01*
X0Y-3200000D02*
G75*
G02X3200000Y0I3200000J0D01*
G01*
X70650000Y0D02*
G75*
G02X73850000Y-3200000I0J-3200000D01*
G01*
X3200000Y0D02*
X70650000Y0D01*
D12*
%TO.C,C1*%
X490000Y-41100279D02*
X490000Y-40774721D01*
X1510000Y-41100279D02*
X1510000Y-40774721D01*
%TO.C,C2*%
X1510000Y-37599721D02*
X1510000Y-37925279D01*
X490000Y-37599721D02*
X490000Y-37925279D01*
%TO.C,Y0*%
X7750000Y-42700000D02*
X7750000Y-36150000D01*
X3850000Y-42700000D02*
X7750000Y-42700000D01*
X3850000Y-36150000D02*
X3850000Y-42700000D01*
D11*
%TO.C,SATA3*%
X19115000Y-62825000D02*
X19115000Y-57110000D01*
X64835000Y-62825000D02*
X19115000Y-62825000D01*
X64835000Y-57110000D02*
X64835000Y-62825000D01*
X19115000Y-57110000D02*
X64835000Y-57110000D01*
%TO.C,SATA2*%
X19115000Y-46825000D02*
X19115000Y-41110000D01*
X64835000Y-46825000D02*
X19115000Y-46825000D01*
X64835000Y-41110000D02*
X64835000Y-46825000D01*
X19115000Y-41110000D02*
X64835000Y-41110000D01*
%TO.C,SATA1*%
X19115000Y-30825000D02*
X19115000Y-25110000D01*
X64835000Y-30825000D02*
X19115000Y-30825000D01*
X64835000Y-25110000D02*
X64835000Y-30825000D01*
X19115000Y-25110000D02*
X64835000Y-25110000D01*
%TO.C,SATA0*%
X19115000Y-14825000D02*
X19115000Y-9110000D01*
X64835000Y-14825000D02*
X19115000Y-14825000D01*
X64835000Y-9110000D02*
X64835000Y-14825000D01*
X19115000Y-9110000D02*
X64835000Y-9110000D01*
%TD*%
%TO.C,C1*%
X1357142Y-44341666D02*
X1404761Y-44389285D01*
X1452380Y-44532142D01*
X1452380Y-44627380D01*
X1404761Y-44770238D01*
X1309523Y-44865476D01*
X1214285Y-44913095D01*
X1023809Y-44960714D01*
X880952Y-44960714D01*
X690476Y-44913095D01*
X595238Y-44865476D01*
X500000Y-44770238D01*
X452380Y-44627380D01*
X452380Y-44532142D01*
X500000Y-44389285D01*
X547619Y-44341666D01*
X1452380Y-43389285D02*
X1452380Y-43960714D01*
X1452380Y-43675000D02*
X452380Y-43675000D01*
X595238Y-43770238D01*
X690476Y-43865476D01*
X738095Y-43960714D01*
%TO.C,C2*%
X1357142Y-34341666D02*
X1404761Y-34389285D01*
X1452380Y-34532142D01*
X1452380Y-34627380D01*
X1404761Y-34770238D01*
X1309523Y-34865476D01*
X1214285Y-34913095D01*
X1023809Y-34960714D01*
X880952Y-34960714D01*
X690476Y-34913095D01*
X595238Y-34865476D01*
X500000Y-34770238D01*
X452380Y-34627380D01*
X452380Y-34532142D01*
X500000Y-34389285D01*
X547619Y-34341666D01*
X547619Y-33960714D02*
X500000Y-33913095D01*
X452380Y-33817857D01*
X452380Y-33579761D01*
X500000Y-33484523D01*
X547619Y-33436904D01*
X642857Y-33389285D01*
X738095Y-33389285D01*
X880952Y-33436904D01*
X1452380Y-34008333D01*
X1452380Y-33389285D01*
%TO.C,Y0*%
X5323809Y-35096190D02*
X5323809Y-35572380D01*
X4990476Y-34572380D02*
X5323809Y-35096190D01*
X5657142Y-34572380D01*
X6180952Y-34572380D02*
X6276190Y-34572380D01*
X6371428Y-34620000D01*
X6419047Y-34667619D01*
X6466666Y-34762857D01*
X6514285Y-34953333D01*
X6514285Y-35191428D01*
X6466666Y-35381904D01*
X6419047Y-35477142D01*
X6371428Y-35524761D01*
X6276190Y-35572380D01*
X6180952Y-35572380D01*
X6085714Y-35524761D01*
X6038095Y-35477142D01*
X5990476Y-35381904D01*
X5942857Y-35191428D01*
X5942857Y-34953333D01*
X5990476Y-34762857D01*
X6038095Y-34667619D01*
X6085714Y-34620000D01*
X6180952Y-34572380D01*
%TO.C,SATA3*%
X39975000Y-64229761D02*
X40117857Y-64277380D01*
X40355952Y-64277380D01*
X40451190Y-64229761D01*
X40498809Y-64182142D01*
X40546428Y-64086904D01*
X40546428Y-63991666D01*
X40498809Y-63896428D01*
X40451190Y-63848809D01*
X40355952Y-63801190D01*
X40165476Y-63753571D01*
X40070238Y-63705952D01*
X40022619Y-63658333D01*
X39975000Y-63563095D01*
X39975000Y-63467857D01*
X40022619Y-63372619D01*
X40070238Y-63325000D01*
X40165476Y-63277380D01*
X40403571Y-63277380D01*
X40546428Y-63325000D01*
X40927380Y-63991666D02*
X41403571Y-63991666D01*
X40832142Y-64277380D02*
X41165476Y-63277380D01*
X41498809Y-64277380D01*
X41689285Y-63277380D02*
X42260714Y-63277380D01*
X41975000Y-64277380D02*
X41975000Y-63277380D01*
X42546428Y-63991666D02*
X43022619Y-63991666D01*
X42451190Y-64277380D02*
X42784523Y-63277380D01*
X43117857Y-64277380D01*
X43355952Y-63277380D02*
X43975000Y-63277380D01*
X43641666Y-63658333D01*
X43784523Y-63658333D01*
X43879761Y-63705952D01*
X43927380Y-63753571D01*
X43975000Y-63848809D01*
X43975000Y-64086904D01*
X43927380Y-64182142D01*
X43879761Y-64229761D01*
X43784523Y-64277380D01*
X43498809Y-64277380D01*
X43403571Y-64229761D01*
X43355952Y-64182142D01*
%TO.C,SATA2*%
X39975000Y-48229761D02*
X40117857Y-48277380D01*
X40355952Y-48277380D01*
X40451190Y-48229761D01*
X40498809Y-48182142D01*
X40546428Y-48086904D01*
X40546428Y-47991666D01*
X40498809Y-47896428D01*
X40451190Y-47848809D01*
X40355952Y-47801190D01*
X40165476Y-47753571D01*
X40070238Y-47705952D01*
X40022619Y-47658333D01*
X39975000Y-47563095D01*
X39975000Y-47467857D01*
X40022619Y-47372619D01*
X40070238Y-47325000D01*
X40165476Y-47277380D01*
X40403571Y-47277380D01*
X40546428Y-47325000D01*
X40927380Y-47991666D02*
X41403571Y-47991666D01*
X40832142Y-48277380D02*
X41165476Y-47277380D01*
X41498809Y-48277380D01*
X41689285Y-47277380D02*
X42260714Y-47277380D01*
X41975000Y-48277380D02*
X41975000Y-47277380D01*
X42546428Y-47991666D02*
X43022619Y-47991666D01*
X42451190Y-48277380D02*
X42784523Y-47277380D01*
X43117857Y-48277380D01*
X43403571Y-47372619D02*
X43451190Y-47325000D01*
X43546428Y-47277380D01*
X43784523Y-47277380D01*
X43879761Y-47325000D01*
X43927380Y-47372619D01*
X43975000Y-47467857D01*
X43975000Y-47563095D01*
X43927380Y-47705952D01*
X43355952Y-48277380D01*
X43975000Y-48277380D01*
%TO.C,SATA1*%
X39975000Y-32229761D02*
X40117857Y-32277380D01*
X40355952Y-32277380D01*
X40451190Y-32229761D01*
X40498809Y-32182142D01*
X40546428Y-32086904D01*
X40546428Y-31991666D01*
X40498809Y-31896428D01*
X40451190Y-31848809D01*
X40355952Y-31801190D01*
X40165476Y-31753571D01*
X40070238Y-31705952D01*
X40022619Y-31658333D01*
X39975000Y-31563095D01*
X39975000Y-31467857D01*
X40022619Y-31372619D01*
X40070238Y-31325000D01*
X40165476Y-31277380D01*
X40403571Y-31277380D01*
X40546428Y-31325000D01*
X40927380Y-31991666D02*
X41403571Y-31991666D01*
X40832142Y-32277380D02*
X41165476Y-31277380D01*
X41498809Y-32277380D01*
X41689285Y-31277380D02*
X42260714Y-31277380D01*
X41975000Y-32277380D02*
X41975000Y-31277380D01*
X42546428Y-31991666D02*
X43022619Y-31991666D01*
X42451190Y-32277380D02*
X42784523Y-31277380D01*
X43117857Y-32277380D01*
X43975000Y-32277380D02*
X43403571Y-32277380D01*
X43689285Y-32277380D02*
X43689285Y-31277380D01*
X43594047Y-31420238D01*
X43498809Y-31515476D01*
X43403571Y-31563095D01*
%TO.C,SATA0*%
X39975000Y-16229761D02*
X40117857Y-16277380D01*
X40355952Y-16277380D01*
X40451190Y-16229761D01*
X40498809Y-16182142D01*
X40546428Y-16086904D01*
X40546428Y-15991666D01*
X40498809Y-15896428D01*
X40451190Y-15848809D01*
X40355952Y-15801190D01*
X40165476Y-15753571D01*
X40070238Y-15705952D01*
X40022619Y-15658333D01*
X39975000Y-15563095D01*
X39975000Y-15467857D01*
X40022619Y-15372619D01*
X40070238Y-15325000D01*
X40165476Y-15277380D01*
X40403571Y-15277380D01*
X40546428Y-15325000D01*
X40927380Y-15991666D02*
X41403571Y-15991666D01*
X40832142Y-16277380D02*
X41165476Y-15277380D01*
X41498809Y-16277380D01*
X41689285Y-15277380D02*
X42260714Y-15277380D01*
X41975000Y-16277380D02*
X41975000Y-15277380D01*
X42546428Y-15991666D02*
X43022619Y-15991666D01*
X42451190Y-16277380D02*
X42784523Y-15277380D01*
X43117857Y-16277380D01*
X43641666Y-15277380D02*
X43736904Y-15277380D01*
X43832142Y-15325000D01*
X43879761Y-15372619D01*
X43927380Y-15467857D01*
X43975000Y-15658333D01*
X43975000Y-15896428D01*
X43927380Y-16086904D01*
X43879761Y-16182142D01*
X43832142Y-16229761D01*
X43736904Y-16277380D01*
X43641666Y-16277380D01*
X43546428Y-16229761D01*
X43498809Y-16182142D01*
X43451190Y-16086904D01*
X43403571Y-15896428D01*
X43403571Y-15658333D01*
X43451190Y-15467857D01*
X43498809Y-15372619D01*
X43546428Y-15325000D01*
X43641666Y-15277380D01*
%TD*%
M02*
