%TF.GenerationSoftware,KiCad,Pcbnew,5.0.2-bee76a0~70~ubuntu18.10.1*%
%TF.CreationDate,2019-01-07T09:39:01-07:00*%
%TF.ProjectId,thelio-io,7468656c-696f-42d6-996f-2e6b69636164,rev?*%
%TF.SameCoordinates,Original*%
%TF.FileFunction,Legend,Bot*%
%TF.FilePolarity,Positive*%
%FSLAX46Y46*%
G04 Gerber Fmt 4.6, Leading zero omitted, Abs format (unit mm)*
G04 Created by KiCad (PCBNEW 5.0.2-bee76a0~70~ubuntu18.10.1) date Mon Jan  7 09:39:01 2019*
%MOMM*%
%LPD*%
G01*
G04 APERTURE LIST*
%ADD10C,0.200000*%
%ADD11C,0.150000*%
%ADD12C,0.120000*%
G04 APERTURE END LIST*
D10*
X77050000Y-53400000D02*
G75*
G02X75450000Y-55000000I-1600000J0D01*
G01*
X73850000Y-55000000D02*
X75450000Y-55000000D01*
X73850000Y-16800000D02*
X75450000Y-16800000D01*
X75450000Y-16800000D02*
G75*
G02X77050000Y-18400000I0J-1600000D01*
G01*
X77050000Y-18400000D02*
X77050000Y-53400000D01*
X-3200000Y-18400000D02*
G75*
G02X-1600000Y-16800000I1600000J0D01*
G01*
X-3200000Y-53400000D02*
X-3200000Y-18400000D01*
X-1600000Y-55000000D02*
G75*
G02X-3200000Y-53400000I0J1600000D01*
G01*
X0Y-55000000D02*
X-1600000Y-55000000D01*
X0Y-16800000D02*
X-1600000Y-16800000D01*
X0Y-55000000D02*
X0Y-68600000D01*
X0Y-16800000D02*
X0Y-3200000D01*
X73850000Y-55000000D02*
X73850000Y-68600000D01*
X73850000Y-16800000D02*
X73850000Y-3200000D01*
D11*
X73850000Y-68600000D02*
G75*
G02X70650000Y-71800000I-3200000J0D01*
G01*
D10*
X3200000Y-71800000D02*
G75*
G02X0Y-68600000I0J3200000D01*
G01*
X70650000Y-71800000D02*
X3200000Y-71800000D01*
X0Y-3200000D02*
G75*
G02X3200000Y0I3200000J0D01*
G01*
X70650000Y0D02*
G75*
G02X73850000Y-3200000I0J-3200000D01*
G01*
X3200000Y0D02*
X70650000Y0D01*
D12*
%TO.C,POWER0*%
X69710000Y-70490000D02*
X69710000Y-65490000D01*
X59710000Y-70490000D02*
X69710000Y-70490000D01*
X59710000Y-65490000D02*
X59710000Y-70490000D01*
X69710000Y-65490000D02*
X59710000Y-65490000D01*
%TO.C,USB0*%
X17840000Y-66780000D02*
X17840000Y-65450000D01*
X16510000Y-66780000D02*
X17840000Y-66780000D01*
X15240000Y-66780000D02*
X15240000Y-64120000D01*
X15240000Y-64120000D02*
X7560000Y-64120000D01*
X15240000Y-66780000D02*
X7560000Y-66780000D01*
X7560000Y-66780000D02*
X7560000Y-64120000D01*
%TO.C,ICSP0*%
X17780000Y-17700000D02*
X17780000Y-16680000D01*
X12580000Y-17700000D02*
X12580000Y-16680000D01*
X17780000Y-20240000D02*
X17780000Y-19220000D01*
X12580000Y-20240000D02*
X12580000Y-19220000D01*
X17780000Y-15160000D02*
X17780000Y-14590000D01*
X12580000Y-15160000D02*
X12580000Y-14590000D01*
X17780000Y-22330000D02*
X17780000Y-21760000D01*
X12580000Y-22330000D02*
X12580000Y-21760000D01*
X11140000Y-21760000D02*
X12580000Y-21760000D01*
X12580000Y-14590000D02*
X17780000Y-14590000D01*
X12580000Y-22330000D02*
X17780000Y-22330000D01*
%TO.C,B0*%
X6400000Y-24600000D02*
X3900000Y-24600000D01*
X7900000Y-26350000D02*
X7900000Y-28350000D01*
X6400000Y-30100000D02*
X3900000Y-30100000D01*
X2400000Y-26350000D02*
X2400000Y-28350000D01*
X6850000Y-25050000D02*
X6400000Y-24600000D01*
X3450000Y-25050000D02*
X3900000Y-24600000D01*
X3450000Y-29650000D02*
X3900000Y-30100000D01*
X6850000Y-29650000D02*
X6400000Y-30100000D01*
D11*
%TO.C,DATA1*%
X38800000Y-20855000D02*
X21655000Y-20855000D01*
X21655000Y-20855000D02*
X21655000Y-25935000D01*
X21655000Y-25935000D02*
X38800000Y-25935000D01*
X38800000Y-25935000D02*
X38800000Y-20855000D01*
%TO.C,DATA0*%
X38800000Y-4855000D02*
X21655000Y-4855000D01*
X21655000Y-4855000D02*
X21655000Y-9935000D01*
X21655000Y-9935000D02*
X38800000Y-9935000D01*
X38800000Y-9935000D02*
X38800000Y-4855000D01*
%TO.C,DATA3*%
X38800000Y-57935000D02*
X38800000Y-52855000D01*
X21655000Y-57935000D02*
X38800000Y-57935000D01*
X21655000Y-52855000D02*
X21655000Y-57935000D01*
X38800000Y-52855000D02*
X21655000Y-52855000D01*
%TO.C,DATA2*%
X38800000Y-37205000D02*
X21655000Y-37205000D01*
X21655000Y-37205000D02*
X21655000Y-42285000D01*
X21655000Y-42285000D02*
X38800000Y-42285000D01*
X38800000Y-42285000D02*
X38800000Y-37205000D01*
D12*
%TO.C,CPUOUT0*%
X40640000Y-70280000D02*
X40640000Y-71290000D01*
X45720000Y-70280000D02*
X40640000Y-70280000D01*
X45720000Y-71290000D02*
X45720000Y-70280000D01*
X47070000Y-71390000D02*
X47070000Y-65390000D01*
X36770000Y-71390000D02*
X47070000Y-71390000D01*
X36770000Y-65440000D02*
X36770000Y-71390000D01*
X39970000Y-65440000D02*
X36770000Y-65440000D01*
X47070000Y-65390000D02*
X41320000Y-65390000D01*
%TO.C,CPUMUX0*%
X15025000Y-54330000D02*
X15025000Y-51730000D01*
X15025000Y-51730000D02*
X15225000Y-51730000D01*
X17225000Y-51730000D02*
X17425000Y-51730000D01*
X17425000Y-51730000D02*
X17425000Y-54330000D01*
X17425000Y-54330000D02*
X17325000Y-54330000D01*
X17325000Y-54330000D02*
X17325000Y-54730000D01*
X15025000Y-54330000D02*
X15225000Y-54330000D01*
D11*
%TO.C,AVR0*%
X15300000Y-44125000D02*
X15300000Y-45400000D01*
X15875000Y-33775000D02*
X15875000Y-34450000D01*
X5525000Y-33775000D02*
X5525000Y-34450000D01*
X5525000Y-44125000D02*
X5525000Y-43450000D01*
X15875000Y-44125000D02*
X15875000Y-43450000D01*
X5525000Y-44125000D02*
X6200000Y-44125000D01*
X5525000Y-33775000D02*
X6200000Y-33775000D01*
X15875000Y-33775000D02*
X15200000Y-33775000D01*
X15875000Y-44125000D02*
X15300000Y-44125000D01*
D12*
%TO.C,PMB0*%
X2480000Y-67930000D02*
X2480000Y-69260000D01*
X3810000Y-67930000D02*
X2480000Y-67930000D01*
X5080000Y-67930000D02*
X5080000Y-70590000D01*
X5080000Y-70590000D02*
X12760000Y-70590000D01*
X5080000Y-67930000D02*
X12760000Y-67930000D01*
X12760000Y-67930000D02*
X12760000Y-70590000D01*
%TO.C,CPUIN0*%
X29210000Y-70280000D02*
X29210000Y-71290000D01*
X34290000Y-70280000D02*
X29210000Y-70280000D01*
X34290000Y-71290000D02*
X34290000Y-70280000D01*
X35640000Y-71390000D02*
X35640000Y-65390000D01*
X25340000Y-71390000D02*
X35640000Y-71390000D01*
X25340000Y-65440000D02*
X25340000Y-71390000D01*
X28540000Y-65440000D02*
X25340000Y-65440000D01*
X35640000Y-65390000D02*
X29890000Y-65390000D01*
%TO.C,INTAKE0*%
X52070000Y-70280000D02*
X52070000Y-71290000D01*
X57150000Y-70280000D02*
X52070000Y-70280000D01*
X57150000Y-71290000D02*
X57150000Y-70280000D01*
X58500000Y-71390000D02*
X58500000Y-65390000D01*
X48200000Y-71390000D02*
X58500000Y-71390000D01*
X48200000Y-65440000D02*
X48200000Y-71390000D01*
X51400000Y-65440000D02*
X48200000Y-65440000D01*
X58500000Y-65390000D02*
X52750000Y-65390000D01*
%TO.C,PFP0*%
X13910000Y-67930000D02*
X13910000Y-69260000D01*
X15240000Y-67930000D02*
X13910000Y-67930000D01*
X16510000Y-67930000D02*
X16510000Y-70590000D01*
X16510000Y-70590000D02*
X24190000Y-70590000D01*
X16510000Y-67930000D02*
X24190000Y-67930000D01*
X24190000Y-67930000D02*
X24190000Y-70590000D01*
%TD*%
%TO.C,R0*%
D11*
X13052380Y-62578333D02*
X12576190Y-62245000D01*
X13052380Y-62006904D02*
X12052380Y-62006904D01*
X12052380Y-62387857D01*
X12100000Y-62483095D01*
X12147619Y-62530714D01*
X12242857Y-62578333D01*
X12385714Y-62578333D01*
X12480952Y-62530714D01*
X12528571Y-62483095D01*
X12576190Y-62387857D01*
X12576190Y-62006904D01*
X12052380Y-63197380D02*
X12052380Y-63292619D01*
X12100000Y-63387857D01*
X12147619Y-63435476D01*
X12242857Y-63483095D01*
X12433333Y-63530714D01*
X12671428Y-63530714D01*
X12861904Y-63483095D01*
X12957142Y-63435476D01*
X13004761Y-63387857D01*
X13052380Y-63292619D01*
X13052380Y-63197380D01*
X13004761Y-63102142D01*
X12957142Y-63054523D01*
X12861904Y-63006904D01*
X12671428Y-62959285D01*
X12433333Y-62959285D01*
X12242857Y-63006904D01*
X12147619Y-63054523D01*
X12100000Y-63102142D01*
X12052380Y-63197380D01*
%TO.C,R1*%
X15592380Y-62578333D02*
X15116190Y-62245000D01*
X15592380Y-62006904D02*
X14592380Y-62006904D01*
X14592380Y-62387857D01*
X14640000Y-62483095D01*
X14687619Y-62530714D01*
X14782857Y-62578333D01*
X14925714Y-62578333D01*
X15020952Y-62530714D01*
X15068571Y-62483095D01*
X15116190Y-62387857D01*
X15116190Y-62006904D01*
X15592380Y-63530714D02*
X15592380Y-62959285D01*
X15592380Y-63245000D02*
X14592380Y-63245000D01*
X14735238Y-63149761D01*
X14830476Y-63054523D01*
X14878095Y-62959285D01*
%TO.C,R2*%
X24527380Y-66388333D02*
X24051190Y-66055000D01*
X24527380Y-65816904D02*
X23527380Y-65816904D01*
X23527380Y-66197857D01*
X23575000Y-66293095D01*
X23622619Y-66340714D01*
X23717857Y-66388333D01*
X23860714Y-66388333D01*
X23955952Y-66340714D01*
X24003571Y-66293095D01*
X24051190Y-66197857D01*
X24051190Y-65816904D01*
X23622619Y-66769285D02*
X23575000Y-66816904D01*
X23527380Y-66912142D01*
X23527380Y-67150238D01*
X23575000Y-67245476D01*
X23622619Y-67293095D01*
X23717857Y-67340714D01*
X23813095Y-67340714D01*
X23955952Y-67293095D01*
X24527380Y-66721666D01*
X24527380Y-67340714D01*
%TO.C,C0*%
X9887142Y-48303333D02*
X9934761Y-48255714D01*
X9982380Y-48112857D01*
X9982380Y-48017619D01*
X9934761Y-47874761D01*
X9839523Y-47779523D01*
X9744285Y-47731904D01*
X9553809Y-47684285D01*
X9410952Y-47684285D01*
X9220476Y-47731904D01*
X9125238Y-47779523D01*
X9030000Y-47874761D01*
X8982380Y-48017619D01*
X8982380Y-48112857D01*
X9030000Y-48255714D01*
X9077619Y-48303333D01*
X8982380Y-48922380D02*
X8982380Y-49017619D01*
X9030000Y-49112857D01*
X9077619Y-49160476D01*
X9172857Y-49208095D01*
X9363333Y-49255714D01*
X9601428Y-49255714D01*
X9791904Y-49208095D01*
X9887142Y-49160476D01*
X9934761Y-49112857D01*
X9982380Y-49017619D01*
X9982380Y-48922380D01*
X9934761Y-48827142D01*
X9887142Y-48779523D01*
X9791904Y-48731904D01*
X9601428Y-48684285D01*
X9363333Y-48684285D01*
X9172857Y-48731904D01*
X9077619Y-48779523D01*
X9030000Y-48827142D01*
X8982380Y-48922380D01*
%TO.C,POWER0*%
X67495714Y-64277380D02*
X67495714Y-63277380D01*
X67114761Y-63277380D01*
X67019523Y-63325000D01*
X66971904Y-63372619D01*
X66924285Y-63467857D01*
X66924285Y-63610714D01*
X66971904Y-63705952D01*
X67019523Y-63753571D01*
X67114761Y-63801190D01*
X67495714Y-63801190D01*
X66305238Y-63277380D02*
X66114761Y-63277380D01*
X66019523Y-63325000D01*
X65924285Y-63420238D01*
X65876666Y-63610714D01*
X65876666Y-63944047D01*
X65924285Y-64134523D01*
X66019523Y-64229761D01*
X66114761Y-64277380D01*
X66305238Y-64277380D01*
X66400476Y-64229761D01*
X66495714Y-64134523D01*
X66543333Y-63944047D01*
X66543333Y-63610714D01*
X66495714Y-63420238D01*
X66400476Y-63325000D01*
X66305238Y-63277380D01*
X65543333Y-63277380D02*
X65305238Y-64277380D01*
X65114761Y-63563095D01*
X64924285Y-64277380D01*
X64686190Y-63277380D01*
X64305238Y-63753571D02*
X63971904Y-63753571D01*
X63829047Y-64277380D02*
X64305238Y-64277380D01*
X64305238Y-63277380D01*
X63829047Y-63277380D01*
X62829047Y-64277380D02*
X63162380Y-63801190D01*
X63400476Y-64277380D02*
X63400476Y-63277380D01*
X63019523Y-63277380D01*
X62924285Y-63325000D01*
X62876666Y-63372619D01*
X62829047Y-63467857D01*
X62829047Y-63610714D01*
X62876666Y-63705952D01*
X62924285Y-63753571D01*
X63019523Y-63801190D01*
X63400476Y-63801190D01*
X62210000Y-63277380D02*
X62114761Y-63277380D01*
X62019523Y-63325000D01*
X61971904Y-63372619D01*
X61924285Y-63467857D01*
X61876666Y-63658333D01*
X61876666Y-63896428D01*
X61924285Y-64086904D01*
X61971904Y-64182142D01*
X62019523Y-64229761D01*
X62114761Y-64277380D01*
X62210000Y-64277380D01*
X62305238Y-64229761D01*
X62352857Y-64182142D01*
X62400476Y-64086904D01*
X62448095Y-63896428D01*
X62448095Y-63658333D01*
X62400476Y-63467857D01*
X62352857Y-63372619D01*
X62305238Y-63325000D01*
X62210000Y-63277380D01*
%TO.C,USB0*%
X10628095Y-62362380D02*
X10628095Y-63171904D01*
X10580476Y-63267142D01*
X10532857Y-63314761D01*
X10437619Y-63362380D01*
X10247142Y-63362380D01*
X10151904Y-63314761D01*
X10104285Y-63267142D01*
X10056666Y-63171904D01*
X10056666Y-62362380D01*
X9628095Y-63314761D02*
X9485238Y-63362380D01*
X9247142Y-63362380D01*
X9151904Y-63314761D01*
X9104285Y-63267142D01*
X9056666Y-63171904D01*
X9056666Y-63076666D01*
X9104285Y-62981428D01*
X9151904Y-62933809D01*
X9247142Y-62886190D01*
X9437619Y-62838571D01*
X9532857Y-62790952D01*
X9580476Y-62743333D01*
X9628095Y-62648095D01*
X9628095Y-62552857D01*
X9580476Y-62457619D01*
X9532857Y-62410000D01*
X9437619Y-62362380D01*
X9199523Y-62362380D01*
X9056666Y-62410000D01*
X8294761Y-62838571D02*
X8151904Y-62886190D01*
X8104285Y-62933809D01*
X8056666Y-63029047D01*
X8056666Y-63171904D01*
X8104285Y-63267142D01*
X8151904Y-63314761D01*
X8247142Y-63362380D01*
X8628095Y-63362380D01*
X8628095Y-62362380D01*
X8294761Y-62362380D01*
X8199523Y-62410000D01*
X8151904Y-62457619D01*
X8104285Y-62552857D01*
X8104285Y-62648095D01*
X8151904Y-62743333D01*
X8199523Y-62790952D01*
X8294761Y-62838571D01*
X8628095Y-62838571D01*
X7437619Y-62362380D02*
X7342380Y-62362380D01*
X7247142Y-62410000D01*
X7199523Y-62457619D01*
X7151904Y-62552857D01*
X7104285Y-62743333D01*
X7104285Y-62981428D01*
X7151904Y-63171904D01*
X7199523Y-63267142D01*
X7247142Y-63314761D01*
X7342380Y-63362380D01*
X7437619Y-63362380D01*
X7532857Y-63314761D01*
X7580476Y-63267142D01*
X7628095Y-63171904D01*
X7675714Y-62981428D01*
X7675714Y-62743333D01*
X7628095Y-62552857D01*
X7580476Y-62457619D01*
X7532857Y-62410000D01*
X7437619Y-62362380D01*
%TO.C,ICSP0*%
X17132380Y-23782380D02*
X17132380Y-22782380D01*
X16084761Y-23687142D02*
X16132380Y-23734761D01*
X16275238Y-23782380D01*
X16370476Y-23782380D01*
X16513333Y-23734761D01*
X16608571Y-23639523D01*
X16656190Y-23544285D01*
X16703809Y-23353809D01*
X16703809Y-23210952D01*
X16656190Y-23020476D01*
X16608571Y-22925238D01*
X16513333Y-22830000D01*
X16370476Y-22782380D01*
X16275238Y-22782380D01*
X16132380Y-22830000D01*
X16084761Y-22877619D01*
X15703809Y-23734761D02*
X15560952Y-23782380D01*
X15322857Y-23782380D01*
X15227619Y-23734761D01*
X15180000Y-23687142D01*
X15132380Y-23591904D01*
X15132380Y-23496666D01*
X15180000Y-23401428D01*
X15227619Y-23353809D01*
X15322857Y-23306190D01*
X15513333Y-23258571D01*
X15608571Y-23210952D01*
X15656190Y-23163333D01*
X15703809Y-23068095D01*
X15703809Y-22972857D01*
X15656190Y-22877619D01*
X15608571Y-22830000D01*
X15513333Y-22782380D01*
X15275238Y-22782380D01*
X15132380Y-22830000D01*
X14703809Y-23782380D02*
X14703809Y-22782380D01*
X14322857Y-22782380D01*
X14227619Y-22830000D01*
X14180000Y-22877619D01*
X14132380Y-22972857D01*
X14132380Y-23115714D01*
X14180000Y-23210952D01*
X14227619Y-23258571D01*
X14322857Y-23306190D01*
X14703809Y-23306190D01*
X13513333Y-22782380D02*
X13418095Y-22782380D01*
X13322857Y-22830000D01*
X13275238Y-22877619D01*
X13227619Y-22972857D01*
X13180000Y-23163333D01*
X13180000Y-23401428D01*
X13227619Y-23591904D01*
X13275238Y-23687142D01*
X13322857Y-23734761D01*
X13418095Y-23782380D01*
X13513333Y-23782380D01*
X13608571Y-23734761D01*
X13656190Y-23687142D01*
X13703809Y-23591904D01*
X13751428Y-23401428D01*
X13751428Y-23163333D01*
X13703809Y-22972857D01*
X13656190Y-22877619D01*
X13608571Y-22830000D01*
X13513333Y-22782380D01*
%TO.C,B0*%
X5554761Y-31328571D02*
X5411904Y-31376190D01*
X5364285Y-31423809D01*
X5316666Y-31519047D01*
X5316666Y-31661904D01*
X5364285Y-31757142D01*
X5411904Y-31804761D01*
X5507142Y-31852380D01*
X5888095Y-31852380D01*
X5888095Y-30852380D01*
X5554761Y-30852380D01*
X5459523Y-30900000D01*
X5411904Y-30947619D01*
X5364285Y-31042857D01*
X5364285Y-31138095D01*
X5411904Y-31233333D01*
X5459523Y-31280952D01*
X5554761Y-31328571D01*
X5888095Y-31328571D01*
X4697619Y-30852380D02*
X4602380Y-30852380D01*
X4507142Y-30900000D01*
X4459523Y-30947619D01*
X4411904Y-31042857D01*
X4364285Y-31233333D01*
X4364285Y-31471428D01*
X4411904Y-31661904D01*
X4459523Y-31757142D01*
X4507142Y-31804761D01*
X4602380Y-31852380D01*
X4697619Y-31852380D01*
X4792857Y-31804761D01*
X4840476Y-31757142D01*
X4888095Y-31661904D01*
X4935714Y-31471428D01*
X4935714Y-31233333D01*
X4888095Y-31042857D01*
X4840476Y-30947619D01*
X4792857Y-30900000D01*
X4697619Y-30852380D01*
%TO.C,DATA1*%
X31251190Y-28172380D02*
X31251190Y-27172380D01*
X31013095Y-27172380D01*
X30870238Y-27220000D01*
X30775000Y-27315238D01*
X30727380Y-27410476D01*
X30679761Y-27600952D01*
X30679761Y-27743809D01*
X30727380Y-27934285D01*
X30775000Y-28029523D01*
X30870238Y-28124761D01*
X31013095Y-28172380D01*
X31251190Y-28172380D01*
X30298809Y-27886666D02*
X29822619Y-27886666D01*
X30394047Y-28172380D02*
X30060714Y-27172380D01*
X29727380Y-28172380D01*
X29536904Y-27172380D02*
X28965476Y-27172380D01*
X29251190Y-28172380D02*
X29251190Y-27172380D01*
X28679761Y-27886666D02*
X28203571Y-27886666D01*
X28775000Y-28172380D02*
X28441666Y-27172380D01*
X28108333Y-28172380D01*
X27251190Y-28172380D02*
X27822619Y-28172380D01*
X27536904Y-28172380D02*
X27536904Y-27172380D01*
X27632142Y-27315238D01*
X27727380Y-27410476D01*
X27822619Y-27458095D01*
%TO.C,DATA0*%
X31251190Y-12172380D02*
X31251190Y-11172380D01*
X31013095Y-11172380D01*
X30870238Y-11220000D01*
X30775000Y-11315238D01*
X30727380Y-11410476D01*
X30679761Y-11600952D01*
X30679761Y-11743809D01*
X30727380Y-11934285D01*
X30775000Y-12029523D01*
X30870238Y-12124761D01*
X31013095Y-12172380D01*
X31251190Y-12172380D01*
X30298809Y-11886666D02*
X29822619Y-11886666D01*
X30394047Y-12172380D02*
X30060714Y-11172380D01*
X29727380Y-12172380D01*
X29536904Y-11172380D02*
X28965476Y-11172380D01*
X29251190Y-12172380D02*
X29251190Y-11172380D01*
X28679761Y-11886666D02*
X28203571Y-11886666D01*
X28775000Y-12172380D02*
X28441666Y-11172380D01*
X28108333Y-12172380D01*
X27584523Y-11172380D02*
X27489285Y-11172380D01*
X27394047Y-11220000D01*
X27346428Y-11267619D01*
X27298809Y-11362857D01*
X27251190Y-11553333D01*
X27251190Y-11791428D01*
X27298809Y-11981904D01*
X27346428Y-12077142D01*
X27394047Y-12124761D01*
X27489285Y-12172380D01*
X27584523Y-12172380D01*
X27679761Y-12124761D01*
X27727380Y-12077142D01*
X27775000Y-11981904D01*
X27822619Y-11791428D01*
X27822619Y-11553333D01*
X27775000Y-11362857D01*
X27727380Y-11267619D01*
X27679761Y-11220000D01*
X27584523Y-11172380D01*
%TO.C,DATA3*%
X31251190Y-60172380D02*
X31251190Y-59172380D01*
X31013095Y-59172380D01*
X30870238Y-59220000D01*
X30775000Y-59315238D01*
X30727380Y-59410476D01*
X30679761Y-59600952D01*
X30679761Y-59743809D01*
X30727380Y-59934285D01*
X30775000Y-60029523D01*
X30870238Y-60124761D01*
X31013095Y-60172380D01*
X31251190Y-60172380D01*
X30298809Y-59886666D02*
X29822619Y-59886666D01*
X30394047Y-60172380D02*
X30060714Y-59172380D01*
X29727380Y-60172380D01*
X29536904Y-59172380D02*
X28965476Y-59172380D01*
X29251190Y-60172380D02*
X29251190Y-59172380D01*
X28679761Y-59886666D02*
X28203571Y-59886666D01*
X28775000Y-60172380D02*
X28441666Y-59172380D01*
X28108333Y-60172380D01*
X27870238Y-59172380D02*
X27251190Y-59172380D01*
X27584523Y-59553333D01*
X27441666Y-59553333D01*
X27346428Y-59600952D01*
X27298809Y-59648571D01*
X27251190Y-59743809D01*
X27251190Y-59981904D01*
X27298809Y-60077142D01*
X27346428Y-60124761D01*
X27441666Y-60172380D01*
X27727380Y-60172380D01*
X27822619Y-60124761D01*
X27870238Y-60077142D01*
%TO.C,DATA2*%
X31251190Y-44522380D02*
X31251190Y-43522380D01*
X31013095Y-43522380D01*
X30870238Y-43570000D01*
X30775000Y-43665238D01*
X30727380Y-43760476D01*
X30679761Y-43950952D01*
X30679761Y-44093809D01*
X30727380Y-44284285D01*
X30775000Y-44379523D01*
X30870238Y-44474761D01*
X31013095Y-44522380D01*
X31251190Y-44522380D01*
X30298809Y-44236666D02*
X29822619Y-44236666D01*
X30394047Y-44522380D02*
X30060714Y-43522380D01*
X29727380Y-44522380D01*
X29536904Y-43522380D02*
X28965476Y-43522380D01*
X29251190Y-44522380D02*
X29251190Y-43522380D01*
X28679761Y-44236666D02*
X28203571Y-44236666D01*
X28775000Y-44522380D02*
X28441666Y-43522380D01*
X28108333Y-44522380D01*
X27822619Y-43617619D02*
X27775000Y-43570000D01*
X27679761Y-43522380D01*
X27441666Y-43522380D01*
X27346428Y-43570000D01*
X27298809Y-43617619D01*
X27251190Y-43712857D01*
X27251190Y-43808095D01*
X27298809Y-43950952D01*
X27870238Y-44522380D01*
X27251190Y-44522380D01*
%TO.C,CPUOUT0*%
X44339047Y-64182142D02*
X44386666Y-64229761D01*
X44529523Y-64277380D01*
X44624761Y-64277380D01*
X44767619Y-64229761D01*
X44862857Y-64134523D01*
X44910476Y-64039285D01*
X44958095Y-63848809D01*
X44958095Y-63705952D01*
X44910476Y-63515476D01*
X44862857Y-63420238D01*
X44767619Y-63325000D01*
X44624761Y-63277380D01*
X44529523Y-63277380D01*
X44386666Y-63325000D01*
X44339047Y-63372619D01*
X43910476Y-64277380D02*
X43910476Y-63277380D01*
X43529523Y-63277380D01*
X43434285Y-63325000D01*
X43386666Y-63372619D01*
X43339047Y-63467857D01*
X43339047Y-63610714D01*
X43386666Y-63705952D01*
X43434285Y-63753571D01*
X43529523Y-63801190D01*
X43910476Y-63801190D01*
X42910476Y-63277380D02*
X42910476Y-64086904D01*
X42862857Y-64182142D01*
X42815238Y-64229761D01*
X42720000Y-64277380D01*
X42529523Y-64277380D01*
X42434285Y-64229761D01*
X42386666Y-64182142D01*
X42339047Y-64086904D01*
X42339047Y-63277380D01*
X41672380Y-63277380D02*
X41481904Y-63277380D01*
X41386666Y-63325000D01*
X41291428Y-63420238D01*
X41243809Y-63610714D01*
X41243809Y-63944047D01*
X41291428Y-64134523D01*
X41386666Y-64229761D01*
X41481904Y-64277380D01*
X41672380Y-64277380D01*
X41767619Y-64229761D01*
X41862857Y-64134523D01*
X41910476Y-63944047D01*
X41910476Y-63610714D01*
X41862857Y-63420238D01*
X41767619Y-63325000D01*
X41672380Y-63277380D01*
X40815238Y-63277380D02*
X40815238Y-64086904D01*
X40767619Y-64182142D01*
X40720000Y-64229761D01*
X40624761Y-64277380D01*
X40434285Y-64277380D01*
X40339047Y-64229761D01*
X40291428Y-64182142D01*
X40243809Y-64086904D01*
X40243809Y-63277380D01*
X39910476Y-63277380D02*
X39339047Y-63277380D01*
X39624761Y-64277380D02*
X39624761Y-63277380D01*
X38815238Y-63277380D02*
X38720000Y-63277380D01*
X38624761Y-63325000D01*
X38577142Y-63372619D01*
X38529523Y-63467857D01*
X38481904Y-63658333D01*
X38481904Y-63896428D01*
X38529523Y-64086904D01*
X38577142Y-64182142D01*
X38624761Y-64229761D01*
X38720000Y-64277380D01*
X38815238Y-64277380D01*
X38910476Y-64229761D01*
X38958095Y-64182142D01*
X39005714Y-64086904D01*
X39053333Y-63896428D01*
X39053333Y-63658333D01*
X39005714Y-63467857D01*
X38958095Y-63372619D01*
X38910476Y-63325000D01*
X38815238Y-63277380D01*
%TO.C,CPUMUX0*%
X18986904Y-57637142D02*
X19034523Y-57684761D01*
X19177380Y-57732380D01*
X19272619Y-57732380D01*
X19415476Y-57684761D01*
X19510714Y-57589523D01*
X19558333Y-57494285D01*
X19605952Y-57303809D01*
X19605952Y-57160952D01*
X19558333Y-56970476D01*
X19510714Y-56875238D01*
X19415476Y-56780000D01*
X19272619Y-56732380D01*
X19177380Y-56732380D01*
X19034523Y-56780000D01*
X18986904Y-56827619D01*
X18558333Y-57732380D02*
X18558333Y-56732380D01*
X18177380Y-56732380D01*
X18082142Y-56780000D01*
X18034523Y-56827619D01*
X17986904Y-56922857D01*
X17986904Y-57065714D01*
X18034523Y-57160952D01*
X18082142Y-57208571D01*
X18177380Y-57256190D01*
X18558333Y-57256190D01*
X17558333Y-56732380D02*
X17558333Y-57541904D01*
X17510714Y-57637142D01*
X17463095Y-57684761D01*
X17367857Y-57732380D01*
X17177380Y-57732380D01*
X17082142Y-57684761D01*
X17034523Y-57637142D01*
X16986904Y-57541904D01*
X16986904Y-56732380D01*
X16510714Y-57732380D02*
X16510714Y-56732380D01*
X16177380Y-57446666D01*
X15844047Y-56732380D01*
X15844047Y-57732380D01*
X15367857Y-56732380D02*
X15367857Y-57541904D01*
X15320238Y-57637142D01*
X15272619Y-57684761D01*
X15177380Y-57732380D01*
X14986904Y-57732380D01*
X14891666Y-57684761D01*
X14844047Y-57637142D01*
X14796428Y-57541904D01*
X14796428Y-56732380D01*
X14415476Y-56732380D02*
X13748809Y-57732380D01*
X13748809Y-56732380D02*
X14415476Y-57732380D01*
X13177380Y-56732380D02*
X13082142Y-56732380D01*
X12986904Y-56780000D01*
X12939285Y-56827619D01*
X12891666Y-56922857D01*
X12844047Y-57113333D01*
X12844047Y-57351428D01*
X12891666Y-57541904D01*
X12939285Y-57637142D01*
X12986904Y-57684761D01*
X13082142Y-57732380D01*
X13177380Y-57732380D01*
X13272619Y-57684761D01*
X13320238Y-57637142D01*
X13367857Y-57541904D01*
X13415476Y-57351428D01*
X13415476Y-57113333D01*
X13367857Y-56922857D01*
X13320238Y-56827619D01*
X13272619Y-56780000D01*
X13177380Y-56732380D01*
%TO.C,AVR0*%
X12342857Y-31546666D02*
X11866666Y-31546666D01*
X12438095Y-31832380D02*
X12104761Y-30832380D01*
X11771428Y-31832380D01*
X11580952Y-30832380D02*
X11247619Y-31832380D01*
X10914285Y-30832380D01*
X10009523Y-31832380D02*
X10342857Y-31356190D01*
X10580952Y-31832380D02*
X10580952Y-30832380D01*
X10200000Y-30832380D01*
X10104761Y-30880000D01*
X10057142Y-30927619D01*
X10009523Y-31022857D01*
X10009523Y-31165714D01*
X10057142Y-31260952D01*
X10104761Y-31308571D01*
X10200000Y-31356190D01*
X10580952Y-31356190D01*
X9390476Y-30832380D02*
X9295238Y-30832380D01*
X9200000Y-30880000D01*
X9152380Y-30927619D01*
X9104761Y-31022857D01*
X9057142Y-31213333D01*
X9057142Y-31451428D01*
X9104761Y-31641904D01*
X9152380Y-31737142D01*
X9200000Y-31784761D01*
X9295238Y-31832380D01*
X9390476Y-31832380D01*
X9485714Y-31784761D01*
X9533333Y-31737142D01*
X9580952Y-31641904D01*
X9628571Y-31451428D01*
X9628571Y-31213333D01*
X9580952Y-31022857D01*
X9533333Y-30927619D01*
X9485714Y-30880000D01*
X9390476Y-30832380D01*
%TO.C,PMB0*%
X6889523Y-67172380D02*
X6889523Y-66172380D01*
X6508571Y-66172380D01*
X6413333Y-66220000D01*
X6365714Y-66267619D01*
X6318095Y-66362857D01*
X6318095Y-66505714D01*
X6365714Y-66600952D01*
X6413333Y-66648571D01*
X6508571Y-66696190D01*
X6889523Y-66696190D01*
X5889523Y-67172380D02*
X5889523Y-66172380D01*
X5556190Y-66886666D01*
X5222857Y-66172380D01*
X5222857Y-67172380D01*
X4413333Y-66648571D02*
X4270476Y-66696190D01*
X4222857Y-66743809D01*
X4175238Y-66839047D01*
X4175238Y-66981904D01*
X4222857Y-67077142D01*
X4270476Y-67124761D01*
X4365714Y-67172380D01*
X4746666Y-67172380D01*
X4746666Y-66172380D01*
X4413333Y-66172380D01*
X4318095Y-66220000D01*
X4270476Y-66267619D01*
X4222857Y-66362857D01*
X4222857Y-66458095D01*
X4270476Y-66553333D01*
X4318095Y-66600952D01*
X4413333Y-66648571D01*
X4746666Y-66648571D01*
X3556190Y-66172380D02*
X3460952Y-66172380D01*
X3365714Y-66220000D01*
X3318095Y-66267619D01*
X3270476Y-66362857D01*
X3222857Y-66553333D01*
X3222857Y-66791428D01*
X3270476Y-66981904D01*
X3318095Y-67077142D01*
X3365714Y-67124761D01*
X3460952Y-67172380D01*
X3556190Y-67172380D01*
X3651428Y-67124761D01*
X3699047Y-67077142D01*
X3746666Y-66981904D01*
X3794285Y-66791428D01*
X3794285Y-66553333D01*
X3746666Y-66362857D01*
X3699047Y-66267619D01*
X3651428Y-66220000D01*
X3556190Y-66172380D01*
%TO.C,CPUIN0*%
X32242380Y-64182142D02*
X32290000Y-64229761D01*
X32432857Y-64277380D01*
X32528095Y-64277380D01*
X32670952Y-64229761D01*
X32766190Y-64134523D01*
X32813809Y-64039285D01*
X32861428Y-63848809D01*
X32861428Y-63705952D01*
X32813809Y-63515476D01*
X32766190Y-63420238D01*
X32670952Y-63325000D01*
X32528095Y-63277380D01*
X32432857Y-63277380D01*
X32290000Y-63325000D01*
X32242380Y-63372619D01*
X31813809Y-64277380D02*
X31813809Y-63277380D01*
X31432857Y-63277380D01*
X31337619Y-63325000D01*
X31290000Y-63372619D01*
X31242380Y-63467857D01*
X31242380Y-63610714D01*
X31290000Y-63705952D01*
X31337619Y-63753571D01*
X31432857Y-63801190D01*
X31813809Y-63801190D01*
X30813809Y-63277380D02*
X30813809Y-64086904D01*
X30766190Y-64182142D01*
X30718571Y-64229761D01*
X30623333Y-64277380D01*
X30432857Y-64277380D01*
X30337619Y-64229761D01*
X30290000Y-64182142D01*
X30242380Y-64086904D01*
X30242380Y-63277380D01*
X29766190Y-64277380D02*
X29766190Y-63277380D01*
X29290000Y-64277380D02*
X29290000Y-63277380D01*
X28718571Y-64277380D01*
X28718571Y-63277380D01*
X28051904Y-63277380D02*
X27956666Y-63277380D01*
X27861428Y-63325000D01*
X27813809Y-63372619D01*
X27766190Y-63467857D01*
X27718571Y-63658333D01*
X27718571Y-63896428D01*
X27766190Y-64086904D01*
X27813809Y-64182142D01*
X27861428Y-64229761D01*
X27956666Y-64277380D01*
X28051904Y-64277380D01*
X28147142Y-64229761D01*
X28194761Y-64182142D01*
X28242380Y-64086904D01*
X28290000Y-63896428D01*
X28290000Y-63658333D01*
X28242380Y-63467857D01*
X28194761Y-63372619D01*
X28147142Y-63325000D01*
X28051904Y-63277380D01*
%TO.C,INTAKE0*%
X55911904Y-64277380D02*
X55911904Y-63277380D01*
X55435714Y-64277380D02*
X55435714Y-63277380D01*
X54864285Y-64277380D01*
X54864285Y-63277380D01*
X54530952Y-63277380D02*
X53959523Y-63277380D01*
X54245238Y-64277380D02*
X54245238Y-63277380D01*
X53673809Y-63991666D02*
X53197619Y-63991666D01*
X53769047Y-64277380D02*
X53435714Y-63277380D01*
X53102380Y-64277380D01*
X52769047Y-64277380D02*
X52769047Y-63277380D01*
X52197619Y-64277380D02*
X52626190Y-63705952D01*
X52197619Y-63277380D02*
X52769047Y-63848809D01*
X51769047Y-63753571D02*
X51435714Y-63753571D01*
X51292857Y-64277380D02*
X51769047Y-64277380D01*
X51769047Y-63277380D01*
X51292857Y-63277380D01*
X50673809Y-63277380D02*
X50578571Y-63277380D01*
X50483333Y-63325000D01*
X50435714Y-63372619D01*
X50388095Y-63467857D01*
X50340476Y-63658333D01*
X50340476Y-63896428D01*
X50388095Y-64086904D01*
X50435714Y-64182142D01*
X50483333Y-64229761D01*
X50578571Y-64277380D01*
X50673809Y-64277380D01*
X50769047Y-64229761D01*
X50816666Y-64182142D01*
X50864285Y-64086904D01*
X50911904Y-63896428D01*
X50911904Y-63658333D01*
X50864285Y-63467857D01*
X50816666Y-63372619D01*
X50769047Y-63325000D01*
X50673809Y-63277380D01*
%TO.C,PFP0*%
X21986666Y-67172380D02*
X21986666Y-66172380D01*
X21605714Y-66172380D01*
X21510476Y-66220000D01*
X21462857Y-66267619D01*
X21415238Y-66362857D01*
X21415238Y-66505714D01*
X21462857Y-66600952D01*
X21510476Y-66648571D01*
X21605714Y-66696190D01*
X21986666Y-66696190D01*
X20653333Y-66648571D02*
X20986666Y-66648571D01*
X20986666Y-67172380D02*
X20986666Y-66172380D01*
X20510476Y-66172380D01*
X20129523Y-67172380D02*
X20129523Y-66172380D01*
X19748571Y-66172380D01*
X19653333Y-66220000D01*
X19605714Y-66267619D01*
X19558095Y-66362857D01*
X19558095Y-66505714D01*
X19605714Y-66600952D01*
X19653333Y-66648571D01*
X19748571Y-66696190D01*
X20129523Y-66696190D01*
X18939047Y-66172380D02*
X18843809Y-66172380D01*
X18748571Y-66220000D01*
X18700952Y-66267619D01*
X18653333Y-66362857D01*
X18605714Y-66553333D01*
X18605714Y-66791428D01*
X18653333Y-66981904D01*
X18700952Y-67077142D01*
X18748571Y-67124761D01*
X18843809Y-67172380D01*
X18939047Y-67172380D01*
X19034285Y-67124761D01*
X19081904Y-67077142D01*
X19129523Y-66981904D01*
X19177142Y-66791428D01*
X19177142Y-66553333D01*
X19129523Y-66362857D01*
X19081904Y-66267619D01*
X19034285Y-66220000D01*
X18939047Y-66172380D01*
%TD*%
M02*
