%TF.GenerationSoftware,KiCad,Pcbnew,6.0.0-rc1-unknown-4a57541~66~ubuntu18.04.1*%
%TF.CreationDate,2018-09-13T12:55:36-06:00*%
%TF.ProjectId,thelio-io-sas,7468656C696F2D696F2D7361732E6B69,rev?*%
%TF.SameCoordinates,Original*%
%TF.FileFunction,Copper,L3,Inr,Plane*%
%TF.FilePolarity,Positive*%
%FSLAX46Y46*%
G04 Gerber Fmt 4.6, Leading zero omitted, Abs format (unit mm)*
G04 Created by KiCad (PCBNEW 6.0.0-rc1-unknown-4a57541~66~ubuntu18.04.1) date Thu Sep 13 12:55:36 2018*
%MOMM*%
%LPD*%
G01*
G04 APERTURE LIST*
%TA.AperFunction,NonConductor*%
%ADD10C,0.200000*%
%TD*%
%TA.AperFunction,NonConductor*%
%ADD11C,0.150000*%
%TD*%
%TA.AperFunction,ViaPad*%
%ADD12C,8.000000*%
%TD*%
%TA.AperFunction,ViaPad*%
%ADD13C,0.900000*%
%TD*%
%TA.AperFunction,WasherPad*%
%ADD14C,2.600000*%
%TD*%
%TA.AperFunction,ViaPad*%
%ADD15C,0.370000*%
%TD*%
%TA.AperFunction,ViaPad*%
%ADD16C,0.800000*%
%TD*%
%TA.AperFunction,Conductor*%
%ADD17C,0.250000*%
%TD*%
%TA.AperFunction,Conductor*%
%ADD18C,0.200000*%
%TD*%
%TA.AperFunction,Conductor*%
%ADD19C,0.254000*%
%TD*%
G04 APERTURE END LIST*
D10*
X75650000Y-71800000D02*
X3200000Y-71800000D01*
X0Y-68600000D02*
X0Y-3200000D01*
X78850000Y-3200000D02*
X78850000Y-68600000D01*
X0Y-3200000D02*
G75*
G02X3200000Y0I3200000J0D01*
G01*
X75650000Y0D02*
G75*
G02X78850000Y-3200000I0J-3200000D01*
G01*
X3200000Y0D02*
X75650000Y0D01*
D11*
X78850000Y-68600000D02*
G75*
G02X75650000Y-71800000I-3200000J0D01*
G01*
D10*
X3200000Y-71800000D02*
G75*
G02X0Y-68600000I0J3200000D01*
G01*
D12*
%TO.N,N/C*%
%TO.C,HOLE2*%
X4000000Y-51800000D03*
D13*
X7000000Y-51800000D03*
X6121320Y-53921320D03*
X4000000Y-54800000D03*
X1878680Y-53921320D03*
X1000000Y-51800000D03*
X1878680Y-49678680D03*
X4000000Y-48800000D03*
X6121320Y-49678680D03*
%TD*%
D12*
%TO.N,N/C*%
%TO.C,HOLE0*%
X4000000Y-20000000D03*
D13*
X7000000Y-20000000D03*
X6121320Y-22121320D03*
X4000000Y-23000000D03*
X1878680Y-22121320D03*
X1000000Y-20000000D03*
X1878680Y-17878680D03*
X4000000Y-17000000D03*
X6121320Y-17878680D03*
%TD*%
%TO.N,N/C*%
%TO.C,HOLE1*%
X76971320Y-49678680D03*
X74850000Y-48800000D03*
X72728680Y-49678680D03*
X71850000Y-51800000D03*
X72728680Y-53921320D03*
X74850000Y-54800000D03*
X76971320Y-53921320D03*
X77850000Y-51800000D03*
D12*
X74850000Y-51800000D03*
%TD*%
D14*
%TO.N,*%
%TO.C,U.2_3*%
X30635000Y-60560000D03*
X69365000Y-60560000D03*
%TD*%
D15*
%TO.N,/sas3/R1+*%
%TO.C,SAS3*%
X13420000Y-60450000D03*
%TO.N,GND*%
X12720000Y-61200000D03*
%TO.N,/sas3/CLK-*%
X12020000Y-61950000D03*
%TO.N,/sas3/CLK+*%
X13420000Y-62700000D03*
%TO.N,/sas3/R1-*%
X12020000Y-59700000D03*
%TO.N,/sas3/R3+*%
X13420000Y-58200000D03*
%TO.N,GND*%
X12720000Y-58950000D03*
X12720000Y-56700000D03*
%TO.N,/sas3/R3-*%
X12020000Y-57450000D03*
%TO.N,GND*%
X15820000Y-61950000D03*
X16520000Y-58950000D03*
%TO.N,/sas3/RST*%
X17220000Y-62700000D03*
%TO.N,/sas3/R0+*%
X17220000Y-60450000D03*
%TO.N,GND*%
X16520000Y-56700000D03*
X16520000Y-61200000D03*
%TO.N,/sas3/R0-*%
X15820000Y-59700000D03*
%TO.N,/sas3/R2-*%
X15820000Y-57450000D03*
%TO.N,/sas3/R2+*%
X17220000Y-58200000D03*
%TO.N,Net-(SAS3-PadC2)*%
X19620000Y-61950000D03*
%TO.N,GND*%
X20320000Y-58950000D03*
%TO.N,/sas3/ACT*%
X21020000Y-62700000D03*
%TO.N,/sas3/T1+*%
X21020000Y-60450000D03*
%TO.N,GND*%
X20320000Y-56700000D03*
X20320000Y-61200000D03*
%TO.N,/sas3/T1-*%
X19620000Y-59700000D03*
%TO.N,/sas3/T3-*%
X19620000Y-57450000D03*
%TO.N,/sas3/T3+*%
X21020000Y-58200000D03*
%TO.N,/sas3/SCLK*%
X23420000Y-61950000D03*
%TO.N,GND*%
X24120000Y-58950000D03*
%TO.N,/sas3/SDAT*%
X24820000Y-62700000D03*
%TO.N,/sas3/T0+*%
X24820000Y-60450000D03*
%TO.N,GND*%
X24120000Y-56700000D03*
X24120000Y-61200000D03*
%TO.N,/sas3/T0-*%
X23420000Y-59700000D03*
%TO.N,/sas3/T2-*%
X23420000Y-57450000D03*
%TO.N,/sas3/T2+*%
X24820000Y-58200000D03*
%TD*%
D14*
%TO.N,*%
%TO.C,U.2_2*%
X30635000Y-44560000D03*
X69365000Y-44560000D03*
%TD*%
D15*
%TO.N,/sas2/R1+*%
%TO.C,SAS2*%
X13420000Y-44450000D03*
%TO.N,GND*%
X12720000Y-45200000D03*
%TO.N,/sas2/CLK-*%
X12020000Y-45950000D03*
%TO.N,/sas2/CLK+*%
X13420000Y-46700000D03*
%TO.N,/sas2/R1-*%
X12020000Y-43700000D03*
%TO.N,/sas2/R3+*%
X13420000Y-42200000D03*
%TO.N,GND*%
X12720000Y-42950000D03*
X12720000Y-40700000D03*
%TO.N,/sas2/R3-*%
X12020000Y-41450000D03*
%TO.N,GND*%
X15820000Y-45950000D03*
X16520000Y-42950000D03*
%TO.N,/sas2/RST*%
X17220000Y-46700000D03*
%TO.N,/sas2/R0+*%
X17220000Y-44450000D03*
%TO.N,GND*%
X16520000Y-40700000D03*
X16520000Y-45200000D03*
%TO.N,/sas2/R0-*%
X15820000Y-43700000D03*
%TO.N,/sas2/R2-*%
X15820000Y-41450000D03*
%TO.N,/sas2/R2+*%
X17220000Y-42200000D03*
%TO.N,Net-(SAS2-PadC2)*%
X19620000Y-45950000D03*
%TO.N,GND*%
X20320000Y-42950000D03*
%TO.N,/sas2/ACT*%
X21020000Y-46700000D03*
%TO.N,/sas2/T1+*%
X21020000Y-44450000D03*
%TO.N,GND*%
X20320000Y-40700000D03*
X20320000Y-45200000D03*
%TO.N,/sas2/T1-*%
X19620000Y-43700000D03*
%TO.N,/sas2/T3-*%
X19620000Y-41450000D03*
%TO.N,/sas2/T3+*%
X21020000Y-42200000D03*
%TO.N,/sas2/SCLK*%
X23420000Y-45950000D03*
%TO.N,GND*%
X24120000Y-42950000D03*
%TO.N,/sas2/SDAT*%
X24820000Y-46700000D03*
%TO.N,/sas2/T0+*%
X24820000Y-44450000D03*
%TO.N,GND*%
X24120000Y-40700000D03*
X24120000Y-45200000D03*
%TO.N,/sas2/T0-*%
X23420000Y-43700000D03*
%TO.N,/sas2/T2-*%
X23420000Y-41450000D03*
%TO.N,/sas2/T2+*%
X24820000Y-42200000D03*
%TD*%
D14*
%TO.N,*%
%TO.C,U.2_1*%
X69365000Y-28560000D03*
X30635000Y-28560000D03*
%TD*%
D15*
%TO.N,/sas0/R1+*%
%TO.C,SAS0*%
X13420000Y-12450000D03*
%TO.N,GND*%
X12720000Y-13200000D03*
%TO.N,/sas0/CLK-*%
X12020000Y-13950000D03*
%TO.N,/sas0/CLK+*%
X13420000Y-14700000D03*
%TO.N,/sas0/R1-*%
X12020000Y-11700000D03*
%TO.N,/sas0/R3+*%
X13420000Y-10200000D03*
%TO.N,GND*%
X12720000Y-10950000D03*
X12720000Y-8700000D03*
%TO.N,/sas0/R3-*%
X12020000Y-9450000D03*
%TO.N,GND*%
X15820000Y-13950000D03*
X16520000Y-10950000D03*
%TO.N,/sas0/RST*%
X17220000Y-14700000D03*
%TO.N,/sas0/R0+*%
X17220000Y-12450000D03*
%TO.N,GND*%
X16520000Y-8700000D03*
X16520000Y-13200000D03*
%TO.N,/sas0/R0-*%
X15820000Y-11700000D03*
%TO.N,/sas0/R2-*%
X15820000Y-9450000D03*
%TO.N,/sas0/R2+*%
X17220000Y-10200000D03*
%TO.N,Net-(SAS0-PadC2)*%
X19620000Y-13950000D03*
%TO.N,GND*%
X20320000Y-10950000D03*
%TO.N,/sas0/ACT*%
X21020000Y-14700000D03*
%TO.N,/sas0/T1+*%
X21020000Y-12450000D03*
%TO.N,GND*%
X20320000Y-8700000D03*
X20320000Y-13200000D03*
%TO.N,/sas0/T1-*%
X19620000Y-11700000D03*
%TO.N,/sas0/T3-*%
X19620000Y-9450000D03*
%TO.N,/sas0/T3+*%
X21020000Y-10200000D03*
%TO.N,/sas0/SCLK*%
X23420000Y-13950000D03*
%TO.N,GND*%
X24120000Y-10950000D03*
%TO.N,/sas0/SDAT*%
X24820000Y-14700000D03*
%TO.N,/sas0/T0+*%
X24820000Y-12450000D03*
%TO.N,GND*%
X24120000Y-8700000D03*
X24120000Y-13200000D03*
%TO.N,/sas0/T0-*%
X23420000Y-11700000D03*
%TO.N,/sas0/T2-*%
X23420000Y-9450000D03*
%TO.N,/sas0/T2+*%
X24820000Y-10200000D03*
%TD*%
%TO.N,/sas1/T2+*%
%TO.C,SAS1*%
X24820000Y-26200000D03*
%TO.N,/sas1/T2-*%
X23420000Y-25450000D03*
%TO.N,/sas1/T0-*%
X23420000Y-27700000D03*
%TO.N,GND*%
X24120000Y-29200000D03*
X24120000Y-24700000D03*
%TO.N,/sas1/T0+*%
X24820000Y-28450000D03*
%TO.N,/sas1/SDAT*%
X24820000Y-30700000D03*
%TO.N,GND*%
X24120000Y-26950000D03*
%TO.N,/sas1/SCLK*%
X23420000Y-29950000D03*
%TO.N,/sas1/T3+*%
X21020000Y-26200000D03*
%TO.N,/sas1/T3-*%
X19620000Y-25450000D03*
%TO.N,/sas1/T1-*%
X19620000Y-27700000D03*
%TO.N,GND*%
X20320000Y-29200000D03*
X20320000Y-24700000D03*
%TO.N,/sas1/T1+*%
X21020000Y-28450000D03*
%TO.N,/sas1/ACT*%
X21020000Y-30700000D03*
%TO.N,GND*%
X20320000Y-26950000D03*
%TO.N,Net-(SAS1-PadC2)*%
X19620000Y-29950000D03*
%TO.N,/sas1/R2+*%
X17220000Y-26200000D03*
%TO.N,/sas1/R2-*%
X15820000Y-25450000D03*
%TO.N,/sas1/R0-*%
X15820000Y-27700000D03*
%TO.N,GND*%
X16520000Y-29200000D03*
X16520000Y-24700000D03*
%TO.N,/sas1/R0+*%
X17220000Y-28450000D03*
%TO.N,/sas1/RST*%
X17220000Y-30700000D03*
%TO.N,GND*%
X16520000Y-26950000D03*
X15820000Y-29950000D03*
%TO.N,/sas1/R3-*%
X12020000Y-25450000D03*
%TO.N,GND*%
X12720000Y-24700000D03*
X12720000Y-26950000D03*
%TO.N,/sas1/R3+*%
X13420000Y-26200000D03*
%TO.N,/sas1/R1-*%
X12020000Y-27700000D03*
%TO.N,/sas1/CLK+*%
X13420000Y-30700000D03*
%TO.N,/sas1/CLK-*%
X12020000Y-29950000D03*
%TO.N,GND*%
X12720000Y-29200000D03*
%TO.N,/sas1/R1+*%
X13420000Y-28450000D03*
%TD*%
D14*
%TO.N,*%
%TO.C,U.2_0*%
X69365000Y-12560000D03*
X30635000Y-12560000D03*
%TD*%
D13*
%TO.N,N/C*%
%TO.C,HOLE1*%
X76971320Y-17878680D03*
X74850000Y-17000000D03*
X72728680Y-17878680D03*
X71850000Y-20000000D03*
X72728680Y-22121320D03*
X74850000Y-23000000D03*
X76971320Y-22121320D03*
X77850000Y-20000000D03*
D12*
X74850000Y-20000000D03*
%TD*%
D16*
%TO.N,GND*%
X51905000Y-49445000D03*
X62040000Y-49445000D03*
X53175000Y-49445000D03*
X54420000Y-49445000D03*
X59525000Y-49445000D03*
X51905000Y-65445000D03*
X62040000Y-65445000D03*
X53175000Y-65445000D03*
X54420000Y-65445000D03*
X59525000Y-65445000D03*
X59525000Y-33445000D03*
X59525000Y-17570000D03*
X62040000Y-33445000D03*
X62065000Y-17570000D03*
X53175000Y-33445000D03*
X53175000Y-17570000D03*
X54420000Y-33445000D03*
X54445000Y-17570000D03*
X51905000Y-33445000D03*
X51905000Y-17570000D03*
%TO.N,+12V*%
X63310000Y-49445000D03*
X65875000Y-49445000D03*
X64580000Y-49445000D03*
X63310000Y-65445000D03*
X65875000Y-65445000D03*
X64580000Y-65445000D03*
X65875000Y-33445000D03*
X65875000Y-17570000D03*
X64580000Y-33445000D03*
X64605000Y-17570000D03*
X63310000Y-33445000D03*
X63335000Y-17570000D03*
%TO.N,+5V*%
X58255000Y-49445000D03*
X58255000Y-65445000D03*
X58255000Y-33445000D03*
X58255000Y-17570000D03*
%TO.N,/sas0/SDAT*%
X65304997Y-8130734D03*
%TO.N,/sas0/SCLK*%
X64447243Y-7616670D03*
%TO.N,/sas0/T1-*%
X49291232Y-7528768D03*
%TO.N,/sas0/T1+*%
X48548768Y-8271232D03*
%TO.N,/sas0/ACT*%
X60795000Y-17470000D03*
%TO.N,/sas0/R2+*%
X58236282Y-8646230D03*
%TO.N,/sas0/R2-*%
X57493818Y-7903766D03*
%TO.N,/sas0/R0-*%
X40548768Y-7528768D03*
%TO.N,/sas0/R0+*%
X41291232Y-8271232D03*
%TO.N,/sas0/RST*%
X46120000Y-16595000D03*
%TO.N,/sas0/R3-*%
X62948768Y-7528768D03*
%TO.N,/sas0/R3+*%
X63691232Y-8271232D03*
%TO.N,/sas0/R1-*%
X53348768Y-6728768D03*
%TO.N,/sas0/CLK+*%
X33348768Y-8271232D03*
%TO.N,/sas0/CLK-*%
X34091232Y-7528768D03*
%TO.N,/sas0/R1+*%
X54091232Y-7471232D03*
%TO.N,/sas1/SDAT*%
X65304997Y-24130734D03*
%TO.N,/sas1/SCLK*%
X64447243Y-23616670D03*
%TO.N,/sas1/T1-*%
X49291232Y-23528768D03*
%TO.N,/sas1/T1+*%
X48548768Y-24271232D03*
%TO.N,/sas1/ACT*%
X60795000Y-33470000D03*
%TO.N,/sas1/R2+*%
X58236282Y-24646230D03*
%TO.N,/sas1/R2-*%
X57493818Y-23903766D03*
%TO.N,/sas1/R0-*%
X40548768Y-23528768D03*
%TO.N,/sas1/R0+*%
X41291232Y-24271232D03*
%TO.N,/sas1/RST*%
X46120000Y-32595000D03*
%TO.N,/sas1/R3-*%
X62948768Y-23528768D03*
%TO.N,/sas1/R3+*%
X63691232Y-24271232D03*
%TO.N,/sas1/R1-*%
X53348768Y-22728768D03*
%TO.N,/sas1/CLK+*%
X33348768Y-24271232D03*
%TO.N,/sas1/CLK-*%
X34091232Y-23528768D03*
%TO.N,/sas1/R1+*%
X54091232Y-23471232D03*
%TO.N,/sas2/SDAT*%
X65304997Y-40130734D03*
%TO.N,/sas2/SCLK*%
X64447243Y-39616670D03*
%TO.N,/sas2/T1-*%
X49291232Y-39528768D03*
%TO.N,/sas2/T1+*%
X48548768Y-40271232D03*
%TO.N,/sas2/ACT*%
X60795000Y-49470000D03*
%TO.N,/sas2/R2+*%
X58236282Y-40646230D03*
%TO.N,/sas2/R2-*%
X57493818Y-39903766D03*
%TO.N,/sas2/R0-*%
X40548768Y-39528768D03*
%TO.N,/sas2/R0+*%
X41291232Y-40271232D03*
%TO.N,/sas2/RST*%
X46120000Y-48595000D03*
%TO.N,/sas2/R3-*%
X62948768Y-39528768D03*
%TO.N,/sas2/R3+*%
X63691232Y-40271232D03*
%TO.N,/sas2/R1-*%
X53348768Y-38728768D03*
%TO.N,/sas2/CLK+*%
X33348768Y-40271232D03*
%TO.N,/sas2/CLK-*%
X34091232Y-39528768D03*
%TO.N,/sas2/R1+*%
X54091232Y-39471232D03*
%TO.N,/sas3/SDAT*%
X65304997Y-56130734D03*
%TO.N,/sas3/SCLK*%
X64447243Y-55616670D03*
%TO.N,/sas3/T1-*%
X49291232Y-55528768D03*
%TO.N,/sas3/T1+*%
X48548768Y-56271232D03*
%TO.N,/sas3/ACT*%
X60795000Y-65470000D03*
%TO.N,/sas3/R2+*%
X58236282Y-56646230D03*
%TO.N,/sas3/R2-*%
X57493818Y-55903766D03*
%TO.N,/sas3/R0-*%
X40548768Y-55528768D03*
%TO.N,/sas3/R0+*%
X41291232Y-56271232D03*
%TO.N,/sas3/RST*%
X46120000Y-64595000D03*
%TO.N,/sas3/R3-*%
X62948768Y-55528768D03*
%TO.N,/sas3/R3+*%
X63691232Y-56271232D03*
%TO.N,/sas3/R1-*%
X53348768Y-54728768D03*
%TO.N,/sas3/CLK+*%
X33348768Y-56271232D03*
%TO.N,/sas3/CLK-*%
X34091232Y-55528768D03*
%TO.N,/sas3/R1+*%
X54091232Y-55471232D03*
%TD*%
D17*
%TO.N,+5V*%
X58961283Y-64738717D02*
X58255000Y-65445000D01*
X58961283Y-50151283D02*
X58255000Y-49445000D01*
X58961283Y-64738717D02*
X58961283Y-50151283D01*
X58961283Y-32738717D02*
X58255000Y-33445000D01*
X58961283Y-18276283D02*
X58961283Y-32738717D01*
X58255000Y-17570000D02*
X58961283Y-18276283D01*
X59500000Y-34690000D02*
X58255000Y-33445000D01*
X59500000Y-48200000D02*
X59500000Y-34690000D01*
X58255000Y-49445000D02*
X59500000Y-48200000D01*
D18*
%TO.N,/sas0/T1-*%
X41413465Y-9185001D02*
X23887199Y-9185001D01*
X49291232Y-7528768D02*
X48916306Y-7528768D01*
X22934999Y-9466802D02*
X20701801Y-11700000D01*
X20701801Y-11700000D02*
X19620000Y-11700000D01*
X48908769Y-7521231D02*
X43077235Y-7521231D01*
X43077235Y-7521231D02*
X41413465Y-9185001D01*
X48916306Y-7528768D02*
X48908769Y-7521231D01*
X23887199Y-9185001D02*
X23667197Y-8964999D01*
X23187199Y-8964999D02*
X22934999Y-9217199D01*
X22934999Y-9217199D02*
X22934999Y-9466802D01*
X23667197Y-8964999D02*
X23187199Y-8964999D01*
%TO.N,/sas0/T1+*%
X41599857Y-9634992D02*
X23952810Y-9634992D01*
X48548768Y-8271232D02*
X48256304Y-7978768D01*
X23103198Y-9935001D02*
X21020000Y-12018199D01*
X43256081Y-7978768D02*
X41599857Y-9634992D01*
X48256304Y-7978768D02*
X43256081Y-7978768D01*
X23652801Y-9935001D02*
X23103198Y-9935001D01*
X21020000Y-12018199D02*
X21020000Y-12450000D01*
X23952810Y-9634992D02*
X23652801Y-9935001D01*
D17*
%TO.N,/sas0/RST*%
X45720001Y-16195001D02*
X18715001Y-16195001D01*
X46120000Y-16595000D02*
X45720001Y-16195001D01*
X18715001Y-16195001D02*
X17220000Y-14700000D01*
D18*
%TO.N,/sas0/CLK+*%
X19709431Y-7978768D02*
X17705001Y-9983198D01*
X15503198Y-12185001D02*
X13420000Y-14268199D01*
X13420000Y-14268199D02*
X13420000Y-14700000D01*
X33056304Y-7978768D02*
X19709431Y-7978768D01*
X16052801Y-12185001D02*
X15503198Y-12185001D01*
X33348768Y-8271232D02*
X33056304Y-7978768D01*
X17705001Y-9983198D02*
X17705001Y-10532801D01*
X17705001Y-10532801D02*
X16052801Y-12185001D01*
%TO.N,/sas0/CLK-*%
X34091232Y-7528768D02*
X33716306Y-7528768D01*
X33708769Y-7521231D02*
X19530570Y-7521231D01*
X15334999Y-11716802D02*
X13101801Y-13950000D01*
X15334999Y-11367199D02*
X15334999Y-11716802D01*
X16987199Y-9714999D02*
X15334999Y-11367199D01*
X33716306Y-7528768D02*
X33708769Y-7521231D01*
X13101801Y-13950000D02*
X12020000Y-13950000D01*
X17336802Y-9714999D02*
X16987199Y-9714999D01*
X19530570Y-7521231D02*
X17336802Y-9714999D01*
%TO.N,/sas1/T1-*%
X41413465Y-25185001D02*
X23887199Y-25185001D01*
X43077235Y-23521231D02*
X41413465Y-25185001D01*
X23887199Y-25185001D02*
X23667197Y-24964999D01*
X22934999Y-25466802D02*
X20701801Y-27700000D01*
X48908769Y-23521231D02*
X43077235Y-23521231D01*
X49291232Y-23528768D02*
X48916306Y-23528768D01*
X48916306Y-23528768D02*
X48908769Y-23521231D01*
X23667197Y-24964999D02*
X23187199Y-24964999D01*
X23187199Y-24964999D02*
X22934999Y-25217199D01*
X22934999Y-25217199D02*
X22934999Y-25466802D01*
X20701801Y-27700000D02*
X19620000Y-27700000D01*
%TO.N,/sas1/T1+*%
X23103198Y-25935001D02*
X21020000Y-28018199D01*
X23652801Y-25935001D02*
X23103198Y-25935001D01*
X43256081Y-23978768D02*
X41599857Y-25634992D01*
X21020000Y-28018199D02*
X21020000Y-28450000D01*
X48256304Y-23978768D02*
X43256081Y-23978768D01*
X48548768Y-24271232D02*
X48256304Y-23978768D01*
X23952810Y-25634992D02*
X23652801Y-25935001D01*
X41599857Y-25634992D02*
X23952810Y-25634992D01*
D17*
%TO.N,/sas1/RST*%
X45720001Y-32195001D02*
X18715001Y-32195001D01*
X46120000Y-32595000D02*
X45720001Y-32195001D01*
X18715001Y-32195001D02*
X17220000Y-30700000D01*
D18*
%TO.N,/sas1/CLK+*%
X13420000Y-30268199D02*
X13420000Y-30700000D01*
X16052801Y-28185001D02*
X15503198Y-28185001D01*
X33348768Y-24271232D02*
X33056304Y-23978768D01*
X33056304Y-23978768D02*
X19709431Y-23978768D01*
X19709431Y-23978768D02*
X17705001Y-25983198D01*
X17705001Y-26532801D02*
X16052801Y-28185001D01*
X17705001Y-25983198D02*
X17705001Y-26532801D01*
X15503198Y-28185001D02*
X13420000Y-30268199D01*
%TO.N,/sas1/CLK-*%
X16987199Y-25714999D02*
X15334999Y-27367199D01*
X19530570Y-23521231D02*
X17336802Y-25714999D01*
X33716306Y-23528768D02*
X33708769Y-23521231D01*
X17336802Y-25714999D02*
X16987199Y-25714999D01*
X34091232Y-23528768D02*
X33716306Y-23528768D01*
X15334999Y-27367199D02*
X15334999Y-27716802D01*
X15334999Y-27716802D02*
X13101801Y-29950000D01*
X13101801Y-29950000D02*
X12020000Y-29950000D01*
X33708769Y-23521231D02*
X19530570Y-23521231D01*
%TO.N,/sas2/T1-*%
X48916306Y-39528768D02*
X48908769Y-39521231D01*
X23667197Y-40964999D02*
X23187199Y-40964999D01*
X43077235Y-39521231D02*
X41413465Y-41185001D01*
X41413465Y-41185001D02*
X23887199Y-41185001D01*
X23887199Y-41185001D02*
X23667197Y-40964999D01*
X22934999Y-41466802D02*
X20701801Y-43700000D01*
X48908769Y-39521231D02*
X43077235Y-39521231D01*
X49291232Y-39528768D02*
X48916306Y-39528768D01*
X23187199Y-40964999D02*
X22934999Y-41217199D01*
X20701801Y-43700000D02*
X19620000Y-43700000D01*
X22934999Y-41217199D02*
X22934999Y-41466802D01*
%TO.N,/sas2/T1+*%
X23103198Y-41935001D02*
X21020000Y-44018199D01*
X21020000Y-44018199D02*
X21020000Y-44450000D01*
X48256304Y-39978768D02*
X43256081Y-39978768D01*
X23652801Y-41935001D02*
X23103198Y-41935001D01*
X43256081Y-39978768D02*
X41599857Y-41634992D01*
X48548768Y-40271232D02*
X48256304Y-39978768D01*
X41599857Y-41634992D02*
X23952810Y-41634992D01*
X23952810Y-41634992D02*
X23652801Y-41935001D01*
D17*
%TO.N,/sas2/RST*%
X45720001Y-48195001D02*
X18715001Y-48195001D01*
X46120000Y-48595000D02*
X45720001Y-48195001D01*
X18715001Y-48195001D02*
X17220000Y-46700000D01*
D18*
%TO.N,/sas2/CLK+*%
X33348768Y-40271232D02*
X33056304Y-39978768D01*
X33056304Y-39978768D02*
X19709431Y-39978768D01*
X19709431Y-39978768D02*
X17705001Y-41983198D01*
X15503198Y-44185001D02*
X13420000Y-46268199D01*
X13420000Y-46268199D02*
X13420000Y-46700000D01*
X16052801Y-44185001D02*
X15503198Y-44185001D01*
X17705001Y-42532801D02*
X16052801Y-44185001D01*
X17705001Y-41983198D02*
X17705001Y-42532801D01*
%TO.N,/sas2/CLK-*%
X17336802Y-41714999D02*
X16987199Y-41714999D01*
X34091232Y-39528768D02*
X33716306Y-39528768D01*
X15334999Y-43367199D02*
X15334999Y-43716802D01*
X15334999Y-43716802D02*
X13101801Y-45950000D01*
X19530570Y-39521231D02*
X17336802Y-41714999D01*
X33716306Y-39528768D02*
X33708769Y-39521231D01*
X16987199Y-41714999D02*
X15334999Y-43367199D01*
X13101801Y-45950000D02*
X12020000Y-45950000D01*
X33708769Y-39521231D02*
X19530570Y-39521231D01*
%TO.N,/sas3/T1-*%
X48916306Y-55528768D02*
X48908769Y-55521231D01*
X23667197Y-56964999D02*
X23187199Y-56964999D01*
X43077235Y-55521231D02*
X41413465Y-57185001D01*
X41413465Y-57185001D02*
X23887199Y-57185001D01*
X23887199Y-57185001D02*
X23667197Y-56964999D01*
X22934999Y-57466802D02*
X20701801Y-59700000D01*
X48908769Y-55521231D02*
X43077235Y-55521231D01*
X49291232Y-55528768D02*
X48916306Y-55528768D01*
X23187199Y-56964999D02*
X22934999Y-57217199D01*
X20701801Y-59700000D02*
X19620000Y-59700000D01*
X22934999Y-57217199D02*
X22934999Y-57466802D01*
%TO.N,/sas3/T1+*%
X23103198Y-57935001D02*
X21020000Y-60018199D01*
X21020000Y-60018199D02*
X21020000Y-60450000D01*
X48256304Y-55978768D02*
X43256081Y-55978768D01*
X23652801Y-57935001D02*
X23103198Y-57935001D01*
X43256081Y-55978768D02*
X41599857Y-57634992D01*
X48548768Y-56271232D02*
X48256304Y-55978768D01*
X41599857Y-57634992D02*
X23952810Y-57634992D01*
X23952810Y-57634992D02*
X23652801Y-57935001D01*
D17*
%TO.N,/sas3/RST*%
X18715001Y-64195001D02*
X17220000Y-62700000D01*
X45720001Y-64195001D02*
X18715001Y-64195001D01*
X46120000Y-64595000D02*
X45720001Y-64195001D01*
D18*
%TO.N,/sas3/CLK+*%
X33348768Y-56271232D02*
X33056304Y-55978768D01*
X33056304Y-55978768D02*
X19709431Y-55978768D01*
X19709431Y-55978768D02*
X17705001Y-57983198D01*
X15503198Y-60185001D02*
X13420000Y-62268199D01*
X13420000Y-62268199D02*
X13420000Y-62700000D01*
X16052801Y-60185001D02*
X15503198Y-60185001D01*
X17705001Y-58532801D02*
X16052801Y-60185001D01*
X17705001Y-57983198D02*
X17705001Y-58532801D01*
%TO.N,/sas3/CLK-*%
X17336802Y-57714999D02*
X16987199Y-57714999D01*
X34091232Y-55528768D02*
X33716306Y-55528768D01*
X15334999Y-59367199D02*
X15334999Y-59716802D01*
X15334999Y-59716802D02*
X13101801Y-61950000D01*
X19530570Y-55521231D02*
X17336802Y-57714999D01*
X33716306Y-55528768D02*
X33708769Y-55521231D01*
X16987199Y-57714999D02*
X15334999Y-59367199D01*
X13101801Y-61950000D02*
X12020000Y-61950000D01*
X33708769Y-55521231D02*
X19530570Y-55521231D01*
%TD*%
D19*
%TO.N,+12V*%
G36*
X76195092Y-800751D02*
X76713100Y-981140D01*
X77178266Y-1271808D01*
X77567474Y-1658308D01*
X77861386Y-2121438D01*
X78045383Y-2638164D01*
X78115000Y-3221984D01*
X78115000Y-16710120D01*
X77475517Y-16070637D01*
X75771959Y-15365000D01*
X73928041Y-15365000D01*
X72224483Y-16070637D01*
X70920637Y-17374483D01*
X70215000Y-19078041D01*
X70215000Y-20921959D01*
X70920637Y-22625517D01*
X72224483Y-23929363D01*
X73928041Y-24635000D01*
X75771959Y-24635000D01*
X77475517Y-23929363D01*
X78115000Y-23289880D01*
X78115001Y-48510121D01*
X77475517Y-47870637D01*
X75771959Y-47165000D01*
X73928041Y-47165000D01*
X72224483Y-47870637D01*
X70920637Y-49174483D01*
X70215000Y-50878041D01*
X70215000Y-52721959D01*
X70920637Y-54425517D01*
X72224483Y-55729363D01*
X73928041Y-56435000D01*
X75771959Y-56435000D01*
X77475517Y-55729363D01*
X78115001Y-55089879D01*
X78115001Y-68672388D01*
X78122947Y-68712336D01*
X78073780Y-69150669D01*
X77891548Y-69673969D01*
X77597909Y-70143890D01*
X77207451Y-70537083D01*
X76739593Y-70833995D01*
X76217576Y-71019877D01*
X75766155Y-71073706D01*
X75722388Y-71065000D01*
X3241089Y-71065000D01*
X2654908Y-70999249D01*
X2136899Y-70818859D01*
X1671734Y-70528192D01*
X1282524Y-70141689D01*
X988614Y-69678562D01*
X804617Y-69161837D01*
X735000Y-68578016D01*
X735000Y-65354887D01*
X10385000Y-65354887D01*
X10385000Y-66045113D01*
X10649138Y-66682799D01*
X11137201Y-67170862D01*
X11774887Y-67435000D01*
X12465113Y-67435000D01*
X13102799Y-67170862D01*
X13590862Y-66682799D01*
X13855000Y-66045113D01*
X13855000Y-65354887D01*
X13590862Y-64717201D01*
X13102799Y-64229138D01*
X12465113Y-63965000D01*
X11774887Y-63965000D01*
X11137201Y-64229138D01*
X10649138Y-64717201D01*
X10385000Y-65354887D01*
X735000Y-65354887D01*
X735000Y-57286892D01*
X11200000Y-57286892D01*
X11200000Y-57613108D01*
X11324837Y-57914493D01*
X11555507Y-58145163D01*
X11856892Y-58270000D01*
X12183108Y-58270000D01*
X12484493Y-58145163D01*
X12605117Y-58024539D01*
X12600000Y-58036892D01*
X12600000Y-58130000D01*
X12556892Y-58130000D01*
X12255507Y-58254837D01*
X12024837Y-58485507D01*
X11900000Y-58786892D01*
X11900000Y-58880000D01*
X11856892Y-58880000D01*
X11555507Y-59004837D01*
X11324837Y-59235507D01*
X11200000Y-59536892D01*
X11200000Y-59863108D01*
X11324837Y-60164493D01*
X11555507Y-60395163D01*
X11856892Y-60520000D01*
X12183108Y-60520000D01*
X12484493Y-60395163D01*
X12605117Y-60274539D01*
X12600000Y-60286892D01*
X12600000Y-60380000D01*
X12556892Y-60380000D01*
X12255507Y-60504837D01*
X12024837Y-60735507D01*
X11900000Y-61036892D01*
X11900000Y-61130000D01*
X11856892Y-61130000D01*
X11555507Y-61254837D01*
X11324837Y-61485507D01*
X11200000Y-61786892D01*
X11200000Y-62113108D01*
X11324837Y-62414493D01*
X11555507Y-62645163D01*
X11856892Y-62770000D01*
X12183108Y-62770000D01*
X12388317Y-62685000D01*
X12600000Y-62685000D01*
X12600000Y-62863108D01*
X12724837Y-63164493D01*
X12955507Y-63395163D01*
X13256892Y-63520000D01*
X13583108Y-63520000D01*
X13884493Y-63395163D01*
X14115163Y-63164493D01*
X14240000Y-62863108D01*
X14240000Y-62536892D01*
X14225576Y-62502069D01*
X15041893Y-61685752D01*
X15000000Y-61786892D01*
X15000000Y-62113108D01*
X15124837Y-62414493D01*
X15355507Y-62645163D01*
X15656892Y-62770000D01*
X15983108Y-62770000D01*
X16284493Y-62645163D01*
X16405117Y-62524539D01*
X16400000Y-62536892D01*
X16400000Y-62863108D01*
X16524837Y-63164493D01*
X16755507Y-63395163D01*
X16900363Y-63455164D01*
X18124671Y-64679473D01*
X18167072Y-64742930D01*
X18230528Y-64785330D01*
X18418463Y-64910905D01*
X18466606Y-64920481D01*
X18640149Y-64955001D01*
X18640153Y-64955001D01*
X18715001Y-64969889D01*
X18789849Y-64955001D01*
X22550638Y-64955001D01*
X22385000Y-65354887D01*
X22385000Y-66045113D01*
X22649138Y-66682799D01*
X23137201Y-67170862D01*
X23774887Y-67435000D01*
X24465113Y-67435000D01*
X25102799Y-67170862D01*
X25590862Y-66682799D01*
X25855000Y-66045113D01*
X25855000Y-65354887D01*
X25689362Y-64955001D01*
X45148841Y-64955001D01*
X45242569Y-65181280D01*
X45533720Y-65472431D01*
X45914126Y-65630000D01*
X46325874Y-65630000D01*
X46706280Y-65472431D01*
X46939585Y-65239126D01*
X50870000Y-65239126D01*
X50870000Y-65650874D01*
X51027569Y-66031280D01*
X51318720Y-66322431D01*
X51699126Y-66480000D01*
X52110874Y-66480000D01*
X52491280Y-66322431D01*
X52540000Y-66273711D01*
X52588720Y-66322431D01*
X52969126Y-66480000D01*
X53380874Y-66480000D01*
X53761280Y-66322431D01*
X53797500Y-66286211D01*
X53833720Y-66322431D01*
X54214126Y-66480000D01*
X54625874Y-66480000D01*
X55006280Y-66322431D01*
X55297431Y-66031280D01*
X55455000Y-65650874D01*
X55455000Y-65239126D01*
X55297431Y-64858720D01*
X55006280Y-64567569D01*
X54625874Y-64410000D01*
X54214126Y-64410000D01*
X53833720Y-64567569D01*
X53797500Y-64603789D01*
X53761280Y-64567569D01*
X53380874Y-64410000D01*
X52969126Y-64410000D01*
X52588720Y-64567569D01*
X52540000Y-64616289D01*
X52491280Y-64567569D01*
X52110874Y-64410000D01*
X51699126Y-64410000D01*
X51318720Y-64567569D01*
X51027569Y-64858720D01*
X50870000Y-65239126D01*
X46939585Y-65239126D01*
X46997431Y-65181280D01*
X47155000Y-64800874D01*
X47155000Y-64389126D01*
X46997431Y-64008720D01*
X46706280Y-63717569D01*
X46325874Y-63560000D01*
X46137618Y-63560000D01*
X46016538Y-63479097D01*
X45794853Y-63435001D01*
X45794848Y-63435001D01*
X45720001Y-63420113D01*
X45645154Y-63435001D01*
X25188315Y-63435001D01*
X25284493Y-63395163D01*
X25515163Y-63164493D01*
X25640000Y-62863108D01*
X25640000Y-62536892D01*
X25515163Y-62235507D01*
X25284493Y-62004837D01*
X24983108Y-61880000D01*
X24656892Y-61880000D01*
X24355507Y-62004837D01*
X24234883Y-62125461D01*
X24240000Y-62113108D01*
X24240000Y-62020000D01*
X24283108Y-62020000D01*
X24584493Y-61895163D01*
X24815163Y-61664493D01*
X24940000Y-61363108D01*
X24940000Y-61270000D01*
X24983108Y-61270000D01*
X25284493Y-61145163D01*
X25515163Y-60914493D01*
X25640000Y-60613108D01*
X25640000Y-60286892D01*
X25593697Y-60175105D01*
X28700000Y-60175105D01*
X28700000Y-60944895D01*
X28994586Y-61656090D01*
X29538910Y-62200414D01*
X30250105Y-62495000D01*
X31019895Y-62495000D01*
X31731090Y-62200414D01*
X32275414Y-61656090D01*
X32570000Y-60944895D01*
X32570000Y-60175105D01*
X32275414Y-59463910D01*
X31731090Y-58919586D01*
X31019895Y-58625000D01*
X30250105Y-58625000D01*
X29538910Y-58919586D01*
X28994586Y-59463910D01*
X28700000Y-60175105D01*
X25593697Y-60175105D01*
X25515163Y-59985507D01*
X25284493Y-59754837D01*
X24983108Y-59630000D01*
X24656892Y-59630000D01*
X24355507Y-59754837D01*
X24234883Y-59875461D01*
X24240000Y-59863108D01*
X24240000Y-59770000D01*
X24283108Y-59770000D01*
X24584493Y-59645163D01*
X24815163Y-59414493D01*
X24940000Y-59113108D01*
X24940000Y-59020000D01*
X24983108Y-59020000D01*
X25284493Y-58895163D01*
X25515163Y-58664493D01*
X25637149Y-58369992D01*
X41527473Y-58369992D01*
X41599857Y-58384390D01*
X41672241Y-58369992D01*
X41672245Y-58369992D01*
X41886640Y-58327346D01*
X42129762Y-58164897D01*
X42170768Y-58103527D01*
X43560528Y-56713768D01*
X47611796Y-56713768D01*
X47671337Y-56857512D01*
X47962488Y-57148663D01*
X48342894Y-57306232D01*
X48754642Y-57306232D01*
X49135048Y-57148663D01*
X49426199Y-56857512D01*
X49558385Y-56538385D01*
X49877512Y-56406199D01*
X50168663Y-56115048D01*
X50326232Y-55734642D01*
X50326232Y-55322894D01*
X50168663Y-54942488D01*
X49877512Y-54651337D01*
X49567423Y-54522894D01*
X52313768Y-54522894D01*
X52313768Y-54934642D01*
X52471337Y-55315048D01*
X52762488Y-55606199D01*
X53081615Y-55738385D01*
X53213801Y-56057512D01*
X53504952Y-56348663D01*
X53885358Y-56506232D01*
X54297106Y-56506232D01*
X54677512Y-56348663D01*
X54968663Y-56057512D01*
X55126232Y-55677106D01*
X55126232Y-55265358D01*
X54968663Y-54884952D01*
X54677512Y-54593801D01*
X54358385Y-54461615D01*
X54226199Y-54142488D01*
X53935048Y-53851337D01*
X53554642Y-53693768D01*
X53142894Y-53693768D01*
X52762488Y-53851337D01*
X52471337Y-54142488D01*
X52313768Y-54522894D01*
X49567423Y-54522894D01*
X49497106Y-54493768D01*
X49085358Y-54493768D01*
X48704952Y-54651337D01*
X48570058Y-54786231D01*
X43149618Y-54786231D01*
X43077234Y-54771833D01*
X43004850Y-54786231D01*
X43004847Y-54786231D01*
X42790452Y-54828877D01*
X42547330Y-54991326D01*
X42506325Y-55052694D01*
X42021365Y-55537654D01*
X41877512Y-55393801D01*
X41558385Y-55261615D01*
X41426199Y-54942488D01*
X41135048Y-54651337D01*
X40754642Y-54493768D01*
X40342894Y-54493768D01*
X39962488Y-54651337D01*
X39671337Y-54942488D01*
X39513768Y-55322894D01*
X39513768Y-55734642D01*
X39671337Y-56115048D01*
X39962488Y-56406199D01*
X40068236Y-56450001D01*
X34571764Y-56450001D01*
X34677512Y-56406199D01*
X34968663Y-56115048D01*
X35126232Y-55734642D01*
X35126232Y-55322894D01*
X34968663Y-54942488D01*
X34677512Y-54651337D01*
X34297106Y-54493768D01*
X33885358Y-54493768D01*
X33504952Y-54651337D01*
X33370058Y-54786231D01*
X19602953Y-54786231D01*
X19530569Y-54771833D01*
X19458185Y-54786231D01*
X19458182Y-54786231D01*
X19243787Y-54828877D01*
X19000665Y-54991326D01*
X18959660Y-55052694D01*
X17340000Y-56672355D01*
X17340000Y-56536892D01*
X17215163Y-56235507D01*
X16984493Y-56004837D01*
X16683108Y-55880000D01*
X16356892Y-55880000D01*
X16055507Y-56004837D01*
X15824837Y-56235507D01*
X15700000Y-56536892D01*
X15700000Y-56630000D01*
X15656892Y-56630000D01*
X15355507Y-56754837D01*
X15124837Y-56985507D01*
X15000000Y-57286892D01*
X15000000Y-57613108D01*
X15124837Y-57914493D01*
X15355507Y-58145163D01*
X15470116Y-58192635D01*
X14866464Y-58796288D01*
X14805094Y-58837294D01*
X14642645Y-59080417D01*
X14599999Y-59294812D01*
X14599999Y-59294815D01*
X14585601Y-59367199D01*
X14595482Y-59416873D01*
X14071005Y-59941349D01*
X13884493Y-59754837D01*
X13583108Y-59630000D01*
X13256892Y-59630000D01*
X12955507Y-59754837D01*
X12834883Y-59875461D01*
X12840000Y-59863108D01*
X12840000Y-59770000D01*
X12883108Y-59770000D01*
X13184493Y-59645163D01*
X13415163Y-59414493D01*
X13540000Y-59113108D01*
X13540000Y-59020000D01*
X13583108Y-59020000D01*
X13884493Y-58895163D01*
X14115163Y-58664493D01*
X14240000Y-58363108D01*
X14240000Y-58036892D01*
X14115163Y-57735507D01*
X13884493Y-57504837D01*
X13583108Y-57380000D01*
X13256892Y-57380000D01*
X12955507Y-57504837D01*
X12834883Y-57625461D01*
X12840000Y-57613108D01*
X12840000Y-57520000D01*
X12883108Y-57520000D01*
X13184493Y-57395163D01*
X13415163Y-57164493D01*
X13540000Y-56863108D01*
X13540000Y-56536892D01*
X13415163Y-56235507D01*
X13184493Y-56004837D01*
X12883108Y-55880000D01*
X12556892Y-55880000D01*
X12255507Y-56004837D01*
X12024837Y-56235507D01*
X11900000Y-56536892D01*
X11900000Y-56630000D01*
X11856892Y-56630000D01*
X11555507Y-56754837D01*
X11324837Y-56985507D01*
X11200000Y-57286892D01*
X735000Y-57286892D01*
X735000Y-55089880D01*
X1374483Y-55729363D01*
X3078041Y-56435000D01*
X4921959Y-56435000D01*
X6625517Y-55729363D01*
X7929363Y-54425517D01*
X8372832Y-53354887D01*
X10385000Y-53354887D01*
X10385000Y-54045113D01*
X10649138Y-54682799D01*
X11137201Y-55170862D01*
X11774887Y-55435000D01*
X12465113Y-55435000D01*
X13102799Y-55170862D01*
X13590862Y-54682799D01*
X13855000Y-54045113D01*
X13855000Y-53354887D01*
X13590862Y-52717201D01*
X13102799Y-52229138D01*
X12465113Y-51965000D01*
X11774887Y-51965000D01*
X11137201Y-52229138D01*
X10649138Y-52717201D01*
X10385000Y-53354887D01*
X8372832Y-53354887D01*
X8635000Y-52721959D01*
X8635000Y-50878041D01*
X8004089Y-49354887D01*
X10385000Y-49354887D01*
X10385000Y-50045113D01*
X10649138Y-50682799D01*
X11137201Y-51170862D01*
X11774887Y-51435000D01*
X12465113Y-51435000D01*
X13102799Y-51170862D01*
X13590862Y-50682799D01*
X13855000Y-50045113D01*
X13855000Y-49354887D01*
X13590862Y-48717201D01*
X13102799Y-48229138D01*
X12465113Y-47965000D01*
X11774887Y-47965000D01*
X11137201Y-48229138D01*
X10649138Y-48717201D01*
X10385000Y-49354887D01*
X8004089Y-49354887D01*
X7929363Y-49174483D01*
X6625517Y-47870637D01*
X4921959Y-47165000D01*
X3078041Y-47165000D01*
X1374483Y-47870637D01*
X735000Y-48510120D01*
X735000Y-41286892D01*
X11200000Y-41286892D01*
X11200000Y-41613108D01*
X11324837Y-41914493D01*
X11555507Y-42145163D01*
X11856892Y-42270000D01*
X12183108Y-42270000D01*
X12484493Y-42145163D01*
X12605117Y-42024539D01*
X12600000Y-42036892D01*
X12600000Y-42130000D01*
X12556892Y-42130000D01*
X12255507Y-42254837D01*
X12024837Y-42485507D01*
X11900000Y-42786892D01*
X11900000Y-42880000D01*
X11856892Y-42880000D01*
X11555507Y-43004837D01*
X11324837Y-43235507D01*
X11200000Y-43536892D01*
X11200000Y-43863108D01*
X11324837Y-44164493D01*
X11555507Y-44395163D01*
X11856892Y-44520000D01*
X12183108Y-44520000D01*
X12484493Y-44395163D01*
X12605117Y-44274539D01*
X12600000Y-44286892D01*
X12600000Y-44380000D01*
X12556892Y-44380000D01*
X12255507Y-44504837D01*
X12024837Y-44735507D01*
X11900000Y-45036892D01*
X11900000Y-45130000D01*
X11856892Y-45130000D01*
X11555507Y-45254837D01*
X11324837Y-45485507D01*
X11200000Y-45786892D01*
X11200000Y-46113108D01*
X11324837Y-46414493D01*
X11555507Y-46645163D01*
X11856892Y-46770000D01*
X12183108Y-46770000D01*
X12388317Y-46685000D01*
X12600000Y-46685000D01*
X12600000Y-46863108D01*
X12724837Y-47164493D01*
X12955507Y-47395163D01*
X13256892Y-47520000D01*
X13583108Y-47520000D01*
X13884493Y-47395163D01*
X14115163Y-47164493D01*
X14240000Y-46863108D01*
X14240000Y-46536892D01*
X14225576Y-46502069D01*
X15041893Y-45685752D01*
X15000000Y-45786892D01*
X15000000Y-46113108D01*
X15124837Y-46414493D01*
X15355507Y-46645163D01*
X15656892Y-46770000D01*
X15983108Y-46770000D01*
X16284493Y-46645163D01*
X16405117Y-46524539D01*
X16400000Y-46536892D01*
X16400000Y-46863108D01*
X16524837Y-47164493D01*
X16755507Y-47395163D01*
X16900363Y-47455164D01*
X18124671Y-48679473D01*
X18167072Y-48742930D01*
X18230528Y-48785330D01*
X18418463Y-48910905D01*
X18466606Y-48920481D01*
X18640149Y-48955001D01*
X18640153Y-48955001D01*
X18715001Y-48969889D01*
X18789849Y-48955001D01*
X22550638Y-48955001D01*
X22385000Y-49354887D01*
X22385000Y-50045113D01*
X22649138Y-50682799D01*
X23137201Y-51170862D01*
X23774887Y-51435000D01*
X24465113Y-51435000D01*
X25102799Y-51170862D01*
X25590862Y-50682799D01*
X25855000Y-50045113D01*
X25855000Y-49354887D01*
X25689362Y-48955001D01*
X45148841Y-48955001D01*
X45242569Y-49181280D01*
X45533720Y-49472431D01*
X45914126Y-49630000D01*
X46325874Y-49630000D01*
X46706280Y-49472431D01*
X46939585Y-49239126D01*
X50870000Y-49239126D01*
X50870000Y-49650874D01*
X51027569Y-50031280D01*
X51318720Y-50322431D01*
X51699126Y-50480000D01*
X52110874Y-50480000D01*
X52491280Y-50322431D01*
X52540000Y-50273711D01*
X52588720Y-50322431D01*
X52969126Y-50480000D01*
X53380874Y-50480000D01*
X53761280Y-50322431D01*
X53797500Y-50286211D01*
X53833720Y-50322431D01*
X54214126Y-50480000D01*
X54625874Y-50480000D01*
X55006280Y-50322431D01*
X55297431Y-50031280D01*
X55455000Y-49650874D01*
X55455000Y-49239126D01*
X55297431Y-48858720D01*
X55006280Y-48567569D01*
X54625874Y-48410000D01*
X54214126Y-48410000D01*
X53833720Y-48567569D01*
X53797500Y-48603789D01*
X53761280Y-48567569D01*
X53380874Y-48410000D01*
X52969126Y-48410000D01*
X52588720Y-48567569D01*
X52540000Y-48616289D01*
X52491280Y-48567569D01*
X52110874Y-48410000D01*
X51699126Y-48410000D01*
X51318720Y-48567569D01*
X51027569Y-48858720D01*
X50870000Y-49239126D01*
X46939585Y-49239126D01*
X46997431Y-49181280D01*
X47155000Y-48800874D01*
X47155000Y-48389126D01*
X46997431Y-48008720D01*
X46706280Y-47717569D01*
X46325874Y-47560000D01*
X46137618Y-47560000D01*
X46016538Y-47479097D01*
X45794853Y-47435001D01*
X45794848Y-47435001D01*
X45720001Y-47420113D01*
X45645154Y-47435001D01*
X25188315Y-47435001D01*
X25284493Y-47395163D01*
X25515163Y-47164493D01*
X25640000Y-46863108D01*
X25640000Y-46536892D01*
X25515163Y-46235507D01*
X25284493Y-46004837D01*
X24983108Y-45880000D01*
X24656892Y-45880000D01*
X24355507Y-46004837D01*
X24234883Y-46125461D01*
X24240000Y-46113108D01*
X24240000Y-46020000D01*
X24283108Y-46020000D01*
X24584493Y-45895163D01*
X24815163Y-45664493D01*
X24940000Y-45363108D01*
X24940000Y-45270000D01*
X24983108Y-45270000D01*
X25284493Y-45145163D01*
X25515163Y-44914493D01*
X25640000Y-44613108D01*
X25640000Y-44286892D01*
X25593697Y-44175105D01*
X28700000Y-44175105D01*
X28700000Y-44944895D01*
X28994586Y-45656090D01*
X29538910Y-46200414D01*
X30250105Y-46495000D01*
X31019895Y-46495000D01*
X31731090Y-46200414D01*
X32275414Y-45656090D01*
X32570000Y-44944895D01*
X32570000Y-44175105D01*
X32275414Y-43463910D01*
X31731090Y-42919586D01*
X31019895Y-42625000D01*
X30250105Y-42625000D01*
X29538910Y-42919586D01*
X28994586Y-43463910D01*
X28700000Y-44175105D01*
X25593697Y-44175105D01*
X25515163Y-43985507D01*
X25284493Y-43754837D01*
X24983108Y-43630000D01*
X24656892Y-43630000D01*
X24355507Y-43754837D01*
X24234883Y-43875461D01*
X24240000Y-43863108D01*
X24240000Y-43770000D01*
X24283108Y-43770000D01*
X24584493Y-43645163D01*
X24815163Y-43414493D01*
X24940000Y-43113108D01*
X24940000Y-43020000D01*
X24983108Y-43020000D01*
X25284493Y-42895163D01*
X25515163Y-42664493D01*
X25637149Y-42369992D01*
X41527473Y-42369992D01*
X41599857Y-42384390D01*
X41672241Y-42369992D01*
X41672245Y-42369992D01*
X41886640Y-42327346D01*
X42129762Y-42164897D01*
X42170768Y-42103527D01*
X43560528Y-40713768D01*
X47611796Y-40713768D01*
X47671337Y-40857512D01*
X47962488Y-41148663D01*
X48342894Y-41306232D01*
X48754642Y-41306232D01*
X49135048Y-41148663D01*
X49426199Y-40857512D01*
X49558385Y-40538385D01*
X49877512Y-40406199D01*
X50168663Y-40115048D01*
X50326232Y-39734642D01*
X50326232Y-39322894D01*
X50168663Y-38942488D01*
X49877512Y-38651337D01*
X49567423Y-38522894D01*
X52313768Y-38522894D01*
X52313768Y-38934642D01*
X52471337Y-39315048D01*
X52762488Y-39606199D01*
X53081615Y-39738385D01*
X53213801Y-40057512D01*
X53504952Y-40348663D01*
X53885358Y-40506232D01*
X54297106Y-40506232D01*
X54677512Y-40348663D01*
X54968663Y-40057512D01*
X55126232Y-39677106D01*
X55126232Y-39265358D01*
X54968663Y-38884952D01*
X54677512Y-38593801D01*
X54358385Y-38461615D01*
X54226199Y-38142488D01*
X53935048Y-37851337D01*
X53554642Y-37693768D01*
X53142894Y-37693768D01*
X52762488Y-37851337D01*
X52471337Y-38142488D01*
X52313768Y-38522894D01*
X49567423Y-38522894D01*
X49497106Y-38493768D01*
X49085358Y-38493768D01*
X48704952Y-38651337D01*
X48570058Y-38786231D01*
X43149618Y-38786231D01*
X43077234Y-38771833D01*
X43004850Y-38786231D01*
X43004847Y-38786231D01*
X42790452Y-38828877D01*
X42547330Y-38991326D01*
X42506325Y-39052694D01*
X42021365Y-39537654D01*
X41877512Y-39393801D01*
X41558385Y-39261615D01*
X41426199Y-38942488D01*
X41135048Y-38651337D01*
X40754642Y-38493768D01*
X40342894Y-38493768D01*
X39962488Y-38651337D01*
X39671337Y-38942488D01*
X39513768Y-39322894D01*
X39513768Y-39734642D01*
X39671337Y-40115048D01*
X39962488Y-40406199D01*
X40068236Y-40450001D01*
X34571764Y-40450001D01*
X34677512Y-40406199D01*
X34968663Y-40115048D01*
X35126232Y-39734642D01*
X35126232Y-39322894D01*
X34968663Y-38942488D01*
X34677512Y-38651337D01*
X34297106Y-38493768D01*
X33885358Y-38493768D01*
X33504952Y-38651337D01*
X33370058Y-38786231D01*
X19602953Y-38786231D01*
X19530569Y-38771833D01*
X19458185Y-38786231D01*
X19458182Y-38786231D01*
X19243787Y-38828877D01*
X19000665Y-38991326D01*
X18959660Y-39052694D01*
X17340000Y-40672355D01*
X17340000Y-40536892D01*
X17215163Y-40235507D01*
X16984493Y-40004837D01*
X16683108Y-39880000D01*
X16356892Y-39880000D01*
X16055507Y-40004837D01*
X15824837Y-40235507D01*
X15700000Y-40536892D01*
X15700000Y-40630000D01*
X15656892Y-40630000D01*
X15355507Y-40754837D01*
X15124837Y-40985507D01*
X15000000Y-41286892D01*
X15000000Y-41613108D01*
X15124837Y-41914493D01*
X15355507Y-42145163D01*
X15470116Y-42192635D01*
X14866464Y-42796288D01*
X14805094Y-42837294D01*
X14642645Y-43080417D01*
X14599999Y-43294812D01*
X14599999Y-43294815D01*
X14585601Y-43367199D01*
X14595482Y-43416873D01*
X14071005Y-43941349D01*
X13884493Y-43754837D01*
X13583108Y-43630000D01*
X13256892Y-43630000D01*
X12955507Y-43754837D01*
X12834883Y-43875461D01*
X12840000Y-43863108D01*
X12840000Y-43770000D01*
X12883108Y-43770000D01*
X13184493Y-43645163D01*
X13415163Y-43414493D01*
X13540000Y-43113108D01*
X13540000Y-43020000D01*
X13583108Y-43020000D01*
X13884493Y-42895163D01*
X14115163Y-42664493D01*
X14240000Y-42363108D01*
X14240000Y-42036892D01*
X14115163Y-41735507D01*
X13884493Y-41504837D01*
X13583108Y-41380000D01*
X13256892Y-41380000D01*
X12955507Y-41504837D01*
X12834883Y-41625461D01*
X12840000Y-41613108D01*
X12840000Y-41520000D01*
X12883108Y-41520000D01*
X13184493Y-41395163D01*
X13415163Y-41164493D01*
X13540000Y-40863108D01*
X13540000Y-40536892D01*
X13415163Y-40235507D01*
X13184493Y-40004837D01*
X12883108Y-39880000D01*
X12556892Y-39880000D01*
X12255507Y-40004837D01*
X12024837Y-40235507D01*
X11900000Y-40536892D01*
X11900000Y-40630000D01*
X11856892Y-40630000D01*
X11555507Y-40754837D01*
X11324837Y-40985507D01*
X11200000Y-41286892D01*
X735000Y-41286892D01*
X735000Y-37354887D01*
X10385000Y-37354887D01*
X10385000Y-38045113D01*
X10649138Y-38682799D01*
X11137201Y-39170862D01*
X11774887Y-39435000D01*
X12465113Y-39435000D01*
X13102799Y-39170862D01*
X13590862Y-38682799D01*
X13855000Y-38045113D01*
X13855000Y-37354887D01*
X13590862Y-36717201D01*
X13102799Y-36229138D01*
X12465113Y-35965000D01*
X11774887Y-35965000D01*
X11137201Y-36229138D01*
X10649138Y-36717201D01*
X10385000Y-37354887D01*
X735000Y-37354887D01*
X735000Y-33354887D01*
X10385000Y-33354887D01*
X10385000Y-34045113D01*
X10649138Y-34682799D01*
X11137201Y-35170862D01*
X11774887Y-35435000D01*
X12465113Y-35435000D01*
X13102799Y-35170862D01*
X13590862Y-34682799D01*
X13855000Y-34045113D01*
X13855000Y-33354887D01*
X13590862Y-32717201D01*
X13102799Y-32229138D01*
X12465113Y-31965000D01*
X11774887Y-31965000D01*
X11137201Y-32229138D01*
X10649138Y-32717201D01*
X10385000Y-33354887D01*
X735000Y-33354887D01*
X735000Y-25286892D01*
X11200000Y-25286892D01*
X11200000Y-25613108D01*
X11324837Y-25914493D01*
X11555507Y-26145163D01*
X11856892Y-26270000D01*
X12183108Y-26270000D01*
X12484493Y-26145163D01*
X12605117Y-26024539D01*
X12600000Y-26036892D01*
X12600000Y-26130000D01*
X12556892Y-26130000D01*
X12255507Y-26254837D01*
X12024837Y-26485507D01*
X11900000Y-26786892D01*
X11900000Y-26880000D01*
X11856892Y-26880000D01*
X11555507Y-27004837D01*
X11324837Y-27235507D01*
X11200000Y-27536892D01*
X11200000Y-27863108D01*
X11324837Y-28164493D01*
X11555507Y-28395163D01*
X11856892Y-28520000D01*
X12183108Y-28520000D01*
X12484493Y-28395163D01*
X12605117Y-28274539D01*
X12600000Y-28286892D01*
X12600000Y-28380000D01*
X12556892Y-28380000D01*
X12255507Y-28504837D01*
X12024837Y-28735507D01*
X11900000Y-29036892D01*
X11900000Y-29130000D01*
X11856892Y-29130000D01*
X11555507Y-29254837D01*
X11324837Y-29485507D01*
X11200000Y-29786892D01*
X11200000Y-30113108D01*
X11324837Y-30414493D01*
X11555507Y-30645163D01*
X11856892Y-30770000D01*
X12183108Y-30770000D01*
X12388317Y-30685000D01*
X12600000Y-30685000D01*
X12600000Y-30863108D01*
X12724837Y-31164493D01*
X12955507Y-31395163D01*
X13256892Y-31520000D01*
X13583108Y-31520000D01*
X13884493Y-31395163D01*
X14115163Y-31164493D01*
X14240000Y-30863108D01*
X14240000Y-30536892D01*
X14225576Y-30502069D01*
X15041893Y-29685752D01*
X15000000Y-29786892D01*
X15000000Y-30113108D01*
X15124837Y-30414493D01*
X15355507Y-30645163D01*
X15656892Y-30770000D01*
X15983108Y-30770000D01*
X16284493Y-30645163D01*
X16405117Y-30524539D01*
X16400000Y-30536892D01*
X16400000Y-30863108D01*
X16524837Y-31164493D01*
X16755507Y-31395163D01*
X16900363Y-31455164D01*
X18124671Y-32679473D01*
X18167072Y-32742930D01*
X18230528Y-32785330D01*
X18418463Y-32910905D01*
X18466606Y-32920481D01*
X18640149Y-32955001D01*
X18640153Y-32955001D01*
X18715001Y-32969889D01*
X18789849Y-32955001D01*
X22550638Y-32955001D01*
X22385000Y-33354887D01*
X22385000Y-34045113D01*
X22649138Y-34682799D01*
X23137201Y-35170862D01*
X23774887Y-35435000D01*
X24465113Y-35435000D01*
X25102799Y-35170862D01*
X25590862Y-34682799D01*
X25855000Y-34045113D01*
X25855000Y-33354887D01*
X25689362Y-32955001D01*
X45148841Y-32955001D01*
X45242569Y-33181280D01*
X45533720Y-33472431D01*
X45914126Y-33630000D01*
X46325874Y-33630000D01*
X46706280Y-33472431D01*
X46939585Y-33239126D01*
X50870000Y-33239126D01*
X50870000Y-33650874D01*
X51027569Y-34031280D01*
X51318720Y-34322431D01*
X51699126Y-34480000D01*
X52110874Y-34480000D01*
X52491280Y-34322431D01*
X52540000Y-34273711D01*
X52588720Y-34322431D01*
X52969126Y-34480000D01*
X53380874Y-34480000D01*
X53761280Y-34322431D01*
X53797500Y-34286211D01*
X53833720Y-34322431D01*
X54214126Y-34480000D01*
X54625874Y-34480000D01*
X55006280Y-34322431D01*
X55297431Y-34031280D01*
X55455000Y-33650874D01*
X55455000Y-33239126D01*
X55297431Y-32858720D01*
X55006280Y-32567569D01*
X54625874Y-32410000D01*
X54214126Y-32410000D01*
X53833720Y-32567569D01*
X53797500Y-32603789D01*
X53761280Y-32567569D01*
X53380874Y-32410000D01*
X52969126Y-32410000D01*
X52588720Y-32567569D01*
X52540000Y-32616289D01*
X52491280Y-32567569D01*
X52110874Y-32410000D01*
X51699126Y-32410000D01*
X51318720Y-32567569D01*
X51027569Y-32858720D01*
X50870000Y-33239126D01*
X46939585Y-33239126D01*
X46997431Y-33181280D01*
X47155000Y-32800874D01*
X47155000Y-32389126D01*
X46997431Y-32008720D01*
X46706280Y-31717569D01*
X46325874Y-31560000D01*
X46137618Y-31560000D01*
X46016538Y-31479097D01*
X45794853Y-31435001D01*
X45794848Y-31435001D01*
X45720001Y-31420113D01*
X45645154Y-31435001D01*
X25188315Y-31435001D01*
X25284493Y-31395163D01*
X25515163Y-31164493D01*
X25640000Y-30863108D01*
X25640000Y-30536892D01*
X25515163Y-30235507D01*
X25284493Y-30004837D01*
X24983108Y-29880000D01*
X24656892Y-29880000D01*
X24355507Y-30004837D01*
X24234883Y-30125461D01*
X24240000Y-30113108D01*
X24240000Y-30020000D01*
X24283108Y-30020000D01*
X24584493Y-29895163D01*
X24815163Y-29664493D01*
X24940000Y-29363108D01*
X24940000Y-29270000D01*
X24983108Y-29270000D01*
X25284493Y-29145163D01*
X25515163Y-28914493D01*
X25640000Y-28613108D01*
X25640000Y-28286892D01*
X25593697Y-28175105D01*
X28700000Y-28175105D01*
X28700000Y-28944895D01*
X28994586Y-29656090D01*
X29538910Y-30200414D01*
X30250105Y-30495000D01*
X31019895Y-30495000D01*
X31731090Y-30200414D01*
X32275414Y-29656090D01*
X32570000Y-28944895D01*
X32570000Y-28175105D01*
X32275414Y-27463910D01*
X31731090Y-26919586D01*
X31019895Y-26625000D01*
X30250105Y-26625000D01*
X29538910Y-26919586D01*
X28994586Y-27463910D01*
X28700000Y-28175105D01*
X25593697Y-28175105D01*
X25515163Y-27985507D01*
X25284493Y-27754837D01*
X24983108Y-27630000D01*
X24656892Y-27630000D01*
X24355507Y-27754837D01*
X24234883Y-27875461D01*
X24240000Y-27863108D01*
X24240000Y-27770000D01*
X24283108Y-27770000D01*
X24584493Y-27645163D01*
X24815163Y-27414493D01*
X24940000Y-27113108D01*
X24940000Y-27020000D01*
X24983108Y-27020000D01*
X25284493Y-26895163D01*
X25515163Y-26664493D01*
X25637149Y-26369992D01*
X41527473Y-26369992D01*
X41599857Y-26384390D01*
X41672241Y-26369992D01*
X41672245Y-26369992D01*
X41886640Y-26327346D01*
X42129762Y-26164897D01*
X42170768Y-26103527D01*
X43560528Y-24713768D01*
X47611796Y-24713768D01*
X47671337Y-24857512D01*
X47962488Y-25148663D01*
X48342894Y-25306232D01*
X48754642Y-25306232D01*
X49135048Y-25148663D01*
X49426199Y-24857512D01*
X49558385Y-24538385D01*
X49877512Y-24406199D01*
X50168663Y-24115048D01*
X50326232Y-23734642D01*
X50326232Y-23322894D01*
X50168663Y-22942488D01*
X49877512Y-22651337D01*
X49567423Y-22522894D01*
X52313768Y-22522894D01*
X52313768Y-22934642D01*
X52471337Y-23315048D01*
X52762488Y-23606199D01*
X53081615Y-23738385D01*
X53213801Y-24057512D01*
X53504952Y-24348663D01*
X53885358Y-24506232D01*
X54297106Y-24506232D01*
X54677512Y-24348663D01*
X54968663Y-24057512D01*
X55117622Y-23697892D01*
X56458818Y-23697892D01*
X56458818Y-24109640D01*
X56616387Y-24490046D01*
X56907538Y-24781197D01*
X57226665Y-24913383D01*
X57358851Y-25232510D01*
X57650002Y-25523661D01*
X58030408Y-25681230D01*
X58201284Y-25681230D01*
X58201284Y-32410000D01*
X58049126Y-32410000D01*
X57668720Y-32567569D01*
X57377569Y-32858720D01*
X57220000Y-33239126D01*
X57220000Y-33650874D01*
X57377569Y-34031280D01*
X57668720Y-34322431D01*
X58049126Y-34480000D01*
X58215199Y-34480000D01*
X58740001Y-35004803D01*
X58740001Y-39734601D01*
X58503435Y-39636613D01*
X58371249Y-39317486D01*
X58080098Y-39026335D01*
X57699692Y-38868766D01*
X57287944Y-38868766D01*
X56907538Y-39026335D01*
X56616387Y-39317486D01*
X56458818Y-39697892D01*
X56458818Y-40109640D01*
X56616387Y-40490046D01*
X56907538Y-40781197D01*
X57226665Y-40913383D01*
X57358851Y-41232510D01*
X57650002Y-41523661D01*
X58030408Y-41681230D01*
X58442156Y-41681230D01*
X58740000Y-41557859D01*
X58740000Y-47885198D01*
X58215199Y-48410000D01*
X58049126Y-48410000D01*
X57668720Y-48567569D01*
X57377569Y-48858720D01*
X57220000Y-49239126D01*
X57220000Y-49650874D01*
X57377569Y-50031280D01*
X57668720Y-50322431D01*
X58049126Y-50480000D01*
X58201284Y-50480000D01*
X58201284Y-55147521D01*
X58080098Y-55026335D01*
X57699692Y-54868766D01*
X57287944Y-54868766D01*
X56907538Y-55026335D01*
X56616387Y-55317486D01*
X56458818Y-55697892D01*
X56458818Y-56109640D01*
X56616387Y-56490046D01*
X56907538Y-56781197D01*
X57226665Y-56913383D01*
X57358851Y-57232510D01*
X57650002Y-57523661D01*
X58030408Y-57681230D01*
X58201283Y-57681230D01*
X58201283Y-64410000D01*
X58049126Y-64410000D01*
X57668720Y-64567569D01*
X57377569Y-64858720D01*
X57220000Y-65239126D01*
X57220000Y-65650874D01*
X57377569Y-66031280D01*
X57668720Y-66322431D01*
X58049126Y-66480000D01*
X58460874Y-66480000D01*
X58841280Y-66322431D01*
X58890000Y-66273711D01*
X58938720Y-66322431D01*
X59319126Y-66480000D01*
X59730874Y-66480000D01*
X60111280Y-66322431D01*
X60147500Y-66286211D01*
X60208720Y-66347431D01*
X60589126Y-66505000D01*
X61000874Y-66505000D01*
X61381280Y-66347431D01*
X61430000Y-66298711D01*
X61453720Y-66322431D01*
X61834126Y-66480000D01*
X62245874Y-66480000D01*
X62626280Y-66322431D01*
X62917431Y-66031280D01*
X63075000Y-65650874D01*
X63075000Y-65239126D01*
X62917431Y-64858720D01*
X62626280Y-64567569D01*
X62245874Y-64410000D01*
X61834126Y-64410000D01*
X61453720Y-64567569D01*
X61405000Y-64616289D01*
X61381280Y-64592569D01*
X61000874Y-64435000D01*
X60589126Y-64435000D01*
X60208720Y-64592569D01*
X60172500Y-64628789D01*
X60111280Y-64567569D01*
X59730874Y-64410000D01*
X59721283Y-64410000D01*
X59721283Y-60175105D01*
X67430000Y-60175105D01*
X67430000Y-60944895D01*
X67724586Y-61656090D01*
X68268910Y-62200414D01*
X68980105Y-62495000D01*
X69749895Y-62495000D01*
X70461090Y-62200414D01*
X71005414Y-61656090D01*
X71300000Y-60944895D01*
X71300000Y-60175105D01*
X71005414Y-59463910D01*
X70461090Y-58919586D01*
X69749895Y-58625000D01*
X68980105Y-58625000D01*
X68268910Y-58919586D01*
X67724586Y-59463910D01*
X67430000Y-60175105D01*
X59721283Y-60175105D01*
X59721283Y-55322894D01*
X61913768Y-55322894D01*
X61913768Y-55734642D01*
X62071337Y-56115048D01*
X62362488Y-56406199D01*
X62681615Y-56538385D01*
X62813801Y-56857512D01*
X63104952Y-57148663D01*
X63485358Y-57306232D01*
X63897106Y-57306232D01*
X64277512Y-57148663D01*
X64568364Y-56857812D01*
X64718717Y-57008165D01*
X65099123Y-57165734D01*
X65510871Y-57165734D01*
X65891277Y-57008165D01*
X66182428Y-56717014D01*
X66339997Y-56336608D01*
X66339997Y-55924860D01*
X66182428Y-55544454D01*
X65891277Y-55253303D01*
X65510871Y-55095734D01*
X65351740Y-55095734D01*
X65324674Y-55030390D01*
X65033523Y-54739239D01*
X64653117Y-54581670D01*
X64241369Y-54581670D01*
X63860963Y-54739239D01*
X63741957Y-54858246D01*
X63535048Y-54651337D01*
X63154642Y-54493768D01*
X62742894Y-54493768D01*
X62362488Y-54651337D01*
X62071337Y-54942488D01*
X61913768Y-55322894D01*
X59721283Y-55322894D01*
X59721283Y-50480000D01*
X59730874Y-50480000D01*
X60111280Y-50322431D01*
X60147500Y-50286211D01*
X60208720Y-50347431D01*
X60589126Y-50505000D01*
X61000874Y-50505000D01*
X61381280Y-50347431D01*
X61430000Y-50298711D01*
X61453720Y-50322431D01*
X61834126Y-50480000D01*
X62245874Y-50480000D01*
X62626280Y-50322431D01*
X62917431Y-50031280D01*
X63075000Y-49650874D01*
X63075000Y-49239126D01*
X62917431Y-48858720D01*
X62626280Y-48567569D01*
X62245874Y-48410000D01*
X61834126Y-48410000D01*
X61453720Y-48567569D01*
X61405000Y-48616289D01*
X61381280Y-48592569D01*
X61000874Y-48435000D01*
X60589126Y-48435000D01*
X60208720Y-48592569D01*
X60172500Y-48628789D01*
X60145546Y-48601835D01*
X60215904Y-48496537D01*
X60260000Y-48274852D01*
X60260000Y-48274847D01*
X60274888Y-48200000D01*
X60260000Y-48125153D01*
X60260000Y-44175105D01*
X67430000Y-44175105D01*
X67430000Y-44944895D01*
X67724586Y-45656090D01*
X68268910Y-46200414D01*
X68980105Y-46495000D01*
X69749895Y-46495000D01*
X70461090Y-46200414D01*
X71005414Y-45656090D01*
X71300000Y-44944895D01*
X71300000Y-44175105D01*
X71005414Y-43463910D01*
X70461090Y-42919586D01*
X69749895Y-42625000D01*
X68980105Y-42625000D01*
X68268910Y-42919586D01*
X67724586Y-43463910D01*
X67430000Y-44175105D01*
X60260000Y-44175105D01*
X60260000Y-39322894D01*
X61913768Y-39322894D01*
X61913768Y-39734642D01*
X62071337Y-40115048D01*
X62362488Y-40406199D01*
X62681615Y-40538385D01*
X62813801Y-40857512D01*
X63104952Y-41148663D01*
X63485358Y-41306232D01*
X63897106Y-41306232D01*
X64277512Y-41148663D01*
X64568364Y-40857812D01*
X64718717Y-41008165D01*
X65099123Y-41165734D01*
X65510871Y-41165734D01*
X65891277Y-41008165D01*
X66182428Y-40717014D01*
X66339997Y-40336608D01*
X66339997Y-39924860D01*
X66182428Y-39544454D01*
X65891277Y-39253303D01*
X65510871Y-39095734D01*
X65351740Y-39095734D01*
X65324674Y-39030390D01*
X65033523Y-38739239D01*
X64653117Y-38581670D01*
X64241369Y-38581670D01*
X63860963Y-38739239D01*
X63741957Y-38858246D01*
X63535048Y-38651337D01*
X63154642Y-38493768D01*
X62742894Y-38493768D01*
X62362488Y-38651337D01*
X62071337Y-38942488D01*
X61913768Y-39322894D01*
X60260000Y-39322894D01*
X60260000Y-34764847D01*
X60274888Y-34690000D01*
X60260000Y-34615153D01*
X60260000Y-34615148D01*
X60215904Y-34393463D01*
X60145546Y-34288165D01*
X60147500Y-34286211D01*
X60208720Y-34347431D01*
X60589126Y-34505000D01*
X61000874Y-34505000D01*
X61381280Y-34347431D01*
X61430000Y-34298711D01*
X61453720Y-34322431D01*
X61834126Y-34480000D01*
X62245874Y-34480000D01*
X62626280Y-34322431D01*
X62917431Y-34031280D01*
X63075000Y-33650874D01*
X63075000Y-33239126D01*
X62917431Y-32858720D01*
X62626280Y-32567569D01*
X62245874Y-32410000D01*
X61834126Y-32410000D01*
X61453720Y-32567569D01*
X61405000Y-32616289D01*
X61381280Y-32592569D01*
X61000874Y-32435000D01*
X60589126Y-32435000D01*
X60208720Y-32592569D01*
X60172500Y-32628789D01*
X60111280Y-32567569D01*
X59730874Y-32410000D01*
X59721283Y-32410000D01*
X59721283Y-28175105D01*
X67430000Y-28175105D01*
X67430000Y-28944895D01*
X67724586Y-29656090D01*
X68268910Y-30200414D01*
X68980105Y-30495000D01*
X69749895Y-30495000D01*
X70461090Y-30200414D01*
X71005414Y-29656090D01*
X71300000Y-28944895D01*
X71300000Y-28175105D01*
X71005414Y-27463910D01*
X70461090Y-26919586D01*
X69749895Y-26625000D01*
X68980105Y-26625000D01*
X68268910Y-26919586D01*
X67724586Y-27463910D01*
X67430000Y-28175105D01*
X59721283Y-28175105D01*
X59721283Y-23322894D01*
X61913768Y-23322894D01*
X61913768Y-23734642D01*
X62071337Y-24115048D01*
X62362488Y-24406199D01*
X62681615Y-24538385D01*
X62813801Y-24857512D01*
X63104952Y-25148663D01*
X63485358Y-25306232D01*
X63897106Y-25306232D01*
X64277512Y-25148663D01*
X64568364Y-24857812D01*
X64718717Y-25008165D01*
X65099123Y-25165734D01*
X65510871Y-25165734D01*
X65891277Y-25008165D01*
X66182428Y-24717014D01*
X66339997Y-24336608D01*
X66339997Y-23924860D01*
X66182428Y-23544454D01*
X65891277Y-23253303D01*
X65510871Y-23095734D01*
X65351740Y-23095734D01*
X65324674Y-23030390D01*
X65033523Y-22739239D01*
X64653117Y-22581670D01*
X64241369Y-22581670D01*
X63860963Y-22739239D01*
X63741957Y-22858246D01*
X63535048Y-22651337D01*
X63154642Y-22493768D01*
X62742894Y-22493768D01*
X62362488Y-22651337D01*
X62071337Y-22942488D01*
X61913768Y-23322894D01*
X59721283Y-23322894D01*
X59721283Y-18605000D01*
X59730874Y-18605000D01*
X60111280Y-18447431D01*
X60210530Y-18348181D01*
X60589126Y-18505000D01*
X61000874Y-18505000D01*
X61379470Y-18348181D01*
X61478720Y-18447431D01*
X61859126Y-18605000D01*
X62270874Y-18605000D01*
X62651280Y-18447431D01*
X62942431Y-18156280D01*
X63100000Y-17775874D01*
X63100000Y-17364126D01*
X62942431Y-16983720D01*
X62651280Y-16692569D01*
X62270874Y-16535000D01*
X61859126Y-16535000D01*
X61480530Y-16691819D01*
X61381280Y-16592569D01*
X61000874Y-16435000D01*
X60589126Y-16435000D01*
X60208720Y-16592569D01*
X60109470Y-16691819D01*
X59730874Y-16535000D01*
X59319126Y-16535000D01*
X58938720Y-16692569D01*
X58890000Y-16741289D01*
X58841280Y-16692569D01*
X58460874Y-16535000D01*
X58049126Y-16535000D01*
X57668720Y-16692569D01*
X57377569Y-16983720D01*
X57220000Y-17364126D01*
X57220000Y-17775874D01*
X57377569Y-18156280D01*
X57668720Y-18447431D01*
X58049126Y-18605000D01*
X58201283Y-18605000D01*
X58201283Y-23147520D01*
X58080098Y-23026335D01*
X57699692Y-22868766D01*
X57287944Y-22868766D01*
X56907538Y-23026335D01*
X56616387Y-23317486D01*
X56458818Y-23697892D01*
X55117622Y-23697892D01*
X55126232Y-23677106D01*
X55126232Y-23265358D01*
X54968663Y-22884952D01*
X54677512Y-22593801D01*
X54358385Y-22461615D01*
X54226199Y-22142488D01*
X53935048Y-21851337D01*
X53554642Y-21693768D01*
X53142894Y-21693768D01*
X52762488Y-21851337D01*
X52471337Y-22142488D01*
X52313768Y-22522894D01*
X49567423Y-22522894D01*
X49497106Y-22493768D01*
X49085358Y-22493768D01*
X48704952Y-22651337D01*
X48570058Y-22786231D01*
X43149618Y-22786231D01*
X43077234Y-22771833D01*
X43004850Y-22786231D01*
X43004847Y-22786231D01*
X42790452Y-22828877D01*
X42547330Y-22991326D01*
X42506325Y-23052694D01*
X42021365Y-23537654D01*
X41877512Y-23393801D01*
X41558385Y-23261615D01*
X41426199Y-22942488D01*
X41135048Y-22651337D01*
X40754642Y-22493768D01*
X40342894Y-22493768D01*
X39962488Y-22651337D01*
X39671337Y-22942488D01*
X39513768Y-23322894D01*
X39513768Y-23734642D01*
X39671337Y-24115048D01*
X39962488Y-24406199D01*
X40068236Y-24450001D01*
X34571764Y-24450001D01*
X34677512Y-24406199D01*
X34968663Y-24115048D01*
X35126232Y-23734642D01*
X35126232Y-23322894D01*
X34968663Y-22942488D01*
X34677512Y-22651337D01*
X34297106Y-22493768D01*
X33885358Y-22493768D01*
X33504952Y-22651337D01*
X33370058Y-22786231D01*
X19602953Y-22786231D01*
X19530569Y-22771833D01*
X19458185Y-22786231D01*
X19458182Y-22786231D01*
X19243787Y-22828877D01*
X19000665Y-22991326D01*
X18959660Y-23052694D01*
X17340000Y-24672355D01*
X17340000Y-24536892D01*
X17215163Y-24235507D01*
X16984493Y-24004837D01*
X16683108Y-23880000D01*
X16356892Y-23880000D01*
X16055507Y-24004837D01*
X15824837Y-24235507D01*
X15700000Y-24536892D01*
X15700000Y-24630000D01*
X15656892Y-24630000D01*
X15355507Y-24754837D01*
X15124837Y-24985507D01*
X15000000Y-25286892D01*
X15000000Y-25613108D01*
X15124837Y-25914493D01*
X15355507Y-26145163D01*
X15470116Y-26192635D01*
X14866464Y-26796288D01*
X14805094Y-26837294D01*
X14642645Y-27080417D01*
X14599999Y-27294812D01*
X14599999Y-27294815D01*
X14585601Y-27367199D01*
X14595482Y-27416873D01*
X14071005Y-27941349D01*
X13884493Y-27754837D01*
X13583108Y-27630000D01*
X13256892Y-27630000D01*
X12955507Y-27754837D01*
X12834883Y-27875461D01*
X12840000Y-27863108D01*
X12840000Y-27770000D01*
X12883108Y-27770000D01*
X13184493Y-27645163D01*
X13415163Y-27414493D01*
X13540000Y-27113108D01*
X13540000Y-27020000D01*
X13583108Y-27020000D01*
X13884493Y-26895163D01*
X14115163Y-26664493D01*
X14240000Y-26363108D01*
X14240000Y-26036892D01*
X14115163Y-25735507D01*
X13884493Y-25504837D01*
X13583108Y-25380000D01*
X13256892Y-25380000D01*
X12955507Y-25504837D01*
X12834883Y-25625461D01*
X12840000Y-25613108D01*
X12840000Y-25520000D01*
X12883108Y-25520000D01*
X13184493Y-25395163D01*
X13415163Y-25164493D01*
X13540000Y-24863108D01*
X13540000Y-24536892D01*
X13415163Y-24235507D01*
X13184493Y-24004837D01*
X12883108Y-23880000D01*
X12556892Y-23880000D01*
X12255507Y-24004837D01*
X12024837Y-24235507D01*
X11900000Y-24536892D01*
X11900000Y-24630000D01*
X11856892Y-24630000D01*
X11555507Y-24754837D01*
X11324837Y-24985507D01*
X11200000Y-25286892D01*
X735000Y-25286892D01*
X735000Y-23289880D01*
X1374483Y-23929363D01*
X3078041Y-24635000D01*
X4921959Y-24635000D01*
X6625517Y-23929363D01*
X7929363Y-22625517D01*
X8455675Y-21354887D01*
X10385000Y-21354887D01*
X10385000Y-22045113D01*
X10649138Y-22682799D01*
X11137201Y-23170862D01*
X11774887Y-23435000D01*
X12465113Y-23435000D01*
X13102799Y-23170862D01*
X13590862Y-22682799D01*
X13855000Y-22045113D01*
X13855000Y-21354887D01*
X13590862Y-20717201D01*
X13102799Y-20229138D01*
X12465113Y-19965000D01*
X11774887Y-19965000D01*
X11137201Y-20229138D01*
X10649138Y-20717201D01*
X10385000Y-21354887D01*
X8455675Y-21354887D01*
X8635000Y-20921959D01*
X8635000Y-19078041D01*
X7929363Y-17374483D01*
X7909767Y-17354887D01*
X10385000Y-17354887D01*
X10385000Y-18045113D01*
X10649138Y-18682799D01*
X11137201Y-19170862D01*
X11774887Y-19435000D01*
X12465113Y-19435000D01*
X13102799Y-19170862D01*
X13590862Y-18682799D01*
X13855000Y-18045113D01*
X13855000Y-17354887D01*
X13590862Y-16717201D01*
X13102799Y-16229138D01*
X12465113Y-15965000D01*
X11774887Y-15965000D01*
X11137201Y-16229138D01*
X10649138Y-16717201D01*
X10385000Y-17354887D01*
X7909767Y-17354887D01*
X6625517Y-16070637D01*
X4921959Y-15365000D01*
X3078041Y-15365000D01*
X1374483Y-16070637D01*
X735000Y-16710120D01*
X735000Y-9286892D01*
X11200000Y-9286892D01*
X11200000Y-9613108D01*
X11324837Y-9914493D01*
X11555507Y-10145163D01*
X11856892Y-10270000D01*
X12183108Y-10270000D01*
X12484493Y-10145163D01*
X12605117Y-10024539D01*
X12600000Y-10036892D01*
X12600000Y-10130000D01*
X12556892Y-10130000D01*
X12255507Y-10254837D01*
X12024837Y-10485507D01*
X11900000Y-10786892D01*
X11900000Y-10880000D01*
X11856892Y-10880000D01*
X11555507Y-11004837D01*
X11324837Y-11235507D01*
X11200000Y-11536892D01*
X11200000Y-11863108D01*
X11324837Y-12164493D01*
X11555507Y-12395163D01*
X11856892Y-12520000D01*
X12183108Y-12520000D01*
X12484493Y-12395163D01*
X12605117Y-12274539D01*
X12600000Y-12286892D01*
X12600000Y-12380000D01*
X12556892Y-12380000D01*
X12255507Y-12504837D01*
X12024837Y-12735507D01*
X11900000Y-13036892D01*
X11900000Y-13130000D01*
X11856892Y-13130000D01*
X11555507Y-13254837D01*
X11324837Y-13485507D01*
X11200000Y-13786892D01*
X11200000Y-14113108D01*
X11324837Y-14414493D01*
X11555507Y-14645163D01*
X11856892Y-14770000D01*
X12183108Y-14770000D01*
X12388317Y-14685000D01*
X12600000Y-14685000D01*
X12600000Y-14863108D01*
X12724837Y-15164493D01*
X12955507Y-15395163D01*
X13256892Y-15520000D01*
X13583108Y-15520000D01*
X13884493Y-15395163D01*
X14115163Y-15164493D01*
X14240000Y-14863108D01*
X14240000Y-14536892D01*
X14225576Y-14502069D01*
X15041893Y-13685752D01*
X15000000Y-13786892D01*
X15000000Y-14113108D01*
X15124837Y-14414493D01*
X15355507Y-14645163D01*
X15656892Y-14770000D01*
X15983108Y-14770000D01*
X16284493Y-14645163D01*
X16405117Y-14524539D01*
X16400000Y-14536892D01*
X16400000Y-14863108D01*
X16524837Y-15164493D01*
X16755507Y-15395163D01*
X16900363Y-15455164D01*
X18124671Y-16679473D01*
X18167072Y-16742930D01*
X18230528Y-16785330D01*
X18418463Y-16910905D01*
X18466606Y-16920481D01*
X18640149Y-16955001D01*
X18640153Y-16955001D01*
X18715001Y-16969889D01*
X18789849Y-16955001D01*
X22550638Y-16955001D01*
X22385000Y-17354887D01*
X22385000Y-18045113D01*
X22649138Y-18682799D01*
X23137201Y-19170862D01*
X23774887Y-19435000D01*
X24465113Y-19435000D01*
X25102799Y-19170862D01*
X25590862Y-18682799D01*
X25855000Y-18045113D01*
X25855000Y-17354887D01*
X25689362Y-16955001D01*
X45148841Y-16955001D01*
X45242569Y-17181280D01*
X45533720Y-17472431D01*
X45914126Y-17630000D01*
X46325874Y-17630000D01*
X46706280Y-17472431D01*
X46814585Y-17364126D01*
X50870000Y-17364126D01*
X50870000Y-17775874D01*
X51027569Y-18156280D01*
X51318720Y-18447431D01*
X51699126Y-18605000D01*
X52110874Y-18605000D01*
X52491280Y-18447431D01*
X52540000Y-18398711D01*
X52588720Y-18447431D01*
X52969126Y-18605000D01*
X53380874Y-18605000D01*
X53761280Y-18447431D01*
X53810000Y-18398711D01*
X53858720Y-18447431D01*
X54239126Y-18605000D01*
X54650874Y-18605000D01*
X55031280Y-18447431D01*
X55322431Y-18156280D01*
X55480000Y-17775874D01*
X55480000Y-17364126D01*
X55322431Y-16983720D01*
X55031280Y-16692569D01*
X54650874Y-16535000D01*
X54239126Y-16535000D01*
X53858720Y-16692569D01*
X53810000Y-16741289D01*
X53761280Y-16692569D01*
X53380874Y-16535000D01*
X52969126Y-16535000D01*
X52588720Y-16692569D01*
X52540000Y-16741289D01*
X52491280Y-16692569D01*
X52110874Y-16535000D01*
X51699126Y-16535000D01*
X51318720Y-16692569D01*
X51027569Y-16983720D01*
X50870000Y-17364126D01*
X46814585Y-17364126D01*
X46997431Y-17181280D01*
X47155000Y-16800874D01*
X47155000Y-16389126D01*
X46997431Y-16008720D01*
X46706280Y-15717569D01*
X46325874Y-15560000D01*
X46137618Y-15560000D01*
X46016538Y-15479097D01*
X45794853Y-15435001D01*
X45794848Y-15435001D01*
X45720001Y-15420113D01*
X45645154Y-15435001D01*
X25188315Y-15435001D01*
X25284493Y-15395163D01*
X25515163Y-15164493D01*
X25640000Y-14863108D01*
X25640000Y-14536892D01*
X25515163Y-14235507D01*
X25284493Y-14004837D01*
X24983108Y-13880000D01*
X24656892Y-13880000D01*
X24355507Y-14004837D01*
X24234883Y-14125461D01*
X24240000Y-14113108D01*
X24240000Y-14020000D01*
X24283108Y-14020000D01*
X24584493Y-13895163D01*
X24815163Y-13664493D01*
X24940000Y-13363108D01*
X24940000Y-13270000D01*
X24983108Y-13270000D01*
X25284493Y-13145163D01*
X25515163Y-12914493D01*
X25640000Y-12613108D01*
X25640000Y-12286892D01*
X25593697Y-12175105D01*
X28700000Y-12175105D01*
X28700000Y-12944895D01*
X28994586Y-13656090D01*
X29538910Y-14200414D01*
X30250105Y-14495000D01*
X31019895Y-14495000D01*
X31731090Y-14200414D01*
X32275414Y-13656090D01*
X32570000Y-12944895D01*
X32570000Y-12175105D01*
X67430000Y-12175105D01*
X67430000Y-12944895D01*
X67724586Y-13656090D01*
X68268910Y-14200414D01*
X68980105Y-14495000D01*
X69749895Y-14495000D01*
X70461090Y-14200414D01*
X71005414Y-13656090D01*
X71300000Y-12944895D01*
X71300000Y-12175105D01*
X71005414Y-11463910D01*
X70461090Y-10919586D01*
X69749895Y-10625000D01*
X68980105Y-10625000D01*
X68268910Y-10919586D01*
X67724586Y-11463910D01*
X67430000Y-12175105D01*
X32570000Y-12175105D01*
X32275414Y-11463910D01*
X31731090Y-10919586D01*
X31019895Y-10625000D01*
X30250105Y-10625000D01*
X29538910Y-10919586D01*
X28994586Y-11463910D01*
X28700000Y-12175105D01*
X25593697Y-12175105D01*
X25515163Y-11985507D01*
X25284493Y-11754837D01*
X24983108Y-11630000D01*
X24656892Y-11630000D01*
X24355507Y-11754837D01*
X24234883Y-11875461D01*
X24240000Y-11863108D01*
X24240000Y-11770000D01*
X24283108Y-11770000D01*
X24584493Y-11645163D01*
X24815163Y-11414493D01*
X24940000Y-11113108D01*
X24940000Y-11020000D01*
X24983108Y-11020000D01*
X25284493Y-10895163D01*
X25515163Y-10664493D01*
X25637149Y-10369992D01*
X41527473Y-10369992D01*
X41599857Y-10384390D01*
X41672241Y-10369992D01*
X41672245Y-10369992D01*
X41886640Y-10327346D01*
X42129762Y-10164897D01*
X42170768Y-10103527D01*
X43560528Y-8713768D01*
X47611796Y-8713768D01*
X47671337Y-8857512D01*
X47962488Y-9148663D01*
X48342894Y-9306232D01*
X48754642Y-9306232D01*
X49135048Y-9148663D01*
X49426199Y-8857512D01*
X49558385Y-8538385D01*
X49877512Y-8406199D01*
X50168663Y-8115048D01*
X50326232Y-7734642D01*
X50326232Y-7322894D01*
X50168663Y-6942488D01*
X49877512Y-6651337D01*
X49567423Y-6522894D01*
X52313768Y-6522894D01*
X52313768Y-6934642D01*
X52471337Y-7315048D01*
X52762488Y-7606199D01*
X53081615Y-7738385D01*
X53213801Y-8057512D01*
X53504952Y-8348663D01*
X53885358Y-8506232D01*
X54297106Y-8506232D01*
X54677512Y-8348663D01*
X54968663Y-8057512D01*
X55117622Y-7697892D01*
X56458818Y-7697892D01*
X56458818Y-8109640D01*
X56616387Y-8490046D01*
X56907538Y-8781197D01*
X57226665Y-8913383D01*
X57358851Y-9232510D01*
X57650002Y-9523661D01*
X58030408Y-9681230D01*
X58442156Y-9681230D01*
X58822562Y-9523661D01*
X59113713Y-9232510D01*
X59271282Y-8852104D01*
X59271282Y-8440356D01*
X59113713Y-8059950D01*
X58822562Y-7768799D01*
X58503435Y-7636613D01*
X58373490Y-7322894D01*
X61913768Y-7322894D01*
X61913768Y-7734642D01*
X62071337Y-8115048D01*
X62362488Y-8406199D01*
X62681615Y-8538385D01*
X62813801Y-8857512D01*
X63104952Y-9148663D01*
X63485358Y-9306232D01*
X63897106Y-9306232D01*
X64277512Y-9148663D01*
X64568364Y-8857812D01*
X64718717Y-9008165D01*
X65099123Y-9165734D01*
X65510871Y-9165734D01*
X65891277Y-9008165D01*
X66182428Y-8717014D01*
X66339997Y-8336608D01*
X66339997Y-7924860D01*
X66182428Y-7544454D01*
X65891277Y-7253303D01*
X65510871Y-7095734D01*
X65351740Y-7095734D01*
X65324674Y-7030390D01*
X65033523Y-6739239D01*
X64653117Y-6581670D01*
X64241369Y-6581670D01*
X63860963Y-6739239D01*
X63741957Y-6858246D01*
X63535048Y-6651337D01*
X63154642Y-6493768D01*
X62742894Y-6493768D01*
X62362488Y-6651337D01*
X62071337Y-6942488D01*
X61913768Y-7322894D01*
X58373490Y-7322894D01*
X58371249Y-7317486D01*
X58080098Y-7026335D01*
X57699692Y-6868766D01*
X57287944Y-6868766D01*
X56907538Y-7026335D01*
X56616387Y-7317486D01*
X56458818Y-7697892D01*
X55117622Y-7697892D01*
X55126232Y-7677106D01*
X55126232Y-7265358D01*
X54968663Y-6884952D01*
X54677512Y-6593801D01*
X54358385Y-6461615D01*
X54226199Y-6142488D01*
X53935048Y-5851337D01*
X53554642Y-5693768D01*
X53142894Y-5693768D01*
X52762488Y-5851337D01*
X52471337Y-6142488D01*
X52313768Y-6522894D01*
X49567423Y-6522894D01*
X49497106Y-6493768D01*
X49085358Y-6493768D01*
X48704952Y-6651337D01*
X48570058Y-6786231D01*
X43149618Y-6786231D01*
X43077234Y-6771833D01*
X43004850Y-6786231D01*
X43004847Y-6786231D01*
X42790452Y-6828877D01*
X42547330Y-6991326D01*
X42506325Y-7052694D01*
X42021365Y-7537654D01*
X41877512Y-7393801D01*
X41558385Y-7261615D01*
X41426199Y-6942488D01*
X41135048Y-6651337D01*
X40754642Y-6493768D01*
X40342894Y-6493768D01*
X39962488Y-6651337D01*
X39671337Y-6942488D01*
X39513768Y-7322894D01*
X39513768Y-7734642D01*
X39671337Y-8115048D01*
X39962488Y-8406199D01*
X40068236Y-8450001D01*
X34571764Y-8450001D01*
X34677512Y-8406199D01*
X34968663Y-8115048D01*
X35126232Y-7734642D01*
X35126232Y-7322894D01*
X34968663Y-6942488D01*
X34677512Y-6651337D01*
X34297106Y-6493768D01*
X33885358Y-6493768D01*
X33504952Y-6651337D01*
X33370058Y-6786231D01*
X19602953Y-6786231D01*
X19530569Y-6771833D01*
X19458185Y-6786231D01*
X19458182Y-6786231D01*
X19243787Y-6828877D01*
X19000665Y-6991326D01*
X18959660Y-7052694D01*
X17340000Y-8672355D01*
X17340000Y-8536892D01*
X17215163Y-8235507D01*
X16984493Y-8004837D01*
X16683108Y-7880000D01*
X16356892Y-7880000D01*
X16055507Y-8004837D01*
X15824837Y-8235507D01*
X15700000Y-8536892D01*
X15700000Y-8630000D01*
X15656892Y-8630000D01*
X15355507Y-8754837D01*
X15124837Y-8985507D01*
X15000000Y-9286892D01*
X15000000Y-9613108D01*
X15124837Y-9914493D01*
X15355507Y-10145163D01*
X15470116Y-10192635D01*
X14866464Y-10796288D01*
X14805094Y-10837294D01*
X14642645Y-11080417D01*
X14599999Y-11294812D01*
X14599999Y-11294815D01*
X14585601Y-11367199D01*
X14595482Y-11416873D01*
X14071005Y-11941349D01*
X13884493Y-11754837D01*
X13583108Y-11630000D01*
X13256892Y-11630000D01*
X12955507Y-11754837D01*
X12834883Y-11875461D01*
X12840000Y-11863108D01*
X12840000Y-11770000D01*
X12883108Y-11770000D01*
X13184493Y-11645163D01*
X13415163Y-11414493D01*
X13540000Y-11113108D01*
X13540000Y-11020000D01*
X13583108Y-11020000D01*
X13884493Y-10895163D01*
X14115163Y-10664493D01*
X14240000Y-10363108D01*
X14240000Y-10036892D01*
X14115163Y-9735507D01*
X13884493Y-9504837D01*
X13583108Y-9380000D01*
X13256892Y-9380000D01*
X12955507Y-9504837D01*
X12834883Y-9625461D01*
X12840000Y-9613108D01*
X12840000Y-9520000D01*
X12883108Y-9520000D01*
X13184493Y-9395163D01*
X13415163Y-9164493D01*
X13540000Y-8863108D01*
X13540000Y-8536892D01*
X13415163Y-8235507D01*
X13184493Y-8004837D01*
X12883108Y-7880000D01*
X12556892Y-7880000D01*
X12255507Y-8004837D01*
X12024837Y-8235507D01*
X11900000Y-8536892D01*
X11900000Y-8630000D01*
X11856892Y-8630000D01*
X11555507Y-8754837D01*
X11324837Y-8985507D01*
X11200000Y-9286892D01*
X735000Y-9286892D01*
X735000Y-5354887D01*
X10385000Y-5354887D01*
X10385000Y-6045113D01*
X10649138Y-6682799D01*
X11137201Y-7170862D01*
X11774887Y-7435000D01*
X12465113Y-7435000D01*
X13102799Y-7170862D01*
X13590862Y-6682799D01*
X13855000Y-6045113D01*
X13855000Y-5354887D01*
X13590862Y-4717201D01*
X13102799Y-4229138D01*
X12465113Y-3965000D01*
X11774887Y-3965000D01*
X11137201Y-4229138D01*
X10649138Y-4717201D01*
X10385000Y-5354887D01*
X735000Y-5354887D01*
X735000Y-3241089D01*
X800751Y-2654908D01*
X981140Y-2136900D01*
X1271808Y-1671734D01*
X1658308Y-1282526D01*
X2121438Y-988614D01*
X2638164Y-804617D01*
X3221984Y-735000D01*
X75608911Y-735000D01*
X76195092Y-800751D01*
X76195092Y-800751D01*
G37*
X76195092Y-800751D02*
X76713100Y-981140D01*
X77178266Y-1271808D01*
X77567474Y-1658308D01*
X77861386Y-2121438D01*
X78045383Y-2638164D01*
X78115000Y-3221984D01*
X78115000Y-16710120D01*
X77475517Y-16070637D01*
X75771959Y-15365000D01*
X73928041Y-15365000D01*
X72224483Y-16070637D01*
X70920637Y-17374483D01*
X70215000Y-19078041D01*
X70215000Y-20921959D01*
X70920637Y-22625517D01*
X72224483Y-23929363D01*
X73928041Y-24635000D01*
X75771959Y-24635000D01*
X77475517Y-23929363D01*
X78115000Y-23289880D01*
X78115001Y-48510121D01*
X77475517Y-47870637D01*
X75771959Y-47165000D01*
X73928041Y-47165000D01*
X72224483Y-47870637D01*
X70920637Y-49174483D01*
X70215000Y-50878041D01*
X70215000Y-52721959D01*
X70920637Y-54425517D01*
X72224483Y-55729363D01*
X73928041Y-56435000D01*
X75771959Y-56435000D01*
X77475517Y-55729363D01*
X78115001Y-55089879D01*
X78115001Y-68672388D01*
X78122947Y-68712336D01*
X78073780Y-69150669D01*
X77891548Y-69673969D01*
X77597909Y-70143890D01*
X77207451Y-70537083D01*
X76739593Y-70833995D01*
X76217576Y-71019877D01*
X75766155Y-71073706D01*
X75722388Y-71065000D01*
X3241089Y-71065000D01*
X2654908Y-70999249D01*
X2136899Y-70818859D01*
X1671734Y-70528192D01*
X1282524Y-70141689D01*
X988614Y-69678562D01*
X804617Y-69161837D01*
X735000Y-68578016D01*
X735000Y-65354887D01*
X10385000Y-65354887D01*
X10385000Y-66045113D01*
X10649138Y-66682799D01*
X11137201Y-67170862D01*
X11774887Y-67435000D01*
X12465113Y-67435000D01*
X13102799Y-67170862D01*
X13590862Y-66682799D01*
X13855000Y-66045113D01*
X13855000Y-65354887D01*
X13590862Y-64717201D01*
X13102799Y-64229138D01*
X12465113Y-63965000D01*
X11774887Y-63965000D01*
X11137201Y-64229138D01*
X10649138Y-64717201D01*
X10385000Y-65354887D01*
X735000Y-65354887D01*
X735000Y-57286892D01*
X11200000Y-57286892D01*
X11200000Y-57613108D01*
X11324837Y-57914493D01*
X11555507Y-58145163D01*
X11856892Y-58270000D01*
X12183108Y-58270000D01*
X12484493Y-58145163D01*
X12605117Y-58024539D01*
X12600000Y-58036892D01*
X12600000Y-58130000D01*
X12556892Y-58130000D01*
X12255507Y-58254837D01*
X12024837Y-58485507D01*
X11900000Y-58786892D01*
X11900000Y-58880000D01*
X11856892Y-58880000D01*
X11555507Y-59004837D01*
X11324837Y-59235507D01*
X11200000Y-59536892D01*
X11200000Y-59863108D01*
X11324837Y-60164493D01*
X11555507Y-60395163D01*
X11856892Y-60520000D01*
X12183108Y-60520000D01*
X12484493Y-60395163D01*
X12605117Y-60274539D01*
X12600000Y-60286892D01*
X12600000Y-60380000D01*
X12556892Y-60380000D01*
X12255507Y-60504837D01*
X12024837Y-60735507D01*
X11900000Y-61036892D01*
X11900000Y-61130000D01*
X11856892Y-61130000D01*
X11555507Y-61254837D01*
X11324837Y-61485507D01*
X11200000Y-61786892D01*
X11200000Y-62113108D01*
X11324837Y-62414493D01*
X11555507Y-62645163D01*
X11856892Y-62770000D01*
X12183108Y-62770000D01*
X12388317Y-62685000D01*
X12600000Y-62685000D01*
X12600000Y-62863108D01*
X12724837Y-63164493D01*
X12955507Y-63395163D01*
X13256892Y-63520000D01*
X13583108Y-63520000D01*
X13884493Y-63395163D01*
X14115163Y-63164493D01*
X14240000Y-62863108D01*
X14240000Y-62536892D01*
X14225576Y-62502069D01*
X15041893Y-61685752D01*
X15000000Y-61786892D01*
X15000000Y-62113108D01*
X15124837Y-62414493D01*
X15355507Y-62645163D01*
X15656892Y-62770000D01*
X15983108Y-62770000D01*
X16284493Y-62645163D01*
X16405117Y-62524539D01*
X16400000Y-62536892D01*
X16400000Y-62863108D01*
X16524837Y-63164493D01*
X16755507Y-63395163D01*
X16900363Y-63455164D01*
X18124671Y-64679473D01*
X18167072Y-64742930D01*
X18230528Y-64785330D01*
X18418463Y-64910905D01*
X18466606Y-64920481D01*
X18640149Y-64955001D01*
X18640153Y-64955001D01*
X18715001Y-64969889D01*
X18789849Y-64955001D01*
X22550638Y-64955001D01*
X22385000Y-65354887D01*
X22385000Y-66045113D01*
X22649138Y-66682799D01*
X23137201Y-67170862D01*
X23774887Y-67435000D01*
X24465113Y-67435000D01*
X25102799Y-67170862D01*
X25590862Y-66682799D01*
X25855000Y-66045113D01*
X25855000Y-65354887D01*
X25689362Y-64955001D01*
X45148841Y-64955001D01*
X45242569Y-65181280D01*
X45533720Y-65472431D01*
X45914126Y-65630000D01*
X46325874Y-65630000D01*
X46706280Y-65472431D01*
X46939585Y-65239126D01*
X50870000Y-65239126D01*
X50870000Y-65650874D01*
X51027569Y-66031280D01*
X51318720Y-66322431D01*
X51699126Y-66480000D01*
X52110874Y-66480000D01*
X52491280Y-66322431D01*
X52540000Y-66273711D01*
X52588720Y-66322431D01*
X52969126Y-66480000D01*
X53380874Y-66480000D01*
X53761280Y-66322431D01*
X53797500Y-66286211D01*
X53833720Y-66322431D01*
X54214126Y-66480000D01*
X54625874Y-66480000D01*
X55006280Y-66322431D01*
X55297431Y-66031280D01*
X55455000Y-65650874D01*
X55455000Y-65239126D01*
X55297431Y-64858720D01*
X55006280Y-64567569D01*
X54625874Y-64410000D01*
X54214126Y-64410000D01*
X53833720Y-64567569D01*
X53797500Y-64603789D01*
X53761280Y-64567569D01*
X53380874Y-64410000D01*
X52969126Y-64410000D01*
X52588720Y-64567569D01*
X52540000Y-64616289D01*
X52491280Y-64567569D01*
X52110874Y-64410000D01*
X51699126Y-64410000D01*
X51318720Y-64567569D01*
X51027569Y-64858720D01*
X50870000Y-65239126D01*
X46939585Y-65239126D01*
X46997431Y-65181280D01*
X47155000Y-64800874D01*
X47155000Y-64389126D01*
X46997431Y-64008720D01*
X46706280Y-63717569D01*
X46325874Y-63560000D01*
X46137618Y-63560000D01*
X46016538Y-63479097D01*
X45794853Y-63435001D01*
X45794848Y-63435001D01*
X45720001Y-63420113D01*
X45645154Y-63435001D01*
X25188315Y-63435001D01*
X25284493Y-63395163D01*
X25515163Y-63164493D01*
X25640000Y-62863108D01*
X25640000Y-62536892D01*
X25515163Y-62235507D01*
X25284493Y-62004837D01*
X24983108Y-61880000D01*
X24656892Y-61880000D01*
X24355507Y-62004837D01*
X24234883Y-62125461D01*
X24240000Y-62113108D01*
X24240000Y-62020000D01*
X24283108Y-62020000D01*
X24584493Y-61895163D01*
X24815163Y-61664493D01*
X24940000Y-61363108D01*
X24940000Y-61270000D01*
X24983108Y-61270000D01*
X25284493Y-61145163D01*
X25515163Y-60914493D01*
X25640000Y-60613108D01*
X25640000Y-60286892D01*
X25593697Y-60175105D01*
X28700000Y-60175105D01*
X28700000Y-60944895D01*
X28994586Y-61656090D01*
X29538910Y-62200414D01*
X30250105Y-62495000D01*
X31019895Y-62495000D01*
X31731090Y-62200414D01*
X32275414Y-61656090D01*
X32570000Y-60944895D01*
X32570000Y-60175105D01*
X32275414Y-59463910D01*
X31731090Y-58919586D01*
X31019895Y-58625000D01*
X30250105Y-58625000D01*
X29538910Y-58919586D01*
X28994586Y-59463910D01*
X28700000Y-60175105D01*
X25593697Y-60175105D01*
X25515163Y-59985507D01*
X25284493Y-59754837D01*
X24983108Y-59630000D01*
X24656892Y-59630000D01*
X24355507Y-59754837D01*
X24234883Y-59875461D01*
X24240000Y-59863108D01*
X24240000Y-59770000D01*
X24283108Y-59770000D01*
X24584493Y-59645163D01*
X24815163Y-59414493D01*
X24940000Y-59113108D01*
X24940000Y-59020000D01*
X24983108Y-59020000D01*
X25284493Y-58895163D01*
X25515163Y-58664493D01*
X25637149Y-58369992D01*
X41527473Y-58369992D01*
X41599857Y-58384390D01*
X41672241Y-58369992D01*
X41672245Y-58369992D01*
X41886640Y-58327346D01*
X42129762Y-58164897D01*
X42170768Y-58103527D01*
X43560528Y-56713768D01*
X47611796Y-56713768D01*
X47671337Y-56857512D01*
X47962488Y-57148663D01*
X48342894Y-57306232D01*
X48754642Y-57306232D01*
X49135048Y-57148663D01*
X49426199Y-56857512D01*
X49558385Y-56538385D01*
X49877512Y-56406199D01*
X50168663Y-56115048D01*
X50326232Y-55734642D01*
X50326232Y-55322894D01*
X50168663Y-54942488D01*
X49877512Y-54651337D01*
X49567423Y-54522894D01*
X52313768Y-54522894D01*
X52313768Y-54934642D01*
X52471337Y-55315048D01*
X52762488Y-55606199D01*
X53081615Y-55738385D01*
X53213801Y-56057512D01*
X53504952Y-56348663D01*
X53885358Y-56506232D01*
X54297106Y-56506232D01*
X54677512Y-56348663D01*
X54968663Y-56057512D01*
X55126232Y-55677106D01*
X55126232Y-55265358D01*
X54968663Y-54884952D01*
X54677512Y-54593801D01*
X54358385Y-54461615D01*
X54226199Y-54142488D01*
X53935048Y-53851337D01*
X53554642Y-53693768D01*
X53142894Y-53693768D01*
X52762488Y-53851337D01*
X52471337Y-54142488D01*
X52313768Y-54522894D01*
X49567423Y-54522894D01*
X49497106Y-54493768D01*
X49085358Y-54493768D01*
X48704952Y-54651337D01*
X48570058Y-54786231D01*
X43149618Y-54786231D01*
X43077234Y-54771833D01*
X43004850Y-54786231D01*
X43004847Y-54786231D01*
X42790452Y-54828877D01*
X42547330Y-54991326D01*
X42506325Y-55052694D01*
X42021365Y-55537654D01*
X41877512Y-55393801D01*
X41558385Y-55261615D01*
X41426199Y-54942488D01*
X41135048Y-54651337D01*
X40754642Y-54493768D01*
X40342894Y-54493768D01*
X39962488Y-54651337D01*
X39671337Y-54942488D01*
X39513768Y-55322894D01*
X39513768Y-55734642D01*
X39671337Y-56115048D01*
X39962488Y-56406199D01*
X40068236Y-56450001D01*
X34571764Y-56450001D01*
X34677512Y-56406199D01*
X34968663Y-56115048D01*
X35126232Y-55734642D01*
X35126232Y-55322894D01*
X34968663Y-54942488D01*
X34677512Y-54651337D01*
X34297106Y-54493768D01*
X33885358Y-54493768D01*
X33504952Y-54651337D01*
X33370058Y-54786231D01*
X19602953Y-54786231D01*
X19530569Y-54771833D01*
X19458185Y-54786231D01*
X19458182Y-54786231D01*
X19243787Y-54828877D01*
X19000665Y-54991326D01*
X18959660Y-55052694D01*
X17340000Y-56672355D01*
X17340000Y-56536892D01*
X17215163Y-56235507D01*
X16984493Y-56004837D01*
X16683108Y-55880000D01*
X16356892Y-55880000D01*
X16055507Y-56004837D01*
X15824837Y-56235507D01*
X15700000Y-56536892D01*
X15700000Y-56630000D01*
X15656892Y-56630000D01*
X15355507Y-56754837D01*
X15124837Y-56985507D01*
X15000000Y-57286892D01*
X15000000Y-57613108D01*
X15124837Y-57914493D01*
X15355507Y-58145163D01*
X15470116Y-58192635D01*
X14866464Y-58796288D01*
X14805094Y-58837294D01*
X14642645Y-59080417D01*
X14599999Y-59294812D01*
X14599999Y-59294815D01*
X14585601Y-59367199D01*
X14595482Y-59416873D01*
X14071005Y-59941349D01*
X13884493Y-59754837D01*
X13583108Y-59630000D01*
X13256892Y-59630000D01*
X12955507Y-59754837D01*
X12834883Y-59875461D01*
X12840000Y-59863108D01*
X12840000Y-59770000D01*
X12883108Y-59770000D01*
X13184493Y-59645163D01*
X13415163Y-59414493D01*
X13540000Y-59113108D01*
X13540000Y-59020000D01*
X13583108Y-59020000D01*
X13884493Y-58895163D01*
X14115163Y-58664493D01*
X14240000Y-58363108D01*
X14240000Y-58036892D01*
X14115163Y-57735507D01*
X13884493Y-57504837D01*
X13583108Y-57380000D01*
X13256892Y-57380000D01*
X12955507Y-57504837D01*
X12834883Y-57625461D01*
X12840000Y-57613108D01*
X12840000Y-57520000D01*
X12883108Y-57520000D01*
X13184493Y-57395163D01*
X13415163Y-57164493D01*
X13540000Y-56863108D01*
X13540000Y-56536892D01*
X13415163Y-56235507D01*
X13184493Y-56004837D01*
X12883108Y-55880000D01*
X12556892Y-55880000D01*
X12255507Y-56004837D01*
X12024837Y-56235507D01*
X11900000Y-56536892D01*
X11900000Y-56630000D01*
X11856892Y-56630000D01*
X11555507Y-56754837D01*
X11324837Y-56985507D01*
X11200000Y-57286892D01*
X735000Y-57286892D01*
X735000Y-55089880D01*
X1374483Y-55729363D01*
X3078041Y-56435000D01*
X4921959Y-56435000D01*
X6625517Y-55729363D01*
X7929363Y-54425517D01*
X8372832Y-53354887D01*
X10385000Y-53354887D01*
X10385000Y-54045113D01*
X10649138Y-54682799D01*
X11137201Y-55170862D01*
X11774887Y-55435000D01*
X12465113Y-55435000D01*
X13102799Y-55170862D01*
X13590862Y-54682799D01*
X13855000Y-54045113D01*
X13855000Y-53354887D01*
X13590862Y-52717201D01*
X13102799Y-52229138D01*
X12465113Y-51965000D01*
X11774887Y-51965000D01*
X11137201Y-52229138D01*
X10649138Y-52717201D01*
X10385000Y-53354887D01*
X8372832Y-53354887D01*
X8635000Y-52721959D01*
X8635000Y-50878041D01*
X8004089Y-49354887D01*
X10385000Y-49354887D01*
X10385000Y-50045113D01*
X10649138Y-50682799D01*
X11137201Y-51170862D01*
X11774887Y-51435000D01*
X12465113Y-51435000D01*
X13102799Y-51170862D01*
X13590862Y-50682799D01*
X13855000Y-50045113D01*
X13855000Y-49354887D01*
X13590862Y-48717201D01*
X13102799Y-48229138D01*
X12465113Y-47965000D01*
X11774887Y-47965000D01*
X11137201Y-48229138D01*
X10649138Y-48717201D01*
X10385000Y-49354887D01*
X8004089Y-49354887D01*
X7929363Y-49174483D01*
X6625517Y-47870637D01*
X4921959Y-47165000D01*
X3078041Y-47165000D01*
X1374483Y-47870637D01*
X735000Y-48510120D01*
X735000Y-41286892D01*
X11200000Y-41286892D01*
X11200000Y-41613108D01*
X11324837Y-41914493D01*
X11555507Y-42145163D01*
X11856892Y-42270000D01*
X12183108Y-42270000D01*
X12484493Y-42145163D01*
X12605117Y-42024539D01*
X12600000Y-42036892D01*
X12600000Y-42130000D01*
X12556892Y-42130000D01*
X12255507Y-42254837D01*
X12024837Y-42485507D01*
X11900000Y-42786892D01*
X11900000Y-42880000D01*
X11856892Y-42880000D01*
X11555507Y-43004837D01*
X11324837Y-43235507D01*
X11200000Y-43536892D01*
X11200000Y-43863108D01*
X11324837Y-44164493D01*
X11555507Y-44395163D01*
X11856892Y-44520000D01*
X12183108Y-44520000D01*
X12484493Y-44395163D01*
X12605117Y-44274539D01*
X12600000Y-44286892D01*
X12600000Y-44380000D01*
X12556892Y-44380000D01*
X12255507Y-44504837D01*
X12024837Y-44735507D01*
X11900000Y-45036892D01*
X11900000Y-45130000D01*
X11856892Y-45130000D01*
X11555507Y-45254837D01*
X11324837Y-45485507D01*
X11200000Y-45786892D01*
X11200000Y-46113108D01*
X11324837Y-46414493D01*
X11555507Y-46645163D01*
X11856892Y-46770000D01*
X12183108Y-46770000D01*
X12388317Y-46685000D01*
X12600000Y-46685000D01*
X12600000Y-46863108D01*
X12724837Y-47164493D01*
X12955507Y-47395163D01*
X13256892Y-47520000D01*
X13583108Y-47520000D01*
X13884493Y-47395163D01*
X14115163Y-47164493D01*
X14240000Y-46863108D01*
X14240000Y-46536892D01*
X14225576Y-46502069D01*
X15041893Y-45685752D01*
X15000000Y-45786892D01*
X15000000Y-46113108D01*
X15124837Y-46414493D01*
X15355507Y-46645163D01*
X15656892Y-46770000D01*
X15983108Y-46770000D01*
X16284493Y-46645163D01*
X16405117Y-46524539D01*
X16400000Y-46536892D01*
X16400000Y-46863108D01*
X16524837Y-47164493D01*
X16755507Y-47395163D01*
X16900363Y-47455164D01*
X18124671Y-48679473D01*
X18167072Y-48742930D01*
X18230528Y-48785330D01*
X18418463Y-48910905D01*
X18466606Y-48920481D01*
X18640149Y-48955001D01*
X18640153Y-48955001D01*
X18715001Y-48969889D01*
X18789849Y-48955001D01*
X22550638Y-48955001D01*
X22385000Y-49354887D01*
X22385000Y-50045113D01*
X22649138Y-50682799D01*
X23137201Y-51170862D01*
X23774887Y-51435000D01*
X24465113Y-51435000D01*
X25102799Y-51170862D01*
X25590862Y-50682799D01*
X25855000Y-50045113D01*
X25855000Y-49354887D01*
X25689362Y-48955001D01*
X45148841Y-48955001D01*
X45242569Y-49181280D01*
X45533720Y-49472431D01*
X45914126Y-49630000D01*
X46325874Y-49630000D01*
X46706280Y-49472431D01*
X46939585Y-49239126D01*
X50870000Y-49239126D01*
X50870000Y-49650874D01*
X51027569Y-50031280D01*
X51318720Y-50322431D01*
X51699126Y-50480000D01*
X52110874Y-50480000D01*
X52491280Y-50322431D01*
X52540000Y-50273711D01*
X52588720Y-50322431D01*
X52969126Y-50480000D01*
X53380874Y-50480000D01*
X53761280Y-50322431D01*
X53797500Y-50286211D01*
X53833720Y-50322431D01*
X54214126Y-50480000D01*
X54625874Y-50480000D01*
X55006280Y-50322431D01*
X55297431Y-50031280D01*
X55455000Y-49650874D01*
X55455000Y-49239126D01*
X55297431Y-48858720D01*
X55006280Y-48567569D01*
X54625874Y-48410000D01*
X54214126Y-48410000D01*
X53833720Y-48567569D01*
X53797500Y-48603789D01*
X53761280Y-48567569D01*
X53380874Y-48410000D01*
X52969126Y-48410000D01*
X52588720Y-48567569D01*
X52540000Y-48616289D01*
X52491280Y-48567569D01*
X52110874Y-48410000D01*
X51699126Y-48410000D01*
X51318720Y-48567569D01*
X51027569Y-48858720D01*
X50870000Y-49239126D01*
X46939585Y-49239126D01*
X46997431Y-49181280D01*
X47155000Y-48800874D01*
X47155000Y-48389126D01*
X46997431Y-48008720D01*
X46706280Y-47717569D01*
X46325874Y-47560000D01*
X46137618Y-47560000D01*
X46016538Y-47479097D01*
X45794853Y-47435001D01*
X45794848Y-47435001D01*
X45720001Y-47420113D01*
X45645154Y-47435001D01*
X25188315Y-47435001D01*
X25284493Y-47395163D01*
X25515163Y-47164493D01*
X25640000Y-46863108D01*
X25640000Y-46536892D01*
X25515163Y-46235507D01*
X25284493Y-46004837D01*
X24983108Y-45880000D01*
X24656892Y-45880000D01*
X24355507Y-46004837D01*
X24234883Y-46125461D01*
X24240000Y-46113108D01*
X24240000Y-46020000D01*
X24283108Y-46020000D01*
X24584493Y-45895163D01*
X24815163Y-45664493D01*
X24940000Y-45363108D01*
X24940000Y-45270000D01*
X24983108Y-45270000D01*
X25284493Y-45145163D01*
X25515163Y-44914493D01*
X25640000Y-44613108D01*
X25640000Y-44286892D01*
X25593697Y-44175105D01*
X28700000Y-44175105D01*
X28700000Y-44944895D01*
X28994586Y-45656090D01*
X29538910Y-46200414D01*
X30250105Y-46495000D01*
X31019895Y-46495000D01*
X31731090Y-46200414D01*
X32275414Y-45656090D01*
X32570000Y-44944895D01*
X32570000Y-44175105D01*
X32275414Y-43463910D01*
X31731090Y-42919586D01*
X31019895Y-42625000D01*
X30250105Y-42625000D01*
X29538910Y-42919586D01*
X28994586Y-43463910D01*
X28700000Y-44175105D01*
X25593697Y-44175105D01*
X25515163Y-43985507D01*
X25284493Y-43754837D01*
X24983108Y-43630000D01*
X24656892Y-43630000D01*
X24355507Y-43754837D01*
X24234883Y-43875461D01*
X24240000Y-43863108D01*
X24240000Y-43770000D01*
X24283108Y-43770000D01*
X24584493Y-43645163D01*
X24815163Y-43414493D01*
X24940000Y-43113108D01*
X24940000Y-43020000D01*
X24983108Y-43020000D01*
X25284493Y-42895163D01*
X25515163Y-42664493D01*
X25637149Y-42369992D01*
X41527473Y-42369992D01*
X41599857Y-42384390D01*
X41672241Y-42369992D01*
X41672245Y-42369992D01*
X41886640Y-42327346D01*
X42129762Y-42164897D01*
X42170768Y-42103527D01*
X43560528Y-40713768D01*
X47611796Y-40713768D01*
X47671337Y-40857512D01*
X47962488Y-41148663D01*
X48342894Y-41306232D01*
X48754642Y-41306232D01*
X49135048Y-41148663D01*
X49426199Y-40857512D01*
X49558385Y-40538385D01*
X49877512Y-40406199D01*
X50168663Y-40115048D01*
X50326232Y-39734642D01*
X50326232Y-39322894D01*
X50168663Y-38942488D01*
X49877512Y-38651337D01*
X49567423Y-38522894D01*
X52313768Y-38522894D01*
X52313768Y-38934642D01*
X52471337Y-39315048D01*
X52762488Y-39606199D01*
X53081615Y-39738385D01*
X53213801Y-40057512D01*
X53504952Y-40348663D01*
X53885358Y-40506232D01*
X54297106Y-40506232D01*
X54677512Y-40348663D01*
X54968663Y-40057512D01*
X55126232Y-39677106D01*
X55126232Y-39265358D01*
X54968663Y-38884952D01*
X54677512Y-38593801D01*
X54358385Y-38461615D01*
X54226199Y-38142488D01*
X53935048Y-37851337D01*
X53554642Y-37693768D01*
X53142894Y-37693768D01*
X52762488Y-37851337D01*
X52471337Y-38142488D01*
X52313768Y-38522894D01*
X49567423Y-38522894D01*
X49497106Y-38493768D01*
X49085358Y-38493768D01*
X48704952Y-38651337D01*
X48570058Y-38786231D01*
X43149618Y-38786231D01*
X43077234Y-38771833D01*
X43004850Y-38786231D01*
X43004847Y-38786231D01*
X42790452Y-38828877D01*
X42547330Y-38991326D01*
X42506325Y-39052694D01*
X42021365Y-39537654D01*
X41877512Y-39393801D01*
X41558385Y-39261615D01*
X41426199Y-38942488D01*
X41135048Y-38651337D01*
X40754642Y-38493768D01*
X40342894Y-38493768D01*
X39962488Y-38651337D01*
X39671337Y-38942488D01*
X39513768Y-39322894D01*
X39513768Y-39734642D01*
X39671337Y-40115048D01*
X39962488Y-40406199D01*
X40068236Y-40450001D01*
X34571764Y-40450001D01*
X34677512Y-40406199D01*
X34968663Y-40115048D01*
X35126232Y-39734642D01*
X35126232Y-39322894D01*
X34968663Y-38942488D01*
X34677512Y-38651337D01*
X34297106Y-38493768D01*
X33885358Y-38493768D01*
X33504952Y-38651337D01*
X33370058Y-38786231D01*
X19602953Y-38786231D01*
X19530569Y-38771833D01*
X19458185Y-38786231D01*
X19458182Y-38786231D01*
X19243787Y-38828877D01*
X19000665Y-38991326D01*
X18959660Y-39052694D01*
X17340000Y-40672355D01*
X17340000Y-40536892D01*
X17215163Y-40235507D01*
X16984493Y-40004837D01*
X16683108Y-39880000D01*
X16356892Y-39880000D01*
X16055507Y-40004837D01*
X15824837Y-40235507D01*
X15700000Y-40536892D01*
X15700000Y-40630000D01*
X15656892Y-40630000D01*
X15355507Y-40754837D01*
X15124837Y-40985507D01*
X15000000Y-41286892D01*
X15000000Y-41613108D01*
X15124837Y-41914493D01*
X15355507Y-42145163D01*
X15470116Y-42192635D01*
X14866464Y-42796288D01*
X14805094Y-42837294D01*
X14642645Y-43080417D01*
X14599999Y-43294812D01*
X14599999Y-43294815D01*
X14585601Y-43367199D01*
X14595482Y-43416873D01*
X14071005Y-43941349D01*
X13884493Y-43754837D01*
X13583108Y-43630000D01*
X13256892Y-43630000D01*
X12955507Y-43754837D01*
X12834883Y-43875461D01*
X12840000Y-43863108D01*
X12840000Y-43770000D01*
X12883108Y-43770000D01*
X13184493Y-43645163D01*
X13415163Y-43414493D01*
X13540000Y-43113108D01*
X13540000Y-43020000D01*
X13583108Y-43020000D01*
X13884493Y-42895163D01*
X14115163Y-42664493D01*
X14240000Y-42363108D01*
X14240000Y-42036892D01*
X14115163Y-41735507D01*
X13884493Y-41504837D01*
X13583108Y-41380000D01*
X13256892Y-41380000D01*
X12955507Y-41504837D01*
X12834883Y-41625461D01*
X12840000Y-41613108D01*
X12840000Y-41520000D01*
X12883108Y-41520000D01*
X13184493Y-41395163D01*
X13415163Y-41164493D01*
X13540000Y-40863108D01*
X13540000Y-40536892D01*
X13415163Y-40235507D01*
X13184493Y-40004837D01*
X12883108Y-39880000D01*
X12556892Y-39880000D01*
X12255507Y-40004837D01*
X12024837Y-40235507D01*
X11900000Y-40536892D01*
X11900000Y-40630000D01*
X11856892Y-40630000D01*
X11555507Y-40754837D01*
X11324837Y-40985507D01*
X11200000Y-41286892D01*
X735000Y-41286892D01*
X735000Y-37354887D01*
X10385000Y-37354887D01*
X10385000Y-38045113D01*
X10649138Y-38682799D01*
X11137201Y-39170862D01*
X11774887Y-39435000D01*
X12465113Y-39435000D01*
X13102799Y-39170862D01*
X13590862Y-38682799D01*
X13855000Y-38045113D01*
X13855000Y-37354887D01*
X13590862Y-36717201D01*
X13102799Y-36229138D01*
X12465113Y-35965000D01*
X11774887Y-35965000D01*
X11137201Y-36229138D01*
X10649138Y-36717201D01*
X10385000Y-37354887D01*
X735000Y-37354887D01*
X735000Y-33354887D01*
X10385000Y-33354887D01*
X10385000Y-34045113D01*
X10649138Y-34682799D01*
X11137201Y-35170862D01*
X11774887Y-35435000D01*
X12465113Y-35435000D01*
X13102799Y-35170862D01*
X13590862Y-34682799D01*
X13855000Y-34045113D01*
X13855000Y-33354887D01*
X13590862Y-32717201D01*
X13102799Y-32229138D01*
X12465113Y-31965000D01*
X11774887Y-31965000D01*
X11137201Y-32229138D01*
X10649138Y-32717201D01*
X10385000Y-33354887D01*
X735000Y-33354887D01*
X735000Y-25286892D01*
X11200000Y-25286892D01*
X11200000Y-25613108D01*
X11324837Y-25914493D01*
X11555507Y-26145163D01*
X11856892Y-26270000D01*
X12183108Y-26270000D01*
X12484493Y-26145163D01*
X12605117Y-26024539D01*
X12600000Y-26036892D01*
X12600000Y-26130000D01*
X12556892Y-26130000D01*
X12255507Y-26254837D01*
X12024837Y-26485507D01*
X11900000Y-26786892D01*
X11900000Y-26880000D01*
X11856892Y-26880000D01*
X11555507Y-27004837D01*
X11324837Y-27235507D01*
X11200000Y-27536892D01*
X11200000Y-27863108D01*
X11324837Y-28164493D01*
X11555507Y-28395163D01*
X11856892Y-28520000D01*
X12183108Y-28520000D01*
X12484493Y-28395163D01*
X12605117Y-28274539D01*
X12600000Y-28286892D01*
X12600000Y-28380000D01*
X12556892Y-28380000D01*
X12255507Y-28504837D01*
X12024837Y-28735507D01*
X11900000Y-29036892D01*
X11900000Y-29130000D01*
X11856892Y-29130000D01*
X11555507Y-29254837D01*
X11324837Y-29485507D01*
X11200000Y-29786892D01*
X11200000Y-30113108D01*
X11324837Y-30414493D01*
X11555507Y-30645163D01*
X11856892Y-30770000D01*
X12183108Y-30770000D01*
X12388317Y-30685000D01*
X12600000Y-30685000D01*
X12600000Y-30863108D01*
X12724837Y-31164493D01*
X12955507Y-31395163D01*
X13256892Y-31520000D01*
X13583108Y-31520000D01*
X13884493Y-31395163D01*
X14115163Y-31164493D01*
X14240000Y-30863108D01*
X14240000Y-30536892D01*
X14225576Y-30502069D01*
X15041893Y-29685752D01*
X15000000Y-29786892D01*
X15000000Y-30113108D01*
X15124837Y-30414493D01*
X15355507Y-30645163D01*
X15656892Y-30770000D01*
X15983108Y-30770000D01*
X16284493Y-30645163D01*
X16405117Y-30524539D01*
X16400000Y-30536892D01*
X16400000Y-30863108D01*
X16524837Y-31164493D01*
X16755507Y-31395163D01*
X16900363Y-31455164D01*
X18124671Y-32679473D01*
X18167072Y-32742930D01*
X18230528Y-32785330D01*
X18418463Y-32910905D01*
X18466606Y-32920481D01*
X18640149Y-32955001D01*
X18640153Y-32955001D01*
X18715001Y-32969889D01*
X18789849Y-32955001D01*
X22550638Y-32955001D01*
X22385000Y-33354887D01*
X22385000Y-34045113D01*
X22649138Y-34682799D01*
X23137201Y-35170862D01*
X23774887Y-35435000D01*
X24465113Y-35435000D01*
X25102799Y-35170862D01*
X25590862Y-34682799D01*
X25855000Y-34045113D01*
X25855000Y-33354887D01*
X25689362Y-32955001D01*
X45148841Y-32955001D01*
X45242569Y-33181280D01*
X45533720Y-33472431D01*
X45914126Y-33630000D01*
X46325874Y-33630000D01*
X46706280Y-33472431D01*
X46939585Y-33239126D01*
X50870000Y-33239126D01*
X50870000Y-33650874D01*
X51027569Y-34031280D01*
X51318720Y-34322431D01*
X51699126Y-34480000D01*
X52110874Y-34480000D01*
X52491280Y-34322431D01*
X52540000Y-34273711D01*
X52588720Y-34322431D01*
X52969126Y-34480000D01*
X53380874Y-34480000D01*
X53761280Y-34322431D01*
X53797500Y-34286211D01*
X53833720Y-34322431D01*
X54214126Y-34480000D01*
X54625874Y-34480000D01*
X55006280Y-34322431D01*
X55297431Y-34031280D01*
X55455000Y-33650874D01*
X55455000Y-33239126D01*
X55297431Y-32858720D01*
X55006280Y-32567569D01*
X54625874Y-32410000D01*
X54214126Y-32410000D01*
X53833720Y-32567569D01*
X53797500Y-32603789D01*
X53761280Y-32567569D01*
X53380874Y-32410000D01*
X52969126Y-32410000D01*
X52588720Y-32567569D01*
X52540000Y-32616289D01*
X52491280Y-32567569D01*
X52110874Y-32410000D01*
X51699126Y-32410000D01*
X51318720Y-32567569D01*
X51027569Y-32858720D01*
X50870000Y-33239126D01*
X46939585Y-33239126D01*
X46997431Y-33181280D01*
X47155000Y-32800874D01*
X47155000Y-32389126D01*
X46997431Y-32008720D01*
X46706280Y-31717569D01*
X46325874Y-31560000D01*
X46137618Y-31560000D01*
X46016538Y-31479097D01*
X45794853Y-31435001D01*
X45794848Y-31435001D01*
X45720001Y-31420113D01*
X45645154Y-31435001D01*
X25188315Y-31435001D01*
X25284493Y-31395163D01*
X25515163Y-31164493D01*
X25640000Y-30863108D01*
X25640000Y-30536892D01*
X25515163Y-30235507D01*
X25284493Y-30004837D01*
X24983108Y-29880000D01*
X24656892Y-29880000D01*
X24355507Y-30004837D01*
X24234883Y-30125461D01*
X24240000Y-30113108D01*
X24240000Y-30020000D01*
X24283108Y-30020000D01*
X24584493Y-29895163D01*
X24815163Y-29664493D01*
X24940000Y-29363108D01*
X24940000Y-29270000D01*
X24983108Y-29270000D01*
X25284493Y-29145163D01*
X25515163Y-28914493D01*
X25640000Y-28613108D01*
X25640000Y-28286892D01*
X25593697Y-28175105D01*
X28700000Y-28175105D01*
X28700000Y-28944895D01*
X28994586Y-29656090D01*
X29538910Y-30200414D01*
X30250105Y-30495000D01*
X31019895Y-30495000D01*
X31731090Y-30200414D01*
X32275414Y-29656090D01*
X32570000Y-28944895D01*
X32570000Y-28175105D01*
X32275414Y-27463910D01*
X31731090Y-26919586D01*
X31019895Y-26625000D01*
X30250105Y-26625000D01*
X29538910Y-26919586D01*
X28994586Y-27463910D01*
X28700000Y-28175105D01*
X25593697Y-28175105D01*
X25515163Y-27985507D01*
X25284493Y-27754837D01*
X24983108Y-27630000D01*
X24656892Y-27630000D01*
X24355507Y-27754837D01*
X24234883Y-27875461D01*
X24240000Y-27863108D01*
X24240000Y-27770000D01*
X24283108Y-27770000D01*
X24584493Y-27645163D01*
X24815163Y-27414493D01*
X24940000Y-27113108D01*
X24940000Y-27020000D01*
X24983108Y-27020000D01*
X25284493Y-26895163D01*
X25515163Y-26664493D01*
X25637149Y-26369992D01*
X41527473Y-26369992D01*
X41599857Y-26384390D01*
X41672241Y-26369992D01*
X41672245Y-26369992D01*
X41886640Y-26327346D01*
X42129762Y-26164897D01*
X42170768Y-26103527D01*
X43560528Y-24713768D01*
X47611796Y-24713768D01*
X47671337Y-24857512D01*
X47962488Y-25148663D01*
X48342894Y-25306232D01*
X48754642Y-25306232D01*
X49135048Y-25148663D01*
X49426199Y-24857512D01*
X49558385Y-24538385D01*
X49877512Y-24406199D01*
X50168663Y-24115048D01*
X50326232Y-23734642D01*
X50326232Y-23322894D01*
X50168663Y-22942488D01*
X49877512Y-22651337D01*
X49567423Y-22522894D01*
X52313768Y-22522894D01*
X52313768Y-22934642D01*
X52471337Y-23315048D01*
X52762488Y-23606199D01*
X53081615Y-23738385D01*
X53213801Y-24057512D01*
X53504952Y-24348663D01*
X53885358Y-24506232D01*
X54297106Y-24506232D01*
X54677512Y-24348663D01*
X54968663Y-24057512D01*
X55117622Y-23697892D01*
X56458818Y-23697892D01*
X56458818Y-24109640D01*
X56616387Y-24490046D01*
X56907538Y-24781197D01*
X57226665Y-24913383D01*
X57358851Y-25232510D01*
X57650002Y-25523661D01*
X58030408Y-25681230D01*
X58201284Y-25681230D01*
X58201284Y-32410000D01*
X58049126Y-32410000D01*
X57668720Y-32567569D01*
X57377569Y-32858720D01*
X57220000Y-33239126D01*
X57220000Y-33650874D01*
X57377569Y-34031280D01*
X57668720Y-34322431D01*
X58049126Y-34480000D01*
X58215199Y-34480000D01*
X58740001Y-35004803D01*
X58740001Y-39734601D01*
X58503435Y-39636613D01*
X58371249Y-39317486D01*
X58080098Y-39026335D01*
X57699692Y-38868766D01*
X57287944Y-38868766D01*
X56907538Y-39026335D01*
X56616387Y-39317486D01*
X56458818Y-39697892D01*
X56458818Y-40109640D01*
X56616387Y-40490046D01*
X56907538Y-40781197D01*
X57226665Y-40913383D01*
X57358851Y-41232510D01*
X57650002Y-41523661D01*
X58030408Y-41681230D01*
X58442156Y-41681230D01*
X58740000Y-41557859D01*
X58740000Y-47885198D01*
X58215199Y-48410000D01*
X58049126Y-48410000D01*
X57668720Y-48567569D01*
X57377569Y-48858720D01*
X57220000Y-49239126D01*
X57220000Y-49650874D01*
X57377569Y-50031280D01*
X57668720Y-50322431D01*
X58049126Y-50480000D01*
X58201284Y-50480000D01*
X58201284Y-55147521D01*
X58080098Y-55026335D01*
X57699692Y-54868766D01*
X57287944Y-54868766D01*
X56907538Y-55026335D01*
X56616387Y-55317486D01*
X56458818Y-55697892D01*
X56458818Y-56109640D01*
X56616387Y-56490046D01*
X56907538Y-56781197D01*
X57226665Y-56913383D01*
X57358851Y-57232510D01*
X57650002Y-57523661D01*
X58030408Y-57681230D01*
X58201283Y-57681230D01*
X58201283Y-64410000D01*
X58049126Y-64410000D01*
X57668720Y-64567569D01*
X57377569Y-64858720D01*
X57220000Y-65239126D01*
X57220000Y-65650874D01*
X57377569Y-66031280D01*
X57668720Y-66322431D01*
X58049126Y-66480000D01*
X58460874Y-66480000D01*
X58841280Y-66322431D01*
X58890000Y-66273711D01*
X58938720Y-66322431D01*
X59319126Y-66480000D01*
X59730874Y-66480000D01*
X60111280Y-66322431D01*
X60147500Y-66286211D01*
X60208720Y-66347431D01*
X60589126Y-66505000D01*
X61000874Y-66505000D01*
X61381280Y-66347431D01*
X61430000Y-66298711D01*
X61453720Y-66322431D01*
X61834126Y-66480000D01*
X62245874Y-66480000D01*
X62626280Y-66322431D01*
X62917431Y-66031280D01*
X63075000Y-65650874D01*
X63075000Y-65239126D01*
X62917431Y-64858720D01*
X62626280Y-64567569D01*
X62245874Y-64410000D01*
X61834126Y-64410000D01*
X61453720Y-64567569D01*
X61405000Y-64616289D01*
X61381280Y-64592569D01*
X61000874Y-64435000D01*
X60589126Y-64435000D01*
X60208720Y-64592569D01*
X60172500Y-64628789D01*
X60111280Y-64567569D01*
X59730874Y-64410000D01*
X59721283Y-64410000D01*
X59721283Y-60175105D01*
X67430000Y-60175105D01*
X67430000Y-60944895D01*
X67724586Y-61656090D01*
X68268910Y-62200414D01*
X68980105Y-62495000D01*
X69749895Y-62495000D01*
X70461090Y-62200414D01*
X71005414Y-61656090D01*
X71300000Y-60944895D01*
X71300000Y-60175105D01*
X71005414Y-59463910D01*
X70461090Y-58919586D01*
X69749895Y-58625000D01*
X68980105Y-58625000D01*
X68268910Y-58919586D01*
X67724586Y-59463910D01*
X67430000Y-60175105D01*
X59721283Y-60175105D01*
X59721283Y-55322894D01*
X61913768Y-55322894D01*
X61913768Y-55734642D01*
X62071337Y-56115048D01*
X62362488Y-56406199D01*
X62681615Y-56538385D01*
X62813801Y-56857512D01*
X63104952Y-57148663D01*
X63485358Y-57306232D01*
X63897106Y-57306232D01*
X64277512Y-57148663D01*
X64568364Y-56857812D01*
X64718717Y-57008165D01*
X65099123Y-57165734D01*
X65510871Y-57165734D01*
X65891277Y-57008165D01*
X66182428Y-56717014D01*
X66339997Y-56336608D01*
X66339997Y-55924860D01*
X66182428Y-55544454D01*
X65891277Y-55253303D01*
X65510871Y-55095734D01*
X65351740Y-55095734D01*
X65324674Y-55030390D01*
X65033523Y-54739239D01*
X64653117Y-54581670D01*
X64241369Y-54581670D01*
X63860963Y-54739239D01*
X63741957Y-54858246D01*
X63535048Y-54651337D01*
X63154642Y-54493768D01*
X62742894Y-54493768D01*
X62362488Y-54651337D01*
X62071337Y-54942488D01*
X61913768Y-55322894D01*
X59721283Y-55322894D01*
X59721283Y-50480000D01*
X59730874Y-50480000D01*
X60111280Y-50322431D01*
X60147500Y-50286211D01*
X60208720Y-50347431D01*
X60589126Y-50505000D01*
X61000874Y-50505000D01*
X61381280Y-50347431D01*
X61430000Y-50298711D01*
X61453720Y-50322431D01*
X61834126Y-50480000D01*
X62245874Y-50480000D01*
X62626280Y-50322431D01*
X62917431Y-50031280D01*
X63075000Y-49650874D01*
X63075000Y-49239126D01*
X62917431Y-48858720D01*
X62626280Y-48567569D01*
X62245874Y-48410000D01*
X61834126Y-48410000D01*
X61453720Y-48567569D01*
X61405000Y-48616289D01*
X61381280Y-48592569D01*
X61000874Y-48435000D01*
X60589126Y-48435000D01*
X60208720Y-48592569D01*
X60172500Y-48628789D01*
X60145546Y-48601835D01*
X60215904Y-48496537D01*
X60260000Y-48274852D01*
X60260000Y-48274847D01*
X60274888Y-48200000D01*
X60260000Y-48125153D01*
X60260000Y-44175105D01*
X67430000Y-44175105D01*
X67430000Y-44944895D01*
X67724586Y-45656090D01*
X68268910Y-46200414D01*
X68980105Y-46495000D01*
X69749895Y-46495000D01*
X70461090Y-46200414D01*
X71005414Y-45656090D01*
X71300000Y-44944895D01*
X71300000Y-44175105D01*
X71005414Y-43463910D01*
X70461090Y-42919586D01*
X69749895Y-42625000D01*
X68980105Y-42625000D01*
X68268910Y-42919586D01*
X67724586Y-43463910D01*
X67430000Y-44175105D01*
X60260000Y-44175105D01*
X60260000Y-39322894D01*
X61913768Y-39322894D01*
X61913768Y-39734642D01*
X62071337Y-40115048D01*
X62362488Y-40406199D01*
X62681615Y-40538385D01*
X62813801Y-40857512D01*
X63104952Y-41148663D01*
X63485358Y-41306232D01*
X63897106Y-41306232D01*
X64277512Y-41148663D01*
X64568364Y-40857812D01*
X64718717Y-41008165D01*
X65099123Y-41165734D01*
X65510871Y-41165734D01*
X65891277Y-41008165D01*
X66182428Y-40717014D01*
X66339997Y-40336608D01*
X66339997Y-39924860D01*
X66182428Y-39544454D01*
X65891277Y-39253303D01*
X65510871Y-39095734D01*
X65351740Y-39095734D01*
X65324674Y-39030390D01*
X65033523Y-38739239D01*
X64653117Y-38581670D01*
X64241369Y-38581670D01*
X63860963Y-38739239D01*
X63741957Y-38858246D01*
X63535048Y-38651337D01*
X63154642Y-38493768D01*
X62742894Y-38493768D01*
X62362488Y-38651337D01*
X62071337Y-38942488D01*
X61913768Y-39322894D01*
X60260000Y-39322894D01*
X60260000Y-34764847D01*
X60274888Y-34690000D01*
X60260000Y-34615153D01*
X60260000Y-34615148D01*
X60215904Y-34393463D01*
X60145546Y-34288165D01*
X60147500Y-34286211D01*
X60208720Y-34347431D01*
X60589126Y-34505000D01*
X61000874Y-34505000D01*
X61381280Y-34347431D01*
X61430000Y-34298711D01*
X61453720Y-34322431D01*
X61834126Y-34480000D01*
X62245874Y-34480000D01*
X62626280Y-34322431D01*
X62917431Y-34031280D01*
X63075000Y-33650874D01*
X63075000Y-33239126D01*
X62917431Y-32858720D01*
X62626280Y-32567569D01*
X62245874Y-32410000D01*
X61834126Y-32410000D01*
X61453720Y-32567569D01*
X61405000Y-32616289D01*
X61381280Y-32592569D01*
X61000874Y-32435000D01*
X60589126Y-32435000D01*
X60208720Y-32592569D01*
X60172500Y-32628789D01*
X60111280Y-32567569D01*
X59730874Y-32410000D01*
X59721283Y-32410000D01*
X59721283Y-28175105D01*
X67430000Y-28175105D01*
X67430000Y-28944895D01*
X67724586Y-29656090D01*
X68268910Y-30200414D01*
X68980105Y-30495000D01*
X69749895Y-30495000D01*
X70461090Y-30200414D01*
X71005414Y-29656090D01*
X71300000Y-28944895D01*
X71300000Y-28175105D01*
X71005414Y-27463910D01*
X70461090Y-26919586D01*
X69749895Y-26625000D01*
X68980105Y-26625000D01*
X68268910Y-26919586D01*
X67724586Y-27463910D01*
X67430000Y-28175105D01*
X59721283Y-28175105D01*
X59721283Y-23322894D01*
X61913768Y-23322894D01*
X61913768Y-23734642D01*
X62071337Y-24115048D01*
X62362488Y-24406199D01*
X62681615Y-24538385D01*
X62813801Y-24857512D01*
X63104952Y-25148663D01*
X63485358Y-25306232D01*
X63897106Y-25306232D01*
X64277512Y-25148663D01*
X64568364Y-24857812D01*
X64718717Y-25008165D01*
X65099123Y-25165734D01*
X65510871Y-25165734D01*
X65891277Y-25008165D01*
X66182428Y-24717014D01*
X66339997Y-24336608D01*
X66339997Y-23924860D01*
X66182428Y-23544454D01*
X65891277Y-23253303D01*
X65510871Y-23095734D01*
X65351740Y-23095734D01*
X65324674Y-23030390D01*
X65033523Y-22739239D01*
X64653117Y-22581670D01*
X64241369Y-22581670D01*
X63860963Y-22739239D01*
X63741957Y-22858246D01*
X63535048Y-22651337D01*
X63154642Y-22493768D01*
X62742894Y-22493768D01*
X62362488Y-22651337D01*
X62071337Y-22942488D01*
X61913768Y-23322894D01*
X59721283Y-23322894D01*
X59721283Y-18605000D01*
X59730874Y-18605000D01*
X60111280Y-18447431D01*
X60210530Y-18348181D01*
X60589126Y-18505000D01*
X61000874Y-18505000D01*
X61379470Y-18348181D01*
X61478720Y-18447431D01*
X61859126Y-18605000D01*
X62270874Y-18605000D01*
X62651280Y-18447431D01*
X62942431Y-18156280D01*
X63100000Y-17775874D01*
X63100000Y-17364126D01*
X62942431Y-16983720D01*
X62651280Y-16692569D01*
X62270874Y-16535000D01*
X61859126Y-16535000D01*
X61480530Y-16691819D01*
X61381280Y-16592569D01*
X61000874Y-16435000D01*
X60589126Y-16435000D01*
X60208720Y-16592569D01*
X60109470Y-16691819D01*
X59730874Y-16535000D01*
X59319126Y-16535000D01*
X58938720Y-16692569D01*
X58890000Y-16741289D01*
X58841280Y-16692569D01*
X58460874Y-16535000D01*
X58049126Y-16535000D01*
X57668720Y-16692569D01*
X57377569Y-16983720D01*
X57220000Y-17364126D01*
X57220000Y-17775874D01*
X57377569Y-18156280D01*
X57668720Y-18447431D01*
X58049126Y-18605000D01*
X58201283Y-18605000D01*
X58201283Y-23147520D01*
X58080098Y-23026335D01*
X57699692Y-22868766D01*
X57287944Y-22868766D01*
X56907538Y-23026335D01*
X56616387Y-23317486D01*
X56458818Y-23697892D01*
X55117622Y-23697892D01*
X55126232Y-23677106D01*
X55126232Y-23265358D01*
X54968663Y-22884952D01*
X54677512Y-22593801D01*
X54358385Y-22461615D01*
X54226199Y-22142488D01*
X53935048Y-21851337D01*
X53554642Y-21693768D01*
X53142894Y-21693768D01*
X52762488Y-21851337D01*
X52471337Y-22142488D01*
X52313768Y-22522894D01*
X49567423Y-22522894D01*
X49497106Y-22493768D01*
X49085358Y-22493768D01*
X48704952Y-22651337D01*
X48570058Y-22786231D01*
X43149618Y-22786231D01*
X43077234Y-22771833D01*
X43004850Y-22786231D01*
X43004847Y-22786231D01*
X42790452Y-22828877D01*
X42547330Y-22991326D01*
X42506325Y-23052694D01*
X42021365Y-23537654D01*
X41877512Y-23393801D01*
X41558385Y-23261615D01*
X41426199Y-22942488D01*
X41135048Y-22651337D01*
X40754642Y-22493768D01*
X40342894Y-22493768D01*
X39962488Y-22651337D01*
X39671337Y-22942488D01*
X39513768Y-23322894D01*
X39513768Y-23734642D01*
X39671337Y-24115048D01*
X39962488Y-24406199D01*
X40068236Y-24450001D01*
X34571764Y-24450001D01*
X34677512Y-24406199D01*
X34968663Y-24115048D01*
X35126232Y-23734642D01*
X35126232Y-23322894D01*
X34968663Y-22942488D01*
X34677512Y-22651337D01*
X34297106Y-22493768D01*
X33885358Y-22493768D01*
X33504952Y-22651337D01*
X33370058Y-22786231D01*
X19602953Y-22786231D01*
X19530569Y-22771833D01*
X19458185Y-22786231D01*
X19458182Y-22786231D01*
X19243787Y-22828877D01*
X19000665Y-22991326D01*
X18959660Y-23052694D01*
X17340000Y-24672355D01*
X17340000Y-24536892D01*
X17215163Y-24235507D01*
X16984493Y-24004837D01*
X16683108Y-23880000D01*
X16356892Y-23880000D01*
X16055507Y-24004837D01*
X15824837Y-24235507D01*
X15700000Y-24536892D01*
X15700000Y-24630000D01*
X15656892Y-24630000D01*
X15355507Y-24754837D01*
X15124837Y-24985507D01*
X15000000Y-25286892D01*
X15000000Y-25613108D01*
X15124837Y-25914493D01*
X15355507Y-26145163D01*
X15470116Y-26192635D01*
X14866464Y-26796288D01*
X14805094Y-26837294D01*
X14642645Y-27080417D01*
X14599999Y-27294812D01*
X14599999Y-27294815D01*
X14585601Y-27367199D01*
X14595482Y-27416873D01*
X14071005Y-27941349D01*
X13884493Y-27754837D01*
X13583108Y-27630000D01*
X13256892Y-27630000D01*
X12955507Y-27754837D01*
X12834883Y-27875461D01*
X12840000Y-27863108D01*
X12840000Y-27770000D01*
X12883108Y-27770000D01*
X13184493Y-27645163D01*
X13415163Y-27414493D01*
X13540000Y-27113108D01*
X13540000Y-27020000D01*
X13583108Y-27020000D01*
X13884493Y-26895163D01*
X14115163Y-26664493D01*
X14240000Y-26363108D01*
X14240000Y-26036892D01*
X14115163Y-25735507D01*
X13884493Y-25504837D01*
X13583108Y-25380000D01*
X13256892Y-25380000D01*
X12955507Y-25504837D01*
X12834883Y-25625461D01*
X12840000Y-25613108D01*
X12840000Y-25520000D01*
X12883108Y-25520000D01*
X13184493Y-25395163D01*
X13415163Y-25164493D01*
X13540000Y-24863108D01*
X13540000Y-24536892D01*
X13415163Y-24235507D01*
X13184493Y-24004837D01*
X12883108Y-23880000D01*
X12556892Y-23880000D01*
X12255507Y-24004837D01*
X12024837Y-24235507D01*
X11900000Y-24536892D01*
X11900000Y-24630000D01*
X11856892Y-24630000D01*
X11555507Y-24754837D01*
X11324837Y-24985507D01*
X11200000Y-25286892D01*
X735000Y-25286892D01*
X735000Y-23289880D01*
X1374483Y-23929363D01*
X3078041Y-24635000D01*
X4921959Y-24635000D01*
X6625517Y-23929363D01*
X7929363Y-22625517D01*
X8455675Y-21354887D01*
X10385000Y-21354887D01*
X10385000Y-22045113D01*
X10649138Y-22682799D01*
X11137201Y-23170862D01*
X11774887Y-23435000D01*
X12465113Y-23435000D01*
X13102799Y-23170862D01*
X13590862Y-22682799D01*
X13855000Y-22045113D01*
X13855000Y-21354887D01*
X13590862Y-20717201D01*
X13102799Y-20229138D01*
X12465113Y-19965000D01*
X11774887Y-19965000D01*
X11137201Y-20229138D01*
X10649138Y-20717201D01*
X10385000Y-21354887D01*
X8455675Y-21354887D01*
X8635000Y-20921959D01*
X8635000Y-19078041D01*
X7929363Y-17374483D01*
X7909767Y-17354887D01*
X10385000Y-17354887D01*
X10385000Y-18045113D01*
X10649138Y-18682799D01*
X11137201Y-19170862D01*
X11774887Y-19435000D01*
X12465113Y-19435000D01*
X13102799Y-19170862D01*
X13590862Y-18682799D01*
X13855000Y-18045113D01*
X13855000Y-17354887D01*
X13590862Y-16717201D01*
X13102799Y-16229138D01*
X12465113Y-15965000D01*
X11774887Y-15965000D01*
X11137201Y-16229138D01*
X10649138Y-16717201D01*
X10385000Y-17354887D01*
X7909767Y-17354887D01*
X6625517Y-16070637D01*
X4921959Y-15365000D01*
X3078041Y-15365000D01*
X1374483Y-16070637D01*
X735000Y-16710120D01*
X735000Y-9286892D01*
X11200000Y-9286892D01*
X11200000Y-9613108D01*
X11324837Y-9914493D01*
X11555507Y-10145163D01*
X11856892Y-10270000D01*
X12183108Y-10270000D01*
X12484493Y-10145163D01*
X12605117Y-10024539D01*
X12600000Y-10036892D01*
X12600000Y-10130000D01*
X12556892Y-10130000D01*
X12255507Y-10254837D01*
X12024837Y-10485507D01*
X11900000Y-10786892D01*
X11900000Y-10880000D01*
X11856892Y-10880000D01*
X11555507Y-11004837D01*
X11324837Y-11235507D01*
X11200000Y-11536892D01*
X11200000Y-11863108D01*
X11324837Y-12164493D01*
X11555507Y-12395163D01*
X11856892Y-12520000D01*
X12183108Y-12520000D01*
X12484493Y-12395163D01*
X12605117Y-12274539D01*
X12600000Y-12286892D01*
X12600000Y-12380000D01*
X12556892Y-12380000D01*
X12255507Y-12504837D01*
X12024837Y-12735507D01*
X11900000Y-13036892D01*
X11900000Y-13130000D01*
X11856892Y-13130000D01*
X11555507Y-13254837D01*
X11324837Y-13485507D01*
X11200000Y-13786892D01*
X11200000Y-14113108D01*
X11324837Y-14414493D01*
X11555507Y-14645163D01*
X11856892Y-14770000D01*
X12183108Y-14770000D01*
X12388317Y-14685000D01*
X12600000Y-14685000D01*
X12600000Y-14863108D01*
X12724837Y-15164493D01*
X12955507Y-15395163D01*
X13256892Y-15520000D01*
X13583108Y-15520000D01*
X13884493Y-15395163D01*
X14115163Y-15164493D01*
X14240000Y-14863108D01*
X14240000Y-14536892D01*
X14225576Y-14502069D01*
X15041893Y-13685752D01*
X15000000Y-13786892D01*
X15000000Y-14113108D01*
X15124837Y-14414493D01*
X15355507Y-14645163D01*
X15656892Y-14770000D01*
X15983108Y-14770000D01*
X16284493Y-14645163D01*
X16405117Y-14524539D01*
X16400000Y-14536892D01*
X16400000Y-14863108D01*
X16524837Y-15164493D01*
X16755507Y-15395163D01*
X16900363Y-15455164D01*
X18124671Y-16679473D01*
X18167072Y-16742930D01*
X18230528Y-16785330D01*
X18418463Y-16910905D01*
X18466606Y-16920481D01*
X18640149Y-16955001D01*
X18640153Y-16955001D01*
X18715001Y-16969889D01*
X18789849Y-16955001D01*
X22550638Y-16955001D01*
X22385000Y-17354887D01*
X22385000Y-18045113D01*
X22649138Y-18682799D01*
X23137201Y-19170862D01*
X23774887Y-19435000D01*
X24465113Y-19435000D01*
X25102799Y-19170862D01*
X25590862Y-18682799D01*
X25855000Y-18045113D01*
X25855000Y-17354887D01*
X25689362Y-16955001D01*
X45148841Y-16955001D01*
X45242569Y-17181280D01*
X45533720Y-17472431D01*
X45914126Y-17630000D01*
X46325874Y-17630000D01*
X46706280Y-17472431D01*
X46814585Y-17364126D01*
X50870000Y-17364126D01*
X50870000Y-17775874D01*
X51027569Y-18156280D01*
X51318720Y-18447431D01*
X51699126Y-18605000D01*
X52110874Y-18605000D01*
X52491280Y-18447431D01*
X52540000Y-18398711D01*
X52588720Y-18447431D01*
X52969126Y-18605000D01*
X53380874Y-18605000D01*
X53761280Y-18447431D01*
X53810000Y-18398711D01*
X53858720Y-18447431D01*
X54239126Y-18605000D01*
X54650874Y-18605000D01*
X55031280Y-18447431D01*
X55322431Y-18156280D01*
X55480000Y-17775874D01*
X55480000Y-17364126D01*
X55322431Y-16983720D01*
X55031280Y-16692569D01*
X54650874Y-16535000D01*
X54239126Y-16535000D01*
X53858720Y-16692569D01*
X53810000Y-16741289D01*
X53761280Y-16692569D01*
X53380874Y-16535000D01*
X52969126Y-16535000D01*
X52588720Y-16692569D01*
X52540000Y-16741289D01*
X52491280Y-16692569D01*
X52110874Y-16535000D01*
X51699126Y-16535000D01*
X51318720Y-16692569D01*
X51027569Y-16983720D01*
X50870000Y-17364126D01*
X46814585Y-17364126D01*
X46997431Y-17181280D01*
X47155000Y-16800874D01*
X47155000Y-16389126D01*
X46997431Y-16008720D01*
X46706280Y-15717569D01*
X46325874Y-15560000D01*
X46137618Y-15560000D01*
X46016538Y-15479097D01*
X45794853Y-15435001D01*
X45794848Y-15435001D01*
X45720001Y-15420113D01*
X45645154Y-15435001D01*
X25188315Y-15435001D01*
X25284493Y-15395163D01*
X25515163Y-15164493D01*
X25640000Y-14863108D01*
X25640000Y-14536892D01*
X25515163Y-14235507D01*
X25284493Y-14004837D01*
X24983108Y-13880000D01*
X24656892Y-13880000D01*
X24355507Y-14004837D01*
X24234883Y-14125461D01*
X24240000Y-14113108D01*
X24240000Y-14020000D01*
X24283108Y-14020000D01*
X24584493Y-13895163D01*
X24815163Y-13664493D01*
X24940000Y-13363108D01*
X24940000Y-13270000D01*
X24983108Y-13270000D01*
X25284493Y-13145163D01*
X25515163Y-12914493D01*
X25640000Y-12613108D01*
X25640000Y-12286892D01*
X25593697Y-12175105D01*
X28700000Y-12175105D01*
X28700000Y-12944895D01*
X28994586Y-13656090D01*
X29538910Y-14200414D01*
X30250105Y-14495000D01*
X31019895Y-14495000D01*
X31731090Y-14200414D01*
X32275414Y-13656090D01*
X32570000Y-12944895D01*
X32570000Y-12175105D01*
X67430000Y-12175105D01*
X67430000Y-12944895D01*
X67724586Y-13656090D01*
X68268910Y-14200414D01*
X68980105Y-14495000D01*
X69749895Y-14495000D01*
X70461090Y-14200414D01*
X71005414Y-13656090D01*
X71300000Y-12944895D01*
X71300000Y-12175105D01*
X71005414Y-11463910D01*
X70461090Y-10919586D01*
X69749895Y-10625000D01*
X68980105Y-10625000D01*
X68268910Y-10919586D01*
X67724586Y-11463910D01*
X67430000Y-12175105D01*
X32570000Y-12175105D01*
X32275414Y-11463910D01*
X31731090Y-10919586D01*
X31019895Y-10625000D01*
X30250105Y-10625000D01*
X29538910Y-10919586D01*
X28994586Y-11463910D01*
X28700000Y-12175105D01*
X25593697Y-12175105D01*
X25515163Y-11985507D01*
X25284493Y-11754837D01*
X24983108Y-11630000D01*
X24656892Y-11630000D01*
X24355507Y-11754837D01*
X24234883Y-11875461D01*
X24240000Y-11863108D01*
X24240000Y-11770000D01*
X24283108Y-11770000D01*
X24584493Y-11645163D01*
X24815163Y-11414493D01*
X24940000Y-11113108D01*
X24940000Y-11020000D01*
X24983108Y-11020000D01*
X25284493Y-10895163D01*
X25515163Y-10664493D01*
X25637149Y-10369992D01*
X41527473Y-10369992D01*
X41599857Y-10384390D01*
X41672241Y-10369992D01*
X41672245Y-10369992D01*
X41886640Y-10327346D01*
X42129762Y-10164897D01*
X42170768Y-10103527D01*
X43560528Y-8713768D01*
X47611796Y-8713768D01*
X47671337Y-8857512D01*
X47962488Y-9148663D01*
X48342894Y-9306232D01*
X48754642Y-9306232D01*
X49135048Y-9148663D01*
X49426199Y-8857512D01*
X49558385Y-8538385D01*
X49877512Y-8406199D01*
X50168663Y-8115048D01*
X50326232Y-7734642D01*
X50326232Y-7322894D01*
X50168663Y-6942488D01*
X49877512Y-6651337D01*
X49567423Y-6522894D01*
X52313768Y-6522894D01*
X52313768Y-6934642D01*
X52471337Y-7315048D01*
X52762488Y-7606199D01*
X53081615Y-7738385D01*
X53213801Y-8057512D01*
X53504952Y-8348663D01*
X53885358Y-8506232D01*
X54297106Y-8506232D01*
X54677512Y-8348663D01*
X54968663Y-8057512D01*
X55117622Y-7697892D01*
X56458818Y-7697892D01*
X56458818Y-8109640D01*
X56616387Y-8490046D01*
X56907538Y-8781197D01*
X57226665Y-8913383D01*
X57358851Y-9232510D01*
X57650002Y-9523661D01*
X58030408Y-9681230D01*
X58442156Y-9681230D01*
X58822562Y-9523661D01*
X59113713Y-9232510D01*
X59271282Y-8852104D01*
X59271282Y-8440356D01*
X59113713Y-8059950D01*
X58822562Y-7768799D01*
X58503435Y-7636613D01*
X58373490Y-7322894D01*
X61913768Y-7322894D01*
X61913768Y-7734642D01*
X62071337Y-8115048D01*
X62362488Y-8406199D01*
X62681615Y-8538385D01*
X62813801Y-8857512D01*
X63104952Y-9148663D01*
X63485358Y-9306232D01*
X63897106Y-9306232D01*
X64277512Y-9148663D01*
X64568364Y-8857812D01*
X64718717Y-9008165D01*
X65099123Y-9165734D01*
X65510871Y-9165734D01*
X65891277Y-9008165D01*
X66182428Y-8717014D01*
X66339997Y-8336608D01*
X66339997Y-7924860D01*
X66182428Y-7544454D01*
X65891277Y-7253303D01*
X65510871Y-7095734D01*
X65351740Y-7095734D01*
X65324674Y-7030390D01*
X65033523Y-6739239D01*
X64653117Y-6581670D01*
X64241369Y-6581670D01*
X63860963Y-6739239D01*
X63741957Y-6858246D01*
X63535048Y-6651337D01*
X63154642Y-6493768D01*
X62742894Y-6493768D01*
X62362488Y-6651337D01*
X62071337Y-6942488D01*
X61913768Y-7322894D01*
X58373490Y-7322894D01*
X58371249Y-7317486D01*
X58080098Y-7026335D01*
X57699692Y-6868766D01*
X57287944Y-6868766D01*
X56907538Y-7026335D01*
X56616387Y-7317486D01*
X56458818Y-7697892D01*
X55117622Y-7697892D01*
X55126232Y-7677106D01*
X55126232Y-7265358D01*
X54968663Y-6884952D01*
X54677512Y-6593801D01*
X54358385Y-6461615D01*
X54226199Y-6142488D01*
X53935048Y-5851337D01*
X53554642Y-5693768D01*
X53142894Y-5693768D01*
X52762488Y-5851337D01*
X52471337Y-6142488D01*
X52313768Y-6522894D01*
X49567423Y-6522894D01*
X49497106Y-6493768D01*
X49085358Y-6493768D01*
X48704952Y-6651337D01*
X48570058Y-6786231D01*
X43149618Y-6786231D01*
X43077234Y-6771833D01*
X43004850Y-6786231D01*
X43004847Y-6786231D01*
X42790452Y-6828877D01*
X42547330Y-6991326D01*
X42506325Y-7052694D01*
X42021365Y-7537654D01*
X41877512Y-7393801D01*
X41558385Y-7261615D01*
X41426199Y-6942488D01*
X41135048Y-6651337D01*
X40754642Y-6493768D01*
X40342894Y-6493768D01*
X39962488Y-6651337D01*
X39671337Y-6942488D01*
X39513768Y-7322894D01*
X39513768Y-7734642D01*
X39671337Y-8115048D01*
X39962488Y-8406199D01*
X40068236Y-8450001D01*
X34571764Y-8450001D01*
X34677512Y-8406199D01*
X34968663Y-8115048D01*
X35126232Y-7734642D01*
X35126232Y-7322894D01*
X34968663Y-6942488D01*
X34677512Y-6651337D01*
X34297106Y-6493768D01*
X33885358Y-6493768D01*
X33504952Y-6651337D01*
X33370058Y-6786231D01*
X19602953Y-6786231D01*
X19530569Y-6771833D01*
X19458185Y-6786231D01*
X19458182Y-6786231D01*
X19243787Y-6828877D01*
X19000665Y-6991326D01*
X18959660Y-7052694D01*
X17340000Y-8672355D01*
X17340000Y-8536892D01*
X17215163Y-8235507D01*
X16984493Y-8004837D01*
X16683108Y-7880000D01*
X16356892Y-7880000D01*
X16055507Y-8004837D01*
X15824837Y-8235507D01*
X15700000Y-8536892D01*
X15700000Y-8630000D01*
X15656892Y-8630000D01*
X15355507Y-8754837D01*
X15124837Y-8985507D01*
X15000000Y-9286892D01*
X15000000Y-9613108D01*
X15124837Y-9914493D01*
X15355507Y-10145163D01*
X15470116Y-10192635D01*
X14866464Y-10796288D01*
X14805094Y-10837294D01*
X14642645Y-11080417D01*
X14599999Y-11294812D01*
X14599999Y-11294815D01*
X14585601Y-11367199D01*
X14595482Y-11416873D01*
X14071005Y-11941349D01*
X13884493Y-11754837D01*
X13583108Y-11630000D01*
X13256892Y-11630000D01*
X12955507Y-11754837D01*
X12834883Y-11875461D01*
X12840000Y-11863108D01*
X12840000Y-11770000D01*
X12883108Y-11770000D01*
X13184493Y-11645163D01*
X13415163Y-11414493D01*
X13540000Y-11113108D01*
X13540000Y-11020000D01*
X13583108Y-11020000D01*
X13884493Y-10895163D01*
X14115163Y-10664493D01*
X14240000Y-10363108D01*
X14240000Y-10036892D01*
X14115163Y-9735507D01*
X13884493Y-9504837D01*
X13583108Y-9380000D01*
X13256892Y-9380000D01*
X12955507Y-9504837D01*
X12834883Y-9625461D01*
X12840000Y-9613108D01*
X12840000Y-9520000D01*
X12883108Y-9520000D01*
X13184493Y-9395163D01*
X13415163Y-9164493D01*
X13540000Y-8863108D01*
X13540000Y-8536892D01*
X13415163Y-8235507D01*
X13184493Y-8004837D01*
X12883108Y-7880000D01*
X12556892Y-7880000D01*
X12255507Y-8004837D01*
X12024837Y-8235507D01*
X11900000Y-8536892D01*
X11900000Y-8630000D01*
X11856892Y-8630000D01*
X11555507Y-8754837D01*
X11324837Y-8985507D01*
X11200000Y-9286892D01*
X735000Y-9286892D01*
X735000Y-5354887D01*
X10385000Y-5354887D01*
X10385000Y-6045113D01*
X10649138Y-6682799D01*
X11137201Y-7170862D01*
X11774887Y-7435000D01*
X12465113Y-7435000D01*
X13102799Y-7170862D01*
X13590862Y-6682799D01*
X13855000Y-6045113D01*
X13855000Y-5354887D01*
X13590862Y-4717201D01*
X13102799Y-4229138D01*
X12465113Y-3965000D01*
X11774887Y-3965000D01*
X11137201Y-4229138D01*
X10649138Y-4717201D01*
X10385000Y-5354887D01*
X735000Y-5354887D01*
X735000Y-3241089D01*
X800751Y-2654908D01*
X981140Y-2136900D01*
X1271808Y-1671734D01*
X1658308Y-1282526D01*
X2121438Y-988614D01*
X2638164Y-804617D01*
X3221984Y-735000D01*
X75608911Y-735000D01*
X76195092Y-800751D01*
%TD*%
M02*
