%TF.GenerationSoftware,KiCad,Pcbnew,6.0.0-rc1-unknown-4a57541~66~ubuntu18.04.1*%
%TF.CreationDate,2018-09-13T12:55:36-06:00*%
%TF.ProjectId,thelio-io,7468656C696F2D696F2E6B696361645F,rev?*%
%TF.SameCoordinates,Original*%
%TF.FileFunction,Legend,Bot*%
%TF.FilePolarity,Positive*%
%FSLAX46Y46*%
G04 Gerber Fmt 4.6, Leading zero omitted, Abs format (unit mm)*
G04 Created by KiCad (PCBNEW 6.0.0-rc1-unknown-4a57541~66~ubuntu18.04.1) date Thu Sep 13 12:55:36 2018*
%MOMM*%
%LPD*%
G01*
G04 APERTURE LIST*
%ADD10C,0.150000*%
%ADD11C,0.200000*%
%ADD12C,0.120000*%
%ADD13C,0.010000*%
G04 APERTURE END LIST*
D10*
X70850000Y-68600000D02*
G75*
G02X67650000Y-71800000I-3200000J0D01*
G01*
D11*
X3200000Y-71800000D02*
G75*
G02X0Y-68600000I0J3200000D01*
G01*
X67650000Y-71800000D02*
X3200000Y-71800000D01*
X70850000Y-3200000D02*
X70850000Y-68600000D01*
X0Y-3200000D02*
G75*
G02X3200000Y0I3200000J0D01*
G01*
X67650000Y0D02*
G75*
G02X70850000Y-3200000I0J-3200000D01*
G01*
X0Y-68600000D02*
X0Y-3200000D01*
X3200000Y0D02*
X67650000Y0D01*
D12*
%TO.C,POWER0*%
X69710000Y-70490000D02*
X69710000Y-65490000D01*
X59710000Y-70490000D02*
X69710000Y-70490000D01*
X59710000Y-65490000D02*
X59710000Y-70490000D01*
X69710000Y-65490000D02*
X59710000Y-65490000D01*
%TO.C,USB0*%
X17840000Y-66780000D02*
X17840000Y-65450000D01*
X16510000Y-66780000D02*
X17840000Y-66780000D01*
X15240000Y-66780000D02*
X15240000Y-64120000D01*
X15240000Y-64120000D02*
X7560000Y-64120000D01*
X15240000Y-66780000D02*
X7560000Y-66780000D01*
X7560000Y-66780000D02*
X7560000Y-64120000D01*
%TO.C,ICSP0*%
X17780000Y-17700000D02*
X17780000Y-16680000D01*
X12580000Y-17700000D02*
X12580000Y-16680000D01*
X17780000Y-20240000D02*
X17780000Y-19220000D01*
X12580000Y-20240000D02*
X12580000Y-19220000D01*
X17780000Y-15160000D02*
X17780000Y-14590000D01*
X12580000Y-15160000D02*
X12580000Y-14590000D01*
X17780000Y-22330000D02*
X17780000Y-21760000D01*
X12580000Y-22330000D02*
X12580000Y-21760000D01*
X11140000Y-21760000D02*
X12580000Y-21760000D01*
X12580000Y-14590000D02*
X17780000Y-14590000D01*
X12580000Y-22330000D02*
X17780000Y-22330000D01*
%TO.C,B0*%
X6400000Y-24600000D02*
X3900000Y-24600000D01*
X7900000Y-26350000D02*
X7900000Y-28350000D01*
X6400000Y-30100000D02*
X3900000Y-30100000D01*
X2400000Y-26350000D02*
X2400000Y-28350000D01*
X6850000Y-25050000D02*
X6400000Y-24600000D01*
X3450000Y-25050000D02*
X3900000Y-24600000D01*
X3450000Y-29650000D02*
X3900000Y-30100000D01*
X6850000Y-29650000D02*
X6400000Y-30100000D01*
D10*
%TO.C,DATA2*%
X38800000Y-25935000D02*
X38800000Y-20855000D01*
X21655000Y-25935000D02*
X38800000Y-25935000D01*
X21655000Y-20855000D02*
X21655000Y-25935000D01*
X38800000Y-20855000D02*
X21655000Y-20855000D01*
%TO.C,DATA0*%
X38800000Y-9935000D02*
X38800000Y-4855000D01*
X21655000Y-9935000D02*
X38800000Y-9935000D01*
X21655000Y-4855000D02*
X21655000Y-9935000D01*
X38800000Y-4855000D02*
X21655000Y-4855000D01*
%TO.C,DATA3*%
X38800000Y-57935000D02*
X38800000Y-52855000D01*
X21655000Y-57935000D02*
X38800000Y-57935000D01*
X21655000Y-52855000D02*
X21655000Y-57935000D01*
X38800000Y-52855000D02*
X21655000Y-52855000D01*
%TO.C,DATA1*%
X38800000Y-42285000D02*
X38800000Y-37205000D01*
X21655000Y-42285000D02*
X38800000Y-42285000D01*
X21655000Y-37205000D02*
X21655000Y-42285000D01*
X38800000Y-37205000D02*
X21655000Y-37205000D01*
D12*
%TO.C,CPUOUT0*%
X40640000Y-70280000D02*
X40640000Y-71290000D01*
X45720000Y-70280000D02*
X40640000Y-70280000D01*
X45720000Y-71290000D02*
X45720000Y-70280000D01*
X47070000Y-71390000D02*
X47070000Y-65390000D01*
X36770000Y-71390000D02*
X47070000Y-71390000D01*
X36770000Y-65440000D02*
X36770000Y-71390000D01*
X39970000Y-65440000D02*
X36770000Y-65440000D01*
X47070000Y-65390000D02*
X41320000Y-65390000D01*
%TO.C,CPUMUX0*%
X15025000Y-54330000D02*
X15025000Y-51730000D01*
X15025000Y-51730000D02*
X15225000Y-51730000D01*
X17225000Y-51730000D02*
X17425000Y-51730000D01*
X17425000Y-51730000D02*
X17425000Y-54330000D01*
X17425000Y-54330000D02*
X17325000Y-54330000D01*
X17325000Y-54330000D02*
X17325000Y-54730000D01*
X15025000Y-54330000D02*
X15225000Y-54330000D01*
D10*
%TO.C,AVR0*%
X15300000Y-44125000D02*
X15300000Y-45400000D01*
X15875000Y-33775000D02*
X15875000Y-34450000D01*
X5525000Y-33775000D02*
X5525000Y-34450000D01*
X5525000Y-44125000D02*
X5525000Y-43450000D01*
X15875000Y-44125000D02*
X15875000Y-43450000D01*
X5525000Y-44125000D02*
X6200000Y-44125000D01*
X5525000Y-33775000D02*
X6200000Y-33775000D01*
X15875000Y-33775000D02*
X15200000Y-33775000D01*
X15875000Y-44125000D02*
X15300000Y-44125000D01*
D12*
%TO.C,PMB0*%
X2480000Y-67930000D02*
X2480000Y-69260000D01*
X3810000Y-67930000D02*
X2480000Y-67930000D01*
X5080000Y-67930000D02*
X5080000Y-70590000D01*
X5080000Y-70590000D02*
X12760000Y-70590000D01*
X5080000Y-67930000D02*
X12760000Y-67930000D01*
X12760000Y-67930000D02*
X12760000Y-70590000D01*
%TO.C,CPUIN0*%
X29210000Y-70280000D02*
X29210000Y-71290000D01*
X34290000Y-70280000D02*
X29210000Y-70280000D01*
X34290000Y-71290000D02*
X34290000Y-70280000D01*
X35640000Y-71390000D02*
X35640000Y-65390000D01*
X25340000Y-71390000D02*
X35640000Y-71390000D01*
X25340000Y-65440000D02*
X25340000Y-71390000D01*
X28540000Y-65440000D02*
X25340000Y-65440000D01*
X35640000Y-65390000D02*
X29890000Y-65390000D01*
%TO.C,INTAKE0*%
X52070000Y-70280000D02*
X52070000Y-71290000D01*
X57150000Y-70280000D02*
X52070000Y-70280000D01*
X57150000Y-71290000D02*
X57150000Y-70280000D01*
X58500000Y-71390000D02*
X58500000Y-65390000D01*
X48200000Y-71390000D02*
X58500000Y-71390000D01*
X48200000Y-65440000D02*
X48200000Y-71390000D01*
X51400000Y-65440000D02*
X48200000Y-65440000D01*
X58500000Y-65390000D02*
X52750000Y-65390000D01*
%TO.C,PFP0*%
X13910000Y-67930000D02*
X13910000Y-69260000D01*
X15240000Y-67930000D02*
X13910000Y-67930000D01*
X16510000Y-67930000D02*
X16510000Y-70590000D01*
X16510000Y-70590000D02*
X24190000Y-70590000D01*
X16510000Y-67930000D02*
X24190000Y-67930000D01*
X24190000Y-67930000D02*
X24190000Y-70590000D01*
D13*
%TO.C,G\002A\002A\002A*%
G36*
X53695363Y-4081137D02*
X53494198Y-4132578D01*
X53308192Y-4215261D01*
X53145294Y-4328321D01*
X53013451Y-4470892D01*
X52991067Y-4503552D01*
X52912743Y-4624426D01*
X52835171Y-4509319D01*
X52694417Y-4343555D01*
X52521634Y-4214427D01*
X52320017Y-4123639D01*
X52092763Y-4072897D01*
X52001055Y-4064510D01*
X51749533Y-4070506D01*
X51519601Y-4117288D01*
X51314579Y-4202770D01*
X51137789Y-4324868D01*
X50992550Y-4481497D01*
X50882185Y-4670570D01*
X50834641Y-4796922D01*
X50821767Y-4841841D01*
X50811352Y-4888462D01*
X50803139Y-4942407D01*
X50796870Y-5009295D01*
X50792288Y-5094747D01*
X50789134Y-5204385D01*
X50787151Y-5343829D01*
X50786082Y-5518699D01*
X50785667Y-5734617D01*
X50785625Y-5865816D01*
X50786085Y-6121700D01*
X50787535Y-6331333D01*
X50790081Y-6498067D01*
X50793829Y-6625253D01*
X50798886Y-6716242D01*
X50805358Y-6774386D01*
X50813350Y-6803035D01*
X50815391Y-6805781D01*
X50864841Y-6828658D01*
X50933982Y-6834403D01*
X50998489Y-6823179D01*
X51028672Y-6804364D01*
X51036396Y-6770201D01*
X51043428Y-6688431D01*
X51049692Y-6561048D01*
X51055114Y-6390051D01*
X51059618Y-6177436D01*
X51063129Y-5925200D01*
X51063602Y-5880389D01*
X51066107Y-5645261D01*
X51068601Y-5454184D01*
X51071431Y-5301599D01*
X51074941Y-5181949D01*
X51079479Y-5089676D01*
X51085389Y-5019223D01*
X51093018Y-4965031D01*
X51102711Y-4921542D01*
X51114815Y-4883200D01*
X51127775Y-4849204D01*
X51217984Y-4678658D01*
X51341085Y-4542614D01*
X51502497Y-4435261D01*
X51524084Y-4424333D01*
X51610501Y-4384158D01*
X51681449Y-4359844D01*
X51755471Y-4347522D01*
X51851112Y-4343325D01*
X51913717Y-4343066D01*
X52033784Y-4345731D01*
X52122344Y-4355371D01*
X52197357Y-4375191D01*
X52275038Y-4407586D01*
X52435640Y-4499876D01*
X52559308Y-4613676D01*
X52657642Y-4760237D01*
X52676473Y-4796864D01*
X52757598Y-4961554D01*
X52770000Y-5857587D01*
X52773574Y-6103385D01*
X52777246Y-6304133D01*
X52781643Y-6464388D01*
X52787393Y-6588707D01*
X52795123Y-6681647D01*
X52805462Y-6747764D01*
X52819037Y-6791615D01*
X52836475Y-6817757D01*
X52858405Y-6830746D01*
X52885455Y-6835141D01*
X52904722Y-6835547D01*
X52939173Y-6835049D01*
X52967232Y-6830459D01*
X52989609Y-6817132D01*
X53007012Y-6790422D01*
X53020151Y-6745684D01*
X53029734Y-6678275D01*
X53036471Y-6583548D01*
X53041071Y-6456858D01*
X53044242Y-6293561D01*
X53046695Y-6089011D01*
X53048612Y-5892969D01*
X53050975Y-5659697D01*
X53053353Y-5470419D01*
X53056099Y-5319518D01*
X53059567Y-5201379D01*
X53064109Y-5110386D01*
X53070079Y-5040924D01*
X53077830Y-4987378D01*
X53087715Y-4944132D01*
X53100087Y-4905571D01*
X53112805Y-4872328D01*
X53205527Y-4702317D01*
X53333334Y-4560032D01*
X53488434Y-4449739D01*
X53663033Y-4375704D01*
X53849341Y-4342195D01*
X54039564Y-4353478D01*
X54054920Y-4356485D01*
X54256902Y-4419799D01*
X54425972Y-4520035D01*
X54563539Y-4658294D01*
X54671012Y-4835675D01*
X54672463Y-4838770D01*
X54741973Y-4987598D01*
X54749890Y-5880093D01*
X54752964Y-6144008D01*
X54757104Y-6365863D01*
X54762254Y-6544175D01*
X54768359Y-6677461D01*
X54775366Y-6764237D01*
X54783220Y-6803021D01*
X54783933Y-6804067D01*
X54829873Y-6827771D01*
X54898162Y-6834533D01*
X54964453Y-6824157D01*
X54997461Y-6805781D01*
X55004766Y-6785441D01*
X55010896Y-6738224D01*
X55015926Y-6661083D01*
X55019930Y-6550974D01*
X55022982Y-6404849D01*
X55025154Y-6219664D01*
X55026522Y-5992372D01*
X55027159Y-5719927D01*
X55027227Y-5577949D01*
X55027227Y-4379883D01*
X55227295Y-4379883D01*
X55327928Y-4376793D01*
X55413754Y-4368609D01*
X55469047Y-4356959D01*
X55475342Y-4354205D01*
X55512621Y-4309709D01*
X55525104Y-4243693D01*
X55512789Y-4177604D01*
X55475678Y-4132890D01*
X55475342Y-4132709D01*
X55428537Y-4120910D01*
X55346880Y-4112699D01*
X55242184Y-4108007D01*
X55126263Y-4106762D01*
X55010930Y-4108896D01*
X54907998Y-4114338D01*
X54829281Y-4123019D01*
X54786591Y-4134868D01*
X54784141Y-4136797D01*
X54766986Y-4177436D01*
X54756229Y-4248099D01*
X54754375Y-4294187D01*
X54754375Y-4421811D01*
X54650362Y-4322866D01*
X54492634Y-4205111D01*
X54310322Y-4122926D01*
X54111374Y-4075446D01*
X53903738Y-4061805D01*
X53695363Y-4081137D01*
X53695363Y-4081137D01*
G37*
X53695363Y-4081137D02*
X53494198Y-4132578D01*
X53308192Y-4215261D01*
X53145294Y-4328321D01*
X53013451Y-4470892D01*
X52991067Y-4503552D01*
X52912743Y-4624426D01*
X52835171Y-4509319D01*
X52694417Y-4343555D01*
X52521634Y-4214427D01*
X52320017Y-4123639D01*
X52092763Y-4072897D01*
X52001055Y-4064510D01*
X51749533Y-4070506D01*
X51519601Y-4117288D01*
X51314579Y-4202770D01*
X51137789Y-4324868D01*
X50992550Y-4481497D01*
X50882185Y-4670570D01*
X50834641Y-4796922D01*
X50821767Y-4841841D01*
X50811352Y-4888462D01*
X50803139Y-4942407D01*
X50796870Y-5009295D01*
X50792288Y-5094747D01*
X50789134Y-5204385D01*
X50787151Y-5343829D01*
X50786082Y-5518699D01*
X50785667Y-5734617D01*
X50785625Y-5865816D01*
X50786085Y-6121700D01*
X50787535Y-6331333D01*
X50790081Y-6498067D01*
X50793829Y-6625253D01*
X50798886Y-6716242D01*
X50805358Y-6774386D01*
X50813350Y-6803035D01*
X50815391Y-6805781D01*
X50864841Y-6828658D01*
X50933982Y-6834403D01*
X50998489Y-6823179D01*
X51028672Y-6804364D01*
X51036396Y-6770201D01*
X51043428Y-6688431D01*
X51049692Y-6561048D01*
X51055114Y-6390051D01*
X51059618Y-6177436D01*
X51063129Y-5925200D01*
X51063602Y-5880389D01*
X51066107Y-5645261D01*
X51068601Y-5454184D01*
X51071431Y-5301599D01*
X51074941Y-5181949D01*
X51079479Y-5089676D01*
X51085389Y-5019223D01*
X51093018Y-4965031D01*
X51102711Y-4921542D01*
X51114815Y-4883200D01*
X51127775Y-4849204D01*
X51217984Y-4678658D01*
X51341085Y-4542614D01*
X51502497Y-4435261D01*
X51524084Y-4424333D01*
X51610501Y-4384158D01*
X51681449Y-4359844D01*
X51755471Y-4347522D01*
X51851112Y-4343325D01*
X51913717Y-4343066D01*
X52033784Y-4345731D01*
X52122344Y-4355371D01*
X52197357Y-4375191D01*
X52275038Y-4407586D01*
X52435640Y-4499876D01*
X52559308Y-4613676D01*
X52657642Y-4760237D01*
X52676473Y-4796864D01*
X52757598Y-4961554D01*
X52770000Y-5857587D01*
X52773574Y-6103385D01*
X52777246Y-6304133D01*
X52781643Y-6464388D01*
X52787393Y-6588707D01*
X52795123Y-6681647D01*
X52805462Y-6747764D01*
X52819037Y-6791615D01*
X52836475Y-6817757D01*
X52858405Y-6830746D01*
X52885455Y-6835141D01*
X52904722Y-6835547D01*
X52939173Y-6835049D01*
X52967232Y-6830459D01*
X52989609Y-6817132D01*
X53007012Y-6790422D01*
X53020151Y-6745684D01*
X53029734Y-6678275D01*
X53036471Y-6583548D01*
X53041071Y-6456858D01*
X53044242Y-6293561D01*
X53046695Y-6089011D01*
X53048612Y-5892969D01*
X53050975Y-5659697D01*
X53053353Y-5470419D01*
X53056099Y-5319518D01*
X53059567Y-5201379D01*
X53064109Y-5110386D01*
X53070079Y-5040924D01*
X53077830Y-4987378D01*
X53087715Y-4944132D01*
X53100087Y-4905571D01*
X53112805Y-4872328D01*
X53205527Y-4702317D01*
X53333334Y-4560032D01*
X53488434Y-4449739D01*
X53663033Y-4375704D01*
X53849341Y-4342195D01*
X54039564Y-4353478D01*
X54054920Y-4356485D01*
X54256902Y-4419799D01*
X54425972Y-4520035D01*
X54563539Y-4658294D01*
X54671012Y-4835675D01*
X54672463Y-4838770D01*
X54741973Y-4987598D01*
X54749890Y-5880093D01*
X54752964Y-6144008D01*
X54757104Y-6365863D01*
X54762254Y-6544175D01*
X54768359Y-6677461D01*
X54775366Y-6764237D01*
X54783220Y-6803021D01*
X54783933Y-6804067D01*
X54829873Y-6827771D01*
X54898162Y-6834533D01*
X54964453Y-6824157D01*
X54997461Y-6805781D01*
X55004766Y-6785441D01*
X55010896Y-6738224D01*
X55015926Y-6661083D01*
X55019930Y-6550974D01*
X55022982Y-6404849D01*
X55025154Y-6219664D01*
X55026522Y-5992372D01*
X55027159Y-5719927D01*
X55027227Y-5577949D01*
X55027227Y-4379883D01*
X55227295Y-4379883D01*
X55327928Y-4376793D01*
X55413754Y-4368609D01*
X55469047Y-4356959D01*
X55475342Y-4354205D01*
X55512621Y-4309709D01*
X55525104Y-4243693D01*
X55512789Y-4177604D01*
X55475678Y-4132890D01*
X55475342Y-4132709D01*
X55428537Y-4120910D01*
X55346880Y-4112699D01*
X55242184Y-4108007D01*
X55126263Y-4106762D01*
X55010930Y-4108896D01*
X54907998Y-4114338D01*
X54829281Y-4123019D01*
X54786591Y-4134868D01*
X54784141Y-4136797D01*
X54766986Y-4177436D01*
X54756229Y-4248099D01*
X54754375Y-4294187D01*
X54754375Y-4421811D01*
X54650362Y-4322866D01*
X54492634Y-4205111D01*
X54310322Y-4122926D01*
X54111374Y-4075446D01*
X53903738Y-4061805D01*
X53695363Y-4081137D01*
G36*
X56712105Y-4096596D02*
X56571355Y-4119503D01*
X56571064Y-4119572D01*
X56331543Y-4199258D01*
X56122985Y-4316487D01*
X55947630Y-4468355D01*
X55807716Y-4651959D01*
X55705479Y-4864393D01*
X55643160Y-5102755D01*
X55622970Y-5349622D01*
X55622087Y-5409475D01*
X55622699Y-5458761D01*
X55629177Y-5498504D01*
X55645892Y-5529724D01*
X55677218Y-5553444D01*
X55727524Y-5570686D01*
X55801184Y-5582471D01*
X55902569Y-5589821D01*
X56036051Y-5593759D01*
X56206002Y-5595305D01*
X56416793Y-5595483D01*
X56672796Y-5595313D01*
X56674121Y-5595313D01*
X56945891Y-5594631D01*
X57178218Y-5592619D01*
X57369203Y-5589325D01*
X57516945Y-5584797D01*
X57619541Y-5579084D01*
X57675092Y-5572233D01*
X57682959Y-5569635D01*
X57717187Y-5526924D01*
X57731382Y-5460348D01*
X57723677Y-5392207D01*
X57701172Y-5352227D01*
X57678581Y-5343787D01*
X57627091Y-5336925D01*
X57543330Y-5331532D01*
X57423924Y-5327499D01*
X57265501Y-5324717D01*
X57064689Y-5323077D01*
X56818115Y-5322470D01*
X56780203Y-5322461D01*
X55888999Y-5322461D01*
X55905811Y-5195730D01*
X55955174Y-4973980D01*
X56040517Y-4786071D01*
X56162888Y-4630617D01*
X56323334Y-4506235D01*
X56489516Y-4424270D01*
X56556701Y-4400577D01*
X56625076Y-4384644D01*
X56706932Y-4374983D01*
X56814562Y-4370105D01*
X56949590Y-4368553D01*
X57083533Y-4368690D01*
X57180146Y-4371418D01*
X57251700Y-4378649D01*
X57310471Y-4392296D01*
X57368731Y-4414271D01*
X57433352Y-4443924D01*
X57621394Y-4559416D01*
X57777176Y-4710135D01*
X57897924Y-4891411D01*
X57980860Y-5098572D01*
X58023207Y-5326945D01*
X58028299Y-5444785D01*
X58006990Y-5685626D01*
X57945268Y-5905414D01*
X57845265Y-6099784D01*
X57709116Y-6264367D01*
X57575541Y-6371695D01*
X57388440Y-6467278D01*
X57180690Y-6523893D01*
X56961266Y-6542367D01*
X56739139Y-6523527D01*
X56523284Y-6468199D01*
X56322674Y-6377211D01*
X56146282Y-6251389D01*
X56132225Y-6238683D01*
X56034581Y-6166526D01*
X55949799Y-6141669D01*
X55878415Y-6164227D01*
X55859955Y-6179994D01*
X55826081Y-6233013D01*
X55829376Y-6292495D01*
X55871888Y-6364403D01*
X55953785Y-6452878D01*
X56122428Y-6584621D01*
X56324782Y-6690450D01*
X56550543Y-6767346D01*
X56789411Y-6812289D01*
X57031085Y-6822258D01*
X57172832Y-6810240D01*
X57426535Y-6754111D01*
X57651902Y-6658040D01*
X57851957Y-6520523D01*
X57959210Y-6419478D01*
X58092741Y-6256991D01*
X58192739Y-6080157D01*
X58266599Y-5879507D01*
X58293678Y-5746157D01*
X58308123Y-5582272D01*
X58309901Y-5405297D01*
X58298978Y-5232681D01*
X58275322Y-5081868D01*
X58268159Y-5052410D01*
X58181652Y-4816891D01*
X58055253Y-4605619D01*
X57893683Y-4423366D01*
X57701664Y-4274901D01*
X57483918Y-4164996D01*
X57345434Y-4120207D01*
X57213417Y-4097048D01*
X57051568Y-4085383D01*
X56878320Y-4085227D01*
X56712105Y-4096596D01*
X56712105Y-4096596D01*
G37*
X56712105Y-4096596D02*
X56571355Y-4119503D01*
X56571064Y-4119572D01*
X56331543Y-4199258D01*
X56122985Y-4316487D01*
X55947630Y-4468355D01*
X55807716Y-4651959D01*
X55705479Y-4864393D01*
X55643160Y-5102755D01*
X55622970Y-5349622D01*
X55622087Y-5409475D01*
X55622699Y-5458761D01*
X55629177Y-5498504D01*
X55645892Y-5529724D01*
X55677218Y-5553444D01*
X55727524Y-5570686D01*
X55801184Y-5582471D01*
X55902569Y-5589821D01*
X56036051Y-5593759D01*
X56206002Y-5595305D01*
X56416793Y-5595483D01*
X56672796Y-5595313D01*
X56674121Y-5595313D01*
X56945891Y-5594631D01*
X57178218Y-5592619D01*
X57369203Y-5589325D01*
X57516945Y-5584797D01*
X57619541Y-5579084D01*
X57675092Y-5572233D01*
X57682959Y-5569635D01*
X57717187Y-5526924D01*
X57731382Y-5460348D01*
X57723677Y-5392207D01*
X57701172Y-5352227D01*
X57678581Y-5343787D01*
X57627091Y-5336925D01*
X57543330Y-5331532D01*
X57423924Y-5327499D01*
X57265501Y-5324717D01*
X57064689Y-5323077D01*
X56818115Y-5322470D01*
X56780203Y-5322461D01*
X55888999Y-5322461D01*
X55905811Y-5195730D01*
X55955174Y-4973980D01*
X56040517Y-4786071D01*
X56162888Y-4630617D01*
X56323334Y-4506235D01*
X56489516Y-4424270D01*
X56556701Y-4400577D01*
X56625076Y-4384644D01*
X56706932Y-4374983D01*
X56814562Y-4370105D01*
X56949590Y-4368553D01*
X57083533Y-4368690D01*
X57180146Y-4371418D01*
X57251700Y-4378649D01*
X57310471Y-4392296D01*
X57368731Y-4414271D01*
X57433352Y-4443924D01*
X57621394Y-4559416D01*
X57777176Y-4710135D01*
X57897924Y-4891411D01*
X57980860Y-5098572D01*
X58023207Y-5326945D01*
X58028299Y-5444785D01*
X58006990Y-5685626D01*
X57945268Y-5905414D01*
X57845265Y-6099784D01*
X57709116Y-6264367D01*
X57575541Y-6371695D01*
X57388440Y-6467278D01*
X57180690Y-6523893D01*
X56961266Y-6542367D01*
X56739139Y-6523527D01*
X56523284Y-6468199D01*
X56322674Y-6377211D01*
X56146282Y-6251389D01*
X56132225Y-6238683D01*
X56034581Y-6166526D01*
X55949799Y-6141669D01*
X55878415Y-6164227D01*
X55859955Y-6179994D01*
X55826081Y-6233013D01*
X55829376Y-6292495D01*
X55871888Y-6364403D01*
X55953785Y-6452878D01*
X56122428Y-6584621D01*
X56324782Y-6690450D01*
X56550543Y-6767346D01*
X56789411Y-6812289D01*
X57031085Y-6822258D01*
X57172832Y-6810240D01*
X57426535Y-6754111D01*
X57651902Y-6658040D01*
X57851957Y-6520523D01*
X57959210Y-6419478D01*
X58092741Y-6256991D01*
X58192739Y-6080157D01*
X58266599Y-5879507D01*
X58293678Y-5746157D01*
X58308123Y-5582272D01*
X58309901Y-5405297D01*
X58298978Y-5232681D01*
X58275322Y-5081868D01*
X58268159Y-5052410D01*
X58181652Y-4816891D01*
X58055253Y-4605619D01*
X57893683Y-4423366D01*
X57701664Y-4274901D01*
X57483918Y-4164996D01*
X57345434Y-4120207D01*
X57213417Y-4097048D01*
X57051568Y-4085383D01*
X56878320Y-4085227D01*
X56712105Y-4096596D01*
G36*
X59542830Y-3319601D02*
X59497031Y-3343047D01*
X59483596Y-3378932D01*
X59474279Y-3457101D01*
X59468898Y-3579996D01*
X59467266Y-3739922D01*
X59467266Y-4107031D01*
X59047358Y-4107031D01*
X58877682Y-4108056D01*
X58751316Y-4112251D01*
X58661986Y-4121294D01*
X58603415Y-4136866D01*
X58569326Y-4160647D01*
X58553444Y-4194315D01*
X58549493Y-4239550D01*
X58549492Y-4240268D01*
X58552672Y-4279582D01*
X58566462Y-4308769D01*
X58597238Y-4329322D01*
X58651376Y-4342735D01*
X58735250Y-4350501D01*
X58855237Y-4354115D01*
X59017713Y-4355071D01*
X59039484Y-4355078D01*
X59469944Y-4355078D01*
X59462404Y-5316260D01*
X59460372Y-5560871D01*
X59458305Y-5760958D01*
X59455920Y-5921607D01*
X59452938Y-6047903D01*
X59449078Y-6144931D01*
X59444059Y-6217776D01*
X59437600Y-6271523D01*
X59429421Y-6311258D01*
X59419241Y-6342066D01*
X59406780Y-6369032D01*
X59404002Y-6374387D01*
X59326688Y-6471334D01*
X59217327Y-6534412D01*
X59081140Y-6562496D01*
X58923347Y-6554460D01*
X58760332Y-6513086D01*
X58656455Y-6480083D01*
X58586424Y-6466739D01*
X58538617Y-6472872D01*
X58501414Y-6498298D01*
X58491325Y-6508838D01*
X58452527Y-6577438D01*
X58459507Y-6642459D01*
X58508446Y-6701438D01*
X58595525Y-6751914D01*
X58716926Y-6791424D01*
X58868830Y-6817508D01*
X58983574Y-6826157D01*
X59155243Y-6825806D01*
X59283366Y-6808934D01*
X59312936Y-6800678D01*
X59465468Y-6727350D01*
X59584628Y-6617475D01*
X59662499Y-6490934D01*
X59727715Y-6351855D01*
X59734973Y-5353467D01*
X59742231Y-4355078D01*
X59996663Y-4355078D01*
X60127479Y-4352931D01*
X60216513Y-4344459D01*
X60271482Y-4326611D01*
X60300105Y-4296340D01*
X60310099Y-4250596D01*
X60310625Y-4231055D01*
X60305219Y-4179457D01*
X60283860Y-4144313D01*
X60238839Y-4122588D01*
X60162447Y-4111247D01*
X60046974Y-4107254D01*
X59995605Y-4107031D01*
X59740117Y-4107031D01*
X59740117Y-3735834D01*
X59739652Y-3591951D01*
X59737621Y-3489781D01*
X59733069Y-3421433D01*
X59725043Y-3379014D01*
X59712589Y-3354632D01*
X59694752Y-3340395D01*
X59692139Y-3338959D01*
X59617165Y-3316070D01*
X59542830Y-3319601D01*
X59542830Y-3319601D01*
G37*
X59542830Y-3319601D02*
X59497031Y-3343047D01*
X59483596Y-3378932D01*
X59474279Y-3457101D01*
X59468898Y-3579996D01*
X59467266Y-3739922D01*
X59467266Y-4107031D01*
X59047358Y-4107031D01*
X58877682Y-4108056D01*
X58751316Y-4112251D01*
X58661986Y-4121294D01*
X58603415Y-4136866D01*
X58569326Y-4160647D01*
X58553444Y-4194315D01*
X58549493Y-4239550D01*
X58549492Y-4240268D01*
X58552672Y-4279582D01*
X58566462Y-4308769D01*
X58597238Y-4329322D01*
X58651376Y-4342735D01*
X58735250Y-4350501D01*
X58855237Y-4354115D01*
X59017713Y-4355071D01*
X59039484Y-4355078D01*
X59469944Y-4355078D01*
X59462404Y-5316260D01*
X59460372Y-5560871D01*
X59458305Y-5760958D01*
X59455920Y-5921607D01*
X59452938Y-6047903D01*
X59449078Y-6144931D01*
X59444059Y-6217776D01*
X59437600Y-6271523D01*
X59429421Y-6311258D01*
X59419241Y-6342066D01*
X59406780Y-6369032D01*
X59404002Y-6374387D01*
X59326688Y-6471334D01*
X59217327Y-6534412D01*
X59081140Y-6562496D01*
X58923347Y-6554460D01*
X58760332Y-6513086D01*
X58656455Y-6480083D01*
X58586424Y-6466739D01*
X58538617Y-6472872D01*
X58501414Y-6498298D01*
X58491325Y-6508838D01*
X58452527Y-6577438D01*
X58459507Y-6642459D01*
X58508446Y-6701438D01*
X58595525Y-6751914D01*
X58716926Y-6791424D01*
X58868830Y-6817508D01*
X58983574Y-6826157D01*
X59155243Y-6825806D01*
X59283366Y-6808934D01*
X59312936Y-6800678D01*
X59465468Y-6727350D01*
X59584628Y-6617475D01*
X59662499Y-6490934D01*
X59727715Y-6351855D01*
X59734973Y-5353467D01*
X59742231Y-4355078D01*
X59996663Y-4355078D01*
X60127479Y-4352931D01*
X60216513Y-4344459D01*
X60271482Y-4326611D01*
X60300105Y-4296340D01*
X60310099Y-4250596D01*
X60310625Y-4231055D01*
X60305219Y-4179457D01*
X60283860Y-4144313D01*
X60238839Y-4122588D01*
X60162447Y-4111247D01*
X60046974Y-4107254D01*
X59995605Y-4107031D01*
X59740117Y-4107031D01*
X59740117Y-3735834D01*
X59739652Y-3591951D01*
X59737621Y-3489781D01*
X59733069Y-3421433D01*
X59725043Y-3379014D01*
X59712589Y-3354632D01*
X59694752Y-3340395D01*
X59692139Y-3338959D01*
X59617165Y-3316070D01*
X59542830Y-3319601D01*
G36*
X61561643Y-4060552D02*
X61324293Y-4088541D01*
X61091707Y-4144170D01*
X60945296Y-4196075D01*
X60845208Y-4238557D01*
X60778071Y-4276806D01*
X60737307Y-4321795D01*
X60716342Y-4384493D01*
X60708599Y-4475872D01*
X60707500Y-4592795D01*
X60710432Y-4728978D01*
X60721346Y-4823041D01*
X60743417Y-4882243D01*
X60779822Y-4913842D01*
X60833736Y-4925093D01*
X60853139Y-4925586D01*
X60911707Y-4918206D01*
X60949500Y-4890596D01*
X60970670Y-4834553D01*
X60979373Y-4741871D01*
X60980352Y-4674360D01*
X60980352Y-4482666D01*
X61111975Y-4433419D01*
X61380243Y-4359164D01*
X61657170Y-4332504D01*
X61935784Y-4353952D01*
X62007840Y-4367514D01*
X62178925Y-4419962D01*
X62306853Y-4496148D01*
X62392508Y-4596970D01*
X62436771Y-4723323D01*
X62443828Y-4810649D01*
X62435273Y-4897903D01*
X62402363Y-4967192D01*
X62367918Y-5010317D01*
X62308581Y-5065358D01*
X62231030Y-5112622D01*
X62128656Y-5154473D01*
X61994850Y-5193274D01*
X61823001Y-5231390D01*
X61669218Y-5260232D01*
X61408689Y-5311115D01*
X61193105Y-5364113D01*
X61017802Y-5421409D01*
X60878116Y-5485187D01*
X60769382Y-5557632D01*
X60686936Y-5640927D01*
X60626115Y-5737256D01*
X60619039Y-5751952D01*
X60574280Y-5895211D01*
X60558018Y-6059677D01*
X60571369Y-6225188D01*
X60588708Y-6299368D01*
X60637423Y-6399354D01*
X60720663Y-6504941D01*
X60826423Y-6604516D01*
X60942702Y-6686465D01*
X61035437Y-6731606D01*
X61227853Y-6786416D01*
X61448784Y-6821110D01*
X61680920Y-6834582D01*
X61906955Y-6825727D01*
X62086405Y-6798733D01*
X62197993Y-6768723D01*
X62324716Y-6725738D01*
X62452332Y-6675544D01*
X62566598Y-6623907D01*
X62653273Y-6576596D01*
X62678618Y-6558936D01*
X62705935Y-6535050D01*
X62723921Y-6507959D01*
X62734523Y-6467518D01*
X62739685Y-6403578D01*
X62741352Y-6305993D01*
X62741484Y-6230993D01*
X62739736Y-6094861D01*
X62732594Y-6000729D01*
X62717209Y-5941050D01*
X62690734Y-5908280D01*
X62650322Y-5894874D01*
X62613907Y-5892969D01*
X62547475Y-5908385D01*
X62502614Y-5957606D01*
X62477085Y-6045086D01*
X62468647Y-6175282D01*
X62468633Y-6181939D01*
X62468633Y-6360652D01*
X62276396Y-6434617D01*
X62010068Y-6518401D01*
X61757494Y-6558064D01*
X61511179Y-6554313D01*
X61328996Y-6524110D01*
X61153046Y-6467192D01*
X61011870Y-6386070D01*
X60908990Y-6284070D01*
X60847926Y-6164521D01*
X60831523Y-6053956D01*
X60846477Y-5942298D01*
X60893400Y-5846788D01*
X60975385Y-5765467D01*
X61095526Y-5696378D01*
X61256915Y-5637560D01*
X61462647Y-5587057D01*
X61612871Y-5559221D01*
X61861838Y-5513912D01*
X62066822Y-5468248D01*
X62233421Y-5420178D01*
X62367231Y-5367646D01*
X62473851Y-5308600D01*
X62558878Y-5240986D01*
X62600691Y-5196817D01*
X62686206Y-5060760D01*
X62731854Y-4906261D01*
X62738342Y-4743425D01*
X62706376Y-4582356D01*
X62636661Y-4433160D01*
X62539019Y-4314344D01*
X62398209Y-4213072D01*
X62222042Y-4136461D01*
X62018542Y-4085108D01*
X61795735Y-4059606D01*
X61561643Y-4060552D01*
X61561643Y-4060552D01*
G37*
X61561643Y-4060552D02*
X61324293Y-4088541D01*
X61091707Y-4144170D01*
X60945296Y-4196075D01*
X60845208Y-4238557D01*
X60778071Y-4276806D01*
X60737307Y-4321795D01*
X60716342Y-4384493D01*
X60708599Y-4475872D01*
X60707500Y-4592795D01*
X60710432Y-4728978D01*
X60721346Y-4823041D01*
X60743417Y-4882243D01*
X60779822Y-4913842D01*
X60833736Y-4925093D01*
X60853139Y-4925586D01*
X60911707Y-4918206D01*
X60949500Y-4890596D01*
X60970670Y-4834553D01*
X60979373Y-4741871D01*
X60980352Y-4674360D01*
X60980352Y-4482666D01*
X61111975Y-4433419D01*
X61380243Y-4359164D01*
X61657170Y-4332504D01*
X61935784Y-4353952D01*
X62007840Y-4367514D01*
X62178925Y-4419962D01*
X62306853Y-4496148D01*
X62392508Y-4596970D01*
X62436771Y-4723323D01*
X62443828Y-4810649D01*
X62435273Y-4897903D01*
X62402363Y-4967192D01*
X62367918Y-5010317D01*
X62308581Y-5065358D01*
X62231030Y-5112622D01*
X62128656Y-5154473D01*
X61994850Y-5193274D01*
X61823001Y-5231390D01*
X61669218Y-5260232D01*
X61408689Y-5311115D01*
X61193105Y-5364113D01*
X61017802Y-5421409D01*
X60878116Y-5485187D01*
X60769382Y-5557632D01*
X60686936Y-5640927D01*
X60626115Y-5737256D01*
X60619039Y-5751952D01*
X60574280Y-5895211D01*
X60558018Y-6059677D01*
X60571369Y-6225188D01*
X60588708Y-6299368D01*
X60637423Y-6399354D01*
X60720663Y-6504941D01*
X60826423Y-6604516D01*
X60942702Y-6686465D01*
X61035437Y-6731606D01*
X61227853Y-6786416D01*
X61448784Y-6821110D01*
X61680920Y-6834582D01*
X61906955Y-6825727D01*
X62086405Y-6798733D01*
X62197993Y-6768723D01*
X62324716Y-6725738D01*
X62452332Y-6675544D01*
X62566598Y-6623907D01*
X62653273Y-6576596D01*
X62678618Y-6558936D01*
X62705935Y-6535050D01*
X62723921Y-6507959D01*
X62734523Y-6467518D01*
X62739685Y-6403578D01*
X62741352Y-6305993D01*
X62741484Y-6230993D01*
X62739736Y-6094861D01*
X62732594Y-6000729D01*
X62717209Y-5941050D01*
X62690734Y-5908280D01*
X62650322Y-5894874D01*
X62613907Y-5892969D01*
X62547475Y-5908385D01*
X62502614Y-5957606D01*
X62477085Y-6045086D01*
X62468647Y-6175282D01*
X62468633Y-6181939D01*
X62468633Y-6360652D01*
X62276396Y-6434617D01*
X62010068Y-6518401D01*
X61757494Y-6558064D01*
X61511179Y-6554313D01*
X61328996Y-6524110D01*
X61153046Y-6467192D01*
X61011870Y-6386070D01*
X60908990Y-6284070D01*
X60847926Y-6164521D01*
X60831523Y-6053956D01*
X60846477Y-5942298D01*
X60893400Y-5846788D01*
X60975385Y-5765467D01*
X61095526Y-5696378D01*
X61256915Y-5637560D01*
X61462647Y-5587057D01*
X61612871Y-5559221D01*
X61861838Y-5513912D01*
X62066822Y-5468248D01*
X62233421Y-5420178D01*
X62367231Y-5367646D01*
X62473851Y-5308600D01*
X62558878Y-5240986D01*
X62600691Y-5196817D01*
X62686206Y-5060760D01*
X62731854Y-4906261D01*
X62738342Y-4743425D01*
X62706376Y-4582356D01*
X62636661Y-4433160D01*
X62539019Y-4314344D01*
X62398209Y-4213072D01*
X62222042Y-4136461D01*
X62018542Y-4085108D01*
X61795735Y-4059606D01*
X61561643Y-4060552D01*
G36*
X67199015Y-4073475D02*
X67056502Y-4083370D01*
X66941573Y-4100879D01*
X66885511Y-4114290D01*
X66752726Y-4155599D01*
X66628656Y-4203215D01*
X66523312Y-4252484D01*
X66446709Y-4298754D01*
X66409919Y-4335241D01*
X66400443Y-4381027D01*
X66397082Y-4461252D01*
X66399000Y-4562044D01*
X66405361Y-4669528D01*
X66415329Y-4769829D01*
X66428068Y-4849074D01*
X66442742Y-4893389D01*
X66443623Y-4894580D01*
X66483769Y-4916007D01*
X66547378Y-4925554D01*
X66551168Y-4925586D01*
X66611732Y-4916842D01*
X66651610Y-4885590D01*
X66674554Y-4824299D01*
X66684316Y-4725438D01*
X66685430Y-4656147D01*
X66685430Y-4482666D01*
X66819966Y-4432329D01*
X67070047Y-4363151D01*
X67333611Y-4334915D01*
X67490031Y-4338608D01*
X67680674Y-4361404D01*
X67831264Y-4399913D01*
X67949789Y-4457460D01*
X68044234Y-4537373D01*
X68084614Y-4586340D01*
X68124631Y-4675407D01*
X68138561Y-4785606D01*
X68126384Y-4896252D01*
X68088084Y-4986662D01*
X68084953Y-4990994D01*
X68047824Y-5035111D01*
X68004064Y-5073191D01*
X67948161Y-5107080D01*
X67874603Y-5138623D01*
X67777877Y-5169665D01*
X67652472Y-5202051D01*
X67492876Y-5237627D01*
X67293577Y-5278238D01*
X67133672Y-5309457D01*
X66894058Y-5364056D01*
X66699310Y-5427933D01*
X66545114Y-5503840D01*
X66427159Y-5594526D01*
X66341131Y-5702742D01*
X66282717Y-5831239D01*
X66274615Y-5857378D01*
X66248461Y-6023465D01*
X66261069Y-6192928D01*
X66309194Y-6353653D01*
X66389588Y-6493527D01*
X66467169Y-6575831D01*
X66597313Y-6662855D01*
X66762580Y-6737318D01*
X66948895Y-6793039D01*
X66974782Y-6798765D01*
X67120728Y-6820011D01*
X67294792Y-6830576D01*
X67477784Y-6830465D01*
X67650517Y-6819685D01*
X67792626Y-6798500D01*
X67906007Y-6767214D01*
X68037587Y-6720839D01*
X68170889Y-6666147D01*
X68289441Y-6609907D01*
X68376767Y-6558891D01*
X68378350Y-6557782D01*
X68408749Y-6534430D01*
X68428436Y-6508853D01*
X68439737Y-6470532D01*
X68444977Y-6408948D01*
X68446483Y-6313581D01*
X68446562Y-6249317D01*
X68444338Y-6108182D01*
X68435835Y-6009354D01*
X68418304Y-5945658D01*
X68388999Y-5909917D01*
X68345172Y-5894957D01*
X68310137Y-5892969D01*
X68249973Y-5900925D01*
X68209946Y-5929852D01*
X68186383Y-5987338D01*
X68175610Y-6080970D01*
X68173711Y-6174789D01*
X68173711Y-6360652D01*
X67980165Y-6435291D01*
X67730481Y-6512207D01*
X67480099Y-6552707D01*
X67238192Y-6556344D01*
X67013933Y-6522670D01*
X66901007Y-6487923D01*
X66744211Y-6413290D01*
X66632870Y-6322467D01*
X66564688Y-6212706D01*
X66537365Y-6081261D01*
X66536602Y-6052158D01*
X66547229Y-5947845D01*
X66581721Y-5859205D01*
X66643993Y-5783917D01*
X66737962Y-5719659D01*
X66867544Y-5664112D01*
X67036654Y-5614953D01*
X67249207Y-5569861D01*
X67392363Y-5544916D01*
X67648778Y-5495743D01*
X67866949Y-5438975D01*
X68043130Y-5375748D01*
X68172241Y-5308087D01*
X68292019Y-5201292D01*
X68375598Y-5069069D01*
X68422929Y-4919964D01*
X68433962Y-4762525D01*
X68408649Y-4605298D01*
X68346940Y-4456830D01*
X68248785Y-4325667D01*
X68178263Y-4263251D01*
X68050546Y-4183778D01*
X67902595Y-4126722D01*
X67726895Y-4090267D01*
X67515932Y-4072596D01*
X67379961Y-4070228D01*
X67199015Y-4073475D01*
X67199015Y-4073475D01*
G37*
X67199015Y-4073475D02*
X67056502Y-4083370D01*
X66941573Y-4100879D01*
X66885511Y-4114290D01*
X66752726Y-4155599D01*
X66628656Y-4203215D01*
X66523312Y-4252484D01*
X66446709Y-4298754D01*
X66409919Y-4335241D01*
X66400443Y-4381027D01*
X66397082Y-4461252D01*
X66399000Y-4562044D01*
X66405361Y-4669528D01*
X66415329Y-4769829D01*
X66428068Y-4849074D01*
X66442742Y-4893389D01*
X66443623Y-4894580D01*
X66483769Y-4916007D01*
X66547378Y-4925554D01*
X66551168Y-4925586D01*
X66611732Y-4916842D01*
X66651610Y-4885590D01*
X66674554Y-4824299D01*
X66684316Y-4725438D01*
X66685430Y-4656147D01*
X66685430Y-4482666D01*
X66819966Y-4432329D01*
X67070047Y-4363151D01*
X67333611Y-4334915D01*
X67490031Y-4338608D01*
X67680674Y-4361404D01*
X67831264Y-4399913D01*
X67949789Y-4457460D01*
X68044234Y-4537373D01*
X68084614Y-4586340D01*
X68124631Y-4675407D01*
X68138561Y-4785606D01*
X68126384Y-4896252D01*
X68088084Y-4986662D01*
X68084953Y-4990994D01*
X68047824Y-5035111D01*
X68004064Y-5073191D01*
X67948161Y-5107080D01*
X67874603Y-5138623D01*
X67777877Y-5169665D01*
X67652472Y-5202051D01*
X67492876Y-5237627D01*
X67293577Y-5278238D01*
X67133672Y-5309457D01*
X66894058Y-5364056D01*
X66699310Y-5427933D01*
X66545114Y-5503840D01*
X66427159Y-5594526D01*
X66341131Y-5702742D01*
X66282717Y-5831239D01*
X66274615Y-5857378D01*
X66248461Y-6023465D01*
X66261069Y-6192928D01*
X66309194Y-6353653D01*
X66389588Y-6493527D01*
X66467169Y-6575831D01*
X66597313Y-6662855D01*
X66762580Y-6737318D01*
X66948895Y-6793039D01*
X66974782Y-6798765D01*
X67120728Y-6820011D01*
X67294792Y-6830576D01*
X67477784Y-6830465D01*
X67650517Y-6819685D01*
X67792626Y-6798500D01*
X67906007Y-6767214D01*
X68037587Y-6720839D01*
X68170889Y-6666147D01*
X68289441Y-6609907D01*
X68376767Y-6558891D01*
X68378350Y-6557782D01*
X68408749Y-6534430D01*
X68428436Y-6508853D01*
X68439737Y-6470532D01*
X68444977Y-6408948D01*
X68446483Y-6313581D01*
X68446562Y-6249317D01*
X68444338Y-6108182D01*
X68435835Y-6009354D01*
X68418304Y-5945658D01*
X68388999Y-5909917D01*
X68345172Y-5894957D01*
X68310137Y-5892969D01*
X68249973Y-5900925D01*
X68209946Y-5929852D01*
X68186383Y-5987338D01*
X68175610Y-6080970D01*
X68173711Y-6174789D01*
X68173711Y-6360652D01*
X67980165Y-6435291D01*
X67730481Y-6512207D01*
X67480099Y-6552707D01*
X67238192Y-6556344D01*
X67013933Y-6522670D01*
X66901007Y-6487923D01*
X66744211Y-6413290D01*
X66632870Y-6322467D01*
X66564688Y-6212706D01*
X66537365Y-6081261D01*
X66536602Y-6052158D01*
X66547229Y-5947845D01*
X66581721Y-5859205D01*
X66643993Y-5783917D01*
X66737962Y-5719659D01*
X66867544Y-5664112D01*
X67036654Y-5614953D01*
X67249207Y-5569861D01*
X67392363Y-5544916D01*
X67648778Y-5495743D01*
X67866949Y-5438975D01*
X68043130Y-5375748D01*
X68172241Y-5308087D01*
X68292019Y-5201292D01*
X68375598Y-5069069D01*
X68422929Y-4919964D01*
X68433962Y-4762525D01*
X68408649Y-4605298D01*
X68346940Y-4456830D01*
X68248785Y-4325667D01*
X68178263Y-4263251D01*
X68050546Y-4183778D01*
X67902595Y-4126722D01*
X67726895Y-4090267D01*
X67515932Y-4072596D01*
X67379961Y-4070228D01*
X67199015Y-4073475D01*
G36*
X44848125Y-1679706D02*
X44780543Y-1744006D01*
X44741802Y-1832934D01*
X44739984Y-1931110D01*
X44754164Y-1967138D01*
X44790359Y-2042352D01*
X44846387Y-2152630D01*
X44920062Y-2293849D01*
X45009202Y-2461888D01*
X45111623Y-2652626D01*
X45225142Y-2861941D01*
X45347574Y-3085710D01*
X45452678Y-3276354D01*
X45610006Y-3560761D01*
X45745218Y-3805317D01*
X45860178Y-4013599D01*
X45956751Y-4189183D01*
X46036802Y-4335648D01*
X46102195Y-4456569D01*
X46154796Y-4555524D01*
X46196468Y-4636089D01*
X46229078Y-4701842D01*
X46254489Y-4756360D01*
X46274567Y-4803219D01*
X46291176Y-4845996D01*
X46306180Y-4888268D01*
X46321446Y-4933613D01*
X46329922Y-4959041D01*
X46404717Y-5239720D01*
X46434592Y-5499384D01*
X46419548Y-5738063D01*
X46411878Y-5779743D01*
X46359663Y-5977328D01*
X46286330Y-6143517D01*
X46182890Y-6294945D01*
X46062233Y-6426810D01*
X45899772Y-6569059D01*
X45733576Y-6672205D01*
X45547516Y-6744897D01*
X45400958Y-6781442D01*
X45165751Y-6806307D01*
X44936571Y-6785733D01*
X44718354Y-6723728D01*
X44516041Y-6624297D01*
X44334569Y-6491446D01*
X44178876Y-6329182D01*
X44053901Y-6141509D01*
X43964583Y-5932434D01*
X43915859Y-5705963D01*
X43908144Y-5570508D01*
X43931677Y-5329082D01*
X43999973Y-5103416D01*
X44109580Y-4897597D01*
X44257046Y-4715711D01*
X44438918Y-4561844D01*
X44651742Y-4440083D01*
X44892068Y-4354514D01*
X44946740Y-4341295D01*
X45077476Y-4303749D01*
X45165012Y-4256094D01*
X45215548Y-4192753D01*
X45235286Y-4108147D01*
X45236140Y-4080974D01*
X45216929Y-3973462D01*
X45160669Y-3898334D01*
X45069418Y-3857449D01*
X44980855Y-3850324D01*
X44892953Y-3859836D01*
X44782631Y-3881094D01*
X44677613Y-3908413D01*
X44402832Y-4016575D01*
X44152930Y-4165831D01*
X43931936Y-4352312D01*
X43743880Y-4572147D01*
X43592790Y-4821470D01*
X43502053Y-5037207D01*
X43472672Y-5127469D01*
X43452938Y-5206451D01*
X43440929Y-5288481D01*
X43434724Y-5387887D01*
X43432402Y-5518996D01*
X43432204Y-5558105D01*
X43432778Y-5698539D01*
X43436974Y-5804282D01*
X43446739Y-5890226D01*
X43464018Y-5971261D01*
X43490756Y-6062277D01*
X43503024Y-6100208D01*
X43613705Y-6360159D01*
X43765531Y-6596999D01*
X43953664Y-6806237D01*
X44173267Y-6983387D01*
X44419504Y-7123960D01*
X44687537Y-7223466D01*
X44723936Y-7233204D01*
X44910191Y-7266616D01*
X45119632Y-7280878D01*
X45332513Y-7275992D01*
X45529091Y-7251961D01*
X45613848Y-7233100D01*
X45878502Y-7143946D01*
X46109990Y-7024054D01*
X46317979Y-6867714D01*
X46448762Y-6739987D01*
X46632171Y-6513366D01*
X46770044Y-6272662D01*
X46865678Y-6010947D01*
X46918142Y-5753254D01*
X46934200Y-5529271D01*
X46919562Y-5298605D01*
X46872910Y-5055786D01*
X46792928Y-4795344D01*
X46678299Y-4511810D01*
X46558700Y-4260577D01*
X46492180Y-4130782D01*
X46410570Y-3975367D01*
X46316445Y-3798948D01*
X46212383Y-3606140D01*
X46100961Y-3401561D01*
X45984754Y-3189825D01*
X45866339Y-2975550D01*
X45748293Y-2763350D01*
X45633192Y-2557843D01*
X45523614Y-2363644D01*
X45422134Y-2185370D01*
X45331329Y-2027636D01*
X45253776Y-1895059D01*
X45192051Y-1792255D01*
X45148731Y-1723840D01*
X45126392Y-1694429D01*
X45126323Y-1694377D01*
X45030775Y-1648911D01*
X44934789Y-1646014D01*
X44848125Y-1679706D01*
X44848125Y-1679706D01*
G37*
X44848125Y-1679706D02*
X44780543Y-1744006D01*
X44741802Y-1832934D01*
X44739984Y-1931110D01*
X44754164Y-1967138D01*
X44790359Y-2042352D01*
X44846387Y-2152630D01*
X44920062Y-2293849D01*
X45009202Y-2461888D01*
X45111623Y-2652626D01*
X45225142Y-2861941D01*
X45347574Y-3085710D01*
X45452678Y-3276354D01*
X45610006Y-3560761D01*
X45745218Y-3805317D01*
X45860178Y-4013599D01*
X45956751Y-4189183D01*
X46036802Y-4335648D01*
X46102195Y-4456569D01*
X46154796Y-4555524D01*
X46196468Y-4636089D01*
X46229078Y-4701842D01*
X46254489Y-4756360D01*
X46274567Y-4803219D01*
X46291176Y-4845996D01*
X46306180Y-4888268D01*
X46321446Y-4933613D01*
X46329922Y-4959041D01*
X46404717Y-5239720D01*
X46434592Y-5499384D01*
X46419548Y-5738063D01*
X46411878Y-5779743D01*
X46359663Y-5977328D01*
X46286330Y-6143517D01*
X46182890Y-6294945D01*
X46062233Y-6426810D01*
X45899772Y-6569059D01*
X45733576Y-6672205D01*
X45547516Y-6744897D01*
X45400958Y-6781442D01*
X45165751Y-6806307D01*
X44936571Y-6785733D01*
X44718354Y-6723728D01*
X44516041Y-6624297D01*
X44334569Y-6491446D01*
X44178876Y-6329182D01*
X44053901Y-6141509D01*
X43964583Y-5932434D01*
X43915859Y-5705963D01*
X43908144Y-5570508D01*
X43931677Y-5329082D01*
X43999973Y-5103416D01*
X44109580Y-4897597D01*
X44257046Y-4715711D01*
X44438918Y-4561844D01*
X44651742Y-4440083D01*
X44892068Y-4354514D01*
X44946740Y-4341295D01*
X45077476Y-4303749D01*
X45165012Y-4256094D01*
X45215548Y-4192753D01*
X45235286Y-4108147D01*
X45236140Y-4080974D01*
X45216929Y-3973462D01*
X45160669Y-3898334D01*
X45069418Y-3857449D01*
X44980855Y-3850324D01*
X44892953Y-3859836D01*
X44782631Y-3881094D01*
X44677613Y-3908413D01*
X44402832Y-4016575D01*
X44152930Y-4165831D01*
X43931936Y-4352312D01*
X43743880Y-4572147D01*
X43592790Y-4821470D01*
X43502053Y-5037207D01*
X43472672Y-5127469D01*
X43452938Y-5206451D01*
X43440929Y-5288481D01*
X43434724Y-5387887D01*
X43432402Y-5518996D01*
X43432204Y-5558105D01*
X43432778Y-5698539D01*
X43436974Y-5804282D01*
X43446739Y-5890226D01*
X43464018Y-5971261D01*
X43490756Y-6062277D01*
X43503024Y-6100208D01*
X43613705Y-6360159D01*
X43765531Y-6596999D01*
X43953664Y-6806237D01*
X44173267Y-6983387D01*
X44419504Y-7123960D01*
X44687537Y-7223466D01*
X44723936Y-7233204D01*
X44910191Y-7266616D01*
X45119632Y-7280878D01*
X45332513Y-7275992D01*
X45529091Y-7251961D01*
X45613848Y-7233100D01*
X45878502Y-7143946D01*
X46109990Y-7024054D01*
X46317979Y-6867714D01*
X46448762Y-6739987D01*
X46632171Y-6513366D01*
X46770044Y-6272662D01*
X46865678Y-6010947D01*
X46918142Y-5753254D01*
X46934200Y-5529271D01*
X46919562Y-5298605D01*
X46872910Y-5055786D01*
X46792928Y-4795344D01*
X46678299Y-4511810D01*
X46558700Y-4260577D01*
X46492180Y-4130782D01*
X46410570Y-3975367D01*
X46316445Y-3798948D01*
X46212383Y-3606140D01*
X46100961Y-3401561D01*
X45984754Y-3189825D01*
X45866339Y-2975550D01*
X45748293Y-2763350D01*
X45633192Y-2557843D01*
X45523614Y-2363644D01*
X45422134Y-2185370D01*
X45331329Y-2027636D01*
X45253776Y-1895059D01*
X45192051Y-1792255D01*
X45148731Y-1723840D01*
X45126392Y-1694429D01*
X45126323Y-1694377D01*
X45030775Y-1648911D01*
X44934789Y-1646014D01*
X44848125Y-1679706D01*
G36*
X65273895Y-4107609D02*
X65132718Y-4110348D01*
X65029388Y-4116755D01*
X64958027Y-4128336D01*
X64912755Y-4146599D01*
X64887694Y-4173051D01*
X64876964Y-4209199D01*
X64874688Y-4256549D01*
X64874687Y-4256758D01*
X64886589Y-4315486D01*
X64926749Y-4353356D01*
X65001848Y-4373709D01*
X65118568Y-4379881D01*
X65121104Y-4379883D01*
X65200085Y-4382791D01*
X65254571Y-4390357D01*
X65271562Y-4399288D01*
X65262185Y-4426284D01*
X65235702Y-4492891D01*
X65194587Y-4593135D01*
X65141313Y-4721043D01*
X65078355Y-4870645D01*
X65008186Y-5035966D01*
X64996738Y-5062813D01*
X64917268Y-5249811D01*
X64837024Y-5439961D01*
X64760216Y-5623191D01*
X64691055Y-5789427D01*
X64633750Y-5928595D01*
X64597945Y-6016992D01*
X64551074Y-6132487D01*
X64509740Y-6231119D01*
X64477840Y-6303818D01*
X64459274Y-6341512D01*
X64457290Y-6344287D01*
X64445785Y-6324990D01*
X64418224Y-6265341D01*
X64376952Y-6171062D01*
X64324313Y-6047871D01*
X64262652Y-5901490D01*
X64194314Y-5737636D01*
X64121643Y-5562032D01*
X64046983Y-5380395D01*
X63972681Y-5198447D01*
X63901079Y-5021906D01*
X63834524Y-4856493D01*
X63775359Y-4707928D01*
X63725929Y-4581930D01*
X63688579Y-4484220D01*
X63665653Y-4420517D01*
X63659258Y-4397462D01*
X63681873Y-4388465D01*
X63740991Y-4382127D01*
X63818717Y-4379883D01*
X63934736Y-4371943D01*
X64009095Y-4345941D01*
X64047488Y-4298607D01*
X64056133Y-4243457D01*
X64053279Y-4199775D01*
X64040770Y-4166533D01*
X64012687Y-4142314D01*
X63963107Y-4125703D01*
X63886112Y-4115288D01*
X63775779Y-4109651D01*
X63626189Y-4107379D01*
X63485260Y-4107031D01*
X63317145Y-4107220D01*
X63191697Y-4108268D01*
X63101973Y-4110893D01*
X63041031Y-4115817D01*
X63001929Y-4123759D01*
X62977724Y-4135440D01*
X62961474Y-4151579D01*
X62953731Y-4162160D01*
X62917020Y-4240596D01*
X62926695Y-4303233D01*
X62981777Y-4349033D01*
X63081291Y-4376955D01*
X63163114Y-4384752D01*
X63323332Y-4392285D01*
X63960933Y-5917773D01*
X64072081Y-6183564D01*
X64179478Y-6440125D01*
X64281288Y-6683083D01*
X64375673Y-6908067D01*
X64460795Y-7110702D01*
X64534817Y-7286617D01*
X64595902Y-7431438D01*
X64642212Y-7540792D01*
X64671909Y-7610308D01*
X64678165Y-7624704D01*
X64775016Y-7801859D01*
X64891171Y-7938290D01*
X65023827Y-8031110D01*
X65103850Y-8062839D01*
X65217574Y-8090601D01*
X65313869Y-8096271D01*
X65418378Y-8080122D01*
X65471502Y-8066732D01*
X65582494Y-8028216D01*
X65681158Y-7978563D01*
X65753007Y-7925744D01*
X65774891Y-7899786D01*
X65789916Y-7834826D01*
X65770013Y-7765450D01*
X65722826Y-7712711D01*
X65703381Y-7702850D01*
X65653965Y-7693501D01*
X65594438Y-7705222D01*
X65509444Y-7740935D01*
X65410073Y-7778461D01*
X65312083Y-7800229D01*
X65275006Y-7802930D01*
X65207181Y-7796528D01*
X65147010Y-7773985D01*
X65090495Y-7730295D01*
X65033637Y-7660453D01*
X64972438Y-7559452D01*
X64902897Y-7422286D01*
X64821017Y-7243951D01*
X64811661Y-7222905D01*
X64751647Y-7086335D01*
X64698288Y-6962540D01*
X64655066Y-6859788D01*
X64625461Y-6786345D01*
X64613206Y-6751616D01*
X64619994Y-6715133D01*
X64646880Y-6634663D01*
X64693401Y-6511364D01*
X64759092Y-6346398D01*
X64843491Y-6140922D01*
X64946132Y-5896098D01*
X65066553Y-5613084D01*
X65095432Y-5545703D01*
X65590373Y-4392285D01*
X65783611Y-4379883D01*
X65882452Y-4372137D01*
X65944079Y-4361714D01*
X65980864Y-4344428D01*
X66005179Y-4316092D01*
X66013404Y-4302126D01*
X66035996Y-4250312D01*
X66028843Y-4208086D01*
X66007455Y-4171901D01*
X65964950Y-4107031D01*
X65458798Y-4107031D01*
X65273895Y-4107609D01*
X65273895Y-4107609D01*
G37*
X65273895Y-4107609D02*
X65132718Y-4110348D01*
X65029388Y-4116755D01*
X64958027Y-4128336D01*
X64912755Y-4146599D01*
X64887694Y-4173051D01*
X64876964Y-4209199D01*
X64874688Y-4256549D01*
X64874687Y-4256758D01*
X64886589Y-4315486D01*
X64926749Y-4353356D01*
X65001848Y-4373709D01*
X65118568Y-4379881D01*
X65121104Y-4379883D01*
X65200085Y-4382791D01*
X65254571Y-4390357D01*
X65271562Y-4399288D01*
X65262185Y-4426284D01*
X65235702Y-4492891D01*
X65194587Y-4593135D01*
X65141313Y-4721043D01*
X65078355Y-4870645D01*
X65008186Y-5035966D01*
X64996738Y-5062813D01*
X64917268Y-5249811D01*
X64837024Y-5439961D01*
X64760216Y-5623191D01*
X64691055Y-5789427D01*
X64633750Y-5928595D01*
X64597945Y-6016992D01*
X64551074Y-6132487D01*
X64509740Y-6231119D01*
X64477840Y-6303818D01*
X64459274Y-6341512D01*
X64457290Y-6344287D01*
X64445785Y-6324990D01*
X64418224Y-6265341D01*
X64376952Y-6171062D01*
X64324313Y-6047871D01*
X64262652Y-5901490D01*
X64194314Y-5737636D01*
X64121643Y-5562032D01*
X64046983Y-5380395D01*
X63972681Y-5198447D01*
X63901079Y-5021906D01*
X63834524Y-4856493D01*
X63775359Y-4707928D01*
X63725929Y-4581930D01*
X63688579Y-4484220D01*
X63665653Y-4420517D01*
X63659258Y-4397462D01*
X63681873Y-4388465D01*
X63740991Y-4382127D01*
X63818717Y-4379883D01*
X63934736Y-4371943D01*
X64009095Y-4345941D01*
X64047488Y-4298607D01*
X64056133Y-4243457D01*
X64053279Y-4199775D01*
X64040770Y-4166533D01*
X64012687Y-4142314D01*
X63963107Y-4125703D01*
X63886112Y-4115288D01*
X63775779Y-4109651D01*
X63626189Y-4107379D01*
X63485260Y-4107031D01*
X63317145Y-4107220D01*
X63191697Y-4108268D01*
X63101973Y-4110893D01*
X63041031Y-4115817D01*
X63001929Y-4123759D01*
X62977724Y-4135440D01*
X62961474Y-4151579D01*
X62953731Y-4162160D01*
X62917020Y-4240596D01*
X62926695Y-4303233D01*
X62981777Y-4349033D01*
X63081291Y-4376955D01*
X63163114Y-4384752D01*
X63323332Y-4392285D01*
X63960933Y-5917773D01*
X64072081Y-6183564D01*
X64179478Y-6440125D01*
X64281288Y-6683083D01*
X64375673Y-6908067D01*
X64460795Y-7110702D01*
X64534817Y-7286617D01*
X64595902Y-7431438D01*
X64642212Y-7540792D01*
X64671909Y-7610308D01*
X64678165Y-7624704D01*
X64775016Y-7801859D01*
X64891171Y-7938290D01*
X65023827Y-8031110D01*
X65103850Y-8062839D01*
X65217574Y-8090601D01*
X65313869Y-8096271D01*
X65418378Y-8080122D01*
X65471502Y-8066732D01*
X65582494Y-8028216D01*
X65681158Y-7978563D01*
X65753007Y-7925744D01*
X65774891Y-7899786D01*
X65789916Y-7834826D01*
X65770013Y-7765450D01*
X65722826Y-7712711D01*
X65703381Y-7702850D01*
X65653965Y-7693501D01*
X65594438Y-7705222D01*
X65509444Y-7740935D01*
X65410073Y-7778461D01*
X65312083Y-7800229D01*
X65275006Y-7802930D01*
X65207181Y-7796528D01*
X65147010Y-7773985D01*
X65090495Y-7730295D01*
X65033637Y-7660453D01*
X64972438Y-7559452D01*
X64902897Y-7422286D01*
X64821017Y-7243951D01*
X64811661Y-7222905D01*
X64751647Y-7086335D01*
X64698288Y-6962540D01*
X64655066Y-6859788D01*
X64625461Y-6786345D01*
X64613206Y-6751616D01*
X64619994Y-6715133D01*
X64646880Y-6634663D01*
X64693401Y-6511364D01*
X64759092Y-6346398D01*
X64843491Y-6140922D01*
X64946132Y-5896098D01*
X65066553Y-5613084D01*
X65095432Y-5545703D01*
X65590373Y-4392285D01*
X65783611Y-4379883D01*
X65882452Y-4372137D01*
X65944079Y-4361714D01*
X65980864Y-4344428D01*
X66005179Y-4316092D01*
X66013404Y-4302126D01*
X66035996Y-4250312D01*
X66028843Y-4208086D01*
X66007455Y-4171901D01*
X65964950Y-4107031D01*
X65458798Y-4107031D01*
X65273895Y-4107609D01*
G36*
X43615162Y-7949850D02*
X43563006Y-8016868D01*
X43543787Y-8091864D01*
X43542656Y-8125391D01*
X43553115Y-8209966D01*
X43592365Y-8276527D01*
X43615162Y-8300931D01*
X43687668Y-8373438D01*
X46639436Y-8373438D01*
X46713930Y-8310755D01*
X46783878Y-8224389D01*
X46808199Y-8127140D01*
X46786882Y-8027629D01*
X46719912Y-7934481D01*
X46714499Y-7929335D01*
X46702101Y-7918543D01*
X46687333Y-7909359D01*
X46666352Y-7901652D01*
X46635317Y-7895293D01*
X46590387Y-7890153D01*
X46527720Y-7886101D01*
X46443474Y-7883009D01*
X46333808Y-7880747D01*
X46194881Y-7879184D01*
X46022851Y-7878193D01*
X45813876Y-7877642D01*
X45564116Y-7877402D01*
X45269728Y-7877345D01*
X45173180Y-7877344D01*
X43687668Y-7877344D01*
X43615162Y-7949850D01*
X43615162Y-7949850D01*
G37*
X43615162Y-7949850D02*
X43563006Y-8016868D01*
X43543787Y-8091864D01*
X43542656Y-8125391D01*
X43553115Y-8209966D01*
X43592365Y-8276527D01*
X43615162Y-8300931D01*
X43687668Y-8373438D01*
X46639436Y-8373438D01*
X46713930Y-8310755D01*
X46783878Y-8224389D01*
X46808199Y-8127140D01*
X46786882Y-8027629D01*
X46719912Y-7934481D01*
X46714499Y-7929335D01*
X46702101Y-7918543D01*
X46687333Y-7909359D01*
X46666352Y-7901652D01*
X46635317Y-7895293D01*
X46590387Y-7890153D01*
X46527720Y-7886101D01*
X46443474Y-7883009D01*
X46333808Y-7880747D01*
X46194881Y-7879184D01*
X46022851Y-7878193D01*
X45813876Y-7877642D01*
X45564116Y-7877402D01*
X45269728Y-7877345D01*
X45173180Y-7877344D01*
X43687668Y-7877344D01*
X43615162Y-7949850D01*
G36*
X47035288Y-3707474D02*
X46987025Y-3770378D01*
X46969607Y-3825608D01*
X46972535Y-3881106D01*
X46985744Y-3914214D01*
X47020754Y-3987230D01*
X47075610Y-4096511D01*
X47148360Y-4238414D01*
X47237048Y-4409295D01*
X47339720Y-4605511D01*
X47454423Y-4823417D01*
X47579202Y-5059372D01*
X47712104Y-5309730D01*
X47851174Y-5570849D01*
X47994458Y-5839084D01*
X48140002Y-6110794D01*
X48285851Y-6382333D01*
X48430053Y-6650059D01*
X48570652Y-6910328D01*
X48705695Y-7159496D01*
X48833227Y-7393921D01*
X48951295Y-7609958D01*
X49057944Y-7803963D01*
X49151220Y-7972295D01*
X49229169Y-8111308D01*
X49289837Y-8217360D01*
X49331270Y-8286806D01*
X49350590Y-8315097D01*
X49430706Y-8366024D01*
X49537600Y-8382404D01*
X49586892Y-8378353D01*
X49640698Y-8355850D01*
X49699585Y-8311558D01*
X49704714Y-8306568D01*
X49726967Y-8284457D01*
X49745798Y-8263426D01*
X49759987Y-8240756D01*
X49768317Y-8213724D01*
X49769569Y-8179611D01*
X49762525Y-8135695D01*
X49745967Y-8079255D01*
X49718677Y-8007570D01*
X49679436Y-7917919D01*
X49627026Y-7807581D01*
X49560229Y-7673835D01*
X49477826Y-7513961D01*
X49378600Y-7325236D01*
X49261333Y-7104941D01*
X49124805Y-6850354D01*
X48967799Y-6558754D01*
X48789097Y-6227420D01*
X48699441Y-6061226D01*
X48543071Y-5771003D01*
X48393820Y-5493328D01*
X48253328Y-5231288D01*
X48123233Y-4987971D01*
X48005173Y-4766461D01*
X47900786Y-4569847D01*
X47811712Y-4401215D01*
X47739589Y-4263651D01*
X47686056Y-4160242D01*
X47652750Y-4094075D01*
X47641310Y-4068236D01*
X47641368Y-4068020D01*
X47667707Y-4065847D01*
X47738588Y-4064101D01*
X47848946Y-4062803D01*
X47993716Y-4061975D01*
X48167832Y-4061638D01*
X48366230Y-4061813D01*
X48583843Y-4062521D01*
X48747700Y-4063362D01*
X49842911Y-4069824D01*
X49640150Y-4404688D01*
X49548082Y-4561412D01*
X49483736Y-4684258D01*
X49445660Y-4779473D01*
X49432401Y-4853301D01*
X49442506Y-4911989D01*
X49474522Y-4961781D01*
X49503929Y-4990230D01*
X49589846Y-5038211D01*
X49683752Y-5050261D01*
X49769668Y-5026194D01*
X49811235Y-4993799D01*
X49838196Y-4957020D01*
X49885950Y-4884205D01*
X49950252Y-4782144D01*
X50026857Y-4657628D01*
X50111520Y-4517450D01*
X50162825Y-4431339D01*
X50268811Y-4250553D01*
X50349989Y-4106025D01*
X50408238Y-3992193D01*
X50445433Y-3903496D01*
X50463451Y-3834370D01*
X50464172Y-3779252D01*
X50449470Y-3732582D01*
X50421225Y-3688795D01*
X50415746Y-3681898D01*
X50368328Y-3623340D01*
X47110462Y-3623340D01*
X47035288Y-3707474D01*
X47035288Y-3707474D01*
G37*
X47035288Y-3707474D02*
X46987025Y-3770378D01*
X46969607Y-3825608D01*
X46972535Y-3881106D01*
X46985744Y-3914214D01*
X47020754Y-3987230D01*
X47075610Y-4096511D01*
X47148360Y-4238414D01*
X47237048Y-4409295D01*
X47339720Y-4605511D01*
X47454423Y-4823417D01*
X47579202Y-5059372D01*
X47712104Y-5309730D01*
X47851174Y-5570849D01*
X47994458Y-5839084D01*
X48140002Y-6110794D01*
X48285851Y-6382333D01*
X48430053Y-6650059D01*
X48570652Y-6910328D01*
X48705695Y-7159496D01*
X48833227Y-7393921D01*
X48951295Y-7609958D01*
X49057944Y-7803963D01*
X49151220Y-7972295D01*
X49229169Y-8111308D01*
X49289837Y-8217360D01*
X49331270Y-8286806D01*
X49350590Y-8315097D01*
X49430706Y-8366024D01*
X49537600Y-8382404D01*
X49586892Y-8378353D01*
X49640698Y-8355850D01*
X49699585Y-8311558D01*
X49704714Y-8306568D01*
X49726967Y-8284457D01*
X49745798Y-8263426D01*
X49759987Y-8240756D01*
X49768317Y-8213724D01*
X49769569Y-8179611D01*
X49762525Y-8135695D01*
X49745967Y-8079255D01*
X49718677Y-8007570D01*
X49679436Y-7917919D01*
X49627026Y-7807581D01*
X49560229Y-7673835D01*
X49477826Y-7513961D01*
X49378600Y-7325236D01*
X49261333Y-7104941D01*
X49124805Y-6850354D01*
X48967799Y-6558754D01*
X48789097Y-6227420D01*
X48699441Y-6061226D01*
X48543071Y-5771003D01*
X48393820Y-5493328D01*
X48253328Y-5231288D01*
X48123233Y-4987971D01*
X48005173Y-4766461D01*
X47900786Y-4569847D01*
X47811712Y-4401215D01*
X47739589Y-4263651D01*
X47686056Y-4160242D01*
X47652750Y-4094075D01*
X47641310Y-4068236D01*
X47641368Y-4068020D01*
X47667707Y-4065847D01*
X47738588Y-4064101D01*
X47848946Y-4062803D01*
X47993716Y-4061975D01*
X48167832Y-4061638D01*
X48366230Y-4061813D01*
X48583843Y-4062521D01*
X48747700Y-4063362D01*
X49842911Y-4069824D01*
X49640150Y-4404688D01*
X49548082Y-4561412D01*
X49483736Y-4684258D01*
X49445660Y-4779473D01*
X49432401Y-4853301D01*
X49442506Y-4911989D01*
X49474522Y-4961781D01*
X49503929Y-4990230D01*
X49589846Y-5038211D01*
X49683752Y-5050261D01*
X49769668Y-5026194D01*
X49811235Y-4993799D01*
X49838196Y-4957020D01*
X49885950Y-4884205D01*
X49950252Y-4782144D01*
X50026857Y-4657628D01*
X50111520Y-4517450D01*
X50162825Y-4431339D01*
X50268811Y-4250553D01*
X50349989Y-4106025D01*
X50408238Y-3992193D01*
X50445433Y-3903496D01*
X50463451Y-3834370D01*
X50464172Y-3779252D01*
X50449470Y-3732582D01*
X50421225Y-3688795D01*
X50415746Y-3681898D01*
X50368328Y-3623340D01*
X47110462Y-3623340D01*
X47035288Y-3707474D01*
%TD*%
%TO.C,POWER0*%
D10*
X67495714Y-64277380D02*
X67495714Y-63277380D01*
X67114761Y-63277380D01*
X67019523Y-63325000D01*
X66971904Y-63372619D01*
X66924285Y-63467857D01*
X66924285Y-63610714D01*
X66971904Y-63705952D01*
X67019523Y-63753571D01*
X67114761Y-63801190D01*
X67495714Y-63801190D01*
X66305238Y-63277380D02*
X66114761Y-63277380D01*
X66019523Y-63325000D01*
X65924285Y-63420238D01*
X65876666Y-63610714D01*
X65876666Y-63944047D01*
X65924285Y-64134523D01*
X66019523Y-64229761D01*
X66114761Y-64277380D01*
X66305238Y-64277380D01*
X66400476Y-64229761D01*
X66495714Y-64134523D01*
X66543333Y-63944047D01*
X66543333Y-63610714D01*
X66495714Y-63420238D01*
X66400476Y-63325000D01*
X66305238Y-63277380D01*
X65543333Y-63277380D02*
X65305238Y-64277380D01*
X65114761Y-63563095D01*
X64924285Y-64277380D01*
X64686190Y-63277380D01*
X64305238Y-63753571D02*
X63971904Y-63753571D01*
X63829047Y-64277380D02*
X64305238Y-64277380D01*
X64305238Y-63277380D01*
X63829047Y-63277380D01*
X62829047Y-64277380D02*
X63162380Y-63801190D01*
X63400476Y-64277380D02*
X63400476Y-63277380D01*
X63019523Y-63277380D01*
X62924285Y-63325000D01*
X62876666Y-63372619D01*
X62829047Y-63467857D01*
X62829047Y-63610714D01*
X62876666Y-63705952D01*
X62924285Y-63753571D01*
X63019523Y-63801190D01*
X63400476Y-63801190D01*
X62210000Y-63277380D02*
X62114761Y-63277380D01*
X62019523Y-63325000D01*
X61971904Y-63372619D01*
X61924285Y-63467857D01*
X61876666Y-63658333D01*
X61876666Y-63896428D01*
X61924285Y-64086904D01*
X61971904Y-64182142D01*
X62019523Y-64229761D01*
X62114761Y-64277380D01*
X62210000Y-64277380D01*
X62305238Y-64229761D01*
X62352857Y-64182142D01*
X62400476Y-64086904D01*
X62448095Y-63896428D01*
X62448095Y-63658333D01*
X62400476Y-63467857D01*
X62352857Y-63372619D01*
X62305238Y-63325000D01*
X62210000Y-63277380D01*
%TO.C,USB0*%
X10628095Y-62362380D02*
X10628095Y-63171904D01*
X10580476Y-63267142D01*
X10532857Y-63314761D01*
X10437619Y-63362380D01*
X10247142Y-63362380D01*
X10151904Y-63314761D01*
X10104285Y-63267142D01*
X10056666Y-63171904D01*
X10056666Y-62362380D01*
X9628095Y-63314761D02*
X9485238Y-63362380D01*
X9247142Y-63362380D01*
X9151904Y-63314761D01*
X9104285Y-63267142D01*
X9056666Y-63171904D01*
X9056666Y-63076666D01*
X9104285Y-62981428D01*
X9151904Y-62933809D01*
X9247142Y-62886190D01*
X9437619Y-62838571D01*
X9532857Y-62790952D01*
X9580476Y-62743333D01*
X9628095Y-62648095D01*
X9628095Y-62552857D01*
X9580476Y-62457619D01*
X9532857Y-62410000D01*
X9437619Y-62362380D01*
X9199523Y-62362380D01*
X9056666Y-62410000D01*
X8294761Y-62838571D02*
X8151904Y-62886190D01*
X8104285Y-62933809D01*
X8056666Y-63029047D01*
X8056666Y-63171904D01*
X8104285Y-63267142D01*
X8151904Y-63314761D01*
X8247142Y-63362380D01*
X8628095Y-63362380D01*
X8628095Y-62362380D01*
X8294761Y-62362380D01*
X8199523Y-62410000D01*
X8151904Y-62457619D01*
X8104285Y-62552857D01*
X8104285Y-62648095D01*
X8151904Y-62743333D01*
X8199523Y-62790952D01*
X8294761Y-62838571D01*
X8628095Y-62838571D01*
X7437619Y-62362380D02*
X7342380Y-62362380D01*
X7247142Y-62410000D01*
X7199523Y-62457619D01*
X7151904Y-62552857D01*
X7104285Y-62743333D01*
X7104285Y-62981428D01*
X7151904Y-63171904D01*
X7199523Y-63267142D01*
X7247142Y-63314761D01*
X7342380Y-63362380D01*
X7437619Y-63362380D01*
X7532857Y-63314761D01*
X7580476Y-63267142D01*
X7628095Y-63171904D01*
X7675714Y-62981428D01*
X7675714Y-62743333D01*
X7628095Y-62552857D01*
X7580476Y-62457619D01*
X7532857Y-62410000D01*
X7437619Y-62362380D01*
%TO.C,ICSP0*%
X17132380Y-23782380D02*
X17132380Y-22782380D01*
X16084761Y-23687142D02*
X16132380Y-23734761D01*
X16275238Y-23782380D01*
X16370476Y-23782380D01*
X16513333Y-23734761D01*
X16608571Y-23639523D01*
X16656190Y-23544285D01*
X16703809Y-23353809D01*
X16703809Y-23210952D01*
X16656190Y-23020476D01*
X16608571Y-22925238D01*
X16513333Y-22830000D01*
X16370476Y-22782380D01*
X16275238Y-22782380D01*
X16132380Y-22830000D01*
X16084761Y-22877619D01*
X15703809Y-23734761D02*
X15560952Y-23782380D01*
X15322857Y-23782380D01*
X15227619Y-23734761D01*
X15180000Y-23687142D01*
X15132380Y-23591904D01*
X15132380Y-23496666D01*
X15180000Y-23401428D01*
X15227619Y-23353809D01*
X15322857Y-23306190D01*
X15513333Y-23258571D01*
X15608571Y-23210952D01*
X15656190Y-23163333D01*
X15703809Y-23068095D01*
X15703809Y-22972857D01*
X15656190Y-22877619D01*
X15608571Y-22830000D01*
X15513333Y-22782380D01*
X15275238Y-22782380D01*
X15132380Y-22830000D01*
X14703809Y-23782380D02*
X14703809Y-22782380D01*
X14322857Y-22782380D01*
X14227619Y-22830000D01*
X14180000Y-22877619D01*
X14132380Y-22972857D01*
X14132380Y-23115714D01*
X14180000Y-23210952D01*
X14227619Y-23258571D01*
X14322857Y-23306190D01*
X14703809Y-23306190D01*
X13513333Y-22782380D02*
X13418095Y-22782380D01*
X13322857Y-22830000D01*
X13275238Y-22877619D01*
X13227619Y-22972857D01*
X13180000Y-23163333D01*
X13180000Y-23401428D01*
X13227619Y-23591904D01*
X13275238Y-23687142D01*
X13322857Y-23734761D01*
X13418095Y-23782380D01*
X13513333Y-23782380D01*
X13608571Y-23734761D01*
X13656190Y-23687142D01*
X13703809Y-23591904D01*
X13751428Y-23401428D01*
X13751428Y-23163333D01*
X13703809Y-22972857D01*
X13656190Y-22877619D01*
X13608571Y-22830000D01*
X13513333Y-22782380D01*
%TO.C,B0*%
X5554761Y-31328571D02*
X5411904Y-31376190D01*
X5364285Y-31423809D01*
X5316666Y-31519047D01*
X5316666Y-31661904D01*
X5364285Y-31757142D01*
X5411904Y-31804761D01*
X5507142Y-31852380D01*
X5888095Y-31852380D01*
X5888095Y-30852380D01*
X5554761Y-30852380D01*
X5459523Y-30900000D01*
X5411904Y-30947619D01*
X5364285Y-31042857D01*
X5364285Y-31138095D01*
X5411904Y-31233333D01*
X5459523Y-31280952D01*
X5554761Y-31328571D01*
X5888095Y-31328571D01*
X4697619Y-30852380D02*
X4602380Y-30852380D01*
X4507142Y-30900000D01*
X4459523Y-30947619D01*
X4411904Y-31042857D01*
X4364285Y-31233333D01*
X4364285Y-31471428D01*
X4411904Y-31661904D01*
X4459523Y-31757142D01*
X4507142Y-31804761D01*
X4602380Y-31852380D01*
X4697619Y-31852380D01*
X4792857Y-31804761D01*
X4840476Y-31757142D01*
X4888095Y-31661904D01*
X4935714Y-31471428D01*
X4935714Y-31233333D01*
X4888095Y-31042857D01*
X4840476Y-30947619D01*
X4792857Y-30900000D01*
X4697619Y-30852380D01*
%TO.C,DATA2*%
X31251190Y-28172380D02*
X31251190Y-27172380D01*
X31013095Y-27172380D01*
X30870238Y-27220000D01*
X30775000Y-27315238D01*
X30727380Y-27410476D01*
X30679761Y-27600952D01*
X30679761Y-27743809D01*
X30727380Y-27934285D01*
X30775000Y-28029523D01*
X30870238Y-28124761D01*
X31013095Y-28172380D01*
X31251190Y-28172380D01*
X30298809Y-27886666D02*
X29822619Y-27886666D01*
X30394047Y-28172380D02*
X30060714Y-27172380D01*
X29727380Y-28172380D01*
X29536904Y-27172380D02*
X28965476Y-27172380D01*
X29251190Y-28172380D02*
X29251190Y-27172380D01*
X28679761Y-27886666D02*
X28203571Y-27886666D01*
X28775000Y-28172380D02*
X28441666Y-27172380D01*
X28108333Y-28172380D01*
X27822619Y-27267619D02*
X27775000Y-27220000D01*
X27679761Y-27172380D01*
X27441666Y-27172380D01*
X27346428Y-27220000D01*
X27298809Y-27267619D01*
X27251190Y-27362857D01*
X27251190Y-27458095D01*
X27298809Y-27600952D01*
X27870238Y-28172380D01*
X27251190Y-28172380D01*
%TO.C,DATA0*%
X31251190Y-12172380D02*
X31251190Y-11172380D01*
X31013095Y-11172380D01*
X30870238Y-11220000D01*
X30775000Y-11315238D01*
X30727380Y-11410476D01*
X30679761Y-11600952D01*
X30679761Y-11743809D01*
X30727380Y-11934285D01*
X30775000Y-12029523D01*
X30870238Y-12124761D01*
X31013095Y-12172380D01*
X31251190Y-12172380D01*
X30298809Y-11886666D02*
X29822619Y-11886666D01*
X30394047Y-12172380D02*
X30060714Y-11172380D01*
X29727380Y-12172380D01*
X29536904Y-11172380D02*
X28965476Y-11172380D01*
X29251190Y-12172380D02*
X29251190Y-11172380D01*
X28679761Y-11886666D02*
X28203571Y-11886666D01*
X28775000Y-12172380D02*
X28441666Y-11172380D01*
X28108333Y-12172380D01*
X27584523Y-11172380D02*
X27489285Y-11172380D01*
X27394047Y-11220000D01*
X27346428Y-11267619D01*
X27298809Y-11362857D01*
X27251190Y-11553333D01*
X27251190Y-11791428D01*
X27298809Y-11981904D01*
X27346428Y-12077142D01*
X27394047Y-12124761D01*
X27489285Y-12172380D01*
X27584523Y-12172380D01*
X27679761Y-12124761D01*
X27727380Y-12077142D01*
X27775000Y-11981904D01*
X27822619Y-11791428D01*
X27822619Y-11553333D01*
X27775000Y-11362857D01*
X27727380Y-11267619D01*
X27679761Y-11220000D01*
X27584523Y-11172380D01*
%TO.C,DATA3*%
X31251190Y-60172380D02*
X31251190Y-59172380D01*
X31013095Y-59172380D01*
X30870238Y-59220000D01*
X30775000Y-59315238D01*
X30727380Y-59410476D01*
X30679761Y-59600952D01*
X30679761Y-59743809D01*
X30727380Y-59934285D01*
X30775000Y-60029523D01*
X30870238Y-60124761D01*
X31013095Y-60172380D01*
X31251190Y-60172380D01*
X30298809Y-59886666D02*
X29822619Y-59886666D01*
X30394047Y-60172380D02*
X30060714Y-59172380D01*
X29727380Y-60172380D01*
X29536904Y-59172380D02*
X28965476Y-59172380D01*
X29251190Y-60172380D02*
X29251190Y-59172380D01*
X28679761Y-59886666D02*
X28203571Y-59886666D01*
X28775000Y-60172380D02*
X28441666Y-59172380D01*
X28108333Y-60172380D01*
X27870238Y-59172380D02*
X27251190Y-59172380D01*
X27584523Y-59553333D01*
X27441666Y-59553333D01*
X27346428Y-59600952D01*
X27298809Y-59648571D01*
X27251190Y-59743809D01*
X27251190Y-59981904D01*
X27298809Y-60077142D01*
X27346428Y-60124761D01*
X27441666Y-60172380D01*
X27727380Y-60172380D01*
X27822619Y-60124761D01*
X27870238Y-60077142D01*
%TO.C,DATA1*%
X31251190Y-44522380D02*
X31251190Y-43522380D01*
X31013095Y-43522380D01*
X30870238Y-43570000D01*
X30775000Y-43665238D01*
X30727380Y-43760476D01*
X30679761Y-43950952D01*
X30679761Y-44093809D01*
X30727380Y-44284285D01*
X30775000Y-44379523D01*
X30870238Y-44474761D01*
X31013095Y-44522380D01*
X31251190Y-44522380D01*
X30298809Y-44236666D02*
X29822619Y-44236666D01*
X30394047Y-44522380D02*
X30060714Y-43522380D01*
X29727380Y-44522380D01*
X29536904Y-43522380D02*
X28965476Y-43522380D01*
X29251190Y-44522380D02*
X29251190Y-43522380D01*
X28679761Y-44236666D02*
X28203571Y-44236666D01*
X28775000Y-44522380D02*
X28441666Y-43522380D01*
X28108333Y-44522380D01*
X27251190Y-44522380D02*
X27822619Y-44522380D01*
X27536904Y-44522380D02*
X27536904Y-43522380D01*
X27632142Y-43665238D01*
X27727380Y-43760476D01*
X27822619Y-43808095D01*
%TO.C,C0*%
X10866666Y-50207142D02*
X10914285Y-50254761D01*
X11057142Y-50302380D01*
X11152380Y-50302380D01*
X11295238Y-50254761D01*
X11390476Y-50159523D01*
X11438095Y-50064285D01*
X11485714Y-49873809D01*
X11485714Y-49730952D01*
X11438095Y-49540476D01*
X11390476Y-49445238D01*
X11295238Y-49350000D01*
X11152380Y-49302380D01*
X11057142Y-49302380D01*
X10914285Y-49350000D01*
X10866666Y-49397619D01*
X10247619Y-49302380D02*
X10152380Y-49302380D01*
X10057142Y-49350000D01*
X10009523Y-49397619D01*
X9961904Y-49492857D01*
X9914285Y-49683333D01*
X9914285Y-49921428D01*
X9961904Y-50111904D01*
X10009523Y-50207142D01*
X10057142Y-50254761D01*
X10152380Y-50302380D01*
X10247619Y-50302380D01*
X10342857Y-50254761D01*
X10390476Y-50207142D01*
X10438095Y-50111904D01*
X10485714Y-49921428D01*
X10485714Y-49683333D01*
X10438095Y-49492857D01*
X10390476Y-49397619D01*
X10342857Y-49350000D01*
X10247619Y-49302380D01*
%TO.C,R0*%
X11596666Y-62092380D02*
X11930000Y-61616190D01*
X12168095Y-62092380D02*
X12168095Y-61092380D01*
X11787142Y-61092380D01*
X11691904Y-61140000D01*
X11644285Y-61187619D01*
X11596666Y-61282857D01*
X11596666Y-61425714D01*
X11644285Y-61520952D01*
X11691904Y-61568571D01*
X11787142Y-61616190D01*
X12168095Y-61616190D01*
X10977619Y-61092380D02*
X10882380Y-61092380D01*
X10787142Y-61140000D01*
X10739523Y-61187619D01*
X10691904Y-61282857D01*
X10644285Y-61473333D01*
X10644285Y-61711428D01*
X10691904Y-61901904D01*
X10739523Y-61997142D01*
X10787142Y-62044761D01*
X10882380Y-62092380D01*
X10977619Y-62092380D01*
X11072857Y-62044761D01*
X11120476Y-61997142D01*
X11168095Y-61901904D01*
X11215714Y-61711428D01*
X11215714Y-61473333D01*
X11168095Y-61282857D01*
X11120476Y-61187619D01*
X11072857Y-61140000D01*
X10977619Y-61092380D01*
%TO.C,R1*%
X14136666Y-62092380D02*
X14470000Y-61616190D01*
X14708095Y-62092380D02*
X14708095Y-61092380D01*
X14327142Y-61092380D01*
X14231904Y-61140000D01*
X14184285Y-61187619D01*
X14136666Y-61282857D01*
X14136666Y-61425714D01*
X14184285Y-61520952D01*
X14231904Y-61568571D01*
X14327142Y-61616190D01*
X14708095Y-61616190D01*
X13184285Y-62092380D02*
X13755714Y-62092380D01*
X13470000Y-62092380D02*
X13470000Y-61092380D01*
X13565238Y-61235238D01*
X13660476Y-61330476D01*
X13755714Y-61378095D01*
%TO.C,R2*%
X23026666Y-65582380D02*
X23360000Y-65106190D01*
X23598095Y-65582380D02*
X23598095Y-64582380D01*
X23217142Y-64582380D01*
X23121904Y-64630000D01*
X23074285Y-64677619D01*
X23026666Y-64772857D01*
X23026666Y-64915714D01*
X23074285Y-65010952D01*
X23121904Y-65058571D01*
X23217142Y-65106190D01*
X23598095Y-65106190D01*
X22645714Y-64677619D02*
X22598095Y-64630000D01*
X22502857Y-64582380D01*
X22264761Y-64582380D01*
X22169523Y-64630000D01*
X22121904Y-64677619D01*
X22074285Y-64772857D01*
X22074285Y-64868095D01*
X22121904Y-65010952D01*
X22693333Y-65582380D01*
X22074285Y-65582380D01*
%TO.C,CPUOUT0*%
X44339047Y-64182142D02*
X44386666Y-64229761D01*
X44529523Y-64277380D01*
X44624761Y-64277380D01*
X44767619Y-64229761D01*
X44862857Y-64134523D01*
X44910476Y-64039285D01*
X44958095Y-63848809D01*
X44958095Y-63705952D01*
X44910476Y-63515476D01*
X44862857Y-63420238D01*
X44767619Y-63325000D01*
X44624761Y-63277380D01*
X44529523Y-63277380D01*
X44386666Y-63325000D01*
X44339047Y-63372619D01*
X43910476Y-64277380D02*
X43910476Y-63277380D01*
X43529523Y-63277380D01*
X43434285Y-63325000D01*
X43386666Y-63372619D01*
X43339047Y-63467857D01*
X43339047Y-63610714D01*
X43386666Y-63705952D01*
X43434285Y-63753571D01*
X43529523Y-63801190D01*
X43910476Y-63801190D01*
X42910476Y-63277380D02*
X42910476Y-64086904D01*
X42862857Y-64182142D01*
X42815238Y-64229761D01*
X42720000Y-64277380D01*
X42529523Y-64277380D01*
X42434285Y-64229761D01*
X42386666Y-64182142D01*
X42339047Y-64086904D01*
X42339047Y-63277380D01*
X41672380Y-63277380D02*
X41481904Y-63277380D01*
X41386666Y-63325000D01*
X41291428Y-63420238D01*
X41243809Y-63610714D01*
X41243809Y-63944047D01*
X41291428Y-64134523D01*
X41386666Y-64229761D01*
X41481904Y-64277380D01*
X41672380Y-64277380D01*
X41767619Y-64229761D01*
X41862857Y-64134523D01*
X41910476Y-63944047D01*
X41910476Y-63610714D01*
X41862857Y-63420238D01*
X41767619Y-63325000D01*
X41672380Y-63277380D01*
X40815238Y-63277380D02*
X40815238Y-64086904D01*
X40767619Y-64182142D01*
X40720000Y-64229761D01*
X40624761Y-64277380D01*
X40434285Y-64277380D01*
X40339047Y-64229761D01*
X40291428Y-64182142D01*
X40243809Y-64086904D01*
X40243809Y-63277380D01*
X39910476Y-63277380D02*
X39339047Y-63277380D01*
X39624761Y-64277380D02*
X39624761Y-63277380D01*
X38815238Y-63277380D02*
X38720000Y-63277380D01*
X38624761Y-63325000D01*
X38577142Y-63372619D01*
X38529523Y-63467857D01*
X38481904Y-63658333D01*
X38481904Y-63896428D01*
X38529523Y-64086904D01*
X38577142Y-64182142D01*
X38624761Y-64229761D01*
X38720000Y-64277380D01*
X38815238Y-64277380D01*
X38910476Y-64229761D01*
X38958095Y-64182142D01*
X39005714Y-64086904D01*
X39053333Y-63896428D01*
X39053333Y-63658333D01*
X39005714Y-63467857D01*
X38958095Y-63372619D01*
X38910476Y-63325000D01*
X38815238Y-63277380D01*
%TO.C,CPUMUX0*%
X18871904Y-56282142D02*
X18919523Y-56329761D01*
X19062380Y-56377380D01*
X19157619Y-56377380D01*
X19300476Y-56329761D01*
X19395714Y-56234523D01*
X19443333Y-56139285D01*
X19490952Y-55948809D01*
X19490952Y-55805952D01*
X19443333Y-55615476D01*
X19395714Y-55520238D01*
X19300476Y-55425000D01*
X19157619Y-55377380D01*
X19062380Y-55377380D01*
X18919523Y-55425000D01*
X18871904Y-55472619D01*
X18443333Y-56377380D02*
X18443333Y-55377380D01*
X18062380Y-55377380D01*
X17967142Y-55425000D01*
X17919523Y-55472619D01*
X17871904Y-55567857D01*
X17871904Y-55710714D01*
X17919523Y-55805952D01*
X17967142Y-55853571D01*
X18062380Y-55901190D01*
X18443333Y-55901190D01*
X17443333Y-55377380D02*
X17443333Y-56186904D01*
X17395714Y-56282142D01*
X17348095Y-56329761D01*
X17252857Y-56377380D01*
X17062380Y-56377380D01*
X16967142Y-56329761D01*
X16919523Y-56282142D01*
X16871904Y-56186904D01*
X16871904Y-55377380D01*
X16395714Y-56377380D02*
X16395714Y-55377380D01*
X16062380Y-56091666D01*
X15729047Y-55377380D01*
X15729047Y-56377380D01*
X15252857Y-55377380D02*
X15252857Y-56186904D01*
X15205238Y-56282142D01*
X15157619Y-56329761D01*
X15062380Y-56377380D01*
X14871904Y-56377380D01*
X14776666Y-56329761D01*
X14729047Y-56282142D01*
X14681428Y-56186904D01*
X14681428Y-55377380D01*
X14300476Y-55377380D02*
X13633809Y-56377380D01*
X13633809Y-55377380D02*
X14300476Y-56377380D01*
X13062380Y-55377380D02*
X12967142Y-55377380D01*
X12871904Y-55425000D01*
X12824285Y-55472619D01*
X12776666Y-55567857D01*
X12729047Y-55758333D01*
X12729047Y-55996428D01*
X12776666Y-56186904D01*
X12824285Y-56282142D01*
X12871904Y-56329761D01*
X12967142Y-56377380D01*
X13062380Y-56377380D01*
X13157619Y-56329761D01*
X13205238Y-56282142D01*
X13252857Y-56186904D01*
X13300476Y-55996428D01*
X13300476Y-55758333D01*
X13252857Y-55567857D01*
X13205238Y-55472619D01*
X13157619Y-55425000D01*
X13062380Y-55377380D01*
%TO.C,AVR0*%
X12275357Y-46816667D02*
X11799166Y-46816667D01*
X12370595Y-47102381D02*
X12037261Y-46102381D01*
X11703928Y-47102381D01*
X11513452Y-46102381D02*
X11180119Y-47102381D01*
X10846785Y-46102381D01*
X9942023Y-47102381D02*
X10275357Y-46626191D01*
X10513452Y-47102381D02*
X10513452Y-46102381D01*
X10132500Y-46102381D01*
X10037261Y-46150001D01*
X9989642Y-46197620D01*
X9942023Y-46292858D01*
X9942023Y-46435715D01*
X9989642Y-46530953D01*
X10037261Y-46578572D01*
X10132500Y-46626191D01*
X10513452Y-46626191D01*
X9322976Y-46102381D02*
X9227738Y-46102381D01*
X9132500Y-46150001D01*
X9084880Y-46197620D01*
X9037261Y-46292858D01*
X8989642Y-46483334D01*
X8989642Y-46721429D01*
X9037261Y-46911905D01*
X9084880Y-47007143D01*
X9132500Y-47054762D01*
X9227738Y-47102381D01*
X9322976Y-47102381D01*
X9418214Y-47054762D01*
X9465833Y-47007143D01*
X9513452Y-46911905D01*
X9561071Y-46721429D01*
X9561071Y-46483334D01*
X9513452Y-46292858D01*
X9465833Y-46197620D01*
X9418214Y-46150001D01*
X9322976Y-46102381D01*
%TO.C,PMB0*%
X6889523Y-67172380D02*
X6889523Y-66172380D01*
X6508571Y-66172380D01*
X6413333Y-66220000D01*
X6365714Y-66267619D01*
X6318095Y-66362857D01*
X6318095Y-66505714D01*
X6365714Y-66600952D01*
X6413333Y-66648571D01*
X6508571Y-66696190D01*
X6889523Y-66696190D01*
X5889523Y-67172380D02*
X5889523Y-66172380D01*
X5556190Y-66886666D01*
X5222857Y-66172380D01*
X5222857Y-67172380D01*
X4413333Y-66648571D02*
X4270476Y-66696190D01*
X4222857Y-66743809D01*
X4175238Y-66839047D01*
X4175238Y-66981904D01*
X4222857Y-67077142D01*
X4270476Y-67124761D01*
X4365714Y-67172380D01*
X4746666Y-67172380D01*
X4746666Y-66172380D01*
X4413333Y-66172380D01*
X4318095Y-66220000D01*
X4270476Y-66267619D01*
X4222857Y-66362857D01*
X4222857Y-66458095D01*
X4270476Y-66553333D01*
X4318095Y-66600952D01*
X4413333Y-66648571D01*
X4746666Y-66648571D01*
X3556190Y-66172380D02*
X3460952Y-66172380D01*
X3365714Y-66220000D01*
X3318095Y-66267619D01*
X3270476Y-66362857D01*
X3222857Y-66553333D01*
X3222857Y-66791428D01*
X3270476Y-66981904D01*
X3318095Y-67077142D01*
X3365714Y-67124761D01*
X3460952Y-67172380D01*
X3556190Y-67172380D01*
X3651428Y-67124761D01*
X3699047Y-67077142D01*
X3746666Y-66981904D01*
X3794285Y-66791428D01*
X3794285Y-66553333D01*
X3746666Y-66362857D01*
X3699047Y-66267619D01*
X3651428Y-66220000D01*
X3556190Y-66172380D01*
%TO.C,CPUIN0*%
X32242380Y-64182142D02*
X32290000Y-64229761D01*
X32432857Y-64277380D01*
X32528095Y-64277380D01*
X32670952Y-64229761D01*
X32766190Y-64134523D01*
X32813809Y-64039285D01*
X32861428Y-63848809D01*
X32861428Y-63705952D01*
X32813809Y-63515476D01*
X32766190Y-63420238D01*
X32670952Y-63325000D01*
X32528095Y-63277380D01*
X32432857Y-63277380D01*
X32290000Y-63325000D01*
X32242380Y-63372619D01*
X31813809Y-64277380D02*
X31813809Y-63277380D01*
X31432857Y-63277380D01*
X31337619Y-63325000D01*
X31290000Y-63372619D01*
X31242380Y-63467857D01*
X31242380Y-63610714D01*
X31290000Y-63705952D01*
X31337619Y-63753571D01*
X31432857Y-63801190D01*
X31813809Y-63801190D01*
X30813809Y-63277380D02*
X30813809Y-64086904D01*
X30766190Y-64182142D01*
X30718571Y-64229761D01*
X30623333Y-64277380D01*
X30432857Y-64277380D01*
X30337619Y-64229761D01*
X30290000Y-64182142D01*
X30242380Y-64086904D01*
X30242380Y-63277380D01*
X29766190Y-64277380D02*
X29766190Y-63277380D01*
X29290000Y-64277380D02*
X29290000Y-63277380D01*
X28718571Y-64277380D01*
X28718571Y-63277380D01*
X28051904Y-63277380D02*
X27956666Y-63277380D01*
X27861428Y-63325000D01*
X27813809Y-63372619D01*
X27766190Y-63467857D01*
X27718571Y-63658333D01*
X27718571Y-63896428D01*
X27766190Y-64086904D01*
X27813809Y-64182142D01*
X27861428Y-64229761D01*
X27956666Y-64277380D01*
X28051904Y-64277380D01*
X28147142Y-64229761D01*
X28194761Y-64182142D01*
X28242380Y-64086904D01*
X28290000Y-63896428D01*
X28290000Y-63658333D01*
X28242380Y-63467857D01*
X28194761Y-63372619D01*
X28147142Y-63325000D01*
X28051904Y-63277380D01*
%TO.C,INTAKE0*%
X55911904Y-64277380D02*
X55911904Y-63277380D01*
X55435714Y-64277380D02*
X55435714Y-63277380D01*
X54864285Y-64277380D01*
X54864285Y-63277380D01*
X54530952Y-63277380D02*
X53959523Y-63277380D01*
X54245238Y-64277380D02*
X54245238Y-63277380D01*
X53673809Y-63991666D02*
X53197619Y-63991666D01*
X53769047Y-64277380D02*
X53435714Y-63277380D01*
X53102380Y-64277380D01*
X52769047Y-64277380D02*
X52769047Y-63277380D01*
X52197619Y-64277380D02*
X52626190Y-63705952D01*
X52197619Y-63277380D02*
X52769047Y-63848809D01*
X51769047Y-63753571D02*
X51435714Y-63753571D01*
X51292857Y-64277380D02*
X51769047Y-64277380D01*
X51769047Y-63277380D01*
X51292857Y-63277380D01*
X50673809Y-63277380D02*
X50578571Y-63277380D01*
X50483333Y-63325000D01*
X50435714Y-63372619D01*
X50388095Y-63467857D01*
X50340476Y-63658333D01*
X50340476Y-63896428D01*
X50388095Y-64086904D01*
X50435714Y-64182142D01*
X50483333Y-64229761D01*
X50578571Y-64277380D01*
X50673809Y-64277380D01*
X50769047Y-64229761D01*
X50816666Y-64182142D01*
X50864285Y-64086904D01*
X50911904Y-63896428D01*
X50911904Y-63658333D01*
X50864285Y-63467857D01*
X50816666Y-63372619D01*
X50769047Y-63325000D01*
X50673809Y-63277380D01*
%TO.C,PFP0*%
X21986666Y-67172380D02*
X21986666Y-66172380D01*
X21605714Y-66172380D01*
X21510476Y-66220000D01*
X21462857Y-66267619D01*
X21415238Y-66362857D01*
X21415238Y-66505714D01*
X21462857Y-66600952D01*
X21510476Y-66648571D01*
X21605714Y-66696190D01*
X21986666Y-66696190D01*
X20653333Y-66648571D02*
X20986666Y-66648571D01*
X20986666Y-67172380D02*
X20986666Y-66172380D01*
X20510476Y-66172380D01*
X20129523Y-67172380D02*
X20129523Y-66172380D01*
X19748571Y-66172380D01*
X19653333Y-66220000D01*
X19605714Y-66267619D01*
X19558095Y-66362857D01*
X19558095Y-66505714D01*
X19605714Y-66600952D01*
X19653333Y-66648571D01*
X19748571Y-66696190D01*
X20129523Y-66696190D01*
X18939047Y-66172380D02*
X18843809Y-66172380D01*
X18748571Y-66220000D01*
X18700952Y-66267619D01*
X18653333Y-66362857D01*
X18605714Y-66553333D01*
X18605714Y-66791428D01*
X18653333Y-66981904D01*
X18700952Y-67077142D01*
X18748571Y-67124761D01*
X18843809Y-67172380D01*
X18939047Y-67172380D01*
X19034285Y-67124761D01*
X19081904Y-67077142D01*
X19129523Y-66981904D01*
X19177142Y-66791428D01*
X19177142Y-66553333D01*
X19129523Y-66362857D01*
X19081904Y-66267619D01*
X19034285Y-66220000D01*
X18939047Y-66172380D01*
%TD*%
M02*
