%TF.GenerationSoftware,KiCad,Pcbnew,5.0.2-bee76a0~70~ubuntu18.10.1*%
%TF.CreationDate,2019-01-10T16:39:54-07:00*%
%TF.ProjectId,thelio-io,7468656c-696f-42d6-996f-2e6b69636164,rev?*%
%TF.SameCoordinates,Original*%
%TF.FileFunction,Copper,L4,Bot*%
%TF.FilePolarity,Positive*%
%FSLAX46Y46*%
G04 Gerber Fmt 4.6, Leading zero omitted, Abs format (unit mm)*
G04 Created by KiCad (PCBNEW 5.0.2-bee76a0~70~ubuntu18.10.1) date Thu Jan 10 16:39:54 2019*
%MOMM*%
%LPD*%
G01*
G04 APERTURE LIST*
%TA.AperFunction,NonConductor*%
%ADD10C,0.200000*%
%TD*%
%TA.AperFunction,NonConductor*%
%ADD11C,0.150000*%
%TD*%
%TA.AperFunction,Conductor*%
%ADD12C,0.350000*%
%TD*%
%TA.AperFunction,SMDPad,CuDef*%
%ADD13C,0.875000*%
%TD*%
%TA.AperFunction,ComponentPad*%
%ADD14O,1.730000X2.030000*%
%TD*%
%TA.AperFunction,ComponentPad*%
%ADD15R,1.730000X2.030000*%
%TD*%
%TA.AperFunction,ComponentPad*%
%ADD16O,1.700000X1.700000*%
%TD*%
%TA.AperFunction,ComponentPad*%
%ADD17R,1.700000X1.700000*%
%TD*%
%TA.AperFunction,SMDPad,CuDef*%
%ADD18R,3.150000X1.000000*%
%TD*%
%TA.AperFunction,SMDPad,CuDef*%
%ADD19R,1.700000X1.000000*%
%TD*%
%TA.AperFunction,SMDPad,CuDef*%
%ADD20R,0.900000X2.300000*%
%TD*%
%TA.AperFunction,ComponentPad*%
%ADD21O,2.000000X2.000000*%
%TD*%
%TA.AperFunction,SMDPad,CuDef*%
%ADD22R,0.250000X0.750000*%
%TD*%
%TA.AperFunction,SMDPad,CuDef*%
%ADD23R,1.500000X0.550000*%
%TD*%
%TA.AperFunction,SMDPad,CuDef*%
%ADD24R,0.550000X1.500000*%
%TD*%
%TA.AperFunction,ViaPad*%
%ADD25C,0.800000*%
%TD*%
%TA.AperFunction,Conductor*%
%ADD26C,0.250000*%
%TD*%
%TA.AperFunction,Conductor*%
%ADD27C,0.500000*%
%TD*%
G04 APERTURE END LIST*
D10*
X77050000Y-53400000D02*
G75*
G02X75450000Y-55000000I-1600000J0D01*
G01*
X73850000Y-55000000D02*
X75450000Y-55000000D01*
X73850000Y-16800000D02*
X75450000Y-16800000D01*
X75450000Y-16800000D02*
G75*
G02X77050000Y-18400000I0J-1600000D01*
G01*
X77050000Y-18400000D02*
X77050000Y-53400000D01*
X-3200000Y-18400000D02*
G75*
G02X-1600000Y-16800000I1600000J0D01*
G01*
X-3200000Y-53400000D02*
X-3200000Y-18400000D01*
X-1600000Y-55000000D02*
G75*
G02X-3200000Y-53400000I0J1600000D01*
G01*
X0Y-55000000D02*
X-1600000Y-55000000D01*
X0Y-16800000D02*
X-1600000Y-16800000D01*
X0Y-55000000D02*
X0Y-68600000D01*
X0Y-16800000D02*
X0Y-3200000D01*
X73850000Y-55000000D02*
X73850000Y-68600000D01*
X73850000Y-16800000D02*
X73850000Y-3200000D01*
D11*
X73850000Y-68600000D02*
G75*
G02X70650000Y-71800000I-3200000J0D01*
G01*
D10*
X3200000Y-71800000D02*
G75*
G02X0Y-68600000I0J3200000D01*
G01*
X70650000Y-71800000D02*
X3200000Y-71800000D01*
X0Y-3200000D02*
G75*
G02X3200000Y0I3200000J0D01*
G01*
X70650000Y0D02*
G75*
G02X73850000Y-3200000I0J-3200000D01*
G01*
X3200000Y0D02*
X70650000Y0D01*
D12*
%TO.N,Net-(AVR0-Pad4)*%
%TO.C,R0*%
G36*
X11707691Y-61218553D02*
X11728926Y-61221703D01*
X11749750Y-61226919D01*
X11769962Y-61234151D01*
X11789368Y-61243330D01*
X11807781Y-61254366D01*
X11825024Y-61267154D01*
X11840930Y-61281570D01*
X11855346Y-61297476D01*
X11868134Y-61314719D01*
X11879170Y-61333132D01*
X11888349Y-61352538D01*
X11895581Y-61372750D01*
X11900797Y-61393574D01*
X11903947Y-61414809D01*
X11905000Y-61436250D01*
X11905000Y-61873750D01*
X11903947Y-61895191D01*
X11900797Y-61916426D01*
X11895581Y-61937250D01*
X11888349Y-61957462D01*
X11879170Y-61976868D01*
X11868134Y-61995281D01*
X11855346Y-62012524D01*
X11840930Y-62028430D01*
X11825024Y-62042846D01*
X11807781Y-62055634D01*
X11789368Y-62066670D01*
X11769962Y-62075849D01*
X11749750Y-62083081D01*
X11728926Y-62088297D01*
X11707691Y-62091447D01*
X11686250Y-62092500D01*
X11173750Y-62092500D01*
X11152309Y-62091447D01*
X11131074Y-62088297D01*
X11110250Y-62083081D01*
X11090038Y-62075849D01*
X11070632Y-62066670D01*
X11052219Y-62055634D01*
X11034976Y-62042846D01*
X11019070Y-62028430D01*
X11004654Y-62012524D01*
X10991866Y-61995281D01*
X10980830Y-61976868D01*
X10971651Y-61957462D01*
X10964419Y-61937250D01*
X10959203Y-61916426D01*
X10956053Y-61895191D01*
X10955000Y-61873750D01*
X10955000Y-61436250D01*
X10956053Y-61414809D01*
X10959203Y-61393574D01*
X10964419Y-61372750D01*
X10971651Y-61352538D01*
X10980830Y-61333132D01*
X10991866Y-61314719D01*
X11004654Y-61297476D01*
X11019070Y-61281570D01*
X11034976Y-61267154D01*
X11052219Y-61254366D01*
X11070632Y-61243330D01*
X11090038Y-61234151D01*
X11110250Y-61226919D01*
X11131074Y-61221703D01*
X11152309Y-61218553D01*
X11173750Y-61217500D01*
X11686250Y-61217500D01*
X11707691Y-61218553D01*
X11707691Y-61218553D01*
G37*
D13*
%TD*%
%TO.P,R0,2*%
%TO.N,Net-(AVR0-Pad4)*%
X11430000Y-61655000D03*
D12*
%TO.N,Net-(R0-Pad1)*%
%TO.C,R0*%
G36*
X11707691Y-62793553D02*
X11728926Y-62796703D01*
X11749750Y-62801919D01*
X11769962Y-62809151D01*
X11789368Y-62818330D01*
X11807781Y-62829366D01*
X11825024Y-62842154D01*
X11840930Y-62856570D01*
X11855346Y-62872476D01*
X11868134Y-62889719D01*
X11879170Y-62908132D01*
X11888349Y-62927538D01*
X11895581Y-62947750D01*
X11900797Y-62968574D01*
X11903947Y-62989809D01*
X11905000Y-63011250D01*
X11905000Y-63448750D01*
X11903947Y-63470191D01*
X11900797Y-63491426D01*
X11895581Y-63512250D01*
X11888349Y-63532462D01*
X11879170Y-63551868D01*
X11868134Y-63570281D01*
X11855346Y-63587524D01*
X11840930Y-63603430D01*
X11825024Y-63617846D01*
X11807781Y-63630634D01*
X11789368Y-63641670D01*
X11769962Y-63650849D01*
X11749750Y-63658081D01*
X11728926Y-63663297D01*
X11707691Y-63666447D01*
X11686250Y-63667500D01*
X11173750Y-63667500D01*
X11152309Y-63666447D01*
X11131074Y-63663297D01*
X11110250Y-63658081D01*
X11090038Y-63650849D01*
X11070632Y-63641670D01*
X11052219Y-63630634D01*
X11034976Y-63617846D01*
X11019070Y-63603430D01*
X11004654Y-63587524D01*
X10991866Y-63570281D01*
X10980830Y-63551868D01*
X10971651Y-63532462D01*
X10964419Y-63512250D01*
X10959203Y-63491426D01*
X10956053Y-63470191D01*
X10955000Y-63448750D01*
X10955000Y-63011250D01*
X10956053Y-62989809D01*
X10959203Y-62968574D01*
X10964419Y-62947750D01*
X10971651Y-62927538D01*
X10980830Y-62908132D01*
X10991866Y-62889719D01*
X11004654Y-62872476D01*
X11019070Y-62856570D01*
X11034976Y-62842154D01*
X11052219Y-62829366D01*
X11070632Y-62818330D01*
X11090038Y-62809151D01*
X11110250Y-62801919D01*
X11131074Y-62796703D01*
X11152309Y-62793553D01*
X11173750Y-62792500D01*
X11686250Y-62792500D01*
X11707691Y-62793553D01*
X11707691Y-62793553D01*
G37*
D13*
%TD*%
%TO.P,R0,1*%
%TO.N,Net-(R0-Pad1)*%
X11430000Y-63230000D03*
D12*
%TO.N,Net-(AVR0-Pad3)*%
%TO.C,R1*%
G36*
X14247691Y-61218553D02*
X14268926Y-61221703D01*
X14289750Y-61226919D01*
X14309962Y-61234151D01*
X14329368Y-61243330D01*
X14347781Y-61254366D01*
X14365024Y-61267154D01*
X14380930Y-61281570D01*
X14395346Y-61297476D01*
X14408134Y-61314719D01*
X14419170Y-61333132D01*
X14428349Y-61352538D01*
X14435581Y-61372750D01*
X14440797Y-61393574D01*
X14443947Y-61414809D01*
X14445000Y-61436250D01*
X14445000Y-61873750D01*
X14443947Y-61895191D01*
X14440797Y-61916426D01*
X14435581Y-61937250D01*
X14428349Y-61957462D01*
X14419170Y-61976868D01*
X14408134Y-61995281D01*
X14395346Y-62012524D01*
X14380930Y-62028430D01*
X14365024Y-62042846D01*
X14347781Y-62055634D01*
X14329368Y-62066670D01*
X14309962Y-62075849D01*
X14289750Y-62083081D01*
X14268926Y-62088297D01*
X14247691Y-62091447D01*
X14226250Y-62092500D01*
X13713750Y-62092500D01*
X13692309Y-62091447D01*
X13671074Y-62088297D01*
X13650250Y-62083081D01*
X13630038Y-62075849D01*
X13610632Y-62066670D01*
X13592219Y-62055634D01*
X13574976Y-62042846D01*
X13559070Y-62028430D01*
X13544654Y-62012524D01*
X13531866Y-61995281D01*
X13520830Y-61976868D01*
X13511651Y-61957462D01*
X13504419Y-61937250D01*
X13499203Y-61916426D01*
X13496053Y-61895191D01*
X13495000Y-61873750D01*
X13495000Y-61436250D01*
X13496053Y-61414809D01*
X13499203Y-61393574D01*
X13504419Y-61372750D01*
X13511651Y-61352538D01*
X13520830Y-61333132D01*
X13531866Y-61314719D01*
X13544654Y-61297476D01*
X13559070Y-61281570D01*
X13574976Y-61267154D01*
X13592219Y-61254366D01*
X13610632Y-61243330D01*
X13630038Y-61234151D01*
X13650250Y-61226919D01*
X13671074Y-61221703D01*
X13692309Y-61218553D01*
X13713750Y-61217500D01*
X14226250Y-61217500D01*
X14247691Y-61218553D01*
X14247691Y-61218553D01*
G37*
D13*
%TD*%
%TO.P,R1,2*%
%TO.N,Net-(AVR0-Pad3)*%
X13970000Y-61655000D03*
D12*
%TO.N,Net-(R1-Pad1)*%
%TO.C,R1*%
G36*
X14247691Y-62793553D02*
X14268926Y-62796703D01*
X14289750Y-62801919D01*
X14309962Y-62809151D01*
X14329368Y-62818330D01*
X14347781Y-62829366D01*
X14365024Y-62842154D01*
X14380930Y-62856570D01*
X14395346Y-62872476D01*
X14408134Y-62889719D01*
X14419170Y-62908132D01*
X14428349Y-62927538D01*
X14435581Y-62947750D01*
X14440797Y-62968574D01*
X14443947Y-62989809D01*
X14445000Y-63011250D01*
X14445000Y-63448750D01*
X14443947Y-63470191D01*
X14440797Y-63491426D01*
X14435581Y-63512250D01*
X14428349Y-63532462D01*
X14419170Y-63551868D01*
X14408134Y-63570281D01*
X14395346Y-63587524D01*
X14380930Y-63603430D01*
X14365024Y-63617846D01*
X14347781Y-63630634D01*
X14329368Y-63641670D01*
X14309962Y-63650849D01*
X14289750Y-63658081D01*
X14268926Y-63663297D01*
X14247691Y-63666447D01*
X14226250Y-63667500D01*
X13713750Y-63667500D01*
X13692309Y-63666447D01*
X13671074Y-63663297D01*
X13650250Y-63658081D01*
X13630038Y-63650849D01*
X13610632Y-63641670D01*
X13592219Y-63630634D01*
X13574976Y-63617846D01*
X13559070Y-63603430D01*
X13544654Y-63587524D01*
X13531866Y-63570281D01*
X13520830Y-63551868D01*
X13511651Y-63532462D01*
X13504419Y-63512250D01*
X13499203Y-63491426D01*
X13496053Y-63470191D01*
X13495000Y-63448750D01*
X13495000Y-63011250D01*
X13496053Y-62989809D01*
X13499203Y-62968574D01*
X13504419Y-62947750D01*
X13511651Y-62927538D01*
X13520830Y-62908132D01*
X13531866Y-62889719D01*
X13544654Y-62872476D01*
X13559070Y-62856570D01*
X13574976Y-62842154D01*
X13592219Y-62829366D01*
X13610632Y-62818330D01*
X13630038Y-62809151D01*
X13650250Y-62801919D01*
X13671074Y-62796703D01*
X13692309Y-62793553D01*
X13713750Y-62792500D01*
X14226250Y-62792500D01*
X14247691Y-62793553D01*
X14247691Y-62793553D01*
G37*
D13*
%TD*%
%TO.P,R1,1*%
%TO.N,Net-(R1-Pad1)*%
X13970000Y-63230000D03*
D12*
%TO.N,Net-(PFP0-Pad4)*%
%TO.C,R2*%
G36*
X23137691Y-66603553D02*
X23158926Y-66606703D01*
X23179750Y-66611919D01*
X23199962Y-66619151D01*
X23219368Y-66628330D01*
X23237781Y-66639366D01*
X23255024Y-66652154D01*
X23270930Y-66666570D01*
X23285346Y-66682476D01*
X23298134Y-66699719D01*
X23309170Y-66718132D01*
X23318349Y-66737538D01*
X23325581Y-66757750D01*
X23330797Y-66778574D01*
X23333947Y-66799809D01*
X23335000Y-66821250D01*
X23335000Y-67258750D01*
X23333947Y-67280191D01*
X23330797Y-67301426D01*
X23325581Y-67322250D01*
X23318349Y-67342462D01*
X23309170Y-67361868D01*
X23298134Y-67380281D01*
X23285346Y-67397524D01*
X23270930Y-67413430D01*
X23255024Y-67427846D01*
X23237781Y-67440634D01*
X23219368Y-67451670D01*
X23199962Y-67460849D01*
X23179750Y-67468081D01*
X23158926Y-67473297D01*
X23137691Y-67476447D01*
X23116250Y-67477500D01*
X22603750Y-67477500D01*
X22582309Y-67476447D01*
X22561074Y-67473297D01*
X22540250Y-67468081D01*
X22520038Y-67460849D01*
X22500632Y-67451670D01*
X22482219Y-67440634D01*
X22464976Y-67427846D01*
X22449070Y-67413430D01*
X22434654Y-67397524D01*
X22421866Y-67380281D01*
X22410830Y-67361868D01*
X22401651Y-67342462D01*
X22394419Y-67322250D01*
X22389203Y-67301426D01*
X22386053Y-67280191D01*
X22385000Y-67258750D01*
X22385000Y-66821250D01*
X22386053Y-66799809D01*
X22389203Y-66778574D01*
X22394419Y-66757750D01*
X22401651Y-66737538D01*
X22410830Y-66718132D01*
X22421866Y-66699719D01*
X22434654Y-66682476D01*
X22449070Y-66666570D01*
X22464976Y-66652154D01*
X22482219Y-66639366D01*
X22500632Y-66628330D01*
X22520038Y-66619151D01*
X22540250Y-66611919D01*
X22561074Y-66606703D01*
X22582309Y-66603553D01*
X22603750Y-66602500D01*
X23116250Y-66602500D01*
X23137691Y-66603553D01*
X23137691Y-66603553D01*
G37*
D13*
%TD*%
%TO.P,R2,2*%
%TO.N,Net-(PFP0-Pad4)*%
X22860000Y-67040000D03*
D12*
%TO.N,OC4A*%
%TO.C,R2*%
G36*
X23137691Y-65028553D02*
X23158926Y-65031703D01*
X23179750Y-65036919D01*
X23199962Y-65044151D01*
X23219368Y-65053330D01*
X23237781Y-65064366D01*
X23255024Y-65077154D01*
X23270930Y-65091570D01*
X23285346Y-65107476D01*
X23298134Y-65124719D01*
X23309170Y-65143132D01*
X23318349Y-65162538D01*
X23325581Y-65182750D01*
X23330797Y-65203574D01*
X23333947Y-65224809D01*
X23335000Y-65246250D01*
X23335000Y-65683750D01*
X23333947Y-65705191D01*
X23330797Y-65726426D01*
X23325581Y-65747250D01*
X23318349Y-65767462D01*
X23309170Y-65786868D01*
X23298134Y-65805281D01*
X23285346Y-65822524D01*
X23270930Y-65838430D01*
X23255024Y-65852846D01*
X23237781Y-65865634D01*
X23219368Y-65876670D01*
X23199962Y-65885849D01*
X23179750Y-65893081D01*
X23158926Y-65898297D01*
X23137691Y-65901447D01*
X23116250Y-65902500D01*
X22603750Y-65902500D01*
X22582309Y-65901447D01*
X22561074Y-65898297D01*
X22540250Y-65893081D01*
X22520038Y-65885849D01*
X22500632Y-65876670D01*
X22482219Y-65865634D01*
X22464976Y-65852846D01*
X22449070Y-65838430D01*
X22434654Y-65822524D01*
X22421866Y-65805281D01*
X22410830Y-65786868D01*
X22401651Y-65767462D01*
X22394419Y-65747250D01*
X22389203Y-65726426D01*
X22386053Y-65705191D01*
X22385000Y-65683750D01*
X22385000Y-65246250D01*
X22386053Y-65224809D01*
X22389203Y-65203574D01*
X22394419Y-65182750D01*
X22401651Y-65162538D01*
X22410830Y-65143132D01*
X22421866Y-65124719D01*
X22434654Y-65107476D01*
X22449070Y-65091570D01*
X22464976Y-65077154D01*
X22482219Y-65064366D01*
X22500632Y-65053330D01*
X22520038Y-65044151D01*
X22540250Y-65036919D01*
X22561074Y-65031703D01*
X22582309Y-65028553D01*
X22603750Y-65027500D01*
X23116250Y-65027500D01*
X23137691Y-65028553D01*
X23137691Y-65028553D01*
G37*
D13*
%TD*%
%TO.P,R2,1*%
%TO.N,OC4A*%
X22860000Y-65465000D03*
D12*
%TO.N,GND*%
%TO.C,C0*%
G36*
X10977691Y-49813553D02*
X10998926Y-49816703D01*
X11019750Y-49821919D01*
X11039962Y-49829151D01*
X11059368Y-49838330D01*
X11077781Y-49849366D01*
X11095024Y-49862154D01*
X11110930Y-49876570D01*
X11125346Y-49892476D01*
X11138134Y-49909719D01*
X11149170Y-49928132D01*
X11158349Y-49947538D01*
X11165581Y-49967750D01*
X11170797Y-49988574D01*
X11173947Y-50009809D01*
X11175000Y-50031250D01*
X11175000Y-50468750D01*
X11173947Y-50490191D01*
X11170797Y-50511426D01*
X11165581Y-50532250D01*
X11158349Y-50552462D01*
X11149170Y-50571868D01*
X11138134Y-50590281D01*
X11125346Y-50607524D01*
X11110930Y-50623430D01*
X11095024Y-50637846D01*
X11077781Y-50650634D01*
X11059368Y-50661670D01*
X11039962Y-50670849D01*
X11019750Y-50678081D01*
X10998926Y-50683297D01*
X10977691Y-50686447D01*
X10956250Y-50687500D01*
X10443750Y-50687500D01*
X10422309Y-50686447D01*
X10401074Y-50683297D01*
X10380250Y-50678081D01*
X10360038Y-50670849D01*
X10340632Y-50661670D01*
X10322219Y-50650634D01*
X10304976Y-50637846D01*
X10289070Y-50623430D01*
X10274654Y-50607524D01*
X10261866Y-50590281D01*
X10250830Y-50571868D01*
X10241651Y-50552462D01*
X10234419Y-50532250D01*
X10229203Y-50511426D01*
X10226053Y-50490191D01*
X10225000Y-50468750D01*
X10225000Y-50031250D01*
X10226053Y-50009809D01*
X10229203Y-49988574D01*
X10234419Y-49967750D01*
X10241651Y-49947538D01*
X10250830Y-49928132D01*
X10261866Y-49909719D01*
X10274654Y-49892476D01*
X10289070Y-49876570D01*
X10304976Y-49862154D01*
X10322219Y-49849366D01*
X10340632Y-49838330D01*
X10360038Y-49829151D01*
X10380250Y-49821919D01*
X10401074Y-49816703D01*
X10422309Y-49813553D01*
X10443750Y-49812500D01*
X10956250Y-49812500D01*
X10977691Y-49813553D01*
X10977691Y-49813553D01*
G37*
D13*
%TD*%
%TO.P,C0,2*%
%TO.N,GND*%
X10700000Y-50250000D03*
D12*
%TO.N,Net-(AVR0-Pad6)*%
%TO.C,C0*%
G36*
X10977691Y-48238553D02*
X10998926Y-48241703D01*
X11019750Y-48246919D01*
X11039962Y-48254151D01*
X11059368Y-48263330D01*
X11077781Y-48274366D01*
X11095024Y-48287154D01*
X11110930Y-48301570D01*
X11125346Y-48317476D01*
X11138134Y-48334719D01*
X11149170Y-48353132D01*
X11158349Y-48372538D01*
X11165581Y-48392750D01*
X11170797Y-48413574D01*
X11173947Y-48434809D01*
X11175000Y-48456250D01*
X11175000Y-48893750D01*
X11173947Y-48915191D01*
X11170797Y-48936426D01*
X11165581Y-48957250D01*
X11158349Y-48977462D01*
X11149170Y-48996868D01*
X11138134Y-49015281D01*
X11125346Y-49032524D01*
X11110930Y-49048430D01*
X11095024Y-49062846D01*
X11077781Y-49075634D01*
X11059368Y-49086670D01*
X11039962Y-49095849D01*
X11019750Y-49103081D01*
X10998926Y-49108297D01*
X10977691Y-49111447D01*
X10956250Y-49112500D01*
X10443750Y-49112500D01*
X10422309Y-49111447D01*
X10401074Y-49108297D01*
X10380250Y-49103081D01*
X10360038Y-49095849D01*
X10340632Y-49086670D01*
X10322219Y-49075634D01*
X10304976Y-49062846D01*
X10289070Y-49048430D01*
X10274654Y-49032524D01*
X10261866Y-49015281D01*
X10250830Y-48996868D01*
X10241651Y-48977462D01*
X10234419Y-48957250D01*
X10229203Y-48936426D01*
X10226053Y-48915191D01*
X10225000Y-48893750D01*
X10225000Y-48456250D01*
X10226053Y-48434809D01*
X10229203Y-48413574D01*
X10234419Y-48392750D01*
X10241651Y-48372538D01*
X10250830Y-48353132D01*
X10261866Y-48334719D01*
X10274654Y-48317476D01*
X10289070Y-48301570D01*
X10304976Y-48287154D01*
X10322219Y-48274366D01*
X10340632Y-48263330D01*
X10360038Y-48254151D01*
X10380250Y-48246919D01*
X10401074Y-48241703D01*
X10422309Y-48238553D01*
X10443750Y-48237500D01*
X10956250Y-48237500D01*
X10977691Y-48238553D01*
X10977691Y-48238553D01*
G37*
D13*
%TD*%
%TO.P,C0,1*%
%TO.N,Net-(AVR0-Pad6)*%
X10700000Y-48675000D03*
D14*
%TO.P,POWER0,4*%
%TO.N,+5V*%
X60960000Y-67990000D03*
%TO.P,POWER0,3*%
%TO.N,GND*%
X63460000Y-67990000D03*
%TO.P,POWER0,2*%
X65960000Y-67990000D03*
D15*
%TO.P,POWER0,1*%
%TO.N,+12V*%
X68460000Y-67990000D03*
%TD*%
D16*
%TO.P,USB0,4*%
%TO.N,GND*%
X8890000Y-65450000D03*
%TO.P,USB0,3*%
%TO.N,Net-(R0-Pad1)*%
X11430000Y-65450000D03*
%TO.P,USB0,2*%
%TO.N,Net-(R1-Pad1)*%
X13970000Y-65450000D03*
D17*
%TO.P,USB0,1*%
%TO.N,VCC*%
X16510000Y-65450000D03*
%TD*%
D18*
%TO.P,ICSP0,6*%
%TO.N,GND*%
X17705000Y-15920000D03*
%TO.P,ICSP0,5*%
%TO.N,RST*%
X12655000Y-15920000D03*
%TO.P,ICSP0,4*%
%TO.N,MOSI*%
X17705000Y-18460000D03*
%TO.P,ICSP0,3*%
%TO.N,SCLK*%
X12655000Y-18460000D03*
%TO.P,ICSP0,2*%
%TO.N,VCC*%
X17705000Y-21000000D03*
%TO.P,ICSP0,1*%
%TO.N,MISO*%
X12655000Y-21000000D03*
%TD*%
D19*
%TO.P,B0,2*%
%TO.N,PB4*%
X2000000Y-29250000D03*
X8300000Y-29250000D03*
%TO.P,B0,1*%
%TO.N,GND*%
X2000000Y-25450000D03*
X8300000Y-25450000D03*
%TD*%
D20*
%TO.P,DATA1,7*%
%TO.N,GND*%
X26100000Y-22760000D03*
%TO.P,DATA1,6*%
%TO.N,Net-(DATA1-Pad6)*%
X27370000Y-22760000D03*
%TO.P,DATA1,5*%
%TO.N,Net-(DATA1-Pad5)*%
X28640000Y-22760000D03*
%TO.P,DATA1,4*%
%TO.N,GND*%
X29910000Y-22760000D03*
%TO.P,DATA1,3*%
%TO.N,Net-(DATA1-Pad3)*%
X31180000Y-22760000D03*
%TO.P,DATA1,2*%
%TO.N,Net-(DATA1-Pad2)*%
X32450000Y-22760000D03*
%TO.P,DATA1,1*%
%TO.N,GND*%
X33720000Y-22760000D03*
D21*
%TO.P,DATA1,*%
X23640000Y-23760000D03*
X36470000Y-22760000D03*
%TD*%
D20*
%TO.P,DATA0,7*%
%TO.N,GND*%
X26100000Y-6760000D03*
%TO.P,DATA0,6*%
%TO.N,Net-(DATA0-Pad6)*%
X27370000Y-6760000D03*
%TO.P,DATA0,5*%
%TO.N,Net-(DATA0-Pad5)*%
X28640000Y-6760000D03*
%TO.P,DATA0,4*%
%TO.N,GND*%
X29910000Y-6760000D03*
%TO.P,DATA0,3*%
%TO.N,Net-(DATA0-Pad3)*%
X31180000Y-6760000D03*
%TO.P,DATA0,2*%
%TO.N,Net-(DATA0-Pad2)*%
X32450000Y-6760000D03*
%TO.P,DATA0,1*%
%TO.N,GND*%
X33720000Y-6760000D03*
D21*
%TO.P,DATA0,*%
X23640000Y-7760000D03*
X36470000Y-6760000D03*
%TD*%
%TO.P,DATA3,*%
%TO.N,GND*%
X36470000Y-54760000D03*
X23640000Y-55760000D03*
D20*
%TO.P,DATA3,1*%
X33720000Y-54760000D03*
%TO.P,DATA3,2*%
%TO.N,Net-(DATA3-Pad2)*%
X32450000Y-54760000D03*
%TO.P,DATA3,3*%
%TO.N,Net-(DATA3-Pad3)*%
X31180000Y-54760000D03*
%TO.P,DATA3,4*%
%TO.N,GND*%
X29910000Y-54760000D03*
%TO.P,DATA3,5*%
%TO.N,Net-(DATA3-Pad5)*%
X28640000Y-54760000D03*
%TO.P,DATA3,6*%
%TO.N,Net-(DATA3-Pad6)*%
X27370000Y-54760000D03*
%TO.P,DATA3,7*%
%TO.N,GND*%
X26100000Y-54760000D03*
%TD*%
%TO.P,DATA2,7*%
%TO.N,GND*%
X26100000Y-39110000D03*
%TO.P,DATA2,6*%
%TO.N,Net-(DATA2-Pad6)*%
X27370000Y-39110000D03*
%TO.P,DATA2,5*%
%TO.N,Net-(DATA2-Pad5)*%
X28640000Y-39110000D03*
%TO.P,DATA2,4*%
%TO.N,GND*%
X29910000Y-39110000D03*
%TO.P,DATA2,3*%
%TO.N,Net-(DATA2-Pad3)*%
X31180000Y-39110000D03*
%TO.P,DATA2,2*%
%TO.N,Net-(DATA2-Pad2)*%
X32450000Y-39110000D03*
%TO.P,DATA2,1*%
%TO.N,GND*%
X33720000Y-39110000D03*
D21*
%TO.P,DATA2,*%
X23640000Y-40110000D03*
X36470000Y-39110000D03*
%TD*%
D14*
%TO.P,CPUOUT0,4*%
%TO.N,Net-(CPUMUX0-Pad5)*%
X38100000Y-67990000D03*
%TO.P,CPUOUT0,3*%
%TO.N,ADC4*%
X40640000Y-67990000D03*
%TO.P,CPUOUT0,2*%
%TO.N,+12V*%
X43180000Y-67990000D03*
D15*
%TO.P,CPUOUT0,1*%
%TO.N,GND*%
X45720000Y-67990000D03*
%TD*%
D22*
%TO.P,CPUMUX0,8*%
%TO.N,VCC*%
X16975000Y-51480000D03*
%TO.P,CPUMUX0,7*%
%TO.N,GND*%
X16475000Y-51480000D03*
%TO.P,CPUMUX0,6*%
%TO.N,PE6*%
X15975000Y-51480000D03*
%TO.P,CPUMUX0,5*%
%TO.N,Net-(CPUMUX0-Pad5)*%
X15475000Y-51480000D03*
%TO.P,CPUMUX0,4*%
%TO.N,GND*%
X15475000Y-54580000D03*
%TO.P,CPUMUX0,3*%
%TO.N,Net-(CPUMUX0-Pad3)*%
X15975000Y-54580000D03*
%TO.P,CPUMUX0,2*%
%TO.N,OC1A*%
X16475000Y-54580000D03*
%TO.P,CPUMUX0,1*%
%TO.N,Net-(CPUIN0-Pad4)*%
X16975000Y-54580000D03*
%TD*%
D23*
%TO.P,AVR0,44*%
%TO.N,VCC*%
X16400000Y-42950000D03*
%TO.P,AVR0,43*%
%TO.N,GND*%
X16400000Y-42150000D03*
%TO.P,AVR0,42*%
%TO.N,Net-(AVR0-Pad42)*%
X16400000Y-41350000D03*
%TO.P,AVR0,41*%
%TO.N,ADC0*%
X16400000Y-40550000D03*
%TO.P,AVR0,40*%
%TO.N,ADC1*%
X16400000Y-39750000D03*
%TO.P,AVR0,39*%
%TO.N,ADC4*%
X16400000Y-38950000D03*
%TO.P,AVR0,38*%
%TO.N,ADC5*%
X16400000Y-38150000D03*
%TO.P,AVR0,37*%
%TO.N,ADC6*%
X16400000Y-37350000D03*
%TO.P,AVR0,36*%
%TO.N,ADC7*%
X16400000Y-36550000D03*
%TO.P,AVR0,35*%
%TO.N,GND*%
X16400000Y-35750000D03*
%TO.P,AVR0,34*%
%TO.N,VCC*%
X16400000Y-34950000D03*
D24*
%TO.P,AVR0,33*%
%TO.N,HWB*%
X14700000Y-33250000D03*
%TO.P,AVR0,32*%
%TO.N,OC4A*%
X13900000Y-33250000D03*
%TO.P,AVR0,31*%
%TO.N,OC3A*%
X13100000Y-33250000D03*
%TO.P,AVR0,30*%
%TO.N,OC1B*%
X12300000Y-33250000D03*
%TO.P,AVR0,29*%
%TO.N,OC1A*%
X11500000Y-33250000D03*
%TO.P,AVR0,28*%
%TO.N,PB4*%
X10700000Y-33250000D03*
%TO.P,AVR0,27*%
%TO.N,ADC10*%
X9900000Y-33250000D03*
%TO.P,AVR0,26*%
%TO.N,ADC9*%
X9100000Y-33250000D03*
%TO.P,AVR0,25*%
%TO.N,ADC8*%
X8300000Y-33250000D03*
%TO.P,AVR0,24*%
%TO.N,VCC*%
X7500000Y-33250000D03*
%TO.P,AVR0,23*%
%TO.N,GND*%
X6700000Y-33250000D03*
D23*
%TO.P,AVR0,22*%
%TO.N,XCK1*%
X5000000Y-34950000D03*
%TO.P,AVR0,21*%
%TO.N,TXD1*%
X5000000Y-35750000D03*
%TO.P,AVR0,20*%
%TO.N,RXD1*%
X5000000Y-36550000D03*
%TO.P,AVR0,19*%
%TO.N,SDA*%
X5000000Y-37350000D03*
%TO.P,AVR0,18*%
%TO.N,SCL*%
X5000000Y-38150000D03*
%TO.P,AVR0,17*%
%TO.N,Net-(AVR0-Pad17)*%
X5000000Y-38950000D03*
%TO.P,AVR0,16*%
%TO.N,Net-(AVR0-Pad16)*%
X5000000Y-39750000D03*
%TO.P,AVR0,15*%
%TO.N,GND*%
X5000000Y-40550000D03*
%TO.P,AVR0,14*%
%TO.N,VCC*%
X5000000Y-41350000D03*
%TO.P,AVR0,13*%
%TO.N,RST*%
X5000000Y-42150000D03*
%TO.P,AVR0,12*%
%TO.N,RTS*%
X5000000Y-42950000D03*
D24*
%TO.P,AVR0,11*%
%TO.N,MISO*%
X6700000Y-44650000D03*
%TO.P,AVR0,10*%
%TO.N,MOSI*%
X7500000Y-44650000D03*
%TO.P,AVR0,9*%
%TO.N,SCLK*%
X8300000Y-44650000D03*
%TO.P,AVR0,8*%
%TO.N,SS*%
X9100000Y-44650000D03*
%TO.P,AVR0,7*%
%TO.N,VCC*%
X9900000Y-44650000D03*
%TO.P,AVR0,6*%
%TO.N,Net-(AVR0-Pad6)*%
X10700000Y-44650000D03*
%TO.P,AVR0,5*%
%TO.N,GND*%
X11500000Y-44650000D03*
%TO.P,AVR0,4*%
%TO.N,Net-(AVR0-Pad4)*%
X12300000Y-44650000D03*
%TO.P,AVR0,3*%
%TO.N,Net-(AVR0-Pad3)*%
X13100000Y-44650000D03*
%TO.P,AVR0,2*%
%TO.N,VCC*%
X13900000Y-44650000D03*
%TO.P,AVR0,1*%
%TO.N,PE6*%
X14700000Y-44650000D03*
%TD*%
D16*
%TO.P,PMB0,4*%
%TO.N,ADC0*%
X11430000Y-69260000D03*
%TO.P,PMB0,3*%
%TO.N,Net-(PMB0-Pad3)*%
X8890000Y-69260000D03*
%TO.P,PMB0,2*%
%TO.N,PB4*%
X6350000Y-69260000D03*
D17*
%TO.P,PMB0,1*%
%TO.N,GND*%
X3810000Y-69260000D03*
%TD*%
D14*
%TO.P,CPUIN0,4*%
%TO.N,Net-(CPUIN0-Pad4)*%
X26670000Y-67990000D03*
%TO.P,CPUIN0,3*%
%TO.N,ADC4*%
X29210000Y-67990000D03*
%TO.P,CPUIN0,2*%
%TO.N,Net-(CPUIN0-Pad2)*%
X31750000Y-67990000D03*
D15*
%TO.P,CPUIN0,1*%
%TO.N,GND*%
X34290000Y-67990000D03*
%TD*%
D14*
%TO.P,INTAKE0,4*%
%TO.N,OC1B*%
X49530000Y-67990000D03*
%TO.P,INTAKE0,3*%
%TO.N,ADC5*%
X52070000Y-67990000D03*
%TO.P,INTAKE0,2*%
%TO.N,+12V*%
X54610000Y-67990000D03*
D15*
%TO.P,INTAKE0,1*%
%TO.N,GND*%
X57150000Y-67990000D03*
%TD*%
D16*
%TO.P,PFP0,4*%
%TO.N,Net-(PFP0-Pad4)*%
X22860000Y-69260000D03*
%TO.P,PFP0,3*%
%TO.N,GND*%
X20320000Y-69260000D03*
%TO.P,PFP0,2*%
%TO.N,ADC1*%
X17780000Y-69260000D03*
D17*
%TO.P,PFP0,1*%
%TO.N,GND*%
X15240000Y-69260000D03*
%TD*%
D25*
%TO.N,Net-(AVR0-Pad17)*%
X2200000Y-38550000D03*
%TO.N,Net-(AVR0-Pad16)*%
X2200000Y-40150000D03*
%TO.N,Net-(CPUIN0-Pad4)*%
X17775000Y-56180000D03*
%TO.N,Net-(DATA2-Pad6)*%
X27370000Y-41110000D03*
%TO.N,Net-(DATA2-Pad5)*%
X28640000Y-41110000D03*
%TO.N,Net-(DATA2-Pad3)*%
X31180000Y-41110000D03*
%TO.N,Net-(DATA2-Pad2)*%
X32450000Y-41110000D03*
%TO.N,Net-(DATA3-Pad6)*%
X27370000Y-57110000D03*
%TO.N,Net-(DATA3-Pad5)*%
X28640000Y-57110000D03*
%TO.N,Net-(DATA3-Pad3)*%
X31180000Y-57110000D03*
%TO.N,Net-(DATA3-Pad2)*%
X32450000Y-57110000D03*
%TO.N,Net-(DATA0-Pad6)*%
X27370000Y-9110000D03*
%TO.N,Net-(DATA0-Pad5)*%
X28640000Y-9110000D03*
%TO.N,Net-(DATA0-Pad3)*%
X31180000Y-9110000D03*
%TO.N,Net-(DATA0-Pad2)*%
X32450000Y-9110000D03*
%TO.N,Net-(DATA1-Pad6)*%
X27370000Y-25110000D03*
%TO.N,Net-(DATA1-Pad5)*%
X28640000Y-25110000D03*
%TO.N,Net-(DATA1-Pad3)*%
X31180000Y-25110000D03*
%TO.N,Net-(DATA1-Pad2)*%
X32450000Y-25110000D03*
%TO.N,OC1B*%
X25400000Y-48940000D03*
X13900000Y-30050000D03*
%TO.N,OC1A*%
X15975000Y-56079994D03*
X13100000Y-29250000D03*
%TO.N,Net-(CPUMUX0-Pad5)*%
X22860000Y-51480000D03*
X14475000Y-51480000D03*
%TO.N,VCC*%
X18000000Y-43350000D03*
X7507115Y-31657115D03*
X17775000Y-50680000D03*
X13900000Y-46250000D03*
X9900000Y-47050000D03*
X18000000Y-34550000D03*
X20245000Y-21000000D03*
X2600000Y-41350000D03*
%TO.N,GND*%
X26100000Y-41110000D03*
X29910000Y-41110000D03*
X33720000Y-41110000D03*
X26100000Y-57110000D03*
X29910000Y-57110000D03*
X33720000Y-57110000D03*
X26100000Y-9110000D03*
X29910000Y-9110000D03*
X33720000Y-9110000D03*
X26100000Y-25110000D03*
X29910000Y-25110000D03*
X33720000Y-25110000D03*
X18000000Y-42150000D03*
X18000000Y-35750000D03*
X6300000Y-31650000D03*
X16975000Y-49980000D03*
X3400000Y-40550000D03*
X14475000Y-56080000D03*
X11500000Y-46250000D03*
X5200000Y-25450000D03*
X20245000Y-15920000D03*
X43880000Y-9110000D03*
X45150000Y-9110000D03*
X46420000Y-9110000D03*
X54040000Y-62190000D03*
X52770000Y-62190000D03*
X51500000Y-62190000D03*
X10700000Y-51450000D03*
X1000000Y-42925000D03*
X1000000Y-35775000D03*
%TO.N,MISO*%
X6700000Y-47050000D03*
X10115012Y-21000000D03*
%TO.N,MOSI*%
X7499984Y-46250000D03*
X20245000Y-18460000D03*
%TO.N,SCLK*%
X8300000Y-47050000D03*
X11500000Y-25450000D03*
%TO.N,OC4A*%
X21590000Y-50210000D03*
X13899976Y-31650000D03*
%TO.N,PB4*%
X12300000Y-28450000D03*
%TO.N,RST*%
X3400000Y-43750022D03*
X10115000Y-15920000D03*
%TO.N,+12V*%
X57850000Y-62190000D03*
X56580000Y-62190000D03*
X55310000Y-62190000D03*
%TO.N,+5V*%
X48960000Y-62190000D03*
X50230000Y-62190000D03*
X47690000Y-62190000D03*
%TD*%
D26*
%TO.N,Net-(AVR0-Pad17)*%
X2599999Y-38949999D02*
X2200000Y-38550000D01*
X5000000Y-38950000D02*
X2599999Y-38949999D01*
%TO.N,Net-(AVR0-Pad16)*%
X2599999Y-39750001D02*
X2200000Y-40150000D01*
X5000000Y-39750000D02*
X2599999Y-39750001D01*
%TO.N,Net-(AVR0-Pad6)*%
X10700000Y-47323002D02*
X10700000Y-48675000D01*
X10700000Y-44650000D02*
X10700000Y-47323002D01*
%TO.N,Net-(CPUIN0-Pad4)*%
X16975000Y-54580000D02*
X16975000Y-55380000D01*
X16975000Y-55380000D02*
X17775000Y-56180000D01*
D27*
%TO.N,Net-(DATA2-Pad6)*%
X27370000Y-41110000D02*
X27370000Y-39110000D01*
%TO.N,Net-(DATA2-Pad5)*%
X28640000Y-41110000D02*
X28640000Y-39110000D01*
%TO.N,Net-(DATA2-Pad3)*%
X31180000Y-41110000D02*
X31180000Y-39110000D01*
%TO.N,Net-(DATA2-Pad2)*%
X32450000Y-41110000D02*
X32450000Y-39110000D01*
%TO.N,Net-(DATA3-Pad6)*%
X27370000Y-57110000D02*
X27370000Y-54760000D01*
%TO.N,Net-(DATA3-Pad5)*%
X28640000Y-57110000D02*
X28640000Y-54760000D01*
%TO.N,Net-(DATA3-Pad3)*%
X31180000Y-57110000D02*
X31180000Y-54760000D01*
%TO.N,Net-(DATA3-Pad2)*%
X32450000Y-57110000D02*
X32450000Y-54760000D01*
%TO.N,Net-(DATA0-Pad6)*%
X27370000Y-9110000D02*
X27370000Y-6760000D01*
%TO.N,Net-(DATA0-Pad5)*%
X28640000Y-9110000D02*
X28640000Y-6760000D01*
%TO.N,Net-(DATA0-Pad3)*%
X31180000Y-9110000D02*
X31180000Y-6760000D01*
%TO.N,Net-(DATA0-Pad2)*%
X32450000Y-9110000D02*
X32450000Y-6760000D01*
%TO.N,Net-(DATA1-Pad6)*%
X27370000Y-25110000D02*
X27370000Y-22760000D01*
%TO.N,Net-(DATA1-Pad5)*%
X28640000Y-25110000D02*
X28640000Y-22760000D01*
%TO.N,Net-(DATA1-Pad3)*%
X31180000Y-25110000D02*
X31180000Y-22760000D01*
%TO.N,Net-(DATA1-Pad2)*%
X32450000Y-25110000D02*
X32450000Y-22760000D01*
D26*
%TO.N,Net-(AVR0-Pad3)*%
X13100000Y-60785000D02*
X13970000Y-61655000D01*
X13100000Y-44650000D02*
X13100000Y-60785000D01*
%TO.N,Net-(AVR0-Pad4)*%
X12300000Y-60785000D02*
X11430000Y-61655000D01*
X12300000Y-44650000D02*
X12300000Y-60785000D01*
%TO.N,Net-(PFP0-Pad4)*%
X22860000Y-69260000D02*
X22860000Y-67040000D01*
%TO.N,Net-(R1-Pad1)*%
X13970000Y-65450000D02*
X13970000Y-63230000D01*
%TO.N,OC1B*%
X12300000Y-33250000D02*
X12300000Y-31650000D01*
X12300000Y-31650000D02*
X13900000Y-30050000D01*
X45720000Y-64180000D02*
X41910000Y-64180000D01*
X40640000Y-62910000D02*
X40640000Y-51480000D01*
X40640000Y-51480000D02*
X38100000Y-48940000D01*
X49530000Y-67990000D02*
X45720000Y-64180000D01*
X41910000Y-64180000D02*
X40640000Y-62910000D01*
X38100000Y-48940000D02*
X25400000Y-48940000D01*
%TO.N,OC1A*%
X16475000Y-54580000D02*
X16475000Y-55579994D01*
X16475000Y-55579994D02*
X15975000Y-56079994D01*
X11500000Y-30850000D02*
X13100000Y-29250000D01*
X11500000Y-33250000D02*
X11500000Y-30850000D01*
%TO.N,Net-(CPUMUX0-Pad5)*%
X35560000Y-51480000D02*
X38100000Y-54020000D01*
X22860000Y-51480000D02*
X35560000Y-51480000D01*
X38100000Y-54020000D02*
X38100000Y-67990000D01*
X14475000Y-51480000D02*
X15475000Y-51480000D01*
%TO.N,VCC*%
X16400000Y-42950000D02*
X17600001Y-42950001D01*
X17600001Y-42950001D02*
X18000000Y-43350000D01*
X7500000Y-31664230D02*
X7507115Y-31657115D01*
X7500000Y-33250000D02*
X7500000Y-31664230D01*
X16975000Y-51480000D02*
X17775000Y-50680000D01*
X13900000Y-44650000D02*
X13900000Y-46250000D01*
X9900000Y-44650000D02*
X9900000Y-47050000D01*
X16400000Y-34950000D02*
X17600001Y-34949999D01*
X17600001Y-34949999D02*
X18000000Y-34550000D01*
X17705000Y-21000000D02*
X20245000Y-21000000D01*
X2600000Y-41350000D02*
X5000000Y-41350000D01*
%TO.N,PE6*%
X14700000Y-48650000D02*
X14700000Y-44650000D01*
X15975000Y-51480000D02*
X15975000Y-49925000D01*
X15975000Y-49925000D02*
X14700000Y-48650000D01*
D27*
%TO.N,GND*%
X26100000Y-41110000D02*
X26100000Y-39110000D01*
X29910000Y-41110000D02*
X29910000Y-39110000D01*
X33720000Y-41110000D02*
X33720000Y-39110000D01*
X26100000Y-57110000D02*
X26100000Y-54760000D01*
X29910000Y-57110000D02*
X29910000Y-54760000D01*
X33720000Y-57110000D02*
X33720000Y-54760000D01*
X26100000Y-9110000D02*
X26100000Y-6760000D01*
X29910000Y-9110000D02*
X29910000Y-6760000D01*
X33720000Y-9110000D02*
X33720000Y-6760000D01*
X26100000Y-25110000D02*
X26100000Y-22760000D01*
X29910000Y-25110000D02*
X29910000Y-22760000D01*
X33720000Y-25110000D02*
X33720000Y-22760000D01*
D26*
X16400000Y-42150000D02*
X18000000Y-42150000D01*
X16400000Y-35750000D02*
X18000000Y-35750000D01*
X6700000Y-33250000D02*
X6699999Y-32049999D01*
X6699999Y-32049999D02*
X6300000Y-31650000D01*
X16475000Y-51480000D02*
X16475000Y-50480000D01*
X16475000Y-50480000D02*
X16975000Y-49980000D01*
X15475000Y-54580000D02*
X15475000Y-54830000D01*
X15475000Y-54830000D02*
X14475000Y-55830000D01*
X14475000Y-55830000D02*
X14475000Y-56080000D01*
X2000000Y-25450000D02*
X5200000Y-25450000D01*
X8300000Y-25450000D02*
X5200000Y-25450000D01*
X17705000Y-15920000D02*
X20245000Y-15920000D01*
X11500000Y-46250000D02*
X11500000Y-44650000D01*
X5000000Y-40550000D02*
X3400000Y-40550000D01*
X10700000Y-50250000D02*
X10700000Y-51450000D01*
%TO.N,MISO*%
X6700000Y-44650000D02*
X6700000Y-47050000D01*
X12655000Y-21000000D02*
X10115012Y-21000000D01*
%TO.N,MOSI*%
X7500000Y-44650000D02*
X7500000Y-46249984D01*
X7500000Y-46249984D02*
X7499984Y-46250000D01*
X17705000Y-18460000D02*
X20245000Y-18460000D01*
%TO.N,SCLK*%
X8300000Y-44650000D02*
X8300000Y-47050000D01*
X9100000Y-23050000D02*
X11500000Y-25450000D01*
X12655000Y-18460000D02*
X10490000Y-18460000D01*
X9100000Y-19850000D02*
X9100000Y-23050000D01*
X10490000Y-18460000D02*
X9100000Y-19850000D01*
%TO.N,Net-(R0-Pad1)*%
X11430000Y-65450000D02*
X11430000Y-63230000D01*
%TO.N,ADC5*%
X39370000Y-47670000D02*
X41910000Y-50210000D01*
X23520000Y-47670000D02*
X39370000Y-47670000D01*
X41910000Y-50210000D02*
X41910000Y-61640000D01*
X21200000Y-45350000D02*
X23520000Y-47670000D01*
X16400000Y-38150000D02*
X19600000Y-38150000D01*
X46990000Y-62910000D02*
X52070000Y-67990000D01*
X21200000Y-39750000D02*
X21200000Y-45350000D01*
X19600000Y-38150000D02*
X21200000Y-39750000D01*
X41910000Y-61640000D02*
X43180000Y-62910000D01*
X43180000Y-62910000D02*
X46990000Y-62910000D01*
%TO.N,ADC4*%
X24130000Y-50210000D02*
X36830000Y-50210000D01*
X36830000Y-50210000D02*
X39370000Y-52750000D01*
X20400000Y-46480000D02*
X24130000Y-50210000D01*
X20400000Y-40550000D02*
X20400000Y-46480000D01*
X16400000Y-38950000D02*
X18800000Y-38950000D01*
X39370000Y-66720000D02*
X40640000Y-67990000D01*
X18800000Y-38950000D02*
X20400000Y-40550000D01*
X39370000Y-52750000D02*
X39370000Y-66720000D01*
%TO.N,ADC1*%
X19600000Y-67440000D02*
X17780000Y-69260000D01*
X19600000Y-40950000D02*
X19600000Y-67440000D01*
X16400000Y-39750000D02*
X18400000Y-39750000D01*
X18400000Y-39750000D02*
X19600000Y-40950000D01*
%TO.N,ADC0*%
X18000000Y-40550000D02*
X16400000Y-40550000D01*
X18800000Y-41350000D02*
X18000000Y-40550000D01*
X18800000Y-66335000D02*
X18800000Y-41350000D01*
X17780000Y-67355000D02*
X18800000Y-66335000D01*
X11430000Y-69260000D02*
X13335000Y-67355000D01*
X13335000Y-67355000D02*
X17780000Y-67355000D01*
%TO.N,OC4A*%
X21590000Y-50210000D02*
X20300000Y-51500000D01*
X13900000Y-31650024D02*
X13899976Y-31650000D01*
X13900000Y-33250000D02*
X13900000Y-31650024D01*
X20300000Y-62905000D02*
X20300000Y-62665000D01*
X22860000Y-65465000D02*
X20300000Y-62905000D01*
X20300000Y-62665000D02*
X20300000Y-51500000D01*
%TO.N,PB4*%
X10700000Y-33250000D02*
X10700000Y-29250000D01*
X8300000Y-29250000D02*
X10700000Y-29250000D01*
X8300000Y-29250000D02*
X2000000Y-29250000D01*
X11500000Y-29250000D02*
X12300000Y-28450000D01*
X10700000Y-29250000D02*
X11500000Y-29250000D01*
%TO.N,RST*%
X4000000Y-42150000D02*
X3400000Y-42750000D01*
X5000000Y-42150000D02*
X4000000Y-42150000D01*
X3400000Y-42750000D02*
X3400000Y-43750022D01*
X12655000Y-15920000D02*
X10115000Y-15920000D01*
%TD*%
M02*
