%TF.GenerationSoftware,KiCad,Pcbnew,6.0.0-rc1-unknown-4a57541~66~ubuntu18.04.1*%
%TF.CreationDate,2018-09-13T12:55:36-06:00*%
%TF.ProjectId,thelio-io-sas,7468656C696F2D696F2D7361732E6B69,rev?*%
%TF.SameCoordinates,Original*%
%TF.FileFunction,Legend,Bot*%
%TF.FilePolarity,Positive*%
%FSLAX46Y46*%
G04 Gerber Fmt 4.6, Leading zero omitted, Abs format (unit mm)*
G04 Created by KiCad (PCBNEW 6.0.0-rc1-unknown-4a57541~66~ubuntu18.04.1) date Thu Sep 13 12:55:36 2018*
%MOMM*%
%LPD*%
G01*
G04 APERTURE LIST*
%ADD10C,0.200000*%
%ADD11C,0.150000*%
%ADD12C,0.120000*%
%ADD13C,0.010000*%
G04 APERTURE END LIST*
D10*
X75650000Y-71800000D02*
X3200000Y-71800000D01*
X0Y-68600000D02*
X0Y-3200000D01*
X78850000Y-3200000D02*
X78850000Y-68600000D01*
X0Y-3200000D02*
G75*
G02X3200000Y0I3200000J0D01*
G01*
X75650000Y0D02*
G75*
G02X78850000Y-3200000I0J-3200000D01*
G01*
X3200000Y0D02*
X75650000Y0D01*
D11*
X78850000Y-68600000D02*
G75*
G02X75650000Y-71800000I-3200000J0D01*
G01*
D10*
X3200000Y-71800000D02*
G75*
G02X0Y-68600000I0J3200000D01*
G01*
D12*
%TO.C,SAS3*%
X27620000Y-52120000D02*
X9220000Y-52120000D01*
X9220000Y-52120000D02*
X9220000Y-67270000D01*
X27620000Y-67270000D02*
X9220000Y-67270000D01*
X27620000Y-52120000D02*
X27620000Y-67270000D01*
%TO.C,SAS2*%
X27620000Y-36120000D02*
X9220000Y-36120000D01*
X9220000Y-36120000D02*
X9220000Y-51270000D01*
X27620000Y-51270000D02*
X9220000Y-51270000D01*
X27620000Y-36120000D02*
X27620000Y-51270000D01*
%TO.C,SAS0*%
X27620000Y-4120000D02*
X9220000Y-4120000D01*
X9220000Y-4120000D02*
X9220000Y-19270000D01*
X27620000Y-19270000D02*
X9220000Y-19270000D01*
X27620000Y-4120000D02*
X27620000Y-19270000D01*
%TO.C,SAS1*%
X27620000Y-20120000D02*
X27620000Y-35270000D01*
X27620000Y-35270000D02*
X9220000Y-35270000D01*
X9220000Y-20120000D02*
X9220000Y-35270000D01*
X27620000Y-20120000D02*
X9220000Y-20120000D01*
D13*
%TO.C,G\002A\002A\002A*%
G36*
X55035288Y-3707474D02*
X54987025Y-3770378D01*
X54969607Y-3825608D01*
X54972535Y-3881106D01*
X54985744Y-3914214D01*
X55020754Y-3987230D01*
X55075610Y-4096511D01*
X55148360Y-4238414D01*
X55237048Y-4409295D01*
X55339720Y-4605511D01*
X55454423Y-4823417D01*
X55579202Y-5059372D01*
X55712104Y-5309730D01*
X55851174Y-5570849D01*
X55994458Y-5839084D01*
X56140002Y-6110794D01*
X56285851Y-6382333D01*
X56430053Y-6650059D01*
X56570652Y-6910328D01*
X56705695Y-7159496D01*
X56833227Y-7393921D01*
X56951295Y-7609958D01*
X57057944Y-7803963D01*
X57151220Y-7972295D01*
X57229169Y-8111308D01*
X57289837Y-8217360D01*
X57331270Y-8286806D01*
X57350590Y-8315097D01*
X57430706Y-8366024D01*
X57537600Y-8382404D01*
X57586892Y-8378353D01*
X57640698Y-8355850D01*
X57699585Y-8311558D01*
X57704714Y-8306568D01*
X57726967Y-8284457D01*
X57745798Y-8263426D01*
X57759987Y-8240756D01*
X57768317Y-8213724D01*
X57769569Y-8179611D01*
X57762525Y-8135695D01*
X57745967Y-8079255D01*
X57718677Y-8007570D01*
X57679436Y-7917919D01*
X57627026Y-7807581D01*
X57560229Y-7673835D01*
X57477826Y-7513961D01*
X57378600Y-7325236D01*
X57261333Y-7104941D01*
X57124805Y-6850354D01*
X56967799Y-6558754D01*
X56789097Y-6227420D01*
X56699441Y-6061226D01*
X56543071Y-5771003D01*
X56393820Y-5493328D01*
X56253328Y-5231288D01*
X56123233Y-4987971D01*
X56005173Y-4766461D01*
X55900786Y-4569847D01*
X55811712Y-4401215D01*
X55739589Y-4263651D01*
X55686056Y-4160242D01*
X55652750Y-4094075D01*
X55641310Y-4068236D01*
X55641368Y-4068020D01*
X55667707Y-4065847D01*
X55738588Y-4064101D01*
X55848946Y-4062803D01*
X55993716Y-4061975D01*
X56167832Y-4061638D01*
X56366230Y-4061813D01*
X56583843Y-4062521D01*
X56747700Y-4063362D01*
X57842911Y-4069824D01*
X57640150Y-4404688D01*
X57548082Y-4561412D01*
X57483736Y-4684258D01*
X57445660Y-4779473D01*
X57432401Y-4853301D01*
X57442506Y-4911989D01*
X57474522Y-4961781D01*
X57503929Y-4990230D01*
X57589846Y-5038211D01*
X57683752Y-5050261D01*
X57769668Y-5026194D01*
X57811235Y-4993799D01*
X57838196Y-4957020D01*
X57885950Y-4884205D01*
X57950252Y-4782144D01*
X58026857Y-4657628D01*
X58111520Y-4517450D01*
X58162825Y-4431339D01*
X58268811Y-4250553D01*
X58349989Y-4106025D01*
X58408238Y-3992193D01*
X58445433Y-3903496D01*
X58463451Y-3834370D01*
X58464172Y-3779252D01*
X58449470Y-3732582D01*
X58421225Y-3688795D01*
X58415746Y-3681898D01*
X58368328Y-3623340D01*
X55110462Y-3623340D01*
X55035288Y-3707474D01*
X55035288Y-3707474D01*
G37*
X55035288Y-3707474D02*
X54987025Y-3770378D01*
X54969607Y-3825608D01*
X54972535Y-3881106D01*
X54985744Y-3914214D01*
X55020754Y-3987230D01*
X55075610Y-4096511D01*
X55148360Y-4238414D01*
X55237048Y-4409295D01*
X55339720Y-4605511D01*
X55454423Y-4823417D01*
X55579202Y-5059372D01*
X55712104Y-5309730D01*
X55851174Y-5570849D01*
X55994458Y-5839084D01*
X56140002Y-6110794D01*
X56285851Y-6382333D01*
X56430053Y-6650059D01*
X56570652Y-6910328D01*
X56705695Y-7159496D01*
X56833227Y-7393921D01*
X56951295Y-7609958D01*
X57057944Y-7803963D01*
X57151220Y-7972295D01*
X57229169Y-8111308D01*
X57289837Y-8217360D01*
X57331270Y-8286806D01*
X57350590Y-8315097D01*
X57430706Y-8366024D01*
X57537600Y-8382404D01*
X57586892Y-8378353D01*
X57640698Y-8355850D01*
X57699585Y-8311558D01*
X57704714Y-8306568D01*
X57726967Y-8284457D01*
X57745798Y-8263426D01*
X57759987Y-8240756D01*
X57768317Y-8213724D01*
X57769569Y-8179611D01*
X57762525Y-8135695D01*
X57745967Y-8079255D01*
X57718677Y-8007570D01*
X57679436Y-7917919D01*
X57627026Y-7807581D01*
X57560229Y-7673835D01*
X57477826Y-7513961D01*
X57378600Y-7325236D01*
X57261333Y-7104941D01*
X57124805Y-6850354D01*
X56967799Y-6558754D01*
X56789097Y-6227420D01*
X56699441Y-6061226D01*
X56543071Y-5771003D01*
X56393820Y-5493328D01*
X56253328Y-5231288D01*
X56123233Y-4987971D01*
X56005173Y-4766461D01*
X55900786Y-4569847D01*
X55811712Y-4401215D01*
X55739589Y-4263651D01*
X55686056Y-4160242D01*
X55652750Y-4094075D01*
X55641310Y-4068236D01*
X55641368Y-4068020D01*
X55667707Y-4065847D01*
X55738588Y-4064101D01*
X55848946Y-4062803D01*
X55993716Y-4061975D01*
X56167832Y-4061638D01*
X56366230Y-4061813D01*
X56583843Y-4062521D01*
X56747700Y-4063362D01*
X57842911Y-4069824D01*
X57640150Y-4404688D01*
X57548082Y-4561412D01*
X57483736Y-4684258D01*
X57445660Y-4779473D01*
X57432401Y-4853301D01*
X57442506Y-4911989D01*
X57474522Y-4961781D01*
X57503929Y-4990230D01*
X57589846Y-5038211D01*
X57683752Y-5050261D01*
X57769668Y-5026194D01*
X57811235Y-4993799D01*
X57838196Y-4957020D01*
X57885950Y-4884205D01*
X57950252Y-4782144D01*
X58026857Y-4657628D01*
X58111520Y-4517450D01*
X58162825Y-4431339D01*
X58268811Y-4250553D01*
X58349989Y-4106025D01*
X58408238Y-3992193D01*
X58445433Y-3903496D01*
X58463451Y-3834370D01*
X58464172Y-3779252D01*
X58449470Y-3732582D01*
X58421225Y-3688795D01*
X58415746Y-3681898D01*
X58368328Y-3623340D01*
X55110462Y-3623340D01*
X55035288Y-3707474D01*
G36*
X51615162Y-7949850D02*
X51563006Y-8016868D01*
X51543787Y-8091864D01*
X51542656Y-8125391D01*
X51553115Y-8209966D01*
X51592365Y-8276527D01*
X51615162Y-8300931D01*
X51687668Y-8373438D01*
X54639436Y-8373438D01*
X54713930Y-8310755D01*
X54783878Y-8224389D01*
X54808199Y-8127140D01*
X54786882Y-8027629D01*
X54719912Y-7934481D01*
X54714499Y-7929335D01*
X54702101Y-7918543D01*
X54687333Y-7909359D01*
X54666352Y-7901652D01*
X54635317Y-7895293D01*
X54590387Y-7890153D01*
X54527720Y-7886101D01*
X54443474Y-7883009D01*
X54333808Y-7880747D01*
X54194881Y-7879184D01*
X54022851Y-7878193D01*
X53813876Y-7877642D01*
X53564116Y-7877402D01*
X53269728Y-7877345D01*
X53173180Y-7877344D01*
X51687668Y-7877344D01*
X51615162Y-7949850D01*
X51615162Y-7949850D01*
G37*
X51615162Y-7949850D02*
X51563006Y-8016868D01*
X51543787Y-8091864D01*
X51542656Y-8125391D01*
X51553115Y-8209966D01*
X51592365Y-8276527D01*
X51615162Y-8300931D01*
X51687668Y-8373438D01*
X54639436Y-8373438D01*
X54713930Y-8310755D01*
X54783878Y-8224389D01*
X54808199Y-8127140D01*
X54786882Y-8027629D01*
X54719912Y-7934481D01*
X54714499Y-7929335D01*
X54702101Y-7918543D01*
X54687333Y-7909359D01*
X54666352Y-7901652D01*
X54635317Y-7895293D01*
X54590387Y-7890153D01*
X54527720Y-7886101D01*
X54443474Y-7883009D01*
X54333808Y-7880747D01*
X54194881Y-7879184D01*
X54022851Y-7878193D01*
X53813876Y-7877642D01*
X53564116Y-7877402D01*
X53269728Y-7877345D01*
X53173180Y-7877344D01*
X51687668Y-7877344D01*
X51615162Y-7949850D01*
G36*
X73273895Y-4107609D02*
X73132718Y-4110348D01*
X73029388Y-4116755D01*
X72958027Y-4128336D01*
X72912755Y-4146599D01*
X72887694Y-4173051D01*
X72876964Y-4209199D01*
X72874688Y-4256549D01*
X72874687Y-4256758D01*
X72886589Y-4315486D01*
X72926749Y-4353356D01*
X73001848Y-4373709D01*
X73118568Y-4379881D01*
X73121104Y-4379883D01*
X73200085Y-4382791D01*
X73254571Y-4390357D01*
X73271562Y-4399288D01*
X73262185Y-4426284D01*
X73235702Y-4492891D01*
X73194587Y-4593135D01*
X73141313Y-4721043D01*
X73078355Y-4870645D01*
X73008186Y-5035966D01*
X72996738Y-5062813D01*
X72917268Y-5249811D01*
X72837024Y-5439961D01*
X72760216Y-5623191D01*
X72691055Y-5789427D01*
X72633750Y-5928595D01*
X72597945Y-6016992D01*
X72551074Y-6132487D01*
X72509740Y-6231119D01*
X72477840Y-6303818D01*
X72459274Y-6341512D01*
X72457290Y-6344287D01*
X72445785Y-6324990D01*
X72418224Y-6265341D01*
X72376952Y-6171062D01*
X72324313Y-6047871D01*
X72262652Y-5901490D01*
X72194314Y-5737636D01*
X72121643Y-5562032D01*
X72046983Y-5380395D01*
X71972681Y-5198447D01*
X71901079Y-5021906D01*
X71834524Y-4856493D01*
X71775359Y-4707928D01*
X71725929Y-4581930D01*
X71688579Y-4484220D01*
X71665653Y-4420517D01*
X71659258Y-4397462D01*
X71681873Y-4388465D01*
X71740991Y-4382127D01*
X71818717Y-4379883D01*
X71934736Y-4371943D01*
X72009095Y-4345941D01*
X72047488Y-4298607D01*
X72056133Y-4243457D01*
X72053279Y-4199775D01*
X72040770Y-4166533D01*
X72012687Y-4142314D01*
X71963107Y-4125703D01*
X71886112Y-4115288D01*
X71775779Y-4109651D01*
X71626189Y-4107379D01*
X71485260Y-4107031D01*
X71317145Y-4107220D01*
X71191697Y-4108268D01*
X71101973Y-4110893D01*
X71041031Y-4115817D01*
X71001929Y-4123759D01*
X70977724Y-4135440D01*
X70961474Y-4151579D01*
X70953731Y-4162160D01*
X70917020Y-4240596D01*
X70926695Y-4303233D01*
X70981777Y-4349033D01*
X71081291Y-4376955D01*
X71163114Y-4384752D01*
X71323332Y-4392285D01*
X71960933Y-5917773D01*
X72072081Y-6183564D01*
X72179478Y-6440125D01*
X72281288Y-6683083D01*
X72375673Y-6908067D01*
X72460795Y-7110702D01*
X72534817Y-7286617D01*
X72595902Y-7431438D01*
X72642212Y-7540792D01*
X72671909Y-7610308D01*
X72678165Y-7624704D01*
X72775016Y-7801859D01*
X72891171Y-7938290D01*
X73023827Y-8031110D01*
X73103850Y-8062839D01*
X73217574Y-8090601D01*
X73313869Y-8096271D01*
X73418378Y-8080122D01*
X73471502Y-8066732D01*
X73582494Y-8028216D01*
X73681158Y-7978563D01*
X73753007Y-7925744D01*
X73774891Y-7899786D01*
X73789916Y-7834826D01*
X73770013Y-7765450D01*
X73722826Y-7712711D01*
X73703381Y-7702850D01*
X73653965Y-7693501D01*
X73594438Y-7705222D01*
X73509444Y-7740935D01*
X73410073Y-7778461D01*
X73312083Y-7800229D01*
X73275006Y-7802930D01*
X73207181Y-7796528D01*
X73147010Y-7773985D01*
X73090495Y-7730295D01*
X73033637Y-7660453D01*
X72972438Y-7559452D01*
X72902897Y-7422286D01*
X72821017Y-7243951D01*
X72811661Y-7222905D01*
X72751647Y-7086335D01*
X72698288Y-6962540D01*
X72655066Y-6859788D01*
X72625461Y-6786345D01*
X72613206Y-6751616D01*
X72619994Y-6715133D01*
X72646880Y-6634663D01*
X72693401Y-6511364D01*
X72759092Y-6346398D01*
X72843491Y-6140922D01*
X72946132Y-5896098D01*
X73066553Y-5613084D01*
X73095432Y-5545703D01*
X73590373Y-4392285D01*
X73783611Y-4379883D01*
X73882452Y-4372137D01*
X73944079Y-4361714D01*
X73980864Y-4344428D01*
X74005179Y-4316092D01*
X74013404Y-4302126D01*
X74035996Y-4250312D01*
X74028843Y-4208086D01*
X74007455Y-4171901D01*
X73964950Y-4107031D01*
X73458798Y-4107031D01*
X73273895Y-4107609D01*
X73273895Y-4107609D01*
G37*
X73273895Y-4107609D02*
X73132718Y-4110348D01*
X73029388Y-4116755D01*
X72958027Y-4128336D01*
X72912755Y-4146599D01*
X72887694Y-4173051D01*
X72876964Y-4209199D01*
X72874688Y-4256549D01*
X72874687Y-4256758D01*
X72886589Y-4315486D01*
X72926749Y-4353356D01*
X73001848Y-4373709D01*
X73118568Y-4379881D01*
X73121104Y-4379883D01*
X73200085Y-4382791D01*
X73254571Y-4390357D01*
X73271562Y-4399288D01*
X73262185Y-4426284D01*
X73235702Y-4492891D01*
X73194587Y-4593135D01*
X73141313Y-4721043D01*
X73078355Y-4870645D01*
X73008186Y-5035966D01*
X72996738Y-5062813D01*
X72917268Y-5249811D01*
X72837024Y-5439961D01*
X72760216Y-5623191D01*
X72691055Y-5789427D01*
X72633750Y-5928595D01*
X72597945Y-6016992D01*
X72551074Y-6132487D01*
X72509740Y-6231119D01*
X72477840Y-6303818D01*
X72459274Y-6341512D01*
X72457290Y-6344287D01*
X72445785Y-6324990D01*
X72418224Y-6265341D01*
X72376952Y-6171062D01*
X72324313Y-6047871D01*
X72262652Y-5901490D01*
X72194314Y-5737636D01*
X72121643Y-5562032D01*
X72046983Y-5380395D01*
X71972681Y-5198447D01*
X71901079Y-5021906D01*
X71834524Y-4856493D01*
X71775359Y-4707928D01*
X71725929Y-4581930D01*
X71688579Y-4484220D01*
X71665653Y-4420517D01*
X71659258Y-4397462D01*
X71681873Y-4388465D01*
X71740991Y-4382127D01*
X71818717Y-4379883D01*
X71934736Y-4371943D01*
X72009095Y-4345941D01*
X72047488Y-4298607D01*
X72056133Y-4243457D01*
X72053279Y-4199775D01*
X72040770Y-4166533D01*
X72012687Y-4142314D01*
X71963107Y-4125703D01*
X71886112Y-4115288D01*
X71775779Y-4109651D01*
X71626189Y-4107379D01*
X71485260Y-4107031D01*
X71317145Y-4107220D01*
X71191697Y-4108268D01*
X71101973Y-4110893D01*
X71041031Y-4115817D01*
X71001929Y-4123759D01*
X70977724Y-4135440D01*
X70961474Y-4151579D01*
X70953731Y-4162160D01*
X70917020Y-4240596D01*
X70926695Y-4303233D01*
X70981777Y-4349033D01*
X71081291Y-4376955D01*
X71163114Y-4384752D01*
X71323332Y-4392285D01*
X71960933Y-5917773D01*
X72072081Y-6183564D01*
X72179478Y-6440125D01*
X72281288Y-6683083D01*
X72375673Y-6908067D01*
X72460795Y-7110702D01*
X72534817Y-7286617D01*
X72595902Y-7431438D01*
X72642212Y-7540792D01*
X72671909Y-7610308D01*
X72678165Y-7624704D01*
X72775016Y-7801859D01*
X72891171Y-7938290D01*
X73023827Y-8031110D01*
X73103850Y-8062839D01*
X73217574Y-8090601D01*
X73313869Y-8096271D01*
X73418378Y-8080122D01*
X73471502Y-8066732D01*
X73582494Y-8028216D01*
X73681158Y-7978563D01*
X73753007Y-7925744D01*
X73774891Y-7899786D01*
X73789916Y-7834826D01*
X73770013Y-7765450D01*
X73722826Y-7712711D01*
X73703381Y-7702850D01*
X73653965Y-7693501D01*
X73594438Y-7705222D01*
X73509444Y-7740935D01*
X73410073Y-7778461D01*
X73312083Y-7800229D01*
X73275006Y-7802930D01*
X73207181Y-7796528D01*
X73147010Y-7773985D01*
X73090495Y-7730295D01*
X73033637Y-7660453D01*
X72972438Y-7559452D01*
X72902897Y-7422286D01*
X72821017Y-7243951D01*
X72811661Y-7222905D01*
X72751647Y-7086335D01*
X72698288Y-6962540D01*
X72655066Y-6859788D01*
X72625461Y-6786345D01*
X72613206Y-6751616D01*
X72619994Y-6715133D01*
X72646880Y-6634663D01*
X72693401Y-6511364D01*
X72759092Y-6346398D01*
X72843491Y-6140922D01*
X72946132Y-5896098D01*
X73066553Y-5613084D01*
X73095432Y-5545703D01*
X73590373Y-4392285D01*
X73783611Y-4379883D01*
X73882452Y-4372137D01*
X73944079Y-4361714D01*
X73980864Y-4344428D01*
X74005179Y-4316092D01*
X74013404Y-4302126D01*
X74035996Y-4250312D01*
X74028843Y-4208086D01*
X74007455Y-4171901D01*
X73964950Y-4107031D01*
X73458798Y-4107031D01*
X73273895Y-4107609D01*
G36*
X52848125Y-1679706D02*
X52780543Y-1744006D01*
X52741802Y-1832934D01*
X52739984Y-1931110D01*
X52754164Y-1967138D01*
X52790359Y-2042352D01*
X52846387Y-2152630D01*
X52920062Y-2293849D01*
X53009202Y-2461888D01*
X53111623Y-2652626D01*
X53225142Y-2861941D01*
X53347574Y-3085710D01*
X53452678Y-3276354D01*
X53610006Y-3560761D01*
X53745218Y-3805317D01*
X53860178Y-4013599D01*
X53956751Y-4189183D01*
X54036802Y-4335648D01*
X54102195Y-4456569D01*
X54154796Y-4555524D01*
X54196468Y-4636089D01*
X54229078Y-4701842D01*
X54254489Y-4756360D01*
X54274567Y-4803219D01*
X54291176Y-4845996D01*
X54306180Y-4888268D01*
X54321446Y-4933613D01*
X54329922Y-4959041D01*
X54404717Y-5239720D01*
X54434592Y-5499384D01*
X54419548Y-5738063D01*
X54411878Y-5779743D01*
X54359663Y-5977328D01*
X54286330Y-6143517D01*
X54182890Y-6294945D01*
X54062233Y-6426810D01*
X53899772Y-6569059D01*
X53733576Y-6672205D01*
X53547516Y-6744897D01*
X53400958Y-6781442D01*
X53165751Y-6806307D01*
X52936571Y-6785733D01*
X52718354Y-6723728D01*
X52516041Y-6624297D01*
X52334569Y-6491446D01*
X52178876Y-6329182D01*
X52053901Y-6141509D01*
X51964583Y-5932434D01*
X51915859Y-5705963D01*
X51908144Y-5570508D01*
X51931677Y-5329082D01*
X51999973Y-5103416D01*
X52109580Y-4897597D01*
X52257046Y-4715711D01*
X52438918Y-4561844D01*
X52651742Y-4440083D01*
X52892068Y-4354514D01*
X52946740Y-4341295D01*
X53077476Y-4303749D01*
X53165012Y-4256094D01*
X53215548Y-4192753D01*
X53235286Y-4108147D01*
X53236140Y-4080974D01*
X53216929Y-3973462D01*
X53160669Y-3898334D01*
X53069418Y-3857449D01*
X52980855Y-3850324D01*
X52892953Y-3859836D01*
X52782631Y-3881094D01*
X52677613Y-3908413D01*
X52402832Y-4016575D01*
X52152930Y-4165831D01*
X51931936Y-4352312D01*
X51743880Y-4572147D01*
X51592790Y-4821470D01*
X51502053Y-5037207D01*
X51472672Y-5127469D01*
X51452938Y-5206451D01*
X51440929Y-5288481D01*
X51434724Y-5387887D01*
X51432402Y-5518996D01*
X51432204Y-5558105D01*
X51432778Y-5698539D01*
X51436974Y-5804282D01*
X51446739Y-5890226D01*
X51464018Y-5971261D01*
X51490756Y-6062277D01*
X51503024Y-6100208D01*
X51613705Y-6360159D01*
X51765531Y-6596999D01*
X51953664Y-6806237D01*
X52173267Y-6983387D01*
X52419504Y-7123960D01*
X52687537Y-7223466D01*
X52723936Y-7233204D01*
X52910191Y-7266616D01*
X53119632Y-7280878D01*
X53332513Y-7275992D01*
X53529091Y-7251961D01*
X53613848Y-7233100D01*
X53878502Y-7143946D01*
X54109990Y-7024054D01*
X54317979Y-6867714D01*
X54448762Y-6739987D01*
X54632171Y-6513366D01*
X54770044Y-6272662D01*
X54865678Y-6010947D01*
X54918142Y-5753254D01*
X54934200Y-5529271D01*
X54919562Y-5298605D01*
X54872910Y-5055786D01*
X54792928Y-4795344D01*
X54678299Y-4511810D01*
X54558700Y-4260577D01*
X54492180Y-4130782D01*
X54410570Y-3975367D01*
X54316445Y-3798948D01*
X54212383Y-3606140D01*
X54100961Y-3401561D01*
X53984754Y-3189825D01*
X53866339Y-2975550D01*
X53748293Y-2763350D01*
X53633192Y-2557843D01*
X53523614Y-2363644D01*
X53422134Y-2185370D01*
X53331329Y-2027636D01*
X53253776Y-1895059D01*
X53192051Y-1792255D01*
X53148731Y-1723840D01*
X53126392Y-1694429D01*
X53126323Y-1694377D01*
X53030775Y-1648911D01*
X52934789Y-1646014D01*
X52848125Y-1679706D01*
X52848125Y-1679706D01*
G37*
X52848125Y-1679706D02*
X52780543Y-1744006D01*
X52741802Y-1832934D01*
X52739984Y-1931110D01*
X52754164Y-1967138D01*
X52790359Y-2042352D01*
X52846387Y-2152630D01*
X52920062Y-2293849D01*
X53009202Y-2461888D01*
X53111623Y-2652626D01*
X53225142Y-2861941D01*
X53347574Y-3085710D01*
X53452678Y-3276354D01*
X53610006Y-3560761D01*
X53745218Y-3805317D01*
X53860178Y-4013599D01*
X53956751Y-4189183D01*
X54036802Y-4335648D01*
X54102195Y-4456569D01*
X54154796Y-4555524D01*
X54196468Y-4636089D01*
X54229078Y-4701842D01*
X54254489Y-4756360D01*
X54274567Y-4803219D01*
X54291176Y-4845996D01*
X54306180Y-4888268D01*
X54321446Y-4933613D01*
X54329922Y-4959041D01*
X54404717Y-5239720D01*
X54434592Y-5499384D01*
X54419548Y-5738063D01*
X54411878Y-5779743D01*
X54359663Y-5977328D01*
X54286330Y-6143517D01*
X54182890Y-6294945D01*
X54062233Y-6426810D01*
X53899772Y-6569059D01*
X53733576Y-6672205D01*
X53547516Y-6744897D01*
X53400958Y-6781442D01*
X53165751Y-6806307D01*
X52936571Y-6785733D01*
X52718354Y-6723728D01*
X52516041Y-6624297D01*
X52334569Y-6491446D01*
X52178876Y-6329182D01*
X52053901Y-6141509D01*
X51964583Y-5932434D01*
X51915859Y-5705963D01*
X51908144Y-5570508D01*
X51931677Y-5329082D01*
X51999973Y-5103416D01*
X52109580Y-4897597D01*
X52257046Y-4715711D01*
X52438918Y-4561844D01*
X52651742Y-4440083D01*
X52892068Y-4354514D01*
X52946740Y-4341295D01*
X53077476Y-4303749D01*
X53165012Y-4256094D01*
X53215548Y-4192753D01*
X53235286Y-4108147D01*
X53236140Y-4080974D01*
X53216929Y-3973462D01*
X53160669Y-3898334D01*
X53069418Y-3857449D01*
X52980855Y-3850324D01*
X52892953Y-3859836D01*
X52782631Y-3881094D01*
X52677613Y-3908413D01*
X52402832Y-4016575D01*
X52152930Y-4165831D01*
X51931936Y-4352312D01*
X51743880Y-4572147D01*
X51592790Y-4821470D01*
X51502053Y-5037207D01*
X51472672Y-5127469D01*
X51452938Y-5206451D01*
X51440929Y-5288481D01*
X51434724Y-5387887D01*
X51432402Y-5518996D01*
X51432204Y-5558105D01*
X51432778Y-5698539D01*
X51436974Y-5804282D01*
X51446739Y-5890226D01*
X51464018Y-5971261D01*
X51490756Y-6062277D01*
X51503024Y-6100208D01*
X51613705Y-6360159D01*
X51765531Y-6596999D01*
X51953664Y-6806237D01*
X52173267Y-6983387D01*
X52419504Y-7123960D01*
X52687537Y-7223466D01*
X52723936Y-7233204D01*
X52910191Y-7266616D01*
X53119632Y-7280878D01*
X53332513Y-7275992D01*
X53529091Y-7251961D01*
X53613848Y-7233100D01*
X53878502Y-7143946D01*
X54109990Y-7024054D01*
X54317979Y-6867714D01*
X54448762Y-6739987D01*
X54632171Y-6513366D01*
X54770044Y-6272662D01*
X54865678Y-6010947D01*
X54918142Y-5753254D01*
X54934200Y-5529271D01*
X54919562Y-5298605D01*
X54872910Y-5055786D01*
X54792928Y-4795344D01*
X54678299Y-4511810D01*
X54558700Y-4260577D01*
X54492180Y-4130782D01*
X54410570Y-3975367D01*
X54316445Y-3798948D01*
X54212383Y-3606140D01*
X54100961Y-3401561D01*
X53984754Y-3189825D01*
X53866339Y-2975550D01*
X53748293Y-2763350D01*
X53633192Y-2557843D01*
X53523614Y-2363644D01*
X53422134Y-2185370D01*
X53331329Y-2027636D01*
X53253776Y-1895059D01*
X53192051Y-1792255D01*
X53148731Y-1723840D01*
X53126392Y-1694429D01*
X53126323Y-1694377D01*
X53030775Y-1648911D01*
X52934789Y-1646014D01*
X52848125Y-1679706D01*
G36*
X75199015Y-4073475D02*
X75056502Y-4083370D01*
X74941573Y-4100879D01*
X74885511Y-4114290D01*
X74752726Y-4155599D01*
X74628656Y-4203215D01*
X74523312Y-4252484D01*
X74446709Y-4298754D01*
X74409919Y-4335241D01*
X74400443Y-4381027D01*
X74397082Y-4461252D01*
X74399000Y-4562044D01*
X74405361Y-4669528D01*
X74415329Y-4769829D01*
X74428068Y-4849074D01*
X74442742Y-4893389D01*
X74443623Y-4894580D01*
X74483769Y-4916007D01*
X74547378Y-4925554D01*
X74551168Y-4925586D01*
X74611732Y-4916842D01*
X74651610Y-4885590D01*
X74674554Y-4824299D01*
X74684316Y-4725438D01*
X74685430Y-4656147D01*
X74685430Y-4482666D01*
X74819966Y-4432329D01*
X75070047Y-4363151D01*
X75333611Y-4334915D01*
X75490031Y-4338608D01*
X75680674Y-4361404D01*
X75831264Y-4399913D01*
X75949789Y-4457460D01*
X76044234Y-4537373D01*
X76084614Y-4586340D01*
X76124631Y-4675407D01*
X76138561Y-4785606D01*
X76126384Y-4896252D01*
X76088084Y-4986662D01*
X76084953Y-4990994D01*
X76047824Y-5035111D01*
X76004064Y-5073191D01*
X75948161Y-5107080D01*
X75874603Y-5138623D01*
X75777877Y-5169665D01*
X75652472Y-5202051D01*
X75492876Y-5237627D01*
X75293577Y-5278238D01*
X75133672Y-5309457D01*
X74894058Y-5364056D01*
X74699310Y-5427933D01*
X74545114Y-5503840D01*
X74427159Y-5594526D01*
X74341131Y-5702742D01*
X74282717Y-5831239D01*
X74274615Y-5857378D01*
X74248461Y-6023465D01*
X74261069Y-6192928D01*
X74309194Y-6353653D01*
X74389588Y-6493527D01*
X74467169Y-6575831D01*
X74597313Y-6662855D01*
X74762580Y-6737318D01*
X74948895Y-6793039D01*
X74974782Y-6798765D01*
X75120728Y-6820011D01*
X75294792Y-6830576D01*
X75477784Y-6830465D01*
X75650517Y-6819685D01*
X75792626Y-6798500D01*
X75906007Y-6767214D01*
X76037587Y-6720839D01*
X76170889Y-6666147D01*
X76289441Y-6609907D01*
X76376767Y-6558891D01*
X76378350Y-6557782D01*
X76408749Y-6534430D01*
X76428436Y-6508853D01*
X76439737Y-6470532D01*
X76444977Y-6408948D01*
X76446483Y-6313581D01*
X76446562Y-6249317D01*
X76444338Y-6108182D01*
X76435835Y-6009354D01*
X76418304Y-5945658D01*
X76388999Y-5909917D01*
X76345172Y-5894957D01*
X76310137Y-5892969D01*
X76249973Y-5900925D01*
X76209946Y-5929852D01*
X76186383Y-5987338D01*
X76175610Y-6080970D01*
X76173711Y-6174789D01*
X76173711Y-6360652D01*
X75980165Y-6435291D01*
X75730481Y-6512207D01*
X75480099Y-6552707D01*
X75238192Y-6556344D01*
X75013933Y-6522670D01*
X74901007Y-6487923D01*
X74744211Y-6413290D01*
X74632870Y-6322467D01*
X74564688Y-6212706D01*
X74537365Y-6081261D01*
X74536602Y-6052158D01*
X74547229Y-5947845D01*
X74581721Y-5859205D01*
X74643993Y-5783917D01*
X74737962Y-5719659D01*
X74867544Y-5664112D01*
X75036654Y-5614953D01*
X75249207Y-5569861D01*
X75392363Y-5544916D01*
X75648778Y-5495743D01*
X75866949Y-5438975D01*
X76043130Y-5375748D01*
X76172241Y-5308087D01*
X76292019Y-5201292D01*
X76375598Y-5069069D01*
X76422929Y-4919964D01*
X76433962Y-4762525D01*
X76408649Y-4605298D01*
X76346940Y-4456830D01*
X76248785Y-4325667D01*
X76178263Y-4263251D01*
X76050546Y-4183778D01*
X75902595Y-4126722D01*
X75726895Y-4090267D01*
X75515932Y-4072596D01*
X75379961Y-4070228D01*
X75199015Y-4073475D01*
X75199015Y-4073475D01*
G37*
X75199015Y-4073475D02*
X75056502Y-4083370D01*
X74941573Y-4100879D01*
X74885511Y-4114290D01*
X74752726Y-4155599D01*
X74628656Y-4203215D01*
X74523312Y-4252484D01*
X74446709Y-4298754D01*
X74409919Y-4335241D01*
X74400443Y-4381027D01*
X74397082Y-4461252D01*
X74399000Y-4562044D01*
X74405361Y-4669528D01*
X74415329Y-4769829D01*
X74428068Y-4849074D01*
X74442742Y-4893389D01*
X74443623Y-4894580D01*
X74483769Y-4916007D01*
X74547378Y-4925554D01*
X74551168Y-4925586D01*
X74611732Y-4916842D01*
X74651610Y-4885590D01*
X74674554Y-4824299D01*
X74684316Y-4725438D01*
X74685430Y-4656147D01*
X74685430Y-4482666D01*
X74819966Y-4432329D01*
X75070047Y-4363151D01*
X75333611Y-4334915D01*
X75490031Y-4338608D01*
X75680674Y-4361404D01*
X75831264Y-4399913D01*
X75949789Y-4457460D01*
X76044234Y-4537373D01*
X76084614Y-4586340D01*
X76124631Y-4675407D01*
X76138561Y-4785606D01*
X76126384Y-4896252D01*
X76088084Y-4986662D01*
X76084953Y-4990994D01*
X76047824Y-5035111D01*
X76004064Y-5073191D01*
X75948161Y-5107080D01*
X75874603Y-5138623D01*
X75777877Y-5169665D01*
X75652472Y-5202051D01*
X75492876Y-5237627D01*
X75293577Y-5278238D01*
X75133672Y-5309457D01*
X74894058Y-5364056D01*
X74699310Y-5427933D01*
X74545114Y-5503840D01*
X74427159Y-5594526D01*
X74341131Y-5702742D01*
X74282717Y-5831239D01*
X74274615Y-5857378D01*
X74248461Y-6023465D01*
X74261069Y-6192928D01*
X74309194Y-6353653D01*
X74389588Y-6493527D01*
X74467169Y-6575831D01*
X74597313Y-6662855D01*
X74762580Y-6737318D01*
X74948895Y-6793039D01*
X74974782Y-6798765D01*
X75120728Y-6820011D01*
X75294792Y-6830576D01*
X75477784Y-6830465D01*
X75650517Y-6819685D01*
X75792626Y-6798500D01*
X75906007Y-6767214D01*
X76037587Y-6720839D01*
X76170889Y-6666147D01*
X76289441Y-6609907D01*
X76376767Y-6558891D01*
X76378350Y-6557782D01*
X76408749Y-6534430D01*
X76428436Y-6508853D01*
X76439737Y-6470532D01*
X76444977Y-6408948D01*
X76446483Y-6313581D01*
X76446562Y-6249317D01*
X76444338Y-6108182D01*
X76435835Y-6009354D01*
X76418304Y-5945658D01*
X76388999Y-5909917D01*
X76345172Y-5894957D01*
X76310137Y-5892969D01*
X76249973Y-5900925D01*
X76209946Y-5929852D01*
X76186383Y-5987338D01*
X76175610Y-6080970D01*
X76173711Y-6174789D01*
X76173711Y-6360652D01*
X75980165Y-6435291D01*
X75730481Y-6512207D01*
X75480099Y-6552707D01*
X75238192Y-6556344D01*
X75013933Y-6522670D01*
X74901007Y-6487923D01*
X74744211Y-6413290D01*
X74632870Y-6322467D01*
X74564688Y-6212706D01*
X74537365Y-6081261D01*
X74536602Y-6052158D01*
X74547229Y-5947845D01*
X74581721Y-5859205D01*
X74643993Y-5783917D01*
X74737962Y-5719659D01*
X74867544Y-5664112D01*
X75036654Y-5614953D01*
X75249207Y-5569861D01*
X75392363Y-5544916D01*
X75648778Y-5495743D01*
X75866949Y-5438975D01*
X76043130Y-5375748D01*
X76172241Y-5308087D01*
X76292019Y-5201292D01*
X76375598Y-5069069D01*
X76422929Y-4919964D01*
X76433962Y-4762525D01*
X76408649Y-4605298D01*
X76346940Y-4456830D01*
X76248785Y-4325667D01*
X76178263Y-4263251D01*
X76050546Y-4183778D01*
X75902595Y-4126722D01*
X75726895Y-4090267D01*
X75515932Y-4072596D01*
X75379961Y-4070228D01*
X75199015Y-4073475D01*
G36*
X69561643Y-4060552D02*
X69324293Y-4088541D01*
X69091707Y-4144170D01*
X68945296Y-4196075D01*
X68845208Y-4238557D01*
X68778071Y-4276806D01*
X68737307Y-4321795D01*
X68716342Y-4384493D01*
X68708599Y-4475872D01*
X68707500Y-4592795D01*
X68710432Y-4728978D01*
X68721346Y-4823041D01*
X68743417Y-4882243D01*
X68779822Y-4913842D01*
X68833736Y-4925093D01*
X68853139Y-4925586D01*
X68911707Y-4918206D01*
X68949500Y-4890596D01*
X68970670Y-4834553D01*
X68979373Y-4741871D01*
X68980352Y-4674360D01*
X68980352Y-4482666D01*
X69111975Y-4433419D01*
X69380243Y-4359164D01*
X69657170Y-4332504D01*
X69935784Y-4353952D01*
X70007840Y-4367514D01*
X70178925Y-4419962D01*
X70306853Y-4496148D01*
X70392508Y-4596970D01*
X70436771Y-4723323D01*
X70443828Y-4810649D01*
X70435273Y-4897903D01*
X70402363Y-4967192D01*
X70367918Y-5010317D01*
X70308581Y-5065358D01*
X70231030Y-5112622D01*
X70128656Y-5154473D01*
X69994850Y-5193274D01*
X69823001Y-5231390D01*
X69669218Y-5260232D01*
X69408689Y-5311115D01*
X69193105Y-5364113D01*
X69017802Y-5421409D01*
X68878116Y-5485187D01*
X68769382Y-5557632D01*
X68686936Y-5640927D01*
X68626115Y-5737256D01*
X68619039Y-5751952D01*
X68574280Y-5895211D01*
X68558018Y-6059677D01*
X68571369Y-6225188D01*
X68588708Y-6299368D01*
X68637423Y-6399354D01*
X68720663Y-6504941D01*
X68826423Y-6604516D01*
X68942702Y-6686465D01*
X69035437Y-6731606D01*
X69227853Y-6786416D01*
X69448784Y-6821110D01*
X69680920Y-6834582D01*
X69906955Y-6825727D01*
X70086405Y-6798733D01*
X70197993Y-6768723D01*
X70324716Y-6725738D01*
X70452332Y-6675544D01*
X70566598Y-6623907D01*
X70653273Y-6576596D01*
X70678618Y-6558936D01*
X70705935Y-6535050D01*
X70723921Y-6507959D01*
X70734523Y-6467518D01*
X70739685Y-6403578D01*
X70741352Y-6305993D01*
X70741484Y-6230993D01*
X70739736Y-6094861D01*
X70732594Y-6000729D01*
X70717209Y-5941050D01*
X70690734Y-5908280D01*
X70650322Y-5894874D01*
X70613907Y-5892969D01*
X70547475Y-5908385D01*
X70502614Y-5957606D01*
X70477085Y-6045086D01*
X70468647Y-6175282D01*
X70468633Y-6181939D01*
X70468633Y-6360652D01*
X70276396Y-6434617D01*
X70010068Y-6518401D01*
X69757494Y-6558064D01*
X69511179Y-6554313D01*
X69328996Y-6524110D01*
X69153046Y-6467192D01*
X69011870Y-6386070D01*
X68908990Y-6284070D01*
X68847926Y-6164521D01*
X68831523Y-6053956D01*
X68846477Y-5942298D01*
X68893400Y-5846788D01*
X68975385Y-5765467D01*
X69095526Y-5696378D01*
X69256915Y-5637560D01*
X69462647Y-5587057D01*
X69612871Y-5559221D01*
X69861838Y-5513912D01*
X70066822Y-5468248D01*
X70233421Y-5420178D01*
X70367231Y-5367646D01*
X70473851Y-5308600D01*
X70558878Y-5240986D01*
X70600691Y-5196817D01*
X70686206Y-5060760D01*
X70731854Y-4906261D01*
X70738342Y-4743425D01*
X70706376Y-4582356D01*
X70636661Y-4433160D01*
X70539019Y-4314344D01*
X70398209Y-4213072D01*
X70222042Y-4136461D01*
X70018542Y-4085108D01*
X69795735Y-4059606D01*
X69561643Y-4060552D01*
X69561643Y-4060552D01*
G37*
X69561643Y-4060552D02*
X69324293Y-4088541D01*
X69091707Y-4144170D01*
X68945296Y-4196075D01*
X68845208Y-4238557D01*
X68778071Y-4276806D01*
X68737307Y-4321795D01*
X68716342Y-4384493D01*
X68708599Y-4475872D01*
X68707500Y-4592795D01*
X68710432Y-4728978D01*
X68721346Y-4823041D01*
X68743417Y-4882243D01*
X68779822Y-4913842D01*
X68833736Y-4925093D01*
X68853139Y-4925586D01*
X68911707Y-4918206D01*
X68949500Y-4890596D01*
X68970670Y-4834553D01*
X68979373Y-4741871D01*
X68980352Y-4674360D01*
X68980352Y-4482666D01*
X69111975Y-4433419D01*
X69380243Y-4359164D01*
X69657170Y-4332504D01*
X69935784Y-4353952D01*
X70007840Y-4367514D01*
X70178925Y-4419962D01*
X70306853Y-4496148D01*
X70392508Y-4596970D01*
X70436771Y-4723323D01*
X70443828Y-4810649D01*
X70435273Y-4897903D01*
X70402363Y-4967192D01*
X70367918Y-5010317D01*
X70308581Y-5065358D01*
X70231030Y-5112622D01*
X70128656Y-5154473D01*
X69994850Y-5193274D01*
X69823001Y-5231390D01*
X69669218Y-5260232D01*
X69408689Y-5311115D01*
X69193105Y-5364113D01*
X69017802Y-5421409D01*
X68878116Y-5485187D01*
X68769382Y-5557632D01*
X68686936Y-5640927D01*
X68626115Y-5737256D01*
X68619039Y-5751952D01*
X68574280Y-5895211D01*
X68558018Y-6059677D01*
X68571369Y-6225188D01*
X68588708Y-6299368D01*
X68637423Y-6399354D01*
X68720663Y-6504941D01*
X68826423Y-6604516D01*
X68942702Y-6686465D01*
X69035437Y-6731606D01*
X69227853Y-6786416D01*
X69448784Y-6821110D01*
X69680920Y-6834582D01*
X69906955Y-6825727D01*
X70086405Y-6798733D01*
X70197993Y-6768723D01*
X70324716Y-6725738D01*
X70452332Y-6675544D01*
X70566598Y-6623907D01*
X70653273Y-6576596D01*
X70678618Y-6558936D01*
X70705935Y-6535050D01*
X70723921Y-6507959D01*
X70734523Y-6467518D01*
X70739685Y-6403578D01*
X70741352Y-6305993D01*
X70741484Y-6230993D01*
X70739736Y-6094861D01*
X70732594Y-6000729D01*
X70717209Y-5941050D01*
X70690734Y-5908280D01*
X70650322Y-5894874D01*
X70613907Y-5892969D01*
X70547475Y-5908385D01*
X70502614Y-5957606D01*
X70477085Y-6045086D01*
X70468647Y-6175282D01*
X70468633Y-6181939D01*
X70468633Y-6360652D01*
X70276396Y-6434617D01*
X70010068Y-6518401D01*
X69757494Y-6558064D01*
X69511179Y-6554313D01*
X69328996Y-6524110D01*
X69153046Y-6467192D01*
X69011870Y-6386070D01*
X68908990Y-6284070D01*
X68847926Y-6164521D01*
X68831523Y-6053956D01*
X68846477Y-5942298D01*
X68893400Y-5846788D01*
X68975385Y-5765467D01*
X69095526Y-5696378D01*
X69256915Y-5637560D01*
X69462647Y-5587057D01*
X69612871Y-5559221D01*
X69861838Y-5513912D01*
X70066822Y-5468248D01*
X70233421Y-5420178D01*
X70367231Y-5367646D01*
X70473851Y-5308600D01*
X70558878Y-5240986D01*
X70600691Y-5196817D01*
X70686206Y-5060760D01*
X70731854Y-4906261D01*
X70738342Y-4743425D01*
X70706376Y-4582356D01*
X70636661Y-4433160D01*
X70539019Y-4314344D01*
X70398209Y-4213072D01*
X70222042Y-4136461D01*
X70018542Y-4085108D01*
X69795735Y-4059606D01*
X69561643Y-4060552D01*
G36*
X67542830Y-3319601D02*
X67497031Y-3343047D01*
X67483596Y-3378932D01*
X67474279Y-3457101D01*
X67468898Y-3579996D01*
X67467266Y-3739922D01*
X67467266Y-4107031D01*
X67047358Y-4107031D01*
X66877682Y-4108056D01*
X66751316Y-4112251D01*
X66661986Y-4121294D01*
X66603415Y-4136866D01*
X66569326Y-4160647D01*
X66553444Y-4194315D01*
X66549493Y-4239550D01*
X66549492Y-4240268D01*
X66552672Y-4279582D01*
X66566462Y-4308769D01*
X66597238Y-4329322D01*
X66651376Y-4342735D01*
X66735250Y-4350501D01*
X66855237Y-4354115D01*
X67017713Y-4355071D01*
X67039484Y-4355078D01*
X67469944Y-4355078D01*
X67462404Y-5316260D01*
X67460372Y-5560871D01*
X67458305Y-5760958D01*
X67455920Y-5921607D01*
X67452938Y-6047903D01*
X67449078Y-6144931D01*
X67444059Y-6217776D01*
X67437600Y-6271523D01*
X67429421Y-6311258D01*
X67419241Y-6342066D01*
X67406780Y-6369032D01*
X67404002Y-6374387D01*
X67326688Y-6471334D01*
X67217327Y-6534412D01*
X67081140Y-6562496D01*
X66923347Y-6554460D01*
X66760332Y-6513086D01*
X66656455Y-6480083D01*
X66586424Y-6466739D01*
X66538617Y-6472872D01*
X66501414Y-6498298D01*
X66491325Y-6508838D01*
X66452527Y-6577438D01*
X66459507Y-6642459D01*
X66508446Y-6701438D01*
X66595525Y-6751914D01*
X66716926Y-6791424D01*
X66868830Y-6817508D01*
X66983574Y-6826157D01*
X67155243Y-6825806D01*
X67283366Y-6808934D01*
X67312936Y-6800678D01*
X67465468Y-6727350D01*
X67584628Y-6617475D01*
X67662499Y-6490934D01*
X67727715Y-6351855D01*
X67734973Y-5353467D01*
X67742231Y-4355078D01*
X67996663Y-4355078D01*
X68127479Y-4352931D01*
X68216513Y-4344459D01*
X68271482Y-4326611D01*
X68300105Y-4296340D01*
X68310099Y-4250596D01*
X68310625Y-4231055D01*
X68305219Y-4179457D01*
X68283860Y-4144313D01*
X68238839Y-4122588D01*
X68162447Y-4111247D01*
X68046974Y-4107254D01*
X67995605Y-4107031D01*
X67740117Y-4107031D01*
X67740117Y-3735834D01*
X67739652Y-3591951D01*
X67737621Y-3489781D01*
X67733069Y-3421433D01*
X67725043Y-3379014D01*
X67712589Y-3354632D01*
X67694752Y-3340395D01*
X67692139Y-3338959D01*
X67617165Y-3316070D01*
X67542830Y-3319601D01*
X67542830Y-3319601D01*
G37*
X67542830Y-3319601D02*
X67497031Y-3343047D01*
X67483596Y-3378932D01*
X67474279Y-3457101D01*
X67468898Y-3579996D01*
X67467266Y-3739922D01*
X67467266Y-4107031D01*
X67047358Y-4107031D01*
X66877682Y-4108056D01*
X66751316Y-4112251D01*
X66661986Y-4121294D01*
X66603415Y-4136866D01*
X66569326Y-4160647D01*
X66553444Y-4194315D01*
X66549493Y-4239550D01*
X66549492Y-4240268D01*
X66552672Y-4279582D01*
X66566462Y-4308769D01*
X66597238Y-4329322D01*
X66651376Y-4342735D01*
X66735250Y-4350501D01*
X66855237Y-4354115D01*
X67017713Y-4355071D01*
X67039484Y-4355078D01*
X67469944Y-4355078D01*
X67462404Y-5316260D01*
X67460372Y-5560871D01*
X67458305Y-5760958D01*
X67455920Y-5921607D01*
X67452938Y-6047903D01*
X67449078Y-6144931D01*
X67444059Y-6217776D01*
X67437600Y-6271523D01*
X67429421Y-6311258D01*
X67419241Y-6342066D01*
X67406780Y-6369032D01*
X67404002Y-6374387D01*
X67326688Y-6471334D01*
X67217327Y-6534412D01*
X67081140Y-6562496D01*
X66923347Y-6554460D01*
X66760332Y-6513086D01*
X66656455Y-6480083D01*
X66586424Y-6466739D01*
X66538617Y-6472872D01*
X66501414Y-6498298D01*
X66491325Y-6508838D01*
X66452527Y-6577438D01*
X66459507Y-6642459D01*
X66508446Y-6701438D01*
X66595525Y-6751914D01*
X66716926Y-6791424D01*
X66868830Y-6817508D01*
X66983574Y-6826157D01*
X67155243Y-6825806D01*
X67283366Y-6808934D01*
X67312936Y-6800678D01*
X67465468Y-6727350D01*
X67584628Y-6617475D01*
X67662499Y-6490934D01*
X67727715Y-6351855D01*
X67734973Y-5353467D01*
X67742231Y-4355078D01*
X67996663Y-4355078D01*
X68127479Y-4352931D01*
X68216513Y-4344459D01*
X68271482Y-4326611D01*
X68300105Y-4296340D01*
X68310099Y-4250596D01*
X68310625Y-4231055D01*
X68305219Y-4179457D01*
X68283860Y-4144313D01*
X68238839Y-4122588D01*
X68162447Y-4111247D01*
X68046974Y-4107254D01*
X67995605Y-4107031D01*
X67740117Y-4107031D01*
X67740117Y-3735834D01*
X67739652Y-3591951D01*
X67737621Y-3489781D01*
X67733069Y-3421433D01*
X67725043Y-3379014D01*
X67712589Y-3354632D01*
X67694752Y-3340395D01*
X67692139Y-3338959D01*
X67617165Y-3316070D01*
X67542830Y-3319601D01*
G36*
X64712105Y-4096596D02*
X64571355Y-4119503D01*
X64571064Y-4119572D01*
X64331543Y-4199258D01*
X64122985Y-4316487D01*
X63947630Y-4468355D01*
X63807716Y-4651959D01*
X63705479Y-4864393D01*
X63643160Y-5102755D01*
X63622970Y-5349622D01*
X63622087Y-5409475D01*
X63622699Y-5458761D01*
X63629177Y-5498504D01*
X63645892Y-5529724D01*
X63677218Y-5553444D01*
X63727524Y-5570686D01*
X63801184Y-5582471D01*
X63902569Y-5589821D01*
X64036051Y-5593759D01*
X64206002Y-5595305D01*
X64416793Y-5595483D01*
X64672796Y-5595313D01*
X64674121Y-5595313D01*
X64945891Y-5594631D01*
X65178218Y-5592619D01*
X65369203Y-5589325D01*
X65516945Y-5584797D01*
X65619541Y-5579084D01*
X65675092Y-5572233D01*
X65682959Y-5569635D01*
X65717187Y-5526924D01*
X65731382Y-5460348D01*
X65723677Y-5392207D01*
X65701172Y-5352227D01*
X65678581Y-5343787D01*
X65627091Y-5336925D01*
X65543330Y-5331532D01*
X65423924Y-5327499D01*
X65265501Y-5324717D01*
X65064689Y-5323077D01*
X64818115Y-5322470D01*
X64780203Y-5322461D01*
X63888999Y-5322461D01*
X63905811Y-5195730D01*
X63955174Y-4973980D01*
X64040517Y-4786071D01*
X64162888Y-4630617D01*
X64323334Y-4506235D01*
X64489516Y-4424270D01*
X64556701Y-4400577D01*
X64625076Y-4384644D01*
X64706932Y-4374983D01*
X64814562Y-4370105D01*
X64949590Y-4368553D01*
X65083533Y-4368690D01*
X65180146Y-4371418D01*
X65251700Y-4378649D01*
X65310471Y-4392296D01*
X65368731Y-4414271D01*
X65433352Y-4443924D01*
X65621394Y-4559416D01*
X65777176Y-4710135D01*
X65897924Y-4891411D01*
X65980860Y-5098572D01*
X66023207Y-5326945D01*
X66028299Y-5444785D01*
X66006990Y-5685626D01*
X65945268Y-5905414D01*
X65845265Y-6099784D01*
X65709116Y-6264367D01*
X65575541Y-6371695D01*
X65388440Y-6467278D01*
X65180690Y-6523893D01*
X64961266Y-6542367D01*
X64739139Y-6523527D01*
X64523284Y-6468199D01*
X64322674Y-6377211D01*
X64146282Y-6251389D01*
X64132225Y-6238683D01*
X64034581Y-6166526D01*
X63949799Y-6141669D01*
X63878415Y-6164227D01*
X63859955Y-6179994D01*
X63826081Y-6233013D01*
X63829376Y-6292495D01*
X63871888Y-6364403D01*
X63953785Y-6452878D01*
X64122428Y-6584621D01*
X64324782Y-6690450D01*
X64550543Y-6767346D01*
X64789411Y-6812289D01*
X65031085Y-6822258D01*
X65172832Y-6810240D01*
X65426535Y-6754111D01*
X65651902Y-6658040D01*
X65851957Y-6520523D01*
X65959210Y-6419478D01*
X66092741Y-6256991D01*
X66192739Y-6080157D01*
X66266599Y-5879507D01*
X66293678Y-5746157D01*
X66308123Y-5582272D01*
X66309901Y-5405297D01*
X66298978Y-5232681D01*
X66275322Y-5081868D01*
X66268159Y-5052410D01*
X66181652Y-4816891D01*
X66055253Y-4605619D01*
X65893683Y-4423366D01*
X65701664Y-4274901D01*
X65483918Y-4164996D01*
X65345434Y-4120207D01*
X65213417Y-4097048D01*
X65051568Y-4085383D01*
X64878320Y-4085227D01*
X64712105Y-4096596D01*
X64712105Y-4096596D01*
G37*
X64712105Y-4096596D02*
X64571355Y-4119503D01*
X64571064Y-4119572D01*
X64331543Y-4199258D01*
X64122985Y-4316487D01*
X63947630Y-4468355D01*
X63807716Y-4651959D01*
X63705479Y-4864393D01*
X63643160Y-5102755D01*
X63622970Y-5349622D01*
X63622087Y-5409475D01*
X63622699Y-5458761D01*
X63629177Y-5498504D01*
X63645892Y-5529724D01*
X63677218Y-5553444D01*
X63727524Y-5570686D01*
X63801184Y-5582471D01*
X63902569Y-5589821D01*
X64036051Y-5593759D01*
X64206002Y-5595305D01*
X64416793Y-5595483D01*
X64672796Y-5595313D01*
X64674121Y-5595313D01*
X64945891Y-5594631D01*
X65178218Y-5592619D01*
X65369203Y-5589325D01*
X65516945Y-5584797D01*
X65619541Y-5579084D01*
X65675092Y-5572233D01*
X65682959Y-5569635D01*
X65717187Y-5526924D01*
X65731382Y-5460348D01*
X65723677Y-5392207D01*
X65701172Y-5352227D01*
X65678581Y-5343787D01*
X65627091Y-5336925D01*
X65543330Y-5331532D01*
X65423924Y-5327499D01*
X65265501Y-5324717D01*
X65064689Y-5323077D01*
X64818115Y-5322470D01*
X64780203Y-5322461D01*
X63888999Y-5322461D01*
X63905811Y-5195730D01*
X63955174Y-4973980D01*
X64040517Y-4786071D01*
X64162888Y-4630617D01*
X64323334Y-4506235D01*
X64489516Y-4424270D01*
X64556701Y-4400577D01*
X64625076Y-4384644D01*
X64706932Y-4374983D01*
X64814562Y-4370105D01*
X64949590Y-4368553D01*
X65083533Y-4368690D01*
X65180146Y-4371418D01*
X65251700Y-4378649D01*
X65310471Y-4392296D01*
X65368731Y-4414271D01*
X65433352Y-4443924D01*
X65621394Y-4559416D01*
X65777176Y-4710135D01*
X65897924Y-4891411D01*
X65980860Y-5098572D01*
X66023207Y-5326945D01*
X66028299Y-5444785D01*
X66006990Y-5685626D01*
X65945268Y-5905414D01*
X65845265Y-6099784D01*
X65709116Y-6264367D01*
X65575541Y-6371695D01*
X65388440Y-6467278D01*
X65180690Y-6523893D01*
X64961266Y-6542367D01*
X64739139Y-6523527D01*
X64523284Y-6468199D01*
X64322674Y-6377211D01*
X64146282Y-6251389D01*
X64132225Y-6238683D01*
X64034581Y-6166526D01*
X63949799Y-6141669D01*
X63878415Y-6164227D01*
X63859955Y-6179994D01*
X63826081Y-6233013D01*
X63829376Y-6292495D01*
X63871888Y-6364403D01*
X63953785Y-6452878D01*
X64122428Y-6584621D01*
X64324782Y-6690450D01*
X64550543Y-6767346D01*
X64789411Y-6812289D01*
X65031085Y-6822258D01*
X65172832Y-6810240D01*
X65426535Y-6754111D01*
X65651902Y-6658040D01*
X65851957Y-6520523D01*
X65959210Y-6419478D01*
X66092741Y-6256991D01*
X66192739Y-6080157D01*
X66266599Y-5879507D01*
X66293678Y-5746157D01*
X66308123Y-5582272D01*
X66309901Y-5405297D01*
X66298978Y-5232681D01*
X66275322Y-5081868D01*
X66268159Y-5052410D01*
X66181652Y-4816891D01*
X66055253Y-4605619D01*
X65893683Y-4423366D01*
X65701664Y-4274901D01*
X65483918Y-4164996D01*
X65345434Y-4120207D01*
X65213417Y-4097048D01*
X65051568Y-4085383D01*
X64878320Y-4085227D01*
X64712105Y-4096596D01*
G36*
X61695363Y-4081137D02*
X61494198Y-4132578D01*
X61308192Y-4215261D01*
X61145294Y-4328321D01*
X61013451Y-4470892D01*
X60991067Y-4503552D01*
X60912743Y-4624426D01*
X60835171Y-4509319D01*
X60694417Y-4343555D01*
X60521634Y-4214427D01*
X60320017Y-4123639D01*
X60092763Y-4072897D01*
X60001055Y-4064510D01*
X59749533Y-4070506D01*
X59519601Y-4117288D01*
X59314579Y-4202770D01*
X59137789Y-4324868D01*
X58992550Y-4481497D01*
X58882185Y-4670570D01*
X58834641Y-4796922D01*
X58821767Y-4841841D01*
X58811352Y-4888462D01*
X58803139Y-4942407D01*
X58796870Y-5009295D01*
X58792288Y-5094747D01*
X58789134Y-5204385D01*
X58787151Y-5343829D01*
X58786082Y-5518699D01*
X58785667Y-5734617D01*
X58785625Y-5865816D01*
X58786085Y-6121700D01*
X58787535Y-6331333D01*
X58790081Y-6498067D01*
X58793829Y-6625253D01*
X58798886Y-6716242D01*
X58805358Y-6774386D01*
X58813350Y-6803035D01*
X58815391Y-6805781D01*
X58864841Y-6828658D01*
X58933982Y-6834403D01*
X58998489Y-6823179D01*
X59028672Y-6804364D01*
X59036396Y-6770201D01*
X59043428Y-6688431D01*
X59049692Y-6561048D01*
X59055114Y-6390051D01*
X59059618Y-6177436D01*
X59063129Y-5925200D01*
X59063602Y-5880389D01*
X59066107Y-5645261D01*
X59068601Y-5454184D01*
X59071431Y-5301599D01*
X59074941Y-5181949D01*
X59079479Y-5089676D01*
X59085389Y-5019223D01*
X59093018Y-4965031D01*
X59102711Y-4921542D01*
X59114815Y-4883200D01*
X59127775Y-4849204D01*
X59217984Y-4678658D01*
X59341085Y-4542614D01*
X59502497Y-4435261D01*
X59524084Y-4424333D01*
X59610501Y-4384158D01*
X59681449Y-4359844D01*
X59755471Y-4347522D01*
X59851112Y-4343325D01*
X59913717Y-4343066D01*
X60033784Y-4345731D01*
X60122344Y-4355371D01*
X60197357Y-4375191D01*
X60275038Y-4407586D01*
X60435640Y-4499876D01*
X60559308Y-4613676D01*
X60657642Y-4760237D01*
X60676473Y-4796864D01*
X60757598Y-4961554D01*
X60770000Y-5857587D01*
X60773574Y-6103385D01*
X60777246Y-6304133D01*
X60781643Y-6464388D01*
X60787393Y-6588707D01*
X60795123Y-6681647D01*
X60805462Y-6747764D01*
X60819037Y-6791615D01*
X60836475Y-6817757D01*
X60858405Y-6830746D01*
X60885455Y-6835141D01*
X60904722Y-6835547D01*
X60939173Y-6835049D01*
X60967232Y-6830459D01*
X60989609Y-6817132D01*
X61007012Y-6790422D01*
X61020151Y-6745684D01*
X61029734Y-6678275D01*
X61036471Y-6583548D01*
X61041071Y-6456858D01*
X61044242Y-6293561D01*
X61046695Y-6089011D01*
X61048612Y-5892969D01*
X61050975Y-5659697D01*
X61053353Y-5470419D01*
X61056099Y-5319518D01*
X61059567Y-5201379D01*
X61064109Y-5110386D01*
X61070079Y-5040924D01*
X61077830Y-4987378D01*
X61087715Y-4944132D01*
X61100087Y-4905571D01*
X61112805Y-4872328D01*
X61205527Y-4702317D01*
X61333334Y-4560032D01*
X61488434Y-4449739D01*
X61663033Y-4375704D01*
X61849341Y-4342195D01*
X62039564Y-4353478D01*
X62054920Y-4356485D01*
X62256902Y-4419799D01*
X62425972Y-4520035D01*
X62563539Y-4658294D01*
X62671012Y-4835675D01*
X62672463Y-4838770D01*
X62741973Y-4987598D01*
X62749890Y-5880093D01*
X62752964Y-6144008D01*
X62757104Y-6365863D01*
X62762254Y-6544175D01*
X62768359Y-6677461D01*
X62775366Y-6764237D01*
X62783220Y-6803021D01*
X62783933Y-6804067D01*
X62829873Y-6827771D01*
X62898162Y-6834533D01*
X62964453Y-6824157D01*
X62997461Y-6805781D01*
X63004766Y-6785441D01*
X63010896Y-6738224D01*
X63015926Y-6661083D01*
X63019930Y-6550974D01*
X63022982Y-6404849D01*
X63025154Y-6219664D01*
X63026522Y-5992372D01*
X63027159Y-5719927D01*
X63027227Y-5577949D01*
X63027227Y-4379883D01*
X63227295Y-4379883D01*
X63327928Y-4376793D01*
X63413754Y-4368609D01*
X63469047Y-4356959D01*
X63475342Y-4354205D01*
X63512621Y-4309709D01*
X63525104Y-4243693D01*
X63512789Y-4177604D01*
X63475678Y-4132890D01*
X63475342Y-4132709D01*
X63428537Y-4120910D01*
X63346880Y-4112699D01*
X63242184Y-4108007D01*
X63126263Y-4106762D01*
X63010930Y-4108896D01*
X62907998Y-4114338D01*
X62829281Y-4123019D01*
X62786591Y-4134868D01*
X62784141Y-4136797D01*
X62766986Y-4177436D01*
X62756229Y-4248099D01*
X62754375Y-4294187D01*
X62754375Y-4421811D01*
X62650362Y-4322866D01*
X62492634Y-4205111D01*
X62310322Y-4122926D01*
X62111374Y-4075446D01*
X61903738Y-4061805D01*
X61695363Y-4081137D01*
X61695363Y-4081137D01*
G37*
X61695363Y-4081137D02*
X61494198Y-4132578D01*
X61308192Y-4215261D01*
X61145294Y-4328321D01*
X61013451Y-4470892D01*
X60991067Y-4503552D01*
X60912743Y-4624426D01*
X60835171Y-4509319D01*
X60694417Y-4343555D01*
X60521634Y-4214427D01*
X60320017Y-4123639D01*
X60092763Y-4072897D01*
X60001055Y-4064510D01*
X59749533Y-4070506D01*
X59519601Y-4117288D01*
X59314579Y-4202770D01*
X59137789Y-4324868D01*
X58992550Y-4481497D01*
X58882185Y-4670570D01*
X58834641Y-4796922D01*
X58821767Y-4841841D01*
X58811352Y-4888462D01*
X58803139Y-4942407D01*
X58796870Y-5009295D01*
X58792288Y-5094747D01*
X58789134Y-5204385D01*
X58787151Y-5343829D01*
X58786082Y-5518699D01*
X58785667Y-5734617D01*
X58785625Y-5865816D01*
X58786085Y-6121700D01*
X58787535Y-6331333D01*
X58790081Y-6498067D01*
X58793829Y-6625253D01*
X58798886Y-6716242D01*
X58805358Y-6774386D01*
X58813350Y-6803035D01*
X58815391Y-6805781D01*
X58864841Y-6828658D01*
X58933982Y-6834403D01*
X58998489Y-6823179D01*
X59028672Y-6804364D01*
X59036396Y-6770201D01*
X59043428Y-6688431D01*
X59049692Y-6561048D01*
X59055114Y-6390051D01*
X59059618Y-6177436D01*
X59063129Y-5925200D01*
X59063602Y-5880389D01*
X59066107Y-5645261D01*
X59068601Y-5454184D01*
X59071431Y-5301599D01*
X59074941Y-5181949D01*
X59079479Y-5089676D01*
X59085389Y-5019223D01*
X59093018Y-4965031D01*
X59102711Y-4921542D01*
X59114815Y-4883200D01*
X59127775Y-4849204D01*
X59217984Y-4678658D01*
X59341085Y-4542614D01*
X59502497Y-4435261D01*
X59524084Y-4424333D01*
X59610501Y-4384158D01*
X59681449Y-4359844D01*
X59755471Y-4347522D01*
X59851112Y-4343325D01*
X59913717Y-4343066D01*
X60033784Y-4345731D01*
X60122344Y-4355371D01*
X60197357Y-4375191D01*
X60275038Y-4407586D01*
X60435640Y-4499876D01*
X60559308Y-4613676D01*
X60657642Y-4760237D01*
X60676473Y-4796864D01*
X60757598Y-4961554D01*
X60770000Y-5857587D01*
X60773574Y-6103385D01*
X60777246Y-6304133D01*
X60781643Y-6464388D01*
X60787393Y-6588707D01*
X60795123Y-6681647D01*
X60805462Y-6747764D01*
X60819037Y-6791615D01*
X60836475Y-6817757D01*
X60858405Y-6830746D01*
X60885455Y-6835141D01*
X60904722Y-6835547D01*
X60939173Y-6835049D01*
X60967232Y-6830459D01*
X60989609Y-6817132D01*
X61007012Y-6790422D01*
X61020151Y-6745684D01*
X61029734Y-6678275D01*
X61036471Y-6583548D01*
X61041071Y-6456858D01*
X61044242Y-6293561D01*
X61046695Y-6089011D01*
X61048612Y-5892969D01*
X61050975Y-5659697D01*
X61053353Y-5470419D01*
X61056099Y-5319518D01*
X61059567Y-5201379D01*
X61064109Y-5110386D01*
X61070079Y-5040924D01*
X61077830Y-4987378D01*
X61087715Y-4944132D01*
X61100087Y-4905571D01*
X61112805Y-4872328D01*
X61205527Y-4702317D01*
X61333334Y-4560032D01*
X61488434Y-4449739D01*
X61663033Y-4375704D01*
X61849341Y-4342195D01*
X62039564Y-4353478D01*
X62054920Y-4356485D01*
X62256902Y-4419799D01*
X62425972Y-4520035D01*
X62563539Y-4658294D01*
X62671012Y-4835675D01*
X62672463Y-4838770D01*
X62741973Y-4987598D01*
X62749890Y-5880093D01*
X62752964Y-6144008D01*
X62757104Y-6365863D01*
X62762254Y-6544175D01*
X62768359Y-6677461D01*
X62775366Y-6764237D01*
X62783220Y-6803021D01*
X62783933Y-6804067D01*
X62829873Y-6827771D01*
X62898162Y-6834533D01*
X62964453Y-6824157D01*
X62997461Y-6805781D01*
X63004766Y-6785441D01*
X63010896Y-6738224D01*
X63015926Y-6661083D01*
X63019930Y-6550974D01*
X63022982Y-6404849D01*
X63025154Y-6219664D01*
X63026522Y-5992372D01*
X63027159Y-5719927D01*
X63027227Y-5577949D01*
X63027227Y-4379883D01*
X63227295Y-4379883D01*
X63327928Y-4376793D01*
X63413754Y-4368609D01*
X63469047Y-4356959D01*
X63475342Y-4354205D01*
X63512621Y-4309709D01*
X63525104Y-4243693D01*
X63512789Y-4177604D01*
X63475678Y-4132890D01*
X63475342Y-4132709D01*
X63428537Y-4120910D01*
X63346880Y-4112699D01*
X63242184Y-4108007D01*
X63126263Y-4106762D01*
X63010930Y-4108896D01*
X62907998Y-4114338D01*
X62829281Y-4123019D01*
X62786591Y-4134868D01*
X62784141Y-4136797D01*
X62766986Y-4177436D01*
X62756229Y-4248099D01*
X62754375Y-4294187D01*
X62754375Y-4421811D01*
X62650362Y-4322866D01*
X62492634Y-4205111D01*
X62310322Y-4122926D01*
X62111374Y-4075446D01*
X61903738Y-4061805D01*
X61695363Y-4081137D01*
%TD*%
%TO.C,SAS3*%
D11*
X28904761Y-58033333D02*
X28952380Y-58176190D01*
X28952380Y-58414285D01*
X28904761Y-58509523D01*
X28857142Y-58557142D01*
X28761904Y-58604761D01*
X28666666Y-58604761D01*
X28571428Y-58557142D01*
X28523809Y-58509523D01*
X28476190Y-58414285D01*
X28428571Y-58223809D01*
X28380952Y-58128571D01*
X28333333Y-58080952D01*
X28238095Y-58033333D01*
X28142857Y-58033333D01*
X28047619Y-58080952D01*
X28000000Y-58128571D01*
X27952380Y-58223809D01*
X27952380Y-58461904D01*
X28000000Y-58604761D01*
X28666666Y-58985714D02*
X28666666Y-59461904D01*
X28952380Y-58890476D02*
X27952380Y-59223809D01*
X28952380Y-59557142D01*
X28904761Y-59842857D02*
X28952380Y-59985714D01*
X28952380Y-60223809D01*
X28904761Y-60319047D01*
X28857142Y-60366666D01*
X28761904Y-60414285D01*
X28666666Y-60414285D01*
X28571428Y-60366666D01*
X28523809Y-60319047D01*
X28476190Y-60223809D01*
X28428571Y-60033333D01*
X28380952Y-59938095D01*
X28333333Y-59890476D01*
X28238095Y-59842857D01*
X28142857Y-59842857D01*
X28047619Y-59890476D01*
X28000000Y-59938095D01*
X27952380Y-60033333D01*
X27952380Y-60271428D01*
X28000000Y-60414285D01*
X27952380Y-60747619D02*
X27952380Y-61366666D01*
X28333333Y-61033333D01*
X28333333Y-61176190D01*
X28380952Y-61271428D01*
X28428571Y-61319047D01*
X28523809Y-61366666D01*
X28761904Y-61366666D01*
X28857142Y-61319047D01*
X28904761Y-61271428D01*
X28952380Y-61176190D01*
X28952380Y-60890476D01*
X28904761Y-60795238D01*
X28857142Y-60747619D01*
%TO.C,SAS2*%
X28904761Y-42033333D02*
X28952380Y-42176190D01*
X28952380Y-42414285D01*
X28904761Y-42509523D01*
X28857142Y-42557142D01*
X28761904Y-42604761D01*
X28666666Y-42604761D01*
X28571428Y-42557142D01*
X28523809Y-42509523D01*
X28476190Y-42414285D01*
X28428571Y-42223809D01*
X28380952Y-42128571D01*
X28333333Y-42080952D01*
X28238095Y-42033333D01*
X28142857Y-42033333D01*
X28047619Y-42080952D01*
X28000000Y-42128571D01*
X27952380Y-42223809D01*
X27952380Y-42461904D01*
X28000000Y-42604761D01*
X28666666Y-42985714D02*
X28666666Y-43461904D01*
X28952380Y-42890476D02*
X27952380Y-43223809D01*
X28952380Y-43557142D01*
X28904761Y-43842857D02*
X28952380Y-43985714D01*
X28952380Y-44223809D01*
X28904761Y-44319047D01*
X28857142Y-44366666D01*
X28761904Y-44414285D01*
X28666666Y-44414285D01*
X28571428Y-44366666D01*
X28523809Y-44319047D01*
X28476190Y-44223809D01*
X28428571Y-44033333D01*
X28380952Y-43938095D01*
X28333333Y-43890476D01*
X28238095Y-43842857D01*
X28142857Y-43842857D01*
X28047619Y-43890476D01*
X28000000Y-43938095D01*
X27952380Y-44033333D01*
X27952380Y-44271428D01*
X28000000Y-44414285D01*
X28047619Y-44795238D02*
X28000000Y-44842857D01*
X27952380Y-44938095D01*
X27952380Y-45176190D01*
X28000000Y-45271428D01*
X28047619Y-45319047D01*
X28142857Y-45366666D01*
X28238095Y-45366666D01*
X28380952Y-45319047D01*
X28952380Y-44747619D01*
X28952380Y-45366666D01*
%TO.C,SAS0*%
X28904761Y-10033333D02*
X28952380Y-10176190D01*
X28952380Y-10414285D01*
X28904761Y-10509523D01*
X28857142Y-10557142D01*
X28761904Y-10604761D01*
X28666666Y-10604761D01*
X28571428Y-10557142D01*
X28523809Y-10509523D01*
X28476190Y-10414285D01*
X28428571Y-10223809D01*
X28380952Y-10128571D01*
X28333333Y-10080952D01*
X28238095Y-10033333D01*
X28142857Y-10033333D01*
X28047619Y-10080952D01*
X28000000Y-10128571D01*
X27952380Y-10223809D01*
X27952380Y-10461904D01*
X28000000Y-10604761D01*
X28666666Y-10985714D02*
X28666666Y-11461904D01*
X28952380Y-10890476D02*
X27952380Y-11223809D01*
X28952380Y-11557142D01*
X28904761Y-11842857D02*
X28952380Y-11985714D01*
X28952380Y-12223809D01*
X28904761Y-12319047D01*
X28857142Y-12366666D01*
X28761904Y-12414285D01*
X28666666Y-12414285D01*
X28571428Y-12366666D01*
X28523809Y-12319047D01*
X28476190Y-12223809D01*
X28428571Y-12033333D01*
X28380952Y-11938095D01*
X28333333Y-11890476D01*
X28238095Y-11842857D01*
X28142857Y-11842857D01*
X28047619Y-11890476D01*
X28000000Y-11938095D01*
X27952380Y-12033333D01*
X27952380Y-12271428D01*
X28000000Y-12414285D01*
X27952380Y-13033333D02*
X27952380Y-13128571D01*
X28000000Y-13223809D01*
X28047619Y-13271428D01*
X28142857Y-13319047D01*
X28333333Y-13366666D01*
X28571428Y-13366666D01*
X28761904Y-13319047D01*
X28857142Y-13271428D01*
X28904761Y-13223809D01*
X28952380Y-13128571D01*
X28952380Y-13033333D01*
X28904761Y-12938095D01*
X28857142Y-12890476D01*
X28761904Y-12842857D01*
X28571428Y-12795238D01*
X28333333Y-12795238D01*
X28142857Y-12842857D01*
X28047619Y-12890476D01*
X28000000Y-12938095D01*
X27952380Y-13033333D01*
%TO.C,SAS1*%
X28904761Y-26033333D02*
X28952380Y-26176190D01*
X28952380Y-26414285D01*
X28904761Y-26509523D01*
X28857142Y-26557142D01*
X28761904Y-26604761D01*
X28666666Y-26604761D01*
X28571428Y-26557142D01*
X28523809Y-26509523D01*
X28476190Y-26414285D01*
X28428571Y-26223809D01*
X28380952Y-26128571D01*
X28333333Y-26080952D01*
X28238095Y-26033333D01*
X28142857Y-26033333D01*
X28047619Y-26080952D01*
X28000000Y-26128571D01*
X27952380Y-26223809D01*
X27952380Y-26461904D01*
X28000000Y-26604761D01*
X28666666Y-26985714D02*
X28666666Y-27461904D01*
X28952380Y-26890476D02*
X27952380Y-27223809D01*
X28952380Y-27557142D01*
X28904761Y-27842857D02*
X28952380Y-27985714D01*
X28952380Y-28223809D01*
X28904761Y-28319047D01*
X28857142Y-28366666D01*
X28761904Y-28414285D01*
X28666666Y-28414285D01*
X28571428Y-28366666D01*
X28523809Y-28319047D01*
X28476190Y-28223809D01*
X28428571Y-28033333D01*
X28380952Y-27938095D01*
X28333333Y-27890476D01*
X28238095Y-27842857D01*
X28142857Y-27842857D01*
X28047619Y-27890476D01*
X28000000Y-27938095D01*
X27952380Y-28033333D01*
X27952380Y-28271428D01*
X28000000Y-28414285D01*
X28952380Y-29366666D02*
X28952380Y-28795238D01*
X28952380Y-29080952D02*
X27952380Y-29080952D01*
X28095238Y-28985714D01*
X28190476Y-28890476D01*
X28238095Y-28795238D01*
%TD*%
M02*
