%TF.GenerationSoftware,KiCad,Pcbnew,5.0.1-33cea8e~68~ubuntu18.10.1*%
%TF.CreationDate,2018-11-01T12:10:29-06:00*%
%TF.ProjectId,thelio-io-sas,7468656C696F2D696F2D7361732E6B69,rev?*%
%TF.SameCoordinates,Original*%
%TF.FileFunction,Copper,L3,Inr,Plane*%
%TF.FilePolarity,Positive*%
%FSLAX46Y46*%
G04 Gerber Fmt 4.6, Leading zero omitted, Abs format (unit mm)*
G04 Created by KiCad (PCBNEW 5.0.1-33cea8e~68~ubuntu18.10.1) date Thu Nov  1 12:10:29 2018*
%MOMM*%
%LPD*%
G01*
G04 APERTURE LIST*
%TA.AperFunction,NonConductor*%
%ADD10C,0.200000*%
%TD*%
%TA.AperFunction,NonConductor*%
%ADD11C,0.150000*%
%TD*%
%TA.AperFunction,ViaPad*%
%ADD12C,0.370000*%
%TD*%
%TA.AperFunction,WasherPad*%
%ADD13C,2.600000*%
%TD*%
%TA.AperFunction,ViaPad*%
%ADD14O,1.730000X2.030000*%
%TD*%
%TA.AperFunction,ViaPad*%
%ADD15R,1.730000X2.030000*%
%TD*%
%TA.AperFunction,ViaPad*%
%ADD16C,0.800000*%
%TD*%
%TA.AperFunction,ViaPad*%
%ADD17C,0.300000*%
%TD*%
%TA.AperFunction,Conductor*%
%ADD18C,0.200000*%
%TD*%
%TA.AperFunction,Conductor*%
%ADD19C,0.254000*%
%TD*%
G04 APERTURE END LIST*
D10*
X77050000Y-18400000D02*
X77050000Y-53400000D01*
X75450000Y-16800000D02*
G75*
G02X77050000Y-18400000I0J-1600000D01*
G01*
X73850000Y-16800000D02*
X75450000Y-16800000D01*
X73850000Y-55000000D02*
X75450000Y-55000000D01*
X77050000Y-53400000D02*
G75*
G02X75450000Y-55000000I-1600000J0D01*
G01*
X70650000Y0D02*
G75*
G02X73850000Y-3200000I0J-3200000D01*
G01*
D11*
X73850000Y-68600000D02*
G75*
G02X70650000Y-71800000I-3200000J0D01*
G01*
D10*
X73850000Y-16800000D02*
X73850000Y-3200000D01*
X73850000Y-55000000D02*
X73850000Y-68600000D01*
X-3200000Y-18400000D02*
G75*
G02X-1600000Y-16800000I1600000J0D01*
G01*
X0Y-16800000D02*
X-1600000Y-16800000D01*
X0Y-55000000D02*
X-1600000Y-55000000D01*
X-1600000Y-55000000D02*
G75*
G02X-3200000Y-53400000I0J1600000D01*
G01*
X-3200000Y-53400000D02*
X-3200000Y-18400000D01*
X0Y-16800000D02*
X0Y-3200000D01*
X0Y-55000000D02*
X0Y-68600000D01*
X3200000Y0D02*
X70650000Y0D01*
X0Y-3200000D02*
G75*
G02X3200000Y0I3200000J0D01*
G01*
X70650000Y-71800000D02*
X3200000Y-71800000D01*
X3200000Y-71800000D02*
G75*
G02X0Y-68600000I0J3200000D01*
G01*
D12*
%TO.N,/sas0/T1+*%
%TO.C,SAS0*%
X5420000Y-12450000D03*
%TO.N,GND*%
X4720000Y-13200000D03*
%TO.N,Net-(SAS0-PadA2)*%
X4020000Y-13950000D03*
%TO.N,Net-(SAS0-PadA1)*%
X5420000Y-14700000D03*
%TO.N,/sas0/T1-*%
X4020000Y-11700000D03*
%TO.N,/sas0/T3+*%
X5420000Y-10200000D03*
%TO.N,GND*%
X4720000Y-10950000D03*
X4720000Y-8700000D03*
%TO.N,/sas0/T3-*%
X4020000Y-9450000D03*
%TO.N,/sas0/WAKE*%
X7820000Y-13950000D03*
%TO.N,GND*%
X8520000Y-10950000D03*
%TO.N,Net-(SAS0-PadB1)*%
X9220000Y-14700000D03*
%TO.N,/sas0/T0+*%
X9220000Y-12450000D03*
%TO.N,GND*%
X8520000Y-8700000D03*
X8520000Y-13200000D03*
%TO.N,/sas0/T0-*%
X7820000Y-11700000D03*
%TO.N,/sas0/T2-*%
X7820000Y-9450000D03*
%TO.N,/sas0/T2+*%
X9220000Y-10200000D03*
%TO.N,/sas0/CLK+*%
X11620000Y-13950000D03*
%TO.N,GND*%
X12320000Y-10950000D03*
%TO.N,/sas0/RST*%
X13020000Y-14700000D03*
%TO.N,/sas0/R1+*%
X13020000Y-12450000D03*
%TO.N,GND*%
X12320000Y-8700000D03*
X12320000Y-13200000D03*
%TO.N,/sas0/R1-*%
X11620000Y-11700000D03*
%TO.N,/sas0/R3-*%
X11620000Y-9450000D03*
%TO.N,/sas0/R3+*%
X13020000Y-10200000D03*
%TO.N,/sas0/CLK-*%
X15420000Y-13950000D03*
%TO.N,GND*%
X16120000Y-10950000D03*
%TO.N,Net-(SAS0-PadD1)*%
X16820000Y-14700000D03*
%TO.N,/sas0/R0+*%
X16820000Y-12450000D03*
%TO.N,GND*%
X16120000Y-8700000D03*
X16120000Y-13200000D03*
%TO.N,/sas0/R0-*%
X15420000Y-11700000D03*
%TO.N,/sas0/R2-*%
X15420000Y-9450000D03*
%TO.N,/sas0/R2+*%
X16820000Y-10200000D03*
%TD*%
D13*
%TO.N,*%
%TO.C,U.2_0*%
X61365000Y-12560000D03*
X22635000Y-12560000D03*
%TD*%
D12*
%TO.N,/sas1/T1+*%
%TO.C,SAS1*%
X5420000Y-28450000D03*
%TO.N,GND*%
X4720000Y-29200000D03*
%TO.N,Net-(SAS1-PadA2)*%
X4020000Y-29950000D03*
%TO.N,Net-(SAS1-PadA1)*%
X5420000Y-30700000D03*
%TO.N,/sas1/T1-*%
X4020000Y-27700000D03*
%TO.N,/sas1/T3+*%
X5420000Y-26200000D03*
%TO.N,GND*%
X4720000Y-26950000D03*
X4720000Y-24700000D03*
%TO.N,/sas1/T3-*%
X4020000Y-25450000D03*
%TO.N,/sas1/WAKE*%
X7820000Y-29950000D03*
%TO.N,GND*%
X8520000Y-26950000D03*
%TO.N,Net-(SAS1-PadB1)*%
X9220000Y-30700000D03*
%TO.N,/sas1/T0+*%
X9220000Y-28450000D03*
%TO.N,GND*%
X8520000Y-24700000D03*
X8520000Y-29200000D03*
%TO.N,/sas1/T0-*%
X7820000Y-27700000D03*
%TO.N,/sas1/T2-*%
X7820000Y-25450000D03*
%TO.N,/sas1/T2+*%
X9220000Y-26200000D03*
%TO.N,/sas1/CLK+*%
X11620000Y-29950000D03*
%TO.N,GND*%
X12320000Y-26950000D03*
%TO.N,/sas1/RST*%
X13020000Y-30700000D03*
%TO.N,/sas1/R1+*%
X13020000Y-28450000D03*
%TO.N,GND*%
X12320000Y-24700000D03*
X12320000Y-29200000D03*
%TO.N,/sas1/R1-*%
X11620000Y-27700000D03*
%TO.N,/sas1/R3-*%
X11620000Y-25450000D03*
%TO.N,/sas1/R3+*%
X13020000Y-26200000D03*
%TO.N,/sas1/CLK-*%
X15420000Y-29950000D03*
%TO.N,GND*%
X16120000Y-26950000D03*
%TO.N,Net-(SAS1-PadD1)*%
X16820000Y-30700000D03*
%TO.N,/sas1/R0+*%
X16820000Y-28450000D03*
%TO.N,GND*%
X16120000Y-24700000D03*
X16120000Y-29200000D03*
%TO.N,/sas1/R0-*%
X15420000Y-27700000D03*
%TO.N,/sas1/R2-*%
X15420000Y-25450000D03*
%TO.N,/sas1/R2+*%
X16820000Y-26200000D03*
%TD*%
D13*
%TO.N,*%
%TO.C,U.2_1*%
X61365000Y-28560000D03*
X22635000Y-28560000D03*
%TD*%
D12*
%TO.N,/sas2/T1+*%
%TO.C,SAS2*%
X5420000Y-44450000D03*
%TO.N,GND*%
X4720000Y-45200000D03*
%TO.N,Net-(SAS2-PadA2)*%
X4020000Y-45950000D03*
%TO.N,Net-(SAS2-PadA1)*%
X5420000Y-46700000D03*
%TO.N,/sas2/T1-*%
X4020000Y-43700000D03*
%TO.N,/sas2/T3+*%
X5420000Y-42200000D03*
%TO.N,GND*%
X4720000Y-42950000D03*
X4720000Y-40700000D03*
%TO.N,/sas2/T3-*%
X4020000Y-41450000D03*
%TO.N,/sas2/WAKE*%
X7820000Y-45950000D03*
%TO.N,GND*%
X8520000Y-42950000D03*
%TO.N,Net-(SAS2-PadB1)*%
X9220000Y-46700000D03*
%TO.N,/sas2/T0+*%
X9220000Y-44450000D03*
%TO.N,GND*%
X8520000Y-40700000D03*
X8520000Y-45200000D03*
%TO.N,/sas2/T0-*%
X7820000Y-43700000D03*
%TO.N,/sas2/T2-*%
X7820000Y-41450000D03*
%TO.N,/sas2/T2+*%
X9220000Y-42200000D03*
%TO.N,/sas2/CLK+*%
X11620000Y-45950000D03*
%TO.N,GND*%
X12320000Y-42950000D03*
%TO.N,/sas2/RST*%
X13020000Y-46700000D03*
%TO.N,/sas2/R1+*%
X13020000Y-44450000D03*
%TO.N,GND*%
X12320000Y-40700000D03*
X12320000Y-45200000D03*
%TO.N,/sas2/R1-*%
X11620000Y-43700000D03*
%TO.N,/sas2/R3-*%
X11620000Y-41450000D03*
%TO.N,/sas2/R3+*%
X13020000Y-42200000D03*
%TO.N,/sas2/CLK-*%
X15420000Y-45950000D03*
%TO.N,GND*%
X16120000Y-42950000D03*
%TO.N,Net-(SAS2-PadD1)*%
X16820000Y-46700000D03*
%TO.N,/sas2/R0+*%
X16820000Y-44450000D03*
%TO.N,GND*%
X16120000Y-40700000D03*
X16120000Y-45200000D03*
%TO.N,/sas2/R0-*%
X15420000Y-43700000D03*
%TO.N,/sas2/R2-*%
X15420000Y-41450000D03*
%TO.N,/sas2/R2+*%
X16820000Y-42200000D03*
%TD*%
D13*
%TO.N,*%
%TO.C,U.2_2*%
X61365000Y-44560000D03*
X22635000Y-44560000D03*
%TD*%
D12*
%TO.N,/sas3/T1+*%
%TO.C,SAS3*%
X5420000Y-60450000D03*
%TO.N,GND*%
X4720000Y-61200000D03*
%TO.N,Net-(SAS3-PadA2)*%
X4020000Y-61950000D03*
%TO.N,Net-(SAS3-PadA1)*%
X5420000Y-62700000D03*
%TO.N,/sas3/T1-*%
X4020000Y-59700000D03*
%TO.N,/sas3/T3+*%
X5420000Y-58200000D03*
%TO.N,GND*%
X4720000Y-58950000D03*
X4720000Y-56700000D03*
%TO.N,/sas3/T3-*%
X4020000Y-57450000D03*
%TO.N,/sas3/WAKE*%
X7820000Y-61950000D03*
%TO.N,GND*%
X8520000Y-58950000D03*
%TO.N,Net-(SAS3-PadB1)*%
X9220000Y-62700000D03*
%TO.N,/sas3/T0+*%
X9220000Y-60450000D03*
%TO.N,GND*%
X8520000Y-56700000D03*
X8520000Y-61200000D03*
%TO.N,/sas3/T0-*%
X7820000Y-59700000D03*
%TO.N,/sas3/T2-*%
X7820000Y-57450000D03*
%TO.N,/sas3/T2+*%
X9220000Y-58200000D03*
%TO.N,/sas3/CLK+*%
X11620000Y-61950000D03*
%TO.N,GND*%
X12320000Y-58950000D03*
%TO.N,/sas3/RST*%
X13020000Y-62700000D03*
%TO.N,/sas3/R1+*%
X13020000Y-60450000D03*
%TO.N,GND*%
X12320000Y-56700000D03*
X12320000Y-61200000D03*
%TO.N,/sas3/R1-*%
X11620000Y-59700000D03*
%TO.N,/sas3/R3-*%
X11620000Y-57450000D03*
%TO.N,/sas3/R3+*%
X13020000Y-58200000D03*
%TO.N,/sas3/CLK-*%
X15420000Y-61950000D03*
%TO.N,GND*%
X16120000Y-58950000D03*
%TO.N,Net-(SAS3-PadD1)*%
X16820000Y-62700000D03*
%TO.N,/sas3/R0+*%
X16820000Y-60450000D03*
%TO.N,GND*%
X16120000Y-56700000D03*
X16120000Y-61200000D03*
%TO.N,/sas3/R0-*%
X15420000Y-59700000D03*
%TO.N,/sas3/R2-*%
X15420000Y-57450000D03*
%TO.N,/sas3/R2+*%
X16820000Y-58200000D03*
%TD*%
D14*
%TO.N,+5V*%
%TO.C,POWER0*%
X60960000Y-67990000D03*
%TO.N,GND*%
X63460000Y-67990000D03*
X65960000Y-67990000D03*
D15*
%TO.N,+12V*%
X68460000Y-67990000D03*
%TD*%
D13*
%TO.N,*%
%TO.C,U.2_3*%
X61365000Y-60560000D03*
X22635000Y-60560000D03*
%TD*%
D16*
%TO.N,GND*%
X51525000Y-49445000D03*
X46420000Y-49445000D03*
X43905000Y-49445000D03*
X54040000Y-49445000D03*
X45175000Y-49445000D03*
X51525000Y-33445000D03*
X46420000Y-33445000D03*
X43905000Y-33445000D03*
X54040000Y-33445000D03*
X45175000Y-33445000D03*
X51525000Y-17445000D03*
X46420000Y-17445000D03*
X43905000Y-17445000D03*
X54040000Y-17445000D03*
X45175000Y-17445000D03*
X43905000Y-65445000D03*
X54040000Y-65445000D03*
X45175000Y-65445000D03*
X46420000Y-65445000D03*
X51525000Y-65445000D03*
%TO.N,+12V*%
X55310000Y-49445000D03*
X56580000Y-49445000D03*
X57875000Y-49445000D03*
X55310000Y-33445000D03*
X56580000Y-33445000D03*
X57875000Y-33445000D03*
X55310000Y-17445000D03*
X56580000Y-17445000D03*
X57875000Y-17445000D03*
X55310000Y-65445000D03*
X57875000Y-65445000D03*
X56580000Y-65445000D03*
%TO.N,+5V*%
X50255000Y-49445000D03*
X48985000Y-49445000D03*
X47715000Y-49420000D03*
X50255000Y-33445000D03*
X48985000Y-33445000D03*
X47715000Y-33420000D03*
X50255000Y-17445000D03*
X48985000Y-17445000D03*
X47715000Y-17420000D03*
X50255000Y-65445000D03*
X48985000Y-65445000D03*
X47715000Y-65420000D03*
D17*
%TO.N,/sas3/T2+*%
X45925545Y-56494455D03*
%TO.N,/sas3/T2-*%
X46314455Y-56105545D03*
%TO.N,/sas3/T0-*%
X28714455Y-56105545D03*
%TO.N,/sas3/T0+*%
X28325545Y-56494455D03*
%TO.N,/sas3/T1-*%
X41514455Y-56105545D03*
%TO.N,/sas3/T1+*%
X41125545Y-56494455D03*
%TO.N,/sas3/R2+*%
X48714455Y-56105545D03*
%TO.N,/sas3/R2-*%
X48325545Y-56494455D03*
D16*
%TO.N,/sas3/RST*%
X38120000Y-64490000D03*
D17*
%TO.N,/sas3/R3-*%
X53125545Y-56494455D03*
%TO.N,/sas3/R3+*%
X53514455Y-56105545D03*
%TO.N,/sas3/CLK+*%
X25925545Y-56494455D03*
%TO.N,/sas3/CLK-*%
X26314455Y-56105545D03*
D16*
%TO.N,/sas3/WAKE*%
X40095000Y-65445000D03*
%TO.N,/sas0/RST*%
X38120000Y-16490000D03*
%TO.N,/sas0/WAKE*%
X40095000Y-17445000D03*
D17*
%TO.N,/sas0/R3+*%
X53514455Y-8105545D03*
%TO.N,/sas0/R3-*%
X53125545Y-8494455D03*
%TO.N,/sas0/R2+*%
X48714455Y-8105545D03*
%TO.N,/sas0/R2-*%
X48325545Y-8494455D03*
%TO.N,/sas0/T2-*%
X46314455Y-8105545D03*
%TO.N,/sas0/T2+*%
X45925545Y-8494455D03*
%TO.N,/sas0/T1-*%
X41514455Y-8105545D03*
%TO.N,/sas0/T1+*%
X41125545Y-8494455D03*
%TO.N,/sas0/T0-*%
X28714455Y-8105545D03*
%TO.N,/sas0/T0+*%
X28325545Y-8494455D03*
%TO.N,/sas0/CLK-*%
X26314455Y-8105545D03*
%TO.N,/sas0/CLK+*%
X25925545Y-8494455D03*
D16*
%TO.N,/sas1/RST*%
X38120000Y-32490000D03*
%TO.N,/sas1/WAKE*%
X40095000Y-33445000D03*
D17*
%TO.N,/sas1/R3+*%
X53514455Y-24105545D03*
%TO.N,/sas1/R3-*%
X53125545Y-24494455D03*
%TO.N,/sas1/R2+*%
X48714455Y-24105545D03*
%TO.N,/sas1/R2-*%
X48325545Y-24494455D03*
%TO.N,/sas1/T2-*%
X46314455Y-24105545D03*
%TO.N,/sas1/T2+*%
X45925545Y-24494455D03*
%TO.N,/sas1/T1-*%
X41514455Y-24105545D03*
%TO.N,/sas1/T1+*%
X41125545Y-24494455D03*
%TO.N,/sas1/T0-*%
X28714455Y-24105545D03*
%TO.N,/sas1/T0+*%
X28325545Y-24494455D03*
%TO.N,/sas1/CLK-*%
X26314455Y-24105545D03*
%TO.N,/sas1/CLK+*%
X25925545Y-24494455D03*
D16*
%TO.N,/sas2/RST*%
X38120000Y-48490000D03*
%TO.N,/sas2/WAKE*%
X40095000Y-49445000D03*
D17*
%TO.N,/sas2/R3+*%
X53514455Y-40105545D03*
%TO.N,/sas2/R3-*%
X53125545Y-40494455D03*
%TO.N,/sas2/R2+*%
X48714455Y-40105545D03*
%TO.N,/sas2/R2-*%
X48325545Y-40494455D03*
%TO.N,/sas2/T2-*%
X46314455Y-40105545D03*
%TO.N,/sas2/T2+*%
X45925545Y-40494455D03*
%TO.N,/sas2/T1-*%
X41514455Y-40105545D03*
%TO.N,/sas2/T1+*%
X41125545Y-40494455D03*
%TO.N,/sas2/T0-*%
X28714455Y-40105545D03*
%TO.N,/sas2/T0+*%
X28325545Y-40494455D03*
%TO.N,/sas2/CLK-*%
X26314455Y-40105545D03*
%TO.N,/sas2/CLK+*%
X25925545Y-40494455D03*
%TD*%
D18*
%TO.N,/sas3/T2+*%
X45925545Y-56494455D02*
X45925545Y-56423744D01*
X45925545Y-56423744D02*
X44826801Y-55325000D01*
X9220000Y-57768199D02*
X9220000Y-58200000D01*
X11438207Y-55549992D02*
X9220000Y-57768199D01*
X17203385Y-55325000D02*
X16978393Y-55549992D01*
X16978393Y-55549992D02*
X11438207Y-55549992D01*
X44826801Y-55325000D02*
X17203385Y-55325000D01*
%TO.N,/sas3/T2-*%
X46314455Y-56105545D02*
X46243744Y-56105545D01*
X46243744Y-56105545D02*
X45013199Y-54875000D01*
X45013199Y-54875000D02*
X17017002Y-54875000D01*
X17017002Y-54875000D02*
X16792001Y-55100001D01*
X16792001Y-55100001D02*
X11251800Y-55100001D01*
X11251800Y-55100001D02*
X8901801Y-57450000D01*
X8901801Y-57450000D02*
X7820000Y-57450000D01*
%TO.N,/sas3/T0-*%
X25673593Y-58510008D02*
X17405807Y-58510008D01*
X28541546Y-56044454D02*
X28139147Y-56044454D01*
X28602637Y-56105545D02*
X28541546Y-56044454D01*
X13739202Y-59214999D02*
X13439193Y-59515008D01*
X28139147Y-56044454D02*
X25673593Y-58510008D01*
X17405807Y-58510008D02*
X16215815Y-59700000D01*
X13439193Y-59515008D02*
X12152810Y-59515008D01*
X16215815Y-59700000D02*
X16137802Y-59700000D01*
X10902198Y-59700000D02*
X9520000Y-59700000D01*
X16137802Y-59700000D02*
X15652801Y-59214999D01*
X28714455Y-56105545D02*
X28602637Y-56105545D01*
X15652801Y-59214999D02*
X13739202Y-59214999D01*
X11387199Y-59214999D02*
X10902198Y-59700000D01*
X12152810Y-59515008D02*
X11852801Y-59214999D01*
X11852801Y-59214999D02*
X11387199Y-59214999D01*
X9520000Y-59700000D02*
X7820000Y-59700000D01*
%TO.N,/sas3/T0+*%
X9520000Y-60150000D02*
X9220000Y-60450000D01*
X12072803Y-59964999D02*
X11852801Y-60185001D01*
X13472803Y-60185001D02*
X13252801Y-59964999D01*
X16367197Y-60185001D02*
X13472803Y-60185001D01*
X25860001Y-58959999D02*
X17592199Y-58959999D01*
X11852801Y-60185001D02*
X11387199Y-60185001D01*
X28325545Y-56494455D02*
X25860001Y-58959999D01*
X11352198Y-60150000D02*
X9520000Y-60150000D01*
X13252801Y-59964999D02*
X12072803Y-59964999D01*
X17592199Y-58959999D02*
X16367197Y-60185001D01*
X11387199Y-60185001D02*
X11352198Y-60150000D01*
%TO.N,/sas3/T1-*%
X41575546Y-56680852D02*
X35331398Y-62925000D01*
X41575546Y-56278454D02*
X41575546Y-56680852D01*
X41514455Y-56105545D02*
X41514455Y-56217363D01*
X41514455Y-56217363D02*
X41575546Y-56278454D01*
X16327198Y-62925000D02*
X13512802Y-62925000D01*
X13252801Y-63185001D02*
X12787199Y-63185001D01*
X16587199Y-63185001D02*
X16327198Y-62925000D01*
X17052801Y-63185001D02*
X16587199Y-63185001D01*
X12787199Y-63185001D02*
X12527198Y-62925000D01*
X35331398Y-62925000D02*
X17312802Y-62925000D01*
X12527198Y-62925000D02*
X9712802Y-62925000D01*
X13512802Y-62925000D02*
X13252801Y-63185001D01*
X17312802Y-62925000D02*
X17052801Y-63185001D01*
X7505001Y-63185001D02*
X5255001Y-60935001D01*
X5187199Y-60935001D02*
X4934999Y-60682801D01*
X9712802Y-62925000D02*
X9452801Y-63185001D01*
X9452801Y-63185001D02*
X7505001Y-63185001D01*
X5255001Y-60935001D02*
X5187199Y-60935001D01*
X4934999Y-60682801D02*
X4934999Y-60614999D01*
X4934999Y-60614999D02*
X4020000Y-59700000D01*
%TO.N,/sas3/T1+*%
X41125545Y-56494455D02*
X35145000Y-62475000D01*
X8727198Y-62475000D02*
X7431397Y-62475000D01*
X12527198Y-62475000D02*
X9712802Y-62475000D01*
X12787199Y-62214999D02*
X12527198Y-62475000D01*
X13512802Y-62475000D02*
X13252801Y-62214999D01*
X17052801Y-62214999D02*
X16587199Y-62214999D01*
X7431397Y-62475000D02*
X5420000Y-60463603D01*
X17312802Y-62475000D02*
X17052801Y-62214999D01*
X8987199Y-62214999D02*
X8727198Y-62475000D01*
X9712802Y-62475000D02*
X9452801Y-62214999D01*
X16587199Y-62214999D02*
X16327198Y-62475000D01*
X13252801Y-62214999D02*
X12787199Y-62214999D01*
X5420000Y-60463603D02*
X5420000Y-60450000D01*
X9452801Y-62214999D02*
X8987199Y-62214999D01*
X16327198Y-62475000D02*
X13512802Y-62475000D01*
X35145000Y-62475000D02*
X17312802Y-62475000D01*
%TO.N,/sas0/T2-*%
X46243744Y-8105545D02*
X45013199Y-6875000D01*
X16792001Y-7100001D02*
X11251800Y-7100001D01*
X46314455Y-8105545D02*
X46243744Y-8105545D01*
X8901801Y-9450000D02*
X7820000Y-9450000D01*
X11251800Y-7100001D02*
X8901801Y-9450000D01*
X45013199Y-6875000D02*
X17017002Y-6875000D01*
X17017002Y-6875000D02*
X16792001Y-7100001D01*
%TO.N,/sas0/T2+*%
X11438207Y-7549992D02*
X9220000Y-9768199D01*
X45925545Y-8494455D02*
X45925545Y-8423744D01*
X17203385Y-7325000D02*
X16978393Y-7549992D01*
X45925545Y-8423744D02*
X44826801Y-7325000D01*
X44826801Y-7325000D02*
X17203385Y-7325000D01*
X9220000Y-9768199D02*
X9220000Y-10200000D01*
X16978393Y-7549992D02*
X11438207Y-7549992D01*
%TO.N,/sas0/T1-*%
X12787199Y-15185001D02*
X12527198Y-14925000D01*
X7505001Y-15185001D02*
X5255001Y-12935001D01*
X16327198Y-14925000D02*
X13512802Y-14925000D01*
X13252801Y-15185001D02*
X12787199Y-15185001D01*
X16587199Y-15185001D02*
X16327198Y-14925000D01*
X13512802Y-14925000D02*
X13252801Y-15185001D01*
X17312802Y-14925000D02*
X17052801Y-15185001D01*
X35331398Y-14925000D02*
X17312802Y-14925000D01*
X12527198Y-14925000D02*
X9712802Y-14925000D01*
X41575546Y-8680852D02*
X35331398Y-14925000D01*
X5187199Y-12935001D02*
X4934999Y-12682801D01*
X4934999Y-12682801D02*
X4934999Y-12614999D01*
X4934999Y-12614999D02*
X4020000Y-11700000D01*
X9712802Y-14925000D02*
X9452801Y-15185001D01*
X41514455Y-8105545D02*
X41514455Y-8217363D01*
X5255001Y-12935001D02*
X5187199Y-12935001D01*
X9452801Y-15185001D02*
X7505001Y-15185001D01*
X17052801Y-15185001D02*
X16587199Y-15185001D01*
X41514455Y-8217363D02*
X41575546Y-8278454D01*
X41575546Y-8278454D02*
X41575546Y-8680852D01*
%TO.N,/sas0/T1+*%
X9712802Y-14475000D02*
X9452801Y-14214999D01*
X16587199Y-14214999D02*
X16327198Y-14475000D01*
X17312802Y-14475000D02*
X17052801Y-14214999D01*
X17052801Y-14214999D02*
X16587199Y-14214999D01*
X13512802Y-14475000D02*
X13252801Y-14214999D01*
X13252801Y-14214999D02*
X12787199Y-14214999D01*
X8727198Y-14475000D02*
X7431397Y-14475000D01*
X35145000Y-14475000D02*
X17312802Y-14475000D01*
X5420000Y-12463603D02*
X5420000Y-12450000D01*
X12787199Y-14214999D02*
X12527198Y-14475000D01*
X16327198Y-14475000D02*
X13512802Y-14475000D01*
X12527198Y-14475000D02*
X9712802Y-14475000D01*
X41125545Y-8494455D02*
X35145000Y-14475000D01*
X9452801Y-14214999D02*
X8987199Y-14214999D01*
X7431397Y-14475000D02*
X5420000Y-12463603D01*
X8987199Y-14214999D02*
X8727198Y-14475000D01*
%TO.N,/sas0/T0-*%
X9520000Y-11700000D02*
X7820000Y-11700000D01*
X16137802Y-11700000D02*
X15652801Y-11214999D01*
X28714455Y-8105545D02*
X28602637Y-8105545D01*
X28139147Y-8044454D02*
X25673593Y-10510008D01*
X17405807Y-10510008D02*
X16215815Y-11700000D01*
X28602637Y-8105545D02*
X28541546Y-8044454D01*
X13739202Y-11214999D02*
X13439193Y-11515008D01*
X25673593Y-10510008D02*
X17405807Y-10510008D01*
X28541546Y-8044454D02*
X28139147Y-8044454D01*
X15652801Y-11214999D02*
X13739202Y-11214999D01*
X11387199Y-11214999D02*
X10902198Y-11700000D01*
X10902198Y-11700000D02*
X9520000Y-11700000D01*
X11852801Y-11214999D02*
X11387199Y-11214999D01*
X12152810Y-11515008D02*
X11852801Y-11214999D01*
X13439193Y-11515008D02*
X12152810Y-11515008D01*
X16215815Y-11700000D02*
X16137802Y-11700000D01*
%TO.N,/sas0/T0+*%
X17592199Y-10959999D02*
X16367197Y-12185001D01*
X16367197Y-12185001D02*
X13472803Y-12185001D01*
X11852801Y-12185001D02*
X11387199Y-12185001D01*
X12072803Y-11964999D02*
X11852801Y-12185001D01*
X11352198Y-12150000D02*
X9520000Y-12150000D01*
X9520000Y-12150000D02*
X9220000Y-12450000D01*
X28325545Y-8494455D02*
X25860001Y-10959999D01*
X13252801Y-11964999D02*
X12072803Y-11964999D01*
X13472803Y-12185001D02*
X13252801Y-11964999D01*
X25860001Y-10959999D02*
X17592199Y-10959999D01*
X11387199Y-12185001D02*
X11352198Y-12150000D01*
%TO.N,/sas1/T2-*%
X46243744Y-24105545D02*
X45013199Y-22875000D01*
X16792001Y-23100001D02*
X11251800Y-23100001D01*
X46314455Y-24105545D02*
X46243744Y-24105545D01*
X8901801Y-25450000D02*
X7820000Y-25450000D01*
X11251800Y-23100001D02*
X8901801Y-25450000D01*
X45013199Y-22875000D02*
X17017002Y-22875000D01*
X17017002Y-22875000D02*
X16792001Y-23100001D01*
%TO.N,/sas1/T2+*%
X11438207Y-23549992D02*
X9220000Y-25768199D01*
X45925545Y-24494455D02*
X45925545Y-24423744D01*
X17203385Y-23325000D02*
X16978393Y-23549992D01*
X45925545Y-24423744D02*
X44826801Y-23325000D01*
X44826801Y-23325000D02*
X17203385Y-23325000D01*
X9220000Y-25768199D02*
X9220000Y-26200000D01*
X16978393Y-23549992D02*
X11438207Y-23549992D01*
%TO.N,/sas1/T1-*%
X12787199Y-31185001D02*
X12527198Y-30925000D01*
X7505001Y-31185001D02*
X5255001Y-28935001D01*
X16327198Y-30925000D02*
X13512802Y-30925000D01*
X13252801Y-31185001D02*
X12787199Y-31185001D01*
X16587199Y-31185001D02*
X16327198Y-30925000D01*
X13512802Y-30925000D02*
X13252801Y-31185001D01*
X17312802Y-30925000D02*
X17052801Y-31185001D01*
X35331398Y-30925000D02*
X17312802Y-30925000D01*
X12527198Y-30925000D02*
X9712802Y-30925000D01*
X41575546Y-24680852D02*
X35331398Y-30925000D01*
X5187199Y-28935001D02*
X4934999Y-28682801D01*
X4934999Y-28682801D02*
X4934999Y-28614999D01*
X4934999Y-28614999D02*
X4020000Y-27700000D01*
X9712802Y-30925000D02*
X9452801Y-31185001D01*
X41514455Y-24105545D02*
X41514455Y-24217363D01*
X5255001Y-28935001D02*
X5187199Y-28935001D01*
X9452801Y-31185001D02*
X7505001Y-31185001D01*
X17052801Y-31185001D02*
X16587199Y-31185001D01*
X41514455Y-24217363D02*
X41575546Y-24278454D01*
X41575546Y-24278454D02*
X41575546Y-24680852D01*
%TO.N,/sas1/T1+*%
X9712802Y-30475000D02*
X9452801Y-30214999D01*
X16587199Y-30214999D02*
X16327198Y-30475000D01*
X17312802Y-30475000D02*
X17052801Y-30214999D01*
X17052801Y-30214999D02*
X16587199Y-30214999D01*
X13512802Y-30475000D02*
X13252801Y-30214999D01*
X13252801Y-30214999D02*
X12787199Y-30214999D01*
X8727198Y-30475000D02*
X7431397Y-30475000D01*
X35145000Y-30475000D02*
X17312802Y-30475000D01*
X5420000Y-28463603D02*
X5420000Y-28450000D01*
X12787199Y-30214999D02*
X12527198Y-30475000D01*
X16327198Y-30475000D02*
X13512802Y-30475000D01*
X12527198Y-30475000D02*
X9712802Y-30475000D01*
X41125545Y-24494455D02*
X35145000Y-30475000D01*
X9452801Y-30214999D02*
X8987199Y-30214999D01*
X7431397Y-30475000D02*
X5420000Y-28463603D01*
X8987199Y-30214999D02*
X8727198Y-30475000D01*
%TO.N,/sas1/T0-*%
X9520000Y-27700000D02*
X7820000Y-27700000D01*
X16137802Y-27700000D02*
X15652801Y-27214999D01*
X28714455Y-24105545D02*
X28602637Y-24105545D01*
X28139147Y-24044454D02*
X25673593Y-26510008D01*
X17405807Y-26510008D02*
X16215815Y-27700000D01*
X28602637Y-24105545D02*
X28541546Y-24044454D01*
X13739202Y-27214999D02*
X13439193Y-27515008D01*
X25673593Y-26510008D02*
X17405807Y-26510008D01*
X28541546Y-24044454D02*
X28139147Y-24044454D01*
X15652801Y-27214999D02*
X13739202Y-27214999D01*
X11387199Y-27214999D02*
X10902198Y-27700000D01*
X10902198Y-27700000D02*
X9520000Y-27700000D01*
X11852801Y-27214999D02*
X11387199Y-27214999D01*
X12152810Y-27515008D02*
X11852801Y-27214999D01*
X13439193Y-27515008D02*
X12152810Y-27515008D01*
X16215815Y-27700000D02*
X16137802Y-27700000D01*
%TO.N,/sas1/T0+*%
X17592199Y-26959999D02*
X16367197Y-28185001D01*
X16367197Y-28185001D02*
X13472803Y-28185001D01*
X11852801Y-28185001D02*
X11387199Y-28185001D01*
X12072803Y-27964999D02*
X11852801Y-28185001D01*
X11352198Y-28150000D02*
X9520000Y-28150000D01*
X9520000Y-28150000D02*
X9220000Y-28450000D01*
X28325545Y-24494455D02*
X25860001Y-26959999D01*
X13252801Y-27964999D02*
X12072803Y-27964999D01*
X13472803Y-28185001D02*
X13252801Y-27964999D01*
X25860001Y-26959999D02*
X17592199Y-26959999D01*
X11387199Y-28185001D02*
X11352198Y-28150000D01*
%TO.N,/sas2/T2-*%
X46243744Y-40105545D02*
X45013199Y-38875000D01*
X16792001Y-39100001D02*
X11251800Y-39100001D01*
X46314455Y-40105545D02*
X46243744Y-40105545D01*
X8901801Y-41450000D02*
X7820000Y-41450000D01*
X11251800Y-39100001D02*
X8901801Y-41450000D01*
X45013199Y-38875000D02*
X17017002Y-38875000D01*
X17017002Y-38875000D02*
X16792001Y-39100001D01*
%TO.N,/sas2/T2+*%
X11438207Y-39549992D02*
X9220000Y-41768199D01*
X45925545Y-40494455D02*
X45925545Y-40423744D01*
X17203385Y-39325000D02*
X16978393Y-39549992D01*
X45925545Y-40423744D02*
X44826801Y-39325000D01*
X44826801Y-39325000D02*
X17203385Y-39325000D01*
X9220000Y-41768199D02*
X9220000Y-42200000D01*
X16978393Y-39549992D02*
X11438207Y-39549992D01*
%TO.N,/sas2/T1-*%
X12787199Y-47185001D02*
X12527198Y-46925000D01*
X7505001Y-47185001D02*
X5255001Y-44935001D01*
X16327198Y-46925000D02*
X13512802Y-46925000D01*
X13252801Y-47185001D02*
X12787199Y-47185001D01*
X16587199Y-47185001D02*
X16327198Y-46925000D01*
X13512802Y-46925000D02*
X13252801Y-47185001D01*
X17312802Y-46925000D02*
X17052801Y-47185001D01*
X35331398Y-46925000D02*
X17312802Y-46925000D01*
X12527198Y-46925000D02*
X9712802Y-46925000D01*
X41575546Y-40680852D02*
X35331398Y-46925000D01*
X5187199Y-44935001D02*
X4934999Y-44682801D01*
X4934999Y-44682801D02*
X4934999Y-44614999D01*
X4934999Y-44614999D02*
X4020000Y-43700000D01*
X9712802Y-46925000D02*
X9452801Y-47185001D01*
X41514455Y-40105545D02*
X41514455Y-40217363D01*
X5255001Y-44935001D02*
X5187199Y-44935001D01*
X9452801Y-47185001D02*
X7505001Y-47185001D01*
X17052801Y-47185001D02*
X16587199Y-47185001D01*
X41514455Y-40217363D02*
X41575546Y-40278454D01*
X41575546Y-40278454D02*
X41575546Y-40680852D01*
%TO.N,/sas2/T1+*%
X9712802Y-46475000D02*
X9452801Y-46214999D01*
X16587199Y-46214999D02*
X16327198Y-46475000D01*
X17312802Y-46475000D02*
X17052801Y-46214999D01*
X17052801Y-46214999D02*
X16587199Y-46214999D01*
X13512802Y-46475000D02*
X13252801Y-46214999D01*
X13252801Y-46214999D02*
X12787199Y-46214999D01*
X8727198Y-46475000D02*
X7431397Y-46475000D01*
X35145000Y-46475000D02*
X17312802Y-46475000D01*
X5420000Y-44463603D02*
X5420000Y-44450000D01*
X12787199Y-46214999D02*
X12527198Y-46475000D01*
X16327198Y-46475000D02*
X13512802Y-46475000D01*
X12527198Y-46475000D02*
X9712802Y-46475000D01*
X41125545Y-40494455D02*
X35145000Y-46475000D01*
X9452801Y-46214999D02*
X8987199Y-46214999D01*
X7431397Y-46475000D02*
X5420000Y-44463603D01*
X8987199Y-46214999D02*
X8727198Y-46475000D01*
%TO.N,/sas2/T0-*%
X9520000Y-43700000D02*
X7820000Y-43700000D01*
X16137802Y-43700000D02*
X15652801Y-43214999D01*
X28714455Y-40105545D02*
X28602637Y-40105545D01*
X28139147Y-40044454D02*
X25673593Y-42510008D01*
X17405807Y-42510008D02*
X16215815Y-43700000D01*
X28602637Y-40105545D02*
X28541546Y-40044454D01*
X13739202Y-43214999D02*
X13439193Y-43515008D01*
X25673593Y-42510008D02*
X17405807Y-42510008D01*
X28541546Y-40044454D02*
X28139147Y-40044454D01*
X15652801Y-43214999D02*
X13739202Y-43214999D01*
X11387199Y-43214999D02*
X10902198Y-43700000D01*
X10902198Y-43700000D02*
X9520000Y-43700000D01*
X11852801Y-43214999D02*
X11387199Y-43214999D01*
X12152810Y-43515008D02*
X11852801Y-43214999D01*
X13439193Y-43515008D02*
X12152810Y-43515008D01*
X16215815Y-43700000D02*
X16137802Y-43700000D01*
%TO.N,/sas2/T0+*%
X17592199Y-42959999D02*
X16367197Y-44185001D01*
X16367197Y-44185001D02*
X13472803Y-44185001D01*
X11852801Y-44185001D02*
X11387199Y-44185001D01*
X12072803Y-43964999D02*
X11852801Y-44185001D01*
X11352198Y-44150000D02*
X9520000Y-44150000D01*
X9520000Y-44150000D02*
X9220000Y-44450000D01*
X28325545Y-40494455D02*
X25860001Y-42959999D01*
X13252801Y-43964999D02*
X12072803Y-43964999D01*
X13472803Y-44185001D02*
X13252801Y-43964999D01*
X25860001Y-42959999D02*
X17592199Y-42959999D01*
X11387199Y-44185001D02*
X11352198Y-44150000D01*
%TD*%
D19*
%TO.N,+12V*%
G36*
X71195092Y-800751D02*
X71713100Y-981140D01*
X72178266Y-1271808D01*
X72567474Y-1658308D01*
X72861386Y-2121438D01*
X73045383Y-2638164D01*
X73115001Y-3221993D01*
X73115000Y-16727612D01*
X73100601Y-16800000D01*
X73157646Y-17086783D01*
X73267161Y-17250683D01*
X73320095Y-17329905D01*
X73563217Y-17492354D01*
X73850000Y-17549399D01*
X73873000Y-17544824D01*
X73873000Y-54255176D01*
X73850000Y-54250601D01*
X73777612Y-54265000D01*
X73563217Y-54307646D01*
X73320095Y-54470095D01*
X73157646Y-54713217D01*
X73100601Y-55000000D01*
X73115000Y-55072388D01*
X73115001Y-68672388D01*
X73122947Y-68712336D01*
X73073780Y-69150669D01*
X72891548Y-69673969D01*
X72597909Y-70143890D01*
X72207451Y-70537083D01*
X71739593Y-70833995D01*
X71217576Y-71019877D01*
X70766155Y-71073706D01*
X70722388Y-71065000D01*
X53327000Y-71065000D01*
X53327000Y-67692268D01*
X59460000Y-67692268D01*
X59460000Y-68287733D01*
X59547032Y-68725271D01*
X59878561Y-69221439D01*
X60374730Y-69552968D01*
X60960000Y-69669386D01*
X61545271Y-69552968D01*
X62041439Y-69221439D01*
X62210000Y-68969169D01*
X62378561Y-69221439D01*
X62874730Y-69552968D01*
X63460000Y-69669386D01*
X64045271Y-69552968D01*
X64541439Y-69221439D01*
X64710000Y-68969169D01*
X64878561Y-69221439D01*
X65374730Y-69552968D01*
X65960000Y-69669386D01*
X66545271Y-69552968D01*
X67006894Y-69244521D01*
X67056673Y-69364698D01*
X67235301Y-69543327D01*
X67468690Y-69640000D01*
X68174250Y-69640000D01*
X68333000Y-69481250D01*
X68333000Y-68117000D01*
X68587000Y-68117000D01*
X68587000Y-69481250D01*
X68745750Y-69640000D01*
X69451310Y-69640000D01*
X69684699Y-69543327D01*
X69863327Y-69364698D01*
X69960000Y-69131309D01*
X69960000Y-68275750D01*
X69801250Y-68117000D01*
X68587000Y-68117000D01*
X68333000Y-68117000D01*
X68313000Y-68117000D01*
X68313000Y-67863000D01*
X68333000Y-67863000D01*
X68333000Y-66498750D01*
X68587000Y-66498750D01*
X68587000Y-67863000D01*
X69801250Y-67863000D01*
X69960000Y-67704250D01*
X69960000Y-66848691D01*
X69863327Y-66615302D01*
X69684699Y-66436673D01*
X69451310Y-66340000D01*
X68745750Y-66340000D01*
X68587000Y-66498750D01*
X68333000Y-66498750D01*
X68174250Y-66340000D01*
X67468690Y-66340000D01*
X67235301Y-66436673D01*
X67056673Y-66615302D01*
X67006894Y-66735479D01*
X66545270Y-66427032D01*
X65960000Y-66310614D01*
X65374729Y-66427032D01*
X64878561Y-66758561D01*
X64710000Y-67010831D01*
X64541439Y-66758561D01*
X64045270Y-66427032D01*
X63460000Y-66310614D01*
X62874729Y-66427032D01*
X62378561Y-66758561D01*
X62210000Y-67010831D01*
X62041439Y-66758561D01*
X61545270Y-66427032D01*
X60960000Y-66310614D01*
X60374729Y-66427032D01*
X59878561Y-66758561D01*
X59547032Y-67254730D01*
X59460000Y-67692268D01*
X53327000Y-67692268D01*
X53327000Y-66195711D01*
X53453720Y-66322431D01*
X53834126Y-66480000D01*
X54245874Y-66480000D01*
X54626280Y-66322431D01*
X54917431Y-66031280D01*
X55075000Y-65650874D01*
X55075000Y-65239126D01*
X54917431Y-64858720D01*
X54626280Y-64567569D01*
X54245874Y-64410000D01*
X53834126Y-64410000D01*
X53453720Y-64567569D01*
X53327000Y-64694289D01*
X53327000Y-60175105D01*
X59430000Y-60175105D01*
X59430000Y-60944895D01*
X59724586Y-61656090D01*
X60268910Y-62200414D01*
X60980105Y-62495000D01*
X61749895Y-62495000D01*
X62461090Y-62200414D01*
X63005414Y-61656090D01*
X63300000Y-60944895D01*
X63300000Y-60175105D01*
X63005414Y-59463910D01*
X62461090Y-58919586D01*
X61749895Y-58625000D01*
X60980105Y-58625000D01*
X60268910Y-58919586D01*
X59724586Y-59463910D01*
X59430000Y-60175105D01*
X53327000Y-60175105D01*
X53327000Y-57260687D01*
X53570212Y-57159946D01*
X53791036Y-56939122D01*
X53840267Y-56820267D01*
X53959122Y-56771036D01*
X54179946Y-56550212D01*
X54299455Y-56261691D01*
X54299455Y-55949399D01*
X54179946Y-55660878D01*
X53959122Y-55440054D01*
X53670601Y-55320545D01*
X53358309Y-55320545D01*
X53327000Y-55333514D01*
X53327000Y-50195711D01*
X53453720Y-50322431D01*
X53834126Y-50480000D01*
X54245874Y-50480000D01*
X54626280Y-50322431D01*
X54917431Y-50031280D01*
X55075000Y-49650874D01*
X55075000Y-49239126D01*
X54917431Y-48858720D01*
X54626280Y-48567569D01*
X54245874Y-48410000D01*
X53834126Y-48410000D01*
X53453720Y-48567569D01*
X53327000Y-48694289D01*
X53327000Y-44175105D01*
X59430000Y-44175105D01*
X59430000Y-44944895D01*
X59724586Y-45656090D01*
X60268910Y-46200414D01*
X60980105Y-46495000D01*
X61749895Y-46495000D01*
X62461090Y-46200414D01*
X63005414Y-45656090D01*
X63300000Y-44944895D01*
X63300000Y-44175105D01*
X63005414Y-43463910D01*
X62461090Y-42919586D01*
X61749895Y-42625000D01*
X60980105Y-42625000D01*
X60268910Y-42919586D01*
X59724586Y-43463910D01*
X59430000Y-44175105D01*
X53327000Y-44175105D01*
X53327000Y-41260687D01*
X53570212Y-41159946D01*
X53791036Y-40939122D01*
X53840267Y-40820267D01*
X53959122Y-40771036D01*
X54179946Y-40550212D01*
X54299455Y-40261691D01*
X54299455Y-39949399D01*
X54179946Y-39660878D01*
X53959122Y-39440054D01*
X53670601Y-39320545D01*
X53358309Y-39320545D01*
X53327000Y-39333514D01*
X53327000Y-34195711D01*
X53453720Y-34322431D01*
X53834126Y-34480000D01*
X54245874Y-34480000D01*
X54626280Y-34322431D01*
X54917431Y-34031280D01*
X55075000Y-33650874D01*
X55075000Y-33239126D01*
X54917431Y-32858720D01*
X54626280Y-32567569D01*
X54245874Y-32410000D01*
X53834126Y-32410000D01*
X53453720Y-32567569D01*
X53327000Y-32694289D01*
X53327000Y-28175105D01*
X59430000Y-28175105D01*
X59430000Y-28944895D01*
X59724586Y-29656090D01*
X60268910Y-30200414D01*
X60980105Y-30495000D01*
X61749895Y-30495000D01*
X62461090Y-30200414D01*
X63005414Y-29656090D01*
X63300000Y-28944895D01*
X63300000Y-28175105D01*
X63005414Y-27463910D01*
X62461090Y-26919586D01*
X61749895Y-26625000D01*
X60980105Y-26625000D01*
X60268910Y-26919586D01*
X59724586Y-27463910D01*
X59430000Y-28175105D01*
X53327000Y-28175105D01*
X53327000Y-25260687D01*
X53570212Y-25159946D01*
X53791036Y-24939122D01*
X53840267Y-24820267D01*
X53959122Y-24771036D01*
X54179946Y-24550212D01*
X54299455Y-24261691D01*
X54299455Y-23949399D01*
X54179946Y-23660878D01*
X53959122Y-23440054D01*
X53670601Y-23320545D01*
X53358309Y-23320545D01*
X53327000Y-23333514D01*
X53327000Y-18195711D01*
X53453720Y-18322431D01*
X53834126Y-18480000D01*
X54245874Y-18480000D01*
X54626280Y-18322431D01*
X54917431Y-18031280D01*
X55075000Y-17650874D01*
X55075000Y-17239126D01*
X54917431Y-16858720D01*
X54626280Y-16567569D01*
X54245874Y-16410000D01*
X53834126Y-16410000D01*
X53453720Y-16567569D01*
X53327000Y-16694289D01*
X53327000Y-12175105D01*
X59430000Y-12175105D01*
X59430000Y-12944895D01*
X59724586Y-13656090D01*
X60268910Y-14200414D01*
X60980105Y-14495000D01*
X61749895Y-14495000D01*
X62461090Y-14200414D01*
X63005414Y-13656090D01*
X63300000Y-12944895D01*
X63300000Y-12175105D01*
X63005414Y-11463910D01*
X62461090Y-10919586D01*
X61749895Y-10625000D01*
X60980105Y-10625000D01*
X60268910Y-10919586D01*
X59724586Y-11463910D01*
X59430000Y-12175105D01*
X53327000Y-12175105D01*
X53327000Y-9260687D01*
X53570212Y-9159946D01*
X53791036Y-8939122D01*
X53840267Y-8820267D01*
X53959122Y-8771036D01*
X54179946Y-8550212D01*
X54299455Y-8261691D01*
X54299455Y-7949399D01*
X54179946Y-7660878D01*
X53959122Y-7440054D01*
X53670601Y-7320545D01*
X53358309Y-7320545D01*
X53327000Y-7333514D01*
X53327000Y-735000D01*
X70608911Y-735000D01*
X71195092Y-800751D01*
X71195092Y-800751D01*
G37*
X71195092Y-800751D02*
X71713100Y-981140D01*
X72178266Y-1271808D01*
X72567474Y-1658308D01*
X72861386Y-2121438D01*
X73045383Y-2638164D01*
X73115001Y-3221993D01*
X73115000Y-16727612D01*
X73100601Y-16800000D01*
X73157646Y-17086783D01*
X73267161Y-17250683D01*
X73320095Y-17329905D01*
X73563217Y-17492354D01*
X73850000Y-17549399D01*
X73873000Y-17544824D01*
X73873000Y-54255176D01*
X73850000Y-54250601D01*
X73777612Y-54265000D01*
X73563217Y-54307646D01*
X73320095Y-54470095D01*
X73157646Y-54713217D01*
X73100601Y-55000000D01*
X73115000Y-55072388D01*
X73115001Y-68672388D01*
X73122947Y-68712336D01*
X73073780Y-69150669D01*
X72891548Y-69673969D01*
X72597909Y-70143890D01*
X72207451Y-70537083D01*
X71739593Y-70833995D01*
X71217576Y-71019877D01*
X70766155Y-71073706D01*
X70722388Y-71065000D01*
X53327000Y-71065000D01*
X53327000Y-67692268D01*
X59460000Y-67692268D01*
X59460000Y-68287733D01*
X59547032Y-68725271D01*
X59878561Y-69221439D01*
X60374730Y-69552968D01*
X60960000Y-69669386D01*
X61545271Y-69552968D01*
X62041439Y-69221439D01*
X62210000Y-68969169D01*
X62378561Y-69221439D01*
X62874730Y-69552968D01*
X63460000Y-69669386D01*
X64045271Y-69552968D01*
X64541439Y-69221439D01*
X64710000Y-68969169D01*
X64878561Y-69221439D01*
X65374730Y-69552968D01*
X65960000Y-69669386D01*
X66545271Y-69552968D01*
X67006894Y-69244521D01*
X67056673Y-69364698D01*
X67235301Y-69543327D01*
X67468690Y-69640000D01*
X68174250Y-69640000D01*
X68333000Y-69481250D01*
X68333000Y-68117000D01*
X68587000Y-68117000D01*
X68587000Y-69481250D01*
X68745750Y-69640000D01*
X69451310Y-69640000D01*
X69684699Y-69543327D01*
X69863327Y-69364698D01*
X69960000Y-69131309D01*
X69960000Y-68275750D01*
X69801250Y-68117000D01*
X68587000Y-68117000D01*
X68333000Y-68117000D01*
X68313000Y-68117000D01*
X68313000Y-67863000D01*
X68333000Y-67863000D01*
X68333000Y-66498750D01*
X68587000Y-66498750D01*
X68587000Y-67863000D01*
X69801250Y-67863000D01*
X69960000Y-67704250D01*
X69960000Y-66848691D01*
X69863327Y-66615302D01*
X69684699Y-66436673D01*
X69451310Y-66340000D01*
X68745750Y-66340000D01*
X68587000Y-66498750D01*
X68333000Y-66498750D01*
X68174250Y-66340000D01*
X67468690Y-66340000D01*
X67235301Y-66436673D01*
X67056673Y-66615302D01*
X67006894Y-66735479D01*
X66545270Y-66427032D01*
X65960000Y-66310614D01*
X65374729Y-66427032D01*
X64878561Y-66758561D01*
X64710000Y-67010831D01*
X64541439Y-66758561D01*
X64045270Y-66427032D01*
X63460000Y-66310614D01*
X62874729Y-66427032D01*
X62378561Y-66758561D01*
X62210000Y-67010831D01*
X62041439Y-66758561D01*
X61545270Y-66427032D01*
X60960000Y-66310614D01*
X60374729Y-66427032D01*
X59878561Y-66758561D01*
X59547032Y-67254730D01*
X59460000Y-67692268D01*
X53327000Y-67692268D01*
X53327000Y-66195711D01*
X53453720Y-66322431D01*
X53834126Y-66480000D01*
X54245874Y-66480000D01*
X54626280Y-66322431D01*
X54917431Y-66031280D01*
X55075000Y-65650874D01*
X55075000Y-65239126D01*
X54917431Y-64858720D01*
X54626280Y-64567569D01*
X54245874Y-64410000D01*
X53834126Y-64410000D01*
X53453720Y-64567569D01*
X53327000Y-64694289D01*
X53327000Y-60175105D01*
X59430000Y-60175105D01*
X59430000Y-60944895D01*
X59724586Y-61656090D01*
X60268910Y-62200414D01*
X60980105Y-62495000D01*
X61749895Y-62495000D01*
X62461090Y-62200414D01*
X63005414Y-61656090D01*
X63300000Y-60944895D01*
X63300000Y-60175105D01*
X63005414Y-59463910D01*
X62461090Y-58919586D01*
X61749895Y-58625000D01*
X60980105Y-58625000D01*
X60268910Y-58919586D01*
X59724586Y-59463910D01*
X59430000Y-60175105D01*
X53327000Y-60175105D01*
X53327000Y-57260687D01*
X53570212Y-57159946D01*
X53791036Y-56939122D01*
X53840267Y-56820267D01*
X53959122Y-56771036D01*
X54179946Y-56550212D01*
X54299455Y-56261691D01*
X54299455Y-55949399D01*
X54179946Y-55660878D01*
X53959122Y-55440054D01*
X53670601Y-55320545D01*
X53358309Y-55320545D01*
X53327000Y-55333514D01*
X53327000Y-50195711D01*
X53453720Y-50322431D01*
X53834126Y-50480000D01*
X54245874Y-50480000D01*
X54626280Y-50322431D01*
X54917431Y-50031280D01*
X55075000Y-49650874D01*
X55075000Y-49239126D01*
X54917431Y-48858720D01*
X54626280Y-48567569D01*
X54245874Y-48410000D01*
X53834126Y-48410000D01*
X53453720Y-48567569D01*
X53327000Y-48694289D01*
X53327000Y-44175105D01*
X59430000Y-44175105D01*
X59430000Y-44944895D01*
X59724586Y-45656090D01*
X60268910Y-46200414D01*
X60980105Y-46495000D01*
X61749895Y-46495000D01*
X62461090Y-46200414D01*
X63005414Y-45656090D01*
X63300000Y-44944895D01*
X63300000Y-44175105D01*
X63005414Y-43463910D01*
X62461090Y-42919586D01*
X61749895Y-42625000D01*
X60980105Y-42625000D01*
X60268910Y-42919586D01*
X59724586Y-43463910D01*
X59430000Y-44175105D01*
X53327000Y-44175105D01*
X53327000Y-41260687D01*
X53570212Y-41159946D01*
X53791036Y-40939122D01*
X53840267Y-40820267D01*
X53959122Y-40771036D01*
X54179946Y-40550212D01*
X54299455Y-40261691D01*
X54299455Y-39949399D01*
X54179946Y-39660878D01*
X53959122Y-39440054D01*
X53670601Y-39320545D01*
X53358309Y-39320545D01*
X53327000Y-39333514D01*
X53327000Y-34195711D01*
X53453720Y-34322431D01*
X53834126Y-34480000D01*
X54245874Y-34480000D01*
X54626280Y-34322431D01*
X54917431Y-34031280D01*
X55075000Y-33650874D01*
X55075000Y-33239126D01*
X54917431Y-32858720D01*
X54626280Y-32567569D01*
X54245874Y-32410000D01*
X53834126Y-32410000D01*
X53453720Y-32567569D01*
X53327000Y-32694289D01*
X53327000Y-28175105D01*
X59430000Y-28175105D01*
X59430000Y-28944895D01*
X59724586Y-29656090D01*
X60268910Y-30200414D01*
X60980105Y-30495000D01*
X61749895Y-30495000D01*
X62461090Y-30200414D01*
X63005414Y-29656090D01*
X63300000Y-28944895D01*
X63300000Y-28175105D01*
X63005414Y-27463910D01*
X62461090Y-26919586D01*
X61749895Y-26625000D01*
X60980105Y-26625000D01*
X60268910Y-26919586D01*
X59724586Y-27463910D01*
X59430000Y-28175105D01*
X53327000Y-28175105D01*
X53327000Y-25260687D01*
X53570212Y-25159946D01*
X53791036Y-24939122D01*
X53840267Y-24820267D01*
X53959122Y-24771036D01*
X54179946Y-24550212D01*
X54299455Y-24261691D01*
X54299455Y-23949399D01*
X54179946Y-23660878D01*
X53959122Y-23440054D01*
X53670601Y-23320545D01*
X53358309Y-23320545D01*
X53327000Y-23333514D01*
X53327000Y-18195711D01*
X53453720Y-18322431D01*
X53834126Y-18480000D01*
X54245874Y-18480000D01*
X54626280Y-18322431D01*
X54917431Y-18031280D01*
X55075000Y-17650874D01*
X55075000Y-17239126D01*
X54917431Y-16858720D01*
X54626280Y-16567569D01*
X54245874Y-16410000D01*
X53834126Y-16410000D01*
X53453720Y-16567569D01*
X53327000Y-16694289D01*
X53327000Y-12175105D01*
X59430000Y-12175105D01*
X59430000Y-12944895D01*
X59724586Y-13656090D01*
X60268910Y-14200414D01*
X60980105Y-14495000D01*
X61749895Y-14495000D01*
X62461090Y-14200414D01*
X63005414Y-13656090D01*
X63300000Y-12944895D01*
X63300000Y-12175105D01*
X63005414Y-11463910D01*
X62461090Y-10919586D01*
X61749895Y-10625000D01*
X60980105Y-10625000D01*
X60268910Y-10919586D01*
X59724586Y-11463910D01*
X59430000Y-12175105D01*
X53327000Y-12175105D01*
X53327000Y-9260687D01*
X53570212Y-9159946D01*
X53791036Y-8939122D01*
X53840267Y-8820267D01*
X53959122Y-8771036D01*
X54179946Y-8550212D01*
X54299455Y-8261691D01*
X54299455Y-7949399D01*
X54179946Y-7660878D01*
X53959122Y-7440054D01*
X53670601Y-7320545D01*
X53358309Y-7320545D01*
X53327000Y-7333514D01*
X53327000Y-735000D01*
X70608911Y-735000D01*
X71195092Y-800751D01*
%TO.N,+5V*%
G36*
X52273000Y-16729289D02*
X52111280Y-16567569D01*
X51730874Y-16410000D01*
X51319126Y-16410000D01*
X50938720Y-16567569D01*
X50647569Y-16858720D01*
X50490000Y-17239126D01*
X50490000Y-17650874D01*
X50647569Y-18031280D01*
X50938720Y-18322431D01*
X51319126Y-18480000D01*
X51730874Y-18480000D01*
X52111280Y-18322431D01*
X52273000Y-18160711D01*
X52273000Y-32729289D01*
X52111280Y-32567569D01*
X51730874Y-32410000D01*
X51319126Y-32410000D01*
X50938720Y-32567569D01*
X50647569Y-32858720D01*
X50490000Y-33239126D01*
X50490000Y-33650874D01*
X50647569Y-34031280D01*
X50938720Y-34322431D01*
X51319126Y-34480000D01*
X51730874Y-34480000D01*
X52111280Y-34322431D01*
X52273000Y-34160711D01*
X52273000Y-48729289D01*
X52111280Y-48567569D01*
X51730874Y-48410000D01*
X51319126Y-48410000D01*
X50938720Y-48567569D01*
X50647569Y-48858720D01*
X50490000Y-49239126D01*
X50490000Y-49650874D01*
X50647569Y-50031280D01*
X50938720Y-50322431D01*
X51319126Y-50480000D01*
X51730874Y-50480000D01*
X52111280Y-50322431D01*
X52273000Y-50160711D01*
X52273000Y-64729289D01*
X52111280Y-64567569D01*
X51730874Y-64410000D01*
X51319126Y-64410000D01*
X50938720Y-64567569D01*
X50647569Y-64858720D01*
X50490000Y-65239126D01*
X50490000Y-65650874D01*
X50647569Y-66031280D01*
X50938720Y-66322431D01*
X51319126Y-66480000D01*
X51730874Y-66480000D01*
X52111280Y-66322431D01*
X52273000Y-66160711D01*
X52273000Y-71065000D01*
X43327000Y-71065000D01*
X43327000Y-66325861D01*
X43699126Y-66480000D01*
X44110874Y-66480000D01*
X44491280Y-66322431D01*
X44540000Y-66273711D01*
X44588720Y-66322431D01*
X44969126Y-66480000D01*
X45380874Y-66480000D01*
X45761280Y-66322431D01*
X45797500Y-66286211D01*
X45833720Y-66322431D01*
X46214126Y-66480000D01*
X46625874Y-66480000D01*
X47006280Y-66322431D01*
X47297431Y-66031280D01*
X47455000Y-65650874D01*
X47455000Y-65239126D01*
X47297431Y-64858720D01*
X47006280Y-64567569D01*
X46625874Y-64410000D01*
X46214126Y-64410000D01*
X45833720Y-64567569D01*
X45797500Y-64603789D01*
X45761280Y-64567569D01*
X45380874Y-64410000D01*
X44969126Y-64410000D01*
X44588720Y-64567569D01*
X44540000Y-64616289D01*
X44491280Y-64567569D01*
X44110874Y-64410000D01*
X43699126Y-64410000D01*
X43327000Y-64564139D01*
X43327000Y-56060000D01*
X44522355Y-56060000D01*
X45160054Y-56697700D01*
X45260054Y-56939122D01*
X45480878Y-57159946D01*
X45769399Y-57279455D01*
X46081691Y-57279455D01*
X46370212Y-57159946D01*
X46591036Y-56939122D01*
X46640267Y-56820267D01*
X46759122Y-56771036D01*
X46979946Y-56550212D01*
X47067718Y-56338309D01*
X47540545Y-56338309D01*
X47540545Y-56650601D01*
X47660054Y-56939122D01*
X47880878Y-57159946D01*
X48169399Y-57279455D01*
X48481691Y-57279455D01*
X48770212Y-57159946D01*
X48991036Y-56939122D01*
X49040267Y-56820267D01*
X49159122Y-56771036D01*
X49379946Y-56550212D01*
X49499455Y-56261691D01*
X49499455Y-55949399D01*
X49379946Y-55660878D01*
X49159122Y-55440054D01*
X48870601Y-55320545D01*
X48558309Y-55320545D01*
X48269788Y-55440054D01*
X48048964Y-55660878D01*
X47999733Y-55779733D01*
X47880878Y-55828964D01*
X47660054Y-56049788D01*
X47540545Y-56338309D01*
X47067718Y-56338309D01*
X47099455Y-56261691D01*
X47099455Y-55949399D01*
X46979946Y-55660878D01*
X46759122Y-55440054D01*
X46517700Y-55340054D01*
X45584110Y-54406465D01*
X45543104Y-54345095D01*
X45299982Y-54182646D01*
X45085587Y-54140000D01*
X45085583Y-54140000D01*
X45013199Y-54125602D01*
X44940815Y-54140000D01*
X43327000Y-54140000D01*
X43327000Y-50325861D01*
X43699126Y-50480000D01*
X44110874Y-50480000D01*
X44491280Y-50322431D01*
X44540000Y-50273711D01*
X44588720Y-50322431D01*
X44969126Y-50480000D01*
X45380874Y-50480000D01*
X45761280Y-50322431D01*
X45797500Y-50286211D01*
X45833720Y-50322431D01*
X46214126Y-50480000D01*
X46625874Y-50480000D01*
X47006280Y-50322431D01*
X47297431Y-50031280D01*
X47455000Y-49650874D01*
X47455000Y-49239126D01*
X47297431Y-48858720D01*
X47006280Y-48567569D01*
X46625874Y-48410000D01*
X46214126Y-48410000D01*
X45833720Y-48567569D01*
X45797500Y-48603789D01*
X45761280Y-48567569D01*
X45380874Y-48410000D01*
X44969126Y-48410000D01*
X44588720Y-48567569D01*
X44540000Y-48616289D01*
X44491280Y-48567569D01*
X44110874Y-48410000D01*
X43699126Y-48410000D01*
X43327000Y-48564139D01*
X43327000Y-40060000D01*
X44522355Y-40060000D01*
X45160054Y-40697700D01*
X45260054Y-40939122D01*
X45480878Y-41159946D01*
X45769399Y-41279455D01*
X46081691Y-41279455D01*
X46370212Y-41159946D01*
X46591036Y-40939122D01*
X46640267Y-40820267D01*
X46759122Y-40771036D01*
X46979946Y-40550212D01*
X47067718Y-40338309D01*
X47540545Y-40338309D01*
X47540545Y-40650601D01*
X47660054Y-40939122D01*
X47880878Y-41159946D01*
X48169399Y-41279455D01*
X48481691Y-41279455D01*
X48770212Y-41159946D01*
X48991036Y-40939122D01*
X49040267Y-40820267D01*
X49159122Y-40771036D01*
X49379946Y-40550212D01*
X49499455Y-40261691D01*
X49499455Y-39949399D01*
X49379946Y-39660878D01*
X49159122Y-39440054D01*
X48870601Y-39320545D01*
X48558309Y-39320545D01*
X48269788Y-39440054D01*
X48048964Y-39660878D01*
X47999733Y-39779733D01*
X47880878Y-39828964D01*
X47660054Y-40049788D01*
X47540545Y-40338309D01*
X47067718Y-40338309D01*
X47099455Y-40261691D01*
X47099455Y-39949399D01*
X46979946Y-39660878D01*
X46759122Y-39440054D01*
X46517700Y-39340054D01*
X45584110Y-38406465D01*
X45543104Y-38345095D01*
X45299982Y-38182646D01*
X45085587Y-38140000D01*
X45085583Y-38140000D01*
X45013199Y-38125602D01*
X44940815Y-38140000D01*
X43327000Y-38140000D01*
X43327000Y-34325861D01*
X43699126Y-34480000D01*
X44110874Y-34480000D01*
X44491280Y-34322431D01*
X44540000Y-34273711D01*
X44588720Y-34322431D01*
X44969126Y-34480000D01*
X45380874Y-34480000D01*
X45761280Y-34322431D01*
X45797500Y-34286211D01*
X45833720Y-34322431D01*
X46214126Y-34480000D01*
X46625874Y-34480000D01*
X47006280Y-34322431D01*
X47297431Y-34031280D01*
X47455000Y-33650874D01*
X47455000Y-33239126D01*
X47297431Y-32858720D01*
X47006280Y-32567569D01*
X46625874Y-32410000D01*
X46214126Y-32410000D01*
X45833720Y-32567569D01*
X45797500Y-32603789D01*
X45761280Y-32567569D01*
X45380874Y-32410000D01*
X44969126Y-32410000D01*
X44588720Y-32567569D01*
X44540000Y-32616289D01*
X44491280Y-32567569D01*
X44110874Y-32410000D01*
X43699126Y-32410000D01*
X43327000Y-32564139D01*
X43327000Y-24060000D01*
X44522355Y-24060000D01*
X45160054Y-24697700D01*
X45260054Y-24939122D01*
X45480878Y-25159946D01*
X45769399Y-25279455D01*
X46081691Y-25279455D01*
X46370212Y-25159946D01*
X46591036Y-24939122D01*
X46640267Y-24820267D01*
X46759122Y-24771036D01*
X46979946Y-24550212D01*
X47067718Y-24338309D01*
X47540545Y-24338309D01*
X47540545Y-24650601D01*
X47660054Y-24939122D01*
X47880878Y-25159946D01*
X48169399Y-25279455D01*
X48481691Y-25279455D01*
X48770212Y-25159946D01*
X48991036Y-24939122D01*
X49040267Y-24820267D01*
X49159122Y-24771036D01*
X49379946Y-24550212D01*
X49499455Y-24261691D01*
X49499455Y-23949399D01*
X49379946Y-23660878D01*
X49159122Y-23440054D01*
X48870601Y-23320545D01*
X48558309Y-23320545D01*
X48269788Y-23440054D01*
X48048964Y-23660878D01*
X47999733Y-23779733D01*
X47880878Y-23828964D01*
X47660054Y-24049788D01*
X47540545Y-24338309D01*
X47067718Y-24338309D01*
X47099455Y-24261691D01*
X47099455Y-23949399D01*
X46979946Y-23660878D01*
X46759122Y-23440054D01*
X46517700Y-23340054D01*
X45584110Y-22406465D01*
X45543104Y-22345095D01*
X45299982Y-22182646D01*
X45085587Y-22140000D01*
X45085583Y-22140000D01*
X45013199Y-22125602D01*
X44940815Y-22140000D01*
X43327000Y-22140000D01*
X43327000Y-18325861D01*
X43699126Y-18480000D01*
X44110874Y-18480000D01*
X44491280Y-18322431D01*
X44540000Y-18273711D01*
X44588720Y-18322431D01*
X44969126Y-18480000D01*
X45380874Y-18480000D01*
X45761280Y-18322431D01*
X45797500Y-18286211D01*
X45833720Y-18322431D01*
X46214126Y-18480000D01*
X46625874Y-18480000D01*
X47006280Y-18322431D01*
X47297431Y-18031280D01*
X47455000Y-17650874D01*
X47455000Y-17239126D01*
X47297431Y-16858720D01*
X47006280Y-16567569D01*
X46625874Y-16410000D01*
X46214126Y-16410000D01*
X45833720Y-16567569D01*
X45797500Y-16603789D01*
X45761280Y-16567569D01*
X45380874Y-16410000D01*
X44969126Y-16410000D01*
X44588720Y-16567569D01*
X44540000Y-16616289D01*
X44491280Y-16567569D01*
X44110874Y-16410000D01*
X43699126Y-16410000D01*
X43327000Y-16564139D01*
X43327000Y-8060000D01*
X44522355Y-8060000D01*
X45160054Y-8697700D01*
X45260054Y-8939122D01*
X45480878Y-9159946D01*
X45769399Y-9279455D01*
X46081691Y-9279455D01*
X46370212Y-9159946D01*
X46591036Y-8939122D01*
X46640267Y-8820267D01*
X46759122Y-8771036D01*
X46979946Y-8550212D01*
X47067718Y-8338309D01*
X47540545Y-8338309D01*
X47540545Y-8650601D01*
X47660054Y-8939122D01*
X47880878Y-9159946D01*
X48169399Y-9279455D01*
X48481691Y-9279455D01*
X48770212Y-9159946D01*
X48991036Y-8939122D01*
X49040267Y-8820267D01*
X49159122Y-8771036D01*
X49379946Y-8550212D01*
X49499455Y-8261691D01*
X49499455Y-7949399D01*
X49379946Y-7660878D01*
X49159122Y-7440054D01*
X48870601Y-7320545D01*
X48558309Y-7320545D01*
X48269788Y-7440054D01*
X48048964Y-7660878D01*
X47999733Y-7779733D01*
X47880878Y-7828964D01*
X47660054Y-8049788D01*
X47540545Y-8338309D01*
X47067718Y-8338309D01*
X47099455Y-8261691D01*
X47099455Y-7949399D01*
X46979946Y-7660878D01*
X46759122Y-7440054D01*
X46517700Y-7340054D01*
X45584110Y-6406465D01*
X45543104Y-6345095D01*
X45299982Y-6182646D01*
X45085587Y-6140000D01*
X45085583Y-6140000D01*
X45013199Y-6125602D01*
X44940815Y-6140000D01*
X43327000Y-6140000D01*
X43327000Y-735000D01*
X52273000Y-735000D01*
X52273000Y-16729289D01*
X52273000Y-16729289D01*
G37*
X52273000Y-16729289D02*
X52111280Y-16567569D01*
X51730874Y-16410000D01*
X51319126Y-16410000D01*
X50938720Y-16567569D01*
X50647569Y-16858720D01*
X50490000Y-17239126D01*
X50490000Y-17650874D01*
X50647569Y-18031280D01*
X50938720Y-18322431D01*
X51319126Y-18480000D01*
X51730874Y-18480000D01*
X52111280Y-18322431D01*
X52273000Y-18160711D01*
X52273000Y-32729289D01*
X52111280Y-32567569D01*
X51730874Y-32410000D01*
X51319126Y-32410000D01*
X50938720Y-32567569D01*
X50647569Y-32858720D01*
X50490000Y-33239126D01*
X50490000Y-33650874D01*
X50647569Y-34031280D01*
X50938720Y-34322431D01*
X51319126Y-34480000D01*
X51730874Y-34480000D01*
X52111280Y-34322431D01*
X52273000Y-34160711D01*
X52273000Y-48729289D01*
X52111280Y-48567569D01*
X51730874Y-48410000D01*
X51319126Y-48410000D01*
X50938720Y-48567569D01*
X50647569Y-48858720D01*
X50490000Y-49239126D01*
X50490000Y-49650874D01*
X50647569Y-50031280D01*
X50938720Y-50322431D01*
X51319126Y-50480000D01*
X51730874Y-50480000D01*
X52111280Y-50322431D01*
X52273000Y-50160711D01*
X52273000Y-64729289D01*
X52111280Y-64567569D01*
X51730874Y-64410000D01*
X51319126Y-64410000D01*
X50938720Y-64567569D01*
X50647569Y-64858720D01*
X50490000Y-65239126D01*
X50490000Y-65650874D01*
X50647569Y-66031280D01*
X50938720Y-66322431D01*
X51319126Y-66480000D01*
X51730874Y-66480000D01*
X52111280Y-66322431D01*
X52273000Y-66160711D01*
X52273000Y-71065000D01*
X43327000Y-71065000D01*
X43327000Y-66325861D01*
X43699126Y-66480000D01*
X44110874Y-66480000D01*
X44491280Y-66322431D01*
X44540000Y-66273711D01*
X44588720Y-66322431D01*
X44969126Y-66480000D01*
X45380874Y-66480000D01*
X45761280Y-66322431D01*
X45797500Y-66286211D01*
X45833720Y-66322431D01*
X46214126Y-66480000D01*
X46625874Y-66480000D01*
X47006280Y-66322431D01*
X47297431Y-66031280D01*
X47455000Y-65650874D01*
X47455000Y-65239126D01*
X47297431Y-64858720D01*
X47006280Y-64567569D01*
X46625874Y-64410000D01*
X46214126Y-64410000D01*
X45833720Y-64567569D01*
X45797500Y-64603789D01*
X45761280Y-64567569D01*
X45380874Y-64410000D01*
X44969126Y-64410000D01*
X44588720Y-64567569D01*
X44540000Y-64616289D01*
X44491280Y-64567569D01*
X44110874Y-64410000D01*
X43699126Y-64410000D01*
X43327000Y-64564139D01*
X43327000Y-56060000D01*
X44522355Y-56060000D01*
X45160054Y-56697700D01*
X45260054Y-56939122D01*
X45480878Y-57159946D01*
X45769399Y-57279455D01*
X46081691Y-57279455D01*
X46370212Y-57159946D01*
X46591036Y-56939122D01*
X46640267Y-56820267D01*
X46759122Y-56771036D01*
X46979946Y-56550212D01*
X47067718Y-56338309D01*
X47540545Y-56338309D01*
X47540545Y-56650601D01*
X47660054Y-56939122D01*
X47880878Y-57159946D01*
X48169399Y-57279455D01*
X48481691Y-57279455D01*
X48770212Y-57159946D01*
X48991036Y-56939122D01*
X49040267Y-56820267D01*
X49159122Y-56771036D01*
X49379946Y-56550212D01*
X49499455Y-56261691D01*
X49499455Y-55949399D01*
X49379946Y-55660878D01*
X49159122Y-55440054D01*
X48870601Y-55320545D01*
X48558309Y-55320545D01*
X48269788Y-55440054D01*
X48048964Y-55660878D01*
X47999733Y-55779733D01*
X47880878Y-55828964D01*
X47660054Y-56049788D01*
X47540545Y-56338309D01*
X47067718Y-56338309D01*
X47099455Y-56261691D01*
X47099455Y-55949399D01*
X46979946Y-55660878D01*
X46759122Y-55440054D01*
X46517700Y-55340054D01*
X45584110Y-54406465D01*
X45543104Y-54345095D01*
X45299982Y-54182646D01*
X45085587Y-54140000D01*
X45085583Y-54140000D01*
X45013199Y-54125602D01*
X44940815Y-54140000D01*
X43327000Y-54140000D01*
X43327000Y-50325861D01*
X43699126Y-50480000D01*
X44110874Y-50480000D01*
X44491280Y-50322431D01*
X44540000Y-50273711D01*
X44588720Y-50322431D01*
X44969126Y-50480000D01*
X45380874Y-50480000D01*
X45761280Y-50322431D01*
X45797500Y-50286211D01*
X45833720Y-50322431D01*
X46214126Y-50480000D01*
X46625874Y-50480000D01*
X47006280Y-50322431D01*
X47297431Y-50031280D01*
X47455000Y-49650874D01*
X47455000Y-49239126D01*
X47297431Y-48858720D01*
X47006280Y-48567569D01*
X46625874Y-48410000D01*
X46214126Y-48410000D01*
X45833720Y-48567569D01*
X45797500Y-48603789D01*
X45761280Y-48567569D01*
X45380874Y-48410000D01*
X44969126Y-48410000D01*
X44588720Y-48567569D01*
X44540000Y-48616289D01*
X44491280Y-48567569D01*
X44110874Y-48410000D01*
X43699126Y-48410000D01*
X43327000Y-48564139D01*
X43327000Y-40060000D01*
X44522355Y-40060000D01*
X45160054Y-40697700D01*
X45260054Y-40939122D01*
X45480878Y-41159946D01*
X45769399Y-41279455D01*
X46081691Y-41279455D01*
X46370212Y-41159946D01*
X46591036Y-40939122D01*
X46640267Y-40820267D01*
X46759122Y-40771036D01*
X46979946Y-40550212D01*
X47067718Y-40338309D01*
X47540545Y-40338309D01*
X47540545Y-40650601D01*
X47660054Y-40939122D01*
X47880878Y-41159946D01*
X48169399Y-41279455D01*
X48481691Y-41279455D01*
X48770212Y-41159946D01*
X48991036Y-40939122D01*
X49040267Y-40820267D01*
X49159122Y-40771036D01*
X49379946Y-40550212D01*
X49499455Y-40261691D01*
X49499455Y-39949399D01*
X49379946Y-39660878D01*
X49159122Y-39440054D01*
X48870601Y-39320545D01*
X48558309Y-39320545D01*
X48269788Y-39440054D01*
X48048964Y-39660878D01*
X47999733Y-39779733D01*
X47880878Y-39828964D01*
X47660054Y-40049788D01*
X47540545Y-40338309D01*
X47067718Y-40338309D01*
X47099455Y-40261691D01*
X47099455Y-39949399D01*
X46979946Y-39660878D01*
X46759122Y-39440054D01*
X46517700Y-39340054D01*
X45584110Y-38406465D01*
X45543104Y-38345095D01*
X45299982Y-38182646D01*
X45085587Y-38140000D01*
X45085583Y-38140000D01*
X45013199Y-38125602D01*
X44940815Y-38140000D01*
X43327000Y-38140000D01*
X43327000Y-34325861D01*
X43699126Y-34480000D01*
X44110874Y-34480000D01*
X44491280Y-34322431D01*
X44540000Y-34273711D01*
X44588720Y-34322431D01*
X44969126Y-34480000D01*
X45380874Y-34480000D01*
X45761280Y-34322431D01*
X45797500Y-34286211D01*
X45833720Y-34322431D01*
X46214126Y-34480000D01*
X46625874Y-34480000D01*
X47006280Y-34322431D01*
X47297431Y-34031280D01*
X47455000Y-33650874D01*
X47455000Y-33239126D01*
X47297431Y-32858720D01*
X47006280Y-32567569D01*
X46625874Y-32410000D01*
X46214126Y-32410000D01*
X45833720Y-32567569D01*
X45797500Y-32603789D01*
X45761280Y-32567569D01*
X45380874Y-32410000D01*
X44969126Y-32410000D01*
X44588720Y-32567569D01*
X44540000Y-32616289D01*
X44491280Y-32567569D01*
X44110874Y-32410000D01*
X43699126Y-32410000D01*
X43327000Y-32564139D01*
X43327000Y-24060000D01*
X44522355Y-24060000D01*
X45160054Y-24697700D01*
X45260054Y-24939122D01*
X45480878Y-25159946D01*
X45769399Y-25279455D01*
X46081691Y-25279455D01*
X46370212Y-25159946D01*
X46591036Y-24939122D01*
X46640267Y-24820267D01*
X46759122Y-24771036D01*
X46979946Y-24550212D01*
X47067718Y-24338309D01*
X47540545Y-24338309D01*
X47540545Y-24650601D01*
X47660054Y-24939122D01*
X47880878Y-25159946D01*
X48169399Y-25279455D01*
X48481691Y-25279455D01*
X48770212Y-25159946D01*
X48991036Y-24939122D01*
X49040267Y-24820267D01*
X49159122Y-24771036D01*
X49379946Y-24550212D01*
X49499455Y-24261691D01*
X49499455Y-23949399D01*
X49379946Y-23660878D01*
X49159122Y-23440054D01*
X48870601Y-23320545D01*
X48558309Y-23320545D01*
X48269788Y-23440054D01*
X48048964Y-23660878D01*
X47999733Y-23779733D01*
X47880878Y-23828964D01*
X47660054Y-24049788D01*
X47540545Y-24338309D01*
X47067718Y-24338309D01*
X47099455Y-24261691D01*
X47099455Y-23949399D01*
X46979946Y-23660878D01*
X46759122Y-23440054D01*
X46517700Y-23340054D01*
X45584110Y-22406465D01*
X45543104Y-22345095D01*
X45299982Y-22182646D01*
X45085587Y-22140000D01*
X45085583Y-22140000D01*
X45013199Y-22125602D01*
X44940815Y-22140000D01*
X43327000Y-22140000D01*
X43327000Y-18325861D01*
X43699126Y-18480000D01*
X44110874Y-18480000D01*
X44491280Y-18322431D01*
X44540000Y-18273711D01*
X44588720Y-18322431D01*
X44969126Y-18480000D01*
X45380874Y-18480000D01*
X45761280Y-18322431D01*
X45797500Y-18286211D01*
X45833720Y-18322431D01*
X46214126Y-18480000D01*
X46625874Y-18480000D01*
X47006280Y-18322431D01*
X47297431Y-18031280D01*
X47455000Y-17650874D01*
X47455000Y-17239126D01*
X47297431Y-16858720D01*
X47006280Y-16567569D01*
X46625874Y-16410000D01*
X46214126Y-16410000D01*
X45833720Y-16567569D01*
X45797500Y-16603789D01*
X45761280Y-16567569D01*
X45380874Y-16410000D01*
X44969126Y-16410000D01*
X44588720Y-16567569D01*
X44540000Y-16616289D01*
X44491280Y-16567569D01*
X44110874Y-16410000D01*
X43699126Y-16410000D01*
X43327000Y-16564139D01*
X43327000Y-8060000D01*
X44522355Y-8060000D01*
X45160054Y-8697700D01*
X45260054Y-8939122D01*
X45480878Y-9159946D01*
X45769399Y-9279455D01*
X46081691Y-9279455D01*
X46370212Y-9159946D01*
X46591036Y-8939122D01*
X46640267Y-8820267D01*
X46759122Y-8771036D01*
X46979946Y-8550212D01*
X47067718Y-8338309D01*
X47540545Y-8338309D01*
X47540545Y-8650601D01*
X47660054Y-8939122D01*
X47880878Y-9159946D01*
X48169399Y-9279455D01*
X48481691Y-9279455D01*
X48770212Y-9159946D01*
X48991036Y-8939122D01*
X49040267Y-8820267D01*
X49159122Y-8771036D01*
X49379946Y-8550212D01*
X49499455Y-8261691D01*
X49499455Y-7949399D01*
X49379946Y-7660878D01*
X49159122Y-7440054D01*
X48870601Y-7320545D01*
X48558309Y-7320545D01*
X48269788Y-7440054D01*
X48048964Y-7660878D01*
X47999733Y-7779733D01*
X47880878Y-7828964D01*
X47660054Y-8049788D01*
X47540545Y-8338309D01*
X47067718Y-8338309D01*
X47099455Y-8261691D01*
X47099455Y-7949399D01*
X46979946Y-7660878D01*
X46759122Y-7440054D01*
X46517700Y-7340054D01*
X45584110Y-6406465D01*
X45543104Y-6345095D01*
X45299982Y-6182646D01*
X45085587Y-6140000D01*
X45085583Y-6140000D01*
X45013199Y-6125602D01*
X44940815Y-6140000D01*
X43327000Y-6140000D01*
X43327000Y-735000D01*
X52273000Y-735000D01*
X52273000Y-16729289D01*
%TO.N,GND*%
G36*
X42273000Y-6140000D02*
X17815697Y-6140000D01*
X17855000Y-6045113D01*
X17855000Y-5354887D01*
X17590862Y-4717201D01*
X17102799Y-4229138D01*
X16465113Y-3965000D01*
X15774887Y-3965000D01*
X15137201Y-4229138D01*
X14649138Y-4717201D01*
X14385000Y-5354887D01*
X14385000Y-6045113D01*
X14517502Y-6365001D01*
X11324183Y-6365001D01*
X11251799Y-6350603D01*
X11179415Y-6365001D01*
X11179412Y-6365001D01*
X10965017Y-6407647D01*
X10721895Y-6570096D01*
X10680891Y-6631464D01*
X8597355Y-8715000D01*
X8374185Y-8715000D01*
X8389185Y-8700000D01*
X7980146Y-8290961D01*
X7793391Y-8286425D01*
X7690432Y-8595968D01*
X7692873Y-8630000D01*
X7656892Y-8630000D01*
X7355507Y-8754837D01*
X7124837Y-8985507D01*
X7000000Y-9286892D01*
X7000000Y-9613108D01*
X7124837Y-9914493D01*
X7355507Y-10145163D01*
X7656892Y-10270000D01*
X7983108Y-10270000D01*
X8188317Y-10185000D01*
X8199109Y-10185000D01*
X8106425Y-10223391D01*
X8110961Y-10410146D01*
X8520000Y-10819185D01*
X8558538Y-10780648D01*
X8689353Y-10911463D01*
X8650815Y-10950000D01*
X8665815Y-10965000D01*
X8374185Y-10965000D01*
X8389185Y-10950000D01*
X7980146Y-10540961D01*
X7793391Y-10536425D01*
X7690432Y-10845968D01*
X7692873Y-10880000D01*
X7656892Y-10880000D01*
X7355507Y-11004837D01*
X7124837Y-11235507D01*
X7000000Y-11536892D01*
X7000000Y-11863108D01*
X7124837Y-12164493D01*
X7355507Y-12395163D01*
X7656892Y-12520000D01*
X7983108Y-12520000D01*
X8188317Y-12435000D01*
X8199109Y-12435000D01*
X8106425Y-12473391D01*
X8110961Y-12660146D01*
X8520000Y-13069185D01*
X8558538Y-13030648D01*
X8689353Y-13161463D01*
X8650815Y-13200000D01*
X8689353Y-13238538D01*
X8558538Y-13369353D01*
X8520000Y-13330815D01*
X8481463Y-13369353D01*
X8350648Y-13238538D01*
X8389185Y-13200000D01*
X7980146Y-12790961D01*
X7793391Y-12786425D01*
X7690432Y-13095968D01*
X7692873Y-13130000D01*
X7656892Y-13130000D01*
X7355507Y-13254837D01*
X7303094Y-13307250D01*
X6209782Y-12213939D01*
X6115163Y-11985507D01*
X5884493Y-11754837D01*
X5583108Y-11630000D01*
X5256892Y-11630000D01*
X5067779Y-11708333D01*
X5064618Y-11705172D01*
X5133575Y-11676609D01*
X5129039Y-11489854D01*
X4720000Y-11080815D01*
X4681463Y-11119353D01*
X4550648Y-10988538D01*
X4589185Y-10950000D01*
X4180146Y-10540961D01*
X3993391Y-10536425D01*
X3890432Y-10845968D01*
X3892873Y-10880000D01*
X3856892Y-10880000D01*
X3555507Y-11004837D01*
X3324837Y-11235507D01*
X3200000Y-11536892D01*
X3200000Y-11863108D01*
X3324837Y-12164493D01*
X3555507Y-12395163D01*
X3760717Y-12480163D01*
X4068810Y-12788257D01*
X3993391Y-12786425D01*
X3890432Y-13095968D01*
X3892873Y-13130000D01*
X3856892Y-13130000D01*
X3555507Y-13254837D01*
X3324837Y-13485507D01*
X3200000Y-13786892D01*
X3200000Y-14113108D01*
X3324837Y-14414493D01*
X3555507Y-14645163D01*
X3856892Y-14770000D01*
X4183108Y-14770000D01*
X4484493Y-14645163D01*
X4605117Y-14524539D01*
X4600000Y-14536892D01*
X4600000Y-14863108D01*
X4724837Y-15164493D01*
X4955507Y-15395163D01*
X5256892Y-15520000D01*
X5583108Y-15520000D01*
X5884493Y-15395163D01*
X6115163Y-15164493D01*
X6211783Y-14931230D01*
X6934091Y-15653538D01*
X6975096Y-15714906D01*
X7218218Y-15877355D01*
X7432613Y-15920001D01*
X7505001Y-15934400D01*
X7577389Y-15920001D01*
X9380417Y-15920001D01*
X9452801Y-15934399D01*
X9525185Y-15920001D01*
X9525189Y-15920001D01*
X9739584Y-15877355D01*
X9982706Y-15714906D01*
X10019393Y-15660000D01*
X12220607Y-15660000D01*
X12257294Y-15714906D01*
X12500416Y-15877355D01*
X12714811Y-15920001D01*
X12714815Y-15920001D01*
X12787199Y-15934399D01*
X12859583Y-15920001D01*
X13180417Y-15920001D01*
X13252801Y-15934399D01*
X13325185Y-15920001D01*
X13325189Y-15920001D01*
X13539584Y-15877355D01*
X13782706Y-15714906D01*
X13819393Y-15660000D01*
X16020607Y-15660000D01*
X16057294Y-15714906D01*
X16300416Y-15877355D01*
X16514811Y-15920001D01*
X16514815Y-15920001D01*
X16587199Y-15934399D01*
X16659583Y-15920001D01*
X16980417Y-15920001D01*
X17052801Y-15934399D01*
X17125185Y-15920001D01*
X17125189Y-15920001D01*
X17339584Y-15877355D01*
X17582706Y-15714906D01*
X17619393Y-15660000D01*
X35259014Y-15660000D01*
X35331398Y-15674398D01*
X35403782Y-15660000D01*
X35403786Y-15660000D01*
X35618181Y-15617354D01*
X35861303Y-15454905D01*
X35902309Y-15393535D01*
X42044084Y-9251761D01*
X42105451Y-9210757D01*
X42267900Y-8967635D01*
X42273000Y-8941996D01*
X42273000Y-22140000D01*
X17815697Y-22140000D01*
X17855000Y-22045113D01*
X17855000Y-21354887D01*
X17590862Y-20717201D01*
X17102799Y-20229138D01*
X16465113Y-19965000D01*
X15774887Y-19965000D01*
X15137201Y-20229138D01*
X14649138Y-20717201D01*
X14385000Y-21354887D01*
X14385000Y-22045113D01*
X14517502Y-22365001D01*
X11324183Y-22365001D01*
X11251799Y-22350603D01*
X11179415Y-22365001D01*
X11179412Y-22365001D01*
X10965017Y-22407647D01*
X10721895Y-22570096D01*
X10680891Y-22631464D01*
X8597355Y-24715000D01*
X8374185Y-24715000D01*
X8389185Y-24700000D01*
X7980146Y-24290961D01*
X7793391Y-24286425D01*
X7690432Y-24595968D01*
X7692873Y-24630000D01*
X7656892Y-24630000D01*
X7355507Y-24754837D01*
X7124837Y-24985507D01*
X7000000Y-25286892D01*
X7000000Y-25613108D01*
X7124837Y-25914493D01*
X7355507Y-26145163D01*
X7656892Y-26270000D01*
X7983108Y-26270000D01*
X8188317Y-26185000D01*
X8199109Y-26185000D01*
X8106425Y-26223391D01*
X8110961Y-26410146D01*
X8520000Y-26819185D01*
X8558538Y-26780648D01*
X8689353Y-26911463D01*
X8650815Y-26950000D01*
X8665815Y-26965000D01*
X8374185Y-26965000D01*
X8389185Y-26950000D01*
X7980146Y-26540961D01*
X7793391Y-26536425D01*
X7690432Y-26845968D01*
X7692873Y-26880000D01*
X7656892Y-26880000D01*
X7355507Y-27004837D01*
X7124837Y-27235507D01*
X7000000Y-27536892D01*
X7000000Y-27863108D01*
X7124837Y-28164493D01*
X7355507Y-28395163D01*
X7656892Y-28520000D01*
X7983108Y-28520000D01*
X8188317Y-28435000D01*
X8199109Y-28435000D01*
X8106425Y-28473391D01*
X8110961Y-28660146D01*
X8520000Y-29069185D01*
X8558538Y-29030648D01*
X8689353Y-29161463D01*
X8650815Y-29200000D01*
X8689353Y-29238538D01*
X8558538Y-29369353D01*
X8520000Y-29330815D01*
X8481463Y-29369353D01*
X8350648Y-29238538D01*
X8389185Y-29200000D01*
X7980146Y-28790961D01*
X7793391Y-28786425D01*
X7690432Y-29095968D01*
X7692873Y-29130000D01*
X7656892Y-29130000D01*
X7355507Y-29254837D01*
X7303094Y-29307250D01*
X6209782Y-28213939D01*
X6115163Y-27985507D01*
X5884493Y-27754837D01*
X5583108Y-27630000D01*
X5256892Y-27630000D01*
X5067779Y-27708333D01*
X5064618Y-27705172D01*
X5133575Y-27676609D01*
X5129039Y-27489854D01*
X4720000Y-27080815D01*
X4681463Y-27119353D01*
X4550648Y-26988538D01*
X4589185Y-26950000D01*
X4180146Y-26540961D01*
X3993391Y-26536425D01*
X3890432Y-26845968D01*
X3892873Y-26880000D01*
X3856892Y-26880000D01*
X3555507Y-27004837D01*
X3324837Y-27235507D01*
X3200000Y-27536892D01*
X3200000Y-27863108D01*
X3324837Y-28164493D01*
X3555507Y-28395163D01*
X3760717Y-28480163D01*
X4068810Y-28788257D01*
X3993391Y-28786425D01*
X3890432Y-29095968D01*
X3892873Y-29130000D01*
X3856892Y-29130000D01*
X3555507Y-29254837D01*
X3324837Y-29485507D01*
X3200000Y-29786892D01*
X3200000Y-30113108D01*
X3324837Y-30414493D01*
X3555507Y-30645163D01*
X3856892Y-30770000D01*
X4183108Y-30770000D01*
X4484493Y-30645163D01*
X4605117Y-30524539D01*
X4600000Y-30536892D01*
X4600000Y-30863108D01*
X4724837Y-31164493D01*
X4955507Y-31395163D01*
X5256892Y-31520000D01*
X5583108Y-31520000D01*
X5884493Y-31395163D01*
X6115163Y-31164493D01*
X6211783Y-30931230D01*
X6934091Y-31653538D01*
X6975096Y-31714906D01*
X7218218Y-31877355D01*
X7432613Y-31920001D01*
X7505001Y-31934400D01*
X7577389Y-31920001D01*
X9380417Y-31920001D01*
X9452801Y-31934399D01*
X9525185Y-31920001D01*
X9525189Y-31920001D01*
X9739584Y-31877355D01*
X9982706Y-31714906D01*
X10019393Y-31660000D01*
X12220607Y-31660000D01*
X12257294Y-31714906D01*
X12500416Y-31877355D01*
X12714811Y-31920001D01*
X12714815Y-31920001D01*
X12787199Y-31934399D01*
X12859583Y-31920001D01*
X13180417Y-31920001D01*
X13252801Y-31934399D01*
X13325185Y-31920001D01*
X13325189Y-31920001D01*
X13539584Y-31877355D01*
X13782706Y-31714906D01*
X13819393Y-31660000D01*
X16020607Y-31660000D01*
X16057294Y-31714906D01*
X16300416Y-31877355D01*
X16514811Y-31920001D01*
X16514815Y-31920001D01*
X16587199Y-31934399D01*
X16659583Y-31920001D01*
X16980417Y-31920001D01*
X17052801Y-31934399D01*
X17125185Y-31920001D01*
X17125189Y-31920001D01*
X17339584Y-31877355D01*
X17582706Y-31714906D01*
X17619393Y-31660000D01*
X35259014Y-31660000D01*
X35331398Y-31674398D01*
X35403782Y-31660000D01*
X35403786Y-31660000D01*
X35618181Y-31617354D01*
X35861303Y-31454905D01*
X35902309Y-31393535D01*
X42044084Y-25251761D01*
X42105451Y-25210757D01*
X42267900Y-24967635D01*
X42273000Y-24941996D01*
X42273000Y-38140000D01*
X17815697Y-38140000D01*
X17855000Y-38045113D01*
X17855000Y-37354887D01*
X17590862Y-36717201D01*
X17102799Y-36229138D01*
X16465113Y-35965000D01*
X15774887Y-35965000D01*
X15137201Y-36229138D01*
X14649138Y-36717201D01*
X14385000Y-37354887D01*
X14385000Y-38045113D01*
X14517502Y-38365001D01*
X11324183Y-38365001D01*
X11251799Y-38350603D01*
X11179415Y-38365001D01*
X11179412Y-38365001D01*
X10965017Y-38407647D01*
X10721895Y-38570096D01*
X10680891Y-38631464D01*
X8597355Y-40715000D01*
X8374185Y-40715000D01*
X8389185Y-40700000D01*
X7980146Y-40290961D01*
X7793391Y-40286425D01*
X7690432Y-40595968D01*
X7692873Y-40630000D01*
X7656892Y-40630000D01*
X7355507Y-40754837D01*
X7124837Y-40985507D01*
X7000000Y-41286892D01*
X7000000Y-41613108D01*
X7124837Y-41914493D01*
X7355507Y-42145163D01*
X7656892Y-42270000D01*
X7983108Y-42270000D01*
X8188317Y-42185000D01*
X8199109Y-42185000D01*
X8106425Y-42223391D01*
X8110961Y-42410146D01*
X8520000Y-42819185D01*
X8558538Y-42780648D01*
X8689353Y-42911463D01*
X8650815Y-42950000D01*
X8665815Y-42965000D01*
X8374185Y-42965000D01*
X8389185Y-42950000D01*
X7980146Y-42540961D01*
X7793391Y-42536425D01*
X7690432Y-42845968D01*
X7692873Y-42880000D01*
X7656892Y-42880000D01*
X7355507Y-43004837D01*
X7124837Y-43235507D01*
X7000000Y-43536892D01*
X7000000Y-43863108D01*
X7124837Y-44164493D01*
X7355507Y-44395163D01*
X7656892Y-44520000D01*
X7983108Y-44520000D01*
X8188317Y-44435000D01*
X8199109Y-44435000D01*
X8106425Y-44473391D01*
X8110961Y-44660146D01*
X8520000Y-45069185D01*
X8558538Y-45030648D01*
X8689353Y-45161463D01*
X8650815Y-45200000D01*
X8689353Y-45238538D01*
X8558538Y-45369353D01*
X8520000Y-45330815D01*
X8481463Y-45369353D01*
X8350648Y-45238538D01*
X8389185Y-45200000D01*
X7980146Y-44790961D01*
X7793391Y-44786425D01*
X7690432Y-45095968D01*
X7692873Y-45130000D01*
X7656892Y-45130000D01*
X7355507Y-45254837D01*
X7303094Y-45307250D01*
X6209782Y-44213939D01*
X6115163Y-43985507D01*
X5884493Y-43754837D01*
X5583108Y-43630000D01*
X5256892Y-43630000D01*
X5067779Y-43708333D01*
X5064618Y-43705172D01*
X5133575Y-43676609D01*
X5129039Y-43489854D01*
X4720000Y-43080815D01*
X4681463Y-43119353D01*
X4550648Y-42988538D01*
X4589185Y-42950000D01*
X4180146Y-42540961D01*
X3993391Y-42536425D01*
X3890432Y-42845968D01*
X3892873Y-42880000D01*
X3856892Y-42880000D01*
X3555507Y-43004837D01*
X3324837Y-43235507D01*
X3200000Y-43536892D01*
X3200000Y-43863108D01*
X3324837Y-44164493D01*
X3555507Y-44395163D01*
X3760717Y-44480163D01*
X4068810Y-44788257D01*
X3993391Y-44786425D01*
X3890432Y-45095968D01*
X3892873Y-45130000D01*
X3856892Y-45130000D01*
X3555507Y-45254837D01*
X3324837Y-45485507D01*
X3200000Y-45786892D01*
X3200000Y-46113108D01*
X3324837Y-46414493D01*
X3555507Y-46645163D01*
X3856892Y-46770000D01*
X4183108Y-46770000D01*
X4484493Y-46645163D01*
X4605117Y-46524539D01*
X4600000Y-46536892D01*
X4600000Y-46863108D01*
X4724837Y-47164493D01*
X4955507Y-47395163D01*
X5256892Y-47520000D01*
X5583108Y-47520000D01*
X5884493Y-47395163D01*
X6115163Y-47164493D01*
X6211783Y-46931230D01*
X6934091Y-47653538D01*
X6975096Y-47714906D01*
X7218218Y-47877355D01*
X7432613Y-47920001D01*
X7505001Y-47934400D01*
X7577389Y-47920001D01*
X9380417Y-47920001D01*
X9452801Y-47934399D01*
X9525185Y-47920001D01*
X9525189Y-47920001D01*
X9739584Y-47877355D01*
X9982706Y-47714906D01*
X10019393Y-47660000D01*
X12220607Y-47660000D01*
X12257294Y-47714906D01*
X12500416Y-47877355D01*
X12714811Y-47920001D01*
X12714815Y-47920001D01*
X12787199Y-47934399D01*
X12859583Y-47920001D01*
X13180417Y-47920001D01*
X13252801Y-47934399D01*
X13325185Y-47920001D01*
X13325189Y-47920001D01*
X13539584Y-47877355D01*
X13782706Y-47714906D01*
X13819393Y-47660000D01*
X16020607Y-47660000D01*
X16057294Y-47714906D01*
X16300416Y-47877355D01*
X16514811Y-47920001D01*
X16514815Y-47920001D01*
X16587199Y-47934399D01*
X16659583Y-47920001D01*
X16980417Y-47920001D01*
X17052801Y-47934399D01*
X17125185Y-47920001D01*
X17125189Y-47920001D01*
X17339584Y-47877355D01*
X17582706Y-47714906D01*
X17619393Y-47660000D01*
X35259014Y-47660000D01*
X35331398Y-47674398D01*
X35403782Y-47660000D01*
X35403786Y-47660000D01*
X35618181Y-47617354D01*
X35861303Y-47454905D01*
X35902309Y-47393535D01*
X42044084Y-41251761D01*
X42105451Y-41210757D01*
X42267900Y-40967635D01*
X42273000Y-40941996D01*
X42273000Y-54140000D01*
X17815697Y-54140000D01*
X17855000Y-54045113D01*
X17855000Y-53354887D01*
X17590862Y-52717201D01*
X17102799Y-52229138D01*
X16465113Y-51965000D01*
X15774887Y-51965000D01*
X15137201Y-52229138D01*
X14649138Y-52717201D01*
X14385000Y-53354887D01*
X14385000Y-54045113D01*
X14517502Y-54365001D01*
X11324183Y-54365001D01*
X11251799Y-54350603D01*
X11179415Y-54365001D01*
X11179412Y-54365001D01*
X10965017Y-54407647D01*
X10721895Y-54570096D01*
X10680891Y-54631464D01*
X8597355Y-56715000D01*
X8374185Y-56715000D01*
X8389185Y-56700000D01*
X7980146Y-56290961D01*
X7793391Y-56286425D01*
X7690432Y-56595968D01*
X7692873Y-56630000D01*
X7656892Y-56630000D01*
X7355507Y-56754837D01*
X7124837Y-56985507D01*
X7000000Y-57286892D01*
X7000000Y-57613108D01*
X7124837Y-57914493D01*
X7355507Y-58145163D01*
X7656892Y-58270000D01*
X7983108Y-58270000D01*
X8188317Y-58185000D01*
X8199109Y-58185000D01*
X8106425Y-58223391D01*
X8110961Y-58410146D01*
X8520000Y-58819185D01*
X8558538Y-58780648D01*
X8689353Y-58911463D01*
X8650815Y-58950000D01*
X8665815Y-58965000D01*
X8374185Y-58965000D01*
X8389185Y-58950000D01*
X7980146Y-58540961D01*
X7793391Y-58536425D01*
X7690432Y-58845968D01*
X7692873Y-58880000D01*
X7656892Y-58880000D01*
X7355507Y-59004837D01*
X7124837Y-59235507D01*
X7000000Y-59536892D01*
X7000000Y-59863108D01*
X7124837Y-60164493D01*
X7355507Y-60395163D01*
X7656892Y-60520000D01*
X7983108Y-60520000D01*
X8188317Y-60435000D01*
X8199109Y-60435000D01*
X8106425Y-60473391D01*
X8110961Y-60660146D01*
X8520000Y-61069185D01*
X8558538Y-61030648D01*
X8689353Y-61161463D01*
X8650815Y-61200000D01*
X8689353Y-61238538D01*
X8558538Y-61369353D01*
X8520000Y-61330815D01*
X8481463Y-61369353D01*
X8350648Y-61238538D01*
X8389185Y-61200000D01*
X7980146Y-60790961D01*
X7793391Y-60786425D01*
X7690432Y-61095968D01*
X7692873Y-61130000D01*
X7656892Y-61130000D01*
X7355507Y-61254837D01*
X7303094Y-61307250D01*
X6209782Y-60213939D01*
X6115163Y-59985507D01*
X5884493Y-59754837D01*
X5583108Y-59630000D01*
X5256892Y-59630000D01*
X5067779Y-59708333D01*
X5064618Y-59705172D01*
X5133575Y-59676609D01*
X5129039Y-59489854D01*
X4720000Y-59080815D01*
X4681463Y-59119353D01*
X4550648Y-58988538D01*
X4589185Y-58950000D01*
X4180146Y-58540961D01*
X3993391Y-58536425D01*
X3890432Y-58845968D01*
X3892873Y-58880000D01*
X3856892Y-58880000D01*
X3555507Y-59004837D01*
X3324837Y-59235507D01*
X3200000Y-59536892D01*
X3200000Y-59863108D01*
X3324837Y-60164493D01*
X3555507Y-60395163D01*
X3760717Y-60480163D01*
X4068810Y-60788257D01*
X3993391Y-60786425D01*
X3890432Y-61095968D01*
X3892873Y-61130000D01*
X3856892Y-61130000D01*
X3555507Y-61254837D01*
X3324837Y-61485507D01*
X3200000Y-61786892D01*
X3200000Y-62113108D01*
X3324837Y-62414493D01*
X3555507Y-62645163D01*
X3856892Y-62770000D01*
X4183108Y-62770000D01*
X4484493Y-62645163D01*
X4605117Y-62524539D01*
X4600000Y-62536892D01*
X4600000Y-62863108D01*
X4724837Y-63164493D01*
X4955507Y-63395163D01*
X5256892Y-63520000D01*
X5583108Y-63520000D01*
X5884493Y-63395163D01*
X6115163Y-63164493D01*
X6211783Y-62931230D01*
X6934091Y-63653538D01*
X6975096Y-63714906D01*
X7218218Y-63877355D01*
X7432613Y-63920001D01*
X7505001Y-63934400D01*
X7577389Y-63920001D01*
X9380417Y-63920001D01*
X9452801Y-63934399D01*
X9525185Y-63920001D01*
X9525189Y-63920001D01*
X9739584Y-63877355D01*
X9982706Y-63714906D01*
X10019393Y-63660000D01*
X12220607Y-63660000D01*
X12257294Y-63714906D01*
X12500416Y-63877355D01*
X12714811Y-63920001D01*
X12714815Y-63920001D01*
X12787199Y-63934399D01*
X12859583Y-63920001D01*
X13180417Y-63920001D01*
X13252801Y-63934399D01*
X13325185Y-63920001D01*
X13325189Y-63920001D01*
X13539584Y-63877355D01*
X13782706Y-63714906D01*
X13819393Y-63660000D01*
X16020607Y-63660000D01*
X16057294Y-63714906D01*
X16300416Y-63877355D01*
X16514811Y-63920001D01*
X16514815Y-63920001D01*
X16587199Y-63934399D01*
X16659583Y-63920001D01*
X16980417Y-63920001D01*
X17052801Y-63934399D01*
X17125185Y-63920001D01*
X17125189Y-63920001D01*
X17339584Y-63877355D01*
X17582706Y-63714906D01*
X17619393Y-63660000D01*
X35259014Y-63660000D01*
X35331398Y-63674398D01*
X35403782Y-63660000D01*
X35403786Y-63660000D01*
X35618181Y-63617354D01*
X35861303Y-63454905D01*
X35902309Y-63393535D01*
X42044084Y-57251761D01*
X42105451Y-57210757D01*
X42267900Y-56967635D01*
X42273000Y-56941996D01*
X42273000Y-71065000D01*
X3241089Y-71065000D01*
X2654908Y-70999249D01*
X2136899Y-70818859D01*
X1671734Y-70528192D01*
X1282524Y-70141689D01*
X988614Y-69678562D01*
X804617Y-69161837D01*
X735000Y-68578016D01*
X735000Y-65354887D01*
X2385000Y-65354887D01*
X2385000Y-66045113D01*
X2649138Y-66682799D01*
X3137201Y-67170862D01*
X3774887Y-67435000D01*
X4465113Y-67435000D01*
X5102799Y-67170862D01*
X5590862Y-66682799D01*
X5855000Y-66045113D01*
X5855000Y-65354887D01*
X14385000Y-65354887D01*
X14385000Y-66045113D01*
X14649138Y-66682799D01*
X15137201Y-67170862D01*
X15774887Y-67435000D01*
X16465113Y-67435000D01*
X17102799Y-67170862D01*
X17590862Y-66682799D01*
X17855000Y-66045113D01*
X17855000Y-65354887D01*
X17590862Y-64717201D01*
X17157787Y-64284126D01*
X37085000Y-64284126D01*
X37085000Y-64695874D01*
X37242569Y-65076280D01*
X37533720Y-65367431D01*
X37914126Y-65525000D01*
X38325874Y-65525000D01*
X38706280Y-65367431D01*
X38834585Y-65239126D01*
X39060000Y-65239126D01*
X39060000Y-65650874D01*
X39217569Y-66031280D01*
X39508720Y-66322431D01*
X39889126Y-66480000D01*
X40300874Y-66480000D01*
X40681280Y-66322431D01*
X40972431Y-66031280D01*
X41130000Y-65650874D01*
X41130000Y-65239126D01*
X40972431Y-64858720D01*
X40681280Y-64567569D01*
X40300874Y-64410000D01*
X39889126Y-64410000D01*
X39508720Y-64567569D01*
X39217569Y-64858720D01*
X39060000Y-65239126D01*
X38834585Y-65239126D01*
X38997431Y-65076280D01*
X39155000Y-64695874D01*
X39155000Y-64284126D01*
X38997431Y-63903720D01*
X38706280Y-63612569D01*
X38325874Y-63455000D01*
X37914126Y-63455000D01*
X37533720Y-63612569D01*
X37242569Y-63903720D01*
X37085000Y-64284126D01*
X17157787Y-64284126D01*
X17102799Y-64229138D01*
X16465113Y-63965000D01*
X15774887Y-63965000D01*
X15137201Y-64229138D01*
X14649138Y-64717201D01*
X14385000Y-65354887D01*
X5855000Y-65354887D01*
X5590862Y-64717201D01*
X5102799Y-64229138D01*
X4465113Y-63965000D01*
X3774887Y-63965000D01*
X3137201Y-64229138D01*
X2649138Y-64717201D01*
X2385000Y-65354887D01*
X735000Y-65354887D01*
X735000Y-57286892D01*
X3200000Y-57286892D01*
X3200000Y-57613108D01*
X3324837Y-57914493D01*
X3555507Y-58145163D01*
X3856892Y-58270000D01*
X4183108Y-58270000D01*
X4484493Y-58145163D01*
X4605117Y-58024539D01*
X4600000Y-58036892D01*
X4600000Y-58136499D01*
X4498652Y-58143768D01*
X4306425Y-58223391D01*
X4310961Y-58410146D01*
X4720000Y-58819185D01*
X4758538Y-58780648D01*
X4889353Y-58911463D01*
X4850815Y-58950000D01*
X5259854Y-59359039D01*
X5446609Y-59363575D01*
X5549568Y-59054032D01*
X5547127Y-59020000D01*
X5583108Y-59020000D01*
X5884493Y-58895163D01*
X6115163Y-58664493D01*
X6240000Y-58363108D01*
X6240000Y-58036892D01*
X6115163Y-57735507D01*
X5884493Y-57504837D01*
X5583108Y-57380000D01*
X5256892Y-57380000D01*
X4955507Y-57504837D01*
X4834883Y-57625461D01*
X4840000Y-57613108D01*
X4840000Y-57513501D01*
X4941348Y-57506232D01*
X5133575Y-57426609D01*
X5129039Y-57239854D01*
X4720000Y-56830815D01*
X4681463Y-56869353D01*
X4550648Y-56738538D01*
X4589185Y-56700000D01*
X4850815Y-56700000D01*
X5259854Y-57109039D01*
X5446609Y-57113575D01*
X5549568Y-56804032D01*
X5526232Y-56478652D01*
X5446609Y-56286425D01*
X5259854Y-56290961D01*
X4850815Y-56700000D01*
X4589185Y-56700000D01*
X4180146Y-56290961D01*
X3993391Y-56286425D01*
X3890432Y-56595968D01*
X3892873Y-56630000D01*
X3856892Y-56630000D01*
X3555507Y-56754837D01*
X3324837Y-56985507D01*
X3200000Y-57286892D01*
X735000Y-57286892D01*
X735000Y-55973391D01*
X4306425Y-55973391D01*
X4310961Y-56160146D01*
X4720000Y-56569185D01*
X5129039Y-56160146D01*
X5133575Y-55973391D01*
X8106425Y-55973391D01*
X8110961Y-56160146D01*
X8520000Y-56569185D01*
X8929039Y-56160146D01*
X8933575Y-55973391D01*
X8624032Y-55870432D01*
X8298652Y-55893768D01*
X8106425Y-55973391D01*
X5133575Y-55973391D01*
X4824032Y-55870432D01*
X4498652Y-55893768D01*
X4306425Y-55973391D01*
X735000Y-55973391D01*
X735000Y-55072388D01*
X749399Y-55000000D01*
X692354Y-54713217D01*
X529905Y-54470095D01*
X286783Y-54307646D01*
X127000Y-54275863D01*
X127000Y-53354887D01*
X2385000Y-53354887D01*
X2385000Y-54045113D01*
X2649138Y-54682799D01*
X3137201Y-55170862D01*
X3774887Y-55435000D01*
X4465113Y-55435000D01*
X5102799Y-55170862D01*
X5590862Y-54682799D01*
X5855000Y-54045113D01*
X5855000Y-53354887D01*
X5590862Y-52717201D01*
X5102799Y-52229138D01*
X4465113Y-51965000D01*
X3774887Y-51965000D01*
X3137201Y-52229138D01*
X2649138Y-52717201D01*
X2385000Y-53354887D01*
X127000Y-53354887D01*
X127000Y-49354887D01*
X2385000Y-49354887D01*
X2385000Y-50045113D01*
X2649138Y-50682799D01*
X3137201Y-51170862D01*
X3774887Y-51435000D01*
X4465113Y-51435000D01*
X5102799Y-51170862D01*
X5590862Y-50682799D01*
X5855000Y-50045113D01*
X5855000Y-49354887D01*
X14385000Y-49354887D01*
X14385000Y-50045113D01*
X14649138Y-50682799D01*
X15137201Y-51170862D01*
X15774887Y-51435000D01*
X16465113Y-51435000D01*
X17102799Y-51170862D01*
X17590862Y-50682799D01*
X17855000Y-50045113D01*
X17855000Y-49354887D01*
X17590862Y-48717201D01*
X17157787Y-48284126D01*
X37085000Y-48284126D01*
X37085000Y-48695874D01*
X37242569Y-49076280D01*
X37533720Y-49367431D01*
X37914126Y-49525000D01*
X38325874Y-49525000D01*
X38706280Y-49367431D01*
X38834585Y-49239126D01*
X39060000Y-49239126D01*
X39060000Y-49650874D01*
X39217569Y-50031280D01*
X39508720Y-50322431D01*
X39889126Y-50480000D01*
X40300874Y-50480000D01*
X40681280Y-50322431D01*
X40972431Y-50031280D01*
X41130000Y-49650874D01*
X41130000Y-49239126D01*
X40972431Y-48858720D01*
X40681280Y-48567569D01*
X40300874Y-48410000D01*
X39889126Y-48410000D01*
X39508720Y-48567569D01*
X39217569Y-48858720D01*
X39060000Y-49239126D01*
X38834585Y-49239126D01*
X38997431Y-49076280D01*
X39155000Y-48695874D01*
X39155000Y-48284126D01*
X38997431Y-47903720D01*
X38706280Y-47612569D01*
X38325874Y-47455000D01*
X37914126Y-47455000D01*
X37533720Y-47612569D01*
X37242569Y-47903720D01*
X37085000Y-48284126D01*
X17157787Y-48284126D01*
X17102799Y-48229138D01*
X16465113Y-47965000D01*
X15774887Y-47965000D01*
X15137201Y-48229138D01*
X14649138Y-48717201D01*
X14385000Y-49354887D01*
X5855000Y-49354887D01*
X5590862Y-48717201D01*
X5102799Y-48229138D01*
X4465113Y-47965000D01*
X3774887Y-47965000D01*
X3137201Y-48229138D01*
X2649138Y-48717201D01*
X2385000Y-49354887D01*
X127000Y-49354887D01*
X127000Y-41286892D01*
X3200000Y-41286892D01*
X3200000Y-41613108D01*
X3324837Y-41914493D01*
X3555507Y-42145163D01*
X3856892Y-42270000D01*
X4183108Y-42270000D01*
X4484493Y-42145163D01*
X4605117Y-42024539D01*
X4600000Y-42036892D01*
X4600000Y-42136499D01*
X4498652Y-42143768D01*
X4306425Y-42223391D01*
X4310961Y-42410146D01*
X4720000Y-42819185D01*
X4758538Y-42780648D01*
X4889353Y-42911463D01*
X4850815Y-42950000D01*
X5259854Y-43359039D01*
X5446609Y-43363575D01*
X5549568Y-43054032D01*
X5547127Y-43020000D01*
X5583108Y-43020000D01*
X5884493Y-42895163D01*
X6115163Y-42664493D01*
X6240000Y-42363108D01*
X6240000Y-42036892D01*
X6115163Y-41735507D01*
X5884493Y-41504837D01*
X5583108Y-41380000D01*
X5256892Y-41380000D01*
X4955507Y-41504837D01*
X4834883Y-41625461D01*
X4840000Y-41613108D01*
X4840000Y-41513501D01*
X4941348Y-41506232D01*
X5133575Y-41426609D01*
X5129039Y-41239854D01*
X4720000Y-40830815D01*
X4681463Y-40869353D01*
X4550648Y-40738538D01*
X4589185Y-40700000D01*
X4850815Y-40700000D01*
X5259854Y-41109039D01*
X5446609Y-41113575D01*
X5549568Y-40804032D01*
X5526232Y-40478652D01*
X5446609Y-40286425D01*
X5259854Y-40290961D01*
X4850815Y-40700000D01*
X4589185Y-40700000D01*
X4180146Y-40290961D01*
X3993391Y-40286425D01*
X3890432Y-40595968D01*
X3892873Y-40630000D01*
X3856892Y-40630000D01*
X3555507Y-40754837D01*
X3324837Y-40985507D01*
X3200000Y-41286892D01*
X127000Y-41286892D01*
X127000Y-39973391D01*
X4306425Y-39973391D01*
X4310961Y-40160146D01*
X4720000Y-40569185D01*
X5129039Y-40160146D01*
X5133575Y-39973391D01*
X8106425Y-39973391D01*
X8110961Y-40160146D01*
X8520000Y-40569185D01*
X8929039Y-40160146D01*
X8933575Y-39973391D01*
X8624032Y-39870432D01*
X8298652Y-39893768D01*
X8106425Y-39973391D01*
X5133575Y-39973391D01*
X4824032Y-39870432D01*
X4498652Y-39893768D01*
X4306425Y-39973391D01*
X127000Y-39973391D01*
X127000Y-37354887D01*
X2385000Y-37354887D01*
X2385000Y-38045113D01*
X2649138Y-38682799D01*
X3137201Y-39170862D01*
X3774887Y-39435000D01*
X4465113Y-39435000D01*
X5102799Y-39170862D01*
X5590862Y-38682799D01*
X5855000Y-38045113D01*
X5855000Y-37354887D01*
X5590862Y-36717201D01*
X5102799Y-36229138D01*
X4465113Y-35965000D01*
X3774887Y-35965000D01*
X3137201Y-36229138D01*
X2649138Y-36717201D01*
X2385000Y-37354887D01*
X127000Y-37354887D01*
X127000Y-33354887D01*
X2385000Y-33354887D01*
X2385000Y-34045113D01*
X2649138Y-34682799D01*
X3137201Y-35170862D01*
X3774887Y-35435000D01*
X4465113Y-35435000D01*
X5102799Y-35170862D01*
X5590862Y-34682799D01*
X5855000Y-34045113D01*
X5855000Y-33354887D01*
X14385000Y-33354887D01*
X14385000Y-34045113D01*
X14649138Y-34682799D01*
X15137201Y-35170862D01*
X15774887Y-35435000D01*
X16465113Y-35435000D01*
X17102799Y-35170862D01*
X17590862Y-34682799D01*
X17855000Y-34045113D01*
X17855000Y-33354887D01*
X17590862Y-32717201D01*
X17157787Y-32284126D01*
X37085000Y-32284126D01*
X37085000Y-32695874D01*
X37242569Y-33076280D01*
X37533720Y-33367431D01*
X37914126Y-33525000D01*
X38325874Y-33525000D01*
X38706280Y-33367431D01*
X38834585Y-33239126D01*
X39060000Y-33239126D01*
X39060000Y-33650874D01*
X39217569Y-34031280D01*
X39508720Y-34322431D01*
X39889126Y-34480000D01*
X40300874Y-34480000D01*
X40681280Y-34322431D01*
X40972431Y-34031280D01*
X41130000Y-33650874D01*
X41130000Y-33239126D01*
X40972431Y-32858720D01*
X40681280Y-32567569D01*
X40300874Y-32410000D01*
X39889126Y-32410000D01*
X39508720Y-32567569D01*
X39217569Y-32858720D01*
X39060000Y-33239126D01*
X38834585Y-33239126D01*
X38997431Y-33076280D01*
X39155000Y-32695874D01*
X39155000Y-32284126D01*
X38997431Y-31903720D01*
X38706280Y-31612569D01*
X38325874Y-31455000D01*
X37914126Y-31455000D01*
X37533720Y-31612569D01*
X37242569Y-31903720D01*
X37085000Y-32284126D01*
X17157787Y-32284126D01*
X17102799Y-32229138D01*
X16465113Y-31965000D01*
X15774887Y-31965000D01*
X15137201Y-32229138D01*
X14649138Y-32717201D01*
X14385000Y-33354887D01*
X5855000Y-33354887D01*
X5590862Y-32717201D01*
X5102799Y-32229138D01*
X4465113Y-31965000D01*
X3774887Y-31965000D01*
X3137201Y-32229138D01*
X2649138Y-32717201D01*
X2385000Y-33354887D01*
X127000Y-33354887D01*
X127000Y-25286892D01*
X3200000Y-25286892D01*
X3200000Y-25613108D01*
X3324837Y-25914493D01*
X3555507Y-26145163D01*
X3856892Y-26270000D01*
X4183108Y-26270000D01*
X4484493Y-26145163D01*
X4605117Y-26024539D01*
X4600000Y-26036892D01*
X4600000Y-26136499D01*
X4498652Y-26143768D01*
X4306425Y-26223391D01*
X4310961Y-26410146D01*
X4720000Y-26819185D01*
X4758538Y-26780648D01*
X4889353Y-26911463D01*
X4850815Y-26950000D01*
X5259854Y-27359039D01*
X5446609Y-27363575D01*
X5549568Y-27054032D01*
X5547127Y-27020000D01*
X5583108Y-27020000D01*
X5884493Y-26895163D01*
X6115163Y-26664493D01*
X6240000Y-26363108D01*
X6240000Y-26036892D01*
X6115163Y-25735507D01*
X5884493Y-25504837D01*
X5583108Y-25380000D01*
X5256892Y-25380000D01*
X4955507Y-25504837D01*
X4834883Y-25625461D01*
X4840000Y-25613108D01*
X4840000Y-25513501D01*
X4941348Y-25506232D01*
X5133575Y-25426609D01*
X5129039Y-25239854D01*
X4720000Y-24830815D01*
X4681463Y-24869353D01*
X4550648Y-24738538D01*
X4589185Y-24700000D01*
X4850815Y-24700000D01*
X5259854Y-25109039D01*
X5446609Y-25113575D01*
X5549568Y-24804032D01*
X5526232Y-24478652D01*
X5446609Y-24286425D01*
X5259854Y-24290961D01*
X4850815Y-24700000D01*
X4589185Y-24700000D01*
X4180146Y-24290961D01*
X3993391Y-24286425D01*
X3890432Y-24595968D01*
X3892873Y-24630000D01*
X3856892Y-24630000D01*
X3555507Y-24754837D01*
X3324837Y-24985507D01*
X3200000Y-25286892D01*
X127000Y-25286892D01*
X127000Y-23973391D01*
X4306425Y-23973391D01*
X4310961Y-24160146D01*
X4720000Y-24569185D01*
X5129039Y-24160146D01*
X5133575Y-23973391D01*
X8106425Y-23973391D01*
X8110961Y-24160146D01*
X8520000Y-24569185D01*
X8929039Y-24160146D01*
X8933575Y-23973391D01*
X8624032Y-23870432D01*
X8298652Y-23893768D01*
X8106425Y-23973391D01*
X5133575Y-23973391D01*
X4824032Y-23870432D01*
X4498652Y-23893768D01*
X4306425Y-23973391D01*
X127000Y-23973391D01*
X127000Y-21354887D01*
X2385000Y-21354887D01*
X2385000Y-22045113D01*
X2649138Y-22682799D01*
X3137201Y-23170862D01*
X3774887Y-23435000D01*
X4465113Y-23435000D01*
X5102799Y-23170862D01*
X5590862Y-22682799D01*
X5855000Y-22045113D01*
X5855000Y-21354887D01*
X5590862Y-20717201D01*
X5102799Y-20229138D01*
X4465113Y-19965000D01*
X3774887Y-19965000D01*
X3137201Y-20229138D01*
X2649138Y-20717201D01*
X2385000Y-21354887D01*
X127000Y-21354887D01*
X127000Y-17524137D01*
X286783Y-17492354D01*
X492516Y-17354887D01*
X2385000Y-17354887D01*
X2385000Y-18045113D01*
X2649138Y-18682799D01*
X3137201Y-19170862D01*
X3774887Y-19435000D01*
X4465113Y-19435000D01*
X5102799Y-19170862D01*
X5590862Y-18682799D01*
X5855000Y-18045113D01*
X5855000Y-17354887D01*
X14385000Y-17354887D01*
X14385000Y-18045113D01*
X14649138Y-18682799D01*
X15137201Y-19170862D01*
X15774887Y-19435000D01*
X16465113Y-19435000D01*
X17102799Y-19170862D01*
X17590862Y-18682799D01*
X17855000Y-18045113D01*
X17855000Y-17354887D01*
X17590862Y-16717201D01*
X17157787Y-16284126D01*
X37085000Y-16284126D01*
X37085000Y-16695874D01*
X37242569Y-17076280D01*
X37533720Y-17367431D01*
X37914126Y-17525000D01*
X38325874Y-17525000D01*
X38706280Y-17367431D01*
X38834585Y-17239126D01*
X39060000Y-17239126D01*
X39060000Y-17650874D01*
X39217569Y-18031280D01*
X39508720Y-18322431D01*
X39889126Y-18480000D01*
X40300874Y-18480000D01*
X40681280Y-18322431D01*
X40972431Y-18031280D01*
X41130000Y-17650874D01*
X41130000Y-17239126D01*
X40972431Y-16858720D01*
X40681280Y-16567569D01*
X40300874Y-16410000D01*
X39889126Y-16410000D01*
X39508720Y-16567569D01*
X39217569Y-16858720D01*
X39060000Y-17239126D01*
X38834585Y-17239126D01*
X38997431Y-17076280D01*
X39155000Y-16695874D01*
X39155000Y-16284126D01*
X38997431Y-15903720D01*
X38706280Y-15612569D01*
X38325874Y-15455000D01*
X37914126Y-15455000D01*
X37533720Y-15612569D01*
X37242569Y-15903720D01*
X37085000Y-16284126D01*
X17157787Y-16284126D01*
X17102799Y-16229138D01*
X16465113Y-15965000D01*
X15774887Y-15965000D01*
X15137201Y-16229138D01*
X14649138Y-16717201D01*
X14385000Y-17354887D01*
X5855000Y-17354887D01*
X5590862Y-16717201D01*
X5102799Y-16229138D01*
X4465113Y-15965000D01*
X3774887Y-15965000D01*
X3137201Y-16229138D01*
X2649138Y-16717201D01*
X2385000Y-17354887D01*
X492516Y-17354887D01*
X529905Y-17329905D01*
X692354Y-17086783D01*
X749399Y-16800000D01*
X735000Y-16727612D01*
X735000Y-9286892D01*
X3200000Y-9286892D01*
X3200000Y-9613108D01*
X3324837Y-9914493D01*
X3555507Y-10145163D01*
X3856892Y-10270000D01*
X4183108Y-10270000D01*
X4484493Y-10145163D01*
X4605117Y-10024539D01*
X4600000Y-10036892D01*
X4600000Y-10136499D01*
X4498652Y-10143768D01*
X4306425Y-10223391D01*
X4310961Y-10410146D01*
X4720000Y-10819185D01*
X4758538Y-10780648D01*
X4889353Y-10911463D01*
X4850815Y-10950000D01*
X5259854Y-11359039D01*
X5446609Y-11363575D01*
X5549568Y-11054032D01*
X5547127Y-11020000D01*
X5583108Y-11020000D01*
X5884493Y-10895163D01*
X6115163Y-10664493D01*
X6240000Y-10363108D01*
X6240000Y-10036892D01*
X6115163Y-9735507D01*
X5884493Y-9504837D01*
X5583108Y-9380000D01*
X5256892Y-9380000D01*
X4955507Y-9504837D01*
X4834883Y-9625461D01*
X4840000Y-9613108D01*
X4840000Y-9513501D01*
X4941348Y-9506232D01*
X5133575Y-9426609D01*
X5129039Y-9239854D01*
X4720000Y-8830815D01*
X4681463Y-8869353D01*
X4550648Y-8738538D01*
X4589185Y-8700000D01*
X4850815Y-8700000D01*
X5259854Y-9109039D01*
X5446609Y-9113575D01*
X5549568Y-8804032D01*
X5526232Y-8478652D01*
X5446609Y-8286425D01*
X5259854Y-8290961D01*
X4850815Y-8700000D01*
X4589185Y-8700000D01*
X4180146Y-8290961D01*
X3993391Y-8286425D01*
X3890432Y-8595968D01*
X3892873Y-8630000D01*
X3856892Y-8630000D01*
X3555507Y-8754837D01*
X3324837Y-8985507D01*
X3200000Y-9286892D01*
X735000Y-9286892D01*
X735000Y-7973391D01*
X4306425Y-7973391D01*
X4310961Y-8160146D01*
X4720000Y-8569185D01*
X5129039Y-8160146D01*
X5133575Y-7973391D01*
X8106425Y-7973391D01*
X8110961Y-8160146D01*
X8520000Y-8569185D01*
X8929039Y-8160146D01*
X8933575Y-7973391D01*
X8624032Y-7870432D01*
X8298652Y-7893768D01*
X8106425Y-7973391D01*
X5133575Y-7973391D01*
X4824032Y-7870432D01*
X4498652Y-7893768D01*
X4306425Y-7973391D01*
X735000Y-7973391D01*
X735000Y-5354887D01*
X2385000Y-5354887D01*
X2385000Y-6045113D01*
X2649138Y-6682799D01*
X3137201Y-7170862D01*
X3774887Y-7435000D01*
X4465113Y-7435000D01*
X5102799Y-7170862D01*
X5590862Y-6682799D01*
X5855000Y-6045113D01*
X5855000Y-5354887D01*
X5590862Y-4717201D01*
X5102799Y-4229138D01*
X4465113Y-3965000D01*
X3774887Y-3965000D01*
X3137201Y-4229138D01*
X2649138Y-4717201D01*
X2385000Y-5354887D01*
X735000Y-5354887D01*
X735000Y-3241089D01*
X800751Y-2654908D01*
X981140Y-2136900D01*
X1271808Y-1671734D01*
X1658308Y-1282526D01*
X2121438Y-988614D01*
X2638164Y-804617D01*
X3221984Y-735000D01*
X42273000Y-735000D01*
X42273000Y-6140000D01*
X42273000Y-6140000D01*
G37*
X42273000Y-6140000D02*
X17815697Y-6140000D01*
X17855000Y-6045113D01*
X17855000Y-5354887D01*
X17590862Y-4717201D01*
X17102799Y-4229138D01*
X16465113Y-3965000D01*
X15774887Y-3965000D01*
X15137201Y-4229138D01*
X14649138Y-4717201D01*
X14385000Y-5354887D01*
X14385000Y-6045113D01*
X14517502Y-6365001D01*
X11324183Y-6365001D01*
X11251799Y-6350603D01*
X11179415Y-6365001D01*
X11179412Y-6365001D01*
X10965017Y-6407647D01*
X10721895Y-6570096D01*
X10680891Y-6631464D01*
X8597355Y-8715000D01*
X8374185Y-8715000D01*
X8389185Y-8700000D01*
X7980146Y-8290961D01*
X7793391Y-8286425D01*
X7690432Y-8595968D01*
X7692873Y-8630000D01*
X7656892Y-8630000D01*
X7355507Y-8754837D01*
X7124837Y-8985507D01*
X7000000Y-9286892D01*
X7000000Y-9613108D01*
X7124837Y-9914493D01*
X7355507Y-10145163D01*
X7656892Y-10270000D01*
X7983108Y-10270000D01*
X8188317Y-10185000D01*
X8199109Y-10185000D01*
X8106425Y-10223391D01*
X8110961Y-10410146D01*
X8520000Y-10819185D01*
X8558538Y-10780648D01*
X8689353Y-10911463D01*
X8650815Y-10950000D01*
X8665815Y-10965000D01*
X8374185Y-10965000D01*
X8389185Y-10950000D01*
X7980146Y-10540961D01*
X7793391Y-10536425D01*
X7690432Y-10845968D01*
X7692873Y-10880000D01*
X7656892Y-10880000D01*
X7355507Y-11004837D01*
X7124837Y-11235507D01*
X7000000Y-11536892D01*
X7000000Y-11863108D01*
X7124837Y-12164493D01*
X7355507Y-12395163D01*
X7656892Y-12520000D01*
X7983108Y-12520000D01*
X8188317Y-12435000D01*
X8199109Y-12435000D01*
X8106425Y-12473391D01*
X8110961Y-12660146D01*
X8520000Y-13069185D01*
X8558538Y-13030648D01*
X8689353Y-13161463D01*
X8650815Y-13200000D01*
X8689353Y-13238538D01*
X8558538Y-13369353D01*
X8520000Y-13330815D01*
X8481463Y-13369353D01*
X8350648Y-13238538D01*
X8389185Y-13200000D01*
X7980146Y-12790961D01*
X7793391Y-12786425D01*
X7690432Y-13095968D01*
X7692873Y-13130000D01*
X7656892Y-13130000D01*
X7355507Y-13254837D01*
X7303094Y-13307250D01*
X6209782Y-12213939D01*
X6115163Y-11985507D01*
X5884493Y-11754837D01*
X5583108Y-11630000D01*
X5256892Y-11630000D01*
X5067779Y-11708333D01*
X5064618Y-11705172D01*
X5133575Y-11676609D01*
X5129039Y-11489854D01*
X4720000Y-11080815D01*
X4681463Y-11119353D01*
X4550648Y-10988538D01*
X4589185Y-10950000D01*
X4180146Y-10540961D01*
X3993391Y-10536425D01*
X3890432Y-10845968D01*
X3892873Y-10880000D01*
X3856892Y-10880000D01*
X3555507Y-11004837D01*
X3324837Y-11235507D01*
X3200000Y-11536892D01*
X3200000Y-11863108D01*
X3324837Y-12164493D01*
X3555507Y-12395163D01*
X3760717Y-12480163D01*
X4068810Y-12788257D01*
X3993391Y-12786425D01*
X3890432Y-13095968D01*
X3892873Y-13130000D01*
X3856892Y-13130000D01*
X3555507Y-13254837D01*
X3324837Y-13485507D01*
X3200000Y-13786892D01*
X3200000Y-14113108D01*
X3324837Y-14414493D01*
X3555507Y-14645163D01*
X3856892Y-14770000D01*
X4183108Y-14770000D01*
X4484493Y-14645163D01*
X4605117Y-14524539D01*
X4600000Y-14536892D01*
X4600000Y-14863108D01*
X4724837Y-15164493D01*
X4955507Y-15395163D01*
X5256892Y-15520000D01*
X5583108Y-15520000D01*
X5884493Y-15395163D01*
X6115163Y-15164493D01*
X6211783Y-14931230D01*
X6934091Y-15653538D01*
X6975096Y-15714906D01*
X7218218Y-15877355D01*
X7432613Y-15920001D01*
X7505001Y-15934400D01*
X7577389Y-15920001D01*
X9380417Y-15920001D01*
X9452801Y-15934399D01*
X9525185Y-15920001D01*
X9525189Y-15920001D01*
X9739584Y-15877355D01*
X9982706Y-15714906D01*
X10019393Y-15660000D01*
X12220607Y-15660000D01*
X12257294Y-15714906D01*
X12500416Y-15877355D01*
X12714811Y-15920001D01*
X12714815Y-15920001D01*
X12787199Y-15934399D01*
X12859583Y-15920001D01*
X13180417Y-15920001D01*
X13252801Y-15934399D01*
X13325185Y-15920001D01*
X13325189Y-15920001D01*
X13539584Y-15877355D01*
X13782706Y-15714906D01*
X13819393Y-15660000D01*
X16020607Y-15660000D01*
X16057294Y-15714906D01*
X16300416Y-15877355D01*
X16514811Y-15920001D01*
X16514815Y-15920001D01*
X16587199Y-15934399D01*
X16659583Y-15920001D01*
X16980417Y-15920001D01*
X17052801Y-15934399D01*
X17125185Y-15920001D01*
X17125189Y-15920001D01*
X17339584Y-15877355D01*
X17582706Y-15714906D01*
X17619393Y-15660000D01*
X35259014Y-15660000D01*
X35331398Y-15674398D01*
X35403782Y-15660000D01*
X35403786Y-15660000D01*
X35618181Y-15617354D01*
X35861303Y-15454905D01*
X35902309Y-15393535D01*
X42044084Y-9251761D01*
X42105451Y-9210757D01*
X42267900Y-8967635D01*
X42273000Y-8941996D01*
X42273000Y-22140000D01*
X17815697Y-22140000D01*
X17855000Y-22045113D01*
X17855000Y-21354887D01*
X17590862Y-20717201D01*
X17102799Y-20229138D01*
X16465113Y-19965000D01*
X15774887Y-19965000D01*
X15137201Y-20229138D01*
X14649138Y-20717201D01*
X14385000Y-21354887D01*
X14385000Y-22045113D01*
X14517502Y-22365001D01*
X11324183Y-22365001D01*
X11251799Y-22350603D01*
X11179415Y-22365001D01*
X11179412Y-22365001D01*
X10965017Y-22407647D01*
X10721895Y-22570096D01*
X10680891Y-22631464D01*
X8597355Y-24715000D01*
X8374185Y-24715000D01*
X8389185Y-24700000D01*
X7980146Y-24290961D01*
X7793391Y-24286425D01*
X7690432Y-24595968D01*
X7692873Y-24630000D01*
X7656892Y-24630000D01*
X7355507Y-24754837D01*
X7124837Y-24985507D01*
X7000000Y-25286892D01*
X7000000Y-25613108D01*
X7124837Y-25914493D01*
X7355507Y-26145163D01*
X7656892Y-26270000D01*
X7983108Y-26270000D01*
X8188317Y-26185000D01*
X8199109Y-26185000D01*
X8106425Y-26223391D01*
X8110961Y-26410146D01*
X8520000Y-26819185D01*
X8558538Y-26780648D01*
X8689353Y-26911463D01*
X8650815Y-26950000D01*
X8665815Y-26965000D01*
X8374185Y-26965000D01*
X8389185Y-26950000D01*
X7980146Y-26540961D01*
X7793391Y-26536425D01*
X7690432Y-26845968D01*
X7692873Y-26880000D01*
X7656892Y-26880000D01*
X7355507Y-27004837D01*
X7124837Y-27235507D01*
X7000000Y-27536892D01*
X7000000Y-27863108D01*
X7124837Y-28164493D01*
X7355507Y-28395163D01*
X7656892Y-28520000D01*
X7983108Y-28520000D01*
X8188317Y-28435000D01*
X8199109Y-28435000D01*
X8106425Y-28473391D01*
X8110961Y-28660146D01*
X8520000Y-29069185D01*
X8558538Y-29030648D01*
X8689353Y-29161463D01*
X8650815Y-29200000D01*
X8689353Y-29238538D01*
X8558538Y-29369353D01*
X8520000Y-29330815D01*
X8481463Y-29369353D01*
X8350648Y-29238538D01*
X8389185Y-29200000D01*
X7980146Y-28790961D01*
X7793391Y-28786425D01*
X7690432Y-29095968D01*
X7692873Y-29130000D01*
X7656892Y-29130000D01*
X7355507Y-29254837D01*
X7303094Y-29307250D01*
X6209782Y-28213939D01*
X6115163Y-27985507D01*
X5884493Y-27754837D01*
X5583108Y-27630000D01*
X5256892Y-27630000D01*
X5067779Y-27708333D01*
X5064618Y-27705172D01*
X5133575Y-27676609D01*
X5129039Y-27489854D01*
X4720000Y-27080815D01*
X4681463Y-27119353D01*
X4550648Y-26988538D01*
X4589185Y-26950000D01*
X4180146Y-26540961D01*
X3993391Y-26536425D01*
X3890432Y-26845968D01*
X3892873Y-26880000D01*
X3856892Y-26880000D01*
X3555507Y-27004837D01*
X3324837Y-27235507D01*
X3200000Y-27536892D01*
X3200000Y-27863108D01*
X3324837Y-28164493D01*
X3555507Y-28395163D01*
X3760717Y-28480163D01*
X4068810Y-28788257D01*
X3993391Y-28786425D01*
X3890432Y-29095968D01*
X3892873Y-29130000D01*
X3856892Y-29130000D01*
X3555507Y-29254837D01*
X3324837Y-29485507D01*
X3200000Y-29786892D01*
X3200000Y-30113108D01*
X3324837Y-30414493D01*
X3555507Y-30645163D01*
X3856892Y-30770000D01*
X4183108Y-30770000D01*
X4484493Y-30645163D01*
X4605117Y-30524539D01*
X4600000Y-30536892D01*
X4600000Y-30863108D01*
X4724837Y-31164493D01*
X4955507Y-31395163D01*
X5256892Y-31520000D01*
X5583108Y-31520000D01*
X5884493Y-31395163D01*
X6115163Y-31164493D01*
X6211783Y-30931230D01*
X6934091Y-31653538D01*
X6975096Y-31714906D01*
X7218218Y-31877355D01*
X7432613Y-31920001D01*
X7505001Y-31934400D01*
X7577389Y-31920001D01*
X9380417Y-31920001D01*
X9452801Y-31934399D01*
X9525185Y-31920001D01*
X9525189Y-31920001D01*
X9739584Y-31877355D01*
X9982706Y-31714906D01*
X10019393Y-31660000D01*
X12220607Y-31660000D01*
X12257294Y-31714906D01*
X12500416Y-31877355D01*
X12714811Y-31920001D01*
X12714815Y-31920001D01*
X12787199Y-31934399D01*
X12859583Y-31920001D01*
X13180417Y-31920001D01*
X13252801Y-31934399D01*
X13325185Y-31920001D01*
X13325189Y-31920001D01*
X13539584Y-31877355D01*
X13782706Y-31714906D01*
X13819393Y-31660000D01*
X16020607Y-31660000D01*
X16057294Y-31714906D01*
X16300416Y-31877355D01*
X16514811Y-31920001D01*
X16514815Y-31920001D01*
X16587199Y-31934399D01*
X16659583Y-31920001D01*
X16980417Y-31920001D01*
X17052801Y-31934399D01*
X17125185Y-31920001D01*
X17125189Y-31920001D01*
X17339584Y-31877355D01*
X17582706Y-31714906D01*
X17619393Y-31660000D01*
X35259014Y-31660000D01*
X35331398Y-31674398D01*
X35403782Y-31660000D01*
X35403786Y-31660000D01*
X35618181Y-31617354D01*
X35861303Y-31454905D01*
X35902309Y-31393535D01*
X42044084Y-25251761D01*
X42105451Y-25210757D01*
X42267900Y-24967635D01*
X42273000Y-24941996D01*
X42273000Y-38140000D01*
X17815697Y-38140000D01*
X17855000Y-38045113D01*
X17855000Y-37354887D01*
X17590862Y-36717201D01*
X17102799Y-36229138D01*
X16465113Y-35965000D01*
X15774887Y-35965000D01*
X15137201Y-36229138D01*
X14649138Y-36717201D01*
X14385000Y-37354887D01*
X14385000Y-38045113D01*
X14517502Y-38365001D01*
X11324183Y-38365001D01*
X11251799Y-38350603D01*
X11179415Y-38365001D01*
X11179412Y-38365001D01*
X10965017Y-38407647D01*
X10721895Y-38570096D01*
X10680891Y-38631464D01*
X8597355Y-40715000D01*
X8374185Y-40715000D01*
X8389185Y-40700000D01*
X7980146Y-40290961D01*
X7793391Y-40286425D01*
X7690432Y-40595968D01*
X7692873Y-40630000D01*
X7656892Y-40630000D01*
X7355507Y-40754837D01*
X7124837Y-40985507D01*
X7000000Y-41286892D01*
X7000000Y-41613108D01*
X7124837Y-41914493D01*
X7355507Y-42145163D01*
X7656892Y-42270000D01*
X7983108Y-42270000D01*
X8188317Y-42185000D01*
X8199109Y-42185000D01*
X8106425Y-42223391D01*
X8110961Y-42410146D01*
X8520000Y-42819185D01*
X8558538Y-42780648D01*
X8689353Y-42911463D01*
X8650815Y-42950000D01*
X8665815Y-42965000D01*
X8374185Y-42965000D01*
X8389185Y-42950000D01*
X7980146Y-42540961D01*
X7793391Y-42536425D01*
X7690432Y-42845968D01*
X7692873Y-42880000D01*
X7656892Y-42880000D01*
X7355507Y-43004837D01*
X7124837Y-43235507D01*
X7000000Y-43536892D01*
X7000000Y-43863108D01*
X7124837Y-44164493D01*
X7355507Y-44395163D01*
X7656892Y-44520000D01*
X7983108Y-44520000D01*
X8188317Y-44435000D01*
X8199109Y-44435000D01*
X8106425Y-44473391D01*
X8110961Y-44660146D01*
X8520000Y-45069185D01*
X8558538Y-45030648D01*
X8689353Y-45161463D01*
X8650815Y-45200000D01*
X8689353Y-45238538D01*
X8558538Y-45369353D01*
X8520000Y-45330815D01*
X8481463Y-45369353D01*
X8350648Y-45238538D01*
X8389185Y-45200000D01*
X7980146Y-44790961D01*
X7793391Y-44786425D01*
X7690432Y-45095968D01*
X7692873Y-45130000D01*
X7656892Y-45130000D01*
X7355507Y-45254837D01*
X7303094Y-45307250D01*
X6209782Y-44213939D01*
X6115163Y-43985507D01*
X5884493Y-43754837D01*
X5583108Y-43630000D01*
X5256892Y-43630000D01*
X5067779Y-43708333D01*
X5064618Y-43705172D01*
X5133575Y-43676609D01*
X5129039Y-43489854D01*
X4720000Y-43080815D01*
X4681463Y-43119353D01*
X4550648Y-42988538D01*
X4589185Y-42950000D01*
X4180146Y-42540961D01*
X3993391Y-42536425D01*
X3890432Y-42845968D01*
X3892873Y-42880000D01*
X3856892Y-42880000D01*
X3555507Y-43004837D01*
X3324837Y-43235507D01*
X3200000Y-43536892D01*
X3200000Y-43863108D01*
X3324837Y-44164493D01*
X3555507Y-44395163D01*
X3760717Y-44480163D01*
X4068810Y-44788257D01*
X3993391Y-44786425D01*
X3890432Y-45095968D01*
X3892873Y-45130000D01*
X3856892Y-45130000D01*
X3555507Y-45254837D01*
X3324837Y-45485507D01*
X3200000Y-45786892D01*
X3200000Y-46113108D01*
X3324837Y-46414493D01*
X3555507Y-46645163D01*
X3856892Y-46770000D01*
X4183108Y-46770000D01*
X4484493Y-46645163D01*
X4605117Y-46524539D01*
X4600000Y-46536892D01*
X4600000Y-46863108D01*
X4724837Y-47164493D01*
X4955507Y-47395163D01*
X5256892Y-47520000D01*
X5583108Y-47520000D01*
X5884493Y-47395163D01*
X6115163Y-47164493D01*
X6211783Y-46931230D01*
X6934091Y-47653538D01*
X6975096Y-47714906D01*
X7218218Y-47877355D01*
X7432613Y-47920001D01*
X7505001Y-47934400D01*
X7577389Y-47920001D01*
X9380417Y-47920001D01*
X9452801Y-47934399D01*
X9525185Y-47920001D01*
X9525189Y-47920001D01*
X9739584Y-47877355D01*
X9982706Y-47714906D01*
X10019393Y-47660000D01*
X12220607Y-47660000D01*
X12257294Y-47714906D01*
X12500416Y-47877355D01*
X12714811Y-47920001D01*
X12714815Y-47920001D01*
X12787199Y-47934399D01*
X12859583Y-47920001D01*
X13180417Y-47920001D01*
X13252801Y-47934399D01*
X13325185Y-47920001D01*
X13325189Y-47920001D01*
X13539584Y-47877355D01*
X13782706Y-47714906D01*
X13819393Y-47660000D01*
X16020607Y-47660000D01*
X16057294Y-47714906D01*
X16300416Y-47877355D01*
X16514811Y-47920001D01*
X16514815Y-47920001D01*
X16587199Y-47934399D01*
X16659583Y-47920001D01*
X16980417Y-47920001D01*
X17052801Y-47934399D01*
X17125185Y-47920001D01*
X17125189Y-47920001D01*
X17339584Y-47877355D01*
X17582706Y-47714906D01*
X17619393Y-47660000D01*
X35259014Y-47660000D01*
X35331398Y-47674398D01*
X35403782Y-47660000D01*
X35403786Y-47660000D01*
X35618181Y-47617354D01*
X35861303Y-47454905D01*
X35902309Y-47393535D01*
X42044084Y-41251761D01*
X42105451Y-41210757D01*
X42267900Y-40967635D01*
X42273000Y-40941996D01*
X42273000Y-54140000D01*
X17815697Y-54140000D01*
X17855000Y-54045113D01*
X17855000Y-53354887D01*
X17590862Y-52717201D01*
X17102799Y-52229138D01*
X16465113Y-51965000D01*
X15774887Y-51965000D01*
X15137201Y-52229138D01*
X14649138Y-52717201D01*
X14385000Y-53354887D01*
X14385000Y-54045113D01*
X14517502Y-54365001D01*
X11324183Y-54365001D01*
X11251799Y-54350603D01*
X11179415Y-54365001D01*
X11179412Y-54365001D01*
X10965017Y-54407647D01*
X10721895Y-54570096D01*
X10680891Y-54631464D01*
X8597355Y-56715000D01*
X8374185Y-56715000D01*
X8389185Y-56700000D01*
X7980146Y-56290961D01*
X7793391Y-56286425D01*
X7690432Y-56595968D01*
X7692873Y-56630000D01*
X7656892Y-56630000D01*
X7355507Y-56754837D01*
X7124837Y-56985507D01*
X7000000Y-57286892D01*
X7000000Y-57613108D01*
X7124837Y-57914493D01*
X7355507Y-58145163D01*
X7656892Y-58270000D01*
X7983108Y-58270000D01*
X8188317Y-58185000D01*
X8199109Y-58185000D01*
X8106425Y-58223391D01*
X8110961Y-58410146D01*
X8520000Y-58819185D01*
X8558538Y-58780648D01*
X8689353Y-58911463D01*
X8650815Y-58950000D01*
X8665815Y-58965000D01*
X8374185Y-58965000D01*
X8389185Y-58950000D01*
X7980146Y-58540961D01*
X7793391Y-58536425D01*
X7690432Y-58845968D01*
X7692873Y-58880000D01*
X7656892Y-58880000D01*
X7355507Y-59004837D01*
X7124837Y-59235507D01*
X7000000Y-59536892D01*
X7000000Y-59863108D01*
X7124837Y-60164493D01*
X7355507Y-60395163D01*
X7656892Y-60520000D01*
X7983108Y-60520000D01*
X8188317Y-60435000D01*
X8199109Y-60435000D01*
X8106425Y-60473391D01*
X8110961Y-60660146D01*
X8520000Y-61069185D01*
X8558538Y-61030648D01*
X8689353Y-61161463D01*
X8650815Y-61200000D01*
X8689353Y-61238538D01*
X8558538Y-61369353D01*
X8520000Y-61330815D01*
X8481463Y-61369353D01*
X8350648Y-61238538D01*
X8389185Y-61200000D01*
X7980146Y-60790961D01*
X7793391Y-60786425D01*
X7690432Y-61095968D01*
X7692873Y-61130000D01*
X7656892Y-61130000D01*
X7355507Y-61254837D01*
X7303094Y-61307250D01*
X6209782Y-60213939D01*
X6115163Y-59985507D01*
X5884493Y-59754837D01*
X5583108Y-59630000D01*
X5256892Y-59630000D01*
X5067779Y-59708333D01*
X5064618Y-59705172D01*
X5133575Y-59676609D01*
X5129039Y-59489854D01*
X4720000Y-59080815D01*
X4681463Y-59119353D01*
X4550648Y-58988538D01*
X4589185Y-58950000D01*
X4180146Y-58540961D01*
X3993391Y-58536425D01*
X3890432Y-58845968D01*
X3892873Y-58880000D01*
X3856892Y-58880000D01*
X3555507Y-59004837D01*
X3324837Y-59235507D01*
X3200000Y-59536892D01*
X3200000Y-59863108D01*
X3324837Y-60164493D01*
X3555507Y-60395163D01*
X3760717Y-60480163D01*
X4068810Y-60788257D01*
X3993391Y-60786425D01*
X3890432Y-61095968D01*
X3892873Y-61130000D01*
X3856892Y-61130000D01*
X3555507Y-61254837D01*
X3324837Y-61485507D01*
X3200000Y-61786892D01*
X3200000Y-62113108D01*
X3324837Y-62414493D01*
X3555507Y-62645163D01*
X3856892Y-62770000D01*
X4183108Y-62770000D01*
X4484493Y-62645163D01*
X4605117Y-62524539D01*
X4600000Y-62536892D01*
X4600000Y-62863108D01*
X4724837Y-63164493D01*
X4955507Y-63395163D01*
X5256892Y-63520000D01*
X5583108Y-63520000D01*
X5884493Y-63395163D01*
X6115163Y-63164493D01*
X6211783Y-62931230D01*
X6934091Y-63653538D01*
X6975096Y-63714906D01*
X7218218Y-63877355D01*
X7432613Y-63920001D01*
X7505001Y-63934400D01*
X7577389Y-63920001D01*
X9380417Y-63920001D01*
X9452801Y-63934399D01*
X9525185Y-63920001D01*
X9525189Y-63920001D01*
X9739584Y-63877355D01*
X9982706Y-63714906D01*
X10019393Y-63660000D01*
X12220607Y-63660000D01*
X12257294Y-63714906D01*
X12500416Y-63877355D01*
X12714811Y-63920001D01*
X12714815Y-63920001D01*
X12787199Y-63934399D01*
X12859583Y-63920001D01*
X13180417Y-63920001D01*
X13252801Y-63934399D01*
X13325185Y-63920001D01*
X13325189Y-63920001D01*
X13539584Y-63877355D01*
X13782706Y-63714906D01*
X13819393Y-63660000D01*
X16020607Y-63660000D01*
X16057294Y-63714906D01*
X16300416Y-63877355D01*
X16514811Y-63920001D01*
X16514815Y-63920001D01*
X16587199Y-63934399D01*
X16659583Y-63920001D01*
X16980417Y-63920001D01*
X17052801Y-63934399D01*
X17125185Y-63920001D01*
X17125189Y-63920001D01*
X17339584Y-63877355D01*
X17582706Y-63714906D01*
X17619393Y-63660000D01*
X35259014Y-63660000D01*
X35331398Y-63674398D01*
X35403782Y-63660000D01*
X35403786Y-63660000D01*
X35618181Y-63617354D01*
X35861303Y-63454905D01*
X35902309Y-63393535D01*
X42044084Y-57251761D01*
X42105451Y-57210757D01*
X42267900Y-56967635D01*
X42273000Y-56941996D01*
X42273000Y-71065000D01*
X3241089Y-71065000D01*
X2654908Y-70999249D01*
X2136899Y-70818859D01*
X1671734Y-70528192D01*
X1282524Y-70141689D01*
X988614Y-69678562D01*
X804617Y-69161837D01*
X735000Y-68578016D01*
X735000Y-65354887D01*
X2385000Y-65354887D01*
X2385000Y-66045113D01*
X2649138Y-66682799D01*
X3137201Y-67170862D01*
X3774887Y-67435000D01*
X4465113Y-67435000D01*
X5102799Y-67170862D01*
X5590862Y-66682799D01*
X5855000Y-66045113D01*
X5855000Y-65354887D01*
X14385000Y-65354887D01*
X14385000Y-66045113D01*
X14649138Y-66682799D01*
X15137201Y-67170862D01*
X15774887Y-67435000D01*
X16465113Y-67435000D01*
X17102799Y-67170862D01*
X17590862Y-66682799D01*
X17855000Y-66045113D01*
X17855000Y-65354887D01*
X17590862Y-64717201D01*
X17157787Y-64284126D01*
X37085000Y-64284126D01*
X37085000Y-64695874D01*
X37242569Y-65076280D01*
X37533720Y-65367431D01*
X37914126Y-65525000D01*
X38325874Y-65525000D01*
X38706280Y-65367431D01*
X38834585Y-65239126D01*
X39060000Y-65239126D01*
X39060000Y-65650874D01*
X39217569Y-66031280D01*
X39508720Y-66322431D01*
X39889126Y-66480000D01*
X40300874Y-66480000D01*
X40681280Y-66322431D01*
X40972431Y-66031280D01*
X41130000Y-65650874D01*
X41130000Y-65239126D01*
X40972431Y-64858720D01*
X40681280Y-64567569D01*
X40300874Y-64410000D01*
X39889126Y-64410000D01*
X39508720Y-64567569D01*
X39217569Y-64858720D01*
X39060000Y-65239126D01*
X38834585Y-65239126D01*
X38997431Y-65076280D01*
X39155000Y-64695874D01*
X39155000Y-64284126D01*
X38997431Y-63903720D01*
X38706280Y-63612569D01*
X38325874Y-63455000D01*
X37914126Y-63455000D01*
X37533720Y-63612569D01*
X37242569Y-63903720D01*
X37085000Y-64284126D01*
X17157787Y-64284126D01*
X17102799Y-64229138D01*
X16465113Y-63965000D01*
X15774887Y-63965000D01*
X15137201Y-64229138D01*
X14649138Y-64717201D01*
X14385000Y-65354887D01*
X5855000Y-65354887D01*
X5590862Y-64717201D01*
X5102799Y-64229138D01*
X4465113Y-63965000D01*
X3774887Y-63965000D01*
X3137201Y-64229138D01*
X2649138Y-64717201D01*
X2385000Y-65354887D01*
X735000Y-65354887D01*
X735000Y-57286892D01*
X3200000Y-57286892D01*
X3200000Y-57613108D01*
X3324837Y-57914493D01*
X3555507Y-58145163D01*
X3856892Y-58270000D01*
X4183108Y-58270000D01*
X4484493Y-58145163D01*
X4605117Y-58024539D01*
X4600000Y-58036892D01*
X4600000Y-58136499D01*
X4498652Y-58143768D01*
X4306425Y-58223391D01*
X4310961Y-58410146D01*
X4720000Y-58819185D01*
X4758538Y-58780648D01*
X4889353Y-58911463D01*
X4850815Y-58950000D01*
X5259854Y-59359039D01*
X5446609Y-59363575D01*
X5549568Y-59054032D01*
X5547127Y-59020000D01*
X5583108Y-59020000D01*
X5884493Y-58895163D01*
X6115163Y-58664493D01*
X6240000Y-58363108D01*
X6240000Y-58036892D01*
X6115163Y-57735507D01*
X5884493Y-57504837D01*
X5583108Y-57380000D01*
X5256892Y-57380000D01*
X4955507Y-57504837D01*
X4834883Y-57625461D01*
X4840000Y-57613108D01*
X4840000Y-57513501D01*
X4941348Y-57506232D01*
X5133575Y-57426609D01*
X5129039Y-57239854D01*
X4720000Y-56830815D01*
X4681463Y-56869353D01*
X4550648Y-56738538D01*
X4589185Y-56700000D01*
X4850815Y-56700000D01*
X5259854Y-57109039D01*
X5446609Y-57113575D01*
X5549568Y-56804032D01*
X5526232Y-56478652D01*
X5446609Y-56286425D01*
X5259854Y-56290961D01*
X4850815Y-56700000D01*
X4589185Y-56700000D01*
X4180146Y-56290961D01*
X3993391Y-56286425D01*
X3890432Y-56595968D01*
X3892873Y-56630000D01*
X3856892Y-56630000D01*
X3555507Y-56754837D01*
X3324837Y-56985507D01*
X3200000Y-57286892D01*
X735000Y-57286892D01*
X735000Y-55973391D01*
X4306425Y-55973391D01*
X4310961Y-56160146D01*
X4720000Y-56569185D01*
X5129039Y-56160146D01*
X5133575Y-55973391D01*
X8106425Y-55973391D01*
X8110961Y-56160146D01*
X8520000Y-56569185D01*
X8929039Y-56160146D01*
X8933575Y-55973391D01*
X8624032Y-55870432D01*
X8298652Y-55893768D01*
X8106425Y-55973391D01*
X5133575Y-55973391D01*
X4824032Y-55870432D01*
X4498652Y-55893768D01*
X4306425Y-55973391D01*
X735000Y-55973391D01*
X735000Y-55072388D01*
X749399Y-55000000D01*
X692354Y-54713217D01*
X529905Y-54470095D01*
X286783Y-54307646D01*
X127000Y-54275863D01*
X127000Y-53354887D01*
X2385000Y-53354887D01*
X2385000Y-54045113D01*
X2649138Y-54682799D01*
X3137201Y-55170862D01*
X3774887Y-55435000D01*
X4465113Y-55435000D01*
X5102799Y-55170862D01*
X5590862Y-54682799D01*
X5855000Y-54045113D01*
X5855000Y-53354887D01*
X5590862Y-52717201D01*
X5102799Y-52229138D01*
X4465113Y-51965000D01*
X3774887Y-51965000D01*
X3137201Y-52229138D01*
X2649138Y-52717201D01*
X2385000Y-53354887D01*
X127000Y-53354887D01*
X127000Y-49354887D01*
X2385000Y-49354887D01*
X2385000Y-50045113D01*
X2649138Y-50682799D01*
X3137201Y-51170862D01*
X3774887Y-51435000D01*
X4465113Y-51435000D01*
X5102799Y-51170862D01*
X5590862Y-50682799D01*
X5855000Y-50045113D01*
X5855000Y-49354887D01*
X14385000Y-49354887D01*
X14385000Y-50045113D01*
X14649138Y-50682799D01*
X15137201Y-51170862D01*
X15774887Y-51435000D01*
X16465113Y-51435000D01*
X17102799Y-51170862D01*
X17590862Y-50682799D01*
X17855000Y-50045113D01*
X17855000Y-49354887D01*
X17590862Y-48717201D01*
X17157787Y-48284126D01*
X37085000Y-48284126D01*
X37085000Y-48695874D01*
X37242569Y-49076280D01*
X37533720Y-49367431D01*
X37914126Y-49525000D01*
X38325874Y-49525000D01*
X38706280Y-49367431D01*
X38834585Y-49239126D01*
X39060000Y-49239126D01*
X39060000Y-49650874D01*
X39217569Y-50031280D01*
X39508720Y-50322431D01*
X39889126Y-50480000D01*
X40300874Y-50480000D01*
X40681280Y-50322431D01*
X40972431Y-50031280D01*
X41130000Y-49650874D01*
X41130000Y-49239126D01*
X40972431Y-48858720D01*
X40681280Y-48567569D01*
X40300874Y-48410000D01*
X39889126Y-48410000D01*
X39508720Y-48567569D01*
X39217569Y-48858720D01*
X39060000Y-49239126D01*
X38834585Y-49239126D01*
X38997431Y-49076280D01*
X39155000Y-48695874D01*
X39155000Y-48284126D01*
X38997431Y-47903720D01*
X38706280Y-47612569D01*
X38325874Y-47455000D01*
X37914126Y-47455000D01*
X37533720Y-47612569D01*
X37242569Y-47903720D01*
X37085000Y-48284126D01*
X17157787Y-48284126D01*
X17102799Y-48229138D01*
X16465113Y-47965000D01*
X15774887Y-47965000D01*
X15137201Y-48229138D01*
X14649138Y-48717201D01*
X14385000Y-49354887D01*
X5855000Y-49354887D01*
X5590862Y-48717201D01*
X5102799Y-48229138D01*
X4465113Y-47965000D01*
X3774887Y-47965000D01*
X3137201Y-48229138D01*
X2649138Y-48717201D01*
X2385000Y-49354887D01*
X127000Y-49354887D01*
X127000Y-41286892D01*
X3200000Y-41286892D01*
X3200000Y-41613108D01*
X3324837Y-41914493D01*
X3555507Y-42145163D01*
X3856892Y-42270000D01*
X4183108Y-42270000D01*
X4484493Y-42145163D01*
X4605117Y-42024539D01*
X4600000Y-42036892D01*
X4600000Y-42136499D01*
X4498652Y-42143768D01*
X4306425Y-42223391D01*
X4310961Y-42410146D01*
X4720000Y-42819185D01*
X4758538Y-42780648D01*
X4889353Y-42911463D01*
X4850815Y-42950000D01*
X5259854Y-43359039D01*
X5446609Y-43363575D01*
X5549568Y-43054032D01*
X5547127Y-43020000D01*
X5583108Y-43020000D01*
X5884493Y-42895163D01*
X6115163Y-42664493D01*
X6240000Y-42363108D01*
X6240000Y-42036892D01*
X6115163Y-41735507D01*
X5884493Y-41504837D01*
X5583108Y-41380000D01*
X5256892Y-41380000D01*
X4955507Y-41504837D01*
X4834883Y-41625461D01*
X4840000Y-41613108D01*
X4840000Y-41513501D01*
X4941348Y-41506232D01*
X5133575Y-41426609D01*
X5129039Y-41239854D01*
X4720000Y-40830815D01*
X4681463Y-40869353D01*
X4550648Y-40738538D01*
X4589185Y-40700000D01*
X4850815Y-40700000D01*
X5259854Y-41109039D01*
X5446609Y-41113575D01*
X5549568Y-40804032D01*
X5526232Y-40478652D01*
X5446609Y-40286425D01*
X5259854Y-40290961D01*
X4850815Y-40700000D01*
X4589185Y-40700000D01*
X4180146Y-40290961D01*
X3993391Y-40286425D01*
X3890432Y-40595968D01*
X3892873Y-40630000D01*
X3856892Y-40630000D01*
X3555507Y-40754837D01*
X3324837Y-40985507D01*
X3200000Y-41286892D01*
X127000Y-41286892D01*
X127000Y-39973391D01*
X4306425Y-39973391D01*
X4310961Y-40160146D01*
X4720000Y-40569185D01*
X5129039Y-40160146D01*
X5133575Y-39973391D01*
X8106425Y-39973391D01*
X8110961Y-40160146D01*
X8520000Y-40569185D01*
X8929039Y-40160146D01*
X8933575Y-39973391D01*
X8624032Y-39870432D01*
X8298652Y-39893768D01*
X8106425Y-39973391D01*
X5133575Y-39973391D01*
X4824032Y-39870432D01*
X4498652Y-39893768D01*
X4306425Y-39973391D01*
X127000Y-39973391D01*
X127000Y-37354887D01*
X2385000Y-37354887D01*
X2385000Y-38045113D01*
X2649138Y-38682799D01*
X3137201Y-39170862D01*
X3774887Y-39435000D01*
X4465113Y-39435000D01*
X5102799Y-39170862D01*
X5590862Y-38682799D01*
X5855000Y-38045113D01*
X5855000Y-37354887D01*
X5590862Y-36717201D01*
X5102799Y-36229138D01*
X4465113Y-35965000D01*
X3774887Y-35965000D01*
X3137201Y-36229138D01*
X2649138Y-36717201D01*
X2385000Y-37354887D01*
X127000Y-37354887D01*
X127000Y-33354887D01*
X2385000Y-33354887D01*
X2385000Y-34045113D01*
X2649138Y-34682799D01*
X3137201Y-35170862D01*
X3774887Y-35435000D01*
X4465113Y-35435000D01*
X5102799Y-35170862D01*
X5590862Y-34682799D01*
X5855000Y-34045113D01*
X5855000Y-33354887D01*
X14385000Y-33354887D01*
X14385000Y-34045113D01*
X14649138Y-34682799D01*
X15137201Y-35170862D01*
X15774887Y-35435000D01*
X16465113Y-35435000D01*
X17102799Y-35170862D01*
X17590862Y-34682799D01*
X17855000Y-34045113D01*
X17855000Y-33354887D01*
X17590862Y-32717201D01*
X17157787Y-32284126D01*
X37085000Y-32284126D01*
X37085000Y-32695874D01*
X37242569Y-33076280D01*
X37533720Y-33367431D01*
X37914126Y-33525000D01*
X38325874Y-33525000D01*
X38706280Y-33367431D01*
X38834585Y-33239126D01*
X39060000Y-33239126D01*
X39060000Y-33650874D01*
X39217569Y-34031280D01*
X39508720Y-34322431D01*
X39889126Y-34480000D01*
X40300874Y-34480000D01*
X40681280Y-34322431D01*
X40972431Y-34031280D01*
X41130000Y-33650874D01*
X41130000Y-33239126D01*
X40972431Y-32858720D01*
X40681280Y-32567569D01*
X40300874Y-32410000D01*
X39889126Y-32410000D01*
X39508720Y-32567569D01*
X39217569Y-32858720D01*
X39060000Y-33239126D01*
X38834585Y-33239126D01*
X38997431Y-33076280D01*
X39155000Y-32695874D01*
X39155000Y-32284126D01*
X38997431Y-31903720D01*
X38706280Y-31612569D01*
X38325874Y-31455000D01*
X37914126Y-31455000D01*
X37533720Y-31612569D01*
X37242569Y-31903720D01*
X37085000Y-32284126D01*
X17157787Y-32284126D01*
X17102799Y-32229138D01*
X16465113Y-31965000D01*
X15774887Y-31965000D01*
X15137201Y-32229138D01*
X14649138Y-32717201D01*
X14385000Y-33354887D01*
X5855000Y-33354887D01*
X5590862Y-32717201D01*
X5102799Y-32229138D01*
X4465113Y-31965000D01*
X3774887Y-31965000D01*
X3137201Y-32229138D01*
X2649138Y-32717201D01*
X2385000Y-33354887D01*
X127000Y-33354887D01*
X127000Y-25286892D01*
X3200000Y-25286892D01*
X3200000Y-25613108D01*
X3324837Y-25914493D01*
X3555507Y-26145163D01*
X3856892Y-26270000D01*
X4183108Y-26270000D01*
X4484493Y-26145163D01*
X4605117Y-26024539D01*
X4600000Y-26036892D01*
X4600000Y-26136499D01*
X4498652Y-26143768D01*
X4306425Y-26223391D01*
X4310961Y-26410146D01*
X4720000Y-26819185D01*
X4758538Y-26780648D01*
X4889353Y-26911463D01*
X4850815Y-26950000D01*
X5259854Y-27359039D01*
X5446609Y-27363575D01*
X5549568Y-27054032D01*
X5547127Y-27020000D01*
X5583108Y-27020000D01*
X5884493Y-26895163D01*
X6115163Y-26664493D01*
X6240000Y-26363108D01*
X6240000Y-26036892D01*
X6115163Y-25735507D01*
X5884493Y-25504837D01*
X5583108Y-25380000D01*
X5256892Y-25380000D01*
X4955507Y-25504837D01*
X4834883Y-25625461D01*
X4840000Y-25613108D01*
X4840000Y-25513501D01*
X4941348Y-25506232D01*
X5133575Y-25426609D01*
X5129039Y-25239854D01*
X4720000Y-24830815D01*
X4681463Y-24869353D01*
X4550648Y-24738538D01*
X4589185Y-24700000D01*
X4850815Y-24700000D01*
X5259854Y-25109039D01*
X5446609Y-25113575D01*
X5549568Y-24804032D01*
X5526232Y-24478652D01*
X5446609Y-24286425D01*
X5259854Y-24290961D01*
X4850815Y-24700000D01*
X4589185Y-24700000D01*
X4180146Y-24290961D01*
X3993391Y-24286425D01*
X3890432Y-24595968D01*
X3892873Y-24630000D01*
X3856892Y-24630000D01*
X3555507Y-24754837D01*
X3324837Y-24985507D01*
X3200000Y-25286892D01*
X127000Y-25286892D01*
X127000Y-23973391D01*
X4306425Y-23973391D01*
X4310961Y-24160146D01*
X4720000Y-24569185D01*
X5129039Y-24160146D01*
X5133575Y-23973391D01*
X8106425Y-23973391D01*
X8110961Y-24160146D01*
X8520000Y-24569185D01*
X8929039Y-24160146D01*
X8933575Y-23973391D01*
X8624032Y-23870432D01*
X8298652Y-23893768D01*
X8106425Y-23973391D01*
X5133575Y-23973391D01*
X4824032Y-23870432D01*
X4498652Y-23893768D01*
X4306425Y-23973391D01*
X127000Y-23973391D01*
X127000Y-21354887D01*
X2385000Y-21354887D01*
X2385000Y-22045113D01*
X2649138Y-22682799D01*
X3137201Y-23170862D01*
X3774887Y-23435000D01*
X4465113Y-23435000D01*
X5102799Y-23170862D01*
X5590862Y-22682799D01*
X5855000Y-22045113D01*
X5855000Y-21354887D01*
X5590862Y-20717201D01*
X5102799Y-20229138D01*
X4465113Y-19965000D01*
X3774887Y-19965000D01*
X3137201Y-20229138D01*
X2649138Y-20717201D01*
X2385000Y-21354887D01*
X127000Y-21354887D01*
X127000Y-17524137D01*
X286783Y-17492354D01*
X492516Y-17354887D01*
X2385000Y-17354887D01*
X2385000Y-18045113D01*
X2649138Y-18682799D01*
X3137201Y-19170862D01*
X3774887Y-19435000D01*
X4465113Y-19435000D01*
X5102799Y-19170862D01*
X5590862Y-18682799D01*
X5855000Y-18045113D01*
X5855000Y-17354887D01*
X14385000Y-17354887D01*
X14385000Y-18045113D01*
X14649138Y-18682799D01*
X15137201Y-19170862D01*
X15774887Y-19435000D01*
X16465113Y-19435000D01*
X17102799Y-19170862D01*
X17590862Y-18682799D01*
X17855000Y-18045113D01*
X17855000Y-17354887D01*
X17590862Y-16717201D01*
X17157787Y-16284126D01*
X37085000Y-16284126D01*
X37085000Y-16695874D01*
X37242569Y-17076280D01*
X37533720Y-17367431D01*
X37914126Y-17525000D01*
X38325874Y-17525000D01*
X38706280Y-17367431D01*
X38834585Y-17239126D01*
X39060000Y-17239126D01*
X39060000Y-17650874D01*
X39217569Y-18031280D01*
X39508720Y-18322431D01*
X39889126Y-18480000D01*
X40300874Y-18480000D01*
X40681280Y-18322431D01*
X40972431Y-18031280D01*
X41130000Y-17650874D01*
X41130000Y-17239126D01*
X40972431Y-16858720D01*
X40681280Y-16567569D01*
X40300874Y-16410000D01*
X39889126Y-16410000D01*
X39508720Y-16567569D01*
X39217569Y-16858720D01*
X39060000Y-17239126D01*
X38834585Y-17239126D01*
X38997431Y-17076280D01*
X39155000Y-16695874D01*
X39155000Y-16284126D01*
X38997431Y-15903720D01*
X38706280Y-15612569D01*
X38325874Y-15455000D01*
X37914126Y-15455000D01*
X37533720Y-15612569D01*
X37242569Y-15903720D01*
X37085000Y-16284126D01*
X17157787Y-16284126D01*
X17102799Y-16229138D01*
X16465113Y-15965000D01*
X15774887Y-15965000D01*
X15137201Y-16229138D01*
X14649138Y-16717201D01*
X14385000Y-17354887D01*
X5855000Y-17354887D01*
X5590862Y-16717201D01*
X5102799Y-16229138D01*
X4465113Y-15965000D01*
X3774887Y-15965000D01*
X3137201Y-16229138D01*
X2649138Y-16717201D01*
X2385000Y-17354887D01*
X492516Y-17354887D01*
X529905Y-17329905D01*
X692354Y-17086783D01*
X749399Y-16800000D01*
X735000Y-16727612D01*
X735000Y-9286892D01*
X3200000Y-9286892D01*
X3200000Y-9613108D01*
X3324837Y-9914493D01*
X3555507Y-10145163D01*
X3856892Y-10270000D01*
X4183108Y-10270000D01*
X4484493Y-10145163D01*
X4605117Y-10024539D01*
X4600000Y-10036892D01*
X4600000Y-10136499D01*
X4498652Y-10143768D01*
X4306425Y-10223391D01*
X4310961Y-10410146D01*
X4720000Y-10819185D01*
X4758538Y-10780648D01*
X4889353Y-10911463D01*
X4850815Y-10950000D01*
X5259854Y-11359039D01*
X5446609Y-11363575D01*
X5549568Y-11054032D01*
X5547127Y-11020000D01*
X5583108Y-11020000D01*
X5884493Y-10895163D01*
X6115163Y-10664493D01*
X6240000Y-10363108D01*
X6240000Y-10036892D01*
X6115163Y-9735507D01*
X5884493Y-9504837D01*
X5583108Y-9380000D01*
X5256892Y-9380000D01*
X4955507Y-9504837D01*
X4834883Y-9625461D01*
X4840000Y-9613108D01*
X4840000Y-9513501D01*
X4941348Y-9506232D01*
X5133575Y-9426609D01*
X5129039Y-9239854D01*
X4720000Y-8830815D01*
X4681463Y-8869353D01*
X4550648Y-8738538D01*
X4589185Y-8700000D01*
X4850815Y-8700000D01*
X5259854Y-9109039D01*
X5446609Y-9113575D01*
X5549568Y-8804032D01*
X5526232Y-8478652D01*
X5446609Y-8286425D01*
X5259854Y-8290961D01*
X4850815Y-8700000D01*
X4589185Y-8700000D01*
X4180146Y-8290961D01*
X3993391Y-8286425D01*
X3890432Y-8595968D01*
X3892873Y-8630000D01*
X3856892Y-8630000D01*
X3555507Y-8754837D01*
X3324837Y-8985507D01*
X3200000Y-9286892D01*
X735000Y-9286892D01*
X735000Y-7973391D01*
X4306425Y-7973391D01*
X4310961Y-8160146D01*
X4720000Y-8569185D01*
X5129039Y-8160146D01*
X5133575Y-7973391D01*
X8106425Y-7973391D01*
X8110961Y-8160146D01*
X8520000Y-8569185D01*
X8929039Y-8160146D01*
X8933575Y-7973391D01*
X8624032Y-7870432D01*
X8298652Y-7893768D01*
X8106425Y-7973391D01*
X5133575Y-7973391D01*
X4824032Y-7870432D01*
X4498652Y-7893768D01*
X4306425Y-7973391D01*
X735000Y-7973391D01*
X735000Y-5354887D01*
X2385000Y-5354887D01*
X2385000Y-6045113D01*
X2649138Y-6682799D01*
X3137201Y-7170862D01*
X3774887Y-7435000D01*
X4465113Y-7435000D01*
X5102799Y-7170862D01*
X5590862Y-6682799D01*
X5855000Y-6045113D01*
X5855000Y-5354887D01*
X5590862Y-4717201D01*
X5102799Y-4229138D01*
X4465113Y-3965000D01*
X3774887Y-3965000D01*
X3137201Y-4229138D01*
X2649138Y-4717201D01*
X2385000Y-5354887D01*
X735000Y-5354887D01*
X735000Y-3241089D01*
X800751Y-2654908D01*
X981140Y-2136900D01*
X1271808Y-1671734D01*
X1658308Y-1282526D01*
X2121438Y-988614D01*
X2638164Y-804617D01*
X3221984Y-735000D01*
X42273000Y-735000D01*
X42273000Y-6140000D01*
G36*
X12489353Y-61161463D02*
X12450815Y-61200000D01*
X12489353Y-61238538D01*
X12358538Y-61369353D01*
X12320000Y-61330815D01*
X12281463Y-61369353D01*
X12150648Y-61238538D01*
X12189185Y-61200000D01*
X12150648Y-61161463D01*
X12281463Y-61030648D01*
X12320000Y-61069185D01*
X12358538Y-61030648D01*
X12489353Y-61161463D01*
X12489353Y-61161463D01*
G37*
X12489353Y-61161463D02*
X12450815Y-61200000D01*
X12489353Y-61238538D01*
X12358538Y-61369353D01*
X12320000Y-61330815D01*
X12281463Y-61369353D01*
X12150648Y-61238538D01*
X12189185Y-61200000D01*
X12150648Y-61161463D01*
X12281463Y-61030648D01*
X12320000Y-61069185D01*
X12358538Y-61030648D01*
X12489353Y-61161463D01*
G36*
X16289353Y-61161463D02*
X16250815Y-61200000D01*
X16289353Y-61238538D01*
X16158538Y-61369353D01*
X16120000Y-61330815D01*
X16081463Y-61369353D01*
X15950648Y-61238538D01*
X15989185Y-61200000D01*
X15950648Y-61161463D01*
X16081463Y-61030648D01*
X16120000Y-61069185D01*
X16158538Y-61030648D01*
X16289353Y-61161463D01*
X16289353Y-61161463D01*
G37*
X16289353Y-61161463D02*
X16250815Y-61200000D01*
X16289353Y-61238538D01*
X16158538Y-61369353D01*
X16120000Y-61330815D01*
X16081463Y-61369353D01*
X15950648Y-61238538D01*
X15989185Y-61200000D01*
X15950648Y-61161463D01*
X16081463Y-61030648D01*
X16120000Y-61069185D01*
X16158538Y-61030648D01*
X16289353Y-61161463D01*
G36*
X15530138Y-56289746D02*
X15393391Y-56286425D01*
X15290432Y-56595968D01*
X15292873Y-56630000D01*
X15256892Y-56630000D01*
X14955507Y-56754837D01*
X14724837Y-56985507D01*
X14600000Y-57286892D01*
X14600000Y-57613108D01*
X14724837Y-57914493D01*
X14955507Y-58145163D01*
X15256892Y-58270000D01*
X15583108Y-58270000D01*
X15884493Y-58145163D01*
X16005117Y-58024539D01*
X16000000Y-58036892D01*
X16000000Y-58136499D01*
X15898652Y-58143768D01*
X15706425Y-58223391D01*
X15710961Y-58410146D01*
X15794626Y-58493811D01*
X15725189Y-58479999D01*
X15725185Y-58479999D01*
X15652801Y-58465601D01*
X15580417Y-58479999D01*
X13811586Y-58479999D01*
X13793105Y-58476323D01*
X13840000Y-58363108D01*
X13840000Y-58036892D01*
X13715163Y-57735507D01*
X13484493Y-57504837D01*
X13183108Y-57380000D01*
X12856892Y-57380000D01*
X12555507Y-57504837D01*
X12434883Y-57625461D01*
X12440000Y-57613108D01*
X12440000Y-57513501D01*
X12541348Y-57506232D01*
X12733575Y-57426609D01*
X12729039Y-57239854D01*
X12320000Y-56830815D01*
X12281463Y-56869353D01*
X12150648Y-56738538D01*
X12189185Y-56700000D01*
X12150648Y-56661463D01*
X12281463Y-56530648D01*
X12320000Y-56569185D01*
X12358538Y-56530648D01*
X12489353Y-56661463D01*
X12450815Y-56700000D01*
X12859854Y-57109039D01*
X13046609Y-57113575D01*
X13149568Y-56804032D01*
X13126232Y-56478652D01*
X13046609Y-56286425D01*
X12909862Y-56289746D01*
X12914616Y-56284992D01*
X15525384Y-56284992D01*
X15530138Y-56289746D01*
X15530138Y-56289746D01*
G37*
X15530138Y-56289746D02*
X15393391Y-56286425D01*
X15290432Y-56595968D01*
X15292873Y-56630000D01*
X15256892Y-56630000D01*
X14955507Y-56754837D01*
X14724837Y-56985507D01*
X14600000Y-57286892D01*
X14600000Y-57613108D01*
X14724837Y-57914493D01*
X14955507Y-58145163D01*
X15256892Y-58270000D01*
X15583108Y-58270000D01*
X15884493Y-58145163D01*
X16005117Y-58024539D01*
X16000000Y-58036892D01*
X16000000Y-58136499D01*
X15898652Y-58143768D01*
X15706425Y-58223391D01*
X15710961Y-58410146D01*
X15794626Y-58493811D01*
X15725189Y-58479999D01*
X15725185Y-58479999D01*
X15652801Y-58465601D01*
X15580417Y-58479999D01*
X13811586Y-58479999D01*
X13793105Y-58476323D01*
X13840000Y-58363108D01*
X13840000Y-58036892D01*
X13715163Y-57735507D01*
X13484493Y-57504837D01*
X13183108Y-57380000D01*
X12856892Y-57380000D01*
X12555507Y-57504837D01*
X12434883Y-57625461D01*
X12440000Y-57613108D01*
X12440000Y-57513501D01*
X12541348Y-57506232D01*
X12733575Y-57426609D01*
X12729039Y-57239854D01*
X12320000Y-56830815D01*
X12281463Y-56869353D01*
X12150648Y-56738538D01*
X12189185Y-56700000D01*
X12150648Y-56661463D01*
X12281463Y-56530648D01*
X12320000Y-56569185D01*
X12358538Y-56530648D01*
X12489353Y-56661463D01*
X12450815Y-56700000D01*
X12859854Y-57109039D01*
X13046609Y-57113575D01*
X13149568Y-56804032D01*
X13126232Y-56478652D01*
X13046609Y-56286425D01*
X12909862Y-56289746D01*
X12914616Y-56284992D01*
X15525384Y-56284992D01*
X15530138Y-56289746D01*
G36*
X25140545Y-56338309D02*
X25140545Y-56650601D01*
X25260054Y-56939122D01*
X25480878Y-57159946D01*
X25769399Y-57279455D01*
X25864700Y-57279455D01*
X25369147Y-57775008D01*
X17531525Y-57775008D01*
X17515163Y-57735507D01*
X17284493Y-57504837D01*
X16983108Y-57380000D01*
X16656892Y-57380000D01*
X16355507Y-57504837D01*
X16234883Y-57625461D01*
X16240000Y-57613108D01*
X16240000Y-57513501D01*
X16341348Y-57506232D01*
X16533575Y-57426609D01*
X16529039Y-57239854D01*
X16120000Y-56830815D01*
X16081463Y-56869353D01*
X15950648Y-56738538D01*
X15989185Y-56700000D01*
X15950648Y-56661463D01*
X16081463Y-56530648D01*
X16120000Y-56569185D01*
X16158538Y-56530648D01*
X16289353Y-56661463D01*
X16250815Y-56700000D01*
X16659854Y-57109039D01*
X16846609Y-57113575D01*
X16949568Y-56804032D01*
X16926232Y-56478652D01*
X16846609Y-56286425D01*
X16709862Y-56289746D01*
X16714616Y-56284992D01*
X16906009Y-56284992D01*
X16978393Y-56299390D01*
X17050777Y-56284992D01*
X17050781Y-56284992D01*
X17265176Y-56242346D01*
X17508298Y-56079897D01*
X17521593Y-56060000D01*
X25255824Y-56060000D01*
X25140545Y-56338309D01*
X25140545Y-56338309D01*
G37*
X25140545Y-56338309D02*
X25140545Y-56650601D01*
X25260054Y-56939122D01*
X25480878Y-57159946D01*
X25769399Y-57279455D01*
X25864700Y-57279455D01*
X25369147Y-57775008D01*
X17531525Y-57775008D01*
X17515163Y-57735507D01*
X17284493Y-57504837D01*
X16983108Y-57380000D01*
X16656892Y-57380000D01*
X16355507Y-57504837D01*
X16234883Y-57625461D01*
X16240000Y-57613108D01*
X16240000Y-57513501D01*
X16341348Y-57506232D01*
X16533575Y-57426609D01*
X16529039Y-57239854D01*
X16120000Y-56830815D01*
X16081463Y-56869353D01*
X15950648Y-56738538D01*
X15989185Y-56700000D01*
X15950648Y-56661463D01*
X16081463Y-56530648D01*
X16120000Y-56569185D01*
X16158538Y-56530648D01*
X16289353Y-56661463D01*
X16250815Y-56700000D01*
X16659854Y-57109039D01*
X16846609Y-57113575D01*
X16949568Y-56804032D01*
X16926232Y-56478652D01*
X16846609Y-56286425D01*
X16709862Y-56289746D01*
X16714616Y-56284992D01*
X16906009Y-56284992D01*
X16978393Y-56299390D01*
X17050777Y-56284992D01*
X17050781Y-56284992D01*
X17265176Y-56242346D01*
X17508298Y-56079897D01*
X17521593Y-56060000D01*
X25255824Y-56060000D01*
X25140545Y-56338309D01*
G36*
X12489353Y-45161463D02*
X12450815Y-45200000D01*
X12489353Y-45238538D01*
X12358538Y-45369353D01*
X12320000Y-45330815D01*
X12281463Y-45369353D01*
X12150648Y-45238538D01*
X12189185Y-45200000D01*
X12150648Y-45161463D01*
X12281463Y-45030648D01*
X12320000Y-45069185D01*
X12358538Y-45030648D01*
X12489353Y-45161463D01*
X12489353Y-45161463D01*
G37*
X12489353Y-45161463D02*
X12450815Y-45200000D01*
X12489353Y-45238538D01*
X12358538Y-45369353D01*
X12320000Y-45330815D01*
X12281463Y-45369353D01*
X12150648Y-45238538D01*
X12189185Y-45200000D01*
X12150648Y-45161463D01*
X12281463Y-45030648D01*
X12320000Y-45069185D01*
X12358538Y-45030648D01*
X12489353Y-45161463D01*
G36*
X16289353Y-45161463D02*
X16250815Y-45200000D01*
X16289353Y-45238538D01*
X16158538Y-45369353D01*
X16120000Y-45330815D01*
X16081463Y-45369353D01*
X15950648Y-45238538D01*
X15989185Y-45200000D01*
X15950648Y-45161463D01*
X16081463Y-45030648D01*
X16120000Y-45069185D01*
X16158538Y-45030648D01*
X16289353Y-45161463D01*
X16289353Y-45161463D01*
G37*
X16289353Y-45161463D02*
X16250815Y-45200000D01*
X16289353Y-45238538D01*
X16158538Y-45369353D01*
X16120000Y-45330815D01*
X16081463Y-45369353D01*
X15950648Y-45238538D01*
X15989185Y-45200000D01*
X15950648Y-45161463D01*
X16081463Y-45030648D01*
X16120000Y-45069185D01*
X16158538Y-45030648D01*
X16289353Y-45161463D01*
G36*
X15530138Y-40289746D02*
X15393391Y-40286425D01*
X15290432Y-40595968D01*
X15292873Y-40630000D01*
X15256892Y-40630000D01*
X14955507Y-40754837D01*
X14724837Y-40985507D01*
X14600000Y-41286892D01*
X14600000Y-41613108D01*
X14724837Y-41914493D01*
X14955507Y-42145163D01*
X15256892Y-42270000D01*
X15583108Y-42270000D01*
X15884493Y-42145163D01*
X16005117Y-42024539D01*
X16000000Y-42036892D01*
X16000000Y-42136499D01*
X15898652Y-42143768D01*
X15706425Y-42223391D01*
X15710961Y-42410146D01*
X15794626Y-42493811D01*
X15725189Y-42479999D01*
X15725185Y-42479999D01*
X15652801Y-42465601D01*
X15580417Y-42479999D01*
X13811586Y-42479999D01*
X13793105Y-42476323D01*
X13840000Y-42363108D01*
X13840000Y-42036892D01*
X13715163Y-41735507D01*
X13484493Y-41504837D01*
X13183108Y-41380000D01*
X12856892Y-41380000D01*
X12555507Y-41504837D01*
X12434883Y-41625461D01*
X12440000Y-41613108D01*
X12440000Y-41513501D01*
X12541348Y-41506232D01*
X12733575Y-41426609D01*
X12729039Y-41239854D01*
X12320000Y-40830815D01*
X12281463Y-40869353D01*
X12150648Y-40738538D01*
X12189185Y-40700000D01*
X12150648Y-40661463D01*
X12281463Y-40530648D01*
X12320000Y-40569185D01*
X12358538Y-40530648D01*
X12489353Y-40661463D01*
X12450815Y-40700000D01*
X12859854Y-41109039D01*
X13046609Y-41113575D01*
X13149568Y-40804032D01*
X13126232Y-40478652D01*
X13046609Y-40286425D01*
X12909862Y-40289746D01*
X12914616Y-40284992D01*
X15525384Y-40284992D01*
X15530138Y-40289746D01*
X15530138Y-40289746D01*
G37*
X15530138Y-40289746D02*
X15393391Y-40286425D01*
X15290432Y-40595968D01*
X15292873Y-40630000D01*
X15256892Y-40630000D01*
X14955507Y-40754837D01*
X14724837Y-40985507D01*
X14600000Y-41286892D01*
X14600000Y-41613108D01*
X14724837Y-41914493D01*
X14955507Y-42145163D01*
X15256892Y-42270000D01*
X15583108Y-42270000D01*
X15884493Y-42145163D01*
X16005117Y-42024539D01*
X16000000Y-42036892D01*
X16000000Y-42136499D01*
X15898652Y-42143768D01*
X15706425Y-42223391D01*
X15710961Y-42410146D01*
X15794626Y-42493811D01*
X15725189Y-42479999D01*
X15725185Y-42479999D01*
X15652801Y-42465601D01*
X15580417Y-42479999D01*
X13811586Y-42479999D01*
X13793105Y-42476323D01*
X13840000Y-42363108D01*
X13840000Y-42036892D01*
X13715163Y-41735507D01*
X13484493Y-41504837D01*
X13183108Y-41380000D01*
X12856892Y-41380000D01*
X12555507Y-41504837D01*
X12434883Y-41625461D01*
X12440000Y-41613108D01*
X12440000Y-41513501D01*
X12541348Y-41506232D01*
X12733575Y-41426609D01*
X12729039Y-41239854D01*
X12320000Y-40830815D01*
X12281463Y-40869353D01*
X12150648Y-40738538D01*
X12189185Y-40700000D01*
X12150648Y-40661463D01*
X12281463Y-40530648D01*
X12320000Y-40569185D01*
X12358538Y-40530648D01*
X12489353Y-40661463D01*
X12450815Y-40700000D01*
X12859854Y-41109039D01*
X13046609Y-41113575D01*
X13149568Y-40804032D01*
X13126232Y-40478652D01*
X13046609Y-40286425D01*
X12909862Y-40289746D01*
X12914616Y-40284992D01*
X15525384Y-40284992D01*
X15530138Y-40289746D01*
G36*
X25140545Y-40338309D02*
X25140545Y-40650601D01*
X25260054Y-40939122D01*
X25480878Y-41159946D01*
X25769399Y-41279455D01*
X25864700Y-41279455D01*
X25369147Y-41775008D01*
X17531525Y-41775008D01*
X17515163Y-41735507D01*
X17284493Y-41504837D01*
X16983108Y-41380000D01*
X16656892Y-41380000D01*
X16355507Y-41504837D01*
X16234883Y-41625461D01*
X16240000Y-41613108D01*
X16240000Y-41513501D01*
X16341348Y-41506232D01*
X16533575Y-41426609D01*
X16529039Y-41239854D01*
X16120000Y-40830815D01*
X16081463Y-40869353D01*
X15950648Y-40738538D01*
X15989185Y-40700000D01*
X15950648Y-40661463D01*
X16081463Y-40530648D01*
X16120000Y-40569185D01*
X16158538Y-40530648D01*
X16289353Y-40661463D01*
X16250815Y-40700000D01*
X16659854Y-41109039D01*
X16846609Y-41113575D01*
X16949568Y-40804032D01*
X16926232Y-40478652D01*
X16846609Y-40286425D01*
X16709862Y-40289746D01*
X16714616Y-40284992D01*
X16906009Y-40284992D01*
X16978393Y-40299390D01*
X17050777Y-40284992D01*
X17050781Y-40284992D01*
X17265176Y-40242346D01*
X17508298Y-40079897D01*
X17521593Y-40060000D01*
X25255824Y-40060000D01*
X25140545Y-40338309D01*
X25140545Y-40338309D01*
G37*
X25140545Y-40338309D02*
X25140545Y-40650601D01*
X25260054Y-40939122D01*
X25480878Y-41159946D01*
X25769399Y-41279455D01*
X25864700Y-41279455D01*
X25369147Y-41775008D01*
X17531525Y-41775008D01*
X17515163Y-41735507D01*
X17284493Y-41504837D01*
X16983108Y-41380000D01*
X16656892Y-41380000D01*
X16355507Y-41504837D01*
X16234883Y-41625461D01*
X16240000Y-41613108D01*
X16240000Y-41513501D01*
X16341348Y-41506232D01*
X16533575Y-41426609D01*
X16529039Y-41239854D01*
X16120000Y-40830815D01*
X16081463Y-40869353D01*
X15950648Y-40738538D01*
X15989185Y-40700000D01*
X15950648Y-40661463D01*
X16081463Y-40530648D01*
X16120000Y-40569185D01*
X16158538Y-40530648D01*
X16289353Y-40661463D01*
X16250815Y-40700000D01*
X16659854Y-41109039D01*
X16846609Y-41113575D01*
X16949568Y-40804032D01*
X16926232Y-40478652D01*
X16846609Y-40286425D01*
X16709862Y-40289746D01*
X16714616Y-40284992D01*
X16906009Y-40284992D01*
X16978393Y-40299390D01*
X17050777Y-40284992D01*
X17050781Y-40284992D01*
X17265176Y-40242346D01*
X17508298Y-40079897D01*
X17521593Y-40060000D01*
X25255824Y-40060000D01*
X25140545Y-40338309D01*
G36*
X12489353Y-29161463D02*
X12450815Y-29200000D01*
X12489353Y-29238538D01*
X12358538Y-29369353D01*
X12320000Y-29330815D01*
X12281463Y-29369353D01*
X12150648Y-29238538D01*
X12189185Y-29200000D01*
X12150648Y-29161463D01*
X12281463Y-29030648D01*
X12320000Y-29069185D01*
X12358538Y-29030648D01*
X12489353Y-29161463D01*
X12489353Y-29161463D01*
G37*
X12489353Y-29161463D02*
X12450815Y-29200000D01*
X12489353Y-29238538D01*
X12358538Y-29369353D01*
X12320000Y-29330815D01*
X12281463Y-29369353D01*
X12150648Y-29238538D01*
X12189185Y-29200000D01*
X12150648Y-29161463D01*
X12281463Y-29030648D01*
X12320000Y-29069185D01*
X12358538Y-29030648D01*
X12489353Y-29161463D01*
G36*
X16289353Y-29161463D02*
X16250815Y-29200000D01*
X16289353Y-29238538D01*
X16158538Y-29369353D01*
X16120000Y-29330815D01*
X16081463Y-29369353D01*
X15950648Y-29238538D01*
X15989185Y-29200000D01*
X15950648Y-29161463D01*
X16081463Y-29030648D01*
X16120000Y-29069185D01*
X16158538Y-29030648D01*
X16289353Y-29161463D01*
X16289353Y-29161463D01*
G37*
X16289353Y-29161463D02*
X16250815Y-29200000D01*
X16289353Y-29238538D01*
X16158538Y-29369353D01*
X16120000Y-29330815D01*
X16081463Y-29369353D01*
X15950648Y-29238538D01*
X15989185Y-29200000D01*
X15950648Y-29161463D01*
X16081463Y-29030648D01*
X16120000Y-29069185D01*
X16158538Y-29030648D01*
X16289353Y-29161463D01*
G36*
X15530138Y-24289746D02*
X15393391Y-24286425D01*
X15290432Y-24595968D01*
X15292873Y-24630000D01*
X15256892Y-24630000D01*
X14955507Y-24754837D01*
X14724837Y-24985507D01*
X14600000Y-25286892D01*
X14600000Y-25613108D01*
X14724837Y-25914493D01*
X14955507Y-26145163D01*
X15256892Y-26270000D01*
X15583108Y-26270000D01*
X15884493Y-26145163D01*
X16005117Y-26024539D01*
X16000000Y-26036892D01*
X16000000Y-26136499D01*
X15898652Y-26143768D01*
X15706425Y-26223391D01*
X15710961Y-26410146D01*
X15794626Y-26493811D01*
X15725189Y-26479999D01*
X15725185Y-26479999D01*
X15652801Y-26465601D01*
X15580417Y-26479999D01*
X13811586Y-26479999D01*
X13793105Y-26476323D01*
X13840000Y-26363108D01*
X13840000Y-26036892D01*
X13715163Y-25735507D01*
X13484493Y-25504837D01*
X13183108Y-25380000D01*
X12856892Y-25380000D01*
X12555507Y-25504837D01*
X12434883Y-25625461D01*
X12440000Y-25613108D01*
X12440000Y-25513501D01*
X12541348Y-25506232D01*
X12733575Y-25426609D01*
X12729039Y-25239854D01*
X12320000Y-24830815D01*
X12281463Y-24869353D01*
X12150648Y-24738538D01*
X12189185Y-24700000D01*
X12150648Y-24661463D01*
X12281463Y-24530648D01*
X12320000Y-24569185D01*
X12358538Y-24530648D01*
X12489353Y-24661463D01*
X12450815Y-24700000D01*
X12859854Y-25109039D01*
X13046609Y-25113575D01*
X13149568Y-24804032D01*
X13126232Y-24478652D01*
X13046609Y-24286425D01*
X12909862Y-24289746D01*
X12914616Y-24284992D01*
X15525384Y-24284992D01*
X15530138Y-24289746D01*
X15530138Y-24289746D01*
G37*
X15530138Y-24289746D02*
X15393391Y-24286425D01*
X15290432Y-24595968D01*
X15292873Y-24630000D01*
X15256892Y-24630000D01*
X14955507Y-24754837D01*
X14724837Y-24985507D01*
X14600000Y-25286892D01*
X14600000Y-25613108D01*
X14724837Y-25914493D01*
X14955507Y-26145163D01*
X15256892Y-26270000D01*
X15583108Y-26270000D01*
X15884493Y-26145163D01*
X16005117Y-26024539D01*
X16000000Y-26036892D01*
X16000000Y-26136499D01*
X15898652Y-26143768D01*
X15706425Y-26223391D01*
X15710961Y-26410146D01*
X15794626Y-26493811D01*
X15725189Y-26479999D01*
X15725185Y-26479999D01*
X15652801Y-26465601D01*
X15580417Y-26479999D01*
X13811586Y-26479999D01*
X13793105Y-26476323D01*
X13840000Y-26363108D01*
X13840000Y-26036892D01*
X13715163Y-25735507D01*
X13484493Y-25504837D01*
X13183108Y-25380000D01*
X12856892Y-25380000D01*
X12555507Y-25504837D01*
X12434883Y-25625461D01*
X12440000Y-25613108D01*
X12440000Y-25513501D01*
X12541348Y-25506232D01*
X12733575Y-25426609D01*
X12729039Y-25239854D01*
X12320000Y-24830815D01*
X12281463Y-24869353D01*
X12150648Y-24738538D01*
X12189185Y-24700000D01*
X12150648Y-24661463D01*
X12281463Y-24530648D01*
X12320000Y-24569185D01*
X12358538Y-24530648D01*
X12489353Y-24661463D01*
X12450815Y-24700000D01*
X12859854Y-25109039D01*
X13046609Y-25113575D01*
X13149568Y-24804032D01*
X13126232Y-24478652D01*
X13046609Y-24286425D01*
X12909862Y-24289746D01*
X12914616Y-24284992D01*
X15525384Y-24284992D01*
X15530138Y-24289746D01*
G36*
X25140545Y-24338309D02*
X25140545Y-24650601D01*
X25260054Y-24939122D01*
X25480878Y-25159946D01*
X25769399Y-25279455D01*
X25864700Y-25279455D01*
X25369147Y-25775008D01*
X17531525Y-25775008D01*
X17515163Y-25735507D01*
X17284493Y-25504837D01*
X16983108Y-25380000D01*
X16656892Y-25380000D01*
X16355507Y-25504837D01*
X16234883Y-25625461D01*
X16240000Y-25613108D01*
X16240000Y-25513501D01*
X16341348Y-25506232D01*
X16533575Y-25426609D01*
X16529039Y-25239854D01*
X16120000Y-24830815D01*
X16081463Y-24869353D01*
X15950648Y-24738538D01*
X15989185Y-24700000D01*
X15950648Y-24661463D01*
X16081463Y-24530648D01*
X16120000Y-24569185D01*
X16158538Y-24530648D01*
X16289353Y-24661463D01*
X16250815Y-24700000D01*
X16659854Y-25109039D01*
X16846609Y-25113575D01*
X16949568Y-24804032D01*
X16926232Y-24478652D01*
X16846609Y-24286425D01*
X16709862Y-24289746D01*
X16714616Y-24284992D01*
X16906009Y-24284992D01*
X16978393Y-24299390D01*
X17050777Y-24284992D01*
X17050781Y-24284992D01*
X17265176Y-24242346D01*
X17508298Y-24079897D01*
X17521593Y-24060000D01*
X25255824Y-24060000D01*
X25140545Y-24338309D01*
X25140545Y-24338309D01*
G37*
X25140545Y-24338309D02*
X25140545Y-24650601D01*
X25260054Y-24939122D01*
X25480878Y-25159946D01*
X25769399Y-25279455D01*
X25864700Y-25279455D01*
X25369147Y-25775008D01*
X17531525Y-25775008D01*
X17515163Y-25735507D01*
X17284493Y-25504837D01*
X16983108Y-25380000D01*
X16656892Y-25380000D01*
X16355507Y-25504837D01*
X16234883Y-25625461D01*
X16240000Y-25613108D01*
X16240000Y-25513501D01*
X16341348Y-25506232D01*
X16533575Y-25426609D01*
X16529039Y-25239854D01*
X16120000Y-24830815D01*
X16081463Y-24869353D01*
X15950648Y-24738538D01*
X15989185Y-24700000D01*
X15950648Y-24661463D01*
X16081463Y-24530648D01*
X16120000Y-24569185D01*
X16158538Y-24530648D01*
X16289353Y-24661463D01*
X16250815Y-24700000D01*
X16659854Y-25109039D01*
X16846609Y-25113575D01*
X16949568Y-24804032D01*
X16926232Y-24478652D01*
X16846609Y-24286425D01*
X16709862Y-24289746D01*
X16714616Y-24284992D01*
X16906009Y-24284992D01*
X16978393Y-24299390D01*
X17050777Y-24284992D01*
X17050781Y-24284992D01*
X17265176Y-24242346D01*
X17508298Y-24079897D01*
X17521593Y-24060000D01*
X25255824Y-24060000D01*
X25140545Y-24338309D01*
G36*
X12489353Y-13161463D02*
X12450815Y-13200000D01*
X12489353Y-13238538D01*
X12358538Y-13369353D01*
X12320000Y-13330815D01*
X12281463Y-13369353D01*
X12150648Y-13238538D01*
X12189185Y-13200000D01*
X12150648Y-13161463D01*
X12281463Y-13030648D01*
X12320000Y-13069185D01*
X12358538Y-13030648D01*
X12489353Y-13161463D01*
X12489353Y-13161463D01*
G37*
X12489353Y-13161463D02*
X12450815Y-13200000D01*
X12489353Y-13238538D01*
X12358538Y-13369353D01*
X12320000Y-13330815D01*
X12281463Y-13369353D01*
X12150648Y-13238538D01*
X12189185Y-13200000D01*
X12150648Y-13161463D01*
X12281463Y-13030648D01*
X12320000Y-13069185D01*
X12358538Y-13030648D01*
X12489353Y-13161463D01*
G36*
X16289353Y-13161463D02*
X16250815Y-13200000D01*
X16289353Y-13238538D01*
X16158538Y-13369353D01*
X16120000Y-13330815D01*
X16081463Y-13369353D01*
X15950648Y-13238538D01*
X15989185Y-13200000D01*
X15950648Y-13161463D01*
X16081463Y-13030648D01*
X16120000Y-13069185D01*
X16158538Y-13030648D01*
X16289353Y-13161463D01*
X16289353Y-13161463D01*
G37*
X16289353Y-13161463D02*
X16250815Y-13200000D01*
X16289353Y-13238538D01*
X16158538Y-13369353D01*
X16120000Y-13330815D01*
X16081463Y-13369353D01*
X15950648Y-13238538D01*
X15989185Y-13200000D01*
X15950648Y-13161463D01*
X16081463Y-13030648D01*
X16120000Y-13069185D01*
X16158538Y-13030648D01*
X16289353Y-13161463D01*
G36*
X15530138Y-8289746D02*
X15393391Y-8286425D01*
X15290432Y-8595968D01*
X15292873Y-8630000D01*
X15256892Y-8630000D01*
X14955507Y-8754837D01*
X14724837Y-8985507D01*
X14600000Y-9286892D01*
X14600000Y-9613108D01*
X14724837Y-9914493D01*
X14955507Y-10145163D01*
X15256892Y-10270000D01*
X15583108Y-10270000D01*
X15884493Y-10145163D01*
X16005117Y-10024539D01*
X16000000Y-10036892D01*
X16000000Y-10136499D01*
X15898652Y-10143768D01*
X15706425Y-10223391D01*
X15710961Y-10410146D01*
X15794626Y-10493811D01*
X15725189Y-10479999D01*
X15725185Y-10479999D01*
X15652801Y-10465601D01*
X15580417Y-10479999D01*
X13811586Y-10479999D01*
X13793105Y-10476323D01*
X13840000Y-10363108D01*
X13840000Y-10036892D01*
X13715163Y-9735507D01*
X13484493Y-9504837D01*
X13183108Y-9380000D01*
X12856892Y-9380000D01*
X12555507Y-9504837D01*
X12434883Y-9625461D01*
X12440000Y-9613108D01*
X12440000Y-9513501D01*
X12541348Y-9506232D01*
X12733575Y-9426609D01*
X12729039Y-9239854D01*
X12320000Y-8830815D01*
X12281463Y-8869353D01*
X12150648Y-8738538D01*
X12189185Y-8700000D01*
X12150648Y-8661463D01*
X12281463Y-8530648D01*
X12320000Y-8569185D01*
X12358538Y-8530648D01*
X12489353Y-8661463D01*
X12450815Y-8700000D01*
X12859854Y-9109039D01*
X13046609Y-9113575D01*
X13149568Y-8804032D01*
X13126232Y-8478652D01*
X13046609Y-8286425D01*
X12909862Y-8289746D01*
X12914616Y-8284992D01*
X15525384Y-8284992D01*
X15530138Y-8289746D01*
X15530138Y-8289746D01*
G37*
X15530138Y-8289746D02*
X15393391Y-8286425D01*
X15290432Y-8595968D01*
X15292873Y-8630000D01*
X15256892Y-8630000D01*
X14955507Y-8754837D01*
X14724837Y-8985507D01*
X14600000Y-9286892D01*
X14600000Y-9613108D01*
X14724837Y-9914493D01*
X14955507Y-10145163D01*
X15256892Y-10270000D01*
X15583108Y-10270000D01*
X15884493Y-10145163D01*
X16005117Y-10024539D01*
X16000000Y-10036892D01*
X16000000Y-10136499D01*
X15898652Y-10143768D01*
X15706425Y-10223391D01*
X15710961Y-10410146D01*
X15794626Y-10493811D01*
X15725189Y-10479999D01*
X15725185Y-10479999D01*
X15652801Y-10465601D01*
X15580417Y-10479999D01*
X13811586Y-10479999D01*
X13793105Y-10476323D01*
X13840000Y-10363108D01*
X13840000Y-10036892D01*
X13715163Y-9735507D01*
X13484493Y-9504837D01*
X13183108Y-9380000D01*
X12856892Y-9380000D01*
X12555507Y-9504837D01*
X12434883Y-9625461D01*
X12440000Y-9613108D01*
X12440000Y-9513501D01*
X12541348Y-9506232D01*
X12733575Y-9426609D01*
X12729039Y-9239854D01*
X12320000Y-8830815D01*
X12281463Y-8869353D01*
X12150648Y-8738538D01*
X12189185Y-8700000D01*
X12150648Y-8661463D01*
X12281463Y-8530648D01*
X12320000Y-8569185D01*
X12358538Y-8530648D01*
X12489353Y-8661463D01*
X12450815Y-8700000D01*
X12859854Y-9109039D01*
X13046609Y-9113575D01*
X13149568Y-8804032D01*
X13126232Y-8478652D01*
X13046609Y-8286425D01*
X12909862Y-8289746D01*
X12914616Y-8284992D01*
X15525384Y-8284992D01*
X15530138Y-8289746D01*
G36*
X25140545Y-8338309D02*
X25140545Y-8650601D01*
X25260054Y-8939122D01*
X25480878Y-9159946D01*
X25769399Y-9279455D01*
X25864700Y-9279455D01*
X25369147Y-9775008D01*
X17531525Y-9775008D01*
X17515163Y-9735507D01*
X17284493Y-9504837D01*
X16983108Y-9380000D01*
X16656892Y-9380000D01*
X16355507Y-9504837D01*
X16234883Y-9625461D01*
X16240000Y-9613108D01*
X16240000Y-9513501D01*
X16341348Y-9506232D01*
X16533575Y-9426609D01*
X16529039Y-9239854D01*
X16120000Y-8830815D01*
X16081463Y-8869353D01*
X15950648Y-8738538D01*
X15989185Y-8700000D01*
X15950648Y-8661463D01*
X16081463Y-8530648D01*
X16120000Y-8569185D01*
X16158538Y-8530648D01*
X16289353Y-8661463D01*
X16250815Y-8700000D01*
X16659854Y-9109039D01*
X16846609Y-9113575D01*
X16949568Y-8804032D01*
X16926232Y-8478652D01*
X16846609Y-8286425D01*
X16709862Y-8289746D01*
X16714616Y-8284992D01*
X16906009Y-8284992D01*
X16978393Y-8299390D01*
X17050777Y-8284992D01*
X17050781Y-8284992D01*
X17265176Y-8242346D01*
X17508298Y-8079897D01*
X17521593Y-8060000D01*
X25255824Y-8060000D01*
X25140545Y-8338309D01*
X25140545Y-8338309D01*
G37*
X25140545Y-8338309D02*
X25140545Y-8650601D01*
X25260054Y-8939122D01*
X25480878Y-9159946D01*
X25769399Y-9279455D01*
X25864700Y-9279455D01*
X25369147Y-9775008D01*
X17531525Y-9775008D01*
X17515163Y-9735507D01*
X17284493Y-9504837D01*
X16983108Y-9380000D01*
X16656892Y-9380000D01*
X16355507Y-9504837D01*
X16234883Y-9625461D01*
X16240000Y-9613108D01*
X16240000Y-9513501D01*
X16341348Y-9506232D01*
X16533575Y-9426609D01*
X16529039Y-9239854D01*
X16120000Y-8830815D01*
X16081463Y-8869353D01*
X15950648Y-8738538D01*
X15989185Y-8700000D01*
X15950648Y-8661463D01*
X16081463Y-8530648D01*
X16120000Y-8569185D01*
X16158538Y-8530648D01*
X16289353Y-8661463D01*
X16250815Y-8700000D01*
X16659854Y-9109039D01*
X16846609Y-9113575D01*
X16949568Y-8804032D01*
X16926232Y-8478652D01*
X16846609Y-8286425D01*
X16709862Y-8289746D01*
X16714616Y-8284992D01*
X16906009Y-8284992D01*
X16978393Y-8299390D01*
X17050777Y-8284992D01*
X17050781Y-8284992D01*
X17265176Y-8242346D01*
X17508298Y-8079897D01*
X17521593Y-8060000D01*
X25255824Y-8060000D01*
X25140545Y-8338309D01*
%TD*%
M02*
