M48
;DRILL file {KiCad 5.0.1-33cea8e~68~ubuntu18.10.1} date Thu Nov  1 12:10:29 2018
;FORMAT={-:-/ absolute / metric / decimal}
FMAT,2
METRIC,TZ
T1C0.100
%
G90
G05
M71
T1
X60.326Y-40.494
X60.326Y-56.494
X60.326Y-72.494
X60.326Y-88.494
X60.714Y-40.106
X60.714Y-56.106
X60.714Y-72.106
X60.714Y-88.106
X73.126Y-40.494
X73.126Y-56.494
X73.126Y-72.494
X73.126Y-88.494
X73.514Y-40.106
X73.514Y-56.106
X73.514Y-72.106
X73.514Y-88.106
X77.926Y-40.494
X77.926Y-56.494
X77.926Y-72.494
X77.926Y-88.494
X78.314Y-40.106
X78.314Y-56.106
X78.314Y-72.106
X78.314Y-88.106
T0
M30
