%TF.GenerationSoftware,KiCad,Pcbnew,5.0.1-33cea8e~68~ubuntu18.10.1*%
%TF.CreationDate,2018-11-15T12:08:50-07:00*%
%TF.ProjectId,thelio-io-sas,7468656C696F2D696F2D7361732E6B69,rev?*%
%TF.SameCoordinates,Original*%
%TF.FileFunction,Legend,Bot*%
%TF.FilePolarity,Positive*%
%FSLAX46Y46*%
G04 Gerber Fmt 4.6, Leading zero omitted, Abs format (unit mm)*
G04 Created by KiCad (PCBNEW 5.0.1-33cea8e~68~ubuntu18.10.1) date Thu Nov 15 12:08:50 2018*
%MOMM*%
%LPD*%
G01*
G04 APERTURE LIST*
%ADD10C,0.200000*%
%ADD11C,0.150000*%
%ADD12C,0.120000*%
G04 APERTURE END LIST*
D10*
X77050000Y-18400000D02*
X77050000Y-53400000D01*
X75450000Y-16800000D02*
G75*
G02X77050000Y-18400000I0J-1600000D01*
G01*
X73850000Y-16800000D02*
X75450000Y-16800000D01*
X73850000Y-55000000D02*
X75450000Y-55000000D01*
X77050000Y-53400000D02*
G75*
G02X75450000Y-55000000I-1600000J0D01*
G01*
X70650000Y0D02*
G75*
G02X73850000Y-3200000I0J-3200000D01*
G01*
D11*
X73850000Y-68600000D02*
G75*
G02X70650000Y-71800000I-3200000J0D01*
G01*
D10*
X73850000Y-16800000D02*
X73850000Y-3200000D01*
X73850000Y-55000000D02*
X73850000Y-68600000D01*
X-3200000Y-18400000D02*
G75*
G02X-1600000Y-16800000I1600000J0D01*
G01*
X0Y-16800000D02*
X-1600000Y-16800000D01*
X0Y-55000000D02*
X-1600000Y-55000000D01*
X-1600000Y-55000000D02*
G75*
G02X-3200000Y-53400000I0J1600000D01*
G01*
X-3200000Y-53400000D02*
X-3200000Y-18400000D01*
X0Y-16800000D02*
X0Y-3200000D01*
X0Y-55000000D02*
X0Y-68600000D01*
X3200000Y0D02*
X70650000Y0D01*
X0Y-3200000D02*
G75*
G02X3200000Y0I3200000J0D01*
G01*
X70650000Y-71800000D02*
X3200000Y-71800000D01*
X3200000Y-71800000D02*
G75*
G02X0Y-68600000I0J3200000D01*
G01*
D12*
%TO.C,SAS3*%
X620000Y-67280000D02*
X620000Y-52130000D01*
X620000Y-52130000D02*
X19020000Y-52130000D01*
X19020000Y-67280000D02*
X19020000Y-52130000D01*
X620000Y-67280000D02*
X19020000Y-67280000D01*
%TO.C,SAS2*%
X620000Y-51280000D02*
X620000Y-36130000D01*
X620000Y-36130000D02*
X19020000Y-36130000D01*
X19020000Y-51280000D02*
X19020000Y-36130000D01*
X620000Y-51280000D02*
X19020000Y-51280000D01*
%TO.C,SAS1*%
X620000Y-35280000D02*
X620000Y-20130000D01*
X620000Y-20130000D02*
X19020000Y-20130000D01*
X19020000Y-35280000D02*
X19020000Y-20130000D01*
X620000Y-35280000D02*
X19020000Y-35280000D01*
%TO.C,SAS0*%
X620000Y-19280000D02*
X19020000Y-19280000D01*
X19020000Y-19280000D02*
X19020000Y-4130000D01*
X620000Y-4130000D02*
X19020000Y-4130000D01*
X620000Y-19280000D02*
X620000Y-4130000D01*
%TO.C,POWER0*%
X69710000Y-70490000D02*
X69710000Y-65490000D01*
X59710000Y-70490000D02*
X69710000Y-70490000D01*
X59710000Y-65490000D02*
X59710000Y-70490000D01*
X69710000Y-65490000D02*
X59710000Y-65490000D01*
%TD*%
%TO.C,SAS3*%
D11*
X20524761Y-57833333D02*
X20572380Y-57976190D01*
X20572380Y-58214285D01*
X20524761Y-58309523D01*
X20477142Y-58357142D01*
X20381904Y-58404761D01*
X20286666Y-58404761D01*
X20191428Y-58357142D01*
X20143809Y-58309523D01*
X20096190Y-58214285D01*
X20048571Y-58023809D01*
X20000952Y-57928571D01*
X19953333Y-57880952D01*
X19858095Y-57833333D01*
X19762857Y-57833333D01*
X19667619Y-57880952D01*
X19620000Y-57928571D01*
X19572380Y-58023809D01*
X19572380Y-58261904D01*
X19620000Y-58404761D01*
X20286666Y-58785714D02*
X20286666Y-59261904D01*
X20572380Y-58690476D02*
X19572380Y-59023809D01*
X20572380Y-59357142D01*
X20524761Y-59642857D02*
X20572380Y-59785714D01*
X20572380Y-60023809D01*
X20524761Y-60119047D01*
X20477142Y-60166666D01*
X20381904Y-60214285D01*
X20286666Y-60214285D01*
X20191428Y-60166666D01*
X20143809Y-60119047D01*
X20096190Y-60023809D01*
X20048571Y-59833333D01*
X20000952Y-59738095D01*
X19953333Y-59690476D01*
X19858095Y-59642857D01*
X19762857Y-59642857D01*
X19667619Y-59690476D01*
X19620000Y-59738095D01*
X19572380Y-59833333D01*
X19572380Y-60071428D01*
X19620000Y-60214285D01*
X19572380Y-60547619D02*
X19572380Y-61166666D01*
X19953333Y-60833333D01*
X19953333Y-60976190D01*
X20000952Y-61071428D01*
X20048571Y-61119047D01*
X20143809Y-61166666D01*
X20381904Y-61166666D01*
X20477142Y-61119047D01*
X20524761Y-61071428D01*
X20572380Y-60976190D01*
X20572380Y-60690476D01*
X20524761Y-60595238D01*
X20477142Y-60547619D01*
%TO.C,SAS2*%
X20524761Y-41833333D02*
X20572380Y-41976190D01*
X20572380Y-42214285D01*
X20524761Y-42309523D01*
X20477142Y-42357142D01*
X20381904Y-42404761D01*
X20286666Y-42404761D01*
X20191428Y-42357142D01*
X20143809Y-42309523D01*
X20096190Y-42214285D01*
X20048571Y-42023809D01*
X20000952Y-41928571D01*
X19953333Y-41880952D01*
X19858095Y-41833333D01*
X19762857Y-41833333D01*
X19667619Y-41880952D01*
X19620000Y-41928571D01*
X19572380Y-42023809D01*
X19572380Y-42261904D01*
X19620000Y-42404761D01*
X20286666Y-42785714D02*
X20286666Y-43261904D01*
X20572380Y-42690476D02*
X19572380Y-43023809D01*
X20572380Y-43357142D01*
X20524761Y-43642857D02*
X20572380Y-43785714D01*
X20572380Y-44023809D01*
X20524761Y-44119047D01*
X20477142Y-44166666D01*
X20381904Y-44214285D01*
X20286666Y-44214285D01*
X20191428Y-44166666D01*
X20143809Y-44119047D01*
X20096190Y-44023809D01*
X20048571Y-43833333D01*
X20000952Y-43738095D01*
X19953333Y-43690476D01*
X19858095Y-43642857D01*
X19762857Y-43642857D01*
X19667619Y-43690476D01*
X19620000Y-43738095D01*
X19572380Y-43833333D01*
X19572380Y-44071428D01*
X19620000Y-44214285D01*
X19667619Y-44595238D02*
X19620000Y-44642857D01*
X19572380Y-44738095D01*
X19572380Y-44976190D01*
X19620000Y-45071428D01*
X19667619Y-45119047D01*
X19762857Y-45166666D01*
X19858095Y-45166666D01*
X20000952Y-45119047D01*
X20572380Y-44547619D01*
X20572380Y-45166666D01*
%TO.C,SAS1*%
X20524761Y-25833333D02*
X20572380Y-25976190D01*
X20572380Y-26214285D01*
X20524761Y-26309523D01*
X20477142Y-26357142D01*
X20381904Y-26404761D01*
X20286666Y-26404761D01*
X20191428Y-26357142D01*
X20143809Y-26309523D01*
X20096190Y-26214285D01*
X20048571Y-26023809D01*
X20000952Y-25928571D01*
X19953333Y-25880952D01*
X19858095Y-25833333D01*
X19762857Y-25833333D01*
X19667619Y-25880952D01*
X19620000Y-25928571D01*
X19572380Y-26023809D01*
X19572380Y-26261904D01*
X19620000Y-26404761D01*
X20286666Y-26785714D02*
X20286666Y-27261904D01*
X20572380Y-26690476D02*
X19572380Y-27023809D01*
X20572380Y-27357142D01*
X20524761Y-27642857D02*
X20572380Y-27785714D01*
X20572380Y-28023809D01*
X20524761Y-28119047D01*
X20477142Y-28166666D01*
X20381904Y-28214285D01*
X20286666Y-28214285D01*
X20191428Y-28166666D01*
X20143809Y-28119047D01*
X20096190Y-28023809D01*
X20048571Y-27833333D01*
X20000952Y-27738095D01*
X19953333Y-27690476D01*
X19858095Y-27642857D01*
X19762857Y-27642857D01*
X19667619Y-27690476D01*
X19620000Y-27738095D01*
X19572380Y-27833333D01*
X19572380Y-28071428D01*
X19620000Y-28214285D01*
X20572380Y-29166666D02*
X20572380Y-28595238D01*
X20572380Y-28880952D02*
X19572380Y-28880952D01*
X19715238Y-28785714D01*
X19810476Y-28690476D01*
X19858095Y-28595238D01*
%TO.C,SAS0*%
X20524761Y-9833333D02*
X20572380Y-9976190D01*
X20572380Y-10214285D01*
X20524761Y-10309523D01*
X20477142Y-10357142D01*
X20381904Y-10404761D01*
X20286666Y-10404761D01*
X20191428Y-10357142D01*
X20143809Y-10309523D01*
X20096190Y-10214285D01*
X20048571Y-10023809D01*
X20000952Y-9928571D01*
X19953333Y-9880952D01*
X19858095Y-9833333D01*
X19762857Y-9833333D01*
X19667619Y-9880952D01*
X19620000Y-9928571D01*
X19572380Y-10023809D01*
X19572380Y-10261904D01*
X19620000Y-10404761D01*
X20286666Y-10785714D02*
X20286666Y-11261904D01*
X20572380Y-10690476D02*
X19572380Y-11023809D01*
X20572380Y-11357142D01*
X20524761Y-11642857D02*
X20572380Y-11785714D01*
X20572380Y-12023809D01*
X20524761Y-12119047D01*
X20477142Y-12166666D01*
X20381904Y-12214285D01*
X20286666Y-12214285D01*
X20191428Y-12166666D01*
X20143809Y-12119047D01*
X20096190Y-12023809D01*
X20048571Y-11833333D01*
X20000952Y-11738095D01*
X19953333Y-11690476D01*
X19858095Y-11642857D01*
X19762857Y-11642857D01*
X19667619Y-11690476D01*
X19620000Y-11738095D01*
X19572380Y-11833333D01*
X19572380Y-12071428D01*
X19620000Y-12214285D01*
X19572380Y-12833333D02*
X19572380Y-12928571D01*
X19620000Y-13023809D01*
X19667619Y-13071428D01*
X19762857Y-13119047D01*
X19953333Y-13166666D01*
X20191428Y-13166666D01*
X20381904Y-13119047D01*
X20477142Y-13071428D01*
X20524761Y-13023809D01*
X20572380Y-12928571D01*
X20572380Y-12833333D01*
X20524761Y-12738095D01*
X20477142Y-12690476D01*
X20381904Y-12642857D01*
X20191428Y-12595238D01*
X19953333Y-12595238D01*
X19762857Y-12642857D01*
X19667619Y-12690476D01*
X19620000Y-12738095D01*
X19572380Y-12833333D01*
%TO.C,POWER0*%
X67495714Y-64277380D02*
X67495714Y-63277380D01*
X67114761Y-63277380D01*
X67019523Y-63325000D01*
X66971904Y-63372619D01*
X66924285Y-63467857D01*
X66924285Y-63610714D01*
X66971904Y-63705952D01*
X67019523Y-63753571D01*
X67114761Y-63801190D01*
X67495714Y-63801190D01*
X66305238Y-63277380D02*
X66114761Y-63277380D01*
X66019523Y-63325000D01*
X65924285Y-63420238D01*
X65876666Y-63610714D01*
X65876666Y-63944047D01*
X65924285Y-64134523D01*
X66019523Y-64229761D01*
X66114761Y-64277380D01*
X66305238Y-64277380D01*
X66400476Y-64229761D01*
X66495714Y-64134523D01*
X66543333Y-63944047D01*
X66543333Y-63610714D01*
X66495714Y-63420238D01*
X66400476Y-63325000D01*
X66305238Y-63277380D01*
X65543333Y-63277380D02*
X65305238Y-64277380D01*
X65114761Y-63563095D01*
X64924285Y-64277380D01*
X64686190Y-63277380D01*
X64305238Y-63753571D02*
X63971904Y-63753571D01*
X63829047Y-64277380D02*
X64305238Y-64277380D01*
X64305238Y-63277380D01*
X63829047Y-63277380D01*
X62829047Y-64277380D02*
X63162380Y-63801190D01*
X63400476Y-64277380D02*
X63400476Y-63277380D01*
X63019523Y-63277380D01*
X62924285Y-63325000D01*
X62876666Y-63372619D01*
X62829047Y-63467857D01*
X62829047Y-63610714D01*
X62876666Y-63705952D01*
X62924285Y-63753571D01*
X63019523Y-63801190D01*
X63400476Y-63801190D01*
X62210000Y-63277380D02*
X62114761Y-63277380D01*
X62019523Y-63325000D01*
X61971904Y-63372619D01*
X61924285Y-63467857D01*
X61876666Y-63658333D01*
X61876666Y-63896428D01*
X61924285Y-64086904D01*
X61971904Y-64182142D01*
X62019523Y-64229761D01*
X62114761Y-64277380D01*
X62210000Y-64277380D01*
X62305238Y-64229761D01*
X62352857Y-64182142D01*
X62400476Y-64086904D01*
X62448095Y-63896428D01*
X62448095Y-63658333D01*
X62400476Y-63467857D01*
X62352857Y-63372619D01*
X62305238Y-63325000D01*
X62210000Y-63277380D01*
%TD*%
M02*
