M48
;DRILL file {KiCad 5.0.1-33cea8e~68~ubuntu18.10.1} date Fri Nov 16 15:20:41 2018
;FORMAT={-:-/ absolute / metric / decimal}
FMAT,2
METRIC,TZ
T1C0.200
T2C0.320
T3C0.400
T4C1.020
%
G90
G05
M71
T1
X58.316Y-40.904
X58.316Y-56.904
X58.316Y-72.904
X58.316Y-88.904
X58.724Y-40.496
X58.724Y-56.496
X58.724Y-72.496
X58.724Y-88.496
X61.516Y-40.496
X61.516Y-56.496
X61.516Y-72.496
X61.516Y-88.496
X61.924Y-40.904
X61.924Y-56.904
X61.924Y-72.904
X61.924Y-88.904
X63.116Y-40.904
X63.116Y-56.904
X63.116Y-72.904
X63.116Y-88.904
X63.524Y-40.496
X63.524Y-56.496
X63.524Y-72.496
X63.524Y-88.496
X70.12Y-48.3
X70.12Y-64.3
X70.12Y-80.3
X70.12Y-96.3
X72.095Y-48.87
X72.095Y-64.87
X72.095Y-80.87
X72.095Y-96.87
X74.316Y-40.496
X74.316Y-56.496
X74.316Y-72.496
X74.316Y-88.496
X74.724Y-40.904
X74.724Y-56.904
X74.724Y-72.904
X74.724Y-88.904
X75.916Y-40.904
X75.916Y-56.904
X75.916Y-72.904
X75.916Y-88.904
X76.324Y-40.496
X76.324Y-56.496
X76.324Y-72.496
X76.324Y-88.496
X79.116Y-40.496
X79.116Y-56.496
X79.116Y-72.496
X79.116Y-88.496
X79.524Y-40.904
X79.524Y-56.904
X79.524Y-72.904
X79.524Y-88.904
X80.716Y-40.904
X80.716Y-56.904
X80.716Y-72.904
X80.716Y-88.904
X81.124Y-40.496
X81.124Y-56.496
X81.124Y-72.496
X81.124Y-88.496
X83.916Y-40.496
X83.916Y-56.496
X83.916Y-72.496
X83.916Y-88.496
X84.324Y-40.904
X84.324Y-56.904
X84.324Y-72.904
X84.324Y-88.904
X85.516Y-40.904
X85.516Y-56.904
X85.516Y-72.904
X85.516Y-88.904
X85.924Y-40.496
X85.924Y-56.496
X85.924Y-72.496
X85.924Y-88.496
X88.12Y-40.5
X88.12Y-56.5
X88.12Y-72.5
X88.12Y-88.5
X88.92Y-40.9
X88.92Y-56.9
X88.92Y-72.9
X88.92Y-88.9
T2
X35.42Y-88.7
X35.42Y-90.95
X35.42Y-93.2
X36.12Y-90.2
X36.12Y-92.45
X36.12Y-94.7
X36.82Y-89.45
X36.82Y-91.7
X36.82Y-93.95
X39.22Y-88.7
X39.22Y-90.95
X39.22Y-93.2
X39.92Y-90.2
X39.92Y-92.45
X39.92Y-94.7
X40.62Y-89.45
X40.62Y-91.7
X40.62Y-93.95
X43.02Y-88.7
X43.02Y-90.95
X43.02Y-93.2
X43.72Y-90.2
X43.72Y-92.45
X43.72Y-94.7
X44.42Y-89.45
X44.42Y-91.7
X44.42Y-93.95
X46.82Y-88.7
X46.82Y-90.95
X46.82Y-93.2
X47.52Y-90.2
X47.52Y-92.45
X47.52Y-94.7
X48.22Y-89.45
X48.22Y-91.7
X48.22Y-93.95
X35.42Y-40.7
X35.42Y-42.95
X35.42Y-45.2
X36.12Y-42.2
X36.12Y-44.45
X36.12Y-46.7
X36.82Y-41.45
X36.82Y-43.7
X36.82Y-45.95
X39.22Y-40.7
X39.22Y-42.95
X39.22Y-45.2
X39.92Y-42.2
X39.92Y-44.45
X39.92Y-46.7
X40.62Y-41.45
X40.62Y-43.7
X40.62Y-45.95
X43.02Y-40.7
X43.02Y-42.95
X43.02Y-45.2
X43.72Y-42.2
X43.72Y-44.45
X43.72Y-46.7
X44.42Y-41.45
X44.42Y-43.7
X44.42Y-45.95
X46.82Y-40.7
X46.82Y-42.95
X46.82Y-45.2
X47.52Y-42.2
X47.52Y-44.45
X47.52Y-46.7
X48.22Y-41.45
X48.22Y-43.7
X48.22Y-45.95
X35.42Y-56.7
X35.42Y-58.95
X35.42Y-61.2
X36.12Y-58.2
X36.12Y-60.45
X36.12Y-62.7
X36.82Y-57.45
X36.82Y-59.7
X36.82Y-61.95
X39.22Y-56.7
X39.22Y-58.95
X39.22Y-61.2
X39.92Y-58.2
X39.92Y-60.45
X39.92Y-62.7
X40.62Y-57.45
X40.62Y-59.7
X40.62Y-61.95
X43.02Y-56.7
X43.02Y-58.95
X43.02Y-61.2
X43.72Y-58.2
X43.72Y-60.45
X43.72Y-62.7
X44.42Y-57.45
X44.42Y-59.7
X44.42Y-61.95
X46.82Y-56.7
X46.82Y-58.95
X46.82Y-61.2
X47.52Y-58.2
X47.52Y-60.45
X47.52Y-62.7
X48.22Y-57.45
X48.22Y-59.7
X48.22Y-61.95
X35.42Y-72.7
X35.42Y-74.95
X35.42Y-77.2
X36.12Y-74.2
X36.12Y-76.45
X36.12Y-78.7
X36.82Y-73.45
X36.82Y-75.7
X36.82Y-77.95
X39.22Y-72.7
X39.22Y-74.95
X39.22Y-77.2
X39.92Y-74.2
X39.92Y-76.45
X39.92Y-78.7
X40.62Y-73.45
X40.62Y-75.7
X40.62Y-77.95
X43.02Y-72.7
X43.02Y-74.95
X43.02Y-77.2
X43.72Y-74.2
X43.72Y-76.45
X43.72Y-78.7
X44.42Y-73.45
X44.42Y-75.7
X44.42Y-77.95
X46.82Y-72.7
X46.82Y-74.95
X46.82Y-77.2
X47.52Y-74.2
X47.52Y-76.45
X47.52Y-78.7
X48.22Y-73.45
X48.22Y-75.7
X48.22Y-77.95
T3
X75.905Y-49.445
X75.905Y-65.445
X75.905Y-81.445
X75.905Y-97.445
X77.175Y-49.445
X77.175Y-65.445
X77.175Y-81.445
X77.175Y-97.445
X78.42Y-49.445
X78.42Y-65.445
X78.42Y-81.445
X78.42Y-97.445
X79.715Y-49.42
X79.715Y-65.42
X79.715Y-81.42
X79.715Y-97.42
X80.985Y-49.445
X80.985Y-65.445
X80.985Y-81.445
X80.985Y-97.445
X82.255Y-49.445
X82.255Y-65.445
X82.255Y-81.445
X82.255Y-97.445
X83.525Y-49.445
X83.525Y-65.445
X83.525Y-81.445
X83.525Y-97.445
X86.04Y-49.445
X86.04Y-65.445
X86.04Y-81.445
X86.04Y-97.445
X87.31Y-49.445
X87.31Y-65.445
X87.31Y-81.445
X87.31Y-97.445
X88.58Y-49.445
X88.58Y-65.445
X88.58Y-81.445
X88.58Y-97.445
X89.875Y-49.445
X89.875Y-65.445
X89.875Y-81.445
X89.875Y-97.445
T4
X92.96Y-99.99
X95.46Y-99.99
X97.96Y-99.99
X100.46Y-99.99
T0
M30
