%TF.GenerationSoftware,KiCad,Pcbnew,5.0.1-33cea8e~68~ubuntu18.10.1*%
%TF.CreationDate,2018-11-27T14:07:15-07:00*%
%TF.ProjectId,thelio-io,7468656C696F2D696F2E6B696361645F,rev?*%
%TF.SameCoordinates,Original*%
%TF.FileFunction,Copper,L2,Inr,Plane*%
%TF.FilePolarity,Positive*%
%FSLAX46Y46*%
G04 Gerber Fmt 4.6, Leading zero omitted, Abs format (unit mm)*
G04 Created by KiCad (PCBNEW 5.0.1-33cea8e~68~ubuntu18.10.1) date Tue Nov 27 14:07:15 2018*
%MOMM*%
%LPD*%
G01*
G04 APERTURE LIST*
%TA.AperFunction,NonConductor*%
%ADD10C,0.200000*%
%TD*%
%TA.AperFunction,NonConductor*%
%ADD11C,0.150000*%
%TD*%
%TA.AperFunction,ViaPad*%
%ADD12O,1.730000X2.030000*%
%TD*%
%TA.AperFunction,ViaPad*%
%ADD13R,1.730000X2.030000*%
%TD*%
%TA.AperFunction,ViaPad*%
%ADD14O,1.700000X1.700000*%
%TD*%
%TA.AperFunction,ViaPad*%
%ADD15R,1.700000X1.700000*%
%TD*%
%TA.AperFunction,ViaPad*%
%ADD16C,0.800000*%
%TD*%
%TA.AperFunction,Conductor*%
%ADD17C,0.254000*%
%TD*%
G04 APERTURE END LIST*
D10*
X77050000Y-53400000D02*
G75*
G02X75450000Y-55000000I-1600000J0D01*
G01*
X73850000Y-55000000D02*
X75450000Y-55000000D01*
X73850000Y-16800000D02*
X75450000Y-16800000D01*
X75450000Y-16800000D02*
G75*
G02X77050000Y-18400000I0J-1600000D01*
G01*
X77050000Y-18400000D02*
X77050000Y-53400000D01*
X-3200000Y-18400000D02*
G75*
G02X-1600000Y-16800000I1600000J0D01*
G01*
X-3200000Y-53400000D02*
X-3200000Y-18400000D01*
X-1600000Y-55000000D02*
G75*
G02X-3200000Y-53400000I0J1600000D01*
G01*
X0Y-55000000D02*
X-1600000Y-55000000D01*
X0Y-16800000D02*
X-1600000Y-16800000D01*
X0Y-55000000D02*
X0Y-68600000D01*
X0Y-16800000D02*
X0Y-3200000D01*
X73850000Y-55000000D02*
X73850000Y-68600000D01*
X73850000Y-16800000D02*
X73850000Y-3200000D01*
D11*
X73850000Y-68600000D02*
G75*
G02X70650000Y-71800000I-3200000J0D01*
G01*
D10*
X3200000Y-71800000D02*
G75*
G02X0Y-68600000I0J3200000D01*
G01*
X70650000Y-71800000D02*
X3200000Y-71800000D01*
X0Y-3200000D02*
G75*
G02X3200000Y0I3200000J0D01*
G01*
X70650000Y0D02*
G75*
G02X73850000Y-3200000I0J-3200000D01*
G01*
X3200000Y0D02*
X70650000Y0D01*
D12*
%TO.N,+5V*%
%TO.C,POWER0*%
X60960000Y-67990000D03*
%TO.N,GND*%
X63460000Y-67990000D03*
X65960000Y-67990000D03*
D13*
%TO.N,+12V*%
X68460000Y-67990000D03*
%TD*%
D14*
%TO.N,GND*%
%TO.C,USB0*%
X8890000Y-65450000D03*
%TO.N,Net-(R0-Pad1)*%
X11430000Y-65450000D03*
%TO.N,Net-(R1-Pad1)*%
X13970000Y-65450000D03*
D15*
%TO.N,VCC*%
X16510000Y-65450000D03*
%TD*%
D12*
%TO.N,Net-(CPUMUX0-Pad5)*%
%TO.C,CPUOUT0*%
X38100000Y-67990000D03*
%TO.N,ADC4*%
X40640000Y-67990000D03*
%TO.N,+12V*%
X43180000Y-67990000D03*
D13*
%TO.N,GND*%
X45720000Y-67990000D03*
%TD*%
D14*
%TO.N,ADC0*%
%TO.C,PMB0*%
X11430000Y-69260000D03*
%TO.N,Net-(PMB0-Pad3)*%
X8890000Y-69260000D03*
%TO.N,PB4*%
X6350000Y-69260000D03*
D15*
%TO.N,GND*%
X3810000Y-69260000D03*
%TD*%
D12*
%TO.N,Net-(CPUIN0-Pad4)*%
%TO.C,CPUIN0*%
X26670000Y-67990000D03*
%TO.N,ADC4*%
X29210000Y-67990000D03*
%TO.N,Net-(CPUIN0-Pad2)*%
X31750000Y-67990000D03*
D13*
%TO.N,GND*%
X34290000Y-67990000D03*
%TD*%
D12*
%TO.N,OC1B*%
%TO.C,INTAKE0*%
X49530000Y-67990000D03*
%TO.N,ADC5*%
X52070000Y-67990000D03*
%TO.N,+12V*%
X54610000Y-67990000D03*
D13*
%TO.N,GND*%
X57150000Y-67990000D03*
%TD*%
D14*
%TO.N,Net-(PFP0-Pad4)*%
%TO.C,PFP0*%
X22860000Y-69260000D03*
%TO.N,GND*%
X20320000Y-69260000D03*
%TO.N,ADC1*%
X17780000Y-69260000D03*
D15*
%TO.N,GND*%
X15240000Y-69260000D03*
%TD*%
D16*
%TO.N,Net-(AVR0-Pad17)*%
X3400000Y-38549998D03*
%TO.N,Net-(AVR0-Pad16)*%
X3400000Y-40150000D03*
%TO.N,Net-(CPUIN0-Pad4)*%
X17775000Y-56180000D03*
%TO.N,Net-(DATA2-Pad7)*%
X26100000Y-41110000D03*
%TO.N,Net-(DATA2-Pad6)*%
X27370000Y-41110000D03*
%TO.N,Net-(DATA2-Pad5)*%
X28640000Y-41110000D03*
%TO.N,Net-(DATA2-Pad4)*%
X29910000Y-41110000D03*
%TO.N,Net-(DATA2-Pad3)*%
X31180000Y-41110000D03*
%TO.N,Net-(DATA2-Pad2)*%
X32450000Y-41110000D03*
%TO.N,Net-(DATA2-Pad1)*%
X33720000Y-41110000D03*
%TO.N,Net-(DATA3-Pad7)*%
X26100000Y-57110000D03*
%TO.N,Net-(DATA3-Pad6)*%
X27370000Y-57110000D03*
%TO.N,Net-(DATA3-Pad5)*%
X28640000Y-57110000D03*
%TO.N,Net-(DATA3-Pad4)*%
X29910000Y-57110000D03*
%TO.N,Net-(DATA3-Pad3)*%
X31180000Y-57110000D03*
%TO.N,Net-(DATA3-Pad2)*%
X32450000Y-57110000D03*
%TO.N,Net-(DATA3-Pad1)*%
X33720000Y-57110000D03*
%TO.N,Net-(DATA0-Pad7)*%
X26100000Y-9110000D03*
%TO.N,Net-(DATA0-Pad6)*%
X27370000Y-9110000D03*
%TO.N,Net-(DATA0-Pad5)*%
X28640000Y-9110000D03*
%TO.N,Net-(DATA0-Pad4)*%
X29910000Y-9110000D03*
%TO.N,Net-(DATA0-Pad3)*%
X31180000Y-9110000D03*
%TO.N,Net-(DATA0-Pad2)*%
X32450000Y-9110000D03*
%TO.N,Net-(DATA0-Pad1)*%
X33720000Y-9110000D03*
%TO.N,Net-(DATA1-Pad7)*%
X26100000Y-25110000D03*
%TO.N,Net-(DATA1-Pad6)*%
X27370000Y-25110000D03*
%TO.N,Net-(DATA1-Pad5)*%
X28640000Y-25110000D03*
%TO.N,Net-(DATA1-Pad4)*%
X29910000Y-25110000D03*
%TO.N,Net-(DATA1-Pad3)*%
X31180000Y-25110000D03*
%TO.N,Net-(DATA1-Pad2)*%
X32450000Y-25110000D03*
%TO.N,Net-(DATA1-Pad1)*%
X33720000Y-25110000D03*
%TO.N,OC1B*%
X25400000Y-48940000D03*
X13900000Y-30050000D03*
%TO.N,OC1A*%
X15975000Y-56079994D03*
X13100000Y-29250000D03*
%TO.N,Net-(CPUMUX0-Pad5)*%
X13970000Y-51480000D03*
X22860000Y-51480000D03*
%TO.N,VCC*%
X18000000Y-43350000D03*
X7507115Y-31657115D03*
X17775000Y-50680000D03*
X13900000Y-46250000D03*
X2600000Y-42150000D03*
X9900000Y-47050000D03*
X18000000Y-34550000D03*
X20245000Y-21000000D03*
%TO.N,GND*%
X18000000Y-42150000D03*
X18000000Y-35750000D03*
X6300000Y-31650000D03*
X16975000Y-49980000D03*
X2600000Y-40950000D03*
X14475000Y-56080000D03*
X11500000Y-50250000D03*
X5200000Y-25450000D03*
X20245000Y-15920000D03*
X43880000Y-9110000D03*
X45150000Y-9110000D03*
X46420000Y-9110000D03*
X54040000Y-62190000D03*
X52770000Y-62190000D03*
X51500000Y-62190000D03*
%TO.N,MISO*%
X6700000Y-47050000D03*
X10115012Y-21000000D03*
%TO.N,MOSI*%
X7499984Y-46250000D03*
X20245000Y-18460000D03*
%TO.N,SCLK*%
X8300000Y-47050000D03*
X11500000Y-25450000D03*
%TO.N,OC4A*%
X21590000Y-50210000D03*
X13899976Y-31650000D03*
%TO.N,PB4*%
X12300000Y-28450000D03*
%TO.N,RST*%
X3400000Y-43750022D03*
X10115000Y-15920000D03*
%TO.N,+12V*%
X57850000Y-62190000D03*
X56580000Y-62190000D03*
X55310000Y-62190000D03*
%TO.N,+5V*%
X48960000Y-62190000D03*
X50230000Y-62190000D03*
X47690000Y-62190000D03*
%TD*%
D17*
%TO.N,GND*%
G36*
X71195092Y-800751D02*
X71713100Y-981140D01*
X72178266Y-1271808D01*
X72567474Y-1658308D01*
X72861386Y-2121438D01*
X73045383Y-2638164D01*
X73115001Y-3221993D01*
X73115000Y-16727612D01*
X73100601Y-16800000D01*
X73157646Y-17086783D01*
X73267161Y-17250683D01*
X73320095Y-17329905D01*
X73563217Y-17492354D01*
X73723000Y-17524137D01*
X73723000Y-54275863D01*
X73563217Y-54307646D01*
X73320095Y-54470095D01*
X73157646Y-54713217D01*
X73100601Y-55000000D01*
X73115000Y-55072388D01*
X73115001Y-68672388D01*
X73122947Y-68712336D01*
X73073780Y-69150669D01*
X72891548Y-69673969D01*
X72597909Y-70143890D01*
X72207451Y-70537083D01*
X71739593Y-70833995D01*
X71217576Y-71019877D01*
X70766155Y-71073706D01*
X70722388Y-71065000D01*
X3241089Y-71065000D01*
X2654908Y-70999249D01*
X2136899Y-70818859D01*
X1671734Y-70528192D01*
X1282524Y-70141689D01*
X988614Y-69678562D01*
X941322Y-69545750D01*
X2325000Y-69545750D01*
X2325000Y-70236309D01*
X2421673Y-70469698D01*
X2600301Y-70648327D01*
X2833690Y-70745000D01*
X3524250Y-70745000D01*
X3683000Y-70586250D01*
X3683000Y-69387000D01*
X2483750Y-69387000D01*
X2325000Y-69545750D01*
X941322Y-69545750D01*
X804617Y-69161837D01*
X735000Y-68578016D01*
X735000Y-68283691D01*
X2325000Y-68283691D01*
X2325000Y-68974250D01*
X2483750Y-69133000D01*
X3683000Y-69133000D01*
X3683000Y-67933750D01*
X3937000Y-67933750D01*
X3937000Y-69133000D01*
X3957000Y-69133000D01*
X3957000Y-69387000D01*
X3937000Y-69387000D01*
X3937000Y-70586250D01*
X4095750Y-70745000D01*
X4786310Y-70745000D01*
X5019699Y-70648327D01*
X5198327Y-70469698D01*
X5264904Y-70308967D01*
X5279375Y-70330625D01*
X5770582Y-70658839D01*
X6203744Y-70745000D01*
X6496256Y-70745000D01*
X6929418Y-70658839D01*
X7420625Y-70330625D01*
X7620000Y-70032239D01*
X7819375Y-70330625D01*
X8310582Y-70658839D01*
X8743744Y-70745000D01*
X9036256Y-70745000D01*
X9469418Y-70658839D01*
X9960625Y-70330625D01*
X10160000Y-70032239D01*
X10359375Y-70330625D01*
X10850582Y-70658839D01*
X11283744Y-70745000D01*
X11576256Y-70745000D01*
X12009418Y-70658839D01*
X12500625Y-70330625D01*
X12828839Y-69839418D01*
X12887252Y-69545750D01*
X13755000Y-69545750D01*
X13755000Y-70236309D01*
X13851673Y-70469698D01*
X14030301Y-70648327D01*
X14263690Y-70745000D01*
X14954250Y-70745000D01*
X15113000Y-70586250D01*
X15113000Y-69387000D01*
X13913750Y-69387000D01*
X13755000Y-69545750D01*
X12887252Y-69545750D01*
X12944092Y-69260000D01*
X12828839Y-68680582D01*
X12563645Y-68283691D01*
X13755000Y-68283691D01*
X13755000Y-68974250D01*
X13913750Y-69133000D01*
X15113000Y-69133000D01*
X15113000Y-67933750D01*
X15367000Y-67933750D01*
X15367000Y-69133000D01*
X15387000Y-69133000D01*
X15387000Y-69387000D01*
X15367000Y-69387000D01*
X15367000Y-70586250D01*
X15525750Y-70745000D01*
X16216310Y-70745000D01*
X16449699Y-70648327D01*
X16628327Y-70469698D01*
X16694904Y-70308967D01*
X16709375Y-70330625D01*
X17200582Y-70658839D01*
X17633744Y-70745000D01*
X17926256Y-70745000D01*
X18359418Y-70658839D01*
X18850625Y-70330625D01*
X19063843Y-70011522D01*
X19124817Y-70141358D01*
X19553076Y-70531645D01*
X19963110Y-70701476D01*
X20193000Y-70580155D01*
X20193000Y-69387000D01*
X20173000Y-69387000D01*
X20173000Y-69133000D01*
X20193000Y-69133000D01*
X20193000Y-67939845D01*
X20447000Y-67939845D01*
X20447000Y-69133000D01*
X20467000Y-69133000D01*
X20467000Y-69387000D01*
X20447000Y-69387000D01*
X20447000Y-70580155D01*
X20676890Y-70701476D01*
X21086924Y-70531645D01*
X21515183Y-70141358D01*
X21576157Y-70011522D01*
X21789375Y-70330625D01*
X22280582Y-70658839D01*
X22713744Y-70745000D01*
X23006256Y-70745000D01*
X23439418Y-70658839D01*
X23930625Y-70330625D01*
X24258839Y-69839418D01*
X24374092Y-69260000D01*
X24258839Y-68680582D01*
X23930625Y-68189375D01*
X23439418Y-67861161D01*
X23006256Y-67775000D01*
X22713744Y-67775000D01*
X22280582Y-67861161D01*
X21789375Y-68189375D01*
X21576157Y-68508478D01*
X21515183Y-68378642D01*
X21086924Y-67988355D01*
X20676890Y-67818524D01*
X20447000Y-67939845D01*
X20193000Y-67939845D01*
X19963110Y-67818524D01*
X19553076Y-67988355D01*
X19124817Y-68378642D01*
X19063843Y-68508478D01*
X18850625Y-68189375D01*
X18359418Y-67861161D01*
X17926256Y-67775000D01*
X17633744Y-67775000D01*
X17200582Y-67861161D01*
X16709375Y-68189375D01*
X16694904Y-68211033D01*
X16628327Y-68050302D01*
X16449699Y-67871673D01*
X16216310Y-67775000D01*
X15525750Y-67775000D01*
X15367000Y-67933750D01*
X15113000Y-67933750D01*
X14954250Y-67775000D01*
X14263690Y-67775000D01*
X14030301Y-67871673D01*
X13851673Y-68050302D01*
X13755000Y-68283691D01*
X12563645Y-68283691D01*
X12500625Y-68189375D01*
X12009418Y-67861161D01*
X11576256Y-67775000D01*
X11283744Y-67775000D01*
X10850582Y-67861161D01*
X10359375Y-68189375D01*
X10160000Y-68487761D01*
X9960625Y-68189375D01*
X9469418Y-67861161D01*
X9036256Y-67775000D01*
X8743744Y-67775000D01*
X8310582Y-67861161D01*
X7819375Y-68189375D01*
X7620000Y-68487761D01*
X7420625Y-68189375D01*
X6929418Y-67861161D01*
X6496256Y-67775000D01*
X6203744Y-67775000D01*
X5770582Y-67861161D01*
X5279375Y-68189375D01*
X5264904Y-68211033D01*
X5198327Y-68050302D01*
X5019699Y-67871673D01*
X4786310Y-67775000D01*
X4095750Y-67775000D01*
X3937000Y-67933750D01*
X3683000Y-67933750D01*
X3524250Y-67775000D01*
X2833690Y-67775000D01*
X2600301Y-67871673D01*
X2421673Y-68050302D01*
X2325000Y-68283691D01*
X735000Y-68283691D01*
X735000Y-67692268D01*
X25170000Y-67692268D01*
X25170000Y-68287733D01*
X25257032Y-68725271D01*
X25588561Y-69221439D01*
X26084730Y-69552968D01*
X26670000Y-69669386D01*
X27255271Y-69552968D01*
X27751439Y-69221439D01*
X27940000Y-68939237D01*
X28128561Y-69221439D01*
X28624730Y-69552968D01*
X29210000Y-69669386D01*
X29795271Y-69552968D01*
X30291439Y-69221439D01*
X30480000Y-68939237D01*
X30668561Y-69221439D01*
X31164730Y-69552968D01*
X31750000Y-69669386D01*
X32335271Y-69552968D01*
X32828223Y-69223588D01*
X32886673Y-69364698D01*
X33065301Y-69543327D01*
X33298690Y-69640000D01*
X34004250Y-69640000D01*
X34163000Y-69481250D01*
X34163000Y-68117000D01*
X34417000Y-68117000D01*
X34417000Y-69481250D01*
X34575750Y-69640000D01*
X35281310Y-69640000D01*
X35514699Y-69543327D01*
X35693327Y-69364698D01*
X35790000Y-69131309D01*
X35790000Y-68275750D01*
X35631250Y-68117000D01*
X34417000Y-68117000D01*
X34163000Y-68117000D01*
X34143000Y-68117000D01*
X34143000Y-67863000D01*
X34163000Y-67863000D01*
X34163000Y-66498750D01*
X34417000Y-66498750D01*
X34417000Y-67863000D01*
X35631250Y-67863000D01*
X35790000Y-67704250D01*
X35790000Y-67692268D01*
X36600000Y-67692268D01*
X36600000Y-68287733D01*
X36687032Y-68725271D01*
X37018561Y-69221439D01*
X37514730Y-69552968D01*
X38100000Y-69669386D01*
X38685271Y-69552968D01*
X39181439Y-69221439D01*
X39370000Y-68939237D01*
X39558561Y-69221439D01*
X40054730Y-69552968D01*
X40640000Y-69669386D01*
X41225271Y-69552968D01*
X41721439Y-69221439D01*
X41910000Y-68939237D01*
X42098561Y-69221439D01*
X42594730Y-69552968D01*
X43180000Y-69669386D01*
X43765271Y-69552968D01*
X44258223Y-69223588D01*
X44316673Y-69364698D01*
X44495301Y-69543327D01*
X44728690Y-69640000D01*
X45434250Y-69640000D01*
X45593000Y-69481250D01*
X45593000Y-68117000D01*
X45847000Y-68117000D01*
X45847000Y-69481250D01*
X46005750Y-69640000D01*
X46711310Y-69640000D01*
X46944699Y-69543327D01*
X47123327Y-69364698D01*
X47220000Y-69131309D01*
X47220000Y-68275750D01*
X47061250Y-68117000D01*
X45847000Y-68117000D01*
X45593000Y-68117000D01*
X45573000Y-68117000D01*
X45573000Y-67863000D01*
X45593000Y-67863000D01*
X45593000Y-66498750D01*
X45847000Y-66498750D01*
X45847000Y-67863000D01*
X47061250Y-67863000D01*
X47220000Y-67704250D01*
X47220000Y-67692268D01*
X48030000Y-67692268D01*
X48030000Y-68287733D01*
X48117032Y-68725271D01*
X48448561Y-69221439D01*
X48944730Y-69552968D01*
X49530000Y-69669386D01*
X50115271Y-69552968D01*
X50611439Y-69221439D01*
X50800000Y-68939237D01*
X50988561Y-69221439D01*
X51484730Y-69552968D01*
X52070000Y-69669386D01*
X52655271Y-69552968D01*
X53151439Y-69221439D01*
X53340000Y-68939237D01*
X53528561Y-69221439D01*
X54024730Y-69552968D01*
X54610000Y-69669386D01*
X55195271Y-69552968D01*
X55688223Y-69223588D01*
X55746673Y-69364698D01*
X55925301Y-69543327D01*
X56158690Y-69640000D01*
X56864250Y-69640000D01*
X57023000Y-69481250D01*
X57023000Y-68117000D01*
X57277000Y-68117000D01*
X57277000Y-69481250D01*
X57435750Y-69640000D01*
X58141310Y-69640000D01*
X58374699Y-69543327D01*
X58553327Y-69364698D01*
X58650000Y-69131309D01*
X58650000Y-68275750D01*
X58491250Y-68117000D01*
X57277000Y-68117000D01*
X57023000Y-68117000D01*
X57003000Y-68117000D01*
X57003000Y-67863000D01*
X57023000Y-67863000D01*
X57023000Y-66498750D01*
X57277000Y-66498750D01*
X57277000Y-67863000D01*
X58491250Y-67863000D01*
X58650000Y-67704250D01*
X58650000Y-67692268D01*
X59460000Y-67692268D01*
X59460000Y-68287733D01*
X59547032Y-68725271D01*
X59878561Y-69221439D01*
X60374730Y-69552968D01*
X60960000Y-69669386D01*
X61545271Y-69552968D01*
X62041439Y-69221439D01*
X62216846Y-68958923D01*
X62559143Y-69340793D01*
X63087240Y-69594131D01*
X63100754Y-69596346D01*
X63333000Y-69475224D01*
X63333000Y-68117000D01*
X63587000Y-68117000D01*
X63587000Y-69475224D01*
X63819246Y-69596346D01*
X63832760Y-69594131D01*
X64360857Y-69340793D01*
X64710000Y-68951285D01*
X65059143Y-69340793D01*
X65587240Y-69594131D01*
X65600754Y-69596346D01*
X65833000Y-69475224D01*
X65833000Y-68117000D01*
X63587000Y-68117000D01*
X63333000Y-68117000D01*
X63313000Y-68117000D01*
X63313000Y-67863000D01*
X63333000Y-67863000D01*
X63333000Y-66504776D01*
X63587000Y-66504776D01*
X63587000Y-67863000D01*
X65833000Y-67863000D01*
X65833000Y-66504776D01*
X66087000Y-66504776D01*
X66087000Y-67863000D01*
X66107000Y-67863000D01*
X66107000Y-68117000D01*
X66087000Y-68117000D01*
X66087000Y-69475224D01*
X66319246Y-69596346D01*
X66332760Y-69594131D01*
X66860857Y-69340793D01*
X66986477Y-69200650D01*
X66996843Y-69252765D01*
X67137191Y-69462809D01*
X67347235Y-69603157D01*
X67595000Y-69652440D01*
X69325000Y-69652440D01*
X69572765Y-69603157D01*
X69782809Y-69462809D01*
X69923157Y-69252765D01*
X69972440Y-69005000D01*
X69972440Y-66975000D01*
X69923157Y-66727235D01*
X69782809Y-66517191D01*
X69572765Y-66376843D01*
X69325000Y-66327560D01*
X67595000Y-66327560D01*
X67347235Y-66376843D01*
X67137191Y-66517191D01*
X66996843Y-66727235D01*
X66986477Y-66779350D01*
X66860857Y-66639207D01*
X66332760Y-66385869D01*
X66319246Y-66383654D01*
X66087000Y-66504776D01*
X65833000Y-66504776D01*
X65600754Y-66383654D01*
X65587240Y-66385869D01*
X65059143Y-66639207D01*
X64710000Y-67028715D01*
X64360857Y-66639207D01*
X63832760Y-66385869D01*
X63819246Y-66383654D01*
X63587000Y-66504776D01*
X63333000Y-66504776D01*
X63100754Y-66383654D01*
X63087240Y-66385869D01*
X62559143Y-66639207D01*
X62216846Y-67021077D01*
X62041439Y-66758561D01*
X61545270Y-66427032D01*
X60960000Y-66310614D01*
X60374729Y-66427032D01*
X59878561Y-66758561D01*
X59547032Y-67254730D01*
X59460000Y-67692268D01*
X58650000Y-67692268D01*
X58650000Y-66848691D01*
X58553327Y-66615302D01*
X58374699Y-66436673D01*
X58141310Y-66340000D01*
X57435750Y-66340000D01*
X57277000Y-66498750D01*
X57023000Y-66498750D01*
X56864250Y-66340000D01*
X56158690Y-66340000D01*
X55925301Y-66436673D01*
X55746673Y-66615302D01*
X55688223Y-66756412D01*
X55195270Y-66427032D01*
X54610000Y-66310614D01*
X54024729Y-66427032D01*
X53528561Y-66758561D01*
X53340000Y-67040763D01*
X53151439Y-66758561D01*
X52951127Y-66624717D01*
X53074595Y-66501249D01*
X53255000Y-66065711D01*
X53255000Y-65594289D01*
X53074595Y-65158751D01*
X52741249Y-64825405D01*
X52305711Y-64645000D01*
X51834289Y-64645000D01*
X51398751Y-64825405D01*
X51065405Y-65158751D01*
X50885000Y-65594289D01*
X50885000Y-66065711D01*
X51065405Y-66501249D01*
X51188873Y-66624717D01*
X50988561Y-66758561D01*
X50800000Y-67040763D01*
X50611439Y-66758561D01*
X50115270Y-66427032D01*
X49530000Y-66310614D01*
X48944729Y-66427032D01*
X48448561Y-66758561D01*
X48117032Y-67254730D01*
X48030000Y-67692268D01*
X47220000Y-67692268D01*
X47220000Y-66848691D01*
X47123327Y-66615302D01*
X46944699Y-66436673D01*
X46711310Y-66340000D01*
X46005750Y-66340000D01*
X45847000Y-66498750D01*
X45593000Y-66498750D01*
X45434250Y-66340000D01*
X44728690Y-66340000D01*
X44495301Y-66436673D01*
X44316673Y-66615302D01*
X44258223Y-66756412D01*
X43765270Y-66427032D01*
X43180000Y-66310614D01*
X42594729Y-66427032D01*
X42098561Y-66758561D01*
X41910000Y-67040763D01*
X41721439Y-66758561D01*
X41521127Y-66624717D01*
X41644595Y-66501249D01*
X41825000Y-66065711D01*
X41825000Y-65594289D01*
X41644595Y-65158751D01*
X41311249Y-64825405D01*
X40875711Y-64645000D01*
X40404289Y-64645000D01*
X39968751Y-64825405D01*
X39635405Y-65158751D01*
X39455000Y-65594289D01*
X39455000Y-66065711D01*
X39635405Y-66501249D01*
X39758873Y-66624717D01*
X39558561Y-66758561D01*
X39370000Y-67040763D01*
X39181439Y-66758561D01*
X38685270Y-66427032D01*
X38100000Y-66310614D01*
X37514729Y-66427032D01*
X37018561Y-66758561D01*
X36687032Y-67254730D01*
X36600000Y-67692268D01*
X35790000Y-67692268D01*
X35790000Y-66848691D01*
X35693327Y-66615302D01*
X35514699Y-66436673D01*
X35281310Y-66340000D01*
X34575750Y-66340000D01*
X34417000Y-66498750D01*
X34163000Y-66498750D01*
X34004250Y-66340000D01*
X33298690Y-66340000D01*
X33065301Y-66436673D01*
X32886673Y-66615302D01*
X32828223Y-66756412D01*
X32335270Y-66427032D01*
X31750000Y-66310614D01*
X31164729Y-66427032D01*
X30668561Y-66758561D01*
X30480000Y-67040763D01*
X30291439Y-66758561D01*
X30091127Y-66624717D01*
X30214595Y-66501249D01*
X30395000Y-66065711D01*
X30395000Y-65594289D01*
X30214595Y-65158751D01*
X29881249Y-64825405D01*
X29445711Y-64645000D01*
X28974289Y-64645000D01*
X28538751Y-64825405D01*
X28205405Y-65158751D01*
X28025000Y-65594289D01*
X28025000Y-66065711D01*
X28205405Y-66501249D01*
X28328873Y-66624717D01*
X28128561Y-66758561D01*
X27940000Y-67040763D01*
X27751439Y-66758561D01*
X27255270Y-66427032D01*
X26670000Y-66310614D01*
X26084729Y-66427032D01*
X25588561Y-66758561D01*
X25257032Y-67254730D01*
X25170000Y-67692268D01*
X735000Y-67692268D01*
X735000Y-65806892D01*
X7448514Y-65806892D01*
X7694817Y-66331358D01*
X8123076Y-66721645D01*
X8533110Y-66891476D01*
X8763000Y-66770155D01*
X8763000Y-65577000D01*
X7569181Y-65577000D01*
X7448514Y-65806892D01*
X735000Y-65806892D01*
X735000Y-65093108D01*
X7448514Y-65093108D01*
X7569181Y-65323000D01*
X8763000Y-65323000D01*
X8763000Y-64129845D01*
X9017000Y-64129845D01*
X9017000Y-65323000D01*
X9037000Y-65323000D01*
X9037000Y-65577000D01*
X9017000Y-65577000D01*
X9017000Y-66770155D01*
X9246890Y-66891476D01*
X9656924Y-66721645D01*
X10085183Y-66331358D01*
X10146157Y-66201522D01*
X10359375Y-66520625D01*
X10850582Y-66848839D01*
X11283744Y-66935000D01*
X11576256Y-66935000D01*
X12009418Y-66848839D01*
X12500625Y-66520625D01*
X12700000Y-66222239D01*
X12899375Y-66520625D01*
X13390582Y-66848839D01*
X13823744Y-66935000D01*
X14116256Y-66935000D01*
X14549418Y-66848839D01*
X15040625Y-66520625D01*
X15052816Y-66502381D01*
X15061843Y-66547765D01*
X15202191Y-66757809D01*
X15412235Y-66898157D01*
X15660000Y-66947440D01*
X17360000Y-66947440D01*
X17607765Y-66898157D01*
X17817809Y-66757809D01*
X17958157Y-66547765D01*
X18007440Y-66300000D01*
X18007440Y-64600000D01*
X17958157Y-64352235D01*
X17817809Y-64142191D01*
X17607765Y-64001843D01*
X17360000Y-63952560D01*
X15660000Y-63952560D01*
X15412235Y-64001843D01*
X15202191Y-64142191D01*
X15061843Y-64352235D01*
X15052816Y-64397619D01*
X15040625Y-64379375D01*
X14549418Y-64051161D01*
X14116256Y-63965000D01*
X13823744Y-63965000D01*
X13390582Y-64051161D01*
X12899375Y-64379375D01*
X12700000Y-64677761D01*
X12500625Y-64379375D01*
X12009418Y-64051161D01*
X11576256Y-63965000D01*
X11283744Y-63965000D01*
X10850582Y-64051161D01*
X10359375Y-64379375D01*
X10146157Y-64698478D01*
X10085183Y-64568642D01*
X9656924Y-64178355D01*
X9246890Y-64008524D01*
X9017000Y-64129845D01*
X8763000Y-64129845D01*
X8533110Y-64008524D01*
X8123076Y-64178355D01*
X7694817Y-64568642D01*
X7448514Y-65093108D01*
X735000Y-65093108D01*
X735000Y-60214833D01*
X21890000Y-60214833D01*
X21890000Y-60885167D01*
X22146526Y-61504476D01*
X22620524Y-61978474D01*
X23239833Y-62235000D01*
X23910167Y-62235000D01*
X24515830Y-61984126D01*
X46655000Y-61984126D01*
X46655000Y-62395874D01*
X46812569Y-62776280D01*
X47103720Y-63067431D01*
X47484126Y-63225000D01*
X47895874Y-63225000D01*
X48276280Y-63067431D01*
X48325000Y-63018711D01*
X48373720Y-63067431D01*
X48754126Y-63225000D01*
X49165874Y-63225000D01*
X49546280Y-63067431D01*
X49595000Y-63018711D01*
X49643720Y-63067431D01*
X50024126Y-63225000D01*
X50435874Y-63225000D01*
X50816280Y-63067431D01*
X51107431Y-62776280D01*
X51265000Y-62395874D01*
X51265000Y-61984126D01*
X54275000Y-61984126D01*
X54275000Y-62395874D01*
X54432569Y-62776280D01*
X54723720Y-63067431D01*
X55104126Y-63225000D01*
X55515874Y-63225000D01*
X55896280Y-63067431D01*
X55945000Y-63018711D01*
X55993720Y-63067431D01*
X56374126Y-63225000D01*
X56785874Y-63225000D01*
X57166280Y-63067431D01*
X57215000Y-63018711D01*
X57263720Y-63067431D01*
X57644126Y-63225000D01*
X58055874Y-63225000D01*
X58436280Y-63067431D01*
X58727431Y-62776280D01*
X58885000Y-62395874D01*
X58885000Y-61984126D01*
X58727431Y-61603720D01*
X58436280Y-61312569D01*
X58055874Y-61155000D01*
X57644126Y-61155000D01*
X57263720Y-61312569D01*
X57215000Y-61361289D01*
X57166280Y-61312569D01*
X56785874Y-61155000D01*
X56374126Y-61155000D01*
X55993720Y-61312569D01*
X55945000Y-61361289D01*
X55896280Y-61312569D01*
X55515874Y-61155000D01*
X55104126Y-61155000D01*
X54723720Y-61312569D01*
X54432569Y-61603720D01*
X54275000Y-61984126D01*
X51265000Y-61984126D01*
X51107431Y-61603720D01*
X50816280Y-61312569D01*
X50435874Y-61155000D01*
X50024126Y-61155000D01*
X49643720Y-61312569D01*
X49595000Y-61361289D01*
X49546280Y-61312569D01*
X49165874Y-61155000D01*
X48754126Y-61155000D01*
X48373720Y-61312569D01*
X48325000Y-61361289D01*
X48276280Y-61312569D01*
X47895874Y-61155000D01*
X47484126Y-61155000D01*
X47103720Y-61312569D01*
X46812569Y-61603720D01*
X46655000Y-61984126D01*
X24515830Y-61984126D01*
X24529476Y-61978474D01*
X25003474Y-61504476D01*
X25260000Y-60885167D01*
X25260000Y-60214833D01*
X25239290Y-60164833D01*
X58690000Y-60164833D01*
X58690000Y-60835167D01*
X58946526Y-61454476D01*
X59420524Y-61928474D01*
X60039833Y-62185000D01*
X60710167Y-62185000D01*
X61329476Y-61928474D01*
X61803474Y-61454476D01*
X62060000Y-60835167D01*
X62060000Y-60164833D01*
X61803474Y-59545524D01*
X61329476Y-59071526D01*
X60710167Y-58815000D01*
X60039833Y-58815000D01*
X59420524Y-59071526D01*
X58946526Y-59545524D01*
X58690000Y-60164833D01*
X25239290Y-60164833D01*
X25003474Y-59595524D01*
X24529476Y-59121526D01*
X23910167Y-58865000D01*
X23239833Y-58865000D01*
X22620524Y-59121526D01*
X22146526Y-59595524D01*
X21890000Y-60214833D01*
X735000Y-60214833D01*
X735000Y-55874120D01*
X14940000Y-55874120D01*
X14940000Y-56285868D01*
X15097569Y-56666274D01*
X15388720Y-56957425D01*
X15769126Y-57114994D01*
X16180874Y-57114994D01*
X16561280Y-56957425D01*
X16852431Y-56666274D01*
X16854288Y-56661791D01*
X16897569Y-56766280D01*
X17188720Y-57057431D01*
X17569126Y-57215000D01*
X17980874Y-57215000D01*
X18361280Y-57057431D01*
X18652431Y-56766280D01*
X18810000Y-56385874D01*
X18810000Y-55974126D01*
X18721307Y-55760000D01*
X22304336Y-55760000D01*
X22406007Y-56271136D01*
X22695543Y-56704457D01*
X23128864Y-56993993D01*
X23510978Y-57070000D01*
X23769022Y-57070000D01*
X24151136Y-56993993D01*
X24285631Y-56904126D01*
X25065000Y-56904126D01*
X25065000Y-57315874D01*
X25222569Y-57696280D01*
X25513720Y-57987431D01*
X25894126Y-58145000D01*
X26305874Y-58145000D01*
X26686280Y-57987431D01*
X26735000Y-57938711D01*
X26783720Y-57987431D01*
X27164126Y-58145000D01*
X27575874Y-58145000D01*
X27956280Y-57987431D01*
X28005000Y-57938711D01*
X28053720Y-57987431D01*
X28434126Y-58145000D01*
X28845874Y-58145000D01*
X29226280Y-57987431D01*
X29275000Y-57938711D01*
X29323720Y-57987431D01*
X29704126Y-58145000D01*
X30115874Y-58145000D01*
X30496280Y-57987431D01*
X30545000Y-57938711D01*
X30593720Y-57987431D01*
X30974126Y-58145000D01*
X31385874Y-58145000D01*
X31766280Y-57987431D01*
X31815000Y-57938711D01*
X31863720Y-57987431D01*
X32244126Y-58145000D01*
X32655874Y-58145000D01*
X33036280Y-57987431D01*
X33085000Y-57938711D01*
X33133720Y-57987431D01*
X33514126Y-58145000D01*
X33925874Y-58145000D01*
X34306280Y-57987431D01*
X34597431Y-57696280D01*
X34755000Y-57315874D01*
X34755000Y-56904126D01*
X34597431Y-56523720D01*
X34306280Y-56232569D01*
X33925874Y-56075000D01*
X33514126Y-56075000D01*
X33133720Y-56232569D01*
X33085000Y-56281289D01*
X33036280Y-56232569D01*
X32655874Y-56075000D01*
X32244126Y-56075000D01*
X31863720Y-56232569D01*
X31815000Y-56281289D01*
X31766280Y-56232569D01*
X31385874Y-56075000D01*
X30974126Y-56075000D01*
X30593720Y-56232569D01*
X30545000Y-56281289D01*
X30496280Y-56232569D01*
X30115874Y-56075000D01*
X29704126Y-56075000D01*
X29323720Y-56232569D01*
X29275000Y-56281289D01*
X29226280Y-56232569D01*
X28845874Y-56075000D01*
X28434126Y-56075000D01*
X28053720Y-56232569D01*
X28005000Y-56281289D01*
X27956280Y-56232569D01*
X27575874Y-56075000D01*
X27164126Y-56075000D01*
X26783720Y-56232569D01*
X26735000Y-56281289D01*
X26686280Y-56232569D01*
X26305874Y-56075000D01*
X25894126Y-56075000D01*
X25513720Y-56232569D01*
X25222569Y-56523720D01*
X25065000Y-56904126D01*
X24285631Y-56904126D01*
X24584457Y-56704457D01*
X24873993Y-56271136D01*
X24975664Y-55760000D01*
X24873993Y-55248864D01*
X24584457Y-54815543D01*
X24501332Y-54760000D01*
X35134336Y-54760000D01*
X35236007Y-55271136D01*
X35525543Y-55704457D01*
X35958864Y-55993993D01*
X36340978Y-56070000D01*
X36599022Y-56070000D01*
X36981136Y-55993993D01*
X37414457Y-55704457D01*
X37703993Y-55271136D01*
X37805664Y-54760000D01*
X37703993Y-54248864D01*
X37414457Y-53815543D01*
X36981136Y-53526007D01*
X36599022Y-53450000D01*
X36340978Y-53450000D01*
X35958864Y-53526007D01*
X35525543Y-53815543D01*
X35236007Y-54248864D01*
X35134336Y-54760000D01*
X24501332Y-54760000D01*
X24151136Y-54526007D01*
X23769022Y-54450000D01*
X23510978Y-54450000D01*
X23128864Y-54526007D01*
X22695543Y-54815543D01*
X22406007Y-55248864D01*
X22304336Y-55760000D01*
X18721307Y-55760000D01*
X18652431Y-55593720D01*
X18361280Y-55302569D01*
X17980874Y-55145000D01*
X17569126Y-55145000D01*
X17188720Y-55302569D01*
X16897569Y-55593720D01*
X16895712Y-55598203D01*
X16852431Y-55493714D01*
X16561280Y-55202563D01*
X16180874Y-55044994D01*
X15769126Y-55044994D01*
X15388720Y-55202563D01*
X15097569Y-55493714D01*
X14940000Y-55874120D01*
X735000Y-55874120D01*
X735000Y-55072388D01*
X749399Y-55000000D01*
X692354Y-54713217D01*
X529905Y-54470095D01*
X286783Y-54307646D01*
X127000Y-54275863D01*
X127000Y-51274126D01*
X12935000Y-51274126D01*
X12935000Y-51685874D01*
X13092569Y-52066280D01*
X13383720Y-52357431D01*
X13764126Y-52515000D01*
X14175874Y-52515000D01*
X14556280Y-52357431D01*
X14847431Y-52066280D01*
X15005000Y-51685874D01*
X15005000Y-51274126D01*
X14847431Y-50893720D01*
X14556280Y-50602569D01*
X14246191Y-50474126D01*
X16740000Y-50474126D01*
X16740000Y-50885874D01*
X16897569Y-51266280D01*
X17188720Y-51557431D01*
X17569126Y-51715000D01*
X17980874Y-51715000D01*
X18361280Y-51557431D01*
X18652431Y-51266280D01*
X18810000Y-50885874D01*
X18810000Y-50474126D01*
X18652431Y-50093720D01*
X18562837Y-50004126D01*
X20555000Y-50004126D01*
X20555000Y-50415874D01*
X20712569Y-50796280D01*
X21003720Y-51087431D01*
X21384126Y-51245000D01*
X21795874Y-51245000D01*
X21845595Y-51224405D01*
X21825000Y-51274126D01*
X21825000Y-51685874D01*
X21982569Y-52066280D01*
X22273720Y-52357431D01*
X22654126Y-52515000D01*
X23065874Y-52515000D01*
X23446280Y-52357431D01*
X23737431Y-52066280D01*
X23895000Y-51685874D01*
X23895000Y-51274126D01*
X23737431Y-50893720D01*
X23446280Y-50602569D01*
X23065874Y-50445000D01*
X22654126Y-50445000D01*
X22604405Y-50465595D01*
X22625000Y-50415874D01*
X22625000Y-50004126D01*
X22467431Y-49623720D01*
X22176280Y-49332569D01*
X21795874Y-49175000D01*
X21384126Y-49175000D01*
X21003720Y-49332569D01*
X20712569Y-49623720D01*
X20555000Y-50004126D01*
X18562837Y-50004126D01*
X18361280Y-49802569D01*
X17980874Y-49645000D01*
X17569126Y-49645000D01*
X17188720Y-49802569D01*
X16897569Y-50093720D01*
X16740000Y-50474126D01*
X14246191Y-50474126D01*
X14175874Y-50445000D01*
X13764126Y-50445000D01*
X13383720Y-50602569D01*
X13092569Y-50893720D01*
X12935000Y-51274126D01*
X127000Y-51274126D01*
X127000Y-48734126D01*
X24365000Y-48734126D01*
X24365000Y-49145874D01*
X24522569Y-49526280D01*
X24813720Y-49817431D01*
X25194126Y-49975000D01*
X25605874Y-49975000D01*
X25986280Y-49817431D01*
X26277431Y-49526280D01*
X26435000Y-49145874D01*
X26435000Y-48734126D01*
X26277431Y-48353720D01*
X25986280Y-48062569D01*
X25605874Y-47905000D01*
X25194126Y-47905000D01*
X24813720Y-48062569D01*
X24522569Y-48353720D01*
X24365000Y-48734126D01*
X127000Y-48734126D01*
X127000Y-46844126D01*
X5665000Y-46844126D01*
X5665000Y-47255874D01*
X5822569Y-47636280D01*
X6113720Y-47927431D01*
X6494126Y-48085000D01*
X6905874Y-48085000D01*
X7286280Y-47927431D01*
X7500000Y-47713711D01*
X7713720Y-47927431D01*
X8094126Y-48085000D01*
X8505874Y-48085000D01*
X8886280Y-47927431D01*
X9100000Y-47713711D01*
X9313720Y-47927431D01*
X9694126Y-48085000D01*
X10105874Y-48085000D01*
X10486280Y-47927431D01*
X10777431Y-47636280D01*
X10935000Y-47255874D01*
X10935000Y-46844126D01*
X10777431Y-46463720D01*
X10486280Y-46172569D01*
X10176191Y-46044126D01*
X12865000Y-46044126D01*
X12865000Y-46455874D01*
X13022569Y-46836280D01*
X13313720Y-47127431D01*
X13694126Y-47285000D01*
X14105874Y-47285000D01*
X14486280Y-47127431D01*
X14777431Y-46836280D01*
X14935000Y-46455874D01*
X14935000Y-46044126D01*
X14777431Y-45663720D01*
X14486280Y-45372569D01*
X14105874Y-45215000D01*
X13694126Y-45215000D01*
X13313720Y-45372569D01*
X13022569Y-45663720D01*
X12865000Y-46044126D01*
X10176191Y-46044126D01*
X10105874Y-46015000D01*
X9694126Y-46015000D01*
X9313720Y-46172569D01*
X9100000Y-46386289D01*
X8886280Y-46172569D01*
X8526450Y-46023523D01*
X8377415Y-45663720D01*
X8086264Y-45372569D01*
X7705858Y-45215000D01*
X7294110Y-45215000D01*
X6913704Y-45372569D01*
X6622553Y-45663720D01*
X6473511Y-46023539D01*
X6113720Y-46172569D01*
X5822569Y-46463720D01*
X5665000Y-46844126D01*
X127000Y-46844126D01*
X127000Y-41944126D01*
X1565000Y-41944126D01*
X1565000Y-42355874D01*
X1722569Y-42736280D01*
X2013720Y-43027431D01*
X2394126Y-43185000D01*
X2513764Y-43185000D01*
X2365000Y-43544148D01*
X2365000Y-43955896D01*
X2522569Y-44336302D01*
X2813720Y-44627453D01*
X3194126Y-44785022D01*
X3605874Y-44785022D01*
X3986280Y-44627453D01*
X4277431Y-44336302D01*
X4435000Y-43955896D01*
X4435000Y-43544148D01*
X4277431Y-43163742D01*
X4257815Y-43144126D01*
X16965000Y-43144126D01*
X16965000Y-43555874D01*
X17122569Y-43936280D01*
X17413720Y-44227431D01*
X17794126Y-44385000D01*
X18205874Y-44385000D01*
X18586280Y-44227431D01*
X18598878Y-44214833D01*
X21890000Y-44214833D01*
X21890000Y-44885167D01*
X22146526Y-45504476D01*
X22620524Y-45978474D01*
X23239833Y-46235000D01*
X23910167Y-46235000D01*
X24529476Y-45978474D01*
X25003474Y-45504476D01*
X25260000Y-44885167D01*
X25260000Y-44214833D01*
X25239290Y-44164833D01*
X58690000Y-44164833D01*
X58690000Y-44835167D01*
X58946526Y-45454476D01*
X59420524Y-45928474D01*
X60039833Y-46185000D01*
X60710167Y-46185000D01*
X61329476Y-45928474D01*
X61803474Y-45454476D01*
X62060000Y-44835167D01*
X62060000Y-44164833D01*
X61803474Y-43545524D01*
X61329476Y-43071526D01*
X60710167Y-42815000D01*
X60039833Y-42815000D01*
X59420524Y-43071526D01*
X58946526Y-43545524D01*
X58690000Y-44164833D01*
X25239290Y-44164833D01*
X25003474Y-43595524D01*
X24529476Y-43121526D01*
X23910167Y-42865000D01*
X23239833Y-42865000D01*
X22620524Y-43121526D01*
X22146526Y-43595524D01*
X21890000Y-44214833D01*
X18598878Y-44214833D01*
X18877431Y-43936280D01*
X19035000Y-43555874D01*
X19035000Y-43144126D01*
X18877431Y-42763720D01*
X18586280Y-42472569D01*
X18205874Y-42315000D01*
X17794126Y-42315000D01*
X17413720Y-42472569D01*
X17122569Y-42763720D01*
X16965000Y-43144126D01*
X4257815Y-43144126D01*
X3986280Y-42872591D01*
X3605874Y-42715022D01*
X3486236Y-42715022D01*
X3635000Y-42355874D01*
X3635000Y-41944126D01*
X3477431Y-41563720D01*
X3186280Y-41272569D01*
X2805874Y-41115000D01*
X2394126Y-41115000D01*
X2013720Y-41272569D01*
X1722569Y-41563720D01*
X1565000Y-41944126D01*
X127000Y-41944126D01*
X127000Y-38344124D01*
X2365000Y-38344124D01*
X2365000Y-38755872D01*
X2522569Y-39136278D01*
X2736290Y-39349999D01*
X2522569Y-39563720D01*
X2365000Y-39944126D01*
X2365000Y-40355874D01*
X2522569Y-40736280D01*
X2813720Y-41027431D01*
X3194126Y-41185000D01*
X3605874Y-41185000D01*
X3986280Y-41027431D01*
X4277431Y-40736280D01*
X4435000Y-40355874D01*
X4435000Y-40110000D01*
X22304336Y-40110000D01*
X22406007Y-40621136D01*
X22695543Y-41054457D01*
X23128864Y-41343993D01*
X23510978Y-41420000D01*
X23769022Y-41420000D01*
X24151136Y-41343993D01*
X24584457Y-41054457D01*
X24684905Y-40904126D01*
X25065000Y-40904126D01*
X25065000Y-41315874D01*
X25222569Y-41696280D01*
X25513720Y-41987431D01*
X25894126Y-42145000D01*
X26305874Y-42145000D01*
X26686280Y-41987431D01*
X26735000Y-41938711D01*
X26783720Y-41987431D01*
X27164126Y-42145000D01*
X27575874Y-42145000D01*
X27956280Y-41987431D01*
X28005000Y-41938711D01*
X28053720Y-41987431D01*
X28434126Y-42145000D01*
X28845874Y-42145000D01*
X29226280Y-41987431D01*
X29275000Y-41938711D01*
X29323720Y-41987431D01*
X29704126Y-42145000D01*
X30115874Y-42145000D01*
X30496280Y-41987431D01*
X30545000Y-41938711D01*
X30593720Y-41987431D01*
X30974126Y-42145000D01*
X31385874Y-42145000D01*
X31766280Y-41987431D01*
X31815000Y-41938711D01*
X31863720Y-41987431D01*
X32244126Y-42145000D01*
X32655874Y-42145000D01*
X33036280Y-41987431D01*
X33085000Y-41938711D01*
X33133720Y-41987431D01*
X33514126Y-42145000D01*
X33925874Y-42145000D01*
X34306280Y-41987431D01*
X34597431Y-41696280D01*
X34755000Y-41315874D01*
X34755000Y-40904126D01*
X34597431Y-40523720D01*
X34306280Y-40232569D01*
X33925874Y-40075000D01*
X33514126Y-40075000D01*
X33133720Y-40232569D01*
X33085000Y-40281289D01*
X33036280Y-40232569D01*
X32655874Y-40075000D01*
X32244126Y-40075000D01*
X31863720Y-40232569D01*
X31815000Y-40281289D01*
X31766280Y-40232569D01*
X31385874Y-40075000D01*
X30974126Y-40075000D01*
X30593720Y-40232569D01*
X30545000Y-40281289D01*
X30496280Y-40232569D01*
X30115874Y-40075000D01*
X29704126Y-40075000D01*
X29323720Y-40232569D01*
X29275000Y-40281289D01*
X29226280Y-40232569D01*
X28845874Y-40075000D01*
X28434126Y-40075000D01*
X28053720Y-40232569D01*
X28005000Y-40281289D01*
X27956280Y-40232569D01*
X27575874Y-40075000D01*
X27164126Y-40075000D01*
X26783720Y-40232569D01*
X26735000Y-40281289D01*
X26686280Y-40232569D01*
X26305874Y-40075000D01*
X25894126Y-40075000D01*
X25513720Y-40232569D01*
X25222569Y-40523720D01*
X25065000Y-40904126D01*
X24684905Y-40904126D01*
X24873993Y-40621136D01*
X24975664Y-40110000D01*
X24873993Y-39598864D01*
X24584457Y-39165543D01*
X24501332Y-39110000D01*
X35134336Y-39110000D01*
X35236007Y-39621136D01*
X35525543Y-40054457D01*
X35958864Y-40343993D01*
X36340978Y-40420000D01*
X36599022Y-40420000D01*
X36981136Y-40343993D01*
X37414457Y-40054457D01*
X37703993Y-39621136D01*
X37805664Y-39110000D01*
X37703993Y-38598864D01*
X37414457Y-38165543D01*
X36981136Y-37876007D01*
X36599022Y-37800000D01*
X36340978Y-37800000D01*
X35958864Y-37876007D01*
X35525543Y-38165543D01*
X35236007Y-38598864D01*
X35134336Y-39110000D01*
X24501332Y-39110000D01*
X24151136Y-38876007D01*
X23769022Y-38800000D01*
X23510978Y-38800000D01*
X23128864Y-38876007D01*
X22695543Y-39165543D01*
X22406007Y-39598864D01*
X22304336Y-40110000D01*
X4435000Y-40110000D01*
X4435000Y-39944126D01*
X4277431Y-39563720D01*
X4063710Y-39349999D01*
X4277431Y-39136278D01*
X4435000Y-38755872D01*
X4435000Y-38344124D01*
X4277431Y-37963718D01*
X3986280Y-37672567D01*
X3605874Y-37514998D01*
X3194126Y-37514998D01*
X2813720Y-37672567D01*
X2522569Y-37963718D01*
X2365000Y-38344124D01*
X127000Y-38344124D01*
X127000Y-34344126D01*
X16965000Y-34344126D01*
X16965000Y-34755874D01*
X17122569Y-35136280D01*
X17413720Y-35427431D01*
X17794126Y-35585000D01*
X18205874Y-35585000D01*
X18586280Y-35427431D01*
X18877431Y-35136280D01*
X19035000Y-34755874D01*
X19035000Y-34344126D01*
X18877431Y-33963720D01*
X18586280Y-33672569D01*
X18205874Y-33515000D01*
X17794126Y-33515000D01*
X17413720Y-33672569D01*
X17122569Y-33963720D01*
X16965000Y-34344126D01*
X127000Y-34344126D01*
X127000Y-31451241D01*
X6472115Y-31451241D01*
X6472115Y-31862989D01*
X6629684Y-32243395D01*
X6920835Y-32534546D01*
X7301241Y-32692115D01*
X7712989Y-32692115D01*
X8093395Y-32534546D01*
X8384546Y-32243395D01*
X8542115Y-31862989D01*
X8542115Y-31451241D01*
X8384546Y-31070835D01*
X8093395Y-30779684D01*
X7712989Y-30622115D01*
X7301241Y-30622115D01*
X6920835Y-30779684D01*
X6629684Y-31070835D01*
X6472115Y-31451241D01*
X127000Y-31451241D01*
X127000Y-28244126D01*
X11265000Y-28244126D01*
X11265000Y-28655874D01*
X11422569Y-29036280D01*
X11713720Y-29327431D01*
X12073531Y-29476469D01*
X12222569Y-29836280D01*
X12513720Y-30127431D01*
X12873531Y-30276469D01*
X13022569Y-30636280D01*
X13236277Y-30849988D01*
X13022545Y-31063720D01*
X12864976Y-31444126D01*
X12864976Y-31855874D01*
X13022545Y-32236280D01*
X13313696Y-32527431D01*
X13694102Y-32685000D01*
X14105850Y-32685000D01*
X14486256Y-32527431D01*
X14777407Y-32236280D01*
X14934976Y-31855874D01*
X14934976Y-31444126D01*
X14777407Y-31063720D01*
X14563699Y-30850012D01*
X14777431Y-30636280D01*
X14935000Y-30255874D01*
X14935000Y-29844126D01*
X14777431Y-29463720D01*
X14486280Y-29172569D01*
X14126469Y-29023531D01*
X13977431Y-28663720D01*
X13686280Y-28372569D01*
X13326469Y-28223531D01*
X13322867Y-28214833D01*
X21890000Y-28214833D01*
X21890000Y-28885167D01*
X22146526Y-29504476D01*
X22620524Y-29978474D01*
X23239833Y-30235000D01*
X23910167Y-30235000D01*
X24529476Y-29978474D01*
X25003474Y-29504476D01*
X25260000Y-28885167D01*
X25260000Y-28214833D01*
X25239290Y-28164833D01*
X58690000Y-28164833D01*
X58690000Y-28835167D01*
X58946526Y-29454476D01*
X59420524Y-29928474D01*
X60039833Y-30185000D01*
X60710167Y-30185000D01*
X61329476Y-29928474D01*
X61803474Y-29454476D01*
X62060000Y-28835167D01*
X62060000Y-28164833D01*
X61803474Y-27545524D01*
X61329476Y-27071526D01*
X60710167Y-26815000D01*
X60039833Y-26815000D01*
X59420524Y-27071526D01*
X58946526Y-27545524D01*
X58690000Y-28164833D01*
X25239290Y-28164833D01*
X25003474Y-27595524D01*
X24529476Y-27121526D01*
X23910167Y-26865000D01*
X23239833Y-26865000D01*
X22620524Y-27121526D01*
X22146526Y-27595524D01*
X21890000Y-28214833D01*
X13322867Y-28214833D01*
X13177431Y-27863720D01*
X12886280Y-27572569D01*
X12505874Y-27415000D01*
X12094126Y-27415000D01*
X11713720Y-27572569D01*
X11422569Y-27863720D01*
X11265000Y-28244126D01*
X127000Y-28244126D01*
X127000Y-25244126D01*
X10465000Y-25244126D01*
X10465000Y-25655874D01*
X10622569Y-26036280D01*
X10913720Y-26327431D01*
X11294126Y-26485000D01*
X11705874Y-26485000D01*
X12086280Y-26327431D01*
X12377431Y-26036280D01*
X12535000Y-25655874D01*
X12535000Y-25244126D01*
X12377431Y-24863720D01*
X12086280Y-24572569D01*
X11705874Y-24415000D01*
X11294126Y-24415000D01*
X10913720Y-24572569D01*
X10622569Y-24863720D01*
X10465000Y-25244126D01*
X127000Y-25244126D01*
X127000Y-23760000D01*
X22304336Y-23760000D01*
X22406007Y-24271136D01*
X22695543Y-24704457D01*
X23128864Y-24993993D01*
X23510978Y-25070000D01*
X23769022Y-25070000D01*
X24151136Y-24993993D01*
X24285631Y-24904126D01*
X25065000Y-24904126D01*
X25065000Y-25315874D01*
X25222569Y-25696280D01*
X25513720Y-25987431D01*
X25894126Y-26145000D01*
X26305874Y-26145000D01*
X26686280Y-25987431D01*
X26735000Y-25938711D01*
X26783720Y-25987431D01*
X27164126Y-26145000D01*
X27575874Y-26145000D01*
X27956280Y-25987431D01*
X28005000Y-25938711D01*
X28053720Y-25987431D01*
X28434126Y-26145000D01*
X28845874Y-26145000D01*
X29226280Y-25987431D01*
X29275000Y-25938711D01*
X29323720Y-25987431D01*
X29704126Y-26145000D01*
X30115874Y-26145000D01*
X30496280Y-25987431D01*
X30545000Y-25938711D01*
X30593720Y-25987431D01*
X30974126Y-26145000D01*
X31385874Y-26145000D01*
X31766280Y-25987431D01*
X31815000Y-25938711D01*
X31863720Y-25987431D01*
X32244126Y-26145000D01*
X32655874Y-26145000D01*
X33036280Y-25987431D01*
X33085000Y-25938711D01*
X33133720Y-25987431D01*
X33514126Y-26145000D01*
X33925874Y-26145000D01*
X34306280Y-25987431D01*
X34597431Y-25696280D01*
X34755000Y-25315874D01*
X34755000Y-24904126D01*
X34597431Y-24523720D01*
X34306280Y-24232569D01*
X33925874Y-24075000D01*
X33514126Y-24075000D01*
X33133720Y-24232569D01*
X33085000Y-24281289D01*
X33036280Y-24232569D01*
X32655874Y-24075000D01*
X32244126Y-24075000D01*
X31863720Y-24232569D01*
X31815000Y-24281289D01*
X31766280Y-24232569D01*
X31385874Y-24075000D01*
X30974126Y-24075000D01*
X30593720Y-24232569D01*
X30545000Y-24281289D01*
X30496280Y-24232569D01*
X30115874Y-24075000D01*
X29704126Y-24075000D01*
X29323720Y-24232569D01*
X29275000Y-24281289D01*
X29226280Y-24232569D01*
X28845874Y-24075000D01*
X28434126Y-24075000D01*
X28053720Y-24232569D01*
X28005000Y-24281289D01*
X27956280Y-24232569D01*
X27575874Y-24075000D01*
X27164126Y-24075000D01*
X26783720Y-24232569D01*
X26735000Y-24281289D01*
X26686280Y-24232569D01*
X26305874Y-24075000D01*
X25894126Y-24075000D01*
X25513720Y-24232569D01*
X25222569Y-24523720D01*
X25065000Y-24904126D01*
X24285631Y-24904126D01*
X24584457Y-24704457D01*
X24873993Y-24271136D01*
X24975664Y-23760000D01*
X24873993Y-23248864D01*
X24584457Y-22815543D01*
X24501332Y-22760000D01*
X35134336Y-22760000D01*
X35236007Y-23271136D01*
X35525543Y-23704457D01*
X35958864Y-23993993D01*
X36340978Y-24070000D01*
X36599022Y-24070000D01*
X36981136Y-23993993D01*
X37414457Y-23704457D01*
X37703993Y-23271136D01*
X37805664Y-22760000D01*
X37703993Y-22248864D01*
X37414457Y-21815543D01*
X36981136Y-21526007D01*
X36599022Y-21450000D01*
X36340978Y-21450000D01*
X35958864Y-21526007D01*
X35525543Y-21815543D01*
X35236007Y-22248864D01*
X35134336Y-22760000D01*
X24501332Y-22760000D01*
X24151136Y-22526007D01*
X23769022Y-22450000D01*
X23510978Y-22450000D01*
X23128864Y-22526007D01*
X22695543Y-22815543D01*
X22406007Y-23248864D01*
X22304336Y-23760000D01*
X127000Y-23760000D01*
X127000Y-20794126D01*
X9080012Y-20794126D01*
X9080012Y-21205874D01*
X9237581Y-21586280D01*
X9528732Y-21877431D01*
X9909138Y-22035000D01*
X10320886Y-22035000D01*
X10701292Y-21877431D01*
X10992443Y-21586280D01*
X11150012Y-21205874D01*
X11150012Y-20794126D01*
X19210000Y-20794126D01*
X19210000Y-21205874D01*
X19367569Y-21586280D01*
X19658720Y-21877431D01*
X20039126Y-22035000D01*
X20450874Y-22035000D01*
X20831280Y-21877431D01*
X21122431Y-21586280D01*
X21280000Y-21205874D01*
X21280000Y-20794126D01*
X21122431Y-20413720D01*
X20831280Y-20122569D01*
X20450874Y-19965000D01*
X20039126Y-19965000D01*
X19658720Y-20122569D01*
X19367569Y-20413720D01*
X19210000Y-20794126D01*
X11150012Y-20794126D01*
X10992443Y-20413720D01*
X10701292Y-20122569D01*
X10320886Y-19965000D01*
X9909138Y-19965000D01*
X9528732Y-20122569D01*
X9237581Y-20413720D01*
X9080012Y-20794126D01*
X127000Y-20794126D01*
X127000Y-18254126D01*
X19210000Y-18254126D01*
X19210000Y-18665874D01*
X19367569Y-19046280D01*
X19658720Y-19337431D01*
X20039126Y-19495000D01*
X20450874Y-19495000D01*
X20831280Y-19337431D01*
X21122431Y-19046280D01*
X21280000Y-18665874D01*
X21280000Y-18254126D01*
X21122431Y-17873720D01*
X20831280Y-17582569D01*
X20450874Y-17425000D01*
X20039126Y-17425000D01*
X19658720Y-17582569D01*
X19367569Y-17873720D01*
X19210000Y-18254126D01*
X127000Y-18254126D01*
X127000Y-17524137D01*
X286783Y-17492354D01*
X529905Y-17329905D01*
X692354Y-17086783D01*
X749399Y-16800000D01*
X735000Y-16727612D01*
X735000Y-15714126D01*
X9080000Y-15714126D01*
X9080000Y-16125874D01*
X9237569Y-16506280D01*
X9528720Y-16797431D01*
X9909126Y-16955000D01*
X10320874Y-16955000D01*
X10701280Y-16797431D01*
X10992431Y-16506280D01*
X11150000Y-16125874D01*
X11150000Y-15714126D01*
X10992431Y-15333720D01*
X10701280Y-15042569D01*
X10320874Y-14885000D01*
X9909126Y-14885000D01*
X9528720Y-15042569D01*
X9237569Y-15333720D01*
X9080000Y-15714126D01*
X735000Y-15714126D01*
X735000Y-12214833D01*
X21890000Y-12214833D01*
X21890000Y-12885167D01*
X22146526Y-13504476D01*
X22620524Y-13978474D01*
X23239833Y-14235000D01*
X23910167Y-14235000D01*
X24529476Y-13978474D01*
X25003474Y-13504476D01*
X25260000Y-12885167D01*
X25260000Y-12214833D01*
X25239290Y-12164833D01*
X58690000Y-12164833D01*
X58690000Y-12835167D01*
X58946526Y-13454476D01*
X59420524Y-13928474D01*
X60039833Y-14185000D01*
X60710167Y-14185000D01*
X61329476Y-13928474D01*
X61803474Y-13454476D01*
X62060000Y-12835167D01*
X62060000Y-12164833D01*
X61803474Y-11545524D01*
X61329476Y-11071526D01*
X60710167Y-10815000D01*
X60039833Y-10815000D01*
X59420524Y-11071526D01*
X58946526Y-11545524D01*
X58690000Y-12164833D01*
X25239290Y-12164833D01*
X25003474Y-11595524D01*
X24529476Y-11121526D01*
X23910167Y-10865000D01*
X23239833Y-10865000D01*
X22620524Y-11121526D01*
X22146526Y-11595524D01*
X21890000Y-12214833D01*
X735000Y-12214833D01*
X735000Y-7760000D01*
X22304336Y-7760000D01*
X22406007Y-8271136D01*
X22695543Y-8704457D01*
X23128864Y-8993993D01*
X23510978Y-9070000D01*
X23769022Y-9070000D01*
X24151136Y-8993993D01*
X24285631Y-8904126D01*
X25065000Y-8904126D01*
X25065000Y-9315874D01*
X25222569Y-9696280D01*
X25513720Y-9987431D01*
X25894126Y-10145000D01*
X26305874Y-10145000D01*
X26686280Y-9987431D01*
X26735000Y-9938711D01*
X26783720Y-9987431D01*
X27164126Y-10145000D01*
X27575874Y-10145000D01*
X27956280Y-9987431D01*
X28005000Y-9938711D01*
X28053720Y-9987431D01*
X28434126Y-10145000D01*
X28845874Y-10145000D01*
X29226280Y-9987431D01*
X29275000Y-9938711D01*
X29323720Y-9987431D01*
X29704126Y-10145000D01*
X30115874Y-10145000D01*
X30496280Y-9987431D01*
X30545000Y-9938711D01*
X30593720Y-9987431D01*
X30974126Y-10145000D01*
X31385874Y-10145000D01*
X31766280Y-9987431D01*
X31815000Y-9938711D01*
X31863720Y-9987431D01*
X32244126Y-10145000D01*
X32655874Y-10145000D01*
X33036280Y-9987431D01*
X33085000Y-9938711D01*
X33133720Y-9987431D01*
X33514126Y-10145000D01*
X33925874Y-10145000D01*
X34306280Y-9987431D01*
X34597431Y-9696280D01*
X34755000Y-9315874D01*
X34755000Y-8904126D01*
X34597431Y-8523720D01*
X34306280Y-8232569D01*
X33925874Y-8075000D01*
X33514126Y-8075000D01*
X33133720Y-8232569D01*
X33085000Y-8281289D01*
X33036280Y-8232569D01*
X32655874Y-8075000D01*
X32244126Y-8075000D01*
X31863720Y-8232569D01*
X31815000Y-8281289D01*
X31766280Y-8232569D01*
X31385874Y-8075000D01*
X30974126Y-8075000D01*
X30593720Y-8232569D01*
X30545000Y-8281289D01*
X30496280Y-8232569D01*
X30115874Y-8075000D01*
X29704126Y-8075000D01*
X29323720Y-8232569D01*
X29275000Y-8281289D01*
X29226280Y-8232569D01*
X28845874Y-8075000D01*
X28434126Y-8075000D01*
X28053720Y-8232569D01*
X28005000Y-8281289D01*
X27956280Y-8232569D01*
X27575874Y-8075000D01*
X27164126Y-8075000D01*
X26783720Y-8232569D01*
X26735000Y-8281289D01*
X26686280Y-8232569D01*
X26305874Y-8075000D01*
X25894126Y-8075000D01*
X25513720Y-8232569D01*
X25222569Y-8523720D01*
X25065000Y-8904126D01*
X24285631Y-8904126D01*
X24584457Y-8704457D01*
X24873993Y-8271136D01*
X24975664Y-7760000D01*
X24873993Y-7248864D01*
X24584457Y-6815543D01*
X24501332Y-6760000D01*
X35134336Y-6760000D01*
X35236007Y-7271136D01*
X35525543Y-7704457D01*
X35958864Y-7993993D01*
X36340978Y-8070000D01*
X36599022Y-8070000D01*
X36981136Y-7993993D01*
X37414457Y-7704457D01*
X37703993Y-7271136D01*
X37805664Y-6760000D01*
X37703993Y-6248864D01*
X37414457Y-5815543D01*
X36981136Y-5526007D01*
X36599022Y-5450000D01*
X36340978Y-5450000D01*
X35958864Y-5526007D01*
X35525543Y-5815543D01*
X35236007Y-6248864D01*
X35134336Y-6760000D01*
X24501332Y-6760000D01*
X24151136Y-6526007D01*
X23769022Y-6450000D01*
X23510978Y-6450000D01*
X23128864Y-6526007D01*
X22695543Y-6815543D01*
X22406007Y-7248864D01*
X22304336Y-7760000D01*
X735000Y-7760000D01*
X735000Y-3241089D01*
X800751Y-2654908D01*
X981140Y-2136900D01*
X1271808Y-1671734D01*
X1658308Y-1282526D01*
X2121438Y-988614D01*
X2638164Y-804617D01*
X3221984Y-735000D01*
X70608911Y-735000D01*
X71195092Y-800751D01*
X71195092Y-800751D01*
G37*
X71195092Y-800751D02*
X71713100Y-981140D01*
X72178266Y-1271808D01*
X72567474Y-1658308D01*
X72861386Y-2121438D01*
X73045383Y-2638164D01*
X73115001Y-3221993D01*
X73115000Y-16727612D01*
X73100601Y-16800000D01*
X73157646Y-17086783D01*
X73267161Y-17250683D01*
X73320095Y-17329905D01*
X73563217Y-17492354D01*
X73723000Y-17524137D01*
X73723000Y-54275863D01*
X73563217Y-54307646D01*
X73320095Y-54470095D01*
X73157646Y-54713217D01*
X73100601Y-55000000D01*
X73115000Y-55072388D01*
X73115001Y-68672388D01*
X73122947Y-68712336D01*
X73073780Y-69150669D01*
X72891548Y-69673969D01*
X72597909Y-70143890D01*
X72207451Y-70537083D01*
X71739593Y-70833995D01*
X71217576Y-71019877D01*
X70766155Y-71073706D01*
X70722388Y-71065000D01*
X3241089Y-71065000D01*
X2654908Y-70999249D01*
X2136899Y-70818859D01*
X1671734Y-70528192D01*
X1282524Y-70141689D01*
X988614Y-69678562D01*
X941322Y-69545750D01*
X2325000Y-69545750D01*
X2325000Y-70236309D01*
X2421673Y-70469698D01*
X2600301Y-70648327D01*
X2833690Y-70745000D01*
X3524250Y-70745000D01*
X3683000Y-70586250D01*
X3683000Y-69387000D01*
X2483750Y-69387000D01*
X2325000Y-69545750D01*
X941322Y-69545750D01*
X804617Y-69161837D01*
X735000Y-68578016D01*
X735000Y-68283691D01*
X2325000Y-68283691D01*
X2325000Y-68974250D01*
X2483750Y-69133000D01*
X3683000Y-69133000D01*
X3683000Y-67933750D01*
X3937000Y-67933750D01*
X3937000Y-69133000D01*
X3957000Y-69133000D01*
X3957000Y-69387000D01*
X3937000Y-69387000D01*
X3937000Y-70586250D01*
X4095750Y-70745000D01*
X4786310Y-70745000D01*
X5019699Y-70648327D01*
X5198327Y-70469698D01*
X5264904Y-70308967D01*
X5279375Y-70330625D01*
X5770582Y-70658839D01*
X6203744Y-70745000D01*
X6496256Y-70745000D01*
X6929418Y-70658839D01*
X7420625Y-70330625D01*
X7620000Y-70032239D01*
X7819375Y-70330625D01*
X8310582Y-70658839D01*
X8743744Y-70745000D01*
X9036256Y-70745000D01*
X9469418Y-70658839D01*
X9960625Y-70330625D01*
X10160000Y-70032239D01*
X10359375Y-70330625D01*
X10850582Y-70658839D01*
X11283744Y-70745000D01*
X11576256Y-70745000D01*
X12009418Y-70658839D01*
X12500625Y-70330625D01*
X12828839Y-69839418D01*
X12887252Y-69545750D01*
X13755000Y-69545750D01*
X13755000Y-70236309D01*
X13851673Y-70469698D01*
X14030301Y-70648327D01*
X14263690Y-70745000D01*
X14954250Y-70745000D01*
X15113000Y-70586250D01*
X15113000Y-69387000D01*
X13913750Y-69387000D01*
X13755000Y-69545750D01*
X12887252Y-69545750D01*
X12944092Y-69260000D01*
X12828839Y-68680582D01*
X12563645Y-68283691D01*
X13755000Y-68283691D01*
X13755000Y-68974250D01*
X13913750Y-69133000D01*
X15113000Y-69133000D01*
X15113000Y-67933750D01*
X15367000Y-67933750D01*
X15367000Y-69133000D01*
X15387000Y-69133000D01*
X15387000Y-69387000D01*
X15367000Y-69387000D01*
X15367000Y-70586250D01*
X15525750Y-70745000D01*
X16216310Y-70745000D01*
X16449699Y-70648327D01*
X16628327Y-70469698D01*
X16694904Y-70308967D01*
X16709375Y-70330625D01*
X17200582Y-70658839D01*
X17633744Y-70745000D01*
X17926256Y-70745000D01*
X18359418Y-70658839D01*
X18850625Y-70330625D01*
X19063843Y-70011522D01*
X19124817Y-70141358D01*
X19553076Y-70531645D01*
X19963110Y-70701476D01*
X20193000Y-70580155D01*
X20193000Y-69387000D01*
X20173000Y-69387000D01*
X20173000Y-69133000D01*
X20193000Y-69133000D01*
X20193000Y-67939845D01*
X20447000Y-67939845D01*
X20447000Y-69133000D01*
X20467000Y-69133000D01*
X20467000Y-69387000D01*
X20447000Y-69387000D01*
X20447000Y-70580155D01*
X20676890Y-70701476D01*
X21086924Y-70531645D01*
X21515183Y-70141358D01*
X21576157Y-70011522D01*
X21789375Y-70330625D01*
X22280582Y-70658839D01*
X22713744Y-70745000D01*
X23006256Y-70745000D01*
X23439418Y-70658839D01*
X23930625Y-70330625D01*
X24258839Y-69839418D01*
X24374092Y-69260000D01*
X24258839Y-68680582D01*
X23930625Y-68189375D01*
X23439418Y-67861161D01*
X23006256Y-67775000D01*
X22713744Y-67775000D01*
X22280582Y-67861161D01*
X21789375Y-68189375D01*
X21576157Y-68508478D01*
X21515183Y-68378642D01*
X21086924Y-67988355D01*
X20676890Y-67818524D01*
X20447000Y-67939845D01*
X20193000Y-67939845D01*
X19963110Y-67818524D01*
X19553076Y-67988355D01*
X19124817Y-68378642D01*
X19063843Y-68508478D01*
X18850625Y-68189375D01*
X18359418Y-67861161D01*
X17926256Y-67775000D01*
X17633744Y-67775000D01*
X17200582Y-67861161D01*
X16709375Y-68189375D01*
X16694904Y-68211033D01*
X16628327Y-68050302D01*
X16449699Y-67871673D01*
X16216310Y-67775000D01*
X15525750Y-67775000D01*
X15367000Y-67933750D01*
X15113000Y-67933750D01*
X14954250Y-67775000D01*
X14263690Y-67775000D01*
X14030301Y-67871673D01*
X13851673Y-68050302D01*
X13755000Y-68283691D01*
X12563645Y-68283691D01*
X12500625Y-68189375D01*
X12009418Y-67861161D01*
X11576256Y-67775000D01*
X11283744Y-67775000D01*
X10850582Y-67861161D01*
X10359375Y-68189375D01*
X10160000Y-68487761D01*
X9960625Y-68189375D01*
X9469418Y-67861161D01*
X9036256Y-67775000D01*
X8743744Y-67775000D01*
X8310582Y-67861161D01*
X7819375Y-68189375D01*
X7620000Y-68487761D01*
X7420625Y-68189375D01*
X6929418Y-67861161D01*
X6496256Y-67775000D01*
X6203744Y-67775000D01*
X5770582Y-67861161D01*
X5279375Y-68189375D01*
X5264904Y-68211033D01*
X5198327Y-68050302D01*
X5019699Y-67871673D01*
X4786310Y-67775000D01*
X4095750Y-67775000D01*
X3937000Y-67933750D01*
X3683000Y-67933750D01*
X3524250Y-67775000D01*
X2833690Y-67775000D01*
X2600301Y-67871673D01*
X2421673Y-68050302D01*
X2325000Y-68283691D01*
X735000Y-68283691D01*
X735000Y-67692268D01*
X25170000Y-67692268D01*
X25170000Y-68287733D01*
X25257032Y-68725271D01*
X25588561Y-69221439D01*
X26084730Y-69552968D01*
X26670000Y-69669386D01*
X27255271Y-69552968D01*
X27751439Y-69221439D01*
X27940000Y-68939237D01*
X28128561Y-69221439D01*
X28624730Y-69552968D01*
X29210000Y-69669386D01*
X29795271Y-69552968D01*
X30291439Y-69221439D01*
X30480000Y-68939237D01*
X30668561Y-69221439D01*
X31164730Y-69552968D01*
X31750000Y-69669386D01*
X32335271Y-69552968D01*
X32828223Y-69223588D01*
X32886673Y-69364698D01*
X33065301Y-69543327D01*
X33298690Y-69640000D01*
X34004250Y-69640000D01*
X34163000Y-69481250D01*
X34163000Y-68117000D01*
X34417000Y-68117000D01*
X34417000Y-69481250D01*
X34575750Y-69640000D01*
X35281310Y-69640000D01*
X35514699Y-69543327D01*
X35693327Y-69364698D01*
X35790000Y-69131309D01*
X35790000Y-68275750D01*
X35631250Y-68117000D01*
X34417000Y-68117000D01*
X34163000Y-68117000D01*
X34143000Y-68117000D01*
X34143000Y-67863000D01*
X34163000Y-67863000D01*
X34163000Y-66498750D01*
X34417000Y-66498750D01*
X34417000Y-67863000D01*
X35631250Y-67863000D01*
X35790000Y-67704250D01*
X35790000Y-67692268D01*
X36600000Y-67692268D01*
X36600000Y-68287733D01*
X36687032Y-68725271D01*
X37018561Y-69221439D01*
X37514730Y-69552968D01*
X38100000Y-69669386D01*
X38685271Y-69552968D01*
X39181439Y-69221439D01*
X39370000Y-68939237D01*
X39558561Y-69221439D01*
X40054730Y-69552968D01*
X40640000Y-69669386D01*
X41225271Y-69552968D01*
X41721439Y-69221439D01*
X41910000Y-68939237D01*
X42098561Y-69221439D01*
X42594730Y-69552968D01*
X43180000Y-69669386D01*
X43765271Y-69552968D01*
X44258223Y-69223588D01*
X44316673Y-69364698D01*
X44495301Y-69543327D01*
X44728690Y-69640000D01*
X45434250Y-69640000D01*
X45593000Y-69481250D01*
X45593000Y-68117000D01*
X45847000Y-68117000D01*
X45847000Y-69481250D01*
X46005750Y-69640000D01*
X46711310Y-69640000D01*
X46944699Y-69543327D01*
X47123327Y-69364698D01*
X47220000Y-69131309D01*
X47220000Y-68275750D01*
X47061250Y-68117000D01*
X45847000Y-68117000D01*
X45593000Y-68117000D01*
X45573000Y-68117000D01*
X45573000Y-67863000D01*
X45593000Y-67863000D01*
X45593000Y-66498750D01*
X45847000Y-66498750D01*
X45847000Y-67863000D01*
X47061250Y-67863000D01*
X47220000Y-67704250D01*
X47220000Y-67692268D01*
X48030000Y-67692268D01*
X48030000Y-68287733D01*
X48117032Y-68725271D01*
X48448561Y-69221439D01*
X48944730Y-69552968D01*
X49530000Y-69669386D01*
X50115271Y-69552968D01*
X50611439Y-69221439D01*
X50800000Y-68939237D01*
X50988561Y-69221439D01*
X51484730Y-69552968D01*
X52070000Y-69669386D01*
X52655271Y-69552968D01*
X53151439Y-69221439D01*
X53340000Y-68939237D01*
X53528561Y-69221439D01*
X54024730Y-69552968D01*
X54610000Y-69669386D01*
X55195271Y-69552968D01*
X55688223Y-69223588D01*
X55746673Y-69364698D01*
X55925301Y-69543327D01*
X56158690Y-69640000D01*
X56864250Y-69640000D01*
X57023000Y-69481250D01*
X57023000Y-68117000D01*
X57277000Y-68117000D01*
X57277000Y-69481250D01*
X57435750Y-69640000D01*
X58141310Y-69640000D01*
X58374699Y-69543327D01*
X58553327Y-69364698D01*
X58650000Y-69131309D01*
X58650000Y-68275750D01*
X58491250Y-68117000D01*
X57277000Y-68117000D01*
X57023000Y-68117000D01*
X57003000Y-68117000D01*
X57003000Y-67863000D01*
X57023000Y-67863000D01*
X57023000Y-66498750D01*
X57277000Y-66498750D01*
X57277000Y-67863000D01*
X58491250Y-67863000D01*
X58650000Y-67704250D01*
X58650000Y-67692268D01*
X59460000Y-67692268D01*
X59460000Y-68287733D01*
X59547032Y-68725271D01*
X59878561Y-69221439D01*
X60374730Y-69552968D01*
X60960000Y-69669386D01*
X61545271Y-69552968D01*
X62041439Y-69221439D01*
X62216846Y-68958923D01*
X62559143Y-69340793D01*
X63087240Y-69594131D01*
X63100754Y-69596346D01*
X63333000Y-69475224D01*
X63333000Y-68117000D01*
X63587000Y-68117000D01*
X63587000Y-69475224D01*
X63819246Y-69596346D01*
X63832760Y-69594131D01*
X64360857Y-69340793D01*
X64710000Y-68951285D01*
X65059143Y-69340793D01*
X65587240Y-69594131D01*
X65600754Y-69596346D01*
X65833000Y-69475224D01*
X65833000Y-68117000D01*
X63587000Y-68117000D01*
X63333000Y-68117000D01*
X63313000Y-68117000D01*
X63313000Y-67863000D01*
X63333000Y-67863000D01*
X63333000Y-66504776D01*
X63587000Y-66504776D01*
X63587000Y-67863000D01*
X65833000Y-67863000D01*
X65833000Y-66504776D01*
X66087000Y-66504776D01*
X66087000Y-67863000D01*
X66107000Y-67863000D01*
X66107000Y-68117000D01*
X66087000Y-68117000D01*
X66087000Y-69475224D01*
X66319246Y-69596346D01*
X66332760Y-69594131D01*
X66860857Y-69340793D01*
X66986477Y-69200650D01*
X66996843Y-69252765D01*
X67137191Y-69462809D01*
X67347235Y-69603157D01*
X67595000Y-69652440D01*
X69325000Y-69652440D01*
X69572765Y-69603157D01*
X69782809Y-69462809D01*
X69923157Y-69252765D01*
X69972440Y-69005000D01*
X69972440Y-66975000D01*
X69923157Y-66727235D01*
X69782809Y-66517191D01*
X69572765Y-66376843D01*
X69325000Y-66327560D01*
X67595000Y-66327560D01*
X67347235Y-66376843D01*
X67137191Y-66517191D01*
X66996843Y-66727235D01*
X66986477Y-66779350D01*
X66860857Y-66639207D01*
X66332760Y-66385869D01*
X66319246Y-66383654D01*
X66087000Y-66504776D01*
X65833000Y-66504776D01*
X65600754Y-66383654D01*
X65587240Y-66385869D01*
X65059143Y-66639207D01*
X64710000Y-67028715D01*
X64360857Y-66639207D01*
X63832760Y-66385869D01*
X63819246Y-66383654D01*
X63587000Y-66504776D01*
X63333000Y-66504776D01*
X63100754Y-66383654D01*
X63087240Y-66385869D01*
X62559143Y-66639207D01*
X62216846Y-67021077D01*
X62041439Y-66758561D01*
X61545270Y-66427032D01*
X60960000Y-66310614D01*
X60374729Y-66427032D01*
X59878561Y-66758561D01*
X59547032Y-67254730D01*
X59460000Y-67692268D01*
X58650000Y-67692268D01*
X58650000Y-66848691D01*
X58553327Y-66615302D01*
X58374699Y-66436673D01*
X58141310Y-66340000D01*
X57435750Y-66340000D01*
X57277000Y-66498750D01*
X57023000Y-66498750D01*
X56864250Y-66340000D01*
X56158690Y-66340000D01*
X55925301Y-66436673D01*
X55746673Y-66615302D01*
X55688223Y-66756412D01*
X55195270Y-66427032D01*
X54610000Y-66310614D01*
X54024729Y-66427032D01*
X53528561Y-66758561D01*
X53340000Y-67040763D01*
X53151439Y-66758561D01*
X52951127Y-66624717D01*
X53074595Y-66501249D01*
X53255000Y-66065711D01*
X53255000Y-65594289D01*
X53074595Y-65158751D01*
X52741249Y-64825405D01*
X52305711Y-64645000D01*
X51834289Y-64645000D01*
X51398751Y-64825405D01*
X51065405Y-65158751D01*
X50885000Y-65594289D01*
X50885000Y-66065711D01*
X51065405Y-66501249D01*
X51188873Y-66624717D01*
X50988561Y-66758561D01*
X50800000Y-67040763D01*
X50611439Y-66758561D01*
X50115270Y-66427032D01*
X49530000Y-66310614D01*
X48944729Y-66427032D01*
X48448561Y-66758561D01*
X48117032Y-67254730D01*
X48030000Y-67692268D01*
X47220000Y-67692268D01*
X47220000Y-66848691D01*
X47123327Y-66615302D01*
X46944699Y-66436673D01*
X46711310Y-66340000D01*
X46005750Y-66340000D01*
X45847000Y-66498750D01*
X45593000Y-66498750D01*
X45434250Y-66340000D01*
X44728690Y-66340000D01*
X44495301Y-66436673D01*
X44316673Y-66615302D01*
X44258223Y-66756412D01*
X43765270Y-66427032D01*
X43180000Y-66310614D01*
X42594729Y-66427032D01*
X42098561Y-66758561D01*
X41910000Y-67040763D01*
X41721439Y-66758561D01*
X41521127Y-66624717D01*
X41644595Y-66501249D01*
X41825000Y-66065711D01*
X41825000Y-65594289D01*
X41644595Y-65158751D01*
X41311249Y-64825405D01*
X40875711Y-64645000D01*
X40404289Y-64645000D01*
X39968751Y-64825405D01*
X39635405Y-65158751D01*
X39455000Y-65594289D01*
X39455000Y-66065711D01*
X39635405Y-66501249D01*
X39758873Y-66624717D01*
X39558561Y-66758561D01*
X39370000Y-67040763D01*
X39181439Y-66758561D01*
X38685270Y-66427032D01*
X38100000Y-66310614D01*
X37514729Y-66427032D01*
X37018561Y-66758561D01*
X36687032Y-67254730D01*
X36600000Y-67692268D01*
X35790000Y-67692268D01*
X35790000Y-66848691D01*
X35693327Y-66615302D01*
X35514699Y-66436673D01*
X35281310Y-66340000D01*
X34575750Y-66340000D01*
X34417000Y-66498750D01*
X34163000Y-66498750D01*
X34004250Y-66340000D01*
X33298690Y-66340000D01*
X33065301Y-66436673D01*
X32886673Y-66615302D01*
X32828223Y-66756412D01*
X32335270Y-66427032D01*
X31750000Y-66310614D01*
X31164729Y-66427032D01*
X30668561Y-66758561D01*
X30480000Y-67040763D01*
X30291439Y-66758561D01*
X30091127Y-66624717D01*
X30214595Y-66501249D01*
X30395000Y-66065711D01*
X30395000Y-65594289D01*
X30214595Y-65158751D01*
X29881249Y-64825405D01*
X29445711Y-64645000D01*
X28974289Y-64645000D01*
X28538751Y-64825405D01*
X28205405Y-65158751D01*
X28025000Y-65594289D01*
X28025000Y-66065711D01*
X28205405Y-66501249D01*
X28328873Y-66624717D01*
X28128561Y-66758561D01*
X27940000Y-67040763D01*
X27751439Y-66758561D01*
X27255270Y-66427032D01*
X26670000Y-66310614D01*
X26084729Y-66427032D01*
X25588561Y-66758561D01*
X25257032Y-67254730D01*
X25170000Y-67692268D01*
X735000Y-67692268D01*
X735000Y-65806892D01*
X7448514Y-65806892D01*
X7694817Y-66331358D01*
X8123076Y-66721645D01*
X8533110Y-66891476D01*
X8763000Y-66770155D01*
X8763000Y-65577000D01*
X7569181Y-65577000D01*
X7448514Y-65806892D01*
X735000Y-65806892D01*
X735000Y-65093108D01*
X7448514Y-65093108D01*
X7569181Y-65323000D01*
X8763000Y-65323000D01*
X8763000Y-64129845D01*
X9017000Y-64129845D01*
X9017000Y-65323000D01*
X9037000Y-65323000D01*
X9037000Y-65577000D01*
X9017000Y-65577000D01*
X9017000Y-66770155D01*
X9246890Y-66891476D01*
X9656924Y-66721645D01*
X10085183Y-66331358D01*
X10146157Y-66201522D01*
X10359375Y-66520625D01*
X10850582Y-66848839D01*
X11283744Y-66935000D01*
X11576256Y-66935000D01*
X12009418Y-66848839D01*
X12500625Y-66520625D01*
X12700000Y-66222239D01*
X12899375Y-66520625D01*
X13390582Y-66848839D01*
X13823744Y-66935000D01*
X14116256Y-66935000D01*
X14549418Y-66848839D01*
X15040625Y-66520625D01*
X15052816Y-66502381D01*
X15061843Y-66547765D01*
X15202191Y-66757809D01*
X15412235Y-66898157D01*
X15660000Y-66947440D01*
X17360000Y-66947440D01*
X17607765Y-66898157D01*
X17817809Y-66757809D01*
X17958157Y-66547765D01*
X18007440Y-66300000D01*
X18007440Y-64600000D01*
X17958157Y-64352235D01*
X17817809Y-64142191D01*
X17607765Y-64001843D01*
X17360000Y-63952560D01*
X15660000Y-63952560D01*
X15412235Y-64001843D01*
X15202191Y-64142191D01*
X15061843Y-64352235D01*
X15052816Y-64397619D01*
X15040625Y-64379375D01*
X14549418Y-64051161D01*
X14116256Y-63965000D01*
X13823744Y-63965000D01*
X13390582Y-64051161D01*
X12899375Y-64379375D01*
X12700000Y-64677761D01*
X12500625Y-64379375D01*
X12009418Y-64051161D01*
X11576256Y-63965000D01*
X11283744Y-63965000D01*
X10850582Y-64051161D01*
X10359375Y-64379375D01*
X10146157Y-64698478D01*
X10085183Y-64568642D01*
X9656924Y-64178355D01*
X9246890Y-64008524D01*
X9017000Y-64129845D01*
X8763000Y-64129845D01*
X8533110Y-64008524D01*
X8123076Y-64178355D01*
X7694817Y-64568642D01*
X7448514Y-65093108D01*
X735000Y-65093108D01*
X735000Y-60214833D01*
X21890000Y-60214833D01*
X21890000Y-60885167D01*
X22146526Y-61504476D01*
X22620524Y-61978474D01*
X23239833Y-62235000D01*
X23910167Y-62235000D01*
X24515830Y-61984126D01*
X46655000Y-61984126D01*
X46655000Y-62395874D01*
X46812569Y-62776280D01*
X47103720Y-63067431D01*
X47484126Y-63225000D01*
X47895874Y-63225000D01*
X48276280Y-63067431D01*
X48325000Y-63018711D01*
X48373720Y-63067431D01*
X48754126Y-63225000D01*
X49165874Y-63225000D01*
X49546280Y-63067431D01*
X49595000Y-63018711D01*
X49643720Y-63067431D01*
X50024126Y-63225000D01*
X50435874Y-63225000D01*
X50816280Y-63067431D01*
X51107431Y-62776280D01*
X51265000Y-62395874D01*
X51265000Y-61984126D01*
X54275000Y-61984126D01*
X54275000Y-62395874D01*
X54432569Y-62776280D01*
X54723720Y-63067431D01*
X55104126Y-63225000D01*
X55515874Y-63225000D01*
X55896280Y-63067431D01*
X55945000Y-63018711D01*
X55993720Y-63067431D01*
X56374126Y-63225000D01*
X56785874Y-63225000D01*
X57166280Y-63067431D01*
X57215000Y-63018711D01*
X57263720Y-63067431D01*
X57644126Y-63225000D01*
X58055874Y-63225000D01*
X58436280Y-63067431D01*
X58727431Y-62776280D01*
X58885000Y-62395874D01*
X58885000Y-61984126D01*
X58727431Y-61603720D01*
X58436280Y-61312569D01*
X58055874Y-61155000D01*
X57644126Y-61155000D01*
X57263720Y-61312569D01*
X57215000Y-61361289D01*
X57166280Y-61312569D01*
X56785874Y-61155000D01*
X56374126Y-61155000D01*
X55993720Y-61312569D01*
X55945000Y-61361289D01*
X55896280Y-61312569D01*
X55515874Y-61155000D01*
X55104126Y-61155000D01*
X54723720Y-61312569D01*
X54432569Y-61603720D01*
X54275000Y-61984126D01*
X51265000Y-61984126D01*
X51107431Y-61603720D01*
X50816280Y-61312569D01*
X50435874Y-61155000D01*
X50024126Y-61155000D01*
X49643720Y-61312569D01*
X49595000Y-61361289D01*
X49546280Y-61312569D01*
X49165874Y-61155000D01*
X48754126Y-61155000D01*
X48373720Y-61312569D01*
X48325000Y-61361289D01*
X48276280Y-61312569D01*
X47895874Y-61155000D01*
X47484126Y-61155000D01*
X47103720Y-61312569D01*
X46812569Y-61603720D01*
X46655000Y-61984126D01*
X24515830Y-61984126D01*
X24529476Y-61978474D01*
X25003474Y-61504476D01*
X25260000Y-60885167D01*
X25260000Y-60214833D01*
X25239290Y-60164833D01*
X58690000Y-60164833D01*
X58690000Y-60835167D01*
X58946526Y-61454476D01*
X59420524Y-61928474D01*
X60039833Y-62185000D01*
X60710167Y-62185000D01*
X61329476Y-61928474D01*
X61803474Y-61454476D01*
X62060000Y-60835167D01*
X62060000Y-60164833D01*
X61803474Y-59545524D01*
X61329476Y-59071526D01*
X60710167Y-58815000D01*
X60039833Y-58815000D01*
X59420524Y-59071526D01*
X58946526Y-59545524D01*
X58690000Y-60164833D01*
X25239290Y-60164833D01*
X25003474Y-59595524D01*
X24529476Y-59121526D01*
X23910167Y-58865000D01*
X23239833Y-58865000D01*
X22620524Y-59121526D01*
X22146526Y-59595524D01*
X21890000Y-60214833D01*
X735000Y-60214833D01*
X735000Y-55874120D01*
X14940000Y-55874120D01*
X14940000Y-56285868D01*
X15097569Y-56666274D01*
X15388720Y-56957425D01*
X15769126Y-57114994D01*
X16180874Y-57114994D01*
X16561280Y-56957425D01*
X16852431Y-56666274D01*
X16854288Y-56661791D01*
X16897569Y-56766280D01*
X17188720Y-57057431D01*
X17569126Y-57215000D01*
X17980874Y-57215000D01*
X18361280Y-57057431D01*
X18652431Y-56766280D01*
X18810000Y-56385874D01*
X18810000Y-55974126D01*
X18721307Y-55760000D01*
X22304336Y-55760000D01*
X22406007Y-56271136D01*
X22695543Y-56704457D01*
X23128864Y-56993993D01*
X23510978Y-57070000D01*
X23769022Y-57070000D01*
X24151136Y-56993993D01*
X24285631Y-56904126D01*
X25065000Y-56904126D01*
X25065000Y-57315874D01*
X25222569Y-57696280D01*
X25513720Y-57987431D01*
X25894126Y-58145000D01*
X26305874Y-58145000D01*
X26686280Y-57987431D01*
X26735000Y-57938711D01*
X26783720Y-57987431D01*
X27164126Y-58145000D01*
X27575874Y-58145000D01*
X27956280Y-57987431D01*
X28005000Y-57938711D01*
X28053720Y-57987431D01*
X28434126Y-58145000D01*
X28845874Y-58145000D01*
X29226280Y-57987431D01*
X29275000Y-57938711D01*
X29323720Y-57987431D01*
X29704126Y-58145000D01*
X30115874Y-58145000D01*
X30496280Y-57987431D01*
X30545000Y-57938711D01*
X30593720Y-57987431D01*
X30974126Y-58145000D01*
X31385874Y-58145000D01*
X31766280Y-57987431D01*
X31815000Y-57938711D01*
X31863720Y-57987431D01*
X32244126Y-58145000D01*
X32655874Y-58145000D01*
X33036280Y-57987431D01*
X33085000Y-57938711D01*
X33133720Y-57987431D01*
X33514126Y-58145000D01*
X33925874Y-58145000D01*
X34306280Y-57987431D01*
X34597431Y-57696280D01*
X34755000Y-57315874D01*
X34755000Y-56904126D01*
X34597431Y-56523720D01*
X34306280Y-56232569D01*
X33925874Y-56075000D01*
X33514126Y-56075000D01*
X33133720Y-56232569D01*
X33085000Y-56281289D01*
X33036280Y-56232569D01*
X32655874Y-56075000D01*
X32244126Y-56075000D01*
X31863720Y-56232569D01*
X31815000Y-56281289D01*
X31766280Y-56232569D01*
X31385874Y-56075000D01*
X30974126Y-56075000D01*
X30593720Y-56232569D01*
X30545000Y-56281289D01*
X30496280Y-56232569D01*
X30115874Y-56075000D01*
X29704126Y-56075000D01*
X29323720Y-56232569D01*
X29275000Y-56281289D01*
X29226280Y-56232569D01*
X28845874Y-56075000D01*
X28434126Y-56075000D01*
X28053720Y-56232569D01*
X28005000Y-56281289D01*
X27956280Y-56232569D01*
X27575874Y-56075000D01*
X27164126Y-56075000D01*
X26783720Y-56232569D01*
X26735000Y-56281289D01*
X26686280Y-56232569D01*
X26305874Y-56075000D01*
X25894126Y-56075000D01*
X25513720Y-56232569D01*
X25222569Y-56523720D01*
X25065000Y-56904126D01*
X24285631Y-56904126D01*
X24584457Y-56704457D01*
X24873993Y-56271136D01*
X24975664Y-55760000D01*
X24873993Y-55248864D01*
X24584457Y-54815543D01*
X24501332Y-54760000D01*
X35134336Y-54760000D01*
X35236007Y-55271136D01*
X35525543Y-55704457D01*
X35958864Y-55993993D01*
X36340978Y-56070000D01*
X36599022Y-56070000D01*
X36981136Y-55993993D01*
X37414457Y-55704457D01*
X37703993Y-55271136D01*
X37805664Y-54760000D01*
X37703993Y-54248864D01*
X37414457Y-53815543D01*
X36981136Y-53526007D01*
X36599022Y-53450000D01*
X36340978Y-53450000D01*
X35958864Y-53526007D01*
X35525543Y-53815543D01*
X35236007Y-54248864D01*
X35134336Y-54760000D01*
X24501332Y-54760000D01*
X24151136Y-54526007D01*
X23769022Y-54450000D01*
X23510978Y-54450000D01*
X23128864Y-54526007D01*
X22695543Y-54815543D01*
X22406007Y-55248864D01*
X22304336Y-55760000D01*
X18721307Y-55760000D01*
X18652431Y-55593720D01*
X18361280Y-55302569D01*
X17980874Y-55145000D01*
X17569126Y-55145000D01*
X17188720Y-55302569D01*
X16897569Y-55593720D01*
X16895712Y-55598203D01*
X16852431Y-55493714D01*
X16561280Y-55202563D01*
X16180874Y-55044994D01*
X15769126Y-55044994D01*
X15388720Y-55202563D01*
X15097569Y-55493714D01*
X14940000Y-55874120D01*
X735000Y-55874120D01*
X735000Y-55072388D01*
X749399Y-55000000D01*
X692354Y-54713217D01*
X529905Y-54470095D01*
X286783Y-54307646D01*
X127000Y-54275863D01*
X127000Y-51274126D01*
X12935000Y-51274126D01*
X12935000Y-51685874D01*
X13092569Y-52066280D01*
X13383720Y-52357431D01*
X13764126Y-52515000D01*
X14175874Y-52515000D01*
X14556280Y-52357431D01*
X14847431Y-52066280D01*
X15005000Y-51685874D01*
X15005000Y-51274126D01*
X14847431Y-50893720D01*
X14556280Y-50602569D01*
X14246191Y-50474126D01*
X16740000Y-50474126D01*
X16740000Y-50885874D01*
X16897569Y-51266280D01*
X17188720Y-51557431D01*
X17569126Y-51715000D01*
X17980874Y-51715000D01*
X18361280Y-51557431D01*
X18652431Y-51266280D01*
X18810000Y-50885874D01*
X18810000Y-50474126D01*
X18652431Y-50093720D01*
X18562837Y-50004126D01*
X20555000Y-50004126D01*
X20555000Y-50415874D01*
X20712569Y-50796280D01*
X21003720Y-51087431D01*
X21384126Y-51245000D01*
X21795874Y-51245000D01*
X21845595Y-51224405D01*
X21825000Y-51274126D01*
X21825000Y-51685874D01*
X21982569Y-52066280D01*
X22273720Y-52357431D01*
X22654126Y-52515000D01*
X23065874Y-52515000D01*
X23446280Y-52357431D01*
X23737431Y-52066280D01*
X23895000Y-51685874D01*
X23895000Y-51274126D01*
X23737431Y-50893720D01*
X23446280Y-50602569D01*
X23065874Y-50445000D01*
X22654126Y-50445000D01*
X22604405Y-50465595D01*
X22625000Y-50415874D01*
X22625000Y-50004126D01*
X22467431Y-49623720D01*
X22176280Y-49332569D01*
X21795874Y-49175000D01*
X21384126Y-49175000D01*
X21003720Y-49332569D01*
X20712569Y-49623720D01*
X20555000Y-50004126D01*
X18562837Y-50004126D01*
X18361280Y-49802569D01*
X17980874Y-49645000D01*
X17569126Y-49645000D01*
X17188720Y-49802569D01*
X16897569Y-50093720D01*
X16740000Y-50474126D01*
X14246191Y-50474126D01*
X14175874Y-50445000D01*
X13764126Y-50445000D01*
X13383720Y-50602569D01*
X13092569Y-50893720D01*
X12935000Y-51274126D01*
X127000Y-51274126D01*
X127000Y-48734126D01*
X24365000Y-48734126D01*
X24365000Y-49145874D01*
X24522569Y-49526280D01*
X24813720Y-49817431D01*
X25194126Y-49975000D01*
X25605874Y-49975000D01*
X25986280Y-49817431D01*
X26277431Y-49526280D01*
X26435000Y-49145874D01*
X26435000Y-48734126D01*
X26277431Y-48353720D01*
X25986280Y-48062569D01*
X25605874Y-47905000D01*
X25194126Y-47905000D01*
X24813720Y-48062569D01*
X24522569Y-48353720D01*
X24365000Y-48734126D01*
X127000Y-48734126D01*
X127000Y-46844126D01*
X5665000Y-46844126D01*
X5665000Y-47255874D01*
X5822569Y-47636280D01*
X6113720Y-47927431D01*
X6494126Y-48085000D01*
X6905874Y-48085000D01*
X7286280Y-47927431D01*
X7500000Y-47713711D01*
X7713720Y-47927431D01*
X8094126Y-48085000D01*
X8505874Y-48085000D01*
X8886280Y-47927431D01*
X9100000Y-47713711D01*
X9313720Y-47927431D01*
X9694126Y-48085000D01*
X10105874Y-48085000D01*
X10486280Y-47927431D01*
X10777431Y-47636280D01*
X10935000Y-47255874D01*
X10935000Y-46844126D01*
X10777431Y-46463720D01*
X10486280Y-46172569D01*
X10176191Y-46044126D01*
X12865000Y-46044126D01*
X12865000Y-46455874D01*
X13022569Y-46836280D01*
X13313720Y-47127431D01*
X13694126Y-47285000D01*
X14105874Y-47285000D01*
X14486280Y-47127431D01*
X14777431Y-46836280D01*
X14935000Y-46455874D01*
X14935000Y-46044126D01*
X14777431Y-45663720D01*
X14486280Y-45372569D01*
X14105874Y-45215000D01*
X13694126Y-45215000D01*
X13313720Y-45372569D01*
X13022569Y-45663720D01*
X12865000Y-46044126D01*
X10176191Y-46044126D01*
X10105874Y-46015000D01*
X9694126Y-46015000D01*
X9313720Y-46172569D01*
X9100000Y-46386289D01*
X8886280Y-46172569D01*
X8526450Y-46023523D01*
X8377415Y-45663720D01*
X8086264Y-45372569D01*
X7705858Y-45215000D01*
X7294110Y-45215000D01*
X6913704Y-45372569D01*
X6622553Y-45663720D01*
X6473511Y-46023539D01*
X6113720Y-46172569D01*
X5822569Y-46463720D01*
X5665000Y-46844126D01*
X127000Y-46844126D01*
X127000Y-41944126D01*
X1565000Y-41944126D01*
X1565000Y-42355874D01*
X1722569Y-42736280D01*
X2013720Y-43027431D01*
X2394126Y-43185000D01*
X2513764Y-43185000D01*
X2365000Y-43544148D01*
X2365000Y-43955896D01*
X2522569Y-44336302D01*
X2813720Y-44627453D01*
X3194126Y-44785022D01*
X3605874Y-44785022D01*
X3986280Y-44627453D01*
X4277431Y-44336302D01*
X4435000Y-43955896D01*
X4435000Y-43544148D01*
X4277431Y-43163742D01*
X4257815Y-43144126D01*
X16965000Y-43144126D01*
X16965000Y-43555874D01*
X17122569Y-43936280D01*
X17413720Y-44227431D01*
X17794126Y-44385000D01*
X18205874Y-44385000D01*
X18586280Y-44227431D01*
X18598878Y-44214833D01*
X21890000Y-44214833D01*
X21890000Y-44885167D01*
X22146526Y-45504476D01*
X22620524Y-45978474D01*
X23239833Y-46235000D01*
X23910167Y-46235000D01*
X24529476Y-45978474D01*
X25003474Y-45504476D01*
X25260000Y-44885167D01*
X25260000Y-44214833D01*
X25239290Y-44164833D01*
X58690000Y-44164833D01*
X58690000Y-44835167D01*
X58946526Y-45454476D01*
X59420524Y-45928474D01*
X60039833Y-46185000D01*
X60710167Y-46185000D01*
X61329476Y-45928474D01*
X61803474Y-45454476D01*
X62060000Y-44835167D01*
X62060000Y-44164833D01*
X61803474Y-43545524D01*
X61329476Y-43071526D01*
X60710167Y-42815000D01*
X60039833Y-42815000D01*
X59420524Y-43071526D01*
X58946526Y-43545524D01*
X58690000Y-44164833D01*
X25239290Y-44164833D01*
X25003474Y-43595524D01*
X24529476Y-43121526D01*
X23910167Y-42865000D01*
X23239833Y-42865000D01*
X22620524Y-43121526D01*
X22146526Y-43595524D01*
X21890000Y-44214833D01*
X18598878Y-44214833D01*
X18877431Y-43936280D01*
X19035000Y-43555874D01*
X19035000Y-43144126D01*
X18877431Y-42763720D01*
X18586280Y-42472569D01*
X18205874Y-42315000D01*
X17794126Y-42315000D01*
X17413720Y-42472569D01*
X17122569Y-42763720D01*
X16965000Y-43144126D01*
X4257815Y-43144126D01*
X3986280Y-42872591D01*
X3605874Y-42715022D01*
X3486236Y-42715022D01*
X3635000Y-42355874D01*
X3635000Y-41944126D01*
X3477431Y-41563720D01*
X3186280Y-41272569D01*
X2805874Y-41115000D01*
X2394126Y-41115000D01*
X2013720Y-41272569D01*
X1722569Y-41563720D01*
X1565000Y-41944126D01*
X127000Y-41944126D01*
X127000Y-38344124D01*
X2365000Y-38344124D01*
X2365000Y-38755872D01*
X2522569Y-39136278D01*
X2736290Y-39349999D01*
X2522569Y-39563720D01*
X2365000Y-39944126D01*
X2365000Y-40355874D01*
X2522569Y-40736280D01*
X2813720Y-41027431D01*
X3194126Y-41185000D01*
X3605874Y-41185000D01*
X3986280Y-41027431D01*
X4277431Y-40736280D01*
X4435000Y-40355874D01*
X4435000Y-40110000D01*
X22304336Y-40110000D01*
X22406007Y-40621136D01*
X22695543Y-41054457D01*
X23128864Y-41343993D01*
X23510978Y-41420000D01*
X23769022Y-41420000D01*
X24151136Y-41343993D01*
X24584457Y-41054457D01*
X24684905Y-40904126D01*
X25065000Y-40904126D01*
X25065000Y-41315874D01*
X25222569Y-41696280D01*
X25513720Y-41987431D01*
X25894126Y-42145000D01*
X26305874Y-42145000D01*
X26686280Y-41987431D01*
X26735000Y-41938711D01*
X26783720Y-41987431D01*
X27164126Y-42145000D01*
X27575874Y-42145000D01*
X27956280Y-41987431D01*
X28005000Y-41938711D01*
X28053720Y-41987431D01*
X28434126Y-42145000D01*
X28845874Y-42145000D01*
X29226280Y-41987431D01*
X29275000Y-41938711D01*
X29323720Y-41987431D01*
X29704126Y-42145000D01*
X30115874Y-42145000D01*
X30496280Y-41987431D01*
X30545000Y-41938711D01*
X30593720Y-41987431D01*
X30974126Y-42145000D01*
X31385874Y-42145000D01*
X31766280Y-41987431D01*
X31815000Y-41938711D01*
X31863720Y-41987431D01*
X32244126Y-42145000D01*
X32655874Y-42145000D01*
X33036280Y-41987431D01*
X33085000Y-41938711D01*
X33133720Y-41987431D01*
X33514126Y-42145000D01*
X33925874Y-42145000D01*
X34306280Y-41987431D01*
X34597431Y-41696280D01*
X34755000Y-41315874D01*
X34755000Y-40904126D01*
X34597431Y-40523720D01*
X34306280Y-40232569D01*
X33925874Y-40075000D01*
X33514126Y-40075000D01*
X33133720Y-40232569D01*
X33085000Y-40281289D01*
X33036280Y-40232569D01*
X32655874Y-40075000D01*
X32244126Y-40075000D01*
X31863720Y-40232569D01*
X31815000Y-40281289D01*
X31766280Y-40232569D01*
X31385874Y-40075000D01*
X30974126Y-40075000D01*
X30593720Y-40232569D01*
X30545000Y-40281289D01*
X30496280Y-40232569D01*
X30115874Y-40075000D01*
X29704126Y-40075000D01*
X29323720Y-40232569D01*
X29275000Y-40281289D01*
X29226280Y-40232569D01*
X28845874Y-40075000D01*
X28434126Y-40075000D01*
X28053720Y-40232569D01*
X28005000Y-40281289D01*
X27956280Y-40232569D01*
X27575874Y-40075000D01*
X27164126Y-40075000D01*
X26783720Y-40232569D01*
X26735000Y-40281289D01*
X26686280Y-40232569D01*
X26305874Y-40075000D01*
X25894126Y-40075000D01*
X25513720Y-40232569D01*
X25222569Y-40523720D01*
X25065000Y-40904126D01*
X24684905Y-40904126D01*
X24873993Y-40621136D01*
X24975664Y-40110000D01*
X24873993Y-39598864D01*
X24584457Y-39165543D01*
X24501332Y-39110000D01*
X35134336Y-39110000D01*
X35236007Y-39621136D01*
X35525543Y-40054457D01*
X35958864Y-40343993D01*
X36340978Y-40420000D01*
X36599022Y-40420000D01*
X36981136Y-40343993D01*
X37414457Y-40054457D01*
X37703993Y-39621136D01*
X37805664Y-39110000D01*
X37703993Y-38598864D01*
X37414457Y-38165543D01*
X36981136Y-37876007D01*
X36599022Y-37800000D01*
X36340978Y-37800000D01*
X35958864Y-37876007D01*
X35525543Y-38165543D01*
X35236007Y-38598864D01*
X35134336Y-39110000D01*
X24501332Y-39110000D01*
X24151136Y-38876007D01*
X23769022Y-38800000D01*
X23510978Y-38800000D01*
X23128864Y-38876007D01*
X22695543Y-39165543D01*
X22406007Y-39598864D01*
X22304336Y-40110000D01*
X4435000Y-40110000D01*
X4435000Y-39944126D01*
X4277431Y-39563720D01*
X4063710Y-39349999D01*
X4277431Y-39136278D01*
X4435000Y-38755872D01*
X4435000Y-38344124D01*
X4277431Y-37963718D01*
X3986280Y-37672567D01*
X3605874Y-37514998D01*
X3194126Y-37514998D01*
X2813720Y-37672567D01*
X2522569Y-37963718D01*
X2365000Y-38344124D01*
X127000Y-38344124D01*
X127000Y-34344126D01*
X16965000Y-34344126D01*
X16965000Y-34755874D01*
X17122569Y-35136280D01*
X17413720Y-35427431D01*
X17794126Y-35585000D01*
X18205874Y-35585000D01*
X18586280Y-35427431D01*
X18877431Y-35136280D01*
X19035000Y-34755874D01*
X19035000Y-34344126D01*
X18877431Y-33963720D01*
X18586280Y-33672569D01*
X18205874Y-33515000D01*
X17794126Y-33515000D01*
X17413720Y-33672569D01*
X17122569Y-33963720D01*
X16965000Y-34344126D01*
X127000Y-34344126D01*
X127000Y-31451241D01*
X6472115Y-31451241D01*
X6472115Y-31862989D01*
X6629684Y-32243395D01*
X6920835Y-32534546D01*
X7301241Y-32692115D01*
X7712989Y-32692115D01*
X8093395Y-32534546D01*
X8384546Y-32243395D01*
X8542115Y-31862989D01*
X8542115Y-31451241D01*
X8384546Y-31070835D01*
X8093395Y-30779684D01*
X7712989Y-30622115D01*
X7301241Y-30622115D01*
X6920835Y-30779684D01*
X6629684Y-31070835D01*
X6472115Y-31451241D01*
X127000Y-31451241D01*
X127000Y-28244126D01*
X11265000Y-28244126D01*
X11265000Y-28655874D01*
X11422569Y-29036280D01*
X11713720Y-29327431D01*
X12073531Y-29476469D01*
X12222569Y-29836280D01*
X12513720Y-30127431D01*
X12873531Y-30276469D01*
X13022569Y-30636280D01*
X13236277Y-30849988D01*
X13022545Y-31063720D01*
X12864976Y-31444126D01*
X12864976Y-31855874D01*
X13022545Y-32236280D01*
X13313696Y-32527431D01*
X13694102Y-32685000D01*
X14105850Y-32685000D01*
X14486256Y-32527431D01*
X14777407Y-32236280D01*
X14934976Y-31855874D01*
X14934976Y-31444126D01*
X14777407Y-31063720D01*
X14563699Y-30850012D01*
X14777431Y-30636280D01*
X14935000Y-30255874D01*
X14935000Y-29844126D01*
X14777431Y-29463720D01*
X14486280Y-29172569D01*
X14126469Y-29023531D01*
X13977431Y-28663720D01*
X13686280Y-28372569D01*
X13326469Y-28223531D01*
X13322867Y-28214833D01*
X21890000Y-28214833D01*
X21890000Y-28885167D01*
X22146526Y-29504476D01*
X22620524Y-29978474D01*
X23239833Y-30235000D01*
X23910167Y-30235000D01*
X24529476Y-29978474D01*
X25003474Y-29504476D01*
X25260000Y-28885167D01*
X25260000Y-28214833D01*
X25239290Y-28164833D01*
X58690000Y-28164833D01*
X58690000Y-28835167D01*
X58946526Y-29454476D01*
X59420524Y-29928474D01*
X60039833Y-30185000D01*
X60710167Y-30185000D01*
X61329476Y-29928474D01*
X61803474Y-29454476D01*
X62060000Y-28835167D01*
X62060000Y-28164833D01*
X61803474Y-27545524D01*
X61329476Y-27071526D01*
X60710167Y-26815000D01*
X60039833Y-26815000D01*
X59420524Y-27071526D01*
X58946526Y-27545524D01*
X58690000Y-28164833D01*
X25239290Y-28164833D01*
X25003474Y-27595524D01*
X24529476Y-27121526D01*
X23910167Y-26865000D01*
X23239833Y-26865000D01*
X22620524Y-27121526D01*
X22146526Y-27595524D01*
X21890000Y-28214833D01*
X13322867Y-28214833D01*
X13177431Y-27863720D01*
X12886280Y-27572569D01*
X12505874Y-27415000D01*
X12094126Y-27415000D01*
X11713720Y-27572569D01*
X11422569Y-27863720D01*
X11265000Y-28244126D01*
X127000Y-28244126D01*
X127000Y-25244126D01*
X10465000Y-25244126D01*
X10465000Y-25655874D01*
X10622569Y-26036280D01*
X10913720Y-26327431D01*
X11294126Y-26485000D01*
X11705874Y-26485000D01*
X12086280Y-26327431D01*
X12377431Y-26036280D01*
X12535000Y-25655874D01*
X12535000Y-25244126D01*
X12377431Y-24863720D01*
X12086280Y-24572569D01*
X11705874Y-24415000D01*
X11294126Y-24415000D01*
X10913720Y-24572569D01*
X10622569Y-24863720D01*
X10465000Y-25244126D01*
X127000Y-25244126D01*
X127000Y-23760000D01*
X22304336Y-23760000D01*
X22406007Y-24271136D01*
X22695543Y-24704457D01*
X23128864Y-24993993D01*
X23510978Y-25070000D01*
X23769022Y-25070000D01*
X24151136Y-24993993D01*
X24285631Y-24904126D01*
X25065000Y-24904126D01*
X25065000Y-25315874D01*
X25222569Y-25696280D01*
X25513720Y-25987431D01*
X25894126Y-26145000D01*
X26305874Y-26145000D01*
X26686280Y-25987431D01*
X26735000Y-25938711D01*
X26783720Y-25987431D01*
X27164126Y-26145000D01*
X27575874Y-26145000D01*
X27956280Y-25987431D01*
X28005000Y-25938711D01*
X28053720Y-25987431D01*
X28434126Y-26145000D01*
X28845874Y-26145000D01*
X29226280Y-25987431D01*
X29275000Y-25938711D01*
X29323720Y-25987431D01*
X29704126Y-26145000D01*
X30115874Y-26145000D01*
X30496280Y-25987431D01*
X30545000Y-25938711D01*
X30593720Y-25987431D01*
X30974126Y-26145000D01*
X31385874Y-26145000D01*
X31766280Y-25987431D01*
X31815000Y-25938711D01*
X31863720Y-25987431D01*
X32244126Y-26145000D01*
X32655874Y-26145000D01*
X33036280Y-25987431D01*
X33085000Y-25938711D01*
X33133720Y-25987431D01*
X33514126Y-26145000D01*
X33925874Y-26145000D01*
X34306280Y-25987431D01*
X34597431Y-25696280D01*
X34755000Y-25315874D01*
X34755000Y-24904126D01*
X34597431Y-24523720D01*
X34306280Y-24232569D01*
X33925874Y-24075000D01*
X33514126Y-24075000D01*
X33133720Y-24232569D01*
X33085000Y-24281289D01*
X33036280Y-24232569D01*
X32655874Y-24075000D01*
X32244126Y-24075000D01*
X31863720Y-24232569D01*
X31815000Y-24281289D01*
X31766280Y-24232569D01*
X31385874Y-24075000D01*
X30974126Y-24075000D01*
X30593720Y-24232569D01*
X30545000Y-24281289D01*
X30496280Y-24232569D01*
X30115874Y-24075000D01*
X29704126Y-24075000D01*
X29323720Y-24232569D01*
X29275000Y-24281289D01*
X29226280Y-24232569D01*
X28845874Y-24075000D01*
X28434126Y-24075000D01*
X28053720Y-24232569D01*
X28005000Y-24281289D01*
X27956280Y-24232569D01*
X27575874Y-24075000D01*
X27164126Y-24075000D01*
X26783720Y-24232569D01*
X26735000Y-24281289D01*
X26686280Y-24232569D01*
X26305874Y-24075000D01*
X25894126Y-24075000D01*
X25513720Y-24232569D01*
X25222569Y-24523720D01*
X25065000Y-24904126D01*
X24285631Y-24904126D01*
X24584457Y-24704457D01*
X24873993Y-24271136D01*
X24975664Y-23760000D01*
X24873993Y-23248864D01*
X24584457Y-22815543D01*
X24501332Y-22760000D01*
X35134336Y-22760000D01*
X35236007Y-23271136D01*
X35525543Y-23704457D01*
X35958864Y-23993993D01*
X36340978Y-24070000D01*
X36599022Y-24070000D01*
X36981136Y-23993993D01*
X37414457Y-23704457D01*
X37703993Y-23271136D01*
X37805664Y-22760000D01*
X37703993Y-22248864D01*
X37414457Y-21815543D01*
X36981136Y-21526007D01*
X36599022Y-21450000D01*
X36340978Y-21450000D01*
X35958864Y-21526007D01*
X35525543Y-21815543D01*
X35236007Y-22248864D01*
X35134336Y-22760000D01*
X24501332Y-22760000D01*
X24151136Y-22526007D01*
X23769022Y-22450000D01*
X23510978Y-22450000D01*
X23128864Y-22526007D01*
X22695543Y-22815543D01*
X22406007Y-23248864D01*
X22304336Y-23760000D01*
X127000Y-23760000D01*
X127000Y-20794126D01*
X9080012Y-20794126D01*
X9080012Y-21205874D01*
X9237581Y-21586280D01*
X9528732Y-21877431D01*
X9909138Y-22035000D01*
X10320886Y-22035000D01*
X10701292Y-21877431D01*
X10992443Y-21586280D01*
X11150012Y-21205874D01*
X11150012Y-20794126D01*
X19210000Y-20794126D01*
X19210000Y-21205874D01*
X19367569Y-21586280D01*
X19658720Y-21877431D01*
X20039126Y-22035000D01*
X20450874Y-22035000D01*
X20831280Y-21877431D01*
X21122431Y-21586280D01*
X21280000Y-21205874D01*
X21280000Y-20794126D01*
X21122431Y-20413720D01*
X20831280Y-20122569D01*
X20450874Y-19965000D01*
X20039126Y-19965000D01*
X19658720Y-20122569D01*
X19367569Y-20413720D01*
X19210000Y-20794126D01*
X11150012Y-20794126D01*
X10992443Y-20413720D01*
X10701292Y-20122569D01*
X10320886Y-19965000D01*
X9909138Y-19965000D01*
X9528732Y-20122569D01*
X9237581Y-20413720D01*
X9080012Y-20794126D01*
X127000Y-20794126D01*
X127000Y-18254126D01*
X19210000Y-18254126D01*
X19210000Y-18665874D01*
X19367569Y-19046280D01*
X19658720Y-19337431D01*
X20039126Y-19495000D01*
X20450874Y-19495000D01*
X20831280Y-19337431D01*
X21122431Y-19046280D01*
X21280000Y-18665874D01*
X21280000Y-18254126D01*
X21122431Y-17873720D01*
X20831280Y-17582569D01*
X20450874Y-17425000D01*
X20039126Y-17425000D01*
X19658720Y-17582569D01*
X19367569Y-17873720D01*
X19210000Y-18254126D01*
X127000Y-18254126D01*
X127000Y-17524137D01*
X286783Y-17492354D01*
X529905Y-17329905D01*
X692354Y-17086783D01*
X749399Y-16800000D01*
X735000Y-16727612D01*
X735000Y-15714126D01*
X9080000Y-15714126D01*
X9080000Y-16125874D01*
X9237569Y-16506280D01*
X9528720Y-16797431D01*
X9909126Y-16955000D01*
X10320874Y-16955000D01*
X10701280Y-16797431D01*
X10992431Y-16506280D01*
X11150000Y-16125874D01*
X11150000Y-15714126D01*
X10992431Y-15333720D01*
X10701280Y-15042569D01*
X10320874Y-14885000D01*
X9909126Y-14885000D01*
X9528720Y-15042569D01*
X9237569Y-15333720D01*
X9080000Y-15714126D01*
X735000Y-15714126D01*
X735000Y-12214833D01*
X21890000Y-12214833D01*
X21890000Y-12885167D01*
X22146526Y-13504476D01*
X22620524Y-13978474D01*
X23239833Y-14235000D01*
X23910167Y-14235000D01*
X24529476Y-13978474D01*
X25003474Y-13504476D01*
X25260000Y-12885167D01*
X25260000Y-12214833D01*
X25239290Y-12164833D01*
X58690000Y-12164833D01*
X58690000Y-12835167D01*
X58946526Y-13454476D01*
X59420524Y-13928474D01*
X60039833Y-14185000D01*
X60710167Y-14185000D01*
X61329476Y-13928474D01*
X61803474Y-13454476D01*
X62060000Y-12835167D01*
X62060000Y-12164833D01*
X61803474Y-11545524D01*
X61329476Y-11071526D01*
X60710167Y-10815000D01*
X60039833Y-10815000D01*
X59420524Y-11071526D01*
X58946526Y-11545524D01*
X58690000Y-12164833D01*
X25239290Y-12164833D01*
X25003474Y-11595524D01*
X24529476Y-11121526D01*
X23910167Y-10865000D01*
X23239833Y-10865000D01*
X22620524Y-11121526D01*
X22146526Y-11595524D01*
X21890000Y-12214833D01*
X735000Y-12214833D01*
X735000Y-7760000D01*
X22304336Y-7760000D01*
X22406007Y-8271136D01*
X22695543Y-8704457D01*
X23128864Y-8993993D01*
X23510978Y-9070000D01*
X23769022Y-9070000D01*
X24151136Y-8993993D01*
X24285631Y-8904126D01*
X25065000Y-8904126D01*
X25065000Y-9315874D01*
X25222569Y-9696280D01*
X25513720Y-9987431D01*
X25894126Y-10145000D01*
X26305874Y-10145000D01*
X26686280Y-9987431D01*
X26735000Y-9938711D01*
X26783720Y-9987431D01*
X27164126Y-10145000D01*
X27575874Y-10145000D01*
X27956280Y-9987431D01*
X28005000Y-9938711D01*
X28053720Y-9987431D01*
X28434126Y-10145000D01*
X28845874Y-10145000D01*
X29226280Y-9987431D01*
X29275000Y-9938711D01*
X29323720Y-9987431D01*
X29704126Y-10145000D01*
X30115874Y-10145000D01*
X30496280Y-9987431D01*
X30545000Y-9938711D01*
X30593720Y-9987431D01*
X30974126Y-10145000D01*
X31385874Y-10145000D01*
X31766280Y-9987431D01*
X31815000Y-9938711D01*
X31863720Y-9987431D01*
X32244126Y-10145000D01*
X32655874Y-10145000D01*
X33036280Y-9987431D01*
X33085000Y-9938711D01*
X33133720Y-9987431D01*
X33514126Y-10145000D01*
X33925874Y-10145000D01*
X34306280Y-9987431D01*
X34597431Y-9696280D01*
X34755000Y-9315874D01*
X34755000Y-8904126D01*
X34597431Y-8523720D01*
X34306280Y-8232569D01*
X33925874Y-8075000D01*
X33514126Y-8075000D01*
X33133720Y-8232569D01*
X33085000Y-8281289D01*
X33036280Y-8232569D01*
X32655874Y-8075000D01*
X32244126Y-8075000D01*
X31863720Y-8232569D01*
X31815000Y-8281289D01*
X31766280Y-8232569D01*
X31385874Y-8075000D01*
X30974126Y-8075000D01*
X30593720Y-8232569D01*
X30545000Y-8281289D01*
X30496280Y-8232569D01*
X30115874Y-8075000D01*
X29704126Y-8075000D01*
X29323720Y-8232569D01*
X29275000Y-8281289D01*
X29226280Y-8232569D01*
X28845874Y-8075000D01*
X28434126Y-8075000D01*
X28053720Y-8232569D01*
X28005000Y-8281289D01*
X27956280Y-8232569D01*
X27575874Y-8075000D01*
X27164126Y-8075000D01*
X26783720Y-8232569D01*
X26735000Y-8281289D01*
X26686280Y-8232569D01*
X26305874Y-8075000D01*
X25894126Y-8075000D01*
X25513720Y-8232569D01*
X25222569Y-8523720D01*
X25065000Y-8904126D01*
X24285631Y-8904126D01*
X24584457Y-8704457D01*
X24873993Y-8271136D01*
X24975664Y-7760000D01*
X24873993Y-7248864D01*
X24584457Y-6815543D01*
X24501332Y-6760000D01*
X35134336Y-6760000D01*
X35236007Y-7271136D01*
X35525543Y-7704457D01*
X35958864Y-7993993D01*
X36340978Y-8070000D01*
X36599022Y-8070000D01*
X36981136Y-7993993D01*
X37414457Y-7704457D01*
X37703993Y-7271136D01*
X37805664Y-6760000D01*
X37703993Y-6248864D01*
X37414457Y-5815543D01*
X36981136Y-5526007D01*
X36599022Y-5450000D01*
X36340978Y-5450000D01*
X35958864Y-5526007D01*
X35525543Y-5815543D01*
X35236007Y-6248864D01*
X35134336Y-6760000D01*
X24501332Y-6760000D01*
X24151136Y-6526007D01*
X23769022Y-6450000D01*
X23510978Y-6450000D01*
X23128864Y-6526007D01*
X22695543Y-6815543D01*
X22406007Y-7248864D01*
X22304336Y-7760000D01*
X735000Y-7760000D01*
X735000Y-3241089D01*
X800751Y-2654908D01*
X981140Y-2136900D01*
X1271808Y-1671734D01*
X1658308Y-1282526D01*
X2121438Y-988614D01*
X2638164Y-804617D01*
X3221984Y-735000D01*
X70608911Y-735000D01*
X71195092Y-800751D01*
%TD*%
M02*
