%TF.GenerationSoftware,KiCad,Pcbnew,5.0.1-33cea8e~68~ubuntu18.10.1*%
%TF.CreationDate,2018-10-31T11:46:58-06:00*%
%TF.ProjectId,thelio-io,7468656C696F2D696F2E6B696361645F,rev?*%
%TF.SameCoordinates,Original*%
%TF.FileFunction,Copper,L1,Top,Signal*%
%TF.FilePolarity,Positive*%
%FSLAX46Y46*%
G04 Gerber Fmt 4.6, Leading zero omitted, Abs format (unit mm)*
G04 Created by KiCad (PCBNEW 5.0.1-33cea8e~68~ubuntu18.10.1) date Wed Oct 31 11:46:58 2018*
%MOMM*%
%LPD*%
G01*
G04 APERTURE LIST*
%TA.AperFunction,NonConductor*%
%ADD10C,0.200000*%
%TD*%
%TA.AperFunction,NonConductor*%
%ADD11C,0.150000*%
%TD*%
%TA.AperFunction,ComponentPad*%
%ADD12O,1.730000X2.030000*%
%TD*%
%TA.AperFunction,ComponentPad*%
%ADD13R,1.730000X2.030000*%
%TD*%
%TA.AperFunction,ComponentPad*%
%ADD14O,1.700000X1.700000*%
%TD*%
%TA.AperFunction,ComponentPad*%
%ADD15R,1.700000X1.700000*%
%TD*%
%TA.AperFunction,Conductor*%
%ADD16C,0.350000*%
%TD*%
%TA.AperFunction,SMDPad,CuDef*%
%ADD17C,0.400000*%
%TD*%
%TA.AperFunction,SMDPad,CuDef*%
%ADD18R,2.500000X1.900000*%
%TD*%
%TA.AperFunction,ConnectorPad*%
%ADD19R,2.100000X2.200000*%
%TD*%
%TA.AperFunction,SMDPad,CuDef*%
%ADD20R,0.600000X3.800000*%
%TD*%
%TA.AperFunction,ViaPad*%
%ADD21C,0.800000*%
%TD*%
%TA.AperFunction,Conductor*%
%ADD22C,0.250000*%
%TD*%
G04 APERTURE END LIST*
D10*
X77050000Y-53400000D02*
G75*
G02X75450000Y-55000000I-1600000J0D01*
G01*
X73850000Y-55000000D02*
X75450000Y-55000000D01*
X73850000Y-16800000D02*
X75450000Y-16800000D01*
X75450000Y-16800000D02*
G75*
G02X77050000Y-18400000I0J-1600000D01*
G01*
X77050000Y-18400000D02*
X77050000Y-53400000D01*
X-3200000Y-18400000D02*
G75*
G02X-1600000Y-16800000I1600000J0D01*
G01*
X-3200000Y-53400000D02*
X-3200000Y-18400000D01*
X-1600000Y-55000000D02*
G75*
G02X-3200000Y-53400000I0J1600000D01*
G01*
X0Y-55000000D02*
X-1600000Y-55000000D01*
X0Y-16800000D02*
X-1600000Y-16800000D01*
X0Y-55000000D02*
X0Y-68600000D01*
X0Y-16800000D02*
X0Y-3200000D01*
X73850000Y-55000000D02*
X73850000Y-68600000D01*
X73850000Y-16800000D02*
X73850000Y-3200000D01*
D11*
X73850000Y-68600000D02*
G75*
G02X70650000Y-71800000I-3200000J0D01*
G01*
D10*
X3200000Y-71800000D02*
G75*
G02X0Y-68600000I0J3200000D01*
G01*
X70650000Y-71800000D02*
X3200000Y-71800000D01*
X0Y-3200000D02*
G75*
G02X3200000Y0I3200000J0D01*
G01*
X70650000Y0D02*
G75*
G02X73850000Y-3200000I0J-3200000D01*
G01*
X3200000Y0D02*
X70650000Y0D01*
D12*
%TO.P,POWER0,4*%
%TO.N,+5V*%
X60960000Y-67990000D03*
%TO.P,POWER0,3*%
%TO.N,GND*%
X63460000Y-67990000D03*
%TO.P,POWER0,2*%
X65960000Y-67990000D03*
D13*
%TO.P,POWER0,1*%
%TO.N,+12V*%
X68460000Y-67990000D03*
%TD*%
D14*
%TO.P,USB0,4*%
%TO.N,GND*%
X8890000Y-65450000D03*
%TO.P,USB0,3*%
%TO.N,Net-(R0-Pad1)*%
X11430000Y-65450000D03*
%TO.P,USB0,2*%
%TO.N,Net-(R1-Pad1)*%
X13970000Y-65450000D03*
D15*
%TO.P,USB0,1*%
%TO.N,VCC*%
X16510000Y-65450000D03*
%TD*%
D16*
%TO.N,Net-(AVR0-Pad16)*%
%TO.C,C1*%
G36*
X2659802Y-39550482D02*
X2669509Y-39551921D01*
X2679028Y-39554306D01*
X2688268Y-39557612D01*
X2697140Y-39561808D01*
X2705557Y-39566853D01*
X2713439Y-39572699D01*
X2720711Y-39579289D01*
X2727301Y-39586561D01*
X2733147Y-39594443D01*
X2738192Y-39602860D01*
X2742388Y-39611732D01*
X2745694Y-39620972D01*
X2748079Y-39630491D01*
X2749518Y-39640198D01*
X2750000Y-39650000D01*
X2750000Y-39850000D01*
X2749518Y-39859802D01*
X2748079Y-39869509D01*
X2745694Y-39879028D01*
X2742388Y-39888268D01*
X2738192Y-39897140D01*
X2733147Y-39905557D01*
X2727301Y-39913439D01*
X2720711Y-39920711D01*
X2713439Y-39927301D01*
X2705557Y-39933147D01*
X2697140Y-39938192D01*
X2688268Y-39942388D01*
X2679028Y-39945694D01*
X2669509Y-39948079D01*
X2659802Y-39949518D01*
X2650000Y-39950000D01*
X2390000Y-39950000D01*
X2380198Y-39949518D01*
X2370491Y-39948079D01*
X2360972Y-39945694D01*
X2351732Y-39942388D01*
X2342860Y-39938192D01*
X2334443Y-39933147D01*
X2326561Y-39927301D01*
X2319289Y-39920711D01*
X2312699Y-39913439D01*
X2306853Y-39905557D01*
X2301808Y-39897140D01*
X2297612Y-39888268D01*
X2294306Y-39879028D01*
X2291921Y-39869509D01*
X2290482Y-39859802D01*
X2290000Y-39850000D01*
X2290000Y-39650000D01*
X2290482Y-39640198D01*
X2291921Y-39630491D01*
X2294306Y-39620972D01*
X2297612Y-39611732D01*
X2301808Y-39602860D01*
X2306853Y-39594443D01*
X2312699Y-39586561D01*
X2319289Y-39579289D01*
X2326561Y-39572699D01*
X2334443Y-39566853D01*
X2342860Y-39561808D01*
X2351732Y-39557612D01*
X2360972Y-39554306D01*
X2370491Y-39551921D01*
X2380198Y-39550482D01*
X2390000Y-39550000D01*
X2650000Y-39550000D01*
X2659802Y-39550482D01*
X2659802Y-39550482D01*
G37*
D17*
%TD*%
%TO.P,C1,2*%
%TO.N,Net-(AVR0-Pad16)*%
X2520000Y-39750000D03*
D16*
%TO.N,GND*%
%TO.C,C1*%
G36*
X2019802Y-39550482D02*
X2029509Y-39551921D01*
X2039028Y-39554306D01*
X2048268Y-39557612D01*
X2057140Y-39561808D01*
X2065557Y-39566853D01*
X2073439Y-39572699D01*
X2080711Y-39579289D01*
X2087301Y-39586561D01*
X2093147Y-39594443D01*
X2098192Y-39602860D01*
X2102388Y-39611732D01*
X2105694Y-39620972D01*
X2108079Y-39630491D01*
X2109518Y-39640198D01*
X2110000Y-39650000D01*
X2110000Y-39850000D01*
X2109518Y-39859802D01*
X2108079Y-39869509D01*
X2105694Y-39879028D01*
X2102388Y-39888268D01*
X2098192Y-39897140D01*
X2093147Y-39905557D01*
X2087301Y-39913439D01*
X2080711Y-39920711D01*
X2073439Y-39927301D01*
X2065557Y-39933147D01*
X2057140Y-39938192D01*
X2048268Y-39942388D01*
X2039028Y-39945694D01*
X2029509Y-39948079D01*
X2019802Y-39949518D01*
X2010000Y-39950000D01*
X1750000Y-39950000D01*
X1740198Y-39949518D01*
X1730491Y-39948079D01*
X1720972Y-39945694D01*
X1711732Y-39942388D01*
X1702860Y-39938192D01*
X1694443Y-39933147D01*
X1686561Y-39927301D01*
X1679289Y-39920711D01*
X1672699Y-39913439D01*
X1666853Y-39905557D01*
X1661808Y-39897140D01*
X1657612Y-39888268D01*
X1654306Y-39879028D01*
X1651921Y-39869509D01*
X1650482Y-39859802D01*
X1650000Y-39850000D01*
X1650000Y-39650000D01*
X1650482Y-39640198D01*
X1651921Y-39630491D01*
X1654306Y-39620972D01*
X1657612Y-39611732D01*
X1661808Y-39602860D01*
X1666853Y-39594443D01*
X1672699Y-39586561D01*
X1679289Y-39579289D01*
X1686561Y-39572699D01*
X1694443Y-39566853D01*
X1702860Y-39561808D01*
X1711732Y-39557612D01*
X1720972Y-39554306D01*
X1730491Y-39551921D01*
X1740198Y-39550482D01*
X1750000Y-39550000D01*
X2010000Y-39550000D01*
X2019802Y-39550482D01*
X2019802Y-39550482D01*
G37*
D17*
%TD*%
%TO.P,C1,1*%
%TO.N,GND*%
X1880000Y-39750000D03*
D16*
%TO.N,Net-(AVR0-Pad17)*%
%TO.C,C2*%
G36*
X2659802Y-38750482D02*
X2669509Y-38751921D01*
X2679028Y-38754306D01*
X2688268Y-38757612D01*
X2697140Y-38761808D01*
X2705557Y-38766853D01*
X2713439Y-38772699D01*
X2720711Y-38779289D01*
X2727301Y-38786561D01*
X2733147Y-38794443D01*
X2738192Y-38802860D01*
X2742388Y-38811732D01*
X2745694Y-38820972D01*
X2748079Y-38830491D01*
X2749518Y-38840198D01*
X2750000Y-38850000D01*
X2750000Y-39050000D01*
X2749518Y-39059802D01*
X2748079Y-39069509D01*
X2745694Y-39079028D01*
X2742388Y-39088268D01*
X2738192Y-39097140D01*
X2733147Y-39105557D01*
X2727301Y-39113439D01*
X2720711Y-39120711D01*
X2713439Y-39127301D01*
X2705557Y-39133147D01*
X2697140Y-39138192D01*
X2688268Y-39142388D01*
X2679028Y-39145694D01*
X2669509Y-39148079D01*
X2659802Y-39149518D01*
X2650000Y-39150000D01*
X2390000Y-39150000D01*
X2380198Y-39149518D01*
X2370491Y-39148079D01*
X2360972Y-39145694D01*
X2351732Y-39142388D01*
X2342860Y-39138192D01*
X2334443Y-39133147D01*
X2326561Y-39127301D01*
X2319289Y-39120711D01*
X2312699Y-39113439D01*
X2306853Y-39105557D01*
X2301808Y-39097140D01*
X2297612Y-39088268D01*
X2294306Y-39079028D01*
X2291921Y-39069509D01*
X2290482Y-39059802D01*
X2290000Y-39050000D01*
X2290000Y-38850000D01*
X2290482Y-38840198D01*
X2291921Y-38830491D01*
X2294306Y-38820972D01*
X2297612Y-38811732D01*
X2301808Y-38802860D01*
X2306853Y-38794443D01*
X2312699Y-38786561D01*
X2319289Y-38779289D01*
X2326561Y-38772699D01*
X2334443Y-38766853D01*
X2342860Y-38761808D01*
X2351732Y-38757612D01*
X2360972Y-38754306D01*
X2370491Y-38751921D01*
X2380198Y-38750482D01*
X2390000Y-38750000D01*
X2650000Y-38750000D01*
X2659802Y-38750482D01*
X2659802Y-38750482D01*
G37*
D17*
%TD*%
%TO.P,C2,2*%
%TO.N,Net-(AVR0-Pad17)*%
X2520000Y-38950000D03*
D16*
%TO.N,GND*%
%TO.C,C2*%
G36*
X2019802Y-38750482D02*
X2029509Y-38751921D01*
X2039028Y-38754306D01*
X2048268Y-38757612D01*
X2057140Y-38761808D01*
X2065557Y-38766853D01*
X2073439Y-38772699D01*
X2080711Y-38779289D01*
X2087301Y-38786561D01*
X2093147Y-38794443D01*
X2098192Y-38802860D01*
X2102388Y-38811732D01*
X2105694Y-38820972D01*
X2108079Y-38830491D01*
X2109518Y-38840198D01*
X2110000Y-38850000D01*
X2110000Y-39050000D01*
X2109518Y-39059802D01*
X2108079Y-39069509D01*
X2105694Y-39079028D01*
X2102388Y-39088268D01*
X2098192Y-39097140D01*
X2093147Y-39105557D01*
X2087301Y-39113439D01*
X2080711Y-39120711D01*
X2073439Y-39127301D01*
X2065557Y-39133147D01*
X2057140Y-39138192D01*
X2048268Y-39142388D01*
X2039028Y-39145694D01*
X2029509Y-39148079D01*
X2019802Y-39149518D01*
X2010000Y-39150000D01*
X1750000Y-39150000D01*
X1740198Y-39149518D01*
X1730491Y-39148079D01*
X1720972Y-39145694D01*
X1711732Y-39142388D01*
X1702860Y-39138192D01*
X1694443Y-39133147D01*
X1686561Y-39127301D01*
X1679289Y-39120711D01*
X1672699Y-39113439D01*
X1666853Y-39105557D01*
X1661808Y-39097140D01*
X1657612Y-39088268D01*
X1654306Y-39079028D01*
X1651921Y-39069509D01*
X1650482Y-39059802D01*
X1650000Y-39050000D01*
X1650000Y-38850000D01*
X1650482Y-38840198D01*
X1651921Y-38830491D01*
X1654306Y-38820972D01*
X1657612Y-38811732D01*
X1661808Y-38802860D01*
X1666853Y-38794443D01*
X1672699Y-38786561D01*
X1679289Y-38779289D01*
X1686561Y-38772699D01*
X1694443Y-38766853D01*
X1702860Y-38761808D01*
X1711732Y-38757612D01*
X1720972Y-38754306D01*
X1730491Y-38751921D01*
X1740198Y-38750482D01*
X1750000Y-38750000D01*
X2010000Y-38750000D01*
X2019802Y-38750482D01*
X2019802Y-38750482D01*
G37*
D17*
%TD*%
%TO.P,C2,1*%
%TO.N,GND*%
X1880000Y-38950000D03*
D18*
%TO.P,Y0,2*%
%TO.N,Net-(AVR0-Pad17)*%
X5400000Y-37150000D03*
%TO.P,Y0,1*%
%TO.N,Net-(AVR0-Pad16)*%
X5400000Y-41550000D03*
%TD*%
D12*
%TO.P,CPUOUT0,4*%
%TO.N,Net-(CPUMUX0-Pad5)*%
X38100000Y-67990000D03*
%TO.P,CPUOUT0,3*%
%TO.N,ADC4*%
X40640000Y-67990000D03*
%TO.P,CPUOUT0,2*%
%TO.N,+12V*%
X43180000Y-67990000D03*
D13*
%TO.P,CPUOUT0,1*%
%TO.N,GND*%
X45720000Y-67990000D03*
%TD*%
D14*
%TO.P,PMB0,4*%
%TO.N,ADC0*%
X11430000Y-69260000D03*
%TO.P,PMB0,3*%
%TO.N,Net-(PMB0-Pad3)*%
X8890000Y-69260000D03*
%TO.P,PMB0,2*%
%TO.N,PB4*%
X6350000Y-69260000D03*
D15*
%TO.P,PMB0,1*%
%TO.N,GND*%
X3810000Y-69260000D03*
%TD*%
D12*
%TO.P,CPUIN0,4*%
%TO.N,Net-(CPUIN0-Pad4)*%
X26670000Y-67990000D03*
%TO.P,CPUIN0,3*%
%TO.N,ADC4*%
X29210000Y-67990000D03*
%TO.P,CPUIN0,2*%
%TO.N,Net-(CPUIN0-Pad2)*%
X31750000Y-67990000D03*
D13*
%TO.P,CPUIN0,1*%
%TO.N,GND*%
X34290000Y-67990000D03*
%TD*%
D12*
%TO.P,INTAKE0,4*%
%TO.N,OC1B*%
X49530000Y-67990000D03*
%TO.P,INTAKE0,3*%
%TO.N,ADC5*%
X52070000Y-67990000D03*
%TO.P,INTAKE0,2*%
%TO.N,+12V*%
X54610000Y-67990000D03*
D13*
%TO.P,INTAKE0,1*%
%TO.N,GND*%
X57150000Y-67990000D03*
%TD*%
D14*
%TO.P,PFP0,4*%
%TO.N,Net-(PFP0-Pad4)*%
X22860000Y-69260000D03*
%TO.P,PFP0,3*%
%TO.N,GND*%
X20320000Y-69260000D03*
%TO.P,PFP0,2*%
%TO.N,ADC1*%
X17780000Y-69260000D03*
D15*
%TO.P,PFP0,1*%
%TO.N,GND*%
X15240000Y-69260000D03*
%TD*%
D19*
%TO.P,SATA3,*%
%TO.N,*%
X20625000Y-60250000D03*
X63325000Y-60250000D03*
D20*
%TO.P,SATA3,22*%
%TO.N,+12V*%
X57850000Y-59650000D03*
%TO.P,SATA3,21*%
X56580000Y-59650000D03*
%TO.P,SATA3,20*%
X55310000Y-59650000D03*
%TO.P,SATA3,19*%
%TO.N,GND*%
X54040000Y-59650000D03*
%TO.P,SATA3,18*%
X52770000Y-59650000D03*
%TO.P,SATA3,17*%
X51500000Y-59650000D03*
%TO.P,SATA3,16*%
%TO.N,+5V*%
X50230000Y-59650000D03*
%TO.P,SATA3,15*%
X48960000Y-59650000D03*
%TO.P,SATA3,14*%
X47690000Y-59650000D03*
%TO.P,SATA3,13*%
%TO.N,GND*%
X46420000Y-59650000D03*
%TO.P,SATA3,12*%
X45150000Y-59650000D03*
%TO.P,SATA3,11*%
X43880000Y-59650000D03*
%TO.P,SATA3,10*%
%TO.N,Net-(SATA3-Pad10)*%
X42610000Y-59650000D03*
%TO.P,SATA3,9*%
%TO.N,Net-(SATA3-Pad9)*%
X41340000Y-59650000D03*
%TO.P,SATA3,8*%
%TO.N,Net-(SATA3-Pad8)*%
X40070000Y-59650000D03*
%TO.P,SATA3,7*%
%TO.N,Net-(DATA3-Pad1)*%
X33720000Y-59650000D03*
%TO.P,SATA3,6*%
%TO.N,Net-(DATA3-Pad2)*%
X32450000Y-59650000D03*
%TO.P,SATA3,5*%
%TO.N,Net-(DATA3-Pad3)*%
X31180000Y-59650000D03*
%TO.P,SATA3,4*%
%TO.N,Net-(DATA3-Pad4)*%
X29910000Y-59650000D03*
%TO.P,SATA3,3*%
%TO.N,Net-(DATA3-Pad5)*%
X28640000Y-59650000D03*
%TO.P,SATA3,2*%
%TO.N,Net-(DATA3-Pad6)*%
X27370000Y-59650000D03*
%TO.P,SATA3,1*%
%TO.N,Net-(DATA3-Pad7)*%
X26100000Y-59650000D03*
%TD*%
D19*
%TO.P,SATA2,*%
%TO.N,*%
X20625000Y-44250000D03*
X63325000Y-44250000D03*
D20*
%TO.P,SATA2,22*%
%TO.N,+12V*%
X57850000Y-43650000D03*
%TO.P,SATA2,21*%
X56580000Y-43650000D03*
%TO.P,SATA2,20*%
X55310000Y-43650000D03*
%TO.P,SATA2,19*%
%TO.N,GND*%
X54040000Y-43650000D03*
%TO.P,SATA2,18*%
X52770000Y-43650000D03*
%TO.P,SATA2,17*%
X51500000Y-43650000D03*
%TO.P,SATA2,16*%
%TO.N,+5V*%
X50230000Y-43650000D03*
%TO.P,SATA2,15*%
X48960000Y-43650000D03*
%TO.P,SATA2,14*%
X47690000Y-43650000D03*
%TO.P,SATA2,13*%
%TO.N,GND*%
X46420000Y-43650000D03*
%TO.P,SATA2,12*%
X45150000Y-43650000D03*
%TO.P,SATA2,11*%
X43880000Y-43650000D03*
%TO.P,SATA2,10*%
%TO.N,Net-(SATA2-Pad10)*%
X42610000Y-43650000D03*
%TO.P,SATA2,9*%
%TO.N,Net-(SATA2-Pad9)*%
X41340000Y-43650000D03*
%TO.P,SATA2,8*%
%TO.N,Net-(SATA2-Pad8)*%
X40070000Y-43650000D03*
%TO.P,SATA2,7*%
%TO.N,Net-(DATA2-Pad1)*%
X33720000Y-43650000D03*
%TO.P,SATA2,6*%
%TO.N,Net-(DATA2-Pad2)*%
X32450000Y-43650000D03*
%TO.P,SATA2,5*%
%TO.N,Net-(DATA2-Pad3)*%
X31180000Y-43650000D03*
%TO.P,SATA2,4*%
%TO.N,Net-(DATA2-Pad4)*%
X29910000Y-43650000D03*
%TO.P,SATA2,3*%
%TO.N,Net-(DATA2-Pad5)*%
X28640000Y-43650000D03*
%TO.P,SATA2,2*%
%TO.N,Net-(DATA2-Pad6)*%
X27370000Y-43650000D03*
%TO.P,SATA2,1*%
%TO.N,Net-(DATA2-Pad7)*%
X26100000Y-43650000D03*
%TD*%
D19*
%TO.P,SATA1,*%
%TO.N,*%
X20625000Y-28250000D03*
X63325000Y-28250000D03*
D20*
%TO.P,SATA1,22*%
%TO.N,+12V*%
X57850000Y-27650000D03*
%TO.P,SATA1,21*%
X56580000Y-27650000D03*
%TO.P,SATA1,20*%
X55310000Y-27650000D03*
%TO.P,SATA1,19*%
%TO.N,GND*%
X54040000Y-27650000D03*
%TO.P,SATA1,18*%
X52770000Y-27650000D03*
%TO.P,SATA1,17*%
X51500000Y-27650000D03*
%TO.P,SATA1,16*%
%TO.N,+5V*%
X50230000Y-27650000D03*
%TO.P,SATA1,15*%
X48960000Y-27650000D03*
%TO.P,SATA1,14*%
X47690000Y-27650000D03*
%TO.P,SATA1,13*%
%TO.N,GND*%
X46420000Y-27650000D03*
%TO.P,SATA1,12*%
X45150000Y-27650000D03*
%TO.P,SATA1,11*%
X43880000Y-27650000D03*
%TO.P,SATA1,10*%
%TO.N,Net-(SATA1-Pad10)*%
X42610000Y-27650000D03*
%TO.P,SATA1,9*%
%TO.N,Net-(SATA1-Pad9)*%
X41340000Y-27650000D03*
%TO.P,SATA1,8*%
%TO.N,Net-(SATA1-Pad8)*%
X40070000Y-27650000D03*
%TO.P,SATA1,7*%
%TO.N,Net-(DATA1-Pad1)*%
X33720000Y-27650000D03*
%TO.P,SATA1,6*%
%TO.N,Net-(DATA1-Pad2)*%
X32450000Y-27650000D03*
%TO.P,SATA1,5*%
%TO.N,Net-(DATA1-Pad3)*%
X31180000Y-27650000D03*
%TO.P,SATA1,4*%
%TO.N,Net-(DATA1-Pad4)*%
X29910000Y-27650000D03*
%TO.P,SATA1,3*%
%TO.N,Net-(DATA1-Pad5)*%
X28640000Y-27650000D03*
%TO.P,SATA1,2*%
%TO.N,Net-(DATA1-Pad6)*%
X27370000Y-27650000D03*
%TO.P,SATA1,1*%
%TO.N,Net-(DATA1-Pad7)*%
X26100000Y-27650000D03*
%TD*%
D19*
%TO.P,SATA0,*%
%TO.N,*%
X20625000Y-12250000D03*
X63325000Y-12250000D03*
D20*
%TO.P,SATA0,22*%
%TO.N,+12V*%
X57850000Y-11650000D03*
%TO.P,SATA0,21*%
X56580000Y-11650000D03*
%TO.P,SATA0,20*%
X55310000Y-11650000D03*
%TO.P,SATA0,19*%
%TO.N,GND*%
X54040000Y-11650000D03*
%TO.P,SATA0,18*%
X52770000Y-11650000D03*
%TO.P,SATA0,17*%
X51500000Y-11650000D03*
%TO.P,SATA0,16*%
%TO.N,+5V*%
X50230000Y-11650000D03*
%TO.P,SATA0,15*%
X48960000Y-11650000D03*
%TO.P,SATA0,14*%
X47690000Y-11650000D03*
%TO.P,SATA0,13*%
%TO.N,GND*%
X46420000Y-11650000D03*
%TO.P,SATA0,12*%
X45150000Y-11650000D03*
%TO.P,SATA0,11*%
X43880000Y-11650000D03*
%TO.P,SATA0,10*%
%TO.N,Net-(SATA0-Pad10)*%
X42610000Y-11650000D03*
%TO.P,SATA0,9*%
%TO.N,Net-(SATA0-Pad9)*%
X41340000Y-11650000D03*
%TO.P,SATA0,8*%
%TO.N,Net-(SATA0-Pad8)*%
X40070000Y-11650000D03*
%TO.P,SATA0,7*%
%TO.N,Net-(DATA0-Pad1)*%
X33720000Y-11650000D03*
%TO.P,SATA0,6*%
%TO.N,Net-(DATA0-Pad2)*%
X32450000Y-11650000D03*
%TO.P,SATA0,5*%
%TO.N,Net-(DATA0-Pad3)*%
X31180000Y-11650000D03*
%TO.P,SATA0,4*%
%TO.N,Net-(DATA0-Pad4)*%
X29910000Y-11650000D03*
%TO.P,SATA0,3*%
%TO.N,Net-(DATA0-Pad5)*%
X28640000Y-11650000D03*
%TO.P,SATA0,2*%
%TO.N,Net-(DATA0-Pad6)*%
X27370000Y-11650000D03*
%TO.P,SATA0,1*%
%TO.N,Net-(DATA0-Pad7)*%
X26100000Y-11650000D03*
%TD*%
D21*
%TO.N,Net-(AVR0-Pad17)*%
X3400000Y-38549998D03*
%TO.N,Net-(AVR0-Pad16)*%
X3400000Y-40150000D03*
%TO.N,Net-(CPUIN0-Pad4)*%
X17775000Y-56180000D03*
%TO.N,Net-(DATA2-Pad7)*%
X26100000Y-41110000D03*
%TO.N,Net-(DATA2-Pad6)*%
X27370000Y-41110000D03*
%TO.N,Net-(DATA2-Pad5)*%
X28640000Y-41110000D03*
%TO.N,Net-(DATA2-Pad4)*%
X29910000Y-41110000D03*
%TO.N,Net-(DATA2-Pad3)*%
X31180000Y-41110000D03*
%TO.N,Net-(DATA2-Pad2)*%
X32450000Y-41110000D03*
%TO.N,Net-(DATA2-Pad1)*%
X33720000Y-41110000D03*
%TO.N,Net-(DATA3-Pad7)*%
X26100000Y-57110000D03*
%TO.N,Net-(DATA3-Pad6)*%
X27370000Y-57110000D03*
%TO.N,Net-(DATA3-Pad5)*%
X28640000Y-57110000D03*
%TO.N,Net-(DATA3-Pad4)*%
X29910000Y-57110000D03*
%TO.N,Net-(DATA3-Pad3)*%
X31180000Y-57110000D03*
%TO.N,Net-(DATA3-Pad2)*%
X32450000Y-57110000D03*
%TO.N,Net-(DATA3-Pad1)*%
X33720000Y-57110000D03*
%TO.N,Net-(DATA0-Pad7)*%
X26100000Y-9110000D03*
%TO.N,Net-(DATA0-Pad6)*%
X27370000Y-9110000D03*
%TO.N,Net-(DATA0-Pad5)*%
X28640000Y-9110000D03*
%TO.N,Net-(DATA0-Pad4)*%
X29910000Y-9110000D03*
%TO.N,Net-(DATA0-Pad3)*%
X31180000Y-9110000D03*
%TO.N,Net-(DATA0-Pad2)*%
X32450000Y-9110000D03*
%TO.N,Net-(DATA0-Pad1)*%
X33720000Y-9110000D03*
%TO.N,Net-(DATA1-Pad7)*%
X26100000Y-25110000D03*
%TO.N,Net-(DATA1-Pad6)*%
X27370000Y-25110000D03*
%TO.N,Net-(DATA1-Pad5)*%
X28640000Y-25110000D03*
%TO.N,Net-(DATA1-Pad4)*%
X29910000Y-25110000D03*
%TO.N,Net-(DATA1-Pad3)*%
X31180000Y-25110000D03*
%TO.N,Net-(DATA1-Pad2)*%
X32450000Y-25110000D03*
%TO.N,Net-(DATA1-Pad1)*%
X33720000Y-25110000D03*
%TO.N,OC1B*%
X25400000Y-48940000D03*
X13900000Y-30050000D03*
%TO.N,OC1A*%
X15975000Y-56079994D03*
X13100000Y-29250000D03*
%TO.N,Net-(CPUMUX0-Pad5)*%
X13970000Y-51480000D03*
X22860000Y-51480000D03*
%TO.N,VCC*%
X18000000Y-43350000D03*
X7507115Y-31657115D03*
X17775000Y-50680000D03*
X13900000Y-46250000D03*
X2600000Y-42150000D03*
X9900000Y-47050000D03*
X18000000Y-34550000D03*
X20245000Y-21000000D03*
%TO.N,GND*%
X18000000Y-42150000D03*
X18000000Y-35750000D03*
X6300000Y-31650000D03*
X16975000Y-49980000D03*
X2600000Y-40950000D03*
X14475000Y-56080000D03*
X11500000Y-50250000D03*
X5200000Y-25450000D03*
X20245000Y-15920000D03*
X43880000Y-9110000D03*
X45150000Y-9110000D03*
X46420000Y-9110000D03*
X54040000Y-62190000D03*
X52770000Y-62190000D03*
X51500000Y-62190000D03*
%TO.N,MISO*%
X6700000Y-47050000D03*
X10115012Y-21000000D03*
%TO.N,MOSI*%
X7499984Y-46250000D03*
X20245000Y-18460000D03*
%TO.N,SCLK*%
X8300000Y-47050000D03*
X11500000Y-25450000D03*
%TO.N,OC4A*%
X21590000Y-50210000D03*
X13899976Y-31650000D03*
%TO.N,PB4*%
X12300000Y-28450000D03*
%TO.N,RST*%
X3400000Y-43750022D03*
X10115000Y-15920000D03*
%TO.N,+12V*%
X57850000Y-62190000D03*
X56580000Y-62190000D03*
X55310000Y-62190000D03*
%TD*%
D22*
%TO.N,Net-(AVR0-Pad17)*%
X2920002Y-38549998D02*
X2520000Y-38950000D01*
X3400000Y-38549998D02*
X2920002Y-38549998D01*
X4799998Y-37150000D02*
X3400000Y-38549998D01*
X5400000Y-37150000D02*
X4799998Y-37150000D01*
%TO.N,Net-(AVR0-Pad16)*%
X3400000Y-40150000D02*
X2920000Y-40150000D01*
X2920000Y-40150000D02*
X2520000Y-39750000D01*
X4800000Y-41550000D02*
X3400000Y-40150000D01*
X5400000Y-41550000D02*
X4800000Y-41550000D01*
%TO.N,Net-(CPUIN0-Pad4)*%
X21590000Y-62910000D02*
X26670000Y-67990000D01*
X19050000Y-62910000D02*
X21590000Y-62910000D01*
X17775000Y-56180000D02*
X17775000Y-61635000D01*
X17775000Y-61635000D02*
X19050000Y-62910000D01*
%TO.N,Net-(DATA2-Pad7)*%
X26100000Y-43650000D02*
X26100000Y-41110000D01*
%TO.N,Net-(DATA2-Pad6)*%
X27370000Y-43650000D02*
X27370000Y-41110000D01*
%TO.N,Net-(DATA2-Pad5)*%
X28640000Y-43650000D02*
X28640000Y-41110000D01*
%TO.N,Net-(DATA2-Pad4)*%
X29910000Y-43650000D02*
X29910000Y-41110000D01*
%TO.N,Net-(DATA2-Pad3)*%
X31180000Y-43650000D02*
X31180000Y-41110000D01*
%TO.N,Net-(DATA2-Pad2)*%
X32450000Y-43650000D02*
X32450000Y-41110000D01*
%TO.N,Net-(DATA2-Pad1)*%
X33720000Y-43650000D02*
X33720000Y-41110000D01*
%TO.N,Net-(DATA3-Pad7)*%
X26100000Y-59650000D02*
X26100000Y-57110000D01*
%TO.N,Net-(DATA3-Pad6)*%
X27370000Y-59650000D02*
X27370000Y-57110000D01*
%TO.N,Net-(DATA3-Pad5)*%
X28640000Y-59650000D02*
X28640000Y-57110000D01*
%TO.N,Net-(DATA3-Pad4)*%
X29910000Y-59650000D02*
X29910000Y-57110000D01*
%TO.N,Net-(DATA3-Pad3)*%
X31180000Y-59650000D02*
X31180000Y-57110000D01*
%TO.N,Net-(DATA3-Pad2)*%
X32450000Y-59650000D02*
X32450000Y-57110000D01*
%TO.N,Net-(DATA3-Pad1)*%
X33720000Y-59650000D02*
X33720000Y-57110000D01*
%TO.N,Net-(DATA0-Pad7)*%
X26100000Y-11650000D02*
X26100000Y-9110000D01*
%TO.N,Net-(DATA0-Pad6)*%
X27370000Y-11650000D02*
X27370000Y-9110000D01*
%TO.N,Net-(DATA0-Pad5)*%
X28640000Y-11650000D02*
X28640000Y-9110000D01*
%TO.N,Net-(DATA0-Pad4)*%
X29910000Y-11650000D02*
X29910000Y-9110000D01*
%TO.N,Net-(DATA0-Pad3)*%
X31180000Y-11650000D02*
X31180000Y-9110000D01*
%TO.N,Net-(DATA0-Pad2)*%
X32450000Y-11650000D02*
X32450000Y-9110000D01*
%TO.N,Net-(DATA0-Pad1)*%
X33720000Y-11650000D02*
X33720000Y-9110000D01*
%TO.N,Net-(DATA1-Pad7)*%
X26100000Y-27650000D02*
X26100000Y-25110000D01*
%TO.N,Net-(DATA1-Pad6)*%
X27370000Y-27650000D02*
X27370000Y-25110000D01*
%TO.N,Net-(DATA1-Pad5)*%
X28640000Y-27650000D02*
X28640000Y-25110000D01*
%TO.N,Net-(DATA1-Pad4)*%
X29910000Y-27650000D02*
X29910000Y-25110000D01*
%TO.N,Net-(DATA1-Pad3)*%
X31180000Y-27650000D02*
X31180000Y-25110000D01*
%TO.N,Net-(DATA1-Pad2)*%
X32450000Y-27650000D02*
X32450000Y-25110000D01*
%TO.N,Net-(DATA1-Pad1)*%
X33720000Y-27650000D02*
X33720000Y-25110000D01*
%TO.N,OC1B*%
X21590000Y-48940000D02*
X25400000Y-48940000D01*
X14700000Y-42050000D02*
X21590000Y-48940000D01*
X13900000Y-30050000D02*
X14700000Y-30850000D01*
X14700000Y-30850000D02*
X14700000Y-42050000D01*
%TO.N,OC1A*%
X13100000Y-53205000D02*
X13100000Y-29250000D01*
X15975000Y-56080000D02*
X13100000Y-53205000D01*
%TO.N,Net-(CPUMUX0-Pad5)*%
X22860000Y-51480000D02*
X13970000Y-51480000D01*
%TO.N,GND*%
X54040000Y-11650000D02*
X54040000Y-10050000D01*
X54040000Y-26930000D02*
X54040000Y-27650000D01*
X43880000Y-27650000D02*
X43880000Y-26050000D01*
X1880000Y-38950000D02*
X1880000Y-39750000D01*
X1880000Y-40230000D02*
X1880000Y-39750000D01*
X2600000Y-40950000D02*
X1880000Y-40230000D01*
X46420000Y-43650000D02*
X46420000Y-42050000D01*
X54040000Y-27650000D02*
X54040000Y-29250000D01*
X45150000Y-27650000D02*
X45150000Y-29250000D01*
X43880000Y-42930000D02*
X43880000Y-43650000D01*
X45150000Y-43650000D02*
X45150000Y-42050000D01*
X46420000Y-27650000D02*
X46420000Y-29250000D01*
X51500000Y-27650000D02*
X51500000Y-29250000D01*
X52770000Y-27650000D02*
X52770000Y-29250000D01*
X43880000Y-59650000D02*
X43880000Y-43650000D01*
X43880000Y-43650000D02*
X43880000Y-27650000D01*
X43880000Y-27650000D02*
X43880000Y-11650000D01*
X45150000Y-11650000D02*
X45150000Y-27650000D01*
X45150000Y-27650000D02*
X45150000Y-43650000D01*
X45150000Y-43650000D02*
X45150000Y-59650000D01*
X46420000Y-59650000D02*
X46420000Y-43650000D01*
X46420000Y-43650000D02*
X46420000Y-27650000D01*
X46420000Y-12370000D02*
X46420000Y-11650000D01*
X46420000Y-27650000D02*
X46420000Y-12370000D01*
X51500000Y-11650000D02*
X51500000Y-27650000D01*
X52770000Y-27650000D02*
X52770000Y-11650000D01*
X54040000Y-11650000D02*
X54040000Y-27650000D01*
X51500000Y-27650000D02*
X51500000Y-43650000D01*
X52770000Y-27650000D02*
X52770000Y-43650000D01*
X54040000Y-43650000D02*
X54040000Y-27650000D01*
X51500000Y-43650000D02*
X51500000Y-59650000D01*
X52770000Y-43650000D02*
X52770000Y-59650000D01*
X54040000Y-43650000D02*
X54040000Y-59650000D01*
X43880000Y-11650000D02*
X43880000Y-9110000D01*
X45150000Y-11650000D02*
X45150000Y-9110000D01*
X46420000Y-11650000D02*
X46420000Y-9110000D01*
X54040000Y-59650000D02*
X54040000Y-62190000D01*
X52770000Y-59650000D02*
X52770000Y-62190000D01*
X51500000Y-59650000D02*
X51500000Y-62190000D01*
%TO.N,MISO*%
X9900000Y-21215012D02*
X10115012Y-21000000D01*
X9900000Y-42250000D02*
X9900000Y-21215012D01*
X6700000Y-47050000D02*
X6700000Y-45450000D01*
X6700000Y-45450000D02*
X9900000Y-42250000D01*
%TO.N,MOSI*%
X10700000Y-24650000D02*
X16890000Y-18460000D01*
X16890000Y-18460000D02*
X20245000Y-18460000D01*
X7499984Y-46250000D02*
X10700000Y-43049984D01*
X10700000Y-43049984D02*
X10700000Y-24650000D01*
%TO.N,SCLK*%
X11500000Y-43850000D02*
X11500000Y-25450000D01*
X8300000Y-47050000D02*
X11500000Y-43850000D01*
%TO.N,ADC4*%
X29210000Y-67990000D02*
X31750000Y-65450000D01*
X31750000Y-65450000D02*
X38100000Y-65450000D01*
X40640000Y-67990000D02*
X38100000Y-65450000D01*
%TO.N,OC4A*%
X21590000Y-50210000D02*
X13899976Y-42519976D01*
X13899976Y-42519976D02*
X13899976Y-31650000D01*
%TO.N,PB4*%
X12300000Y-54250000D02*
X12300000Y-28450000D01*
X6350000Y-60200000D02*
X12300000Y-54250000D01*
X6350000Y-69260000D02*
X6350000Y-60200000D01*
%TO.N,RST*%
X9080001Y-16954999D02*
X9080001Y-41469999D01*
X10115000Y-15920000D02*
X9080001Y-16954999D01*
X6799978Y-43750022D02*
X3400000Y-43750022D01*
X9080001Y-41469999D02*
X6799978Y-43750022D01*
%TO.N,+12V*%
X57850000Y-12989998D02*
X57850000Y-11650000D01*
X55310000Y-28370000D02*
X55310000Y-27650000D01*
X57850000Y-27650000D02*
X57850000Y-29250000D01*
X56580000Y-27650000D02*
X56580000Y-29250000D01*
X55310000Y-59650000D02*
X55310000Y-61250000D01*
X57850000Y-59650000D02*
X57850000Y-43650000D01*
X56580000Y-59650000D02*
X56580000Y-43650000D01*
X55310000Y-59650000D02*
X55310000Y-43650000D01*
X55310000Y-27650000D02*
X55310000Y-11650000D01*
X56580000Y-11650000D02*
X56580000Y-27650000D01*
X57850000Y-27650000D02*
X57850000Y-11650000D01*
X55310000Y-27650000D02*
X55310000Y-43650000D01*
X56580000Y-27650000D02*
X56580000Y-43650000D01*
X57850000Y-27650000D02*
X57850000Y-43650000D01*
X56580000Y-59650000D02*
X56580000Y-62190000D01*
X57850000Y-59650000D02*
X57850000Y-62190000D01*
X55310000Y-59650000D02*
X55310000Y-62190000D01*
%TO.N,+5V*%
X50230000Y-43650000D02*
X50230000Y-42050000D01*
X48960000Y-27650000D02*
X48960000Y-29250000D01*
X50230000Y-27650000D02*
X50230000Y-29250000D01*
X48960000Y-59650000D02*
X48960000Y-63460000D01*
X47690000Y-59650000D02*
X47690000Y-62190000D01*
X47690000Y-62190000D02*
X48960000Y-63460000D01*
X50230000Y-62190000D02*
X50230000Y-59650000D01*
X48960000Y-63460000D02*
X50230000Y-62190000D01*
X47690000Y-11650000D02*
X47690000Y-27650000D01*
X48960000Y-11650000D02*
X48960000Y-27650000D01*
X47690000Y-27650000D02*
X47690000Y-43650000D01*
X48960000Y-43650000D02*
X48960000Y-27650000D01*
X50230000Y-27650000D02*
X50230000Y-43650000D01*
X50230000Y-12370000D02*
X50230000Y-11650000D01*
X50230000Y-27650000D02*
X50230000Y-12370000D01*
X47690000Y-58930000D02*
X47690000Y-59650000D01*
X47690000Y-43650000D02*
X47690000Y-58930000D01*
X48960000Y-43650000D02*
X48960000Y-59650000D01*
X50230000Y-43650000D02*
X50230000Y-59650000D01*
X57150000Y-64180000D02*
X60960000Y-67990000D01*
X48960000Y-63460000D02*
X49680000Y-64180000D01*
X49680000Y-64180000D02*
X57150000Y-64180000D01*
%TD*%
M02*
