%TF.GenerationSoftware,KiCad,Pcbnew,5.0.2-bee76a0~70~ubuntu18.10.1*%
%TF.CreationDate,2019-01-30T12:14:29-07:00*%
%TF.ProjectId,thelio-io-sas,7468656c-696f-42d6-996f-2d7361732e6b,rev?*%
%TF.SameCoordinates,Original*%
%TF.FileFunction,Copper,L5,Inr*%
%TF.FilePolarity,Positive*%
%FSLAX46Y46*%
G04 Gerber Fmt 4.6, Leading zero omitted, Abs format (unit mm)*
G04 Created by KiCad (PCBNEW 5.0.2-bee76a0~70~ubuntu18.10.1) date Wed Jan 30 12:14:29 2019*
%MOMM*%
%LPD*%
G01*
G04 APERTURE LIST*
%TA.AperFunction,NonConductor*%
%ADD10C,0.200000*%
%TD*%
%TA.AperFunction,NonConductor*%
%ADD11C,0.150000*%
%TD*%
%TA.AperFunction,WasherPad*%
%ADD12C,2.600000*%
%TD*%
%TA.AperFunction,ViaPad*%
%ADD13C,0.370000*%
%TD*%
%TA.AperFunction,ViaPad*%
%ADD14O,1.730000X2.030000*%
%TD*%
%TA.AperFunction,ViaPad*%
%ADD15R,1.730000X2.030000*%
%TD*%
%TA.AperFunction,ViaPad*%
%ADD16C,0.400000*%
%TD*%
%TA.AperFunction,ViaPad*%
%ADD17C,0.800000*%
%TD*%
%TA.AperFunction,Conductor*%
%ADD18C,0.254000*%
%TD*%
G04 APERTURE END LIST*
D10*
X77050000Y-18400000D02*
X77050000Y-53400000D01*
X75450000Y-16800000D02*
G75*
G02X77050000Y-18400000I0J-1600000D01*
G01*
X73850000Y-16800000D02*
X75450000Y-16800000D01*
X73850000Y-55000000D02*
X75450000Y-55000000D01*
X77050000Y-53400000D02*
G75*
G02X75450000Y-55000000I-1600000J0D01*
G01*
X70650000Y0D02*
G75*
G02X73850000Y-3200000I0J-3200000D01*
G01*
D11*
X73850000Y-68600000D02*
G75*
G02X70650000Y-71800000I-3200000J0D01*
G01*
D10*
X73850000Y-16800000D02*
X73850000Y-3200000D01*
X73850000Y-55000000D02*
X73850000Y-68600000D01*
X-3200000Y-18400000D02*
G75*
G02X-1600000Y-16800000I1600000J0D01*
G01*
X0Y-16800000D02*
X-1600000Y-16800000D01*
X0Y-55000000D02*
X-1600000Y-55000000D01*
X-1600000Y-55000000D02*
G75*
G02X-3200000Y-53400000I0J1600000D01*
G01*
X-3200000Y-53400000D02*
X-3200000Y-18400000D01*
X0Y-16800000D02*
X0Y-3200000D01*
X0Y-55000000D02*
X0Y-68600000D01*
X3200000Y0D02*
X70650000Y0D01*
X0Y-3200000D02*
G75*
G02X3200000Y0I3200000J0D01*
G01*
X70650000Y-71800000D02*
X3200000Y-71800000D01*
X3200000Y-71800000D02*
G75*
G02X0Y-68600000I0J3200000D01*
G01*
D12*
%TO.N,*%
%TO.C,U2_0*%
X22635000Y-12560000D03*
X61365000Y-12560000D03*
%TD*%
D13*
%TO.N,/sas0/T1+*%
%TO.C,SAS0*%
X14820000Y-10950000D03*
%TO.N,GND*%
X15520000Y-10200000D03*
%TO.N,/sas0/CLK+*%
X16220000Y-9450000D03*
%TO.N,/sas0/CLK-*%
X14820000Y-8700000D03*
%TO.N,/sas0/T1-*%
X16220000Y-11700000D03*
%TO.N,/sas0/T3+*%
X14820000Y-13200000D03*
%TO.N,GND*%
X15520000Y-12450000D03*
X15520000Y-14700000D03*
%TO.N,/sas0/T3-*%
X16220000Y-13950000D03*
%TO.N,/sas0/RST*%
X12420000Y-9450000D03*
%TO.N,GND*%
X11720000Y-12450000D03*
%TO.N,Net-(SAS0-PadB1)*%
X11020000Y-8700000D03*
%TO.N,/sas0/T0+*%
X11020000Y-10950000D03*
%TO.N,GND*%
X11720000Y-14700000D03*
X11720000Y-10200000D03*
%TO.N,/sas0/T0-*%
X12420000Y-11700000D03*
%TO.N,/sas0/T2-*%
X12420000Y-13950000D03*
%TO.N,/sas0/T2+*%
X11020000Y-13200000D03*
%TO.N,Net-(SAS0-PadC2)*%
X8620000Y-9450000D03*
%TO.N,GND*%
X7920000Y-12450000D03*
%TO.N,/sas0/WAKE*%
X7220000Y-8700000D03*
%TO.N,/sas0/R1+*%
X7220000Y-10950000D03*
%TO.N,GND*%
X7920000Y-14700000D03*
X7920000Y-10200000D03*
%TO.N,/sas0/R1-*%
X8620000Y-11700000D03*
%TO.N,/sas0/R3-*%
X8620000Y-13950000D03*
%TO.N,/sas0/R3+*%
X7220000Y-13200000D03*
%TO.N,/sas0/SDAT*%
X4820000Y-9450000D03*
%TO.N,GND*%
X4120000Y-12450000D03*
%TO.N,/sas0/SCLK*%
X3420000Y-8700000D03*
%TO.N,/sas0/R0+*%
X3420000Y-10950000D03*
%TO.N,GND*%
X4120000Y-14700000D03*
X4120000Y-10200000D03*
%TO.N,/sas0/R0-*%
X4820000Y-11700000D03*
%TO.N,/sas0/R2-*%
X4820000Y-13950000D03*
%TO.N,/sas0/R2+*%
X3420000Y-13200000D03*
%TD*%
D12*
%TO.N,*%
%TO.C,U2_1*%
X22635000Y-28560000D03*
X61365000Y-28560000D03*
%TD*%
D13*
%TO.N,/sas1/T1+*%
%TO.C,SAS1*%
X14820000Y-26950000D03*
%TO.N,GND*%
X15520000Y-26200000D03*
%TO.N,/sas1/CLK+*%
X16220000Y-25450000D03*
%TO.N,/sas1/CLK-*%
X14820000Y-24700000D03*
%TO.N,/sas1/T1-*%
X16220000Y-27700000D03*
%TO.N,/sas1/T3+*%
X14820000Y-29200000D03*
%TO.N,GND*%
X15520000Y-28450000D03*
X15520000Y-30700000D03*
%TO.N,/sas1/T3-*%
X16220000Y-29950000D03*
%TO.N,/sas1/RST*%
X12420000Y-25450000D03*
%TO.N,GND*%
X11720000Y-28450000D03*
%TO.N,Net-(SAS1-PadB1)*%
X11020000Y-24700000D03*
%TO.N,/sas1/T0+*%
X11020000Y-26950000D03*
%TO.N,GND*%
X11720000Y-30700000D03*
X11720000Y-26200000D03*
%TO.N,/sas1/T0-*%
X12420000Y-27700000D03*
%TO.N,/sas1/T2-*%
X12420000Y-29950000D03*
%TO.N,/sas1/T2+*%
X11020000Y-29200000D03*
%TO.N,Net-(SAS1-PadC2)*%
X8620000Y-25450000D03*
%TO.N,GND*%
X7920000Y-28450000D03*
%TO.N,/sas1/WAKE*%
X7220000Y-24700000D03*
%TO.N,/sas1/R1+*%
X7220000Y-26950000D03*
%TO.N,GND*%
X7920000Y-30700000D03*
X7920000Y-26200000D03*
%TO.N,/sas1/R1-*%
X8620000Y-27700000D03*
%TO.N,/sas1/R3-*%
X8620000Y-29950000D03*
%TO.N,/sas1/R3+*%
X7220000Y-29200000D03*
%TO.N,/sas1/SDAT*%
X4820000Y-25450000D03*
%TO.N,GND*%
X4120000Y-28450000D03*
%TO.N,/sas1/SCLK*%
X3420000Y-24700000D03*
%TO.N,/sas1/R0+*%
X3420000Y-26950000D03*
%TO.N,GND*%
X4120000Y-30700000D03*
X4120000Y-26200000D03*
%TO.N,/sas1/R0-*%
X4820000Y-27700000D03*
%TO.N,/sas1/R2-*%
X4820000Y-29950000D03*
%TO.N,/sas1/R2+*%
X3420000Y-29200000D03*
%TD*%
D12*
%TO.N,*%
%TO.C,U2_2*%
X22635000Y-44560000D03*
X61365000Y-44560000D03*
%TD*%
D13*
%TO.N,/sas2/T1+*%
%TO.C,SAS2*%
X14820000Y-42950000D03*
%TO.N,GND*%
X15520000Y-42200000D03*
%TO.N,/sas2/CLK+*%
X16220000Y-41450000D03*
%TO.N,/sas2/CLK-*%
X14820000Y-40700000D03*
%TO.N,/sas2/T1-*%
X16220000Y-43700000D03*
%TO.N,/sas2/T3+*%
X14820000Y-45200000D03*
%TO.N,GND*%
X15520000Y-44450000D03*
X15520000Y-46700000D03*
%TO.N,/sas2/T3-*%
X16220000Y-45950000D03*
%TO.N,/sas2/RST*%
X12420000Y-41450000D03*
%TO.N,GND*%
X11720000Y-44450000D03*
%TO.N,Net-(SAS2-PadB1)*%
X11020000Y-40700000D03*
%TO.N,/sas2/T0+*%
X11020000Y-42950000D03*
%TO.N,GND*%
X11720000Y-46700000D03*
X11720000Y-42200000D03*
%TO.N,/sas2/T0-*%
X12420000Y-43700000D03*
%TO.N,/sas2/T2-*%
X12420000Y-45950000D03*
%TO.N,/sas2/T2+*%
X11020000Y-45200000D03*
%TO.N,Net-(SAS2-PadC2)*%
X8620000Y-41450000D03*
%TO.N,GND*%
X7920000Y-44450000D03*
%TO.N,/sas2/WAKE*%
X7220000Y-40700000D03*
%TO.N,/sas2/R1+*%
X7220000Y-42950000D03*
%TO.N,GND*%
X7920000Y-46700000D03*
X7920000Y-42200000D03*
%TO.N,/sas2/R1-*%
X8620000Y-43700000D03*
%TO.N,/sas2/R3-*%
X8620000Y-45950000D03*
%TO.N,/sas2/R3+*%
X7220000Y-45200000D03*
%TO.N,/sas2/SDAT*%
X4820000Y-41450000D03*
%TO.N,GND*%
X4120000Y-44450000D03*
%TO.N,/sas2/SCLK*%
X3420000Y-40700000D03*
%TO.N,/sas2/R0+*%
X3420000Y-42950000D03*
%TO.N,GND*%
X4120000Y-46700000D03*
X4120000Y-42200000D03*
%TO.N,/sas2/R0-*%
X4820000Y-43700000D03*
%TO.N,/sas2/R2-*%
X4820000Y-45950000D03*
%TO.N,/sas2/R2+*%
X3420000Y-45200000D03*
%TD*%
D12*
%TO.N,*%
%TO.C,U2_3*%
X61365000Y-60560000D03*
X22635000Y-60560000D03*
%TD*%
D13*
%TO.N,/sas3/R2+*%
%TO.C,SAS3*%
X3420000Y-61200000D03*
%TO.N,/sas3/R2-*%
X4820000Y-61950000D03*
%TO.N,/sas3/R0-*%
X4820000Y-59700000D03*
%TO.N,GND*%
X4120000Y-58200000D03*
X4120000Y-62700000D03*
%TO.N,/sas3/R0+*%
X3420000Y-58950000D03*
%TO.N,/sas3/SCLK*%
X3420000Y-56700000D03*
%TO.N,GND*%
X4120000Y-60450000D03*
%TO.N,/sas3/SDAT*%
X4820000Y-57450000D03*
%TO.N,/sas3/R3+*%
X7220000Y-61200000D03*
%TO.N,/sas3/R3-*%
X8620000Y-61950000D03*
%TO.N,/sas3/R1-*%
X8620000Y-59700000D03*
%TO.N,GND*%
X7920000Y-58200000D03*
X7920000Y-62700000D03*
%TO.N,/sas3/R1+*%
X7220000Y-58950000D03*
%TO.N,/sas3/WAKE*%
X7220000Y-56700000D03*
%TO.N,GND*%
X7920000Y-60450000D03*
%TO.N,Net-(SAS3-PadC2)*%
X8620000Y-57450000D03*
%TO.N,/sas3/T2+*%
X11020000Y-61200000D03*
%TO.N,/sas3/T2-*%
X12420000Y-61950000D03*
%TO.N,/sas3/T0-*%
X12420000Y-59700000D03*
%TO.N,GND*%
X11720000Y-58200000D03*
X11720000Y-62700000D03*
%TO.N,/sas3/T0+*%
X11020000Y-58950000D03*
%TO.N,Net-(SAS3-PadB1)*%
X11020000Y-56700000D03*
%TO.N,GND*%
X11720000Y-60450000D03*
%TO.N,/sas3/RST*%
X12420000Y-57450000D03*
%TO.N,/sas3/T3-*%
X16220000Y-61950000D03*
%TO.N,GND*%
X15520000Y-62700000D03*
X15520000Y-60450000D03*
%TO.N,/sas3/T3+*%
X14820000Y-61200000D03*
%TO.N,/sas3/T1-*%
X16220000Y-59700000D03*
%TO.N,/sas3/CLK-*%
X14820000Y-56700000D03*
%TO.N,/sas3/CLK+*%
X16220000Y-57450000D03*
%TO.N,GND*%
X15520000Y-58200000D03*
%TO.N,/sas3/T1+*%
X14820000Y-58950000D03*
%TD*%
D14*
%TO.N,+5V*%
%TO.C,POWER0*%
X60960000Y-67990000D03*
%TO.N,GND*%
X63460000Y-67990000D03*
X65960000Y-67990000D03*
D15*
%TO.N,+12V*%
X68460000Y-67990000D03*
%TD*%
D16*
%TO.N,GND*%
X39320000Y-43500000D03*
X45720000Y-41100000D03*
X32920000Y-41100000D03*
X48120000Y-43500000D03*
X44920000Y-37300000D03*
X25720000Y-37300000D03*
X52920000Y-41100000D03*
X25720000Y-50300000D03*
X45720000Y-43500000D03*
X38520000Y-37300000D03*
X22520000Y-37300000D03*
D17*
X46420000Y-49445000D03*
X45175000Y-49445000D03*
D16*
X40920000Y-43500000D03*
X28920000Y-37300000D03*
X36920000Y-43500000D03*
X52920000Y-43500000D03*
X43320000Y-41100000D03*
D17*
X51525000Y-49445000D03*
D16*
X50520000Y-43500000D03*
X29935000Y-45100000D03*
X55320000Y-43500000D03*
X43320000Y-43500000D03*
X48120000Y-37300000D03*
X9720000Y-50300000D03*
X19320000Y-50300000D03*
X34520000Y-41100000D03*
X6520000Y-37300000D03*
X32920000Y-43500000D03*
D17*
X43905000Y-49445000D03*
X54040000Y-49445000D03*
D16*
X12920000Y-50300000D03*
X48120000Y-41100000D03*
X38520000Y-50300000D03*
X12920000Y-37300000D03*
X57720000Y-41100000D03*
X51320000Y-37300000D03*
X26125000Y-45070000D03*
X34520000Y-43500000D03*
X55320000Y-41100000D03*
X57720000Y-43500000D03*
X50520000Y-41100000D03*
X9720000Y-37300000D03*
X54520000Y-37300000D03*
X33745000Y-45100000D03*
X36920000Y-41100000D03*
X19320000Y-37300000D03*
X57720000Y-37300000D03*
X16120000Y-50300000D03*
X16120000Y-37300000D03*
X41720000Y-37300000D03*
X32120000Y-37300000D03*
X35320000Y-37300000D03*
X32120000Y-50300000D03*
X41720000Y-50300000D03*
X40920000Y-41100000D03*
X22520000Y-50300000D03*
X35320000Y-50300000D03*
X28120000Y-43500000D03*
X6520000Y-50300000D03*
X28920000Y-50300000D03*
X39320000Y-41100000D03*
X30520000Y-43500000D03*
X30520000Y-41100000D03*
X28120000Y-41100000D03*
X39320000Y-27500000D03*
X45720000Y-25100000D03*
X32920000Y-25100000D03*
X48120000Y-27500000D03*
X44920000Y-21300000D03*
X25720000Y-21300000D03*
X52920000Y-25100000D03*
X25720000Y-34300000D03*
X45720000Y-27500000D03*
X38520000Y-21300000D03*
X22520000Y-21300000D03*
D17*
X46420000Y-33445000D03*
X45175000Y-33445000D03*
D16*
X40920000Y-27500000D03*
X28920000Y-21300000D03*
X36920000Y-27500000D03*
X52920000Y-27500000D03*
X43320000Y-25100000D03*
D17*
X51525000Y-33445000D03*
D16*
X50520000Y-27500000D03*
X29935000Y-29100000D03*
X55320000Y-27500000D03*
X43320000Y-27500000D03*
X48120000Y-21300000D03*
X9720000Y-34300000D03*
X19320000Y-34300000D03*
X34520000Y-25100000D03*
X6520000Y-21300000D03*
X32920000Y-27500000D03*
D17*
X43905000Y-33445000D03*
X54040000Y-33445000D03*
D16*
X12920000Y-34300000D03*
X48120000Y-25100000D03*
X38520000Y-34300000D03*
X12920000Y-21300000D03*
X57720000Y-25100000D03*
X51320000Y-21300000D03*
X26125000Y-29070000D03*
X34520000Y-27500000D03*
X55320000Y-25100000D03*
X57720000Y-27500000D03*
X50520000Y-25100000D03*
X9720000Y-21300000D03*
X54520000Y-21300000D03*
X33745000Y-29100000D03*
X36920000Y-25100000D03*
X19320000Y-21300000D03*
X57720000Y-21300000D03*
X16120000Y-34300000D03*
X16120000Y-21300000D03*
X41720000Y-21300000D03*
X32120000Y-21300000D03*
X35320000Y-21300000D03*
X32120000Y-34300000D03*
X41720000Y-34300000D03*
X40920000Y-25100000D03*
X22520000Y-34300000D03*
X35320000Y-34300000D03*
X28120000Y-27500000D03*
X6520000Y-34300000D03*
X28920000Y-34300000D03*
X39320000Y-25100000D03*
X30520000Y-27500000D03*
X30520000Y-25100000D03*
X28120000Y-25100000D03*
X39320000Y-11500000D03*
X45720000Y-9100000D03*
X32920000Y-9100000D03*
X48120000Y-11500000D03*
X44920000Y-5300000D03*
X25720000Y-5300000D03*
X52920000Y-9100000D03*
X25720000Y-18300000D03*
X45720000Y-11500000D03*
X38520000Y-5300000D03*
X22520000Y-5300000D03*
D17*
X46420000Y-17445000D03*
X45175000Y-17445000D03*
D16*
X40920000Y-11500000D03*
X28920000Y-5300000D03*
X36920000Y-11500000D03*
X52920000Y-11500000D03*
X43320000Y-9100000D03*
D17*
X51525000Y-17445000D03*
D16*
X50520000Y-11500000D03*
X29935000Y-13100000D03*
X55320000Y-11500000D03*
X43320000Y-11500000D03*
X48120000Y-5300000D03*
X9720000Y-18300000D03*
X19320000Y-18300000D03*
X34520000Y-9100000D03*
X6520000Y-5300000D03*
X32920000Y-11500000D03*
D17*
X43905000Y-17445000D03*
X54040000Y-17445000D03*
D16*
X12920000Y-18300000D03*
X48120000Y-9100000D03*
X38520000Y-18300000D03*
X12920000Y-5300000D03*
X57720000Y-9100000D03*
X51320000Y-5300000D03*
X26125000Y-13070000D03*
X34520000Y-11500000D03*
X55320000Y-9100000D03*
X57720000Y-11500000D03*
X50520000Y-9100000D03*
X9720000Y-5300000D03*
X54520000Y-5300000D03*
X33745000Y-13100000D03*
X36920000Y-9100000D03*
X19320000Y-5300000D03*
X57720000Y-5300000D03*
X16120000Y-18300000D03*
X16120000Y-5300000D03*
X41720000Y-5300000D03*
X32120000Y-5300000D03*
X35320000Y-5300000D03*
X32120000Y-18300000D03*
X41720000Y-18300000D03*
X40920000Y-9100000D03*
X22520000Y-18300000D03*
X35320000Y-18300000D03*
X28120000Y-11500000D03*
X6520000Y-18300000D03*
X28920000Y-18300000D03*
X39320000Y-9100000D03*
X30520000Y-11500000D03*
X30520000Y-9100000D03*
X28120000Y-9100000D03*
X43320000Y-59500000D03*
X45720000Y-57100000D03*
X39320000Y-59500000D03*
X28120000Y-57100000D03*
X16120000Y-53300000D03*
X16120000Y-66300000D03*
X6520000Y-66300000D03*
X9720000Y-66300000D03*
X12920000Y-66300000D03*
X48120000Y-53300000D03*
X41720000Y-53300000D03*
X28920000Y-53300000D03*
X38520000Y-53300000D03*
X32120000Y-53300000D03*
X35320000Y-53300000D03*
X44920000Y-53300000D03*
X25720000Y-53300000D03*
X22520000Y-53300000D03*
X38520000Y-66300000D03*
X32120000Y-66300000D03*
X41720000Y-66300000D03*
X28920000Y-66300000D03*
X22520000Y-66300000D03*
X35320000Y-66300000D03*
X25720000Y-66300000D03*
X19320000Y-66300000D03*
X6520000Y-53300000D03*
X9720000Y-53300000D03*
X12920000Y-53300000D03*
X19320000Y-53300000D03*
X54520000Y-53300000D03*
X51320000Y-53300000D03*
X57720000Y-53300000D03*
D17*
X43905000Y-65445000D03*
X54040000Y-65445000D03*
X51525000Y-65445000D03*
X46420000Y-65445000D03*
X45175000Y-65445000D03*
D16*
X50520000Y-57100000D03*
X52920000Y-57100000D03*
X55320000Y-57100000D03*
X57720000Y-57100000D03*
X48120000Y-57100000D03*
X43320000Y-57100000D03*
X39320000Y-57100000D03*
X34520000Y-57100000D03*
X32920000Y-57100000D03*
X30520000Y-57100000D03*
X28120000Y-59500000D03*
X30520000Y-59500000D03*
X32920000Y-59500000D03*
X34520000Y-59500000D03*
X36920000Y-59500000D03*
X40920000Y-59500000D03*
X45720000Y-59500000D03*
X48120000Y-59500000D03*
X50520000Y-59500000D03*
X52920000Y-59500000D03*
X55320000Y-59500000D03*
X57720000Y-59500000D03*
X26125000Y-61070000D03*
X29935000Y-61100000D03*
X33745000Y-61100000D03*
X36920000Y-57100000D03*
X40920000Y-57100000D03*
D17*
%TO.N,+12V*%
X55310000Y-49445000D03*
X56580000Y-49445000D03*
X57875000Y-49445000D03*
X55310000Y-33445000D03*
X56580000Y-33445000D03*
X57875000Y-33445000D03*
X55310000Y-17445000D03*
X56580000Y-17445000D03*
X57875000Y-17445000D03*
X57875000Y-65445000D03*
X56580000Y-65445000D03*
X55310000Y-65445000D03*
%TO.N,+5V*%
X48985000Y-49445000D03*
X47715000Y-49420000D03*
X50255000Y-49445000D03*
X48985000Y-33445000D03*
X47715000Y-33420000D03*
X50255000Y-33445000D03*
X48985000Y-17445000D03*
X47715000Y-17420000D03*
X50255000Y-17445000D03*
X47715000Y-65420000D03*
X50255000Y-65445000D03*
X48985000Y-65445000D03*
D16*
%TO.N,/sas3/SDAT*%
X56920000Y-56900000D03*
%TO.N,/sas3/SCLK*%
X56120000Y-56900000D03*
%TO.N,/sas3/R3+*%
X53924284Y-56495716D03*
%TO.N,/sas3/R3-*%
X53515716Y-56904284D03*
%TO.N,/sas3/T3-*%
X52324284Y-56904284D03*
%TO.N,/sas3/T3+*%
X51915716Y-56495716D03*
%TO.N,/sas3/R2+*%
X49124284Y-56495716D03*
%TO.N,/sas3/R2-*%
X48715716Y-56904284D03*
%TO.N,/sas3/T2-*%
X47524284Y-56904284D03*
%TO.N,/sas3/T2+*%
X47115716Y-56495716D03*
%TO.N,/sas3/R1+*%
X44324284Y-56495716D03*
%TO.N,/sas3/R1-*%
X43915716Y-56904284D03*
%TO.N,/sas3/T1-*%
X42724284Y-56904284D03*
%TO.N,/sas3/T1+*%
X42315716Y-56495716D03*
%TO.N,/sas3/R0+*%
X31524284Y-56495716D03*
%TO.N,/sas3/R0-*%
X31115716Y-56904284D03*
%TO.N,/sas3/T0-*%
X29924284Y-56904284D03*
%TO.N,/sas3/T0+*%
X29515716Y-56495716D03*
%TO.N,/sas0/SDAT*%
X56920000Y-8900000D03*
%TO.N,/sas0/SCLK*%
X56120000Y-8900000D03*
%TO.N,/sas0/R3+*%
X53924284Y-8495716D03*
%TO.N,/sas0/R3-*%
X53515716Y-8904284D03*
%TO.N,/sas0/T3-*%
X52324284Y-8904284D03*
%TO.N,/sas0/T3+*%
X51915716Y-8495716D03*
%TO.N,/sas0/R2+*%
X49124284Y-8495716D03*
%TO.N,/sas0/R2-*%
X48715716Y-8904284D03*
%TO.N,/sas0/T2-*%
X47524284Y-8904284D03*
%TO.N,/sas0/T2+*%
X47115716Y-8495716D03*
%TO.N,/sas0/R1+*%
X44324284Y-8495716D03*
%TO.N,/sas0/R1-*%
X43915716Y-8904284D03*
%TO.N,/sas0/T1-*%
X42724284Y-8904284D03*
%TO.N,/sas0/T1+*%
X42315716Y-8495716D03*
%TO.N,/sas0/R0+*%
X31524284Y-8495716D03*
%TO.N,/sas0/R0-*%
X31115716Y-8904284D03*
%TO.N,/sas0/T0-*%
X29924284Y-8904284D03*
%TO.N,/sas0/T0+*%
X29515716Y-8495716D03*
%TO.N,/sas1/SDAT*%
X56920000Y-24900000D03*
%TO.N,/sas1/SCLK*%
X56120000Y-24900000D03*
%TO.N,/sas1/R3+*%
X53924284Y-24495716D03*
%TO.N,/sas1/R3-*%
X53515716Y-24904284D03*
%TO.N,/sas1/T3-*%
X52324284Y-24904284D03*
%TO.N,/sas1/T3+*%
X51915716Y-24495716D03*
%TO.N,/sas1/R2+*%
X49124284Y-24495716D03*
%TO.N,/sas1/R2-*%
X48715716Y-24904284D03*
%TO.N,/sas1/T2-*%
X47524284Y-24904284D03*
%TO.N,/sas1/T2+*%
X47115716Y-24495716D03*
%TO.N,/sas1/R1+*%
X44324284Y-24495716D03*
%TO.N,/sas1/R1-*%
X43915716Y-24904284D03*
%TO.N,/sas1/T1-*%
X42724284Y-24904284D03*
%TO.N,/sas1/T1+*%
X42315716Y-24495716D03*
%TO.N,/sas1/R0+*%
X31524284Y-24495716D03*
%TO.N,/sas1/R0-*%
X31115716Y-24904284D03*
%TO.N,/sas1/T0-*%
X29924284Y-24904284D03*
%TO.N,/sas1/T0+*%
X29515716Y-24495716D03*
%TO.N,/sas2/SDAT*%
X56920000Y-40900000D03*
%TO.N,/sas2/SCLK*%
X56120000Y-40900000D03*
%TO.N,/sas2/R3+*%
X53924284Y-40495716D03*
%TO.N,/sas2/R3-*%
X53515716Y-40904284D03*
%TO.N,/sas2/T3-*%
X52324284Y-40904284D03*
%TO.N,/sas2/T3+*%
X51915716Y-40495716D03*
%TO.N,/sas2/R2+*%
X49124284Y-40495716D03*
%TO.N,/sas2/R2-*%
X48715716Y-40904284D03*
%TO.N,/sas2/T2-*%
X47524284Y-40904284D03*
%TO.N,/sas2/T2+*%
X47115716Y-40495716D03*
%TO.N,/sas2/R1+*%
X44324284Y-40495716D03*
%TO.N,/sas2/R1-*%
X43915716Y-40904284D03*
%TO.N,/sas2/T1-*%
X42724284Y-40904284D03*
%TO.N,/sas2/T1+*%
X42315716Y-40495716D03*
%TO.N,/sas2/R0+*%
X31524284Y-40495716D03*
%TO.N,/sas2/R0-*%
X31115716Y-40904284D03*
%TO.N,/sas2/T0-*%
X29924284Y-40904284D03*
%TO.N,/sas2/T0+*%
X29515716Y-40495716D03*
%TD*%
D18*
%TO.N,+12V*%
G36*
X71195092Y-800751D02*
X71713100Y-981140D01*
X72178266Y-1271808D01*
X72567474Y-1658308D01*
X72861386Y-2121438D01*
X73045383Y-2638164D01*
X73115001Y-3221993D01*
X73115000Y-16727612D01*
X73100601Y-16800000D01*
X73157646Y-17086783D01*
X73267161Y-17250683D01*
X73320095Y-17329905D01*
X73563217Y-17492354D01*
X73850000Y-17549399D01*
X73922388Y-17535000D01*
X75392153Y-17535000D01*
X75714468Y-17586050D01*
X75953051Y-17707614D01*
X76142387Y-17896951D01*
X76263950Y-18135532D01*
X76315000Y-18457847D01*
X76315001Y-53342147D01*
X76263950Y-53664468D01*
X76142387Y-53903049D01*
X75953051Y-54092386D01*
X75714468Y-54213950D01*
X75392153Y-54265000D01*
X73922388Y-54265000D01*
X73850000Y-54250601D01*
X73777612Y-54265000D01*
X73563217Y-54307646D01*
X73320095Y-54470095D01*
X73157646Y-54713217D01*
X73100601Y-55000000D01*
X73115000Y-55072388D01*
X73115001Y-68672388D01*
X73122947Y-68712336D01*
X73073780Y-69150669D01*
X72891548Y-69673969D01*
X72597909Y-70143890D01*
X72207451Y-70537083D01*
X71739593Y-70833995D01*
X71217576Y-71019877D01*
X70766155Y-71073706D01*
X70722388Y-71065000D01*
X54927000Y-71065000D01*
X54927000Y-67692268D01*
X59460000Y-67692268D01*
X59460000Y-68287733D01*
X59547032Y-68725271D01*
X59878561Y-69221439D01*
X60374730Y-69552968D01*
X60960000Y-69669386D01*
X61545271Y-69552968D01*
X62041439Y-69221439D01*
X62210000Y-68969169D01*
X62378561Y-69221439D01*
X62874730Y-69552968D01*
X63460000Y-69669386D01*
X64045271Y-69552968D01*
X64541439Y-69221439D01*
X64710000Y-68969169D01*
X64878561Y-69221439D01*
X65374730Y-69552968D01*
X65960000Y-69669386D01*
X66545271Y-69552968D01*
X67006894Y-69244521D01*
X67056673Y-69364698D01*
X67235301Y-69543327D01*
X67468690Y-69640000D01*
X68174250Y-69640000D01*
X68333000Y-69481250D01*
X68333000Y-68117000D01*
X68587000Y-68117000D01*
X68587000Y-69481250D01*
X68745750Y-69640000D01*
X69451310Y-69640000D01*
X69684699Y-69543327D01*
X69863327Y-69364698D01*
X69960000Y-69131309D01*
X69960000Y-68275750D01*
X69801250Y-68117000D01*
X68587000Y-68117000D01*
X68333000Y-68117000D01*
X68313000Y-68117000D01*
X68313000Y-67863000D01*
X68333000Y-67863000D01*
X68333000Y-66498750D01*
X68587000Y-66498750D01*
X68587000Y-67863000D01*
X69801250Y-67863000D01*
X69960000Y-67704250D01*
X69960000Y-66848691D01*
X69863327Y-66615302D01*
X69684699Y-66436673D01*
X69451310Y-66340000D01*
X68745750Y-66340000D01*
X68587000Y-66498750D01*
X68333000Y-66498750D01*
X68174250Y-66340000D01*
X67468690Y-66340000D01*
X67235301Y-66436673D01*
X67056673Y-66615302D01*
X67006894Y-66735479D01*
X66545270Y-66427032D01*
X65960000Y-66310614D01*
X65374729Y-66427032D01*
X64878561Y-66758561D01*
X64710000Y-67010831D01*
X64541439Y-66758561D01*
X64045270Y-66427032D01*
X63460000Y-66310614D01*
X62874729Y-66427032D01*
X62378561Y-66758561D01*
X62210000Y-67010831D01*
X62041439Y-66758561D01*
X61545270Y-66427032D01*
X60960000Y-66310614D01*
X60374729Y-66427032D01*
X59878561Y-66758561D01*
X59547032Y-67254730D01*
X59460000Y-67692268D01*
X54927000Y-67692268D01*
X54927000Y-66008178D01*
X55075000Y-65650874D01*
X55075000Y-65239126D01*
X54927000Y-64881822D01*
X54927000Y-60241012D01*
X55153908Y-60335000D01*
X55486092Y-60335000D01*
X55792990Y-60207879D01*
X56027879Y-59972990D01*
X56155000Y-59666092D01*
X56155000Y-59333908D01*
X56885000Y-59333908D01*
X56885000Y-59666092D01*
X57012121Y-59972990D01*
X57247010Y-60207879D01*
X57553908Y-60335000D01*
X57886092Y-60335000D01*
X58192990Y-60207879D01*
X58225764Y-60175105D01*
X59430000Y-60175105D01*
X59430000Y-60944895D01*
X59724586Y-61656090D01*
X60268910Y-62200414D01*
X60980105Y-62495000D01*
X61749895Y-62495000D01*
X62461090Y-62200414D01*
X63005414Y-61656090D01*
X63300000Y-60944895D01*
X63300000Y-60175105D01*
X63005414Y-59463910D01*
X62461090Y-58919586D01*
X61749895Y-58625000D01*
X60980105Y-58625000D01*
X60268910Y-58919586D01*
X59724586Y-59463910D01*
X59430000Y-60175105D01*
X58225764Y-60175105D01*
X58427879Y-59972990D01*
X58555000Y-59666092D01*
X58555000Y-59333908D01*
X58427879Y-59027010D01*
X58192990Y-58792121D01*
X57886092Y-58665000D01*
X57553908Y-58665000D01*
X57247010Y-58792121D01*
X57012121Y-59027010D01*
X56885000Y-59333908D01*
X56155000Y-59333908D01*
X56027879Y-59027010D01*
X55792990Y-58792121D01*
X55486092Y-58665000D01*
X55153908Y-58665000D01*
X54927000Y-58758988D01*
X54927000Y-57841012D01*
X55153908Y-57935000D01*
X55486092Y-57935000D01*
X55792990Y-57807879D01*
X55891655Y-57709214D01*
X55953908Y-57735000D01*
X56286092Y-57735000D01*
X56520000Y-57638112D01*
X56753908Y-57735000D01*
X57086092Y-57735000D01*
X57148345Y-57709214D01*
X57247010Y-57807879D01*
X57553908Y-57935000D01*
X57886092Y-57935000D01*
X58192990Y-57807879D01*
X58427879Y-57572990D01*
X58555000Y-57266092D01*
X58555000Y-56933908D01*
X58427879Y-56627010D01*
X58192990Y-56392121D01*
X57886092Y-56265000D01*
X57553908Y-56265000D01*
X57491655Y-56290786D01*
X57392990Y-56192121D01*
X57086092Y-56065000D01*
X56753908Y-56065000D01*
X56520000Y-56161888D01*
X56286092Y-56065000D01*
X55953908Y-56065000D01*
X55647010Y-56192121D01*
X55548345Y-56290786D01*
X55486092Y-56265000D01*
X55153908Y-56265000D01*
X54927000Y-56358988D01*
X54927000Y-54035213D01*
X54992990Y-54007879D01*
X55227879Y-53772990D01*
X55355000Y-53466092D01*
X55355000Y-53133908D01*
X56885000Y-53133908D01*
X56885000Y-53466092D01*
X57012121Y-53772990D01*
X57247010Y-54007879D01*
X57553908Y-54135000D01*
X57886092Y-54135000D01*
X58192990Y-54007879D01*
X58427879Y-53772990D01*
X58555000Y-53466092D01*
X58555000Y-53133908D01*
X58427879Y-52827010D01*
X58192990Y-52592121D01*
X57886092Y-52465000D01*
X57553908Y-52465000D01*
X57247010Y-52592121D01*
X57012121Y-52827010D01*
X56885000Y-53133908D01*
X55355000Y-53133908D01*
X55227879Y-52827010D01*
X54992990Y-52592121D01*
X54927000Y-52564787D01*
X54927000Y-50008178D01*
X55075000Y-49650874D01*
X55075000Y-49239126D01*
X54927000Y-48881822D01*
X54927000Y-44241012D01*
X55153908Y-44335000D01*
X55486092Y-44335000D01*
X55792990Y-44207879D01*
X56027879Y-43972990D01*
X56155000Y-43666092D01*
X56155000Y-43333908D01*
X56885000Y-43333908D01*
X56885000Y-43666092D01*
X57012121Y-43972990D01*
X57247010Y-44207879D01*
X57553908Y-44335000D01*
X57886092Y-44335000D01*
X58192990Y-44207879D01*
X58225764Y-44175105D01*
X59430000Y-44175105D01*
X59430000Y-44944895D01*
X59724586Y-45656090D01*
X60268910Y-46200414D01*
X60980105Y-46495000D01*
X61749895Y-46495000D01*
X62461090Y-46200414D01*
X63005414Y-45656090D01*
X63300000Y-44944895D01*
X63300000Y-44175105D01*
X63005414Y-43463910D01*
X62461090Y-42919586D01*
X61749895Y-42625000D01*
X60980105Y-42625000D01*
X60268910Y-42919586D01*
X59724586Y-43463910D01*
X59430000Y-44175105D01*
X58225764Y-44175105D01*
X58427879Y-43972990D01*
X58555000Y-43666092D01*
X58555000Y-43333908D01*
X58427879Y-43027010D01*
X58192990Y-42792121D01*
X57886092Y-42665000D01*
X57553908Y-42665000D01*
X57247010Y-42792121D01*
X57012121Y-43027010D01*
X56885000Y-43333908D01*
X56155000Y-43333908D01*
X56027879Y-43027010D01*
X55792990Y-42792121D01*
X55486092Y-42665000D01*
X55153908Y-42665000D01*
X54927000Y-42758988D01*
X54927000Y-41841012D01*
X55153908Y-41935000D01*
X55486092Y-41935000D01*
X55792990Y-41807879D01*
X55891655Y-41709214D01*
X55953908Y-41735000D01*
X56286092Y-41735000D01*
X56520000Y-41638112D01*
X56753908Y-41735000D01*
X57086092Y-41735000D01*
X57148345Y-41709214D01*
X57247010Y-41807879D01*
X57553908Y-41935000D01*
X57886092Y-41935000D01*
X58192990Y-41807879D01*
X58427879Y-41572990D01*
X58555000Y-41266092D01*
X58555000Y-40933908D01*
X58427879Y-40627010D01*
X58192990Y-40392121D01*
X57886092Y-40265000D01*
X57553908Y-40265000D01*
X57491655Y-40290786D01*
X57392990Y-40192121D01*
X57086092Y-40065000D01*
X56753908Y-40065000D01*
X56520000Y-40161888D01*
X56286092Y-40065000D01*
X55953908Y-40065000D01*
X55647010Y-40192121D01*
X55548345Y-40290786D01*
X55486092Y-40265000D01*
X55153908Y-40265000D01*
X54927000Y-40358988D01*
X54927000Y-38035213D01*
X54992990Y-38007879D01*
X55227879Y-37772990D01*
X55355000Y-37466092D01*
X55355000Y-37133908D01*
X56885000Y-37133908D01*
X56885000Y-37466092D01*
X57012121Y-37772990D01*
X57247010Y-38007879D01*
X57553908Y-38135000D01*
X57886092Y-38135000D01*
X58192990Y-38007879D01*
X58427879Y-37772990D01*
X58555000Y-37466092D01*
X58555000Y-37133908D01*
X58427879Y-36827010D01*
X58192990Y-36592121D01*
X57886092Y-36465000D01*
X57553908Y-36465000D01*
X57247010Y-36592121D01*
X57012121Y-36827010D01*
X56885000Y-37133908D01*
X55355000Y-37133908D01*
X55227879Y-36827010D01*
X54992990Y-36592121D01*
X54927000Y-36564787D01*
X54927000Y-34008178D01*
X55075000Y-33650874D01*
X55075000Y-33239126D01*
X54927000Y-32881822D01*
X54927000Y-28241012D01*
X55153908Y-28335000D01*
X55486092Y-28335000D01*
X55792990Y-28207879D01*
X56027879Y-27972990D01*
X56155000Y-27666092D01*
X56155000Y-27333908D01*
X56885000Y-27333908D01*
X56885000Y-27666092D01*
X57012121Y-27972990D01*
X57247010Y-28207879D01*
X57553908Y-28335000D01*
X57886092Y-28335000D01*
X58192990Y-28207879D01*
X58225764Y-28175105D01*
X59430000Y-28175105D01*
X59430000Y-28944895D01*
X59724586Y-29656090D01*
X60268910Y-30200414D01*
X60980105Y-30495000D01*
X61749895Y-30495000D01*
X62461090Y-30200414D01*
X63005414Y-29656090D01*
X63300000Y-28944895D01*
X63300000Y-28175105D01*
X63005414Y-27463910D01*
X62461090Y-26919586D01*
X61749895Y-26625000D01*
X60980105Y-26625000D01*
X60268910Y-26919586D01*
X59724586Y-27463910D01*
X59430000Y-28175105D01*
X58225764Y-28175105D01*
X58427879Y-27972990D01*
X58555000Y-27666092D01*
X58555000Y-27333908D01*
X58427879Y-27027010D01*
X58192990Y-26792121D01*
X57886092Y-26665000D01*
X57553908Y-26665000D01*
X57247010Y-26792121D01*
X57012121Y-27027010D01*
X56885000Y-27333908D01*
X56155000Y-27333908D01*
X56027879Y-27027010D01*
X55792990Y-26792121D01*
X55486092Y-26665000D01*
X55153908Y-26665000D01*
X54927000Y-26758988D01*
X54927000Y-25841012D01*
X55153908Y-25935000D01*
X55486092Y-25935000D01*
X55792990Y-25807879D01*
X55891655Y-25709214D01*
X55953908Y-25735000D01*
X56286092Y-25735000D01*
X56520000Y-25638112D01*
X56753908Y-25735000D01*
X57086092Y-25735000D01*
X57148345Y-25709214D01*
X57247010Y-25807879D01*
X57553908Y-25935000D01*
X57886092Y-25935000D01*
X58192990Y-25807879D01*
X58427879Y-25572990D01*
X58555000Y-25266092D01*
X58555000Y-24933908D01*
X58427879Y-24627010D01*
X58192990Y-24392121D01*
X57886092Y-24265000D01*
X57553908Y-24265000D01*
X57491655Y-24290786D01*
X57392990Y-24192121D01*
X57086092Y-24065000D01*
X56753908Y-24065000D01*
X56520000Y-24161888D01*
X56286092Y-24065000D01*
X55953908Y-24065000D01*
X55647010Y-24192121D01*
X55548345Y-24290786D01*
X55486092Y-24265000D01*
X55153908Y-24265000D01*
X54927000Y-24358988D01*
X54927000Y-22035213D01*
X54992990Y-22007879D01*
X55227879Y-21772990D01*
X55355000Y-21466092D01*
X55355000Y-21133908D01*
X56885000Y-21133908D01*
X56885000Y-21466092D01*
X57012121Y-21772990D01*
X57247010Y-22007879D01*
X57553908Y-22135000D01*
X57886092Y-22135000D01*
X58192990Y-22007879D01*
X58427879Y-21772990D01*
X58555000Y-21466092D01*
X58555000Y-21133908D01*
X58427879Y-20827010D01*
X58192990Y-20592121D01*
X57886092Y-20465000D01*
X57553908Y-20465000D01*
X57247010Y-20592121D01*
X57012121Y-20827010D01*
X56885000Y-21133908D01*
X55355000Y-21133908D01*
X55227879Y-20827010D01*
X54992990Y-20592121D01*
X54927000Y-20564787D01*
X54927000Y-18008178D01*
X55075000Y-17650874D01*
X55075000Y-17239126D01*
X54927000Y-16881822D01*
X54927000Y-12241012D01*
X55153908Y-12335000D01*
X55486092Y-12335000D01*
X55792990Y-12207879D01*
X56027879Y-11972990D01*
X56155000Y-11666092D01*
X56155000Y-11333908D01*
X56885000Y-11333908D01*
X56885000Y-11666092D01*
X57012121Y-11972990D01*
X57247010Y-12207879D01*
X57553908Y-12335000D01*
X57886092Y-12335000D01*
X58192990Y-12207879D01*
X58225764Y-12175105D01*
X59430000Y-12175105D01*
X59430000Y-12944895D01*
X59724586Y-13656090D01*
X60268910Y-14200414D01*
X60980105Y-14495000D01*
X61749895Y-14495000D01*
X62461090Y-14200414D01*
X63005414Y-13656090D01*
X63300000Y-12944895D01*
X63300000Y-12175105D01*
X63005414Y-11463910D01*
X62461090Y-10919586D01*
X61749895Y-10625000D01*
X60980105Y-10625000D01*
X60268910Y-10919586D01*
X59724586Y-11463910D01*
X59430000Y-12175105D01*
X58225764Y-12175105D01*
X58427879Y-11972990D01*
X58555000Y-11666092D01*
X58555000Y-11333908D01*
X58427879Y-11027010D01*
X58192990Y-10792121D01*
X57886092Y-10665000D01*
X57553908Y-10665000D01*
X57247010Y-10792121D01*
X57012121Y-11027010D01*
X56885000Y-11333908D01*
X56155000Y-11333908D01*
X56027879Y-11027010D01*
X55792990Y-10792121D01*
X55486092Y-10665000D01*
X55153908Y-10665000D01*
X54927000Y-10758988D01*
X54927000Y-9841012D01*
X55153908Y-9935000D01*
X55486092Y-9935000D01*
X55792990Y-9807879D01*
X55891655Y-9709214D01*
X55953908Y-9735000D01*
X56286092Y-9735000D01*
X56520000Y-9638112D01*
X56753908Y-9735000D01*
X57086092Y-9735000D01*
X57148345Y-9709214D01*
X57247010Y-9807879D01*
X57553908Y-9935000D01*
X57886092Y-9935000D01*
X58192990Y-9807879D01*
X58427879Y-9572990D01*
X58555000Y-9266092D01*
X58555000Y-8933908D01*
X58427879Y-8627010D01*
X58192990Y-8392121D01*
X57886092Y-8265000D01*
X57553908Y-8265000D01*
X57491655Y-8290786D01*
X57392990Y-8192121D01*
X57086092Y-8065000D01*
X56753908Y-8065000D01*
X56520000Y-8161888D01*
X56286092Y-8065000D01*
X55953908Y-8065000D01*
X55647010Y-8192121D01*
X55548345Y-8290786D01*
X55486092Y-8265000D01*
X55153908Y-8265000D01*
X54927000Y-8358988D01*
X54927000Y-6035213D01*
X54992990Y-6007879D01*
X55227879Y-5772990D01*
X55355000Y-5466092D01*
X55355000Y-5133908D01*
X56885000Y-5133908D01*
X56885000Y-5466092D01*
X57012121Y-5772990D01*
X57247010Y-6007879D01*
X57553908Y-6135000D01*
X57886092Y-6135000D01*
X58192990Y-6007879D01*
X58427879Y-5772990D01*
X58555000Y-5466092D01*
X58555000Y-5133908D01*
X58427879Y-4827010D01*
X58192990Y-4592121D01*
X57886092Y-4465000D01*
X57553908Y-4465000D01*
X57247010Y-4592121D01*
X57012121Y-4827010D01*
X56885000Y-5133908D01*
X55355000Y-5133908D01*
X55227879Y-4827010D01*
X54992990Y-4592121D01*
X54927000Y-4564787D01*
X54927000Y-735000D01*
X70608911Y-735000D01*
X71195092Y-800751D01*
X71195092Y-800751D01*
G37*
X71195092Y-800751D02*
X71713100Y-981140D01*
X72178266Y-1271808D01*
X72567474Y-1658308D01*
X72861386Y-2121438D01*
X73045383Y-2638164D01*
X73115001Y-3221993D01*
X73115000Y-16727612D01*
X73100601Y-16800000D01*
X73157646Y-17086783D01*
X73267161Y-17250683D01*
X73320095Y-17329905D01*
X73563217Y-17492354D01*
X73850000Y-17549399D01*
X73922388Y-17535000D01*
X75392153Y-17535000D01*
X75714468Y-17586050D01*
X75953051Y-17707614D01*
X76142387Y-17896951D01*
X76263950Y-18135532D01*
X76315000Y-18457847D01*
X76315001Y-53342147D01*
X76263950Y-53664468D01*
X76142387Y-53903049D01*
X75953051Y-54092386D01*
X75714468Y-54213950D01*
X75392153Y-54265000D01*
X73922388Y-54265000D01*
X73850000Y-54250601D01*
X73777612Y-54265000D01*
X73563217Y-54307646D01*
X73320095Y-54470095D01*
X73157646Y-54713217D01*
X73100601Y-55000000D01*
X73115000Y-55072388D01*
X73115001Y-68672388D01*
X73122947Y-68712336D01*
X73073780Y-69150669D01*
X72891548Y-69673969D01*
X72597909Y-70143890D01*
X72207451Y-70537083D01*
X71739593Y-70833995D01*
X71217576Y-71019877D01*
X70766155Y-71073706D01*
X70722388Y-71065000D01*
X54927000Y-71065000D01*
X54927000Y-67692268D01*
X59460000Y-67692268D01*
X59460000Y-68287733D01*
X59547032Y-68725271D01*
X59878561Y-69221439D01*
X60374730Y-69552968D01*
X60960000Y-69669386D01*
X61545271Y-69552968D01*
X62041439Y-69221439D01*
X62210000Y-68969169D01*
X62378561Y-69221439D01*
X62874730Y-69552968D01*
X63460000Y-69669386D01*
X64045271Y-69552968D01*
X64541439Y-69221439D01*
X64710000Y-68969169D01*
X64878561Y-69221439D01*
X65374730Y-69552968D01*
X65960000Y-69669386D01*
X66545271Y-69552968D01*
X67006894Y-69244521D01*
X67056673Y-69364698D01*
X67235301Y-69543327D01*
X67468690Y-69640000D01*
X68174250Y-69640000D01*
X68333000Y-69481250D01*
X68333000Y-68117000D01*
X68587000Y-68117000D01*
X68587000Y-69481250D01*
X68745750Y-69640000D01*
X69451310Y-69640000D01*
X69684699Y-69543327D01*
X69863327Y-69364698D01*
X69960000Y-69131309D01*
X69960000Y-68275750D01*
X69801250Y-68117000D01*
X68587000Y-68117000D01*
X68333000Y-68117000D01*
X68313000Y-68117000D01*
X68313000Y-67863000D01*
X68333000Y-67863000D01*
X68333000Y-66498750D01*
X68587000Y-66498750D01*
X68587000Y-67863000D01*
X69801250Y-67863000D01*
X69960000Y-67704250D01*
X69960000Y-66848691D01*
X69863327Y-66615302D01*
X69684699Y-66436673D01*
X69451310Y-66340000D01*
X68745750Y-66340000D01*
X68587000Y-66498750D01*
X68333000Y-66498750D01*
X68174250Y-66340000D01*
X67468690Y-66340000D01*
X67235301Y-66436673D01*
X67056673Y-66615302D01*
X67006894Y-66735479D01*
X66545270Y-66427032D01*
X65960000Y-66310614D01*
X65374729Y-66427032D01*
X64878561Y-66758561D01*
X64710000Y-67010831D01*
X64541439Y-66758561D01*
X64045270Y-66427032D01*
X63460000Y-66310614D01*
X62874729Y-66427032D01*
X62378561Y-66758561D01*
X62210000Y-67010831D01*
X62041439Y-66758561D01*
X61545270Y-66427032D01*
X60960000Y-66310614D01*
X60374729Y-66427032D01*
X59878561Y-66758561D01*
X59547032Y-67254730D01*
X59460000Y-67692268D01*
X54927000Y-67692268D01*
X54927000Y-66008178D01*
X55075000Y-65650874D01*
X55075000Y-65239126D01*
X54927000Y-64881822D01*
X54927000Y-60241012D01*
X55153908Y-60335000D01*
X55486092Y-60335000D01*
X55792990Y-60207879D01*
X56027879Y-59972990D01*
X56155000Y-59666092D01*
X56155000Y-59333908D01*
X56885000Y-59333908D01*
X56885000Y-59666092D01*
X57012121Y-59972990D01*
X57247010Y-60207879D01*
X57553908Y-60335000D01*
X57886092Y-60335000D01*
X58192990Y-60207879D01*
X58225764Y-60175105D01*
X59430000Y-60175105D01*
X59430000Y-60944895D01*
X59724586Y-61656090D01*
X60268910Y-62200414D01*
X60980105Y-62495000D01*
X61749895Y-62495000D01*
X62461090Y-62200414D01*
X63005414Y-61656090D01*
X63300000Y-60944895D01*
X63300000Y-60175105D01*
X63005414Y-59463910D01*
X62461090Y-58919586D01*
X61749895Y-58625000D01*
X60980105Y-58625000D01*
X60268910Y-58919586D01*
X59724586Y-59463910D01*
X59430000Y-60175105D01*
X58225764Y-60175105D01*
X58427879Y-59972990D01*
X58555000Y-59666092D01*
X58555000Y-59333908D01*
X58427879Y-59027010D01*
X58192990Y-58792121D01*
X57886092Y-58665000D01*
X57553908Y-58665000D01*
X57247010Y-58792121D01*
X57012121Y-59027010D01*
X56885000Y-59333908D01*
X56155000Y-59333908D01*
X56027879Y-59027010D01*
X55792990Y-58792121D01*
X55486092Y-58665000D01*
X55153908Y-58665000D01*
X54927000Y-58758988D01*
X54927000Y-57841012D01*
X55153908Y-57935000D01*
X55486092Y-57935000D01*
X55792990Y-57807879D01*
X55891655Y-57709214D01*
X55953908Y-57735000D01*
X56286092Y-57735000D01*
X56520000Y-57638112D01*
X56753908Y-57735000D01*
X57086092Y-57735000D01*
X57148345Y-57709214D01*
X57247010Y-57807879D01*
X57553908Y-57935000D01*
X57886092Y-57935000D01*
X58192990Y-57807879D01*
X58427879Y-57572990D01*
X58555000Y-57266092D01*
X58555000Y-56933908D01*
X58427879Y-56627010D01*
X58192990Y-56392121D01*
X57886092Y-56265000D01*
X57553908Y-56265000D01*
X57491655Y-56290786D01*
X57392990Y-56192121D01*
X57086092Y-56065000D01*
X56753908Y-56065000D01*
X56520000Y-56161888D01*
X56286092Y-56065000D01*
X55953908Y-56065000D01*
X55647010Y-56192121D01*
X55548345Y-56290786D01*
X55486092Y-56265000D01*
X55153908Y-56265000D01*
X54927000Y-56358988D01*
X54927000Y-54035213D01*
X54992990Y-54007879D01*
X55227879Y-53772990D01*
X55355000Y-53466092D01*
X55355000Y-53133908D01*
X56885000Y-53133908D01*
X56885000Y-53466092D01*
X57012121Y-53772990D01*
X57247010Y-54007879D01*
X57553908Y-54135000D01*
X57886092Y-54135000D01*
X58192990Y-54007879D01*
X58427879Y-53772990D01*
X58555000Y-53466092D01*
X58555000Y-53133908D01*
X58427879Y-52827010D01*
X58192990Y-52592121D01*
X57886092Y-52465000D01*
X57553908Y-52465000D01*
X57247010Y-52592121D01*
X57012121Y-52827010D01*
X56885000Y-53133908D01*
X55355000Y-53133908D01*
X55227879Y-52827010D01*
X54992990Y-52592121D01*
X54927000Y-52564787D01*
X54927000Y-50008178D01*
X55075000Y-49650874D01*
X55075000Y-49239126D01*
X54927000Y-48881822D01*
X54927000Y-44241012D01*
X55153908Y-44335000D01*
X55486092Y-44335000D01*
X55792990Y-44207879D01*
X56027879Y-43972990D01*
X56155000Y-43666092D01*
X56155000Y-43333908D01*
X56885000Y-43333908D01*
X56885000Y-43666092D01*
X57012121Y-43972990D01*
X57247010Y-44207879D01*
X57553908Y-44335000D01*
X57886092Y-44335000D01*
X58192990Y-44207879D01*
X58225764Y-44175105D01*
X59430000Y-44175105D01*
X59430000Y-44944895D01*
X59724586Y-45656090D01*
X60268910Y-46200414D01*
X60980105Y-46495000D01*
X61749895Y-46495000D01*
X62461090Y-46200414D01*
X63005414Y-45656090D01*
X63300000Y-44944895D01*
X63300000Y-44175105D01*
X63005414Y-43463910D01*
X62461090Y-42919586D01*
X61749895Y-42625000D01*
X60980105Y-42625000D01*
X60268910Y-42919586D01*
X59724586Y-43463910D01*
X59430000Y-44175105D01*
X58225764Y-44175105D01*
X58427879Y-43972990D01*
X58555000Y-43666092D01*
X58555000Y-43333908D01*
X58427879Y-43027010D01*
X58192990Y-42792121D01*
X57886092Y-42665000D01*
X57553908Y-42665000D01*
X57247010Y-42792121D01*
X57012121Y-43027010D01*
X56885000Y-43333908D01*
X56155000Y-43333908D01*
X56027879Y-43027010D01*
X55792990Y-42792121D01*
X55486092Y-42665000D01*
X55153908Y-42665000D01*
X54927000Y-42758988D01*
X54927000Y-41841012D01*
X55153908Y-41935000D01*
X55486092Y-41935000D01*
X55792990Y-41807879D01*
X55891655Y-41709214D01*
X55953908Y-41735000D01*
X56286092Y-41735000D01*
X56520000Y-41638112D01*
X56753908Y-41735000D01*
X57086092Y-41735000D01*
X57148345Y-41709214D01*
X57247010Y-41807879D01*
X57553908Y-41935000D01*
X57886092Y-41935000D01*
X58192990Y-41807879D01*
X58427879Y-41572990D01*
X58555000Y-41266092D01*
X58555000Y-40933908D01*
X58427879Y-40627010D01*
X58192990Y-40392121D01*
X57886092Y-40265000D01*
X57553908Y-40265000D01*
X57491655Y-40290786D01*
X57392990Y-40192121D01*
X57086092Y-40065000D01*
X56753908Y-40065000D01*
X56520000Y-40161888D01*
X56286092Y-40065000D01*
X55953908Y-40065000D01*
X55647010Y-40192121D01*
X55548345Y-40290786D01*
X55486092Y-40265000D01*
X55153908Y-40265000D01*
X54927000Y-40358988D01*
X54927000Y-38035213D01*
X54992990Y-38007879D01*
X55227879Y-37772990D01*
X55355000Y-37466092D01*
X55355000Y-37133908D01*
X56885000Y-37133908D01*
X56885000Y-37466092D01*
X57012121Y-37772990D01*
X57247010Y-38007879D01*
X57553908Y-38135000D01*
X57886092Y-38135000D01*
X58192990Y-38007879D01*
X58427879Y-37772990D01*
X58555000Y-37466092D01*
X58555000Y-37133908D01*
X58427879Y-36827010D01*
X58192990Y-36592121D01*
X57886092Y-36465000D01*
X57553908Y-36465000D01*
X57247010Y-36592121D01*
X57012121Y-36827010D01*
X56885000Y-37133908D01*
X55355000Y-37133908D01*
X55227879Y-36827010D01*
X54992990Y-36592121D01*
X54927000Y-36564787D01*
X54927000Y-34008178D01*
X55075000Y-33650874D01*
X55075000Y-33239126D01*
X54927000Y-32881822D01*
X54927000Y-28241012D01*
X55153908Y-28335000D01*
X55486092Y-28335000D01*
X55792990Y-28207879D01*
X56027879Y-27972990D01*
X56155000Y-27666092D01*
X56155000Y-27333908D01*
X56885000Y-27333908D01*
X56885000Y-27666092D01*
X57012121Y-27972990D01*
X57247010Y-28207879D01*
X57553908Y-28335000D01*
X57886092Y-28335000D01*
X58192990Y-28207879D01*
X58225764Y-28175105D01*
X59430000Y-28175105D01*
X59430000Y-28944895D01*
X59724586Y-29656090D01*
X60268910Y-30200414D01*
X60980105Y-30495000D01*
X61749895Y-30495000D01*
X62461090Y-30200414D01*
X63005414Y-29656090D01*
X63300000Y-28944895D01*
X63300000Y-28175105D01*
X63005414Y-27463910D01*
X62461090Y-26919586D01*
X61749895Y-26625000D01*
X60980105Y-26625000D01*
X60268910Y-26919586D01*
X59724586Y-27463910D01*
X59430000Y-28175105D01*
X58225764Y-28175105D01*
X58427879Y-27972990D01*
X58555000Y-27666092D01*
X58555000Y-27333908D01*
X58427879Y-27027010D01*
X58192990Y-26792121D01*
X57886092Y-26665000D01*
X57553908Y-26665000D01*
X57247010Y-26792121D01*
X57012121Y-27027010D01*
X56885000Y-27333908D01*
X56155000Y-27333908D01*
X56027879Y-27027010D01*
X55792990Y-26792121D01*
X55486092Y-26665000D01*
X55153908Y-26665000D01*
X54927000Y-26758988D01*
X54927000Y-25841012D01*
X55153908Y-25935000D01*
X55486092Y-25935000D01*
X55792990Y-25807879D01*
X55891655Y-25709214D01*
X55953908Y-25735000D01*
X56286092Y-25735000D01*
X56520000Y-25638112D01*
X56753908Y-25735000D01*
X57086092Y-25735000D01*
X57148345Y-25709214D01*
X57247010Y-25807879D01*
X57553908Y-25935000D01*
X57886092Y-25935000D01*
X58192990Y-25807879D01*
X58427879Y-25572990D01*
X58555000Y-25266092D01*
X58555000Y-24933908D01*
X58427879Y-24627010D01*
X58192990Y-24392121D01*
X57886092Y-24265000D01*
X57553908Y-24265000D01*
X57491655Y-24290786D01*
X57392990Y-24192121D01*
X57086092Y-24065000D01*
X56753908Y-24065000D01*
X56520000Y-24161888D01*
X56286092Y-24065000D01*
X55953908Y-24065000D01*
X55647010Y-24192121D01*
X55548345Y-24290786D01*
X55486092Y-24265000D01*
X55153908Y-24265000D01*
X54927000Y-24358988D01*
X54927000Y-22035213D01*
X54992990Y-22007879D01*
X55227879Y-21772990D01*
X55355000Y-21466092D01*
X55355000Y-21133908D01*
X56885000Y-21133908D01*
X56885000Y-21466092D01*
X57012121Y-21772990D01*
X57247010Y-22007879D01*
X57553908Y-22135000D01*
X57886092Y-22135000D01*
X58192990Y-22007879D01*
X58427879Y-21772990D01*
X58555000Y-21466092D01*
X58555000Y-21133908D01*
X58427879Y-20827010D01*
X58192990Y-20592121D01*
X57886092Y-20465000D01*
X57553908Y-20465000D01*
X57247010Y-20592121D01*
X57012121Y-20827010D01*
X56885000Y-21133908D01*
X55355000Y-21133908D01*
X55227879Y-20827010D01*
X54992990Y-20592121D01*
X54927000Y-20564787D01*
X54927000Y-18008178D01*
X55075000Y-17650874D01*
X55075000Y-17239126D01*
X54927000Y-16881822D01*
X54927000Y-12241012D01*
X55153908Y-12335000D01*
X55486092Y-12335000D01*
X55792990Y-12207879D01*
X56027879Y-11972990D01*
X56155000Y-11666092D01*
X56155000Y-11333908D01*
X56885000Y-11333908D01*
X56885000Y-11666092D01*
X57012121Y-11972990D01*
X57247010Y-12207879D01*
X57553908Y-12335000D01*
X57886092Y-12335000D01*
X58192990Y-12207879D01*
X58225764Y-12175105D01*
X59430000Y-12175105D01*
X59430000Y-12944895D01*
X59724586Y-13656090D01*
X60268910Y-14200414D01*
X60980105Y-14495000D01*
X61749895Y-14495000D01*
X62461090Y-14200414D01*
X63005414Y-13656090D01*
X63300000Y-12944895D01*
X63300000Y-12175105D01*
X63005414Y-11463910D01*
X62461090Y-10919586D01*
X61749895Y-10625000D01*
X60980105Y-10625000D01*
X60268910Y-10919586D01*
X59724586Y-11463910D01*
X59430000Y-12175105D01*
X58225764Y-12175105D01*
X58427879Y-11972990D01*
X58555000Y-11666092D01*
X58555000Y-11333908D01*
X58427879Y-11027010D01*
X58192990Y-10792121D01*
X57886092Y-10665000D01*
X57553908Y-10665000D01*
X57247010Y-10792121D01*
X57012121Y-11027010D01*
X56885000Y-11333908D01*
X56155000Y-11333908D01*
X56027879Y-11027010D01*
X55792990Y-10792121D01*
X55486092Y-10665000D01*
X55153908Y-10665000D01*
X54927000Y-10758988D01*
X54927000Y-9841012D01*
X55153908Y-9935000D01*
X55486092Y-9935000D01*
X55792990Y-9807879D01*
X55891655Y-9709214D01*
X55953908Y-9735000D01*
X56286092Y-9735000D01*
X56520000Y-9638112D01*
X56753908Y-9735000D01*
X57086092Y-9735000D01*
X57148345Y-9709214D01*
X57247010Y-9807879D01*
X57553908Y-9935000D01*
X57886092Y-9935000D01*
X58192990Y-9807879D01*
X58427879Y-9572990D01*
X58555000Y-9266092D01*
X58555000Y-8933908D01*
X58427879Y-8627010D01*
X58192990Y-8392121D01*
X57886092Y-8265000D01*
X57553908Y-8265000D01*
X57491655Y-8290786D01*
X57392990Y-8192121D01*
X57086092Y-8065000D01*
X56753908Y-8065000D01*
X56520000Y-8161888D01*
X56286092Y-8065000D01*
X55953908Y-8065000D01*
X55647010Y-8192121D01*
X55548345Y-8290786D01*
X55486092Y-8265000D01*
X55153908Y-8265000D01*
X54927000Y-8358988D01*
X54927000Y-6035213D01*
X54992990Y-6007879D01*
X55227879Y-5772990D01*
X55355000Y-5466092D01*
X55355000Y-5133908D01*
X56885000Y-5133908D01*
X56885000Y-5466092D01*
X57012121Y-5772990D01*
X57247010Y-6007879D01*
X57553908Y-6135000D01*
X57886092Y-6135000D01*
X58192990Y-6007879D01*
X58427879Y-5772990D01*
X58555000Y-5466092D01*
X58555000Y-5133908D01*
X58427879Y-4827010D01*
X58192990Y-4592121D01*
X57886092Y-4465000D01*
X57553908Y-4465000D01*
X57247010Y-4592121D01*
X57012121Y-4827010D01*
X56885000Y-5133908D01*
X55355000Y-5133908D01*
X55227879Y-4827010D01*
X54992990Y-4592121D01*
X54927000Y-4564787D01*
X54927000Y-735000D01*
X70608911Y-735000D01*
X71195092Y-800751D01*
%TO.N,GND*%
G36*
X54073000Y-7928446D02*
X54039852Y-7914716D01*
X53808716Y-7914716D01*
X53595174Y-8003168D01*
X53431736Y-8166606D01*
X53359939Y-8339939D01*
X53186606Y-8411736D01*
X53023168Y-8575174D01*
X52934716Y-8788716D01*
X52934716Y-9019852D01*
X53023168Y-9233394D01*
X53186606Y-9396832D01*
X53400148Y-9485284D01*
X53631284Y-9485284D01*
X53844826Y-9396832D01*
X54008264Y-9233394D01*
X54073000Y-9077108D01*
X54073000Y-23928446D01*
X54039852Y-23914716D01*
X53808716Y-23914716D01*
X53595174Y-24003168D01*
X53431736Y-24166606D01*
X53359939Y-24339939D01*
X53186606Y-24411736D01*
X53023168Y-24575174D01*
X52934716Y-24788716D01*
X52934716Y-25019852D01*
X53023168Y-25233394D01*
X53186606Y-25396832D01*
X53400148Y-25485284D01*
X53631284Y-25485284D01*
X53844826Y-25396832D01*
X54008264Y-25233394D01*
X54073000Y-25077108D01*
X54073000Y-39928446D01*
X54039852Y-39914716D01*
X53808716Y-39914716D01*
X53595174Y-40003168D01*
X53431736Y-40166606D01*
X53359939Y-40339939D01*
X53186606Y-40411736D01*
X53023168Y-40575174D01*
X52934716Y-40788716D01*
X52934716Y-41019852D01*
X53023168Y-41233394D01*
X53186606Y-41396832D01*
X53400148Y-41485284D01*
X53631284Y-41485284D01*
X53844826Y-41396832D01*
X54008264Y-41233394D01*
X54073000Y-41077108D01*
X54073000Y-55928446D01*
X54039852Y-55914716D01*
X53808716Y-55914716D01*
X53595174Y-56003168D01*
X53431736Y-56166606D01*
X53359939Y-56339939D01*
X53186606Y-56411736D01*
X53023168Y-56575174D01*
X52934716Y-56788716D01*
X52934716Y-57019852D01*
X53023168Y-57233394D01*
X53186606Y-57396832D01*
X53400148Y-57485284D01*
X53631284Y-57485284D01*
X53844826Y-57396832D01*
X54008264Y-57233394D01*
X54073000Y-57077108D01*
X54073000Y-71319000D01*
X3226889Y-71319000D01*
X2598280Y-71248490D01*
X2026462Y-71049362D01*
X1512972Y-70728498D01*
X1083331Y-70301846D01*
X758891Y-69790612D01*
X555776Y-69220195D01*
X481000Y-68593112D01*
X481000Y-65405411D01*
X2639000Y-65405411D01*
X2639000Y-65994589D01*
X2864468Y-66538919D01*
X3281081Y-66955532D01*
X3825411Y-67181000D01*
X4414589Y-67181000D01*
X4958919Y-66955532D01*
X5375532Y-66538919D01*
X5601000Y-65994589D01*
X5601000Y-65405411D01*
X5542695Y-65264649D01*
X46934000Y-65264649D01*
X46934000Y-65575351D01*
X47052900Y-65862401D01*
X47272599Y-66082100D01*
X47559649Y-66201000D01*
X47870351Y-66201000D01*
X48157401Y-66082100D01*
X48337500Y-65902001D01*
X48542599Y-66107100D01*
X48829649Y-66226000D01*
X49140351Y-66226000D01*
X49427401Y-66107100D01*
X49620000Y-65914501D01*
X49812599Y-66107100D01*
X50099649Y-66226000D01*
X50410351Y-66226000D01*
X50697401Y-66107100D01*
X50917100Y-65887401D01*
X51036000Y-65600351D01*
X51036000Y-65289649D01*
X50917100Y-65002599D01*
X50697401Y-64782900D01*
X50410351Y-64664000D01*
X50099649Y-64664000D01*
X49812599Y-64782900D01*
X49620000Y-64975499D01*
X49427401Y-64782900D01*
X49140351Y-64664000D01*
X48829649Y-64664000D01*
X48542599Y-64782900D01*
X48362500Y-64962999D01*
X48157401Y-64757900D01*
X47870351Y-64639000D01*
X47559649Y-64639000D01*
X47272599Y-64757900D01*
X47052900Y-64977599D01*
X46934000Y-65264649D01*
X5542695Y-65264649D01*
X5375532Y-64861081D01*
X4958919Y-64444468D01*
X4414589Y-64219000D01*
X3825411Y-64219000D01*
X3281081Y-64444468D01*
X2864468Y-64861081D01*
X2639000Y-65405411D01*
X481000Y-65405411D01*
X481000Y-61837416D01*
X4254000Y-61837416D01*
X4254000Y-62062584D01*
X4340168Y-62270613D01*
X4499387Y-62429832D01*
X4707416Y-62516000D01*
X4932584Y-62516000D01*
X5140613Y-62429832D01*
X5299832Y-62270613D01*
X5386000Y-62062584D01*
X5386000Y-61837416D01*
X8054000Y-61837416D01*
X8054000Y-62062584D01*
X8140168Y-62270613D01*
X8299387Y-62429832D01*
X8507416Y-62516000D01*
X8732584Y-62516000D01*
X8940613Y-62429832D01*
X9099832Y-62270613D01*
X9186000Y-62062584D01*
X9186000Y-61837416D01*
X11854000Y-61837416D01*
X11854000Y-62062584D01*
X11940168Y-62270613D01*
X12099387Y-62429832D01*
X12307416Y-62516000D01*
X12532584Y-62516000D01*
X12740613Y-62429832D01*
X12899832Y-62270613D01*
X12986000Y-62062584D01*
X12986000Y-61837416D01*
X15654000Y-61837416D01*
X15654000Y-62062584D01*
X15740168Y-62270613D01*
X15899387Y-62429832D01*
X16107416Y-62516000D01*
X16332584Y-62516000D01*
X16540613Y-62429832D01*
X16699832Y-62270613D01*
X16786000Y-62062584D01*
X16786000Y-61837416D01*
X16699832Y-61629387D01*
X16540613Y-61470168D01*
X16332584Y-61384000D01*
X16107416Y-61384000D01*
X15899387Y-61470168D01*
X15740168Y-61629387D01*
X15654000Y-61837416D01*
X12986000Y-61837416D01*
X12899832Y-61629387D01*
X12740613Y-61470168D01*
X12532584Y-61384000D01*
X12307416Y-61384000D01*
X12099387Y-61470168D01*
X11940168Y-61629387D01*
X11854000Y-61837416D01*
X9186000Y-61837416D01*
X9099832Y-61629387D01*
X8940613Y-61470168D01*
X8732584Y-61384000D01*
X8507416Y-61384000D01*
X8299387Y-61470168D01*
X8140168Y-61629387D01*
X8054000Y-61837416D01*
X5386000Y-61837416D01*
X5299832Y-61629387D01*
X5140613Y-61470168D01*
X4932584Y-61384000D01*
X4707416Y-61384000D01*
X4499387Y-61470168D01*
X4340168Y-61629387D01*
X4254000Y-61837416D01*
X481000Y-61837416D01*
X481000Y-61087416D01*
X2854000Y-61087416D01*
X2854000Y-61312584D01*
X2940168Y-61520613D01*
X3099387Y-61679832D01*
X3307416Y-61766000D01*
X3532584Y-61766000D01*
X3740613Y-61679832D01*
X3899832Y-61520613D01*
X3986000Y-61312584D01*
X3986000Y-61087416D01*
X6654000Y-61087416D01*
X6654000Y-61312584D01*
X6740168Y-61520613D01*
X6899387Y-61679832D01*
X7107416Y-61766000D01*
X7332584Y-61766000D01*
X7540613Y-61679832D01*
X7699832Y-61520613D01*
X7786000Y-61312584D01*
X7786000Y-61087416D01*
X10454000Y-61087416D01*
X10454000Y-61312584D01*
X10540168Y-61520613D01*
X10699387Y-61679832D01*
X10907416Y-61766000D01*
X11132584Y-61766000D01*
X11340613Y-61679832D01*
X11499832Y-61520613D01*
X11586000Y-61312584D01*
X11586000Y-61087416D01*
X14254000Y-61087416D01*
X14254000Y-61312584D01*
X14340168Y-61520613D01*
X14499387Y-61679832D01*
X14707416Y-61766000D01*
X14932584Y-61766000D01*
X15140613Y-61679832D01*
X15299832Y-61520613D01*
X15386000Y-61312584D01*
X15386000Y-61087416D01*
X15299832Y-60879387D01*
X15140613Y-60720168D01*
X14932584Y-60634000D01*
X14707416Y-60634000D01*
X14499387Y-60720168D01*
X14340168Y-60879387D01*
X14254000Y-61087416D01*
X11586000Y-61087416D01*
X11499832Y-60879387D01*
X11340613Y-60720168D01*
X11132584Y-60634000D01*
X10907416Y-60634000D01*
X10699387Y-60720168D01*
X10540168Y-60879387D01*
X10454000Y-61087416D01*
X7786000Y-61087416D01*
X7699832Y-60879387D01*
X7540613Y-60720168D01*
X7332584Y-60634000D01*
X7107416Y-60634000D01*
X6899387Y-60720168D01*
X6740168Y-60879387D01*
X6654000Y-61087416D01*
X3986000Y-61087416D01*
X3899832Y-60879387D01*
X3740613Y-60720168D01*
X3532584Y-60634000D01*
X3307416Y-60634000D01*
X3099387Y-60720168D01*
X2940168Y-60879387D01*
X2854000Y-61087416D01*
X481000Y-61087416D01*
X481000Y-59587416D01*
X4254000Y-59587416D01*
X4254000Y-59812584D01*
X4340168Y-60020613D01*
X4499387Y-60179832D01*
X4707416Y-60266000D01*
X4932584Y-60266000D01*
X5140613Y-60179832D01*
X5299832Y-60020613D01*
X5386000Y-59812584D01*
X5386000Y-59587416D01*
X8054000Y-59587416D01*
X8054000Y-59812584D01*
X8140168Y-60020613D01*
X8299387Y-60179832D01*
X8507416Y-60266000D01*
X8732584Y-60266000D01*
X8940613Y-60179832D01*
X9099832Y-60020613D01*
X9186000Y-59812584D01*
X9186000Y-59587416D01*
X11854000Y-59587416D01*
X11854000Y-59812584D01*
X11940168Y-60020613D01*
X12099387Y-60179832D01*
X12307416Y-60266000D01*
X12532584Y-60266000D01*
X12740613Y-60179832D01*
X12899832Y-60020613D01*
X12986000Y-59812584D01*
X12986000Y-59587416D01*
X15654000Y-59587416D01*
X15654000Y-59812584D01*
X15740168Y-60020613D01*
X15899387Y-60179832D01*
X16107416Y-60266000D01*
X16332584Y-60266000D01*
X16430051Y-60225628D01*
X20954000Y-60225628D01*
X20954000Y-60894372D01*
X21209917Y-61512210D01*
X21682790Y-61985083D01*
X22300628Y-62241000D01*
X22969372Y-62241000D01*
X23587210Y-61985083D01*
X24060083Y-61512210D01*
X24316000Y-60894372D01*
X24316000Y-60225628D01*
X24060083Y-59607790D01*
X23587210Y-59134917D01*
X22969372Y-58879000D01*
X22300628Y-58879000D01*
X21682790Y-59134917D01*
X21209917Y-59607790D01*
X20954000Y-60225628D01*
X16430051Y-60225628D01*
X16540613Y-60179832D01*
X16699832Y-60020613D01*
X16786000Y-59812584D01*
X16786000Y-59587416D01*
X16699832Y-59379387D01*
X16540613Y-59220168D01*
X16332584Y-59134000D01*
X16107416Y-59134000D01*
X15899387Y-59220168D01*
X15740168Y-59379387D01*
X15654000Y-59587416D01*
X12986000Y-59587416D01*
X12899832Y-59379387D01*
X12740613Y-59220168D01*
X12532584Y-59134000D01*
X12307416Y-59134000D01*
X12099387Y-59220168D01*
X11940168Y-59379387D01*
X11854000Y-59587416D01*
X9186000Y-59587416D01*
X9099832Y-59379387D01*
X8940613Y-59220168D01*
X8732584Y-59134000D01*
X8507416Y-59134000D01*
X8299387Y-59220168D01*
X8140168Y-59379387D01*
X8054000Y-59587416D01*
X5386000Y-59587416D01*
X5299832Y-59379387D01*
X5140613Y-59220168D01*
X4932584Y-59134000D01*
X4707416Y-59134000D01*
X4499387Y-59220168D01*
X4340168Y-59379387D01*
X4254000Y-59587416D01*
X481000Y-59587416D01*
X481000Y-58837416D01*
X2854000Y-58837416D01*
X2854000Y-59062584D01*
X2940168Y-59270613D01*
X3099387Y-59429832D01*
X3307416Y-59516000D01*
X3532584Y-59516000D01*
X3740613Y-59429832D01*
X3899832Y-59270613D01*
X3986000Y-59062584D01*
X3986000Y-58837416D01*
X6654000Y-58837416D01*
X6654000Y-59062584D01*
X6740168Y-59270613D01*
X6899387Y-59429832D01*
X7107416Y-59516000D01*
X7332584Y-59516000D01*
X7540613Y-59429832D01*
X7699832Y-59270613D01*
X7786000Y-59062584D01*
X7786000Y-58837416D01*
X10454000Y-58837416D01*
X10454000Y-59062584D01*
X10540168Y-59270613D01*
X10699387Y-59429832D01*
X10907416Y-59516000D01*
X11132584Y-59516000D01*
X11340613Y-59429832D01*
X11499832Y-59270613D01*
X11586000Y-59062584D01*
X11586000Y-58837416D01*
X14254000Y-58837416D01*
X14254000Y-59062584D01*
X14340168Y-59270613D01*
X14499387Y-59429832D01*
X14707416Y-59516000D01*
X14932584Y-59516000D01*
X15140613Y-59429832D01*
X15299832Y-59270613D01*
X15386000Y-59062584D01*
X15386000Y-58837416D01*
X15299832Y-58629387D01*
X15140613Y-58470168D01*
X14932584Y-58384000D01*
X14707416Y-58384000D01*
X14499387Y-58470168D01*
X14340168Y-58629387D01*
X14254000Y-58837416D01*
X11586000Y-58837416D01*
X11499832Y-58629387D01*
X11340613Y-58470168D01*
X11132584Y-58384000D01*
X10907416Y-58384000D01*
X10699387Y-58470168D01*
X10540168Y-58629387D01*
X10454000Y-58837416D01*
X7786000Y-58837416D01*
X7699832Y-58629387D01*
X7540613Y-58470168D01*
X7332584Y-58384000D01*
X7107416Y-58384000D01*
X6899387Y-58470168D01*
X6740168Y-58629387D01*
X6654000Y-58837416D01*
X3986000Y-58837416D01*
X3899832Y-58629387D01*
X3740613Y-58470168D01*
X3532584Y-58384000D01*
X3307416Y-58384000D01*
X3099387Y-58470168D01*
X2940168Y-58629387D01*
X2854000Y-58837416D01*
X481000Y-58837416D01*
X481000Y-57337416D01*
X4254000Y-57337416D01*
X4254000Y-57562584D01*
X4340168Y-57770613D01*
X4499387Y-57929832D01*
X4707416Y-58016000D01*
X4932584Y-58016000D01*
X5140613Y-57929832D01*
X5299832Y-57770613D01*
X5386000Y-57562584D01*
X5386000Y-57337416D01*
X8054000Y-57337416D01*
X8054000Y-57562584D01*
X8140168Y-57770613D01*
X8299387Y-57929832D01*
X8507416Y-58016000D01*
X8732584Y-58016000D01*
X8940613Y-57929832D01*
X9099832Y-57770613D01*
X9186000Y-57562584D01*
X9186000Y-57337416D01*
X11854000Y-57337416D01*
X11854000Y-57562584D01*
X11940168Y-57770613D01*
X12099387Y-57929832D01*
X12307416Y-58016000D01*
X12532584Y-58016000D01*
X12740613Y-57929832D01*
X12899832Y-57770613D01*
X12986000Y-57562584D01*
X12986000Y-57337416D01*
X15654000Y-57337416D01*
X15654000Y-57562584D01*
X15740168Y-57770613D01*
X15899387Y-57929832D01*
X16107416Y-58016000D01*
X16332584Y-58016000D01*
X16540613Y-57929832D01*
X16699832Y-57770613D01*
X16786000Y-57562584D01*
X16786000Y-57337416D01*
X16699832Y-57129387D01*
X16540613Y-56970168D01*
X16332584Y-56884000D01*
X16107416Y-56884000D01*
X15899387Y-56970168D01*
X15740168Y-57129387D01*
X15654000Y-57337416D01*
X12986000Y-57337416D01*
X12899832Y-57129387D01*
X12740613Y-56970168D01*
X12532584Y-56884000D01*
X12307416Y-56884000D01*
X12099387Y-56970168D01*
X11940168Y-57129387D01*
X11854000Y-57337416D01*
X9186000Y-57337416D01*
X9099832Y-57129387D01*
X8940613Y-56970168D01*
X8732584Y-56884000D01*
X8507416Y-56884000D01*
X8299387Y-56970168D01*
X8140168Y-57129387D01*
X8054000Y-57337416D01*
X5386000Y-57337416D01*
X5299832Y-57129387D01*
X5140613Y-56970168D01*
X4932584Y-56884000D01*
X4707416Y-56884000D01*
X4499387Y-56970168D01*
X4340168Y-57129387D01*
X4254000Y-57337416D01*
X481000Y-57337416D01*
X481000Y-56587416D01*
X2854000Y-56587416D01*
X2854000Y-56812584D01*
X2940168Y-57020613D01*
X3099387Y-57179832D01*
X3307416Y-57266000D01*
X3532584Y-57266000D01*
X3740613Y-57179832D01*
X3899832Y-57020613D01*
X3986000Y-56812584D01*
X3986000Y-56587416D01*
X6654000Y-56587416D01*
X6654000Y-56812584D01*
X6740168Y-57020613D01*
X6899387Y-57179832D01*
X7107416Y-57266000D01*
X7332584Y-57266000D01*
X7540613Y-57179832D01*
X7699832Y-57020613D01*
X7786000Y-56812584D01*
X7786000Y-56587416D01*
X10454000Y-56587416D01*
X10454000Y-56812584D01*
X10540168Y-57020613D01*
X10699387Y-57179832D01*
X10907416Y-57266000D01*
X11132584Y-57266000D01*
X11340613Y-57179832D01*
X11499832Y-57020613D01*
X11586000Y-56812584D01*
X11586000Y-56587416D01*
X14254000Y-56587416D01*
X14254000Y-56812584D01*
X14340168Y-57020613D01*
X14499387Y-57179832D01*
X14707416Y-57266000D01*
X14932584Y-57266000D01*
X15140613Y-57179832D01*
X15299832Y-57020613D01*
X15386000Y-56812584D01*
X15386000Y-56587416D01*
X15300148Y-56380148D01*
X28934716Y-56380148D01*
X28934716Y-56611284D01*
X29023168Y-56824826D01*
X29186606Y-56988264D01*
X29359939Y-57060061D01*
X29431736Y-57233394D01*
X29595174Y-57396832D01*
X29808716Y-57485284D01*
X30039852Y-57485284D01*
X30253394Y-57396832D01*
X30416832Y-57233394D01*
X30505284Y-57019852D01*
X30505284Y-56788716D01*
X30534716Y-56788716D01*
X30534716Y-57019852D01*
X30623168Y-57233394D01*
X30786606Y-57396832D01*
X31000148Y-57485284D01*
X31231284Y-57485284D01*
X31444826Y-57396832D01*
X31608264Y-57233394D01*
X31680061Y-57060061D01*
X31853394Y-56988264D01*
X32016832Y-56824826D01*
X32105284Y-56611284D01*
X32105284Y-56380148D01*
X41734716Y-56380148D01*
X41734716Y-56611284D01*
X41823168Y-56824826D01*
X41986606Y-56988264D01*
X42159939Y-57060061D01*
X42231736Y-57233394D01*
X42395174Y-57396832D01*
X42608716Y-57485284D01*
X42839852Y-57485284D01*
X43053394Y-57396832D01*
X43216832Y-57233394D01*
X43305284Y-57019852D01*
X43305284Y-56788716D01*
X43334716Y-56788716D01*
X43334716Y-57019852D01*
X43423168Y-57233394D01*
X43586606Y-57396832D01*
X43800148Y-57485284D01*
X44031284Y-57485284D01*
X44244826Y-57396832D01*
X44408264Y-57233394D01*
X44480061Y-57060061D01*
X44653394Y-56988264D01*
X44816832Y-56824826D01*
X44905284Y-56611284D01*
X44905284Y-56380148D01*
X46534716Y-56380148D01*
X46534716Y-56611284D01*
X46623168Y-56824826D01*
X46786606Y-56988264D01*
X46959939Y-57060061D01*
X47031736Y-57233394D01*
X47195174Y-57396832D01*
X47408716Y-57485284D01*
X47639852Y-57485284D01*
X47853394Y-57396832D01*
X48016832Y-57233394D01*
X48105284Y-57019852D01*
X48105284Y-56788716D01*
X48134716Y-56788716D01*
X48134716Y-57019852D01*
X48223168Y-57233394D01*
X48386606Y-57396832D01*
X48600148Y-57485284D01*
X48831284Y-57485284D01*
X49044826Y-57396832D01*
X49208264Y-57233394D01*
X49280061Y-57060061D01*
X49453394Y-56988264D01*
X49616832Y-56824826D01*
X49705284Y-56611284D01*
X49705284Y-56380148D01*
X51334716Y-56380148D01*
X51334716Y-56611284D01*
X51423168Y-56824826D01*
X51586606Y-56988264D01*
X51759939Y-57060061D01*
X51831736Y-57233394D01*
X51995174Y-57396832D01*
X52208716Y-57485284D01*
X52439852Y-57485284D01*
X52653394Y-57396832D01*
X52816832Y-57233394D01*
X52905284Y-57019852D01*
X52905284Y-56788716D01*
X52816832Y-56575174D01*
X52653394Y-56411736D01*
X52480061Y-56339939D01*
X52408264Y-56166606D01*
X52244826Y-56003168D01*
X52031284Y-55914716D01*
X51800148Y-55914716D01*
X51586606Y-56003168D01*
X51423168Y-56166606D01*
X51334716Y-56380148D01*
X49705284Y-56380148D01*
X49616832Y-56166606D01*
X49453394Y-56003168D01*
X49239852Y-55914716D01*
X49008716Y-55914716D01*
X48795174Y-56003168D01*
X48631736Y-56166606D01*
X48559939Y-56339939D01*
X48386606Y-56411736D01*
X48223168Y-56575174D01*
X48134716Y-56788716D01*
X48105284Y-56788716D01*
X48016832Y-56575174D01*
X47853394Y-56411736D01*
X47680061Y-56339939D01*
X47608264Y-56166606D01*
X47444826Y-56003168D01*
X47231284Y-55914716D01*
X47000148Y-55914716D01*
X46786606Y-56003168D01*
X46623168Y-56166606D01*
X46534716Y-56380148D01*
X44905284Y-56380148D01*
X44816832Y-56166606D01*
X44653394Y-56003168D01*
X44439852Y-55914716D01*
X44208716Y-55914716D01*
X43995174Y-56003168D01*
X43831736Y-56166606D01*
X43759939Y-56339939D01*
X43586606Y-56411736D01*
X43423168Y-56575174D01*
X43334716Y-56788716D01*
X43305284Y-56788716D01*
X43216832Y-56575174D01*
X43053394Y-56411736D01*
X42880061Y-56339939D01*
X42808264Y-56166606D01*
X42644826Y-56003168D01*
X42431284Y-55914716D01*
X42200148Y-55914716D01*
X41986606Y-56003168D01*
X41823168Y-56166606D01*
X41734716Y-56380148D01*
X32105284Y-56380148D01*
X32016832Y-56166606D01*
X31853394Y-56003168D01*
X31639852Y-55914716D01*
X31408716Y-55914716D01*
X31195174Y-56003168D01*
X31031736Y-56166606D01*
X30959939Y-56339939D01*
X30786606Y-56411736D01*
X30623168Y-56575174D01*
X30534716Y-56788716D01*
X30505284Y-56788716D01*
X30416832Y-56575174D01*
X30253394Y-56411736D01*
X30080061Y-56339939D01*
X30008264Y-56166606D01*
X29844826Y-56003168D01*
X29631284Y-55914716D01*
X29400148Y-55914716D01*
X29186606Y-56003168D01*
X29023168Y-56166606D01*
X28934716Y-56380148D01*
X15300148Y-56380148D01*
X15299832Y-56379387D01*
X15140613Y-56220168D01*
X14932584Y-56134000D01*
X14707416Y-56134000D01*
X14499387Y-56220168D01*
X14340168Y-56379387D01*
X14254000Y-56587416D01*
X11586000Y-56587416D01*
X11499832Y-56379387D01*
X11340613Y-56220168D01*
X11132584Y-56134000D01*
X10907416Y-56134000D01*
X10699387Y-56220168D01*
X10540168Y-56379387D01*
X10454000Y-56587416D01*
X7786000Y-56587416D01*
X7699832Y-56379387D01*
X7540613Y-56220168D01*
X7332584Y-56134000D01*
X7107416Y-56134000D01*
X6899387Y-56220168D01*
X6740168Y-56379387D01*
X6654000Y-56587416D01*
X3986000Y-56587416D01*
X3899832Y-56379387D01*
X3740613Y-56220168D01*
X3532584Y-56134000D01*
X3307416Y-56134000D01*
X3099387Y-56220168D01*
X2940168Y-56379387D01*
X2854000Y-56587416D01*
X481000Y-56587416D01*
X481000Y-55047373D01*
X490423Y-55000000D01*
X453092Y-54812323D01*
X346781Y-54653219D01*
X187677Y-54546908D01*
X47373Y-54519000D01*
X0Y-54509577D01*
X-47373Y-54519000D01*
X-1562145Y-54519000D01*
X-1943938Y-54458530D01*
X-2254206Y-54300440D01*
X-2500439Y-54054208D01*
X-2658529Y-53743938D01*
X-2712147Y-53405411D01*
X2639000Y-53405411D01*
X2639000Y-53994589D01*
X2864468Y-54538919D01*
X3281081Y-54955532D01*
X3825411Y-55181000D01*
X4414589Y-55181000D01*
X4958919Y-54955532D01*
X5375532Y-54538919D01*
X5601000Y-53994589D01*
X5601000Y-53405411D01*
X5375532Y-52861081D01*
X4958919Y-52444468D01*
X4414589Y-52219000D01*
X3825411Y-52219000D01*
X3281081Y-52444468D01*
X2864468Y-52861081D01*
X2639000Y-53405411D01*
X-2712147Y-53405411D01*
X-2719000Y-53362145D01*
X-2719000Y-49405411D01*
X2639000Y-49405411D01*
X2639000Y-49994589D01*
X2864468Y-50538919D01*
X3281081Y-50955532D01*
X3825411Y-51181000D01*
X4414589Y-51181000D01*
X4958919Y-50955532D01*
X5375532Y-50538919D01*
X5601000Y-49994589D01*
X5601000Y-49405411D01*
X5542695Y-49264649D01*
X46934000Y-49264649D01*
X46934000Y-49575351D01*
X47052900Y-49862401D01*
X47272599Y-50082100D01*
X47559649Y-50201000D01*
X47870351Y-50201000D01*
X48157401Y-50082100D01*
X48337500Y-49902001D01*
X48542599Y-50107100D01*
X48829649Y-50226000D01*
X49140351Y-50226000D01*
X49427401Y-50107100D01*
X49620000Y-49914501D01*
X49812599Y-50107100D01*
X50099649Y-50226000D01*
X50410351Y-50226000D01*
X50697401Y-50107100D01*
X50917100Y-49887401D01*
X51036000Y-49600351D01*
X51036000Y-49289649D01*
X50917100Y-49002599D01*
X50697401Y-48782900D01*
X50410351Y-48664000D01*
X50099649Y-48664000D01*
X49812599Y-48782900D01*
X49620000Y-48975499D01*
X49427401Y-48782900D01*
X49140351Y-48664000D01*
X48829649Y-48664000D01*
X48542599Y-48782900D01*
X48362500Y-48962999D01*
X48157401Y-48757900D01*
X47870351Y-48639000D01*
X47559649Y-48639000D01*
X47272599Y-48757900D01*
X47052900Y-48977599D01*
X46934000Y-49264649D01*
X5542695Y-49264649D01*
X5375532Y-48861081D01*
X4958919Y-48444468D01*
X4414589Y-48219000D01*
X3825411Y-48219000D01*
X3281081Y-48444468D01*
X2864468Y-48861081D01*
X2639000Y-49405411D01*
X-2719000Y-49405411D01*
X-2719000Y-45837416D01*
X4254000Y-45837416D01*
X4254000Y-46062584D01*
X4340168Y-46270613D01*
X4499387Y-46429832D01*
X4707416Y-46516000D01*
X4932584Y-46516000D01*
X5140613Y-46429832D01*
X5299832Y-46270613D01*
X5386000Y-46062584D01*
X5386000Y-45837416D01*
X8054000Y-45837416D01*
X8054000Y-46062584D01*
X8140168Y-46270613D01*
X8299387Y-46429832D01*
X8507416Y-46516000D01*
X8732584Y-46516000D01*
X8940613Y-46429832D01*
X9099832Y-46270613D01*
X9186000Y-46062584D01*
X9186000Y-45837416D01*
X11854000Y-45837416D01*
X11854000Y-46062584D01*
X11940168Y-46270613D01*
X12099387Y-46429832D01*
X12307416Y-46516000D01*
X12532584Y-46516000D01*
X12740613Y-46429832D01*
X12899832Y-46270613D01*
X12986000Y-46062584D01*
X12986000Y-45837416D01*
X15654000Y-45837416D01*
X15654000Y-46062584D01*
X15740168Y-46270613D01*
X15899387Y-46429832D01*
X16107416Y-46516000D01*
X16332584Y-46516000D01*
X16540613Y-46429832D01*
X16699832Y-46270613D01*
X16786000Y-46062584D01*
X16786000Y-45837416D01*
X16699832Y-45629387D01*
X16540613Y-45470168D01*
X16332584Y-45384000D01*
X16107416Y-45384000D01*
X15899387Y-45470168D01*
X15740168Y-45629387D01*
X15654000Y-45837416D01*
X12986000Y-45837416D01*
X12899832Y-45629387D01*
X12740613Y-45470168D01*
X12532584Y-45384000D01*
X12307416Y-45384000D01*
X12099387Y-45470168D01*
X11940168Y-45629387D01*
X11854000Y-45837416D01*
X9186000Y-45837416D01*
X9099832Y-45629387D01*
X8940613Y-45470168D01*
X8732584Y-45384000D01*
X8507416Y-45384000D01*
X8299387Y-45470168D01*
X8140168Y-45629387D01*
X8054000Y-45837416D01*
X5386000Y-45837416D01*
X5299832Y-45629387D01*
X5140613Y-45470168D01*
X4932584Y-45384000D01*
X4707416Y-45384000D01*
X4499387Y-45470168D01*
X4340168Y-45629387D01*
X4254000Y-45837416D01*
X-2719000Y-45837416D01*
X-2719000Y-45087416D01*
X2854000Y-45087416D01*
X2854000Y-45312584D01*
X2940168Y-45520613D01*
X3099387Y-45679832D01*
X3307416Y-45766000D01*
X3532584Y-45766000D01*
X3740613Y-45679832D01*
X3899832Y-45520613D01*
X3986000Y-45312584D01*
X3986000Y-45087416D01*
X6654000Y-45087416D01*
X6654000Y-45312584D01*
X6740168Y-45520613D01*
X6899387Y-45679832D01*
X7107416Y-45766000D01*
X7332584Y-45766000D01*
X7540613Y-45679832D01*
X7699832Y-45520613D01*
X7786000Y-45312584D01*
X7786000Y-45087416D01*
X10454000Y-45087416D01*
X10454000Y-45312584D01*
X10540168Y-45520613D01*
X10699387Y-45679832D01*
X10907416Y-45766000D01*
X11132584Y-45766000D01*
X11340613Y-45679832D01*
X11499832Y-45520613D01*
X11586000Y-45312584D01*
X11586000Y-45087416D01*
X14254000Y-45087416D01*
X14254000Y-45312584D01*
X14340168Y-45520613D01*
X14499387Y-45679832D01*
X14707416Y-45766000D01*
X14932584Y-45766000D01*
X15140613Y-45679832D01*
X15299832Y-45520613D01*
X15386000Y-45312584D01*
X15386000Y-45087416D01*
X15299832Y-44879387D01*
X15140613Y-44720168D01*
X14932584Y-44634000D01*
X14707416Y-44634000D01*
X14499387Y-44720168D01*
X14340168Y-44879387D01*
X14254000Y-45087416D01*
X11586000Y-45087416D01*
X11499832Y-44879387D01*
X11340613Y-44720168D01*
X11132584Y-44634000D01*
X10907416Y-44634000D01*
X10699387Y-44720168D01*
X10540168Y-44879387D01*
X10454000Y-45087416D01*
X7786000Y-45087416D01*
X7699832Y-44879387D01*
X7540613Y-44720168D01*
X7332584Y-44634000D01*
X7107416Y-44634000D01*
X6899387Y-44720168D01*
X6740168Y-44879387D01*
X6654000Y-45087416D01*
X3986000Y-45087416D01*
X3899832Y-44879387D01*
X3740613Y-44720168D01*
X3532584Y-44634000D01*
X3307416Y-44634000D01*
X3099387Y-44720168D01*
X2940168Y-44879387D01*
X2854000Y-45087416D01*
X-2719000Y-45087416D01*
X-2719000Y-43587416D01*
X4254000Y-43587416D01*
X4254000Y-43812584D01*
X4340168Y-44020613D01*
X4499387Y-44179832D01*
X4707416Y-44266000D01*
X4932584Y-44266000D01*
X5140613Y-44179832D01*
X5299832Y-44020613D01*
X5386000Y-43812584D01*
X5386000Y-43587416D01*
X8054000Y-43587416D01*
X8054000Y-43812584D01*
X8140168Y-44020613D01*
X8299387Y-44179832D01*
X8507416Y-44266000D01*
X8732584Y-44266000D01*
X8940613Y-44179832D01*
X9099832Y-44020613D01*
X9186000Y-43812584D01*
X9186000Y-43587416D01*
X11854000Y-43587416D01*
X11854000Y-43812584D01*
X11940168Y-44020613D01*
X12099387Y-44179832D01*
X12307416Y-44266000D01*
X12532584Y-44266000D01*
X12740613Y-44179832D01*
X12899832Y-44020613D01*
X12986000Y-43812584D01*
X12986000Y-43587416D01*
X15654000Y-43587416D01*
X15654000Y-43812584D01*
X15740168Y-44020613D01*
X15899387Y-44179832D01*
X16107416Y-44266000D01*
X16332584Y-44266000D01*
X16430051Y-44225628D01*
X20954000Y-44225628D01*
X20954000Y-44894372D01*
X21209917Y-45512210D01*
X21682790Y-45985083D01*
X22300628Y-46241000D01*
X22969372Y-46241000D01*
X23587210Y-45985083D01*
X24060083Y-45512210D01*
X24316000Y-44894372D01*
X24316000Y-44225628D01*
X24060083Y-43607790D01*
X23587210Y-43134917D01*
X22969372Y-42879000D01*
X22300628Y-42879000D01*
X21682790Y-43134917D01*
X21209917Y-43607790D01*
X20954000Y-44225628D01*
X16430051Y-44225628D01*
X16540613Y-44179832D01*
X16699832Y-44020613D01*
X16786000Y-43812584D01*
X16786000Y-43587416D01*
X16699832Y-43379387D01*
X16540613Y-43220168D01*
X16332584Y-43134000D01*
X16107416Y-43134000D01*
X15899387Y-43220168D01*
X15740168Y-43379387D01*
X15654000Y-43587416D01*
X12986000Y-43587416D01*
X12899832Y-43379387D01*
X12740613Y-43220168D01*
X12532584Y-43134000D01*
X12307416Y-43134000D01*
X12099387Y-43220168D01*
X11940168Y-43379387D01*
X11854000Y-43587416D01*
X9186000Y-43587416D01*
X9099832Y-43379387D01*
X8940613Y-43220168D01*
X8732584Y-43134000D01*
X8507416Y-43134000D01*
X8299387Y-43220168D01*
X8140168Y-43379387D01*
X8054000Y-43587416D01*
X5386000Y-43587416D01*
X5299832Y-43379387D01*
X5140613Y-43220168D01*
X4932584Y-43134000D01*
X4707416Y-43134000D01*
X4499387Y-43220168D01*
X4340168Y-43379387D01*
X4254000Y-43587416D01*
X-2719000Y-43587416D01*
X-2719000Y-42837416D01*
X2854000Y-42837416D01*
X2854000Y-43062584D01*
X2940168Y-43270613D01*
X3099387Y-43429832D01*
X3307416Y-43516000D01*
X3532584Y-43516000D01*
X3740613Y-43429832D01*
X3899832Y-43270613D01*
X3986000Y-43062584D01*
X3986000Y-42837416D01*
X6654000Y-42837416D01*
X6654000Y-43062584D01*
X6740168Y-43270613D01*
X6899387Y-43429832D01*
X7107416Y-43516000D01*
X7332584Y-43516000D01*
X7540613Y-43429832D01*
X7699832Y-43270613D01*
X7786000Y-43062584D01*
X7786000Y-42837416D01*
X10454000Y-42837416D01*
X10454000Y-43062584D01*
X10540168Y-43270613D01*
X10699387Y-43429832D01*
X10907416Y-43516000D01*
X11132584Y-43516000D01*
X11340613Y-43429832D01*
X11499832Y-43270613D01*
X11586000Y-43062584D01*
X11586000Y-42837416D01*
X14254000Y-42837416D01*
X14254000Y-43062584D01*
X14340168Y-43270613D01*
X14499387Y-43429832D01*
X14707416Y-43516000D01*
X14932584Y-43516000D01*
X15140613Y-43429832D01*
X15299832Y-43270613D01*
X15386000Y-43062584D01*
X15386000Y-42837416D01*
X15299832Y-42629387D01*
X15140613Y-42470168D01*
X14932584Y-42384000D01*
X14707416Y-42384000D01*
X14499387Y-42470168D01*
X14340168Y-42629387D01*
X14254000Y-42837416D01*
X11586000Y-42837416D01*
X11499832Y-42629387D01*
X11340613Y-42470168D01*
X11132584Y-42384000D01*
X10907416Y-42384000D01*
X10699387Y-42470168D01*
X10540168Y-42629387D01*
X10454000Y-42837416D01*
X7786000Y-42837416D01*
X7699832Y-42629387D01*
X7540613Y-42470168D01*
X7332584Y-42384000D01*
X7107416Y-42384000D01*
X6899387Y-42470168D01*
X6740168Y-42629387D01*
X6654000Y-42837416D01*
X3986000Y-42837416D01*
X3899832Y-42629387D01*
X3740613Y-42470168D01*
X3532584Y-42384000D01*
X3307416Y-42384000D01*
X3099387Y-42470168D01*
X2940168Y-42629387D01*
X2854000Y-42837416D01*
X-2719000Y-42837416D01*
X-2719000Y-41337416D01*
X4254000Y-41337416D01*
X4254000Y-41562584D01*
X4340168Y-41770613D01*
X4499387Y-41929832D01*
X4707416Y-42016000D01*
X4932584Y-42016000D01*
X5140613Y-41929832D01*
X5299832Y-41770613D01*
X5386000Y-41562584D01*
X5386000Y-41337416D01*
X8054000Y-41337416D01*
X8054000Y-41562584D01*
X8140168Y-41770613D01*
X8299387Y-41929832D01*
X8507416Y-42016000D01*
X8732584Y-42016000D01*
X8940613Y-41929832D01*
X9099832Y-41770613D01*
X9186000Y-41562584D01*
X9186000Y-41337416D01*
X11854000Y-41337416D01*
X11854000Y-41562584D01*
X11940168Y-41770613D01*
X12099387Y-41929832D01*
X12307416Y-42016000D01*
X12532584Y-42016000D01*
X12740613Y-41929832D01*
X12899832Y-41770613D01*
X12986000Y-41562584D01*
X12986000Y-41337416D01*
X15654000Y-41337416D01*
X15654000Y-41562584D01*
X15740168Y-41770613D01*
X15899387Y-41929832D01*
X16107416Y-42016000D01*
X16332584Y-42016000D01*
X16540613Y-41929832D01*
X16699832Y-41770613D01*
X16786000Y-41562584D01*
X16786000Y-41337416D01*
X16699832Y-41129387D01*
X16540613Y-40970168D01*
X16332584Y-40884000D01*
X16107416Y-40884000D01*
X15899387Y-40970168D01*
X15740168Y-41129387D01*
X15654000Y-41337416D01*
X12986000Y-41337416D01*
X12899832Y-41129387D01*
X12740613Y-40970168D01*
X12532584Y-40884000D01*
X12307416Y-40884000D01*
X12099387Y-40970168D01*
X11940168Y-41129387D01*
X11854000Y-41337416D01*
X9186000Y-41337416D01*
X9099832Y-41129387D01*
X8940613Y-40970168D01*
X8732584Y-40884000D01*
X8507416Y-40884000D01*
X8299387Y-40970168D01*
X8140168Y-41129387D01*
X8054000Y-41337416D01*
X5386000Y-41337416D01*
X5299832Y-41129387D01*
X5140613Y-40970168D01*
X4932584Y-40884000D01*
X4707416Y-40884000D01*
X4499387Y-40970168D01*
X4340168Y-41129387D01*
X4254000Y-41337416D01*
X-2719000Y-41337416D01*
X-2719000Y-40587416D01*
X2854000Y-40587416D01*
X2854000Y-40812584D01*
X2940168Y-41020613D01*
X3099387Y-41179832D01*
X3307416Y-41266000D01*
X3532584Y-41266000D01*
X3740613Y-41179832D01*
X3899832Y-41020613D01*
X3986000Y-40812584D01*
X3986000Y-40587416D01*
X6654000Y-40587416D01*
X6654000Y-40812584D01*
X6740168Y-41020613D01*
X6899387Y-41179832D01*
X7107416Y-41266000D01*
X7332584Y-41266000D01*
X7540613Y-41179832D01*
X7699832Y-41020613D01*
X7786000Y-40812584D01*
X7786000Y-40587416D01*
X10454000Y-40587416D01*
X10454000Y-40812584D01*
X10540168Y-41020613D01*
X10699387Y-41179832D01*
X10907416Y-41266000D01*
X11132584Y-41266000D01*
X11340613Y-41179832D01*
X11499832Y-41020613D01*
X11586000Y-40812584D01*
X11586000Y-40587416D01*
X14254000Y-40587416D01*
X14254000Y-40812584D01*
X14340168Y-41020613D01*
X14499387Y-41179832D01*
X14707416Y-41266000D01*
X14932584Y-41266000D01*
X15140613Y-41179832D01*
X15299832Y-41020613D01*
X15386000Y-40812584D01*
X15386000Y-40587416D01*
X15300148Y-40380148D01*
X28934716Y-40380148D01*
X28934716Y-40611284D01*
X29023168Y-40824826D01*
X29186606Y-40988264D01*
X29359939Y-41060061D01*
X29431736Y-41233394D01*
X29595174Y-41396832D01*
X29808716Y-41485284D01*
X30039852Y-41485284D01*
X30253394Y-41396832D01*
X30416832Y-41233394D01*
X30505284Y-41019852D01*
X30505284Y-40788716D01*
X30534716Y-40788716D01*
X30534716Y-41019852D01*
X30623168Y-41233394D01*
X30786606Y-41396832D01*
X31000148Y-41485284D01*
X31231284Y-41485284D01*
X31444826Y-41396832D01*
X31608264Y-41233394D01*
X31680061Y-41060061D01*
X31853394Y-40988264D01*
X32016832Y-40824826D01*
X32105284Y-40611284D01*
X32105284Y-40380148D01*
X41734716Y-40380148D01*
X41734716Y-40611284D01*
X41823168Y-40824826D01*
X41986606Y-40988264D01*
X42159939Y-41060061D01*
X42231736Y-41233394D01*
X42395174Y-41396832D01*
X42608716Y-41485284D01*
X42839852Y-41485284D01*
X43053394Y-41396832D01*
X43216832Y-41233394D01*
X43305284Y-41019852D01*
X43305284Y-40788716D01*
X43334716Y-40788716D01*
X43334716Y-41019852D01*
X43423168Y-41233394D01*
X43586606Y-41396832D01*
X43800148Y-41485284D01*
X44031284Y-41485284D01*
X44244826Y-41396832D01*
X44408264Y-41233394D01*
X44480061Y-41060061D01*
X44653394Y-40988264D01*
X44816832Y-40824826D01*
X44905284Y-40611284D01*
X44905284Y-40380148D01*
X46534716Y-40380148D01*
X46534716Y-40611284D01*
X46623168Y-40824826D01*
X46786606Y-40988264D01*
X46959939Y-41060061D01*
X47031736Y-41233394D01*
X47195174Y-41396832D01*
X47408716Y-41485284D01*
X47639852Y-41485284D01*
X47853394Y-41396832D01*
X48016832Y-41233394D01*
X48105284Y-41019852D01*
X48105284Y-40788716D01*
X48134716Y-40788716D01*
X48134716Y-41019852D01*
X48223168Y-41233394D01*
X48386606Y-41396832D01*
X48600148Y-41485284D01*
X48831284Y-41485284D01*
X49044826Y-41396832D01*
X49208264Y-41233394D01*
X49280061Y-41060061D01*
X49453394Y-40988264D01*
X49616832Y-40824826D01*
X49705284Y-40611284D01*
X49705284Y-40380148D01*
X51334716Y-40380148D01*
X51334716Y-40611284D01*
X51423168Y-40824826D01*
X51586606Y-40988264D01*
X51759939Y-41060061D01*
X51831736Y-41233394D01*
X51995174Y-41396832D01*
X52208716Y-41485284D01*
X52439852Y-41485284D01*
X52653394Y-41396832D01*
X52816832Y-41233394D01*
X52905284Y-41019852D01*
X52905284Y-40788716D01*
X52816832Y-40575174D01*
X52653394Y-40411736D01*
X52480061Y-40339939D01*
X52408264Y-40166606D01*
X52244826Y-40003168D01*
X52031284Y-39914716D01*
X51800148Y-39914716D01*
X51586606Y-40003168D01*
X51423168Y-40166606D01*
X51334716Y-40380148D01*
X49705284Y-40380148D01*
X49616832Y-40166606D01*
X49453394Y-40003168D01*
X49239852Y-39914716D01*
X49008716Y-39914716D01*
X48795174Y-40003168D01*
X48631736Y-40166606D01*
X48559939Y-40339939D01*
X48386606Y-40411736D01*
X48223168Y-40575174D01*
X48134716Y-40788716D01*
X48105284Y-40788716D01*
X48016832Y-40575174D01*
X47853394Y-40411736D01*
X47680061Y-40339939D01*
X47608264Y-40166606D01*
X47444826Y-40003168D01*
X47231284Y-39914716D01*
X47000148Y-39914716D01*
X46786606Y-40003168D01*
X46623168Y-40166606D01*
X46534716Y-40380148D01*
X44905284Y-40380148D01*
X44816832Y-40166606D01*
X44653394Y-40003168D01*
X44439852Y-39914716D01*
X44208716Y-39914716D01*
X43995174Y-40003168D01*
X43831736Y-40166606D01*
X43759939Y-40339939D01*
X43586606Y-40411736D01*
X43423168Y-40575174D01*
X43334716Y-40788716D01*
X43305284Y-40788716D01*
X43216832Y-40575174D01*
X43053394Y-40411736D01*
X42880061Y-40339939D01*
X42808264Y-40166606D01*
X42644826Y-40003168D01*
X42431284Y-39914716D01*
X42200148Y-39914716D01*
X41986606Y-40003168D01*
X41823168Y-40166606D01*
X41734716Y-40380148D01*
X32105284Y-40380148D01*
X32016832Y-40166606D01*
X31853394Y-40003168D01*
X31639852Y-39914716D01*
X31408716Y-39914716D01*
X31195174Y-40003168D01*
X31031736Y-40166606D01*
X30959939Y-40339939D01*
X30786606Y-40411736D01*
X30623168Y-40575174D01*
X30534716Y-40788716D01*
X30505284Y-40788716D01*
X30416832Y-40575174D01*
X30253394Y-40411736D01*
X30080061Y-40339939D01*
X30008264Y-40166606D01*
X29844826Y-40003168D01*
X29631284Y-39914716D01*
X29400148Y-39914716D01*
X29186606Y-40003168D01*
X29023168Y-40166606D01*
X28934716Y-40380148D01*
X15300148Y-40380148D01*
X15299832Y-40379387D01*
X15140613Y-40220168D01*
X14932584Y-40134000D01*
X14707416Y-40134000D01*
X14499387Y-40220168D01*
X14340168Y-40379387D01*
X14254000Y-40587416D01*
X11586000Y-40587416D01*
X11499832Y-40379387D01*
X11340613Y-40220168D01*
X11132584Y-40134000D01*
X10907416Y-40134000D01*
X10699387Y-40220168D01*
X10540168Y-40379387D01*
X10454000Y-40587416D01*
X7786000Y-40587416D01*
X7699832Y-40379387D01*
X7540613Y-40220168D01*
X7332584Y-40134000D01*
X7107416Y-40134000D01*
X6899387Y-40220168D01*
X6740168Y-40379387D01*
X6654000Y-40587416D01*
X3986000Y-40587416D01*
X3899832Y-40379387D01*
X3740613Y-40220168D01*
X3532584Y-40134000D01*
X3307416Y-40134000D01*
X3099387Y-40220168D01*
X2940168Y-40379387D01*
X2854000Y-40587416D01*
X-2719000Y-40587416D01*
X-2719000Y-37405411D01*
X2639000Y-37405411D01*
X2639000Y-37994589D01*
X2864468Y-38538919D01*
X3281081Y-38955532D01*
X3825411Y-39181000D01*
X4414589Y-39181000D01*
X4958919Y-38955532D01*
X5375532Y-38538919D01*
X5601000Y-37994589D01*
X5601000Y-37405411D01*
X5375532Y-36861081D01*
X4958919Y-36444468D01*
X4414589Y-36219000D01*
X3825411Y-36219000D01*
X3281081Y-36444468D01*
X2864468Y-36861081D01*
X2639000Y-37405411D01*
X-2719000Y-37405411D01*
X-2719000Y-33405411D01*
X2639000Y-33405411D01*
X2639000Y-33994589D01*
X2864468Y-34538919D01*
X3281081Y-34955532D01*
X3825411Y-35181000D01*
X4414589Y-35181000D01*
X4958919Y-34955532D01*
X5375532Y-34538919D01*
X5601000Y-33994589D01*
X5601000Y-33405411D01*
X5542695Y-33264649D01*
X46934000Y-33264649D01*
X46934000Y-33575351D01*
X47052900Y-33862401D01*
X47272599Y-34082100D01*
X47559649Y-34201000D01*
X47870351Y-34201000D01*
X48157401Y-34082100D01*
X48337500Y-33902001D01*
X48542599Y-34107100D01*
X48829649Y-34226000D01*
X49140351Y-34226000D01*
X49427401Y-34107100D01*
X49620000Y-33914501D01*
X49812599Y-34107100D01*
X50099649Y-34226000D01*
X50410351Y-34226000D01*
X50697401Y-34107100D01*
X50917100Y-33887401D01*
X51036000Y-33600351D01*
X51036000Y-33289649D01*
X50917100Y-33002599D01*
X50697401Y-32782900D01*
X50410351Y-32664000D01*
X50099649Y-32664000D01*
X49812599Y-32782900D01*
X49620000Y-32975499D01*
X49427401Y-32782900D01*
X49140351Y-32664000D01*
X48829649Y-32664000D01*
X48542599Y-32782900D01*
X48362500Y-32962999D01*
X48157401Y-32757900D01*
X47870351Y-32639000D01*
X47559649Y-32639000D01*
X47272599Y-32757900D01*
X47052900Y-32977599D01*
X46934000Y-33264649D01*
X5542695Y-33264649D01*
X5375532Y-32861081D01*
X4958919Y-32444468D01*
X4414589Y-32219000D01*
X3825411Y-32219000D01*
X3281081Y-32444468D01*
X2864468Y-32861081D01*
X2639000Y-33405411D01*
X-2719000Y-33405411D01*
X-2719000Y-29837416D01*
X4254000Y-29837416D01*
X4254000Y-30062584D01*
X4340168Y-30270613D01*
X4499387Y-30429832D01*
X4707416Y-30516000D01*
X4932584Y-30516000D01*
X5140613Y-30429832D01*
X5299832Y-30270613D01*
X5386000Y-30062584D01*
X5386000Y-29837416D01*
X8054000Y-29837416D01*
X8054000Y-30062584D01*
X8140168Y-30270613D01*
X8299387Y-30429832D01*
X8507416Y-30516000D01*
X8732584Y-30516000D01*
X8940613Y-30429832D01*
X9099832Y-30270613D01*
X9186000Y-30062584D01*
X9186000Y-29837416D01*
X11854000Y-29837416D01*
X11854000Y-30062584D01*
X11940168Y-30270613D01*
X12099387Y-30429832D01*
X12307416Y-30516000D01*
X12532584Y-30516000D01*
X12740613Y-30429832D01*
X12899832Y-30270613D01*
X12986000Y-30062584D01*
X12986000Y-29837416D01*
X15654000Y-29837416D01*
X15654000Y-30062584D01*
X15740168Y-30270613D01*
X15899387Y-30429832D01*
X16107416Y-30516000D01*
X16332584Y-30516000D01*
X16540613Y-30429832D01*
X16699832Y-30270613D01*
X16786000Y-30062584D01*
X16786000Y-29837416D01*
X16699832Y-29629387D01*
X16540613Y-29470168D01*
X16332584Y-29384000D01*
X16107416Y-29384000D01*
X15899387Y-29470168D01*
X15740168Y-29629387D01*
X15654000Y-29837416D01*
X12986000Y-29837416D01*
X12899832Y-29629387D01*
X12740613Y-29470168D01*
X12532584Y-29384000D01*
X12307416Y-29384000D01*
X12099387Y-29470168D01*
X11940168Y-29629387D01*
X11854000Y-29837416D01*
X9186000Y-29837416D01*
X9099832Y-29629387D01*
X8940613Y-29470168D01*
X8732584Y-29384000D01*
X8507416Y-29384000D01*
X8299387Y-29470168D01*
X8140168Y-29629387D01*
X8054000Y-29837416D01*
X5386000Y-29837416D01*
X5299832Y-29629387D01*
X5140613Y-29470168D01*
X4932584Y-29384000D01*
X4707416Y-29384000D01*
X4499387Y-29470168D01*
X4340168Y-29629387D01*
X4254000Y-29837416D01*
X-2719000Y-29837416D01*
X-2719000Y-29087416D01*
X2854000Y-29087416D01*
X2854000Y-29312584D01*
X2940168Y-29520613D01*
X3099387Y-29679832D01*
X3307416Y-29766000D01*
X3532584Y-29766000D01*
X3740613Y-29679832D01*
X3899832Y-29520613D01*
X3986000Y-29312584D01*
X3986000Y-29087416D01*
X6654000Y-29087416D01*
X6654000Y-29312584D01*
X6740168Y-29520613D01*
X6899387Y-29679832D01*
X7107416Y-29766000D01*
X7332584Y-29766000D01*
X7540613Y-29679832D01*
X7699832Y-29520613D01*
X7786000Y-29312584D01*
X7786000Y-29087416D01*
X10454000Y-29087416D01*
X10454000Y-29312584D01*
X10540168Y-29520613D01*
X10699387Y-29679832D01*
X10907416Y-29766000D01*
X11132584Y-29766000D01*
X11340613Y-29679832D01*
X11499832Y-29520613D01*
X11586000Y-29312584D01*
X11586000Y-29087416D01*
X14254000Y-29087416D01*
X14254000Y-29312584D01*
X14340168Y-29520613D01*
X14499387Y-29679832D01*
X14707416Y-29766000D01*
X14932584Y-29766000D01*
X15140613Y-29679832D01*
X15299832Y-29520613D01*
X15386000Y-29312584D01*
X15386000Y-29087416D01*
X15299832Y-28879387D01*
X15140613Y-28720168D01*
X14932584Y-28634000D01*
X14707416Y-28634000D01*
X14499387Y-28720168D01*
X14340168Y-28879387D01*
X14254000Y-29087416D01*
X11586000Y-29087416D01*
X11499832Y-28879387D01*
X11340613Y-28720168D01*
X11132584Y-28634000D01*
X10907416Y-28634000D01*
X10699387Y-28720168D01*
X10540168Y-28879387D01*
X10454000Y-29087416D01*
X7786000Y-29087416D01*
X7699832Y-28879387D01*
X7540613Y-28720168D01*
X7332584Y-28634000D01*
X7107416Y-28634000D01*
X6899387Y-28720168D01*
X6740168Y-28879387D01*
X6654000Y-29087416D01*
X3986000Y-29087416D01*
X3899832Y-28879387D01*
X3740613Y-28720168D01*
X3532584Y-28634000D01*
X3307416Y-28634000D01*
X3099387Y-28720168D01*
X2940168Y-28879387D01*
X2854000Y-29087416D01*
X-2719000Y-29087416D01*
X-2719000Y-27587416D01*
X4254000Y-27587416D01*
X4254000Y-27812584D01*
X4340168Y-28020613D01*
X4499387Y-28179832D01*
X4707416Y-28266000D01*
X4932584Y-28266000D01*
X5140613Y-28179832D01*
X5299832Y-28020613D01*
X5386000Y-27812584D01*
X5386000Y-27587416D01*
X8054000Y-27587416D01*
X8054000Y-27812584D01*
X8140168Y-28020613D01*
X8299387Y-28179832D01*
X8507416Y-28266000D01*
X8732584Y-28266000D01*
X8940613Y-28179832D01*
X9099832Y-28020613D01*
X9186000Y-27812584D01*
X9186000Y-27587416D01*
X11854000Y-27587416D01*
X11854000Y-27812584D01*
X11940168Y-28020613D01*
X12099387Y-28179832D01*
X12307416Y-28266000D01*
X12532584Y-28266000D01*
X12740613Y-28179832D01*
X12899832Y-28020613D01*
X12986000Y-27812584D01*
X12986000Y-27587416D01*
X15654000Y-27587416D01*
X15654000Y-27812584D01*
X15740168Y-28020613D01*
X15899387Y-28179832D01*
X16107416Y-28266000D01*
X16332584Y-28266000D01*
X16430051Y-28225628D01*
X20954000Y-28225628D01*
X20954000Y-28894372D01*
X21209917Y-29512210D01*
X21682790Y-29985083D01*
X22300628Y-30241000D01*
X22969372Y-30241000D01*
X23587210Y-29985083D01*
X24060083Y-29512210D01*
X24316000Y-28894372D01*
X24316000Y-28225628D01*
X24060083Y-27607790D01*
X23587210Y-27134917D01*
X22969372Y-26879000D01*
X22300628Y-26879000D01*
X21682790Y-27134917D01*
X21209917Y-27607790D01*
X20954000Y-28225628D01*
X16430051Y-28225628D01*
X16540613Y-28179832D01*
X16699832Y-28020613D01*
X16786000Y-27812584D01*
X16786000Y-27587416D01*
X16699832Y-27379387D01*
X16540613Y-27220168D01*
X16332584Y-27134000D01*
X16107416Y-27134000D01*
X15899387Y-27220168D01*
X15740168Y-27379387D01*
X15654000Y-27587416D01*
X12986000Y-27587416D01*
X12899832Y-27379387D01*
X12740613Y-27220168D01*
X12532584Y-27134000D01*
X12307416Y-27134000D01*
X12099387Y-27220168D01*
X11940168Y-27379387D01*
X11854000Y-27587416D01*
X9186000Y-27587416D01*
X9099832Y-27379387D01*
X8940613Y-27220168D01*
X8732584Y-27134000D01*
X8507416Y-27134000D01*
X8299387Y-27220168D01*
X8140168Y-27379387D01*
X8054000Y-27587416D01*
X5386000Y-27587416D01*
X5299832Y-27379387D01*
X5140613Y-27220168D01*
X4932584Y-27134000D01*
X4707416Y-27134000D01*
X4499387Y-27220168D01*
X4340168Y-27379387D01*
X4254000Y-27587416D01*
X-2719000Y-27587416D01*
X-2719000Y-26837416D01*
X2854000Y-26837416D01*
X2854000Y-27062584D01*
X2940168Y-27270613D01*
X3099387Y-27429832D01*
X3307416Y-27516000D01*
X3532584Y-27516000D01*
X3740613Y-27429832D01*
X3899832Y-27270613D01*
X3986000Y-27062584D01*
X3986000Y-26837416D01*
X6654000Y-26837416D01*
X6654000Y-27062584D01*
X6740168Y-27270613D01*
X6899387Y-27429832D01*
X7107416Y-27516000D01*
X7332584Y-27516000D01*
X7540613Y-27429832D01*
X7699832Y-27270613D01*
X7786000Y-27062584D01*
X7786000Y-26837416D01*
X10454000Y-26837416D01*
X10454000Y-27062584D01*
X10540168Y-27270613D01*
X10699387Y-27429832D01*
X10907416Y-27516000D01*
X11132584Y-27516000D01*
X11340613Y-27429832D01*
X11499832Y-27270613D01*
X11586000Y-27062584D01*
X11586000Y-26837416D01*
X14254000Y-26837416D01*
X14254000Y-27062584D01*
X14340168Y-27270613D01*
X14499387Y-27429832D01*
X14707416Y-27516000D01*
X14932584Y-27516000D01*
X15140613Y-27429832D01*
X15299832Y-27270613D01*
X15386000Y-27062584D01*
X15386000Y-26837416D01*
X15299832Y-26629387D01*
X15140613Y-26470168D01*
X14932584Y-26384000D01*
X14707416Y-26384000D01*
X14499387Y-26470168D01*
X14340168Y-26629387D01*
X14254000Y-26837416D01*
X11586000Y-26837416D01*
X11499832Y-26629387D01*
X11340613Y-26470168D01*
X11132584Y-26384000D01*
X10907416Y-26384000D01*
X10699387Y-26470168D01*
X10540168Y-26629387D01*
X10454000Y-26837416D01*
X7786000Y-26837416D01*
X7699832Y-26629387D01*
X7540613Y-26470168D01*
X7332584Y-26384000D01*
X7107416Y-26384000D01*
X6899387Y-26470168D01*
X6740168Y-26629387D01*
X6654000Y-26837416D01*
X3986000Y-26837416D01*
X3899832Y-26629387D01*
X3740613Y-26470168D01*
X3532584Y-26384000D01*
X3307416Y-26384000D01*
X3099387Y-26470168D01*
X2940168Y-26629387D01*
X2854000Y-26837416D01*
X-2719000Y-26837416D01*
X-2719000Y-25337416D01*
X4254000Y-25337416D01*
X4254000Y-25562584D01*
X4340168Y-25770613D01*
X4499387Y-25929832D01*
X4707416Y-26016000D01*
X4932584Y-26016000D01*
X5140613Y-25929832D01*
X5299832Y-25770613D01*
X5386000Y-25562584D01*
X5386000Y-25337416D01*
X8054000Y-25337416D01*
X8054000Y-25562584D01*
X8140168Y-25770613D01*
X8299387Y-25929832D01*
X8507416Y-26016000D01*
X8732584Y-26016000D01*
X8940613Y-25929832D01*
X9099832Y-25770613D01*
X9186000Y-25562584D01*
X9186000Y-25337416D01*
X11854000Y-25337416D01*
X11854000Y-25562584D01*
X11940168Y-25770613D01*
X12099387Y-25929832D01*
X12307416Y-26016000D01*
X12532584Y-26016000D01*
X12740613Y-25929832D01*
X12899832Y-25770613D01*
X12986000Y-25562584D01*
X12986000Y-25337416D01*
X15654000Y-25337416D01*
X15654000Y-25562584D01*
X15740168Y-25770613D01*
X15899387Y-25929832D01*
X16107416Y-26016000D01*
X16332584Y-26016000D01*
X16540613Y-25929832D01*
X16699832Y-25770613D01*
X16786000Y-25562584D01*
X16786000Y-25337416D01*
X16699832Y-25129387D01*
X16540613Y-24970168D01*
X16332584Y-24884000D01*
X16107416Y-24884000D01*
X15899387Y-24970168D01*
X15740168Y-25129387D01*
X15654000Y-25337416D01*
X12986000Y-25337416D01*
X12899832Y-25129387D01*
X12740613Y-24970168D01*
X12532584Y-24884000D01*
X12307416Y-24884000D01*
X12099387Y-24970168D01*
X11940168Y-25129387D01*
X11854000Y-25337416D01*
X9186000Y-25337416D01*
X9099832Y-25129387D01*
X8940613Y-24970168D01*
X8732584Y-24884000D01*
X8507416Y-24884000D01*
X8299387Y-24970168D01*
X8140168Y-25129387D01*
X8054000Y-25337416D01*
X5386000Y-25337416D01*
X5299832Y-25129387D01*
X5140613Y-24970168D01*
X4932584Y-24884000D01*
X4707416Y-24884000D01*
X4499387Y-24970168D01*
X4340168Y-25129387D01*
X4254000Y-25337416D01*
X-2719000Y-25337416D01*
X-2719000Y-24587416D01*
X2854000Y-24587416D01*
X2854000Y-24812584D01*
X2940168Y-25020613D01*
X3099387Y-25179832D01*
X3307416Y-25266000D01*
X3532584Y-25266000D01*
X3740613Y-25179832D01*
X3899832Y-25020613D01*
X3986000Y-24812584D01*
X3986000Y-24587416D01*
X6654000Y-24587416D01*
X6654000Y-24812584D01*
X6740168Y-25020613D01*
X6899387Y-25179832D01*
X7107416Y-25266000D01*
X7332584Y-25266000D01*
X7540613Y-25179832D01*
X7699832Y-25020613D01*
X7786000Y-24812584D01*
X7786000Y-24587416D01*
X10454000Y-24587416D01*
X10454000Y-24812584D01*
X10540168Y-25020613D01*
X10699387Y-25179832D01*
X10907416Y-25266000D01*
X11132584Y-25266000D01*
X11340613Y-25179832D01*
X11499832Y-25020613D01*
X11586000Y-24812584D01*
X11586000Y-24587416D01*
X14254000Y-24587416D01*
X14254000Y-24812584D01*
X14340168Y-25020613D01*
X14499387Y-25179832D01*
X14707416Y-25266000D01*
X14932584Y-25266000D01*
X15140613Y-25179832D01*
X15299832Y-25020613D01*
X15386000Y-24812584D01*
X15386000Y-24587416D01*
X15300148Y-24380148D01*
X28934716Y-24380148D01*
X28934716Y-24611284D01*
X29023168Y-24824826D01*
X29186606Y-24988264D01*
X29359939Y-25060061D01*
X29431736Y-25233394D01*
X29595174Y-25396832D01*
X29808716Y-25485284D01*
X30039852Y-25485284D01*
X30253394Y-25396832D01*
X30416832Y-25233394D01*
X30505284Y-25019852D01*
X30505284Y-24788716D01*
X30534716Y-24788716D01*
X30534716Y-25019852D01*
X30623168Y-25233394D01*
X30786606Y-25396832D01*
X31000148Y-25485284D01*
X31231284Y-25485284D01*
X31444826Y-25396832D01*
X31608264Y-25233394D01*
X31680061Y-25060061D01*
X31853394Y-24988264D01*
X32016832Y-24824826D01*
X32105284Y-24611284D01*
X32105284Y-24380148D01*
X41734716Y-24380148D01*
X41734716Y-24611284D01*
X41823168Y-24824826D01*
X41986606Y-24988264D01*
X42159939Y-25060061D01*
X42231736Y-25233394D01*
X42395174Y-25396832D01*
X42608716Y-25485284D01*
X42839852Y-25485284D01*
X43053394Y-25396832D01*
X43216832Y-25233394D01*
X43305284Y-25019852D01*
X43305284Y-24788716D01*
X43334716Y-24788716D01*
X43334716Y-25019852D01*
X43423168Y-25233394D01*
X43586606Y-25396832D01*
X43800148Y-25485284D01*
X44031284Y-25485284D01*
X44244826Y-25396832D01*
X44408264Y-25233394D01*
X44480061Y-25060061D01*
X44653394Y-24988264D01*
X44816832Y-24824826D01*
X44905284Y-24611284D01*
X44905284Y-24380148D01*
X46534716Y-24380148D01*
X46534716Y-24611284D01*
X46623168Y-24824826D01*
X46786606Y-24988264D01*
X46959939Y-25060061D01*
X47031736Y-25233394D01*
X47195174Y-25396832D01*
X47408716Y-25485284D01*
X47639852Y-25485284D01*
X47853394Y-25396832D01*
X48016832Y-25233394D01*
X48105284Y-25019852D01*
X48105284Y-24788716D01*
X48134716Y-24788716D01*
X48134716Y-25019852D01*
X48223168Y-25233394D01*
X48386606Y-25396832D01*
X48600148Y-25485284D01*
X48831284Y-25485284D01*
X49044826Y-25396832D01*
X49208264Y-25233394D01*
X49280061Y-25060061D01*
X49453394Y-24988264D01*
X49616832Y-24824826D01*
X49705284Y-24611284D01*
X49705284Y-24380148D01*
X51334716Y-24380148D01*
X51334716Y-24611284D01*
X51423168Y-24824826D01*
X51586606Y-24988264D01*
X51759939Y-25060061D01*
X51831736Y-25233394D01*
X51995174Y-25396832D01*
X52208716Y-25485284D01*
X52439852Y-25485284D01*
X52653394Y-25396832D01*
X52816832Y-25233394D01*
X52905284Y-25019852D01*
X52905284Y-24788716D01*
X52816832Y-24575174D01*
X52653394Y-24411736D01*
X52480061Y-24339939D01*
X52408264Y-24166606D01*
X52244826Y-24003168D01*
X52031284Y-23914716D01*
X51800148Y-23914716D01*
X51586606Y-24003168D01*
X51423168Y-24166606D01*
X51334716Y-24380148D01*
X49705284Y-24380148D01*
X49616832Y-24166606D01*
X49453394Y-24003168D01*
X49239852Y-23914716D01*
X49008716Y-23914716D01*
X48795174Y-24003168D01*
X48631736Y-24166606D01*
X48559939Y-24339939D01*
X48386606Y-24411736D01*
X48223168Y-24575174D01*
X48134716Y-24788716D01*
X48105284Y-24788716D01*
X48016832Y-24575174D01*
X47853394Y-24411736D01*
X47680061Y-24339939D01*
X47608264Y-24166606D01*
X47444826Y-24003168D01*
X47231284Y-23914716D01*
X47000148Y-23914716D01*
X46786606Y-24003168D01*
X46623168Y-24166606D01*
X46534716Y-24380148D01*
X44905284Y-24380148D01*
X44816832Y-24166606D01*
X44653394Y-24003168D01*
X44439852Y-23914716D01*
X44208716Y-23914716D01*
X43995174Y-24003168D01*
X43831736Y-24166606D01*
X43759939Y-24339939D01*
X43586606Y-24411736D01*
X43423168Y-24575174D01*
X43334716Y-24788716D01*
X43305284Y-24788716D01*
X43216832Y-24575174D01*
X43053394Y-24411736D01*
X42880061Y-24339939D01*
X42808264Y-24166606D01*
X42644826Y-24003168D01*
X42431284Y-23914716D01*
X42200148Y-23914716D01*
X41986606Y-24003168D01*
X41823168Y-24166606D01*
X41734716Y-24380148D01*
X32105284Y-24380148D01*
X32016832Y-24166606D01*
X31853394Y-24003168D01*
X31639852Y-23914716D01*
X31408716Y-23914716D01*
X31195174Y-24003168D01*
X31031736Y-24166606D01*
X30959939Y-24339939D01*
X30786606Y-24411736D01*
X30623168Y-24575174D01*
X30534716Y-24788716D01*
X30505284Y-24788716D01*
X30416832Y-24575174D01*
X30253394Y-24411736D01*
X30080061Y-24339939D01*
X30008264Y-24166606D01*
X29844826Y-24003168D01*
X29631284Y-23914716D01*
X29400148Y-23914716D01*
X29186606Y-24003168D01*
X29023168Y-24166606D01*
X28934716Y-24380148D01*
X15300148Y-24380148D01*
X15299832Y-24379387D01*
X15140613Y-24220168D01*
X14932584Y-24134000D01*
X14707416Y-24134000D01*
X14499387Y-24220168D01*
X14340168Y-24379387D01*
X14254000Y-24587416D01*
X11586000Y-24587416D01*
X11499832Y-24379387D01*
X11340613Y-24220168D01*
X11132584Y-24134000D01*
X10907416Y-24134000D01*
X10699387Y-24220168D01*
X10540168Y-24379387D01*
X10454000Y-24587416D01*
X7786000Y-24587416D01*
X7699832Y-24379387D01*
X7540613Y-24220168D01*
X7332584Y-24134000D01*
X7107416Y-24134000D01*
X6899387Y-24220168D01*
X6740168Y-24379387D01*
X6654000Y-24587416D01*
X3986000Y-24587416D01*
X3899832Y-24379387D01*
X3740613Y-24220168D01*
X3532584Y-24134000D01*
X3307416Y-24134000D01*
X3099387Y-24220168D01*
X2940168Y-24379387D01*
X2854000Y-24587416D01*
X-2719000Y-24587416D01*
X-2719000Y-21405411D01*
X2639000Y-21405411D01*
X2639000Y-21994589D01*
X2864468Y-22538919D01*
X3281081Y-22955532D01*
X3825411Y-23181000D01*
X4414589Y-23181000D01*
X4958919Y-22955532D01*
X5375532Y-22538919D01*
X5601000Y-21994589D01*
X5601000Y-21405411D01*
X5375532Y-20861081D01*
X4958919Y-20444468D01*
X4414589Y-20219000D01*
X3825411Y-20219000D01*
X3281081Y-20444468D01*
X2864468Y-20861081D01*
X2639000Y-21405411D01*
X-2719000Y-21405411D01*
X-2719000Y-18437855D01*
X-2658529Y-18056062D01*
X-2500439Y-17745792D01*
X-2254206Y-17499560D01*
X-2069429Y-17405411D01*
X2639000Y-17405411D01*
X2639000Y-17994589D01*
X2864468Y-18538919D01*
X3281081Y-18955532D01*
X3825411Y-19181000D01*
X4414589Y-19181000D01*
X4958919Y-18955532D01*
X5375532Y-18538919D01*
X5601000Y-17994589D01*
X5601000Y-17405411D01*
X5542695Y-17264649D01*
X46934000Y-17264649D01*
X46934000Y-17575351D01*
X47052900Y-17862401D01*
X47272599Y-18082100D01*
X47559649Y-18201000D01*
X47870351Y-18201000D01*
X48157401Y-18082100D01*
X48337500Y-17902001D01*
X48542599Y-18107100D01*
X48829649Y-18226000D01*
X49140351Y-18226000D01*
X49427401Y-18107100D01*
X49620000Y-17914501D01*
X49812599Y-18107100D01*
X50099649Y-18226000D01*
X50410351Y-18226000D01*
X50697401Y-18107100D01*
X50917100Y-17887401D01*
X51036000Y-17600351D01*
X51036000Y-17289649D01*
X50917100Y-17002599D01*
X50697401Y-16782900D01*
X50410351Y-16664000D01*
X50099649Y-16664000D01*
X49812599Y-16782900D01*
X49620000Y-16975499D01*
X49427401Y-16782900D01*
X49140351Y-16664000D01*
X48829649Y-16664000D01*
X48542599Y-16782900D01*
X48362500Y-16962999D01*
X48157401Y-16757900D01*
X47870351Y-16639000D01*
X47559649Y-16639000D01*
X47272599Y-16757900D01*
X47052900Y-16977599D01*
X46934000Y-17264649D01*
X5542695Y-17264649D01*
X5375532Y-16861081D01*
X4958919Y-16444468D01*
X4414589Y-16219000D01*
X3825411Y-16219000D01*
X3281081Y-16444468D01*
X2864468Y-16861081D01*
X2639000Y-17405411D01*
X-2069429Y-17405411D01*
X-1943938Y-17341470D01*
X-1562145Y-17281000D01*
X-47373Y-17281000D01*
X0Y-17290423D01*
X47373Y-17281000D01*
X187677Y-17253092D01*
X346781Y-17146781D01*
X453092Y-16987677D01*
X490423Y-16800000D01*
X481000Y-16752627D01*
X481000Y-13837416D01*
X4254000Y-13837416D01*
X4254000Y-14062584D01*
X4340168Y-14270613D01*
X4499387Y-14429832D01*
X4707416Y-14516000D01*
X4932584Y-14516000D01*
X5140613Y-14429832D01*
X5299832Y-14270613D01*
X5386000Y-14062584D01*
X5386000Y-13837416D01*
X8054000Y-13837416D01*
X8054000Y-14062584D01*
X8140168Y-14270613D01*
X8299387Y-14429832D01*
X8507416Y-14516000D01*
X8732584Y-14516000D01*
X8940613Y-14429832D01*
X9099832Y-14270613D01*
X9186000Y-14062584D01*
X9186000Y-13837416D01*
X11854000Y-13837416D01*
X11854000Y-14062584D01*
X11940168Y-14270613D01*
X12099387Y-14429832D01*
X12307416Y-14516000D01*
X12532584Y-14516000D01*
X12740613Y-14429832D01*
X12899832Y-14270613D01*
X12986000Y-14062584D01*
X12986000Y-13837416D01*
X15654000Y-13837416D01*
X15654000Y-14062584D01*
X15740168Y-14270613D01*
X15899387Y-14429832D01*
X16107416Y-14516000D01*
X16332584Y-14516000D01*
X16540613Y-14429832D01*
X16699832Y-14270613D01*
X16786000Y-14062584D01*
X16786000Y-13837416D01*
X16699832Y-13629387D01*
X16540613Y-13470168D01*
X16332584Y-13384000D01*
X16107416Y-13384000D01*
X15899387Y-13470168D01*
X15740168Y-13629387D01*
X15654000Y-13837416D01*
X12986000Y-13837416D01*
X12899832Y-13629387D01*
X12740613Y-13470168D01*
X12532584Y-13384000D01*
X12307416Y-13384000D01*
X12099387Y-13470168D01*
X11940168Y-13629387D01*
X11854000Y-13837416D01*
X9186000Y-13837416D01*
X9099832Y-13629387D01*
X8940613Y-13470168D01*
X8732584Y-13384000D01*
X8507416Y-13384000D01*
X8299387Y-13470168D01*
X8140168Y-13629387D01*
X8054000Y-13837416D01*
X5386000Y-13837416D01*
X5299832Y-13629387D01*
X5140613Y-13470168D01*
X4932584Y-13384000D01*
X4707416Y-13384000D01*
X4499387Y-13470168D01*
X4340168Y-13629387D01*
X4254000Y-13837416D01*
X481000Y-13837416D01*
X481000Y-13087416D01*
X2854000Y-13087416D01*
X2854000Y-13312584D01*
X2940168Y-13520613D01*
X3099387Y-13679832D01*
X3307416Y-13766000D01*
X3532584Y-13766000D01*
X3740613Y-13679832D01*
X3899832Y-13520613D01*
X3986000Y-13312584D01*
X3986000Y-13087416D01*
X6654000Y-13087416D01*
X6654000Y-13312584D01*
X6740168Y-13520613D01*
X6899387Y-13679832D01*
X7107416Y-13766000D01*
X7332584Y-13766000D01*
X7540613Y-13679832D01*
X7699832Y-13520613D01*
X7786000Y-13312584D01*
X7786000Y-13087416D01*
X10454000Y-13087416D01*
X10454000Y-13312584D01*
X10540168Y-13520613D01*
X10699387Y-13679832D01*
X10907416Y-13766000D01*
X11132584Y-13766000D01*
X11340613Y-13679832D01*
X11499832Y-13520613D01*
X11586000Y-13312584D01*
X11586000Y-13087416D01*
X14254000Y-13087416D01*
X14254000Y-13312584D01*
X14340168Y-13520613D01*
X14499387Y-13679832D01*
X14707416Y-13766000D01*
X14932584Y-13766000D01*
X15140613Y-13679832D01*
X15299832Y-13520613D01*
X15386000Y-13312584D01*
X15386000Y-13087416D01*
X15299832Y-12879387D01*
X15140613Y-12720168D01*
X14932584Y-12634000D01*
X14707416Y-12634000D01*
X14499387Y-12720168D01*
X14340168Y-12879387D01*
X14254000Y-13087416D01*
X11586000Y-13087416D01*
X11499832Y-12879387D01*
X11340613Y-12720168D01*
X11132584Y-12634000D01*
X10907416Y-12634000D01*
X10699387Y-12720168D01*
X10540168Y-12879387D01*
X10454000Y-13087416D01*
X7786000Y-13087416D01*
X7699832Y-12879387D01*
X7540613Y-12720168D01*
X7332584Y-12634000D01*
X7107416Y-12634000D01*
X6899387Y-12720168D01*
X6740168Y-12879387D01*
X6654000Y-13087416D01*
X3986000Y-13087416D01*
X3899832Y-12879387D01*
X3740613Y-12720168D01*
X3532584Y-12634000D01*
X3307416Y-12634000D01*
X3099387Y-12720168D01*
X2940168Y-12879387D01*
X2854000Y-13087416D01*
X481000Y-13087416D01*
X481000Y-11587416D01*
X4254000Y-11587416D01*
X4254000Y-11812584D01*
X4340168Y-12020613D01*
X4499387Y-12179832D01*
X4707416Y-12266000D01*
X4932584Y-12266000D01*
X5140613Y-12179832D01*
X5299832Y-12020613D01*
X5386000Y-11812584D01*
X5386000Y-11587416D01*
X8054000Y-11587416D01*
X8054000Y-11812584D01*
X8140168Y-12020613D01*
X8299387Y-12179832D01*
X8507416Y-12266000D01*
X8732584Y-12266000D01*
X8940613Y-12179832D01*
X9099832Y-12020613D01*
X9186000Y-11812584D01*
X9186000Y-11587416D01*
X11854000Y-11587416D01*
X11854000Y-11812584D01*
X11940168Y-12020613D01*
X12099387Y-12179832D01*
X12307416Y-12266000D01*
X12532584Y-12266000D01*
X12740613Y-12179832D01*
X12899832Y-12020613D01*
X12986000Y-11812584D01*
X12986000Y-11587416D01*
X15654000Y-11587416D01*
X15654000Y-11812584D01*
X15740168Y-12020613D01*
X15899387Y-12179832D01*
X16107416Y-12266000D01*
X16332584Y-12266000D01*
X16430051Y-12225628D01*
X20954000Y-12225628D01*
X20954000Y-12894372D01*
X21209917Y-13512210D01*
X21682790Y-13985083D01*
X22300628Y-14241000D01*
X22969372Y-14241000D01*
X23587210Y-13985083D01*
X24060083Y-13512210D01*
X24316000Y-12894372D01*
X24316000Y-12225628D01*
X24060083Y-11607790D01*
X23587210Y-11134917D01*
X22969372Y-10879000D01*
X22300628Y-10879000D01*
X21682790Y-11134917D01*
X21209917Y-11607790D01*
X20954000Y-12225628D01*
X16430051Y-12225628D01*
X16540613Y-12179832D01*
X16699832Y-12020613D01*
X16786000Y-11812584D01*
X16786000Y-11587416D01*
X16699832Y-11379387D01*
X16540613Y-11220168D01*
X16332584Y-11134000D01*
X16107416Y-11134000D01*
X15899387Y-11220168D01*
X15740168Y-11379387D01*
X15654000Y-11587416D01*
X12986000Y-11587416D01*
X12899832Y-11379387D01*
X12740613Y-11220168D01*
X12532584Y-11134000D01*
X12307416Y-11134000D01*
X12099387Y-11220168D01*
X11940168Y-11379387D01*
X11854000Y-11587416D01*
X9186000Y-11587416D01*
X9099832Y-11379387D01*
X8940613Y-11220168D01*
X8732584Y-11134000D01*
X8507416Y-11134000D01*
X8299387Y-11220168D01*
X8140168Y-11379387D01*
X8054000Y-11587416D01*
X5386000Y-11587416D01*
X5299832Y-11379387D01*
X5140613Y-11220168D01*
X4932584Y-11134000D01*
X4707416Y-11134000D01*
X4499387Y-11220168D01*
X4340168Y-11379387D01*
X4254000Y-11587416D01*
X481000Y-11587416D01*
X481000Y-10837416D01*
X2854000Y-10837416D01*
X2854000Y-11062584D01*
X2940168Y-11270613D01*
X3099387Y-11429832D01*
X3307416Y-11516000D01*
X3532584Y-11516000D01*
X3740613Y-11429832D01*
X3899832Y-11270613D01*
X3986000Y-11062584D01*
X3986000Y-10837416D01*
X6654000Y-10837416D01*
X6654000Y-11062584D01*
X6740168Y-11270613D01*
X6899387Y-11429832D01*
X7107416Y-11516000D01*
X7332584Y-11516000D01*
X7540613Y-11429832D01*
X7699832Y-11270613D01*
X7786000Y-11062584D01*
X7786000Y-10837416D01*
X10454000Y-10837416D01*
X10454000Y-11062584D01*
X10540168Y-11270613D01*
X10699387Y-11429832D01*
X10907416Y-11516000D01*
X11132584Y-11516000D01*
X11340613Y-11429832D01*
X11499832Y-11270613D01*
X11586000Y-11062584D01*
X11586000Y-10837416D01*
X14254000Y-10837416D01*
X14254000Y-11062584D01*
X14340168Y-11270613D01*
X14499387Y-11429832D01*
X14707416Y-11516000D01*
X14932584Y-11516000D01*
X15140613Y-11429832D01*
X15299832Y-11270613D01*
X15386000Y-11062584D01*
X15386000Y-10837416D01*
X15299832Y-10629387D01*
X15140613Y-10470168D01*
X14932584Y-10384000D01*
X14707416Y-10384000D01*
X14499387Y-10470168D01*
X14340168Y-10629387D01*
X14254000Y-10837416D01*
X11586000Y-10837416D01*
X11499832Y-10629387D01*
X11340613Y-10470168D01*
X11132584Y-10384000D01*
X10907416Y-10384000D01*
X10699387Y-10470168D01*
X10540168Y-10629387D01*
X10454000Y-10837416D01*
X7786000Y-10837416D01*
X7699832Y-10629387D01*
X7540613Y-10470168D01*
X7332584Y-10384000D01*
X7107416Y-10384000D01*
X6899387Y-10470168D01*
X6740168Y-10629387D01*
X6654000Y-10837416D01*
X3986000Y-10837416D01*
X3899832Y-10629387D01*
X3740613Y-10470168D01*
X3532584Y-10384000D01*
X3307416Y-10384000D01*
X3099387Y-10470168D01*
X2940168Y-10629387D01*
X2854000Y-10837416D01*
X481000Y-10837416D01*
X481000Y-9337416D01*
X4254000Y-9337416D01*
X4254000Y-9562584D01*
X4340168Y-9770613D01*
X4499387Y-9929832D01*
X4707416Y-10016000D01*
X4932584Y-10016000D01*
X5140613Y-9929832D01*
X5299832Y-9770613D01*
X5386000Y-9562584D01*
X5386000Y-9337416D01*
X8054000Y-9337416D01*
X8054000Y-9562584D01*
X8140168Y-9770613D01*
X8299387Y-9929832D01*
X8507416Y-10016000D01*
X8732584Y-10016000D01*
X8940613Y-9929832D01*
X9099832Y-9770613D01*
X9186000Y-9562584D01*
X9186000Y-9337416D01*
X11854000Y-9337416D01*
X11854000Y-9562584D01*
X11940168Y-9770613D01*
X12099387Y-9929832D01*
X12307416Y-10016000D01*
X12532584Y-10016000D01*
X12740613Y-9929832D01*
X12899832Y-9770613D01*
X12986000Y-9562584D01*
X12986000Y-9337416D01*
X15654000Y-9337416D01*
X15654000Y-9562584D01*
X15740168Y-9770613D01*
X15899387Y-9929832D01*
X16107416Y-10016000D01*
X16332584Y-10016000D01*
X16540613Y-9929832D01*
X16699832Y-9770613D01*
X16786000Y-9562584D01*
X16786000Y-9337416D01*
X16699832Y-9129387D01*
X16540613Y-8970168D01*
X16332584Y-8884000D01*
X16107416Y-8884000D01*
X15899387Y-8970168D01*
X15740168Y-9129387D01*
X15654000Y-9337416D01*
X12986000Y-9337416D01*
X12899832Y-9129387D01*
X12740613Y-8970168D01*
X12532584Y-8884000D01*
X12307416Y-8884000D01*
X12099387Y-8970168D01*
X11940168Y-9129387D01*
X11854000Y-9337416D01*
X9186000Y-9337416D01*
X9099832Y-9129387D01*
X8940613Y-8970168D01*
X8732584Y-8884000D01*
X8507416Y-8884000D01*
X8299387Y-8970168D01*
X8140168Y-9129387D01*
X8054000Y-9337416D01*
X5386000Y-9337416D01*
X5299832Y-9129387D01*
X5140613Y-8970168D01*
X4932584Y-8884000D01*
X4707416Y-8884000D01*
X4499387Y-8970168D01*
X4340168Y-9129387D01*
X4254000Y-9337416D01*
X481000Y-9337416D01*
X481000Y-8587416D01*
X2854000Y-8587416D01*
X2854000Y-8812584D01*
X2940168Y-9020613D01*
X3099387Y-9179832D01*
X3307416Y-9266000D01*
X3532584Y-9266000D01*
X3740613Y-9179832D01*
X3899832Y-9020613D01*
X3986000Y-8812584D01*
X3986000Y-8587416D01*
X6654000Y-8587416D01*
X6654000Y-8812584D01*
X6740168Y-9020613D01*
X6899387Y-9179832D01*
X7107416Y-9266000D01*
X7332584Y-9266000D01*
X7540613Y-9179832D01*
X7699832Y-9020613D01*
X7786000Y-8812584D01*
X7786000Y-8587416D01*
X10454000Y-8587416D01*
X10454000Y-8812584D01*
X10540168Y-9020613D01*
X10699387Y-9179832D01*
X10907416Y-9266000D01*
X11132584Y-9266000D01*
X11340613Y-9179832D01*
X11499832Y-9020613D01*
X11586000Y-8812584D01*
X11586000Y-8587416D01*
X14254000Y-8587416D01*
X14254000Y-8812584D01*
X14340168Y-9020613D01*
X14499387Y-9179832D01*
X14707416Y-9266000D01*
X14932584Y-9266000D01*
X15140613Y-9179832D01*
X15299832Y-9020613D01*
X15386000Y-8812584D01*
X15386000Y-8587416D01*
X15300148Y-8380148D01*
X28934716Y-8380148D01*
X28934716Y-8611284D01*
X29023168Y-8824826D01*
X29186606Y-8988264D01*
X29359939Y-9060061D01*
X29431736Y-9233394D01*
X29595174Y-9396832D01*
X29808716Y-9485284D01*
X30039852Y-9485284D01*
X30253394Y-9396832D01*
X30416832Y-9233394D01*
X30505284Y-9019852D01*
X30505284Y-8788716D01*
X30534716Y-8788716D01*
X30534716Y-9019852D01*
X30623168Y-9233394D01*
X30786606Y-9396832D01*
X31000148Y-9485284D01*
X31231284Y-9485284D01*
X31444826Y-9396832D01*
X31608264Y-9233394D01*
X31680061Y-9060061D01*
X31853394Y-8988264D01*
X32016832Y-8824826D01*
X32105284Y-8611284D01*
X32105284Y-8380148D01*
X41734716Y-8380148D01*
X41734716Y-8611284D01*
X41823168Y-8824826D01*
X41986606Y-8988264D01*
X42159939Y-9060061D01*
X42231736Y-9233394D01*
X42395174Y-9396832D01*
X42608716Y-9485284D01*
X42839852Y-9485284D01*
X43053394Y-9396832D01*
X43216832Y-9233394D01*
X43305284Y-9019852D01*
X43305284Y-8788716D01*
X43334716Y-8788716D01*
X43334716Y-9019852D01*
X43423168Y-9233394D01*
X43586606Y-9396832D01*
X43800148Y-9485284D01*
X44031284Y-9485284D01*
X44244826Y-9396832D01*
X44408264Y-9233394D01*
X44480061Y-9060061D01*
X44653394Y-8988264D01*
X44816832Y-8824826D01*
X44905284Y-8611284D01*
X44905284Y-8380148D01*
X46534716Y-8380148D01*
X46534716Y-8611284D01*
X46623168Y-8824826D01*
X46786606Y-8988264D01*
X46959939Y-9060061D01*
X47031736Y-9233394D01*
X47195174Y-9396832D01*
X47408716Y-9485284D01*
X47639852Y-9485284D01*
X47853394Y-9396832D01*
X48016832Y-9233394D01*
X48105284Y-9019852D01*
X48105284Y-8788716D01*
X48134716Y-8788716D01*
X48134716Y-9019852D01*
X48223168Y-9233394D01*
X48386606Y-9396832D01*
X48600148Y-9485284D01*
X48831284Y-9485284D01*
X49044826Y-9396832D01*
X49208264Y-9233394D01*
X49280061Y-9060061D01*
X49453394Y-8988264D01*
X49616832Y-8824826D01*
X49705284Y-8611284D01*
X49705284Y-8380148D01*
X51334716Y-8380148D01*
X51334716Y-8611284D01*
X51423168Y-8824826D01*
X51586606Y-8988264D01*
X51759939Y-9060061D01*
X51831736Y-9233394D01*
X51995174Y-9396832D01*
X52208716Y-9485284D01*
X52439852Y-9485284D01*
X52653394Y-9396832D01*
X52816832Y-9233394D01*
X52905284Y-9019852D01*
X52905284Y-8788716D01*
X52816832Y-8575174D01*
X52653394Y-8411736D01*
X52480061Y-8339939D01*
X52408264Y-8166606D01*
X52244826Y-8003168D01*
X52031284Y-7914716D01*
X51800148Y-7914716D01*
X51586606Y-8003168D01*
X51423168Y-8166606D01*
X51334716Y-8380148D01*
X49705284Y-8380148D01*
X49616832Y-8166606D01*
X49453394Y-8003168D01*
X49239852Y-7914716D01*
X49008716Y-7914716D01*
X48795174Y-8003168D01*
X48631736Y-8166606D01*
X48559939Y-8339939D01*
X48386606Y-8411736D01*
X48223168Y-8575174D01*
X48134716Y-8788716D01*
X48105284Y-8788716D01*
X48016832Y-8575174D01*
X47853394Y-8411736D01*
X47680061Y-8339939D01*
X47608264Y-8166606D01*
X47444826Y-8003168D01*
X47231284Y-7914716D01*
X47000148Y-7914716D01*
X46786606Y-8003168D01*
X46623168Y-8166606D01*
X46534716Y-8380148D01*
X44905284Y-8380148D01*
X44816832Y-8166606D01*
X44653394Y-8003168D01*
X44439852Y-7914716D01*
X44208716Y-7914716D01*
X43995174Y-8003168D01*
X43831736Y-8166606D01*
X43759939Y-8339939D01*
X43586606Y-8411736D01*
X43423168Y-8575174D01*
X43334716Y-8788716D01*
X43305284Y-8788716D01*
X43216832Y-8575174D01*
X43053394Y-8411736D01*
X42880061Y-8339939D01*
X42808264Y-8166606D01*
X42644826Y-8003168D01*
X42431284Y-7914716D01*
X42200148Y-7914716D01*
X41986606Y-8003168D01*
X41823168Y-8166606D01*
X41734716Y-8380148D01*
X32105284Y-8380148D01*
X32016832Y-8166606D01*
X31853394Y-8003168D01*
X31639852Y-7914716D01*
X31408716Y-7914716D01*
X31195174Y-8003168D01*
X31031736Y-8166606D01*
X30959939Y-8339939D01*
X30786606Y-8411736D01*
X30623168Y-8575174D01*
X30534716Y-8788716D01*
X30505284Y-8788716D01*
X30416832Y-8575174D01*
X30253394Y-8411736D01*
X30080061Y-8339939D01*
X30008264Y-8166606D01*
X29844826Y-8003168D01*
X29631284Y-7914716D01*
X29400148Y-7914716D01*
X29186606Y-8003168D01*
X29023168Y-8166606D01*
X28934716Y-8380148D01*
X15300148Y-8380148D01*
X15299832Y-8379387D01*
X15140613Y-8220168D01*
X14932584Y-8134000D01*
X14707416Y-8134000D01*
X14499387Y-8220168D01*
X14340168Y-8379387D01*
X14254000Y-8587416D01*
X11586000Y-8587416D01*
X11499832Y-8379387D01*
X11340613Y-8220168D01*
X11132584Y-8134000D01*
X10907416Y-8134000D01*
X10699387Y-8220168D01*
X10540168Y-8379387D01*
X10454000Y-8587416D01*
X7786000Y-8587416D01*
X7699832Y-8379387D01*
X7540613Y-8220168D01*
X7332584Y-8134000D01*
X7107416Y-8134000D01*
X6899387Y-8220168D01*
X6740168Y-8379387D01*
X6654000Y-8587416D01*
X3986000Y-8587416D01*
X3899832Y-8379387D01*
X3740613Y-8220168D01*
X3532584Y-8134000D01*
X3307416Y-8134000D01*
X3099387Y-8220168D01*
X2940168Y-8379387D01*
X2854000Y-8587416D01*
X481000Y-8587416D01*
X481000Y-5405411D01*
X2639000Y-5405411D01*
X2639000Y-5994589D01*
X2864468Y-6538919D01*
X3281081Y-6955532D01*
X3825411Y-7181000D01*
X4414589Y-7181000D01*
X4958919Y-6955532D01*
X5375532Y-6538919D01*
X5601000Y-5994589D01*
X5601000Y-5405411D01*
X5375532Y-4861081D01*
X4958919Y-4444468D01*
X4414589Y-4219000D01*
X3825411Y-4219000D01*
X3281081Y-4444468D01*
X2864468Y-4861081D01*
X2639000Y-5405411D01*
X481000Y-5405411D01*
X481000Y-3226889D01*
X551510Y-2598280D01*
X750638Y-2026462D01*
X1071502Y-1512972D01*
X1498154Y-1083331D01*
X2009388Y-758891D01*
X2579805Y-555776D01*
X3206887Y-481000D01*
X54073000Y-481000D01*
X54073000Y-7928446D01*
X54073000Y-7928446D01*
G37*
X54073000Y-7928446D02*
X54039852Y-7914716D01*
X53808716Y-7914716D01*
X53595174Y-8003168D01*
X53431736Y-8166606D01*
X53359939Y-8339939D01*
X53186606Y-8411736D01*
X53023168Y-8575174D01*
X52934716Y-8788716D01*
X52934716Y-9019852D01*
X53023168Y-9233394D01*
X53186606Y-9396832D01*
X53400148Y-9485284D01*
X53631284Y-9485284D01*
X53844826Y-9396832D01*
X54008264Y-9233394D01*
X54073000Y-9077108D01*
X54073000Y-23928446D01*
X54039852Y-23914716D01*
X53808716Y-23914716D01*
X53595174Y-24003168D01*
X53431736Y-24166606D01*
X53359939Y-24339939D01*
X53186606Y-24411736D01*
X53023168Y-24575174D01*
X52934716Y-24788716D01*
X52934716Y-25019852D01*
X53023168Y-25233394D01*
X53186606Y-25396832D01*
X53400148Y-25485284D01*
X53631284Y-25485284D01*
X53844826Y-25396832D01*
X54008264Y-25233394D01*
X54073000Y-25077108D01*
X54073000Y-39928446D01*
X54039852Y-39914716D01*
X53808716Y-39914716D01*
X53595174Y-40003168D01*
X53431736Y-40166606D01*
X53359939Y-40339939D01*
X53186606Y-40411736D01*
X53023168Y-40575174D01*
X52934716Y-40788716D01*
X52934716Y-41019852D01*
X53023168Y-41233394D01*
X53186606Y-41396832D01*
X53400148Y-41485284D01*
X53631284Y-41485284D01*
X53844826Y-41396832D01*
X54008264Y-41233394D01*
X54073000Y-41077108D01*
X54073000Y-55928446D01*
X54039852Y-55914716D01*
X53808716Y-55914716D01*
X53595174Y-56003168D01*
X53431736Y-56166606D01*
X53359939Y-56339939D01*
X53186606Y-56411736D01*
X53023168Y-56575174D01*
X52934716Y-56788716D01*
X52934716Y-57019852D01*
X53023168Y-57233394D01*
X53186606Y-57396832D01*
X53400148Y-57485284D01*
X53631284Y-57485284D01*
X53844826Y-57396832D01*
X54008264Y-57233394D01*
X54073000Y-57077108D01*
X54073000Y-71319000D01*
X3226889Y-71319000D01*
X2598280Y-71248490D01*
X2026462Y-71049362D01*
X1512972Y-70728498D01*
X1083331Y-70301846D01*
X758891Y-69790612D01*
X555776Y-69220195D01*
X481000Y-68593112D01*
X481000Y-65405411D01*
X2639000Y-65405411D01*
X2639000Y-65994589D01*
X2864468Y-66538919D01*
X3281081Y-66955532D01*
X3825411Y-67181000D01*
X4414589Y-67181000D01*
X4958919Y-66955532D01*
X5375532Y-66538919D01*
X5601000Y-65994589D01*
X5601000Y-65405411D01*
X5542695Y-65264649D01*
X46934000Y-65264649D01*
X46934000Y-65575351D01*
X47052900Y-65862401D01*
X47272599Y-66082100D01*
X47559649Y-66201000D01*
X47870351Y-66201000D01*
X48157401Y-66082100D01*
X48337500Y-65902001D01*
X48542599Y-66107100D01*
X48829649Y-66226000D01*
X49140351Y-66226000D01*
X49427401Y-66107100D01*
X49620000Y-65914501D01*
X49812599Y-66107100D01*
X50099649Y-66226000D01*
X50410351Y-66226000D01*
X50697401Y-66107100D01*
X50917100Y-65887401D01*
X51036000Y-65600351D01*
X51036000Y-65289649D01*
X50917100Y-65002599D01*
X50697401Y-64782900D01*
X50410351Y-64664000D01*
X50099649Y-64664000D01*
X49812599Y-64782900D01*
X49620000Y-64975499D01*
X49427401Y-64782900D01*
X49140351Y-64664000D01*
X48829649Y-64664000D01*
X48542599Y-64782900D01*
X48362500Y-64962999D01*
X48157401Y-64757900D01*
X47870351Y-64639000D01*
X47559649Y-64639000D01*
X47272599Y-64757900D01*
X47052900Y-64977599D01*
X46934000Y-65264649D01*
X5542695Y-65264649D01*
X5375532Y-64861081D01*
X4958919Y-64444468D01*
X4414589Y-64219000D01*
X3825411Y-64219000D01*
X3281081Y-64444468D01*
X2864468Y-64861081D01*
X2639000Y-65405411D01*
X481000Y-65405411D01*
X481000Y-61837416D01*
X4254000Y-61837416D01*
X4254000Y-62062584D01*
X4340168Y-62270613D01*
X4499387Y-62429832D01*
X4707416Y-62516000D01*
X4932584Y-62516000D01*
X5140613Y-62429832D01*
X5299832Y-62270613D01*
X5386000Y-62062584D01*
X5386000Y-61837416D01*
X8054000Y-61837416D01*
X8054000Y-62062584D01*
X8140168Y-62270613D01*
X8299387Y-62429832D01*
X8507416Y-62516000D01*
X8732584Y-62516000D01*
X8940613Y-62429832D01*
X9099832Y-62270613D01*
X9186000Y-62062584D01*
X9186000Y-61837416D01*
X11854000Y-61837416D01*
X11854000Y-62062584D01*
X11940168Y-62270613D01*
X12099387Y-62429832D01*
X12307416Y-62516000D01*
X12532584Y-62516000D01*
X12740613Y-62429832D01*
X12899832Y-62270613D01*
X12986000Y-62062584D01*
X12986000Y-61837416D01*
X15654000Y-61837416D01*
X15654000Y-62062584D01*
X15740168Y-62270613D01*
X15899387Y-62429832D01*
X16107416Y-62516000D01*
X16332584Y-62516000D01*
X16540613Y-62429832D01*
X16699832Y-62270613D01*
X16786000Y-62062584D01*
X16786000Y-61837416D01*
X16699832Y-61629387D01*
X16540613Y-61470168D01*
X16332584Y-61384000D01*
X16107416Y-61384000D01*
X15899387Y-61470168D01*
X15740168Y-61629387D01*
X15654000Y-61837416D01*
X12986000Y-61837416D01*
X12899832Y-61629387D01*
X12740613Y-61470168D01*
X12532584Y-61384000D01*
X12307416Y-61384000D01*
X12099387Y-61470168D01*
X11940168Y-61629387D01*
X11854000Y-61837416D01*
X9186000Y-61837416D01*
X9099832Y-61629387D01*
X8940613Y-61470168D01*
X8732584Y-61384000D01*
X8507416Y-61384000D01*
X8299387Y-61470168D01*
X8140168Y-61629387D01*
X8054000Y-61837416D01*
X5386000Y-61837416D01*
X5299832Y-61629387D01*
X5140613Y-61470168D01*
X4932584Y-61384000D01*
X4707416Y-61384000D01*
X4499387Y-61470168D01*
X4340168Y-61629387D01*
X4254000Y-61837416D01*
X481000Y-61837416D01*
X481000Y-61087416D01*
X2854000Y-61087416D01*
X2854000Y-61312584D01*
X2940168Y-61520613D01*
X3099387Y-61679832D01*
X3307416Y-61766000D01*
X3532584Y-61766000D01*
X3740613Y-61679832D01*
X3899832Y-61520613D01*
X3986000Y-61312584D01*
X3986000Y-61087416D01*
X6654000Y-61087416D01*
X6654000Y-61312584D01*
X6740168Y-61520613D01*
X6899387Y-61679832D01*
X7107416Y-61766000D01*
X7332584Y-61766000D01*
X7540613Y-61679832D01*
X7699832Y-61520613D01*
X7786000Y-61312584D01*
X7786000Y-61087416D01*
X10454000Y-61087416D01*
X10454000Y-61312584D01*
X10540168Y-61520613D01*
X10699387Y-61679832D01*
X10907416Y-61766000D01*
X11132584Y-61766000D01*
X11340613Y-61679832D01*
X11499832Y-61520613D01*
X11586000Y-61312584D01*
X11586000Y-61087416D01*
X14254000Y-61087416D01*
X14254000Y-61312584D01*
X14340168Y-61520613D01*
X14499387Y-61679832D01*
X14707416Y-61766000D01*
X14932584Y-61766000D01*
X15140613Y-61679832D01*
X15299832Y-61520613D01*
X15386000Y-61312584D01*
X15386000Y-61087416D01*
X15299832Y-60879387D01*
X15140613Y-60720168D01*
X14932584Y-60634000D01*
X14707416Y-60634000D01*
X14499387Y-60720168D01*
X14340168Y-60879387D01*
X14254000Y-61087416D01*
X11586000Y-61087416D01*
X11499832Y-60879387D01*
X11340613Y-60720168D01*
X11132584Y-60634000D01*
X10907416Y-60634000D01*
X10699387Y-60720168D01*
X10540168Y-60879387D01*
X10454000Y-61087416D01*
X7786000Y-61087416D01*
X7699832Y-60879387D01*
X7540613Y-60720168D01*
X7332584Y-60634000D01*
X7107416Y-60634000D01*
X6899387Y-60720168D01*
X6740168Y-60879387D01*
X6654000Y-61087416D01*
X3986000Y-61087416D01*
X3899832Y-60879387D01*
X3740613Y-60720168D01*
X3532584Y-60634000D01*
X3307416Y-60634000D01*
X3099387Y-60720168D01*
X2940168Y-60879387D01*
X2854000Y-61087416D01*
X481000Y-61087416D01*
X481000Y-59587416D01*
X4254000Y-59587416D01*
X4254000Y-59812584D01*
X4340168Y-60020613D01*
X4499387Y-60179832D01*
X4707416Y-60266000D01*
X4932584Y-60266000D01*
X5140613Y-60179832D01*
X5299832Y-60020613D01*
X5386000Y-59812584D01*
X5386000Y-59587416D01*
X8054000Y-59587416D01*
X8054000Y-59812584D01*
X8140168Y-60020613D01*
X8299387Y-60179832D01*
X8507416Y-60266000D01*
X8732584Y-60266000D01*
X8940613Y-60179832D01*
X9099832Y-60020613D01*
X9186000Y-59812584D01*
X9186000Y-59587416D01*
X11854000Y-59587416D01*
X11854000Y-59812584D01*
X11940168Y-60020613D01*
X12099387Y-60179832D01*
X12307416Y-60266000D01*
X12532584Y-60266000D01*
X12740613Y-60179832D01*
X12899832Y-60020613D01*
X12986000Y-59812584D01*
X12986000Y-59587416D01*
X15654000Y-59587416D01*
X15654000Y-59812584D01*
X15740168Y-60020613D01*
X15899387Y-60179832D01*
X16107416Y-60266000D01*
X16332584Y-60266000D01*
X16430051Y-60225628D01*
X20954000Y-60225628D01*
X20954000Y-60894372D01*
X21209917Y-61512210D01*
X21682790Y-61985083D01*
X22300628Y-62241000D01*
X22969372Y-62241000D01*
X23587210Y-61985083D01*
X24060083Y-61512210D01*
X24316000Y-60894372D01*
X24316000Y-60225628D01*
X24060083Y-59607790D01*
X23587210Y-59134917D01*
X22969372Y-58879000D01*
X22300628Y-58879000D01*
X21682790Y-59134917D01*
X21209917Y-59607790D01*
X20954000Y-60225628D01*
X16430051Y-60225628D01*
X16540613Y-60179832D01*
X16699832Y-60020613D01*
X16786000Y-59812584D01*
X16786000Y-59587416D01*
X16699832Y-59379387D01*
X16540613Y-59220168D01*
X16332584Y-59134000D01*
X16107416Y-59134000D01*
X15899387Y-59220168D01*
X15740168Y-59379387D01*
X15654000Y-59587416D01*
X12986000Y-59587416D01*
X12899832Y-59379387D01*
X12740613Y-59220168D01*
X12532584Y-59134000D01*
X12307416Y-59134000D01*
X12099387Y-59220168D01*
X11940168Y-59379387D01*
X11854000Y-59587416D01*
X9186000Y-59587416D01*
X9099832Y-59379387D01*
X8940613Y-59220168D01*
X8732584Y-59134000D01*
X8507416Y-59134000D01*
X8299387Y-59220168D01*
X8140168Y-59379387D01*
X8054000Y-59587416D01*
X5386000Y-59587416D01*
X5299832Y-59379387D01*
X5140613Y-59220168D01*
X4932584Y-59134000D01*
X4707416Y-59134000D01*
X4499387Y-59220168D01*
X4340168Y-59379387D01*
X4254000Y-59587416D01*
X481000Y-59587416D01*
X481000Y-58837416D01*
X2854000Y-58837416D01*
X2854000Y-59062584D01*
X2940168Y-59270613D01*
X3099387Y-59429832D01*
X3307416Y-59516000D01*
X3532584Y-59516000D01*
X3740613Y-59429832D01*
X3899832Y-59270613D01*
X3986000Y-59062584D01*
X3986000Y-58837416D01*
X6654000Y-58837416D01*
X6654000Y-59062584D01*
X6740168Y-59270613D01*
X6899387Y-59429832D01*
X7107416Y-59516000D01*
X7332584Y-59516000D01*
X7540613Y-59429832D01*
X7699832Y-59270613D01*
X7786000Y-59062584D01*
X7786000Y-58837416D01*
X10454000Y-58837416D01*
X10454000Y-59062584D01*
X10540168Y-59270613D01*
X10699387Y-59429832D01*
X10907416Y-59516000D01*
X11132584Y-59516000D01*
X11340613Y-59429832D01*
X11499832Y-59270613D01*
X11586000Y-59062584D01*
X11586000Y-58837416D01*
X14254000Y-58837416D01*
X14254000Y-59062584D01*
X14340168Y-59270613D01*
X14499387Y-59429832D01*
X14707416Y-59516000D01*
X14932584Y-59516000D01*
X15140613Y-59429832D01*
X15299832Y-59270613D01*
X15386000Y-59062584D01*
X15386000Y-58837416D01*
X15299832Y-58629387D01*
X15140613Y-58470168D01*
X14932584Y-58384000D01*
X14707416Y-58384000D01*
X14499387Y-58470168D01*
X14340168Y-58629387D01*
X14254000Y-58837416D01*
X11586000Y-58837416D01*
X11499832Y-58629387D01*
X11340613Y-58470168D01*
X11132584Y-58384000D01*
X10907416Y-58384000D01*
X10699387Y-58470168D01*
X10540168Y-58629387D01*
X10454000Y-58837416D01*
X7786000Y-58837416D01*
X7699832Y-58629387D01*
X7540613Y-58470168D01*
X7332584Y-58384000D01*
X7107416Y-58384000D01*
X6899387Y-58470168D01*
X6740168Y-58629387D01*
X6654000Y-58837416D01*
X3986000Y-58837416D01*
X3899832Y-58629387D01*
X3740613Y-58470168D01*
X3532584Y-58384000D01*
X3307416Y-58384000D01*
X3099387Y-58470168D01*
X2940168Y-58629387D01*
X2854000Y-58837416D01*
X481000Y-58837416D01*
X481000Y-57337416D01*
X4254000Y-57337416D01*
X4254000Y-57562584D01*
X4340168Y-57770613D01*
X4499387Y-57929832D01*
X4707416Y-58016000D01*
X4932584Y-58016000D01*
X5140613Y-57929832D01*
X5299832Y-57770613D01*
X5386000Y-57562584D01*
X5386000Y-57337416D01*
X8054000Y-57337416D01*
X8054000Y-57562584D01*
X8140168Y-57770613D01*
X8299387Y-57929832D01*
X8507416Y-58016000D01*
X8732584Y-58016000D01*
X8940613Y-57929832D01*
X9099832Y-57770613D01*
X9186000Y-57562584D01*
X9186000Y-57337416D01*
X11854000Y-57337416D01*
X11854000Y-57562584D01*
X11940168Y-57770613D01*
X12099387Y-57929832D01*
X12307416Y-58016000D01*
X12532584Y-58016000D01*
X12740613Y-57929832D01*
X12899832Y-57770613D01*
X12986000Y-57562584D01*
X12986000Y-57337416D01*
X15654000Y-57337416D01*
X15654000Y-57562584D01*
X15740168Y-57770613D01*
X15899387Y-57929832D01*
X16107416Y-58016000D01*
X16332584Y-58016000D01*
X16540613Y-57929832D01*
X16699832Y-57770613D01*
X16786000Y-57562584D01*
X16786000Y-57337416D01*
X16699832Y-57129387D01*
X16540613Y-56970168D01*
X16332584Y-56884000D01*
X16107416Y-56884000D01*
X15899387Y-56970168D01*
X15740168Y-57129387D01*
X15654000Y-57337416D01*
X12986000Y-57337416D01*
X12899832Y-57129387D01*
X12740613Y-56970168D01*
X12532584Y-56884000D01*
X12307416Y-56884000D01*
X12099387Y-56970168D01*
X11940168Y-57129387D01*
X11854000Y-57337416D01*
X9186000Y-57337416D01*
X9099832Y-57129387D01*
X8940613Y-56970168D01*
X8732584Y-56884000D01*
X8507416Y-56884000D01*
X8299387Y-56970168D01*
X8140168Y-57129387D01*
X8054000Y-57337416D01*
X5386000Y-57337416D01*
X5299832Y-57129387D01*
X5140613Y-56970168D01*
X4932584Y-56884000D01*
X4707416Y-56884000D01*
X4499387Y-56970168D01*
X4340168Y-57129387D01*
X4254000Y-57337416D01*
X481000Y-57337416D01*
X481000Y-56587416D01*
X2854000Y-56587416D01*
X2854000Y-56812584D01*
X2940168Y-57020613D01*
X3099387Y-57179832D01*
X3307416Y-57266000D01*
X3532584Y-57266000D01*
X3740613Y-57179832D01*
X3899832Y-57020613D01*
X3986000Y-56812584D01*
X3986000Y-56587416D01*
X6654000Y-56587416D01*
X6654000Y-56812584D01*
X6740168Y-57020613D01*
X6899387Y-57179832D01*
X7107416Y-57266000D01*
X7332584Y-57266000D01*
X7540613Y-57179832D01*
X7699832Y-57020613D01*
X7786000Y-56812584D01*
X7786000Y-56587416D01*
X10454000Y-56587416D01*
X10454000Y-56812584D01*
X10540168Y-57020613D01*
X10699387Y-57179832D01*
X10907416Y-57266000D01*
X11132584Y-57266000D01*
X11340613Y-57179832D01*
X11499832Y-57020613D01*
X11586000Y-56812584D01*
X11586000Y-56587416D01*
X14254000Y-56587416D01*
X14254000Y-56812584D01*
X14340168Y-57020613D01*
X14499387Y-57179832D01*
X14707416Y-57266000D01*
X14932584Y-57266000D01*
X15140613Y-57179832D01*
X15299832Y-57020613D01*
X15386000Y-56812584D01*
X15386000Y-56587416D01*
X15300148Y-56380148D01*
X28934716Y-56380148D01*
X28934716Y-56611284D01*
X29023168Y-56824826D01*
X29186606Y-56988264D01*
X29359939Y-57060061D01*
X29431736Y-57233394D01*
X29595174Y-57396832D01*
X29808716Y-57485284D01*
X30039852Y-57485284D01*
X30253394Y-57396832D01*
X30416832Y-57233394D01*
X30505284Y-57019852D01*
X30505284Y-56788716D01*
X30534716Y-56788716D01*
X30534716Y-57019852D01*
X30623168Y-57233394D01*
X30786606Y-57396832D01*
X31000148Y-57485284D01*
X31231284Y-57485284D01*
X31444826Y-57396832D01*
X31608264Y-57233394D01*
X31680061Y-57060061D01*
X31853394Y-56988264D01*
X32016832Y-56824826D01*
X32105284Y-56611284D01*
X32105284Y-56380148D01*
X41734716Y-56380148D01*
X41734716Y-56611284D01*
X41823168Y-56824826D01*
X41986606Y-56988264D01*
X42159939Y-57060061D01*
X42231736Y-57233394D01*
X42395174Y-57396832D01*
X42608716Y-57485284D01*
X42839852Y-57485284D01*
X43053394Y-57396832D01*
X43216832Y-57233394D01*
X43305284Y-57019852D01*
X43305284Y-56788716D01*
X43334716Y-56788716D01*
X43334716Y-57019852D01*
X43423168Y-57233394D01*
X43586606Y-57396832D01*
X43800148Y-57485284D01*
X44031284Y-57485284D01*
X44244826Y-57396832D01*
X44408264Y-57233394D01*
X44480061Y-57060061D01*
X44653394Y-56988264D01*
X44816832Y-56824826D01*
X44905284Y-56611284D01*
X44905284Y-56380148D01*
X46534716Y-56380148D01*
X46534716Y-56611284D01*
X46623168Y-56824826D01*
X46786606Y-56988264D01*
X46959939Y-57060061D01*
X47031736Y-57233394D01*
X47195174Y-57396832D01*
X47408716Y-57485284D01*
X47639852Y-57485284D01*
X47853394Y-57396832D01*
X48016832Y-57233394D01*
X48105284Y-57019852D01*
X48105284Y-56788716D01*
X48134716Y-56788716D01*
X48134716Y-57019852D01*
X48223168Y-57233394D01*
X48386606Y-57396832D01*
X48600148Y-57485284D01*
X48831284Y-57485284D01*
X49044826Y-57396832D01*
X49208264Y-57233394D01*
X49280061Y-57060061D01*
X49453394Y-56988264D01*
X49616832Y-56824826D01*
X49705284Y-56611284D01*
X49705284Y-56380148D01*
X51334716Y-56380148D01*
X51334716Y-56611284D01*
X51423168Y-56824826D01*
X51586606Y-56988264D01*
X51759939Y-57060061D01*
X51831736Y-57233394D01*
X51995174Y-57396832D01*
X52208716Y-57485284D01*
X52439852Y-57485284D01*
X52653394Y-57396832D01*
X52816832Y-57233394D01*
X52905284Y-57019852D01*
X52905284Y-56788716D01*
X52816832Y-56575174D01*
X52653394Y-56411736D01*
X52480061Y-56339939D01*
X52408264Y-56166606D01*
X52244826Y-56003168D01*
X52031284Y-55914716D01*
X51800148Y-55914716D01*
X51586606Y-56003168D01*
X51423168Y-56166606D01*
X51334716Y-56380148D01*
X49705284Y-56380148D01*
X49616832Y-56166606D01*
X49453394Y-56003168D01*
X49239852Y-55914716D01*
X49008716Y-55914716D01*
X48795174Y-56003168D01*
X48631736Y-56166606D01*
X48559939Y-56339939D01*
X48386606Y-56411736D01*
X48223168Y-56575174D01*
X48134716Y-56788716D01*
X48105284Y-56788716D01*
X48016832Y-56575174D01*
X47853394Y-56411736D01*
X47680061Y-56339939D01*
X47608264Y-56166606D01*
X47444826Y-56003168D01*
X47231284Y-55914716D01*
X47000148Y-55914716D01*
X46786606Y-56003168D01*
X46623168Y-56166606D01*
X46534716Y-56380148D01*
X44905284Y-56380148D01*
X44816832Y-56166606D01*
X44653394Y-56003168D01*
X44439852Y-55914716D01*
X44208716Y-55914716D01*
X43995174Y-56003168D01*
X43831736Y-56166606D01*
X43759939Y-56339939D01*
X43586606Y-56411736D01*
X43423168Y-56575174D01*
X43334716Y-56788716D01*
X43305284Y-56788716D01*
X43216832Y-56575174D01*
X43053394Y-56411736D01*
X42880061Y-56339939D01*
X42808264Y-56166606D01*
X42644826Y-56003168D01*
X42431284Y-55914716D01*
X42200148Y-55914716D01*
X41986606Y-56003168D01*
X41823168Y-56166606D01*
X41734716Y-56380148D01*
X32105284Y-56380148D01*
X32016832Y-56166606D01*
X31853394Y-56003168D01*
X31639852Y-55914716D01*
X31408716Y-55914716D01*
X31195174Y-56003168D01*
X31031736Y-56166606D01*
X30959939Y-56339939D01*
X30786606Y-56411736D01*
X30623168Y-56575174D01*
X30534716Y-56788716D01*
X30505284Y-56788716D01*
X30416832Y-56575174D01*
X30253394Y-56411736D01*
X30080061Y-56339939D01*
X30008264Y-56166606D01*
X29844826Y-56003168D01*
X29631284Y-55914716D01*
X29400148Y-55914716D01*
X29186606Y-56003168D01*
X29023168Y-56166606D01*
X28934716Y-56380148D01*
X15300148Y-56380148D01*
X15299832Y-56379387D01*
X15140613Y-56220168D01*
X14932584Y-56134000D01*
X14707416Y-56134000D01*
X14499387Y-56220168D01*
X14340168Y-56379387D01*
X14254000Y-56587416D01*
X11586000Y-56587416D01*
X11499832Y-56379387D01*
X11340613Y-56220168D01*
X11132584Y-56134000D01*
X10907416Y-56134000D01*
X10699387Y-56220168D01*
X10540168Y-56379387D01*
X10454000Y-56587416D01*
X7786000Y-56587416D01*
X7699832Y-56379387D01*
X7540613Y-56220168D01*
X7332584Y-56134000D01*
X7107416Y-56134000D01*
X6899387Y-56220168D01*
X6740168Y-56379387D01*
X6654000Y-56587416D01*
X3986000Y-56587416D01*
X3899832Y-56379387D01*
X3740613Y-56220168D01*
X3532584Y-56134000D01*
X3307416Y-56134000D01*
X3099387Y-56220168D01*
X2940168Y-56379387D01*
X2854000Y-56587416D01*
X481000Y-56587416D01*
X481000Y-55047373D01*
X490423Y-55000000D01*
X453092Y-54812323D01*
X346781Y-54653219D01*
X187677Y-54546908D01*
X47373Y-54519000D01*
X0Y-54509577D01*
X-47373Y-54519000D01*
X-1562145Y-54519000D01*
X-1943938Y-54458530D01*
X-2254206Y-54300440D01*
X-2500439Y-54054208D01*
X-2658529Y-53743938D01*
X-2712147Y-53405411D01*
X2639000Y-53405411D01*
X2639000Y-53994589D01*
X2864468Y-54538919D01*
X3281081Y-54955532D01*
X3825411Y-55181000D01*
X4414589Y-55181000D01*
X4958919Y-54955532D01*
X5375532Y-54538919D01*
X5601000Y-53994589D01*
X5601000Y-53405411D01*
X5375532Y-52861081D01*
X4958919Y-52444468D01*
X4414589Y-52219000D01*
X3825411Y-52219000D01*
X3281081Y-52444468D01*
X2864468Y-52861081D01*
X2639000Y-53405411D01*
X-2712147Y-53405411D01*
X-2719000Y-53362145D01*
X-2719000Y-49405411D01*
X2639000Y-49405411D01*
X2639000Y-49994589D01*
X2864468Y-50538919D01*
X3281081Y-50955532D01*
X3825411Y-51181000D01*
X4414589Y-51181000D01*
X4958919Y-50955532D01*
X5375532Y-50538919D01*
X5601000Y-49994589D01*
X5601000Y-49405411D01*
X5542695Y-49264649D01*
X46934000Y-49264649D01*
X46934000Y-49575351D01*
X47052900Y-49862401D01*
X47272599Y-50082100D01*
X47559649Y-50201000D01*
X47870351Y-50201000D01*
X48157401Y-50082100D01*
X48337500Y-49902001D01*
X48542599Y-50107100D01*
X48829649Y-50226000D01*
X49140351Y-50226000D01*
X49427401Y-50107100D01*
X49620000Y-49914501D01*
X49812599Y-50107100D01*
X50099649Y-50226000D01*
X50410351Y-50226000D01*
X50697401Y-50107100D01*
X50917100Y-49887401D01*
X51036000Y-49600351D01*
X51036000Y-49289649D01*
X50917100Y-49002599D01*
X50697401Y-48782900D01*
X50410351Y-48664000D01*
X50099649Y-48664000D01*
X49812599Y-48782900D01*
X49620000Y-48975499D01*
X49427401Y-48782900D01*
X49140351Y-48664000D01*
X48829649Y-48664000D01*
X48542599Y-48782900D01*
X48362500Y-48962999D01*
X48157401Y-48757900D01*
X47870351Y-48639000D01*
X47559649Y-48639000D01*
X47272599Y-48757900D01*
X47052900Y-48977599D01*
X46934000Y-49264649D01*
X5542695Y-49264649D01*
X5375532Y-48861081D01*
X4958919Y-48444468D01*
X4414589Y-48219000D01*
X3825411Y-48219000D01*
X3281081Y-48444468D01*
X2864468Y-48861081D01*
X2639000Y-49405411D01*
X-2719000Y-49405411D01*
X-2719000Y-45837416D01*
X4254000Y-45837416D01*
X4254000Y-46062584D01*
X4340168Y-46270613D01*
X4499387Y-46429832D01*
X4707416Y-46516000D01*
X4932584Y-46516000D01*
X5140613Y-46429832D01*
X5299832Y-46270613D01*
X5386000Y-46062584D01*
X5386000Y-45837416D01*
X8054000Y-45837416D01*
X8054000Y-46062584D01*
X8140168Y-46270613D01*
X8299387Y-46429832D01*
X8507416Y-46516000D01*
X8732584Y-46516000D01*
X8940613Y-46429832D01*
X9099832Y-46270613D01*
X9186000Y-46062584D01*
X9186000Y-45837416D01*
X11854000Y-45837416D01*
X11854000Y-46062584D01*
X11940168Y-46270613D01*
X12099387Y-46429832D01*
X12307416Y-46516000D01*
X12532584Y-46516000D01*
X12740613Y-46429832D01*
X12899832Y-46270613D01*
X12986000Y-46062584D01*
X12986000Y-45837416D01*
X15654000Y-45837416D01*
X15654000Y-46062584D01*
X15740168Y-46270613D01*
X15899387Y-46429832D01*
X16107416Y-46516000D01*
X16332584Y-46516000D01*
X16540613Y-46429832D01*
X16699832Y-46270613D01*
X16786000Y-46062584D01*
X16786000Y-45837416D01*
X16699832Y-45629387D01*
X16540613Y-45470168D01*
X16332584Y-45384000D01*
X16107416Y-45384000D01*
X15899387Y-45470168D01*
X15740168Y-45629387D01*
X15654000Y-45837416D01*
X12986000Y-45837416D01*
X12899832Y-45629387D01*
X12740613Y-45470168D01*
X12532584Y-45384000D01*
X12307416Y-45384000D01*
X12099387Y-45470168D01*
X11940168Y-45629387D01*
X11854000Y-45837416D01*
X9186000Y-45837416D01*
X9099832Y-45629387D01*
X8940613Y-45470168D01*
X8732584Y-45384000D01*
X8507416Y-45384000D01*
X8299387Y-45470168D01*
X8140168Y-45629387D01*
X8054000Y-45837416D01*
X5386000Y-45837416D01*
X5299832Y-45629387D01*
X5140613Y-45470168D01*
X4932584Y-45384000D01*
X4707416Y-45384000D01*
X4499387Y-45470168D01*
X4340168Y-45629387D01*
X4254000Y-45837416D01*
X-2719000Y-45837416D01*
X-2719000Y-45087416D01*
X2854000Y-45087416D01*
X2854000Y-45312584D01*
X2940168Y-45520613D01*
X3099387Y-45679832D01*
X3307416Y-45766000D01*
X3532584Y-45766000D01*
X3740613Y-45679832D01*
X3899832Y-45520613D01*
X3986000Y-45312584D01*
X3986000Y-45087416D01*
X6654000Y-45087416D01*
X6654000Y-45312584D01*
X6740168Y-45520613D01*
X6899387Y-45679832D01*
X7107416Y-45766000D01*
X7332584Y-45766000D01*
X7540613Y-45679832D01*
X7699832Y-45520613D01*
X7786000Y-45312584D01*
X7786000Y-45087416D01*
X10454000Y-45087416D01*
X10454000Y-45312584D01*
X10540168Y-45520613D01*
X10699387Y-45679832D01*
X10907416Y-45766000D01*
X11132584Y-45766000D01*
X11340613Y-45679832D01*
X11499832Y-45520613D01*
X11586000Y-45312584D01*
X11586000Y-45087416D01*
X14254000Y-45087416D01*
X14254000Y-45312584D01*
X14340168Y-45520613D01*
X14499387Y-45679832D01*
X14707416Y-45766000D01*
X14932584Y-45766000D01*
X15140613Y-45679832D01*
X15299832Y-45520613D01*
X15386000Y-45312584D01*
X15386000Y-45087416D01*
X15299832Y-44879387D01*
X15140613Y-44720168D01*
X14932584Y-44634000D01*
X14707416Y-44634000D01*
X14499387Y-44720168D01*
X14340168Y-44879387D01*
X14254000Y-45087416D01*
X11586000Y-45087416D01*
X11499832Y-44879387D01*
X11340613Y-44720168D01*
X11132584Y-44634000D01*
X10907416Y-44634000D01*
X10699387Y-44720168D01*
X10540168Y-44879387D01*
X10454000Y-45087416D01*
X7786000Y-45087416D01*
X7699832Y-44879387D01*
X7540613Y-44720168D01*
X7332584Y-44634000D01*
X7107416Y-44634000D01*
X6899387Y-44720168D01*
X6740168Y-44879387D01*
X6654000Y-45087416D01*
X3986000Y-45087416D01*
X3899832Y-44879387D01*
X3740613Y-44720168D01*
X3532584Y-44634000D01*
X3307416Y-44634000D01*
X3099387Y-44720168D01*
X2940168Y-44879387D01*
X2854000Y-45087416D01*
X-2719000Y-45087416D01*
X-2719000Y-43587416D01*
X4254000Y-43587416D01*
X4254000Y-43812584D01*
X4340168Y-44020613D01*
X4499387Y-44179832D01*
X4707416Y-44266000D01*
X4932584Y-44266000D01*
X5140613Y-44179832D01*
X5299832Y-44020613D01*
X5386000Y-43812584D01*
X5386000Y-43587416D01*
X8054000Y-43587416D01*
X8054000Y-43812584D01*
X8140168Y-44020613D01*
X8299387Y-44179832D01*
X8507416Y-44266000D01*
X8732584Y-44266000D01*
X8940613Y-44179832D01*
X9099832Y-44020613D01*
X9186000Y-43812584D01*
X9186000Y-43587416D01*
X11854000Y-43587416D01*
X11854000Y-43812584D01*
X11940168Y-44020613D01*
X12099387Y-44179832D01*
X12307416Y-44266000D01*
X12532584Y-44266000D01*
X12740613Y-44179832D01*
X12899832Y-44020613D01*
X12986000Y-43812584D01*
X12986000Y-43587416D01*
X15654000Y-43587416D01*
X15654000Y-43812584D01*
X15740168Y-44020613D01*
X15899387Y-44179832D01*
X16107416Y-44266000D01*
X16332584Y-44266000D01*
X16430051Y-44225628D01*
X20954000Y-44225628D01*
X20954000Y-44894372D01*
X21209917Y-45512210D01*
X21682790Y-45985083D01*
X22300628Y-46241000D01*
X22969372Y-46241000D01*
X23587210Y-45985083D01*
X24060083Y-45512210D01*
X24316000Y-44894372D01*
X24316000Y-44225628D01*
X24060083Y-43607790D01*
X23587210Y-43134917D01*
X22969372Y-42879000D01*
X22300628Y-42879000D01*
X21682790Y-43134917D01*
X21209917Y-43607790D01*
X20954000Y-44225628D01*
X16430051Y-44225628D01*
X16540613Y-44179832D01*
X16699832Y-44020613D01*
X16786000Y-43812584D01*
X16786000Y-43587416D01*
X16699832Y-43379387D01*
X16540613Y-43220168D01*
X16332584Y-43134000D01*
X16107416Y-43134000D01*
X15899387Y-43220168D01*
X15740168Y-43379387D01*
X15654000Y-43587416D01*
X12986000Y-43587416D01*
X12899832Y-43379387D01*
X12740613Y-43220168D01*
X12532584Y-43134000D01*
X12307416Y-43134000D01*
X12099387Y-43220168D01*
X11940168Y-43379387D01*
X11854000Y-43587416D01*
X9186000Y-43587416D01*
X9099832Y-43379387D01*
X8940613Y-43220168D01*
X8732584Y-43134000D01*
X8507416Y-43134000D01*
X8299387Y-43220168D01*
X8140168Y-43379387D01*
X8054000Y-43587416D01*
X5386000Y-43587416D01*
X5299832Y-43379387D01*
X5140613Y-43220168D01*
X4932584Y-43134000D01*
X4707416Y-43134000D01*
X4499387Y-43220168D01*
X4340168Y-43379387D01*
X4254000Y-43587416D01*
X-2719000Y-43587416D01*
X-2719000Y-42837416D01*
X2854000Y-42837416D01*
X2854000Y-43062584D01*
X2940168Y-43270613D01*
X3099387Y-43429832D01*
X3307416Y-43516000D01*
X3532584Y-43516000D01*
X3740613Y-43429832D01*
X3899832Y-43270613D01*
X3986000Y-43062584D01*
X3986000Y-42837416D01*
X6654000Y-42837416D01*
X6654000Y-43062584D01*
X6740168Y-43270613D01*
X6899387Y-43429832D01*
X7107416Y-43516000D01*
X7332584Y-43516000D01*
X7540613Y-43429832D01*
X7699832Y-43270613D01*
X7786000Y-43062584D01*
X7786000Y-42837416D01*
X10454000Y-42837416D01*
X10454000Y-43062584D01*
X10540168Y-43270613D01*
X10699387Y-43429832D01*
X10907416Y-43516000D01*
X11132584Y-43516000D01*
X11340613Y-43429832D01*
X11499832Y-43270613D01*
X11586000Y-43062584D01*
X11586000Y-42837416D01*
X14254000Y-42837416D01*
X14254000Y-43062584D01*
X14340168Y-43270613D01*
X14499387Y-43429832D01*
X14707416Y-43516000D01*
X14932584Y-43516000D01*
X15140613Y-43429832D01*
X15299832Y-43270613D01*
X15386000Y-43062584D01*
X15386000Y-42837416D01*
X15299832Y-42629387D01*
X15140613Y-42470168D01*
X14932584Y-42384000D01*
X14707416Y-42384000D01*
X14499387Y-42470168D01*
X14340168Y-42629387D01*
X14254000Y-42837416D01*
X11586000Y-42837416D01*
X11499832Y-42629387D01*
X11340613Y-42470168D01*
X11132584Y-42384000D01*
X10907416Y-42384000D01*
X10699387Y-42470168D01*
X10540168Y-42629387D01*
X10454000Y-42837416D01*
X7786000Y-42837416D01*
X7699832Y-42629387D01*
X7540613Y-42470168D01*
X7332584Y-42384000D01*
X7107416Y-42384000D01*
X6899387Y-42470168D01*
X6740168Y-42629387D01*
X6654000Y-42837416D01*
X3986000Y-42837416D01*
X3899832Y-42629387D01*
X3740613Y-42470168D01*
X3532584Y-42384000D01*
X3307416Y-42384000D01*
X3099387Y-42470168D01*
X2940168Y-42629387D01*
X2854000Y-42837416D01*
X-2719000Y-42837416D01*
X-2719000Y-41337416D01*
X4254000Y-41337416D01*
X4254000Y-41562584D01*
X4340168Y-41770613D01*
X4499387Y-41929832D01*
X4707416Y-42016000D01*
X4932584Y-42016000D01*
X5140613Y-41929832D01*
X5299832Y-41770613D01*
X5386000Y-41562584D01*
X5386000Y-41337416D01*
X8054000Y-41337416D01*
X8054000Y-41562584D01*
X8140168Y-41770613D01*
X8299387Y-41929832D01*
X8507416Y-42016000D01*
X8732584Y-42016000D01*
X8940613Y-41929832D01*
X9099832Y-41770613D01*
X9186000Y-41562584D01*
X9186000Y-41337416D01*
X11854000Y-41337416D01*
X11854000Y-41562584D01*
X11940168Y-41770613D01*
X12099387Y-41929832D01*
X12307416Y-42016000D01*
X12532584Y-42016000D01*
X12740613Y-41929832D01*
X12899832Y-41770613D01*
X12986000Y-41562584D01*
X12986000Y-41337416D01*
X15654000Y-41337416D01*
X15654000Y-41562584D01*
X15740168Y-41770613D01*
X15899387Y-41929832D01*
X16107416Y-42016000D01*
X16332584Y-42016000D01*
X16540613Y-41929832D01*
X16699832Y-41770613D01*
X16786000Y-41562584D01*
X16786000Y-41337416D01*
X16699832Y-41129387D01*
X16540613Y-40970168D01*
X16332584Y-40884000D01*
X16107416Y-40884000D01*
X15899387Y-40970168D01*
X15740168Y-41129387D01*
X15654000Y-41337416D01*
X12986000Y-41337416D01*
X12899832Y-41129387D01*
X12740613Y-40970168D01*
X12532584Y-40884000D01*
X12307416Y-40884000D01*
X12099387Y-40970168D01*
X11940168Y-41129387D01*
X11854000Y-41337416D01*
X9186000Y-41337416D01*
X9099832Y-41129387D01*
X8940613Y-40970168D01*
X8732584Y-40884000D01*
X8507416Y-40884000D01*
X8299387Y-40970168D01*
X8140168Y-41129387D01*
X8054000Y-41337416D01*
X5386000Y-41337416D01*
X5299832Y-41129387D01*
X5140613Y-40970168D01*
X4932584Y-40884000D01*
X4707416Y-40884000D01*
X4499387Y-40970168D01*
X4340168Y-41129387D01*
X4254000Y-41337416D01*
X-2719000Y-41337416D01*
X-2719000Y-40587416D01*
X2854000Y-40587416D01*
X2854000Y-40812584D01*
X2940168Y-41020613D01*
X3099387Y-41179832D01*
X3307416Y-41266000D01*
X3532584Y-41266000D01*
X3740613Y-41179832D01*
X3899832Y-41020613D01*
X3986000Y-40812584D01*
X3986000Y-40587416D01*
X6654000Y-40587416D01*
X6654000Y-40812584D01*
X6740168Y-41020613D01*
X6899387Y-41179832D01*
X7107416Y-41266000D01*
X7332584Y-41266000D01*
X7540613Y-41179832D01*
X7699832Y-41020613D01*
X7786000Y-40812584D01*
X7786000Y-40587416D01*
X10454000Y-40587416D01*
X10454000Y-40812584D01*
X10540168Y-41020613D01*
X10699387Y-41179832D01*
X10907416Y-41266000D01*
X11132584Y-41266000D01*
X11340613Y-41179832D01*
X11499832Y-41020613D01*
X11586000Y-40812584D01*
X11586000Y-40587416D01*
X14254000Y-40587416D01*
X14254000Y-40812584D01*
X14340168Y-41020613D01*
X14499387Y-41179832D01*
X14707416Y-41266000D01*
X14932584Y-41266000D01*
X15140613Y-41179832D01*
X15299832Y-41020613D01*
X15386000Y-40812584D01*
X15386000Y-40587416D01*
X15300148Y-40380148D01*
X28934716Y-40380148D01*
X28934716Y-40611284D01*
X29023168Y-40824826D01*
X29186606Y-40988264D01*
X29359939Y-41060061D01*
X29431736Y-41233394D01*
X29595174Y-41396832D01*
X29808716Y-41485284D01*
X30039852Y-41485284D01*
X30253394Y-41396832D01*
X30416832Y-41233394D01*
X30505284Y-41019852D01*
X30505284Y-40788716D01*
X30534716Y-40788716D01*
X30534716Y-41019852D01*
X30623168Y-41233394D01*
X30786606Y-41396832D01*
X31000148Y-41485284D01*
X31231284Y-41485284D01*
X31444826Y-41396832D01*
X31608264Y-41233394D01*
X31680061Y-41060061D01*
X31853394Y-40988264D01*
X32016832Y-40824826D01*
X32105284Y-40611284D01*
X32105284Y-40380148D01*
X41734716Y-40380148D01*
X41734716Y-40611284D01*
X41823168Y-40824826D01*
X41986606Y-40988264D01*
X42159939Y-41060061D01*
X42231736Y-41233394D01*
X42395174Y-41396832D01*
X42608716Y-41485284D01*
X42839852Y-41485284D01*
X43053394Y-41396832D01*
X43216832Y-41233394D01*
X43305284Y-41019852D01*
X43305284Y-40788716D01*
X43334716Y-40788716D01*
X43334716Y-41019852D01*
X43423168Y-41233394D01*
X43586606Y-41396832D01*
X43800148Y-41485284D01*
X44031284Y-41485284D01*
X44244826Y-41396832D01*
X44408264Y-41233394D01*
X44480061Y-41060061D01*
X44653394Y-40988264D01*
X44816832Y-40824826D01*
X44905284Y-40611284D01*
X44905284Y-40380148D01*
X46534716Y-40380148D01*
X46534716Y-40611284D01*
X46623168Y-40824826D01*
X46786606Y-40988264D01*
X46959939Y-41060061D01*
X47031736Y-41233394D01*
X47195174Y-41396832D01*
X47408716Y-41485284D01*
X47639852Y-41485284D01*
X47853394Y-41396832D01*
X48016832Y-41233394D01*
X48105284Y-41019852D01*
X48105284Y-40788716D01*
X48134716Y-40788716D01*
X48134716Y-41019852D01*
X48223168Y-41233394D01*
X48386606Y-41396832D01*
X48600148Y-41485284D01*
X48831284Y-41485284D01*
X49044826Y-41396832D01*
X49208264Y-41233394D01*
X49280061Y-41060061D01*
X49453394Y-40988264D01*
X49616832Y-40824826D01*
X49705284Y-40611284D01*
X49705284Y-40380148D01*
X51334716Y-40380148D01*
X51334716Y-40611284D01*
X51423168Y-40824826D01*
X51586606Y-40988264D01*
X51759939Y-41060061D01*
X51831736Y-41233394D01*
X51995174Y-41396832D01*
X52208716Y-41485284D01*
X52439852Y-41485284D01*
X52653394Y-41396832D01*
X52816832Y-41233394D01*
X52905284Y-41019852D01*
X52905284Y-40788716D01*
X52816832Y-40575174D01*
X52653394Y-40411736D01*
X52480061Y-40339939D01*
X52408264Y-40166606D01*
X52244826Y-40003168D01*
X52031284Y-39914716D01*
X51800148Y-39914716D01*
X51586606Y-40003168D01*
X51423168Y-40166606D01*
X51334716Y-40380148D01*
X49705284Y-40380148D01*
X49616832Y-40166606D01*
X49453394Y-40003168D01*
X49239852Y-39914716D01*
X49008716Y-39914716D01*
X48795174Y-40003168D01*
X48631736Y-40166606D01*
X48559939Y-40339939D01*
X48386606Y-40411736D01*
X48223168Y-40575174D01*
X48134716Y-40788716D01*
X48105284Y-40788716D01*
X48016832Y-40575174D01*
X47853394Y-40411736D01*
X47680061Y-40339939D01*
X47608264Y-40166606D01*
X47444826Y-40003168D01*
X47231284Y-39914716D01*
X47000148Y-39914716D01*
X46786606Y-40003168D01*
X46623168Y-40166606D01*
X46534716Y-40380148D01*
X44905284Y-40380148D01*
X44816832Y-40166606D01*
X44653394Y-40003168D01*
X44439852Y-39914716D01*
X44208716Y-39914716D01*
X43995174Y-40003168D01*
X43831736Y-40166606D01*
X43759939Y-40339939D01*
X43586606Y-40411736D01*
X43423168Y-40575174D01*
X43334716Y-40788716D01*
X43305284Y-40788716D01*
X43216832Y-40575174D01*
X43053394Y-40411736D01*
X42880061Y-40339939D01*
X42808264Y-40166606D01*
X42644826Y-40003168D01*
X42431284Y-39914716D01*
X42200148Y-39914716D01*
X41986606Y-40003168D01*
X41823168Y-40166606D01*
X41734716Y-40380148D01*
X32105284Y-40380148D01*
X32016832Y-40166606D01*
X31853394Y-40003168D01*
X31639852Y-39914716D01*
X31408716Y-39914716D01*
X31195174Y-40003168D01*
X31031736Y-40166606D01*
X30959939Y-40339939D01*
X30786606Y-40411736D01*
X30623168Y-40575174D01*
X30534716Y-40788716D01*
X30505284Y-40788716D01*
X30416832Y-40575174D01*
X30253394Y-40411736D01*
X30080061Y-40339939D01*
X30008264Y-40166606D01*
X29844826Y-40003168D01*
X29631284Y-39914716D01*
X29400148Y-39914716D01*
X29186606Y-40003168D01*
X29023168Y-40166606D01*
X28934716Y-40380148D01*
X15300148Y-40380148D01*
X15299832Y-40379387D01*
X15140613Y-40220168D01*
X14932584Y-40134000D01*
X14707416Y-40134000D01*
X14499387Y-40220168D01*
X14340168Y-40379387D01*
X14254000Y-40587416D01*
X11586000Y-40587416D01*
X11499832Y-40379387D01*
X11340613Y-40220168D01*
X11132584Y-40134000D01*
X10907416Y-40134000D01*
X10699387Y-40220168D01*
X10540168Y-40379387D01*
X10454000Y-40587416D01*
X7786000Y-40587416D01*
X7699832Y-40379387D01*
X7540613Y-40220168D01*
X7332584Y-40134000D01*
X7107416Y-40134000D01*
X6899387Y-40220168D01*
X6740168Y-40379387D01*
X6654000Y-40587416D01*
X3986000Y-40587416D01*
X3899832Y-40379387D01*
X3740613Y-40220168D01*
X3532584Y-40134000D01*
X3307416Y-40134000D01*
X3099387Y-40220168D01*
X2940168Y-40379387D01*
X2854000Y-40587416D01*
X-2719000Y-40587416D01*
X-2719000Y-37405411D01*
X2639000Y-37405411D01*
X2639000Y-37994589D01*
X2864468Y-38538919D01*
X3281081Y-38955532D01*
X3825411Y-39181000D01*
X4414589Y-39181000D01*
X4958919Y-38955532D01*
X5375532Y-38538919D01*
X5601000Y-37994589D01*
X5601000Y-37405411D01*
X5375532Y-36861081D01*
X4958919Y-36444468D01*
X4414589Y-36219000D01*
X3825411Y-36219000D01*
X3281081Y-36444468D01*
X2864468Y-36861081D01*
X2639000Y-37405411D01*
X-2719000Y-37405411D01*
X-2719000Y-33405411D01*
X2639000Y-33405411D01*
X2639000Y-33994589D01*
X2864468Y-34538919D01*
X3281081Y-34955532D01*
X3825411Y-35181000D01*
X4414589Y-35181000D01*
X4958919Y-34955532D01*
X5375532Y-34538919D01*
X5601000Y-33994589D01*
X5601000Y-33405411D01*
X5542695Y-33264649D01*
X46934000Y-33264649D01*
X46934000Y-33575351D01*
X47052900Y-33862401D01*
X47272599Y-34082100D01*
X47559649Y-34201000D01*
X47870351Y-34201000D01*
X48157401Y-34082100D01*
X48337500Y-33902001D01*
X48542599Y-34107100D01*
X48829649Y-34226000D01*
X49140351Y-34226000D01*
X49427401Y-34107100D01*
X49620000Y-33914501D01*
X49812599Y-34107100D01*
X50099649Y-34226000D01*
X50410351Y-34226000D01*
X50697401Y-34107100D01*
X50917100Y-33887401D01*
X51036000Y-33600351D01*
X51036000Y-33289649D01*
X50917100Y-33002599D01*
X50697401Y-32782900D01*
X50410351Y-32664000D01*
X50099649Y-32664000D01*
X49812599Y-32782900D01*
X49620000Y-32975499D01*
X49427401Y-32782900D01*
X49140351Y-32664000D01*
X48829649Y-32664000D01*
X48542599Y-32782900D01*
X48362500Y-32962999D01*
X48157401Y-32757900D01*
X47870351Y-32639000D01*
X47559649Y-32639000D01*
X47272599Y-32757900D01*
X47052900Y-32977599D01*
X46934000Y-33264649D01*
X5542695Y-33264649D01*
X5375532Y-32861081D01*
X4958919Y-32444468D01*
X4414589Y-32219000D01*
X3825411Y-32219000D01*
X3281081Y-32444468D01*
X2864468Y-32861081D01*
X2639000Y-33405411D01*
X-2719000Y-33405411D01*
X-2719000Y-29837416D01*
X4254000Y-29837416D01*
X4254000Y-30062584D01*
X4340168Y-30270613D01*
X4499387Y-30429832D01*
X4707416Y-30516000D01*
X4932584Y-30516000D01*
X5140613Y-30429832D01*
X5299832Y-30270613D01*
X5386000Y-30062584D01*
X5386000Y-29837416D01*
X8054000Y-29837416D01*
X8054000Y-30062584D01*
X8140168Y-30270613D01*
X8299387Y-30429832D01*
X8507416Y-30516000D01*
X8732584Y-30516000D01*
X8940613Y-30429832D01*
X9099832Y-30270613D01*
X9186000Y-30062584D01*
X9186000Y-29837416D01*
X11854000Y-29837416D01*
X11854000Y-30062584D01*
X11940168Y-30270613D01*
X12099387Y-30429832D01*
X12307416Y-30516000D01*
X12532584Y-30516000D01*
X12740613Y-30429832D01*
X12899832Y-30270613D01*
X12986000Y-30062584D01*
X12986000Y-29837416D01*
X15654000Y-29837416D01*
X15654000Y-30062584D01*
X15740168Y-30270613D01*
X15899387Y-30429832D01*
X16107416Y-30516000D01*
X16332584Y-30516000D01*
X16540613Y-30429832D01*
X16699832Y-30270613D01*
X16786000Y-30062584D01*
X16786000Y-29837416D01*
X16699832Y-29629387D01*
X16540613Y-29470168D01*
X16332584Y-29384000D01*
X16107416Y-29384000D01*
X15899387Y-29470168D01*
X15740168Y-29629387D01*
X15654000Y-29837416D01*
X12986000Y-29837416D01*
X12899832Y-29629387D01*
X12740613Y-29470168D01*
X12532584Y-29384000D01*
X12307416Y-29384000D01*
X12099387Y-29470168D01*
X11940168Y-29629387D01*
X11854000Y-29837416D01*
X9186000Y-29837416D01*
X9099832Y-29629387D01*
X8940613Y-29470168D01*
X8732584Y-29384000D01*
X8507416Y-29384000D01*
X8299387Y-29470168D01*
X8140168Y-29629387D01*
X8054000Y-29837416D01*
X5386000Y-29837416D01*
X5299832Y-29629387D01*
X5140613Y-29470168D01*
X4932584Y-29384000D01*
X4707416Y-29384000D01*
X4499387Y-29470168D01*
X4340168Y-29629387D01*
X4254000Y-29837416D01*
X-2719000Y-29837416D01*
X-2719000Y-29087416D01*
X2854000Y-29087416D01*
X2854000Y-29312584D01*
X2940168Y-29520613D01*
X3099387Y-29679832D01*
X3307416Y-29766000D01*
X3532584Y-29766000D01*
X3740613Y-29679832D01*
X3899832Y-29520613D01*
X3986000Y-29312584D01*
X3986000Y-29087416D01*
X6654000Y-29087416D01*
X6654000Y-29312584D01*
X6740168Y-29520613D01*
X6899387Y-29679832D01*
X7107416Y-29766000D01*
X7332584Y-29766000D01*
X7540613Y-29679832D01*
X7699832Y-29520613D01*
X7786000Y-29312584D01*
X7786000Y-29087416D01*
X10454000Y-29087416D01*
X10454000Y-29312584D01*
X10540168Y-29520613D01*
X10699387Y-29679832D01*
X10907416Y-29766000D01*
X11132584Y-29766000D01*
X11340613Y-29679832D01*
X11499832Y-29520613D01*
X11586000Y-29312584D01*
X11586000Y-29087416D01*
X14254000Y-29087416D01*
X14254000Y-29312584D01*
X14340168Y-29520613D01*
X14499387Y-29679832D01*
X14707416Y-29766000D01*
X14932584Y-29766000D01*
X15140613Y-29679832D01*
X15299832Y-29520613D01*
X15386000Y-29312584D01*
X15386000Y-29087416D01*
X15299832Y-28879387D01*
X15140613Y-28720168D01*
X14932584Y-28634000D01*
X14707416Y-28634000D01*
X14499387Y-28720168D01*
X14340168Y-28879387D01*
X14254000Y-29087416D01*
X11586000Y-29087416D01*
X11499832Y-28879387D01*
X11340613Y-28720168D01*
X11132584Y-28634000D01*
X10907416Y-28634000D01*
X10699387Y-28720168D01*
X10540168Y-28879387D01*
X10454000Y-29087416D01*
X7786000Y-29087416D01*
X7699832Y-28879387D01*
X7540613Y-28720168D01*
X7332584Y-28634000D01*
X7107416Y-28634000D01*
X6899387Y-28720168D01*
X6740168Y-28879387D01*
X6654000Y-29087416D01*
X3986000Y-29087416D01*
X3899832Y-28879387D01*
X3740613Y-28720168D01*
X3532584Y-28634000D01*
X3307416Y-28634000D01*
X3099387Y-28720168D01*
X2940168Y-28879387D01*
X2854000Y-29087416D01*
X-2719000Y-29087416D01*
X-2719000Y-27587416D01*
X4254000Y-27587416D01*
X4254000Y-27812584D01*
X4340168Y-28020613D01*
X4499387Y-28179832D01*
X4707416Y-28266000D01*
X4932584Y-28266000D01*
X5140613Y-28179832D01*
X5299832Y-28020613D01*
X5386000Y-27812584D01*
X5386000Y-27587416D01*
X8054000Y-27587416D01*
X8054000Y-27812584D01*
X8140168Y-28020613D01*
X8299387Y-28179832D01*
X8507416Y-28266000D01*
X8732584Y-28266000D01*
X8940613Y-28179832D01*
X9099832Y-28020613D01*
X9186000Y-27812584D01*
X9186000Y-27587416D01*
X11854000Y-27587416D01*
X11854000Y-27812584D01*
X11940168Y-28020613D01*
X12099387Y-28179832D01*
X12307416Y-28266000D01*
X12532584Y-28266000D01*
X12740613Y-28179832D01*
X12899832Y-28020613D01*
X12986000Y-27812584D01*
X12986000Y-27587416D01*
X15654000Y-27587416D01*
X15654000Y-27812584D01*
X15740168Y-28020613D01*
X15899387Y-28179832D01*
X16107416Y-28266000D01*
X16332584Y-28266000D01*
X16430051Y-28225628D01*
X20954000Y-28225628D01*
X20954000Y-28894372D01*
X21209917Y-29512210D01*
X21682790Y-29985083D01*
X22300628Y-30241000D01*
X22969372Y-30241000D01*
X23587210Y-29985083D01*
X24060083Y-29512210D01*
X24316000Y-28894372D01*
X24316000Y-28225628D01*
X24060083Y-27607790D01*
X23587210Y-27134917D01*
X22969372Y-26879000D01*
X22300628Y-26879000D01*
X21682790Y-27134917D01*
X21209917Y-27607790D01*
X20954000Y-28225628D01*
X16430051Y-28225628D01*
X16540613Y-28179832D01*
X16699832Y-28020613D01*
X16786000Y-27812584D01*
X16786000Y-27587416D01*
X16699832Y-27379387D01*
X16540613Y-27220168D01*
X16332584Y-27134000D01*
X16107416Y-27134000D01*
X15899387Y-27220168D01*
X15740168Y-27379387D01*
X15654000Y-27587416D01*
X12986000Y-27587416D01*
X12899832Y-27379387D01*
X12740613Y-27220168D01*
X12532584Y-27134000D01*
X12307416Y-27134000D01*
X12099387Y-27220168D01*
X11940168Y-27379387D01*
X11854000Y-27587416D01*
X9186000Y-27587416D01*
X9099832Y-27379387D01*
X8940613Y-27220168D01*
X8732584Y-27134000D01*
X8507416Y-27134000D01*
X8299387Y-27220168D01*
X8140168Y-27379387D01*
X8054000Y-27587416D01*
X5386000Y-27587416D01*
X5299832Y-27379387D01*
X5140613Y-27220168D01*
X4932584Y-27134000D01*
X4707416Y-27134000D01*
X4499387Y-27220168D01*
X4340168Y-27379387D01*
X4254000Y-27587416D01*
X-2719000Y-27587416D01*
X-2719000Y-26837416D01*
X2854000Y-26837416D01*
X2854000Y-27062584D01*
X2940168Y-27270613D01*
X3099387Y-27429832D01*
X3307416Y-27516000D01*
X3532584Y-27516000D01*
X3740613Y-27429832D01*
X3899832Y-27270613D01*
X3986000Y-27062584D01*
X3986000Y-26837416D01*
X6654000Y-26837416D01*
X6654000Y-27062584D01*
X6740168Y-27270613D01*
X6899387Y-27429832D01*
X7107416Y-27516000D01*
X7332584Y-27516000D01*
X7540613Y-27429832D01*
X7699832Y-27270613D01*
X7786000Y-27062584D01*
X7786000Y-26837416D01*
X10454000Y-26837416D01*
X10454000Y-27062584D01*
X10540168Y-27270613D01*
X10699387Y-27429832D01*
X10907416Y-27516000D01*
X11132584Y-27516000D01*
X11340613Y-27429832D01*
X11499832Y-27270613D01*
X11586000Y-27062584D01*
X11586000Y-26837416D01*
X14254000Y-26837416D01*
X14254000Y-27062584D01*
X14340168Y-27270613D01*
X14499387Y-27429832D01*
X14707416Y-27516000D01*
X14932584Y-27516000D01*
X15140613Y-27429832D01*
X15299832Y-27270613D01*
X15386000Y-27062584D01*
X15386000Y-26837416D01*
X15299832Y-26629387D01*
X15140613Y-26470168D01*
X14932584Y-26384000D01*
X14707416Y-26384000D01*
X14499387Y-26470168D01*
X14340168Y-26629387D01*
X14254000Y-26837416D01*
X11586000Y-26837416D01*
X11499832Y-26629387D01*
X11340613Y-26470168D01*
X11132584Y-26384000D01*
X10907416Y-26384000D01*
X10699387Y-26470168D01*
X10540168Y-26629387D01*
X10454000Y-26837416D01*
X7786000Y-26837416D01*
X7699832Y-26629387D01*
X7540613Y-26470168D01*
X7332584Y-26384000D01*
X7107416Y-26384000D01*
X6899387Y-26470168D01*
X6740168Y-26629387D01*
X6654000Y-26837416D01*
X3986000Y-26837416D01*
X3899832Y-26629387D01*
X3740613Y-26470168D01*
X3532584Y-26384000D01*
X3307416Y-26384000D01*
X3099387Y-26470168D01*
X2940168Y-26629387D01*
X2854000Y-26837416D01*
X-2719000Y-26837416D01*
X-2719000Y-25337416D01*
X4254000Y-25337416D01*
X4254000Y-25562584D01*
X4340168Y-25770613D01*
X4499387Y-25929832D01*
X4707416Y-26016000D01*
X4932584Y-26016000D01*
X5140613Y-25929832D01*
X5299832Y-25770613D01*
X5386000Y-25562584D01*
X5386000Y-25337416D01*
X8054000Y-25337416D01*
X8054000Y-25562584D01*
X8140168Y-25770613D01*
X8299387Y-25929832D01*
X8507416Y-26016000D01*
X8732584Y-26016000D01*
X8940613Y-25929832D01*
X9099832Y-25770613D01*
X9186000Y-25562584D01*
X9186000Y-25337416D01*
X11854000Y-25337416D01*
X11854000Y-25562584D01*
X11940168Y-25770613D01*
X12099387Y-25929832D01*
X12307416Y-26016000D01*
X12532584Y-26016000D01*
X12740613Y-25929832D01*
X12899832Y-25770613D01*
X12986000Y-25562584D01*
X12986000Y-25337416D01*
X15654000Y-25337416D01*
X15654000Y-25562584D01*
X15740168Y-25770613D01*
X15899387Y-25929832D01*
X16107416Y-26016000D01*
X16332584Y-26016000D01*
X16540613Y-25929832D01*
X16699832Y-25770613D01*
X16786000Y-25562584D01*
X16786000Y-25337416D01*
X16699832Y-25129387D01*
X16540613Y-24970168D01*
X16332584Y-24884000D01*
X16107416Y-24884000D01*
X15899387Y-24970168D01*
X15740168Y-25129387D01*
X15654000Y-25337416D01*
X12986000Y-25337416D01*
X12899832Y-25129387D01*
X12740613Y-24970168D01*
X12532584Y-24884000D01*
X12307416Y-24884000D01*
X12099387Y-24970168D01*
X11940168Y-25129387D01*
X11854000Y-25337416D01*
X9186000Y-25337416D01*
X9099832Y-25129387D01*
X8940613Y-24970168D01*
X8732584Y-24884000D01*
X8507416Y-24884000D01*
X8299387Y-24970168D01*
X8140168Y-25129387D01*
X8054000Y-25337416D01*
X5386000Y-25337416D01*
X5299832Y-25129387D01*
X5140613Y-24970168D01*
X4932584Y-24884000D01*
X4707416Y-24884000D01*
X4499387Y-24970168D01*
X4340168Y-25129387D01*
X4254000Y-25337416D01*
X-2719000Y-25337416D01*
X-2719000Y-24587416D01*
X2854000Y-24587416D01*
X2854000Y-24812584D01*
X2940168Y-25020613D01*
X3099387Y-25179832D01*
X3307416Y-25266000D01*
X3532584Y-25266000D01*
X3740613Y-25179832D01*
X3899832Y-25020613D01*
X3986000Y-24812584D01*
X3986000Y-24587416D01*
X6654000Y-24587416D01*
X6654000Y-24812584D01*
X6740168Y-25020613D01*
X6899387Y-25179832D01*
X7107416Y-25266000D01*
X7332584Y-25266000D01*
X7540613Y-25179832D01*
X7699832Y-25020613D01*
X7786000Y-24812584D01*
X7786000Y-24587416D01*
X10454000Y-24587416D01*
X10454000Y-24812584D01*
X10540168Y-25020613D01*
X10699387Y-25179832D01*
X10907416Y-25266000D01*
X11132584Y-25266000D01*
X11340613Y-25179832D01*
X11499832Y-25020613D01*
X11586000Y-24812584D01*
X11586000Y-24587416D01*
X14254000Y-24587416D01*
X14254000Y-24812584D01*
X14340168Y-25020613D01*
X14499387Y-25179832D01*
X14707416Y-25266000D01*
X14932584Y-25266000D01*
X15140613Y-25179832D01*
X15299832Y-25020613D01*
X15386000Y-24812584D01*
X15386000Y-24587416D01*
X15300148Y-24380148D01*
X28934716Y-24380148D01*
X28934716Y-24611284D01*
X29023168Y-24824826D01*
X29186606Y-24988264D01*
X29359939Y-25060061D01*
X29431736Y-25233394D01*
X29595174Y-25396832D01*
X29808716Y-25485284D01*
X30039852Y-25485284D01*
X30253394Y-25396832D01*
X30416832Y-25233394D01*
X30505284Y-25019852D01*
X30505284Y-24788716D01*
X30534716Y-24788716D01*
X30534716Y-25019852D01*
X30623168Y-25233394D01*
X30786606Y-25396832D01*
X31000148Y-25485284D01*
X31231284Y-25485284D01*
X31444826Y-25396832D01*
X31608264Y-25233394D01*
X31680061Y-25060061D01*
X31853394Y-24988264D01*
X32016832Y-24824826D01*
X32105284Y-24611284D01*
X32105284Y-24380148D01*
X41734716Y-24380148D01*
X41734716Y-24611284D01*
X41823168Y-24824826D01*
X41986606Y-24988264D01*
X42159939Y-25060061D01*
X42231736Y-25233394D01*
X42395174Y-25396832D01*
X42608716Y-25485284D01*
X42839852Y-25485284D01*
X43053394Y-25396832D01*
X43216832Y-25233394D01*
X43305284Y-25019852D01*
X43305284Y-24788716D01*
X43334716Y-24788716D01*
X43334716Y-25019852D01*
X43423168Y-25233394D01*
X43586606Y-25396832D01*
X43800148Y-25485284D01*
X44031284Y-25485284D01*
X44244826Y-25396832D01*
X44408264Y-25233394D01*
X44480061Y-25060061D01*
X44653394Y-24988264D01*
X44816832Y-24824826D01*
X44905284Y-24611284D01*
X44905284Y-24380148D01*
X46534716Y-24380148D01*
X46534716Y-24611284D01*
X46623168Y-24824826D01*
X46786606Y-24988264D01*
X46959939Y-25060061D01*
X47031736Y-25233394D01*
X47195174Y-25396832D01*
X47408716Y-25485284D01*
X47639852Y-25485284D01*
X47853394Y-25396832D01*
X48016832Y-25233394D01*
X48105284Y-25019852D01*
X48105284Y-24788716D01*
X48134716Y-24788716D01*
X48134716Y-25019852D01*
X48223168Y-25233394D01*
X48386606Y-25396832D01*
X48600148Y-25485284D01*
X48831284Y-25485284D01*
X49044826Y-25396832D01*
X49208264Y-25233394D01*
X49280061Y-25060061D01*
X49453394Y-24988264D01*
X49616832Y-24824826D01*
X49705284Y-24611284D01*
X49705284Y-24380148D01*
X51334716Y-24380148D01*
X51334716Y-24611284D01*
X51423168Y-24824826D01*
X51586606Y-24988264D01*
X51759939Y-25060061D01*
X51831736Y-25233394D01*
X51995174Y-25396832D01*
X52208716Y-25485284D01*
X52439852Y-25485284D01*
X52653394Y-25396832D01*
X52816832Y-25233394D01*
X52905284Y-25019852D01*
X52905284Y-24788716D01*
X52816832Y-24575174D01*
X52653394Y-24411736D01*
X52480061Y-24339939D01*
X52408264Y-24166606D01*
X52244826Y-24003168D01*
X52031284Y-23914716D01*
X51800148Y-23914716D01*
X51586606Y-24003168D01*
X51423168Y-24166606D01*
X51334716Y-24380148D01*
X49705284Y-24380148D01*
X49616832Y-24166606D01*
X49453394Y-24003168D01*
X49239852Y-23914716D01*
X49008716Y-23914716D01*
X48795174Y-24003168D01*
X48631736Y-24166606D01*
X48559939Y-24339939D01*
X48386606Y-24411736D01*
X48223168Y-24575174D01*
X48134716Y-24788716D01*
X48105284Y-24788716D01*
X48016832Y-24575174D01*
X47853394Y-24411736D01*
X47680061Y-24339939D01*
X47608264Y-24166606D01*
X47444826Y-24003168D01*
X47231284Y-23914716D01*
X47000148Y-23914716D01*
X46786606Y-24003168D01*
X46623168Y-24166606D01*
X46534716Y-24380148D01*
X44905284Y-24380148D01*
X44816832Y-24166606D01*
X44653394Y-24003168D01*
X44439852Y-23914716D01*
X44208716Y-23914716D01*
X43995174Y-24003168D01*
X43831736Y-24166606D01*
X43759939Y-24339939D01*
X43586606Y-24411736D01*
X43423168Y-24575174D01*
X43334716Y-24788716D01*
X43305284Y-24788716D01*
X43216832Y-24575174D01*
X43053394Y-24411736D01*
X42880061Y-24339939D01*
X42808264Y-24166606D01*
X42644826Y-24003168D01*
X42431284Y-23914716D01*
X42200148Y-23914716D01*
X41986606Y-24003168D01*
X41823168Y-24166606D01*
X41734716Y-24380148D01*
X32105284Y-24380148D01*
X32016832Y-24166606D01*
X31853394Y-24003168D01*
X31639852Y-23914716D01*
X31408716Y-23914716D01*
X31195174Y-24003168D01*
X31031736Y-24166606D01*
X30959939Y-24339939D01*
X30786606Y-24411736D01*
X30623168Y-24575174D01*
X30534716Y-24788716D01*
X30505284Y-24788716D01*
X30416832Y-24575174D01*
X30253394Y-24411736D01*
X30080061Y-24339939D01*
X30008264Y-24166606D01*
X29844826Y-24003168D01*
X29631284Y-23914716D01*
X29400148Y-23914716D01*
X29186606Y-24003168D01*
X29023168Y-24166606D01*
X28934716Y-24380148D01*
X15300148Y-24380148D01*
X15299832Y-24379387D01*
X15140613Y-24220168D01*
X14932584Y-24134000D01*
X14707416Y-24134000D01*
X14499387Y-24220168D01*
X14340168Y-24379387D01*
X14254000Y-24587416D01*
X11586000Y-24587416D01*
X11499832Y-24379387D01*
X11340613Y-24220168D01*
X11132584Y-24134000D01*
X10907416Y-24134000D01*
X10699387Y-24220168D01*
X10540168Y-24379387D01*
X10454000Y-24587416D01*
X7786000Y-24587416D01*
X7699832Y-24379387D01*
X7540613Y-24220168D01*
X7332584Y-24134000D01*
X7107416Y-24134000D01*
X6899387Y-24220168D01*
X6740168Y-24379387D01*
X6654000Y-24587416D01*
X3986000Y-24587416D01*
X3899832Y-24379387D01*
X3740613Y-24220168D01*
X3532584Y-24134000D01*
X3307416Y-24134000D01*
X3099387Y-24220168D01*
X2940168Y-24379387D01*
X2854000Y-24587416D01*
X-2719000Y-24587416D01*
X-2719000Y-21405411D01*
X2639000Y-21405411D01*
X2639000Y-21994589D01*
X2864468Y-22538919D01*
X3281081Y-22955532D01*
X3825411Y-23181000D01*
X4414589Y-23181000D01*
X4958919Y-22955532D01*
X5375532Y-22538919D01*
X5601000Y-21994589D01*
X5601000Y-21405411D01*
X5375532Y-20861081D01*
X4958919Y-20444468D01*
X4414589Y-20219000D01*
X3825411Y-20219000D01*
X3281081Y-20444468D01*
X2864468Y-20861081D01*
X2639000Y-21405411D01*
X-2719000Y-21405411D01*
X-2719000Y-18437855D01*
X-2658529Y-18056062D01*
X-2500439Y-17745792D01*
X-2254206Y-17499560D01*
X-2069429Y-17405411D01*
X2639000Y-17405411D01*
X2639000Y-17994589D01*
X2864468Y-18538919D01*
X3281081Y-18955532D01*
X3825411Y-19181000D01*
X4414589Y-19181000D01*
X4958919Y-18955532D01*
X5375532Y-18538919D01*
X5601000Y-17994589D01*
X5601000Y-17405411D01*
X5542695Y-17264649D01*
X46934000Y-17264649D01*
X46934000Y-17575351D01*
X47052900Y-17862401D01*
X47272599Y-18082100D01*
X47559649Y-18201000D01*
X47870351Y-18201000D01*
X48157401Y-18082100D01*
X48337500Y-17902001D01*
X48542599Y-18107100D01*
X48829649Y-18226000D01*
X49140351Y-18226000D01*
X49427401Y-18107100D01*
X49620000Y-17914501D01*
X49812599Y-18107100D01*
X50099649Y-18226000D01*
X50410351Y-18226000D01*
X50697401Y-18107100D01*
X50917100Y-17887401D01*
X51036000Y-17600351D01*
X51036000Y-17289649D01*
X50917100Y-17002599D01*
X50697401Y-16782900D01*
X50410351Y-16664000D01*
X50099649Y-16664000D01*
X49812599Y-16782900D01*
X49620000Y-16975499D01*
X49427401Y-16782900D01*
X49140351Y-16664000D01*
X48829649Y-16664000D01*
X48542599Y-16782900D01*
X48362500Y-16962999D01*
X48157401Y-16757900D01*
X47870351Y-16639000D01*
X47559649Y-16639000D01*
X47272599Y-16757900D01*
X47052900Y-16977599D01*
X46934000Y-17264649D01*
X5542695Y-17264649D01*
X5375532Y-16861081D01*
X4958919Y-16444468D01*
X4414589Y-16219000D01*
X3825411Y-16219000D01*
X3281081Y-16444468D01*
X2864468Y-16861081D01*
X2639000Y-17405411D01*
X-2069429Y-17405411D01*
X-1943938Y-17341470D01*
X-1562145Y-17281000D01*
X-47373Y-17281000D01*
X0Y-17290423D01*
X47373Y-17281000D01*
X187677Y-17253092D01*
X346781Y-17146781D01*
X453092Y-16987677D01*
X490423Y-16800000D01*
X481000Y-16752627D01*
X481000Y-13837416D01*
X4254000Y-13837416D01*
X4254000Y-14062584D01*
X4340168Y-14270613D01*
X4499387Y-14429832D01*
X4707416Y-14516000D01*
X4932584Y-14516000D01*
X5140613Y-14429832D01*
X5299832Y-14270613D01*
X5386000Y-14062584D01*
X5386000Y-13837416D01*
X8054000Y-13837416D01*
X8054000Y-14062584D01*
X8140168Y-14270613D01*
X8299387Y-14429832D01*
X8507416Y-14516000D01*
X8732584Y-14516000D01*
X8940613Y-14429832D01*
X9099832Y-14270613D01*
X9186000Y-14062584D01*
X9186000Y-13837416D01*
X11854000Y-13837416D01*
X11854000Y-14062584D01*
X11940168Y-14270613D01*
X12099387Y-14429832D01*
X12307416Y-14516000D01*
X12532584Y-14516000D01*
X12740613Y-14429832D01*
X12899832Y-14270613D01*
X12986000Y-14062584D01*
X12986000Y-13837416D01*
X15654000Y-13837416D01*
X15654000Y-14062584D01*
X15740168Y-14270613D01*
X15899387Y-14429832D01*
X16107416Y-14516000D01*
X16332584Y-14516000D01*
X16540613Y-14429832D01*
X16699832Y-14270613D01*
X16786000Y-14062584D01*
X16786000Y-13837416D01*
X16699832Y-13629387D01*
X16540613Y-13470168D01*
X16332584Y-13384000D01*
X16107416Y-13384000D01*
X15899387Y-13470168D01*
X15740168Y-13629387D01*
X15654000Y-13837416D01*
X12986000Y-13837416D01*
X12899832Y-13629387D01*
X12740613Y-13470168D01*
X12532584Y-13384000D01*
X12307416Y-13384000D01*
X12099387Y-13470168D01*
X11940168Y-13629387D01*
X11854000Y-13837416D01*
X9186000Y-13837416D01*
X9099832Y-13629387D01*
X8940613Y-13470168D01*
X8732584Y-13384000D01*
X8507416Y-13384000D01*
X8299387Y-13470168D01*
X8140168Y-13629387D01*
X8054000Y-13837416D01*
X5386000Y-13837416D01*
X5299832Y-13629387D01*
X5140613Y-13470168D01*
X4932584Y-13384000D01*
X4707416Y-13384000D01*
X4499387Y-13470168D01*
X4340168Y-13629387D01*
X4254000Y-13837416D01*
X481000Y-13837416D01*
X481000Y-13087416D01*
X2854000Y-13087416D01*
X2854000Y-13312584D01*
X2940168Y-13520613D01*
X3099387Y-13679832D01*
X3307416Y-13766000D01*
X3532584Y-13766000D01*
X3740613Y-13679832D01*
X3899832Y-13520613D01*
X3986000Y-13312584D01*
X3986000Y-13087416D01*
X6654000Y-13087416D01*
X6654000Y-13312584D01*
X6740168Y-13520613D01*
X6899387Y-13679832D01*
X7107416Y-13766000D01*
X7332584Y-13766000D01*
X7540613Y-13679832D01*
X7699832Y-13520613D01*
X7786000Y-13312584D01*
X7786000Y-13087416D01*
X10454000Y-13087416D01*
X10454000Y-13312584D01*
X10540168Y-13520613D01*
X10699387Y-13679832D01*
X10907416Y-13766000D01*
X11132584Y-13766000D01*
X11340613Y-13679832D01*
X11499832Y-13520613D01*
X11586000Y-13312584D01*
X11586000Y-13087416D01*
X14254000Y-13087416D01*
X14254000Y-13312584D01*
X14340168Y-13520613D01*
X14499387Y-13679832D01*
X14707416Y-13766000D01*
X14932584Y-13766000D01*
X15140613Y-13679832D01*
X15299832Y-13520613D01*
X15386000Y-13312584D01*
X15386000Y-13087416D01*
X15299832Y-12879387D01*
X15140613Y-12720168D01*
X14932584Y-12634000D01*
X14707416Y-12634000D01*
X14499387Y-12720168D01*
X14340168Y-12879387D01*
X14254000Y-13087416D01*
X11586000Y-13087416D01*
X11499832Y-12879387D01*
X11340613Y-12720168D01*
X11132584Y-12634000D01*
X10907416Y-12634000D01*
X10699387Y-12720168D01*
X10540168Y-12879387D01*
X10454000Y-13087416D01*
X7786000Y-13087416D01*
X7699832Y-12879387D01*
X7540613Y-12720168D01*
X7332584Y-12634000D01*
X7107416Y-12634000D01*
X6899387Y-12720168D01*
X6740168Y-12879387D01*
X6654000Y-13087416D01*
X3986000Y-13087416D01*
X3899832Y-12879387D01*
X3740613Y-12720168D01*
X3532584Y-12634000D01*
X3307416Y-12634000D01*
X3099387Y-12720168D01*
X2940168Y-12879387D01*
X2854000Y-13087416D01*
X481000Y-13087416D01*
X481000Y-11587416D01*
X4254000Y-11587416D01*
X4254000Y-11812584D01*
X4340168Y-12020613D01*
X4499387Y-12179832D01*
X4707416Y-12266000D01*
X4932584Y-12266000D01*
X5140613Y-12179832D01*
X5299832Y-12020613D01*
X5386000Y-11812584D01*
X5386000Y-11587416D01*
X8054000Y-11587416D01*
X8054000Y-11812584D01*
X8140168Y-12020613D01*
X8299387Y-12179832D01*
X8507416Y-12266000D01*
X8732584Y-12266000D01*
X8940613Y-12179832D01*
X9099832Y-12020613D01*
X9186000Y-11812584D01*
X9186000Y-11587416D01*
X11854000Y-11587416D01*
X11854000Y-11812584D01*
X11940168Y-12020613D01*
X12099387Y-12179832D01*
X12307416Y-12266000D01*
X12532584Y-12266000D01*
X12740613Y-12179832D01*
X12899832Y-12020613D01*
X12986000Y-11812584D01*
X12986000Y-11587416D01*
X15654000Y-11587416D01*
X15654000Y-11812584D01*
X15740168Y-12020613D01*
X15899387Y-12179832D01*
X16107416Y-12266000D01*
X16332584Y-12266000D01*
X16430051Y-12225628D01*
X20954000Y-12225628D01*
X20954000Y-12894372D01*
X21209917Y-13512210D01*
X21682790Y-13985083D01*
X22300628Y-14241000D01*
X22969372Y-14241000D01*
X23587210Y-13985083D01*
X24060083Y-13512210D01*
X24316000Y-12894372D01*
X24316000Y-12225628D01*
X24060083Y-11607790D01*
X23587210Y-11134917D01*
X22969372Y-10879000D01*
X22300628Y-10879000D01*
X21682790Y-11134917D01*
X21209917Y-11607790D01*
X20954000Y-12225628D01*
X16430051Y-12225628D01*
X16540613Y-12179832D01*
X16699832Y-12020613D01*
X16786000Y-11812584D01*
X16786000Y-11587416D01*
X16699832Y-11379387D01*
X16540613Y-11220168D01*
X16332584Y-11134000D01*
X16107416Y-11134000D01*
X15899387Y-11220168D01*
X15740168Y-11379387D01*
X15654000Y-11587416D01*
X12986000Y-11587416D01*
X12899832Y-11379387D01*
X12740613Y-11220168D01*
X12532584Y-11134000D01*
X12307416Y-11134000D01*
X12099387Y-11220168D01*
X11940168Y-11379387D01*
X11854000Y-11587416D01*
X9186000Y-11587416D01*
X9099832Y-11379387D01*
X8940613Y-11220168D01*
X8732584Y-11134000D01*
X8507416Y-11134000D01*
X8299387Y-11220168D01*
X8140168Y-11379387D01*
X8054000Y-11587416D01*
X5386000Y-11587416D01*
X5299832Y-11379387D01*
X5140613Y-11220168D01*
X4932584Y-11134000D01*
X4707416Y-11134000D01*
X4499387Y-11220168D01*
X4340168Y-11379387D01*
X4254000Y-11587416D01*
X481000Y-11587416D01*
X481000Y-10837416D01*
X2854000Y-10837416D01*
X2854000Y-11062584D01*
X2940168Y-11270613D01*
X3099387Y-11429832D01*
X3307416Y-11516000D01*
X3532584Y-11516000D01*
X3740613Y-11429832D01*
X3899832Y-11270613D01*
X3986000Y-11062584D01*
X3986000Y-10837416D01*
X6654000Y-10837416D01*
X6654000Y-11062584D01*
X6740168Y-11270613D01*
X6899387Y-11429832D01*
X7107416Y-11516000D01*
X7332584Y-11516000D01*
X7540613Y-11429832D01*
X7699832Y-11270613D01*
X7786000Y-11062584D01*
X7786000Y-10837416D01*
X10454000Y-10837416D01*
X10454000Y-11062584D01*
X10540168Y-11270613D01*
X10699387Y-11429832D01*
X10907416Y-11516000D01*
X11132584Y-11516000D01*
X11340613Y-11429832D01*
X11499832Y-11270613D01*
X11586000Y-11062584D01*
X11586000Y-10837416D01*
X14254000Y-10837416D01*
X14254000Y-11062584D01*
X14340168Y-11270613D01*
X14499387Y-11429832D01*
X14707416Y-11516000D01*
X14932584Y-11516000D01*
X15140613Y-11429832D01*
X15299832Y-11270613D01*
X15386000Y-11062584D01*
X15386000Y-10837416D01*
X15299832Y-10629387D01*
X15140613Y-10470168D01*
X14932584Y-10384000D01*
X14707416Y-10384000D01*
X14499387Y-10470168D01*
X14340168Y-10629387D01*
X14254000Y-10837416D01*
X11586000Y-10837416D01*
X11499832Y-10629387D01*
X11340613Y-10470168D01*
X11132584Y-10384000D01*
X10907416Y-10384000D01*
X10699387Y-10470168D01*
X10540168Y-10629387D01*
X10454000Y-10837416D01*
X7786000Y-10837416D01*
X7699832Y-10629387D01*
X7540613Y-10470168D01*
X7332584Y-10384000D01*
X7107416Y-10384000D01*
X6899387Y-10470168D01*
X6740168Y-10629387D01*
X6654000Y-10837416D01*
X3986000Y-10837416D01*
X3899832Y-10629387D01*
X3740613Y-10470168D01*
X3532584Y-10384000D01*
X3307416Y-10384000D01*
X3099387Y-10470168D01*
X2940168Y-10629387D01*
X2854000Y-10837416D01*
X481000Y-10837416D01*
X481000Y-9337416D01*
X4254000Y-9337416D01*
X4254000Y-9562584D01*
X4340168Y-9770613D01*
X4499387Y-9929832D01*
X4707416Y-10016000D01*
X4932584Y-10016000D01*
X5140613Y-9929832D01*
X5299832Y-9770613D01*
X5386000Y-9562584D01*
X5386000Y-9337416D01*
X8054000Y-9337416D01*
X8054000Y-9562584D01*
X8140168Y-9770613D01*
X8299387Y-9929832D01*
X8507416Y-10016000D01*
X8732584Y-10016000D01*
X8940613Y-9929832D01*
X9099832Y-9770613D01*
X9186000Y-9562584D01*
X9186000Y-9337416D01*
X11854000Y-9337416D01*
X11854000Y-9562584D01*
X11940168Y-9770613D01*
X12099387Y-9929832D01*
X12307416Y-10016000D01*
X12532584Y-10016000D01*
X12740613Y-9929832D01*
X12899832Y-9770613D01*
X12986000Y-9562584D01*
X12986000Y-9337416D01*
X15654000Y-9337416D01*
X15654000Y-9562584D01*
X15740168Y-9770613D01*
X15899387Y-9929832D01*
X16107416Y-10016000D01*
X16332584Y-10016000D01*
X16540613Y-9929832D01*
X16699832Y-9770613D01*
X16786000Y-9562584D01*
X16786000Y-9337416D01*
X16699832Y-9129387D01*
X16540613Y-8970168D01*
X16332584Y-8884000D01*
X16107416Y-8884000D01*
X15899387Y-8970168D01*
X15740168Y-9129387D01*
X15654000Y-9337416D01*
X12986000Y-9337416D01*
X12899832Y-9129387D01*
X12740613Y-8970168D01*
X12532584Y-8884000D01*
X12307416Y-8884000D01*
X12099387Y-8970168D01*
X11940168Y-9129387D01*
X11854000Y-9337416D01*
X9186000Y-9337416D01*
X9099832Y-9129387D01*
X8940613Y-8970168D01*
X8732584Y-8884000D01*
X8507416Y-8884000D01*
X8299387Y-8970168D01*
X8140168Y-9129387D01*
X8054000Y-9337416D01*
X5386000Y-9337416D01*
X5299832Y-9129387D01*
X5140613Y-8970168D01*
X4932584Y-8884000D01*
X4707416Y-8884000D01*
X4499387Y-8970168D01*
X4340168Y-9129387D01*
X4254000Y-9337416D01*
X481000Y-9337416D01*
X481000Y-8587416D01*
X2854000Y-8587416D01*
X2854000Y-8812584D01*
X2940168Y-9020613D01*
X3099387Y-9179832D01*
X3307416Y-9266000D01*
X3532584Y-9266000D01*
X3740613Y-9179832D01*
X3899832Y-9020613D01*
X3986000Y-8812584D01*
X3986000Y-8587416D01*
X6654000Y-8587416D01*
X6654000Y-8812584D01*
X6740168Y-9020613D01*
X6899387Y-9179832D01*
X7107416Y-9266000D01*
X7332584Y-9266000D01*
X7540613Y-9179832D01*
X7699832Y-9020613D01*
X7786000Y-8812584D01*
X7786000Y-8587416D01*
X10454000Y-8587416D01*
X10454000Y-8812584D01*
X10540168Y-9020613D01*
X10699387Y-9179832D01*
X10907416Y-9266000D01*
X11132584Y-9266000D01*
X11340613Y-9179832D01*
X11499832Y-9020613D01*
X11586000Y-8812584D01*
X11586000Y-8587416D01*
X14254000Y-8587416D01*
X14254000Y-8812584D01*
X14340168Y-9020613D01*
X14499387Y-9179832D01*
X14707416Y-9266000D01*
X14932584Y-9266000D01*
X15140613Y-9179832D01*
X15299832Y-9020613D01*
X15386000Y-8812584D01*
X15386000Y-8587416D01*
X15300148Y-8380148D01*
X28934716Y-8380148D01*
X28934716Y-8611284D01*
X29023168Y-8824826D01*
X29186606Y-8988264D01*
X29359939Y-9060061D01*
X29431736Y-9233394D01*
X29595174Y-9396832D01*
X29808716Y-9485284D01*
X30039852Y-9485284D01*
X30253394Y-9396832D01*
X30416832Y-9233394D01*
X30505284Y-9019852D01*
X30505284Y-8788716D01*
X30534716Y-8788716D01*
X30534716Y-9019852D01*
X30623168Y-9233394D01*
X30786606Y-9396832D01*
X31000148Y-9485284D01*
X31231284Y-9485284D01*
X31444826Y-9396832D01*
X31608264Y-9233394D01*
X31680061Y-9060061D01*
X31853394Y-8988264D01*
X32016832Y-8824826D01*
X32105284Y-8611284D01*
X32105284Y-8380148D01*
X41734716Y-8380148D01*
X41734716Y-8611284D01*
X41823168Y-8824826D01*
X41986606Y-8988264D01*
X42159939Y-9060061D01*
X42231736Y-9233394D01*
X42395174Y-9396832D01*
X42608716Y-9485284D01*
X42839852Y-9485284D01*
X43053394Y-9396832D01*
X43216832Y-9233394D01*
X43305284Y-9019852D01*
X43305284Y-8788716D01*
X43334716Y-8788716D01*
X43334716Y-9019852D01*
X43423168Y-9233394D01*
X43586606Y-9396832D01*
X43800148Y-9485284D01*
X44031284Y-9485284D01*
X44244826Y-9396832D01*
X44408264Y-9233394D01*
X44480061Y-9060061D01*
X44653394Y-8988264D01*
X44816832Y-8824826D01*
X44905284Y-8611284D01*
X44905284Y-8380148D01*
X46534716Y-8380148D01*
X46534716Y-8611284D01*
X46623168Y-8824826D01*
X46786606Y-8988264D01*
X46959939Y-9060061D01*
X47031736Y-9233394D01*
X47195174Y-9396832D01*
X47408716Y-9485284D01*
X47639852Y-9485284D01*
X47853394Y-9396832D01*
X48016832Y-9233394D01*
X48105284Y-9019852D01*
X48105284Y-8788716D01*
X48134716Y-8788716D01*
X48134716Y-9019852D01*
X48223168Y-9233394D01*
X48386606Y-9396832D01*
X48600148Y-9485284D01*
X48831284Y-9485284D01*
X49044826Y-9396832D01*
X49208264Y-9233394D01*
X49280061Y-9060061D01*
X49453394Y-8988264D01*
X49616832Y-8824826D01*
X49705284Y-8611284D01*
X49705284Y-8380148D01*
X51334716Y-8380148D01*
X51334716Y-8611284D01*
X51423168Y-8824826D01*
X51586606Y-8988264D01*
X51759939Y-9060061D01*
X51831736Y-9233394D01*
X51995174Y-9396832D01*
X52208716Y-9485284D01*
X52439852Y-9485284D01*
X52653394Y-9396832D01*
X52816832Y-9233394D01*
X52905284Y-9019852D01*
X52905284Y-8788716D01*
X52816832Y-8575174D01*
X52653394Y-8411736D01*
X52480061Y-8339939D01*
X52408264Y-8166606D01*
X52244826Y-8003168D01*
X52031284Y-7914716D01*
X51800148Y-7914716D01*
X51586606Y-8003168D01*
X51423168Y-8166606D01*
X51334716Y-8380148D01*
X49705284Y-8380148D01*
X49616832Y-8166606D01*
X49453394Y-8003168D01*
X49239852Y-7914716D01*
X49008716Y-7914716D01*
X48795174Y-8003168D01*
X48631736Y-8166606D01*
X48559939Y-8339939D01*
X48386606Y-8411736D01*
X48223168Y-8575174D01*
X48134716Y-8788716D01*
X48105284Y-8788716D01*
X48016832Y-8575174D01*
X47853394Y-8411736D01*
X47680061Y-8339939D01*
X47608264Y-8166606D01*
X47444826Y-8003168D01*
X47231284Y-7914716D01*
X47000148Y-7914716D01*
X46786606Y-8003168D01*
X46623168Y-8166606D01*
X46534716Y-8380148D01*
X44905284Y-8380148D01*
X44816832Y-8166606D01*
X44653394Y-8003168D01*
X44439852Y-7914716D01*
X44208716Y-7914716D01*
X43995174Y-8003168D01*
X43831736Y-8166606D01*
X43759939Y-8339939D01*
X43586606Y-8411736D01*
X43423168Y-8575174D01*
X43334716Y-8788716D01*
X43305284Y-8788716D01*
X43216832Y-8575174D01*
X43053394Y-8411736D01*
X42880061Y-8339939D01*
X42808264Y-8166606D01*
X42644826Y-8003168D01*
X42431284Y-7914716D01*
X42200148Y-7914716D01*
X41986606Y-8003168D01*
X41823168Y-8166606D01*
X41734716Y-8380148D01*
X32105284Y-8380148D01*
X32016832Y-8166606D01*
X31853394Y-8003168D01*
X31639852Y-7914716D01*
X31408716Y-7914716D01*
X31195174Y-8003168D01*
X31031736Y-8166606D01*
X30959939Y-8339939D01*
X30786606Y-8411736D01*
X30623168Y-8575174D01*
X30534716Y-8788716D01*
X30505284Y-8788716D01*
X30416832Y-8575174D01*
X30253394Y-8411736D01*
X30080061Y-8339939D01*
X30008264Y-8166606D01*
X29844826Y-8003168D01*
X29631284Y-7914716D01*
X29400148Y-7914716D01*
X29186606Y-8003168D01*
X29023168Y-8166606D01*
X28934716Y-8380148D01*
X15300148Y-8380148D01*
X15299832Y-8379387D01*
X15140613Y-8220168D01*
X14932584Y-8134000D01*
X14707416Y-8134000D01*
X14499387Y-8220168D01*
X14340168Y-8379387D01*
X14254000Y-8587416D01*
X11586000Y-8587416D01*
X11499832Y-8379387D01*
X11340613Y-8220168D01*
X11132584Y-8134000D01*
X10907416Y-8134000D01*
X10699387Y-8220168D01*
X10540168Y-8379387D01*
X10454000Y-8587416D01*
X7786000Y-8587416D01*
X7699832Y-8379387D01*
X7540613Y-8220168D01*
X7332584Y-8134000D01*
X7107416Y-8134000D01*
X6899387Y-8220168D01*
X6740168Y-8379387D01*
X6654000Y-8587416D01*
X3986000Y-8587416D01*
X3899832Y-8379387D01*
X3740613Y-8220168D01*
X3532584Y-8134000D01*
X3307416Y-8134000D01*
X3099387Y-8220168D01*
X2940168Y-8379387D01*
X2854000Y-8587416D01*
X481000Y-8587416D01*
X481000Y-5405411D01*
X2639000Y-5405411D01*
X2639000Y-5994589D01*
X2864468Y-6538919D01*
X3281081Y-6955532D01*
X3825411Y-7181000D01*
X4414589Y-7181000D01*
X4958919Y-6955532D01*
X5375532Y-6538919D01*
X5601000Y-5994589D01*
X5601000Y-5405411D01*
X5375532Y-4861081D01*
X4958919Y-4444468D01*
X4414589Y-4219000D01*
X3825411Y-4219000D01*
X3281081Y-4444468D01*
X2864468Y-4861081D01*
X2639000Y-5405411D01*
X481000Y-5405411D01*
X481000Y-3226889D01*
X551510Y-2598280D01*
X750638Y-2026462D01*
X1071502Y-1512972D01*
X1498154Y-1083331D01*
X2009388Y-758891D01*
X2579805Y-555776D01*
X3206887Y-481000D01*
X54073000Y-481000D01*
X54073000Y-7928446D01*
%TD*%
M02*
