%TF.GenerationSoftware,KiCad,Pcbnew,6.0.0-rc1-unknown-4a57541~66~ubuntu18.04.1*%
%TF.CreationDate,2018-09-13T10:12:08-06:00*%
%TF.ProjectId,thelio-io-sas,7468656C696F2D696F2D7361732E6B69,rev?*%
%TF.SameCoordinates,Original*%
%TF.FileFunction,Copper,L1,Top,Signal*%
%TF.FilePolarity,Positive*%
%FSLAX46Y46*%
G04 Gerber Fmt 4.6, Leading zero omitted, Abs format (unit mm)*
G04 Created by KiCad (PCBNEW 6.0.0-rc1-unknown-4a57541~66~ubuntu18.04.1) date Thu Sep 13 10:12:08 2018*
%MOMM*%
%LPD*%
G01*
G04 APERTURE LIST*
%TA.AperFunction,NonConductor*%
%ADD10C,0.200000*%
%TD*%
%TA.AperFunction,NonConductor*%
%ADD11C,0.150000*%
%TD*%
%TA.AperFunction,SMDPad,CuDef*%
%ADD12R,0.500000X1.800000*%
%TD*%
%TA.AperFunction,ConnectorPad*%
%ADD13R,3.360000X3.000000*%
%TD*%
%TA.AperFunction,WasherPad*%
%ADD14C,2.600000*%
%TD*%
%TA.AperFunction,SMDPad,CuDef*%
%ADD15R,0.700000X1.800000*%
%TD*%
%TA.AperFunction,ComponentPad*%
%ADD16C,0.370000*%
%TD*%
%TA.AperFunction,ComponentPad*%
%ADD17C,0.900000*%
%TD*%
%TA.AperFunction,ComponentPad*%
%ADD18C,8.000000*%
%TD*%
%TA.AperFunction,ViaPad*%
%ADD19C,0.800000*%
%TD*%
%TA.AperFunction,Conductor*%
%ADD20C,0.250000*%
%TD*%
%TA.AperFunction,Conductor*%
%ADD21C,0.200000*%
%TD*%
G04 APERTURE END LIST*
D10*
X0Y-32800000D02*
X0Y-3200000D01*
X70850000Y-3200000D02*
X70850000Y-32800000D01*
X0Y-3200000D02*
G75*
G02X3200000Y0I3200000J0D01*
G01*
X67650000Y0D02*
G75*
G02X70850000Y-3200000I0J-3200000D01*
G01*
X3200000Y0D02*
X67650000Y0D01*
X67650000Y-36000000D02*
X3200000Y-36000000D01*
D11*
X70850000Y-32800000D02*
G75*
G02X67650000Y-36000000I-3200000J0D01*
G01*
D10*
X3200000Y-36000000D02*
G75*
G02X0Y-32800000I0J3200000D01*
G01*
D12*
%TO.P,U.21,E7*%
%TO.N,/sas1/CLK+*%
X26520000Y-26300000D03*
%TO.P,U.21,E8*%
%TO.N,/sas1/CLK-*%
X27320000Y-26300000D03*
%TO.P,U.21,E9*%
%TO.N,GND*%
X28120000Y-26300000D03*
%TO.P,U.21,E10*%
%TO.N,/sas1/T0+*%
X28920000Y-26300000D03*
%TO.P,U.21,E11*%
%TO.N,/sas1/T0-*%
X29720000Y-26300000D03*
%TO.P,U.21,E12*%
%TO.N,GND*%
X30520000Y-26300000D03*
%TO.P,U.21,E13*%
%TO.N,/sas1/R0-*%
X31320000Y-26300000D03*
%TO.P,U.21,E14*%
%TO.N,/sas1/R0+*%
X32120000Y-26300000D03*
%TO.P,U.21,E15*%
%TO.N,GND*%
X32920000Y-26300000D03*
%TO.P,U.21,E16*%
%TO.N,Net-(U.21-PadE16)*%
X33720000Y-26300000D03*
%TO.P,U.21,S8*%
%TO.N,GND*%
X34520000Y-26300000D03*
%TO.P,U.21,S9*%
%TO.N,Net-(U.21-PadS9)*%
X35320000Y-26300000D03*
%TO.P,U.21,S10*%
%TO.N,Net-(U.21-PadS10)*%
X36120000Y-26300000D03*
%TO.P,U.21,S11*%
%TO.N,GND*%
X36920000Y-26300000D03*
%TO.P,U.21,S12*%
%TO.N,Net-(U.21-PadS12)*%
X37720000Y-26300000D03*
%TO.P,U.21,S13*%
%TO.N,Net-(U.21-PadS13)*%
X38520000Y-26300000D03*
%TO.P,U.21,S14*%
%TO.N,GND*%
X39320000Y-26300000D03*
%TO.P,U.21,E17*%
%TO.N,Net-(U.21-PadE17)*%
X40120000Y-26300000D03*
%TO.P,U.21,E18*%
%TO.N,GND*%
X40920000Y-26300000D03*
%TO.P,U.21,E19*%
%TO.N,/sas1/T1+*%
X41720000Y-26300000D03*
%TO.P,U.21,E20*%
%TO.N,/sas1/T1-*%
X42520000Y-26300000D03*
%TO.P,U.21,E21*%
%TO.N,GND*%
X43320000Y-26300000D03*
%TO.P,U.21,E22*%
%TO.N,/sas1/R1-*%
X44120000Y-26300000D03*
%TO.P,U.21,E23*%
%TO.N,/sas1/R1+*%
X44920000Y-26300000D03*
%TO.P,U.21,E24*%
%TO.N,GND*%
X45720000Y-26300000D03*
%TO.P,U.21,E25*%
%TO.N,/sas1/T2+*%
X46520000Y-26300000D03*
%TO.P,U.21,E26*%
%TO.N,/sas1/T2-*%
X47320000Y-26300000D03*
%TO.P,U.21,E27*%
%TO.N,GND*%
X48120000Y-26300000D03*
%TO.P,U.21,E28*%
%TO.N,/sas1/R2-*%
X48920000Y-26300000D03*
%TO.P,U.21,E29*%
%TO.N,/sas1/R2+*%
X49720000Y-26300000D03*
%TO.P,U.21,E30*%
%TO.N,GND*%
X50520000Y-26300000D03*
%TO.P,U.21,E31*%
%TO.N,/sas1/T3+*%
X51320000Y-26300000D03*
%TO.P,U.21,E32*%
%TO.N,/sas1/T3-*%
X52120000Y-26300000D03*
%TO.P,U.21,E33*%
%TO.N,GND*%
X52920000Y-26300000D03*
%TO.P,U.21,E34*%
%TO.N,/sas1/R3-*%
X53720000Y-26300000D03*
%TO.P,U.21,E35*%
%TO.N,/sas1/R3+*%
X54520000Y-26300000D03*
%TO.P,U.21,E36*%
%TO.N,GND*%
X55320000Y-26300000D03*
%TO.P,U.21,E37*%
%TO.N,/sas1/SCLK*%
X56120000Y-26300000D03*
%TO.P,U.21,E38*%
%TO.N,/sas1/SDAT*%
X56920000Y-26300000D03*
%TO.P,U.21,E39*%
%TO.N,GND*%
X57720000Y-26300000D03*
D13*
%TO.P,U.21,*%
%TO.N,*%
X61095000Y-25160000D03*
D14*
X61365000Y-28560000D03*
X22635000Y-28560000D03*
D13*
X22905000Y-25160000D03*
D15*
%TO.P,U.21,P15*%
%TO.N,+12V*%
X57875000Y-30270000D03*
%TO.P,U.21,P14*%
X56605000Y-30270000D03*
%TO.P,U.21,P13*%
X55335000Y-30270000D03*
%TO.P,U.21,P12*%
%TO.N,GND*%
X54065000Y-30270000D03*
%TO.P,U.21,P11*%
%TO.N,/sas1/ACT*%
X52795000Y-30270000D03*
%TO.P,U.21,P10*%
%TO.N,GND*%
X51525000Y-30270000D03*
%TO.P,U.21,P9*%
%TO.N,+5V*%
X50255000Y-30270000D03*
%TO.P,U.21,P8*%
X48985000Y-30270000D03*
%TO.P,U.21,P7*%
X47715000Y-30270000D03*
%TO.P,U.21,P6*%
%TO.N,GND*%
X46445000Y-30270000D03*
%TO.P,U.21,P5*%
X45175000Y-30270000D03*
%TO.P,U.21,P4*%
X43905000Y-30270000D03*
%TO.P,U.21,P3*%
%TO.N,Net-(U.21-PadP3)*%
X42635000Y-30270000D03*
%TO.P,U.21,P2*%
%TO.N,Net-(U.21-PadP2)*%
X41365000Y-30270000D03*
%TO.P,U.21,S7*%
%TO.N,GND*%
X33745000Y-30270000D03*
%TO.P,U.21,S6*%
%TO.N,Net-(U.21-PadS6)*%
X32475000Y-30270000D03*
%TO.P,U.21,S5*%
%TO.N,Net-(U.21-PadS5)*%
X31205000Y-30270000D03*
%TO.P,U.21,S4*%
%TO.N,GND*%
X29935000Y-30270000D03*
%TO.P,U.21,S3*%
%TO.N,Net-(U.21-PadS3)*%
X28665000Y-30270000D03*
%TO.P,U.21,S2*%
%TO.N,Net-(U.21-PadS2)*%
X27395000Y-30270000D03*
%TO.P,U.21,S1*%
%TO.N,GND*%
X26125000Y-30270000D03*
D12*
%TO.P,U.21,E6*%
%TO.N,Net-(U.21-PadE6)*%
X38920000Y-30890000D03*
D15*
%TO.P,U.21,P1*%
%TO.N,Net-(U.21-PadP1)*%
X40095000Y-30270000D03*
D12*
%TO.P,U.21,E5*%
%TO.N,/sas1/RST*%
X38120000Y-30890000D03*
%TO.P,U.21,E4*%
%TO.N,Net-(U.21-PadE4)*%
X37320000Y-30890000D03*
%TO.P,U.21,E3*%
%TO.N,Net-(U.21-PadE3)*%
X36520000Y-30890000D03*
%TO.P,U.21,E2*%
%TO.N,Net-(U.21-PadE2)*%
X35720000Y-30890000D03*
%TO.P,U.21,E1*%
%TO.N,Net-(U.21-PadE1)*%
X34920000Y-30890000D03*
%TD*%
D16*
%TO.P,SAS0,D7*%
%TO.N,/sas0/T2+*%
X16820000Y-10200000D03*
%TO.P,SAS0,D8*%
%TO.N,/sas0/T2-*%
X15420000Y-9450000D03*
%TO.P,SAS0,D5*%
%TO.N,/sas0/T0-*%
X15420000Y-11700000D03*
%TO.P,SAS0,D3*%
%TO.N,GND*%
X16120000Y-13200000D03*
%TO.P,SAS0,D9*%
X16120000Y-8700000D03*
%TO.P,SAS0,D4*%
%TO.N,/sas0/T0+*%
X16820000Y-12450000D03*
%TO.P,SAS0,D1*%
%TO.N,/sas0/SDAT*%
X16820000Y-14700000D03*
%TO.P,SAS0,D6*%
%TO.N,GND*%
X16120000Y-10950000D03*
%TO.P,SAS0,D2*%
%TO.N,/sas0/SCLK*%
X15420000Y-13950000D03*
%TO.P,SAS0,C7*%
%TO.N,/sas0/T3+*%
X13020000Y-10200000D03*
%TO.P,SAS0,C8*%
%TO.N,/sas0/T3-*%
X11620000Y-9450000D03*
%TO.P,SAS0,C5*%
%TO.N,/sas0/T1-*%
X11620000Y-11700000D03*
%TO.P,SAS0,C3*%
%TO.N,GND*%
X12320000Y-13200000D03*
%TO.P,SAS0,C9*%
X12320000Y-8700000D03*
%TO.P,SAS0,C4*%
%TO.N,/sas0/T1+*%
X13020000Y-12450000D03*
%TO.P,SAS0,C1*%
%TO.N,/sas0/ACT*%
X13020000Y-14700000D03*
%TO.P,SAS0,C6*%
%TO.N,GND*%
X12320000Y-10950000D03*
%TO.P,SAS0,C2*%
%TO.N,Net-(SAS0-PadC2)*%
X11620000Y-13950000D03*
%TO.P,SAS0,B7*%
%TO.N,/sas0/R2+*%
X9220000Y-10200000D03*
%TO.P,SAS0,B8*%
%TO.N,/sas0/R2-*%
X7820000Y-9450000D03*
%TO.P,SAS0,B5*%
%TO.N,/sas0/R0-*%
X7820000Y-11700000D03*
%TO.P,SAS0,B3*%
%TO.N,GND*%
X8520000Y-13200000D03*
%TO.P,SAS0,B9*%
X8520000Y-8700000D03*
%TO.P,SAS0,B4*%
%TO.N,/sas0/R0+*%
X9220000Y-12450000D03*
%TO.P,SAS0,B1*%
%TO.N,/sas0/RST*%
X9220000Y-14700000D03*
%TO.P,SAS0,B6*%
%TO.N,GND*%
X8520000Y-10950000D03*
%TO.P,SAS0,B2*%
X7820000Y-13950000D03*
%TO.P,SAS0,A8*%
%TO.N,/sas0/R3-*%
X4020000Y-9450000D03*
%TO.P,SAS0,A9*%
%TO.N,GND*%
X4720000Y-8700000D03*
%TO.P,SAS0,A6*%
X4720000Y-10950000D03*
%TO.P,SAS0,A7*%
%TO.N,/sas0/R3+*%
X5420000Y-10200000D03*
%TO.P,SAS0,A5*%
%TO.N,/sas0/R1-*%
X4020000Y-11700000D03*
%TO.P,SAS0,A1*%
%TO.N,/sas0/CLK+*%
X5420000Y-14700000D03*
%TO.P,SAS0,A2*%
%TO.N,/sas0/CLK-*%
X4020000Y-13950000D03*
%TO.P,SAS0,A3*%
%TO.N,GND*%
X4720000Y-13200000D03*
%TO.P,SAS0,A4*%
%TO.N,/sas0/R1+*%
X5420000Y-12450000D03*
%TD*%
%TO.P,SAS1,A4*%
%TO.N,/sas1/R1+*%
X5420000Y-28450000D03*
%TO.P,SAS1,A3*%
%TO.N,GND*%
X4720000Y-29200000D03*
%TO.P,SAS1,A2*%
%TO.N,/sas1/CLK-*%
X4020000Y-29950000D03*
%TO.P,SAS1,A1*%
%TO.N,/sas1/CLK+*%
X5420000Y-30700000D03*
%TO.P,SAS1,A5*%
%TO.N,/sas1/R1-*%
X4020000Y-27700000D03*
%TO.P,SAS1,A7*%
%TO.N,/sas1/R3+*%
X5420000Y-26200000D03*
%TO.P,SAS1,A6*%
%TO.N,GND*%
X4720000Y-26950000D03*
%TO.P,SAS1,A9*%
X4720000Y-24700000D03*
%TO.P,SAS1,A8*%
%TO.N,/sas1/R3-*%
X4020000Y-25450000D03*
%TO.P,SAS1,B2*%
%TO.N,GND*%
X7820000Y-29950000D03*
%TO.P,SAS1,B6*%
X8520000Y-26950000D03*
%TO.P,SAS1,B1*%
%TO.N,/sas1/RST*%
X9220000Y-30700000D03*
%TO.P,SAS1,B4*%
%TO.N,/sas1/R0+*%
X9220000Y-28450000D03*
%TO.P,SAS1,B9*%
%TO.N,GND*%
X8520000Y-24700000D03*
%TO.P,SAS1,B3*%
X8520000Y-29200000D03*
%TO.P,SAS1,B5*%
%TO.N,/sas1/R0-*%
X7820000Y-27700000D03*
%TO.P,SAS1,B8*%
%TO.N,/sas1/R2-*%
X7820000Y-25450000D03*
%TO.P,SAS1,B7*%
%TO.N,/sas1/R2+*%
X9220000Y-26200000D03*
%TO.P,SAS1,C2*%
%TO.N,Net-(SAS1-PadC2)*%
X11620000Y-29950000D03*
%TO.P,SAS1,C6*%
%TO.N,GND*%
X12320000Y-26950000D03*
%TO.P,SAS1,C1*%
%TO.N,/sas1/ACT*%
X13020000Y-30700000D03*
%TO.P,SAS1,C4*%
%TO.N,/sas1/T1+*%
X13020000Y-28450000D03*
%TO.P,SAS1,C9*%
%TO.N,GND*%
X12320000Y-24700000D03*
%TO.P,SAS1,C3*%
X12320000Y-29200000D03*
%TO.P,SAS1,C5*%
%TO.N,/sas1/T1-*%
X11620000Y-27700000D03*
%TO.P,SAS1,C8*%
%TO.N,/sas1/T3-*%
X11620000Y-25450000D03*
%TO.P,SAS1,C7*%
%TO.N,/sas1/T3+*%
X13020000Y-26200000D03*
%TO.P,SAS1,D2*%
%TO.N,/sas1/SCLK*%
X15420000Y-29950000D03*
%TO.P,SAS1,D6*%
%TO.N,GND*%
X16120000Y-26950000D03*
%TO.P,SAS1,D1*%
%TO.N,/sas1/SDAT*%
X16820000Y-30700000D03*
%TO.P,SAS1,D4*%
%TO.N,/sas1/T0+*%
X16820000Y-28450000D03*
%TO.P,SAS1,D9*%
%TO.N,GND*%
X16120000Y-24700000D03*
%TO.P,SAS1,D3*%
X16120000Y-29200000D03*
%TO.P,SAS1,D5*%
%TO.N,/sas1/T0-*%
X15420000Y-27700000D03*
%TO.P,SAS1,D8*%
%TO.N,/sas1/T2-*%
X15420000Y-25450000D03*
%TO.P,SAS1,D7*%
%TO.N,/sas1/T2+*%
X16820000Y-26200000D03*
%TD*%
D12*
%TO.P,U.20,E7*%
%TO.N,/sas0/CLK+*%
X26520000Y-10300000D03*
%TO.P,U.20,E8*%
%TO.N,/sas0/CLK-*%
X27320000Y-10300000D03*
%TO.P,U.20,E9*%
%TO.N,GND*%
X28120000Y-10300000D03*
%TO.P,U.20,E10*%
%TO.N,/sas0/T0+*%
X28920000Y-10300000D03*
%TO.P,U.20,E11*%
%TO.N,/sas0/T0-*%
X29720000Y-10300000D03*
%TO.P,U.20,E12*%
%TO.N,GND*%
X30520000Y-10300000D03*
%TO.P,U.20,E13*%
%TO.N,/sas0/R0-*%
X31320000Y-10300000D03*
%TO.P,U.20,E14*%
%TO.N,/sas0/R0+*%
X32120000Y-10300000D03*
%TO.P,U.20,E15*%
%TO.N,GND*%
X32920000Y-10300000D03*
%TO.P,U.20,E16*%
%TO.N,Net-(U.20-PadE16)*%
X33720000Y-10300000D03*
%TO.P,U.20,S8*%
%TO.N,GND*%
X34520000Y-10300000D03*
%TO.P,U.20,S9*%
%TO.N,Net-(U.20-PadS9)*%
X35320000Y-10300000D03*
%TO.P,U.20,S10*%
%TO.N,Net-(U.20-PadS10)*%
X36120000Y-10300000D03*
%TO.P,U.20,S11*%
%TO.N,GND*%
X36920000Y-10300000D03*
%TO.P,U.20,S12*%
%TO.N,Net-(U.20-PadS12)*%
X37720000Y-10300000D03*
%TO.P,U.20,S13*%
%TO.N,Net-(U.20-PadS13)*%
X38520000Y-10300000D03*
%TO.P,U.20,S14*%
%TO.N,GND*%
X39320000Y-10300000D03*
%TO.P,U.20,E17*%
%TO.N,Net-(U.20-PadE17)*%
X40120000Y-10300000D03*
%TO.P,U.20,E18*%
%TO.N,GND*%
X40920000Y-10300000D03*
%TO.P,U.20,E19*%
%TO.N,/sas0/T1+*%
X41720000Y-10300000D03*
%TO.P,U.20,E20*%
%TO.N,/sas0/T1-*%
X42520000Y-10300000D03*
%TO.P,U.20,E21*%
%TO.N,GND*%
X43320000Y-10300000D03*
%TO.P,U.20,E22*%
%TO.N,/sas0/R1-*%
X44120000Y-10300000D03*
%TO.P,U.20,E23*%
%TO.N,/sas0/R1+*%
X44920000Y-10300000D03*
%TO.P,U.20,E24*%
%TO.N,GND*%
X45720000Y-10300000D03*
%TO.P,U.20,E25*%
%TO.N,/sas0/T2+*%
X46520000Y-10300000D03*
%TO.P,U.20,E26*%
%TO.N,/sas0/T2-*%
X47320000Y-10300000D03*
%TO.P,U.20,E27*%
%TO.N,GND*%
X48120000Y-10300000D03*
%TO.P,U.20,E28*%
%TO.N,/sas0/R2-*%
X48920000Y-10300000D03*
%TO.P,U.20,E29*%
%TO.N,/sas0/R2+*%
X49720000Y-10300000D03*
%TO.P,U.20,E30*%
%TO.N,GND*%
X50520000Y-10300000D03*
%TO.P,U.20,E31*%
%TO.N,/sas0/T3+*%
X51320000Y-10300000D03*
%TO.P,U.20,E32*%
%TO.N,/sas0/T3-*%
X52120000Y-10300000D03*
%TO.P,U.20,E33*%
%TO.N,GND*%
X52920000Y-10300000D03*
%TO.P,U.20,E34*%
%TO.N,/sas0/R3-*%
X53720000Y-10300000D03*
%TO.P,U.20,E35*%
%TO.N,/sas0/R3+*%
X54520000Y-10300000D03*
%TO.P,U.20,E36*%
%TO.N,GND*%
X55320000Y-10300000D03*
%TO.P,U.20,E37*%
%TO.N,/sas0/SCLK*%
X56120000Y-10300000D03*
%TO.P,U.20,E38*%
%TO.N,/sas0/SDAT*%
X56920000Y-10300000D03*
%TO.P,U.20,E39*%
%TO.N,GND*%
X57720000Y-10300000D03*
D13*
%TO.P,U.20,*%
%TO.N,*%
X61095000Y-9160000D03*
D14*
X61365000Y-12560000D03*
X22635000Y-12560000D03*
D13*
X22905000Y-9160000D03*
D15*
%TO.P,U.20,P15*%
%TO.N,+12V*%
X57875000Y-14270000D03*
%TO.P,U.20,P14*%
X56605000Y-14270000D03*
%TO.P,U.20,P13*%
X55335000Y-14270000D03*
%TO.P,U.20,P12*%
%TO.N,GND*%
X54065000Y-14270000D03*
%TO.P,U.20,P11*%
%TO.N,/sas0/ACT*%
X52795000Y-14270000D03*
%TO.P,U.20,P10*%
%TO.N,GND*%
X51525000Y-14270000D03*
%TO.P,U.20,P9*%
%TO.N,+5V*%
X50255000Y-14270000D03*
%TO.P,U.20,P8*%
X48985000Y-14270000D03*
%TO.P,U.20,P7*%
X47715000Y-14270000D03*
%TO.P,U.20,P6*%
%TO.N,GND*%
X46445000Y-14270000D03*
%TO.P,U.20,P5*%
X45175000Y-14270000D03*
%TO.P,U.20,P4*%
X43905000Y-14270000D03*
%TO.P,U.20,P3*%
%TO.N,Net-(U.20-PadP3)*%
X42635000Y-14270000D03*
%TO.P,U.20,P2*%
%TO.N,Net-(U.20-PadP2)*%
X41365000Y-14270000D03*
%TO.P,U.20,S7*%
%TO.N,GND*%
X33745000Y-14270000D03*
%TO.P,U.20,S6*%
%TO.N,Net-(U.20-PadS6)*%
X32475000Y-14270000D03*
%TO.P,U.20,S5*%
%TO.N,Net-(U.20-PadS5)*%
X31205000Y-14270000D03*
%TO.P,U.20,S4*%
%TO.N,GND*%
X29935000Y-14270000D03*
%TO.P,U.20,S3*%
%TO.N,Net-(U.20-PadS3)*%
X28665000Y-14270000D03*
%TO.P,U.20,S2*%
%TO.N,Net-(U.20-PadS2)*%
X27395000Y-14270000D03*
%TO.P,U.20,S1*%
%TO.N,GND*%
X26125000Y-14270000D03*
D12*
%TO.P,U.20,E6*%
%TO.N,Net-(U.20-PadE6)*%
X38920000Y-14890000D03*
D15*
%TO.P,U.20,P1*%
%TO.N,Net-(U.20-PadP1)*%
X40095000Y-14270000D03*
D12*
%TO.P,U.20,E5*%
%TO.N,/sas0/RST*%
X38120000Y-14890000D03*
%TO.P,U.20,E4*%
%TO.N,Net-(U.20-PadE4)*%
X37320000Y-14890000D03*
%TO.P,U.20,E3*%
%TO.N,Net-(U.20-PadE3)*%
X36520000Y-14890000D03*
%TO.P,U.20,E2*%
%TO.N,Net-(U.20-PadE2)*%
X35720000Y-14890000D03*
%TO.P,U.20,E1*%
%TO.N,Net-(U.20-PadE1)*%
X34920000Y-14890000D03*
%TD*%
D17*
%TO.P,HOLE1,1*%
%TO.N,N/C*%
X68971320Y-17878680D03*
X66850000Y-17000000D03*
X64728680Y-17878680D03*
X63850000Y-20000000D03*
X64728680Y-22121320D03*
X66850000Y-23000000D03*
X68971320Y-22121320D03*
X69850000Y-20000000D03*
D18*
X66850000Y-20000000D03*
%TD*%
D19*
%TO.N,GND*%
X51525000Y-33445000D03*
X51525000Y-17570000D03*
X54040000Y-33445000D03*
X54065000Y-17570000D03*
X45175000Y-33445000D03*
X45175000Y-17570000D03*
X46420000Y-33445000D03*
X46445000Y-17570000D03*
X43905000Y-33445000D03*
X43905000Y-17570000D03*
%TO.N,+12V*%
X57875000Y-33445000D03*
X57875000Y-17570000D03*
X56580000Y-33445000D03*
X56605000Y-17570000D03*
X55310000Y-33445000D03*
X55335000Y-17570000D03*
%TO.N,+5V*%
X50255000Y-33445000D03*
X50255000Y-17570000D03*
%TO.N,/sas0/SDAT*%
X57304997Y-8130734D03*
%TO.N,/sas0/SCLK*%
X56447243Y-7616670D03*
%TO.N,/sas0/T1-*%
X41291232Y-7528768D03*
%TO.N,/sas0/T1+*%
X40548768Y-8271232D03*
%TO.N,/sas0/ACT*%
X52795000Y-17470000D03*
%TO.N,/sas0/R2+*%
X50236282Y-8646230D03*
%TO.N,/sas0/R2-*%
X49493818Y-7903766D03*
%TO.N,/sas0/R0-*%
X32548768Y-7528768D03*
%TO.N,/sas0/R0+*%
X33291232Y-8271232D03*
%TO.N,/sas0/R3-*%
X54948768Y-7528768D03*
%TO.N,/sas0/R3+*%
X55691232Y-8271232D03*
%TO.N,/sas0/R1-*%
X45348768Y-6728768D03*
%TO.N,/sas0/CLK+*%
X25348768Y-8271232D03*
%TO.N,/sas0/CLK-*%
X26091232Y-7528768D03*
%TO.N,/sas0/R1+*%
X46091232Y-7471232D03*
%TO.N,/sas1/SDAT*%
X57304997Y-24130734D03*
%TO.N,/sas1/SCLK*%
X56447243Y-23616670D03*
%TO.N,/sas1/T1-*%
X41291232Y-23528768D03*
%TO.N,/sas1/T1+*%
X40548768Y-24271232D03*
%TO.N,/sas1/ACT*%
X52795000Y-33470000D03*
%TO.N,/sas1/R2+*%
X50236282Y-24646230D03*
%TO.N,/sas1/R2-*%
X49493818Y-23903766D03*
%TO.N,/sas1/R0-*%
X32548768Y-23528768D03*
%TO.N,/sas1/R0+*%
X33291232Y-24271232D03*
%TO.N,/sas1/R3-*%
X54948768Y-23528768D03*
%TO.N,/sas1/R3+*%
X55691232Y-24271232D03*
%TO.N,/sas1/R1-*%
X45348768Y-22728768D03*
%TO.N,/sas1/CLK+*%
X25348768Y-24271232D03*
%TO.N,/sas1/CLK-*%
X26091232Y-23528768D03*
%TO.N,/sas1/R1+*%
X46091232Y-23471232D03*
%TD*%
D20*
%TO.N,GND*%
X57720000Y-26300000D02*
X57720000Y-28365000D01*
X57720000Y-28365000D02*
X55320000Y-28365000D01*
X45175000Y-12365000D02*
X45720000Y-12365000D01*
X29935000Y-28365000D02*
X30520000Y-28365000D01*
X28120000Y-28365000D02*
X29935000Y-28365000D01*
X26125000Y-28365000D02*
X28120000Y-28365000D01*
X55320000Y-28350000D02*
X55305000Y-28365000D01*
X55305000Y-28365000D02*
X54065000Y-28365000D01*
X55320000Y-26300000D02*
X55320000Y-28350000D01*
X54065000Y-28365000D02*
X54065000Y-30270000D01*
X46445000Y-28365000D02*
X46445000Y-30270000D01*
X45175000Y-28365000D02*
X45175000Y-30270000D01*
X33745000Y-28365000D02*
X33745000Y-30270000D01*
X26125000Y-30270000D02*
X26125000Y-28365000D01*
X29935000Y-28365000D02*
X29935000Y-30270000D01*
X28120000Y-28365000D02*
X28120000Y-26300000D01*
X30520000Y-28365000D02*
X30520000Y-26300000D01*
X32920000Y-28365000D02*
X32920000Y-26300000D01*
X34520000Y-28365000D02*
X34520000Y-26300000D01*
X36920000Y-28365000D02*
X36920000Y-26300000D01*
X54065000Y-12365000D02*
X54065000Y-14270000D01*
X26125000Y-14270000D02*
X26125000Y-12365000D01*
X52920000Y-28365000D02*
X54065000Y-28365000D01*
X48120000Y-28365000D02*
X50520000Y-28365000D01*
X46445000Y-28365000D02*
X48120000Y-28365000D01*
X45720000Y-28365000D02*
X46445000Y-28365000D01*
X45175000Y-28365000D02*
X45720000Y-28365000D01*
X40920000Y-28365000D02*
X43320000Y-28365000D01*
X39320000Y-28365000D02*
X40920000Y-28365000D01*
X36920000Y-28365000D02*
X39320000Y-28365000D01*
X34520000Y-28365000D02*
X36920000Y-28365000D01*
X33745000Y-28365000D02*
X34520000Y-28365000D01*
X32920000Y-28365000D02*
X33745000Y-28365000D01*
X30520000Y-28365000D02*
X32920000Y-28365000D01*
X39320000Y-28365000D02*
X39320000Y-26300000D01*
X40920000Y-28365000D02*
X40920000Y-26300000D01*
X43320000Y-28365000D02*
X43320000Y-26300000D01*
X45720000Y-28365000D02*
X45720000Y-26300000D01*
X48120000Y-28365000D02*
X48120000Y-26300000D01*
X50520000Y-28365000D02*
X50520000Y-26300000D01*
X52920000Y-28365000D02*
X52920000Y-26300000D01*
X54040000Y-30295000D02*
X54065000Y-30270000D01*
X46420000Y-30295000D02*
X46445000Y-30270000D01*
X45150000Y-30295000D02*
X45175000Y-30270000D01*
X54065000Y-12365000D02*
X55320000Y-12365000D01*
X55320000Y-10300000D02*
X55320000Y-12365000D01*
X52920000Y-12365000D02*
X54065000Y-12365000D01*
X52920000Y-10300000D02*
X52920000Y-12365000D01*
X48120000Y-12365000D02*
X50520000Y-12365000D01*
X50520000Y-10300000D02*
X50520000Y-12365000D01*
X45720000Y-12365000D02*
X48120000Y-12365000D01*
X48120000Y-10300000D02*
X48120000Y-12365000D01*
X45720000Y-10300000D02*
X45720000Y-12365000D01*
X40920000Y-12365000D02*
X43320000Y-12365000D01*
X43320000Y-10300000D02*
X43320000Y-12365000D01*
X51525000Y-30270000D02*
X51525000Y-33445000D01*
X51525000Y-14270000D02*
X51525000Y-17570000D01*
X54040000Y-33445000D02*
X54040000Y-30295000D01*
X54065000Y-14270000D02*
X54065000Y-17570000D01*
X45175000Y-14270000D02*
X45175000Y-17570000D01*
X46420000Y-33445000D02*
X46420000Y-30295000D01*
X46445000Y-14270000D02*
X46445000Y-17570000D01*
X45175000Y-33445000D02*
X45175000Y-30270000D01*
X43905000Y-30270000D02*
X43905000Y-33445000D01*
X43905000Y-14270000D02*
X43905000Y-17570000D01*
X39320000Y-12365000D02*
X40920000Y-12365000D01*
X40920000Y-10300000D02*
X40920000Y-12365000D01*
X36920000Y-12365000D02*
X39320000Y-12365000D01*
X39320000Y-10300000D02*
X39320000Y-12365000D01*
X34520000Y-12365000D02*
X36920000Y-12365000D01*
X36920000Y-10300000D02*
X36920000Y-12365000D01*
X32920000Y-12365000D02*
X34520000Y-12365000D01*
X34520000Y-10300000D02*
X34520000Y-12365000D01*
X32920000Y-10300000D02*
X32920000Y-12365000D01*
X30520000Y-12365000D02*
X32920000Y-12365000D01*
X29935000Y-12365000D02*
X30520000Y-12365000D01*
X30520000Y-10300000D02*
X30520000Y-12365000D01*
X28120000Y-12365000D02*
X29935000Y-12365000D01*
X26125000Y-12365000D02*
X28120000Y-12365000D01*
X28120000Y-10300000D02*
X28120000Y-12365000D01*
X46445000Y-14270000D02*
X46445000Y-12365000D01*
X45175000Y-14270000D02*
X45175000Y-12365000D01*
X33745000Y-14270000D02*
X33745000Y-12365000D01*
X29935000Y-14270000D02*
X29935000Y-12365000D01*
X43905000Y-30270000D02*
X43905000Y-28365000D01*
X43320000Y-28365000D02*
X43905000Y-28365000D01*
X43905000Y-28365000D02*
X45175000Y-28365000D01*
X51525000Y-30270000D02*
X51525000Y-28365000D01*
X50520000Y-28365000D02*
X51525000Y-28365000D01*
X51525000Y-28365000D02*
X52920000Y-28365000D01*
X51525000Y-14270000D02*
X51525000Y-12365000D01*
X50520000Y-12365000D02*
X51525000Y-12365000D01*
X51525000Y-12365000D02*
X52920000Y-12365000D01*
X43320000Y-12365000D02*
X43905000Y-12365000D01*
X43905000Y-14270000D02*
X43905000Y-12365000D01*
X43905000Y-12365000D02*
X45175000Y-12365000D01*
X57720000Y-12365000D02*
X55320000Y-12365000D01*
X57720000Y-10300000D02*
X57720000Y-12365000D01*
%TO.N,+12V*%
X57875000Y-14270000D02*
X57875000Y-17570000D01*
X56580000Y-33445000D02*
X56580000Y-30295000D01*
X56605000Y-14270000D02*
X56605000Y-17570000D01*
X55310000Y-33445000D02*
X55310000Y-30295000D01*
X55335000Y-14270000D02*
X55335000Y-17570000D01*
X56580000Y-30295000D02*
X56605000Y-30270000D01*
X55310000Y-30295000D02*
X55335000Y-30270000D01*
X57875000Y-33445000D02*
X57875000Y-30270000D01*
%TO.N,+5V*%
X50255000Y-33445000D02*
X50255000Y-30270000D01*
X50255000Y-17570000D02*
X48985000Y-17570000D01*
X47715000Y-17570000D02*
X48985000Y-17570000D01*
X47715000Y-14270000D02*
X47715000Y-17570000D01*
X48985000Y-14270000D02*
X48985000Y-17570000D01*
X50255000Y-14270000D02*
X50255000Y-17570000D01*
X50230000Y-30295000D02*
X50255000Y-30270000D01*
X48960000Y-30295000D02*
X48985000Y-30270000D01*
X47690000Y-30295000D02*
X47715000Y-30270000D01*
X47740000Y-33445000D02*
X48985000Y-33445000D01*
X48985000Y-30270000D02*
X48985000Y-33445000D01*
X48985000Y-33445000D02*
X50255000Y-33445000D01*
X47715000Y-33420000D02*
X47715000Y-30270000D01*
X47740000Y-33445000D02*
X47715000Y-33420000D01*
D21*
%TO.N,/sas0/T2+*%
X46520000Y-10300000D02*
X46270001Y-10300000D01*
X16905010Y-10467494D02*
X16905010Y-10298613D01*
X45634768Y-5978766D02*
X21164150Y-5978766D01*
X46791233Y-7135231D02*
X45634768Y-5978766D01*
X17036809Y-10106107D02*
X17036809Y-10599294D01*
X46791233Y-7807233D02*
X46791233Y-7135231D01*
X16905010Y-10298613D02*
X16820000Y-10213603D01*
X16820000Y-10213603D02*
X16820000Y-10200000D01*
X46270001Y-8328465D02*
X46791233Y-7807233D01*
X17036809Y-10599294D02*
X16905010Y-10467494D01*
X21164150Y-5978766D02*
X17036809Y-10106107D01*
X46270001Y-10300000D02*
X46270001Y-8328465D01*
%TO.N,/sas0/T2-*%
X47241224Y-7993625D02*
X47241224Y-6948839D01*
X16841534Y-9664999D02*
X16563199Y-9664999D01*
X47120001Y-10499999D02*
X47120001Y-8114848D01*
X20977758Y-5528775D02*
X16841534Y-9664999D01*
X16284999Y-9943199D02*
X16284999Y-10314999D01*
X47120001Y-8114848D02*
X47241224Y-7993625D01*
X16284999Y-10314999D02*
X15420000Y-9450000D01*
X47241224Y-6948839D02*
X45821160Y-5528775D01*
X45821160Y-5528775D02*
X20977758Y-5528775D01*
X47320000Y-10300000D02*
X47120001Y-10499999D01*
X16563199Y-9664999D02*
X16284999Y-9943199D01*
%TO.N,/sas0/T0-*%
X29285145Y-8885143D02*
X29119992Y-8885143D01*
X20475008Y-7233607D02*
X20475008Y-7726793D01*
X29520001Y-10100001D02*
X29520001Y-9119999D01*
X29720000Y-10300000D02*
X29520001Y-10100001D01*
X29520001Y-9119999D02*
X29285145Y-8885143D01*
X20475008Y-7726793D02*
X16501801Y-11700000D01*
X29119992Y-8885143D02*
X26613625Y-6378776D01*
X26613625Y-6378776D02*
X21329839Y-6378776D01*
X21329839Y-6378776D02*
X20475008Y-7233607D01*
X16501801Y-11700000D02*
X15420000Y-11700000D01*
%TO.N,/sas0/T0+*%
X28670001Y-9071535D02*
X26427233Y-6828767D01*
X28920000Y-10300000D02*
X28670001Y-10300000D01*
X21516231Y-6828767D02*
X20924999Y-7419999D01*
X28670001Y-10300000D02*
X28670001Y-9071535D01*
X20924999Y-7913200D02*
X16820000Y-12018199D01*
X16820000Y-12018199D02*
X16820000Y-12450000D01*
X20924999Y-7419999D02*
X20924999Y-7913200D01*
X26427233Y-6828767D02*
X21516231Y-6828767D01*
D20*
%TO.N,/sas0/SDAT*%
X56920000Y-10300000D02*
X56920000Y-8515731D01*
X56920000Y-8515731D02*
X57304997Y-8130734D01*
%TO.N,/sas0/SCLK*%
X56447243Y-8822757D02*
X56447243Y-7616670D01*
X56120000Y-10300000D02*
X56120000Y-9150000D01*
X56120000Y-9150000D02*
X56447243Y-8822757D01*
D21*
%TO.N,/sas0/T3+*%
X51070001Y-9886398D02*
X51070001Y-8443947D01*
X51070001Y-8443947D02*
X49829819Y-7203765D01*
X48387368Y-7203765D02*
X46108603Y-4925000D01*
X13020000Y-9768199D02*
X13020000Y-10200000D01*
X51320000Y-10136397D02*
X51070001Y-9886398D01*
X51320000Y-10300000D02*
X51320000Y-10136397D01*
X49829819Y-7203765D02*
X48387368Y-7203765D01*
X46108603Y-4925000D02*
X17863199Y-4925000D01*
X17863199Y-4925000D02*
X13020000Y-9768199D01*
%TO.N,/sas0/T3-*%
X48573774Y-6753774D02*
X46295000Y-4475000D01*
X51920001Y-9119999D02*
X51519992Y-8719990D01*
X12701801Y-9450000D02*
X11620000Y-9450000D01*
X52120000Y-10300000D02*
X51920001Y-10100001D01*
X51519992Y-8719990D02*
X51519992Y-8257555D01*
X46295000Y-4475000D02*
X17676801Y-4475000D01*
X17676801Y-4475000D02*
X12701801Y-9450000D01*
X50016211Y-6753774D02*
X48573774Y-6753774D01*
X51920001Y-10100001D02*
X51920001Y-9119999D01*
X51519992Y-8257555D02*
X50016211Y-6753774D01*
%TO.N,/sas0/T1-*%
X42345000Y-9006801D02*
X41291232Y-7953033D01*
X41291232Y-7953033D02*
X41291232Y-7528768D01*
X42520000Y-9650000D02*
X42345000Y-9475000D01*
X42345000Y-9475000D02*
X42345000Y-9006801D01*
X42520000Y-10300000D02*
X42520000Y-9650000D01*
%TO.N,/sas0/T1+*%
X41895000Y-9475000D02*
X41895000Y-9193199D01*
X41720000Y-10300000D02*
X41720000Y-9650000D01*
X41895000Y-9193199D02*
X40973033Y-8271232D01*
X41720000Y-9650000D02*
X41895000Y-9475000D01*
X40973033Y-8271232D02*
X40548768Y-8271232D01*
D20*
%TO.N,/sas0/ACT*%
X52795000Y-14270000D02*
X52795000Y-17470000D01*
D21*
%TO.N,/sas0/R2+*%
X49812017Y-8646230D02*
X50236282Y-8646230D01*
X49720000Y-10300000D02*
X49720000Y-9650000D01*
X49545000Y-8913247D02*
X49812017Y-8646230D01*
X49545000Y-9475000D02*
X49545000Y-8913247D01*
X49720000Y-9650000D02*
X49545000Y-9475000D01*
%TO.N,/sas0/R2-*%
X48920000Y-9650000D02*
X49095000Y-9475000D01*
X49095000Y-8726849D02*
X49493818Y-8328031D01*
X49493818Y-8328031D02*
X49493818Y-7903766D01*
X49095000Y-9475000D02*
X49095000Y-8726849D01*
X48920000Y-10300000D02*
X48920000Y-9650000D01*
%TO.N,/sas0/R0-*%
X32548768Y-7953033D02*
X32548768Y-7528768D01*
X31495000Y-9006801D02*
X32548768Y-7953033D01*
X31320000Y-10300000D02*
X31320000Y-9650000D01*
X31320000Y-9650000D02*
X31495000Y-9475000D01*
X31495000Y-9475000D02*
X31495000Y-9006801D01*
%TO.N,/sas0/R0+*%
X32120000Y-10300000D02*
X32120000Y-9650000D01*
X31945000Y-9193199D02*
X32866967Y-8271232D01*
X32866967Y-8271232D02*
X33291232Y-8271232D01*
X32120000Y-9650000D02*
X31945000Y-9475000D01*
X31945000Y-9475000D02*
X31945000Y-9193199D01*
D20*
%TO.N,/sas0/RST*%
X9730001Y-15210001D02*
X9220000Y-14700000D01*
X37245002Y-16700000D02*
X17229002Y-16700000D01*
X17229002Y-16700000D02*
X15739003Y-15210001D01*
X38120000Y-15825002D02*
X37245002Y-16700000D01*
X38120000Y-14890000D02*
X38120000Y-15825002D01*
X15739003Y-15210001D02*
X9730001Y-15210001D01*
D21*
%TO.N,/sas0/R3-*%
X53895000Y-9006801D02*
X54948768Y-7953033D01*
X53720000Y-9650000D02*
X53895000Y-9475000D01*
X53720000Y-10300000D02*
X53720000Y-9650000D01*
X54948768Y-7953033D02*
X54948768Y-7528768D01*
X53895000Y-9475000D02*
X53895000Y-9006801D01*
%TO.N,/sas0/R3+*%
X54345000Y-9475000D02*
X54345000Y-9193199D01*
X54345000Y-9193199D02*
X55266967Y-8271232D01*
X54520000Y-9650000D02*
X54345000Y-9475000D01*
X54520000Y-10300000D02*
X54520000Y-9650000D01*
X55266967Y-8271232D02*
X55691232Y-8271232D01*
%TO.N,/sas0/R1-*%
X44120000Y-8949999D02*
X44295000Y-8774999D01*
X44295000Y-8774999D02*
X44295000Y-8206801D01*
X45348768Y-7153033D02*
X45348768Y-6728768D01*
X44295000Y-8206801D02*
X45348768Y-7153033D01*
X44120000Y-10300000D02*
X44120000Y-8949999D01*
%TO.N,/sas0/CLK+*%
X26695000Y-9193199D02*
X25773033Y-8271232D01*
X25773033Y-8271232D02*
X25348768Y-8271232D01*
X26695000Y-9475000D02*
X26695000Y-9193199D01*
X26520000Y-9650000D02*
X26695000Y-9475000D01*
X26520000Y-10300000D02*
X26520000Y-9650000D01*
%TO.N,/sas0/CLK-*%
X27320000Y-10300000D02*
X27320000Y-9650000D01*
X26091232Y-7953033D02*
X26091232Y-7528768D01*
X27320000Y-9650000D02*
X27145000Y-9475000D01*
X27145000Y-9475000D02*
X27145000Y-9006801D01*
X27145000Y-9006801D02*
X26091232Y-7953033D01*
%TO.N,/sas0/R1+*%
X44745000Y-8774999D02*
X44745000Y-8393199D01*
X44745000Y-8393199D02*
X45666967Y-7471232D01*
X44920000Y-8949999D02*
X44745000Y-8774999D01*
X45666967Y-7471232D02*
X46091232Y-7471232D01*
X44920000Y-10300000D02*
X44920000Y-8949999D01*
%TO.N,/sas1/T2+*%
X16905010Y-26298613D02*
X16820000Y-26213603D01*
X16905010Y-26467494D02*
X16905010Y-26298613D01*
X17036809Y-26106107D02*
X17036809Y-26599294D01*
X45634768Y-21978766D02*
X21164150Y-21978766D01*
X46270001Y-24328465D02*
X46791233Y-23807233D01*
X17036809Y-26599294D02*
X16905010Y-26467494D01*
X21164150Y-21978766D02*
X17036809Y-26106107D01*
X16820000Y-26213603D02*
X16820000Y-26200000D01*
X46270001Y-26300000D02*
X46270001Y-24328465D01*
X46520000Y-26300000D02*
X46270001Y-26300000D01*
X46791233Y-23135231D02*
X45634768Y-21978766D01*
X46791233Y-23807233D02*
X46791233Y-23135231D01*
%TO.N,/sas1/T2-*%
X45821160Y-21528775D02*
X20977758Y-21528775D01*
X47241224Y-22948839D02*
X45821160Y-21528775D01*
X47241224Y-23993625D02*
X47241224Y-22948839D01*
X20977758Y-21528775D02*
X16841534Y-25664999D01*
X47320000Y-26300000D02*
X47120001Y-26499999D01*
X47120001Y-26499999D02*
X47120001Y-24114848D01*
X47120001Y-24114848D02*
X47241224Y-23993625D01*
X16841534Y-25664999D02*
X16563199Y-25664999D01*
X16284999Y-25943199D02*
X16284999Y-26314999D01*
X16563199Y-25664999D02*
X16284999Y-25943199D01*
X16284999Y-26314999D02*
X15420000Y-25450000D01*
%TO.N,/sas1/T0-*%
X26613625Y-22378776D02*
X21329839Y-22378776D01*
X29119992Y-24885143D02*
X26613625Y-22378776D01*
X29285145Y-24885143D02*
X29119992Y-24885143D01*
X29520001Y-25119999D02*
X29285145Y-24885143D01*
X29520001Y-26100001D02*
X29520001Y-25119999D01*
X29720000Y-26300000D02*
X29520001Y-26100001D01*
X20475008Y-23233607D02*
X20475008Y-23726793D01*
X16501801Y-27700000D02*
X15420000Y-27700000D01*
X20475008Y-23726793D02*
X16501801Y-27700000D01*
X21329839Y-22378776D02*
X20475008Y-23233607D01*
%TO.N,/sas1/T0+*%
X20924999Y-23913200D02*
X16820000Y-28018199D01*
X16820000Y-28018199D02*
X16820000Y-28450000D01*
X20924999Y-23419999D02*
X20924999Y-23913200D01*
X28920000Y-26300000D02*
X28670001Y-26300000D01*
X28670001Y-26300000D02*
X28670001Y-25071535D01*
X28670001Y-25071535D02*
X26427233Y-22828767D01*
X26427233Y-22828767D02*
X21516231Y-22828767D01*
X21516231Y-22828767D02*
X20924999Y-23419999D01*
D20*
%TO.N,/sas1/SDAT*%
X56920000Y-26300000D02*
X56920000Y-24515731D01*
X56920000Y-24515731D02*
X57304997Y-24130734D01*
%TO.N,/sas1/SCLK*%
X56447243Y-24822757D02*
X56447243Y-23616670D01*
X56120000Y-26300000D02*
X56120000Y-25150000D01*
X56120000Y-25150000D02*
X56447243Y-24822757D01*
D21*
%TO.N,/sas1/T3+*%
X51070001Y-24443947D02*
X49829819Y-23203765D01*
X51320000Y-26136397D02*
X51070001Y-25886398D01*
X51320000Y-26300000D02*
X51320000Y-26136397D01*
X48387368Y-23203765D02*
X46108603Y-20925000D01*
X49829819Y-23203765D02*
X48387368Y-23203765D01*
X51070001Y-25886398D02*
X51070001Y-24443947D01*
X13020000Y-25768199D02*
X13020000Y-26200000D01*
X17863199Y-20925000D02*
X13020000Y-25768199D01*
X46108603Y-20925000D02*
X17863199Y-20925000D01*
%TO.N,/sas1/T3-*%
X48573774Y-22753774D02*
X46295000Y-20475000D01*
X51920001Y-26100001D02*
X51920001Y-25119999D01*
X52120000Y-26300000D02*
X51920001Y-26100001D01*
X51920001Y-25119999D02*
X51519992Y-24719990D01*
X51519992Y-24719990D02*
X51519992Y-24257555D01*
X51519992Y-24257555D02*
X50016211Y-22753774D01*
X50016211Y-22753774D02*
X48573774Y-22753774D01*
X12701801Y-25450000D02*
X11620000Y-25450000D01*
X46295000Y-20475000D02*
X17676801Y-20475000D01*
X17676801Y-20475000D02*
X12701801Y-25450000D01*
%TO.N,/sas1/T1-*%
X41291232Y-23953033D02*
X41291232Y-23528768D01*
X42345000Y-25006801D02*
X41291232Y-23953033D01*
X42520000Y-26300000D02*
X42520000Y-25650000D01*
X42520000Y-25650000D02*
X42345000Y-25475000D01*
X42345000Y-25475000D02*
X42345000Y-25006801D01*
%TO.N,/sas1/T1+*%
X41720000Y-25650000D02*
X41895000Y-25475000D01*
X41720000Y-26300000D02*
X41720000Y-25650000D01*
X41895000Y-25475000D02*
X41895000Y-25193199D01*
X41895000Y-25193199D02*
X40973033Y-24271232D01*
X40973033Y-24271232D02*
X40548768Y-24271232D01*
D20*
%TO.N,/sas1/ACT*%
X52795000Y-30270000D02*
X52795000Y-33470000D01*
D21*
%TO.N,/sas1/R2+*%
X49812017Y-24646230D02*
X50236282Y-24646230D01*
X49545000Y-25475000D02*
X49545000Y-24913247D01*
X49720000Y-25650000D02*
X49545000Y-25475000D01*
X49720000Y-26300000D02*
X49720000Y-25650000D01*
X49545000Y-24913247D02*
X49812017Y-24646230D01*
%TO.N,/sas1/R2-*%
X49493818Y-24328031D02*
X49493818Y-23903766D01*
X49095000Y-24726849D02*
X49493818Y-24328031D01*
X48920000Y-26300000D02*
X48920000Y-25650000D01*
X48920000Y-25650000D02*
X49095000Y-25475000D01*
X49095000Y-25475000D02*
X49095000Y-24726849D01*
%TO.N,/sas1/R0-*%
X32548768Y-23953033D02*
X32548768Y-23528768D01*
X31320000Y-26300000D02*
X31320000Y-25650000D01*
X31320000Y-25650000D02*
X31495000Y-25475000D01*
X31495000Y-25475000D02*
X31495000Y-25006801D01*
X31495000Y-25006801D02*
X32548768Y-23953033D01*
%TO.N,/sas1/R0+*%
X31945000Y-25475000D02*
X31945000Y-25193199D01*
X32120000Y-25650000D02*
X31945000Y-25475000D01*
X31945000Y-25193199D02*
X32866967Y-24271232D01*
X32120000Y-26300000D02*
X32120000Y-25650000D01*
X32866967Y-24271232D02*
X33291232Y-24271232D01*
D20*
%TO.N,/sas1/RST*%
X9730001Y-31210001D02*
X9220000Y-30700000D01*
X15739003Y-31210001D02*
X9730001Y-31210001D01*
X17229002Y-32700000D02*
X15739003Y-31210001D01*
X37245002Y-32700000D02*
X17229002Y-32700000D01*
X38120000Y-31825002D02*
X37245002Y-32700000D01*
X38120000Y-30890000D02*
X38120000Y-31825002D01*
D21*
%TO.N,/sas1/R3-*%
X53720000Y-26300000D02*
X53720000Y-25650000D01*
X53720000Y-25650000D02*
X53895000Y-25475000D01*
X53895000Y-25475000D02*
X53895000Y-25006801D01*
X54948768Y-23953033D02*
X54948768Y-23528768D01*
X53895000Y-25006801D02*
X54948768Y-23953033D01*
%TO.N,/sas1/R3+*%
X54520000Y-25650000D02*
X54345000Y-25475000D01*
X55266967Y-24271232D02*
X55691232Y-24271232D01*
X54520000Y-26300000D02*
X54520000Y-25650000D01*
X54345000Y-25193199D02*
X55266967Y-24271232D01*
X54345000Y-25475000D02*
X54345000Y-25193199D01*
%TO.N,/sas1/R1-*%
X44120000Y-26300000D02*
X44120000Y-24949999D01*
X44120000Y-24949999D02*
X44295000Y-24774999D01*
X44295000Y-24774999D02*
X44295000Y-24206801D01*
X45348768Y-23153033D02*
X45348768Y-22728768D01*
X44295000Y-24206801D02*
X45348768Y-23153033D01*
%TO.N,/sas1/CLK+*%
X25773033Y-24271232D02*
X25348768Y-24271232D01*
X26695000Y-25193199D02*
X25773033Y-24271232D01*
X26520000Y-25650000D02*
X26695000Y-25475000D01*
X26520000Y-26300000D02*
X26520000Y-25650000D01*
X26695000Y-25475000D02*
X26695000Y-25193199D01*
%TO.N,/sas1/CLK-*%
X26091232Y-23953033D02*
X26091232Y-23528768D01*
X27145000Y-25006801D02*
X26091232Y-23953033D01*
X27320000Y-26300000D02*
X27320000Y-25650000D01*
X27320000Y-25650000D02*
X27145000Y-25475000D01*
X27145000Y-25475000D02*
X27145000Y-25006801D01*
%TO.N,/sas1/R1+*%
X45666967Y-23471232D02*
X46091232Y-23471232D01*
X44745000Y-24393199D02*
X45666967Y-23471232D01*
X44920000Y-26300000D02*
X44920000Y-24949999D01*
X44745000Y-24774999D02*
X44745000Y-24393199D01*
X44920000Y-24949999D02*
X44745000Y-24774999D01*
%TD*%
M02*
