M48
;DRILL file {KiCad 6.0.0-rc1-unknown-4a57541~66~ubuntu18.04.1} date Thu Sep 13 12:55:36 2018
;FORMAT={-:-/ absolute / metric / decimal}
FMAT,2
METRIC,TZ
T1C0.320
T2C0.400
T3C0.600
T4C4.000
%
G90
G05
M71
T1
X44.02Y-73.45
X44.02Y-75.7
X44.02Y-77.95
X44.72Y-72.7
X44.72Y-74.95
X44.72Y-77.2
X45.42Y-74.2
X45.42Y-76.45
X45.42Y-78.7
X47.82Y-73.45
X47.82Y-75.7
X47.82Y-77.95
X48.52Y-72.7
X48.52Y-74.95
X48.52Y-77.2
X49.22Y-74.2
X49.22Y-76.45
X49.22Y-78.7
X51.62Y-73.45
X51.62Y-75.7
X51.62Y-77.95
X52.32Y-72.7
X52.32Y-74.95
X52.32Y-77.2
X53.02Y-74.2
X53.02Y-76.45
X53.02Y-78.7
X55.42Y-73.45
X55.42Y-75.7
X55.42Y-77.95
X56.12Y-72.7
X56.12Y-74.95
X56.12Y-77.2
X56.82Y-74.2
X56.82Y-76.45
X56.82Y-78.7
X44.02Y-57.45
X44.02Y-59.7
X44.02Y-61.95
X44.72Y-56.7
X44.72Y-58.95
X44.72Y-61.2
X45.42Y-58.2
X45.42Y-60.45
X45.42Y-62.7
X47.82Y-57.45
X47.82Y-59.7
X47.82Y-61.95
X48.52Y-56.7
X48.52Y-58.95
X48.52Y-61.2
X49.22Y-58.2
X49.22Y-60.45
X49.22Y-62.7
X51.62Y-57.45
X51.62Y-59.7
X51.62Y-61.95
X52.32Y-56.7
X52.32Y-58.95
X52.32Y-61.2
X53.02Y-58.2
X53.02Y-60.45
X53.02Y-62.7
X55.42Y-57.45
X55.42Y-59.7
X55.42Y-61.95
X56.12Y-56.7
X56.12Y-58.95
X56.12Y-61.2
X56.82Y-58.2
X56.82Y-60.45
X56.82Y-62.7
X44.02Y-41.45
X44.02Y-43.7
X44.02Y-45.95
X44.72Y-40.7
X44.72Y-42.95
X44.72Y-45.2
X45.42Y-42.2
X45.42Y-44.45
X45.42Y-46.7
X47.82Y-41.45
X47.82Y-43.7
X47.82Y-45.95
X48.52Y-40.7
X48.52Y-42.95
X48.52Y-45.2
X49.22Y-42.2
X49.22Y-44.45
X49.22Y-46.7
X51.62Y-41.45
X51.62Y-43.7
X51.62Y-45.95
X52.32Y-40.7
X52.32Y-42.95
X52.32Y-45.2
X53.02Y-42.2
X53.02Y-44.45
X53.02Y-46.7
X55.42Y-41.45
X55.42Y-43.7
X55.42Y-45.95
X56.12Y-40.7
X56.12Y-42.95
X56.12Y-45.2
X56.82Y-42.2
X56.82Y-44.45
X56.82Y-46.7
X44.02Y-89.45
X44.02Y-91.7
X44.02Y-93.95
X44.72Y-88.7
X44.72Y-90.95
X44.72Y-93.2
X45.42Y-90.2
X45.42Y-92.45
X45.42Y-94.7
X47.82Y-89.45
X47.82Y-91.7
X47.82Y-93.95
X48.52Y-88.7
X48.52Y-90.95
X48.52Y-93.2
X49.22Y-90.2
X49.22Y-92.45
X49.22Y-94.7
X51.62Y-89.45
X51.62Y-91.7
X51.62Y-93.95
X52.32Y-88.7
X52.32Y-90.95
X52.32Y-93.2
X53.02Y-90.2
X53.02Y-92.45
X53.02Y-94.7
X55.42Y-89.45
X55.42Y-91.7
X55.42Y-93.95
X56.12Y-88.7
X56.12Y-90.95
X56.12Y-93.2
X56.82Y-90.2
X56.82Y-92.45
X56.82Y-94.7
T2
X65.349Y-40.271
X65.349Y-56.271
X65.349Y-72.271
X65.349Y-88.271
X66.091Y-39.529
X66.091Y-55.529
X66.091Y-71.529
X66.091Y-87.529
X72.549Y-39.529
X72.549Y-55.529
X72.549Y-71.529
X72.549Y-87.529
X73.291Y-40.271
X73.291Y-56.271
X73.291Y-72.271
X73.291Y-88.271
X78.12Y-48.595
X78.12Y-64.595
X78.12Y-80.595
X78.12Y-96.595
X80.549Y-40.271
X80.549Y-56.271
X80.549Y-72.271
X80.549Y-88.271
X81.291Y-39.529
X81.291Y-55.529
X81.291Y-71.529
X81.291Y-87.529
X83.905Y-49.57
X83.905Y-65.445
X83.905Y-81.445
X83.905Y-97.445
X85.175Y-49.57
X85.175Y-65.445
X85.175Y-81.445
X85.175Y-97.445
X85.349Y-38.729
X85.349Y-54.729
X85.349Y-70.729
X85.349Y-86.729
X86.091Y-39.471
X86.091Y-55.471
X86.091Y-71.471
X86.091Y-87.471
X86.42Y-65.445
X86.42Y-81.445
X86.42Y-97.445
X86.445Y-49.57
X89.494Y-39.904
X89.494Y-55.904
X89.494Y-71.904
X89.494Y-87.904
X90.236Y-40.646
X90.236Y-56.646
X90.236Y-72.646
X90.236Y-88.646
X90.255Y-49.57
X90.255Y-65.445
X90.255Y-81.445
X90.255Y-97.445
X91.525Y-49.57
X91.525Y-65.445
X91.525Y-81.445
X91.525Y-97.445
X92.795Y-49.47
X92.795Y-65.47
X92.795Y-81.47
X92.795Y-97.47
X94.04Y-65.445
X94.04Y-81.445
X94.04Y-97.445
X94.065Y-49.57
X94.949Y-39.529
X94.949Y-55.529
X94.949Y-71.529
X94.949Y-87.529
X95.31Y-65.445
X95.31Y-81.445
X95.31Y-97.445
X95.335Y-49.57
X95.691Y-40.271
X95.691Y-56.271
X95.691Y-72.271
X95.691Y-88.271
X96.447Y-39.617
X96.447Y-55.617
X96.447Y-71.617
X96.447Y-87.617
X96.58Y-65.445
X96.58Y-81.445
X96.58Y-97.445
X96.605Y-49.57
X97.305Y-40.131
X97.305Y-56.131
X97.305Y-72.131
X97.305Y-88.131
X97.875Y-49.57
X97.875Y-65.445
X97.875Y-81.445
X97.875Y-97.445
T3
X33.Y-83.8
X33.879Y-81.679
X33.879Y-85.921
X36.Y-80.8
X36.Y-86.8
X38.121Y-81.679
X38.121Y-85.921
X39.Y-83.8
X103.85Y-52.
X104.729Y-49.879
X104.729Y-54.121
X106.85Y-49.
X106.85Y-55.
X108.971Y-49.879
X108.971Y-54.121
X109.85Y-52.
X103.85Y-83.8
X104.729Y-81.679
X104.729Y-85.921
X106.85Y-80.8
X106.85Y-86.8
X108.971Y-81.679
X108.971Y-85.921
X109.85Y-83.8
X33.Y-52.
X33.879Y-49.879
X33.879Y-54.121
X36.Y-49.
X36.Y-55.
X38.121Y-49.879
X38.121Y-54.121
X39.Y-52.
T4
X36.Y-83.8
X106.85Y-52.
X106.85Y-83.8
X36.Y-52.
T0
M30
