%TF.GenerationSoftware,KiCad,Pcbnew,5.0.2-bee76a0~70~ubuntu18.10.1*%
%TF.CreationDate,2019-01-30T12:14:29-07:00*%
%TF.ProjectId,thelio-io-sas,7468656c-696f-42d6-996f-2d7361732e6b,rev?*%
%TF.SameCoordinates,Original*%
%TF.FileFunction,Legend,Top*%
%TF.FilePolarity,Positive*%
%FSLAX46Y46*%
G04 Gerber Fmt 4.6, Leading zero omitted, Abs format (unit mm)*
G04 Created by KiCad (PCBNEW 5.0.2-bee76a0~70~ubuntu18.10.1) date Wed Jan 30 12:14:29 2019*
%MOMM*%
%LPD*%
G01*
G04 APERTURE LIST*
%ADD10C,0.200000*%
%ADD11C,0.150000*%
%ADD12C,0.120000*%
G04 APERTURE END LIST*
D10*
X77050000Y-18400000D02*
X77050000Y-53400000D01*
X75450000Y-16800000D02*
G75*
G02X77050000Y-18400000I0J-1600000D01*
G01*
X73850000Y-16800000D02*
X75450000Y-16800000D01*
X73850000Y-55000000D02*
X75450000Y-55000000D01*
X77050000Y-53400000D02*
G75*
G02X75450000Y-55000000I-1600000J0D01*
G01*
X70650000Y0D02*
G75*
G02X73850000Y-3200000I0J-3200000D01*
G01*
D11*
X73850000Y-68600000D02*
G75*
G02X70650000Y-71800000I-3200000J0D01*
G01*
D10*
X73850000Y-16800000D02*
X73850000Y-3200000D01*
X73850000Y-55000000D02*
X73850000Y-68600000D01*
X-3200000Y-18400000D02*
G75*
G02X-1600000Y-16800000I1600000J0D01*
G01*
X0Y-16800000D02*
X-1600000Y-16800000D01*
X0Y-55000000D02*
X-1600000Y-55000000D01*
X-1600000Y-55000000D02*
G75*
G02X-3200000Y-53400000I0J1600000D01*
G01*
X-3200000Y-53400000D02*
X-3200000Y-18400000D01*
X0Y-16800000D02*
X0Y-3200000D01*
X0Y-55000000D02*
X0Y-68600000D01*
X3200000Y0D02*
X70650000Y0D01*
X0Y-3200000D02*
G75*
G02X3200000Y0I3200000J0D01*
G01*
X70650000Y-71800000D02*
X3200000Y-71800000D01*
X3200000Y-71800000D02*
G75*
G02X0Y-68600000I0J3200000D01*
G01*
D12*
%TO.C,U2_0*%
X20400000Y-16700000D02*
X20400000Y-7100000D01*
X63600000Y-16700000D02*
X20400000Y-16700000D01*
X63600000Y-7100000D02*
X63600000Y-16700000D01*
X20400000Y-7100000D02*
X63600000Y-7100000D01*
%TO.C,U2_1*%
X20400000Y-32700000D02*
X20400000Y-23100000D01*
X63600000Y-32700000D02*
X20400000Y-32700000D01*
X63600000Y-23100000D02*
X63600000Y-32700000D01*
X20400000Y-23100000D02*
X63600000Y-23100000D01*
%TO.C,U2_2*%
X20400000Y-48700000D02*
X20400000Y-39100000D01*
X63600000Y-48700000D02*
X20400000Y-48700000D01*
X63600000Y-39100000D02*
X63600000Y-48700000D01*
X20400000Y-39100000D02*
X63600000Y-39100000D01*
%TO.C,U2_3*%
X20400000Y-55100000D02*
X63600000Y-55100000D01*
X63600000Y-55100000D02*
X63600000Y-64700000D01*
X63600000Y-64700000D02*
X20400000Y-64700000D01*
X20400000Y-64700000D02*
X20400000Y-55100000D01*
%TD*%
%TO.C,U2_0*%
D11*
X40380952Y-18752380D02*
X40380952Y-19561904D01*
X40428571Y-19657142D01*
X40476190Y-19704761D01*
X40571428Y-19752380D01*
X40761904Y-19752380D01*
X40857142Y-19704761D01*
X40904761Y-19657142D01*
X40952380Y-19561904D01*
X40952380Y-18752380D01*
X41380952Y-18847619D02*
X41428571Y-18800000D01*
X41523809Y-18752380D01*
X41761904Y-18752380D01*
X41857142Y-18800000D01*
X41904761Y-18847619D01*
X41952380Y-18942857D01*
X41952380Y-19038095D01*
X41904761Y-19180952D01*
X41333333Y-19752380D01*
X41952380Y-19752380D01*
X42142857Y-19847619D02*
X42904761Y-19847619D01*
X43333333Y-18752380D02*
X43428571Y-18752380D01*
X43523809Y-18800000D01*
X43571428Y-18847619D01*
X43619047Y-18942857D01*
X43666666Y-19133333D01*
X43666666Y-19371428D01*
X43619047Y-19561904D01*
X43571428Y-19657142D01*
X43523809Y-19704761D01*
X43428571Y-19752380D01*
X43333333Y-19752380D01*
X43238095Y-19704761D01*
X43190476Y-19657142D01*
X43142857Y-19561904D01*
X43095238Y-19371428D01*
X43095238Y-19133333D01*
X43142857Y-18942857D01*
X43190476Y-18847619D01*
X43238095Y-18800000D01*
X43333333Y-18752380D01*
%TO.C,U2_1*%
X40380952Y-34752380D02*
X40380952Y-35561904D01*
X40428571Y-35657142D01*
X40476190Y-35704761D01*
X40571428Y-35752380D01*
X40761904Y-35752380D01*
X40857142Y-35704761D01*
X40904761Y-35657142D01*
X40952380Y-35561904D01*
X40952380Y-34752380D01*
X41380952Y-34847619D02*
X41428571Y-34800000D01*
X41523809Y-34752380D01*
X41761904Y-34752380D01*
X41857142Y-34800000D01*
X41904761Y-34847619D01*
X41952380Y-34942857D01*
X41952380Y-35038095D01*
X41904761Y-35180952D01*
X41333333Y-35752380D01*
X41952380Y-35752380D01*
X42142857Y-35847619D02*
X42904761Y-35847619D01*
X43666666Y-35752380D02*
X43095238Y-35752380D01*
X43380952Y-35752380D02*
X43380952Y-34752380D01*
X43285714Y-34895238D01*
X43190476Y-34990476D01*
X43095238Y-35038095D01*
%TO.C,U2_2*%
X40380952Y-50752380D02*
X40380952Y-51561904D01*
X40428571Y-51657142D01*
X40476190Y-51704761D01*
X40571428Y-51752380D01*
X40761904Y-51752380D01*
X40857142Y-51704761D01*
X40904761Y-51657142D01*
X40952380Y-51561904D01*
X40952380Y-50752380D01*
X41380952Y-50847619D02*
X41428571Y-50800000D01*
X41523809Y-50752380D01*
X41761904Y-50752380D01*
X41857142Y-50800000D01*
X41904761Y-50847619D01*
X41952380Y-50942857D01*
X41952380Y-51038095D01*
X41904761Y-51180952D01*
X41333333Y-51752380D01*
X41952380Y-51752380D01*
X42142857Y-51847619D02*
X42904761Y-51847619D01*
X43095238Y-50847619D02*
X43142857Y-50800000D01*
X43238095Y-50752380D01*
X43476190Y-50752380D01*
X43571428Y-50800000D01*
X43619047Y-50847619D01*
X43666666Y-50942857D01*
X43666666Y-51038095D01*
X43619047Y-51180952D01*
X43047619Y-51752380D01*
X43666666Y-51752380D01*
%TO.C,U2_3*%
X40380952Y-66752380D02*
X40380952Y-67561904D01*
X40428571Y-67657142D01*
X40476190Y-67704761D01*
X40571428Y-67752380D01*
X40761904Y-67752380D01*
X40857142Y-67704761D01*
X40904761Y-67657142D01*
X40952380Y-67561904D01*
X40952380Y-66752380D01*
X41380952Y-66847619D02*
X41428571Y-66800000D01*
X41523809Y-66752380D01*
X41761904Y-66752380D01*
X41857142Y-66800000D01*
X41904761Y-66847619D01*
X41952380Y-66942857D01*
X41952380Y-67038095D01*
X41904761Y-67180952D01*
X41333333Y-67752380D01*
X41952380Y-67752380D01*
X42142857Y-67847619D02*
X42904761Y-67847619D01*
X43047619Y-66752380D02*
X43666666Y-66752380D01*
X43333333Y-67133333D01*
X43476190Y-67133333D01*
X43571428Y-67180952D01*
X43619047Y-67228571D01*
X43666666Y-67323809D01*
X43666666Y-67561904D01*
X43619047Y-67657142D01*
X43571428Y-67704761D01*
X43476190Y-67752380D01*
X43190476Y-67752380D01*
X43095238Y-67704761D01*
X43047619Y-67657142D01*
%TD*%
M02*
