%TF.GenerationSoftware,KiCad,Pcbnew,6.0.0-rc1-unknown-ee465fb~66~ubuntu18.04.1*%
%TF.CreationDate,2018-10-04T09:53:09-06:00*%
%TF.ProjectId,thelio-io-sas,7468656C696F2D696F2D7361732E6B69,rev?*%
%TF.SameCoordinates,Original*%
%TF.FileFunction,Copper,L4,Bot,Signal*%
%TF.FilePolarity,Positive*%
%FSLAX46Y46*%
G04 Gerber Fmt 4.6, Leading zero omitted, Abs format (unit mm)*
G04 Created by KiCad (PCBNEW 6.0.0-rc1-unknown-ee465fb~66~ubuntu18.04.1) date Thu Oct  4 09:53:09 2018*
%MOMM*%
%LPD*%
G01*
G04 APERTURE LIST*
%TA.AperFunction,NonConductor*%
%ADD10C,0.200000*%
%TD*%
%TA.AperFunction,NonConductor*%
%ADD11C,0.150000*%
%TD*%
%TA.AperFunction,ComponentPad*%
%ADD12R,1.730000X2.030000*%
%TD*%
%TA.AperFunction,ComponentPad*%
%ADD13O,1.730000X2.030000*%
%TD*%
%TA.AperFunction,WasherPad*%
%ADD14C,2.600000*%
%TD*%
%TA.AperFunction,ComponentPad*%
%ADD15C,0.370000*%
%TD*%
%TA.AperFunction,ViaPad*%
%ADD16C,0.800000*%
%TD*%
%TA.AperFunction,Conductor*%
%ADD17C,0.250000*%
%TD*%
%TA.AperFunction,Conductor*%
%ADD18C,0.200000*%
%TD*%
G04 APERTURE END LIST*
D10*
X0Y-16800000D02*
X0Y-3200000D01*
X0Y-55000000D02*
X0Y-68600000D01*
X0Y-16800000D02*
X-3200000Y-16800000D01*
X0Y-55000000D02*
X-3200000Y-55000000D01*
X-3200000Y-55000000D02*
G75*
G02X-6400000Y-51800000I0J3200000D01*
G01*
X70850000Y-16800000D02*
X74050000Y-16800000D01*
X3200000Y0D02*
X67650000Y0D01*
X-6400000Y-51800000D02*
X-6400000Y-20000000D01*
X70850000Y-55000000D02*
X74050000Y-55000000D01*
X74050000Y-16800000D02*
G75*
G02X77250000Y-20000000I0J-3200000D01*
G01*
X67650000Y0D02*
G75*
G02X70850000Y-3200000I0J-3200000D01*
G01*
X0Y-3200000D02*
G75*
G02X3200000Y0I3200000J0D01*
G01*
X67650000Y-71800000D02*
X3200000Y-71800000D01*
X3200000Y-71800000D02*
G75*
G02X0Y-68600000I0J3200000D01*
G01*
D11*
X70850000Y-68600000D02*
G75*
G02X67650000Y-71800000I-3200000J0D01*
G01*
D10*
X70850000Y-16800000D02*
X70850000Y-3200000D01*
X70850000Y-55000000D02*
X70850000Y-68600000D01*
X77250000Y-51800000D02*
X77250000Y-20000000D01*
X-6400000Y-20000000D02*
G75*
G02X-3200000Y-16800000I3200000J0D01*
G01*
X77250000Y-51800000D02*
G75*
G02X74050000Y-55000000I-3200000J0D01*
G01*
D12*
%TO.P,POWER0,1*%
%TO.N,+12V*%
X68460000Y-67990000D03*
D13*
%TO.P,POWER0,2*%
%TO.N,GND*%
X65960000Y-67990000D03*
%TO.P,POWER0,3*%
X63460000Y-67990000D03*
%TO.P,POWER0,4*%
%TO.N,+5V*%
X60960000Y-67990000D03*
%TD*%
D14*
%TO.P,U.2_3,*%
%TO.N,*%
X22635000Y-60560000D03*
X61365000Y-60560000D03*
%TD*%
D15*
%TO.P,SAS3,A4*%
%TO.N,/sas3/R1+*%
X5420000Y-60450000D03*
%TO.P,SAS3,A3*%
%TO.N,GND*%
X4720000Y-61200000D03*
%TO.P,SAS3,A2*%
%TO.N,/sas3/CLK-*%
X4020000Y-61950000D03*
%TO.P,SAS3,A1*%
%TO.N,/sas3/CLK+*%
X5420000Y-62700000D03*
%TO.P,SAS3,A5*%
%TO.N,/sas3/R1-*%
X4020000Y-59700000D03*
%TO.P,SAS3,A7*%
%TO.N,/sas3/R3+*%
X5420000Y-58200000D03*
%TO.P,SAS3,A6*%
%TO.N,GND*%
X4720000Y-58950000D03*
%TO.P,SAS3,A9*%
X4720000Y-56700000D03*
%TO.P,SAS3,A8*%
%TO.N,/sas3/R3-*%
X4020000Y-57450000D03*
%TO.P,SAS3,B2*%
%TO.N,GND*%
X7820000Y-61950000D03*
%TO.P,SAS3,B6*%
X8520000Y-58950000D03*
%TO.P,SAS3,B1*%
%TO.N,/sas3/RST*%
X9220000Y-62700000D03*
%TO.P,SAS3,B4*%
%TO.N,/sas3/R0+*%
X9220000Y-60450000D03*
%TO.P,SAS3,B9*%
%TO.N,GND*%
X8520000Y-56700000D03*
%TO.P,SAS3,B3*%
X8520000Y-61200000D03*
%TO.P,SAS3,B5*%
%TO.N,/sas3/R0-*%
X7820000Y-59700000D03*
%TO.P,SAS3,B8*%
%TO.N,/sas3/R2-*%
X7820000Y-57450000D03*
%TO.P,SAS3,B7*%
%TO.N,/sas3/R2+*%
X9220000Y-58200000D03*
%TO.P,SAS3,C2*%
%TO.N,Net-(SAS3-PadC2)*%
X11620000Y-61950000D03*
%TO.P,SAS3,C6*%
%TO.N,GND*%
X12320000Y-58950000D03*
%TO.P,SAS3,C1*%
%TO.N,/sas3/ACT*%
X13020000Y-62700000D03*
%TO.P,SAS3,C4*%
%TO.N,/sas3/T1+*%
X13020000Y-60450000D03*
%TO.P,SAS3,C9*%
%TO.N,GND*%
X12320000Y-56700000D03*
%TO.P,SAS3,C3*%
X12320000Y-61200000D03*
%TO.P,SAS3,C5*%
%TO.N,/sas3/T1-*%
X11620000Y-59700000D03*
%TO.P,SAS3,C8*%
%TO.N,/sas3/T3-*%
X11620000Y-57450000D03*
%TO.P,SAS3,C7*%
%TO.N,/sas3/T3+*%
X13020000Y-58200000D03*
%TO.P,SAS3,D2*%
%TO.N,/sas3/SCLK*%
X15420000Y-61950000D03*
%TO.P,SAS3,D6*%
%TO.N,GND*%
X16120000Y-58950000D03*
%TO.P,SAS3,D1*%
%TO.N,/sas3/SDAT*%
X16820000Y-62700000D03*
%TO.P,SAS3,D4*%
%TO.N,/sas3/T0+*%
X16820000Y-60450000D03*
%TO.P,SAS3,D9*%
%TO.N,GND*%
X16120000Y-56700000D03*
%TO.P,SAS3,D3*%
X16120000Y-61200000D03*
%TO.P,SAS3,D5*%
%TO.N,/sas3/T0-*%
X15420000Y-59700000D03*
%TO.P,SAS3,D8*%
%TO.N,/sas3/T2-*%
X15420000Y-57450000D03*
%TO.P,SAS3,D7*%
%TO.N,/sas3/T2+*%
X16820000Y-58200000D03*
%TD*%
D14*
%TO.P,U.2_2,*%
%TO.N,*%
X22635000Y-44560000D03*
X61365000Y-44560000D03*
%TD*%
D15*
%TO.P,SAS2,A4*%
%TO.N,/sas2/R1+*%
X5420000Y-44450000D03*
%TO.P,SAS2,A3*%
%TO.N,GND*%
X4720000Y-45200000D03*
%TO.P,SAS2,A2*%
%TO.N,/sas2/CLK-*%
X4020000Y-45950000D03*
%TO.P,SAS2,A1*%
%TO.N,/sas2/CLK+*%
X5420000Y-46700000D03*
%TO.P,SAS2,A5*%
%TO.N,/sas2/R1-*%
X4020000Y-43700000D03*
%TO.P,SAS2,A7*%
%TO.N,/sas2/R3+*%
X5420000Y-42200000D03*
%TO.P,SAS2,A6*%
%TO.N,GND*%
X4720000Y-42950000D03*
%TO.P,SAS2,A9*%
X4720000Y-40700000D03*
%TO.P,SAS2,A8*%
%TO.N,/sas2/R3-*%
X4020000Y-41450000D03*
%TO.P,SAS2,B2*%
%TO.N,GND*%
X7820000Y-45950000D03*
%TO.P,SAS2,B6*%
X8520000Y-42950000D03*
%TO.P,SAS2,B1*%
%TO.N,/sas2/RST*%
X9220000Y-46700000D03*
%TO.P,SAS2,B4*%
%TO.N,/sas2/R0+*%
X9220000Y-44450000D03*
%TO.P,SAS2,B9*%
%TO.N,GND*%
X8520000Y-40700000D03*
%TO.P,SAS2,B3*%
X8520000Y-45200000D03*
%TO.P,SAS2,B5*%
%TO.N,/sas2/R0-*%
X7820000Y-43700000D03*
%TO.P,SAS2,B8*%
%TO.N,/sas2/R2-*%
X7820000Y-41450000D03*
%TO.P,SAS2,B7*%
%TO.N,/sas2/R2+*%
X9220000Y-42200000D03*
%TO.P,SAS2,C2*%
%TO.N,Net-(SAS2-PadC2)*%
X11620000Y-45950000D03*
%TO.P,SAS2,C6*%
%TO.N,GND*%
X12320000Y-42950000D03*
%TO.P,SAS2,C1*%
%TO.N,/sas2/ACT*%
X13020000Y-46700000D03*
%TO.P,SAS2,C4*%
%TO.N,/sas2/T1+*%
X13020000Y-44450000D03*
%TO.P,SAS2,C9*%
%TO.N,GND*%
X12320000Y-40700000D03*
%TO.P,SAS2,C3*%
X12320000Y-45200000D03*
%TO.P,SAS2,C5*%
%TO.N,/sas2/T1-*%
X11620000Y-43700000D03*
%TO.P,SAS2,C8*%
%TO.N,/sas2/T3-*%
X11620000Y-41450000D03*
%TO.P,SAS2,C7*%
%TO.N,/sas2/T3+*%
X13020000Y-42200000D03*
%TO.P,SAS2,D2*%
%TO.N,/sas2/SCLK*%
X15420000Y-45950000D03*
%TO.P,SAS2,D6*%
%TO.N,GND*%
X16120000Y-42950000D03*
%TO.P,SAS2,D1*%
%TO.N,/sas2/SDAT*%
X16820000Y-46700000D03*
%TO.P,SAS2,D4*%
%TO.N,/sas2/T0+*%
X16820000Y-44450000D03*
%TO.P,SAS2,D9*%
%TO.N,GND*%
X16120000Y-40700000D03*
%TO.P,SAS2,D3*%
X16120000Y-45200000D03*
%TO.P,SAS2,D5*%
%TO.N,/sas2/T0-*%
X15420000Y-43700000D03*
%TO.P,SAS2,D8*%
%TO.N,/sas2/T2-*%
X15420000Y-41450000D03*
%TO.P,SAS2,D7*%
%TO.N,/sas2/T2+*%
X16820000Y-42200000D03*
%TD*%
D14*
%TO.P,U.2_1,*%
%TO.N,*%
X61365000Y-28560000D03*
X22635000Y-28560000D03*
%TD*%
D15*
%TO.P,SAS0,A4*%
%TO.N,/sas0/R1+*%
X5420000Y-12450000D03*
%TO.P,SAS0,A3*%
%TO.N,GND*%
X4720000Y-13200000D03*
%TO.P,SAS0,A2*%
%TO.N,/sas0/CLK-*%
X4020000Y-13950000D03*
%TO.P,SAS0,A1*%
%TO.N,/sas0/CLK+*%
X5420000Y-14700000D03*
%TO.P,SAS0,A5*%
%TO.N,/sas0/R1-*%
X4020000Y-11700000D03*
%TO.P,SAS0,A7*%
%TO.N,/sas0/R3+*%
X5420000Y-10200000D03*
%TO.P,SAS0,A6*%
%TO.N,GND*%
X4720000Y-10950000D03*
%TO.P,SAS0,A9*%
X4720000Y-8700000D03*
%TO.P,SAS0,A8*%
%TO.N,/sas0/R3-*%
X4020000Y-9450000D03*
%TO.P,SAS0,B2*%
%TO.N,GND*%
X7820000Y-13950000D03*
%TO.P,SAS0,B6*%
X8520000Y-10950000D03*
%TO.P,SAS0,B1*%
%TO.N,/sas0/RST*%
X9220000Y-14700000D03*
%TO.P,SAS0,B4*%
%TO.N,/sas0/R0+*%
X9220000Y-12450000D03*
%TO.P,SAS0,B9*%
%TO.N,GND*%
X8520000Y-8700000D03*
%TO.P,SAS0,B3*%
X8520000Y-13200000D03*
%TO.P,SAS0,B5*%
%TO.N,/sas0/R0-*%
X7820000Y-11700000D03*
%TO.P,SAS0,B8*%
%TO.N,/sas0/R2-*%
X7820000Y-9450000D03*
%TO.P,SAS0,B7*%
%TO.N,/sas0/R2+*%
X9220000Y-10200000D03*
%TO.P,SAS0,C2*%
%TO.N,Net-(SAS0-PadC2)*%
X11620000Y-13950000D03*
%TO.P,SAS0,C6*%
%TO.N,GND*%
X12320000Y-10950000D03*
%TO.P,SAS0,C1*%
%TO.N,/sas0/ACT*%
X13020000Y-14700000D03*
%TO.P,SAS0,C4*%
%TO.N,/sas0/T1+*%
X13020000Y-12450000D03*
%TO.P,SAS0,C9*%
%TO.N,GND*%
X12320000Y-8700000D03*
%TO.P,SAS0,C3*%
X12320000Y-13200000D03*
%TO.P,SAS0,C5*%
%TO.N,/sas0/T1-*%
X11620000Y-11700000D03*
%TO.P,SAS0,C8*%
%TO.N,/sas0/T3-*%
X11620000Y-9450000D03*
%TO.P,SAS0,C7*%
%TO.N,/sas0/T3+*%
X13020000Y-10200000D03*
%TO.P,SAS0,D2*%
%TO.N,/sas0/SCLK*%
X15420000Y-13950000D03*
%TO.P,SAS0,D6*%
%TO.N,GND*%
X16120000Y-10950000D03*
%TO.P,SAS0,D1*%
%TO.N,/sas0/SDAT*%
X16820000Y-14700000D03*
%TO.P,SAS0,D4*%
%TO.N,/sas0/T0+*%
X16820000Y-12450000D03*
%TO.P,SAS0,D9*%
%TO.N,GND*%
X16120000Y-8700000D03*
%TO.P,SAS0,D3*%
X16120000Y-13200000D03*
%TO.P,SAS0,D5*%
%TO.N,/sas0/T0-*%
X15420000Y-11700000D03*
%TO.P,SAS0,D8*%
%TO.N,/sas0/T2-*%
X15420000Y-9450000D03*
%TO.P,SAS0,D7*%
%TO.N,/sas0/T2+*%
X16820000Y-10200000D03*
%TD*%
%TO.P,SAS1,D7*%
%TO.N,/sas1/T2+*%
X16820000Y-26200000D03*
%TO.P,SAS1,D8*%
%TO.N,/sas1/T2-*%
X15420000Y-25450000D03*
%TO.P,SAS1,D5*%
%TO.N,/sas1/T0-*%
X15420000Y-27700000D03*
%TO.P,SAS1,D3*%
%TO.N,GND*%
X16120000Y-29200000D03*
%TO.P,SAS1,D9*%
X16120000Y-24700000D03*
%TO.P,SAS1,D4*%
%TO.N,/sas1/T0+*%
X16820000Y-28450000D03*
%TO.P,SAS1,D1*%
%TO.N,/sas1/SDAT*%
X16820000Y-30700000D03*
%TO.P,SAS1,D6*%
%TO.N,GND*%
X16120000Y-26950000D03*
%TO.P,SAS1,D2*%
%TO.N,/sas1/SCLK*%
X15420000Y-29950000D03*
%TO.P,SAS1,C7*%
%TO.N,/sas1/T3+*%
X13020000Y-26200000D03*
%TO.P,SAS1,C8*%
%TO.N,/sas1/T3-*%
X11620000Y-25450000D03*
%TO.P,SAS1,C5*%
%TO.N,/sas1/T1-*%
X11620000Y-27700000D03*
%TO.P,SAS1,C3*%
%TO.N,GND*%
X12320000Y-29200000D03*
%TO.P,SAS1,C9*%
X12320000Y-24700000D03*
%TO.P,SAS1,C4*%
%TO.N,/sas1/T1+*%
X13020000Y-28450000D03*
%TO.P,SAS1,C1*%
%TO.N,/sas1/ACT*%
X13020000Y-30700000D03*
%TO.P,SAS1,C6*%
%TO.N,GND*%
X12320000Y-26950000D03*
%TO.P,SAS1,C2*%
%TO.N,Net-(SAS1-PadC2)*%
X11620000Y-29950000D03*
%TO.P,SAS1,B7*%
%TO.N,/sas1/R2+*%
X9220000Y-26200000D03*
%TO.P,SAS1,B8*%
%TO.N,/sas1/R2-*%
X7820000Y-25450000D03*
%TO.P,SAS1,B5*%
%TO.N,/sas1/R0-*%
X7820000Y-27700000D03*
%TO.P,SAS1,B3*%
%TO.N,GND*%
X8520000Y-29200000D03*
%TO.P,SAS1,B9*%
X8520000Y-24700000D03*
%TO.P,SAS1,B4*%
%TO.N,/sas1/R0+*%
X9220000Y-28450000D03*
%TO.P,SAS1,B1*%
%TO.N,/sas1/RST*%
X9220000Y-30700000D03*
%TO.P,SAS1,B6*%
%TO.N,GND*%
X8520000Y-26950000D03*
%TO.P,SAS1,B2*%
X7820000Y-29950000D03*
%TO.P,SAS1,A8*%
%TO.N,/sas1/R3-*%
X4020000Y-25450000D03*
%TO.P,SAS1,A9*%
%TO.N,GND*%
X4720000Y-24700000D03*
%TO.P,SAS1,A6*%
X4720000Y-26950000D03*
%TO.P,SAS1,A7*%
%TO.N,/sas1/R3+*%
X5420000Y-26200000D03*
%TO.P,SAS1,A5*%
%TO.N,/sas1/R1-*%
X4020000Y-27700000D03*
%TO.P,SAS1,A1*%
%TO.N,/sas1/CLK+*%
X5420000Y-30700000D03*
%TO.P,SAS1,A2*%
%TO.N,/sas1/CLK-*%
X4020000Y-29950000D03*
%TO.P,SAS1,A3*%
%TO.N,GND*%
X4720000Y-29200000D03*
%TO.P,SAS1,A4*%
%TO.N,/sas1/R1+*%
X5420000Y-28450000D03*
%TD*%
D14*
%TO.P,U.2_0,*%
%TO.N,*%
X61365000Y-12560000D03*
X22635000Y-12560000D03*
%TD*%
D16*
%TO.N,GND*%
X43905000Y-49445000D03*
X54040000Y-49445000D03*
X45175000Y-49445000D03*
X46420000Y-49445000D03*
X51525000Y-49445000D03*
X43905000Y-65445000D03*
X54040000Y-65445000D03*
X45175000Y-65445000D03*
X46420000Y-65445000D03*
X51525000Y-65445000D03*
X51525000Y-33445000D03*
X51525000Y-17570000D03*
X54040000Y-33445000D03*
X54065000Y-17570000D03*
X45175000Y-33445000D03*
X45175000Y-17570000D03*
X46420000Y-33445000D03*
X46445000Y-17570000D03*
X43905000Y-33445000D03*
X43905000Y-17570000D03*
%TO.N,+12V*%
X55310000Y-49445000D03*
X57875000Y-49445000D03*
X56580000Y-49445000D03*
X55310000Y-65445000D03*
X57875000Y-65445000D03*
X56580000Y-65445000D03*
X57875000Y-33445000D03*
X57875000Y-17570000D03*
X56580000Y-33445000D03*
X56605000Y-17570000D03*
X55310000Y-33445000D03*
X55335000Y-17570000D03*
%TO.N,+5V*%
X50255000Y-49445000D03*
X50255000Y-65445000D03*
X50255000Y-33445000D03*
X50255000Y-17570000D03*
%TO.N,/sas0/SDAT*%
X57304997Y-8130734D03*
%TO.N,/sas0/SCLK*%
X56447243Y-7616670D03*
%TO.N,/sas0/T1-*%
X41291232Y-7528768D03*
%TO.N,/sas0/T1+*%
X40548768Y-8271232D03*
%TO.N,/sas0/ACT*%
X52795000Y-17470000D03*
%TO.N,/sas0/R2+*%
X50236282Y-8646230D03*
%TO.N,/sas0/R2-*%
X49493818Y-7903766D03*
%TO.N,/sas0/R0-*%
X32548768Y-7528768D03*
%TO.N,/sas0/R0+*%
X33291232Y-8271232D03*
%TO.N,/sas0/RST*%
X38120000Y-16595000D03*
%TO.N,/sas0/R3-*%
X54948768Y-7528768D03*
%TO.N,/sas0/R3+*%
X55691232Y-8271232D03*
%TO.N,/sas0/R1-*%
X45348768Y-6728768D03*
%TO.N,/sas0/CLK+*%
X25348768Y-8271232D03*
%TO.N,/sas0/CLK-*%
X26091232Y-7528768D03*
%TO.N,/sas0/R1+*%
X46091232Y-7471232D03*
%TO.N,/sas1/SDAT*%
X57304997Y-24130734D03*
%TO.N,/sas1/SCLK*%
X56447243Y-23616670D03*
%TO.N,/sas1/T1-*%
X41291232Y-23528768D03*
%TO.N,/sas1/T1+*%
X40548768Y-24271232D03*
%TO.N,/sas1/ACT*%
X52795000Y-33470000D03*
%TO.N,/sas1/R2+*%
X50236282Y-24646230D03*
%TO.N,/sas1/R2-*%
X49493818Y-23903766D03*
%TO.N,/sas1/R0-*%
X32548768Y-23528768D03*
%TO.N,/sas1/R0+*%
X33291232Y-24271232D03*
%TO.N,/sas1/RST*%
X38120000Y-32595000D03*
%TO.N,/sas1/R3-*%
X54948768Y-23528768D03*
%TO.N,/sas1/R3+*%
X55691232Y-24271232D03*
%TO.N,/sas1/R1-*%
X45348768Y-22728768D03*
%TO.N,/sas1/CLK+*%
X25348768Y-24271232D03*
%TO.N,/sas1/CLK-*%
X26091232Y-23528768D03*
%TO.N,/sas1/R1+*%
X46091232Y-23471232D03*
%TO.N,/sas2/SDAT*%
X57304997Y-40130734D03*
%TO.N,/sas2/SCLK*%
X56447243Y-39616670D03*
%TO.N,/sas2/T1-*%
X41291232Y-39528768D03*
%TO.N,/sas2/T1+*%
X40548768Y-40271232D03*
%TO.N,/sas2/ACT*%
X52795000Y-49470000D03*
%TO.N,/sas2/R2+*%
X50236282Y-40646230D03*
%TO.N,/sas2/R2-*%
X49493818Y-39903766D03*
%TO.N,/sas2/R0-*%
X32548768Y-39528768D03*
%TO.N,/sas2/R0+*%
X33291232Y-40271232D03*
%TO.N,/sas2/RST*%
X38120000Y-48595000D03*
%TO.N,/sas2/R3-*%
X54948768Y-39528768D03*
%TO.N,/sas2/R3+*%
X55691232Y-40271232D03*
%TO.N,/sas2/R1-*%
X45348768Y-38728768D03*
%TO.N,/sas2/CLK+*%
X25348768Y-40271232D03*
%TO.N,/sas2/CLK-*%
X26091232Y-39528768D03*
%TO.N,/sas2/R1+*%
X46091232Y-39471232D03*
%TO.N,/sas3/SDAT*%
X57304997Y-56130734D03*
%TO.N,/sas3/SCLK*%
X56447243Y-55616670D03*
%TO.N,/sas3/T1-*%
X41291232Y-55528768D03*
%TO.N,/sas3/T1+*%
X40548768Y-56271232D03*
%TO.N,/sas3/ACT*%
X52795000Y-65470000D03*
%TO.N,/sas3/R2+*%
X50236282Y-56646230D03*
%TO.N,/sas3/R2-*%
X49493818Y-55903766D03*
%TO.N,/sas3/R0-*%
X32548768Y-55528768D03*
%TO.N,/sas3/R0+*%
X33291232Y-56271232D03*
%TO.N,/sas3/RST*%
X38120000Y-64595000D03*
%TO.N,/sas3/R3-*%
X54948768Y-55528768D03*
%TO.N,/sas3/R3+*%
X55691232Y-56271232D03*
%TO.N,/sas3/R1-*%
X45348768Y-54728768D03*
%TO.N,/sas3/CLK+*%
X25348768Y-56271232D03*
%TO.N,/sas3/CLK-*%
X26091232Y-55528768D03*
%TO.N,/sas3/R1+*%
X46091232Y-55471232D03*
%TD*%
D17*
%TO.N,GND*%
X46445000Y-49420000D02*
X46420000Y-49445000D01*
X54065000Y-49420000D02*
X54040000Y-49445000D01*
X46445000Y-65420000D02*
X46420000Y-65445000D01*
X54065000Y-65420000D02*
X54040000Y-65445000D01*
X54065000Y-33420000D02*
X54040000Y-33445000D01*
X46445000Y-33420000D02*
X46420000Y-33445000D01*
%TO.N,+12V*%
X56605000Y-49420000D02*
X56580000Y-49445000D01*
X55335000Y-49420000D02*
X55310000Y-49445000D01*
X56605000Y-65420000D02*
X56580000Y-65445000D01*
X55335000Y-65420000D02*
X55310000Y-65445000D01*
X56605000Y-33420000D02*
X56580000Y-33445000D01*
X55335000Y-33420000D02*
X55310000Y-33445000D01*
%TO.N,/sas0/SDAT*%
X56904998Y-8766878D02*
X50971876Y-14700000D01*
X50971876Y-14700000D02*
X16820000Y-14700000D01*
X57304997Y-8130734D02*
X56904998Y-8530733D01*
X56904998Y-8530733D02*
X56904998Y-8766878D01*
%TO.N,/sas0/SCLK*%
X15655001Y-14185001D02*
X15420000Y-13950000D01*
X50850465Y-14185001D02*
X15655001Y-14185001D01*
X56447243Y-7616670D02*
X56447243Y-8588223D01*
X56447243Y-8588223D02*
X50850465Y-14185001D01*
%TO.N,/sas0/ACT*%
X14190000Y-15870000D02*
X13020000Y-14700000D01*
X52795000Y-17470000D02*
X51195000Y-15870000D01*
X51195000Y-15870000D02*
X14190000Y-15870000D01*
D18*
%TO.N,/sas0/R0-*%
X32256304Y-7821232D02*
X27419698Y-7821232D01*
X12537190Y-7765008D02*
X11134999Y-9167199D01*
X24762766Y-7821232D02*
X16595417Y-7821232D01*
X26427233Y-6828767D02*
X25755231Y-6828767D01*
X32548768Y-7528768D02*
X32256304Y-7821232D01*
X27419698Y-7821232D02*
X26427233Y-6828767D01*
X11134999Y-9466802D02*
X8901801Y-11700000D01*
X8901801Y-11700000D02*
X7820000Y-11700000D01*
X11134999Y-9167199D02*
X11134999Y-9466802D01*
X16595417Y-7821232D02*
X16539193Y-7765008D01*
X25755231Y-6828767D02*
X24762766Y-7821232D01*
X16539193Y-7765008D02*
X12537190Y-7765008D01*
%TO.N,/sas0/R0+*%
X24312766Y-8271232D02*
X16409034Y-8271232D01*
X33291232Y-8271232D02*
X32916306Y-8271232D01*
X16352801Y-8214999D02*
X13572803Y-8214999D01*
X16409034Y-8271232D02*
X16352801Y-8214999D01*
X11303198Y-9935001D02*
X9220000Y-12018199D01*
X32916306Y-8271232D02*
X32908769Y-8278769D01*
X13572803Y-8214999D02*
X11852801Y-9935001D01*
X25012767Y-8971233D02*
X24312766Y-8271232D01*
X25684769Y-8971233D02*
X25012767Y-8971233D01*
X26377233Y-8278769D02*
X25684769Y-8971233D01*
X9220000Y-12018199D02*
X9220000Y-12450000D01*
X32908769Y-8278769D02*
X26377233Y-8278769D01*
X11852801Y-9935001D02*
X11303198Y-9935001D01*
%TO.N,/sas0/R3-*%
X54656304Y-7821232D02*
X51083668Y-7821232D01*
X9423036Y-5128765D02*
X5101801Y-9450000D01*
X54948768Y-7528768D02*
X54656304Y-7821232D01*
X5101801Y-9450000D02*
X4020000Y-9450000D01*
X51083668Y-7821232D02*
X48391201Y-5128765D01*
X48391201Y-5128765D02*
X9423036Y-5128765D01*
%TO.N,/sas0/R3+*%
X48204810Y-5578756D02*
X9609443Y-5578756D01*
X55691232Y-8271232D02*
X55316306Y-8271232D01*
X55308769Y-8278769D02*
X50904823Y-8278769D01*
X5420000Y-9768199D02*
X5420000Y-10200000D01*
X50904823Y-8278769D02*
X48204810Y-5578756D01*
X9609443Y-5578756D02*
X5420000Y-9768199D01*
X55316306Y-8271232D02*
X55308769Y-8278769D01*
%TO.N,/sas0/R1-*%
X41413615Y-5978766D02*
X10523432Y-5978766D01*
X7334999Y-9466802D02*
X5101801Y-11700000D01*
X45348768Y-6728768D02*
X45056304Y-7021232D01*
X10523432Y-5978766D02*
X7334999Y-9167199D01*
X7334999Y-9167199D02*
X7334999Y-9466802D01*
X45056304Y-7021232D02*
X42456081Y-7021232D01*
X5101801Y-11700000D02*
X4020000Y-11700000D01*
X42456081Y-7021232D02*
X41413615Y-5978766D01*
%TO.N,/sas0/R1+*%
X45708769Y-7478769D02*
X42277235Y-7478769D01*
X7503198Y-9935001D02*
X5420000Y-12018199D01*
X41227223Y-6428757D02*
X11559045Y-6428757D01*
X8052801Y-9935001D02*
X7503198Y-9935001D01*
X46091232Y-7471232D02*
X45716306Y-7471232D01*
X42277235Y-7478769D02*
X41227223Y-6428757D01*
X11559045Y-6428757D02*
X8052801Y-9935001D01*
X45716306Y-7471232D02*
X45708769Y-7478769D01*
X5420000Y-12018199D02*
X5420000Y-12450000D01*
D17*
%TO.N,/sas1/SDAT*%
X50971876Y-30700000D02*
X16820000Y-30700000D01*
X56904998Y-24766878D02*
X50971876Y-30700000D01*
X56904998Y-24530733D02*
X56904998Y-24766878D01*
X57304997Y-24130734D02*
X56904998Y-24530733D01*
%TO.N,/sas1/SCLK*%
X15655001Y-30185001D02*
X15420000Y-29950000D01*
X50850465Y-30185001D02*
X15655001Y-30185001D01*
X56447243Y-24588223D02*
X50850465Y-30185001D01*
X56447243Y-23616670D02*
X56447243Y-24588223D01*
%TO.N,/sas1/ACT*%
X52795000Y-33470000D02*
X51195000Y-31870000D01*
X14190000Y-31870000D02*
X13020000Y-30700000D01*
X51195000Y-31870000D02*
X14190000Y-31870000D01*
D18*
%TO.N,/sas1/R0-*%
X24762766Y-23821232D02*
X16595417Y-23821232D01*
X12537190Y-23765008D02*
X11134999Y-25167199D01*
X25755231Y-22828767D02*
X24762766Y-23821232D01*
X27419698Y-23821232D02*
X26427233Y-22828767D01*
X32548768Y-23528768D02*
X32256304Y-23821232D01*
X11134999Y-25167199D02*
X11134999Y-25466802D01*
X32256304Y-23821232D02*
X27419698Y-23821232D01*
X26427233Y-22828767D02*
X25755231Y-22828767D01*
X16595417Y-23821232D02*
X16539193Y-23765008D01*
X16539193Y-23765008D02*
X12537190Y-23765008D01*
X11134999Y-25466802D02*
X8901801Y-27700000D01*
X8901801Y-27700000D02*
X7820000Y-27700000D01*
%TO.N,/sas1/R0+*%
X9220000Y-28018199D02*
X9220000Y-28450000D01*
X11852801Y-25935001D02*
X11303198Y-25935001D01*
X16352801Y-24214999D02*
X13572803Y-24214999D01*
X16409034Y-24271232D02*
X16352801Y-24214999D01*
X25012767Y-24971233D02*
X24312766Y-24271232D01*
X13572803Y-24214999D02*
X11852801Y-25935001D01*
X24312766Y-24271232D02*
X16409034Y-24271232D01*
X11303198Y-25935001D02*
X9220000Y-28018199D01*
X25684769Y-24971233D02*
X25012767Y-24971233D01*
X33291232Y-24271232D02*
X32916306Y-24271232D01*
X32908769Y-24278769D02*
X26377233Y-24278769D01*
X32916306Y-24271232D02*
X32908769Y-24278769D01*
X26377233Y-24278769D02*
X25684769Y-24971233D01*
%TO.N,/sas1/R3-*%
X54656304Y-23821232D02*
X51083668Y-23821232D01*
X54948768Y-23528768D02*
X54656304Y-23821232D01*
X51083668Y-23821232D02*
X48391201Y-21128765D01*
X48391201Y-21128765D02*
X9423036Y-21128765D01*
X9423036Y-21128765D02*
X5101801Y-25450000D01*
X5101801Y-25450000D02*
X4020000Y-25450000D01*
%TO.N,/sas1/R3+*%
X5420000Y-25768199D02*
X5420000Y-26200000D01*
X55691232Y-24271232D02*
X55316306Y-24271232D01*
X9609443Y-21578756D02*
X5420000Y-25768199D01*
X50904823Y-24278769D02*
X48204810Y-21578756D01*
X55316306Y-24271232D02*
X55308769Y-24278769D01*
X48204810Y-21578756D02*
X9609443Y-21578756D01*
X55308769Y-24278769D02*
X50904823Y-24278769D01*
%TO.N,/sas1/R1-*%
X42456081Y-23021232D02*
X41413615Y-21978766D01*
X45348768Y-22728768D02*
X45056304Y-23021232D01*
X7334999Y-25167199D02*
X7334999Y-25466802D01*
X41413615Y-21978766D02*
X10523432Y-21978766D01*
X7334999Y-25466802D02*
X5101801Y-27700000D01*
X10523432Y-21978766D02*
X7334999Y-25167199D01*
X45056304Y-23021232D02*
X42456081Y-23021232D01*
X5101801Y-27700000D02*
X4020000Y-27700000D01*
%TO.N,/sas1/R1+*%
X5420000Y-28018199D02*
X5420000Y-28450000D01*
X46091232Y-23471232D02*
X45716306Y-23471232D01*
X11559045Y-22428757D02*
X8052801Y-25935001D01*
X45716306Y-23471232D02*
X45708769Y-23478769D01*
X45708769Y-23478769D02*
X42277235Y-23478769D01*
X7503198Y-25935001D02*
X5420000Y-28018199D01*
X42277235Y-23478769D02*
X41227223Y-22428757D01*
X41227223Y-22428757D02*
X11559045Y-22428757D01*
X8052801Y-25935001D02*
X7503198Y-25935001D01*
D17*
%TO.N,/sas2/SDAT*%
X56904998Y-40530733D02*
X56904998Y-40766878D01*
X57304997Y-40130734D02*
X56904998Y-40530733D01*
X50971876Y-46700000D02*
X16820000Y-46700000D01*
X56904998Y-40766878D02*
X50971876Y-46700000D01*
%TO.N,/sas2/SCLK*%
X15655001Y-46185001D02*
X15420000Y-45950000D01*
X56447243Y-39616670D02*
X56447243Y-40588223D01*
X50850465Y-46185001D02*
X15655001Y-46185001D01*
X56447243Y-40588223D02*
X50850465Y-46185001D01*
%TO.N,/sas2/ACT*%
X52795000Y-49470000D02*
X51195000Y-47870000D01*
X14190000Y-47870000D02*
X13020000Y-46700000D01*
X51195000Y-47870000D02*
X14190000Y-47870000D01*
D18*
%TO.N,/sas2/R0-*%
X12537190Y-39765008D02*
X11134999Y-41167199D01*
X32256304Y-39821232D02*
X27419698Y-39821232D01*
X26427233Y-38828767D02*
X25755231Y-38828767D01*
X16539193Y-39765008D02*
X12537190Y-39765008D01*
X11134999Y-41466802D02*
X8901801Y-43700000D01*
X24762766Y-39821232D02*
X16595417Y-39821232D01*
X25755231Y-38828767D02*
X24762766Y-39821232D01*
X27419698Y-39821232D02*
X26427233Y-38828767D01*
X32548768Y-39528768D02*
X32256304Y-39821232D01*
X11134999Y-41167199D02*
X11134999Y-41466802D01*
X16595417Y-39821232D02*
X16539193Y-39765008D01*
X8901801Y-43700000D02*
X7820000Y-43700000D01*
%TO.N,/sas2/R0+*%
X11303198Y-41935001D02*
X9220000Y-44018199D01*
X25684769Y-40971233D02*
X25012767Y-40971233D01*
X13572803Y-40214999D02*
X11852801Y-41935001D01*
X24312766Y-40271232D02*
X16409034Y-40271232D01*
X16409034Y-40271232D02*
X16352801Y-40214999D01*
X25012767Y-40971233D02*
X24312766Y-40271232D01*
X9220000Y-44018199D02*
X9220000Y-44450000D01*
X32916306Y-40271232D02*
X32908769Y-40278769D01*
X26377233Y-40278769D02*
X25684769Y-40971233D01*
X33291232Y-40271232D02*
X32916306Y-40271232D01*
X32908769Y-40278769D02*
X26377233Y-40278769D01*
X11852801Y-41935001D02*
X11303198Y-41935001D01*
X16352801Y-40214999D02*
X13572803Y-40214999D01*
%TO.N,/sas2/R3-*%
X5101801Y-41450000D02*
X4020000Y-41450000D01*
X48391201Y-37128765D02*
X9423036Y-37128765D01*
X9423036Y-37128765D02*
X5101801Y-41450000D01*
X54656304Y-39821232D02*
X51083668Y-39821232D01*
X54948768Y-39528768D02*
X54656304Y-39821232D01*
X51083668Y-39821232D02*
X48391201Y-37128765D01*
%TO.N,/sas2/R3+*%
X55316306Y-40271232D02*
X55308769Y-40278769D01*
X48204810Y-37578756D02*
X9609443Y-37578756D01*
X9609443Y-37578756D02*
X5420000Y-41768199D01*
X50904823Y-40278769D02*
X48204810Y-37578756D01*
X5420000Y-41768199D02*
X5420000Y-42200000D01*
X55691232Y-40271232D02*
X55316306Y-40271232D01*
X55308769Y-40278769D02*
X50904823Y-40278769D01*
%TO.N,/sas2/R1-*%
X5101801Y-43700000D02*
X4020000Y-43700000D01*
X45348768Y-38728768D02*
X45056304Y-39021232D01*
X7334999Y-41167199D02*
X7334999Y-41466802D01*
X42456081Y-39021232D02*
X41413615Y-37978766D01*
X45056304Y-39021232D02*
X42456081Y-39021232D01*
X41413615Y-37978766D02*
X10523432Y-37978766D01*
X7334999Y-41466802D02*
X5101801Y-43700000D01*
X10523432Y-37978766D02*
X7334999Y-41167199D01*
%TO.N,/sas2/R1+*%
X5420000Y-44018199D02*
X5420000Y-44450000D01*
X46091232Y-39471232D02*
X45716306Y-39471232D01*
X45708769Y-39478769D02*
X42277235Y-39478769D01*
X7503198Y-41935001D02*
X5420000Y-44018199D01*
X42277235Y-39478769D02*
X41227223Y-38428757D01*
X41227223Y-38428757D02*
X11559045Y-38428757D01*
X8052801Y-41935001D02*
X7503198Y-41935001D01*
X11559045Y-38428757D02*
X8052801Y-41935001D01*
X45716306Y-39471232D02*
X45708769Y-39478769D01*
D17*
%TO.N,/sas3/SDAT*%
X56904998Y-56530733D02*
X56904998Y-56766878D01*
X57304997Y-56130734D02*
X56904998Y-56530733D01*
X50971876Y-62700000D02*
X16820000Y-62700000D01*
X56904998Y-56766878D02*
X50971876Y-62700000D01*
%TO.N,/sas3/SCLK*%
X15655001Y-62185001D02*
X15420000Y-61950000D01*
X56447243Y-55616670D02*
X56447243Y-56588223D01*
X50850465Y-62185001D02*
X15655001Y-62185001D01*
X56447243Y-56588223D02*
X50850465Y-62185001D01*
%TO.N,/sas3/ACT*%
X52795000Y-65470000D02*
X51195000Y-63870000D01*
X14190000Y-63870000D02*
X13020000Y-62700000D01*
X51195000Y-63870000D02*
X14190000Y-63870000D01*
D18*
%TO.N,/sas3/R0-*%
X12537190Y-55765008D02*
X11134999Y-57167199D01*
X32256304Y-55821232D02*
X27419698Y-55821232D01*
X26427233Y-54828767D02*
X25755231Y-54828767D01*
X16539193Y-55765008D02*
X12537190Y-55765008D01*
X11134999Y-57466802D02*
X8901801Y-59700000D01*
X24762766Y-55821232D02*
X16595417Y-55821232D01*
X25755231Y-54828767D02*
X24762766Y-55821232D01*
X27419698Y-55821232D02*
X26427233Y-54828767D01*
X32548768Y-55528768D02*
X32256304Y-55821232D01*
X11134999Y-57167199D02*
X11134999Y-57466802D01*
X16595417Y-55821232D02*
X16539193Y-55765008D01*
X8901801Y-59700000D02*
X7820000Y-59700000D01*
%TO.N,/sas3/R0+*%
X11303198Y-57935001D02*
X9220000Y-60018199D01*
X25684769Y-56971233D02*
X25012767Y-56971233D01*
X13572803Y-56214999D02*
X11852801Y-57935001D01*
X24312766Y-56271232D02*
X16409034Y-56271232D01*
X16409034Y-56271232D02*
X16352801Y-56214999D01*
X25012767Y-56971233D02*
X24312766Y-56271232D01*
X9220000Y-60018199D02*
X9220000Y-60450000D01*
X32916306Y-56271232D02*
X32908769Y-56278769D01*
X26377233Y-56278769D02*
X25684769Y-56971233D01*
X33291232Y-56271232D02*
X32916306Y-56271232D01*
X32908769Y-56278769D02*
X26377233Y-56278769D01*
X11852801Y-57935001D02*
X11303198Y-57935001D01*
X16352801Y-56214999D02*
X13572803Y-56214999D01*
%TO.N,/sas3/R3-*%
X5101801Y-57450000D02*
X4020000Y-57450000D01*
X48391201Y-53128765D02*
X9423036Y-53128765D01*
X9423036Y-53128765D02*
X5101801Y-57450000D01*
X54656304Y-55821232D02*
X51083668Y-55821232D01*
X54948768Y-55528768D02*
X54656304Y-55821232D01*
X51083668Y-55821232D02*
X48391201Y-53128765D01*
%TO.N,/sas3/R3+*%
X55316306Y-56271232D02*
X55308769Y-56278769D01*
X48204810Y-53578756D02*
X9609443Y-53578756D01*
X9609443Y-53578756D02*
X5420000Y-57768199D01*
X50904823Y-56278769D02*
X48204810Y-53578756D01*
X5420000Y-57768199D02*
X5420000Y-58200000D01*
X55691232Y-56271232D02*
X55316306Y-56271232D01*
X55308769Y-56278769D02*
X50904823Y-56278769D01*
%TO.N,/sas3/R1-*%
X5101801Y-59700000D02*
X4020000Y-59700000D01*
X45348768Y-54728768D02*
X45056304Y-55021232D01*
X7334999Y-57167199D02*
X7334999Y-57466802D01*
X42456081Y-55021232D02*
X41413615Y-53978766D01*
X45056304Y-55021232D02*
X42456081Y-55021232D01*
X41413615Y-53978766D02*
X10523432Y-53978766D01*
X7334999Y-57466802D02*
X5101801Y-59700000D01*
X10523432Y-53978766D02*
X7334999Y-57167199D01*
%TO.N,/sas3/R1+*%
X5420000Y-60018199D02*
X5420000Y-60450000D01*
X46091232Y-55471232D02*
X45716306Y-55471232D01*
X45708769Y-55478769D02*
X42277235Y-55478769D01*
X7503198Y-57935001D02*
X5420000Y-60018199D01*
X42277235Y-55478769D02*
X41227223Y-54428757D01*
X41227223Y-54428757D02*
X11559045Y-54428757D01*
X8052801Y-57935001D02*
X7503198Y-57935001D01*
X11559045Y-54428757D02*
X8052801Y-57935001D01*
X45716306Y-55471232D02*
X45708769Y-55478769D01*
%TD*%
M02*
