%TF.GenerationSoftware,KiCad,Pcbnew,5.0.1-33cea8e~68~ubuntu18.10.1*%
%TF.CreationDate,2018-11-01T12:10:29-06:00*%
%TF.ProjectId,thelio-io-sas,7468656C696F2D696F2D7361732E6B69,rev?*%
%TF.SameCoordinates,Original*%
%TF.FileFunction,Copper,L2,Inr,Plane*%
%TF.FilePolarity,Positive*%
%FSLAX46Y46*%
G04 Gerber Fmt 4.6, Leading zero omitted, Abs format (unit mm)*
G04 Created by KiCad (PCBNEW 5.0.1-33cea8e~68~ubuntu18.10.1) date Thu Nov  1 12:10:29 2018*
%MOMM*%
%LPD*%
G01*
G04 APERTURE LIST*
%TA.AperFunction,NonConductor*%
%ADD10C,0.200000*%
%TD*%
%TA.AperFunction,NonConductor*%
%ADD11C,0.150000*%
%TD*%
%TA.AperFunction,ViaPad*%
%ADD12C,0.370000*%
%TD*%
%TA.AperFunction,WasherPad*%
%ADD13C,2.600000*%
%TD*%
%TA.AperFunction,ViaPad*%
%ADD14O,1.730000X2.030000*%
%TD*%
%TA.AperFunction,ViaPad*%
%ADD15R,1.730000X2.030000*%
%TD*%
%TA.AperFunction,ViaPad*%
%ADD16C,0.800000*%
%TD*%
%TA.AperFunction,ViaPad*%
%ADD17C,0.300000*%
%TD*%
%TA.AperFunction,Conductor*%
%ADD18C,0.250000*%
%TD*%
%TA.AperFunction,Conductor*%
%ADD19C,0.200000*%
%TD*%
%TA.AperFunction,Conductor*%
%ADD20C,0.254000*%
%TD*%
G04 APERTURE END LIST*
D10*
X77050000Y-18400000D02*
X77050000Y-53400000D01*
X75450000Y-16800000D02*
G75*
G02X77050000Y-18400000I0J-1600000D01*
G01*
X73850000Y-16800000D02*
X75450000Y-16800000D01*
X73850000Y-55000000D02*
X75450000Y-55000000D01*
X77050000Y-53400000D02*
G75*
G02X75450000Y-55000000I-1600000J0D01*
G01*
X70650000Y0D02*
G75*
G02X73850000Y-3200000I0J-3200000D01*
G01*
D11*
X73850000Y-68600000D02*
G75*
G02X70650000Y-71800000I-3200000J0D01*
G01*
D10*
X73850000Y-16800000D02*
X73850000Y-3200000D01*
X73850000Y-55000000D02*
X73850000Y-68600000D01*
X-3200000Y-18400000D02*
G75*
G02X-1600000Y-16800000I1600000J0D01*
G01*
X0Y-16800000D02*
X-1600000Y-16800000D01*
X0Y-55000000D02*
X-1600000Y-55000000D01*
X-1600000Y-55000000D02*
G75*
G02X-3200000Y-53400000I0J1600000D01*
G01*
X-3200000Y-53400000D02*
X-3200000Y-18400000D01*
X0Y-16800000D02*
X0Y-3200000D01*
X0Y-55000000D02*
X0Y-68600000D01*
X3200000Y0D02*
X70650000Y0D01*
X0Y-3200000D02*
G75*
G02X3200000Y0I3200000J0D01*
G01*
X70650000Y-71800000D02*
X3200000Y-71800000D01*
X3200000Y-71800000D02*
G75*
G02X0Y-68600000I0J3200000D01*
G01*
D12*
%TO.N,/sas0/T1+*%
%TO.C,SAS0*%
X5420000Y-12450000D03*
%TO.N,GND*%
X4720000Y-13200000D03*
%TO.N,Net-(SAS0-PadA2)*%
X4020000Y-13950000D03*
%TO.N,Net-(SAS0-PadA1)*%
X5420000Y-14700000D03*
%TO.N,/sas0/T1-*%
X4020000Y-11700000D03*
%TO.N,/sas0/T3+*%
X5420000Y-10200000D03*
%TO.N,GND*%
X4720000Y-10950000D03*
X4720000Y-8700000D03*
%TO.N,/sas0/T3-*%
X4020000Y-9450000D03*
%TO.N,/sas0/WAKE*%
X7820000Y-13950000D03*
%TO.N,GND*%
X8520000Y-10950000D03*
%TO.N,Net-(SAS0-PadB1)*%
X9220000Y-14700000D03*
%TO.N,/sas0/T0+*%
X9220000Y-12450000D03*
%TO.N,GND*%
X8520000Y-8700000D03*
X8520000Y-13200000D03*
%TO.N,/sas0/T0-*%
X7820000Y-11700000D03*
%TO.N,/sas0/T2-*%
X7820000Y-9450000D03*
%TO.N,/sas0/T2+*%
X9220000Y-10200000D03*
%TO.N,/sas0/CLK+*%
X11620000Y-13950000D03*
%TO.N,GND*%
X12320000Y-10950000D03*
%TO.N,/sas0/RST*%
X13020000Y-14700000D03*
%TO.N,/sas0/R1+*%
X13020000Y-12450000D03*
%TO.N,GND*%
X12320000Y-8700000D03*
X12320000Y-13200000D03*
%TO.N,/sas0/R1-*%
X11620000Y-11700000D03*
%TO.N,/sas0/R3-*%
X11620000Y-9450000D03*
%TO.N,/sas0/R3+*%
X13020000Y-10200000D03*
%TO.N,/sas0/CLK-*%
X15420000Y-13950000D03*
%TO.N,GND*%
X16120000Y-10950000D03*
%TO.N,Net-(SAS0-PadD1)*%
X16820000Y-14700000D03*
%TO.N,/sas0/R0+*%
X16820000Y-12450000D03*
%TO.N,GND*%
X16120000Y-8700000D03*
X16120000Y-13200000D03*
%TO.N,/sas0/R0-*%
X15420000Y-11700000D03*
%TO.N,/sas0/R2-*%
X15420000Y-9450000D03*
%TO.N,/sas0/R2+*%
X16820000Y-10200000D03*
%TD*%
D13*
%TO.N,*%
%TO.C,U.2_0*%
X61365000Y-12560000D03*
X22635000Y-12560000D03*
%TD*%
D12*
%TO.N,/sas1/T1+*%
%TO.C,SAS1*%
X5420000Y-28450000D03*
%TO.N,GND*%
X4720000Y-29200000D03*
%TO.N,Net-(SAS1-PadA2)*%
X4020000Y-29950000D03*
%TO.N,Net-(SAS1-PadA1)*%
X5420000Y-30700000D03*
%TO.N,/sas1/T1-*%
X4020000Y-27700000D03*
%TO.N,/sas1/T3+*%
X5420000Y-26200000D03*
%TO.N,GND*%
X4720000Y-26950000D03*
X4720000Y-24700000D03*
%TO.N,/sas1/T3-*%
X4020000Y-25450000D03*
%TO.N,/sas1/WAKE*%
X7820000Y-29950000D03*
%TO.N,GND*%
X8520000Y-26950000D03*
%TO.N,Net-(SAS1-PadB1)*%
X9220000Y-30700000D03*
%TO.N,/sas1/T0+*%
X9220000Y-28450000D03*
%TO.N,GND*%
X8520000Y-24700000D03*
X8520000Y-29200000D03*
%TO.N,/sas1/T0-*%
X7820000Y-27700000D03*
%TO.N,/sas1/T2-*%
X7820000Y-25450000D03*
%TO.N,/sas1/T2+*%
X9220000Y-26200000D03*
%TO.N,/sas1/CLK+*%
X11620000Y-29950000D03*
%TO.N,GND*%
X12320000Y-26950000D03*
%TO.N,/sas1/RST*%
X13020000Y-30700000D03*
%TO.N,/sas1/R1+*%
X13020000Y-28450000D03*
%TO.N,GND*%
X12320000Y-24700000D03*
X12320000Y-29200000D03*
%TO.N,/sas1/R1-*%
X11620000Y-27700000D03*
%TO.N,/sas1/R3-*%
X11620000Y-25450000D03*
%TO.N,/sas1/R3+*%
X13020000Y-26200000D03*
%TO.N,/sas1/CLK-*%
X15420000Y-29950000D03*
%TO.N,GND*%
X16120000Y-26950000D03*
%TO.N,Net-(SAS1-PadD1)*%
X16820000Y-30700000D03*
%TO.N,/sas1/R0+*%
X16820000Y-28450000D03*
%TO.N,GND*%
X16120000Y-24700000D03*
X16120000Y-29200000D03*
%TO.N,/sas1/R0-*%
X15420000Y-27700000D03*
%TO.N,/sas1/R2-*%
X15420000Y-25450000D03*
%TO.N,/sas1/R2+*%
X16820000Y-26200000D03*
%TD*%
D13*
%TO.N,*%
%TO.C,U.2_1*%
X61365000Y-28560000D03*
X22635000Y-28560000D03*
%TD*%
D12*
%TO.N,/sas2/T1+*%
%TO.C,SAS2*%
X5420000Y-44450000D03*
%TO.N,GND*%
X4720000Y-45200000D03*
%TO.N,Net-(SAS2-PadA2)*%
X4020000Y-45950000D03*
%TO.N,Net-(SAS2-PadA1)*%
X5420000Y-46700000D03*
%TO.N,/sas2/T1-*%
X4020000Y-43700000D03*
%TO.N,/sas2/T3+*%
X5420000Y-42200000D03*
%TO.N,GND*%
X4720000Y-42950000D03*
X4720000Y-40700000D03*
%TO.N,/sas2/T3-*%
X4020000Y-41450000D03*
%TO.N,/sas2/WAKE*%
X7820000Y-45950000D03*
%TO.N,GND*%
X8520000Y-42950000D03*
%TO.N,Net-(SAS2-PadB1)*%
X9220000Y-46700000D03*
%TO.N,/sas2/T0+*%
X9220000Y-44450000D03*
%TO.N,GND*%
X8520000Y-40700000D03*
X8520000Y-45200000D03*
%TO.N,/sas2/T0-*%
X7820000Y-43700000D03*
%TO.N,/sas2/T2-*%
X7820000Y-41450000D03*
%TO.N,/sas2/T2+*%
X9220000Y-42200000D03*
%TO.N,/sas2/CLK+*%
X11620000Y-45950000D03*
%TO.N,GND*%
X12320000Y-42950000D03*
%TO.N,/sas2/RST*%
X13020000Y-46700000D03*
%TO.N,/sas2/R1+*%
X13020000Y-44450000D03*
%TO.N,GND*%
X12320000Y-40700000D03*
X12320000Y-45200000D03*
%TO.N,/sas2/R1-*%
X11620000Y-43700000D03*
%TO.N,/sas2/R3-*%
X11620000Y-41450000D03*
%TO.N,/sas2/R3+*%
X13020000Y-42200000D03*
%TO.N,/sas2/CLK-*%
X15420000Y-45950000D03*
%TO.N,GND*%
X16120000Y-42950000D03*
%TO.N,Net-(SAS2-PadD1)*%
X16820000Y-46700000D03*
%TO.N,/sas2/R0+*%
X16820000Y-44450000D03*
%TO.N,GND*%
X16120000Y-40700000D03*
X16120000Y-45200000D03*
%TO.N,/sas2/R0-*%
X15420000Y-43700000D03*
%TO.N,/sas2/R2-*%
X15420000Y-41450000D03*
%TO.N,/sas2/R2+*%
X16820000Y-42200000D03*
%TD*%
D13*
%TO.N,*%
%TO.C,U.2_2*%
X61365000Y-44560000D03*
X22635000Y-44560000D03*
%TD*%
D12*
%TO.N,/sas3/T1+*%
%TO.C,SAS3*%
X5420000Y-60450000D03*
%TO.N,GND*%
X4720000Y-61200000D03*
%TO.N,Net-(SAS3-PadA2)*%
X4020000Y-61950000D03*
%TO.N,Net-(SAS3-PadA1)*%
X5420000Y-62700000D03*
%TO.N,/sas3/T1-*%
X4020000Y-59700000D03*
%TO.N,/sas3/T3+*%
X5420000Y-58200000D03*
%TO.N,GND*%
X4720000Y-58950000D03*
X4720000Y-56700000D03*
%TO.N,/sas3/T3-*%
X4020000Y-57450000D03*
%TO.N,/sas3/WAKE*%
X7820000Y-61950000D03*
%TO.N,GND*%
X8520000Y-58950000D03*
%TO.N,Net-(SAS3-PadB1)*%
X9220000Y-62700000D03*
%TO.N,/sas3/T0+*%
X9220000Y-60450000D03*
%TO.N,GND*%
X8520000Y-56700000D03*
X8520000Y-61200000D03*
%TO.N,/sas3/T0-*%
X7820000Y-59700000D03*
%TO.N,/sas3/T2-*%
X7820000Y-57450000D03*
%TO.N,/sas3/T2+*%
X9220000Y-58200000D03*
%TO.N,/sas3/CLK+*%
X11620000Y-61950000D03*
%TO.N,GND*%
X12320000Y-58950000D03*
%TO.N,/sas3/RST*%
X13020000Y-62700000D03*
%TO.N,/sas3/R1+*%
X13020000Y-60450000D03*
%TO.N,GND*%
X12320000Y-56700000D03*
X12320000Y-61200000D03*
%TO.N,/sas3/R1-*%
X11620000Y-59700000D03*
%TO.N,/sas3/R3-*%
X11620000Y-57450000D03*
%TO.N,/sas3/R3+*%
X13020000Y-58200000D03*
%TO.N,/sas3/CLK-*%
X15420000Y-61950000D03*
%TO.N,GND*%
X16120000Y-58950000D03*
%TO.N,Net-(SAS3-PadD1)*%
X16820000Y-62700000D03*
%TO.N,/sas3/R0+*%
X16820000Y-60450000D03*
%TO.N,GND*%
X16120000Y-56700000D03*
X16120000Y-61200000D03*
%TO.N,/sas3/R0-*%
X15420000Y-59700000D03*
%TO.N,/sas3/R2-*%
X15420000Y-57450000D03*
%TO.N,/sas3/R2+*%
X16820000Y-58200000D03*
%TD*%
D14*
%TO.N,+5V*%
%TO.C,POWER0*%
X60960000Y-67990000D03*
%TO.N,GND*%
X63460000Y-67990000D03*
X65960000Y-67990000D03*
D15*
%TO.N,+12V*%
X68460000Y-67990000D03*
%TD*%
D13*
%TO.N,*%
%TO.C,U.2_3*%
X61365000Y-60560000D03*
X22635000Y-60560000D03*
%TD*%
D16*
%TO.N,GND*%
X51525000Y-49445000D03*
X46420000Y-49445000D03*
X43905000Y-49445000D03*
X54040000Y-49445000D03*
X45175000Y-49445000D03*
X51525000Y-33445000D03*
X46420000Y-33445000D03*
X43905000Y-33445000D03*
X54040000Y-33445000D03*
X45175000Y-33445000D03*
X51525000Y-17445000D03*
X46420000Y-17445000D03*
X43905000Y-17445000D03*
X54040000Y-17445000D03*
X45175000Y-17445000D03*
X43905000Y-65445000D03*
X54040000Y-65445000D03*
X45175000Y-65445000D03*
X46420000Y-65445000D03*
X51525000Y-65445000D03*
%TO.N,+12V*%
X55310000Y-49445000D03*
X56580000Y-49445000D03*
X57875000Y-49445000D03*
X55310000Y-33445000D03*
X56580000Y-33445000D03*
X57875000Y-33445000D03*
X55310000Y-17445000D03*
X56580000Y-17445000D03*
X57875000Y-17445000D03*
X55310000Y-65445000D03*
X57875000Y-65445000D03*
X56580000Y-65445000D03*
%TO.N,+5V*%
X50255000Y-49445000D03*
X48985000Y-49445000D03*
X47715000Y-49420000D03*
X50255000Y-33445000D03*
X48985000Y-33445000D03*
X47715000Y-33420000D03*
X50255000Y-17445000D03*
X48985000Y-17445000D03*
X47715000Y-17420000D03*
X50255000Y-65445000D03*
X48985000Y-65445000D03*
X47715000Y-65420000D03*
D17*
%TO.N,/sas3/T2+*%
X45925545Y-56494455D03*
%TO.N,/sas3/T2-*%
X46314455Y-56105545D03*
%TO.N,/sas3/T0-*%
X28714455Y-56105545D03*
%TO.N,/sas3/T0+*%
X28325545Y-56494455D03*
%TO.N,/sas3/T3+*%
X50725545Y-56494455D03*
%TO.N,/sas3/T3-*%
X51114455Y-56105545D03*
%TO.N,/sas3/T1-*%
X41514455Y-56105545D03*
%TO.N,/sas3/T1+*%
X41125545Y-56494455D03*
%TO.N,/sas3/R2+*%
X48714455Y-56105545D03*
%TO.N,/sas3/R2-*%
X48325545Y-56494455D03*
%TO.N,/sas3/R0-*%
X30725545Y-56494455D03*
%TO.N,/sas3/R0+*%
X31114455Y-56105545D03*
D16*
%TO.N,/sas3/RST*%
X38120000Y-64490000D03*
D17*
%TO.N,/sas3/R3-*%
X53125545Y-56494455D03*
%TO.N,/sas3/R3+*%
X53514455Y-56105545D03*
%TO.N,/sas3/R1-*%
X43525545Y-56494455D03*
%TO.N,/sas3/CLK+*%
X25925545Y-56494455D03*
%TO.N,/sas3/CLK-*%
X26314455Y-56105545D03*
%TO.N,/sas3/R1+*%
X43914455Y-56105545D03*
D16*
%TO.N,/sas3/WAKE*%
X40095000Y-65445000D03*
%TO.N,/sas0/RST*%
X38120000Y-16490000D03*
%TO.N,/sas0/WAKE*%
X40095000Y-17445000D03*
D17*
%TO.N,/sas0/R3+*%
X53514455Y-8105545D03*
%TO.N,/sas0/R3-*%
X53125545Y-8494455D03*
%TO.N,/sas0/T3-*%
X51114455Y-8105545D03*
%TO.N,/sas0/T3+*%
X50725545Y-8494455D03*
%TO.N,/sas0/R2+*%
X48714455Y-8105545D03*
%TO.N,/sas0/R2-*%
X48325545Y-8494455D03*
%TO.N,/sas0/T2-*%
X46314455Y-8105545D03*
%TO.N,/sas0/T2+*%
X45925545Y-8494455D03*
%TO.N,/sas0/R1+*%
X43914455Y-8105545D03*
%TO.N,/sas0/R1-*%
X43525545Y-8494455D03*
%TO.N,/sas0/T1-*%
X41514455Y-8105545D03*
%TO.N,/sas0/T1+*%
X41125545Y-8494455D03*
%TO.N,/sas0/R0+*%
X31114455Y-8105545D03*
%TO.N,/sas0/R0-*%
X30725545Y-8494455D03*
%TO.N,/sas0/T0-*%
X28714455Y-8105545D03*
%TO.N,/sas0/T0+*%
X28325545Y-8494455D03*
%TO.N,/sas0/CLK-*%
X26314455Y-8105545D03*
%TO.N,/sas0/CLK+*%
X25925545Y-8494455D03*
D16*
%TO.N,/sas1/RST*%
X38120000Y-32490000D03*
%TO.N,/sas1/WAKE*%
X40095000Y-33445000D03*
D17*
%TO.N,/sas1/R3+*%
X53514455Y-24105545D03*
%TO.N,/sas1/R3-*%
X53125545Y-24494455D03*
%TO.N,/sas1/T3-*%
X51114455Y-24105545D03*
%TO.N,/sas1/T3+*%
X50725545Y-24494455D03*
%TO.N,/sas1/R2+*%
X48714455Y-24105545D03*
%TO.N,/sas1/R2-*%
X48325545Y-24494455D03*
%TO.N,/sas1/T2-*%
X46314455Y-24105545D03*
%TO.N,/sas1/T2+*%
X45925545Y-24494455D03*
%TO.N,/sas1/R1+*%
X43914455Y-24105545D03*
%TO.N,/sas1/R1-*%
X43525545Y-24494455D03*
%TO.N,/sas1/T1-*%
X41514455Y-24105545D03*
%TO.N,/sas1/T1+*%
X41125545Y-24494455D03*
%TO.N,/sas1/R0+*%
X31114455Y-24105545D03*
%TO.N,/sas1/R0-*%
X30725545Y-24494455D03*
%TO.N,/sas1/T0-*%
X28714455Y-24105545D03*
%TO.N,/sas1/T0+*%
X28325545Y-24494455D03*
%TO.N,/sas1/CLK-*%
X26314455Y-24105545D03*
%TO.N,/sas1/CLK+*%
X25925545Y-24494455D03*
D16*
%TO.N,/sas2/RST*%
X38120000Y-48490000D03*
%TO.N,/sas2/WAKE*%
X40095000Y-49445000D03*
D17*
%TO.N,/sas2/R3+*%
X53514455Y-40105545D03*
%TO.N,/sas2/R3-*%
X53125545Y-40494455D03*
%TO.N,/sas2/T3-*%
X51114455Y-40105545D03*
%TO.N,/sas2/T3+*%
X50725545Y-40494455D03*
%TO.N,/sas2/R2+*%
X48714455Y-40105545D03*
%TO.N,/sas2/R2-*%
X48325545Y-40494455D03*
%TO.N,/sas2/T2-*%
X46314455Y-40105545D03*
%TO.N,/sas2/T2+*%
X45925545Y-40494455D03*
%TO.N,/sas2/R1+*%
X43914455Y-40105545D03*
%TO.N,/sas2/R1-*%
X43525545Y-40494455D03*
%TO.N,/sas2/T1-*%
X41514455Y-40105545D03*
%TO.N,/sas2/T1+*%
X41125545Y-40494455D03*
%TO.N,/sas2/R0+*%
X31114455Y-40105545D03*
%TO.N,/sas2/R0-*%
X30725545Y-40494455D03*
%TO.N,/sas2/T0-*%
X28714455Y-40105545D03*
%TO.N,/sas2/T0+*%
X28325545Y-40494455D03*
%TO.N,/sas2/CLK-*%
X26314455Y-40105545D03*
%TO.N,/sas2/CLK+*%
X25925545Y-40494455D03*
%TD*%
D18*
%TO.N,GND*%
X16120000Y-40700000D02*
X16120000Y-42950000D01*
X16120000Y-24700000D02*
X16120000Y-26950000D01*
X16120000Y-8700000D02*
X16120000Y-10950000D01*
X16120000Y-56700000D02*
X16120000Y-58950000D01*
D19*
%TO.N,/sas3/T3+*%
X50725545Y-56423744D02*
X49626801Y-55325000D01*
X50725545Y-56494455D02*
X50725545Y-56423744D01*
X7638207Y-55549992D02*
X5420000Y-57768199D01*
X16978393Y-55549992D02*
X7638207Y-55549992D01*
X5420000Y-57768199D02*
X5420000Y-58200000D01*
X17203385Y-55325000D02*
X16978393Y-55549992D01*
X49626801Y-55325000D02*
X17203385Y-55325000D01*
%TO.N,/sas3/T3-*%
X51114455Y-56105545D02*
X51043744Y-56105545D01*
X51043744Y-56105545D02*
X49813199Y-54875000D01*
X49813199Y-54875000D02*
X17017002Y-54875000D01*
X16792001Y-55100001D02*
X7451800Y-55100001D01*
X17017002Y-54875000D02*
X16792001Y-55100001D01*
X7451800Y-55100001D02*
X5101801Y-57450000D01*
X5101801Y-57450000D02*
X4020000Y-57450000D01*
%TO.N,/sas3/R0-*%
X28709992Y-58510008D02*
X21680607Y-58510008D01*
X30725545Y-56494455D02*
X28709992Y-58510008D01*
X21680607Y-58510008D02*
X20490615Y-59700000D01*
X20490615Y-59700000D02*
X17120000Y-59700000D01*
X17120000Y-59700000D02*
X15420000Y-59700000D01*
%TO.N,/sas3/R0+*%
X17120000Y-60150000D02*
X16820000Y-60450000D01*
X21866999Y-58959999D02*
X20676998Y-60150000D01*
X31175546Y-56680852D02*
X28896399Y-58959999D01*
X31175546Y-56278454D02*
X31175546Y-56680852D01*
X20676998Y-60150000D02*
X17120000Y-60150000D01*
X31114455Y-56217363D02*
X31175546Y-56278454D01*
X28896399Y-58959999D02*
X21866999Y-58959999D01*
X31114455Y-56105545D02*
X31114455Y-56217363D01*
%TO.N,/sas3/R1-*%
X43525545Y-56494455D02*
X37095000Y-62925000D01*
X12855001Y-60935001D02*
X12787199Y-60935001D01*
X15105001Y-63185001D02*
X12855001Y-60935001D01*
X37095000Y-62925000D02*
X17305001Y-62925000D01*
X17305001Y-62932801D02*
X17052801Y-63185001D01*
X12787199Y-60935001D02*
X12534999Y-60682801D01*
X12534999Y-60614999D02*
X11620000Y-59700000D01*
X17052801Y-63185001D02*
X15105001Y-63185001D01*
X17305001Y-62925000D02*
X17305001Y-62932801D01*
X12534999Y-60682801D02*
X12534999Y-60614999D01*
%TO.N,/sas3/R1+*%
X43339148Y-56044454D02*
X36908602Y-62475000D01*
X43741546Y-56044454D02*
X43339148Y-56044454D01*
X43802637Y-56105545D02*
X43741546Y-56044454D01*
X43914455Y-56105545D02*
X43802637Y-56105545D01*
X17305001Y-62467199D02*
X17052801Y-62214999D01*
X15031397Y-62475000D02*
X13020000Y-60463603D01*
X16587199Y-62214999D02*
X16327198Y-62475000D01*
X36908602Y-62475000D02*
X17305001Y-62475000D01*
X16327198Y-62475000D02*
X15031397Y-62475000D01*
X13020000Y-60463603D02*
X13020000Y-60450000D01*
X17305001Y-62475000D02*
X17305001Y-62467199D01*
X17052801Y-62214999D02*
X16587199Y-62214999D01*
%TO.N,/sas0/T3-*%
X51043744Y-8105545D02*
X49813199Y-6875000D01*
X51114455Y-8105545D02*
X51043744Y-8105545D01*
X16792001Y-7100001D02*
X7451800Y-7100001D01*
X7451800Y-7100001D02*
X5101801Y-9450000D01*
X49813199Y-6875000D02*
X17017002Y-6875000D01*
X5101801Y-9450000D02*
X4020000Y-9450000D01*
X17017002Y-6875000D02*
X16792001Y-7100001D01*
%TO.N,/sas0/T3+*%
X16978393Y-7549992D02*
X7638207Y-7549992D01*
X50725545Y-8494455D02*
X50725545Y-8423744D01*
X17203385Y-7325000D02*
X16978393Y-7549992D01*
X7638207Y-7549992D02*
X5420000Y-9768199D01*
X5420000Y-9768199D02*
X5420000Y-10200000D01*
X49626801Y-7325000D02*
X17203385Y-7325000D01*
X50725545Y-8423744D02*
X49626801Y-7325000D01*
%TO.N,/sas0/R1+*%
X36908602Y-14475000D02*
X17305001Y-14475000D01*
X43741546Y-8044454D02*
X43339148Y-8044454D01*
X16327198Y-14475000D02*
X15031397Y-14475000D01*
X13020000Y-12463603D02*
X13020000Y-12450000D01*
X17305001Y-14475000D02*
X17305001Y-14467199D01*
X43802637Y-8105545D02*
X43741546Y-8044454D01*
X17052801Y-14214999D02*
X16587199Y-14214999D01*
X17305001Y-14467199D02*
X17052801Y-14214999D01*
X16587199Y-14214999D02*
X16327198Y-14475000D01*
X15031397Y-14475000D02*
X13020000Y-12463603D01*
X43339148Y-8044454D02*
X36908602Y-14475000D01*
X43914455Y-8105545D02*
X43802637Y-8105545D01*
%TO.N,/sas0/R1-*%
X37095000Y-14925000D02*
X17305001Y-14925000D01*
X15105001Y-15185001D02*
X12855001Y-12935001D01*
X17052801Y-15185001D02*
X15105001Y-15185001D01*
X43525545Y-8494455D02*
X37095000Y-14925000D01*
X12787199Y-12935001D02*
X12534999Y-12682801D01*
X17305001Y-14925000D02*
X17305001Y-14932801D01*
X17305001Y-14932801D02*
X17052801Y-15185001D01*
X12534999Y-12682801D02*
X12534999Y-12614999D01*
X12534999Y-12614999D02*
X11620000Y-11700000D01*
X12855001Y-12935001D02*
X12787199Y-12935001D01*
%TO.N,/sas0/R0+*%
X31175546Y-8680852D02*
X28896399Y-10959999D01*
X28896399Y-10959999D02*
X21866999Y-10959999D01*
X31114455Y-8217363D02*
X31175546Y-8278454D01*
X21866999Y-10959999D02*
X20676998Y-12150000D01*
X31114455Y-8105545D02*
X31114455Y-8217363D01*
X20676998Y-12150000D02*
X17120000Y-12150000D01*
X17120000Y-12150000D02*
X16820000Y-12450000D01*
X31175546Y-8278454D02*
X31175546Y-8680852D01*
%TO.N,/sas0/R0-*%
X17120000Y-11700000D02*
X15420000Y-11700000D01*
X21680607Y-10510008D02*
X20490615Y-11700000D01*
X30725545Y-8494455D02*
X28709992Y-10510008D01*
X20490615Y-11700000D02*
X17120000Y-11700000D01*
X28709992Y-10510008D02*
X21680607Y-10510008D01*
%TO.N,/sas1/T3-*%
X51043744Y-24105545D02*
X49813199Y-22875000D01*
X51114455Y-24105545D02*
X51043744Y-24105545D01*
X16792001Y-23100001D02*
X7451800Y-23100001D01*
X7451800Y-23100001D02*
X5101801Y-25450000D01*
X49813199Y-22875000D02*
X17017002Y-22875000D01*
X5101801Y-25450000D02*
X4020000Y-25450000D01*
X17017002Y-22875000D02*
X16792001Y-23100001D01*
%TO.N,/sas1/T3+*%
X16978393Y-23549992D02*
X7638207Y-23549992D01*
X50725545Y-24494455D02*
X50725545Y-24423744D01*
X17203385Y-23325000D02*
X16978393Y-23549992D01*
X7638207Y-23549992D02*
X5420000Y-25768199D01*
X5420000Y-25768199D02*
X5420000Y-26200000D01*
X49626801Y-23325000D02*
X17203385Y-23325000D01*
X50725545Y-24423744D02*
X49626801Y-23325000D01*
%TO.N,/sas1/R1+*%
X36908602Y-30475000D02*
X17305001Y-30475000D01*
X43741546Y-24044454D02*
X43339148Y-24044454D01*
X16327198Y-30475000D02*
X15031397Y-30475000D01*
X13020000Y-28463603D02*
X13020000Y-28450000D01*
X17305001Y-30475000D02*
X17305001Y-30467199D01*
X43802637Y-24105545D02*
X43741546Y-24044454D01*
X17052801Y-30214999D02*
X16587199Y-30214999D01*
X17305001Y-30467199D02*
X17052801Y-30214999D01*
X16587199Y-30214999D02*
X16327198Y-30475000D01*
X15031397Y-30475000D02*
X13020000Y-28463603D01*
X43339148Y-24044454D02*
X36908602Y-30475000D01*
X43914455Y-24105545D02*
X43802637Y-24105545D01*
%TO.N,/sas1/R1-*%
X37095000Y-30925000D02*
X17305001Y-30925000D01*
X15105001Y-31185001D02*
X12855001Y-28935001D01*
X17052801Y-31185001D02*
X15105001Y-31185001D01*
X43525545Y-24494455D02*
X37095000Y-30925000D01*
X12787199Y-28935001D02*
X12534999Y-28682801D01*
X17305001Y-30925000D02*
X17305001Y-30932801D01*
X17305001Y-30932801D02*
X17052801Y-31185001D01*
X12534999Y-28682801D02*
X12534999Y-28614999D01*
X12534999Y-28614999D02*
X11620000Y-27700000D01*
X12855001Y-28935001D02*
X12787199Y-28935001D01*
%TO.N,/sas1/R0+*%
X31175546Y-24680852D02*
X28896399Y-26959999D01*
X28896399Y-26959999D02*
X21866999Y-26959999D01*
X31114455Y-24217363D02*
X31175546Y-24278454D01*
X21866999Y-26959999D02*
X20676998Y-28150000D01*
X31114455Y-24105545D02*
X31114455Y-24217363D01*
X20676998Y-28150000D02*
X17120000Y-28150000D01*
X17120000Y-28150000D02*
X16820000Y-28450000D01*
X31175546Y-24278454D02*
X31175546Y-24680852D01*
%TO.N,/sas1/R0-*%
X17120000Y-27700000D02*
X15420000Y-27700000D01*
X21680607Y-26510008D02*
X20490615Y-27700000D01*
X30725545Y-24494455D02*
X28709992Y-26510008D01*
X20490615Y-27700000D02*
X17120000Y-27700000D01*
X28709992Y-26510008D02*
X21680607Y-26510008D01*
%TO.N,/sas2/T3-*%
X51043744Y-40105545D02*
X49813199Y-38875000D01*
X51114455Y-40105545D02*
X51043744Y-40105545D01*
X16792001Y-39100001D02*
X7451800Y-39100001D01*
X7451800Y-39100001D02*
X5101801Y-41450000D01*
X49813199Y-38875000D02*
X17017002Y-38875000D01*
X5101801Y-41450000D02*
X4020000Y-41450000D01*
X17017002Y-38875000D02*
X16792001Y-39100001D01*
%TO.N,/sas2/T3+*%
X16978393Y-39549992D02*
X7638207Y-39549992D01*
X50725545Y-40494455D02*
X50725545Y-40423744D01*
X17203385Y-39325000D02*
X16978393Y-39549992D01*
X7638207Y-39549992D02*
X5420000Y-41768199D01*
X5420000Y-41768199D02*
X5420000Y-42200000D01*
X49626801Y-39325000D02*
X17203385Y-39325000D01*
X50725545Y-40423744D02*
X49626801Y-39325000D01*
%TO.N,/sas2/R1+*%
X36908602Y-46475000D02*
X17305001Y-46475000D01*
X43741546Y-40044454D02*
X43339148Y-40044454D01*
X16327198Y-46475000D02*
X15031397Y-46475000D01*
X13020000Y-44463603D02*
X13020000Y-44450000D01*
X17305001Y-46475000D02*
X17305001Y-46467199D01*
X43802637Y-40105545D02*
X43741546Y-40044454D01*
X17052801Y-46214999D02*
X16587199Y-46214999D01*
X17305001Y-46467199D02*
X17052801Y-46214999D01*
X16587199Y-46214999D02*
X16327198Y-46475000D01*
X15031397Y-46475000D02*
X13020000Y-44463603D01*
X43339148Y-40044454D02*
X36908602Y-46475000D01*
X43914455Y-40105545D02*
X43802637Y-40105545D01*
%TO.N,/sas2/R1-*%
X37095000Y-46925000D02*
X17305001Y-46925000D01*
X15105001Y-47185001D02*
X12855001Y-44935001D01*
X17052801Y-47185001D02*
X15105001Y-47185001D01*
X43525545Y-40494455D02*
X37095000Y-46925000D01*
X12787199Y-44935001D02*
X12534999Y-44682801D01*
X17305001Y-46925000D02*
X17305001Y-46932801D01*
X17305001Y-46932801D02*
X17052801Y-47185001D01*
X12534999Y-44682801D02*
X12534999Y-44614999D01*
X12534999Y-44614999D02*
X11620000Y-43700000D01*
X12855001Y-44935001D02*
X12787199Y-44935001D01*
%TO.N,/sas2/R0+*%
X31175546Y-40680852D02*
X28896399Y-42959999D01*
X28896399Y-42959999D02*
X21866999Y-42959999D01*
X31114455Y-40217363D02*
X31175546Y-40278454D01*
X21866999Y-42959999D02*
X20676998Y-44150000D01*
X31114455Y-40105545D02*
X31114455Y-40217363D01*
X20676998Y-44150000D02*
X17120000Y-44150000D01*
X17120000Y-44150000D02*
X16820000Y-44450000D01*
X31175546Y-40278454D02*
X31175546Y-40680852D01*
%TO.N,/sas2/R0-*%
X17120000Y-43700000D02*
X15420000Y-43700000D01*
X21680607Y-42510008D02*
X20490615Y-43700000D01*
X30725545Y-40494455D02*
X28709992Y-42510008D01*
X20490615Y-43700000D02*
X17120000Y-43700000D01*
X28709992Y-42510008D02*
X21680607Y-42510008D01*
%TD*%
D20*
%TO.N,GND*%
G36*
X71195092Y-800751D02*
X71713100Y-981140D01*
X72178266Y-1271808D01*
X72567474Y-1658308D01*
X72861386Y-2121438D01*
X73045383Y-2638164D01*
X73115001Y-3221993D01*
X73115000Y-16727612D01*
X73100601Y-16800000D01*
X73157646Y-17086783D01*
X73267161Y-17250683D01*
X73320095Y-17329905D01*
X73563217Y-17492354D01*
X73850000Y-17549399D01*
X73873000Y-17544824D01*
X73873000Y-54255176D01*
X73850000Y-54250601D01*
X73777612Y-54265000D01*
X73563217Y-54307646D01*
X73320095Y-54470095D01*
X73157646Y-54713217D01*
X73100601Y-55000000D01*
X73115000Y-55072388D01*
X73115001Y-68672388D01*
X73122947Y-68712336D01*
X73073780Y-69150669D01*
X72891548Y-69673969D01*
X72597909Y-70143890D01*
X72207451Y-70537083D01*
X71739593Y-70833995D01*
X71217576Y-71019877D01*
X70766155Y-71073706D01*
X70722388Y-71065000D01*
X3241089Y-71065000D01*
X2654908Y-70999249D01*
X2136899Y-70818859D01*
X1671734Y-70528192D01*
X1282524Y-70141689D01*
X988614Y-69678562D01*
X804617Y-69161837D01*
X735000Y-68578016D01*
X735000Y-67692268D01*
X59460000Y-67692268D01*
X59460000Y-68287733D01*
X59547032Y-68725271D01*
X59878561Y-69221439D01*
X60374730Y-69552968D01*
X60960000Y-69669386D01*
X61545271Y-69552968D01*
X62041439Y-69221439D01*
X62216846Y-68958923D01*
X62559143Y-69340793D01*
X63087240Y-69594131D01*
X63100754Y-69596346D01*
X63333000Y-69475224D01*
X63333000Y-68117000D01*
X63587000Y-68117000D01*
X63587000Y-69475224D01*
X63819246Y-69596346D01*
X63832760Y-69594131D01*
X64360857Y-69340793D01*
X64710000Y-68951285D01*
X65059143Y-69340793D01*
X65587240Y-69594131D01*
X65600754Y-69596346D01*
X65833000Y-69475224D01*
X65833000Y-68117000D01*
X63587000Y-68117000D01*
X63333000Y-68117000D01*
X63313000Y-68117000D01*
X63313000Y-67863000D01*
X63333000Y-67863000D01*
X63333000Y-66504776D01*
X63587000Y-66504776D01*
X63587000Y-67863000D01*
X65833000Y-67863000D01*
X65833000Y-66504776D01*
X66087000Y-66504776D01*
X66087000Y-67863000D01*
X66107000Y-67863000D01*
X66107000Y-68117000D01*
X66087000Y-68117000D01*
X66087000Y-69475224D01*
X66319246Y-69596346D01*
X66332760Y-69594131D01*
X66860857Y-69340793D01*
X66986477Y-69200650D01*
X66996843Y-69252765D01*
X67137191Y-69462809D01*
X67347235Y-69603157D01*
X67595000Y-69652440D01*
X69325000Y-69652440D01*
X69572765Y-69603157D01*
X69782809Y-69462809D01*
X69923157Y-69252765D01*
X69972440Y-69005000D01*
X69972440Y-66975000D01*
X69923157Y-66727235D01*
X69782809Y-66517191D01*
X69572765Y-66376843D01*
X69325000Y-66327560D01*
X67595000Y-66327560D01*
X67347235Y-66376843D01*
X67137191Y-66517191D01*
X66996843Y-66727235D01*
X66986477Y-66779350D01*
X66860857Y-66639207D01*
X66332760Y-66385869D01*
X66319246Y-66383654D01*
X66087000Y-66504776D01*
X65833000Y-66504776D01*
X65600754Y-66383654D01*
X65587240Y-66385869D01*
X65059143Y-66639207D01*
X64710000Y-67028715D01*
X64360857Y-66639207D01*
X63832760Y-66385869D01*
X63819246Y-66383654D01*
X63587000Y-66504776D01*
X63333000Y-66504776D01*
X63100754Y-66383654D01*
X63087240Y-66385869D01*
X62559143Y-66639207D01*
X62216846Y-67021077D01*
X62041439Y-66758561D01*
X61545270Y-66427032D01*
X60960000Y-66310614D01*
X60374729Y-66427032D01*
X59878561Y-66758561D01*
X59547032Y-67254730D01*
X59460000Y-67692268D01*
X735000Y-67692268D01*
X735000Y-65354887D01*
X2385000Y-65354887D01*
X2385000Y-66045113D01*
X2649138Y-66682799D01*
X3137201Y-67170862D01*
X3774887Y-67435000D01*
X4465113Y-67435000D01*
X5102799Y-67170862D01*
X5590862Y-66682799D01*
X5855000Y-66045113D01*
X5855000Y-65354887D01*
X14385000Y-65354887D01*
X14385000Y-66045113D01*
X14649138Y-66682799D01*
X15137201Y-67170862D01*
X15774887Y-67435000D01*
X16465113Y-67435000D01*
X17102799Y-67170862D01*
X17590862Y-66682799D01*
X17855000Y-66045113D01*
X17855000Y-65354887D01*
X17590862Y-64717201D01*
X17157787Y-64284126D01*
X37085000Y-64284126D01*
X37085000Y-64695874D01*
X37242569Y-65076280D01*
X37533720Y-65367431D01*
X37914126Y-65525000D01*
X38325874Y-65525000D01*
X38706280Y-65367431D01*
X38834585Y-65239126D01*
X39060000Y-65239126D01*
X39060000Y-65650874D01*
X39217569Y-66031280D01*
X39508720Y-66322431D01*
X39889126Y-66480000D01*
X40300874Y-66480000D01*
X40681280Y-66322431D01*
X40972431Y-66031280D01*
X41130000Y-65650874D01*
X41130000Y-65239126D01*
X41119645Y-65214126D01*
X46680000Y-65214126D01*
X46680000Y-65625874D01*
X46837569Y-66006280D01*
X47128720Y-66297431D01*
X47509126Y-66455000D01*
X47920874Y-66455000D01*
X48301280Y-66297431D01*
X48337500Y-66261211D01*
X48398720Y-66322431D01*
X48779126Y-66480000D01*
X49190874Y-66480000D01*
X49571280Y-66322431D01*
X49620000Y-66273711D01*
X49668720Y-66322431D01*
X50049126Y-66480000D01*
X50460874Y-66480000D01*
X50841280Y-66322431D01*
X51132431Y-66031280D01*
X51290000Y-65650874D01*
X51290000Y-65239126D01*
X54275000Y-65239126D01*
X54275000Y-65650874D01*
X54432569Y-66031280D01*
X54723720Y-66322431D01*
X55104126Y-66480000D01*
X55515874Y-66480000D01*
X55896280Y-66322431D01*
X55945000Y-66273711D01*
X55993720Y-66322431D01*
X56374126Y-66480000D01*
X56785874Y-66480000D01*
X57166280Y-66322431D01*
X57227500Y-66261211D01*
X57288720Y-66322431D01*
X57669126Y-66480000D01*
X58080874Y-66480000D01*
X58461280Y-66322431D01*
X58752431Y-66031280D01*
X58910000Y-65650874D01*
X58910000Y-65239126D01*
X58752431Y-64858720D01*
X58461280Y-64567569D01*
X58080874Y-64410000D01*
X57669126Y-64410000D01*
X57288720Y-64567569D01*
X57227500Y-64628789D01*
X57166280Y-64567569D01*
X56785874Y-64410000D01*
X56374126Y-64410000D01*
X55993720Y-64567569D01*
X55945000Y-64616289D01*
X55896280Y-64567569D01*
X55515874Y-64410000D01*
X55104126Y-64410000D01*
X54723720Y-64567569D01*
X54432569Y-64858720D01*
X54275000Y-65239126D01*
X51290000Y-65239126D01*
X51132431Y-64858720D01*
X50841280Y-64567569D01*
X50460874Y-64410000D01*
X50049126Y-64410000D01*
X49668720Y-64567569D01*
X49620000Y-64616289D01*
X49571280Y-64567569D01*
X49190874Y-64410000D01*
X48779126Y-64410000D01*
X48398720Y-64567569D01*
X48362500Y-64603789D01*
X48301280Y-64542569D01*
X47920874Y-64385000D01*
X47509126Y-64385000D01*
X47128720Y-64542569D01*
X46837569Y-64833720D01*
X46680000Y-65214126D01*
X41119645Y-65214126D01*
X40972431Y-64858720D01*
X40681280Y-64567569D01*
X40300874Y-64410000D01*
X39889126Y-64410000D01*
X39508720Y-64567569D01*
X39217569Y-64858720D01*
X39060000Y-65239126D01*
X38834585Y-65239126D01*
X38997431Y-65076280D01*
X39155000Y-64695874D01*
X39155000Y-64284126D01*
X38997431Y-63903720D01*
X38706280Y-63612569D01*
X38325874Y-63455000D01*
X37914126Y-63455000D01*
X37533720Y-63612569D01*
X37242569Y-63903720D01*
X37085000Y-64284126D01*
X17157787Y-64284126D01*
X17102799Y-64229138D01*
X16465113Y-63965000D01*
X15774887Y-63965000D01*
X15137201Y-64229138D01*
X14649138Y-64717201D01*
X14385000Y-65354887D01*
X5855000Y-65354887D01*
X5590862Y-64717201D01*
X5102799Y-64229138D01*
X4465113Y-63965000D01*
X3774887Y-63965000D01*
X3137201Y-64229138D01*
X2649138Y-64717201D01*
X2385000Y-65354887D01*
X735000Y-65354887D01*
X735000Y-61786892D01*
X3200000Y-61786892D01*
X3200000Y-62113108D01*
X3324837Y-62414493D01*
X3555507Y-62645163D01*
X3856892Y-62770000D01*
X4183108Y-62770000D01*
X4484493Y-62645163D01*
X4605117Y-62524539D01*
X4600000Y-62536892D01*
X4600000Y-62863108D01*
X4724837Y-63164493D01*
X4955507Y-63395163D01*
X5256892Y-63520000D01*
X5583108Y-63520000D01*
X5884493Y-63395163D01*
X6115163Y-63164493D01*
X6240000Y-62863108D01*
X6240000Y-62536892D01*
X6115163Y-62235507D01*
X5884493Y-62004837D01*
X5583108Y-61880000D01*
X5256892Y-61880000D01*
X4955507Y-62004837D01*
X4834883Y-62125461D01*
X4840000Y-62113108D01*
X4840000Y-62013501D01*
X4941348Y-62006232D01*
X5133575Y-61926609D01*
X5130182Y-61786892D01*
X7000000Y-61786892D01*
X7000000Y-62113108D01*
X7124837Y-62414493D01*
X7355507Y-62645163D01*
X7656892Y-62770000D01*
X7983108Y-62770000D01*
X8284493Y-62645163D01*
X8405117Y-62524539D01*
X8400000Y-62536892D01*
X8400000Y-62863108D01*
X8524837Y-63164493D01*
X8755507Y-63395163D01*
X9056892Y-63520000D01*
X9383108Y-63520000D01*
X9684493Y-63395163D01*
X9915163Y-63164493D01*
X10040000Y-62863108D01*
X10040000Y-62536892D01*
X9915163Y-62235507D01*
X9684493Y-62004837D01*
X9383108Y-61880000D01*
X9056892Y-61880000D01*
X8755507Y-62004837D01*
X8634883Y-62125461D01*
X8640000Y-62113108D01*
X8640000Y-62013501D01*
X8741348Y-62006232D01*
X8933575Y-61926609D01*
X8929039Y-61739854D01*
X8520000Y-61330815D01*
X8481463Y-61369353D01*
X8350648Y-61238538D01*
X8389185Y-61200000D01*
X7980146Y-60790961D01*
X7793391Y-60786425D01*
X7690432Y-61095968D01*
X7692873Y-61130000D01*
X7656892Y-61130000D01*
X7355507Y-61254837D01*
X7124837Y-61485507D01*
X7000000Y-61786892D01*
X5130182Y-61786892D01*
X5129039Y-61739854D01*
X4720000Y-61330815D01*
X4681463Y-61369353D01*
X4550648Y-61238538D01*
X4589185Y-61200000D01*
X4180146Y-60790961D01*
X3993391Y-60786425D01*
X3890432Y-61095968D01*
X3892873Y-61130000D01*
X3856892Y-61130000D01*
X3555507Y-61254837D01*
X3324837Y-61485507D01*
X3200000Y-61786892D01*
X735000Y-61786892D01*
X735000Y-59536892D01*
X3200000Y-59536892D01*
X3200000Y-59863108D01*
X3324837Y-60164493D01*
X3555507Y-60395163D01*
X3856892Y-60520000D01*
X4183108Y-60520000D01*
X4484493Y-60395163D01*
X4605117Y-60274539D01*
X4600000Y-60286892D01*
X4600000Y-60386499D01*
X4498652Y-60393768D01*
X4306425Y-60473391D01*
X4310961Y-60660146D01*
X4720000Y-61069185D01*
X4758538Y-61030648D01*
X4889353Y-61161463D01*
X4850815Y-61200000D01*
X5259854Y-61609039D01*
X5446609Y-61613575D01*
X5549568Y-61304032D01*
X5547127Y-61270000D01*
X5583108Y-61270000D01*
X5884493Y-61145163D01*
X6115163Y-60914493D01*
X6240000Y-60613108D01*
X6240000Y-60286892D01*
X6115163Y-59985507D01*
X5884493Y-59754837D01*
X5583108Y-59630000D01*
X5256892Y-59630000D01*
X4955507Y-59754837D01*
X4834883Y-59875461D01*
X4840000Y-59863108D01*
X4840000Y-59763501D01*
X4941348Y-59756232D01*
X5133575Y-59676609D01*
X5130182Y-59536892D01*
X7000000Y-59536892D01*
X7000000Y-59863108D01*
X7124837Y-60164493D01*
X7355507Y-60395163D01*
X7656892Y-60520000D01*
X7983108Y-60520000D01*
X8284493Y-60395163D01*
X8405117Y-60274539D01*
X8400000Y-60286892D01*
X8400000Y-60386499D01*
X8298652Y-60393768D01*
X8106425Y-60473391D01*
X8110961Y-60660146D01*
X8520000Y-61069185D01*
X8558538Y-61030648D01*
X8689353Y-61161463D01*
X8650815Y-61200000D01*
X9059854Y-61609039D01*
X9246609Y-61613575D01*
X9349568Y-61304032D01*
X9347127Y-61270000D01*
X9383108Y-61270000D01*
X9684493Y-61145163D01*
X9915163Y-60914493D01*
X10040000Y-60613108D01*
X10040000Y-60286892D01*
X9915163Y-59985507D01*
X9684493Y-59754837D01*
X9383108Y-59630000D01*
X9056892Y-59630000D01*
X8755507Y-59754837D01*
X8634883Y-59875461D01*
X8640000Y-59863108D01*
X8640000Y-59763501D01*
X8741348Y-59756232D01*
X8933575Y-59676609D01*
X8929039Y-59489854D01*
X8520000Y-59080815D01*
X8481463Y-59119353D01*
X8350648Y-58988538D01*
X8389185Y-58950000D01*
X7980146Y-58540961D01*
X7793391Y-58536425D01*
X7690432Y-58845968D01*
X7692873Y-58880000D01*
X7656892Y-58880000D01*
X7355507Y-59004837D01*
X7124837Y-59235507D01*
X7000000Y-59536892D01*
X5130182Y-59536892D01*
X5129039Y-59489854D01*
X4720000Y-59080815D01*
X4681463Y-59119353D01*
X4550648Y-58988538D01*
X4589185Y-58950000D01*
X4180146Y-58540961D01*
X3993391Y-58536425D01*
X3890432Y-58845968D01*
X3892873Y-58880000D01*
X3856892Y-58880000D01*
X3555507Y-59004837D01*
X3324837Y-59235507D01*
X3200000Y-59536892D01*
X735000Y-59536892D01*
X735000Y-57286892D01*
X3200000Y-57286892D01*
X3200000Y-57613108D01*
X3324837Y-57914493D01*
X3555507Y-58145163D01*
X3856892Y-58270000D01*
X4183108Y-58270000D01*
X4388317Y-58185000D01*
X4399109Y-58185000D01*
X4306425Y-58223391D01*
X4310961Y-58410146D01*
X4720000Y-58819185D01*
X4758538Y-58780648D01*
X4889353Y-58911463D01*
X4850815Y-58950000D01*
X5259854Y-59359039D01*
X5446609Y-59363575D01*
X5549568Y-59054032D01*
X5547127Y-59020000D01*
X5583108Y-59020000D01*
X5884493Y-58895163D01*
X6115163Y-58664493D01*
X6240000Y-58363108D01*
X6240000Y-58036892D01*
X6225576Y-58002069D01*
X7041893Y-57185752D01*
X7000000Y-57286892D01*
X7000000Y-57613108D01*
X7124837Y-57914493D01*
X7355507Y-58145163D01*
X7656892Y-58270000D01*
X7983108Y-58270000D01*
X8284493Y-58145163D01*
X8405117Y-58024539D01*
X8400000Y-58036892D01*
X8400000Y-58136499D01*
X8298652Y-58143768D01*
X8106425Y-58223391D01*
X8110961Y-58410146D01*
X8520000Y-58819185D01*
X8558538Y-58780648D01*
X8689353Y-58911463D01*
X8650815Y-58950000D01*
X9059854Y-59359039D01*
X9246609Y-59363575D01*
X9349568Y-59054032D01*
X9347127Y-59020000D01*
X9383108Y-59020000D01*
X9684493Y-58895163D01*
X9915163Y-58664493D01*
X10040000Y-58363108D01*
X10040000Y-58036892D01*
X9915163Y-57735507D01*
X9684493Y-57504837D01*
X9383108Y-57380000D01*
X9056892Y-57380000D01*
X8755507Y-57504837D01*
X8634883Y-57625461D01*
X8640000Y-57613108D01*
X8640000Y-57513501D01*
X8741348Y-57506232D01*
X8933575Y-57426609D01*
X8929039Y-57239854D01*
X8520000Y-56830815D01*
X8481463Y-56869353D01*
X8350648Y-56738538D01*
X8389185Y-56700000D01*
X8350648Y-56661463D01*
X8481463Y-56530648D01*
X8520000Y-56569185D01*
X8558538Y-56530648D01*
X8689353Y-56661463D01*
X8650815Y-56700000D01*
X9059854Y-57109039D01*
X9246609Y-57113575D01*
X9349568Y-56804032D01*
X9326232Y-56478652D01*
X9246609Y-56286425D01*
X9109862Y-56289746D01*
X9114616Y-56284992D01*
X11725384Y-56284992D01*
X11730138Y-56289746D01*
X11593391Y-56286425D01*
X11490432Y-56595968D01*
X11492873Y-56630000D01*
X11456892Y-56630000D01*
X11155507Y-56754837D01*
X10924837Y-56985507D01*
X10800000Y-57286892D01*
X10800000Y-57613108D01*
X10924837Y-57914493D01*
X11155507Y-58145163D01*
X11456892Y-58270000D01*
X11783108Y-58270000D01*
X12084493Y-58145163D01*
X12205117Y-58024539D01*
X12200000Y-58036892D01*
X12200000Y-58136499D01*
X12098652Y-58143768D01*
X11906425Y-58223391D01*
X11910961Y-58410146D01*
X12320000Y-58819185D01*
X12358538Y-58780648D01*
X12489353Y-58911463D01*
X12450815Y-58950000D01*
X12859854Y-59359039D01*
X13046609Y-59363575D01*
X13149568Y-59054032D01*
X13147127Y-59020000D01*
X13183108Y-59020000D01*
X13484493Y-58895163D01*
X13715163Y-58664493D01*
X13840000Y-58363108D01*
X13840000Y-58036892D01*
X13715163Y-57735507D01*
X13484493Y-57504837D01*
X13183108Y-57380000D01*
X12856892Y-57380000D01*
X12555507Y-57504837D01*
X12434883Y-57625461D01*
X12440000Y-57613108D01*
X12440000Y-57513501D01*
X12541348Y-57506232D01*
X12733575Y-57426609D01*
X12729039Y-57239854D01*
X12320000Y-56830815D01*
X12281463Y-56869353D01*
X12150648Y-56738538D01*
X12189185Y-56700000D01*
X12150648Y-56661463D01*
X12281463Y-56530648D01*
X12320000Y-56569185D01*
X12358538Y-56530648D01*
X12489353Y-56661463D01*
X12450815Y-56700000D01*
X12859854Y-57109039D01*
X13046609Y-57113575D01*
X13149568Y-56804032D01*
X13126232Y-56478652D01*
X13046609Y-56286425D01*
X12909862Y-56289746D01*
X12914616Y-56284992D01*
X15525384Y-56284992D01*
X15530138Y-56289746D01*
X15393391Y-56286425D01*
X15290432Y-56595968D01*
X15292873Y-56630000D01*
X15256892Y-56630000D01*
X14955507Y-56754837D01*
X14724837Y-56985507D01*
X14600000Y-57286892D01*
X14600000Y-57613108D01*
X14724837Y-57914493D01*
X14955507Y-58145163D01*
X15256892Y-58270000D01*
X15583108Y-58270000D01*
X15884493Y-58145163D01*
X16005117Y-58024539D01*
X16000000Y-58036892D01*
X16000000Y-58136499D01*
X15898652Y-58143768D01*
X15706425Y-58223391D01*
X15710961Y-58410146D01*
X16120000Y-58819185D01*
X16158538Y-58780648D01*
X16289353Y-58911463D01*
X16250815Y-58950000D01*
X16265815Y-58965000D01*
X15974185Y-58965000D01*
X15989185Y-58950000D01*
X15580146Y-58540961D01*
X15393391Y-58536425D01*
X15290432Y-58845968D01*
X15292873Y-58880000D01*
X15256892Y-58880000D01*
X14955507Y-59004837D01*
X14724837Y-59235507D01*
X14600000Y-59536892D01*
X14600000Y-59863108D01*
X14724837Y-60164493D01*
X14955507Y-60395163D01*
X15256892Y-60520000D01*
X15583108Y-60520000D01*
X15788317Y-60435000D01*
X15799109Y-60435000D01*
X15706425Y-60473391D01*
X15710961Y-60660146D01*
X16120000Y-61069185D01*
X16158538Y-61030648D01*
X16289353Y-61161463D01*
X16250815Y-61200000D01*
X16289353Y-61238538D01*
X16158538Y-61369353D01*
X16120000Y-61330815D01*
X16081463Y-61369353D01*
X15950648Y-61238538D01*
X15989185Y-61200000D01*
X15580146Y-60790961D01*
X15393391Y-60786425D01*
X15290432Y-61095968D01*
X15292873Y-61130000D01*
X15256892Y-61130000D01*
X14955507Y-61254837D01*
X14903094Y-61307250D01*
X13809782Y-60213939D01*
X13715163Y-59985507D01*
X13484493Y-59754837D01*
X13183108Y-59630000D01*
X12856892Y-59630000D01*
X12667779Y-59708333D01*
X12664618Y-59705172D01*
X12733575Y-59676609D01*
X12729039Y-59489854D01*
X12320000Y-59080815D01*
X12281463Y-59119353D01*
X12150648Y-58988538D01*
X12189185Y-58950000D01*
X11780146Y-58540961D01*
X11593391Y-58536425D01*
X11490432Y-58845968D01*
X11492873Y-58880000D01*
X11456892Y-58880000D01*
X11155507Y-59004837D01*
X10924837Y-59235507D01*
X10800000Y-59536892D01*
X10800000Y-59863108D01*
X10924837Y-60164493D01*
X11155507Y-60395163D01*
X11360717Y-60480163D01*
X11668810Y-60788257D01*
X11593391Y-60786425D01*
X11490432Y-61095968D01*
X11492873Y-61130000D01*
X11456892Y-61130000D01*
X11155507Y-61254837D01*
X10924837Y-61485507D01*
X10800000Y-61786892D01*
X10800000Y-62113108D01*
X10924837Y-62414493D01*
X11155507Y-62645163D01*
X11456892Y-62770000D01*
X11783108Y-62770000D01*
X12084493Y-62645163D01*
X12205117Y-62524539D01*
X12200000Y-62536892D01*
X12200000Y-62863108D01*
X12324837Y-63164493D01*
X12555507Y-63395163D01*
X12856892Y-63520000D01*
X13183108Y-63520000D01*
X13484493Y-63395163D01*
X13715163Y-63164493D01*
X13811783Y-62931230D01*
X14534091Y-63653538D01*
X14575096Y-63714906D01*
X14818218Y-63877355D01*
X15032613Y-63920001D01*
X15105001Y-63934400D01*
X15177389Y-63920001D01*
X16980417Y-63920001D01*
X17052801Y-63934399D01*
X17125185Y-63920001D01*
X17125189Y-63920001D01*
X17339584Y-63877355D01*
X17582706Y-63714906D01*
X17619393Y-63660000D01*
X37022616Y-63660000D01*
X37095000Y-63674398D01*
X37167384Y-63660000D01*
X37167388Y-63660000D01*
X37381783Y-63617354D01*
X37624905Y-63454905D01*
X37665911Y-63393535D01*
X40884341Y-60175105D01*
X59430000Y-60175105D01*
X59430000Y-60944895D01*
X59724586Y-61656090D01*
X60268910Y-62200414D01*
X60980105Y-62495000D01*
X61749895Y-62495000D01*
X62461090Y-62200414D01*
X63005414Y-61656090D01*
X63300000Y-60944895D01*
X63300000Y-60175105D01*
X63005414Y-59463910D01*
X62461090Y-58919586D01*
X61749895Y-58625000D01*
X60980105Y-58625000D01*
X60268910Y-58919586D01*
X59724586Y-59463910D01*
X59430000Y-60175105D01*
X40884341Y-60175105D01*
X43849501Y-57209946D01*
X43970212Y-57159946D01*
X44191036Y-56939122D01*
X44240267Y-56820267D01*
X44359122Y-56771036D01*
X44579946Y-56550212D01*
X44699455Y-56261691D01*
X44699455Y-56060000D01*
X45255824Y-56060000D01*
X45140545Y-56338309D01*
X45140545Y-56650601D01*
X45260054Y-56939122D01*
X45480878Y-57159946D01*
X45769399Y-57279455D01*
X46081691Y-57279455D01*
X46370212Y-57159946D01*
X46591036Y-56939122D01*
X46640267Y-56820267D01*
X46759122Y-56771036D01*
X46979946Y-56550212D01*
X47099455Y-56261691D01*
X47099455Y-56060000D01*
X47655824Y-56060000D01*
X47540545Y-56338309D01*
X47540545Y-56650601D01*
X47660054Y-56939122D01*
X47880878Y-57159946D01*
X48169399Y-57279455D01*
X48481691Y-57279455D01*
X48770212Y-57159946D01*
X48991036Y-56939122D01*
X49040267Y-56820267D01*
X49159122Y-56771036D01*
X49379946Y-56550212D01*
X49499455Y-56261691D01*
X49499455Y-56237100D01*
X49960054Y-56697700D01*
X50060054Y-56939122D01*
X50280878Y-57159946D01*
X50569399Y-57279455D01*
X50881691Y-57279455D01*
X51170212Y-57159946D01*
X51391036Y-56939122D01*
X51440267Y-56820267D01*
X51559122Y-56771036D01*
X51779946Y-56550212D01*
X51867718Y-56338309D01*
X52340545Y-56338309D01*
X52340545Y-56650601D01*
X52460054Y-56939122D01*
X52680878Y-57159946D01*
X52969399Y-57279455D01*
X53281691Y-57279455D01*
X53570212Y-57159946D01*
X53791036Y-56939122D01*
X53840267Y-56820267D01*
X53959122Y-56771036D01*
X54179946Y-56550212D01*
X54299455Y-56261691D01*
X54299455Y-55949399D01*
X54179946Y-55660878D01*
X53959122Y-55440054D01*
X53670601Y-55320545D01*
X53358309Y-55320545D01*
X53069788Y-55440054D01*
X52848964Y-55660878D01*
X52799733Y-55779733D01*
X52680878Y-55828964D01*
X52460054Y-56049788D01*
X52340545Y-56338309D01*
X51867718Y-56338309D01*
X51899455Y-56261691D01*
X51899455Y-55949399D01*
X51779946Y-55660878D01*
X51559122Y-55440054D01*
X51317700Y-55340054D01*
X50384110Y-54406465D01*
X50343104Y-54345095D01*
X50099982Y-54182646D01*
X49885587Y-54140000D01*
X49885583Y-54140000D01*
X49813199Y-54125602D01*
X49740815Y-54140000D01*
X17815697Y-54140000D01*
X17855000Y-54045113D01*
X17855000Y-53354887D01*
X17590862Y-52717201D01*
X17102799Y-52229138D01*
X16465113Y-51965000D01*
X15774887Y-51965000D01*
X15137201Y-52229138D01*
X14649138Y-52717201D01*
X14385000Y-53354887D01*
X14385000Y-54045113D01*
X14517502Y-54365001D01*
X7524183Y-54365001D01*
X7451799Y-54350603D01*
X7379415Y-54365001D01*
X7379412Y-54365001D01*
X7165017Y-54407647D01*
X6921895Y-54570096D01*
X6880891Y-54631464D01*
X4797355Y-56715000D01*
X4574185Y-56715000D01*
X4589185Y-56700000D01*
X4180146Y-56290961D01*
X3993391Y-56286425D01*
X3890432Y-56595968D01*
X3892873Y-56630000D01*
X3856892Y-56630000D01*
X3555507Y-56754837D01*
X3324837Y-56985507D01*
X3200000Y-57286892D01*
X735000Y-57286892D01*
X735000Y-55973391D01*
X4306425Y-55973391D01*
X4310961Y-56160146D01*
X4720000Y-56569185D01*
X5129039Y-56160146D01*
X5133575Y-55973391D01*
X4824032Y-55870432D01*
X4498652Y-55893768D01*
X4306425Y-55973391D01*
X735000Y-55973391D01*
X735000Y-55072388D01*
X749399Y-55000000D01*
X692354Y-54713217D01*
X529905Y-54470095D01*
X286783Y-54307646D01*
X127000Y-54275863D01*
X127000Y-53354887D01*
X2385000Y-53354887D01*
X2385000Y-54045113D01*
X2649138Y-54682799D01*
X3137201Y-55170862D01*
X3774887Y-55435000D01*
X4465113Y-55435000D01*
X5102799Y-55170862D01*
X5590862Y-54682799D01*
X5855000Y-54045113D01*
X5855000Y-53354887D01*
X5590862Y-52717201D01*
X5102799Y-52229138D01*
X4465113Y-51965000D01*
X3774887Y-51965000D01*
X3137201Y-52229138D01*
X2649138Y-52717201D01*
X2385000Y-53354887D01*
X127000Y-53354887D01*
X127000Y-49354887D01*
X2385000Y-49354887D01*
X2385000Y-50045113D01*
X2649138Y-50682799D01*
X3137201Y-51170862D01*
X3774887Y-51435000D01*
X4465113Y-51435000D01*
X5102799Y-51170862D01*
X5590862Y-50682799D01*
X5855000Y-50045113D01*
X5855000Y-49354887D01*
X14385000Y-49354887D01*
X14385000Y-50045113D01*
X14649138Y-50682799D01*
X15137201Y-51170862D01*
X15774887Y-51435000D01*
X16465113Y-51435000D01*
X17102799Y-51170862D01*
X17590862Y-50682799D01*
X17855000Y-50045113D01*
X17855000Y-49354887D01*
X17590862Y-48717201D01*
X17157787Y-48284126D01*
X37085000Y-48284126D01*
X37085000Y-48695874D01*
X37242569Y-49076280D01*
X37533720Y-49367431D01*
X37914126Y-49525000D01*
X38325874Y-49525000D01*
X38706280Y-49367431D01*
X38834585Y-49239126D01*
X39060000Y-49239126D01*
X39060000Y-49650874D01*
X39217569Y-50031280D01*
X39508720Y-50322431D01*
X39889126Y-50480000D01*
X40300874Y-50480000D01*
X40681280Y-50322431D01*
X40972431Y-50031280D01*
X41130000Y-49650874D01*
X41130000Y-49239126D01*
X41119645Y-49214126D01*
X46680000Y-49214126D01*
X46680000Y-49625874D01*
X46837569Y-50006280D01*
X47128720Y-50297431D01*
X47509126Y-50455000D01*
X47920874Y-50455000D01*
X48301280Y-50297431D01*
X48337500Y-50261211D01*
X48398720Y-50322431D01*
X48779126Y-50480000D01*
X49190874Y-50480000D01*
X49571280Y-50322431D01*
X49620000Y-50273711D01*
X49668720Y-50322431D01*
X50049126Y-50480000D01*
X50460874Y-50480000D01*
X50841280Y-50322431D01*
X51132431Y-50031280D01*
X51290000Y-49650874D01*
X51290000Y-49239126D01*
X54275000Y-49239126D01*
X54275000Y-49650874D01*
X54432569Y-50031280D01*
X54723720Y-50322431D01*
X55104126Y-50480000D01*
X55515874Y-50480000D01*
X55896280Y-50322431D01*
X55945000Y-50273711D01*
X55993720Y-50322431D01*
X56374126Y-50480000D01*
X56785874Y-50480000D01*
X57166280Y-50322431D01*
X57227500Y-50261211D01*
X57288720Y-50322431D01*
X57669126Y-50480000D01*
X58080874Y-50480000D01*
X58461280Y-50322431D01*
X58752431Y-50031280D01*
X58910000Y-49650874D01*
X58910000Y-49239126D01*
X58752431Y-48858720D01*
X58461280Y-48567569D01*
X58080874Y-48410000D01*
X57669126Y-48410000D01*
X57288720Y-48567569D01*
X57227500Y-48628789D01*
X57166280Y-48567569D01*
X56785874Y-48410000D01*
X56374126Y-48410000D01*
X55993720Y-48567569D01*
X55945000Y-48616289D01*
X55896280Y-48567569D01*
X55515874Y-48410000D01*
X55104126Y-48410000D01*
X54723720Y-48567569D01*
X54432569Y-48858720D01*
X54275000Y-49239126D01*
X51290000Y-49239126D01*
X51132431Y-48858720D01*
X50841280Y-48567569D01*
X50460874Y-48410000D01*
X50049126Y-48410000D01*
X49668720Y-48567569D01*
X49620000Y-48616289D01*
X49571280Y-48567569D01*
X49190874Y-48410000D01*
X48779126Y-48410000D01*
X48398720Y-48567569D01*
X48362500Y-48603789D01*
X48301280Y-48542569D01*
X47920874Y-48385000D01*
X47509126Y-48385000D01*
X47128720Y-48542569D01*
X46837569Y-48833720D01*
X46680000Y-49214126D01*
X41119645Y-49214126D01*
X40972431Y-48858720D01*
X40681280Y-48567569D01*
X40300874Y-48410000D01*
X39889126Y-48410000D01*
X39508720Y-48567569D01*
X39217569Y-48858720D01*
X39060000Y-49239126D01*
X38834585Y-49239126D01*
X38997431Y-49076280D01*
X39155000Y-48695874D01*
X39155000Y-48284126D01*
X38997431Y-47903720D01*
X38706280Y-47612569D01*
X38325874Y-47455000D01*
X37914126Y-47455000D01*
X37533720Y-47612569D01*
X37242569Y-47903720D01*
X37085000Y-48284126D01*
X17157787Y-48284126D01*
X17102799Y-48229138D01*
X16465113Y-47965000D01*
X15774887Y-47965000D01*
X15137201Y-48229138D01*
X14649138Y-48717201D01*
X14385000Y-49354887D01*
X5855000Y-49354887D01*
X5590862Y-48717201D01*
X5102799Y-48229138D01*
X4465113Y-47965000D01*
X3774887Y-47965000D01*
X3137201Y-48229138D01*
X2649138Y-48717201D01*
X2385000Y-49354887D01*
X127000Y-49354887D01*
X127000Y-45786892D01*
X3200000Y-45786892D01*
X3200000Y-46113108D01*
X3324837Y-46414493D01*
X3555507Y-46645163D01*
X3856892Y-46770000D01*
X4183108Y-46770000D01*
X4484493Y-46645163D01*
X4605117Y-46524539D01*
X4600000Y-46536892D01*
X4600000Y-46863108D01*
X4724837Y-47164493D01*
X4955507Y-47395163D01*
X5256892Y-47520000D01*
X5583108Y-47520000D01*
X5884493Y-47395163D01*
X6115163Y-47164493D01*
X6240000Y-46863108D01*
X6240000Y-46536892D01*
X6115163Y-46235507D01*
X5884493Y-46004837D01*
X5583108Y-45880000D01*
X5256892Y-45880000D01*
X4955507Y-46004837D01*
X4834883Y-46125461D01*
X4840000Y-46113108D01*
X4840000Y-46013501D01*
X4941348Y-46006232D01*
X5133575Y-45926609D01*
X5130182Y-45786892D01*
X7000000Y-45786892D01*
X7000000Y-46113108D01*
X7124837Y-46414493D01*
X7355507Y-46645163D01*
X7656892Y-46770000D01*
X7983108Y-46770000D01*
X8284493Y-46645163D01*
X8405117Y-46524539D01*
X8400000Y-46536892D01*
X8400000Y-46863108D01*
X8524837Y-47164493D01*
X8755507Y-47395163D01*
X9056892Y-47520000D01*
X9383108Y-47520000D01*
X9684493Y-47395163D01*
X9915163Y-47164493D01*
X10040000Y-46863108D01*
X10040000Y-46536892D01*
X9915163Y-46235507D01*
X9684493Y-46004837D01*
X9383108Y-45880000D01*
X9056892Y-45880000D01*
X8755507Y-46004837D01*
X8634883Y-46125461D01*
X8640000Y-46113108D01*
X8640000Y-46013501D01*
X8741348Y-46006232D01*
X8933575Y-45926609D01*
X8929039Y-45739854D01*
X8520000Y-45330815D01*
X8481463Y-45369353D01*
X8350648Y-45238538D01*
X8389185Y-45200000D01*
X7980146Y-44790961D01*
X7793391Y-44786425D01*
X7690432Y-45095968D01*
X7692873Y-45130000D01*
X7656892Y-45130000D01*
X7355507Y-45254837D01*
X7124837Y-45485507D01*
X7000000Y-45786892D01*
X5130182Y-45786892D01*
X5129039Y-45739854D01*
X4720000Y-45330815D01*
X4681463Y-45369353D01*
X4550648Y-45238538D01*
X4589185Y-45200000D01*
X4180146Y-44790961D01*
X3993391Y-44786425D01*
X3890432Y-45095968D01*
X3892873Y-45130000D01*
X3856892Y-45130000D01*
X3555507Y-45254837D01*
X3324837Y-45485507D01*
X3200000Y-45786892D01*
X127000Y-45786892D01*
X127000Y-43536892D01*
X3200000Y-43536892D01*
X3200000Y-43863108D01*
X3324837Y-44164493D01*
X3555507Y-44395163D01*
X3856892Y-44520000D01*
X4183108Y-44520000D01*
X4484493Y-44395163D01*
X4605117Y-44274539D01*
X4600000Y-44286892D01*
X4600000Y-44386499D01*
X4498652Y-44393768D01*
X4306425Y-44473391D01*
X4310961Y-44660146D01*
X4720000Y-45069185D01*
X4758538Y-45030648D01*
X4889353Y-45161463D01*
X4850815Y-45200000D01*
X5259854Y-45609039D01*
X5446609Y-45613575D01*
X5549568Y-45304032D01*
X5547127Y-45270000D01*
X5583108Y-45270000D01*
X5884493Y-45145163D01*
X6115163Y-44914493D01*
X6240000Y-44613108D01*
X6240000Y-44286892D01*
X6115163Y-43985507D01*
X5884493Y-43754837D01*
X5583108Y-43630000D01*
X5256892Y-43630000D01*
X4955507Y-43754837D01*
X4834883Y-43875461D01*
X4840000Y-43863108D01*
X4840000Y-43763501D01*
X4941348Y-43756232D01*
X5133575Y-43676609D01*
X5130182Y-43536892D01*
X7000000Y-43536892D01*
X7000000Y-43863108D01*
X7124837Y-44164493D01*
X7355507Y-44395163D01*
X7656892Y-44520000D01*
X7983108Y-44520000D01*
X8284493Y-44395163D01*
X8405117Y-44274539D01*
X8400000Y-44286892D01*
X8400000Y-44386499D01*
X8298652Y-44393768D01*
X8106425Y-44473391D01*
X8110961Y-44660146D01*
X8520000Y-45069185D01*
X8558538Y-45030648D01*
X8689353Y-45161463D01*
X8650815Y-45200000D01*
X9059854Y-45609039D01*
X9246609Y-45613575D01*
X9349568Y-45304032D01*
X9347127Y-45270000D01*
X9383108Y-45270000D01*
X9684493Y-45145163D01*
X9915163Y-44914493D01*
X10040000Y-44613108D01*
X10040000Y-44286892D01*
X9915163Y-43985507D01*
X9684493Y-43754837D01*
X9383108Y-43630000D01*
X9056892Y-43630000D01*
X8755507Y-43754837D01*
X8634883Y-43875461D01*
X8640000Y-43863108D01*
X8640000Y-43763501D01*
X8741348Y-43756232D01*
X8933575Y-43676609D01*
X8929039Y-43489854D01*
X8520000Y-43080815D01*
X8481463Y-43119353D01*
X8350648Y-42988538D01*
X8389185Y-42950000D01*
X7980146Y-42540961D01*
X7793391Y-42536425D01*
X7690432Y-42845968D01*
X7692873Y-42880000D01*
X7656892Y-42880000D01*
X7355507Y-43004837D01*
X7124837Y-43235507D01*
X7000000Y-43536892D01*
X5130182Y-43536892D01*
X5129039Y-43489854D01*
X4720000Y-43080815D01*
X4681463Y-43119353D01*
X4550648Y-42988538D01*
X4589185Y-42950000D01*
X4180146Y-42540961D01*
X3993391Y-42536425D01*
X3890432Y-42845968D01*
X3892873Y-42880000D01*
X3856892Y-42880000D01*
X3555507Y-43004837D01*
X3324837Y-43235507D01*
X3200000Y-43536892D01*
X127000Y-43536892D01*
X127000Y-41286892D01*
X3200000Y-41286892D01*
X3200000Y-41613108D01*
X3324837Y-41914493D01*
X3555507Y-42145163D01*
X3856892Y-42270000D01*
X4183108Y-42270000D01*
X4388317Y-42185000D01*
X4399109Y-42185000D01*
X4306425Y-42223391D01*
X4310961Y-42410146D01*
X4720000Y-42819185D01*
X4758538Y-42780648D01*
X4889353Y-42911463D01*
X4850815Y-42950000D01*
X5259854Y-43359039D01*
X5446609Y-43363575D01*
X5549568Y-43054032D01*
X5547127Y-43020000D01*
X5583108Y-43020000D01*
X5884493Y-42895163D01*
X6115163Y-42664493D01*
X6240000Y-42363108D01*
X6240000Y-42036892D01*
X6225576Y-42002069D01*
X7041893Y-41185752D01*
X7000000Y-41286892D01*
X7000000Y-41613108D01*
X7124837Y-41914493D01*
X7355507Y-42145163D01*
X7656892Y-42270000D01*
X7983108Y-42270000D01*
X8284493Y-42145163D01*
X8405117Y-42024539D01*
X8400000Y-42036892D01*
X8400000Y-42136499D01*
X8298652Y-42143768D01*
X8106425Y-42223391D01*
X8110961Y-42410146D01*
X8520000Y-42819185D01*
X8558538Y-42780648D01*
X8689353Y-42911463D01*
X8650815Y-42950000D01*
X9059854Y-43359039D01*
X9246609Y-43363575D01*
X9349568Y-43054032D01*
X9347127Y-43020000D01*
X9383108Y-43020000D01*
X9684493Y-42895163D01*
X9915163Y-42664493D01*
X10040000Y-42363108D01*
X10040000Y-42036892D01*
X9915163Y-41735507D01*
X9684493Y-41504837D01*
X9383108Y-41380000D01*
X9056892Y-41380000D01*
X8755507Y-41504837D01*
X8634883Y-41625461D01*
X8640000Y-41613108D01*
X8640000Y-41513501D01*
X8741348Y-41506232D01*
X8933575Y-41426609D01*
X8929039Y-41239854D01*
X8520000Y-40830815D01*
X8481463Y-40869353D01*
X8350648Y-40738538D01*
X8389185Y-40700000D01*
X8350648Y-40661463D01*
X8481463Y-40530648D01*
X8520000Y-40569185D01*
X8558538Y-40530648D01*
X8689353Y-40661463D01*
X8650815Y-40700000D01*
X9059854Y-41109039D01*
X9246609Y-41113575D01*
X9349568Y-40804032D01*
X9326232Y-40478652D01*
X9246609Y-40286425D01*
X9109862Y-40289746D01*
X9114616Y-40284992D01*
X11725384Y-40284992D01*
X11730138Y-40289746D01*
X11593391Y-40286425D01*
X11490432Y-40595968D01*
X11492873Y-40630000D01*
X11456892Y-40630000D01*
X11155507Y-40754837D01*
X10924837Y-40985507D01*
X10800000Y-41286892D01*
X10800000Y-41613108D01*
X10924837Y-41914493D01*
X11155507Y-42145163D01*
X11456892Y-42270000D01*
X11783108Y-42270000D01*
X12084493Y-42145163D01*
X12205117Y-42024539D01*
X12200000Y-42036892D01*
X12200000Y-42136499D01*
X12098652Y-42143768D01*
X11906425Y-42223391D01*
X11910961Y-42410146D01*
X12320000Y-42819185D01*
X12358538Y-42780648D01*
X12489353Y-42911463D01*
X12450815Y-42950000D01*
X12859854Y-43359039D01*
X13046609Y-43363575D01*
X13149568Y-43054032D01*
X13147127Y-43020000D01*
X13183108Y-43020000D01*
X13484493Y-42895163D01*
X13715163Y-42664493D01*
X13840000Y-42363108D01*
X13840000Y-42036892D01*
X13715163Y-41735507D01*
X13484493Y-41504837D01*
X13183108Y-41380000D01*
X12856892Y-41380000D01*
X12555507Y-41504837D01*
X12434883Y-41625461D01*
X12440000Y-41613108D01*
X12440000Y-41513501D01*
X12541348Y-41506232D01*
X12733575Y-41426609D01*
X12729039Y-41239854D01*
X12320000Y-40830815D01*
X12281463Y-40869353D01*
X12150648Y-40738538D01*
X12189185Y-40700000D01*
X12150648Y-40661463D01*
X12281463Y-40530648D01*
X12320000Y-40569185D01*
X12358538Y-40530648D01*
X12489353Y-40661463D01*
X12450815Y-40700000D01*
X12859854Y-41109039D01*
X13046609Y-41113575D01*
X13149568Y-40804032D01*
X13126232Y-40478652D01*
X13046609Y-40286425D01*
X12909862Y-40289746D01*
X12914616Y-40284992D01*
X15525384Y-40284992D01*
X15530138Y-40289746D01*
X15393391Y-40286425D01*
X15290432Y-40595968D01*
X15292873Y-40630000D01*
X15256892Y-40630000D01*
X14955507Y-40754837D01*
X14724837Y-40985507D01*
X14600000Y-41286892D01*
X14600000Y-41613108D01*
X14724837Y-41914493D01*
X14955507Y-42145163D01*
X15256892Y-42270000D01*
X15583108Y-42270000D01*
X15884493Y-42145163D01*
X16005117Y-42024539D01*
X16000000Y-42036892D01*
X16000000Y-42136499D01*
X15898652Y-42143768D01*
X15706425Y-42223391D01*
X15710961Y-42410146D01*
X16120000Y-42819185D01*
X16158538Y-42780648D01*
X16289353Y-42911463D01*
X16250815Y-42950000D01*
X16265815Y-42965000D01*
X15974185Y-42965000D01*
X15989185Y-42950000D01*
X15580146Y-42540961D01*
X15393391Y-42536425D01*
X15290432Y-42845968D01*
X15292873Y-42880000D01*
X15256892Y-42880000D01*
X14955507Y-43004837D01*
X14724837Y-43235507D01*
X14600000Y-43536892D01*
X14600000Y-43863108D01*
X14724837Y-44164493D01*
X14955507Y-44395163D01*
X15256892Y-44520000D01*
X15583108Y-44520000D01*
X15788317Y-44435000D01*
X15799109Y-44435000D01*
X15706425Y-44473391D01*
X15710961Y-44660146D01*
X16120000Y-45069185D01*
X16158538Y-45030648D01*
X16289353Y-45161463D01*
X16250815Y-45200000D01*
X16289353Y-45238538D01*
X16158538Y-45369353D01*
X16120000Y-45330815D01*
X16081463Y-45369353D01*
X15950648Y-45238538D01*
X15989185Y-45200000D01*
X15580146Y-44790961D01*
X15393391Y-44786425D01*
X15290432Y-45095968D01*
X15292873Y-45130000D01*
X15256892Y-45130000D01*
X14955507Y-45254837D01*
X14903094Y-45307250D01*
X13809782Y-44213939D01*
X13715163Y-43985507D01*
X13484493Y-43754837D01*
X13183108Y-43630000D01*
X12856892Y-43630000D01*
X12667779Y-43708333D01*
X12664618Y-43705172D01*
X12733575Y-43676609D01*
X12729039Y-43489854D01*
X12320000Y-43080815D01*
X12281463Y-43119353D01*
X12150648Y-42988538D01*
X12189185Y-42950000D01*
X11780146Y-42540961D01*
X11593391Y-42536425D01*
X11490432Y-42845968D01*
X11492873Y-42880000D01*
X11456892Y-42880000D01*
X11155507Y-43004837D01*
X10924837Y-43235507D01*
X10800000Y-43536892D01*
X10800000Y-43863108D01*
X10924837Y-44164493D01*
X11155507Y-44395163D01*
X11360717Y-44480163D01*
X11668810Y-44788257D01*
X11593391Y-44786425D01*
X11490432Y-45095968D01*
X11492873Y-45130000D01*
X11456892Y-45130000D01*
X11155507Y-45254837D01*
X10924837Y-45485507D01*
X10800000Y-45786892D01*
X10800000Y-46113108D01*
X10924837Y-46414493D01*
X11155507Y-46645163D01*
X11456892Y-46770000D01*
X11783108Y-46770000D01*
X12084493Y-46645163D01*
X12205117Y-46524539D01*
X12200000Y-46536892D01*
X12200000Y-46863108D01*
X12324837Y-47164493D01*
X12555507Y-47395163D01*
X12856892Y-47520000D01*
X13183108Y-47520000D01*
X13484493Y-47395163D01*
X13715163Y-47164493D01*
X13811783Y-46931230D01*
X14534091Y-47653538D01*
X14575096Y-47714906D01*
X14818218Y-47877355D01*
X15032613Y-47920001D01*
X15105001Y-47934400D01*
X15177389Y-47920001D01*
X16980417Y-47920001D01*
X17052801Y-47934399D01*
X17125185Y-47920001D01*
X17125189Y-47920001D01*
X17339584Y-47877355D01*
X17582706Y-47714906D01*
X17619393Y-47660000D01*
X37022616Y-47660000D01*
X37095000Y-47674398D01*
X37167384Y-47660000D01*
X37167388Y-47660000D01*
X37381783Y-47617354D01*
X37624905Y-47454905D01*
X37665911Y-47393535D01*
X40884341Y-44175105D01*
X59430000Y-44175105D01*
X59430000Y-44944895D01*
X59724586Y-45656090D01*
X60268910Y-46200414D01*
X60980105Y-46495000D01*
X61749895Y-46495000D01*
X62461090Y-46200414D01*
X63005414Y-45656090D01*
X63300000Y-44944895D01*
X63300000Y-44175105D01*
X63005414Y-43463910D01*
X62461090Y-42919586D01*
X61749895Y-42625000D01*
X60980105Y-42625000D01*
X60268910Y-42919586D01*
X59724586Y-43463910D01*
X59430000Y-44175105D01*
X40884341Y-44175105D01*
X43849501Y-41209946D01*
X43970212Y-41159946D01*
X44191036Y-40939122D01*
X44240267Y-40820267D01*
X44359122Y-40771036D01*
X44579946Y-40550212D01*
X44699455Y-40261691D01*
X44699455Y-40060000D01*
X45255824Y-40060000D01*
X45140545Y-40338309D01*
X45140545Y-40650601D01*
X45260054Y-40939122D01*
X45480878Y-41159946D01*
X45769399Y-41279455D01*
X46081691Y-41279455D01*
X46370212Y-41159946D01*
X46591036Y-40939122D01*
X46640267Y-40820267D01*
X46759122Y-40771036D01*
X46979946Y-40550212D01*
X47099455Y-40261691D01*
X47099455Y-40060000D01*
X47655824Y-40060000D01*
X47540545Y-40338309D01*
X47540545Y-40650601D01*
X47660054Y-40939122D01*
X47880878Y-41159946D01*
X48169399Y-41279455D01*
X48481691Y-41279455D01*
X48770212Y-41159946D01*
X48991036Y-40939122D01*
X49040267Y-40820267D01*
X49159122Y-40771036D01*
X49379946Y-40550212D01*
X49499455Y-40261691D01*
X49499455Y-40237100D01*
X49960054Y-40697700D01*
X50060054Y-40939122D01*
X50280878Y-41159946D01*
X50569399Y-41279455D01*
X50881691Y-41279455D01*
X51170212Y-41159946D01*
X51391036Y-40939122D01*
X51440267Y-40820267D01*
X51559122Y-40771036D01*
X51779946Y-40550212D01*
X51867718Y-40338309D01*
X52340545Y-40338309D01*
X52340545Y-40650601D01*
X52460054Y-40939122D01*
X52680878Y-41159946D01*
X52969399Y-41279455D01*
X53281691Y-41279455D01*
X53570212Y-41159946D01*
X53791036Y-40939122D01*
X53840267Y-40820267D01*
X53959122Y-40771036D01*
X54179946Y-40550212D01*
X54299455Y-40261691D01*
X54299455Y-39949399D01*
X54179946Y-39660878D01*
X53959122Y-39440054D01*
X53670601Y-39320545D01*
X53358309Y-39320545D01*
X53069788Y-39440054D01*
X52848964Y-39660878D01*
X52799733Y-39779733D01*
X52680878Y-39828964D01*
X52460054Y-40049788D01*
X52340545Y-40338309D01*
X51867718Y-40338309D01*
X51899455Y-40261691D01*
X51899455Y-39949399D01*
X51779946Y-39660878D01*
X51559122Y-39440054D01*
X51317700Y-39340054D01*
X50384110Y-38406465D01*
X50343104Y-38345095D01*
X50099982Y-38182646D01*
X49885587Y-38140000D01*
X49885583Y-38140000D01*
X49813199Y-38125602D01*
X49740815Y-38140000D01*
X17815697Y-38140000D01*
X17855000Y-38045113D01*
X17855000Y-37354887D01*
X17590862Y-36717201D01*
X17102799Y-36229138D01*
X16465113Y-35965000D01*
X15774887Y-35965000D01*
X15137201Y-36229138D01*
X14649138Y-36717201D01*
X14385000Y-37354887D01*
X14385000Y-38045113D01*
X14517502Y-38365001D01*
X7524183Y-38365001D01*
X7451799Y-38350603D01*
X7379415Y-38365001D01*
X7379412Y-38365001D01*
X7165017Y-38407647D01*
X6921895Y-38570096D01*
X6880891Y-38631464D01*
X4797355Y-40715000D01*
X4574185Y-40715000D01*
X4589185Y-40700000D01*
X4180146Y-40290961D01*
X3993391Y-40286425D01*
X3890432Y-40595968D01*
X3892873Y-40630000D01*
X3856892Y-40630000D01*
X3555507Y-40754837D01*
X3324837Y-40985507D01*
X3200000Y-41286892D01*
X127000Y-41286892D01*
X127000Y-39973391D01*
X4306425Y-39973391D01*
X4310961Y-40160146D01*
X4720000Y-40569185D01*
X5129039Y-40160146D01*
X5133575Y-39973391D01*
X4824032Y-39870432D01*
X4498652Y-39893768D01*
X4306425Y-39973391D01*
X127000Y-39973391D01*
X127000Y-37354887D01*
X2385000Y-37354887D01*
X2385000Y-38045113D01*
X2649138Y-38682799D01*
X3137201Y-39170862D01*
X3774887Y-39435000D01*
X4465113Y-39435000D01*
X5102799Y-39170862D01*
X5590862Y-38682799D01*
X5855000Y-38045113D01*
X5855000Y-37354887D01*
X5590862Y-36717201D01*
X5102799Y-36229138D01*
X4465113Y-35965000D01*
X3774887Y-35965000D01*
X3137201Y-36229138D01*
X2649138Y-36717201D01*
X2385000Y-37354887D01*
X127000Y-37354887D01*
X127000Y-33354887D01*
X2385000Y-33354887D01*
X2385000Y-34045113D01*
X2649138Y-34682799D01*
X3137201Y-35170862D01*
X3774887Y-35435000D01*
X4465113Y-35435000D01*
X5102799Y-35170862D01*
X5590862Y-34682799D01*
X5855000Y-34045113D01*
X5855000Y-33354887D01*
X14385000Y-33354887D01*
X14385000Y-34045113D01*
X14649138Y-34682799D01*
X15137201Y-35170862D01*
X15774887Y-35435000D01*
X16465113Y-35435000D01*
X17102799Y-35170862D01*
X17590862Y-34682799D01*
X17855000Y-34045113D01*
X17855000Y-33354887D01*
X17590862Y-32717201D01*
X17157787Y-32284126D01*
X37085000Y-32284126D01*
X37085000Y-32695874D01*
X37242569Y-33076280D01*
X37533720Y-33367431D01*
X37914126Y-33525000D01*
X38325874Y-33525000D01*
X38706280Y-33367431D01*
X38834585Y-33239126D01*
X39060000Y-33239126D01*
X39060000Y-33650874D01*
X39217569Y-34031280D01*
X39508720Y-34322431D01*
X39889126Y-34480000D01*
X40300874Y-34480000D01*
X40681280Y-34322431D01*
X40972431Y-34031280D01*
X41130000Y-33650874D01*
X41130000Y-33239126D01*
X41119645Y-33214126D01*
X46680000Y-33214126D01*
X46680000Y-33625874D01*
X46837569Y-34006280D01*
X47128720Y-34297431D01*
X47509126Y-34455000D01*
X47920874Y-34455000D01*
X48301280Y-34297431D01*
X48337500Y-34261211D01*
X48398720Y-34322431D01*
X48779126Y-34480000D01*
X49190874Y-34480000D01*
X49571280Y-34322431D01*
X49620000Y-34273711D01*
X49668720Y-34322431D01*
X50049126Y-34480000D01*
X50460874Y-34480000D01*
X50841280Y-34322431D01*
X51132431Y-34031280D01*
X51290000Y-33650874D01*
X51290000Y-33239126D01*
X54275000Y-33239126D01*
X54275000Y-33650874D01*
X54432569Y-34031280D01*
X54723720Y-34322431D01*
X55104126Y-34480000D01*
X55515874Y-34480000D01*
X55896280Y-34322431D01*
X55945000Y-34273711D01*
X55993720Y-34322431D01*
X56374126Y-34480000D01*
X56785874Y-34480000D01*
X57166280Y-34322431D01*
X57227500Y-34261211D01*
X57288720Y-34322431D01*
X57669126Y-34480000D01*
X58080874Y-34480000D01*
X58461280Y-34322431D01*
X58752431Y-34031280D01*
X58910000Y-33650874D01*
X58910000Y-33239126D01*
X58752431Y-32858720D01*
X58461280Y-32567569D01*
X58080874Y-32410000D01*
X57669126Y-32410000D01*
X57288720Y-32567569D01*
X57227500Y-32628789D01*
X57166280Y-32567569D01*
X56785874Y-32410000D01*
X56374126Y-32410000D01*
X55993720Y-32567569D01*
X55945000Y-32616289D01*
X55896280Y-32567569D01*
X55515874Y-32410000D01*
X55104126Y-32410000D01*
X54723720Y-32567569D01*
X54432569Y-32858720D01*
X54275000Y-33239126D01*
X51290000Y-33239126D01*
X51132431Y-32858720D01*
X50841280Y-32567569D01*
X50460874Y-32410000D01*
X50049126Y-32410000D01*
X49668720Y-32567569D01*
X49620000Y-32616289D01*
X49571280Y-32567569D01*
X49190874Y-32410000D01*
X48779126Y-32410000D01*
X48398720Y-32567569D01*
X48362500Y-32603789D01*
X48301280Y-32542569D01*
X47920874Y-32385000D01*
X47509126Y-32385000D01*
X47128720Y-32542569D01*
X46837569Y-32833720D01*
X46680000Y-33214126D01*
X41119645Y-33214126D01*
X40972431Y-32858720D01*
X40681280Y-32567569D01*
X40300874Y-32410000D01*
X39889126Y-32410000D01*
X39508720Y-32567569D01*
X39217569Y-32858720D01*
X39060000Y-33239126D01*
X38834585Y-33239126D01*
X38997431Y-33076280D01*
X39155000Y-32695874D01*
X39155000Y-32284126D01*
X38997431Y-31903720D01*
X38706280Y-31612569D01*
X38325874Y-31455000D01*
X37914126Y-31455000D01*
X37533720Y-31612569D01*
X37242569Y-31903720D01*
X37085000Y-32284126D01*
X17157787Y-32284126D01*
X17102799Y-32229138D01*
X16465113Y-31965000D01*
X15774887Y-31965000D01*
X15137201Y-32229138D01*
X14649138Y-32717201D01*
X14385000Y-33354887D01*
X5855000Y-33354887D01*
X5590862Y-32717201D01*
X5102799Y-32229138D01*
X4465113Y-31965000D01*
X3774887Y-31965000D01*
X3137201Y-32229138D01*
X2649138Y-32717201D01*
X2385000Y-33354887D01*
X127000Y-33354887D01*
X127000Y-29786892D01*
X3200000Y-29786892D01*
X3200000Y-30113108D01*
X3324837Y-30414493D01*
X3555507Y-30645163D01*
X3856892Y-30770000D01*
X4183108Y-30770000D01*
X4484493Y-30645163D01*
X4605117Y-30524539D01*
X4600000Y-30536892D01*
X4600000Y-30863108D01*
X4724837Y-31164493D01*
X4955507Y-31395163D01*
X5256892Y-31520000D01*
X5583108Y-31520000D01*
X5884493Y-31395163D01*
X6115163Y-31164493D01*
X6240000Y-30863108D01*
X6240000Y-30536892D01*
X6115163Y-30235507D01*
X5884493Y-30004837D01*
X5583108Y-29880000D01*
X5256892Y-29880000D01*
X4955507Y-30004837D01*
X4834883Y-30125461D01*
X4840000Y-30113108D01*
X4840000Y-30013501D01*
X4941348Y-30006232D01*
X5133575Y-29926609D01*
X5130182Y-29786892D01*
X7000000Y-29786892D01*
X7000000Y-30113108D01*
X7124837Y-30414493D01*
X7355507Y-30645163D01*
X7656892Y-30770000D01*
X7983108Y-30770000D01*
X8284493Y-30645163D01*
X8405117Y-30524539D01*
X8400000Y-30536892D01*
X8400000Y-30863108D01*
X8524837Y-31164493D01*
X8755507Y-31395163D01*
X9056892Y-31520000D01*
X9383108Y-31520000D01*
X9684493Y-31395163D01*
X9915163Y-31164493D01*
X10040000Y-30863108D01*
X10040000Y-30536892D01*
X9915163Y-30235507D01*
X9684493Y-30004837D01*
X9383108Y-29880000D01*
X9056892Y-29880000D01*
X8755507Y-30004837D01*
X8634883Y-30125461D01*
X8640000Y-30113108D01*
X8640000Y-30013501D01*
X8741348Y-30006232D01*
X8933575Y-29926609D01*
X8929039Y-29739854D01*
X8520000Y-29330815D01*
X8481463Y-29369353D01*
X8350648Y-29238538D01*
X8389185Y-29200000D01*
X7980146Y-28790961D01*
X7793391Y-28786425D01*
X7690432Y-29095968D01*
X7692873Y-29130000D01*
X7656892Y-29130000D01*
X7355507Y-29254837D01*
X7124837Y-29485507D01*
X7000000Y-29786892D01*
X5130182Y-29786892D01*
X5129039Y-29739854D01*
X4720000Y-29330815D01*
X4681463Y-29369353D01*
X4550648Y-29238538D01*
X4589185Y-29200000D01*
X4180146Y-28790961D01*
X3993391Y-28786425D01*
X3890432Y-29095968D01*
X3892873Y-29130000D01*
X3856892Y-29130000D01*
X3555507Y-29254837D01*
X3324837Y-29485507D01*
X3200000Y-29786892D01*
X127000Y-29786892D01*
X127000Y-27536892D01*
X3200000Y-27536892D01*
X3200000Y-27863108D01*
X3324837Y-28164493D01*
X3555507Y-28395163D01*
X3856892Y-28520000D01*
X4183108Y-28520000D01*
X4484493Y-28395163D01*
X4605117Y-28274539D01*
X4600000Y-28286892D01*
X4600000Y-28386499D01*
X4498652Y-28393768D01*
X4306425Y-28473391D01*
X4310961Y-28660146D01*
X4720000Y-29069185D01*
X4758538Y-29030648D01*
X4889353Y-29161463D01*
X4850815Y-29200000D01*
X5259854Y-29609039D01*
X5446609Y-29613575D01*
X5549568Y-29304032D01*
X5547127Y-29270000D01*
X5583108Y-29270000D01*
X5884493Y-29145163D01*
X6115163Y-28914493D01*
X6240000Y-28613108D01*
X6240000Y-28286892D01*
X6115163Y-27985507D01*
X5884493Y-27754837D01*
X5583108Y-27630000D01*
X5256892Y-27630000D01*
X4955507Y-27754837D01*
X4834883Y-27875461D01*
X4840000Y-27863108D01*
X4840000Y-27763501D01*
X4941348Y-27756232D01*
X5133575Y-27676609D01*
X5130182Y-27536892D01*
X7000000Y-27536892D01*
X7000000Y-27863108D01*
X7124837Y-28164493D01*
X7355507Y-28395163D01*
X7656892Y-28520000D01*
X7983108Y-28520000D01*
X8284493Y-28395163D01*
X8405117Y-28274539D01*
X8400000Y-28286892D01*
X8400000Y-28386499D01*
X8298652Y-28393768D01*
X8106425Y-28473391D01*
X8110961Y-28660146D01*
X8520000Y-29069185D01*
X8558538Y-29030648D01*
X8689353Y-29161463D01*
X8650815Y-29200000D01*
X9059854Y-29609039D01*
X9246609Y-29613575D01*
X9349568Y-29304032D01*
X9347127Y-29270000D01*
X9383108Y-29270000D01*
X9684493Y-29145163D01*
X9915163Y-28914493D01*
X10040000Y-28613108D01*
X10040000Y-28286892D01*
X9915163Y-27985507D01*
X9684493Y-27754837D01*
X9383108Y-27630000D01*
X9056892Y-27630000D01*
X8755507Y-27754837D01*
X8634883Y-27875461D01*
X8640000Y-27863108D01*
X8640000Y-27763501D01*
X8741348Y-27756232D01*
X8933575Y-27676609D01*
X8929039Y-27489854D01*
X8520000Y-27080815D01*
X8481463Y-27119353D01*
X8350648Y-26988538D01*
X8389185Y-26950000D01*
X7980146Y-26540961D01*
X7793391Y-26536425D01*
X7690432Y-26845968D01*
X7692873Y-26880000D01*
X7656892Y-26880000D01*
X7355507Y-27004837D01*
X7124837Y-27235507D01*
X7000000Y-27536892D01*
X5130182Y-27536892D01*
X5129039Y-27489854D01*
X4720000Y-27080815D01*
X4681463Y-27119353D01*
X4550648Y-26988538D01*
X4589185Y-26950000D01*
X4180146Y-26540961D01*
X3993391Y-26536425D01*
X3890432Y-26845968D01*
X3892873Y-26880000D01*
X3856892Y-26880000D01*
X3555507Y-27004837D01*
X3324837Y-27235507D01*
X3200000Y-27536892D01*
X127000Y-27536892D01*
X127000Y-25286892D01*
X3200000Y-25286892D01*
X3200000Y-25613108D01*
X3324837Y-25914493D01*
X3555507Y-26145163D01*
X3856892Y-26270000D01*
X4183108Y-26270000D01*
X4388317Y-26185000D01*
X4399109Y-26185000D01*
X4306425Y-26223391D01*
X4310961Y-26410146D01*
X4720000Y-26819185D01*
X4758538Y-26780648D01*
X4889353Y-26911463D01*
X4850815Y-26950000D01*
X5259854Y-27359039D01*
X5446609Y-27363575D01*
X5549568Y-27054032D01*
X5547127Y-27020000D01*
X5583108Y-27020000D01*
X5884493Y-26895163D01*
X6115163Y-26664493D01*
X6240000Y-26363108D01*
X6240000Y-26036892D01*
X6225576Y-26002069D01*
X7041893Y-25185752D01*
X7000000Y-25286892D01*
X7000000Y-25613108D01*
X7124837Y-25914493D01*
X7355507Y-26145163D01*
X7656892Y-26270000D01*
X7983108Y-26270000D01*
X8284493Y-26145163D01*
X8405117Y-26024539D01*
X8400000Y-26036892D01*
X8400000Y-26136499D01*
X8298652Y-26143768D01*
X8106425Y-26223391D01*
X8110961Y-26410146D01*
X8520000Y-26819185D01*
X8558538Y-26780648D01*
X8689353Y-26911463D01*
X8650815Y-26950000D01*
X9059854Y-27359039D01*
X9246609Y-27363575D01*
X9349568Y-27054032D01*
X9347127Y-27020000D01*
X9383108Y-27020000D01*
X9684493Y-26895163D01*
X9915163Y-26664493D01*
X10040000Y-26363108D01*
X10040000Y-26036892D01*
X9915163Y-25735507D01*
X9684493Y-25504837D01*
X9383108Y-25380000D01*
X9056892Y-25380000D01*
X8755507Y-25504837D01*
X8634883Y-25625461D01*
X8640000Y-25613108D01*
X8640000Y-25513501D01*
X8741348Y-25506232D01*
X8933575Y-25426609D01*
X8929039Y-25239854D01*
X8520000Y-24830815D01*
X8481463Y-24869353D01*
X8350648Y-24738538D01*
X8389185Y-24700000D01*
X8350648Y-24661463D01*
X8481463Y-24530648D01*
X8520000Y-24569185D01*
X8558538Y-24530648D01*
X8689353Y-24661463D01*
X8650815Y-24700000D01*
X9059854Y-25109039D01*
X9246609Y-25113575D01*
X9349568Y-24804032D01*
X9326232Y-24478652D01*
X9246609Y-24286425D01*
X9109862Y-24289746D01*
X9114616Y-24284992D01*
X11725384Y-24284992D01*
X11730138Y-24289746D01*
X11593391Y-24286425D01*
X11490432Y-24595968D01*
X11492873Y-24630000D01*
X11456892Y-24630000D01*
X11155507Y-24754837D01*
X10924837Y-24985507D01*
X10800000Y-25286892D01*
X10800000Y-25613108D01*
X10924837Y-25914493D01*
X11155507Y-26145163D01*
X11456892Y-26270000D01*
X11783108Y-26270000D01*
X12084493Y-26145163D01*
X12205117Y-26024539D01*
X12200000Y-26036892D01*
X12200000Y-26136499D01*
X12098652Y-26143768D01*
X11906425Y-26223391D01*
X11910961Y-26410146D01*
X12320000Y-26819185D01*
X12358538Y-26780648D01*
X12489353Y-26911463D01*
X12450815Y-26950000D01*
X12859854Y-27359039D01*
X13046609Y-27363575D01*
X13149568Y-27054032D01*
X13147127Y-27020000D01*
X13183108Y-27020000D01*
X13484493Y-26895163D01*
X13715163Y-26664493D01*
X13840000Y-26363108D01*
X13840000Y-26036892D01*
X13715163Y-25735507D01*
X13484493Y-25504837D01*
X13183108Y-25380000D01*
X12856892Y-25380000D01*
X12555507Y-25504837D01*
X12434883Y-25625461D01*
X12440000Y-25613108D01*
X12440000Y-25513501D01*
X12541348Y-25506232D01*
X12733575Y-25426609D01*
X12729039Y-25239854D01*
X12320000Y-24830815D01*
X12281463Y-24869353D01*
X12150648Y-24738538D01*
X12189185Y-24700000D01*
X12150648Y-24661463D01*
X12281463Y-24530648D01*
X12320000Y-24569185D01*
X12358538Y-24530648D01*
X12489353Y-24661463D01*
X12450815Y-24700000D01*
X12859854Y-25109039D01*
X13046609Y-25113575D01*
X13149568Y-24804032D01*
X13126232Y-24478652D01*
X13046609Y-24286425D01*
X12909862Y-24289746D01*
X12914616Y-24284992D01*
X15525384Y-24284992D01*
X15530138Y-24289746D01*
X15393391Y-24286425D01*
X15290432Y-24595968D01*
X15292873Y-24630000D01*
X15256892Y-24630000D01*
X14955507Y-24754837D01*
X14724837Y-24985507D01*
X14600000Y-25286892D01*
X14600000Y-25613108D01*
X14724837Y-25914493D01*
X14955507Y-26145163D01*
X15256892Y-26270000D01*
X15583108Y-26270000D01*
X15884493Y-26145163D01*
X16005117Y-26024539D01*
X16000000Y-26036892D01*
X16000000Y-26136499D01*
X15898652Y-26143768D01*
X15706425Y-26223391D01*
X15710961Y-26410146D01*
X16120000Y-26819185D01*
X16158538Y-26780648D01*
X16289353Y-26911463D01*
X16250815Y-26950000D01*
X16265815Y-26965000D01*
X15974185Y-26965000D01*
X15989185Y-26950000D01*
X15580146Y-26540961D01*
X15393391Y-26536425D01*
X15290432Y-26845968D01*
X15292873Y-26880000D01*
X15256892Y-26880000D01*
X14955507Y-27004837D01*
X14724837Y-27235507D01*
X14600000Y-27536892D01*
X14600000Y-27863108D01*
X14724837Y-28164493D01*
X14955507Y-28395163D01*
X15256892Y-28520000D01*
X15583108Y-28520000D01*
X15788317Y-28435000D01*
X15799109Y-28435000D01*
X15706425Y-28473391D01*
X15710961Y-28660146D01*
X16120000Y-29069185D01*
X16158538Y-29030648D01*
X16289353Y-29161463D01*
X16250815Y-29200000D01*
X16289353Y-29238538D01*
X16158538Y-29369353D01*
X16120000Y-29330815D01*
X16081463Y-29369353D01*
X15950648Y-29238538D01*
X15989185Y-29200000D01*
X15580146Y-28790961D01*
X15393391Y-28786425D01*
X15290432Y-29095968D01*
X15292873Y-29130000D01*
X15256892Y-29130000D01*
X14955507Y-29254837D01*
X14903094Y-29307250D01*
X13809782Y-28213939D01*
X13715163Y-27985507D01*
X13484493Y-27754837D01*
X13183108Y-27630000D01*
X12856892Y-27630000D01*
X12667779Y-27708333D01*
X12664618Y-27705172D01*
X12733575Y-27676609D01*
X12729039Y-27489854D01*
X12320000Y-27080815D01*
X12281463Y-27119353D01*
X12150648Y-26988538D01*
X12189185Y-26950000D01*
X11780146Y-26540961D01*
X11593391Y-26536425D01*
X11490432Y-26845968D01*
X11492873Y-26880000D01*
X11456892Y-26880000D01*
X11155507Y-27004837D01*
X10924837Y-27235507D01*
X10800000Y-27536892D01*
X10800000Y-27863108D01*
X10924837Y-28164493D01*
X11155507Y-28395163D01*
X11360717Y-28480163D01*
X11668810Y-28788257D01*
X11593391Y-28786425D01*
X11490432Y-29095968D01*
X11492873Y-29130000D01*
X11456892Y-29130000D01*
X11155507Y-29254837D01*
X10924837Y-29485507D01*
X10800000Y-29786892D01*
X10800000Y-30113108D01*
X10924837Y-30414493D01*
X11155507Y-30645163D01*
X11456892Y-30770000D01*
X11783108Y-30770000D01*
X12084493Y-30645163D01*
X12205117Y-30524539D01*
X12200000Y-30536892D01*
X12200000Y-30863108D01*
X12324837Y-31164493D01*
X12555507Y-31395163D01*
X12856892Y-31520000D01*
X13183108Y-31520000D01*
X13484493Y-31395163D01*
X13715163Y-31164493D01*
X13811783Y-30931230D01*
X14534091Y-31653538D01*
X14575096Y-31714906D01*
X14818218Y-31877355D01*
X15032613Y-31920001D01*
X15105001Y-31934400D01*
X15177389Y-31920001D01*
X16980417Y-31920001D01*
X17052801Y-31934399D01*
X17125185Y-31920001D01*
X17125189Y-31920001D01*
X17339584Y-31877355D01*
X17582706Y-31714906D01*
X17619393Y-31660000D01*
X37022616Y-31660000D01*
X37095000Y-31674398D01*
X37167384Y-31660000D01*
X37167388Y-31660000D01*
X37381783Y-31617354D01*
X37624905Y-31454905D01*
X37665911Y-31393535D01*
X40884341Y-28175105D01*
X59430000Y-28175105D01*
X59430000Y-28944895D01*
X59724586Y-29656090D01*
X60268910Y-30200414D01*
X60980105Y-30495000D01*
X61749895Y-30495000D01*
X62461090Y-30200414D01*
X63005414Y-29656090D01*
X63300000Y-28944895D01*
X63300000Y-28175105D01*
X63005414Y-27463910D01*
X62461090Y-26919586D01*
X61749895Y-26625000D01*
X60980105Y-26625000D01*
X60268910Y-26919586D01*
X59724586Y-27463910D01*
X59430000Y-28175105D01*
X40884341Y-28175105D01*
X43849501Y-25209946D01*
X43970212Y-25159946D01*
X44191036Y-24939122D01*
X44240267Y-24820267D01*
X44359122Y-24771036D01*
X44579946Y-24550212D01*
X44699455Y-24261691D01*
X44699455Y-24060000D01*
X45255824Y-24060000D01*
X45140545Y-24338309D01*
X45140545Y-24650601D01*
X45260054Y-24939122D01*
X45480878Y-25159946D01*
X45769399Y-25279455D01*
X46081691Y-25279455D01*
X46370212Y-25159946D01*
X46591036Y-24939122D01*
X46640267Y-24820267D01*
X46759122Y-24771036D01*
X46979946Y-24550212D01*
X47099455Y-24261691D01*
X47099455Y-24060000D01*
X47655824Y-24060000D01*
X47540545Y-24338309D01*
X47540545Y-24650601D01*
X47660054Y-24939122D01*
X47880878Y-25159946D01*
X48169399Y-25279455D01*
X48481691Y-25279455D01*
X48770212Y-25159946D01*
X48991036Y-24939122D01*
X49040267Y-24820267D01*
X49159122Y-24771036D01*
X49379946Y-24550212D01*
X49499455Y-24261691D01*
X49499455Y-24237100D01*
X49960054Y-24697700D01*
X50060054Y-24939122D01*
X50280878Y-25159946D01*
X50569399Y-25279455D01*
X50881691Y-25279455D01*
X51170212Y-25159946D01*
X51391036Y-24939122D01*
X51440267Y-24820267D01*
X51559122Y-24771036D01*
X51779946Y-24550212D01*
X51867718Y-24338309D01*
X52340545Y-24338309D01*
X52340545Y-24650601D01*
X52460054Y-24939122D01*
X52680878Y-25159946D01*
X52969399Y-25279455D01*
X53281691Y-25279455D01*
X53570212Y-25159946D01*
X53791036Y-24939122D01*
X53840267Y-24820267D01*
X53959122Y-24771036D01*
X54179946Y-24550212D01*
X54299455Y-24261691D01*
X54299455Y-23949399D01*
X54179946Y-23660878D01*
X53959122Y-23440054D01*
X53670601Y-23320545D01*
X53358309Y-23320545D01*
X53069788Y-23440054D01*
X52848964Y-23660878D01*
X52799733Y-23779733D01*
X52680878Y-23828964D01*
X52460054Y-24049788D01*
X52340545Y-24338309D01*
X51867718Y-24338309D01*
X51899455Y-24261691D01*
X51899455Y-23949399D01*
X51779946Y-23660878D01*
X51559122Y-23440054D01*
X51317700Y-23340054D01*
X50384110Y-22406465D01*
X50343104Y-22345095D01*
X50099982Y-22182646D01*
X49885587Y-22140000D01*
X49885583Y-22140000D01*
X49813199Y-22125602D01*
X49740815Y-22140000D01*
X17815697Y-22140000D01*
X17855000Y-22045113D01*
X17855000Y-21354887D01*
X17590862Y-20717201D01*
X17102799Y-20229138D01*
X16465113Y-19965000D01*
X15774887Y-19965000D01*
X15137201Y-20229138D01*
X14649138Y-20717201D01*
X14385000Y-21354887D01*
X14385000Y-22045113D01*
X14517502Y-22365001D01*
X7524183Y-22365001D01*
X7451799Y-22350603D01*
X7379415Y-22365001D01*
X7379412Y-22365001D01*
X7165017Y-22407647D01*
X6921895Y-22570096D01*
X6880891Y-22631464D01*
X4797355Y-24715000D01*
X4574185Y-24715000D01*
X4589185Y-24700000D01*
X4180146Y-24290961D01*
X3993391Y-24286425D01*
X3890432Y-24595968D01*
X3892873Y-24630000D01*
X3856892Y-24630000D01*
X3555507Y-24754837D01*
X3324837Y-24985507D01*
X3200000Y-25286892D01*
X127000Y-25286892D01*
X127000Y-23973391D01*
X4306425Y-23973391D01*
X4310961Y-24160146D01*
X4720000Y-24569185D01*
X5129039Y-24160146D01*
X5133575Y-23973391D01*
X4824032Y-23870432D01*
X4498652Y-23893768D01*
X4306425Y-23973391D01*
X127000Y-23973391D01*
X127000Y-21354887D01*
X2385000Y-21354887D01*
X2385000Y-22045113D01*
X2649138Y-22682799D01*
X3137201Y-23170862D01*
X3774887Y-23435000D01*
X4465113Y-23435000D01*
X5102799Y-23170862D01*
X5590862Y-22682799D01*
X5855000Y-22045113D01*
X5855000Y-21354887D01*
X5590862Y-20717201D01*
X5102799Y-20229138D01*
X4465113Y-19965000D01*
X3774887Y-19965000D01*
X3137201Y-20229138D01*
X2649138Y-20717201D01*
X2385000Y-21354887D01*
X127000Y-21354887D01*
X127000Y-17524137D01*
X286783Y-17492354D01*
X492516Y-17354887D01*
X2385000Y-17354887D01*
X2385000Y-18045113D01*
X2649138Y-18682799D01*
X3137201Y-19170862D01*
X3774887Y-19435000D01*
X4465113Y-19435000D01*
X5102799Y-19170862D01*
X5590862Y-18682799D01*
X5855000Y-18045113D01*
X5855000Y-17354887D01*
X14385000Y-17354887D01*
X14385000Y-18045113D01*
X14649138Y-18682799D01*
X15137201Y-19170862D01*
X15774887Y-19435000D01*
X16465113Y-19435000D01*
X17102799Y-19170862D01*
X17590862Y-18682799D01*
X17855000Y-18045113D01*
X17855000Y-17354887D01*
X17590862Y-16717201D01*
X17157787Y-16284126D01*
X37085000Y-16284126D01*
X37085000Y-16695874D01*
X37242569Y-17076280D01*
X37533720Y-17367431D01*
X37914126Y-17525000D01*
X38325874Y-17525000D01*
X38706280Y-17367431D01*
X38834585Y-17239126D01*
X39060000Y-17239126D01*
X39060000Y-17650874D01*
X39217569Y-18031280D01*
X39508720Y-18322431D01*
X39889126Y-18480000D01*
X40300874Y-18480000D01*
X40681280Y-18322431D01*
X40972431Y-18031280D01*
X41130000Y-17650874D01*
X41130000Y-17239126D01*
X41119645Y-17214126D01*
X46680000Y-17214126D01*
X46680000Y-17625874D01*
X46837569Y-18006280D01*
X47128720Y-18297431D01*
X47509126Y-18455000D01*
X47920874Y-18455000D01*
X48301280Y-18297431D01*
X48337500Y-18261211D01*
X48398720Y-18322431D01*
X48779126Y-18480000D01*
X49190874Y-18480000D01*
X49571280Y-18322431D01*
X49620000Y-18273711D01*
X49668720Y-18322431D01*
X50049126Y-18480000D01*
X50460874Y-18480000D01*
X50841280Y-18322431D01*
X51132431Y-18031280D01*
X51290000Y-17650874D01*
X51290000Y-17239126D01*
X54275000Y-17239126D01*
X54275000Y-17650874D01*
X54432569Y-18031280D01*
X54723720Y-18322431D01*
X55104126Y-18480000D01*
X55515874Y-18480000D01*
X55896280Y-18322431D01*
X55945000Y-18273711D01*
X55993720Y-18322431D01*
X56374126Y-18480000D01*
X56785874Y-18480000D01*
X57166280Y-18322431D01*
X57227500Y-18261211D01*
X57288720Y-18322431D01*
X57669126Y-18480000D01*
X58080874Y-18480000D01*
X58461280Y-18322431D01*
X58752431Y-18031280D01*
X58910000Y-17650874D01*
X58910000Y-17239126D01*
X58752431Y-16858720D01*
X58461280Y-16567569D01*
X58080874Y-16410000D01*
X57669126Y-16410000D01*
X57288720Y-16567569D01*
X57227500Y-16628789D01*
X57166280Y-16567569D01*
X56785874Y-16410000D01*
X56374126Y-16410000D01*
X55993720Y-16567569D01*
X55945000Y-16616289D01*
X55896280Y-16567569D01*
X55515874Y-16410000D01*
X55104126Y-16410000D01*
X54723720Y-16567569D01*
X54432569Y-16858720D01*
X54275000Y-17239126D01*
X51290000Y-17239126D01*
X51132431Y-16858720D01*
X50841280Y-16567569D01*
X50460874Y-16410000D01*
X50049126Y-16410000D01*
X49668720Y-16567569D01*
X49620000Y-16616289D01*
X49571280Y-16567569D01*
X49190874Y-16410000D01*
X48779126Y-16410000D01*
X48398720Y-16567569D01*
X48362500Y-16603789D01*
X48301280Y-16542569D01*
X47920874Y-16385000D01*
X47509126Y-16385000D01*
X47128720Y-16542569D01*
X46837569Y-16833720D01*
X46680000Y-17214126D01*
X41119645Y-17214126D01*
X40972431Y-16858720D01*
X40681280Y-16567569D01*
X40300874Y-16410000D01*
X39889126Y-16410000D01*
X39508720Y-16567569D01*
X39217569Y-16858720D01*
X39060000Y-17239126D01*
X38834585Y-17239126D01*
X38997431Y-17076280D01*
X39155000Y-16695874D01*
X39155000Y-16284126D01*
X38997431Y-15903720D01*
X38706280Y-15612569D01*
X38325874Y-15455000D01*
X37914126Y-15455000D01*
X37533720Y-15612569D01*
X37242569Y-15903720D01*
X37085000Y-16284126D01*
X17157787Y-16284126D01*
X17102799Y-16229138D01*
X16465113Y-15965000D01*
X15774887Y-15965000D01*
X15137201Y-16229138D01*
X14649138Y-16717201D01*
X14385000Y-17354887D01*
X5855000Y-17354887D01*
X5590862Y-16717201D01*
X5102799Y-16229138D01*
X4465113Y-15965000D01*
X3774887Y-15965000D01*
X3137201Y-16229138D01*
X2649138Y-16717201D01*
X2385000Y-17354887D01*
X492516Y-17354887D01*
X529905Y-17329905D01*
X692354Y-17086783D01*
X749399Y-16800000D01*
X735000Y-16727612D01*
X735000Y-13786892D01*
X3200000Y-13786892D01*
X3200000Y-14113108D01*
X3324837Y-14414493D01*
X3555507Y-14645163D01*
X3856892Y-14770000D01*
X4183108Y-14770000D01*
X4484493Y-14645163D01*
X4605117Y-14524539D01*
X4600000Y-14536892D01*
X4600000Y-14863108D01*
X4724837Y-15164493D01*
X4955507Y-15395163D01*
X5256892Y-15520000D01*
X5583108Y-15520000D01*
X5884493Y-15395163D01*
X6115163Y-15164493D01*
X6240000Y-14863108D01*
X6240000Y-14536892D01*
X6115163Y-14235507D01*
X5884493Y-14004837D01*
X5583108Y-13880000D01*
X5256892Y-13880000D01*
X4955507Y-14004837D01*
X4834883Y-14125461D01*
X4840000Y-14113108D01*
X4840000Y-14013501D01*
X4941348Y-14006232D01*
X5133575Y-13926609D01*
X5130182Y-13786892D01*
X7000000Y-13786892D01*
X7000000Y-14113108D01*
X7124837Y-14414493D01*
X7355507Y-14645163D01*
X7656892Y-14770000D01*
X7983108Y-14770000D01*
X8284493Y-14645163D01*
X8405117Y-14524539D01*
X8400000Y-14536892D01*
X8400000Y-14863108D01*
X8524837Y-15164493D01*
X8755507Y-15395163D01*
X9056892Y-15520000D01*
X9383108Y-15520000D01*
X9684493Y-15395163D01*
X9915163Y-15164493D01*
X10040000Y-14863108D01*
X10040000Y-14536892D01*
X9915163Y-14235507D01*
X9684493Y-14004837D01*
X9383108Y-13880000D01*
X9056892Y-13880000D01*
X8755507Y-14004837D01*
X8634883Y-14125461D01*
X8640000Y-14113108D01*
X8640000Y-14013501D01*
X8741348Y-14006232D01*
X8933575Y-13926609D01*
X8929039Y-13739854D01*
X8520000Y-13330815D01*
X8481463Y-13369353D01*
X8350648Y-13238538D01*
X8389185Y-13200000D01*
X7980146Y-12790961D01*
X7793391Y-12786425D01*
X7690432Y-13095968D01*
X7692873Y-13130000D01*
X7656892Y-13130000D01*
X7355507Y-13254837D01*
X7124837Y-13485507D01*
X7000000Y-13786892D01*
X5130182Y-13786892D01*
X5129039Y-13739854D01*
X4720000Y-13330815D01*
X4681463Y-13369353D01*
X4550648Y-13238538D01*
X4589185Y-13200000D01*
X4180146Y-12790961D01*
X3993391Y-12786425D01*
X3890432Y-13095968D01*
X3892873Y-13130000D01*
X3856892Y-13130000D01*
X3555507Y-13254837D01*
X3324837Y-13485507D01*
X3200000Y-13786892D01*
X735000Y-13786892D01*
X735000Y-11536892D01*
X3200000Y-11536892D01*
X3200000Y-11863108D01*
X3324837Y-12164493D01*
X3555507Y-12395163D01*
X3856892Y-12520000D01*
X4183108Y-12520000D01*
X4484493Y-12395163D01*
X4605117Y-12274539D01*
X4600000Y-12286892D01*
X4600000Y-12386499D01*
X4498652Y-12393768D01*
X4306425Y-12473391D01*
X4310961Y-12660146D01*
X4720000Y-13069185D01*
X4758538Y-13030648D01*
X4889353Y-13161463D01*
X4850815Y-13200000D01*
X5259854Y-13609039D01*
X5446609Y-13613575D01*
X5549568Y-13304032D01*
X5547127Y-13270000D01*
X5583108Y-13270000D01*
X5884493Y-13145163D01*
X6115163Y-12914493D01*
X6240000Y-12613108D01*
X6240000Y-12286892D01*
X6115163Y-11985507D01*
X5884493Y-11754837D01*
X5583108Y-11630000D01*
X5256892Y-11630000D01*
X4955507Y-11754837D01*
X4834883Y-11875461D01*
X4840000Y-11863108D01*
X4840000Y-11763501D01*
X4941348Y-11756232D01*
X5133575Y-11676609D01*
X5130182Y-11536892D01*
X7000000Y-11536892D01*
X7000000Y-11863108D01*
X7124837Y-12164493D01*
X7355507Y-12395163D01*
X7656892Y-12520000D01*
X7983108Y-12520000D01*
X8284493Y-12395163D01*
X8405117Y-12274539D01*
X8400000Y-12286892D01*
X8400000Y-12386499D01*
X8298652Y-12393768D01*
X8106425Y-12473391D01*
X8110961Y-12660146D01*
X8520000Y-13069185D01*
X8558538Y-13030648D01*
X8689353Y-13161463D01*
X8650815Y-13200000D01*
X9059854Y-13609039D01*
X9246609Y-13613575D01*
X9349568Y-13304032D01*
X9347127Y-13270000D01*
X9383108Y-13270000D01*
X9684493Y-13145163D01*
X9915163Y-12914493D01*
X10040000Y-12613108D01*
X10040000Y-12286892D01*
X9915163Y-11985507D01*
X9684493Y-11754837D01*
X9383108Y-11630000D01*
X9056892Y-11630000D01*
X8755507Y-11754837D01*
X8634883Y-11875461D01*
X8640000Y-11863108D01*
X8640000Y-11763501D01*
X8741348Y-11756232D01*
X8933575Y-11676609D01*
X8929039Y-11489854D01*
X8520000Y-11080815D01*
X8481463Y-11119353D01*
X8350648Y-10988538D01*
X8389185Y-10950000D01*
X7980146Y-10540961D01*
X7793391Y-10536425D01*
X7690432Y-10845968D01*
X7692873Y-10880000D01*
X7656892Y-10880000D01*
X7355507Y-11004837D01*
X7124837Y-11235507D01*
X7000000Y-11536892D01*
X5130182Y-11536892D01*
X5129039Y-11489854D01*
X4720000Y-11080815D01*
X4681463Y-11119353D01*
X4550648Y-10988538D01*
X4589185Y-10950000D01*
X4180146Y-10540961D01*
X3993391Y-10536425D01*
X3890432Y-10845968D01*
X3892873Y-10880000D01*
X3856892Y-10880000D01*
X3555507Y-11004837D01*
X3324837Y-11235507D01*
X3200000Y-11536892D01*
X735000Y-11536892D01*
X735000Y-9286892D01*
X3200000Y-9286892D01*
X3200000Y-9613108D01*
X3324837Y-9914493D01*
X3555507Y-10145163D01*
X3856892Y-10270000D01*
X4183108Y-10270000D01*
X4388317Y-10185000D01*
X4399109Y-10185000D01*
X4306425Y-10223391D01*
X4310961Y-10410146D01*
X4720000Y-10819185D01*
X4758538Y-10780648D01*
X4889353Y-10911463D01*
X4850815Y-10950000D01*
X5259854Y-11359039D01*
X5446609Y-11363575D01*
X5549568Y-11054032D01*
X5547127Y-11020000D01*
X5583108Y-11020000D01*
X5884493Y-10895163D01*
X6115163Y-10664493D01*
X6240000Y-10363108D01*
X6240000Y-10036892D01*
X6225576Y-10002069D01*
X7041893Y-9185752D01*
X7000000Y-9286892D01*
X7000000Y-9613108D01*
X7124837Y-9914493D01*
X7355507Y-10145163D01*
X7656892Y-10270000D01*
X7983108Y-10270000D01*
X8284493Y-10145163D01*
X8405117Y-10024539D01*
X8400000Y-10036892D01*
X8400000Y-10136499D01*
X8298652Y-10143768D01*
X8106425Y-10223391D01*
X8110961Y-10410146D01*
X8520000Y-10819185D01*
X8558538Y-10780648D01*
X8689353Y-10911463D01*
X8650815Y-10950000D01*
X9059854Y-11359039D01*
X9246609Y-11363575D01*
X9349568Y-11054032D01*
X9347127Y-11020000D01*
X9383108Y-11020000D01*
X9684493Y-10895163D01*
X9915163Y-10664493D01*
X10040000Y-10363108D01*
X10040000Y-10036892D01*
X9915163Y-9735507D01*
X9684493Y-9504837D01*
X9383108Y-9380000D01*
X9056892Y-9380000D01*
X8755507Y-9504837D01*
X8634883Y-9625461D01*
X8640000Y-9613108D01*
X8640000Y-9513501D01*
X8741348Y-9506232D01*
X8933575Y-9426609D01*
X8929039Y-9239854D01*
X8520000Y-8830815D01*
X8481463Y-8869353D01*
X8350648Y-8738538D01*
X8389185Y-8700000D01*
X8350648Y-8661463D01*
X8481463Y-8530648D01*
X8520000Y-8569185D01*
X8558538Y-8530648D01*
X8689353Y-8661463D01*
X8650815Y-8700000D01*
X9059854Y-9109039D01*
X9246609Y-9113575D01*
X9349568Y-8804032D01*
X9326232Y-8478652D01*
X9246609Y-8286425D01*
X9109862Y-8289746D01*
X9114616Y-8284992D01*
X11725384Y-8284992D01*
X11730138Y-8289746D01*
X11593391Y-8286425D01*
X11490432Y-8595968D01*
X11492873Y-8630000D01*
X11456892Y-8630000D01*
X11155507Y-8754837D01*
X10924837Y-8985507D01*
X10800000Y-9286892D01*
X10800000Y-9613108D01*
X10924837Y-9914493D01*
X11155507Y-10145163D01*
X11456892Y-10270000D01*
X11783108Y-10270000D01*
X12084493Y-10145163D01*
X12205117Y-10024539D01*
X12200000Y-10036892D01*
X12200000Y-10136499D01*
X12098652Y-10143768D01*
X11906425Y-10223391D01*
X11910961Y-10410146D01*
X12320000Y-10819185D01*
X12358538Y-10780648D01*
X12489353Y-10911463D01*
X12450815Y-10950000D01*
X12859854Y-11359039D01*
X13046609Y-11363575D01*
X13149568Y-11054032D01*
X13147127Y-11020000D01*
X13183108Y-11020000D01*
X13484493Y-10895163D01*
X13715163Y-10664493D01*
X13840000Y-10363108D01*
X13840000Y-10036892D01*
X13715163Y-9735507D01*
X13484493Y-9504837D01*
X13183108Y-9380000D01*
X12856892Y-9380000D01*
X12555507Y-9504837D01*
X12434883Y-9625461D01*
X12440000Y-9613108D01*
X12440000Y-9513501D01*
X12541348Y-9506232D01*
X12733575Y-9426609D01*
X12729039Y-9239854D01*
X12320000Y-8830815D01*
X12281463Y-8869353D01*
X12150648Y-8738538D01*
X12189185Y-8700000D01*
X12150648Y-8661463D01*
X12281463Y-8530648D01*
X12320000Y-8569185D01*
X12358538Y-8530648D01*
X12489353Y-8661463D01*
X12450815Y-8700000D01*
X12859854Y-9109039D01*
X13046609Y-9113575D01*
X13149568Y-8804032D01*
X13126232Y-8478652D01*
X13046609Y-8286425D01*
X12909862Y-8289746D01*
X12914616Y-8284992D01*
X15525384Y-8284992D01*
X15530138Y-8289746D01*
X15393391Y-8286425D01*
X15290432Y-8595968D01*
X15292873Y-8630000D01*
X15256892Y-8630000D01*
X14955507Y-8754837D01*
X14724837Y-8985507D01*
X14600000Y-9286892D01*
X14600000Y-9613108D01*
X14724837Y-9914493D01*
X14955507Y-10145163D01*
X15256892Y-10270000D01*
X15583108Y-10270000D01*
X15884493Y-10145163D01*
X16005117Y-10024539D01*
X16000000Y-10036892D01*
X16000000Y-10136499D01*
X15898652Y-10143768D01*
X15706425Y-10223391D01*
X15710961Y-10410146D01*
X16120000Y-10819185D01*
X16158538Y-10780648D01*
X16289353Y-10911463D01*
X16250815Y-10950000D01*
X16265815Y-10965000D01*
X15974185Y-10965000D01*
X15989185Y-10950000D01*
X15580146Y-10540961D01*
X15393391Y-10536425D01*
X15290432Y-10845968D01*
X15292873Y-10880000D01*
X15256892Y-10880000D01*
X14955507Y-11004837D01*
X14724837Y-11235507D01*
X14600000Y-11536892D01*
X14600000Y-11863108D01*
X14724837Y-12164493D01*
X14955507Y-12395163D01*
X15256892Y-12520000D01*
X15583108Y-12520000D01*
X15788317Y-12435000D01*
X15799109Y-12435000D01*
X15706425Y-12473391D01*
X15710961Y-12660146D01*
X16120000Y-13069185D01*
X16158538Y-13030648D01*
X16289353Y-13161463D01*
X16250815Y-13200000D01*
X16289353Y-13238538D01*
X16158538Y-13369353D01*
X16120000Y-13330815D01*
X16081463Y-13369353D01*
X15950648Y-13238538D01*
X15989185Y-13200000D01*
X15580146Y-12790961D01*
X15393391Y-12786425D01*
X15290432Y-13095968D01*
X15292873Y-13130000D01*
X15256892Y-13130000D01*
X14955507Y-13254837D01*
X14903094Y-13307250D01*
X13809782Y-12213939D01*
X13715163Y-11985507D01*
X13484493Y-11754837D01*
X13183108Y-11630000D01*
X12856892Y-11630000D01*
X12667779Y-11708333D01*
X12664618Y-11705172D01*
X12733575Y-11676609D01*
X12729039Y-11489854D01*
X12320000Y-11080815D01*
X12281463Y-11119353D01*
X12150648Y-10988538D01*
X12189185Y-10950000D01*
X11780146Y-10540961D01*
X11593391Y-10536425D01*
X11490432Y-10845968D01*
X11492873Y-10880000D01*
X11456892Y-10880000D01*
X11155507Y-11004837D01*
X10924837Y-11235507D01*
X10800000Y-11536892D01*
X10800000Y-11863108D01*
X10924837Y-12164493D01*
X11155507Y-12395163D01*
X11360717Y-12480163D01*
X11668810Y-12788257D01*
X11593391Y-12786425D01*
X11490432Y-13095968D01*
X11492873Y-13130000D01*
X11456892Y-13130000D01*
X11155507Y-13254837D01*
X10924837Y-13485507D01*
X10800000Y-13786892D01*
X10800000Y-14113108D01*
X10924837Y-14414493D01*
X11155507Y-14645163D01*
X11456892Y-14770000D01*
X11783108Y-14770000D01*
X12084493Y-14645163D01*
X12205117Y-14524539D01*
X12200000Y-14536892D01*
X12200000Y-14863108D01*
X12324837Y-15164493D01*
X12555507Y-15395163D01*
X12856892Y-15520000D01*
X13183108Y-15520000D01*
X13484493Y-15395163D01*
X13715163Y-15164493D01*
X13811783Y-14931230D01*
X14534091Y-15653538D01*
X14575096Y-15714906D01*
X14818218Y-15877355D01*
X15032613Y-15920001D01*
X15105001Y-15934400D01*
X15177389Y-15920001D01*
X16980417Y-15920001D01*
X17052801Y-15934399D01*
X17125185Y-15920001D01*
X17125189Y-15920001D01*
X17339584Y-15877355D01*
X17582706Y-15714906D01*
X17619393Y-15660000D01*
X37022616Y-15660000D01*
X37095000Y-15674398D01*
X37167384Y-15660000D01*
X37167388Y-15660000D01*
X37381783Y-15617354D01*
X37624905Y-15454905D01*
X37665911Y-15393535D01*
X40884341Y-12175105D01*
X59430000Y-12175105D01*
X59430000Y-12944895D01*
X59724586Y-13656090D01*
X60268910Y-14200414D01*
X60980105Y-14495000D01*
X61749895Y-14495000D01*
X62461090Y-14200414D01*
X63005414Y-13656090D01*
X63300000Y-12944895D01*
X63300000Y-12175105D01*
X63005414Y-11463910D01*
X62461090Y-10919586D01*
X61749895Y-10625000D01*
X60980105Y-10625000D01*
X60268910Y-10919586D01*
X59724586Y-11463910D01*
X59430000Y-12175105D01*
X40884341Y-12175105D01*
X43849501Y-9209946D01*
X43970212Y-9159946D01*
X44191036Y-8939122D01*
X44240267Y-8820267D01*
X44359122Y-8771036D01*
X44579946Y-8550212D01*
X44699455Y-8261691D01*
X44699455Y-8060000D01*
X45255824Y-8060000D01*
X45140545Y-8338309D01*
X45140545Y-8650601D01*
X45260054Y-8939122D01*
X45480878Y-9159946D01*
X45769399Y-9279455D01*
X46081691Y-9279455D01*
X46370212Y-9159946D01*
X46591036Y-8939122D01*
X46640267Y-8820267D01*
X46759122Y-8771036D01*
X46979946Y-8550212D01*
X47099455Y-8261691D01*
X47099455Y-8060000D01*
X47655824Y-8060000D01*
X47540545Y-8338309D01*
X47540545Y-8650601D01*
X47660054Y-8939122D01*
X47880878Y-9159946D01*
X48169399Y-9279455D01*
X48481691Y-9279455D01*
X48770212Y-9159946D01*
X48991036Y-8939122D01*
X49040267Y-8820267D01*
X49159122Y-8771036D01*
X49379946Y-8550212D01*
X49499455Y-8261691D01*
X49499455Y-8237100D01*
X49960054Y-8697700D01*
X50060054Y-8939122D01*
X50280878Y-9159946D01*
X50569399Y-9279455D01*
X50881691Y-9279455D01*
X51170212Y-9159946D01*
X51391036Y-8939122D01*
X51440267Y-8820267D01*
X51559122Y-8771036D01*
X51779946Y-8550212D01*
X51867718Y-8338309D01*
X52340545Y-8338309D01*
X52340545Y-8650601D01*
X52460054Y-8939122D01*
X52680878Y-9159946D01*
X52969399Y-9279455D01*
X53281691Y-9279455D01*
X53570212Y-9159946D01*
X53791036Y-8939122D01*
X53840267Y-8820267D01*
X53959122Y-8771036D01*
X54179946Y-8550212D01*
X54299455Y-8261691D01*
X54299455Y-7949399D01*
X54179946Y-7660878D01*
X53959122Y-7440054D01*
X53670601Y-7320545D01*
X53358309Y-7320545D01*
X53069788Y-7440054D01*
X52848964Y-7660878D01*
X52799733Y-7779733D01*
X52680878Y-7828964D01*
X52460054Y-8049788D01*
X52340545Y-8338309D01*
X51867718Y-8338309D01*
X51899455Y-8261691D01*
X51899455Y-7949399D01*
X51779946Y-7660878D01*
X51559122Y-7440054D01*
X51317700Y-7340054D01*
X50384110Y-6406465D01*
X50343104Y-6345095D01*
X50099982Y-6182646D01*
X49885587Y-6140000D01*
X49885583Y-6140000D01*
X49813199Y-6125602D01*
X49740815Y-6140000D01*
X17815697Y-6140000D01*
X17855000Y-6045113D01*
X17855000Y-5354887D01*
X17590862Y-4717201D01*
X17102799Y-4229138D01*
X16465113Y-3965000D01*
X15774887Y-3965000D01*
X15137201Y-4229138D01*
X14649138Y-4717201D01*
X14385000Y-5354887D01*
X14385000Y-6045113D01*
X14517502Y-6365001D01*
X7524183Y-6365001D01*
X7451799Y-6350603D01*
X7379415Y-6365001D01*
X7379412Y-6365001D01*
X7165017Y-6407647D01*
X6921895Y-6570096D01*
X6880891Y-6631464D01*
X4797355Y-8715000D01*
X4574185Y-8715000D01*
X4589185Y-8700000D01*
X4180146Y-8290961D01*
X3993391Y-8286425D01*
X3890432Y-8595968D01*
X3892873Y-8630000D01*
X3856892Y-8630000D01*
X3555507Y-8754837D01*
X3324837Y-8985507D01*
X3200000Y-9286892D01*
X735000Y-9286892D01*
X735000Y-7973391D01*
X4306425Y-7973391D01*
X4310961Y-8160146D01*
X4720000Y-8569185D01*
X5129039Y-8160146D01*
X5133575Y-7973391D01*
X4824032Y-7870432D01*
X4498652Y-7893768D01*
X4306425Y-7973391D01*
X735000Y-7973391D01*
X735000Y-5354887D01*
X2385000Y-5354887D01*
X2385000Y-6045113D01*
X2649138Y-6682799D01*
X3137201Y-7170862D01*
X3774887Y-7435000D01*
X4465113Y-7435000D01*
X5102799Y-7170862D01*
X5590862Y-6682799D01*
X5855000Y-6045113D01*
X5855000Y-5354887D01*
X5590862Y-4717201D01*
X5102799Y-4229138D01*
X4465113Y-3965000D01*
X3774887Y-3965000D01*
X3137201Y-4229138D01*
X2649138Y-4717201D01*
X2385000Y-5354887D01*
X735000Y-5354887D01*
X735000Y-3241089D01*
X800751Y-2654908D01*
X981140Y-2136900D01*
X1271808Y-1671734D01*
X1658308Y-1282526D01*
X2121438Y-988614D01*
X2638164Y-804617D01*
X3221984Y-735000D01*
X70608911Y-735000D01*
X71195092Y-800751D01*
X71195092Y-800751D01*
G37*
X71195092Y-800751D02*
X71713100Y-981140D01*
X72178266Y-1271808D01*
X72567474Y-1658308D01*
X72861386Y-2121438D01*
X73045383Y-2638164D01*
X73115001Y-3221993D01*
X73115000Y-16727612D01*
X73100601Y-16800000D01*
X73157646Y-17086783D01*
X73267161Y-17250683D01*
X73320095Y-17329905D01*
X73563217Y-17492354D01*
X73850000Y-17549399D01*
X73873000Y-17544824D01*
X73873000Y-54255176D01*
X73850000Y-54250601D01*
X73777612Y-54265000D01*
X73563217Y-54307646D01*
X73320095Y-54470095D01*
X73157646Y-54713217D01*
X73100601Y-55000000D01*
X73115000Y-55072388D01*
X73115001Y-68672388D01*
X73122947Y-68712336D01*
X73073780Y-69150669D01*
X72891548Y-69673969D01*
X72597909Y-70143890D01*
X72207451Y-70537083D01*
X71739593Y-70833995D01*
X71217576Y-71019877D01*
X70766155Y-71073706D01*
X70722388Y-71065000D01*
X3241089Y-71065000D01*
X2654908Y-70999249D01*
X2136899Y-70818859D01*
X1671734Y-70528192D01*
X1282524Y-70141689D01*
X988614Y-69678562D01*
X804617Y-69161837D01*
X735000Y-68578016D01*
X735000Y-67692268D01*
X59460000Y-67692268D01*
X59460000Y-68287733D01*
X59547032Y-68725271D01*
X59878561Y-69221439D01*
X60374730Y-69552968D01*
X60960000Y-69669386D01*
X61545271Y-69552968D01*
X62041439Y-69221439D01*
X62216846Y-68958923D01*
X62559143Y-69340793D01*
X63087240Y-69594131D01*
X63100754Y-69596346D01*
X63333000Y-69475224D01*
X63333000Y-68117000D01*
X63587000Y-68117000D01*
X63587000Y-69475224D01*
X63819246Y-69596346D01*
X63832760Y-69594131D01*
X64360857Y-69340793D01*
X64710000Y-68951285D01*
X65059143Y-69340793D01*
X65587240Y-69594131D01*
X65600754Y-69596346D01*
X65833000Y-69475224D01*
X65833000Y-68117000D01*
X63587000Y-68117000D01*
X63333000Y-68117000D01*
X63313000Y-68117000D01*
X63313000Y-67863000D01*
X63333000Y-67863000D01*
X63333000Y-66504776D01*
X63587000Y-66504776D01*
X63587000Y-67863000D01*
X65833000Y-67863000D01*
X65833000Y-66504776D01*
X66087000Y-66504776D01*
X66087000Y-67863000D01*
X66107000Y-67863000D01*
X66107000Y-68117000D01*
X66087000Y-68117000D01*
X66087000Y-69475224D01*
X66319246Y-69596346D01*
X66332760Y-69594131D01*
X66860857Y-69340793D01*
X66986477Y-69200650D01*
X66996843Y-69252765D01*
X67137191Y-69462809D01*
X67347235Y-69603157D01*
X67595000Y-69652440D01*
X69325000Y-69652440D01*
X69572765Y-69603157D01*
X69782809Y-69462809D01*
X69923157Y-69252765D01*
X69972440Y-69005000D01*
X69972440Y-66975000D01*
X69923157Y-66727235D01*
X69782809Y-66517191D01*
X69572765Y-66376843D01*
X69325000Y-66327560D01*
X67595000Y-66327560D01*
X67347235Y-66376843D01*
X67137191Y-66517191D01*
X66996843Y-66727235D01*
X66986477Y-66779350D01*
X66860857Y-66639207D01*
X66332760Y-66385869D01*
X66319246Y-66383654D01*
X66087000Y-66504776D01*
X65833000Y-66504776D01*
X65600754Y-66383654D01*
X65587240Y-66385869D01*
X65059143Y-66639207D01*
X64710000Y-67028715D01*
X64360857Y-66639207D01*
X63832760Y-66385869D01*
X63819246Y-66383654D01*
X63587000Y-66504776D01*
X63333000Y-66504776D01*
X63100754Y-66383654D01*
X63087240Y-66385869D01*
X62559143Y-66639207D01*
X62216846Y-67021077D01*
X62041439Y-66758561D01*
X61545270Y-66427032D01*
X60960000Y-66310614D01*
X60374729Y-66427032D01*
X59878561Y-66758561D01*
X59547032Y-67254730D01*
X59460000Y-67692268D01*
X735000Y-67692268D01*
X735000Y-65354887D01*
X2385000Y-65354887D01*
X2385000Y-66045113D01*
X2649138Y-66682799D01*
X3137201Y-67170862D01*
X3774887Y-67435000D01*
X4465113Y-67435000D01*
X5102799Y-67170862D01*
X5590862Y-66682799D01*
X5855000Y-66045113D01*
X5855000Y-65354887D01*
X14385000Y-65354887D01*
X14385000Y-66045113D01*
X14649138Y-66682799D01*
X15137201Y-67170862D01*
X15774887Y-67435000D01*
X16465113Y-67435000D01*
X17102799Y-67170862D01*
X17590862Y-66682799D01*
X17855000Y-66045113D01*
X17855000Y-65354887D01*
X17590862Y-64717201D01*
X17157787Y-64284126D01*
X37085000Y-64284126D01*
X37085000Y-64695874D01*
X37242569Y-65076280D01*
X37533720Y-65367431D01*
X37914126Y-65525000D01*
X38325874Y-65525000D01*
X38706280Y-65367431D01*
X38834585Y-65239126D01*
X39060000Y-65239126D01*
X39060000Y-65650874D01*
X39217569Y-66031280D01*
X39508720Y-66322431D01*
X39889126Y-66480000D01*
X40300874Y-66480000D01*
X40681280Y-66322431D01*
X40972431Y-66031280D01*
X41130000Y-65650874D01*
X41130000Y-65239126D01*
X41119645Y-65214126D01*
X46680000Y-65214126D01*
X46680000Y-65625874D01*
X46837569Y-66006280D01*
X47128720Y-66297431D01*
X47509126Y-66455000D01*
X47920874Y-66455000D01*
X48301280Y-66297431D01*
X48337500Y-66261211D01*
X48398720Y-66322431D01*
X48779126Y-66480000D01*
X49190874Y-66480000D01*
X49571280Y-66322431D01*
X49620000Y-66273711D01*
X49668720Y-66322431D01*
X50049126Y-66480000D01*
X50460874Y-66480000D01*
X50841280Y-66322431D01*
X51132431Y-66031280D01*
X51290000Y-65650874D01*
X51290000Y-65239126D01*
X54275000Y-65239126D01*
X54275000Y-65650874D01*
X54432569Y-66031280D01*
X54723720Y-66322431D01*
X55104126Y-66480000D01*
X55515874Y-66480000D01*
X55896280Y-66322431D01*
X55945000Y-66273711D01*
X55993720Y-66322431D01*
X56374126Y-66480000D01*
X56785874Y-66480000D01*
X57166280Y-66322431D01*
X57227500Y-66261211D01*
X57288720Y-66322431D01*
X57669126Y-66480000D01*
X58080874Y-66480000D01*
X58461280Y-66322431D01*
X58752431Y-66031280D01*
X58910000Y-65650874D01*
X58910000Y-65239126D01*
X58752431Y-64858720D01*
X58461280Y-64567569D01*
X58080874Y-64410000D01*
X57669126Y-64410000D01*
X57288720Y-64567569D01*
X57227500Y-64628789D01*
X57166280Y-64567569D01*
X56785874Y-64410000D01*
X56374126Y-64410000D01*
X55993720Y-64567569D01*
X55945000Y-64616289D01*
X55896280Y-64567569D01*
X55515874Y-64410000D01*
X55104126Y-64410000D01*
X54723720Y-64567569D01*
X54432569Y-64858720D01*
X54275000Y-65239126D01*
X51290000Y-65239126D01*
X51132431Y-64858720D01*
X50841280Y-64567569D01*
X50460874Y-64410000D01*
X50049126Y-64410000D01*
X49668720Y-64567569D01*
X49620000Y-64616289D01*
X49571280Y-64567569D01*
X49190874Y-64410000D01*
X48779126Y-64410000D01*
X48398720Y-64567569D01*
X48362500Y-64603789D01*
X48301280Y-64542569D01*
X47920874Y-64385000D01*
X47509126Y-64385000D01*
X47128720Y-64542569D01*
X46837569Y-64833720D01*
X46680000Y-65214126D01*
X41119645Y-65214126D01*
X40972431Y-64858720D01*
X40681280Y-64567569D01*
X40300874Y-64410000D01*
X39889126Y-64410000D01*
X39508720Y-64567569D01*
X39217569Y-64858720D01*
X39060000Y-65239126D01*
X38834585Y-65239126D01*
X38997431Y-65076280D01*
X39155000Y-64695874D01*
X39155000Y-64284126D01*
X38997431Y-63903720D01*
X38706280Y-63612569D01*
X38325874Y-63455000D01*
X37914126Y-63455000D01*
X37533720Y-63612569D01*
X37242569Y-63903720D01*
X37085000Y-64284126D01*
X17157787Y-64284126D01*
X17102799Y-64229138D01*
X16465113Y-63965000D01*
X15774887Y-63965000D01*
X15137201Y-64229138D01*
X14649138Y-64717201D01*
X14385000Y-65354887D01*
X5855000Y-65354887D01*
X5590862Y-64717201D01*
X5102799Y-64229138D01*
X4465113Y-63965000D01*
X3774887Y-63965000D01*
X3137201Y-64229138D01*
X2649138Y-64717201D01*
X2385000Y-65354887D01*
X735000Y-65354887D01*
X735000Y-61786892D01*
X3200000Y-61786892D01*
X3200000Y-62113108D01*
X3324837Y-62414493D01*
X3555507Y-62645163D01*
X3856892Y-62770000D01*
X4183108Y-62770000D01*
X4484493Y-62645163D01*
X4605117Y-62524539D01*
X4600000Y-62536892D01*
X4600000Y-62863108D01*
X4724837Y-63164493D01*
X4955507Y-63395163D01*
X5256892Y-63520000D01*
X5583108Y-63520000D01*
X5884493Y-63395163D01*
X6115163Y-63164493D01*
X6240000Y-62863108D01*
X6240000Y-62536892D01*
X6115163Y-62235507D01*
X5884493Y-62004837D01*
X5583108Y-61880000D01*
X5256892Y-61880000D01*
X4955507Y-62004837D01*
X4834883Y-62125461D01*
X4840000Y-62113108D01*
X4840000Y-62013501D01*
X4941348Y-62006232D01*
X5133575Y-61926609D01*
X5130182Y-61786892D01*
X7000000Y-61786892D01*
X7000000Y-62113108D01*
X7124837Y-62414493D01*
X7355507Y-62645163D01*
X7656892Y-62770000D01*
X7983108Y-62770000D01*
X8284493Y-62645163D01*
X8405117Y-62524539D01*
X8400000Y-62536892D01*
X8400000Y-62863108D01*
X8524837Y-63164493D01*
X8755507Y-63395163D01*
X9056892Y-63520000D01*
X9383108Y-63520000D01*
X9684493Y-63395163D01*
X9915163Y-63164493D01*
X10040000Y-62863108D01*
X10040000Y-62536892D01*
X9915163Y-62235507D01*
X9684493Y-62004837D01*
X9383108Y-61880000D01*
X9056892Y-61880000D01*
X8755507Y-62004837D01*
X8634883Y-62125461D01*
X8640000Y-62113108D01*
X8640000Y-62013501D01*
X8741348Y-62006232D01*
X8933575Y-61926609D01*
X8929039Y-61739854D01*
X8520000Y-61330815D01*
X8481463Y-61369353D01*
X8350648Y-61238538D01*
X8389185Y-61200000D01*
X7980146Y-60790961D01*
X7793391Y-60786425D01*
X7690432Y-61095968D01*
X7692873Y-61130000D01*
X7656892Y-61130000D01*
X7355507Y-61254837D01*
X7124837Y-61485507D01*
X7000000Y-61786892D01*
X5130182Y-61786892D01*
X5129039Y-61739854D01*
X4720000Y-61330815D01*
X4681463Y-61369353D01*
X4550648Y-61238538D01*
X4589185Y-61200000D01*
X4180146Y-60790961D01*
X3993391Y-60786425D01*
X3890432Y-61095968D01*
X3892873Y-61130000D01*
X3856892Y-61130000D01*
X3555507Y-61254837D01*
X3324837Y-61485507D01*
X3200000Y-61786892D01*
X735000Y-61786892D01*
X735000Y-59536892D01*
X3200000Y-59536892D01*
X3200000Y-59863108D01*
X3324837Y-60164493D01*
X3555507Y-60395163D01*
X3856892Y-60520000D01*
X4183108Y-60520000D01*
X4484493Y-60395163D01*
X4605117Y-60274539D01*
X4600000Y-60286892D01*
X4600000Y-60386499D01*
X4498652Y-60393768D01*
X4306425Y-60473391D01*
X4310961Y-60660146D01*
X4720000Y-61069185D01*
X4758538Y-61030648D01*
X4889353Y-61161463D01*
X4850815Y-61200000D01*
X5259854Y-61609039D01*
X5446609Y-61613575D01*
X5549568Y-61304032D01*
X5547127Y-61270000D01*
X5583108Y-61270000D01*
X5884493Y-61145163D01*
X6115163Y-60914493D01*
X6240000Y-60613108D01*
X6240000Y-60286892D01*
X6115163Y-59985507D01*
X5884493Y-59754837D01*
X5583108Y-59630000D01*
X5256892Y-59630000D01*
X4955507Y-59754837D01*
X4834883Y-59875461D01*
X4840000Y-59863108D01*
X4840000Y-59763501D01*
X4941348Y-59756232D01*
X5133575Y-59676609D01*
X5130182Y-59536892D01*
X7000000Y-59536892D01*
X7000000Y-59863108D01*
X7124837Y-60164493D01*
X7355507Y-60395163D01*
X7656892Y-60520000D01*
X7983108Y-60520000D01*
X8284493Y-60395163D01*
X8405117Y-60274539D01*
X8400000Y-60286892D01*
X8400000Y-60386499D01*
X8298652Y-60393768D01*
X8106425Y-60473391D01*
X8110961Y-60660146D01*
X8520000Y-61069185D01*
X8558538Y-61030648D01*
X8689353Y-61161463D01*
X8650815Y-61200000D01*
X9059854Y-61609039D01*
X9246609Y-61613575D01*
X9349568Y-61304032D01*
X9347127Y-61270000D01*
X9383108Y-61270000D01*
X9684493Y-61145163D01*
X9915163Y-60914493D01*
X10040000Y-60613108D01*
X10040000Y-60286892D01*
X9915163Y-59985507D01*
X9684493Y-59754837D01*
X9383108Y-59630000D01*
X9056892Y-59630000D01*
X8755507Y-59754837D01*
X8634883Y-59875461D01*
X8640000Y-59863108D01*
X8640000Y-59763501D01*
X8741348Y-59756232D01*
X8933575Y-59676609D01*
X8929039Y-59489854D01*
X8520000Y-59080815D01*
X8481463Y-59119353D01*
X8350648Y-58988538D01*
X8389185Y-58950000D01*
X7980146Y-58540961D01*
X7793391Y-58536425D01*
X7690432Y-58845968D01*
X7692873Y-58880000D01*
X7656892Y-58880000D01*
X7355507Y-59004837D01*
X7124837Y-59235507D01*
X7000000Y-59536892D01*
X5130182Y-59536892D01*
X5129039Y-59489854D01*
X4720000Y-59080815D01*
X4681463Y-59119353D01*
X4550648Y-58988538D01*
X4589185Y-58950000D01*
X4180146Y-58540961D01*
X3993391Y-58536425D01*
X3890432Y-58845968D01*
X3892873Y-58880000D01*
X3856892Y-58880000D01*
X3555507Y-59004837D01*
X3324837Y-59235507D01*
X3200000Y-59536892D01*
X735000Y-59536892D01*
X735000Y-57286892D01*
X3200000Y-57286892D01*
X3200000Y-57613108D01*
X3324837Y-57914493D01*
X3555507Y-58145163D01*
X3856892Y-58270000D01*
X4183108Y-58270000D01*
X4388317Y-58185000D01*
X4399109Y-58185000D01*
X4306425Y-58223391D01*
X4310961Y-58410146D01*
X4720000Y-58819185D01*
X4758538Y-58780648D01*
X4889353Y-58911463D01*
X4850815Y-58950000D01*
X5259854Y-59359039D01*
X5446609Y-59363575D01*
X5549568Y-59054032D01*
X5547127Y-59020000D01*
X5583108Y-59020000D01*
X5884493Y-58895163D01*
X6115163Y-58664493D01*
X6240000Y-58363108D01*
X6240000Y-58036892D01*
X6225576Y-58002069D01*
X7041893Y-57185752D01*
X7000000Y-57286892D01*
X7000000Y-57613108D01*
X7124837Y-57914493D01*
X7355507Y-58145163D01*
X7656892Y-58270000D01*
X7983108Y-58270000D01*
X8284493Y-58145163D01*
X8405117Y-58024539D01*
X8400000Y-58036892D01*
X8400000Y-58136499D01*
X8298652Y-58143768D01*
X8106425Y-58223391D01*
X8110961Y-58410146D01*
X8520000Y-58819185D01*
X8558538Y-58780648D01*
X8689353Y-58911463D01*
X8650815Y-58950000D01*
X9059854Y-59359039D01*
X9246609Y-59363575D01*
X9349568Y-59054032D01*
X9347127Y-59020000D01*
X9383108Y-59020000D01*
X9684493Y-58895163D01*
X9915163Y-58664493D01*
X10040000Y-58363108D01*
X10040000Y-58036892D01*
X9915163Y-57735507D01*
X9684493Y-57504837D01*
X9383108Y-57380000D01*
X9056892Y-57380000D01*
X8755507Y-57504837D01*
X8634883Y-57625461D01*
X8640000Y-57613108D01*
X8640000Y-57513501D01*
X8741348Y-57506232D01*
X8933575Y-57426609D01*
X8929039Y-57239854D01*
X8520000Y-56830815D01*
X8481463Y-56869353D01*
X8350648Y-56738538D01*
X8389185Y-56700000D01*
X8350648Y-56661463D01*
X8481463Y-56530648D01*
X8520000Y-56569185D01*
X8558538Y-56530648D01*
X8689353Y-56661463D01*
X8650815Y-56700000D01*
X9059854Y-57109039D01*
X9246609Y-57113575D01*
X9349568Y-56804032D01*
X9326232Y-56478652D01*
X9246609Y-56286425D01*
X9109862Y-56289746D01*
X9114616Y-56284992D01*
X11725384Y-56284992D01*
X11730138Y-56289746D01*
X11593391Y-56286425D01*
X11490432Y-56595968D01*
X11492873Y-56630000D01*
X11456892Y-56630000D01*
X11155507Y-56754837D01*
X10924837Y-56985507D01*
X10800000Y-57286892D01*
X10800000Y-57613108D01*
X10924837Y-57914493D01*
X11155507Y-58145163D01*
X11456892Y-58270000D01*
X11783108Y-58270000D01*
X12084493Y-58145163D01*
X12205117Y-58024539D01*
X12200000Y-58036892D01*
X12200000Y-58136499D01*
X12098652Y-58143768D01*
X11906425Y-58223391D01*
X11910961Y-58410146D01*
X12320000Y-58819185D01*
X12358538Y-58780648D01*
X12489353Y-58911463D01*
X12450815Y-58950000D01*
X12859854Y-59359039D01*
X13046609Y-59363575D01*
X13149568Y-59054032D01*
X13147127Y-59020000D01*
X13183108Y-59020000D01*
X13484493Y-58895163D01*
X13715163Y-58664493D01*
X13840000Y-58363108D01*
X13840000Y-58036892D01*
X13715163Y-57735507D01*
X13484493Y-57504837D01*
X13183108Y-57380000D01*
X12856892Y-57380000D01*
X12555507Y-57504837D01*
X12434883Y-57625461D01*
X12440000Y-57613108D01*
X12440000Y-57513501D01*
X12541348Y-57506232D01*
X12733575Y-57426609D01*
X12729039Y-57239854D01*
X12320000Y-56830815D01*
X12281463Y-56869353D01*
X12150648Y-56738538D01*
X12189185Y-56700000D01*
X12150648Y-56661463D01*
X12281463Y-56530648D01*
X12320000Y-56569185D01*
X12358538Y-56530648D01*
X12489353Y-56661463D01*
X12450815Y-56700000D01*
X12859854Y-57109039D01*
X13046609Y-57113575D01*
X13149568Y-56804032D01*
X13126232Y-56478652D01*
X13046609Y-56286425D01*
X12909862Y-56289746D01*
X12914616Y-56284992D01*
X15525384Y-56284992D01*
X15530138Y-56289746D01*
X15393391Y-56286425D01*
X15290432Y-56595968D01*
X15292873Y-56630000D01*
X15256892Y-56630000D01*
X14955507Y-56754837D01*
X14724837Y-56985507D01*
X14600000Y-57286892D01*
X14600000Y-57613108D01*
X14724837Y-57914493D01*
X14955507Y-58145163D01*
X15256892Y-58270000D01*
X15583108Y-58270000D01*
X15884493Y-58145163D01*
X16005117Y-58024539D01*
X16000000Y-58036892D01*
X16000000Y-58136499D01*
X15898652Y-58143768D01*
X15706425Y-58223391D01*
X15710961Y-58410146D01*
X16120000Y-58819185D01*
X16158538Y-58780648D01*
X16289353Y-58911463D01*
X16250815Y-58950000D01*
X16265815Y-58965000D01*
X15974185Y-58965000D01*
X15989185Y-58950000D01*
X15580146Y-58540961D01*
X15393391Y-58536425D01*
X15290432Y-58845968D01*
X15292873Y-58880000D01*
X15256892Y-58880000D01*
X14955507Y-59004837D01*
X14724837Y-59235507D01*
X14600000Y-59536892D01*
X14600000Y-59863108D01*
X14724837Y-60164493D01*
X14955507Y-60395163D01*
X15256892Y-60520000D01*
X15583108Y-60520000D01*
X15788317Y-60435000D01*
X15799109Y-60435000D01*
X15706425Y-60473391D01*
X15710961Y-60660146D01*
X16120000Y-61069185D01*
X16158538Y-61030648D01*
X16289353Y-61161463D01*
X16250815Y-61200000D01*
X16289353Y-61238538D01*
X16158538Y-61369353D01*
X16120000Y-61330815D01*
X16081463Y-61369353D01*
X15950648Y-61238538D01*
X15989185Y-61200000D01*
X15580146Y-60790961D01*
X15393391Y-60786425D01*
X15290432Y-61095968D01*
X15292873Y-61130000D01*
X15256892Y-61130000D01*
X14955507Y-61254837D01*
X14903094Y-61307250D01*
X13809782Y-60213939D01*
X13715163Y-59985507D01*
X13484493Y-59754837D01*
X13183108Y-59630000D01*
X12856892Y-59630000D01*
X12667779Y-59708333D01*
X12664618Y-59705172D01*
X12733575Y-59676609D01*
X12729039Y-59489854D01*
X12320000Y-59080815D01*
X12281463Y-59119353D01*
X12150648Y-58988538D01*
X12189185Y-58950000D01*
X11780146Y-58540961D01*
X11593391Y-58536425D01*
X11490432Y-58845968D01*
X11492873Y-58880000D01*
X11456892Y-58880000D01*
X11155507Y-59004837D01*
X10924837Y-59235507D01*
X10800000Y-59536892D01*
X10800000Y-59863108D01*
X10924837Y-60164493D01*
X11155507Y-60395163D01*
X11360717Y-60480163D01*
X11668810Y-60788257D01*
X11593391Y-60786425D01*
X11490432Y-61095968D01*
X11492873Y-61130000D01*
X11456892Y-61130000D01*
X11155507Y-61254837D01*
X10924837Y-61485507D01*
X10800000Y-61786892D01*
X10800000Y-62113108D01*
X10924837Y-62414493D01*
X11155507Y-62645163D01*
X11456892Y-62770000D01*
X11783108Y-62770000D01*
X12084493Y-62645163D01*
X12205117Y-62524539D01*
X12200000Y-62536892D01*
X12200000Y-62863108D01*
X12324837Y-63164493D01*
X12555507Y-63395163D01*
X12856892Y-63520000D01*
X13183108Y-63520000D01*
X13484493Y-63395163D01*
X13715163Y-63164493D01*
X13811783Y-62931230D01*
X14534091Y-63653538D01*
X14575096Y-63714906D01*
X14818218Y-63877355D01*
X15032613Y-63920001D01*
X15105001Y-63934400D01*
X15177389Y-63920001D01*
X16980417Y-63920001D01*
X17052801Y-63934399D01*
X17125185Y-63920001D01*
X17125189Y-63920001D01*
X17339584Y-63877355D01*
X17582706Y-63714906D01*
X17619393Y-63660000D01*
X37022616Y-63660000D01*
X37095000Y-63674398D01*
X37167384Y-63660000D01*
X37167388Y-63660000D01*
X37381783Y-63617354D01*
X37624905Y-63454905D01*
X37665911Y-63393535D01*
X40884341Y-60175105D01*
X59430000Y-60175105D01*
X59430000Y-60944895D01*
X59724586Y-61656090D01*
X60268910Y-62200414D01*
X60980105Y-62495000D01*
X61749895Y-62495000D01*
X62461090Y-62200414D01*
X63005414Y-61656090D01*
X63300000Y-60944895D01*
X63300000Y-60175105D01*
X63005414Y-59463910D01*
X62461090Y-58919586D01*
X61749895Y-58625000D01*
X60980105Y-58625000D01*
X60268910Y-58919586D01*
X59724586Y-59463910D01*
X59430000Y-60175105D01*
X40884341Y-60175105D01*
X43849501Y-57209946D01*
X43970212Y-57159946D01*
X44191036Y-56939122D01*
X44240267Y-56820267D01*
X44359122Y-56771036D01*
X44579946Y-56550212D01*
X44699455Y-56261691D01*
X44699455Y-56060000D01*
X45255824Y-56060000D01*
X45140545Y-56338309D01*
X45140545Y-56650601D01*
X45260054Y-56939122D01*
X45480878Y-57159946D01*
X45769399Y-57279455D01*
X46081691Y-57279455D01*
X46370212Y-57159946D01*
X46591036Y-56939122D01*
X46640267Y-56820267D01*
X46759122Y-56771036D01*
X46979946Y-56550212D01*
X47099455Y-56261691D01*
X47099455Y-56060000D01*
X47655824Y-56060000D01*
X47540545Y-56338309D01*
X47540545Y-56650601D01*
X47660054Y-56939122D01*
X47880878Y-57159946D01*
X48169399Y-57279455D01*
X48481691Y-57279455D01*
X48770212Y-57159946D01*
X48991036Y-56939122D01*
X49040267Y-56820267D01*
X49159122Y-56771036D01*
X49379946Y-56550212D01*
X49499455Y-56261691D01*
X49499455Y-56237100D01*
X49960054Y-56697700D01*
X50060054Y-56939122D01*
X50280878Y-57159946D01*
X50569399Y-57279455D01*
X50881691Y-57279455D01*
X51170212Y-57159946D01*
X51391036Y-56939122D01*
X51440267Y-56820267D01*
X51559122Y-56771036D01*
X51779946Y-56550212D01*
X51867718Y-56338309D01*
X52340545Y-56338309D01*
X52340545Y-56650601D01*
X52460054Y-56939122D01*
X52680878Y-57159946D01*
X52969399Y-57279455D01*
X53281691Y-57279455D01*
X53570212Y-57159946D01*
X53791036Y-56939122D01*
X53840267Y-56820267D01*
X53959122Y-56771036D01*
X54179946Y-56550212D01*
X54299455Y-56261691D01*
X54299455Y-55949399D01*
X54179946Y-55660878D01*
X53959122Y-55440054D01*
X53670601Y-55320545D01*
X53358309Y-55320545D01*
X53069788Y-55440054D01*
X52848964Y-55660878D01*
X52799733Y-55779733D01*
X52680878Y-55828964D01*
X52460054Y-56049788D01*
X52340545Y-56338309D01*
X51867718Y-56338309D01*
X51899455Y-56261691D01*
X51899455Y-55949399D01*
X51779946Y-55660878D01*
X51559122Y-55440054D01*
X51317700Y-55340054D01*
X50384110Y-54406465D01*
X50343104Y-54345095D01*
X50099982Y-54182646D01*
X49885587Y-54140000D01*
X49885583Y-54140000D01*
X49813199Y-54125602D01*
X49740815Y-54140000D01*
X17815697Y-54140000D01*
X17855000Y-54045113D01*
X17855000Y-53354887D01*
X17590862Y-52717201D01*
X17102799Y-52229138D01*
X16465113Y-51965000D01*
X15774887Y-51965000D01*
X15137201Y-52229138D01*
X14649138Y-52717201D01*
X14385000Y-53354887D01*
X14385000Y-54045113D01*
X14517502Y-54365001D01*
X7524183Y-54365001D01*
X7451799Y-54350603D01*
X7379415Y-54365001D01*
X7379412Y-54365001D01*
X7165017Y-54407647D01*
X6921895Y-54570096D01*
X6880891Y-54631464D01*
X4797355Y-56715000D01*
X4574185Y-56715000D01*
X4589185Y-56700000D01*
X4180146Y-56290961D01*
X3993391Y-56286425D01*
X3890432Y-56595968D01*
X3892873Y-56630000D01*
X3856892Y-56630000D01*
X3555507Y-56754837D01*
X3324837Y-56985507D01*
X3200000Y-57286892D01*
X735000Y-57286892D01*
X735000Y-55973391D01*
X4306425Y-55973391D01*
X4310961Y-56160146D01*
X4720000Y-56569185D01*
X5129039Y-56160146D01*
X5133575Y-55973391D01*
X4824032Y-55870432D01*
X4498652Y-55893768D01*
X4306425Y-55973391D01*
X735000Y-55973391D01*
X735000Y-55072388D01*
X749399Y-55000000D01*
X692354Y-54713217D01*
X529905Y-54470095D01*
X286783Y-54307646D01*
X127000Y-54275863D01*
X127000Y-53354887D01*
X2385000Y-53354887D01*
X2385000Y-54045113D01*
X2649138Y-54682799D01*
X3137201Y-55170862D01*
X3774887Y-55435000D01*
X4465113Y-55435000D01*
X5102799Y-55170862D01*
X5590862Y-54682799D01*
X5855000Y-54045113D01*
X5855000Y-53354887D01*
X5590862Y-52717201D01*
X5102799Y-52229138D01*
X4465113Y-51965000D01*
X3774887Y-51965000D01*
X3137201Y-52229138D01*
X2649138Y-52717201D01*
X2385000Y-53354887D01*
X127000Y-53354887D01*
X127000Y-49354887D01*
X2385000Y-49354887D01*
X2385000Y-50045113D01*
X2649138Y-50682799D01*
X3137201Y-51170862D01*
X3774887Y-51435000D01*
X4465113Y-51435000D01*
X5102799Y-51170862D01*
X5590862Y-50682799D01*
X5855000Y-50045113D01*
X5855000Y-49354887D01*
X14385000Y-49354887D01*
X14385000Y-50045113D01*
X14649138Y-50682799D01*
X15137201Y-51170862D01*
X15774887Y-51435000D01*
X16465113Y-51435000D01*
X17102799Y-51170862D01*
X17590862Y-50682799D01*
X17855000Y-50045113D01*
X17855000Y-49354887D01*
X17590862Y-48717201D01*
X17157787Y-48284126D01*
X37085000Y-48284126D01*
X37085000Y-48695874D01*
X37242569Y-49076280D01*
X37533720Y-49367431D01*
X37914126Y-49525000D01*
X38325874Y-49525000D01*
X38706280Y-49367431D01*
X38834585Y-49239126D01*
X39060000Y-49239126D01*
X39060000Y-49650874D01*
X39217569Y-50031280D01*
X39508720Y-50322431D01*
X39889126Y-50480000D01*
X40300874Y-50480000D01*
X40681280Y-50322431D01*
X40972431Y-50031280D01*
X41130000Y-49650874D01*
X41130000Y-49239126D01*
X41119645Y-49214126D01*
X46680000Y-49214126D01*
X46680000Y-49625874D01*
X46837569Y-50006280D01*
X47128720Y-50297431D01*
X47509126Y-50455000D01*
X47920874Y-50455000D01*
X48301280Y-50297431D01*
X48337500Y-50261211D01*
X48398720Y-50322431D01*
X48779126Y-50480000D01*
X49190874Y-50480000D01*
X49571280Y-50322431D01*
X49620000Y-50273711D01*
X49668720Y-50322431D01*
X50049126Y-50480000D01*
X50460874Y-50480000D01*
X50841280Y-50322431D01*
X51132431Y-50031280D01*
X51290000Y-49650874D01*
X51290000Y-49239126D01*
X54275000Y-49239126D01*
X54275000Y-49650874D01*
X54432569Y-50031280D01*
X54723720Y-50322431D01*
X55104126Y-50480000D01*
X55515874Y-50480000D01*
X55896280Y-50322431D01*
X55945000Y-50273711D01*
X55993720Y-50322431D01*
X56374126Y-50480000D01*
X56785874Y-50480000D01*
X57166280Y-50322431D01*
X57227500Y-50261211D01*
X57288720Y-50322431D01*
X57669126Y-50480000D01*
X58080874Y-50480000D01*
X58461280Y-50322431D01*
X58752431Y-50031280D01*
X58910000Y-49650874D01*
X58910000Y-49239126D01*
X58752431Y-48858720D01*
X58461280Y-48567569D01*
X58080874Y-48410000D01*
X57669126Y-48410000D01*
X57288720Y-48567569D01*
X57227500Y-48628789D01*
X57166280Y-48567569D01*
X56785874Y-48410000D01*
X56374126Y-48410000D01*
X55993720Y-48567569D01*
X55945000Y-48616289D01*
X55896280Y-48567569D01*
X55515874Y-48410000D01*
X55104126Y-48410000D01*
X54723720Y-48567569D01*
X54432569Y-48858720D01*
X54275000Y-49239126D01*
X51290000Y-49239126D01*
X51132431Y-48858720D01*
X50841280Y-48567569D01*
X50460874Y-48410000D01*
X50049126Y-48410000D01*
X49668720Y-48567569D01*
X49620000Y-48616289D01*
X49571280Y-48567569D01*
X49190874Y-48410000D01*
X48779126Y-48410000D01*
X48398720Y-48567569D01*
X48362500Y-48603789D01*
X48301280Y-48542569D01*
X47920874Y-48385000D01*
X47509126Y-48385000D01*
X47128720Y-48542569D01*
X46837569Y-48833720D01*
X46680000Y-49214126D01*
X41119645Y-49214126D01*
X40972431Y-48858720D01*
X40681280Y-48567569D01*
X40300874Y-48410000D01*
X39889126Y-48410000D01*
X39508720Y-48567569D01*
X39217569Y-48858720D01*
X39060000Y-49239126D01*
X38834585Y-49239126D01*
X38997431Y-49076280D01*
X39155000Y-48695874D01*
X39155000Y-48284126D01*
X38997431Y-47903720D01*
X38706280Y-47612569D01*
X38325874Y-47455000D01*
X37914126Y-47455000D01*
X37533720Y-47612569D01*
X37242569Y-47903720D01*
X37085000Y-48284126D01*
X17157787Y-48284126D01*
X17102799Y-48229138D01*
X16465113Y-47965000D01*
X15774887Y-47965000D01*
X15137201Y-48229138D01*
X14649138Y-48717201D01*
X14385000Y-49354887D01*
X5855000Y-49354887D01*
X5590862Y-48717201D01*
X5102799Y-48229138D01*
X4465113Y-47965000D01*
X3774887Y-47965000D01*
X3137201Y-48229138D01*
X2649138Y-48717201D01*
X2385000Y-49354887D01*
X127000Y-49354887D01*
X127000Y-45786892D01*
X3200000Y-45786892D01*
X3200000Y-46113108D01*
X3324837Y-46414493D01*
X3555507Y-46645163D01*
X3856892Y-46770000D01*
X4183108Y-46770000D01*
X4484493Y-46645163D01*
X4605117Y-46524539D01*
X4600000Y-46536892D01*
X4600000Y-46863108D01*
X4724837Y-47164493D01*
X4955507Y-47395163D01*
X5256892Y-47520000D01*
X5583108Y-47520000D01*
X5884493Y-47395163D01*
X6115163Y-47164493D01*
X6240000Y-46863108D01*
X6240000Y-46536892D01*
X6115163Y-46235507D01*
X5884493Y-46004837D01*
X5583108Y-45880000D01*
X5256892Y-45880000D01*
X4955507Y-46004837D01*
X4834883Y-46125461D01*
X4840000Y-46113108D01*
X4840000Y-46013501D01*
X4941348Y-46006232D01*
X5133575Y-45926609D01*
X5130182Y-45786892D01*
X7000000Y-45786892D01*
X7000000Y-46113108D01*
X7124837Y-46414493D01*
X7355507Y-46645163D01*
X7656892Y-46770000D01*
X7983108Y-46770000D01*
X8284493Y-46645163D01*
X8405117Y-46524539D01*
X8400000Y-46536892D01*
X8400000Y-46863108D01*
X8524837Y-47164493D01*
X8755507Y-47395163D01*
X9056892Y-47520000D01*
X9383108Y-47520000D01*
X9684493Y-47395163D01*
X9915163Y-47164493D01*
X10040000Y-46863108D01*
X10040000Y-46536892D01*
X9915163Y-46235507D01*
X9684493Y-46004837D01*
X9383108Y-45880000D01*
X9056892Y-45880000D01*
X8755507Y-46004837D01*
X8634883Y-46125461D01*
X8640000Y-46113108D01*
X8640000Y-46013501D01*
X8741348Y-46006232D01*
X8933575Y-45926609D01*
X8929039Y-45739854D01*
X8520000Y-45330815D01*
X8481463Y-45369353D01*
X8350648Y-45238538D01*
X8389185Y-45200000D01*
X7980146Y-44790961D01*
X7793391Y-44786425D01*
X7690432Y-45095968D01*
X7692873Y-45130000D01*
X7656892Y-45130000D01*
X7355507Y-45254837D01*
X7124837Y-45485507D01*
X7000000Y-45786892D01*
X5130182Y-45786892D01*
X5129039Y-45739854D01*
X4720000Y-45330815D01*
X4681463Y-45369353D01*
X4550648Y-45238538D01*
X4589185Y-45200000D01*
X4180146Y-44790961D01*
X3993391Y-44786425D01*
X3890432Y-45095968D01*
X3892873Y-45130000D01*
X3856892Y-45130000D01*
X3555507Y-45254837D01*
X3324837Y-45485507D01*
X3200000Y-45786892D01*
X127000Y-45786892D01*
X127000Y-43536892D01*
X3200000Y-43536892D01*
X3200000Y-43863108D01*
X3324837Y-44164493D01*
X3555507Y-44395163D01*
X3856892Y-44520000D01*
X4183108Y-44520000D01*
X4484493Y-44395163D01*
X4605117Y-44274539D01*
X4600000Y-44286892D01*
X4600000Y-44386499D01*
X4498652Y-44393768D01*
X4306425Y-44473391D01*
X4310961Y-44660146D01*
X4720000Y-45069185D01*
X4758538Y-45030648D01*
X4889353Y-45161463D01*
X4850815Y-45200000D01*
X5259854Y-45609039D01*
X5446609Y-45613575D01*
X5549568Y-45304032D01*
X5547127Y-45270000D01*
X5583108Y-45270000D01*
X5884493Y-45145163D01*
X6115163Y-44914493D01*
X6240000Y-44613108D01*
X6240000Y-44286892D01*
X6115163Y-43985507D01*
X5884493Y-43754837D01*
X5583108Y-43630000D01*
X5256892Y-43630000D01*
X4955507Y-43754837D01*
X4834883Y-43875461D01*
X4840000Y-43863108D01*
X4840000Y-43763501D01*
X4941348Y-43756232D01*
X5133575Y-43676609D01*
X5130182Y-43536892D01*
X7000000Y-43536892D01*
X7000000Y-43863108D01*
X7124837Y-44164493D01*
X7355507Y-44395163D01*
X7656892Y-44520000D01*
X7983108Y-44520000D01*
X8284493Y-44395163D01*
X8405117Y-44274539D01*
X8400000Y-44286892D01*
X8400000Y-44386499D01*
X8298652Y-44393768D01*
X8106425Y-44473391D01*
X8110961Y-44660146D01*
X8520000Y-45069185D01*
X8558538Y-45030648D01*
X8689353Y-45161463D01*
X8650815Y-45200000D01*
X9059854Y-45609039D01*
X9246609Y-45613575D01*
X9349568Y-45304032D01*
X9347127Y-45270000D01*
X9383108Y-45270000D01*
X9684493Y-45145163D01*
X9915163Y-44914493D01*
X10040000Y-44613108D01*
X10040000Y-44286892D01*
X9915163Y-43985507D01*
X9684493Y-43754837D01*
X9383108Y-43630000D01*
X9056892Y-43630000D01*
X8755507Y-43754837D01*
X8634883Y-43875461D01*
X8640000Y-43863108D01*
X8640000Y-43763501D01*
X8741348Y-43756232D01*
X8933575Y-43676609D01*
X8929039Y-43489854D01*
X8520000Y-43080815D01*
X8481463Y-43119353D01*
X8350648Y-42988538D01*
X8389185Y-42950000D01*
X7980146Y-42540961D01*
X7793391Y-42536425D01*
X7690432Y-42845968D01*
X7692873Y-42880000D01*
X7656892Y-42880000D01*
X7355507Y-43004837D01*
X7124837Y-43235507D01*
X7000000Y-43536892D01*
X5130182Y-43536892D01*
X5129039Y-43489854D01*
X4720000Y-43080815D01*
X4681463Y-43119353D01*
X4550648Y-42988538D01*
X4589185Y-42950000D01*
X4180146Y-42540961D01*
X3993391Y-42536425D01*
X3890432Y-42845968D01*
X3892873Y-42880000D01*
X3856892Y-42880000D01*
X3555507Y-43004837D01*
X3324837Y-43235507D01*
X3200000Y-43536892D01*
X127000Y-43536892D01*
X127000Y-41286892D01*
X3200000Y-41286892D01*
X3200000Y-41613108D01*
X3324837Y-41914493D01*
X3555507Y-42145163D01*
X3856892Y-42270000D01*
X4183108Y-42270000D01*
X4388317Y-42185000D01*
X4399109Y-42185000D01*
X4306425Y-42223391D01*
X4310961Y-42410146D01*
X4720000Y-42819185D01*
X4758538Y-42780648D01*
X4889353Y-42911463D01*
X4850815Y-42950000D01*
X5259854Y-43359039D01*
X5446609Y-43363575D01*
X5549568Y-43054032D01*
X5547127Y-43020000D01*
X5583108Y-43020000D01*
X5884493Y-42895163D01*
X6115163Y-42664493D01*
X6240000Y-42363108D01*
X6240000Y-42036892D01*
X6225576Y-42002069D01*
X7041893Y-41185752D01*
X7000000Y-41286892D01*
X7000000Y-41613108D01*
X7124837Y-41914493D01*
X7355507Y-42145163D01*
X7656892Y-42270000D01*
X7983108Y-42270000D01*
X8284493Y-42145163D01*
X8405117Y-42024539D01*
X8400000Y-42036892D01*
X8400000Y-42136499D01*
X8298652Y-42143768D01*
X8106425Y-42223391D01*
X8110961Y-42410146D01*
X8520000Y-42819185D01*
X8558538Y-42780648D01*
X8689353Y-42911463D01*
X8650815Y-42950000D01*
X9059854Y-43359039D01*
X9246609Y-43363575D01*
X9349568Y-43054032D01*
X9347127Y-43020000D01*
X9383108Y-43020000D01*
X9684493Y-42895163D01*
X9915163Y-42664493D01*
X10040000Y-42363108D01*
X10040000Y-42036892D01*
X9915163Y-41735507D01*
X9684493Y-41504837D01*
X9383108Y-41380000D01*
X9056892Y-41380000D01*
X8755507Y-41504837D01*
X8634883Y-41625461D01*
X8640000Y-41613108D01*
X8640000Y-41513501D01*
X8741348Y-41506232D01*
X8933575Y-41426609D01*
X8929039Y-41239854D01*
X8520000Y-40830815D01*
X8481463Y-40869353D01*
X8350648Y-40738538D01*
X8389185Y-40700000D01*
X8350648Y-40661463D01*
X8481463Y-40530648D01*
X8520000Y-40569185D01*
X8558538Y-40530648D01*
X8689353Y-40661463D01*
X8650815Y-40700000D01*
X9059854Y-41109039D01*
X9246609Y-41113575D01*
X9349568Y-40804032D01*
X9326232Y-40478652D01*
X9246609Y-40286425D01*
X9109862Y-40289746D01*
X9114616Y-40284992D01*
X11725384Y-40284992D01*
X11730138Y-40289746D01*
X11593391Y-40286425D01*
X11490432Y-40595968D01*
X11492873Y-40630000D01*
X11456892Y-40630000D01*
X11155507Y-40754837D01*
X10924837Y-40985507D01*
X10800000Y-41286892D01*
X10800000Y-41613108D01*
X10924837Y-41914493D01*
X11155507Y-42145163D01*
X11456892Y-42270000D01*
X11783108Y-42270000D01*
X12084493Y-42145163D01*
X12205117Y-42024539D01*
X12200000Y-42036892D01*
X12200000Y-42136499D01*
X12098652Y-42143768D01*
X11906425Y-42223391D01*
X11910961Y-42410146D01*
X12320000Y-42819185D01*
X12358538Y-42780648D01*
X12489353Y-42911463D01*
X12450815Y-42950000D01*
X12859854Y-43359039D01*
X13046609Y-43363575D01*
X13149568Y-43054032D01*
X13147127Y-43020000D01*
X13183108Y-43020000D01*
X13484493Y-42895163D01*
X13715163Y-42664493D01*
X13840000Y-42363108D01*
X13840000Y-42036892D01*
X13715163Y-41735507D01*
X13484493Y-41504837D01*
X13183108Y-41380000D01*
X12856892Y-41380000D01*
X12555507Y-41504837D01*
X12434883Y-41625461D01*
X12440000Y-41613108D01*
X12440000Y-41513501D01*
X12541348Y-41506232D01*
X12733575Y-41426609D01*
X12729039Y-41239854D01*
X12320000Y-40830815D01*
X12281463Y-40869353D01*
X12150648Y-40738538D01*
X12189185Y-40700000D01*
X12150648Y-40661463D01*
X12281463Y-40530648D01*
X12320000Y-40569185D01*
X12358538Y-40530648D01*
X12489353Y-40661463D01*
X12450815Y-40700000D01*
X12859854Y-41109039D01*
X13046609Y-41113575D01*
X13149568Y-40804032D01*
X13126232Y-40478652D01*
X13046609Y-40286425D01*
X12909862Y-40289746D01*
X12914616Y-40284992D01*
X15525384Y-40284992D01*
X15530138Y-40289746D01*
X15393391Y-40286425D01*
X15290432Y-40595968D01*
X15292873Y-40630000D01*
X15256892Y-40630000D01*
X14955507Y-40754837D01*
X14724837Y-40985507D01*
X14600000Y-41286892D01*
X14600000Y-41613108D01*
X14724837Y-41914493D01*
X14955507Y-42145163D01*
X15256892Y-42270000D01*
X15583108Y-42270000D01*
X15884493Y-42145163D01*
X16005117Y-42024539D01*
X16000000Y-42036892D01*
X16000000Y-42136499D01*
X15898652Y-42143768D01*
X15706425Y-42223391D01*
X15710961Y-42410146D01*
X16120000Y-42819185D01*
X16158538Y-42780648D01*
X16289353Y-42911463D01*
X16250815Y-42950000D01*
X16265815Y-42965000D01*
X15974185Y-42965000D01*
X15989185Y-42950000D01*
X15580146Y-42540961D01*
X15393391Y-42536425D01*
X15290432Y-42845968D01*
X15292873Y-42880000D01*
X15256892Y-42880000D01*
X14955507Y-43004837D01*
X14724837Y-43235507D01*
X14600000Y-43536892D01*
X14600000Y-43863108D01*
X14724837Y-44164493D01*
X14955507Y-44395163D01*
X15256892Y-44520000D01*
X15583108Y-44520000D01*
X15788317Y-44435000D01*
X15799109Y-44435000D01*
X15706425Y-44473391D01*
X15710961Y-44660146D01*
X16120000Y-45069185D01*
X16158538Y-45030648D01*
X16289353Y-45161463D01*
X16250815Y-45200000D01*
X16289353Y-45238538D01*
X16158538Y-45369353D01*
X16120000Y-45330815D01*
X16081463Y-45369353D01*
X15950648Y-45238538D01*
X15989185Y-45200000D01*
X15580146Y-44790961D01*
X15393391Y-44786425D01*
X15290432Y-45095968D01*
X15292873Y-45130000D01*
X15256892Y-45130000D01*
X14955507Y-45254837D01*
X14903094Y-45307250D01*
X13809782Y-44213939D01*
X13715163Y-43985507D01*
X13484493Y-43754837D01*
X13183108Y-43630000D01*
X12856892Y-43630000D01*
X12667779Y-43708333D01*
X12664618Y-43705172D01*
X12733575Y-43676609D01*
X12729039Y-43489854D01*
X12320000Y-43080815D01*
X12281463Y-43119353D01*
X12150648Y-42988538D01*
X12189185Y-42950000D01*
X11780146Y-42540961D01*
X11593391Y-42536425D01*
X11490432Y-42845968D01*
X11492873Y-42880000D01*
X11456892Y-42880000D01*
X11155507Y-43004837D01*
X10924837Y-43235507D01*
X10800000Y-43536892D01*
X10800000Y-43863108D01*
X10924837Y-44164493D01*
X11155507Y-44395163D01*
X11360717Y-44480163D01*
X11668810Y-44788257D01*
X11593391Y-44786425D01*
X11490432Y-45095968D01*
X11492873Y-45130000D01*
X11456892Y-45130000D01*
X11155507Y-45254837D01*
X10924837Y-45485507D01*
X10800000Y-45786892D01*
X10800000Y-46113108D01*
X10924837Y-46414493D01*
X11155507Y-46645163D01*
X11456892Y-46770000D01*
X11783108Y-46770000D01*
X12084493Y-46645163D01*
X12205117Y-46524539D01*
X12200000Y-46536892D01*
X12200000Y-46863108D01*
X12324837Y-47164493D01*
X12555507Y-47395163D01*
X12856892Y-47520000D01*
X13183108Y-47520000D01*
X13484493Y-47395163D01*
X13715163Y-47164493D01*
X13811783Y-46931230D01*
X14534091Y-47653538D01*
X14575096Y-47714906D01*
X14818218Y-47877355D01*
X15032613Y-47920001D01*
X15105001Y-47934400D01*
X15177389Y-47920001D01*
X16980417Y-47920001D01*
X17052801Y-47934399D01*
X17125185Y-47920001D01*
X17125189Y-47920001D01*
X17339584Y-47877355D01*
X17582706Y-47714906D01*
X17619393Y-47660000D01*
X37022616Y-47660000D01*
X37095000Y-47674398D01*
X37167384Y-47660000D01*
X37167388Y-47660000D01*
X37381783Y-47617354D01*
X37624905Y-47454905D01*
X37665911Y-47393535D01*
X40884341Y-44175105D01*
X59430000Y-44175105D01*
X59430000Y-44944895D01*
X59724586Y-45656090D01*
X60268910Y-46200414D01*
X60980105Y-46495000D01*
X61749895Y-46495000D01*
X62461090Y-46200414D01*
X63005414Y-45656090D01*
X63300000Y-44944895D01*
X63300000Y-44175105D01*
X63005414Y-43463910D01*
X62461090Y-42919586D01*
X61749895Y-42625000D01*
X60980105Y-42625000D01*
X60268910Y-42919586D01*
X59724586Y-43463910D01*
X59430000Y-44175105D01*
X40884341Y-44175105D01*
X43849501Y-41209946D01*
X43970212Y-41159946D01*
X44191036Y-40939122D01*
X44240267Y-40820267D01*
X44359122Y-40771036D01*
X44579946Y-40550212D01*
X44699455Y-40261691D01*
X44699455Y-40060000D01*
X45255824Y-40060000D01*
X45140545Y-40338309D01*
X45140545Y-40650601D01*
X45260054Y-40939122D01*
X45480878Y-41159946D01*
X45769399Y-41279455D01*
X46081691Y-41279455D01*
X46370212Y-41159946D01*
X46591036Y-40939122D01*
X46640267Y-40820267D01*
X46759122Y-40771036D01*
X46979946Y-40550212D01*
X47099455Y-40261691D01*
X47099455Y-40060000D01*
X47655824Y-40060000D01*
X47540545Y-40338309D01*
X47540545Y-40650601D01*
X47660054Y-40939122D01*
X47880878Y-41159946D01*
X48169399Y-41279455D01*
X48481691Y-41279455D01*
X48770212Y-41159946D01*
X48991036Y-40939122D01*
X49040267Y-40820267D01*
X49159122Y-40771036D01*
X49379946Y-40550212D01*
X49499455Y-40261691D01*
X49499455Y-40237100D01*
X49960054Y-40697700D01*
X50060054Y-40939122D01*
X50280878Y-41159946D01*
X50569399Y-41279455D01*
X50881691Y-41279455D01*
X51170212Y-41159946D01*
X51391036Y-40939122D01*
X51440267Y-40820267D01*
X51559122Y-40771036D01*
X51779946Y-40550212D01*
X51867718Y-40338309D01*
X52340545Y-40338309D01*
X52340545Y-40650601D01*
X52460054Y-40939122D01*
X52680878Y-41159946D01*
X52969399Y-41279455D01*
X53281691Y-41279455D01*
X53570212Y-41159946D01*
X53791036Y-40939122D01*
X53840267Y-40820267D01*
X53959122Y-40771036D01*
X54179946Y-40550212D01*
X54299455Y-40261691D01*
X54299455Y-39949399D01*
X54179946Y-39660878D01*
X53959122Y-39440054D01*
X53670601Y-39320545D01*
X53358309Y-39320545D01*
X53069788Y-39440054D01*
X52848964Y-39660878D01*
X52799733Y-39779733D01*
X52680878Y-39828964D01*
X52460054Y-40049788D01*
X52340545Y-40338309D01*
X51867718Y-40338309D01*
X51899455Y-40261691D01*
X51899455Y-39949399D01*
X51779946Y-39660878D01*
X51559122Y-39440054D01*
X51317700Y-39340054D01*
X50384110Y-38406465D01*
X50343104Y-38345095D01*
X50099982Y-38182646D01*
X49885587Y-38140000D01*
X49885583Y-38140000D01*
X49813199Y-38125602D01*
X49740815Y-38140000D01*
X17815697Y-38140000D01*
X17855000Y-38045113D01*
X17855000Y-37354887D01*
X17590862Y-36717201D01*
X17102799Y-36229138D01*
X16465113Y-35965000D01*
X15774887Y-35965000D01*
X15137201Y-36229138D01*
X14649138Y-36717201D01*
X14385000Y-37354887D01*
X14385000Y-38045113D01*
X14517502Y-38365001D01*
X7524183Y-38365001D01*
X7451799Y-38350603D01*
X7379415Y-38365001D01*
X7379412Y-38365001D01*
X7165017Y-38407647D01*
X6921895Y-38570096D01*
X6880891Y-38631464D01*
X4797355Y-40715000D01*
X4574185Y-40715000D01*
X4589185Y-40700000D01*
X4180146Y-40290961D01*
X3993391Y-40286425D01*
X3890432Y-40595968D01*
X3892873Y-40630000D01*
X3856892Y-40630000D01*
X3555507Y-40754837D01*
X3324837Y-40985507D01*
X3200000Y-41286892D01*
X127000Y-41286892D01*
X127000Y-39973391D01*
X4306425Y-39973391D01*
X4310961Y-40160146D01*
X4720000Y-40569185D01*
X5129039Y-40160146D01*
X5133575Y-39973391D01*
X4824032Y-39870432D01*
X4498652Y-39893768D01*
X4306425Y-39973391D01*
X127000Y-39973391D01*
X127000Y-37354887D01*
X2385000Y-37354887D01*
X2385000Y-38045113D01*
X2649138Y-38682799D01*
X3137201Y-39170862D01*
X3774887Y-39435000D01*
X4465113Y-39435000D01*
X5102799Y-39170862D01*
X5590862Y-38682799D01*
X5855000Y-38045113D01*
X5855000Y-37354887D01*
X5590862Y-36717201D01*
X5102799Y-36229138D01*
X4465113Y-35965000D01*
X3774887Y-35965000D01*
X3137201Y-36229138D01*
X2649138Y-36717201D01*
X2385000Y-37354887D01*
X127000Y-37354887D01*
X127000Y-33354887D01*
X2385000Y-33354887D01*
X2385000Y-34045113D01*
X2649138Y-34682799D01*
X3137201Y-35170862D01*
X3774887Y-35435000D01*
X4465113Y-35435000D01*
X5102799Y-35170862D01*
X5590862Y-34682799D01*
X5855000Y-34045113D01*
X5855000Y-33354887D01*
X14385000Y-33354887D01*
X14385000Y-34045113D01*
X14649138Y-34682799D01*
X15137201Y-35170862D01*
X15774887Y-35435000D01*
X16465113Y-35435000D01*
X17102799Y-35170862D01*
X17590862Y-34682799D01*
X17855000Y-34045113D01*
X17855000Y-33354887D01*
X17590862Y-32717201D01*
X17157787Y-32284126D01*
X37085000Y-32284126D01*
X37085000Y-32695874D01*
X37242569Y-33076280D01*
X37533720Y-33367431D01*
X37914126Y-33525000D01*
X38325874Y-33525000D01*
X38706280Y-33367431D01*
X38834585Y-33239126D01*
X39060000Y-33239126D01*
X39060000Y-33650874D01*
X39217569Y-34031280D01*
X39508720Y-34322431D01*
X39889126Y-34480000D01*
X40300874Y-34480000D01*
X40681280Y-34322431D01*
X40972431Y-34031280D01*
X41130000Y-33650874D01*
X41130000Y-33239126D01*
X41119645Y-33214126D01*
X46680000Y-33214126D01*
X46680000Y-33625874D01*
X46837569Y-34006280D01*
X47128720Y-34297431D01*
X47509126Y-34455000D01*
X47920874Y-34455000D01*
X48301280Y-34297431D01*
X48337500Y-34261211D01*
X48398720Y-34322431D01*
X48779126Y-34480000D01*
X49190874Y-34480000D01*
X49571280Y-34322431D01*
X49620000Y-34273711D01*
X49668720Y-34322431D01*
X50049126Y-34480000D01*
X50460874Y-34480000D01*
X50841280Y-34322431D01*
X51132431Y-34031280D01*
X51290000Y-33650874D01*
X51290000Y-33239126D01*
X54275000Y-33239126D01*
X54275000Y-33650874D01*
X54432569Y-34031280D01*
X54723720Y-34322431D01*
X55104126Y-34480000D01*
X55515874Y-34480000D01*
X55896280Y-34322431D01*
X55945000Y-34273711D01*
X55993720Y-34322431D01*
X56374126Y-34480000D01*
X56785874Y-34480000D01*
X57166280Y-34322431D01*
X57227500Y-34261211D01*
X57288720Y-34322431D01*
X57669126Y-34480000D01*
X58080874Y-34480000D01*
X58461280Y-34322431D01*
X58752431Y-34031280D01*
X58910000Y-33650874D01*
X58910000Y-33239126D01*
X58752431Y-32858720D01*
X58461280Y-32567569D01*
X58080874Y-32410000D01*
X57669126Y-32410000D01*
X57288720Y-32567569D01*
X57227500Y-32628789D01*
X57166280Y-32567569D01*
X56785874Y-32410000D01*
X56374126Y-32410000D01*
X55993720Y-32567569D01*
X55945000Y-32616289D01*
X55896280Y-32567569D01*
X55515874Y-32410000D01*
X55104126Y-32410000D01*
X54723720Y-32567569D01*
X54432569Y-32858720D01*
X54275000Y-33239126D01*
X51290000Y-33239126D01*
X51132431Y-32858720D01*
X50841280Y-32567569D01*
X50460874Y-32410000D01*
X50049126Y-32410000D01*
X49668720Y-32567569D01*
X49620000Y-32616289D01*
X49571280Y-32567569D01*
X49190874Y-32410000D01*
X48779126Y-32410000D01*
X48398720Y-32567569D01*
X48362500Y-32603789D01*
X48301280Y-32542569D01*
X47920874Y-32385000D01*
X47509126Y-32385000D01*
X47128720Y-32542569D01*
X46837569Y-32833720D01*
X46680000Y-33214126D01*
X41119645Y-33214126D01*
X40972431Y-32858720D01*
X40681280Y-32567569D01*
X40300874Y-32410000D01*
X39889126Y-32410000D01*
X39508720Y-32567569D01*
X39217569Y-32858720D01*
X39060000Y-33239126D01*
X38834585Y-33239126D01*
X38997431Y-33076280D01*
X39155000Y-32695874D01*
X39155000Y-32284126D01*
X38997431Y-31903720D01*
X38706280Y-31612569D01*
X38325874Y-31455000D01*
X37914126Y-31455000D01*
X37533720Y-31612569D01*
X37242569Y-31903720D01*
X37085000Y-32284126D01*
X17157787Y-32284126D01*
X17102799Y-32229138D01*
X16465113Y-31965000D01*
X15774887Y-31965000D01*
X15137201Y-32229138D01*
X14649138Y-32717201D01*
X14385000Y-33354887D01*
X5855000Y-33354887D01*
X5590862Y-32717201D01*
X5102799Y-32229138D01*
X4465113Y-31965000D01*
X3774887Y-31965000D01*
X3137201Y-32229138D01*
X2649138Y-32717201D01*
X2385000Y-33354887D01*
X127000Y-33354887D01*
X127000Y-29786892D01*
X3200000Y-29786892D01*
X3200000Y-30113108D01*
X3324837Y-30414493D01*
X3555507Y-30645163D01*
X3856892Y-30770000D01*
X4183108Y-30770000D01*
X4484493Y-30645163D01*
X4605117Y-30524539D01*
X4600000Y-30536892D01*
X4600000Y-30863108D01*
X4724837Y-31164493D01*
X4955507Y-31395163D01*
X5256892Y-31520000D01*
X5583108Y-31520000D01*
X5884493Y-31395163D01*
X6115163Y-31164493D01*
X6240000Y-30863108D01*
X6240000Y-30536892D01*
X6115163Y-30235507D01*
X5884493Y-30004837D01*
X5583108Y-29880000D01*
X5256892Y-29880000D01*
X4955507Y-30004837D01*
X4834883Y-30125461D01*
X4840000Y-30113108D01*
X4840000Y-30013501D01*
X4941348Y-30006232D01*
X5133575Y-29926609D01*
X5130182Y-29786892D01*
X7000000Y-29786892D01*
X7000000Y-30113108D01*
X7124837Y-30414493D01*
X7355507Y-30645163D01*
X7656892Y-30770000D01*
X7983108Y-30770000D01*
X8284493Y-30645163D01*
X8405117Y-30524539D01*
X8400000Y-30536892D01*
X8400000Y-30863108D01*
X8524837Y-31164493D01*
X8755507Y-31395163D01*
X9056892Y-31520000D01*
X9383108Y-31520000D01*
X9684493Y-31395163D01*
X9915163Y-31164493D01*
X10040000Y-30863108D01*
X10040000Y-30536892D01*
X9915163Y-30235507D01*
X9684493Y-30004837D01*
X9383108Y-29880000D01*
X9056892Y-29880000D01*
X8755507Y-30004837D01*
X8634883Y-30125461D01*
X8640000Y-30113108D01*
X8640000Y-30013501D01*
X8741348Y-30006232D01*
X8933575Y-29926609D01*
X8929039Y-29739854D01*
X8520000Y-29330815D01*
X8481463Y-29369353D01*
X8350648Y-29238538D01*
X8389185Y-29200000D01*
X7980146Y-28790961D01*
X7793391Y-28786425D01*
X7690432Y-29095968D01*
X7692873Y-29130000D01*
X7656892Y-29130000D01*
X7355507Y-29254837D01*
X7124837Y-29485507D01*
X7000000Y-29786892D01*
X5130182Y-29786892D01*
X5129039Y-29739854D01*
X4720000Y-29330815D01*
X4681463Y-29369353D01*
X4550648Y-29238538D01*
X4589185Y-29200000D01*
X4180146Y-28790961D01*
X3993391Y-28786425D01*
X3890432Y-29095968D01*
X3892873Y-29130000D01*
X3856892Y-29130000D01*
X3555507Y-29254837D01*
X3324837Y-29485507D01*
X3200000Y-29786892D01*
X127000Y-29786892D01*
X127000Y-27536892D01*
X3200000Y-27536892D01*
X3200000Y-27863108D01*
X3324837Y-28164493D01*
X3555507Y-28395163D01*
X3856892Y-28520000D01*
X4183108Y-28520000D01*
X4484493Y-28395163D01*
X4605117Y-28274539D01*
X4600000Y-28286892D01*
X4600000Y-28386499D01*
X4498652Y-28393768D01*
X4306425Y-28473391D01*
X4310961Y-28660146D01*
X4720000Y-29069185D01*
X4758538Y-29030648D01*
X4889353Y-29161463D01*
X4850815Y-29200000D01*
X5259854Y-29609039D01*
X5446609Y-29613575D01*
X5549568Y-29304032D01*
X5547127Y-29270000D01*
X5583108Y-29270000D01*
X5884493Y-29145163D01*
X6115163Y-28914493D01*
X6240000Y-28613108D01*
X6240000Y-28286892D01*
X6115163Y-27985507D01*
X5884493Y-27754837D01*
X5583108Y-27630000D01*
X5256892Y-27630000D01*
X4955507Y-27754837D01*
X4834883Y-27875461D01*
X4840000Y-27863108D01*
X4840000Y-27763501D01*
X4941348Y-27756232D01*
X5133575Y-27676609D01*
X5130182Y-27536892D01*
X7000000Y-27536892D01*
X7000000Y-27863108D01*
X7124837Y-28164493D01*
X7355507Y-28395163D01*
X7656892Y-28520000D01*
X7983108Y-28520000D01*
X8284493Y-28395163D01*
X8405117Y-28274539D01*
X8400000Y-28286892D01*
X8400000Y-28386499D01*
X8298652Y-28393768D01*
X8106425Y-28473391D01*
X8110961Y-28660146D01*
X8520000Y-29069185D01*
X8558538Y-29030648D01*
X8689353Y-29161463D01*
X8650815Y-29200000D01*
X9059854Y-29609039D01*
X9246609Y-29613575D01*
X9349568Y-29304032D01*
X9347127Y-29270000D01*
X9383108Y-29270000D01*
X9684493Y-29145163D01*
X9915163Y-28914493D01*
X10040000Y-28613108D01*
X10040000Y-28286892D01*
X9915163Y-27985507D01*
X9684493Y-27754837D01*
X9383108Y-27630000D01*
X9056892Y-27630000D01*
X8755507Y-27754837D01*
X8634883Y-27875461D01*
X8640000Y-27863108D01*
X8640000Y-27763501D01*
X8741348Y-27756232D01*
X8933575Y-27676609D01*
X8929039Y-27489854D01*
X8520000Y-27080815D01*
X8481463Y-27119353D01*
X8350648Y-26988538D01*
X8389185Y-26950000D01*
X7980146Y-26540961D01*
X7793391Y-26536425D01*
X7690432Y-26845968D01*
X7692873Y-26880000D01*
X7656892Y-26880000D01*
X7355507Y-27004837D01*
X7124837Y-27235507D01*
X7000000Y-27536892D01*
X5130182Y-27536892D01*
X5129039Y-27489854D01*
X4720000Y-27080815D01*
X4681463Y-27119353D01*
X4550648Y-26988538D01*
X4589185Y-26950000D01*
X4180146Y-26540961D01*
X3993391Y-26536425D01*
X3890432Y-26845968D01*
X3892873Y-26880000D01*
X3856892Y-26880000D01*
X3555507Y-27004837D01*
X3324837Y-27235507D01*
X3200000Y-27536892D01*
X127000Y-27536892D01*
X127000Y-25286892D01*
X3200000Y-25286892D01*
X3200000Y-25613108D01*
X3324837Y-25914493D01*
X3555507Y-26145163D01*
X3856892Y-26270000D01*
X4183108Y-26270000D01*
X4388317Y-26185000D01*
X4399109Y-26185000D01*
X4306425Y-26223391D01*
X4310961Y-26410146D01*
X4720000Y-26819185D01*
X4758538Y-26780648D01*
X4889353Y-26911463D01*
X4850815Y-26950000D01*
X5259854Y-27359039D01*
X5446609Y-27363575D01*
X5549568Y-27054032D01*
X5547127Y-27020000D01*
X5583108Y-27020000D01*
X5884493Y-26895163D01*
X6115163Y-26664493D01*
X6240000Y-26363108D01*
X6240000Y-26036892D01*
X6225576Y-26002069D01*
X7041893Y-25185752D01*
X7000000Y-25286892D01*
X7000000Y-25613108D01*
X7124837Y-25914493D01*
X7355507Y-26145163D01*
X7656892Y-26270000D01*
X7983108Y-26270000D01*
X8284493Y-26145163D01*
X8405117Y-26024539D01*
X8400000Y-26036892D01*
X8400000Y-26136499D01*
X8298652Y-26143768D01*
X8106425Y-26223391D01*
X8110961Y-26410146D01*
X8520000Y-26819185D01*
X8558538Y-26780648D01*
X8689353Y-26911463D01*
X8650815Y-26950000D01*
X9059854Y-27359039D01*
X9246609Y-27363575D01*
X9349568Y-27054032D01*
X9347127Y-27020000D01*
X9383108Y-27020000D01*
X9684493Y-26895163D01*
X9915163Y-26664493D01*
X10040000Y-26363108D01*
X10040000Y-26036892D01*
X9915163Y-25735507D01*
X9684493Y-25504837D01*
X9383108Y-25380000D01*
X9056892Y-25380000D01*
X8755507Y-25504837D01*
X8634883Y-25625461D01*
X8640000Y-25613108D01*
X8640000Y-25513501D01*
X8741348Y-25506232D01*
X8933575Y-25426609D01*
X8929039Y-25239854D01*
X8520000Y-24830815D01*
X8481463Y-24869353D01*
X8350648Y-24738538D01*
X8389185Y-24700000D01*
X8350648Y-24661463D01*
X8481463Y-24530648D01*
X8520000Y-24569185D01*
X8558538Y-24530648D01*
X8689353Y-24661463D01*
X8650815Y-24700000D01*
X9059854Y-25109039D01*
X9246609Y-25113575D01*
X9349568Y-24804032D01*
X9326232Y-24478652D01*
X9246609Y-24286425D01*
X9109862Y-24289746D01*
X9114616Y-24284992D01*
X11725384Y-24284992D01*
X11730138Y-24289746D01*
X11593391Y-24286425D01*
X11490432Y-24595968D01*
X11492873Y-24630000D01*
X11456892Y-24630000D01*
X11155507Y-24754837D01*
X10924837Y-24985507D01*
X10800000Y-25286892D01*
X10800000Y-25613108D01*
X10924837Y-25914493D01*
X11155507Y-26145163D01*
X11456892Y-26270000D01*
X11783108Y-26270000D01*
X12084493Y-26145163D01*
X12205117Y-26024539D01*
X12200000Y-26036892D01*
X12200000Y-26136499D01*
X12098652Y-26143768D01*
X11906425Y-26223391D01*
X11910961Y-26410146D01*
X12320000Y-26819185D01*
X12358538Y-26780648D01*
X12489353Y-26911463D01*
X12450815Y-26950000D01*
X12859854Y-27359039D01*
X13046609Y-27363575D01*
X13149568Y-27054032D01*
X13147127Y-27020000D01*
X13183108Y-27020000D01*
X13484493Y-26895163D01*
X13715163Y-26664493D01*
X13840000Y-26363108D01*
X13840000Y-26036892D01*
X13715163Y-25735507D01*
X13484493Y-25504837D01*
X13183108Y-25380000D01*
X12856892Y-25380000D01*
X12555507Y-25504837D01*
X12434883Y-25625461D01*
X12440000Y-25613108D01*
X12440000Y-25513501D01*
X12541348Y-25506232D01*
X12733575Y-25426609D01*
X12729039Y-25239854D01*
X12320000Y-24830815D01*
X12281463Y-24869353D01*
X12150648Y-24738538D01*
X12189185Y-24700000D01*
X12150648Y-24661463D01*
X12281463Y-24530648D01*
X12320000Y-24569185D01*
X12358538Y-24530648D01*
X12489353Y-24661463D01*
X12450815Y-24700000D01*
X12859854Y-25109039D01*
X13046609Y-25113575D01*
X13149568Y-24804032D01*
X13126232Y-24478652D01*
X13046609Y-24286425D01*
X12909862Y-24289746D01*
X12914616Y-24284992D01*
X15525384Y-24284992D01*
X15530138Y-24289746D01*
X15393391Y-24286425D01*
X15290432Y-24595968D01*
X15292873Y-24630000D01*
X15256892Y-24630000D01*
X14955507Y-24754837D01*
X14724837Y-24985507D01*
X14600000Y-25286892D01*
X14600000Y-25613108D01*
X14724837Y-25914493D01*
X14955507Y-26145163D01*
X15256892Y-26270000D01*
X15583108Y-26270000D01*
X15884493Y-26145163D01*
X16005117Y-26024539D01*
X16000000Y-26036892D01*
X16000000Y-26136499D01*
X15898652Y-26143768D01*
X15706425Y-26223391D01*
X15710961Y-26410146D01*
X16120000Y-26819185D01*
X16158538Y-26780648D01*
X16289353Y-26911463D01*
X16250815Y-26950000D01*
X16265815Y-26965000D01*
X15974185Y-26965000D01*
X15989185Y-26950000D01*
X15580146Y-26540961D01*
X15393391Y-26536425D01*
X15290432Y-26845968D01*
X15292873Y-26880000D01*
X15256892Y-26880000D01*
X14955507Y-27004837D01*
X14724837Y-27235507D01*
X14600000Y-27536892D01*
X14600000Y-27863108D01*
X14724837Y-28164493D01*
X14955507Y-28395163D01*
X15256892Y-28520000D01*
X15583108Y-28520000D01*
X15788317Y-28435000D01*
X15799109Y-28435000D01*
X15706425Y-28473391D01*
X15710961Y-28660146D01*
X16120000Y-29069185D01*
X16158538Y-29030648D01*
X16289353Y-29161463D01*
X16250815Y-29200000D01*
X16289353Y-29238538D01*
X16158538Y-29369353D01*
X16120000Y-29330815D01*
X16081463Y-29369353D01*
X15950648Y-29238538D01*
X15989185Y-29200000D01*
X15580146Y-28790961D01*
X15393391Y-28786425D01*
X15290432Y-29095968D01*
X15292873Y-29130000D01*
X15256892Y-29130000D01*
X14955507Y-29254837D01*
X14903094Y-29307250D01*
X13809782Y-28213939D01*
X13715163Y-27985507D01*
X13484493Y-27754837D01*
X13183108Y-27630000D01*
X12856892Y-27630000D01*
X12667779Y-27708333D01*
X12664618Y-27705172D01*
X12733575Y-27676609D01*
X12729039Y-27489854D01*
X12320000Y-27080815D01*
X12281463Y-27119353D01*
X12150648Y-26988538D01*
X12189185Y-26950000D01*
X11780146Y-26540961D01*
X11593391Y-26536425D01*
X11490432Y-26845968D01*
X11492873Y-26880000D01*
X11456892Y-26880000D01*
X11155507Y-27004837D01*
X10924837Y-27235507D01*
X10800000Y-27536892D01*
X10800000Y-27863108D01*
X10924837Y-28164493D01*
X11155507Y-28395163D01*
X11360717Y-28480163D01*
X11668810Y-28788257D01*
X11593391Y-28786425D01*
X11490432Y-29095968D01*
X11492873Y-29130000D01*
X11456892Y-29130000D01*
X11155507Y-29254837D01*
X10924837Y-29485507D01*
X10800000Y-29786892D01*
X10800000Y-30113108D01*
X10924837Y-30414493D01*
X11155507Y-30645163D01*
X11456892Y-30770000D01*
X11783108Y-30770000D01*
X12084493Y-30645163D01*
X12205117Y-30524539D01*
X12200000Y-30536892D01*
X12200000Y-30863108D01*
X12324837Y-31164493D01*
X12555507Y-31395163D01*
X12856892Y-31520000D01*
X13183108Y-31520000D01*
X13484493Y-31395163D01*
X13715163Y-31164493D01*
X13811783Y-30931230D01*
X14534091Y-31653538D01*
X14575096Y-31714906D01*
X14818218Y-31877355D01*
X15032613Y-31920001D01*
X15105001Y-31934400D01*
X15177389Y-31920001D01*
X16980417Y-31920001D01*
X17052801Y-31934399D01*
X17125185Y-31920001D01*
X17125189Y-31920001D01*
X17339584Y-31877355D01*
X17582706Y-31714906D01*
X17619393Y-31660000D01*
X37022616Y-31660000D01*
X37095000Y-31674398D01*
X37167384Y-31660000D01*
X37167388Y-31660000D01*
X37381783Y-31617354D01*
X37624905Y-31454905D01*
X37665911Y-31393535D01*
X40884341Y-28175105D01*
X59430000Y-28175105D01*
X59430000Y-28944895D01*
X59724586Y-29656090D01*
X60268910Y-30200414D01*
X60980105Y-30495000D01*
X61749895Y-30495000D01*
X62461090Y-30200414D01*
X63005414Y-29656090D01*
X63300000Y-28944895D01*
X63300000Y-28175105D01*
X63005414Y-27463910D01*
X62461090Y-26919586D01*
X61749895Y-26625000D01*
X60980105Y-26625000D01*
X60268910Y-26919586D01*
X59724586Y-27463910D01*
X59430000Y-28175105D01*
X40884341Y-28175105D01*
X43849501Y-25209946D01*
X43970212Y-25159946D01*
X44191036Y-24939122D01*
X44240267Y-24820267D01*
X44359122Y-24771036D01*
X44579946Y-24550212D01*
X44699455Y-24261691D01*
X44699455Y-24060000D01*
X45255824Y-24060000D01*
X45140545Y-24338309D01*
X45140545Y-24650601D01*
X45260054Y-24939122D01*
X45480878Y-25159946D01*
X45769399Y-25279455D01*
X46081691Y-25279455D01*
X46370212Y-25159946D01*
X46591036Y-24939122D01*
X46640267Y-24820267D01*
X46759122Y-24771036D01*
X46979946Y-24550212D01*
X47099455Y-24261691D01*
X47099455Y-24060000D01*
X47655824Y-24060000D01*
X47540545Y-24338309D01*
X47540545Y-24650601D01*
X47660054Y-24939122D01*
X47880878Y-25159946D01*
X48169399Y-25279455D01*
X48481691Y-25279455D01*
X48770212Y-25159946D01*
X48991036Y-24939122D01*
X49040267Y-24820267D01*
X49159122Y-24771036D01*
X49379946Y-24550212D01*
X49499455Y-24261691D01*
X49499455Y-24237100D01*
X49960054Y-24697700D01*
X50060054Y-24939122D01*
X50280878Y-25159946D01*
X50569399Y-25279455D01*
X50881691Y-25279455D01*
X51170212Y-25159946D01*
X51391036Y-24939122D01*
X51440267Y-24820267D01*
X51559122Y-24771036D01*
X51779946Y-24550212D01*
X51867718Y-24338309D01*
X52340545Y-24338309D01*
X52340545Y-24650601D01*
X52460054Y-24939122D01*
X52680878Y-25159946D01*
X52969399Y-25279455D01*
X53281691Y-25279455D01*
X53570212Y-25159946D01*
X53791036Y-24939122D01*
X53840267Y-24820267D01*
X53959122Y-24771036D01*
X54179946Y-24550212D01*
X54299455Y-24261691D01*
X54299455Y-23949399D01*
X54179946Y-23660878D01*
X53959122Y-23440054D01*
X53670601Y-23320545D01*
X53358309Y-23320545D01*
X53069788Y-23440054D01*
X52848964Y-23660878D01*
X52799733Y-23779733D01*
X52680878Y-23828964D01*
X52460054Y-24049788D01*
X52340545Y-24338309D01*
X51867718Y-24338309D01*
X51899455Y-24261691D01*
X51899455Y-23949399D01*
X51779946Y-23660878D01*
X51559122Y-23440054D01*
X51317700Y-23340054D01*
X50384110Y-22406465D01*
X50343104Y-22345095D01*
X50099982Y-22182646D01*
X49885587Y-22140000D01*
X49885583Y-22140000D01*
X49813199Y-22125602D01*
X49740815Y-22140000D01*
X17815697Y-22140000D01*
X17855000Y-22045113D01*
X17855000Y-21354887D01*
X17590862Y-20717201D01*
X17102799Y-20229138D01*
X16465113Y-19965000D01*
X15774887Y-19965000D01*
X15137201Y-20229138D01*
X14649138Y-20717201D01*
X14385000Y-21354887D01*
X14385000Y-22045113D01*
X14517502Y-22365001D01*
X7524183Y-22365001D01*
X7451799Y-22350603D01*
X7379415Y-22365001D01*
X7379412Y-22365001D01*
X7165017Y-22407647D01*
X6921895Y-22570096D01*
X6880891Y-22631464D01*
X4797355Y-24715000D01*
X4574185Y-24715000D01*
X4589185Y-24700000D01*
X4180146Y-24290961D01*
X3993391Y-24286425D01*
X3890432Y-24595968D01*
X3892873Y-24630000D01*
X3856892Y-24630000D01*
X3555507Y-24754837D01*
X3324837Y-24985507D01*
X3200000Y-25286892D01*
X127000Y-25286892D01*
X127000Y-23973391D01*
X4306425Y-23973391D01*
X4310961Y-24160146D01*
X4720000Y-24569185D01*
X5129039Y-24160146D01*
X5133575Y-23973391D01*
X4824032Y-23870432D01*
X4498652Y-23893768D01*
X4306425Y-23973391D01*
X127000Y-23973391D01*
X127000Y-21354887D01*
X2385000Y-21354887D01*
X2385000Y-22045113D01*
X2649138Y-22682799D01*
X3137201Y-23170862D01*
X3774887Y-23435000D01*
X4465113Y-23435000D01*
X5102799Y-23170862D01*
X5590862Y-22682799D01*
X5855000Y-22045113D01*
X5855000Y-21354887D01*
X5590862Y-20717201D01*
X5102799Y-20229138D01*
X4465113Y-19965000D01*
X3774887Y-19965000D01*
X3137201Y-20229138D01*
X2649138Y-20717201D01*
X2385000Y-21354887D01*
X127000Y-21354887D01*
X127000Y-17524137D01*
X286783Y-17492354D01*
X492516Y-17354887D01*
X2385000Y-17354887D01*
X2385000Y-18045113D01*
X2649138Y-18682799D01*
X3137201Y-19170862D01*
X3774887Y-19435000D01*
X4465113Y-19435000D01*
X5102799Y-19170862D01*
X5590862Y-18682799D01*
X5855000Y-18045113D01*
X5855000Y-17354887D01*
X14385000Y-17354887D01*
X14385000Y-18045113D01*
X14649138Y-18682799D01*
X15137201Y-19170862D01*
X15774887Y-19435000D01*
X16465113Y-19435000D01*
X17102799Y-19170862D01*
X17590862Y-18682799D01*
X17855000Y-18045113D01*
X17855000Y-17354887D01*
X17590862Y-16717201D01*
X17157787Y-16284126D01*
X37085000Y-16284126D01*
X37085000Y-16695874D01*
X37242569Y-17076280D01*
X37533720Y-17367431D01*
X37914126Y-17525000D01*
X38325874Y-17525000D01*
X38706280Y-17367431D01*
X38834585Y-17239126D01*
X39060000Y-17239126D01*
X39060000Y-17650874D01*
X39217569Y-18031280D01*
X39508720Y-18322431D01*
X39889126Y-18480000D01*
X40300874Y-18480000D01*
X40681280Y-18322431D01*
X40972431Y-18031280D01*
X41130000Y-17650874D01*
X41130000Y-17239126D01*
X41119645Y-17214126D01*
X46680000Y-17214126D01*
X46680000Y-17625874D01*
X46837569Y-18006280D01*
X47128720Y-18297431D01*
X47509126Y-18455000D01*
X47920874Y-18455000D01*
X48301280Y-18297431D01*
X48337500Y-18261211D01*
X48398720Y-18322431D01*
X48779126Y-18480000D01*
X49190874Y-18480000D01*
X49571280Y-18322431D01*
X49620000Y-18273711D01*
X49668720Y-18322431D01*
X50049126Y-18480000D01*
X50460874Y-18480000D01*
X50841280Y-18322431D01*
X51132431Y-18031280D01*
X51290000Y-17650874D01*
X51290000Y-17239126D01*
X54275000Y-17239126D01*
X54275000Y-17650874D01*
X54432569Y-18031280D01*
X54723720Y-18322431D01*
X55104126Y-18480000D01*
X55515874Y-18480000D01*
X55896280Y-18322431D01*
X55945000Y-18273711D01*
X55993720Y-18322431D01*
X56374126Y-18480000D01*
X56785874Y-18480000D01*
X57166280Y-18322431D01*
X57227500Y-18261211D01*
X57288720Y-18322431D01*
X57669126Y-18480000D01*
X58080874Y-18480000D01*
X58461280Y-18322431D01*
X58752431Y-18031280D01*
X58910000Y-17650874D01*
X58910000Y-17239126D01*
X58752431Y-16858720D01*
X58461280Y-16567569D01*
X58080874Y-16410000D01*
X57669126Y-16410000D01*
X57288720Y-16567569D01*
X57227500Y-16628789D01*
X57166280Y-16567569D01*
X56785874Y-16410000D01*
X56374126Y-16410000D01*
X55993720Y-16567569D01*
X55945000Y-16616289D01*
X55896280Y-16567569D01*
X55515874Y-16410000D01*
X55104126Y-16410000D01*
X54723720Y-16567569D01*
X54432569Y-16858720D01*
X54275000Y-17239126D01*
X51290000Y-17239126D01*
X51132431Y-16858720D01*
X50841280Y-16567569D01*
X50460874Y-16410000D01*
X50049126Y-16410000D01*
X49668720Y-16567569D01*
X49620000Y-16616289D01*
X49571280Y-16567569D01*
X49190874Y-16410000D01*
X48779126Y-16410000D01*
X48398720Y-16567569D01*
X48362500Y-16603789D01*
X48301280Y-16542569D01*
X47920874Y-16385000D01*
X47509126Y-16385000D01*
X47128720Y-16542569D01*
X46837569Y-16833720D01*
X46680000Y-17214126D01*
X41119645Y-17214126D01*
X40972431Y-16858720D01*
X40681280Y-16567569D01*
X40300874Y-16410000D01*
X39889126Y-16410000D01*
X39508720Y-16567569D01*
X39217569Y-16858720D01*
X39060000Y-17239126D01*
X38834585Y-17239126D01*
X38997431Y-17076280D01*
X39155000Y-16695874D01*
X39155000Y-16284126D01*
X38997431Y-15903720D01*
X38706280Y-15612569D01*
X38325874Y-15455000D01*
X37914126Y-15455000D01*
X37533720Y-15612569D01*
X37242569Y-15903720D01*
X37085000Y-16284126D01*
X17157787Y-16284126D01*
X17102799Y-16229138D01*
X16465113Y-15965000D01*
X15774887Y-15965000D01*
X15137201Y-16229138D01*
X14649138Y-16717201D01*
X14385000Y-17354887D01*
X5855000Y-17354887D01*
X5590862Y-16717201D01*
X5102799Y-16229138D01*
X4465113Y-15965000D01*
X3774887Y-15965000D01*
X3137201Y-16229138D01*
X2649138Y-16717201D01*
X2385000Y-17354887D01*
X492516Y-17354887D01*
X529905Y-17329905D01*
X692354Y-17086783D01*
X749399Y-16800000D01*
X735000Y-16727612D01*
X735000Y-13786892D01*
X3200000Y-13786892D01*
X3200000Y-14113108D01*
X3324837Y-14414493D01*
X3555507Y-14645163D01*
X3856892Y-14770000D01*
X4183108Y-14770000D01*
X4484493Y-14645163D01*
X4605117Y-14524539D01*
X4600000Y-14536892D01*
X4600000Y-14863108D01*
X4724837Y-15164493D01*
X4955507Y-15395163D01*
X5256892Y-15520000D01*
X5583108Y-15520000D01*
X5884493Y-15395163D01*
X6115163Y-15164493D01*
X6240000Y-14863108D01*
X6240000Y-14536892D01*
X6115163Y-14235507D01*
X5884493Y-14004837D01*
X5583108Y-13880000D01*
X5256892Y-13880000D01*
X4955507Y-14004837D01*
X4834883Y-14125461D01*
X4840000Y-14113108D01*
X4840000Y-14013501D01*
X4941348Y-14006232D01*
X5133575Y-13926609D01*
X5130182Y-13786892D01*
X7000000Y-13786892D01*
X7000000Y-14113108D01*
X7124837Y-14414493D01*
X7355507Y-14645163D01*
X7656892Y-14770000D01*
X7983108Y-14770000D01*
X8284493Y-14645163D01*
X8405117Y-14524539D01*
X8400000Y-14536892D01*
X8400000Y-14863108D01*
X8524837Y-15164493D01*
X8755507Y-15395163D01*
X9056892Y-15520000D01*
X9383108Y-15520000D01*
X9684493Y-15395163D01*
X9915163Y-15164493D01*
X10040000Y-14863108D01*
X10040000Y-14536892D01*
X9915163Y-14235507D01*
X9684493Y-14004837D01*
X9383108Y-13880000D01*
X9056892Y-13880000D01*
X8755507Y-14004837D01*
X8634883Y-14125461D01*
X8640000Y-14113108D01*
X8640000Y-14013501D01*
X8741348Y-14006232D01*
X8933575Y-13926609D01*
X8929039Y-13739854D01*
X8520000Y-13330815D01*
X8481463Y-13369353D01*
X8350648Y-13238538D01*
X8389185Y-13200000D01*
X7980146Y-12790961D01*
X7793391Y-12786425D01*
X7690432Y-13095968D01*
X7692873Y-13130000D01*
X7656892Y-13130000D01*
X7355507Y-13254837D01*
X7124837Y-13485507D01*
X7000000Y-13786892D01*
X5130182Y-13786892D01*
X5129039Y-13739854D01*
X4720000Y-13330815D01*
X4681463Y-13369353D01*
X4550648Y-13238538D01*
X4589185Y-13200000D01*
X4180146Y-12790961D01*
X3993391Y-12786425D01*
X3890432Y-13095968D01*
X3892873Y-13130000D01*
X3856892Y-13130000D01*
X3555507Y-13254837D01*
X3324837Y-13485507D01*
X3200000Y-13786892D01*
X735000Y-13786892D01*
X735000Y-11536892D01*
X3200000Y-11536892D01*
X3200000Y-11863108D01*
X3324837Y-12164493D01*
X3555507Y-12395163D01*
X3856892Y-12520000D01*
X4183108Y-12520000D01*
X4484493Y-12395163D01*
X4605117Y-12274539D01*
X4600000Y-12286892D01*
X4600000Y-12386499D01*
X4498652Y-12393768D01*
X4306425Y-12473391D01*
X4310961Y-12660146D01*
X4720000Y-13069185D01*
X4758538Y-13030648D01*
X4889353Y-13161463D01*
X4850815Y-13200000D01*
X5259854Y-13609039D01*
X5446609Y-13613575D01*
X5549568Y-13304032D01*
X5547127Y-13270000D01*
X5583108Y-13270000D01*
X5884493Y-13145163D01*
X6115163Y-12914493D01*
X6240000Y-12613108D01*
X6240000Y-12286892D01*
X6115163Y-11985507D01*
X5884493Y-11754837D01*
X5583108Y-11630000D01*
X5256892Y-11630000D01*
X4955507Y-11754837D01*
X4834883Y-11875461D01*
X4840000Y-11863108D01*
X4840000Y-11763501D01*
X4941348Y-11756232D01*
X5133575Y-11676609D01*
X5130182Y-11536892D01*
X7000000Y-11536892D01*
X7000000Y-11863108D01*
X7124837Y-12164493D01*
X7355507Y-12395163D01*
X7656892Y-12520000D01*
X7983108Y-12520000D01*
X8284493Y-12395163D01*
X8405117Y-12274539D01*
X8400000Y-12286892D01*
X8400000Y-12386499D01*
X8298652Y-12393768D01*
X8106425Y-12473391D01*
X8110961Y-12660146D01*
X8520000Y-13069185D01*
X8558538Y-13030648D01*
X8689353Y-13161463D01*
X8650815Y-13200000D01*
X9059854Y-13609039D01*
X9246609Y-13613575D01*
X9349568Y-13304032D01*
X9347127Y-13270000D01*
X9383108Y-13270000D01*
X9684493Y-13145163D01*
X9915163Y-12914493D01*
X10040000Y-12613108D01*
X10040000Y-12286892D01*
X9915163Y-11985507D01*
X9684493Y-11754837D01*
X9383108Y-11630000D01*
X9056892Y-11630000D01*
X8755507Y-11754837D01*
X8634883Y-11875461D01*
X8640000Y-11863108D01*
X8640000Y-11763501D01*
X8741348Y-11756232D01*
X8933575Y-11676609D01*
X8929039Y-11489854D01*
X8520000Y-11080815D01*
X8481463Y-11119353D01*
X8350648Y-10988538D01*
X8389185Y-10950000D01*
X7980146Y-10540961D01*
X7793391Y-10536425D01*
X7690432Y-10845968D01*
X7692873Y-10880000D01*
X7656892Y-10880000D01*
X7355507Y-11004837D01*
X7124837Y-11235507D01*
X7000000Y-11536892D01*
X5130182Y-11536892D01*
X5129039Y-11489854D01*
X4720000Y-11080815D01*
X4681463Y-11119353D01*
X4550648Y-10988538D01*
X4589185Y-10950000D01*
X4180146Y-10540961D01*
X3993391Y-10536425D01*
X3890432Y-10845968D01*
X3892873Y-10880000D01*
X3856892Y-10880000D01*
X3555507Y-11004837D01*
X3324837Y-11235507D01*
X3200000Y-11536892D01*
X735000Y-11536892D01*
X735000Y-9286892D01*
X3200000Y-9286892D01*
X3200000Y-9613108D01*
X3324837Y-9914493D01*
X3555507Y-10145163D01*
X3856892Y-10270000D01*
X4183108Y-10270000D01*
X4388317Y-10185000D01*
X4399109Y-10185000D01*
X4306425Y-10223391D01*
X4310961Y-10410146D01*
X4720000Y-10819185D01*
X4758538Y-10780648D01*
X4889353Y-10911463D01*
X4850815Y-10950000D01*
X5259854Y-11359039D01*
X5446609Y-11363575D01*
X5549568Y-11054032D01*
X5547127Y-11020000D01*
X5583108Y-11020000D01*
X5884493Y-10895163D01*
X6115163Y-10664493D01*
X6240000Y-10363108D01*
X6240000Y-10036892D01*
X6225576Y-10002069D01*
X7041893Y-9185752D01*
X7000000Y-9286892D01*
X7000000Y-9613108D01*
X7124837Y-9914493D01*
X7355507Y-10145163D01*
X7656892Y-10270000D01*
X7983108Y-10270000D01*
X8284493Y-10145163D01*
X8405117Y-10024539D01*
X8400000Y-10036892D01*
X8400000Y-10136499D01*
X8298652Y-10143768D01*
X8106425Y-10223391D01*
X8110961Y-10410146D01*
X8520000Y-10819185D01*
X8558538Y-10780648D01*
X8689353Y-10911463D01*
X8650815Y-10950000D01*
X9059854Y-11359039D01*
X9246609Y-11363575D01*
X9349568Y-11054032D01*
X9347127Y-11020000D01*
X9383108Y-11020000D01*
X9684493Y-10895163D01*
X9915163Y-10664493D01*
X10040000Y-10363108D01*
X10040000Y-10036892D01*
X9915163Y-9735507D01*
X9684493Y-9504837D01*
X9383108Y-9380000D01*
X9056892Y-9380000D01*
X8755507Y-9504837D01*
X8634883Y-9625461D01*
X8640000Y-9613108D01*
X8640000Y-9513501D01*
X8741348Y-9506232D01*
X8933575Y-9426609D01*
X8929039Y-9239854D01*
X8520000Y-8830815D01*
X8481463Y-8869353D01*
X8350648Y-8738538D01*
X8389185Y-8700000D01*
X8350648Y-8661463D01*
X8481463Y-8530648D01*
X8520000Y-8569185D01*
X8558538Y-8530648D01*
X8689353Y-8661463D01*
X8650815Y-8700000D01*
X9059854Y-9109039D01*
X9246609Y-9113575D01*
X9349568Y-8804032D01*
X9326232Y-8478652D01*
X9246609Y-8286425D01*
X9109862Y-8289746D01*
X9114616Y-8284992D01*
X11725384Y-8284992D01*
X11730138Y-8289746D01*
X11593391Y-8286425D01*
X11490432Y-8595968D01*
X11492873Y-8630000D01*
X11456892Y-8630000D01*
X11155507Y-8754837D01*
X10924837Y-8985507D01*
X10800000Y-9286892D01*
X10800000Y-9613108D01*
X10924837Y-9914493D01*
X11155507Y-10145163D01*
X11456892Y-10270000D01*
X11783108Y-10270000D01*
X12084493Y-10145163D01*
X12205117Y-10024539D01*
X12200000Y-10036892D01*
X12200000Y-10136499D01*
X12098652Y-10143768D01*
X11906425Y-10223391D01*
X11910961Y-10410146D01*
X12320000Y-10819185D01*
X12358538Y-10780648D01*
X12489353Y-10911463D01*
X12450815Y-10950000D01*
X12859854Y-11359039D01*
X13046609Y-11363575D01*
X13149568Y-11054032D01*
X13147127Y-11020000D01*
X13183108Y-11020000D01*
X13484493Y-10895163D01*
X13715163Y-10664493D01*
X13840000Y-10363108D01*
X13840000Y-10036892D01*
X13715163Y-9735507D01*
X13484493Y-9504837D01*
X13183108Y-9380000D01*
X12856892Y-9380000D01*
X12555507Y-9504837D01*
X12434883Y-9625461D01*
X12440000Y-9613108D01*
X12440000Y-9513501D01*
X12541348Y-9506232D01*
X12733575Y-9426609D01*
X12729039Y-9239854D01*
X12320000Y-8830815D01*
X12281463Y-8869353D01*
X12150648Y-8738538D01*
X12189185Y-8700000D01*
X12150648Y-8661463D01*
X12281463Y-8530648D01*
X12320000Y-8569185D01*
X12358538Y-8530648D01*
X12489353Y-8661463D01*
X12450815Y-8700000D01*
X12859854Y-9109039D01*
X13046609Y-9113575D01*
X13149568Y-8804032D01*
X13126232Y-8478652D01*
X13046609Y-8286425D01*
X12909862Y-8289746D01*
X12914616Y-8284992D01*
X15525384Y-8284992D01*
X15530138Y-8289746D01*
X15393391Y-8286425D01*
X15290432Y-8595968D01*
X15292873Y-8630000D01*
X15256892Y-8630000D01*
X14955507Y-8754837D01*
X14724837Y-8985507D01*
X14600000Y-9286892D01*
X14600000Y-9613108D01*
X14724837Y-9914493D01*
X14955507Y-10145163D01*
X15256892Y-10270000D01*
X15583108Y-10270000D01*
X15884493Y-10145163D01*
X16005117Y-10024539D01*
X16000000Y-10036892D01*
X16000000Y-10136499D01*
X15898652Y-10143768D01*
X15706425Y-10223391D01*
X15710961Y-10410146D01*
X16120000Y-10819185D01*
X16158538Y-10780648D01*
X16289353Y-10911463D01*
X16250815Y-10950000D01*
X16265815Y-10965000D01*
X15974185Y-10965000D01*
X15989185Y-10950000D01*
X15580146Y-10540961D01*
X15393391Y-10536425D01*
X15290432Y-10845968D01*
X15292873Y-10880000D01*
X15256892Y-10880000D01*
X14955507Y-11004837D01*
X14724837Y-11235507D01*
X14600000Y-11536892D01*
X14600000Y-11863108D01*
X14724837Y-12164493D01*
X14955507Y-12395163D01*
X15256892Y-12520000D01*
X15583108Y-12520000D01*
X15788317Y-12435000D01*
X15799109Y-12435000D01*
X15706425Y-12473391D01*
X15710961Y-12660146D01*
X16120000Y-13069185D01*
X16158538Y-13030648D01*
X16289353Y-13161463D01*
X16250815Y-13200000D01*
X16289353Y-13238538D01*
X16158538Y-13369353D01*
X16120000Y-13330815D01*
X16081463Y-13369353D01*
X15950648Y-13238538D01*
X15989185Y-13200000D01*
X15580146Y-12790961D01*
X15393391Y-12786425D01*
X15290432Y-13095968D01*
X15292873Y-13130000D01*
X15256892Y-13130000D01*
X14955507Y-13254837D01*
X14903094Y-13307250D01*
X13809782Y-12213939D01*
X13715163Y-11985507D01*
X13484493Y-11754837D01*
X13183108Y-11630000D01*
X12856892Y-11630000D01*
X12667779Y-11708333D01*
X12664618Y-11705172D01*
X12733575Y-11676609D01*
X12729039Y-11489854D01*
X12320000Y-11080815D01*
X12281463Y-11119353D01*
X12150648Y-10988538D01*
X12189185Y-10950000D01*
X11780146Y-10540961D01*
X11593391Y-10536425D01*
X11490432Y-10845968D01*
X11492873Y-10880000D01*
X11456892Y-10880000D01*
X11155507Y-11004837D01*
X10924837Y-11235507D01*
X10800000Y-11536892D01*
X10800000Y-11863108D01*
X10924837Y-12164493D01*
X11155507Y-12395163D01*
X11360717Y-12480163D01*
X11668810Y-12788257D01*
X11593391Y-12786425D01*
X11490432Y-13095968D01*
X11492873Y-13130000D01*
X11456892Y-13130000D01*
X11155507Y-13254837D01*
X10924837Y-13485507D01*
X10800000Y-13786892D01*
X10800000Y-14113108D01*
X10924837Y-14414493D01*
X11155507Y-14645163D01*
X11456892Y-14770000D01*
X11783108Y-14770000D01*
X12084493Y-14645163D01*
X12205117Y-14524539D01*
X12200000Y-14536892D01*
X12200000Y-14863108D01*
X12324837Y-15164493D01*
X12555507Y-15395163D01*
X12856892Y-15520000D01*
X13183108Y-15520000D01*
X13484493Y-15395163D01*
X13715163Y-15164493D01*
X13811783Y-14931230D01*
X14534091Y-15653538D01*
X14575096Y-15714906D01*
X14818218Y-15877355D01*
X15032613Y-15920001D01*
X15105001Y-15934400D01*
X15177389Y-15920001D01*
X16980417Y-15920001D01*
X17052801Y-15934399D01*
X17125185Y-15920001D01*
X17125189Y-15920001D01*
X17339584Y-15877355D01*
X17582706Y-15714906D01*
X17619393Y-15660000D01*
X37022616Y-15660000D01*
X37095000Y-15674398D01*
X37167384Y-15660000D01*
X37167388Y-15660000D01*
X37381783Y-15617354D01*
X37624905Y-15454905D01*
X37665911Y-15393535D01*
X40884341Y-12175105D01*
X59430000Y-12175105D01*
X59430000Y-12944895D01*
X59724586Y-13656090D01*
X60268910Y-14200414D01*
X60980105Y-14495000D01*
X61749895Y-14495000D01*
X62461090Y-14200414D01*
X63005414Y-13656090D01*
X63300000Y-12944895D01*
X63300000Y-12175105D01*
X63005414Y-11463910D01*
X62461090Y-10919586D01*
X61749895Y-10625000D01*
X60980105Y-10625000D01*
X60268910Y-10919586D01*
X59724586Y-11463910D01*
X59430000Y-12175105D01*
X40884341Y-12175105D01*
X43849501Y-9209946D01*
X43970212Y-9159946D01*
X44191036Y-8939122D01*
X44240267Y-8820267D01*
X44359122Y-8771036D01*
X44579946Y-8550212D01*
X44699455Y-8261691D01*
X44699455Y-8060000D01*
X45255824Y-8060000D01*
X45140545Y-8338309D01*
X45140545Y-8650601D01*
X45260054Y-8939122D01*
X45480878Y-9159946D01*
X45769399Y-9279455D01*
X46081691Y-9279455D01*
X46370212Y-9159946D01*
X46591036Y-8939122D01*
X46640267Y-8820267D01*
X46759122Y-8771036D01*
X46979946Y-8550212D01*
X47099455Y-8261691D01*
X47099455Y-8060000D01*
X47655824Y-8060000D01*
X47540545Y-8338309D01*
X47540545Y-8650601D01*
X47660054Y-8939122D01*
X47880878Y-9159946D01*
X48169399Y-9279455D01*
X48481691Y-9279455D01*
X48770212Y-9159946D01*
X48991036Y-8939122D01*
X49040267Y-8820267D01*
X49159122Y-8771036D01*
X49379946Y-8550212D01*
X49499455Y-8261691D01*
X49499455Y-8237100D01*
X49960054Y-8697700D01*
X50060054Y-8939122D01*
X50280878Y-9159946D01*
X50569399Y-9279455D01*
X50881691Y-9279455D01*
X51170212Y-9159946D01*
X51391036Y-8939122D01*
X51440267Y-8820267D01*
X51559122Y-8771036D01*
X51779946Y-8550212D01*
X51867718Y-8338309D01*
X52340545Y-8338309D01*
X52340545Y-8650601D01*
X52460054Y-8939122D01*
X52680878Y-9159946D01*
X52969399Y-9279455D01*
X53281691Y-9279455D01*
X53570212Y-9159946D01*
X53791036Y-8939122D01*
X53840267Y-8820267D01*
X53959122Y-8771036D01*
X54179946Y-8550212D01*
X54299455Y-8261691D01*
X54299455Y-7949399D01*
X54179946Y-7660878D01*
X53959122Y-7440054D01*
X53670601Y-7320545D01*
X53358309Y-7320545D01*
X53069788Y-7440054D01*
X52848964Y-7660878D01*
X52799733Y-7779733D01*
X52680878Y-7828964D01*
X52460054Y-8049788D01*
X52340545Y-8338309D01*
X51867718Y-8338309D01*
X51899455Y-8261691D01*
X51899455Y-7949399D01*
X51779946Y-7660878D01*
X51559122Y-7440054D01*
X51317700Y-7340054D01*
X50384110Y-6406465D01*
X50343104Y-6345095D01*
X50099982Y-6182646D01*
X49885587Y-6140000D01*
X49885583Y-6140000D01*
X49813199Y-6125602D01*
X49740815Y-6140000D01*
X17815697Y-6140000D01*
X17855000Y-6045113D01*
X17855000Y-5354887D01*
X17590862Y-4717201D01*
X17102799Y-4229138D01*
X16465113Y-3965000D01*
X15774887Y-3965000D01*
X15137201Y-4229138D01*
X14649138Y-4717201D01*
X14385000Y-5354887D01*
X14385000Y-6045113D01*
X14517502Y-6365001D01*
X7524183Y-6365001D01*
X7451799Y-6350603D01*
X7379415Y-6365001D01*
X7379412Y-6365001D01*
X7165017Y-6407647D01*
X6921895Y-6570096D01*
X6880891Y-6631464D01*
X4797355Y-8715000D01*
X4574185Y-8715000D01*
X4589185Y-8700000D01*
X4180146Y-8290961D01*
X3993391Y-8286425D01*
X3890432Y-8595968D01*
X3892873Y-8630000D01*
X3856892Y-8630000D01*
X3555507Y-8754837D01*
X3324837Y-8985507D01*
X3200000Y-9286892D01*
X735000Y-9286892D01*
X735000Y-7973391D01*
X4306425Y-7973391D01*
X4310961Y-8160146D01*
X4720000Y-8569185D01*
X5129039Y-8160146D01*
X5133575Y-7973391D01*
X4824032Y-7870432D01*
X4498652Y-7893768D01*
X4306425Y-7973391D01*
X735000Y-7973391D01*
X735000Y-5354887D01*
X2385000Y-5354887D01*
X2385000Y-6045113D01*
X2649138Y-6682799D01*
X3137201Y-7170862D01*
X3774887Y-7435000D01*
X4465113Y-7435000D01*
X5102799Y-7170862D01*
X5590862Y-6682799D01*
X5855000Y-6045113D01*
X5855000Y-5354887D01*
X5590862Y-4717201D01*
X5102799Y-4229138D01*
X4465113Y-3965000D01*
X3774887Y-3965000D01*
X3137201Y-4229138D01*
X2649138Y-4717201D01*
X2385000Y-5354887D01*
X735000Y-5354887D01*
X735000Y-3241089D01*
X800751Y-2654908D01*
X981140Y-2136900D01*
X1271808Y-1671734D01*
X1658308Y-1282526D01*
X2121438Y-988614D01*
X2638164Y-804617D01*
X3221984Y-735000D01*
X70608911Y-735000D01*
X71195092Y-800751D01*
G36*
X25140545Y-56338309D02*
X25140545Y-56650601D01*
X25260054Y-56939122D01*
X25480878Y-57159946D01*
X25769399Y-57279455D01*
X26081691Y-57279455D01*
X26370212Y-57159946D01*
X26591036Y-56939122D01*
X26640267Y-56820267D01*
X26759122Y-56771036D01*
X26979946Y-56550212D01*
X27099455Y-56261691D01*
X27099455Y-56060000D01*
X27655824Y-56060000D01*
X27540545Y-56338309D01*
X27540545Y-56650601D01*
X27660054Y-56939122D01*
X27880878Y-57159946D01*
X28169399Y-57279455D01*
X28481691Y-57279455D01*
X28770212Y-57159946D01*
X28991036Y-56939122D01*
X29040267Y-56820267D01*
X29159122Y-56771036D01*
X29379946Y-56550212D01*
X29499455Y-56261691D01*
X29499455Y-56060000D01*
X30055824Y-56060000D01*
X30010054Y-56170499D01*
X28405546Y-57775008D01*
X21752991Y-57775008D01*
X21680607Y-57760610D01*
X21608223Y-57775008D01*
X21608219Y-57775008D01*
X21393824Y-57817654D01*
X21150702Y-57980103D01*
X21109697Y-58041471D01*
X20186169Y-58965000D01*
X17115891Y-58965000D01*
X17284493Y-58895163D01*
X17515163Y-58664493D01*
X17640000Y-58363108D01*
X17640000Y-58036892D01*
X17515163Y-57735507D01*
X17284493Y-57504837D01*
X16983108Y-57380000D01*
X16656892Y-57380000D01*
X16355507Y-57504837D01*
X16234883Y-57625461D01*
X16240000Y-57613108D01*
X16240000Y-57513501D01*
X16341348Y-57506232D01*
X16533575Y-57426609D01*
X16529039Y-57239854D01*
X16120000Y-56830815D01*
X16081463Y-56869353D01*
X15950648Y-56738538D01*
X15989185Y-56700000D01*
X15950648Y-56661463D01*
X16081463Y-56530648D01*
X16120000Y-56569185D01*
X16158538Y-56530648D01*
X16289353Y-56661463D01*
X16250815Y-56700000D01*
X16659854Y-57109039D01*
X16846609Y-57113575D01*
X16949568Y-56804032D01*
X16926232Y-56478652D01*
X16846609Y-56286425D01*
X16709862Y-56289746D01*
X16714616Y-56284992D01*
X16906009Y-56284992D01*
X16978393Y-56299390D01*
X17050777Y-56284992D01*
X17050781Y-56284992D01*
X17265176Y-56242346D01*
X17508298Y-56079897D01*
X17521593Y-56060000D01*
X25255824Y-56060000D01*
X25140545Y-56338309D01*
X25140545Y-56338309D01*
G37*
X25140545Y-56338309D02*
X25140545Y-56650601D01*
X25260054Y-56939122D01*
X25480878Y-57159946D01*
X25769399Y-57279455D01*
X26081691Y-57279455D01*
X26370212Y-57159946D01*
X26591036Y-56939122D01*
X26640267Y-56820267D01*
X26759122Y-56771036D01*
X26979946Y-56550212D01*
X27099455Y-56261691D01*
X27099455Y-56060000D01*
X27655824Y-56060000D01*
X27540545Y-56338309D01*
X27540545Y-56650601D01*
X27660054Y-56939122D01*
X27880878Y-57159946D01*
X28169399Y-57279455D01*
X28481691Y-57279455D01*
X28770212Y-57159946D01*
X28991036Y-56939122D01*
X29040267Y-56820267D01*
X29159122Y-56771036D01*
X29379946Y-56550212D01*
X29499455Y-56261691D01*
X29499455Y-56060000D01*
X30055824Y-56060000D01*
X30010054Y-56170499D01*
X28405546Y-57775008D01*
X21752991Y-57775008D01*
X21680607Y-57760610D01*
X21608223Y-57775008D01*
X21608219Y-57775008D01*
X21393824Y-57817654D01*
X21150702Y-57980103D01*
X21109697Y-58041471D01*
X20186169Y-58965000D01*
X17115891Y-58965000D01*
X17284493Y-58895163D01*
X17515163Y-58664493D01*
X17640000Y-58363108D01*
X17640000Y-58036892D01*
X17515163Y-57735507D01*
X17284493Y-57504837D01*
X16983108Y-57380000D01*
X16656892Y-57380000D01*
X16355507Y-57504837D01*
X16234883Y-57625461D01*
X16240000Y-57613108D01*
X16240000Y-57513501D01*
X16341348Y-57506232D01*
X16533575Y-57426609D01*
X16529039Y-57239854D01*
X16120000Y-56830815D01*
X16081463Y-56869353D01*
X15950648Y-56738538D01*
X15989185Y-56700000D01*
X15950648Y-56661463D01*
X16081463Y-56530648D01*
X16120000Y-56569185D01*
X16158538Y-56530648D01*
X16289353Y-56661463D01*
X16250815Y-56700000D01*
X16659854Y-57109039D01*
X16846609Y-57113575D01*
X16949568Y-56804032D01*
X16926232Y-56478652D01*
X16846609Y-56286425D01*
X16709862Y-56289746D01*
X16714616Y-56284992D01*
X16906009Y-56284992D01*
X16978393Y-56299390D01*
X17050777Y-56284992D01*
X17050781Y-56284992D01*
X17265176Y-56242346D01*
X17508298Y-56079897D01*
X17521593Y-56060000D01*
X25255824Y-56060000D01*
X25140545Y-56338309D01*
G36*
X25140545Y-40338309D02*
X25140545Y-40650601D01*
X25260054Y-40939122D01*
X25480878Y-41159946D01*
X25769399Y-41279455D01*
X26081691Y-41279455D01*
X26370212Y-41159946D01*
X26591036Y-40939122D01*
X26640267Y-40820267D01*
X26759122Y-40771036D01*
X26979946Y-40550212D01*
X27099455Y-40261691D01*
X27099455Y-40060000D01*
X27655824Y-40060000D01*
X27540545Y-40338309D01*
X27540545Y-40650601D01*
X27660054Y-40939122D01*
X27880878Y-41159946D01*
X28169399Y-41279455D01*
X28481691Y-41279455D01*
X28770212Y-41159946D01*
X28991036Y-40939122D01*
X29040267Y-40820267D01*
X29159122Y-40771036D01*
X29379946Y-40550212D01*
X29499455Y-40261691D01*
X29499455Y-40060000D01*
X30055824Y-40060000D01*
X30010054Y-40170499D01*
X28405546Y-41775008D01*
X21752991Y-41775008D01*
X21680607Y-41760610D01*
X21608223Y-41775008D01*
X21608219Y-41775008D01*
X21393824Y-41817654D01*
X21150702Y-41980103D01*
X21109697Y-42041471D01*
X20186169Y-42965000D01*
X17115891Y-42965000D01*
X17284493Y-42895163D01*
X17515163Y-42664493D01*
X17640000Y-42363108D01*
X17640000Y-42036892D01*
X17515163Y-41735507D01*
X17284493Y-41504837D01*
X16983108Y-41380000D01*
X16656892Y-41380000D01*
X16355507Y-41504837D01*
X16234883Y-41625461D01*
X16240000Y-41613108D01*
X16240000Y-41513501D01*
X16341348Y-41506232D01*
X16533575Y-41426609D01*
X16529039Y-41239854D01*
X16120000Y-40830815D01*
X16081463Y-40869353D01*
X15950648Y-40738538D01*
X15989185Y-40700000D01*
X15950648Y-40661463D01*
X16081463Y-40530648D01*
X16120000Y-40569185D01*
X16158538Y-40530648D01*
X16289353Y-40661463D01*
X16250815Y-40700000D01*
X16659854Y-41109039D01*
X16846609Y-41113575D01*
X16949568Y-40804032D01*
X16926232Y-40478652D01*
X16846609Y-40286425D01*
X16709862Y-40289746D01*
X16714616Y-40284992D01*
X16906009Y-40284992D01*
X16978393Y-40299390D01*
X17050777Y-40284992D01*
X17050781Y-40284992D01*
X17265176Y-40242346D01*
X17508298Y-40079897D01*
X17521593Y-40060000D01*
X25255824Y-40060000D01*
X25140545Y-40338309D01*
X25140545Y-40338309D01*
G37*
X25140545Y-40338309D02*
X25140545Y-40650601D01*
X25260054Y-40939122D01*
X25480878Y-41159946D01*
X25769399Y-41279455D01*
X26081691Y-41279455D01*
X26370212Y-41159946D01*
X26591036Y-40939122D01*
X26640267Y-40820267D01*
X26759122Y-40771036D01*
X26979946Y-40550212D01*
X27099455Y-40261691D01*
X27099455Y-40060000D01*
X27655824Y-40060000D01*
X27540545Y-40338309D01*
X27540545Y-40650601D01*
X27660054Y-40939122D01*
X27880878Y-41159946D01*
X28169399Y-41279455D01*
X28481691Y-41279455D01*
X28770212Y-41159946D01*
X28991036Y-40939122D01*
X29040267Y-40820267D01*
X29159122Y-40771036D01*
X29379946Y-40550212D01*
X29499455Y-40261691D01*
X29499455Y-40060000D01*
X30055824Y-40060000D01*
X30010054Y-40170499D01*
X28405546Y-41775008D01*
X21752991Y-41775008D01*
X21680607Y-41760610D01*
X21608223Y-41775008D01*
X21608219Y-41775008D01*
X21393824Y-41817654D01*
X21150702Y-41980103D01*
X21109697Y-42041471D01*
X20186169Y-42965000D01*
X17115891Y-42965000D01*
X17284493Y-42895163D01*
X17515163Y-42664493D01*
X17640000Y-42363108D01*
X17640000Y-42036892D01*
X17515163Y-41735507D01*
X17284493Y-41504837D01*
X16983108Y-41380000D01*
X16656892Y-41380000D01*
X16355507Y-41504837D01*
X16234883Y-41625461D01*
X16240000Y-41613108D01*
X16240000Y-41513501D01*
X16341348Y-41506232D01*
X16533575Y-41426609D01*
X16529039Y-41239854D01*
X16120000Y-40830815D01*
X16081463Y-40869353D01*
X15950648Y-40738538D01*
X15989185Y-40700000D01*
X15950648Y-40661463D01*
X16081463Y-40530648D01*
X16120000Y-40569185D01*
X16158538Y-40530648D01*
X16289353Y-40661463D01*
X16250815Y-40700000D01*
X16659854Y-41109039D01*
X16846609Y-41113575D01*
X16949568Y-40804032D01*
X16926232Y-40478652D01*
X16846609Y-40286425D01*
X16709862Y-40289746D01*
X16714616Y-40284992D01*
X16906009Y-40284992D01*
X16978393Y-40299390D01*
X17050777Y-40284992D01*
X17050781Y-40284992D01*
X17265176Y-40242346D01*
X17508298Y-40079897D01*
X17521593Y-40060000D01*
X25255824Y-40060000D01*
X25140545Y-40338309D01*
G36*
X25140545Y-24338309D02*
X25140545Y-24650601D01*
X25260054Y-24939122D01*
X25480878Y-25159946D01*
X25769399Y-25279455D01*
X26081691Y-25279455D01*
X26370212Y-25159946D01*
X26591036Y-24939122D01*
X26640267Y-24820267D01*
X26759122Y-24771036D01*
X26979946Y-24550212D01*
X27099455Y-24261691D01*
X27099455Y-24060000D01*
X27655824Y-24060000D01*
X27540545Y-24338309D01*
X27540545Y-24650601D01*
X27660054Y-24939122D01*
X27880878Y-25159946D01*
X28169399Y-25279455D01*
X28481691Y-25279455D01*
X28770212Y-25159946D01*
X28991036Y-24939122D01*
X29040267Y-24820267D01*
X29159122Y-24771036D01*
X29379946Y-24550212D01*
X29499455Y-24261691D01*
X29499455Y-24060000D01*
X30055824Y-24060000D01*
X30010054Y-24170499D01*
X28405546Y-25775008D01*
X21752991Y-25775008D01*
X21680607Y-25760610D01*
X21608223Y-25775008D01*
X21608219Y-25775008D01*
X21393824Y-25817654D01*
X21150702Y-25980103D01*
X21109697Y-26041471D01*
X20186169Y-26965000D01*
X17115891Y-26965000D01*
X17284493Y-26895163D01*
X17515163Y-26664493D01*
X17640000Y-26363108D01*
X17640000Y-26036892D01*
X17515163Y-25735507D01*
X17284493Y-25504837D01*
X16983108Y-25380000D01*
X16656892Y-25380000D01*
X16355507Y-25504837D01*
X16234883Y-25625461D01*
X16240000Y-25613108D01*
X16240000Y-25513501D01*
X16341348Y-25506232D01*
X16533575Y-25426609D01*
X16529039Y-25239854D01*
X16120000Y-24830815D01*
X16081463Y-24869353D01*
X15950648Y-24738538D01*
X15989185Y-24700000D01*
X15950648Y-24661463D01*
X16081463Y-24530648D01*
X16120000Y-24569185D01*
X16158538Y-24530648D01*
X16289353Y-24661463D01*
X16250815Y-24700000D01*
X16659854Y-25109039D01*
X16846609Y-25113575D01*
X16949568Y-24804032D01*
X16926232Y-24478652D01*
X16846609Y-24286425D01*
X16709862Y-24289746D01*
X16714616Y-24284992D01*
X16906009Y-24284992D01*
X16978393Y-24299390D01*
X17050777Y-24284992D01*
X17050781Y-24284992D01*
X17265176Y-24242346D01*
X17508298Y-24079897D01*
X17521593Y-24060000D01*
X25255824Y-24060000D01*
X25140545Y-24338309D01*
X25140545Y-24338309D01*
G37*
X25140545Y-24338309D02*
X25140545Y-24650601D01*
X25260054Y-24939122D01*
X25480878Y-25159946D01*
X25769399Y-25279455D01*
X26081691Y-25279455D01*
X26370212Y-25159946D01*
X26591036Y-24939122D01*
X26640267Y-24820267D01*
X26759122Y-24771036D01*
X26979946Y-24550212D01*
X27099455Y-24261691D01*
X27099455Y-24060000D01*
X27655824Y-24060000D01*
X27540545Y-24338309D01*
X27540545Y-24650601D01*
X27660054Y-24939122D01*
X27880878Y-25159946D01*
X28169399Y-25279455D01*
X28481691Y-25279455D01*
X28770212Y-25159946D01*
X28991036Y-24939122D01*
X29040267Y-24820267D01*
X29159122Y-24771036D01*
X29379946Y-24550212D01*
X29499455Y-24261691D01*
X29499455Y-24060000D01*
X30055824Y-24060000D01*
X30010054Y-24170499D01*
X28405546Y-25775008D01*
X21752991Y-25775008D01*
X21680607Y-25760610D01*
X21608223Y-25775008D01*
X21608219Y-25775008D01*
X21393824Y-25817654D01*
X21150702Y-25980103D01*
X21109697Y-26041471D01*
X20186169Y-26965000D01*
X17115891Y-26965000D01*
X17284493Y-26895163D01*
X17515163Y-26664493D01*
X17640000Y-26363108D01*
X17640000Y-26036892D01*
X17515163Y-25735507D01*
X17284493Y-25504837D01*
X16983108Y-25380000D01*
X16656892Y-25380000D01*
X16355507Y-25504837D01*
X16234883Y-25625461D01*
X16240000Y-25613108D01*
X16240000Y-25513501D01*
X16341348Y-25506232D01*
X16533575Y-25426609D01*
X16529039Y-25239854D01*
X16120000Y-24830815D01*
X16081463Y-24869353D01*
X15950648Y-24738538D01*
X15989185Y-24700000D01*
X15950648Y-24661463D01*
X16081463Y-24530648D01*
X16120000Y-24569185D01*
X16158538Y-24530648D01*
X16289353Y-24661463D01*
X16250815Y-24700000D01*
X16659854Y-25109039D01*
X16846609Y-25113575D01*
X16949568Y-24804032D01*
X16926232Y-24478652D01*
X16846609Y-24286425D01*
X16709862Y-24289746D01*
X16714616Y-24284992D01*
X16906009Y-24284992D01*
X16978393Y-24299390D01*
X17050777Y-24284992D01*
X17050781Y-24284992D01*
X17265176Y-24242346D01*
X17508298Y-24079897D01*
X17521593Y-24060000D01*
X25255824Y-24060000D01*
X25140545Y-24338309D01*
G36*
X25140545Y-8338309D02*
X25140545Y-8650601D01*
X25260054Y-8939122D01*
X25480878Y-9159946D01*
X25769399Y-9279455D01*
X26081691Y-9279455D01*
X26370212Y-9159946D01*
X26591036Y-8939122D01*
X26640267Y-8820267D01*
X26759122Y-8771036D01*
X26979946Y-8550212D01*
X27099455Y-8261691D01*
X27099455Y-8060000D01*
X27655824Y-8060000D01*
X27540545Y-8338309D01*
X27540545Y-8650601D01*
X27660054Y-8939122D01*
X27880878Y-9159946D01*
X28169399Y-9279455D01*
X28481691Y-9279455D01*
X28770212Y-9159946D01*
X28991036Y-8939122D01*
X29040267Y-8820267D01*
X29159122Y-8771036D01*
X29379946Y-8550212D01*
X29499455Y-8261691D01*
X29499455Y-8060000D01*
X30055824Y-8060000D01*
X30010054Y-8170499D01*
X28405546Y-9775008D01*
X21752991Y-9775008D01*
X21680607Y-9760610D01*
X21608223Y-9775008D01*
X21608219Y-9775008D01*
X21393824Y-9817654D01*
X21150702Y-9980103D01*
X21109697Y-10041471D01*
X20186169Y-10965000D01*
X17115891Y-10965000D01*
X17284493Y-10895163D01*
X17515163Y-10664493D01*
X17640000Y-10363108D01*
X17640000Y-10036892D01*
X17515163Y-9735507D01*
X17284493Y-9504837D01*
X16983108Y-9380000D01*
X16656892Y-9380000D01*
X16355507Y-9504837D01*
X16234883Y-9625461D01*
X16240000Y-9613108D01*
X16240000Y-9513501D01*
X16341348Y-9506232D01*
X16533575Y-9426609D01*
X16529039Y-9239854D01*
X16120000Y-8830815D01*
X16081463Y-8869353D01*
X15950648Y-8738538D01*
X15989185Y-8700000D01*
X15950648Y-8661463D01*
X16081463Y-8530648D01*
X16120000Y-8569185D01*
X16158538Y-8530648D01*
X16289353Y-8661463D01*
X16250815Y-8700000D01*
X16659854Y-9109039D01*
X16846609Y-9113575D01*
X16949568Y-8804032D01*
X16926232Y-8478652D01*
X16846609Y-8286425D01*
X16709862Y-8289746D01*
X16714616Y-8284992D01*
X16906009Y-8284992D01*
X16978393Y-8299390D01*
X17050777Y-8284992D01*
X17050781Y-8284992D01*
X17265176Y-8242346D01*
X17508298Y-8079897D01*
X17521593Y-8060000D01*
X25255824Y-8060000D01*
X25140545Y-8338309D01*
X25140545Y-8338309D01*
G37*
X25140545Y-8338309D02*
X25140545Y-8650601D01*
X25260054Y-8939122D01*
X25480878Y-9159946D01*
X25769399Y-9279455D01*
X26081691Y-9279455D01*
X26370212Y-9159946D01*
X26591036Y-8939122D01*
X26640267Y-8820267D01*
X26759122Y-8771036D01*
X26979946Y-8550212D01*
X27099455Y-8261691D01*
X27099455Y-8060000D01*
X27655824Y-8060000D01*
X27540545Y-8338309D01*
X27540545Y-8650601D01*
X27660054Y-8939122D01*
X27880878Y-9159946D01*
X28169399Y-9279455D01*
X28481691Y-9279455D01*
X28770212Y-9159946D01*
X28991036Y-8939122D01*
X29040267Y-8820267D01*
X29159122Y-8771036D01*
X29379946Y-8550212D01*
X29499455Y-8261691D01*
X29499455Y-8060000D01*
X30055824Y-8060000D01*
X30010054Y-8170499D01*
X28405546Y-9775008D01*
X21752991Y-9775008D01*
X21680607Y-9760610D01*
X21608223Y-9775008D01*
X21608219Y-9775008D01*
X21393824Y-9817654D01*
X21150702Y-9980103D01*
X21109697Y-10041471D01*
X20186169Y-10965000D01*
X17115891Y-10965000D01*
X17284493Y-10895163D01*
X17515163Y-10664493D01*
X17640000Y-10363108D01*
X17640000Y-10036892D01*
X17515163Y-9735507D01*
X17284493Y-9504837D01*
X16983108Y-9380000D01*
X16656892Y-9380000D01*
X16355507Y-9504837D01*
X16234883Y-9625461D01*
X16240000Y-9613108D01*
X16240000Y-9513501D01*
X16341348Y-9506232D01*
X16533575Y-9426609D01*
X16529039Y-9239854D01*
X16120000Y-8830815D01*
X16081463Y-8869353D01*
X15950648Y-8738538D01*
X15989185Y-8700000D01*
X15950648Y-8661463D01*
X16081463Y-8530648D01*
X16120000Y-8569185D01*
X16158538Y-8530648D01*
X16289353Y-8661463D01*
X16250815Y-8700000D01*
X16659854Y-9109039D01*
X16846609Y-9113575D01*
X16949568Y-8804032D01*
X16926232Y-8478652D01*
X16846609Y-8286425D01*
X16709862Y-8289746D01*
X16714616Y-8284992D01*
X16906009Y-8284992D01*
X16978393Y-8299390D01*
X17050777Y-8284992D01*
X17050781Y-8284992D01*
X17265176Y-8242346D01*
X17508298Y-8079897D01*
X17521593Y-8060000D01*
X25255824Y-8060000D01*
X25140545Y-8338309D01*
%TD*%
M02*
