%TF.GenerationSoftware,KiCad,Pcbnew,6.0.0-rc1-unknown-4a57541~66~ubuntu18.04.1*%
%TF.CreationDate,2018-09-13T10:12:08-06:00*%
%TF.ProjectId,thelio-io-sas,7468656C696F2D696F2D7361732E6B69,rev?*%
%TF.SameCoordinates,Original*%
%TF.FileFunction,Copper,L3,Inr,Plane*%
%TF.FilePolarity,Positive*%
%FSLAX46Y46*%
G04 Gerber Fmt 4.6, Leading zero omitted, Abs format (unit mm)*
G04 Created by KiCad (PCBNEW 6.0.0-rc1-unknown-4a57541~66~ubuntu18.04.1) date Thu Sep 13 10:12:08 2018*
%MOMM*%
%LPD*%
G01*
G04 APERTURE LIST*
%TA.AperFunction,NonConductor*%
%ADD10C,0.200000*%
%TD*%
%TA.AperFunction,NonConductor*%
%ADD11C,0.150000*%
%TD*%
%TA.AperFunction,WasherPad*%
%ADD12C,2.600000*%
%TD*%
%TA.AperFunction,ViaPad*%
%ADD13C,0.370000*%
%TD*%
%TA.AperFunction,ViaPad*%
%ADD14C,0.900000*%
%TD*%
%TA.AperFunction,ViaPad*%
%ADD15C,8.000000*%
%TD*%
%TA.AperFunction,ViaPad*%
%ADD16C,0.800000*%
%TD*%
%TA.AperFunction,Conductor*%
%ADD17C,0.250000*%
%TD*%
%TA.AperFunction,Conductor*%
%ADD18C,0.200000*%
%TD*%
%TA.AperFunction,Conductor*%
%ADD19C,0.254000*%
%TD*%
G04 APERTURE END LIST*
D10*
X0Y-32800000D02*
X0Y-3200000D01*
X70850000Y-3200000D02*
X70850000Y-32800000D01*
X0Y-3200000D02*
G75*
G02X3200000Y0I3200000J0D01*
G01*
X67650000Y0D02*
G75*
G02X70850000Y-3200000I0J-3200000D01*
G01*
X3200000Y0D02*
X67650000Y0D01*
X67650000Y-36000000D02*
X3200000Y-36000000D01*
D11*
X70850000Y-32800000D02*
G75*
G02X67650000Y-36000000I-3200000J0D01*
G01*
D10*
X3200000Y-36000000D02*
G75*
G02X0Y-32800000I0J3200000D01*
G01*
D12*
%TO.N,*%
%TO.C,U.21*%
X61365000Y-28560000D03*
X22635000Y-28560000D03*
%TD*%
D13*
%TO.N,/sas0/T2+*%
%TO.C,SAS0*%
X16820000Y-10200000D03*
%TO.N,/sas0/T2-*%
X15420000Y-9450000D03*
%TO.N,/sas0/T0-*%
X15420000Y-11700000D03*
%TO.N,GND*%
X16120000Y-13200000D03*
X16120000Y-8700000D03*
%TO.N,/sas0/T0+*%
X16820000Y-12450000D03*
%TO.N,/sas0/SDAT*%
X16820000Y-14700000D03*
%TO.N,GND*%
X16120000Y-10950000D03*
%TO.N,/sas0/SCLK*%
X15420000Y-13950000D03*
%TO.N,/sas0/T3+*%
X13020000Y-10200000D03*
%TO.N,/sas0/T3-*%
X11620000Y-9450000D03*
%TO.N,/sas0/T1-*%
X11620000Y-11700000D03*
%TO.N,GND*%
X12320000Y-13200000D03*
X12320000Y-8700000D03*
%TO.N,/sas0/T1+*%
X13020000Y-12450000D03*
%TO.N,/sas0/ACT*%
X13020000Y-14700000D03*
%TO.N,GND*%
X12320000Y-10950000D03*
%TO.N,Net-(SAS0-PadC2)*%
X11620000Y-13950000D03*
%TO.N,/sas0/R2+*%
X9220000Y-10200000D03*
%TO.N,/sas0/R2-*%
X7820000Y-9450000D03*
%TO.N,/sas0/R0-*%
X7820000Y-11700000D03*
%TO.N,GND*%
X8520000Y-13200000D03*
X8520000Y-8700000D03*
%TO.N,/sas0/R0+*%
X9220000Y-12450000D03*
%TO.N,/sas0/RST*%
X9220000Y-14700000D03*
%TO.N,GND*%
X8520000Y-10950000D03*
X7820000Y-13950000D03*
%TO.N,/sas0/R3-*%
X4020000Y-9450000D03*
%TO.N,GND*%
X4720000Y-8700000D03*
X4720000Y-10950000D03*
%TO.N,/sas0/R3+*%
X5420000Y-10200000D03*
%TO.N,/sas0/R1-*%
X4020000Y-11700000D03*
%TO.N,/sas0/CLK+*%
X5420000Y-14700000D03*
%TO.N,/sas0/CLK-*%
X4020000Y-13950000D03*
%TO.N,GND*%
X4720000Y-13200000D03*
%TO.N,/sas0/R1+*%
X5420000Y-12450000D03*
%TD*%
%TO.N,/sas1/R1+*%
%TO.C,SAS1*%
X5420000Y-28450000D03*
%TO.N,GND*%
X4720000Y-29200000D03*
%TO.N,/sas1/CLK-*%
X4020000Y-29950000D03*
%TO.N,/sas1/CLK+*%
X5420000Y-30700000D03*
%TO.N,/sas1/R1-*%
X4020000Y-27700000D03*
%TO.N,/sas1/R3+*%
X5420000Y-26200000D03*
%TO.N,GND*%
X4720000Y-26950000D03*
X4720000Y-24700000D03*
%TO.N,/sas1/R3-*%
X4020000Y-25450000D03*
%TO.N,GND*%
X7820000Y-29950000D03*
X8520000Y-26950000D03*
%TO.N,/sas1/RST*%
X9220000Y-30700000D03*
%TO.N,/sas1/R0+*%
X9220000Y-28450000D03*
%TO.N,GND*%
X8520000Y-24700000D03*
X8520000Y-29200000D03*
%TO.N,/sas1/R0-*%
X7820000Y-27700000D03*
%TO.N,/sas1/R2-*%
X7820000Y-25450000D03*
%TO.N,/sas1/R2+*%
X9220000Y-26200000D03*
%TO.N,Net-(SAS1-PadC2)*%
X11620000Y-29950000D03*
%TO.N,GND*%
X12320000Y-26950000D03*
%TO.N,/sas1/ACT*%
X13020000Y-30700000D03*
%TO.N,/sas1/T1+*%
X13020000Y-28450000D03*
%TO.N,GND*%
X12320000Y-24700000D03*
X12320000Y-29200000D03*
%TO.N,/sas1/T1-*%
X11620000Y-27700000D03*
%TO.N,/sas1/T3-*%
X11620000Y-25450000D03*
%TO.N,/sas1/T3+*%
X13020000Y-26200000D03*
%TO.N,/sas1/SCLK*%
X15420000Y-29950000D03*
%TO.N,GND*%
X16120000Y-26950000D03*
%TO.N,/sas1/SDAT*%
X16820000Y-30700000D03*
%TO.N,/sas1/T0+*%
X16820000Y-28450000D03*
%TO.N,GND*%
X16120000Y-24700000D03*
X16120000Y-29200000D03*
%TO.N,/sas1/T0-*%
X15420000Y-27700000D03*
%TO.N,/sas1/T2-*%
X15420000Y-25450000D03*
%TO.N,/sas1/T2+*%
X16820000Y-26200000D03*
%TD*%
D12*
%TO.N,*%
%TO.C,U.20*%
X61365000Y-12560000D03*
X22635000Y-12560000D03*
%TD*%
D14*
%TO.N,N/C*%
%TO.C,HOLE1*%
X68971320Y-17878680D03*
X66850000Y-17000000D03*
X64728680Y-17878680D03*
X63850000Y-20000000D03*
X64728680Y-22121320D03*
X66850000Y-23000000D03*
X68971320Y-22121320D03*
X69850000Y-20000000D03*
D15*
X66850000Y-20000000D03*
%TD*%
D16*
%TO.N,GND*%
X51525000Y-33445000D03*
X51525000Y-17570000D03*
X54040000Y-33445000D03*
X54065000Y-17570000D03*
X45175000Y-33445000D03*
X45175000Y-17570000D03*
X46420000Y-33445000D03*
X46445000Y-17570000D03*
X43905000Y-33445000D03*
X43905000Y-17570000D03*
%TO.N,+12V*%
X57875000Y-33445000D03*
X57875000Y-17570000D03*
X56580000Y-33445000D03*
X56605000Y-17570000D03*
X55310000Y-33445000D03*
X55335000Y-17570000D03*
%TO.N,+5V*%
X50255000Y-33445000D03*
X50255000Y-17570000D03*
%TO.N,/sas0/SDAT*%
X57304997Y-8130734D03*
%TO.N,/sas0/SCLK*%
X56447243Y-7616670D03*
%TO.N,/sas0/T1-*%
X41291232Y-7528768D03*
%TO.N,/sas0/T1+*%
X40548768Y-8271232D03*
%TO.N,/sas0/ACT*%
X52795000Y-17470000D03*
%TO.N,/sas0/R2+*%
X50236282Y-8646230D03*
%TO.N,/sas0/R2-*%
X49493818Y-7903766D03*
%TO.N,/sas0/R0-*%
X32548768Y-7528768D03*
%TO.N,/sas0/R0+*%
X33291232Y-8271232D03*
%TO.N,/sas0/R3-*%
X54948768Y-7528768D03*
%TO.N,/sas0/R3+*%
X55691232Y-8271232D03*
%TO.N,/sas0/R1-*%
X45348768Y-6728768D03*
%TO.N,/sas0/CLK+*%
X25348768Y-8271232D03*
%TO.N,/sas0/CLK-*%
X26091232Y-7528768D03*
%TO.N,/sas0/R1+*%
X46091232Y-7471232D03*
%TO.N,/sas1/SDAT*%
X57304997Y-24130734D03*
%TO.N,/sas1/SCLK*%
X56447243Y-23616670D03*
%TO.N,/sas1/T1-*%
X41291232Y-23528768D03*
%TO.N,/sas1/T1+*%
X40548768Y-24271232D03*
%TO.N,/sas1/ACT*%
X52795000Y-33470000D03*
%TO.N,/sas1/R2+*%
X50236282Y-24646230D03*
%TO.N,/sas1/R2-*%
X49493818Y-23903766D03*
%TO.N,/sas1/R0-*%
X32548768Y-23528768D03*
%TO.N,/sas1/R0+*%
X33291232Y-24271232D03*
%TO.N,/sas1/R3-*%
X54948768Y-23528768D03*
%TO.N,/sas1/R3+*%
X55691232Y-24271232D03*
%TO.N,/sas1/R1-*%
X45348768Y-22728768D03*
%TO.N,/sas1/CLK+*%
X25348768Y-24271232D03*
%TO.N,/sas1/CLK-*%
X26091232Y-23528768D03*
%TO.N,/sas1/R1+*%
X46091232Y-23471232D03*
%TD*%
D17*
%TO.N,+5V*%
X50961283Y-32738717D02*
X50255000Y-33445000D01*
X50961283Y-18276283D02*
X50961283Y-32738717D01*
X50255000Y-17570000D02*
X50961283Y-18276283D01*
D18*
%TO.N,/sas0/T1-*%
X33413465Y-9185001D02*
X15887199Y-9185001D01*
X41291232Y-7528768D02*
X40916306Y-7528768D01*
X14934999Y-9466802D02*
X12701801Y-11700000D01*
X12701801Y-11700000D02*
X11620000Y-11700000D01*
X40908769Y-7521231D02*
X35077235Y-7521231D01*
X35077235Y-7521231D02*
X33413465Y-9185001D01*
X40916306Y-7528768D02*
X40908769Y-7521231D01*
X15887199Y-9185001D02*
X15667197Y-8964999D01*
X15187199Y-8964999D02*
X14934999Y-9217199D01*
X14934999Y-9217199D02*
X14934999Y-9466802D01*
X15667197Y-8964999D02*
X15187199Y-8964999D01*
%TO.N,/sas0/T1+*%
X33599857Y-9634992D02*
X15952810Y-9634992D01*
X40548768Y-8271232D02*
X40256304Y-7978768D01*
X15103198Y-9935001D02*
X13020000Y-12018199D01*
X35256081Y-7978768D02*
X33599857Y-9634992D01*
X40256304Y-7978768D02*
X35256081Y-7978768D01*
X15652801Y-9935001D02*
X15103198Y-9935001D01*
X13020000Y-12018199D02*
X13020000Y-12450000D01*
X15952810Y-9634992D02*
X15652801Y-9935001D01*
%TO.N,/sas0/CLK+*%
X11709431Y-7978768D02*
X9705001Y-9983198D01*
X7503198Y-12185001D02*
X5420000Y-14268199D01*
X5420000Y-14268199D02*
X5420000Y-14700000D01*
X25056304Y-7978768D02*
X11709431Y-7978768D01*
X8052801Y-12185001D02*
X7503198Y-12185001D01*
X25348768Y-8271232D02*
X25056304Y-7978768D01*
X9705001Y-9983198D02*
X9705001Y-10532801D01*
X9705001Y-10532801D02*
X8052801Y-12185001D01*
%TO.N,/sas0/CLK-*%
X26091232Y-7528768D02*
X25716306Y-7528768D01*
X25708769Y-7521231D02*
X11530570Y-7521231D01*
X7334999Y-11716802D02*
X5101801Y-13950000D01*
X7334999Y-11367199D02*
X7334999Y-11716802D01*
X8987199Y-9714999D02*
X7334999Y-11367199D01*
X25716306Y-7528768D02*
X25708769Y-7521231D01*
X5101801Y-13950000D02*
X4020000Y-13950000D01*
X9336802Y-9714999D02*
X8987199Y-9714999D01*
X11530570Y-7521231D02*
X9336802Y-9714999D01*
%TO.N,/sas1/T1-*%
X33413465Y-25185001D02*
X15887199Y-25185001D01*
X35077235Y-23521231D02*
X33413465Y-25185001D01*
X15887199Y-25185001D02*
X15667197Y-24964999D01*
X14934999Y-25466802D02*
X12701801Y-27700000D01*
X40908769Y-23521231D02*
X35077235Y-23521231D01*
X41291232Y-23528768D02*
X40916306Y-23528768D01*
X40916306Y-23528768D02*
X40908769Y-23521231D01*
X15667197Y-24964999D02*
X15187199Y-24964999D01*
X15187199Y-24964999D02*
X14934999Y-25217199D01*
X14934999Y-25217199D02*
X14934999Y-25466802D01*
X12701801Y-27700000D02*
X11620000Y-27700000D01*
%TO.N,/sas1/T1+*%
X15103198Y-25935001D02*
X13020000Y-28018199D01*
X15652801Y-25935001D02*
X15103198Y-25935001D01*
X35256081Y-23978768D02*
X33599857Y-25634992D01*
X13020000Y-28018199D02*
X13020000Y-28450000D01*
X40256304Y-23978768D02*
X35256081Y-23978768D01*
X40548768Y-24271232D02*
X40256304Y-23978768D01*
X15952810Y-25634992D02*
X15652801Y-25935001D01*
X33599857Y-25634992D02*
X15952810Y-25634992D01*
%TO.N,/sas1/CLK+*%
X5420000Y-30268199D02*
X5420000Y-30700000D01*
X8052801Y-28185001D02*
X7503198Y-28185001D01*
X25348768Y-24271232D02*
X25056304Y-23978768D01*
X25056304Y-23978768D02*
X11709431Y-23978768D01*
X11709431Y-23978768D02*
X9705001Y-25983198D01*
X9705001Y-26532801D02*
X8052801Y-28185001D01*
X9705001Y-25983198D02*
X9705001Y-26532801D01*
X7503198Y-28185001D02*
X5420000Y-30268199D01*
%TO.N,/sas1/CLK-*%
X8987199Y-25714999D02*
X7334999Y-27367199D01*
X11530570Y-23521231D02*
X9336802Y-25714999D01*
X25716306Y-23528768D02*
X25708769Y-23521231D01*
X9336802Y-25714999D02*
X8987199Y-25714999D01*
X26091232Y-23528768D02*
X25716306Y-23528768D01*
X7334999Y-27367199D02*
X7334999Y-27716802D01*
X7334999Y-27716802D02*
X5101801Y-29950000D01*
X5101801Y-29950000D02*
X4020000Y-29950000D01*
X25708769Y-23521231D02*
X11530570Y-23521231D01*
%TD*%
D19*
%TO.N,+12V*%
G36*
X68195092Y-800751D02*
X68713100Y-981140D01*
X69178266Y-1271808D01*
X69567474Y-1658308D01*
X69861386Y-2121438D01*
X70045383Y-2638164D01*
X70115000Y-3221984D01*
X70115000Y-16710120D01*
X69475517Y-16070637D01*
X67771959Y-15365000D01*
X65928041Y-15365000D01*
X64224483Y-16070637D01*
X62920637Y-17374483D01*
X62215000Y-19078041D01*
X62215000Y-20921959D01*
X62920637Y-22625517D01*
X64224483Y-23929363D01*
X65928041Y-24635000D01*
X67771959Y-24635000D01*
X69475517Y-23929363D01*
X70115001Y-23289879D01*
X70115001Y-32872388D01*
X70122947Y-32912336D01*
X70073780Y-33350669D01*
X69891548Y-33873969D01*
X69597909Y-34343890D01*
X69207451Y-34737083D01*
X68739593Y-35033995D01*
X68217576Y-35219877D01*
X67766155Y-35273706D01*
X67722388Y-35265000D01*
X16875530Y-35265000D01*
X17102799Y-35170862D01*
X17590862Y-34682799D01*
X17855000Y-34045113D01*
X17855000Y-33354887D01*
X17807051Y-33239126D01*
X42870000Y-33239126D01*
X42870000Y-33650874D01*
X43027569Y-34031280D01*
X43318720Y-34322431D01*
X43699126Y-34480000D01*
X44110874Y-34480000D01*
X44491280Y-34322431D01*
X44540000Y-34273711D01*
X44588720Y-34322431D01*
X44969126Y-34480000D01*
X45380874Y-34480000D01*
X45761280Y-34322431D01*
X45797500Y-34286211D01*
X45833720Y-34322431D01*
X46214126Y-34480000D01*
X46625874Y-34480000D01*
X47006280Y-34322431D01*
X47297431Y-34031280D01*
X47455000Y-33650874D01*
X47455000Y-33239126D01*
X47297431Y-32858720D01*
X47006280Y-32567569D01*
X46625874Y-32410000D01*
X46214126Y-32410000D01*
X45833720Y-32567569D01*
X45797500Y-32603789D01*
X45761280Y-32567569D01*
X45380874Y-32410000D01*
X44969126Y-32410000D01*
X44588720Y-32567569D01*
X44540000Y-32616289D01*
X44491280Y-32567569D01*
X44110874Y-32410000D01*
X43699126Y-32410000D01*
X43318720Y-32567569D01*
X43027569Y-32858720D01*
X42870000Y-33239126D01*
X17807051Y-33239126D01*
X17590862Y-32717201D01*
X17102799Y-32229138D01*
X16465113Y-31965000D01*
X15774887Y-31965000D01*
X15137201Y-32229138D01*
X14649138Y-32717201D01*
X14385000Y-33354887D01*
X14385000Y-34045113D01*
X14649138Y-34682799D01*
X15137201Y-35170862D01*
X15364470Y-35265000D01*
X4875530Y-35265000D01*
X5102799Y-35170862D01*
X5590862Y-34682799D01*
X5855000Y-34045113D01*
X5855000Y-33354887D01*
X5590862Y-32717201D01*
X5102799Y-32229138D01*
X4465113Y-31965000D01*
X3774887Y-31965000D01*
X3137201Y-32229138D01*
X2649138Y-32717201D01*
X2385000Y-33354887D01*
X2385000Y-34045113D01*
X2649138Y-34682799D01*
X3137201Y-35170862D01*
X3364470Y-35265000D01*
X3241089Y-35265000D01*
X2654908Y-35199249D01*
X2136899Y-35018859D01*
X1671734Y-34728192D01*
X1282524Y-34341689D01*
X988614Y-33878562D01*
X804617Y-33361837D01*
X735000Y-32778016D01*
X735000Y-25286892D01*
X3200000Y-25286892D01*
X3200000Y-25613108D01*
X3324837Y-25914493D01*
X3555507Y-26145163D01*
X3856892Y-26270000D01*
X4183108Y-26270000D01*
X4484493Y-26145163D01*
X4605117Y-26024539D01*
X4600000Y-26036892D01*
X4600000Y-26130000D01*
X4556892Y-26130000D01*
X4255507Y-26254837D01*
X4024837Y-26485507D01*
X3900000Y-26786892D01*
X3900000Y-26880000D01*
X3856892Y-26880000D01*
X3555507Y-27004837D01*
X3324837Y-27235507D01*
X3200000Y-27536892D01*
X3200000Y-27863108D01*
X3324837Y-28164493D01*
X3555507Y-28395163D01*
X3856892Y-28520000D01*
X4183108Y-28520000D01*
X4484493Y-28395163D01*
X4605117Y-28274539D01*
X4600000Y-28286892D01*
X4600000Y-28380000D01*
X4556892Y-28380000D01*
X4255507Y-28504837D01*
X4024837Y-28735507D01*
X3900000Y-29036892D01*
X3900000Y-29130000D01*
X3856892Y-29130000D01*
X3555507Y-29254837D01*
X3324837Y-29485507D01*
X3200000Y-29786892D01*
X3200000Y-30113108D01*
X3324837Y-30414493D01*
X3555507Y-30645163D01*
X3856892Y-30770000D01*
X4183108Y-30770000D01*
X4388317Y-30685000D01*
X4600000Y-30685000D01*
X4600000Y-30863108D01*
X4724837Y-31164493D01*
X4955507Y-31395163D01*
X5256892Y-31520000D01*
X5583108Y-31520000D01*
X5884493Y-31395163D01*
X6115163Y-31164493D01*
X6240000Y-30863108D01*
X6240000Y-30536892D01*
X6225576Y-30502069D01*
X7041893Y-29685752D01*
X7000000Y-29786892D01*
X7000000Y-30113108D01*
X7124837Y-30414493D01*
X7355507Y-30645163D01*
X7656892Y-30770000D01*
X7983108Y-30770000D01*
X8284493Y-30645163D01*
X8405117Y-30524539D01*
X8400000Y-30536892D01*
X8400000Y-30863108D01*
X8524837Y-31164493D01*
X8755507Y-31395163D01*
X9056892Y-31520000D01*
X9383108Y-31520000D01*
X9684493Y-31395163D01*
X9915163Y-31164493D01*
X10040000Y-30863108D01*
X10040000Y-30536892D01*
X9915163Y-30235507D01*
X9684493Y-30004837D01*
X9383108Y-29880000D01*
X9056892Y-29880000D01*
X8755507Y-30004837D01*
X8634883Y-30125461D01*
X8640000Y-30113108D01*
X8640000Y-30020000D01*
X8683108Y-30020000D01*
X8984493Y-29895163D01*
X9215163Y-29664493D01*
X9340000Y-29363108D01*
X9340000Y-29270000D01*
X9383108Y-29270000D01*
X9684493Y-29145163D01*
X9915163Y-28914493D01*
X10040000Y-28613108D01*
X10040000Y-28286892D01*
X9915163Y-27985507D01*
X9684493Y-27754837D01*
X9569884Y-27707365D01*
X10173538Y-27103711D01*
X10234906Y-27062706D01*
X10397355Y-26819584D01*
X10440001Y-26605189D01*
X10454400Y-26532801D01*
X10440001Y-26460413D01*
X10440001Y-26287644D01*
X10892125Y-25835520D01*
X10924837Y-25914493D01*
X11155507Y-26145163D01*
X11456892Y-26270000D01*
X11783108Y-26270000D01*
X12084493Y-26145163D01*
X12205117Y-26024539D01*
X12200000Y-26036892D01*
X12200000Y-26130000D01*
X12156892Y-26130000D01*
X11855507Y-26254837D01*
X11624837Y-26485507D01*
X11500000Y-26786892D01*
X11500000Y-26880000D01*
X11456892Y-26880000D01*
X11155507Y-27004837D01*
X10924837Y-27235507D01*
X10800000Y-27536892D01*
X10800000Y-27863108D01*
X10924837Y-28164493D01*
X11155507Y-28395163D01*
X11456892Y-28520000D01*
X11783108Y-28520000D01*
X11988317Y-28435000D01*
X12024109Y-28435000D01*
X11855507Y-28504837D01*
X11624837Y-28735507D01*
X11500000Y-29036892D01*
X11500000Y-29130000D01*
X11456892Y-29130000D01*
X11155507Y-29254837D01*
X10924837Y-29485507D01*
X10800000Y-29786892D01*
X10800000Y-30113108D01*
X10924837Y-30414493D01*
X11155507Y-30645163D01*
X11456892Y-30770000D01*
X11783108Y-30770000D01*
X12084493Y-30645163D01*
X12205117Y-30524539D01*
X12200000Y-30536892D01*
X12200000Y-30863108D01*
X12324837Y-31164493D01*
X12555507Y-31395163D01*
X12856892Y-31520000D01*
X13183108Y-31520000D01*
X13484493Y-31395163D01*
X13715163Y-31164493D01*
X13840000Y-30863108D01*
X13840000Y-30536892D01*
X13715163Y-30235507D01*
X13484493Y-30004837D01*
X13183108Y-29880000D01*
X12856892Y-29880000D01*
X12555507Y-30004837D01*
X12434883Y-30125461D01*
X12440000Y-30113108D01*
X12440000Y-30020000D01*
X12483108Y-30020000D01*
X12784493Y-29895163D01*
X13015163Y-29664493D01*
X13140000Y-29363108D01*
X13140000Y-29270000D01*
X13183108Y-29270000D01*
X13484493Y-29145163D01*
X13715163Y-28914493D01*
X13840000Y-28613108D01*
X13840000Y-28286892D01*
X13825576Y-28252069D01*
X14641893Y-27435752D01*
X14600000Y-27536892D01*
X14600000Y-27863108D01*
X14724837Y-28164493D01*
X14955507Y-28395163D01*
X15256892Y-28520000D01*
X15583108Y-28520000D01*
X15884493Y-28395163D01*
X16005117Y-28274539D01*
X16000000Y-28286892D01*
X16000000Y-28380000D01*
X15956892Y-28380000D01*
X15655507Y-28504837D01*
X15424837Y-28735507D01*
X15300000Y-29036892D01*
X15300000Y-29130000D01*
X15256892Y-29130000D01*
X14955507Y-29254837D01*
X14724837Y-29485507D01*
X14600000Y-29786892D01*
X14600000Y-30113108D01*
X14724837Y-30414493D01*
X14955507Y-30645163D01*
X15256892Y-30770000D01*
X15583108Y-30770000D01*
X15884493Y-30645163D01*
X16005117Y-30524539D01*
X16000000Y-30536892D01*
X16000000Y-30863108D01*
X16124837Y-31164493D01*
X16355507Y-31395163D01*
X16656892Y-31520000D01*
X16983108Y-31520000D01*
X17284493Y-31395163D01*
X17515163Y-31164493D01*
X17640000Y-30863108D01*
X17640000Y-30536892D01*
X17515163Y-30235507D01*
X17284493Y-30004837D01*
X16983108Y-29880000D01*
X16656892Y-29880000D01*
X16355507Y-30004837D01*
X16234883Y-30125461D01*
X16240000Y-30113108D01*
X16240000Y-30020000D01*
X16283108Y-30020000D01*
X16584493Y-29895163D01*
X16815163Y-29664493D01*
X16940000Y-29363108D01*
X16940000Y-29270000D01*
X16983108Y-29270000D01*
X17284493Y-29145163D01*
X17515163Y-28914493D01*
X17640000Y-28613108D01*
X17640000Y-28286892D01*
X17593697Y-28175105D01*
X20700000Y-28175105D01*
X20700000Y-28944895D01*
X20994586Y-29656090D01*
X21538910Y-30200414D01*
X22250105Y-30495000D01*
X23019895Y-30495000D01*
X23731090Y-30200414D01*
X24275414Y-29656090D01*
X24570000Y-28944895D01*
X24570000Y-28175105D01*
X24275414Y-27463910D01*
X23731090Y-26919586D01*
X23019895Y-26625000D01*
X22250105Y-26625000D01*
X21538910Y-26919586D01*
X20994586Y-27463910D01*
X20700000Y-28175105D01*
X17593697Y-28175105D01*
X17515163Y-27985507D01*
X17284493Y-27754837D01*
X16983108Y-27630000D01*
X16656892Y-27630000D01*
X16355507Y-27754837D01*
X16234883Y-27875461D01*
X16240000Y-27863108D01*
X16240000Y-27770000D01*
X16283108Y-27770000D01*
X16584493Y-27645163D01*
X16815163Y-27414493D01*
X16940000Y-27113108D01*
X16940000Y-27020000D01*
X16983108Y-27020000D01*
X17284493Y-26895163D01*
X17515163Y-26664493D01*
X17637149Y-26369992D01*
X33527473Y-26369992D01*
X33599857Y-26384390D01*
X33672241Y-26369992D01*
X33672245Y-26369992D01*
X33886640Y-26327346D01*
X34129762Y-26164897D01*
X34170768Y-26103527D01*
X35560528Y-24713768D01*
X39611796Y-24713768D01*
X39671337Y-24857512D01*
X39962488Y-25148663D01*
X40342894Y-25306232D01*
X40754642Y-25306232D01*
X41135048Y-25148663D01*
X41426199Y-24857512D01*
X41558385Y-24538385D01*
X41877512Y-24406199D01*
X42168663Y-24115048D01*
X42326232Y-23734642D01*
X42326232Y-23322894D01*
X42168663Y-22942488D01*
X41877512Y-22651337D01*
X41567423Y-22522894D01*
X44313768Y-22522894D01*
X44313768Y-22934642D01*
X44471337Y-23315048D01*
X44762488Y-23606199D01*
X45081615Y-23738385D01*
X45213801Y-24057512D01*
X45504952Y-24348663D01*
X45885358Y-24506232D01*
X46297106Y-24506232D01*
X46677512Y-24348663D01*
X46968663Y-24057512D01*
X47117622Y-23697892D01*
X48458818Y-23697892D01*
X48458818Y-24109640D01*
X48616387Y-24490046D01*
X48907538Y-24781197D01*
X49226665Y-24913383D01*
X49358851Y-25232510D01*
X49650002Y-25523661D01*
X50030408Y-25681230D01*
X50201284Y-25681230D01*
X50201284Y-32410000D01*
X50049126Y-32410000D01*
X49668720Y-32567569D01*
X49377569Y-32858720D01*
X49220000Y-33239126D01*
X49220000Y-33650874D01*
X49377569Y-34031280D01*
X49668720Y-34322431D01*
X50049126Y-34480000D01*
X50460874Y-34480000D01*
X50841280Y-34322431D01*
X50890000Y-34273711D01*
X50938720Y-34322431D01*
X51319126Y-34480000D01*
X51730874Y-34480000D01*
X52111280Y-34322431D01*
X52147500Y-34286211D01*
X52208720Y-34347431D01*
X52589126Y-34505000D01*
X53000874Y-34505000D01*
X53381280Y-34347431D01*
X53430000Y-34298711D01*
X53453720Y-34322431D01*
X53834126Y-34480000D01*
X54245874Y-34480000D01*
X54626280Y-34322431D01*
X54917431Y-34031280D01*
X55075000Y-33650874D01*
X55075000Y-33239126D01*
X54917431Y-32858720D01*
X54626280Y-32567569D01*
X54245874Y-32410000D01*
X53834126Y-32410000D01*
X53453720Y-32567569D01*
X53405000Y-32616289D01*
X53381280Y-32592569D01*
X53000874Y-32435000D01*
X52589126Y-32435000D01*
X52208720Y-32592569D01*
X52172500Y-32628789D01*
X52111280Y-32567569D01*
X51730874Y-32410000D01*
X51721283Y-32410000D01*
X51721283Y-28175105D01*
X59430000Y-28175105D01*
X59430000Y-28944895D01*
X59724586Y-29656090D01*
X60268910Y-30200414D01*
X60980105Y-30495000D01*
X61749895Y-30495000D01*
X62461090Y-30200414D01*
X63005414Y-29656090D01*
X63300000Y-28944895D01*
X63300000Y-28175105D01*
X63005414Y-27463910D01*
X62461090Y-26919586D01*
X61749895Y-26625000D01*
X60980105Y-26625000D01*
X60268910Y-26919586D01*
X59724586Y-27463910D01*
X59430000Y-28175105D01*
X51721283Y-28175105D01*
X51721283Y-23322894D01*
X53913768Y-23322894D01*
X53913768Y-23734642D01*
X54071337Y-24115048D01*
X54362488Y-24406199D01*
X54681615Y-24538385D01*
X54813801Y-24857512D01*
X55104952Y-25148663D01*
X55485358Y-25306232D01*
X55897106Y-25306232D01*
X56277512Y-25148663D01*
X56568364Y-24857812D01*
X56718717Y-25008165D01*
X57099123Y-25165734D01*
X57510871Y-25165734D01*
X57891277Y-25008165D01*
X58182428Y-24717014D01*
X58339997Y-24336608D01*
X58339997Y-23924860D01*
X58182428Y-23544454D01*
X57891277Y-23253303D01*
X57510871Y-23095734D01*
X57351740Y-23095734D01*
X57324674Y-23030390D01*
X57033523Y-22739239D01*
X56653117Y-22581670D01*
X56241369Y-22581670D01*
X55860963Y-22739239D01*
X55741957Y-22858246D01*
X55535048Y-22651337D01*
X55154642Y-22493768D01*
X54742894Y-22493768D01*
X54362488Y-22651337D01*
X54071337Y-22942488D01*
X53913768Y-23322894D01*
X51721283Y-23322894D01*
X51721283Y-18605000D01*
X51730874Y-18605000D01*
X52111280Y-18447431D01*
X52210530Y-18348181D01*
X52589126Y-18505000D01*
X53000874Y-18505000D01*
X53379470Y-18348181D01*
X53478720Y-18447431D01*
X53859126Y-18605000D01*
X54270874Y-18605000D01*
X54651280Y-18447431D01*
X54942431Y-18156280D01*
X55100000Y-17775874D01*
X55100000Y-17364126D01*
X54942431Y-16983720D01*
X54651280Y-16692569D01*
X54270874Y-16535000D01*
X53859126Y-16535000D01*
X53480530Y-16691819D01*
X53381280Y-16592569D01*
X53000874Y-16435000D01*
X52589126Y-16435000D01*
X52208720Y-16592569D01*
X52109470Y-16691819D01*
X51730874Y-16535000D01*
X51319126Y-16535000D01*
X50938720Y-16692569D01*
X50890000Y-16741289D01*
X50841280Y-16692569D01*
X50460874Y-16535000D01*
X50049126Y-16535000D01*
X49668720Y-16692569D01*
X49377569Y-16983720D01*
X49220000Y-17364126D01*
X49220000Y-17775874D01*
X49377569Y-18156280D01*
X49668720Y-18447431D01*
X50049126Y-18605000D01*
X50201283Y-18605000D01*
X50201283Y-23147520D01*
X50080098Y-23026335D01*
X49699692Y-22868766D01*
X49287944Y-22868766D01*
X48907538Y-23026335D01*
X48616387Y-23317486D01*
X48458818Y-23697892D01*
X47117622Y-23697892D01*
X47126232Y-23677106D01*
X47126232Y-23265358D01*
X46968663Y-22884952D01*
X46677512Y-22593801D01*
X46358385Y-22461615D01*
X46226199Y-22142488D01*
X45935048Y-21851337D01*
X45554642Y-21693768D01*
X45142894Y-21693768D01*
X44762488Y-21851337D01*
X44471337Y-22142488D01*
X44313768Y-22522894D01*
X41567423Y-22522894D01*
X41497106Y-22493768D01*
X41085358Y-22493768D01*
X40704952Y-22651337D01*
X40570058Y-22786231D01*
X35149618Y-22786231D01*
X35077234Y-22771833D01*
X35004850Y-22786231D01*
X35004847Y-22786231D01*
X34790452Y-22828877D01*
X34547330Y-22991326D01*
X34506325Y-23052694D01*
X34021365Y-23537654D01*
X33877512Y-23393801D01*
X33558385Y-23261615D01*
X33426199Y-22942488D01*
X33135048Y-22651337D01*
X32754642Y-22493768D01*
X32342894Y-22493768D01*
X31962488Y-22651337D01*
X31671337Y-22942488D01*
X31513768Y-23322894D01*
X31513768Y-23734642D01*
X31671337Y-24115048D01*
X31962488Y-24406199D01*
X32068236Y-24450001D01*
X26571764Y-24450001D01*
X26677512Y-24406199D01*
X26968663Y-24115048D01*
X27126232Y-23734642D01*
X27126232Y-23322894D01*
X26968663Y-22942488D01*
X26677512Y-22651337D01*
X26297106Y-22493768D01*
X25885358Y-22493768D01*
X25504952Y-22651337D01*
X25370058Y-22786231D01*
X11602953Y-22786231D01*
X11530569Y-22771833D01*
X11458185Y-22786231D01*
X11458182Y-22786231D01*
X11243787Y-22828877D01*
X11000665Y-22991326D01*
X10959660Y-23052694D01*
X9340000Y-24672355D01*
X9340000Y-24536892D01*
X9215163Y-24235507D01*
X8984493Y-24004837D01*
X8683108Y-23880000D01*
X8356892Y-23880000D01*
X8055507Y-24004837D01*
X7824837Y-24235507D01*
X7700000Y-24536892D01*
X7700000Y-24630000D01*
X7656892Y-24630000D01*
X7355507Y-24754837D01*
X7124837Y-24985507D01*
X7000000Y-25286892D01*
X7000000Y-25613108D01*
X7124837Y-25914493D01*
X7355507Y-26145163D01*
X7470116Y-26192635D01*
X6866464Y-26796288D01*
X6805094Y-26837294D01*
X6642645Y-27080417D01*
X6599999Y-27294812D01*
X6599999Y-27294815D01*
X6585601Y-27367199D01*
X6595482Y-27416873D01*
X6071005Y-27941349D01*
X5884493Y-27754837D01*
X5583108Y-27630000D01*
X5256892Y-27630000D01*
X4955507Y-27754837D01*
X4834883Y-27875461D01*
X4840000Y-27863108D01*
X4840000Y-27770000D01*
X4883108Y-27770000D01*
X5184493Y-27645163D01*
X5415163Y-27414493D01*
X5540000Y-27113108D01*
X5540000Y-27020000D01*
X5583108Y-27020000D01*
X5884493Y-26895163D01*
X6115163Y-26664493D01*
X6240000Y-26363108D01*
X6240000Y-26036892D01*
X6115163Y-25735507D01*
X5884493Y-25504837D01*
X5583108Y-25380000D01*
X5256892Y-25380000D01*
X4955507Y-25504837D01*
X4834883Y-25625461D01*
X4840000Y-25613108D01*
X4840000Y-25520000D01*
X4883108Y-25520000D01*
X5184493Y-25395163D01*
X5415163Y-25164493D01*
X5540000Y-24863108D01*
X5540000Y-24536892D01*
X5415163Y-24235507D01*
X5184493Y-24004837D01*
X4883108Y-23880000D01*
X4556892Y-23880000D01*
X4255507Y-24004837D01*
X4024837Y-24235507D01*
X3900000Y-24536892D01*
X3900000Y-24630000D01*
X3856892Y-24630000D01*
X3555507Y-24754837D01*
X3324837Y-24985507D01*
X3200000Y-25286892D01*
X735000Y-25286892D01*
X735000Y-21354887D01*
X2385000Y-21354887D01*
X2385000Y-22045113D01*
X2649138Y-22682799D01*
X3137201Y-23170862D01*
X3774887Y-23435000D01*
X4465113Y-23435000D01*
X5102799Y-23170862D01*
X5590862Y-22682799D01*
X5855000Y-22045113D01*
X5855000Y-21354887D01*
X5590862Y-20717201D01*
X5102799Y-20229138D01*
X4465113Y-19965000D01*
X3774887Y-19965000D01*
X3137201Y-20229138D01*
X2649138Y-20717201D01*
X2385000Y-21354887D01*
X735000Y-21354887D01*
X735000Y-17354887D01*
X2385000Y-17354887D01*
X2385000Y-18045113D01*
X2649138Y-18682799D01*
X3137201Y-19170862D01*
X3774887Y-19435000D01*
X4465113Y-19435000D01*
X5102799Y-19170862D01*
X5590862Y-18682799D01*
X5855000Y-18045113D01*
X5855000Y-17354887D01*
X14385000Y-17354887D01*
X14385000Y-18045113D01*
X14649138Y-18682799D01*
X15137201Y-19170862D01*
X15774887Y-19435000D01*
X16465113Y-19435000D01*
X17102799Y-19170862D01*
X17590862Y-18682799D01*
X17855000Y-18045113D01*
X17855000Y-17364126D01*
X42870000Y-17364126D01*
X42870000Y-17775874D01*
X43027569Y-18156280D01*
X43318720Y-18447431D01*
X43699126Y-18605000D01*
X44110874Y-18605000D01*
X44491280Y-18447431D01*
X44540000Y-18398711D01*
X44588720Y-18447431D01*
X44969126Y-18605000D01*
X45380874Y-18605000D01*
X45761280Y-18447431D01*
X45810000Y-18398711D01*
X45858720Y-18447431D01*
X46239126Y-18605000D01*
X46650874Y-18605000D01*
X47031280Y-18447431D01*
X47322431Y-18156280D01*
X47480000Y-17775874D01*
X47480000Y-17364126D01*
X47322431Y-16983720D01*
X47031280Y-16692569D01*
X46650874Y-16535000D01*
X46239126Y-16535000D01*
X45858720Y-16692569D01*
X45810000Y-16741289D01*
X45761280Y-16692569D01*
X45380874Y-16535000D01*
X44969126Y-16535000D01*
X44588720Y-16692569D01*
X44540000Y-16741289D01*
X44491280Y-16692569D01*
X44110874Y-16535000D01*
X43699126Y-16535000D01*
X43318720Y-16692569D01*
X43027569Y-16983720D01*
X42870000Y-17364126D01*
X17855000Y-17364126D01*
X17855000Y-17354887D01*
X17590862Y-16717201D01*
X17102799Y-16229138D01*
X16465113Y-15965000D01*
X15774887Y-15965000D01*
X15137201Y-16229138D01*
X14649138Y-16717201D01*
X14385000Y-17354887D01*
X5855000Y-17354887D01*
X5590862Y-16717201D01*
X5102799Y-16229138D01*
X4465113Y-15965000D01*
X3774887Y-15965000D01*
X3137201Y-16229138D01*
X2649138Y-16717201D01*
X2385000Y-17354887D01*
X735000Y-17354887D01*
X735000Y-9286892D01*
X3200000Y-9286892D01*
X3200000Y-9613108D01*
X3324837Y-9914493D01*
X3555507Y-10145163D01*
X3856892Y-10270000D01*
X4183108Y-10270000D01*
X4484493Y-10145163D01*
X4605117Y-10024539D01*
X4600000Y-10036892D01*
X4600000Y-10130000D01*
X4556892Y-10130000D01*
X4255507Y-10254837D01*
X4024837Y-10485507D01*
X3900000Y-10786892D01*
X3900000Y-10880000D01*
X3856892Y-10880000D01*
X3555507Y-11004837D01*
X3324837Y-11235507D01*
X3200000Y-11536892D01*
X3200000Y-11863108D01*
X3324837Y-12164493D01*
X3555507Y-12395163D01*
X3856892Y-12520000D01*
X4183108Y-12520000D01*
X4484493Y-12395163D01*
X4605117Y-12274539D01*
X4600000Y-12286892D01*
X4600000Y-12380000D01*
X4556892Y-12380000D01*
X4255507Y-12504837D01*
X4024837Y-12735507D01*
X3900000Y-13036892D01*
X3900000Y-13130000D01*
X3856892Y-13130000D01*
X3555507Y-13254837D01*
X3324837Y-13485507D01*
X3200000Y-13786892D01*
X3200000Y-14113108D01*
X3324837Y-14414493D01*
X3555507Y-14645163D01*
X3856892Y-14770000D01*
X4183108Y-14770000D01*
X4388317Y-14685000D01*
X4600000Y-14685000D01*
X4600000Y-14863108D01*
X4724837Y-15164493D01*
X4955507Y-15395163D01*
X5256892Y-15520000D01*
X5583108Y-15520000D01*
X5884493Y-15395163D01*
X6115163Y-15164493D01*
X6240000Y-14863108D01*
X6240000Y-14536892D01*
X6225576Y-14502069D01*
X7041893Y-13685752D01*
X7000000Y-13786892D01*
X7000000Y-14113108D01*
X7124837Y-14414493D01*
X7355507Y-14645163D01*
X7656892Y-14770000D01*
X7983108Y-14770000D01*
X8284493Y-14645163D01*
X8405117Y-14524539D01*
X8400000Y-14536892D01*
X8400000Y-14863108D01*
X8524837Y-15164493D01*
X8755507Y-15395163D01*
X9056892Y-15520000D01*
X9383108Y-15520000D01*
X9684493Y-15395163D01*
X9915163Y-15164493D01*
X10040000Y-14863108D01*
X10040000Y-14536892D01*
X9915163Y-14235507D01*
X9684493Y-14004837D01*
X9383108Y-13880000D01*
X9056892Y-13880000D01*
X8755507Y-14004837D01*
X8634883Y-14125461D01*
X8640000Y-14113108D01*
X8640000Y-14020000D01*
X8683108Y-14020000D01*
X8984493Y-13895163D01*
X9215163Y-13664493D01*
X9340000Y-13363108D01*
X9340000Y-13270000D01*
X9383108Y-13270000D01*
X9684493Y-13145163D01*
X9915163Y-12914493D01*
X10040000Y-12613108D01*
X10040000Y-12286892D01*
X9915163Y-11985507D01*
X9684493Y-11754837D01*
X9569884Y-11707365D01*
X10173538Y-11103711D01*
X10234906Y-11062706D01*
X10397355Y-10819584D01*
X10440001Y-10605189D01*
X10454400Y-10532801D01*
X10440001Y-10460413D01*
X10440001Y-10287644D01*
X10892125Y-9835520D01*
X10924837Y-9914493D01*
X11155507Y-10145163D01*
X11456892Y-10270000D01*
X11783108Y-10270000D01*
X12084493Y-10145163D01*
X12205117Y-10024539D01*
X12200000Y-10036892D01*
X12200000Y-10130000D01*
X12156892Y-10130000D01*
X11855507Y-10254837D01*
X11624837Y-10485507D01*
X11500000Y-10786892D01*
X11500000Y-10880000D01*
X11456892Y-10880000D01*
X11155507Y-11004837D01*
X10924837Y-11235507D01*
X10800000Y-11536892D01*
X10800000Y-11863108D01*
X10924837Y-12164493D01*
X11155507Y-12395163D01*
X11456892Y-12520000D01*
X11783108Y-12520000D01*
X11988317Y-12435000D01*
X12024109Y-12435000D01*
X11855507Y-12504837D01*
X11624837Y-12735507D01*
X11500000Y-13036892D01*
X11500000Y-13130000D01*
X11456892Y-13130000D01*
X11155507Y-13254837D01*
X10924837Y-13485507D01*
X10800000Y-13786892D01*
X10800000Y-14113108D01*
X10924837Y-14414493D01*
X11155507Y-14645163D01*
X11456892Y-14770000D01*
X11783108Y-14770000D01*
X12084493Y-14645163D01*
X12205117Y-14524539D01*
X12200000Y-14536892D01*
X12200000Y-14863108D01*
X12324837Y-15164493D01*
X12555507Y-15395163D01*
X12856892Y-15520000D01*
X13183108Y-15520000D01*
X13484493Y-15395163D01*
X13715163Y-15164493D01*
X13840000Y-14863108D01*
X13840000Y-14536892D01*
X13715163Y-14235507D01*
X13484493Y-14004837D01*
X13183108Y-13880000D01*
X12856892Y-13880000D01*
X12555507Y-14004837D01*
X12434883Y-14125461D01*
X12440000Y-14113108D01*
X12440000Y-14020000D01*
X12483108Y-14020000D01*
X12784493Y-13895163D01*
X13015163Y-13664493D01*
X13140000Y-13363108D01*
X13140000Y-13270000D01*
X13183108Y-13270000D01*
X13484493Y-13145163D01*
X13715163Y-12914493D01*
X13840000Y-12613108D01*
X13840000Y-12286892D01*
X13825576Y-12252069D01*
X14641893Y-11435752D01*
X14600000Y-11536892D01*
X14600000Y-11863108D01*
X14724837Y-12164493D01*
X14955507Y-12395163D01*
X15256892Y-12520000D01*
X15583108Y-12520000D01*
X15884493Y-12395163D01*
X16005117Y-12274539D01*
X16000000Y-12286892D01*
X16000000Y-12380000D01*
X15956892Y-12380000D01*
X15655507Y-12504837D01*
X15424837Y-12735507D01*
X15300000Y-13036892D01*
X15300000Y-13130000D01*
X15256892Y-13130000D01*
X14955507Y-13254837D01*
X14724837Y-13485507D01*
X14600000Y-13786892D01*
X14600000Y-14113108D01*
X14724837Y-14414493D01*
X14955507Y-14645163D01*
X15256892Y-14770000D01*
X15583108Y-14770000D01*
X15884493Y-14645163D01*
X16005117Y-14524539D01*
X16000000Y-14536892D01*
X16000000Y-14863108D01*
X16124837Y-15164493D01*
X16355507Y-15395163D01*
X16656892Y-15520000D01*
X16983108Y-15520000D01*
X17284493Y-15395163D01*
X17515163Y-15164493D01*
X17640000Y-14863108D01*
X17640000Y-14536892D01*
X17515163Y-14235507D01*
X17284493Y-14004837D01*
X16983108Y-13880000D01*
X16656892Y-13880000D01*
X16355507Y-14004837D01*
X16234883Y-14125461D01*
X16240000Y-14113108D01*
X16240000Y-14020000D01*
X16283108Y-14020000D01*
X16584493Y-13895163D01*
X16815163Y-13664493D01*
X16940000Y-13363108D01*
X16940000Y-13270000D01*
X16983108Y-13270000D01*
X17284493Y-13145163D01*
X17515163Y-12914493D01*
X17640000Y-12613108D01*
X17640000Y-12286892D01*
X17593697Y-12175105D01*
X20700000Y-12175105D01*
X20700000Y-12944895D01*
X20994586Y-13656090D01*
X21538910Y-14200414D01*
X22250105Y-14495000D01*
X23019895Y-14495000D01*
X23731090Y-14200414D01*
X24275414Y-13656090D01*
X24570000Y-12944895D01*
X24570000Y-12175105D01*
X59430000Y-12175105D01*
X59430000Y-12944895D01*
X59724586Y-13656090D01*
X60268910Y-14200414D01*
X60980105Y-14495000D01*
X61749895Y-14495000D01*
X62461090Y-14200414D01*
X63005414Y-13656090D01*
X63300000Y-12944895D01*
X63300000Y-12175105D01*
X63005414Y-11463910D01*
X62461090Y-10919586D01*
X61749895Y-10625000D01*
X60980105Y-10625000D01*
X60268910Y-10919586D01*
X59724586Y-11463910D01*
X59430000Y-12175105D01*
X24570000Y-12175105D01*
X24275414Y-11463910D01*
X23731090Y-10919586D01*
X23019895Y-10625000D01*
X22250105Y-10625000D01*
X21538910Y-10919586D01*
X20994586Y-11463910D01*
X20700000Y-12175105D01*
X17593697Y-12175105D01*
X17515163Y-11985507D01*
X17284493Y-11754837D01*
X16983108Y-11630000D01*
X16656892Y-11630000D01*
X16355507Y-11754837D01*
X16234883Y-11875461D01*
X16240000Y-11863108D01*
X16240000Y-11770000D01*
X16283108Y-11770000D01*
X16584493Y-11645163D01*
X16815163Y-11414493D01*
X16940000Y-11113108D01*
X16940000Y-11020000D01*
X16983108Y-11020000D01*
X17284493Y-10895163D01*
X17515163Y-10664493D01*
X17637149Y-10369992D01*
X33527473Y-10369992D01*
X33599857Y-10384390D01*
X33672241Y-10369992D01*
X33672245Y-10369992D01*
X33886640Y-10327346D01*
X34129762Y-10164897D01*
X34170768Y-10103527D01*
X35560528Y-8713768D01*
X39611796Y-8713768D01*
X39671337Y-8857512D01*
X39962488Y-9148663D01*
X40342894Y-9306232D01*
X40754642Y-9306232D01*
X41135048Y-9148663D01*
X41426199Y-8857512D01*
X41558385Y-8538385D01*
X41877512Y-8406199D01*
X42168663Y-8115048D01*
X42326232Y-7734642D01*
X42326232Y-7322894D01*
X42168663Y-6942488D01*
X41877512Y-6651337D01*
X41567423Y-6522894D01*
X44313768Y-6522894D01*
X44313768Y-6934642D01*
X44471337Y-7315048D01*
X44762488Y-7606199D01*
X45081615Y-7738385D01*
X45213801Y-8057512D01*
X45504952Y-8348663D01*
X45885358Y-8506232D01*
X46297106Y-8506232D01*
X46677512Y-8348663D01*
X46968663Y-8057512D01*
X47117622Y-7697892D01*
X48458818Y-7697892D01*
X48458818Y-8109640D01*
X48616387Y-8490046D01*
X48907538Y-8781197D01*
X49226665Y-8913383D01*
X49358851Y-9232510D01*
X49650002Y-9523661D01*
X50030408Y-9681230D01*
X50442156Y-9681230D01*
X50822562Y-9523661D01*
X51113713Y-9232510D01*
X51271282Y-8852104D01*
X51271282Y-8440356D01*
X51113713Y-8059950D01*
X50822562Y-7768799D01*
X50503435Y-7636613D01*
X50373490Y-7322894D01*
X53913768Y-7322894D01*
X53913768Y-7734642D01*
X54071337Y-8115048D01*
X54362488Y-8406199D01*
X54681615Y-8538385D01*
X54813801Y-8857512D01*
X55104952Y-9148663D01*
X55485358Y-9306232D01*
X55897106Y-9306232D01*
X56277512Y-9148663D01*
X56568364Y-8857812D01*
X56718717Y-9008165D01*
X57099123Y-9165734D01*
X57510871Y-9165734D01*
X57891277Y-9008165D01*
X58182428Y-8717014D01*
X58339997Y-8336608D01*
X58339997Y-7924860D01*
X58182428Y-7544454D01*
X57891277Y-7253303D01*
X57510871Y-7095734D01*
X57351740Y-7095734D01*
X57324674Y-7030390D01*
X57033523Y-6739239D01*
X56653117Y-6581670D01*
X56241369Y-6581670D01*
X55860963Y-6739239D01*
X55741957Y-6858246D01*
X55535048Y-6651337D01*
X55154642Y-6493768D01*
X54742894Y-6493768D01*
X54362488Y-6651337D01*
X54071337Y-6942488D01*
X53913768Y-7322894D01*
X50373490Y-7322894D01*
X50371249Y-7317486D01*
X50080098Y-7026335D01*
X49699692Y-6868766D01*
X49287944Y-6868766D01*
X48907538Y-7026335D01*
X48616387Y-7317486D01*
X48458818Y-7697892D01*
X47117622Y-7697892D01*
X47126232Y-7677106D01*
X47126232Y-7265358D01*
X46968663Y-6884952D01*
X46677512Y-6593801D01*
X46358385Y-6461615D01*
X46226199Y-6142488D01*
X45935048Y-5851337D01*
X45554642Y-5693768D01*
X45142894Y-5693768D01*
X44762488Y-5851337D01*
X44471337Y-6142488D01*
X44313768Y-6522894D01*
X41567423Y-6522894D01*
X41497106Y-6493768D01*
X41085358Y-6493768D01*
X40704952Y-6651337D01*
X40570058Y-6786231D01*
X35149618Y-6786231D01*
X35077234Y-6771833D01*
X35004850Y-6786231D01*
X35004847Y-6786231D01*
X34790452Y-6828877D01*
X34547330Y-6991326D01*
X34506325Y-7052694D01*
X34021365Y-7537654D01*
X33877512Y-7393801D01*
X33558385Y-7261615D01*
X33426199Y-6942488D01*
X33135048Y-6651337D01*
X32754642Y-6493768D01*
X32342894Y-6493768D01*
X31962488Y-6651337D01*
X31671337Y-6942488D01*
X31513768Y-7322894D01*
X31513768Y-7734642D01*
X31671337Y-8115048D01*
X31962488Y-8406199D01*
X32068236Y-8450001D01*
X26571764Y-8450001D01*
X26677512Y-8406199D01*
X26968663Y-8115048D01*
X27126232Y-7734642D01*
X27126232Y-7322894D01*
X26968663Y-6942488D01*
X26677512Y-6651337D01*
X26297106Y-6493768D01*
X25885358Y-6493768D01*
X25504952Y-6651337D01*
X25370058Y-6786231D01*
X11602953Y-6786231D01*
X11530569Y-6771833D01*
X11458185Y-6786231D01*
X11458182Y-6786231D01*
X11243787Y-6828877D01*
X11000665Y-6991326D01*
X10959660Y-7052694D01*
X9340000Y-8672355D01*
X9340000Y-8536892D01*
X9215163Y-8235507D01*
X8984493Y-8004837D01*
X8683108Y-7880000D01*
X8356892Y-7880000D01*
X8055507Y-8004837D01*
X7824837Y-8235507D01*
X7700000Y-8536892D01*
X7700000Y-8630000D01*
X7656892Y-8630000D01*
X7355507Y-8754837D01*
X7124837Y-8985507D01*
X7000000Y-9286892D01*
X7000000Y-9613108D01*
X7124837Y-9914493D01*
X7355507Y-10145163D01*
X7470116Y-10192635D01*
X6866464Y-10796288D01*
X6805094Y-10837294D01*
X6642645Y-11080417D01*
X6599999Y-11294812D01*
X6599999Y-11294815D01*
X6585601Y-11367199D01*
X6595482Y-11416873D01*
X6071005Y-11941349D01*
X5884493Y-11754837D01*
X5583108Y-11630000D01*
X5256892Y-11630000D01*
X4955507Y-11754837D01*
X4834883Y-11875461D01*
X4840000Y-11863108D01*
X4840000Y-11770000D01*
X4883108Y-11770000D01*
X5184493Y-11645163D01*
X5415163Y-11414493D01*
X5540000Y-11113108D01*
X5540000Y-11020000D01*
X5583108Y-11020000D01*
X5884493Y-10895163D01*
X6115163Y-10664493D01*
X6240000Y-10363108D01*
X6240000Y-10036892D01*
X6115163Y-9735507D01*
X5884493Y-9504837D01*
X5583108Y-9380000D01*
X5256892Y-9380000D01*
X4955507Y-9504837D01*
X4834883Y-9625461D01*
X4840000Y-9613108D01*
X4840000Y-9520000D01*
X4883108Y-9520000D01*
X5184493Y-9395163D01*
X5415163Y-9164493D01*
X5540000Y-8863108D01*
X5540000Y-8536892D01*
X5415163Y-8235507D01*
X5184493Y-8004837D01*
X4883108Y-7880000D01*
X4556892Y-7880000D01*
X4255507Y-8004837D01*
X4024837Y-8235507D01*
X3900000Y-8536892D01*
X3900000Y-8630000D01*
X3856892Y-8630000D01*
X3555507Y-8754837D01*
X3324837Y-8985507D01*
X3200000Y-9286892D01*
X735000Y-9286892D01*
X735000Y-5354887D01*
X2385000Y-5354887D01*
X2385000Y-6045113D01*
X2649138Y-6682799D01*
X3137201Y-7170862D01*
X3774887Y-7435000D01*
X4465113Y-7435000D01*
X5102799Y-7170862D01*
X5590862Y-6682799D01*
X5855000Y-6045113D01*
X5855000Y-5354887D01*
X5590862Y-4717201D01*
X5102799Y-4229138D01*
X4465113Y-3965000D01*
X3774887Y-3965000D01*
X3137201Y-4229138D01*
X2649138Y-4717201D01*
X2385000Y-5354887D01*
X735000Y-5354887D01*
X735000Y-3241089D01*
X800751Y-2654908D01*
X981140Y-2136900D01*
X1271808Y-1671734D01*
X1658308Y-1282526D01*
X2121438Y-988614D01*
X2638164Y-804617D01*
X3221984Y-735000D01*
X67608911Y-735000D01*
X68195092Y-800751D01*
X68195092Y-800751D01*
G37*
X68195092Y-800751D02*
X68713100Y-981140D01*
X69178266Y-1271808D01*
X69567474Y-1658308D01*
X69861386Y-2121438D01*
X70045383Y-2638164D01*
X70115000Y-3221984D01*
X70115000Y-16710120D01*
X69475517Y-16070637D01*
X67771959Y-15365000D01*
X65928041Y-15365000D01*
X64224483Y-16070637D01*
X62920637Y-17374483D01*
X62215000Y-19078041D01*
X62215000Y-20921959D01*
X62920637Y-22625517D01*
X64224483Y-23929363D01*
X65928041Y-24635000D01*
X67771959Y-24635000D01*
X69475517Y-23929363D01*
X70115001Y-23289879D01*
X70115001Y-32872388D01*
X70122947Y-32912336D01*
X70073780Y-33350669D01*
X69891548Y-33873969D01*
X69597909Y-34343890D01*
X69207451Y-34737083D01*
X68739593Y-35033995D01*
X68217576Y-35219877D01*
X67766155Y-35273706D01*
X67722388Y-35265000D01*
X16875530Y-35265000D01*
X17102799Y-35170862D01*
X17590862Y-34682799D01*
X17855000Y-34045113D01*
X17855000Y-33354887D01*
X17807051Y-33239126D01*
X42870000Y-33239126D01*
X42870000Y-33650874D01*
X43027569Y-34031280D01*
X43318720Y-34322431D01*
X43699126Y-34480000D01*
X44110874Y-34480000D01*
X44491280Y-34322431D01*
X44540000Y-34273711D01*
X44588720Y-34322431D01*
X44969126Y-34480000D01*
X45380874Y-34480000D01*
X45761280Y-34322431D01*
X45797500Y-34286211D01*
X45833720Y-34322431D01*
X46214126Y-34480000D01*
X46625874Y-34480000D01*
X47006280Y-34322431D01*
X47297431Y-34031280D01*
X47455000Y-33650874D01*
X47455000Y-33239126D01*
X47297431Y-32858720D01*
X47006280Y-32567569D01*
X46625874Y-32410000D01*
X46214126Y-32410000D01*
X45833720Y-32567569D01*
X45797500Y-32603789D01*
X45761280Y-32567569D01*
X45380874Y-32410000D01*
X44969126Y-32410000D01*
X44588720Y-32567569D01*
X44540000Y-32616289D01*
X44491280Y-32567569D01*
X44110874Y-32410000D01*
X43699126Y-32410000D01*
X43318720Y-32567569D01*
X43027569Y-32858720D01*
X42870000Y-33239126D01*
X17807051Y-33239126D01*
X17590862Y-32717201D01*
X17102799Y-32229138D01*
X16465113Y-31965000D01*
X15774887Y-31965000D01*
X15137201Y-32229138D01*
X14649138Y-32717201D01*
X14385000Y-33354887D01*
X14385000Y-34045113D01*
X14649138Y-34682799D01*
X15137201Y-35170862D01*
X15364470Y-35265000D01*
X4875530Y-35265000D01*
X5102799Y-35170862D01*
X5590862Y-34682799D01*
X5855000Y-34045113D01*
X5855000Y-33354887D01*
X5590862Y-32717201D01*
X5102799Y-32229138D01*
X4465113Y-31965000D01*
X3774887Y-31965000D01*
X3137201Y-32229138D01*
X2649138Y-32717201D01*
X2385000Y-33354887D01*
X2385000Y-34045113D01*
X2649138Y-34682799D01*
X3137201Y-35170862D01*
X3364470Y-35265000D01*
X3241089Y-35265000D01*
X2654908Y-35199249D01*
X2136899Y-35018859D01*
X1671734Y-34728192D01*
X1282524Y-34341689D01*
X988614Y-33878562D01*
X804617Y-33361837D01*
X735000Y-32778016D01*
X735000Y-25286892D01*
X3200000Y-25286892D01*
X3200000Y-25613108D01*
X3324837Y-25914493D01*
X3555507Y-26145163D01*
X3856892Y-26270000D01*
X4183108Y-26270000D01*
X4484493Y-26145163D01*
X4605117Y-26024539D01*
X4600000Y-26036892D01*
X4600000Y-26130000D01*
X4556892Y-26130000D01*
X4255507Y-26254837D01*
X4024837Y-26485507D01*
X3900000Y-26786892D01*
X3900000Y-26880000D01*
X3856892Y-26880000D01*
X3555507Y-27004837D01*
X3324837Y-27235507D01*
X3200000Y-27536892D01*
X3200000Y-27863108D01*
X3324837Y-28164493D01*
X3555507Y-28395163D01*
X3856892Y-28520000D01*
X4183108Y-28520000D01*
X4484493Y-28395163D01*
X4605117Y-28274539D01*
X4600000Y-28286892D01*
X4600000Y-28380000D01*
X4556892Y-28380000D01*
X4255507Y-28504837D01*
X4024837Y-28735507D01*
X3900000Y-29036892D01*
X3900000Y-29130000D01*
X3856892Y-29130000D01*
X3555507Y-29254837D01*
X3324837Y-29485507D01*
X3200000Y-29786892D01*
X3200000Y-30113108D01*
X3324837Y-30414493D01*
X3555507Y-30645163D01*
X3856892Y-30770000D01*
X4183108Y-30770000D01*
X4388317Y-30685000D01*
X4600000Y-30685000D01*
X4600000Y-30863108D01*
X4724837Y-31164493D01*
X4955507Y-31395163D01*
X5256892Y-31520000D01*
X5583108Y-31520000D01*
X5884493Y-31395163D01*
X6115163Y-31164493D01*
X6240000Y-30863108D01*
X6240000Y-30536892D01*
X6225576Y-30502069D01*
X7041893Y-29685752D01*
X7000000Y-29786892D01*
X7000000Y-30113108D01*
X7124837Y-30414493D01*
X7355507Y-30645163D01*
X7656892Y-30770000D01*
X7983108Y-30770000D01*
X8284493Y-30645163D01*
X8405117Y-30524539D01*
X8400000Y-30536892D01*
X8400000Y-30863108D01*
X8524837Y-31164493D01*
X8755507Y-31395163D01*
X9056892Y-31520000D01*
X9383108Y-31520000D01*
X9684493Y-31395163D01*
X9915163Y-31164493D01*
X10040000Y-30863108D01*
X10040000Y-30536892D01*
X9915163Y-30235507D01*
X9684493Y-30004837D01*
X9383108Y-29880000D01*
X9056892Y-29880000D01*
X8755507Y-30004837D01*
X8634883Y-30125461D01*
X8640000Y-30113108D01*
X8640000Y-30020000D01*
X8683108Y-30020000D01*
X8984493Y-29895163D01*
X9215163Y-29664493D01*
X9340000Y-29363108D01*
X9340000Y-29270000D01*
X9383108Y-29270000D01*
X9684493Y-29145163D01*
X9915163Y-28914493D01*
X10040000Y-28613108D01*
X10040000Y-28286892D01*
X9915163Y-27985507D01*
X9684493Y-27754837D01*
X9569884Y-27707365D01*
X10173538Y-27103711D01*
X10234906Y-27062706D01*
X10397355Y-26819584D01*
X10440001Y-26605189D01*
X10454400Y-26532801D01*
X10440001Y-26460413D01*
X10440001Y-26287644D01*
X10892125Y-25835520D01*
X10924837Y-25914493D01*
X11155507Y-26145163D01*
X11456892Y-26270000D01*
X11783108Y-26270000D01*
X12084493Y-26145163D01*
X12205117Y-26024539D01*
X12200000Y-26036892D01*
X12200000Y-26130000D01*
X12156892Y-26130000D01*
X11855507Y-26254837D01*
X11624837Y-26485507D01*
X11500000Y-26786892D01*
X11500000Y-26880000D01*
X11456892Y-26880000D01*
X11155507Y-27004837D01*
X10924837Y-27235507D01*
X10800000Y-27536892D01*
X10800000Y-27863108D01*
X10924837Y-28164493D01*
X11155507Y-28395163D01*
X11456892Y-28520000D01*
X11783108Y-28520000D01*
X11988317Y-28435000D01*
X12024109Y-28435000D01*
X11855507Y-28504837D01*
X11624837Y-28735507D01*
X11500000Y-29036892D01*
X11500000Y-29130000D01*
X11456892Y-29130000D01*
X11155507Y-29254837D01*
X10924837Y-29485507D01*
X10800000Y-29786892D01*
X10800000Y-30113108D01*
X10924837Y-30414493D01*
X11155507Y-30645163D01*
X11456892Y-30770000D01*
X11783108Y-30770000D01*
X12084493Y-30645163D01*
X12205117Y-30524539D01*
X12200000Y-30536892D01*
X12200000Y-30863108D01*
X12324837Y-31164493D01*
X12555507Y-31395163D01*
X12856892Y-31520000D01*
X13183108Y-31520000D01*
X13484493Y-31395163D01*
X13715163Y-31164493D01*
X13840000Y-30863108D01*
X13840000Y-30536892D01*
X13715163Y-30235507D01*
X13484493Y-30004837D01*
X13183108Y-29880000D01*
X12856892Y-29880000D01*
X12555507Y-30004837D01*
X12434883Y-30125461D01*
X12440000Y-30113108D01*
X12440000Y-30020000D01*
X12483108Y-30020000D01*
X12784493Y-29895163D01*
X13015163Y-29664493D01*
X13140000Y-29363108D01*
X13140000Y-29270000D01*
X13183108Y-29270000D01*
X13484493Y-29145163D01*
X13715163Y-28914493D01*
X13840000Y-28613108D01*
X13840000Y-28286892D01*
X13825576Y-28252069D01*
X14641893Y-27435752D01*
X14600000Y-27536892D01*
X14600000Y-27863108D01*
X14724837Y-28164493D01*
X14955507Y-28395163D01*
X15256892Y-28520000D01*
X15583108Y-28520000D01*
X15884493Y-28395163D01*
X16005117Y-28274539D01*
X16000000Y-28286892D01*
X16000000Y-28380000D01*
X15956892Y-28380000D01*
X15655507Y-28504837D01*
X15424837Y-28735507D01*
X15300000Y-29036892D01*
X15300000Y-29130000D01*
X15256892Y-29130000D01*
X14955507Y-29254837D01*
X14724837Y-29485507D01*
X14600000Y-29786892D01*
X14600000Y-30113108D01*
X14724837Y-30414493D01*
X14955507Y-30645163D01*
X15256892Y-30770000D01*
X15583108Y-30770000D01*
X15884493Y-30645163D01*
X16005117Y-30524539D01*
X16000000Y-30536892D01*
X16000000Y-30863108D01*
X16124837Y-31164493D01*
X16355507Y-31395163D01*
X16656892Y-31520000D01*
X16983108Y-31520000D01*
X17284493Y-31395163D01*
X17515163Y-31164493D01*
X17640000Y-30863108D01*
X17640000Y-30536892D01*
X17515163Y-30235507D01*
X17284493Y-30004837D01*
X16983108Y-29880000D01*
X16656892Y-29880000D01*
X16355507Y-30004837D01*
X16234883Y-30125461D01*
X16240000Y-30113108D01*
X16240000Y-30020000D01*
X16283108Y-30020000D01*
X16584493Y-29895163D01*
X16815163Y-29664493D01*
X16940000Y-29363108D01*
X16940000Y-29270000D01*
X16983108Y-29270000D01*
X17284493Y-29145163D01*
X17515163Y-28914493D01*
X17640000Y-28613108D01*
X17640000Y-28286892D01*
X17593697Y-28175105D01*
X20700000Y-28175105D01*
X20700000Y-28944895D01*
X20994586Y-29656090D01*
X21538910Y-30200414D01*
X22250105Y-30495000D01*
X23019895Y-30495000D01*
X23731090Y-30200414D01*
X24275414Y-29656090D01*
X24570000Y-28944895D01*
X24570000Y-28175105D01*
X24275414Y-27463910D01*
X23731090Y-26919586D01*
X23019895Y-26625000D01*
X22250105Y-26625000D01*
X21538910Y-26919586D01*
X20994586Y-27463910D01*
X20700000Y-28175105D01*
X17593697Y-28175105D01*
X17515163Y-27985507D01*
X17284493Y-27754837D01*
X16983108Y-27630000D01*
X16656892Y-27630000D01*
X16355507Y-27754837D01*
X16234883Y-27875461D01*
X16240000Y-27863108D01*
X16240000Y-27770000D01*
X16283108Y-27770000D01*
X16584493Y-27645163D01*
X16815163Y-27414493D01*
X16940000Y-27113108D01*
X16940000Y-27020000D01*
X16983108Y-27020000D01*
X17284493Y-26895163D01*
X17515163Y-26664493D01*
X17637149Y-26369992D01*
X33527473Y-26369992D01*
X33599857Y-26384390D01*
X33672241Y-26369992D01*
X33672245Y-26369992D01*
X33886640Y-26327346D01*
X34129762Y-26164897D01*
X34170768Y-26103527D01*
X35560528Y-24713768D01*
X39611796Y-24713768D01*
X39671337Y-24857512D01*
X39962488Y-25148663D01*
X40342894Y-25306232D01*
X40754642Y-25306232D01*
X41135048Y-25148663D01*
X41426199Y-24857512D01*
X41558385Y-24538385D01*
X41877512Y-24406199D01*
X42168663Y-24115048D01*
X42326232Y-23734642D01*
X42326232Y-23322894D01*
X42168663Y-22942488D01*
X41877512Y-22651337D01*
X41567423Y-22522894D01*
X44313768Y-22522894D01*
X44313768Y-22934642D01*
X44471337Y-23315048D01*
X44762488Y-23606199D01*
X45081615Y-23738385D01*
X45213801Y-24057512D01*
X45504952Y-24348663D01*
X45885358Y-24506232D01*
X46297106Y-24506232D01*
X46677512Y-24348663D01*
X46968663Y-24057512D01*
X47117622Y-23697892D01*
X48458818Y-23697892D01*
X48458818Y-24109640D01*
X48616387Y-24490046D01*
X48907538Y-24781197D01*
X49226665Y-24913383D01*
X49358851Y-25232510D01*
X49650002Y-25523661D01*
X50030408Y-25681230D01*
X50201284Y-25681230D01*
X50201284Y-32410000D01*
X50049126Y-32410000D01*
X49668720Y-32567569D01*
X49377569Y-32858720D01*
X49220000Y-33239126D01*
X49220000Y-33650874D01*
X49377569Y-34031280D01*
X49668720Y-34322431D01*
X50049126Y-34480000D01*
X50460874Y-34480000D01*
X50841280Y-34322431D01*
X50890000Y-34273711D01*
X50938720Y-34322431D01*
X51319126Y-34480000D01*
X51730874Y-34480000D01*
X52111280Y-34322431D01*
X52147500Y-34286211D01*
X52208720Y-34347431D01*
X52589126Y-34505000D01*
X53000874Y-34505000D01*
X53381280Y-34347431D01*
X53430000Y-34298711D01*
X53453720Y-34322431D01*
X53834126Y-34480000D01*
X54245874Y-34480000D01*
X54626280Y-34322431D01*
X54917431Y-34031280D01*
X55075000Y-33650874D01*
X55075000Y-33239126D01*
X54917431Y-32858720D01*
X54626280Y-32567569D01*
X54245874Y-32410000D01*
X53834126Y-32410000D01*
X53453720Y-32567569D01*
X53405000Y-32616289D01*
X53381280Y-32592569D01*
X53000874Y-32435000D01*
X52589126Y-32435000D01*
X52208720Y-32592569D01*
X52172500Y-32628789D01*
X52111280Y-32567569D01*
X51730874Y-32410000D01*
X51721283Y-32410000D01*
X51721283Y-28175105D01*
X59430000Y-28175105D01*
X59430000Y-28944895D01*
X59724586Y-29656090D01*
X60268910Y-30200414D01*
X60980105Y-30495000D01*
X61749895Y-30495000D01*
X62461090Y-30200414D01*
X63005414Y-29656090D01*
X63300000Y-28944895D01*
X63300000Y-28175105D01*
X63005414Y-27463910D01*
X62461090Y-26919586D01*
X61749895Y-26625000D01*
X60980105Y-26625000D01*
X60268910Y-26919586D01*
X59724586Y-27463910D01*
X59430000Y-28175105D01*
X51721283Y-28175105D01*
X51721283Y-23322894D01*
X53913768Y-23322894D01*
X53913768Y-23734642D01*
X54071337Y-24115048D01*
X54362488Y-24406199D01*
X54681615Y-24538385D01*
X54813801Y-24857512D01*
X55104952Y-25148663D01*
X55485358Y-25306232D01*
X55897106Y-25306232D01*
X56277512Y-25148663D01*
X56568364Y-24857812D01*
X56718717Y-25008165D01*
X57099123Y-25165734D01*
X57510871Y-25165734D01*
X57891277Y-25008165D01*
X58182428Y-24717014D01*
X58339997Y-24336608D01*
X58339997Y-23924860D01*
X58182428Y-23544454D01*
X57891277Y-23253303D01*
X57510871Y-23095734D01*
X57351740Y-23095734D01*
X57324674Y-23030390D01*
X57033523Y-22739239D01*
X56653117Y-22581670D01*
X56241369Y-22581670D01*
X55860963Y-22739239D01*
X55741957Y-22858246D01*
X55535048Y-22651337D01*
X55154642Y-22493768D01*
X54742894Y-22493768D01*
X54362488Y-22651337D01*
X54071337Y-22942488D01*
X53913768Y-23322894D01*
X51721283Y-23322894D01*
X51721283Y-18605000D01*
X51730874Y-18605000D01*
X52111280Y-18447431D01*
X52210530Y-18348181D01*
X52589126Y-18505000D01*
X53000874Y-18505000D01*
X53379470Y-18348181D01*
X53478720Y-18447431D01*
X53859126Y-18605000D01*
X54270874Y-18605000D01*
X54651280Y-18447431D01*
X54942431Y-18156280D01*
X55100000Y-17775874D01*
X55100000Y-17364126D01*
X54942431Y-16983720D01*
X54651280Y-16692569D01*
X54270874Y-16535000D01*
X53859126Y-16535000D01*
X53480530Y-16691819D01*
X53381280Y-16592569D01*
X53000874Y-16435000D01*
X52589126Y-16435000D01*
X52208720Y-16592569D01*
X52109470Y-16691819D01*
X51730874Y-16535000D01*
X51319126Y-16535000D01*
X50938720Y-16692569D01*
X50890000Y-16741289D01*
X50841280Y-16692569D01*
X50460874Y-16535000D01*
X50049126Y-16535000D01*
X49668720Y-16692569D01*
X49377569Y-16983720D01*
X49220000Y-17364126D01*
X49220000Y-17775874D01*
X49377569Y-18156280D01*
X49668720Y-18447431D01*
X50049126Y-18605000D01*
X50201283Y-18605000D01*
X50201283Y-23147520D01*
X50080098Y-23026335D01*
X49699692Y-22868766D01*
X49287944Y-22868766D01*
X48907538Y-23026335D01*
X48616387Y-23317486D01*
X48458818Y-23697892D01*
X47117622Y-23697892D01*
X47126232Y-23677106D01*
X47126232Y-23265358D01*
X46968663Y-22884952D01*
X46677512Y-22593801D01*
X46358385Y-22461615D01*
X46226199Y-22142488D01*
X45935048Y-21851337D01*
X45554642Y-21693768D01*
X45142894Y-21693768D01*
X44762488Y-21851337D01*
X44471337Y-22142488D01*
X44313768Y-22522894D01*
X41567423Y-22522894D01*
X41497106Y-22493768D01*
X41085358Y-22493768D01*
X40704952Y-22651337D01*
X40570058Y-22786231D01*
X35149618Y-22786231D01*
X35077234Y-22771833D01*
X35004850Y-22786231D01*
X35004847Y-22786231D01*
X34790452Y-22828877D01*
X34547330Y-22991326D01*
X34506325Y-23052694D01*
X34021365Y-23537654D01*
X33877512Y-23393801D01*
X33558385Y-23261615D01*
X33426199Y-22942488D01*
X33135048Y-22651337D01*
X32754642Y-22493768D01*
X32342894Y-22493768D01*
X31962488Y-22651337D01*
X31671337Y-22942488D01*
X31513768Y-23322894D01*
X31513768Y-23734642D01*
X31671337Y-24115048D01*
X31962488Y-24406199D01*
X32068236Y-24450001D01*
X26571764Y-24450001D01*
X26677512Y-24406199D01*
X26968663Y-24115048D01*
X27126232Y-23734642D01*
X27126232Y-23322894D01*
X26968663Y-22942488D01*
X26677512Y-22651337D01*
X26297106Y-22493768D01*
X25885358Y-22493768D01*
X25504952Y-22651337D01*
X25370058Y-22786231D01*
X11602953Y-22786231D01*
X11530569Y-22771833D01*
X11458185Y-22786231D01*
X11458182Y-22786231D01*
X11243787Y-22828877D01*
X11000665Y-22991326D01*
X10959660Y-23052694D01*
X9340000Y-24672355D01*
X9340000Y-24536892D01*
X9215163Y-24235507D01*
X8984493Y-24004837D01*
X8683108Y-23880000D01*
X8356892Y-23880000D01*
X8055507Y-24004837D01*
X7824837Y-24235507D01*
X7700000Y-24536892D01*
X7700000Y-24630000D01*
X7656892Y-24630000D01*
X7355507Y-24754837D01*
X7124837Y-24985507D01*
X7000000Y-25286892D01*
X7000000Y-25613108D01*
X7124837Y-25914493D01*
X7355507Y-26145163D01*
X7470116Y-26192635D01*
X6866464Y-26796288D01*
X6805094Y-26837294D01*
X6642645Y-27080417D01*
X6599999Y-27294812D01*
X6599999Y-27294815D01*
X6585601Y-27367199D01*
X6595482Y-27416873D01*
X6071005Y-27941349D01*
X5884493Y-27754837D01*
X5583108Y-27630000D01*
X5256892Y-27630000D01*
X4955507Y-27754837D01*
X4834883Y-27875461D01*
X4840000Y-27863108D01*
X4840000Y-27770000D01*
X4883108Y-27770000D01*
X5184493Y-27645163D01*
X5415163Y-27414493D01*
X5540000Y-27113108D01*
X5540000Y-27020000D01*
X5583108Y-27020000D01*
X5884493Y-26895163D01*
X6115163Y-26664493D01*
X6240000Y-26363108D01*
X6240000Y-26036892D01*
X6115163Y-25735507D01*
X5884493Y-25504837D01*
X5583108Y-25380000D01*
X5256892Y-25380000D01*
X4955507Y-25504837D01*
X4834883Y-25625461D01*
X4840000Y-25613108D01*
X4840000Y-25520000D01*
X4883108Y-25520000D01*
X5184493Y-25395163D01*
X5415163Y-25164493D01*
X5540000Y-24863108D01*
X5540000Y-24536892D01*
X5415163Y-24235507D01*
X5184493Y-24004837D01*
X4883108Y-23880000D01*
X4556892Y-23880000D01*
X4255507Y-24004837D01*
X4024837Y-24235507D01*
X3900000Y-24536892D01*
X3900000Y-24630000D01*
X3856892Y-24630000D01*
X3555507Y-24754837D01*
X3324837Y-24985507D01*
X3200000Y-25286892D01*
X735000Y-25286892D01*
X735000Y-21354887D01*
X2385000Y-21354887D01*
X2385000Y-22045113D01*
X2649138Y-22682799D01*
X3137201Y-23170862D01*
X3774887Y-23435000D01*
X4465113Y-23435000D01*
X5102799Y-23170862D01*
X5590862Y-22682799D01*
X5855000Y-22045113D01*
X5855000Y-21354887D01*
X5590862Y-20717201D01*
X5102799Y-20229138D01*
X4465113Y-19965000D01*
X3774887Y-19965000D01*
X3137201Y-20229138D01*
X2649138Y-20717201D01*
X2385000Y-21354887D01*
X735000Y-21354887D01*
X735000Y-17354887D01*
X2385000Y-17354887D01*
X2385000Y-18045113D01*
X2649138Y-18682799D01*
X3137201Y-19170862D01*
X3774887Y-19435000D01*
X4465113Y-19435000D01*
X5102799Y-19170862D01*
X5590862Y-18682799D01*
X5855000Y-18045113D01*
X5855000Y-17354887D01*
X14385000Y-17354887D01*
X14385000Y-18045113D01*
X14649138Y-18682799D01*
X15137201Y-19170862D01*
X15774887Y-19435000D01*
X16465113Y-19435000D01*
X17102799Y-19170862D01*
X17590862Y-18682799D01*
X17855000Y-18045113D01*
X17855000Y-17364126D01*
X42870000Y-17364126D01*
X42870000Y-17775874D01*
X43027569Y-18156280D01*
X43318720Y-18447431D01*
X43699126Y-18605000D01*
X44110874Y-18605000D01*
X44491280Y-18447431D01*
X44540000Y-18398711D01*
X44588720Y-18447431D01*
X44969126Y-18605000D01*
X45380874Y-18605000D01*
X45761280Y-18447431D01*
X45810000Y-18398711D01*
X45858720Y-18447431D01*
X46239126Y-18605000D01*
X46650874Y-18605000D01*
X47031280Y-18447431D01*
X47322431Y-18156280D01*
X47480000Y-17775874D01*
X47480000Y-17364126D01*
X47322431Y-16983720D01*
X47031280Y-16692569D01*
X46650874Y-16535000D01*
X46239126Y-16535000D01*
X45858720Y-16692569D01*
X45810000Y-16741289D01*
X45761280Y-16692569D01*
X45380874Y-16535000D01*
X44969126Y-16535000D01*
X44588720Y-16692569D01*
X44540000Y-16741289D01*
X44491280Y-16692569D01*
X44110874Y-16535000D01*
X43699126Y-16535000D01*
X43318720Y-16692569D01*
X43027569Y-16983720D01*
X42870000Y-17364126D01*
X17855000Y-17364126D01*
X17855000Y-17354887D01*
X17590862Y-16717201D01*
X17102799Y-16229138D01*
X16465113Y-15965000D01*
X15774887Y-15965000D01*
X15137201Y-16229138D01*
X14649138Y-16717201D01*
X14385000Y-17354887D01*
X5855000Y-17354887D01*
X5590862Y-16717201D01*
X5102799Y-16229138D01*
X4465113Y-15965000D01*
X3774887Y-15965000D01*
X3137201Y-16229138D01*
X2649138Y-16717201D01*
X2385000Y-17354887D01*
X735000Y-17354887D01*
X735000Y-9286892D01*
X3200000Y-9286892D01*
X3200000Y-9613108D01*
X3324837Y-9914493D01*
X3555507Y-10145163D01*
X3856892Y-10270000D01*
X4183108Y-10270000D01*
X4484493Y-10145163D01*
X4605117Y-10024539D01*
X4600000Y-10036892D01*
X4600000Y-10130000D01*
X4556892Y-10130000D01*
X4255507Y-10254837D01*
X4024837Y-10485507D01*
X3900000Y-10786892D01*
X3900000Y-10880000D01*
X3856892Y-10880000D01*
X3555507Y-11004837D01*
X3324837Y-11235507D01*
X3200000Y-11536892D01*
X3200000Y-11863108D01*
X3324837Y-12164493D01*
X3555507Y-12395163D01*
X3856892Y-12520000D01*
X4183108Y-12520000D01*
X4484493Y-12395163D01*
X4605117Y-12274539D01*
X4600000Y-12286892D01*
X4600000Y-12380000D01*
X4556892Y-12380000D01*
X4255507Y-12504837D01*
X4024837Y-12735507D01*
X3900000Y-13036892D01*
X3900000Y-13130000D01*
X3856892Y-13130000D01*
X3555507Y-13254837D01*
X3324837Y-13485507D01*
X3200000Y-13786892D01*
X3200000Y-14113108D01*
X3324837Y-14414493D01*
X3555507Y-14645163D01*
X3856892Y-14770000D01*
X4183108Y-14770000D01*
X4388317Y-14685000D01*
X4600000Y-14685000D01*
X4600000Y-14863108D01*
X4724837Y-15164493D01*
X4955507Y-15395163D01*
X5256892Y-15520000D01*
X5583108Y-15520000D01*
X5884493Y-15395163D01*
X6115163Y-15164493D01*
X6240000Y-14863108D01*
X6240000Y-14536892D01*
X6225576Y-14502069D01*
X7041893Y-13685752D01*
X7000000Y-13786892D01*
X7000000Y-14113108D01*
X7124837Y-14414493D01*
X7355507Y-14645163D01*
X7656892Y-14770000D01*
X7983108Y-14770000D01*
X8284493Y-14645163D01*
X8405117Y-14524539D01*
X8400000Y-14536892D01*
X8400000Y-14863108D01*
X8524837Y-15164493D01*
X8755507Y-15395163D01*
X9056892Y-15520000D01*
X9383108Y-15520000D01*
X9684493Y-15395163D01*
X9915163Y-15164493D01*
X10040000Y-14863108D01*
X10040000Y-14536892D01*
X9915163Y-14235507D01*
X9684493Y-14004837D01*
X9383108Y-13880000D01*
X9056892Y-13880000D01*
X8755507Y-14004837D01*
X8634883Y-14125461D01*
X8640000Y-14113108D01*
X8640000Y-14020000D01*
X8683108Y-14020000D01*
X8984493Y-13895163D01*
X9215163Y-13664493D01*
X9340000Y-13363108D01*
X9340000Y-13270000D01*
X9383108Y-13270000D01*
X9684493Y-13145163D01*
X9915163Y-12914493D01*
X10040000Y-12613108D01*
X10040000Y-12286892D01*
X9915163Y-11985507D01*
X9684493Y-11754837D01*
X9569884Y-11707365D01*
X10173538Y-11103711D01*
X10234906Y-11062706D01*
X10397355Y-10819584D01*
X10440001Y-10605189D01*
X10454400Y-10532801D01*
X10440001Y-10460413D01*
X10440001Y-10287644D01*
X10892125Y-9835520D01*
X10924837Y-9914493D01*
X11155507Y-10145163D01*
X11456892Y-10270000D01*
X11783108Y-10270000D01*
X12084493Y-10145163D01*
X12205117Y-10024539D01*
X12200000Y-10036892D01*
X12200000Y-10130000D01*
X12156892Y-10130000D01*
X11855507Y-10254837D01*
X11624837Y-10485507D01*
X11500000Y-10786892D01*
X11500000Y-10880000D01*
X11456892Y-10880000D01*
X11155507Y-11004837D01*
X10924837Y-11235507D01*
X10800000Y-11536892D01*
X10800000Y-11863108D01*
X10924837Y-12164493D01*
X11155507Y-12395163D01*
X11456892Y-12520000D01*
X11783108Y-12520000D01*
X11988317Y-12435000D01*
X12024109Y-12435000D01*
X11855507Y-12504837D01*
X11624837Y-12735507D01*
X11500000Y-13036892D01*
X11500000Y-13130000D01*
X11456892Y-13130000D01*
X11155507Y-13254837D01*
X10924837Y-13485507D01*
X10800000Y-13786892D01*
X10800000Y-14113108D01*
X10924837Y-14414493D01*
X11155507Y-14645163D01*
X11456892Y-14770000D01*
X11783108Y-14770000D01*
X12084493Y-14645163D01*
X12205117Y-14524539D01*
X12200000Y-14536892D01*
X12200000Y-14863108D01*
X12324837Y-15164493D01*
X12555507Y-15395163D01*
X12856892Y-15520000D01*
X13183108Y-15520000D01*
X13484493Y-15395163D01*
X13715163Y-15164493D01*
X13840000Y-14863108D01*
X13840000Y-14536892D01*
X13715163Y-14235507D01*
X13484493Y-14004837D01*
X13183108Y-13880000D01*
X12856892Y-13880000D01*
X12555507Y-14004837D01*
X12434883Y-14125461D01*
X12440000Y-14113108D01*
X12440000Y-14020000D01*
X12483108Y-14020000D01*
X12784493Y-13895163D01*
X13015163Y-13664493D01*
X13140000Y-13363108D01*
X13140000Y-13270000D01*
X13183108Y-13270000D01*
X13484493Y-13145163D01*
X13715163Y-12914493D01*
X13840000Y-12613108D01*
X13840000Y-12286892D01*
X13825576Y-12252069D01*
X14641893Y-11435752D01*
X14600000Y-11536892D01*
X14600000Y-11863108D01*
X14724837Y-12164493D01*
X14955507Y-12395163D01*
X15256892Y-12520000D01*
X15583108Y-12520000D01*
X15884493Y-12395163D01*
X16005117Y-12274539D01*
X16000000Y-12286892D01*
X16000000Y-12380000D01*
X15956892Y-12380000D01*
X15655507Y-12504837D01*
X15424837Y-12735507D01*
X15300000Y-13036892D01*
X15300000Y-13130000D01*
X15256892Y-13130000D01*
X14955507Y-13254837D01*
X14724837Y-13485507D01*
X14600000Y-13786892D01*
X14600000Y-14113108D01*
X14724837Y-14414493D01*
X14955507Y-14645163D01*
X15256892Y-14770000D01*
X15583108Y-14770000D01*
X15884493Y-14645163D01*
X16005117Y-14524539D01*
X16000000Y-14536892D01*
X16000000Y-14863108D01*
X16124837Y-15164493D01*
X16355507Y-15395163D01*
X16656892Y-15520000D01*
X16983108Y-15520000D01*
X17284493Y-15395163D01*
X17515163Y-15164493D01*
X17640000Y-14863108D01*
X17640000Y-14536892D01*
X17515163Y-14235507D01*
X17284493Y-14004837D01*
X16983108Y-13880000D01*
X16656892Y-13880000D01*
X16355507Y-14004837D01*
X16234883Y-14125461D01*
X16240000Y-14113108D01*
X16240000Y-14020000D01*
X16283108Y-14020000D01*
X16584493Y-13895163D01*
X16815163Y-13664493D01*
X16940000Y-13363108D01*
X16940000Y-13270000D01*
X16983108Y-13270000D01*
X17284493Y-13145163D01*
X17515163Y-12914493D01*
X17640000Y-12613108D01*
X17640000Y-12286892D01*
X17593697Y-12175105D01*
X20700000Y-12175105D01*
X20700000Y-12944895D01*
X20994586Y-13656090D01*
X21538910Y-14200414D01*
X22250105Y-14495000D01*
X23019895Y-14495000D01*
X23731090Y-14200414D01*
X24275414Y-13656090D01*
X24570000Y-12944895D01*
X24570000Y-12175105D01*
X59430000Y-12175105D01*
X59430000Y-12944895D01*
X59724586Y-13656090D01*
X60268910Y-14200414D01*
X60980105Y-14495000D01*
X61749895Y-14495000D01*
X62461090Y-14200414D01*
X63005414Y-13656090D01*
X63300000Y-12944895D01*
X63300000Y-12175105D01*
X63005414Y-11463910D01*
X62461090Y-10919586D01*
X61749895Y-10625000D01*
X60980105Y-10625000D01*
X60268910Y-10919586D01*
X59724586Y-11463910D01*
X59430000Y-12175105D01*
X24570000Y-12175105D01*
X24275414Y-11463910D01*
X23731090Y-10919586D01*
X23019895Y-10625000D01*
X22250105Y-10625000D01*
X21538910Y-10919586D01*
X20994586Y-11463910D01*
X20700000Y-12175105D01*
X17593697Y-12175105D01*
X17515163Y-11985507D01*
X17284493Y-11754837D01*
X16983108Y-11630000D01*
X16656892Y-11630000D01*
X16355507Y-11754837D01*
X16234883Y-11875461D01*
X16240000Y-11863108D01*
X16240000Y-11770000D01*
X16283108Y-11770000D01*
X16584493Y-11645163D01*
X16815163Y-11414493D01*
X16940000Y-11113108D01*
X16940000Y-11020000D01*
X16983108Y-11020000D01*
X17284493Y-10895163D01*
X17515163Y-10664493D01*
X17637149Y-10369992D01*
X33527473Y-10369992D01*
X33599857Y-10384390D01*
X33672241Y-10369992D01*
X33672245Y-10369992D01*
X33886640Y-10327346D01*
X34129762Y-10164897D01*
X34170768Y-10103527D01*
X35560528Y-8713768D01*
X39611796Y-8713768D01*
X39671337Y-8857512D01*
X39962488Y-9148663D01*
X40342894Y-9306232D01*
X40754642Y-9306232D01*
X41135048Y-9148663D01*
X41426199Y-8857512D01*
X41558385Y-8538385D01*
X41877512Y-8406199D01*
X42168663Y-8115048D01*
X42326232Y-7734642D01*
X42326232Y-7322894D01*
X42168663Y-6942488D01*
X41877512Y-6651337D01*
X41567423Y-6522894D01*
X44313768Y-6522894D01*
X44313768Y-6934642D01*
X44471337Y-7315048D01*
X44762488Y-7606199D01*
X45081615Y-7738385D01*
X45213801Y-8057512D01*
X45504952Y-8348663D01*
X45885358Y-8506232D01*
X46297106Y-8506232D01*
X46677512Y-8348663D01*
X46968663Y-8057512D01*
X47117622Y-7697892D01*
X48458818Y-7697892D01*
X48458818Y-8109640D01*
X48616387Y-8490046D01*
X48907538Y-8781197D01*
X49226665Y-8913383D01*
X49358851Y-9232510D01*
X49650002Y-9523661D01*
X50030408Y-9681230D01*
X50442156Y-9681230D01*
X50822562Y-9523661D01*
X51113713Y-9232510D01*
X51271282Y-8852104D01*
X51271282Y-8440356D01*
X51113713Y-8059950D01*
X50822562Y-7768799D01*
X50503435Y-7636613D01*
X50373490Y-7322894D01*
X53913768Y-7322894D01*
X53913768Y-7734642D01*
X54071337Y-8115048D01*
X54362488Y-8406199D01*
X54681615Y-8538385D01*
X54813801Y-8857512D01*
X55104952Y-9148663D01*
X55485358Y-9306232D01*
X55897106Y-9306232D01*
X56277512Y-9148663D01*
X56568364Y-8857812D01*
X56718717Y-9008165D01*
X57099123Y-9165734D01*
X57510871Y-9165734D01*
X57891277Y-9008165D01*
X58182428Y-8717014D01*
X58339997Y-8336608D01*
X58339997Y-7924860D01*
X58182428Y-7544454D01*
X57891277Y-7253303D01*
X57510871Y-7095734D01*
X57351740Y-7095734D01*
X57324674Y-7030390D01*
X57033523Y-6739239D01*
X56653117Y-6581670D01*
X56241369Y-6581670D01*
X55860963Y-6739239D01*
X55741957Y-6858246D01*
X55535048Y-6651337D01*
X55154642Y-6493768D01*
X54742894Y-6493768D01*
X54362488Y-6651337D01*
X54071337Y-6942488D01*
X53913768Y-7322894D01*
X50373490Y-7322894D01*
X50371249Y-7317486D01*
X50080098Y-7026335D01*
X49699692Y-6868766D01*
X49287944Y-6868766D01*
X48907538Y-7026335D01*
X48616387Y-7317486D01*
X48458818Y-7697892D01*
X47117622Y-7697892D01*
X47126232Y-7677106D01*
X47126232Y-7265358D01*
X46968663Y-6884952D01*
X46677512Y-6593801D01*
X46358385Y-6461615D01*
X46226199Y-6142488D01*
X45935048Y-5851337D01*
X45554642Y-5693768D01*
X45142894Y-5693768D01*
X44762488Y-5851337D01*
X44471337Y-6142488D01*
X44313768Y-6522894D01*
X41567423Y-6522894D01*
X41497106Y-6493768D01*
X41085358Y-6493768D01*
X40704952Y-6651337D01*
X40570058Y-6786231D01*
X35149618Y-6786231D01*
X35077234Y-6771833D01*
X35004850Y-6786231D01*
X35004847Y-6786231D01*
X34790452Y-6828877D01*
X34547330Y-6991326D01*
X34506325Y-7052694D01*
X34021365Y-7537654D01*
X33877512Y-7393801D01*
X33558385Y-7261615D01*
X33426199Y-6942488D01*
X33135048Y-6651337D01*
X32754642Y-6493768D01*
X32342894Y-6493768D01*
X31962488Y-6651337D01*
X31671337Y-6942488D01*
X31513768Y-7322894D01*
X31513768Y-7734642D01*
X31671337Y-8115048D01*
X31962488Y-8406199D01*
X32068236Y-8450001D01*
X26571764Y-8450001D01*
X26677512Y-8406199D01*
X26968663Y-8115048D01*
X27126232Y-7734642D01*
X27126232Y-7322894D01*
X26968663Y-6942488D01*
X26677512Y-6651337D01*
X26297106Y-6493768D01*
X25885358Y-6493768D01*
X25504952Y-6651337D01*
X25370058Y-6786231D01*
X11602953Y-6786231D01*
X11530569Y-6771833D01*
X11458185Y-6786231D01*
X11458182Y-6786231D01*
X11243787Y-6828877D01*
X11000665Y-6991326D01*
X10959660Y-7052694D01*
X9340000Y-8672355D01*
X9340000Y-8536892D01*
X9215163Y-8235507D01*
X8984493Y-8004837D01*
X8683108Y-7880000D01*
X8356892Y-7880000D01*
X8055507Y-8004837D01*
X7824837Y-8235507D01*
X7700000Y-8536892D01*
X7700000Y-8630000D01*
X7656892Y-8630000D01*
X7355507Y-8754837D01*
X7124837Y-8985507D01*
X7000000Y-9286892D01*
X7000000Y-9613108D01*
X7124837Y-9914493D01*
X7355507Y-10145163D01*
X7470116Y-10192635D01*
X6866464Y-10796288D01*
X6805094Y-10837294D01*
X6642645Y-11080417D01*
X6599999Y-11294812D01*
X6599999Y-11294815D01*
X6585601Y-11367199D01*
X6595482Y-11416873D01*
X6071005Y-11941349D01*
X5884493Y-11754837D01*
X5583108Y-11630000D01*
X5256892Y-11630000D01*
X4955507Y-11754837D01*
X4834883Y-11875461D01*
X4840000Y-11863108D01*
X4840000Y-11770000D01*
X4883108Y-11770000D01*
X5184493Y-11645163D01*
X5415163Y-11414493D01*
X5540000Y-11113108D01*
X5540000Y-11020000D01*
X5583108Y-11020000D01*
X5884493Y-10895163D01*
X6115163Y-10664493D01*
X6240000Y-10363108D01*
X6240000Y-10036892D01*
X6115163Y-9735507D01*
X5884493Y-9504837D01*
X5583108Y-9380000D01*
X5256892Y-9380000D01*
X4955507Y-9504837D01*
X4834883Y-9625461D01*
X4840000Y-9613108D01*
X4840000Y-9520000D01*
X4883108Y-9520000D01*
X5184493Y-9395163D01*
X5415163Y-9164493D01*
X5540000Y-8863108D01*
X5540000Y-8536892D01*
X5415163Y-8235507D01*
X5184493Y-8004837D01*
X4883108Y-7880000D01*
X4556892Y-7880000D01*
X4255507Y-8004837D01*
X4024837Y-8235507D01*
X3900000Y-8536892D01*
X3900000Y-8630000D01*
X3856892Y-8630000D01*
X3555507Y-8754837D01*
X3324837Y-8985507D01*
X3200000Y-9286892D01*
X735000Y-9286892D01*
X735000Y-5354887D01*
X2385000Y-5354887D01*
X2385000Y-6045113D01*
X2649138Y-6682799D01*
X3137201Y-7170862D01*
X3774887Y-7435000D01*
X4465113Y-7435000D01*
X5102799Y-7170862D01*
X5590862Y-6682799D01*
X5855000Y-6045113D01*
X5855000Y-5354887D01*
X5590862Y-4717201D01*
X5102799Y-4229138D01*
X4465113Y-3965000D01*
X3774887Y-3965000D01*
X3137201Y-4229138D01*
X2649138Y-4717201D01*
X2385000Y-5354887D01*
X735000Y-5354887D01*
X735000Y-3241089D01*
X800751Y-2654908D01*
X981140Y-2136900D01*
X1271808Y-1671734D01*
X1658308Y-1282526D01*
X2121438Y-988614D01*
X2638164Y-804617D01*
X3221984Y-735000D01*
X67608911Y-735000D01*
X68195092Y-800751D01*
%TD*%
M02*
