%TF.GenerationSoftware,KiCad,Pcbnew,5.0.1-33cea8e~68~ubuntu18.10.1*%
%TF.CreationDate,2018-11-16T15:20:41-07:00*%
%TF.ProjectId,thelio-io,7468656C696F2D696F2E6B696361645F,rev?*%
%TF.SameCoordinates,Original*%
%TF.FileFunction,Soldermask,Bot*%
%TF.FilePolarity,Negative*%
%FSLAX46Y46*%
G04 Gerber Fmt 4.6, Leading zero omitted, Abs format (unit mm)*
G04 Created by KiCad (PCBNEW 5.0.1-33cea8e~68~ubuntu18.10.1) date Fri Nov 16 15:20:41 2018*
%MOMM*%
%LPD*%
G01*
G04 APERTURE LIST*
%ADD10C,0.200000*%
%ADD11C,0.150000*%
%ADD12C,0.350000*%
G04 APERTURE END LIST*
D10*
X77050000Y-53400000D02*
G75*
G02X75450000Y-55000000I-1600000J0D01*
G01*
X73850000Y-55000000D02*
X75450000Y-55000000D01*
X73850000Y-16800000D02*
X75450000Y-16800000D01*
X75450000Y-16800000D02*
G75*
G02X77050000Y-18400000I0J-1600000D01*
G01*
X77050000Y-18400000D02*
X77050000Y-53400000D01*
X-3200000Y-18400000D02*
G75*
G02X-1600000Y-16800000I1600000J0D01*
G01*
X-3200000Y-53400000D02*
X-3200000Y-18400000D01*
X-1600000Y-55000000D02*
G75*
G02X-3200000Y-53400000I0J1600000D01*
G01*
X0Y-55000000D02*
X-1600000Y-55000000D01*
X0Y-16800000D02*
X-1600000Y-16800000D01*
X0Y-55000000D02*
X0Y-68600000D01*
X0Y-16800000D02*
X0Y-3200000D01*
X73850000Y-55000000D02*
X73850000Y-68600000D01*
X73850000Y-16800000D02*
X73850000Y-3200000D01*
D11*
X73850000Y-68600000D02*
G75*
G02X70650000Y-71800000I-3200000J0D01*
G01*
D10*
X3200000Y-71800000D02*
G75*
G02X0Y-68600000I0J3200000D01*
G01*
X70650000Y-71800000D02*
X3200000Y-71800000D01*
X0Y-3200000D02*
G75*
G02X3200000Y0I3200000J0D01*
G01*
X70650000Y0D02*
G75*
G02X73850000Y-3200000I0J-3200000D01*
G01*
X3200000Y0D02*
X70650000Y0D01*
D12*
G36*
X11558707Y-68217596D02*
X11635836Y-68225193D01*
X11767787Y-68265220D01*
X11833763Y-68285233D01*
X12016172Y-68382733D01*
X12176054Y-68513946D01*
X12307267Y-68673828D01*
X12404767Y-68856237D01*
X12404767Y-68856238D01*
X12464807Y-69054164D01*
X12485080Y-69260000D01*
X12464807Y-69465836D01*
X12424780Y-69597787D01*
X12404767Y-69663763D01*
X12307267Y-69846172D01*
X12176054Y-70006054D01*
X12016172Y-70137267D01*
X11833763Y-70234767D01*
X11767787Y-70254780D01*
X11635836Y-70294807D01*
X11558707Y-70302404D01*
X11481580Y-70310000D01*
X11378420Y-70310000D01*
X11301293Y-70302404D01*
X11224164Y-70294807D01*
X11092213Y-70254780D01*
X11026237Y-70234767D01*
X10843828Y-70137267D01*
X10683946Y-70006054D01*
X10552733Y-69846172D01*
X10455233Y-69663763D01*
X10435220Y-69597787D01*
X10395193Y-69465836D01*
X10374920Y-69260000D01*
X10395193Y-69054164D01*
X10455233Y-68856238D01*
X10455233Y-68856237D01*
X10552733Y-68673828D01*
X10683946Y-68513946D01*
X10843828Y-68382733D01*
X11026237Y-68285233D01*
X11092213Y-68265220D01*
X11224164Y-68225193D01*
X11301293Y-68217596D01*
X11378420Y-68210000D01*
X11481580Y-68210000D01*
X11558707Y-68217596D01*
X11558707Y-68217596D01*
G37*
G36*
X20448707Y-68217596D02*
X20525836Y-68225193D01*
X20657787Y-68265220D01*
X20723763Y-68285233D01*
X20906172Y-68382733D01*
X21066054Y-68513946D01*
X21197267Y-68673828D01*
X21294767Y-68856237D01*
X21294767Y-68856238D01*
X21354807Y-69054164D01*
X21375080Y-69260000D01*
X21354807Y-69465836D01*
X21314780Y-69597787D01*
X21294767Y-69663763D01*
X21197267Y-69846172D01*
X21066054Y-70006054D01*
X20906172Y-70137267D01*
X20723763Y-70234767D01*
X20657787Y-70254780D01*
X20525836Y-70294807D01*
X20448707Y-70302404D01*
X20371580Y-70310000D01*
X20268420Y-70310000D01*
X20191293Y-70302404D01*
X20114164Y-70294807D01*
X19982213Y-70254780D01*
X19916237Y-70234767D01*
X19733828Y-70137267D01*
X19573946Y-70006054D01*
X19442733Y-69846172D01*
X19345233Y-69663763D01*
X19325220Y-69597787D01*
X19285193Y-69465836D01*
X19264920Y-69260000D01*
X19285193Y-69054164D01*
X19345233Y-68856238D01*
X19345233Y-68856237D01*
X19442733Y-68673828D01*
X19573946Y-68513946D01*
X19733828Y-68382733D01*
X19916237Y-68285233D01*
X19982213Y-68265220D01*
X20114164Y-68225193D01*
X20191293Y-68217596D01*
X20268420Y-68210000D01*
X20371580Y-68210000D01*
X20448707Y-68217596D01*
X20448707Y-68217596D01*
G37*
G36*
X17908707Y-68217596D02*
X17985836Y-68225193D01*
X18117787Y-68265220D01*
X18183763Y-68285233D01*
X18366172Y-68382733D01*
X18526054Y-68513946D01*
X18657267Y-68673828D01*
X18754767Y-68856237D01*
X18754767Y-68856238D01*
X18814807Y-69054164D01*
X18835080Y-69260000D01*
X18814807Y-69465836D01*
X18774780Y-69597787D01*
X18754767Y-69663763D01*
X18657267Y-69846172D01*
X18526054Y-70006054D01*
X18366172Y-70137267D01*
X18183763Y-70234767D01*
X18117787Y-70254780D01*
X17985836Y-70294807D01*
X17908707Y-70302404D01*
X17831580Y-70310000D01*
X17728420Y-70310000D01*
X17651293Y-70302404D01*
X17574164Y-70294807D01*
X17442213Y-70254780D01*
X17376237Y-70234767D01*
X17193828Y-70137267D01*
X17033946Y-70006054D01*
X16902733Y-69846172D01*
X16805233Y-69663763D01*
X16785220Y-69597787D01*
X16745193Y-69465836D01*
X16724920Y-69260000D01*
X16745193Y-69054164D01*
X16805233Y-68856238D01*
X16805233Y-68856237D01*
X16902733Y-68673828D01*
X17033946Y-68513946D01*
X17193828Y-68382733D01*
X17376237Y-68285233D01*
X17442213Y-68265220D01*
X17574164Y-68225193D01*
X17651293Y-68217596D01*
X17728420Y-68210000D01*
X17831580Y-68210000D01*
X17908707Y-68217596D01*
X17908707Y-68217596D01*
G37*
G36*
X16290000Y-70310000D02*
X14190000Y-70310000D01*
X14190000Y-68210000D01*
X16290000Y-68210000D01*
X16290000Y-70310000D01*
X16290000Y-70310000D01*
G37*
G36*
X4860000Y-70310000D02*
X2760000Y-70310000D01*
X2760000Y-68210000D01*
X4860000Y-68210000D01*
X4860000Y-70310000D01*
X4860000Y-70310000D01*
G37*
G36*
X9018707Y-68217596D02*
X9095836Y-68225193D01*
X9227787Y-68265220D01*
X9293763Y-68285233D01*
X9476172Y-68382733D01*
X9636054Y-68513946D01*
X9767267Y-68673828D01*
X9864767Y-68856237D01*
X9864767Y-68856238D01*
X9924807Y-69054164D01*
X9945080Y-69260000D01*
X9924807Y-69465836D01*
X9884780Y-69597787D01*
X9864767Y-69663763D01*
X9767267Y-69846172D01*
X9636054Y-70006054D01*
X9476172Y-70137267D01*
X9293763Y-70234767D01*
X9227787Y-70254780D01*
X9095836Y-70294807D01*
X9018707Y-70302404D01*
X8941580Y-70310000D01*
X8838420Y-70310000D01*
X8761293Y-70302404D01*
X8684164Y-70294807D01*
X8552213Y-70254780D01*
X8486237Y-70234767D01*
X8303828Y-70137267D01*
X8143946Y-70006054D01*
X8012733Y-69846172D01*
X7915233Y-69663763D01*
X7895220Y-69597787D01*
X7855193Y-69465836D01*
X7834920Y-69260000D01*
X7855193Y-69054164D01*
X7915233Y-68856238D01*
X7915233Y-68856237D01*
X8012733Y-68673828D01*
X8143946Y-68513946D01*
X8303828Y-68382733D01*
X8486237Y-68285233D01*
X8552213Y-68265220D01*
X8684164Y-68225193D01*
X8761293Y-68217596D01*
X8838420Y-68210000D01*
X8941580Y-68210000D01*
X9018707Y-68217596D01*
X9018707Y-68217596D01*
G37*
G36*
X22988707Y-68217596D02*
X23065836Y-68225193D01*
X23197787Y-68265220D01*
X23263763Y-68285233D01*
X23446172Y-68382733D01*
X23606054Y-68513946D01*
X23737267Y-68673828D01*
X23834767Y-68856237D01*
X23834767Y-68856238D01*
X23894807Y-69054164D01*
X23915080Y-69260000D01*
X23894807Y-69465836D01*
X23854780Y-69597787D01*
X23834767Y-69663763D01*
X23737267Y-69846172D01*
X23606054Y-70006054D01*
X23446172Y-70137267D01*
X23263763Y-70234767D01*
X23197787Y-70254780D01*
X23065836Y-70294807D01*
X22988707Y-70302404D01*
X22911580Y-70310000D01*
X22808420Y-70310000D01*
X22731293Y-70302404D01*
X22654164Y-70294807D01*
X22522213Y-70254780D01*
X22456237Y-70234767D01*
X22273828Y-70137267D01*
X22113946Y-70006054D01*
X21982733Y-69846172D01*
X21885233Y-69663763D01*
X21865220Y-69597787D01*
X21825193Y-69465836D01*
X21804920Y-69260000D01*
X21825193Y-69054164D01*
X21885233Y-68856238D01*
X21885233Y-68856237D01*
X21982733Y-68673828D01*
X22113946Y-68513946D01*
X22273828Y-68382733D01*
X22456237Y-68285233D01*
X22522213Y-68265220D01*
X22654164Y-68225193D01*
X22731293Y-68217596D01*
X22808420Y-68210000D01*
X22911580Y-68210000D01*
X22988707Y-68217596D01*
X22988707Y-68217596D01*
G37*
G36*
X6478707Y-68217596D02*
X6555836Y-68225193D01*
X6687787Y-68265220D01*
X6753763Y-68285233D01*
X6936172Y-68382733D01*
X7096054Y-68513946D01*
X7227267Y-68673828D01*
X7324767Y-68856237D01*
X7324767Y-68856238D01*
X7384807Y-69054164D01*
X7405080Y-69260000D01*
X7384807Y-69465836D01*
X7344780Y-69597787D01*
X7324767Y-69663763D01*
X7227267Y-69846172D01*
X7096054Y-70006054D01*
X6936172Y-70137267D01*
X6753763Y-70234767D01*
X6687787Y-70254780D01*
X6555836Y-70294807D01*
X6478707Y-70302404D01*
X6401580Y-70310000D01*
X6298420Y-70310000D01*
X6221293Y-70302404D01*
X6144164Y-70294807D01*
X6012213Y-70254780D01*
X5946237Y-70234767D01*
X5763828Y-70137267D01*
X5603946Y-70006054D01*
X5472733Y-69846172D01*
X5375233Y-69663763D01*
X5355220Y-69597787D01*
X5315193Y-69465836D01*
X5294920Y-69260000D01*
X5315193Y-69054164D01*
X5375233Y-68856238D01*
X5375233Y-68856237D01*
X5472733Y-68673828D01*
X5603946Y-68513946D01*
X5763828Y-68382733D01*
X5946237Y-68285233D01*
X6012213Y-68265220D01*
X6144164Y-68225193D01*
X6221293Y-68217596D01*
X6298420Y-68210000D01*
X6401580Y-68210000D01*
X6478707Y-68217596D01*
X6478707Y-68217596D01*
G37*
G36*
X49704419Y-66787026D02*
X49738777Y-66790410D01*
X49856617Y-66826157D01*
X49939529Y-66851308D01*
X50124545Y-66950200D01*
X50286712Y-67083288D01*
X50419800Y-67245455D01*
X50518692Y-67430470D01*
X50529702Y-67466765D01*
X50579590Y-67631222D01*
X50579590Y-67631224D01*
X50595000Y-67787682D01*
X50595000Y-68192317D01*
X50593258Y-68210000D01*
X50579590Y-68348777D01*
X50569289Y-68382733D01*
X50518692Y-68549529D01*
X50419800Y-68734545D01*
X50286712Y-68896712D01*
X50124545Y-69029800D01*
X49939530Y-69128692D01*
X49872612Y-69148991D01*
X49738778Y-69189590D01*
X49704420Y-69192974D01*
X49530000Y-69210153D01*
X49355581Y-69192974D01*
X49321223Y-69189590D01*
X49187389Y-69148991D01*
X49120471Y-69128692D01*
X48935456Y-69029800D01*
X48773289Y-68896712D01*
X48640200Y-68734545D01*
X48541308Y-68549530D01*
X48504769Y-68429078D01*
X48480410Y-68348778D01*
X48476558Y-68309662D01*
X48465000Y-68192318D01*
X48465000Y-67787683D01*
X48480410Y-67631225D01*
X48480410Y-67631223D01*
X48530483Y-67466157D01*
X48541308Y-67430471D01*
X48640200Y-67245455D01*
X48773288Y-67083288D01*
X48935455Y-66950200D01*
X49120470Y-66851308D01*
X49203382Y-66826157D01*
X49321222Y-66790410D01*
X49355580Y-66787026D01*
X49530000Y-66769847D01*
X49704419Y-66787026D01*
X49704419Y-66787026D01*
G37*
G36*
X61134419Y-66787026D02*
X61168777Y-66790410D01*
X61286617Y-66826157D01*
X61369529Y-66851308D01*
X61554545Y-66950200D01*
X61716712Y-67083288D01*
X61849800Y-67245455D01*
X61948692Y-67430470D01*
X61959702Y-67466765D01*
X62009590Y-67631222D01*
X62009590Y-67631224D01*
X62025000Y-67787682D01*
X62025000Y-68192317D01*
X62023258Y-68210000D01*
X62009590Y-68348777D01*
X61999289Y-68382733D01*
X61948692Y-68549529D01*
X61849800Y-68734545D01*
X61716712Y-68896712D01*
X61554545Y-69029800D01*
X61369530Y-69128692D01*
X61302612Y-69148991D01*
X61168778Y-69189590D01*
X61134420Y-69192974D01*
X60960000Y-69210153D01*
X60785581Y-69192974D01*
X60751223Y-69189590D01*
X60617389Y-69148991D01*
X60550471Y-69128692D01*
X60365456Y-69029800D01*
X60203289Y-68896712D01*
X60070200Y-68734545D01*
X59971308Y-68549530D01*
X59934769Y-68429078D01*
X59910410Y-68348778D01*
X59906558Y-68309662D01*
X59895000Y-68192318D01*
X59895000Y-67787683D01*
X59910410Y-67631225D01*
X59910410Y-67631223D01*
X59960483Y-67466157D01*
X59971308Y-67430471D01*
X60070200Y-67245455D01*
X60203288Y-67083288D01*
X60365455Y-66950200D01*
X60550470Y-66851308D01*
X60633382Y-66826157D01*
X60751222Y-66790410D01*
X60785580Y-66787026D01*
X60960000Y-66769847D01*
X61134419Y-66787026D01*
X61134419Y-66787026D01*
G37*
G36*
X66134419Y-66787026D02*
X66168777Y-66790410D01*
X66286617Y-66826157D01*
X66369529Y-66851308D01*
X66554545Y-66950200D01*
X66716712Y-67083288D01*
X66849800Y-67245455D01*
X66948692Y-67430470D01*
X66959702Y-67466765D01*
X67009590Y-67631222D01*
X67009590Y-67631224D01*
X67025000Y-67787682D01*
X67025000Y-68192317D01*
X67023258Y-68210000D01*
X67009590Y-68348777D01*
X66999289Y-68382733D01*
X66948692Y-68549529D01*
X66849800Y-68734545D01*
X66716712Y-68896712D01*
X66554545Y-69029800D01*
X66369530Y-69128692D01*
X66302612Y-69148991D01*
X66168778Y-69189590D01*
X66134420Y-69192974D01*
X65960000Y-69210153D01*
X65785581Y-69192974D01*
X65751223Y-69189590D01*
X65617389Y-69148991D01*
X65550471Y-69128692D01*
X65365456Y-69029800D01*
X65203289Y-68896712D01*
X65070200Y-68734545D01*
X64971308Y-68549530D01*
X64934769Y-68429078D01*
X64910410Y-68348778D01*
X64906558Y-68309662D01*
X64895000Y-68192318D01*
X64895000Y-67787683D01*
X64910410Y-67631225D01*
X64910410Y-67631223D01*
X64960483Y-67466157D01*
X64971308Y-67430471D01*
X65070200Y-67245455D01*
X65203288Y-67083288D01*
X65365455Y-66950200D01*
X65550470Y-66851308D01*
X65633382Y-66826157D01*
X65751222Y-66790410D01*
X65785580Y-66787026D01*
X65960000Y-66769847D01*
X66134419Y-66787026D01*
X66134419Y-66787026D01*
G37*
G36*
X63634419Y-66787026D02*
X63668777Y-66790410D01*
X63786617Y-66826157D01*
X63869529Y-66851308D01*
X64054545Y-66950200D01*
X64216712Y-67083288D01*
X64349800Y-67245455D01*
X64448692Y-67430470D01*
X64459702Y-67466765D01*
X64509590Y-67631222D01*
X64509590Y-67631224D01*
X64525000Y-67787682D01*
X64525000Y-68192317D01*
X64523258Y-68210000D01*
X64509590Y-68348777D01*
X64499289Y-68382733D01*
X64448692Y-68549529D01*
X64349800Y-68734545D01*
X64216712Y-68896712D01*
X64054545Y-69029800D01*
X63869530Y-69128692D01*
X63802612Y-69148991D01*
X63668778Y-69189590D01*
X63634420Y-69192974D01*
X63460000Y-69210153D01*
X63285581Y-69192974D01*
X63251223Y-69189590D01*
X63117389Y-69148991D01*
X63050471Y-69128692D01*
X62865456Y-69029800D01*
X62703289Y-68896712D01*
X62570200Y-68734545D01*
X62471308Y-68549530D01*
X62434769Y-68429078D01*
X62410410Y-68348778D01*
X62406558Y-68309662D01*
X62395000Y-68192318D01*
X62395000Y-67787683D01*
X62410410Y-67631225D01*
X62410410Y-67631223D01*
X62460483Y-67466157D01*
X62471308Y-67430471D01*
X62570200Y-67245455D01*
X62703288Y-67083288D01*
X62865455Y-66950200D01*
X63050470Y-66851308D01*
X63133382Y-66826157D01*
X63251222Y-66790410D01*
X63285580Y-66787026D01*
X63460000Y-66769847D01*
X63634419Y-66787026D01*
X63634419Y-66787026D01*
G37*
G36*
X38274419Y-66787026D02*
X38308777Y-66790410D01*
X38426617Y-66826157D01*
X38509529Y-66851308D01*
X38694545Y-66950200D01*
X38856712Y-67083288D01*
X38989800Y-67245455D01*
X39088692Y-67430470D01*
X39099702Y-67466765D01*
X39149590Y-67631222D01*
X39149590Y-67631224D01*
X39165000Y-67787682D01*
X39165000Y-68192317D01*
X39163258Y-68210000D01*
X39149590Y-68348777D01*
X39139289Y-68382733D01*
X39088692Y-68549529D01*
X38989800Y-68734545D01*
X38856712Y-68896712D01*
X38694545Y-69029800D01*
X38509530Y-69128692D01*
X38442612Y-69148991D01*
X38308778Y-69189590D01*
X38274420Y-69192974D01*
X38100000Y-69210153D01*
X37925581Y-69192974D01*
X37891223Y-69189590D01*
X37757389Y-69148991D01*
X37690471Y-69128692D01*
X37505456Y-69029800D01*
X37343289Y-68896712D01*
X37210200Y-68734545D01*
X37111308Y-68549530D01*
X37074769Y-68429078D01*
X37050410Y-68348778D01*
X37046558Y-68309662D01*
X37035000Y-68192318D01*
X37035000Y-67787683D01*
X37050410Y-67631225D01*
X37050410Y-67631223D01*
X37100483Y-67466157D01*
X37111308Y-67430471D01*
X37210200Y-67245455D01*
X37343288Y-67083288D01*
X37505455Y-66950200D01*
X37690470Y-66851308D01*
X37773382Y-66826157D01*
X37891222Y-66790410D01*
X37925580Y-66787026D01*
X38100000Y-66769847D01*
X38274419Y-66787026D01*
X38274419Y-66787026D01*
G37*
G36*
X40786318Y-65094411D02*
X40858767Y-65108822D01*
X40915303Y-65132240D01*
X40995257Y-65165358D01*
X41118100Y-65247439D01*
X41222561Y-65351900D01*
X41304642Y-65474743D01*
X41337760Y-65554697D01*
X41361178Y-65611233D01*
X41390000Y-65756131D01*
X41390000Y-65903869D01*
X41361178Y-66048767D01*
X41342664Y-66093463D01*
X41304642Y-66185257D01*
X41222561Y-66308100D01*
X41118100Y-66412561D01*
X40995257Y-66494642D01*
X40902459Y-66533080D01*
X40858767Y-66551178D01*
X40858766Y-66551178D01*
X40852091Y-66553943D01*
X40842414Y-66556878D01*
X40820802Y-66568429D01*
X40801860Y-66583974D01*
X40786314Y-66602915D01*
X40774762Y-66624526D01*
X40767648Y-66647974D01*
X40765245Y-66672361D01*
X40767646Y-66696747D01*
X40774758Y-66720196D01*
X40786309Y-66741808D01*
X40801854Y-66760750D01*
X40820795Y-66776296D01*
X40842406Y-66787848D01*
X40853959Y-66791982D01*
X40966617Y-66826157D01*
X41049529Y-66851308D01*
X41234545Y-66950200D01*
X41396712Y-67083288D01*
X41529800Y-67245455D01*
X41628692Y-67430470D01*
X41639702Y-67466765D01*
X41689590Y-67631222D01*
X41689590Y-67631224D01*
X41705000Y-67787682D01*
X41705000Y-68192317D01*
X41703258Y-68210000D01*
X41689590Y-68348777D01*
X41679289Y-68382733D01*
X41628692Y-68549529D01*
X41529800Y-68734545D01*
X41396712Y-68896712D01*
X41234545Y-69029800D01*
X41049530Y-69128692D01*
X40982612Y-69148991D01*
X40848778Y-69189590D01*
X40814420Y-69192974D01*
X40640000Y-69210153D01*
X40465581Y-69192974D01*
X40431223Y-69189590D01*
X40297389Y-69148991D01*
X40230471Y-69128692D01*
X40045456Y-69029800D01*
X39883289Y-68896712D01*
X39750200Y-68734545D01*
X39651308Y-68549530D01*
X39614769Y-68429078D01*
X39590410Y-68348778D01*
X39586558Y-68309662D01*
X39575000Y-68192318D01*
X39575000Y-67787683D01*
X39590410Y-67631225D01*
X39590410Y-67631223D01*
X39640483Y-67466157D01*
X39651308Y-67430471D01*
X39750200Y-67245455D01*
X39883288Y-67083288D01*
X40045455Y-66950200D01*
X40230470Y-66851308D01*
X40366644Y-66810000D01*
X40426041Y-66791982D01*
X40448680Y-66782605D01*
X40469054Y-66768991D01*
X40486382Y-66751664D01*
X40499995Y-66731289D01*
X40509373Y-66708650D01*
X40514153Y-66684617D01*
X40514153Y-66660112D01*
X40509372Y-66636079D01*
X40499995Y-66613440D01*
X40486381Y-66593066D01*
X40469054Y-66575738D01*
X40448679Y-66562125D01*
X40426040Y-66552747D01*
X40423464Y-66552102D01*
X40284743Y-66494642D01*
X40161900Y-66412561D01*
X40057439Y-66308100D01*
X39975358Y-66185257D01*
X39937336Y-66093463D01*
X39918822Y-66048767D01*
X39890000Y-65903869D01*
X39890000Y-65756131D01*
X39918822Y-65611233D01*
X39942240Y-65554697D01*
X39975358Y-65474743D01*
X40057439Y-65351900D01*
X40161900Y-65247439D01*
X40284743Y-65165358D01*
X40364697Y-65132240D01*
X40421233Y-65108822D01*
X40493682Y-65094411D01*
X40566130Y-65080000D01*
X40713870Y-65080000D01*
X40786318Y-65094411D01*
X40786318Y-65094411D01*
G37*
G36*
X43354419Y-66787026D02*
X43388777Y-66790410D01*
X43506617Y-66826157D01*
X43589529Y-66851308D01*
X43774545Y-66950200D01*
X43936712Y-67083288D01*
X44069800Y-67245455D01*
X44168692Y-67430470D01*
X44179702Y-67466765D01*
X44229590Y-67631222D01*
X44229590Y-67631224D01*
X44245000Y-67787682D01*
X44245000Y-68192317D01*
X44243258Y-68210000D01*
X44229590Y-68348777D01*
X44219289Y-68382733D01*
X44168692Y-68549529D01*
X44069800Y-68734545D01*
X43936712Y-68896712D01*
X43774545Y-69029800D01*
X43589530Y-69128692D01*
X43522612Y-69148991D01*
X43388778Y-69189590D01*
X43354420Y-69192974D01*
X43180000Y-69210153D01*
X43005581Y-69192974D01*
X42971223Y-69189590D01*
X42837389Y-69148991D01*
X42770471Y-69128692D01*
X42585456Y-69029800D01*
X42423289Y-68896712D01*
X42290200Y-68734545D01*
X42191308Y-68549530D01*
X42154769Y-68429078D01*
X42130410Y-68348778D01*
X42126558Y-68309662D01*
X42115000Y-68192318D01*
X42115000Y-67787683D01*
X42130410Y-67631225D01*
X42130410Y-67631223D01*
X42180483Y-67466157D01*
X42191308Y-67430471D01*
X42290200Y-67245455D01*
X42423288Y-67083288D01*
X42585455Y-66950200D01*
X42770470Y-66851308D01*
X42853382Y-66826157D01*
X42971222Y-66790410D01*
X43005580Y-66787026D01*
X43180000Y-66769847D01*
X43354419Y-66787026D01*
X43354419Y-66787026D01*
G37*
G36*
X26844419Y-66787026D02*
X26878777Y-66790410D01*
X26996617Y-66826157D01*
X27079529Y-66851308D01*
X27264545Y-66950200D01*
X27426712Y-67083288D01*
X27559800Y-67245455D01*
X27658692Y-67430470D01*
X27669702Y-67466765D01*
X27719590Y-67631222D01*
X27719590Y-67631224D01*
X27735000Y-67787682D01*
X27735000Y-68192317D01*
X27733258Y-68210000D01*
X27719590Y-68348777D01*
X27709289Y-68382733D01*
X27658692Y-68549529D01*
X27559800Y-68734545D01*
X27426712Y-68896712D01*
X27264545Y-69029800D01*
X27079530Y-69128692D01*
X27012612Y-69148991D01*
X26878778Y-69189590D01*
X26844420Y-69192974D01*
X26670000Y-69210153D01*
X26495581Y-69192974D01*
X26461223Y-69189590D01*
X26327389Y-69148991D01*
X26260471Y-69128692D01*
X26075456Y-69029800D01*
X25913289Y-68896712D01*
X25780200Y-68734545D01*
X25681308Y-68549530D01*
X25644769Y-68429078D01*
X25620410Y-68348778D01*
X25616558Y-68309662D01*
X25605000Y-68192318D01*
X25605000Y-67787683D01*
X25620410Y-67631225D01*
X25620410Y-67631223D01*
X25670483Y-67466157D01*
X25681308Y-67430471D01*
X25780200Y-67245455D01*
X25913288Y-67083288D01*
X26075455Y-66950200D01*
X26260470Y-66851308D01*
X26343382Y-66826157D01*
X26461222Y-66790410D01*
X26495580Y-66787026D01*
X26670000Y-66769847D01*
X26844419Y-66787026D01*
X26844419Y-66787026D01*
G37*
G36*
X29356318Y-65094411D02*
X29428767Y-65108822D01*
X29485303Y-65132240D01*
X29565257Y-65165358D01*
X29688100Y-65247439D01*
X29792561Y-65351900D01*
X29874642Y-65474743D01*
X29907760Y-65554697D01*
X29931178Y-65611233D01*
X29960000Y-65756131D01*
X29960000Y-65903869D01*
X29931178Y-66048767D01*
X29912664Y-66093463D01*
X29874642Y-66185257D01*
X29792561Y-66308100D01*
X29688100Y-66412561D01*
X29565257Y-66494642D01*
X29472459Y-66533080D01*
X29428767Y-66551178D01*
X29428766Y-66551178D01*
X29422091Y-66553943D01*
X29412414Y-66556878D01*
X29390802Y-66568429D01*
X29371860Y-66583974D01*
X29356314Y-66602915D01*
X29344762Y-66624526D01*
X29337648Y-66647974D01*
X29335245Y-66672361D01*
X29337646Y-66696747D01*
X29344758Y-66720196D01*
X29356309Y-66741808D01*
X29371854Y-66760750D01*
X29390795Y-66776296D01*
X29412406Y-66787848D01*
X29423959Y-66791982D01*
X29536617Y-66826157D01*
X29619529Y-66851308D01*
X29804545Y-66950200D01*
X29966712Y-67083288D01*
X30099800Y-67245455D01*
X30198692Y-67430470D01*
X30209702Y-67466765D01*
X30259590Y-67631222D01*
X30259590Y-67631224D01*
X30275000Y-67787682D01*
X30275000Y-68192317D01*
X30273258Y-68210000D01*
X30259590Y-68348777D01*
X30249289Y-68382733D01*
X30198692Y-68549529D01*
X30099800Y-68734545D01*
X29966712Y-68896712D01*
X29804545Y-69029800D01*
X29619530Y-69128692D01*
X29552612Y-69148991D01*
X29418778Y-69189590D01*
X29384420Y-69192974D01*
X29210000Y-69210153D01*
X29035581Y-69192974D01*
X29001223Y-69189590D01*
X28867389Y-69148991D01*
X28800471Y-69128692D01*
X28615456Y-69029800D01*
X28453289Y-68896712D01*
X28320200Y-68734545D01*
X28221308Y-68549530D01*
X28184769Y-68429078D01*
X28160410Y-68348778D01*
X28156558Y-68309662D01*
X28145000Y-68192318D01*
X28145000Y-67787683D01*
X28160410Y-67631225D01*
X28160410Y-67631223D01*
X28210483Y-67466157D01*
X28221308Y-67430471D01*
X28320200Y-67245455D01*
X28453288Y-67083288D01*
X28615455Y-66950200D01*
X28800470Y-66851308D01*
X28936644Y-66810000D01*
X28996041Y-66791982D01*
X29018680Y-66782605D01*
X29039054Y-66768991D01*
X29056382Y-66751664D01*
X29069995Y-66731289D01*
X29079373Y-66708650D01*
X29084153Y-66684617D01*
X29084153Y-66660112D01*
X29079372Y-66636079D01*
X29069995Y-66613440D01*
X29056381Y-66593066D01*
X29039054Y-66575738D01*
X29018679Y-66562125D01*
X28996040Y-66552747D01*
X28993464Y-66552102D01*
X28854743Y-66494642D01*
X28731900Y-66412561D01*
X28627439Y-66308100D01*
X28545358Y-66185257D01*
X28507336Y-66093463D01*
X28488822Y-66048767D01*
X28460000Y-65903869D01*
X28460000Y-65756131D01*
X28488822Y-65611233D01*
X28512240Y-65554697D01*
X28545358Y-65474743D01*
X28627439Y-65351900D01*
X28731900Y-65247439D01*
X28854743Y-65165358D01*
X28934697Y-65132240D01*
X28991233Y-65108822D01*
X29063682Y-65094411D01*
X29136130Y-65080000D01*
X29283870Y-65080000D01*
X29356318Y-65094411D01*
X29356318Y-65094411D01*
G37*
G36*
X31924419Y-66787026D02*
X31958777Y-66790410D01*
X32076617Y-66826157D01*
X32159529Y-66851308D01*
X32344545Y-66950200D01*
X32506712Y-67083288D01*
X32639800Y-67245455D01*
X32738692Y-67430470D01*
X32749702Y-67466765D01*
X32799590Y-67631222D01*
X32799590Y-67631224D01*
X32815000Y-67787682D01*
X32815000Y-68192317D01*
X32813258Y-68210000D01*
X32799590Y-68348777D01*
X32789289Y-68382733D01*
X32738692Y-68549529D01*
X32639800Y-68734545D01*
X32506712Y-68896712D01*
X32344545Y-69029800D01*
X32159530Y-69128692D01*
X32092612Y-69148991D01*
X31958778Y-69189590D01*
X31924420Y-69192974D01*
X31750000Y-69210153D01*
X31575581Y-69192974D01*
X31541223Y-69189590D01*
X31407389Y-69148991D01*
X31340471Y-69128692D01*
X31155456Y-69029800D01*
X30993289Y-68896712D01*
X30860200Y-68734545D01*
X30761308Y-68549530D01*
X30724769Y-68429078D01*
X30700410Y-68348778D01*
X30696558Y-68309662D01*
X30685000Y-68192318D01*
X30685000Y-67787683D01*
X30700410Y-67631225D01*
X30700410Y-67631223D01*
X30750483Y-67466157D01*
X30761308Y-67430471D01*
X30860200Y-67245455D01*
X30993288Y-67083288D01*
X31155455Y-66950200D01*
X31340470Y-66851308D01*
X31423382Y-66826157D01*
X31541222Y-66790410D01*
X31575580Y-66787026D01*
X31750000Y-66769847D01*
X31924419Y-66787026D01*
X31924419Y-66787026D01*
G37*
G36*
X52216318Y-65094411D02*
X52288767Y-65108822D01*
X52345303Y-65132240D01*
X52425257Y-65165358D01*
X52548100Y-65247439D01*
X52652561Y-65351900D01*
X52734642Y-65474743D01*
X52767760Y-65554697D01*
X52791178Y-65611233D01*
X52820000Y-65756131D01*
X52820000Y-65903869D01*
X52791178Y-66048767D01*
X52772664Y-66093463D01*
X52734642Y-66185257D01*
X52652561Y-66308100D01*
X52548100Y-66412561D01*
X52425257Y-66494642D01*
X52332459Y-66533080D01*
X52288767Y-66551178D01*
X52288766Y-66551178D01*
X52282091Y-66553943D01*
X52272414Y-66556878D01*
X52250802Y-66568429D01*
X52231860Y-66583974D01*
X52216314Y-66602915D01*
X52204762Y-66624526D01*
X52197648Y-66647974D01*
X52195245Y-66672361D01*
X52197646Y-66696747D01*
X52204758Y-66720196D01*
X52216309Y-66741808D01*
X52231854Y-66760750D01*
X52250795Y-66776296D01*
X52272406Y-66787848D01*
X52283959Y-66791982D01*
X52396617Y-66826157D01*
X52479529Y-66851308D01*
X52664545Y-66950200D01*
X52826712Y-67083288D01*
X52959800Y-67245455D01*
X53058692Y-67430470D01*
X53069702Y-67466765D01*
X53119590Y-67631222D01*
X53119590Y-67631224D01*
X53135000Y-67787682D01*
X53135000Y-68192317D01*
X53133258Y-68210000D01*
X53119590Y-68348777D01*
X53109289Y-68382733D01*
X53058692Y-68549529D01*
X52959800Y-68734545D01*
X52826712Y-68896712D01*
X52664545Y-69029800D01*
X52479530Y-69128692D01*
X52412612Y-69148991D01*
X52278778Y-69189590D01*
X52244420Y-69192974D01*
X52070000Y-69210153D01*
X51895581Y-69192974D01*
X51861223Y-69189590D01*
X51727389Y-69148991D01*
X51660471Y-69128692D01*
X51475456Y-69029800D01*
X51313289Y-68896712D01*
X51180200Y-68734545D01*
X51081308Y-68549530D01*
X51044769Y-68429078D01*
X51020410Y-68348778D01*
X51016558Y-68309662D01*
X51005000Y-68192318D01*
X51005000Y-67787683D01*
X51020410Y-67631225D01*
X51020410Y-67631223D01*
X51070483Y-67466157D01*
X51081308Y-67430471D01*
X51180200Y-67245455D01*
X51313288Y-67083288D01*
X51475455Y-66950200D01*
X51660470Y-66851308D01*
X51796644Y-66810000D01*
X51856041Y-66791982D01*
X51878680Y-66782605D01*
X51899054Y-66768991D01*
X51916382Y-66751664D01*
X51929995Y-66731289D01*
X51939373Y-66708650D01*
X51944153Y-66684617D01*
X51944153Y-66660112D01*
X51939372Y-66636079D01*
X51929995Y-66613440D01*
X51916381Y-66593066D01*
X51899054Y-66575738D01*
X51878679Y-66562125D01*
X51856040Y-66552747D01*
X51853464Y-66552102D01*
X51714743Y-66494642D01*
X51591900Y-66412561D01*
X51487439Y-66308100D01*
X51405358Y-66185257D01*
X51367336Y-66093463D01*
X51348822Y-66048767D01*
X51320000Y-65903869D01*
X51320000Y-65756131D01*
X51348822Y-65611233D01*
X51372240Y-65554697D01*
X51405358Y-65474743D01*
X51487439Y-65351900D01*
X51591900Y-65247439D01*
X51714743Y-65165358D01*
X51794697Y-65132240D01*
X51851233Y-65108822D01*
X51923682Y-65094411D01*
X51996130Y-65080000D01*
X52143870Y-65080000D01*
X52216318Y-65094411D01*
X52216318Y-65094411D01*
G37*
G36*
X54784419Y-66787026D02*
X54818777Y-66790410D01*
X54936617Y-66826157D01*
X55019529Y-66851308D01*
X55204545Y-66950200D01*
X55366712Y-67083288D01*
X55499800Y-67245455D01*
X55598692Y-67430470D01*
X55609702Y-67466765D01*
X55659590Y-67631222D01*
X55659590Y-67631224D01*
X55675000Y-67787682D01*
X55675000Y-68192317D01*
X55673258Y-68210000D01*
X55659590Y-68348777D01*
X55649289Y-68382733D01*
X55598692Y-68549529D01*
X55499800Y-68734545D01*
X55366712Y-68896712D01*
X55204545Y-69029800D01*
X55019530Y-69128692D01*
X54952612Y-69148991D01*
X54818778Y-69189590D01*
X54784420Y-69192974D01*
X54610000Y-69210153D01*
X54435581Y-69192974D01*
X54401223Y-69189590D01*
X54267389Y-69148991D01*
X54200471Y-69128692D01*
X54015456Y-69029800D01*
X53853289Y-68896712D01*
X53720200Y-68734545D01*
X53621308Y-68549530D01*
X53584769Y-68429078D01*
X53560410Y-68348778D01*
X53556558Y-68309662D01*
X53545000Y-68192318D01*
X53545000Y-67787683D01*
X53560410Y-67631225D01*
X53560410Y-67631223D01*
X53610483Y-67466157D01*
X53621308Y-67430471D01*
X53720200Y-67245455D01*
X53853288Y-67083288D01*
X54015455Y-66950200D01*
X54200470Y-66851308D01*
X54283382Y-66826157D01*
X54401222Y-66790410D01*
X54435580Y-66787026D01*
X54610000Y-66769847D01*
X54784419Y-66787026D01*
X54784419Y-66787026D01*
G37*
G36*
X35355000Y-69205000D02*
X33225000Y-69205000D01*
X33225000Y-66775000D01*
X35355000Y-66775000D01*
X35355000Y-69205000D01*
X35355000Y-69205000D01*
G37*
G36*
X58215000Y-69205000D02*
X56085000Y-69205000D01*
X56085000Y-66775000D01*
X58215000Y-66775000D01*
X58215000Y-69205000D01*
X58215000Y-69205000D01*
G37*
G36*
X46785000Y-69205000D02*
X44655000Y-69205000D01*
X44655000Y-66775000D01*
X46785000Y-66775000D01*
X46785000Y-69205000D01*
X46785000Y-69205000D01*
G37*
G36*
X69525000Y-69205000D02*
X67395000Y-69205000D01*
X67395000Y-66775000D01*
X69525000Y-66775000D01*
X69525000Y-69205000D01*
X69525000Y-69205000D01*
G37*
G36*
X23149208Y-65973235D02*
X23174886Y-65981025D01*
X23198557Y-65993677D01*
X23219300Y-66010700D01*
X23236323Y-66031443D01*
X23248975Y-66055114D01*
X23256765Y-66080792D01*
X23260000Y-66113641D01*
X23260000Y-66686357D01*
X23257893Y-66707746D01*
X23257893Y-66732254D01*
X23260000Y-66753643D01*
X23260000Y-67326359D01*
X23256765Y-67359208D01*
X23248975Y-67384886D01*
X23236323Y-67408557D01*
X23219300Y-67429300D01*
X23198557Y-67446323D01*
X23174886Y-67458975D01*
X23149208Y-67466765D01*
X23116359Y-67470000D01*
X22603641Y-67470000D01*
X22570792Y-67466765D01*
X22545114Y-67458975D01*
X22521443Y-67446323D01*
X22500700Y-67429300D01*
X22483677Y-67408557D01*
X22471025Y-67384886D01*
X22463235Y-67359208D01*
X22460000Y-67326359D01*
X22460000Y-66753643D01*
X22462107Y-66732254D01*
X22462107Y-66707746D01*
X22460000Y-66686357D01*
X22460000Y-66113641D01*
X22463235Y-66080792D01*
X22471025Y-66055114D01*
X22483677Y-66031443D01*
X22500700Y-66010700D01*
X22521443Y-65993677D01*
X22545114Y-65981025D01*
X22570792Y-65973235D01*
X22603641Y-65970000D01*
X23116359Y-65970000D01*
X23149208Y-65973235D01*
X23149208Y-65973235D01*
G37*
G36*
X9018707Y-64407596D02*
X9095836Y-64415193D01*
X9227787Y-64455220D01*
X9293763Y-64475233D01*
X9476172Y-64572733D01*
X9636054Y-64703946D01*
X9767267Y-64863828D01*
X9864767Y-65046237D01*
X9864767Y-65046238D01*
X9924807Y-65244164D01*
X9945080Y-65450000D01*
X9924807Y-65655836D01*
X9894383Y-65756130D01*
X9864767Y-65853763D01*
X9767267Y-66036172D01*
X9636054Y-66196054D01*
X9476172Y-66327267D01*
X9293763Y-66424767D01*
X9227787Y-66444780D01*
X9095836Y-66484807D01*
X9018707Y-66492404D01*
X8941580Y-66500000D01*
X8838420Y-66500000D01*
X8761293Y-66492404D01*
X8684164Y-66484807D01*
X8552213Y-66444780D01*
X8486237Y-66424767D01*
X8303828Y-66327267D01*
X8143946Y-66196054D01*
X8012733Y-66036172D01*
X7915233Y-65853763D01*
X7885617Y-65756130D01*
X7855193Y-65655836D01*
X7834920Y-65450000D01*
X7855193Y-65244164D01*
X7915233Y-65046238D01*
X7915233Y-65046237D01*
X8012733Y-64863828D01*
X8143946Y-64703946D01*
X8303828Y-64572733D01*
X8486237Y-64475233D01*
X8552213Y-64455220D01*
X8684164Y-64415193D01*
X8761293Y-64407596D01*
X8838420Y-64400000D01*
X8941580Y-64400000D01*
X9018707Y-64407596D01*
X9018707Y-64407596D01*
G37*
G36*
X11558707Y-64407596D02*
X11635836Y-64415193D01*
X11767787Y-64455220D01*
X11833763Y-64475233D01*
X12016172Y-64572733D01*
X12176054Y-64703946D01*
X12307267Y-64863828D01*
X12404767Y-65046237D01*
X12404767Y-65046238D01*
X12464807Y-65244164D01*
X12485080Y-65450000D01*
X12464807Y-65655836D01*
X12434383Y-65756130D01*
X12404767Y-65853763D01*
X12307267Y-66036172D01*
X12176054Y-66196054D01*
X12016172Y-66327267D01*
X11833763Y-66424767D01*
X11767787Y-66444780D01*
X11635836Y-66484807D01*
X11558707Y-66492404D01*
X11481580Y-66500000D01*
X11378420Y-66500000D01*
X11301293Y-66492404D01*
X11224164Y-66484807D01*
X11092213Y-66444780D01*
X11026237Y-66424767D01*
X10843828Y-66327267D01*
X10683946Y-66196054D01*
X10552733Y-66036172D01*
X10455233Y-65853763D01*
X10425617Y-65756130D01*
X10395193Y-65655836D01*
X10374920Y-65450000D01*
X10395193Y-65244164D01*
X10455233Y-65046238D01*
X10455233Y-65046237D01*
X10552733Y-64863828D01*
X10683946Y-64703946D01*
X10843828Y-64572733D01*
X11026237Y-64475233D01*
X11092213Y-64455220D01*
X11224164Y-64415193D01*
X11301293Y-64407596D01*
X11378420Y-64400000D01*
X11481580Y-64400000D01*
X11558707Y-64407596D01*
X11558707Y-64407596D01*
G37*
G36*
X14098707Y-64407596D02*
X14175836Y-64415193D01*
X14307787Y-64455220D01*
X14373763Y-64475233D01*
X14556172Y-64572733D01*
X14716054Y-64703946D01*
X14847267Y-64863828D01*
X14944767Y-65046237D01*
X14944767Y-65046238D01*
X15004807Y-65244164D01*
X15025080Y-65450000D01*
X15004807Y-65655836D01*
X14974383Y-65756130D01*
X14944767Y-65853763D01*
X14847267Y-66036172D01*
X14716054Y-66196054D01*
X14556172Y-66327267D01*
X14373763Y-66424767D01*
X14307787Y-66444780D01*
X14175836Y-66484807D01*
X14098707Y-66492404D01*
X14021580Y-66500000D01*
X13918420Y-66500000D01*
X13841293Y-66492404D01*
X13764164Y-66484807D01*
X13632213Y-66444780D01*
X13566237Y-66424767D01*
X13383828Y-66327267D01*
X13223946Y-66196054D01*
X13092733Y-66036172D01*
X12995233Y-65853763D01*
X12965617Y-65756130D01*
X12935193Y-65655836D01*
X12914920Y-65450000D01*
X12935193Y-65244164D01*
X12995233Y-65046238D01*
X12995233Y-65046237D01*
X13092733Y-64863828D01*
X13223946Y-64703946D01*
X13383828Y-64572733D01*
X13566237Y-64475233D01*
X13632213Y-64455220D01*
X13764164Y-64415193D01*
X13841293Y-64407596D01*
X13918420Y-64400000D01*
X14021580Y-64400000D01*
X14098707Y-64407596D01*
X14098707Y-64407596D01*
G37*
G36*
X17560000Y-66500000D02*
X15460000Y-66500000D01*
X15460000Y-64400000D01*
X17560000Y-64400000D01*
X17560000Y-66500000D01*
X17560000Y-66500000D01*
G37*
G36*
X14259208Y-62163235D02*
X14284886Y-62171025D01*
X14308557Y-62183677D01*
X14329300Y-62200700D01*
X14346323Y-62221443D01*
X14358975Y-62245114D01*
X14366765Y-62270792D01*
X14370000Y-62303641D01*
X14370000Y-62876357D01*
X14367893Y-62897746D01*
X14367893Y-62922254D01*
X14370000Y-62943643D01*
X14370000Y-63516359D01*
X14366765Y-63549208D01*
X14358975Y-63574886D01*
X14346323Y-63598557D01*
X14329300Y-63619300D01*
X14308557Y-63636323D01*
X14284886Y-63648975D01*
X14259208Y-63656765D01*
X14226359Y-63660000D01*
X13713641Y-63660000D01*
X13680792Y-63656765D01*
X13655114Y-63648975D01*
X13631443Y-63636323D01*
X13610700Y-63619300D01*
X13593677Y-63598557D01*
X13581025Y-63574886D01*
X13573235Y-63549208D01*
X13570000Y-63516359D01*
X13570000Y-62943643D01*
X13572107Y-62922254D01*
X13572107Y-62897746D01*
X13570000Y-62876357D01*
X13570000Y-62303641D01*
X13573235Y-62270792D01*
X13581025Y-62245114D01*
X13593677Y-62221443D01*
X13610700Y-62200700D01*
X13631443Y-62183677D01*
X13655114Y-62171025D01*
X13680792Y-62163235D01*
X13713641Y-62160000D01*
X14226359Y-62160000D01*
X14259208Y-62163235D01*
X14259208Y-62163235D01*
G37*
G36*
X11719208Y-62163235D02*
X11744886Y-62171025D01*
X11768557Y-62183677D01*
X11789300Y-62200700D01*
X11806323Y-62221443D01*
X11818975Y-62245114D01*
X11826765Y-62270792D01*
X11830000Y-62303641D01*
X11830000Y-62876357D01*
X11827893Y-62897746D01*
X11827893Y-62922254D01*
X11830000Y-62943643D01*
X11830000Y-63516359D01*
X11826765Y-63549208D01*
X11818975Y-63574886D01*
X11806323Y-63598557D01*
X11789300Y-63619300D01*
X11768557Y-63636323D01*
X11744886Y-63648975D01*
X11719208Y-63656765D01*
X11686359Y-63660000D01*
X11173641Y-63660000D01*
X11140792Y-63656765D01*
X11115114Y-63648975D01*
X11091443Y-63636323D01*
X11070700Y-63619300D01*
X11053677Y-63598557D01*
X11041025Y-63574886D01*
X11033235Y-63549208D01*
X11030000Y-63516359D01*
X11030000Y-62943643D01*
X11032107Y-62922254D01*
X11032107Y-62897746D01*
X11030000Y-62876357D01*
X11030000Y-62303641D01*
X11033235Y-62270792D01*
X11041025Y-62245114D01*
X11053677Y-62221443D01*
X11070700Y-62200700D01*
X11091443Y-62183677D01*
X11115114Y-62171025D01*
X11140792Y-62163235D01*
X11173641Y-62160000D01*
X11686359Y-62160000D01*
X11719208Y-62163235D01*
X11719208Y-62163235D01*
G37*
G36*
X23939612Y-59348037D02*
X24167096Y-59442264D01*
X24371831Y-59579064D01*
X24545936Y-59753169D01*
X24682736Y-59957904D01*
X24776963Y-60185388D01*
X24825000Y-60426885D01*
X24825000Y-60673115D01*
X24776963Y-60914612D01*
X24682736Y-61142096D01*
X24545936Y-61346831D01*
X24371831Y-61520936D01*
X24167096Y-61657736D01*
X23939612Y-61751963D01*
X23698115Y-61800000D01*
X23451885Y-61800000D01*
X23210388Y-61751963D01*
X22982904Y-61657736D01*
X22778169Y-61520936D01*
X22604064Y-61346831D01*
X22467264Y-61142096D01*
X22373037Y-60914612D01*
X22325000Y-60673115D01*
X22325000Y-60426885D01*
X22373037Y-60185388D01*
X22467264Y-59957904D01*
X22604064Y-59753169D01*
X22778169Y-59579064D01*
X22982904Y-59442264D01*
X23210388Y-59348037D01*
X23451885Y-59300000D01*
X23698115Y-59300000D01*
X23939612Y-59348037D01*
X23939612Y-59348037D01*
G37*
G36*
X60739612Y-59298037D02*
X60967096Y-59392264D01*
X61171831Y-59529064D01*
X61345936Y-59703169D01*
X61482736Y-59907904D01*
X61576963Y-60135388D01*
X61625000Y-60376885D01*
X61625000Y-60623115D01*
X61576963Y-60864612D01*
X61482736Y-61092096D01*
X61345936Y-61296831D01*
X61171831Y-61470936D01*
X60967096Y-61607736D01*
X60739612Y-61701963D01*
X60498115Y-61750000D01*
X60251885Y-61750000D01*
X60010388Y-61701963D01*
X59782904Y-61607736D01*
X59578169Y-61470936D01*
X59404064Y-61296831D01*
X59267264Y-61092096D01*
X59173037Y-60864612D01*
X59125000Y-60623115D01*
X59125000Y-60376885D01*
X59173037Y-60135388D01*
X59267264Y-59907904D01*
X59404064Y-59703169D01*
X59578169Y-59529064D01*
X59782904Y-59392264D01*
X60010388Y-59298037D01*
X60251885Y-59250000D01*
X60498115Y-59250000D01*
X60739612Y-59298037D01*
X60739612Y-59298037D01*
G37*
G36*
X23725829Y-54889220D02*
X23811530Y-54897661D01*
X23921489Y-54931017D01*
X23976469Y-54947695D01*
X24027137Y-54974778D01*
X24128476Y-55028944D01*
X24261712Y-55138288D01*
X24371056Y-55271524D01*
X24425222Y-55372863D01*
X24452305Y-55423531D01*
X24452305Y-55423532D01*
X24502339Y-55588470D01*
X24519233Y-55760000D01*
X24502339Y-55931530D01*
X24468983Y-56041489D01*
X24452305Y-56096469D01*
X24445072Y-56110000D01*
X24371056Y-56248476D01*
X24261712Y-56381712D01*
X24128476Y-56491056D01*
X24027137Y-56545222D01*
X23976469Y-56572305D01*
X23921489Y-56588983D01*
X23811530Y-56622339D01*
X23725829Y-56630780D01*
X23682980Y-56635000D01*
X23597020Y-56635000D01*
X23554171Y-56630780D01*
X23468470Y-56622339D01*
X23358511Y-56588983D01*
X23303531Y-56572305D01*
X23252863Y-56545222D01*
X23151524Y-56491056D01*
X23018288Y-56381712D01*
X22908944Y-56248476D01*
X22834928Y-56110000D01*
X22827695Y-56096469D01*
X22811017Y-56041489D01*
X22777661Y-55931530D01*
X22760767Y-55760000D01*
X22777661Y-55588470D01*
X22827695Y-55423532D01*
X22827695Y-55423531D01*
X22854778Y-55372863D01*
X22908944Y-55271524D01*
X23018288Y-55138288D01*
X23151524Y-55028944D01*
X23252863Y-54974778D01*
X23303531Y-54947695D01*
X23358511Y-54931017D01*
X23468470Y-54897661D01*
X23554171Y-54889220D01*
X23597020Y-54885000D01*
X23682980Y-54885000D01*
X23725829Y-54889220D01*
X23725829Y-54889220D01*
G37*
G36*
X34370000Y-56110000D02*
X25450000Y-56110000D01*
X25450000Y-53410000D01*
X34370000Y-53410000D01*
X34370000Y-56110000D01*
X34370000Y-56110000D01*
G37*
G36*
X36555829Y-53889220D02*
X36641530Y-53897661D01*
X36751489Y-53931017D01*
X36806469Y-53947695D01*
X36857137Y-53974778D01*
X36958476Y-54028944D01*
X37091712Y-54138288D01*
X37201056Y-54271524D01*
X37255222Y-54372863D01*
X37282305Y-54423531D01*
X37282305Y-54423532D01*
X37332339Y-54588470D01*
X37349233Y-54760000D01*
X37332339Y-54931530D01*
X37327435Y-54947695D01*
X37282305Y-55096469D01*
X37259952Y-55138288D01*
X37201056Y-55248476D01*
X37091712Y-55381712D01*
X36958476Y-55491056D01*
X36857137Y-55545222D01*
X36806469Y-55572305D01*
X36753180Y-55588470D01*
X36641530Y-55622339D01*
X36555829Y-55630780D01*
X36512980Y-55635000D01*
X36427020Y-55635000D01*
X36384171Y-55630780D01*
X36298470Y-55622339D01*
X36186820Y-55588470D01*
X36133531Y-55572305D01*
X36082863Y-55545222D01*
X35981524Y-55491056D01*
X35848288Y-55381712D01*
X35738944Y-55248476D01*
X35680048Y-55138288D01*
X35657695Y-55096469D01*
X35612565Y-54947695D01*
X35607661Y-54931530D01*
X35590767Y-54760000D01*
X35607661Y-54588470D01*
X35657695Y-54423532D01*
X35657695Y-54423531D01*
X35684778Y-54372863D01*
X35738944Y-54271524D01*
X35848288Y-54138288D01*
X35981524Y-54028944D01*
X36082863Y-53974778D01*
X36133531Y-53947695D01*
X36188511Y-53931017D01*
X36298470Y-53897661D01*
X36384171Y-53889220D01*
X36427020Y-53885000D01*
X36512980Y-53885000D01*
X36555829Y-53889220D01*
X36555829Y-53889220D01*
G37*
G36*
X17300000Y-55155000D02*
X15150000Y-55155000D01*
X15150000Y-54005000D01*
X17300000Y-54005000D01*
X17300000Y-55155000D01*
X17300000Y-55155000D01*
G37*
G36*
X17300000Y-52055000D02*
X15150000Y-52055000D01*
X15150000Y-50905000D01*
X17300000Y-50905000D01*
X17300000Y-52055000D01*
X17300000Y-52055000D01*
G37*
G36*
X10989208Y-47558235D02*
X11014886Y-47566025D01*
X11038557Y-47578677D01*
X11059300Y-47595700D01*
X11076323Y-47616443D01*
X11088975Y-47640114D01*
X11096765Y-47665792D01*
X11100000Y-47698641D01*
X11100000Y-48271357D01*
X11097893Y-48292746D01*
X11097893Y-48317254D01*
X11100000Y-48338643D01*
X11100000Y-48911359D01*
X11096765Y-48944208D01*
X11088975Y-48969886D01*
X11076323Y-48993557D01*
X11059300Y-49014300D01*
X11038557Y-49031323D01*
X11014886Y-49043975D01*
X10989208Y-49051765D01*
X10956359Y-49055000D01*
X10443641Y-49055000D01*
X10410792Y-49051765D01*
X10385114Y-49043975D01*
X10361443Y-49031323D01*
X10340700Y-49014300D01*
X10323677Y-48993557D01*
X10311025Y-48969886D01*
X10303235Y-48944208D01*
X10300000Y-48911359D01*
X10300000Y-48338643D01*
X10302107Y-48317254D01*
X10302107Y-48292746D01*
X10300000Y-48271357D01*
X10300000Y-47698641D01*
X10303235Y-47665792D01*
X10311025Y-47640114D01*
X10323677Y-47616443D01*
X10340700Y-47595700D01*
X10361443Y-47578677D01*
X10385114Y-47566025D01*
X10410792Y-47558235D01*
X10443641Y-47555000D01*
X10956359Y-47555000D01*
X10989208Y-47558235D01*
X10989208Y-47558235D01*
G37*
G36*
X23939612Y-43348037D02*
X24167096Y-43442264D01*
X24371831Y-43579064D01*
X24545936Y-43753169D01*
X24682736Y-43957904D01*
X24776963Y-44185388D01*
X24825000Y-44426885D01*
X24825000Y-44673115D01*
X24776963Y-44914612D01*
X24682736Y-45142096D01*
X24545936Y-45346831D01*
X24371831Y-45520936D01*
X24167096Y-45657736D01*
X23939612Y-45751963D01*
X23698115Y-45800000D01*
X23451885Y-45800000D01*
X23210388Y-45751963D01*
X22982904Y-45657736D01*
X22778169Y-45520936D01*
X22604064Y-45346831D01*
X22467264Y-45142096D01*
X22373037Y-44914612D01*
X22325000Y-44673115D01*
X22325000Y-44426885D01*
X22373037Y-44185388D01*
X22467264Y-43957904D01*
X22604064Y-43753169D01*
X22778169Y-43579064D01*
X22982904Y-43442264D01*
X23210388Y-43348037D01*
X23451885Y-43300000D01*
X23698115Y-43300000D01*
X23939612Y-43348037D01*
X23939612Y-43348037D01*
G37*
G36*
X60739612Y-43298037D02*
X60967096Y-43392264D01*
X61171831Y-43529064D01*
X61345936Y-43703169D01*
X61482736Y-43907904D01*
X61576963Y-44135388D01*
X61625000Y-44376885D01*
X61625000Y-44623115D01*
X61576963Y-44864612D01*
X61482736Y-45092096D01*
X61345936Y-45296831D01*
X61171831Y-45470936D01*
X60967096Y-45607736D01*
X60739612Y-45701963D01*
X60498115Y-45750000D01*
X60251885Y-45750000D01*
X60010388Y-45701963D01*
X59782904Y-45607736D01*
X59578169Y-45470936D01*
X59404064Y-45296831D01*
X59267264Y-45092096D01*
X59173037Y-44864612D01*
X59125000Y-44623115D01*
X59125000Y-44376885D01*
X59173037Y-44135388D01*
X59267264Y-43907904D01*
X59404064Y-43703169D01*
X59578169Y-43529064D01*
X59782904Y-43392264D01*
X60010388Y-43298037D01*
X60251885Y-43250000D01*
X60498115Y-43250000D01*
X60739612Y-43298037D01*
X60739612Y-43298037D01*
G37*
G36*
X15175000Y-45600000D02*
X6225000Y-45600000D01*
X6225000Y-43700000D01*
X15175000Y-43700000D01*
X15175000Y-45600000D01*
X15175000Y-45600000D01*
G37*
G36*
X5950000Y-43425000D02*
X4050000Y-43425000D01*
X4050000Y-34475000D01*
X5950000Y-34475000D01*
X5950000Y-43425000D01*
X5950000Y-43425000D01*
G37*
G36*
X17350000Y-43425000D02*
X15450000Y-43425000D01*
X15450000Y-34475000D01*
X17350000Y-34475000D01*
X17350000Y-43425000D01*
X17350000Y-43425000D01*
G37*
G36*
X23725829Y-39239220D02*
X23811530Y-39247661D01*
X23921489Y-39281017D01*
X23976469Y-39297695D01*
X24027137Y-39324778D01*
X24128476Y-39378944D01*
X24261712Y-39488288D01*
X24371056Y-39621524D01*
X24425222Y-39722863D01*
X24452305Y-39773531D01*
X24452305Y-39773532D01*
X24502339Y-39938470D01*
X24519233Y-40110000D01*
X24502339Y-40281530D01*
X24468983Y-40391489D01*
X24452305Y-40446469D01*
X24445072Y-40460000D01*
X24371056Y-40598476D01*
X24261712Y-40731712D01*
X24128476Y-40841056D01*
X24064970Y-40875000D01*
X23976469Y-40922305D01*
X23921489Y-40938983D01*
X23811530Y-40972339D01*
X23725829Y-40980780D01*
X23682980Y-40985000D01*
X23597020Y-40985000D01*
X23554171Y-40980780D01*
X23468470Y-40972339D01*
X23358511Y-40938983D01*
X23303531Y-40922305D01*
X23215030Y-40875000D01*
X23151524Y-40841056D01*
X23018288Y-40731712D01*
X22908944Y-40598476D01*
X22834928Y-40460000D01*
X22827695Y-40446469D01*
X22811017Y-40391489D01*
X22777661Y-40281530D01*
X22760767Y-40110000D01*
X22777661Y-39938470D01*
X22827695Y-39773532D01*
X22827695Y-39773531D01*
X22854778Y-39722863D01*
X22908944Y-39621524D01*
X23018288Y-39488288D01*
X23151524Y-39378944D01*
X23252863Y-39324778D01*
X23303531Y-39297695D01*
X23358511Y-39281017D01*
X23468470Y-39247661D01*
X23554171Y-39239220D01*
X23597020Y-39235000D01*
X23682980Y-39235000D01*
X23725829Y-39239220D01*
X23725829Y-39239220D01*
G37*
G36*
X34370000Y-40460000D02*
X25450000Y-40460000D01*
X25450000Y-37760000D01*
X34370000Y-37760000D01*
X34370000Y-40460000D01*
X34370000Y-40460000D01*
G37*
G36*
X36555829Y-38239220D02*
X36641530Y-38247661D01*
X36751489Y-38281017D01*
X36806469Y-38297695D01*
X36857137Y-38324778D01*
X36958476Y-38378944D01*
X37091712Y-38488288D01*
X37201056Y-38621524D01*
X37255222Y-38722863D01*
X37282305Y-38773531D01*
X37282305Y-38773532D01*
X37332339Y-38938470D01*
X37349233Y-39110000D01*
X37332339Y-39281530D01*
X37327435Y-39297695D01*
X37282305Y-39446469D01*
X37259952Y-39488288D01*
X37201056Y-39598476D01*
X37091712Y-39731712D01*
X36958476Y-39841056D01*
X36857137Y-39895222D01*
X36806469Y-39922305D01*
X36753180Y-39938470D01*
X36641530Y-39972339D01*
X36555829Y-39980780D01*
X36512980Y-39985000D01*
X36427020Y-39985000D01*
X36384171Y-39980780D01*
X36298470Y-39972339D01*
X36186820Y-39938470D01*
X36133531Y-39922305D01*
X36082863Y-39895222D01*
X35981524Y-39841056D01*
X35848288Y-39731712D01*
X35738944Y-39598476D01*
X35680048Y-39488288D01*
X35657695Y-39446469D01*
X35612565Y-39297695D01*
X35607661Y-39281530D01*
X35590767Y-39110000D01*
X35607661Y-38938470D01*
X35657695Y-38773532D01*
X35657695Y-38773531D01*
X35684778Y-38722863D01*
X35738944Y-38621524D01*
X35848288Y-38488288D01*
X35981524Y-38378944D01*
X36082863Y-38324778D01*
X36133531Y-38297695D01*
X36188511Y-38281017D01*
X36298470Y-38247661D01*
X36384171Y-38239220D01*
X36427020Y-38235000D01*
X36512980Y-38235000D01*
X36555829Y-38239220D01*
X36555829Y-38239220D01*
G37*
G36*
X15175000Y-34200000D02*
X6225000Y-34200000D01*
X6225000Y-32300000D01*
X15175000Y-32300000D01*
X15175000Y-34200000D01*
X15175000Y-34200000D01*
G37*
G36*
X3050000Y-29950000D02*
X950000Y-29950000D01*
X950000Y-28550000D01*
X3050000Y-28550000D01*
X3050000Y-29950000D01*
X3050000Y-29950000D01*
G37*
G36*
X9350000Y-29950000D02*
X7250000Y-29950000D01*
X7250000Y-28550000D01*
X9350000Y-28550000D01*
X9350000Y-29950000D01*
X9350000Y-29950000D01*
G37*
G36*
X23939612Y-27348037D02*
X24167096Y-27442264D01*
X24371831Y-27579064D01*
X24545936Y-27753169D01*
X24682736Y-27957904D01*
X24776963Y-28185388D01*
X24825000Y-28426885D01*
X24825000Y-28673115D01*
X24776963Y-28914612D01*
X24682736Y-29142096D01*
X24545936Y-29346831D01*
X24371831Y-29520936D01*
X24167096Y-29657736D01*
X23939612Y-29751963D01*
X23698115Y-29800000D01*
X23451885Y-29800000D01*
X23210388Y-29751963D01*
X22982904Y-29657736D01*
X22778169Y-29520936D01*
X22604064Y-29346831D01*
X22467264Y-29142096D01*
X22373037Y-28914612D01*
X22325000Y-28673115D01*
X22325000Y-28426885D01*
X22373037Y-28185388D01*
X22467264Y-27957904D01*
X22604064Y-27753169D01*
X22778169Y-27579064D01*
X22982904Y-27442264D01*
X23210388Y-27348037D01*
X23451885Y-27300000D01*
X23698115Y-27300000D01*
X23939612Y-27348037D01*
X23939612Y-27348037D01*
G37*
G36*
X60739612Y-27298037D02*
X60967096Y-27392264D01*
X61171831Y-27529064D01*
X61345936Y-27703169D01*
X61482736Y-27907904D01*
X61576963Y-28135388D01*
X61625000Y-28376885D01*
X61625000Y-28623115D01*
X61576963Y-28864612D01*
X61482736Y-29092096D01*
X61345936Y-29296831D01*
X61171831Y-29470936D01*
X60967096Y-29607736D01*
X60739612Y-29701963D01*
X60498115Y-29750000D01*
X60251885Y-29750000D01*
X60010388Y-29701963D01*
X59782904Y-29607736D01*
X59578169Y-29470936D01*
X59404064Y-29296831D01*
X59267264Y-29092096D01*
X59173037Y-28864612D01*
X59125000Y-28623115D01*
X59125000Y-28376885D01*
X59173037Y-28135388D01*
X59267264Y-27907904D01*
X59404064Y-27703169D01*
X59578169Y-27529064D01*
X59782904Y-27392264D01*
X60010388Y-27298037D01*
X60251885Y-27250000D01*
X60498115Y-27250000D01*
X60739612Y-27298037D01*
X60739612Y-27298037D01*
G37*
G36*
X3050000Y-26150000D02*
X950000Y-26150000D01*
X950000Y-24750000D01*
X3050000Y-24750000D01*
X3050000Y-26150000D01*
X3050000Y-26150000D01*
G37*
G36*
X9350000Y-26150000D02*
X7250000Y-26150000D01*
X7250000Y-24750000D01*
X9350000Y-24750000D01*
X9350000Y-26150000D01*
X9350000Y-26150000D01*
G37*
G36*
X23725829Y-22889220D02*
X23811530Y-22897661D01*
X23921489Y-22931017D01*
X23976469Y-22947695D01*
X24027137Y-22974778D01*
X24128476Y-23028944D01*
X24261712Y-23138288D01*
X24371056Y-23271524D01*
X24425222Y-23372863D01*
X24452305Y-23423531D01*
X24452305Y-23423532D01*
X24502339Y-23588470D01*
X24519233Y-23760000D01*
X24502339Y-23931530D01*
X24468983Y-24041489D01*
X24452305Y-24096469D01*
X24445072Y-24110000D01*
X24371056Y-24248476D01*
X24261712Y-24381712D01*
X24128476Y-24491056D01*
X24027137Y-24545222D01*
X23976469Y-24572305D01*
X23921489Y-24588983D01*
X23811530Y-24622339D01*
X23725829Y-24630780D01*
X23682980Y-24635000D01*
X23597020Y-24635000D01*
X23554171Y-24630780D01*
X23468470Y-24622339D01*
X23358511Y-24588983D01*
X23303531Y-24572305D01*
X23252863Y-24545222D01*
X23151524Y-24491056D01*
X23018288Y-24381712D01*
X22908944Y-24248476D01*
X22834928Y-24110000D01*
X22827695Y-24096469D01*
X22811017Y-24041489D01*
X22777661Y-23931530D01*
X22760767Y-23760000D01*
X22777661Y-23588470D01*
X22827695Y-23423532D01*
X22827695Y-23423531D01*
X22854778Y-23372863D01*
X22908944Y-23271524D01*
X23018288Y-23138288D01*
X23151524Y-23028944D01*
X23252863Y-22974778D01*
X23303531Y-22947695D01*
X23358511Y-22931017D01*
X23468470Y-22897661D01*
X23554171Y-22889220D01*
X23597020Y-22885000D01*
X23682980Y-22885000D01*
X23725829Y-22889220D01*
X23725829Y-22889220D01*
G37*
G36*
X34370000Y-24110000D02*
X25450000Y-24110000D01*
X25450000Y-21410000D01*
X34370000Y-21410000D01*
X34370000Y-24110000D01*
X34370000Y-24110000D01*
G37*
G36*
X36555829Y-21889220D02*
X36641530Y-21897661D01*
X36751489Y-21931017D01*
X36806469Y-21947695D01*
X36857137Y-21974778D01*
X36958476Y-22028944D01*
X37091712Y-22138288D01*
X37201056Y-22271524D01*
X37255222Y-22372863D01*
X37282305Y-22423531D01*
X37282305Y-22423532D01*
X37332339Y-22588470D01*
X37349233Y-22760000D01*
X37332339Y-22931530D01*
X37327435Y-22947695D01*
X37282305Y-23096469D01*
X37259952Y-23138288D01*
X37201056Y-23248476D01*
X37091712Y-23381712D01*
X36958476Y-23491056D01*
X36857137Y-23545222D01*
X36806469Y-23572305D01*
X36753180Y-23588470D01*
X36641530Y-23622339D01*
X36555829Y-23630780D01*
X36512980Y-23635000D01*
X36427020Y-23635000D01*
X36384171Y-23630780D01*
X36298470Y-23622339D01*
X36186820Y-23588470D01*
X36133531Y-23572305D01*
X36082863Y-23545222D01*
X35981524Y-23491056D01*
X35848288Y-23381712D01*
X35738944Y-23248476D01*
X35680048Y-23138288D01*
X35657695Y-23096469D01*
X35612565Y-22947695D01*
X35607661Y-22931530D01*
X35590767Y-22760000D01*
X35607661Y-22588470D01*
X35657695Y-22423532D01*
X35657695Y-22423531D01*
X35684778Y-22372863D01*
X35738944Y-22271524D01*
X35848288Y-22138288D01*
X35981524Y-22028944D01*
X36082863Y-21974778D01*
X36133531Y-21947695D01*
X36188511Y-21931017D01*
X36298470Y-21897661D01*
X36384171Y-21889220D01*
X36427020Y-21885000D01*
X36512980Y-21885000D01*
X36555829Y-21889220D01*
X36555829Y-21889220D01*
G37*
G36*
X19480000Y-21700000D02*
X15930000Y-21700000D01*
X15930000Y-20300000D01*
X19480000Y-20300000D01*
X19480000Y-21700000D01*
X19480000Y-21700000D01*
G37*
G36*
X14430000Y-21700000D02*
X10880000Y-21700000D01*
X10880000Y-20300000D01*
X14430000Y-20300000D01*
X14430000Y-21700000D01*
X14430000Y-21700000D01*
G37*
G36*
X14430000Y-19160000D02*
X10880000Y-19160000D01*
X10880000Y-17760000D01*
X14430000Y-17760000D01*
X14430000Y-19160000D01*
X14430000Y-19160000D01*
G37*
G36*
X19480000Y-19160000D02*
X15930000Y-19160000D01*
X15930000Y-17760000D01*
X19480000Y-17760000D01*
X19480000Y-19160000D01*
X19480000Y-19160000D01*
G37*
G36*
X19480000Y-16620000D02*
X15930000Y-16620000D01*
X15930000Y-15220000D01*
X19480000Y-15220000D01*
X19480000Y-16620000D01*
X19480000Y-16620000D01*
G37*
G36*
X14430000Y-16620000D02*
X10880000Y-16620000D01*
X10880000Y-15220000D01*
X14430000Y-15220000D01*
X14430000Y-16620000D01*
X14430000Y-16620000D01*
G37*
G36*
X23939612Y-11348037D02*
X24167096Y-11442264D01*
X24371831Y-11579064D01*
X24545936Y-11753169D01*
X24682736Y-11957904D01*
X24776963Y-12185388D01*
X24825000Y-12426885D01*
X24825000Y-12673115D01*
X24776963Y-12914612D01*
X24682736Y-13142096D01*
X24545936Y-13346831D01*
X24371831Y-13520936D01*
X24167096Y-13657736D01*
X23939612Y-13751963D01*
X23698115Y-13800000D01*
X23451885Y-13800000D01*
X23210388Y-13751963D01*
X22982904Y-13657736D01*
X22778169Y-13520936D01*
X22604064Y-13346831D01*
X22467264Y-13142096D01*
X22373037Y-12914612D01*
X22325000Y-12673115D01*
X22325000Y-12426885D01*
X22373037Y-12185388D01*
X22467264Y-11957904D01*
X22604064Y-11753169D01*
X22778169Y-11579064D01*
X22982904Y-11442264D01*
X23210388Y-11348037D01*
X23451885Y-11300000D01*
X23698115Y-11300000D01*
X23939612Y-11348037D01*
X23939612Y-11348037D01*
G37*
G36*
X60739612Y-11298037D02*
X60967096Y-11392264D01*
X61171831Y-11529064D01*
X61345936Y-11703169D01*
X61482736Y-11907904D01*
X61576963Y-12135388D01*
X61625000Y-12376885D01*
X61625000Y-12623115D01*
X61576963Y-12864612D01*
X61482736Y-13092096D01*
X61345936Y-13296831D01*
X61171831Y-13470936D01*
X60967096Y-13607736D01*
X60739612Y-13701963D01*
X60498115Y-13750000D01*
X60251885Y-13750000D01*
X60010388Y-13701963D01*
X59782904Y-13607736D01*
X59578169Y-13470936D01*
X59404064Y-13296831D01*
X59267264Y-13092096D01*
X59173037Y-12864612D01*
X59125000Y-12623115D01*
X59125000Y-12376885D01*
X59173037Y-12135388D01*
X59267264Y-11907904D01*
X59404064Y-11703169D01*
X59578169Y-11529064D01*
X59782904Y-11392264D01*
X60010388Y-11298037D01*
X60251885Y-11250000D01*
X60498115Y-11250000D01*
X60739612Y-11298037D01*
X60739612Y-11298037D01*
G37*
G36*
X23725829Y-6889220D02*
X23811530Y-6897661D01*
X23921489Y-6931017D01*
X23976469Y-6947695D01*
X24027137Y-6974778D01*
X24128476Y-7028944D01*
X24261712Y-7138288D01*
X24371056Y-7271524D01*
X24425222Y-7372863D01*
X24452305Y-7423531D01*
X24452305Y-7423532D01*
X24502339Y-7588470D01*
X24519233Y-7760000D01*
X24502339Y-7931530D01*
X24468983Y-8041489D01*
X24452305Y-8096469D01*
X24445072Y-8110000D01*
X24371056Y-8248476D01*
X24261712Y-8381712D01*
X24128476Y-8491056D01*
X24027137Y-8545222D01*
X23976469Y-8572305D01*
X23921489Y-8588983D01*
X23811530Y-8622339D01*
X23725829Y-8630780D01*
X23682980Y-8635000D01*
X23597020Y-8635000D01*
X23554171Y-8630780D01*
X23468470Y-8622339D01*
X23358511Y-8588983D01*
X23303531Y-8572305D01*
X23252863Y-8545222D01*
X23151524Y-8491056D01*
X23018288Y-8381712D01*
X22908944Y-8248476D01*
X22834928Y-8110000D01*
X22827695Y-8096469D01*
X22811017Y-8041489D01*
X22777661Y-7931530D01*
X22760767Y-7760000D01*
X22777661Y-7588470D01*
X22827695Y-7423532D01*
X22827695Y-7423531D01*
X22854778Y-7372863D01*
X22908944Y-7271524D01*
X23018288Y-7138288D01*
X23151524Y-7028944D01*
X23252863Y-6974778D01*
X23303531Y-6947695D01*
X23358511Y-6931017D01*
X23468470Y-6897661D01*
X23554171Y-6889220D01*
X23597020Y-6885000D01*
X23682980Y-6885000D01*
X23725829Y-6889220D01*
X23725829Y-6889220D01*
G37*
G36*
X34370000Y-8110000D02*
X25450000Y-8110000D01*
X25450000Y-5410000D01*
X34370000Y-5410000D01*
X34370000Y-8110000D01*
X34370000Y-8110000D01*
G37*
G36*
X36555829Y-5889220D02*
X36641530Y-5897661D01*
X36751489Y-5931017D01*
X36806469Y-5947695D01*
X36857137Y-5974778D01*
X36958476Y-6028944D01*
X37091712Y-6138288D01*
X37201056Y-6271524D01*
X37255222Y-6372863D01*
X37282305Y-6423531D01*
X37282305Y-6423532D01*
X37332339Y-6588470D01*
X37349233Y-6760000D01*
X37332339Y-6931530D01*
X37327435Y-6947695D01*
X37282305Y-7096469D01*
X37259952Y-7138288D01*
X37201056Y-7248476D01*
X37091712Y-7381712D01*
X36958476Y-7491056D01*
X36857137Y-7545222D01*
X36806469Y-7572305D01*
X36753180Y-7588470D01*
X36641530Y-7622339D01*
X36555829Y-7630780D01*
X36512980Y-7635000D01*
X36427020Y-7635000D01*
X36384171Y-7630780D01*
X36298470Y-7622339D01*
X36186820Y-7588470D01*
X36133531Y-7572305D01*
X36082863Y-7545222D01*
X35981524Y-7491056D01*
X35848288Y-7381712D01*
X35738944Y-7248476D01*
X35680048Y-7138288D01*
X35657695Y-7096469D01*
X35612565Y-6947695D01*
X35607661Y-6931530D01*
X35590767Y-6760000D01*
X35607661Y-6588470D01*
X35657695Y-6423532D01*
X35657695Y-6423531D01*
X35684778Y-6372863D01*
X35738944Y-6271524D01*
X35848288Y-6138288D01*
X35981524Y-6028944D01*
X36082863Y-5974778D01*
X36133531Y-5947695D01*
X36188511Y-5931017D01*
X36298470Y-5897661D01*
X36384171Y-5889220D01*
X36427020Y-5885000D01*
X36512980Y-5885000D01*
X36555829Y-5889220D01*
X36555829Y-5889220D01*
G37*
M02*
