%TF.GenerationSoftware,KiCad,Pcbnew,6.0.0-rc1-unknown-4a57541~66~ubuntu18.04.1*%
%TF.CreationDate,2018-09-12T10:58:26-06:00*%
%TF.ProjectId,thelio-io,7468656C696F2D696F2E6B696361645F,rev?*%
%TF.SameCoordinates,Original*%
%TF.FileFunction,Paste,Top*%
%TF.FilePolarity,Positive*%
%FSLAX46Y46*%
G04 Gerber Fmt 4.6, Leading zero omitted, Abs format (unit mm)*
G04 Created by KiCad (PCBNEW 6.0.0-rc1-unknown-4a57541~66~ubuntu18.04.1) date Wed Sep 12 10:58:26 2018*
%MOMM*%
%LPD*%
G01*
G04 APERTURE LIST*
%ADD10C,0.150000*%
%ADD11C,0.200000*%
%ADD12C,0.350000*%
%ADD13C,0.318000*%
%ADD14R,2.500000X1.900000*%
%ADD15R,0.600000X3.800000*%
G04 APERTURE END LIST*
D10*
X70850000Y-68600000D02*
G75*
G02X67650000Y-71800000I-3200000J0D01*
G01*
D11*
X3200000Y-71800000D02*
G75*
G02X0Y-68600000I0J3200000D01*
G01*
X67650000Y-71800000D02*
X3200000Y-71800000D01*
X70850000Y-3200000D02*
X70850000Y-68600000D01*
X0Y-3200000D02*
G75*
G02X3200000Y0I3200000J0D01*
G01*
X67650000Y0D02*
G75*
G02X70850000Y-3200000I0J-3200000D01*
G01*
X0Y-68600000D02*
X0Y-3200000D01*
X3200000Y0D02*
X67650000Y0D01*
D12*
%TO.C,C1*%
G36*
X2632292Y-39570383D02*
X2640010Y-39571528D01*
X2647578Y-39573423D01*
X2654923Y-39576052D01*
X2661976Y-39579387D01*
X2668668Y-39583398D01*
X2674934Y-39588046D01*
X2680715Y-39593285D01*
X2685954Y-39599066D01*
X2690602Y-39605332D01*
X2694613Y-39612024D01*
X2697948Y-39619077D01*
X2700577Y-39626422D01*
X2702472Y-39633990D01*
X2703617Y-39641708D01*
X2704000Y-39649500D01*
X2704000Y-39850500D01*
X2703617Y-39858292D01*
X2702472Y-39866010D01*
X2700577Y-39873578D01*
X2697948Y-39880923D01*
X2694613Y-39887976D01*
X2690602Y-39894668D01*
X2685954Y-39900934D01*
X2680715Y-39906715D01*
X2674934Y-39911954D01*
X2668668Y-39916602D01*
X2661976Y-39920613D01*
X2654923Y-39923948D01*
X2647578Y-39926577D01*
X2640010Y-39928472D01*
X2632292Y-39929617D01*
X2624500Y-39930000D01*
X2465500Y-39930000D01*
X2457708Y-39929617D01*
X2449990Y-39928472D01*
X2442422Y-39926577D01*
X2435077Y-39923948D01*
X2428024Y-39920613D01*
X2421332Y-39916602D01*
X2415066Y-39911954D01*
X2409285Y-39906715D01*
X2404046Y-39900934D01*
X2399398Y-39894668D01*
X2395387Y-39887976D01*
X2392052Y-39880923D01*
X2389423Y-39873578D01*
X2387528Y-39866010D01*
X2386383Y-39858292D01*
X2386000Y-39850500D01*
X2386000Y-39649500D01*
X2386383Y-39641708D01*
X2387528Y-39633990D01*
X2389423Y-39626422D01*
X2392052Y-39619077D01*
X2395387Y-39612024D01*
X2399398Y-39605332D01*
X2404046Y-39599066D01*
X2409285Y-39593285D01*
X2415066Y-39588046D01*
X2421332Y-39583398D01*
X2428024Y-39579387D01*
X2435077Y-39576052D01*
X2442422Y-39573423D01*
X2449990Y-39571528D01*
X2457708Y-39570383D01*
X2465500Y-39570000D01*
X2624500Y-39570000D01*
X2632292Y-39570383D01*
X2632292Y-39570383D01*
G37*
D13*
X2545000Y-39750000D03*
D12*
G36*
X1942292Y-39570383D02*
X1950010Y-39571528D01*
X1957578Y-39573423D01*
X1964923Y-39576052D01*
X1971976Y-39579387D01*
X1978668Y-39583398D01*
X1984934Y-39588046D01*
X1990715Y-39593285D01*
X1995954Y-39599066D01*
X2000602Y-39605332D01*
X2004613Y-39612024D01*
X2007948Y-39619077D01*
X2010577Y-39626422D01*
X2012472Y-39633990D01*
X2013617Y-39641708D01*
X2014000Y-39649500D01*
X2014000Y-39850500D01*
X2013617Y-39858292D01*
X2012472Y-39866010D01*
X2010577Y-39873578D01*
X2007948Y-39880923D01*
X2004613Y-39887976D01*
X2000602Y-39894668D01*
X1995954Y-39900934D01*
X1990715Y-39906715D01*
X1984934Y-39911954D01*
X1978668Y-39916602D01*
X1971976Y-39920613D01*
X1964923Y-39923948D01*
X1957578Y-39926577D01*
X1950010Y-39928472D01*
X1942292Y-39929617D01*
X1934500Y-39930000D01*
X1775500Y-39930000D01*
X1767708Y-39929617D01*
X1759990Y-39928472D01*
X1752422Y-39926577D01*
X1745077Y-39923948D01*
X1738024Y-39920613D01*
X1731332Y-39916602D01*
X1725066Y-39911954D01*
X1719285Y-39906715D01*
X1714046Y-39900934D01*
X1709398Y-39894668D01*
X1705387Y-39887976D01*
X1702052Y-39880923D01*
X1699423Y-39873578D01*
X1697528Y-39866010D01*
X1696383Y-39858292D01*
X1696000Y-39850500D01*
X1696000Y-39649500D01*
X1696383Y-39641708D01*
X1697528Y-39633990D01*
X1699423Y-39626422D01*
X1702052Y-39619077D01*
X1705387Y-39612024D01*
X1709398Y-39605332D01*
X1714046Y-39599066D01*
X1719285Y-39593285D01*
X1725066Y-39588046D01*
X1731332Y-39583398D01*
X1738024Y-39579387D01*
X1745077Y-39576052D01*
X1752422Y-39573423D01*
X1759990Y-39571528D01*
X1767708Y-39570383D01*
X1775500Y-39570000D01*
X1934500Y-39570000D01*
X1942292Y-39570383D01*
X1942292Y-39570383D01*
G37*
D13*
X1855000Y-39750000D03*
%TD*%
D12*
%TO.C,C2*%
G36*
X2632292Y-38770383D02*
X2640010Y-38771528D01*
X2647578Y-38773423D01*
X2654923Y-38776052D01*
X2661976Y-38779387D01*
X2668668Y-38783398D01*
X2674934Y-38788046D01*
X2680715Y-38793285D01*
X2685954Y-38799066D01*
X2690602Y-38805332D01*
X2694613Y-38812024D01*
X2697948Y-38819077D01*
X2700577Y-38826422D01*
X2702472Y-38833990D01*
X2703617Y-38841708D01*
X2704000Y-38849500D01*
X2704000Y-39050500D01*
X2703617Y-39058292D01*
X2702472Y-39066010D01*
X2700577Y-39073578D01*
X2697948Y-39080923D01*
X2694613Y-39087976D01*
X2690602Y-39094668D01*
X2685954Y-39100934D01*
X2680715Y-39106715D01*
X2674934Y-39111954D01*
X2668668Y-39116602D01*
X2661976Y-39120613D01*
X2654923Y-39123948D01*
X2647578Y-39126577D01*
X2640010Y-39128472D01*
X2632292Y-39129617D01*
X2624500Y-39130000D01*
X2465500Y-39130000D01*
X2457708Y-39129617D01*
X2449990Y-39128472D01*
X2442422Y-39126577D01*
X2435077Y-39123948D01*
X2428024Y-39120613D01*
X2421332Y-39116602D01*
X2415066Y-39111954D01*
X2409285Y-39106715D01*
X2404046Y-39100934D01*
X2399398Y-39094668D01*
X2395387Y-39087976D01*
X2392052Y-39080923D01*
X2389423Y-39073578D01*
X2387528Y-39066010D01*
X2386383Y-39058292D01*
X2386000Y-39050500D01*
X2386000Y-38849500D01*
X2386383Y-38841708D01*
X2387528Y-38833990D01*
X2389423Y-38826422D01*
X2392052Y-38819077D01*
X2395387Y-38812024D01*
X2399398Y-38805332D01*
X2404046Y-38799066D01*
X2409285Y-38793285D01*
X2415066Y-38788046D01*
X2421332Y-38783398D01*
X2428024Y-38779387D01*
X2435077Y-38776052D01*
X2442422Y-38773423D01*
X2449990Y-38771528D01*
X2457708Y-38770383D01*
X2465500Y-38770000D01*
X2624500Y-38770000D01*
X2632292Y-38770383D01*
X2632292Y-38770383D01*
G37*
D13*
X2545000Y-38950000D03*
D12*
G36*
X1942292Y-38770383D02*
X1950010Y-38771528D01*
X1957578Y-38773423D01*
X1964923Y-38776052D01*
X1971976Y-38779387D01*
X1978668Y-38783398D01*
X1984934Y-38788046D01*
X1990715Y-38793285D01*
X1995954Y-38799066D01*
X2000602Y-38805332D01*
X2004613Y-38812024D01*
X2007948Y-38819077D01*
X2010577Y-38826422D01*
X2012472Y-38833990D01*
X2013617Y-38841708D01*
X2014000Y-38849500D01*
X2014000Y-39050500D01*
X2013617Y-39058292D01*
X2012472Y-39066010D01*
X2010577Y-39073578D01*
X2007948Y-39080923D01*
X2004613Y-39087976D01*
X2000602Y-39094668D01*
X1995954Y-39100934D01*
X1990715Y-39106715D01*
X1984934Y-39111954D01*
X1978668Y-39116602D01*
X1971976Y-39120613D01*
X1964923Y-39123948D01*
X1957578Y-39126577D01*
X1950010Y-39128472D01*
X1942292Y-39129617D01*
X1934500Y-39130000D01*
X1775500Y-39130000D01*
X1767708Y-39129617D01*
X1759990Y-39128472D01*
X1752422Y-39126577D01*
X1745077Y-39123948D01*
X1738024Y-39120613D01*
X1731332Y-39116602D01*
X1725066Y-39111954D01*
X1719285Y-39106715D01*
X1714046Y-39100934D01*
X1709398Y-39094668D01*
X1705387Y-39087976D01*
X1702052Y-39080923D01*
X1699423Y-39073578D01*
X1697528Y-39066010D01*
X1696383Y-39058292D01*
X1696000Y-39050500D01*
X1696000Y-38849500D01*
X1696383Y-38841708D01*
X1697528Y-38833990D01*
X1699423Y-38826422D01*
X1702052Y-38819077D01*
X1705387Y-38812024D01*
X1709398Y-38805332D01*
X1714046Y-38799066D01*
X1719285Y-38793285D01*
X1725066Y-38788046D01*
X1731332Y-38783398D01*
X1738024Y-38779387D01*
X1745077Y-38776052D01*
X1752422Y-38773423D01*
X1759990Y-38771528D01*
X1767708Y-38770383D01*
X1775500Y-38770000D01*
X1934500Y-38770000D01*
X1942292Y-38770383D01*
X1942292Y-38770383D01*
G37*
D13*
X1855000Y-38950000D03*
%TD*%
D14*
%TO.C,Y0*%
X5400000Y-37150000D03*
X5400000Y-41550000D03*
%TD*%
D15*
%TO.C,SATA3*%
X57850000Y-59650000D03*
X56580000Y-59650000D03*
X55310000Y-59650000D03*
X54040000Y-59650000D03*
X52770000Y-59650000D03*
X51500000Y-59650000D03*
X50230000Y-59650000D03*
X48960000Y-59650000D03*
X47690000Y-59650000D03*
X46420000Y-59650000D03*
X45150000Y-59650000D03*
X43880000Y-59650000D03*
X42610000Y-59650000D03*
X41340000Y-59650000D03*
X40070000Y-59650000D03*
X33720000Y-59650000D03*
X32450000Y-59650000D03*
X31180000Y-59650000D03*
X29910000Y-59650000D03*
X28640000Y-59650000D03*
X27370000Y-59650000D03*
X26100000Y-59650000D03*
%TD*%
%TO.C,SATA1*%
X57850000Y-43650000D03*
X56580000Y-43650000D03*
X55310000Y-43650000D03*
X54040000Y-43650000D03*
X52770000Y-43650000D03*
X51500000Y-43650000D03*
X50230000Y-43650000D03*
X48960000Y-43650000D03*
X47690000Y-43650000D03*
X46420000Y-43650000D03*
X45150000Y-43650000D03*
X43880000Y-43650000D03*
X42610000Y-43650000D03*
X41340000Y-43650000D03*
X40070000Y-43650000D03*
X33720000Y-43650000D03*
X32450000Y-43650000D03*
X31180000Y-43650000D03*
X29910000Y-43650000D03*
X28640000Y-43650000D03*
X27370000Y-43650000D03*
X26100000Y-43650000D03*
%TD*%
%TO.C,SATA2*%
X57850000Y-27650000D03*
X56580000Y-27650000D03*
X55310000Y-27650000D03*
X54040000Y-27650000D03*
X52770000Y-27650000D03*
X51500000Y-27650000D03*
X50230000Y-27650000D03*
X48960000Y-27650000D03*
X47690000Y-27650000D03*
X46420000Y-27650000D03*
X45150000Y-27650000D03*
X43880000Y-27650000D03*
X42610000Y-27650000D03*
X41340000Y-27650000D03*
X40070000Y-27650000D03*
X33720000Y-27650000D03*
X32450000Y-27650000D03*
X31180000Y-27650000D03*
X29910000Y-27650000D03*
X28640000Y-27650000D03*
X27370000Y-27650000D03*
X26100000Y-27650000D03*
%TD*%
%TO.C,SATA0*%
X57850000Y-11650000D03*
X56580000Y-11650000D03*
X55310000Y-11650000D03*
X54040000Y-11650000D03*
X52770000Y-11650000D03*
X51500000Y-11650000D03*
X50230000Y-11650000D03*
X48960000Y-11650000D03*
X47690000Y-11650000D03*
X46420000Y-11650000D03*
X45150000Y-11650000D03*
X43880000Y-11650000D03*
X42610000Y-11650000D03*
X41340000Y-11650000D03*
X40070000Y-11650000D03*
X33720000Y-11650000D03*
X32450000Y-11650000D03*
X31180000Y-11650000D03*
X29910000Y-11650000D03*
X28640000Y-11650000D03*
X27370000Y-11650000D03*
X26100000Y-11650000D03*
%TD*%
M02*
