%TF.GenerationSoftware,KiCad,Pcbnew,5.0.2-bee76a0~70~ubuntu18.10.1*%
%TF.CreationDate,2019-01-07T09:50:23-07:00*%
%TF.ProjectId,thelio-io,7468656c-696f-42d6-996f-2e6b69636164,rev?*%
%TF.SameCoordinates,Original*%
%TF.FileFunction,Copper,L1,Top*%
%TF.FilePolarity,Positive*%
%FSLAX46Y46*%
G04 Gerber Fmt 4.6, Leading zero omitted, Abs format (unit mm)*
G04 Created by KiCad (PCBNEW 5.0.2-bee76a0~70~ubuntu18.10.1) date Mon Jan  7 09:50:23 2019*
%MOMM*%
%LPD*%
G01*
G04 APERTURE LIST*
%TA.AperFunction,NonConductor*%
%ADD10C,0.200000*%
%TD*%
%TA.AperFunction,NonConductor*%
%ADD11C,0.150000*%
%TD*%
%TA.AperFunction,Conductor*%
%ADD12C,0.350000*%
%TD*%
%TA.AperFunction,SMDPad,CuDef*%
%ADD13C,0.590000*%
%TD*%
%TA.AperFunction,ComponentPad*%
%ADD14O,1.730000X2.030000*%
%TD*%
%TA.AperFunction,ComponentPad*%
%ADD15R,1.730000X2.030000*%
%TD*%
%TA.AperFunction,ComponentPad*%
%ADD16O,1.700000X1.700000*%
%TD*%
%TA.AperFunction,ComponentPad*%
%ADD17R,1.700000X1.700000*%
%TD*%
%TA.AperFunction,ComponentPad*%
%ADD18O,2.000000X2.000000*%
%TD*%
%TA.AperFunction,SMDPad,CuDef*%
%ADD19R,2.500000X1.900000*%
%TD*%
%TA.AperFunction,ConnectorPad*%
%ADD20R,2.100000X2.200000*%
%TD*%
%TA.AperFunction,SMDPad,CuDef*%
%ADD21R,0.600000X3.800000*%
%TD*%
%TA.AperFunction,ViaPad*%
%ADD22C,0.800000*%
%TD*%
%TA.AperFunction,Conductor*%
%ADD23C,0.250000*%
%TD*%
%TA.AperFunction,Conductor*%
%ADD24C,0.500000*%
%TD*%
G04 APERTURE END LIST*
D10*
X77050000Y-53400000D02*
G75*
G02X75450000Y-55000000I-1600000J0D01*
G01*
X73850000Y-55000000D02*
X75450000Y-55000000D01*
X73850000Y-16800000D02*
X75450000Y-16800000D01*
X75450000Y-16800000D02*
G75*
G02X77050000Y-18400000I0J-1600000D01*
G01*
X77050000Y-18400000D02*
X77050000Y-53400000D01*
X-3200000Y-18400000D02*
G75*
G02X-1600000Y-16800000I1600000J0D01*
G01*
X-3200000Y-53400000D02*
X-3200000Y-18400000D01*
X-1600000Y-55000000D02*
G75*
G02X-3200000Y-53400000I0J1600000D01*
G01*
X0Y-55000000D02*
X-1600000Y-55000000D01*
X0Y-16800000D02*
X-1600000Y-16800000D01*
X0Y-55000000D02*
X0Y-68600000D01*
X0Y-16800000D02*
X0Y-3200000D01*
X73850000Y-55000000D02*
X73850000Y-68600000D01*
X73850000Y-16800000D02*
X73850000Y-3200000D01*
D11*
X73850000Y-68600000D02*
G75*
G02X70650000Y-71800000I-3200000J0D01*
G01*
D10*
X3200000Y-71800000D02*
G75*
G02X0Y-68600000I0J3200000D01*
G01*
X70650000Y-71800000D02*
X3200000Y-71800000D01*
X0Y-3200000D02*
G75*
G02X3200000Y0I3200000J0D01*
G01*
X70650000Y0D02*
G75*
G02X73850000Y-3200000I0J-3200000D01*
G01*
X3200000Y0D02*
X70650000Y0D01*
D12*
%TO.N,Net-(AVR0-Pad16)*%
%TO.C,C1*%
G36*
X1186958Y-39855710D02*
X1201276Y-39857834D01*
X1215317Y-39861351D01*
X1228946Y-39866228D01*
X1242031Y-39872417D01*
X1254447Y-39879858D01*
X1266073Y-39888481D01*
X1276798Y-39898202D01*
X1286519Y-39908927D01*
X1295142Y-39920553D01*
X1302583Y-39932969D01*
X1308772Y-39946054D01*
X1313649Y-39959683D01*
X1317166Y-39973724D01*
X1319290Y-39988042D01*
X1320000Y-40002500D01*
X1320000Y-40297500D01*
X1319290Y-40311958D01*
X1317166Y-40326276D01*
X1313649Y-40340317D01*
X1308772Y-40353946D01*
X1302583Y-40367031D01*
X1295142Y-40379447D01*
X1286519Y-40391073D01*
X1276798Y-40401798D01*
X1266073Y-40411519D01*
X1254447Y-40420142D01*
X1242031Y-40427583D01*
X1228946Y-40433772D01*
X1215317Y-40438649D01*
X1201276Y-40442166D01*
X1186958Y-40444290D01*
X1172500Y-40445000D01*
X827500Y-40445000D01*
X813042Y-40444290D01*
X798724Y-40442166D01*
X784683Y-40438649D01*
X771054Y-40433772D01*
X757969Y-40427583D01*
X745553Y-40420142D01*
X733927Y-40411519D01*
X723202Y-40401798D01*
X713481Y-40391073D01*
X704858Y-40379447D01*
X697417Y-40367031D01*
X691228Y-40353946D01*
X686351Y-40340317D01*
X682834Y-40326276D01*
X680710Y-40311958D01*
X680000Y-40297500D01*
X680000Y-40002500D01*
X680710Y-39988042D01*
X682834Y-39973724D01*
X686351Y-39959683D01*
X691228Y-39946054D01*
X697417Y-39932969D01*
X704858Y-39920553D01*
X713481Y-39908927D01*
X723202Y-39898202D01*
X733927Y-39888481D01*
X745553Y-39879858D01*
X757969Y-39872417D01*
X771054Y-39866228D01*
X784683Y-39861351D01*
X798724Y-39857834D01*
X813042Y-39855710D01*
X827500Y-39855000D01*
X1172500Y-39855000D01*
X1186958Y-39855710D01*
X1186958Y-39855710D01*
G37*
D13*
%TD*%
%TO.P,C1,2*%
%TO.N,Net-(AVR0-Pad16)*%
X1000000Y-40150000D03*
D12*
%TO.N,GND*%
%TO.C,C1*%
G36*
X1186958Y-40825710D02*
X1201276Y-40827834D01*
X1215317Y-40831351D01*
X1228946Y-40836228D01*
X1242031Y-40842417D01*
X1254447Y-40849858D01*
X1266073Y-40858481D01*
X1276798Y-40868202D01*
X1286519Y-40878927D01*
X1295142Y-40890553D01*
X1302583Y-40902969D01*
X1308772Y-40916054D01*
X1313649Y-40929683D01*
X1317166Y-40943724D01*
X1319290Y-40958042D01*
X1320000Y-40972500D01*
X1320000Y-41267500D01*
X1319290Y-41281958D01*
X1317166Y-41296276D01*
X1313649Y-41310317D01*
X1308772Y-41323946D01*
X1302583Y-41337031D01*
X1295142Y-41349447D01*
X1286519Y-41361073D01*
X1276798Y-41371798D01*
X1266073Y-41381519D01*
X1254447Y-41390142D01*
X1242031Y-41397583D01*
X1228946Y-41403772D01*
X1215317Y-41408649D01*
X1201276Y-41412166D01*
X1186958Y-41414290D01*
X1172500Y-41415000D01*
X827500Y-41415000D01*
X813042Y-41414290D01*
X798724Y-41412166D01*
X784683Y-41408649D01*
X771054Y-41403772D01*
X757969Y-41397583D01*
X745553Y-41390142D01*
X733927Y-41381519D01*
X723202Y-41371798D01*
X713481Y-41361073D01*
X704858Y-41349447D01*
X697417Y-41337031D01*
X691228Y-41323946D01*
X686351Y-41310317D01*
X682834Y-41296276D01*
X680710Y-41281958D01*
X680000Y-41267500D01*
X680000Y-40972500D01*
X680710Y-40958042D01*
X682834Y-40943724D01*
X686351Y-40929683D01*
X691228Y-40916054D01*
X697417Y-40902969D01*
X704858Y-40890553D01*
X713481Y-40878927D01*
X723202Y-40868202D01*
X733927Y-40858481D01*
X745553Y-40849858D01*
X757969Y-40842417D01*
X771054Y-40836228D01*
X784683Y-40831351D01*
X798724Y-40827834D01*
X813042Y-40825710D01*
X827500Y-40825000D01*
X1172500Y-40825000D01*
X1186958Y-40825710D01*
X1186958Y-40825710D01*
G37*
D13*
%TD*%
%TO.P,C1,1*%
%TO.N,GND*%
X1000000Y-41120000D03*
D12*
%TO.N,Net-(AVR0-Pad17)*%
%TO.C,C2*%
G36*
X1186958Y-38255710D02*
X1201276Y-38257834D01*
X1215317Y-38261351D01*
X1228946Y-38266228D01*
X1242031Y-38272417D01*
X1254447Y-38279858D01*
X1266073Y-38288481D01*
X1276798Y-38298202D01*
X1286519Y-38308927D01*
X1295142Y-38320553D01*
X1302583Y-38332969D01*
X1308772Y-38346054D01*
X1313649Y-38359683D01*
X1317166Y-38373724D01*
X1319290Y-38388042D01*
X1320000Y-38402500D01*
X1320000Y-38697500D01*
X1319290Y-38711958D01*
X1317166Y-38726276D01*
X1313649Y-38740317D01*
X1308772Y-38753946D01*
X1302583Y-38767031D01*
X1295142Y-38779447D01*
X1286519Y-38791073D01*
X1276798Y-38801798D01*
X1266073Y-38811519D01*
X1254447Y-38820142D01*
X1242031Y-38827583D01*
X1228946Y-38833772D01*
X1215317Y-38838649D01*
X1201276Y-38842166D01*
X1186958Y-38844290D01*
X1172500Y-38845000D01*
X827500Y-38845000D01*
X813042Y-38844290D01*
X798724Y-38842166D01*
X784683Y-38838649D01*
X771054Y-38833772D01*
X757969Y-38827583D01*
X745553Y-38820142D01*
X733927Y-38811519D01*
X723202Y-38801798D01*
X713481Y-38791073D01*
X704858Y-38779447D01*
X697417Y-38767031D01*
X691228Y-38753946D01*
X686351Y-38740317D01*
X682834Y-38726276D01*
X680710Y-38711958D01*
X680000Y-38697500D01*
X680000Y-38402500D01*
X680710Y-38388042D01*
X682834Y-38373724D01*
X686351Y-38359683D01*
X691228Y-38346054D01*
X697417Y-38332969D01*
X704858Y-38320553D01*
X713481Y-38308927D01*
X723202Y-38298202D01*
X733927Y-38288481D01*
X745553Y-38279858D01*
X757969Y-38272417D01*
X771054Y-38266228D01*
X784683Y-38261351D01*
X798724Y-38257834D01*
X813042Y-38255710D01*
X827500Y-38255000D01*
X1172500Y-38255000D01*
X1186958Y-38255710D01*
X1186958Y-38255710D01*
G37*
D13*
%TD*%
%TO.P,C2,2*%
%TO.N,Net-(AVR0-Pad17)*%
X1000000Y-38550000D03*
D12*
%TO.N,GND*%
%TO.C,C2*%
G36*
X1186958Y-37285710D02*
X1201276Y-37287834D01*
X1215317Y-37291351D01*
X1228946Y-37296228D01*
X1242031Y-37302417D01*
X1254447Y-37309858D01*
X1266073Y-37318481D01*
X1276798Y-37328202D01*
X1286519Y-37338927D01*
X1295142Y-37350553D01*
X1302583Y-37362969D01*
X1308772Y-37376054D01*
X1313649Y-37389683D01*
X1317166Y-37403724D01*
X1319290Y-37418042D01*
X1320000Y-37432500D01*
X1320000Y-37727500D01*
X1319290Y-37741958D01*
X1317166Y-37756276D01*
X1313649Y-37770317D01*
X1308772Y-37783946D01*
X1302583Y-37797031D01*
X1295142Y-37809447D01*
X1286519Y-37821073D01*
X1276798Y-37831798D01*
X1266073Y-37841519D01*
X1254447Y-37850142D01*
X1242031Y-37857583D01*
X1228946Y-37863772D01*
X1215317Y-37868649D01*
X1201276Y-37872166D01*
X1186958Y-37874290D01*
X1172500Y-37875000D01*
X827500Y-37875000D01*
X813042Y-37874290D01*
X798724Y-37872166D01*
X784683Y-37868649D01*
X771054Y-37863772D01*
X757969Y-37857583D01*
X745553Y-37850142D01*
X733927Y-37841519D01*
X723202Y-37831798D01*
X713481Y-37821073D01*
X704858Y-37809447D01*
X697417Y-37797031D01*
X691228Y-37783946D01*
X686351Y-37770317D01*
X682834Y-37756276D01*
X680710Y-37741958D01*
X680000Y-37727500D01*
X680000Y-37432500D01*
X680710Y-37418042D01*
X682834Y-37403724D01*
X686351Y-37389683D01*
X691228Y-37376054D01*
X697417Y-37362969D01*
X704858Y-37350553D01*
X713481Y-37338927D01*
X723202Y-37328202D01*
X733927Y-37318481D01*
X745553Y-37309858D01*
X757969Y-37302417D01*
X771054Y-37296228D01*
X784683Y-37291351D01*
X798724Y-37287834D01*
X813042Y-37285710D01*
X827500Y-37285000D01*
X1172500Y-37285000D01*
X1186958Y-37285710D01*
X1186958Y-37285710D01*
G37*
D13*
%TD*%
%TO.P,C2,1*%
%TO.N,GND*%
X1000000Y-37580000D03*
D14*
%TO.P,POWER0,4*%
%TO.N,+5V*%
X60960000Y-67990000D03*
%TO.P,POWER0,3*%
%TO.N,GND*%
X63460000Y-67990000D03*
%TO.P,POWER0,2*%
X65960000Y-67990000D03*
D15*
%TO.P,POWER0,1*%
%TO.N,+12V*%
X68460000Y-67990000D03*
%TD*%
D16*
%TO.P,USB0,4*%
%TO.N,GND*%
X8890000Y-65450000D03*
%TO.P,USB0,3*%
%TO.N,Net-(R0-Pad1)*%
X11430000Y-65450000D03*
%TO.P,USB0,2*%
%TO.N,Net-(R1-Pad1)*%
X13970000Y-65450000D03*
D17*
%TO.P,USB0,1*%
%TO.N,VCC*%
X16510000Y-65450000D03*
%TD*%
D18*
%TO.P,DATA1,*%
%TO.N,GND*%
X23640000Y-23760000D03*
X36470000Y-22760000D03*
%TD*%
%TO.P,DATA0,*%
%TO.N,GND*%
X23640000Y-7760000D03*
X36470000Y-6760000D03*
%TD*%
%TO.P,DATA3,*%
%TO.N,GND*%
X36470000Y-54760000D03*
X23640000Y-55760000D03*
%TD*%
%TO.P,DATA2,*%
%TO.N,GND*%
X23640000Y-40110000D03*
X36470000Y-39110000D03*
%TD*%
D19*
%TO.P,Y0,2*%
%TO.N,Net-(AVR0-Pad17)*%
X5400000Y-37150000D03*
%TO.P,Y0,1*%
%TO.N,Net-(AVR0-Pad16)*%
X5400000Y-41550000D03*
%TD*%
D14*
%TO.P,CPUOUT0,4*%
%TO.N,Net-(CPUMUX0-Pad5)*%
X38100000Y-67990000D03*
%TO.P,CPUOUT0,3*%
%TO.N,ADC4*%
X40640000Y-67990000D03*
%TO.P,CPUOUT0,2*%
%TO.N,+12V*%
X43180000Y-67990000D03*
D15*
%TO.P,CPUOUT0,1*%
%TO.N,GND*%
X45720000Y-67990000D03*
%TD*%
D16*
%TO.P,PMB0,4*%
%TO.N,ADC0*%
X11430000Y-69260000D03*
%TO.P,PMB0,3*%
%TO.N,Net-(PMB0-Pad3)*%
X8890000Y-69260000D03*
%TO.P,PMB0,2*%
%TO.N,PB4*%
X6350000Y-69260000D03*
D17*
%TO.P,PMB0,1*%
%TO.N,GND*%
X3810000Y-69260000D03*
%TD*%
D14*
%TO.P,CPUIN0,4*%
%TO.N,Net-(CPUIN0-Pad4)*%
X26670000Y-67990000D03*
%TO.P,CPUIN0,3*%
%TO.N,ADC4*%
X29210000Y-67990000D03*
%TO.P,CPUIN0,2*%
%TO.N,Net-(CPUIN0-Pad2)*%
X31750000Y-67990000D03*
D15*
%TO.P,CPUIN0,1*%
%TO.N,GND*%
X34290000Y-67990000D03*
%TD*%
D14*
%TO.P,INTAKE0,4*%
%TO.N,OC1B*%
X49530000Y-67990000D03*
%TO.P,INTAKE0,3*%
%TO.N,ADC5*%
X52070000Y-67990000D03*
%TO.P,INTAKE0,2*%
%TO.N,+12V*%
X54610000Y-67990000D03*
D15*
%TO.P,INTAKE0,1*%
%TO.N,GND*%
X57150000Y-67990000D03*
%TD*%
D16*
%TO.P,PFP0,4*%
%TO.N,Net-(PFP0-Pad4)*%
X22860000Y-69260000D03*
%TO.P,PFP0,3*%
%TO.N,GND*%
X20320000Y-69260000D03*
%TO.P,PFP0,2*%
%TO.N,ADC1*%
X17780000Y-69260000D03*
D17*
%TO.P,PFP0,1*%
%TO.N,GND*%
X15240000Y-69260000D03*
%TD*%
D20*
%TO.P,SATA3,*%
%TO.N,*%
X20625000Y-60250000D03*
X63325000Y-60250000D03*
D21*
%TO.P,SATA3,22*%
%TO.N,+12V*%
X57850000Y-59650000D03*
%TO.P,SATA3,21*%
X56580000Y-59650000D03*
%TO.P,SATA3,20*%
X55310000Y-59650000D03*
%TO.P,SATA3,19*%
%TO.N,GND*%
X54040000Y-59650000D03*
%TO.P,SATA3,18*%
X52770000Y-59650000D03*
%TO.P,SATA3,17*%
X51500000Y-59650000D03*
%TO.P,SATA3,16*%
%TO.N,+5V*%
X50230000Y-59650000D03*
%TO.P,SATA3,15*%
X48960000Y-59650000D03*
%TO.P,SATA3,14*%
X47690000Y-59650000D03*
%TO.P,SATA3,13*%
%TO.N,GND*%
X46420000Y-59650000D03*
%TO.P,SATA3,12*%
X45150000Y-59650000D03*
%TO.P,SATA3,11*%
X43880000Y-59650000D03*
%TO.P,SATA3,10*%
%TO.N,Net-(SATA3-Pad10)*%
X42610000Y-59650000D03*
%TO.P,SATA3,9*%
%TO.N,Net-(SATA3-Pad9)*%
X41340000Y-59650000D03*
%TO.P,SATA3,8*%
%TO.N,Net-(SATA3-Pad8)*%
X40070000Y-59650000D03*
%TO.P,SATA3,7*%
%TO.N,GND*%
X33720000Y-59650000D03*
%TO.P,SATA3,6*%
%TO.N,Net-(DATA3-Pad2)*%
X32450000Y-59650000D03*
%TO.P,SATA3,5*%
%TO.N,Net-(DATA3-Pad3)*%
X31180000Y-59650000D03*
%TO.P,SATA3,4*%
%TO.N,GND*%
X29910000Y-59650000D03*
%TO.P,SATA3,3*%
%TO.N,Net-(DATA3-Pad5)*%
X28640000Y-59650000D03*
%TO.P,SATA3,2*%
%TO.N,Net-(DATA3-Pad6)*%
X27370000Y-59650000D03*
%TO.P,SATA3,1*%
%TO.N,GND*%
X26100000Y-59650000D03*
%TD*%
D20*
%TO.P,SATA2,*%
%TO.N,*%
X20625000Y-44250000D03*
X63325000Y-44250000D03*
D21*
%TO.P,SATA2,22*%
%TO.N,+12V*%
X57850000Y-43650000D03*
%TO.P,SATA2,21*%
X56580000Y-43650000D03*
%TO.P,SATA2,20*%
X55310000Y-43650000D03*
%TO.P,SATA2,19*%
%TO.N,GND*%
X54040000Y-43650000D03*
%TO.P,SATA2,18*%
X52770000Y-43650000D03*
%TO.P,SATA2,17*%
X51500000Y-43650000D03*
%TO.P,SATA2,16*%
%TO.N,+5V*%
X50230000Y-43650000D03*
%TO.P,SATA2,15*%
X48960000Y-43650000D03*
%TO.P,SATA2,14*%
X47690000Y-43650000D03*
%TO.P,SATA2,13*%
%TO.N,GND*%
X46420000Y-43650000D03*
%TO.P,SATA2,12*%
X45150000Y-43650000D03*
%TO.P,SATA2,11*%
X43880000Y-43650000D03*
%TO.P,SATA2,10*%
%TO.N,Net-(SATA2-Pad10)*%
X42610000Y-43650000D03*
%TO.P,SATA2,9*%
%TO.N,Net-(SATA2-Pad9)*%
X41340000Y-43650000D03*
%TO.P,SATA2,8*%
%TO.N,Net-(SATA2-Pad8)*%
X40070000Y-43650000D03*
%TO.P,SATA2,7*%
%TO.N,GND*%
X33720000Y-43650000D03*
%TO.P,SATA2,6*%
%TO.N,Net-(DATA2-Pad2)*%
X32450000Y-43650000D03*
%TO.P,SATA2,5*%
%TO.N,Net-(DATA2-Pad3)*%
X31180000Y-43650000D03*
%TO.P,SATA2,4*%
%TO.N,GND*%
X29910000Y-43650000D03*
%TO.P,SATA2,3*%
%TO.N,Net-(DATA2-Pad5)*%
X28640000Y-43650000D03*
%TO.P,SATA2,2*%
%TO.N,Net-(DATA2-Pad6)*%
X27370000Y-43650000D03*
%TO.P,SATA2,1*%
%TO.N,GND*%
X26100000Y-43650000D03*
%TD*%
D20*
%TO.P,SATA1,*%
%TO.N,*%
X20625000Y-28250000D03*
X63325000Y-28250000D03*
D21*
%TO.P,SATA1,22*%
%TO.N,+12V*%
X57850000Y-27650000D03*
%TO.P,SATA1,21*%
X56580000Y-27650000D03*
%TO.P,SATA1,20*%
X55310000Y-27650000D03*
%TO.P,SATA1,19*%
%TO.N,GND*%
X54040000Y-27650000D03*
%TO.P,SATA1,18*%
X52770000Y-27650000D03*
%TO.P,SATA1,17*%
X51500000Y-27650000D03*
%TO.P,SATA1,16*%
%TO.N,+5V*%
X50230000Y-27650000D03*
%TO.P,SATA1,15*%
X48960000Y-27650000D03*
%TO.P,SATA1,14*%
X47690000Y-27650000D03*
%TO.P,SATA1,13*%
%TO.N,GND*%
X46420000Y-27650000D03*
%TO.P,SATA1,12*%
X45150000Y-27650000D03*
%TO.P,SATA1,11*%
X43880000Y-27650000D03*
%TO.P,SATA1,10*%
%TO.N,Net-(SATA1-Pad10)*%
X42610000Y-27650000D03*
%TO.P,SATA1,9*%
%TO.N,Net-(SATA1-Pad9)*%
X41340000Y-27650000D03*
%TO.P,SATA1,8*%
%TO.N,Net-(SATA1-Pad8)*%
X40070000Y-27650000D03*
%TO.P,SATA1,7*%
%TO.N,GND*%
X33720000Y-27650000D03*
%TO.P,SATA1,6*%
%TO.N,Net-(DATA1-Pad2)*%
X32450000Y-27650000D03*
%TO.P,SATA1,5*%
%TO.N,Net-(DATA1-Pad3)*%
X31180000Y-27650000D03*
%TO.P,SATA1,4*%
%TO.N,GND*%
X29910000Y-27650000D03*
%TO.P,SATA1,3*%
%TO.N,Net-(DATA1-Pad5)*%
X28640000Y-27650000D03*
%TO.P,SATA1,2*%
%TO.N,Net-(DATA1-Pad6)*%
X27370000Y-27650000D03*
%TO.P,SATA1,1*%
%TO.N,GND*%
X26100000Y-27650000D03*
%TD*%
D20*
%TO.P,SATA0,*%
%TO.N,*%
X20625000Y-12250000D03*
X63325000Y-12250000D03*
D21*
%TO.P,SATA0,22*%
%TO.N,+12V*%
X57850000Y-11650000D03*
%TO.P,SATA0,21*%
X56580000Y-11650000D03*
%TO.P,SATA0,20*%
X55310000Y-11650000D03*
%TO.P,SATA0,19*%
%TO.N,GND*%
X54040000Y-11650000D03*
%TO.P,SATA0,18*%
X52770000Y-11650000D03*
%TO.P,SATA0,17*%
X51500000Y-11650000D03*
%TO.P,SATA0,16*%
%TO.N,+5V*%
X50230000Y-11650000D03*
%TO.P,SATA0,15*%
X48960000Y-11650000D03*
%TO.P,SATA0,14*%
X47690000Y-11650000D03*
%TO.P,SATA0,13*%
%TO.N,GND*%
X46420000Y-11650000D03*
%TO.P,SATA0,12*%
X45150000Y-11650000D03*
%TO.P,SATA0,11*%
X43880000Y-11650000D03*
%TO.P,SATA0,10*%
%TO.N,Net-(SATA0-Pad10)*%
X42610000Y-11650000D03*
%TO.P,SATA0,9*%
%TO.N,Net-(SATA0-Pad9)*%
X41340000Y-11650000D03*
%TO.P,SATA0,8*%
%TO.N,Net-(SATA0-Pad8)*%
X40070000Y-11650000D03*
%TO.P,SATA0,7*%
%TO.N,GND*%
X33720000Y-11650000D03*
%TO.P,SATA0,6*%
%TO.N,Net-(DATA0-Pad2)*%
X32450000Y-11650000D03*
%TO.P,SATA0,5*%
%TO.N,Net-(DATA0-Pad3)*%
X31180000Y-11650000D03*
%TO.P,SATA0,4*%
%TO.N,GND*%
X29910000Y-11650000D03*
%TO.P,SATA0,3*%
%TO.N,Net-(DATA0-Pad5)*%
X28640000Y-11650000D03*
%TO.P,SATA0,2*%
%TO.N,Net-(DATA0-Pad6)*%
X27370000Y-11650000D03*
%TO.P,SATA0,1*%
%TO.N,GND*%
X26100000Y-11650000D03*
%TD*%
D22*
%TO.N,Net-(AVR0-Pad17)*%
X2200000Y-38550000D03*
%TO.N,Net-(AVR0-Pad16)*%
X2200000Y-40150000D03*
%TO.N,Net-(CPUIN0-Pad4)*%
X17775000Y-56180000D03*
%TO.N,Net-(DATA2-Pad6)*%
X27370000Y-41110000D03*
%TO.N,Net-(DATA2-Pad5)*%
X28640000Y-41110000D03*
%TO.N,Net-(DATA2-Pad3)*%
X31180000Y-41110000D03*
%TO.N,Net-(DATA2-Pad2)*%
X32450000Y-41110000D03*
%TO.N,Net-(DATA3-Pad6)*%
X27370000Y-57110000D03*
%TO.N,Net-(DATA3-Pad5)*%
X28640000Y-57110000D03*
%TO.N,Net-(DATA3-Pad3)*%
X31180000Y-57110000D03*
%TO.N,Net-(DATA3-Pad2)*%
X32450000Y-57110000D03*
%TO.N,Net-(DATA0-Pad6)*%
X27370000Y-9110000D03*
%TO.N,Net-(DATA0-Pad5)*%
X28640000Y-9110000D03*
%TO.N,Net-(DATA0-Pad3)*%
X31180000Y-9110000D03*
%TO.N,Net-(DATA0-Pad2)*%
X32450000Y-9110000D03*
%TO.N,Net-(DATA1-Pad6)*%
X27370000Y-25110000D03*
%TO.N,Net-(DATA1-Pad5)*%
X28640000Y-25110000D03*
%TO.N,Net-(DATA1-Pad3)*%
X31180000Y-25110000D03*
%TO.N,Net-(DATA1-Pad2)*%
X32450000Y-25110000D03*
%TO.N,OC1B*%
X25400000Y-48940000D03*
X13900000Y-30050000D03*
%TO.N,OC1A*%
X15975000Y-56079994D03*
X13100000Y-29250000D03*
%TO.N,Net-(CPUMUX0-Pad5)*%
X22860000Y-51480000D03*
X14475000Y-51480000D03*
%TO.N,VCC*%
X18000000Y-43350000D03*
X7507115Y-31657115D03*
X17775000Y-50680000D03*
X13900000Y-46250000D03*
X9900000Y-47050000D03*
X18000000Y-34550000D03*
X20245000Y-21000000D03*
X2600000Y-41350000D03*
%TO.N,GND*%
X26100000Y-41110000D03*
X29910000Y-41110000D03*
X33720000Y-41110000D03*
X26100000Y-57110000D03*
X29910000Y-57110000D03*
X33720000Y-57110000D03*
X26100000Y-9110000D03*
X29910000Y-9110000D03*
X33720000Y-9110000D03*
X26100000Y-25110000D03*
X29910000Y-25110000D03*
X33720000Y-25110000D03*
X18000000Y-42150000D03*
X18000000Y-35750000D03*
X6300000Y-31650000D03*
X16975000Y-49980000D03*
X3400000Y-40550000D03*
X14475000Y-56080000D03*
X11500000Y-46250000D03*
X5200000Y-25450000D03*
X20245000Y-15920000D03*
X43880000Y-9110000D03*
X45150000Y-9110000D03*
X46420000Y-9110000D03*
X54040000Y-62190000D03*
X52770000Y-62190000D03*
X51500000Y-62190000D03*
X1000000Y-36550000D03*
X1000000Y-42150000D03*
%TO.N,MISO*%
X6700000Y-47050000D03*
X10115012Y-21000000D03*
%TO.N,MOSI*%
X7499984Y-46250000D03*
X20245000Y-18460000D03*
%TO.N,SCLK*%
X8300000Y-47050000D03*
X11500000Y-25450000D03*
%TO.N,OC4A*%
X21590000Y-50210000D03*
X13899976Y-31650000D03*
%TO.N,PB4*%
X12300000Y-28450000D03*
%TO.N,RST*%
X3400000Y-43750022D03*
X10115000Y-15920000D03*
%TO.N,+12V*%
X57850000Y-62190000D03*
X56580000Y-62190000D03*
X55310000Y-62190000D03*
%TO.N,+5V*%
X48960000Y-62190000D03*
X50230000Y-62190000D03*
X47690000Y-62190000D03*
%TD*%
D23*
%TO.N,Net-(AVR0-Pad17)*%
X5400000Y-37150000D02*
X4799998Y-37150000D01*
X4800000Y-38950000D02*
X5400000Y-38350000D01*
X5400000Y-38350000D02*
X5400000Y-37150000D01*
X2600000Y-38950000D02*
X4800000Y-38950000D01*
X2200000Y-38550000D02*
X2600000Y-38950000D01*
X2200000Y-38550000D02*
X1000000Y-38550000D01*
%TO.N,Net-(AVR0-Pad16)*%
X5400000Y-41550000D02*
X4800000Y-41550000D01*
X2200000Y-40150000D02*
X2600000Y-39750000D01*
X5400000Y-40350000D02*
X5400000Y-41550000D01*
X4800000Y-39750000D02*
X5400000Y-40350000D01*
X2600000Y-39750000D02*
X4800000Y-39750000D01*
X2200000Y-40150000D02*
X1000000Y-40150000D01*
%TO.N,Net-(CPUIN0-Pad4)*%
X21590000Y-62910000D02*
X26670000Y-67990000D01*
X19050000Y-62910000D02*
X21590000Y-62910000D01*
X17775000Y-56180000D02*
X17775000Y-61635000D01*
X17775000Y-61635000D02*
X19050000Y-62910000D01*
D24*
%TO.N,Net-(DATA2-Pad6)*%
X27370000Y-43650000D02*
X27370000Y-41110000D01*
%TO.N,Net-(DATA2-Pad5)*%
X28640000Y-43650000D02*
X28640000Y-41110000D01*
%TO.N,Net-(DATA2-Pad3)*%
X31180000Y-43650000D02*
X31180000Y-41110000D01*
%TO.N,Net-(DATA2-Pad2)*%
X32450000Y-43650000D02*
X32450000Y-41110000D01*
%TO.N,Net-(DATA3-Pad6)*%
X27370000Y-59650000D02*
X27370000Y-57110000D01*
%TO.N,Net-(DATA3-Pad5)*%
X28640000Y-59650000D02*
X28640000Y-57110000D01*
%TO.N,Net-(DATA3-Pad3)*%
X31180000Y-59650000D02*
X31180000Y-57110000D01*
%TO.N,Net-(DATA3-Pad2)*%
X32450000Y-59650000D02*
X32450000Y-57110000D01*
%TO.N,Net-(DATA0-Pad6)*%
X27370000Y-11650000D02*
X27370000Y-9110000D01*
%TO.N,Net-(DATA0-Pad5)*%
X28640000Y-11650000D02*
X28640000Y-9110000D01*
%TO.N,Net-(DATA0-Pad3)*%
X31180000Y-11650000D02*
X31180000Y-9110000D01*
%TO.N,Net-(DATA0-Pad2)*%
X32450000Y-11650000D02*
X32450000Y-9110000D01*
%TO.N,Net-(DATA1-Pad6)*%
X27370000Y-27650000D02*
X27370000Y-25110000D01*
%TO.N,Net-(DATA1-Pad5)*%
X28640000Y-27650000D02*
X28640000Y-25110000D01*
%TO.N,Net-(DATA1-Pad3)*%
X31180000Y-27650000D02*
X31180000Y-25110000D01*
%TO.N,Net-(DATA1-Pad2)*%
X32450000Y-27650000D02*
X32450000Y-25110000D01*
D23*
%TO.N,OC1B*%
X21590000Y-48940000D02*
X25400000Y-48940000D01*
X14700000Y-42050000D02*
X21590000Y-48940000D01*
X13900000Y-30050000D02*
X14700000Y-30850000D01*
X14700000Y-30850000D02*
X14700000Y-42050000D01*
%TO.N,OC1A*%
X13100000Y-53205000D02*
X13100000Y-29250000D01*
X15975000Y-56080000D02*
X13100000Y-53205000D01*
%TO.N,Net-(CPUMUX0-Pad5)*%
X22860000Y-51480000D02*
X14475000Y-51480000D01*
D24*
%TO.N,GND*%
X26100000Y-43650000D02*
X26100000Y-41110000D01*
X26100000Y-59650000D02*
X26100000Y-57110000D01*
X29910000Y-59650000D02*
X29910000Y-57110000D01*
X33720000Y-59650000D02*
X33720000Y-57110000D01*
X26100000Y-11650000D02*
X26100000Y-9110000D01*
X29910000Y-11650000D02*
X29910000Y-9110000D01*
X33720000Y-11650000D02*
X33720000Y-9110000D01*
X26100000Y-27650000D02*
X26100000Y-25110000D01*
X29910000Y-27650000D02*
X29910000Y-25110000D01*
X33720000Y-27650000D02*
X33720000Y-25110000D01*
X54040000Y-11650000D02*
X54040000Y-10050000D01*
X54040000Y-26930000D02*
X54040000Y-27650000D01*
X43880000Y-27650000D02*
X43880000Y-26050000D01*
X46420000Y-43650000D02*
X46420000Y-42050000D01*
X54040000Y-27650000D02*
X54040000Y-29250000D01*
X45150000Y-27650000D02*
X45150000Y-29250000D01*
X43880000Y-42930000D02*
X43880000Y-43650000D01*
X45150000Y-43650000D02*
X45150000Y-42050000D01*
X46420000Y-27650000D02*
X46420000Y-29250000D01*
X51500000Y-27650000D02*
X51500000Y-29250000D01*
X52770000Y-27650000D02*
X52770000Y-29250000D01*
X43880000Y-59650000D02*
X43880000Y-43650000D01*
X43880000Y-43650000D02*
X43880000Y-27650000D01*
X43880000Y-27650000D02*
X43880000Y-11650000D01*
X45150000Y-11650000D02*
X45150000Y-27650000D01*
X45150000Y-27650000D02*
X45150000Y-43650000D01*
X45150000Y-43650000D02*
X45150000Y-59650000D01*
X46420000Y-59650000D02*
X46420000Y-43650000D01*
X46420000Y-43650000D02*
X46420000Y-27650000D01*
X46420000Y-12370000D02*
X46420000Y-11650000D01*
X46420000Y-27650000D02*
X46420000Y-12370000D01*
X51500000Y-11650000D02*
X51500000Y-27650000D01*
X52770000Y-27650000D02*
X52770000Y-11650000D01*
X54040000Y-11650000D02*
X54040000Y-27650000D01*
X51500000Y-27650000D02*
X51500000Y-43650000D01*
X52770000Y-27650000D02*
X52770000Y-43650000D01*
X54040000Y-43650000D02*
X54040000Y-27650000D01*
X51500000Y-43650000D02*
X51500000Y-59650000D01*
X52770000Y-43650000D02*
X52770000Y-59650000D01*
X54040000Y-43650000D02*
X54040000Y-59650000D01*
X43880000Y-11650000D02*
X43880000Y-9110000D01*
X45150000Y-11650000D02*
X45150000Y-9110000D01*
X46420000Y-11650000D02*
X46420000Y-9110000D01*
X54040000Y-59650000D02*
X54040000Y-62190000D01*
X52770000Y-59650000D02*
X52770000Y-62190000D01*
X51500000Y-59650000D02*
X51500000Y-62190000D01*
X33720000Y-43650000D02*
X33720000Y-41110000D01*
X29910000Y-43650000D02*
X29910000Y-41110000D01*
D23*
X1000000Y-37580000D02*
X1000000Y-36550000D01*
X1000000Y-41120000D02*
X1000000Y-42150000D01*
%TO.N,MISO*%
X9900000Y-21215012D02*
X10115012Y-21000000D01*
X9900000Y-42250000D02*
X9900000Y-21215012D01*
X6700000Y-47050000D02*
X6700000Y-45450000D01*
X6700000Y-45450000D02*
X9900000Y-42250000D01*
%TO.N,MOSI*%
X10700000Y-24650000D02*
X16890000Y-18460000D01*
X16890000Y-18460000D02*
X20245000Y-18460000D01*
X7499984Y-46250000D02*
X10700000Y-43049984D01*
X10700000Y-43049984D02*
X10700000Y-24650000D01*
%TO.N,SCLK*%
X11500000Y-43850000D02*
X11500000Y-25450000D01*
X8300000Y-47050000D02*
X11500000Y-43850000D01*
%TO.N,ADC4*%
X29210000Y-67990000D02*
X31750000Y-65450000D01*
X31750000Y-65450000D02*
X38100000Y-65450000D01*
X40640000Y-67990000D02*
X38100000Y-65450000D01*
%TO.N,OC4A*%
X21590000Y-50210000D02*
X13899976Y-42519976D01*
X13899976Y-42519976D02*
X13899976Y-31650000D01*
%TO.N,PB4*%
X12300000Y-54250000D02*
X12300000Y-28450000D01*
X6350000Y-60200000D02*
X12300000Y-54250000D01*
X6350000Y-69260000D02*
X6350000Y-60200000D01*
%TO.N,RST*%
X9080001Y-16954999D02*
X9080001Y-41469999D01*
X10115000Y-15920000D02*
X9080001Y-16954999D01*
X6799978Y-43750022D02*
X3400000Y-43750022D01*
X9080001Y-41469999D02*
X6799978Y-43750022D01*
D24*
%TO.N,+12V*%
X57850000Y-12989998D02*
X57850000Y-11650000D01*
X55310000Y-28370000D02*
X55310000Y-27650000D01*
X57850000Y-27650000D02*
X57850000Y-29250000D01*
X56580000Y-27650000D02*
X56580000Y-29250000D01*
X55310000Y-59650000D02*
X55310000Y-61250000D01*
X57850000Y-59650000D02*
X57850000Y-43650000D01*
X56580000Y-59650000D02*
X56580000Y-43650000D01*
X55310000Y-59650000D02*
X55310000Y-43650000D01*
X55310000Y-27650000D02*
X55310000Y-11650000D01*
X56580000Y-11650000D02*
X56580000Y-27650000D01*
X57850000Y-27650000D02*
X57850000Y-11650000D01*
X55310000Y-27650000D02*
X55310000Y-43650000D01*
X56580000Y-27650000D02*
X56580000Y-43650000D01*
X57850000Y-27650000D02*
X57850000Y-43650000D01*
X56580000Y-59650000D02*
X56580000Y-62190000D01*
X57850000Y-59650000D02*
X57850000Y-62190000D01*
X55310000Y-59650000D02*
X55310000Y-62190000D01*
%TO.N,+5V*%
X50230000Y-43650000D02*
X50230000Y-42050000D01*
X48960000Y-27650000D02*
X48960000Y-29250000D01*
X50230000Y-27650000D02*
X50230000Y-29250000D01*
X47690000Y-59650000D02*
X47690000Y-62190000D01*
X47690000Y-11650000D02*
X47690000Y-27650000D01*
X48960000Y-11650000D02*
X48960000Y-27650000D01*
X47690000Y-27650000D02*
X47690000Y-43650000D01*
X48960000Y-43650000D02*
X48960000Y-27650000D01*
X50230000Y-27650000D02*
X50230000Y-43650000D01*
X50230000Y-12370000D02*
X50230000Y-11650000D01*
X50230000Y-27650000D02*
X50230000Y-12370000D01*
X47690000Y-58930000D02*
X47690000Y-59650000D01*
X47690000Y-43650000D02*
X47690000Y-58930000D01*
X48960000Y-43650000D02*
X48960000Y-59650000D01*
X50230000Y-43650000D02*
X50230000Y-59650000D01*
D23*
X48960000Y-59650000D02*
X48960000Y-62190000D01*
D24*
X50230000Y-62190000D02*
X50230000Y-59650000D01*
%TD*%
M02*
