M48
;DRILL file {KiCad 6.0.0-rc1-unknown-4a57541~66~ubuntu18.04.1} date Thu Sep 13 10:12:08 2018
;FORMAT={-:-/ absolute / metric / decimal}
FMAT,2
METRIC,TZ
T1C0.320
T2C0.400
T3C0.600
T4C4.000
%
G90
G05
M71
T1
X36.02Y-57.45
X36.02Y-59.7
X36.02Y-61.95
X36.72Y-56.7
X36.72Y-58.95
X36.72Y-61.2
X37.42Y-58.2
X37.42Y-60.45
X37.42Y-62.7
X39.82Y-57.45
X39.82Y-59.7
X39.82Y-61.95
X40.52Y-56.7
X40.52Y-58.95
X40.52Y-61.2
X41.22Y-58.2
X41.22Y-60.45
X41.22Y-62.7
X43.62Y-57.45
X43.62Y-59.7
X43.62Y-61.95
X44.32Y-56.7
X44.32Y-58.95
X44.32Y-61.2
X45.02Y-58.2
X45.02Y-60.45
X45.02Y-62.7
X47.42Y-57.45
X47.42Y-59.7
X47.42Y-61.95
X48.12Y-56.7
X48.12Y-58.95
X48.12Y-61.2
X48.82Y-58.2
X48.82Y-60.45
X48.82Y-62.7
X36.02Y-41.45
X36.02Y-43.7
X36.02Y-45.95
X36.72Y-40.7
X36.72Y-42.95
X36.72Y-45.2
X37.42Y-42.2
X37.42Y-44.45
X37.42Y-46.7
X39.82Y-41.45
X39.82Y-43.7
X39.82Y-45.95
X40.52Y-40.7
X40.52Y-42.95
X40.52Y-45.2
X41.22Y-42.2
X41.22Y-44.45
X41.22Y-46.7
X43.62Y-41.45
X43.62Y-43.7
X43.62Y-45.95
X44.32Y-40.7
X44.32Y-42.95
X44.32Y-45.2
X45.02Y-42.2
X45.02Y-44.45
X45.02Y-46.7
X47.42Y-41.45
X47.42Y-43.7
X47.42Y-45.95
X48.12Y-40.7
X48.12Y-42.95
X48.12Y-45.2
X48.82Y-42.2
X48.82Y-44.45
X48.82Y-46.7
T2
X57.349Y-40.271
X57.349Y-56.271
X58.091Y-39.529
X58.091Y-55.529
X64.549Y-39.529
X64.549Y-55.529
X65.291Y-40.271
X65.291Y-56.271
X72.549Y-40.271
X72.549Y-56.271
X73.291Y-39.529
X73.291Y-55.529
X75.905Y-49.57
X75.905Y-65.445
X77.175Y-49.57
X77.175Y-65.445
X77.349Y-38.729
X77.349Y-54.729
X78.091Y-39.471
X78.091Y-55.471
X78.42Y-65.445
X78.445Y-49.57
X81.494Y-39.904
X81.494Y-55.904
X82.236Y-40.646
X82.236Y-56.646
X82.255Y-49.57
X82.255Y-65.445
X83.525Y-49.57
X83.525Y-65.445
X84.795Y-49.47
X84.795Y-65.47
X86.04Y-65.445
X86.065Y-49.57
X86.949Y-39.529
X86.949Y-55.529
X87.31Y-65.445
X87.335Y-49.57
X87.691Y-40.271
X87.691Y-56.271
X88.447Y-39.617
X88.447Y-55.617
X88.58Y-65.445
X88.605Y-49.57
X89.305Y-40.131
X89.305Y-56.131
X89.875Y-49.57
X89.875Y-65.445
T3
X95.85Y-52.
X96.729Y-49.879
X96.729Y-54.121
X98.85Y-49.
X98.85Y-55.
X100.971Y-49.879
X100.971Y-54.121
X101.85Y-52.
T4
X98.85Y-52.
T0
M30
