M48
;DRILL file {KiCad 5.0.1-33cea8e~68~ubuntu18.10.1} date Thu Nov  1 12:10:29 2018
;FORMAT={-:-/ absolute / metric / decimal}
FMAT,2
METRIC,TZ
T1C0.100
T2C0.320
T3C0.400
T4C1.020
%
G90
G05
M71
T1
X57.926Y-40.494
X57.926Y-56.494
X57.926Y-72.494
X57.926Y-88.494
X58.314Y-40.106
X58.314Y-56.106
X58.314Y-72.106
X58.314Y-88.106
X80.326Y-40.494
X80.326Y-56.494
X80.326Y-72.494
X80.326Y-88.494
X80.714Y-40.106
X80.714Y-56.106
X80.714Y-72.106
X80.714Y-88.106
X85.126Y-40.494
X85.126Y-56.494
X85.126Y-72.494
X85.126Y-88.494
X85.514Y-40.106
X85.514Y-56.106
X85.514Y-72.106
X85.514Y-88.106
T2
X36.02Y-57.45
X36.02Y-59.7
X36.02Y-61.95
X36.72Y-56.7
X36.72Y-58.95
X36.72Y-61.2
X37.42Y-58.2
X37.42Y-60.45
X37.42Y-62.7
X39.82Y-57.45
X39.82Y-59.7
X39.82Y-61.95
X40.52Y-56.7
X40.52Y-58.95
X40.52Y-61.2
X41.22Y-58.2
X41.22Y-60.45
X41.22Y-62.7
X43.62Y-57.45
X43.62Y-59.7
X43.62Y-61.95
X44.32Y-56.7
X44.32Y-58.95
X44.32Y-61.2
X45.02Y-58.2
X45.02Y-60.45
X45.02Y-62.7
X47.42Y-57.45
X47.42Y-59.7
X47.42Y-61.95
X48.12Y-56.7
X48.12Y-58.95
X48.12Y-61.2
X48.82Y-58.2
X48.82Y-60.45
X48.82Y-62.7
X36.02Y-41.45
X36.02Y-43.7
X36.02Y-45.95
X36.72Y-40.7
X36.72Y-42.95
X36.72Y-45.2
X37.42Y-42.2
X37.42Y-44.45
X37.42Y-46.7
X39.82Y-41.45
X39.82Y-43.7
X39.82Y-45.95
X40.52Y-40.7
X40.52Y-42.95
X40.52Y-45.2
X41.22Y-42.2
X41.22Y-44.45
X41.22Y-46.7
X43.62Y-41.45
X43.62Y-43.7
X43.62Y-45.95
X44.32Y-40.7
X44.32Y-42.95
X44.32Y-45.2
X45.02Y-42.2
X45.02Y-44.45
X45.02Y-46.7
X47.42Y-41.45
X47.42Y-43.7
X47.42Y-45.95
X48.12Y-40.7
X48.12Y-42.95
X48.12Y-45.2
X48.82Y-42.2
X48.82Y-44.45
X48.82Y-46.7
X36.02Y-89.45
X36.02Y-91.7
X36.02Y-93.95
X36.72Y-88.7
X36.72Y-90.95
X36.72Y-93.2
X37.42Y-90.2
X37.42Y-92.45
X37.42Y-94.7
X39.82Y-89.45
X39.82Y-91.7
X39.82Y-93.95
X40.52Y-88.7
X40.52Y-90.95
X40.52Y-93.2
X41.22Y-90.2
X41.22Y-92.45
X41.22Y-94.7
X43.62Y-89.45
X43.62Y-91.7
X43.62Y-93.95
X44.32Y-88.7
X44.32Y-90.95
X44.32Y-93.2
X45.02Y-90.2
X45.02Y-92.45
X45.02Y-94.7
X47.42Y-89.45
X47.42Y-91.7
X47.42Y-93.95
X48.12Y-88.7
X48.12Y-90.95
X48.12Y-93.2
X48.82Y-90.2
X48.82Y-92.45
X48.82Y-94.7
X36.02Y-73.45
X36.02Y-75.7
X36.02Y-77.95
X36.72Y-72.7
X36.72Y-74.95
X36.72Y-77.2
X37.42Y-74.2
X37.42Y-76.45
X37.42Y-78.7
X39.82Y-73.45
X39.82Y-75.7
X39.82Y-77.95
X40.52Y-72.7
X40.52Y-74.95
X40.52Y-77.2
X41.22Y-74.2
X41.22Y-76.45
X41.22Y-78.7
X43.62Y-73.45
X43.62Y-75.7
X43.62Y-77.95
X44.32Y-72.7
X44.32Y-74.95
X44.32Y-77.2
X45.02Y-74.2
X45.02Y-76.45
X45.02Y-78.7
X47.42Y-73.45
X47.42Y-75.7
X47.42Y-77.95
X48.12Y-72.7
X48.12Y-74.95
X48.12Y-77.2
X48.82Y-74.2
X48.82Y-76.45
X48.82Y-78.7
T3
X70.12Y-48.49
X70.12Y-64.49
X70.12Y-80.49
X70.12Y-96.49
X72.095Y-49.445
X72.095Y-65.445
X72.095Y-81.445
X72.095Y-97.445
X75.905Y-49.445
X75.905Y-65.445
X75.905Y-81.445
X75.905Y-97.445
X77.175Y-49.445
X77.175Y-65.445
X77.175Y-81.445
X77.175Y-97.445
X78.42Y-49.445
X78.42Y-65.445
X78.42Y-81.445
X78.42Y-97.445
X79.715Y-49.42
X79.715Y-65.42
X79.715Y-81.42
X79.715Y-97.42
X80.985Y-49.445
X80.985Y-65.445
X80.985Y-81.445
X80.985Y-97.445
X82.255Y-49.445
X82.255Y-65.445
X82.255Y-81.445
X82.255Y-97.445
X83.525Y-49.445
X83.525Y-65.445
X83.525Y-81.445
X83.525Y-97.445
X86.04Y-49.445
X86.04Y-65.445
X86.04Y-81.445
X86.04Y-97.445
X87.31Y-49.445
X87.31Y-65.445
X87.31Y-81.445
X87.31Y-97.445
X88.58Y-49.445
X88.58Y-65.445
X88.58Y-81.445
X88.58Y-97.445
X89.875Y-49.445
X89.875Y-65.445
X89.875Y-81.445
X89.875Y-97.445
T4
X92.96Y-99.99
X95.46Y-99.99
X97.96Y-99.99
X100.46Y-99.99
T0
M30
