%TF.GenerationSoftware,KiCad,Pcbnew,5.0.1-33cea8e~68~ubuntu18.10.1*%
%TF.CreationDate,2018-11-09T13:17:00-07:00*%
%TF.ProjectId,thelio-io,7468656C696F2D696F2E6B696361645F,rev?*%
%TF.SameCoordinates,Original*%
%TF.FileFunction,Copper,L4,Bot,Signal*%
%TF.FilePolarity,Positive*%
%FSLAX46Y46*%
G04 Gerber Fmt 4.6, Leading zero omitted, Abs format (unit mm)*
G04 Created by KiCad (PCBNEW 5.0.1-33cea8e~68~ubuntu18.10.1) date Fri Nov  9 13:17:00 2018*
%MOMM*%
%LPD*%
G01*
G04 APERTURE LIST*
%TA.AperFunction,NonConductor*%
%ADD10C,0.200000*%
%TD*%
%TA.AperFunction,NonConductor*%
%ADD11C,0.150000*%
%TD*%
%TA.AperFunction,ComponentPad*%
%ADD12O,1.730000X2.030000*%
%TD*%
%TA.AperFunction,ComponentPad*%
%ADD13R,1.730000X2.030000*%
%TD*%
%TA.AperFunction,ComponentPad*%
%ADD14O,1.700000X1.700000*%
%TD*%
%TA.AperFunction,ComponentPad*%
%ADD15R,1.700000X1.700000*%
%TD*%
%TA.AperFunction,SMDPad,CuDef*%
%ADD16R,3.150000X1.000000*%
%TD*%
%TA.AperFunction,SMDPad,CuDef*%
%ADD17R,1.700000X1.000000*%
%TD*%
%TA.AperFunction,SMDPad,CuDef*%
%ADD18R,0.900000X2.300000*%
%TD*%
%TA.AperFunction,Conductor*%
%ADD19C,0.350000*%
%TD*%
%TA.AperFunction,SMDPad,CuDef*%
%ADD20C,0.400000*%
%TD*%
%TA.AperFunction,SMDPad,CuDef*%
%ADD21R,0.250000X0.750000*%
%TD*%
%TA.AperFunction,SMDPad,CuDef*%
%ADD22R,1.500000X0.550000*%
%TD*%
%TA.AperFunction,SMDPad,CuDef*%
%ADD23R,0.550000X1.500000*%
%TD*%
%TA.AperFunction,ViaPad*%
%ADD24C,0.800000*%
%TD*%
%TA.AperFunction,Conductor*%
%ADD25C,0.250000*%
%TD*%
G04 APERTURE END LIST*
D10*
X77050000Y-53400000D02*
G75*
G02X75450000Y-55000000I-1600000J0D01*
G01*
X73850000Y-55000000D02*
X75450000Y-55000000D01*
X73850000Y-16800000D02*
X75450000Y-16800000D01*
X75450000Y-16800000D02*
G75*
G02X77050000Y-18400000I0J-1600000D01*
G01*
X77050000Y-18400000D02*
X77050000Y-53400000D01*
X-3200000Y-18400000D02*
G75*
G02X-1600000Y-16800000I1600000J0D01*
G01*
X-3200000Y-53400000D02*
X-3200000Y-18400000D01*
X-1600000Y-55000000D02*
G75*
G02X-3200000Y-53400000I0J1600000D01*
G01*
X0Y-55000000D02*
X-1600000Y-55000000D01*
X0Y-16800000D02*
X-1600000Y-16800000D01*
X0Y-55000000D02*
X0Y-68600000D01*
X0Y-16800000D02*
X0Y-3200000D01*
X73850000Y-55000000D02*
X73850000Y-68600000D01*
X73850000Y-16800000D02*
X73850000Y-3200000D01*
D11*
X73850000Y-68600000D02*
G75*
G02X70650000Y-71800000I-3200000J0D01*
G01*
D10*
X3200000Y-71800000D02*
G75*
G02X0Y-68600000I0J3200000D01*
G01*
X70650000Y-71800000D02*
X3200000Y-71800000D01*
X0Y-3200000D02*
G75*
G02X3200000Y0I3200000J0D01*
G01*
X70650000Y0D02*
G75*
G02X73850000Y-3200000I0J-3200000D01*
G01*
X3200000Y0D02*
X70650000Y0D01*
D12*
%TO.P,POWER0,4*%
%TO.N,+5V*%
X60960000Y-67990000D03*
%TO.P,POWER0,3*%
%TO.N,GND*%
X63460000Y-67990000D03*
%TO.P,POWER0,2*%
X65960000Y-67990000D03*
D13*
%TO.P,POWER0,1*%
%TO.N,+12V*%
X68460000Y-67990000D03*
%TD*%
D14*
%TO.P,USB0,4*%
%TO.N,GND*%
X8890000Y-65450000D03*
%TO.P,USB0,3*%
%TO.N,Net-(R0-Pad1)*%
X11430000Y-65450000D03*
%TO.P,USB0,2*%
%TO.N,Net-(R1-Pad1)*%
X13970000Y-65450000D03*
D15*
%TO.P,USB0,1*%
%TO.N,VCC*%
X16510000Y-65450000D03*
%TD*%
D16*
%TO.P,ICSP0,6*%
%TO.N,GND*%
X17705000Y-15920000D03*
%TO.P,ICSP0,5*%
%TO.N,RST*%
X12655000Y-15920000D03*
%TO.P,ICSP0,4*%
%TO.N,MOSI*%
X17705000Y-18460000D03*
%TO.P,ICSP0,3*%
%TO.N,SCLK*%
X12655000Y-18460000D03*
%TO.P,ICSP0,2*%
%TO.N,VCC*%
X17705000Y-21000000D03*
%TO.P,ICSP0,1*%
%TO.N,MISO*%
X12655000Y-21000000D03*
%TD*%
D17*
%TO.P,B0,2*%
%TO.N,PB4*%
X2000000Y-29250000D03*
X8300000Y-29250000D03*
%TO.P,B0,1*%
%TO.N,GND*%
X2000000Y-25450000D03*
X8300000Y-25450000D03*
%TD*%
D18*
%TO.P,DATA1,1*%
%TO.N,Net-(DATA1-Pad1)*%
X33720000Y-22760000D03*
%TO.P,DATA1,2*%
%TO.N,Net-(DATA1-Pad2)*%
X32450000Y-22760000D03*
%TO.P,DATA1,3*%
%TO.N,Net-(DATA1-Pad3)*%
X31180000Y-22760000D03*
%TO.P,DATA1,4*%
%TO.N,Net-(DATA1-Pad4)*%
X29910000Y-22760000D03*
%TO.P,DATA1,5*%
%TO.N,Net-(DATA1-Pad5)*%
X28640000Y-22760000D03*
%TO.P,DATA1,6*%
%TO.N,Net-(DATA1-Pad6)*%
X27370000Y-22760000D03*
%TO.P,DATA1,7*%
%TO.N,Net-(DATA1-Pad7)*%
X26100000Y-22760000D03*
%TD*%
%TO.P,DATA0,1*%
%TO.N,Net-(DATA0-Pad1)*%
X33720000Y-6760000D03*
%TO.P,DATA0,2*%
%TO.N,Net-(DATA0-Pad2)*%
X32450000Y-6760000D03*
%TO.P,DATA0,3*%
%TO.N,Net-(DATA0-Pad3)*%
X31180000Y-6760000D03*
%TO.P,DATA0,4*%
%TO.N,Net-(DATA0-Pad4)*%
X29910000Y-6760000D03*
%TO.P,DATA0,5*%
%TO.N,Net-(DATA0-Pad5)*%
X28640000Y-6760000D03*
%TO.P,DATA0,6*%
%TO.N,Net-(DATA0-Pad6)*%
X27370000Y-6760000D03*
%TO.P,DATA0,7*%
%TO.N,Net-(DATA0-Pad7)*%
X26100000Y-6760000D03*
%TD*%
%TO.P,DATA3,1*%
%TO.N,Net-(DATA3-Pad1)*%
X33720000Y-54760000D03*
%TO.P,DATA3,2*%
%TO.N,Net-(DATA3-Pad2)*%
X32450000Y-54760000D03*
%TO.P,DATA3,3*%
%TO.N,Net-(DATA3-Pad3)*%
X31180000Y-54760000D03*
%TO.P,DATA3,4*%
%TO.N,Net-(DATA3-Pad4)*%
X29910000Y-54760000D03*
%TO.P,DATA3,5*%
%TO.N,Net-(DATA3-Pad5)*%
X28640000Y-54760000D03*
%TO.P,DATA3,6*%
%TO.N,Net-(DATA3-Pad6)*%
X27370000Y-54760000D03*
%TO.P,DATA3,7*%
%TO.N,Net-(DATA3-Pad7)*%
X26100000Y-54760000D03*
%TD*%
%TO.P,DATA2,1*%
%TO.N,Net-(DATA2-Pad1)*%
X33720000Y-39110000D03*
%TO.P,DATA2,2*%
%TO.N,Net-(DATA2-Pad2)*%
X32450000Y-39110000D03*
%TO.P,DATA2,3*%
%TO.N,Net-(DATA2-Pad3)*%
X31180000Y-39110000D03*
%TO.P,DATA2,4*%
%TO.N,Net-(DATA2-Pad4)*%
X29910000Y-39110000D03*
%TO.P,DATA2,5*%
%TO.N,Net-(DATA2-Pad5)*%
X28640000Y-39110000D03*
%TO.P,DATA2,6*%
%TO.N,Net-(DATA2-Pad6)*%
X27370000Y-39110000D03*
%TO.P,DATA2,7*%
%TO.N,Net-(DATA2-Pad7)*%
X26100000Y-39110000D03*
%TD*%
D19*
%TO.N,GND*%
%TO.C,C0*%
G36*
X10809802Y-48395482D02*
X10819509Y-48396921D01*
X10829028Y-48399306D01*
X10838268Y-48402612D01*
X10847140Y-48406808D01*
X10855557Y-48411853D01*
X10863439Y-48417699D01*
X10870711Y-48424289D01*
X10877301Y-48431561D01*
X10883147Y-48439443D01*
X10888192Y-48447860D01*
X10892388Y-48456732D01*
X10895694Y-48465972D01*
X10898079Y-48475491D01*
X10899518Y-48485198D01*
X10900000Y-48495000D01*
X10900000Y-48755000D01*
X10899518Y-48764802D01*
X10898079Y-48774509D01*
X10895694Y-48784028D01*
X10892388Y-48793268D01*
X10888192Y-48802140D01*
X10883147Y-48810557D01*
X10877301Y-48818439D01*
X10870711Y-48825711D01*
X10863439Y-48832301D01*
X10855557Y-48838147D01*
X10847140Y-48843192D01*
X10838268Y-48847388D01*
X10829028Y-48850694D01*
X10819509Y-48853079D01*
X10809802Y-48854518D01*
X10800000Y-48855000D01*
X10600000Y-48855000D01*
X10590198Y-48854518D01*
X10580491Y-48853079D01*
X10570972Y-48850694D01*
X10561732Y-48847388D01*
X10552860Y-48843192D01*
X10544443Y-48838147D01*
X10536561Y-48832301D01*
X10529289Y-48825711D01*
X10522699Y-48818439D01*
X10516853Y-48810557D01*
X10511808Y-48802140D01*
X10507612Y-48793268D01*
X10504306Y-48784028D01*
X10501921Y-48774509D01*
X10500482Y-48764802D01*
X10500000Y-48755000D01*
X10500000Y-48495000D01*
X10500482Y-48485198D01*
X10501921Y-48475491D01*
X10504306Y-48465972D01*
X10507612Y-48456732D01*
X10511808Y-48447860D01*
X10516853Y-48439443D01*
X10522699Y-48431561D01*
X10529289Y-48424289D01*
X10536561Y-48417699D01*
X10544443Y-48411853D01*
X10552860Y-48406808D01*
X10561732Y-48402612D01*
X10570972Y-48399306D01*
X10580491Y-48396921D01*
X10590198Y-48395482D01*
X10600000Y-48395000D01*
X10800000Y-48395000D01*
X10809802Y-48395482D01*
X10809802Y-48395482D01*
G37*
D20*
%TD*%
%TO.P,C0,2*%
%TO.N,GND*%
X10700000Y-48625000D03*
D19*
%TO.N,Net-(AVR0-Pad6)*%
%TO.C,C0*%
G36*
X10809802Y-47755482D02*
X10819509Y-47756921D01*
X10829028Y-47759306D01*
X10838268Y-47762612D01*
X10847140Y-47766808D01*
X10855557Y-47771853D01*
X10863439Y-47777699D01*
X10870711Y-47784289D01*
X10877301Y-47791561D01*
X10883147Y-47799443D01*
X10888192Y-47807860D01*
X10892388Y-47816732D01*
X10895694Y-47825972D01*
X10898079Y-47835491D01*
X10899518Y-47845198D01*
X10900000Y-47855000D01*
X10900000Y-48115000D01*
X10899518Y-48124802D01*
X10898079Y-48134509D01*
X10895694Y-48144028D01*
X10892388Y-48153268D01*
X10888192Y-48162140D01*
X10883147Y-48170557D01*
X10877301Y-48178439D01*
X10870711Y-48185711D01*
X10863439Y-48192301D01*
X10855557Y-48198147D01*
X10847140Y-48203192D01*
X10838268Y-48207388D01*
X10829028Y-48210694D01*
X10819509Y-48213079D01*
X10809802Y-48214518D01*
X10800000Y-48215000D01*
X10600000Y-48215000D01*
X10590198Y-48214518D01*
X10580491Y-48213079D01*
X10570972Y-48210694D01*
X10561732Y-48207388D01*
X10552860Y-48203192D01*
X10544443Y-48198147D01*
X10536561Y-48192301D01*
X10529289Y-48185711D01*
X10522699Y-48178439D01*
X10516853Y-48170557D01*
X10511808Y-48162140D01*
X10507612Y-48153268D01*
X10504306Y-48144028D01*
X10501921Y-48134509D01*
X10500482Y-48124802D01*
X10500000Y-48115000D01*
X10500000Y-47855000D01*
X10500482Y-47845198D01*
X10501921Y-47835491D01*
X10504306Y-47825972D01*
X10507612Y-47816732D01*
X10511808Y-47807860D01*
X10516853Y-47799443D01*
X10522699Y-47791561D01*
X10529289Y-47784289D01*
X10536561Y-47777699D01*
X10544443Y-47771853D01*
X10552860Y-47766808D01*
X10561732Y-47762612D01*
X10570972Y-47759306D01*
X10580491Y-47756921D01*
X10590198Y-47755482D01*
X10600000Y-47755000D01*
X10800000Y-47755000D01*
X10809802Y-47755482D01*
X10809802Y-47755482D01*
G37*
D20*
%TD*%
%TO.P,C0,1*%
%TO.N,Net-(AVR0-Pad6)*%
X10700000Y-47985000D03*
D19*
%TO.N,Net-(AVR0-Pad4)*%
%TO.C,R0*%
G36*
X11539802Y-62360482D02*
X11549509Y-62361921D01*
X11559028Y-62364306D01*
X11568268Y-62367612D01*
X11577140Y-62371808D01*
X11585557Y-62376853D01*
X11593439Y-62382699D01*
X11600711Y-62389289D01*
X11607301Y-62396561D01*
X11613147Y-62404443D01*
X11618192Y-62412860D01*
X11622388Y-62421732D01*
X11625694Y-62430972D01*
X11628079Y-62440491D01*
X11629518Y-62450198D01*
X11630000Y-62460000D01*
X11630000Y-62720000D01*
X11629518Y-62729802D01*
X11628079Y-62739509D01*
X11625694Y-62749028D01*
X11622388Y-62758268D01*
X11618192Y-62767140D01*
X11613147Y-62775557D01*
X11607301Y-62783439D01*
X11600711Y-62790711D01*
X11593439Y-62797301D01*
X11585557Y-62803147D01*
X11577140Y-62808192D01*
X11568268Y-62812388D01*
X11559028Y-62815694D01*
X11549509Y-62818079D01*
X11539802Y-62819518D01*
X11530000Y-62820000D01*
X11330000Y-62820000D01*
X11320198Y-62819518D01*
X11310491Y-62818079D01*
X11300972Y-62815694D01*
X11291732Y-62812388D01*
X11282860Y-62808192D01*
X11274443Y-62803147D01*
X11266561Y-62797301D01*
X11259289Y-62790711D01*
X11252699Y-62783439D01*
X11246853Y-62775557D01*
X11241808Y-62767140D01*
X11237612Y-62758268D01*
X11234306Y-62749028D01*
X11231921Y-62739509D01*
X11230482Y-62729802D01*
X11230000Y-62720000D01*
X11230000Y-62460000D01*
X11230482Y-62450198D01*
X11231921Y-62440491D01*
X11234306Y-62430972D01*
X11237612Y-62421732D01*
X11241808Y-62412860D01*
X11246853Y-62404443D01*
X11252699Y-62396561D01*
X11259289Y-62389289D01*
X11266561Y-62382699D01*
X11274443Y-62376853D01*
X11282860Y-62371808D01*
X11291732Y-62367612D01*
X11300972Y-62364306D01*
X11310491Y-62361921D01*
X11320198Y-62360482D01*
X11330000Y-62360000D01*
X11530000Y-62360000D01*
X11539802Y-62360482D01*
X11539802Y-62360482D01*
G37*
D20*
%TD*%
%TO.P,R0,2*%
%TO.N,Net-(AVR0-Pad4)*%
X11430000Y-62590000D03*
D19*
%TO.N,Net-(R0-Pad1)*%
%TO.C,R0*%
G36*
X11539802Y-63000482D02*
X11549509Y-63001921D01*
X11559028Y-63004306D01*
X11568268Y-63007612D01*
X11577140Y-63011808D01*
X11585557Y-63016853D01*
X11593439Y-63022699D01*
X11600711Y-63029289D01*
X11607301Y-63036561D01*
X11613147Y-63044443D01*
X11618192Y-63052860D01*
X11622388Y-63061732D01*
X11625694Y-63070972D01*
X11628079Y-63080491D01*
X11629518Y-63090198D01*
X11630000Y-63100000D01*
X11630000Y-63360000D01*
X11629518Y-63369802D01*
X11628079Y-63379509D01*
X11625694Y-63389028D01*
X11622388Y-63398268D01*
X11618192Y-63407140D01*
X11613147Y-63415557D01*
X11607301Y-63423439D01*
X11600711Y-63430711D01*
X11593439Y-63437301D01*
X11585557Y-63443147D01*
X11577140Y-63448192D01*
X11568268Y-63452388D01*
X11559028Y-63455694D01*
X11549509Y-63458079D01*
X11539802Y-63459518D01*
X11530000Y-63460000D01*
X11330000Y-63460000D01*
X11320198Y-63459518D01*
X11310491Y-63458079D01*
X11300972Y-63455694D01*
X11291732Y-63452388D01*
X11282860Y-63448192D01*
X11274443Y-63443147D01*
X11266561Y-63437301D01*
X11259289Y-63430711D01*
X11252699Y-63423439D01*
X11246853Y-63415557D01*
X11241808Y-63407140D01*
X11237612Y-63398268D01*
X11234306Y-63389028D01*
X11231921Y-63379509D01*
X11230482Y-63369802D01*
X11230000Y-63360000D01*
X11230000Y-63100000D01*
X11230482Y-63090198D01*
X11231921Y-63080491D01*
X11234306Y-63070972D01*
X11237612Y-63061732D01*
X11241808Y-63052860D01*
X11246853Y-63044443D01*
X11252699Y-63036561D01*
X11259289Y-63029289D01*
X11266561Y-63022699D01*
X11274443Y-63016853D01*
X11282860Y-63011808D01*
X11291732Y-63007612D01*
X11300972Y-63004306D01*
X11310491Y-63001921D01*
X11320198Y-63000482D01*
X11330000Y-63000000D01*
X11530000Y-63000000D01*
X11539802Y-63000482D01*
X11539802Y-63000482D01*
G37*
D20*
%TD*%
%TO.P,R0,1*%
%TO.N,Net-(R0-Pad1)*%
X11430000Y-63230000D03*
D19*
%TO.N,Net-(AVR0-Pad3)*%
%TO.C,R1*%
G36*
X14079802Y-62360482D02*
X14089509Y-62361921D01*
X14099028Y-62364306D01*
X14108268Y-62367612D01*
X14117140Y-62371808D01*
X14125557Y-62376853D01*
X14133439Y-62382699D01*
X14140711Y-62389289D01*
X14147301Y-62396561D01*
X14153147Y-62404443D01*
X14158192Y-62412860D01*
X14162388Y-62421732D01*
X14165694Y-62430972D01*
X14168079Y-62440491D01*
X14169518Y-62450198D01*
X14170000Y-62460000D01*
X14170000Y-62720000D01*
X14169518Y-62729802D01*
X14168079Y-62739509D01*
X14165694Y-62749028D01*
X14162388Y-62758268D01*
X14158192Y-62767140D01*
X14153147Y-62775557D01*
X14147301Y-62783439D01*
X14140711Y-62790711D01*
X14133439Y-62797301D01*
X14125557Y-62803147D01*
X14117140Y-62808192D01*
X14108268Y-62812388D01*
X14099028Y-62815694D01*
X14089509Y-62818079D01*
X14079802Y-62819518D01*
X14070000Y-62820000D01*
X13870000Y-62820000D01*
X13860198Y-62819518D01*
X13850491Y-62818079D01*
X13840972Y-62815694D01*
X13831732Y-62812388D01*
X13822860Y-62808192D01*
X13814443Y-62803147D01*
X13806561Y-62797301D01*
X13799289Y-62790711D01*
X13792699Y-62783439D01*
X13786853Y-62775557D01*
X13781808Y-62767140D01*
X13777612Y-62758268D01*
X13774306Y-62749028D01*
X13771921Y-62739509D01*
X13770482Y-62729802D01*
X13770000Y-62720000D01*
X13770000Y-62460000D01*
X13770482Y-62450198D01*
X13771921Y-62440491D01*
X13774306Y-62430972D01*
X13777612Y-62421732D01*
X13781808Y-62412860D01*
X13786853Y-62404443D01*
X13792699Y-62396561D01*
X13799289Y-62389289D01*
X13806561Y-62382699D01*
X13814443Y-62376853D01*
X13822860Y-62371808D01*
X13831732Y-62367612D01*
X13840972Y-62364306D01*
X13850491Y-62361921D01*
X13860198Y-62360482D01*
X13870000Y-62360000D01*
X14070000Y-62360000D01*
X14079802Y-62360482D01*
X14079802Y-62360482D01*
G37*
D20*
%TD*%
%TO.P,R1,2*%
%TO.N,Net-(AVR0-Pad3)*%
X13970000Y-62590000D03*
D19*
%TO.N,Net-(R1-Pad1)*%
%TO.C,R1*%
G36*
X14079802Y-63000482D02*
X14089509Y-63001921D01*
X14099028Y-63004306D01*
X14108268Y-63007612D01*
X14117140Y-63011808D01*
X14125557Y-63016853D01*
X14133439Y-63022699D01*
X14140711Y-63029289D01*
X14147301Y-63036561D01*
X14153147Y-63044443D01*
X14158192Y-63052860D01*
X14162388Y-63061732D01*
X14165694Y-63070972D01*
X14168079Y-63080491D01*
X14169518Y-63090198D01*
X14170000Y-63100000D01*
X14170000Y-63360000D01*
X14169518Y-63369802D01*
X14168079Y-63379509D01*
X14165694Y-63389028D01*
X14162388Y-63398268D01*
X14158192Y-63407140D01*
X14153147Y-63415557D01*
X14147301Y-63423439D01*
X14140711Y-63430711D01*
X14133439Y-63437301D01*
X14125557Y-63443147D01*
X14117140Y-63448192D01*
X14108268Y-63452388D01*
X14099028Y-63455694D01*
X14089509Y-63458079D01*
X14079802Y-63459518D01*
X14070000Y-63460000D01*
X13870000Y-63460000D01*
X13860198Y-63459518D01*
X13850491Y-63458079D01*
X13840972Y-63455694D01*
X13831732Y-63452388D01*
X13822860Y-63448192D01*
X13814443Y-63443147D01*
X13806561Y-63437301D01*
X13799289Y-63430711D01*
X13792699Y-63423439D01*
X13786853Y-63415557D01*
X13781808Y-63407140D01*
X13777612Y-63398268D01*
X13774306Y-63389028D01*
X13771921Y-63379509D01*
X13770482Y-63369802D01*
X13770000Y-63360000D01*
X13770000Y-63100000D01*
X13770482Y-63090198D01*
X13771921Y-63080491D01*
X13774306Y-63070972D01*
X13777612Y-63061732D01*
X13781808Y-63052860D01*
X13786853Y-63044443D01*
X13792699Y-63036561D01*
X13799289Y-63029289D01*
X13806561Y-63022699D01*
X13814443Y-63016853D01*
X13822860Y-63011808D01*
X13831732Y-63007612D01*
X13840972Y-63004306D01*
X13850491Y-63001921D01*
X13860198Y-63000482D01*
X13870000Y-63000000D01*
X14070000Y-63000000D01*
X14079802Y-63000482D01*
X14079802Y-63000482D01*
G37*
D20*
%TD*%
%TO.P,R1,1*%
%TO.N,Net-(R1-Pad1)*%
X13970000Y-63230000D03*
D19*
%TO.N,Net-(PFP0-Pad4)*%
%TO.C,R2*%
G36*
X22969802Y-66810482D02*
X22979509Y-66811921D01*
X22989028Y-66814306D01*
X22998268Y-66817612D01*
X23007140Y-66821808D01*
X23015557Y-66826853D01*
X23023439Y-66832699D01*
X23030711Y-66839289D01*
X23037301Y-66846561D01*
X23043147Y-66854443D01*
X23048192Y-66862860D01*
X23052388Y-66871732D01*
X23055694Y-66880972D01*
X23058079Y-66890491D01*
X23059518Y-66900198D01*
X23060000Y-66910000D01*
X23060000Y-67170000D01*
X23059518Y-67179802D01*
X23058079Y-67189509D01*
X23055694Y-67199028D01*
X23052388Y-67208268D01*
X23048192Y-67217140D01*
X23043147Y-67225557D01*
X23037301Y-67233439D01*
X23030711Y-67240711D01*
X23023439Y-67247301D01*
X23015557Y-67253147D01*
X23007140Y-67258192D01*
X22998268Y-67262388D01*
X22989028Y-67265694D01*
X22979509Y-67268079D01*
X22969802Y-67269518D01*
X22960000Y-67270000D01*
X22760000Y-67270000D01*
X22750198Y-67269518D01*
X22740491Y-67268079D01*
X22730972Y-67265694D01*
X22721732Y-67262388D01*
X22712860Y-67258192D01*
X22704443Y-67253147D01*
X22696561Y-67247301D01*
X22689289Y-67240711D01*
X22682699Y-67233439D01*
X22676853Y-67225557D01*
X22671808Y-67217140D01*
X22667612Y-67208268D01*
X22664306Y-67199028D01*
X22661921Y-67189509D01*
X22660482Y-67179802D01*
X22660000Y-67170000D01*
X22660000Y-66910000D01*
X22660482Y-66900198D01*
X22661921Y-66890491D01*
X22664306Y-66880972D01*
X22667612Y-66871732D01*
X22671808Y-66862860D01*
X22676853Y-66854443D01*
X22682699Y-66846561D01*
X22689289Y-66839289D01*
X22696561Y-66832699D01*
X22704443Y-66826853D01*
X22712860Y-66821808D01*
X22721732Y-66817612D01*
X22730972Y-66814306D01*
X22740491Y-66811921D01*
X22750198Y-66810482D01*
X22760000Y-66810000D01*
X22960000Y-66810000D01*
X22969802Y-66810482D01*
X22969802Y-66810482D01*
G37*
D20*
%TD*%
%TO.P,R2,2*%
%TO.N,Net-(PFP0-Pad4)*%
X22860000Y-67040000D03*
D19*
%TO.N,OC4A*%
%TO.C,R2*%
G36*
X22969802Y-66170482D02*
X22979509Y-66171921D01*
X22989028Y-66174306D01*
X22998268Y-66177612D01*
X23007140Y-66181808D01*
X23015557Y-66186853D01*
X23023439Y-66192699D01*
X23030711Y-66199289D01*
X23037301Y-66206561D01*
X23043147Y-66214443D01*
X23048192Y-66222860D01*
X23052388Y-66231732D01*
X23055694Y-66240972D01*
X23058079Y-66250491D01*
X23059518Y-66260198D01*
X23060000Y-66270000D01*
X23060000Y-66530000D01*
X23059518Y-66539802D01*
X23058079Y-66549509D01*
X23055694Y-66559028D01*
X23052388Y-66568268D01*
X23048192Y-66577140D01*
X23043147Y-66585557D01*
X23037301Y-66593439D01*
X23030711Y-66600711D01*
X23023439Y-66607301D01*
X23015557Y-66613147D01*
X23007140Y-66618192D01*
X22998268Y-66622388D01*
X22989028Y-66625694D01*
X22979509Y-66628079D01*
X22969802Y-66629518D01*
X22960000Y-66630000D01*
X22760000Y-66630000D01*
X22750198Y-66629518D01*
X22740491Y-66628079D01*
X22730972Y-66625694D01*
X22721732Y-66622388D01*
X22712860Y-66618192D01*
X22704443Y-66613147D01*
X22696561Y-66607301D01*
X22689289Y-66600711D01*
X22682699Y-66593439D01*
X22676853Y-66585557D01*
X22671808Y-66577140D01*
X22667612Y-66568268D01*
X22664306Y-66559028D01*
X22661921Y-66549509D01*
X22660482Y-66539802D01*
X22660000Y-66530000D01*
X22660000Y-66270000D01*
X22660482Y-66260198D01*
X22661921Y-66250491D01*
X22664306Y-66240972D01*
X22667612Y-66231732D01*
X22671808Y-66222860D01*
X22676853Y-66214443D01*
X22682699Y-66206561D01*
X22689289Y-66199289D01*
X22696561Y-66192699D01*
X22704443Y-66186853D01*
X22712860Y-66181808D01*
X22721732Y-66177612D01*
X22730972Y-66174306D01*
X22740491Y-66171921D01*
X22750198Y-66170482D01*
X22760000Y-66170000D01*
X22960000Y-66170000D01*
X22969802Y-66170482D01*
X22969802Y-66170482D01*
G37*
D20*
%TD*%
%TO.P,R2,1*%
%TO.N,OC4A*%
X22860000Y-66400000D03*
D12*
%TO.P,CPUOUT0,4*%
%TO.N,Net-(CPUMUX0-Pad5)*%
X38100000Y-67990000D03*
%TO.P,CPUOUT0,3*%
%TO.N,ADC4*%
X40640000Y-67990000D03*
%TO.P,CPUOUT0,2*%
%TO.N,+12V*%
X43180000Y-67990000D03*
D13*
%TO.P,CPUOUT0,1*%
%TO.N,GND*%
X45720000Y-67990000D03*
%TD*%
D21*
%TO.P,CPUMUX0,8*%
%TO.N,VCC*%
X16975000Y-51480000D03*
%TO.P,CPUMUX0,7*%
%TO.N,GND*%
X16475000Y-51480000D03*
%TO.P,CPUMUX0,6*%
%TO.N,PE6*%
X15975000Y-51480000D03*
%TO.P,CPUMUX0,5*%
%TO.N,Net-(CPUMUX0-Pad5)*%
X15475000Y-51480000D03*
%TO.P,CPUMUX0,4*%
%TO.N,GND*%
X15475000Y-54580000D03*
%TO.P,CPUMUX0,3*%
%TO.N,Net-(CPUMUX0-Pad3)*%
X15975000Y-54580000D03*
%TO.P,CPUMUX0,2*%
%TO.N,OC1A*%
X16475000Y-54580000D03*
%TO.P,CPUMUX0,1*%
%TO.N,Net-(CPUIN0-Pad4)*%
X16975000Y-54580000D03*
%TD*%
D22*
%TO.P,AVR0,44*%
%TO.N,VCC*%
X16400000Y-42950000D03*
%TO.P,AVR0,43*%
%TO.N,GND*%
X16400000Y-42150000D03*
%TO.P,AVR0,42*%
%TO.N,Net-(AVR0-Pad42)*%
X16400000Y-41350000D03*
%TO.P,AVR0,41*%
%TO.N,ADC0*%
X16400000Y-40550000D03*
%TO.P,AVR0,40*%
%TO.N,ADC1*%
X16400000Y-39750000D03*
%TO.P,AVR0,39*%
%TO.N,ADC4*%
X16400000Y-38950000D03*
%TO.P,AVR0,38*%
%TO.N,ADC5*%
X16400000Y-38150000D03*
%TO.P,AVR0,37*%
%TO.N,ADC6*%
X16400000Y-37350000D03*
%TO.P,AVR0,36*%
%TO.N,ADC7*%
X16400000Y-36550000D03*
%TO.P,AVR0,35*%
%TO.N,GND*%
X16400000Y-35750000D03*
%TO.P,AVR0,34*%
%TO.N,VCC*%
X16400000Y-34950000D03*
D23*
%TO.P,AVR0,33*%
%TO.N,HWB*%
X14700000Y-33250000D03*
%TO.P,AVR0,32*%
%TO.N,OC4A*%
X13900000Y-33250000D03*
%TO.P,AVR0,31*%
%TO.N,OC3A*%
X13100000Y-33250000D03*
%TO.P,AVR0,30*%
%TO.N,OC1B*%
X12300000Y-33250000D03*
%TO.P,AVR0,29*%
%TO.N,OC1A*%
X11500000Y-33250000D03*
%TO.P,AVR0,28*%
%TO.N,PB4*%
X10700000Y-33250000D03*
%TO.P,AVR0,27*%
%TO.N,ADC10*%
X9900000Y-33250000D03*
%TO.P,AVR0,26*%
%TO.N,ADC9*%
X9100000Y-33250000D03*
%TO.P,AVR0,25*%
%TO.N,ADC8*%
X8300000Y-33250000D03*
%TO.P,AVR0,24*%
%TO.N,VCC*%
X7500000Y-33250000D03*
%TO.P,AVR0,23*%
%TO.N,GND*%
X6700000Y-33250000D03*
D22*
%TO.P,AVR0,22*%
%TO.N,XCK1*%
X5000000Y-34950000D03*
%TO.P,AVR0,21*%
%TO.N,TXD1*%
X5000000Y-35750000D03*
%TO.P,AVR0,20*%
%TO.N,RXD1*%
X5000000Y-36550000D03*
%TO.P,AVR0,19*%
%TO.N,SDA*%
X5000000Y-37350000D03*
%TO.P,AVR0,18*%
%TO.N,SCL*%
X5000000Y-38150000D03*
%TO.P,AVR0,17*%
%TO.N,Net-(AVR0-Pad17)*%
X5000000Y-38950000D03*
%TO.P,AVR0,16*%
%TO.N,Net-(AVR0-Pad16)*%
X5000000Y-39750000D03*
%TO.P,AVR0,15*%
%TO.N,GND*%
X5000000Y-40550000D03*
%TO.P,AVR0,14*%
%TO.N,VCC*%
X5000000Y-41350000D03*
%TO.P,AVR0,13*%
%TO.N,RST*%
X5000000Y-42150000D03*
%TO.P,AVR0,12*%
%TO.N,RTS*%
X5000000Y-42950000D03*
D23*
%TO.P,AVR0,11*%
%TO.N,MISO*%
X6700000Y-44650000D03*
%TO.P,AVR0,10*%
%TO.N,MOSI*%
X7500000Y-44650000D03*
%TO.P,AVR0,9*%
%TO.N,SCLK*%
X8300000Y-44650000D03*
%TO.P,AVR0,8*%
%TO.N,SS*%
X9100000Y-44650000D03*
%TO.P,AVR0,7*%
%TO.N,VCC*%
X9900000Y-44650000D03*
%TO.P,AVR0,6*%
%TO.N,Net-(AVR0-Pad6)*%
X10700000Y-44650000D03*
%TO.P,AVR0,5*%
%TO.N,GND*%
X11500000Y-44650000D03*
%TO.P,AVR0,4*%
%TO.N,Net-(AVR0-Pad4)*%
X12300000Y-44650000D03*
%TO.P,AVR0,3*%
%TO.N,Net-(AVR0-Pad3)*%
X13100000Y-44650000D03*
%TO.P,AVR0,2*%
%TO.N,VCC*%
X13900000Y-44650000D03*
%TO.P,AVR0,1*%
%TO.N,PE6*%
X14700000Y-44650000D03*
%TD*%
D14*
%TO.P,PMB0,4*%
%TO.N,ADC0*%
X11430000Y-69260000D03*
%TO.P,PMB0,3*%
%TO.N,Net-(PMB0-Pad3)*%
X8890000Y-69260000D03*
%TO.P,PMB0,2*%
%TO.N,PB4*%
X6350000Y-69260000D03*
D15*
%TO.P,PMB0,1*%
%TO.N,GND*%
X3810000Y-69260000D03*
%TD*%
D12*
%TO.P,CPUIN0,4*%
%TO.N,Net-(CPUIN0-Pad4)*%
X26670000Y-67990000D03*
%TO.P,CPUIN0,3*%
%TO.N,ADC4*%
X29210000Y-67990000D03*
%TO.P,CPUIN0,2*%
%TO.N,Net-(CPUIN0-Pad2)*%
X31750000Y-67990000D03*
D13*
%TO.P,CPUIN0,1*%
%TO.N,GND*%
X34290000Y-67990000D03*
%TD*%
D12*
%TO.P,INTAKE0,4*%
%TO.N,OC1B*%
X49530000Y-67990000D03*
%TO.P,INTAKE0,3*%
%TO.N,ADC5*%
X52070000Y-67990000D03*
%TO.P,INTAKE0,2*%
%TO.N,+12V*%
X54610000Y-67990000D03*
D13*
%TO.P,INTAKE0,1*%
%TO.N,GND*%
X57150000Y-67990000D03*
%TD*%
D14*
%TO.P,PFP0,4*%
%TO.N,Net-(PFP0-Pad4)*%
X22860000Y-69260000D03*
%TO.P,PFP0,3*%
%TO.N,GND*%
X20320000Y-69260000D03*
%TO.P,PFP0,2*%
%TO.N,ADC1*%
X17780000Y-69260000D03*
D15*
%TO.P,PFP0,1*%
%TO.N,GND*%
X15240000Y-69260000D03*
%TD*%
D24*
%TO.N,Net-(AVR0-Pad17)*%
X3400000Y-38549998D03*
%TO.N,Net-(AVR0-Pad16)*%
X3400000Y-40150000D03*
%TO.N,Net-(CPUIN0-Pad4)*%
X17775000Y-56180000D03*
%TO.N,Net-(DATA2-Pad7)*%
X26100000Y-41110000D03*
%TO.N,Net-(DATA2-Pad6)*%
X27370000Y-41110000D03*
%TO.N,Net-(DATA2-Pad5)*%
X28640000Y-41110000D03*
%TO.N,Net-(DATA2-Pad4)*%
X29910000Y-41110000D03*
%TO.N,Net-(DATA2-Pad3)*%
X31180000Y-41110000D03*
%TO.N,Net-(DATA2-Pad2)*%
X32450000Y-41110000D03*
%TO.N,Net-(DATA2-Pad1)*%
X33720000Y-41110000D03*
%TO.N,Net-(DATA3-Pad7)*%
X26100000Y-57110000D03*
%TO.N,Net-(DATA3-Pad6)*%
X27370000Y-57110000D03*
%TO.N,Net-(DATA3-Pad5)*%
X28640000Y-57110000D03*
%TO.N,Net-(DATA3-Pad4)*%
X29910000Y-57110000D03*
%TO.N,Net-(DATA3-Pad3)*%
X31180000Y-57110000D03*
%TO.N,Net-(DATA3-Pad2)*%
X32450000Y-57110000D03*
%TO.N,Net-(DATA3-Pad1)*%
X33720000Y-57110000D03*
%TO.N,Net-(DATA0-Pad7)*%
X26100000Y-9110000D03*
%TO.N,Net-(DATA0-Pad6)*%
X27370000Y-9110000D03*
%TO.N,Net-(DATA0-Pad5)*%
X28640000Y-9110000D03*
%TO.N,Net-(DATA0-Pad4)*%
X29910000Y-9110000D03*
%TO.N,Net-(DATA0-Pad3)*%
X31180000Y-9110000D03*
%TO.N,Net-(DATA0-Pad2)*%
X32450000Y-9110000D03*
%TO.N,Net-(DATA0-Pad1)*%
X33720000Y-9110000D03*
%TO.N,Net-(DATA1-Pad7)*%
X26100000Y-25110000D03*
%TO.N,Net-(DATA1-Pad6)*%
X27370000Y-25110000D03*
%TO.N,Net-(DATA1-Pad5)*%
X28640000Y-25110000D03*
%TO.N,Net-(DATA1-Pad4)*%
X29910000Y-25110000D03*
%TO.N,Net-(DATA1-Pad3)*%
X31180000Y-25110000D03*
%TO.N,Net-(DATA1-Pad2)*%
X32450000Y-25110000D03*
%TO.N,Net-(DATA1-Pad1)*%
X33720000Y-25110000D03*
%TO.N,OC1B*%
X25400000Y-48940000D03*
X13900000Y-30050000D03*
%TO.N,OC1A*%
X15975000Y-56079994D03*
X13100000Y-29250000D03*
%TO.N,Net-(CPUMUX0-Pad5)*%
X13970000Y-51480000D03*
X22860000Y-51480000D03*
%TO.N,VCC*%
X18000000Y-43350000D03*
X7507115Y-31657115D03*
X17775000Y-50680000D03*
X13900000Y-46250000D03*
X2600000Y-42150000D03*
X9900000Y-47050000D03*
X18000000Y-34550000D03*
X20245000Y-21000000D03*
%TO.N,GND*%
X18000000Y-42150000D03*
X18000000Y-35750000D03*
X6300000Y-31650000D03*
X16975000Y-49980000D03*
X2600000Y-40950000D03*
X14475000Y-56080000D03*
X11500000Y-50250000D03*
X5200000Y-25450000D03*
X20245000Y-15920000D03*
X43880000Y-9110000D03*
X45150000Y-9110000D03*
X46420000Y-9110000D03*
X54040000Y-62190000D03*
X52770000Y-62190000D03*
X51500000Y-62190000D03*
%TO.N,MISO*%
X6700000Y-47050000D03*
X10115012Y-21000000D03*
%TO.N,MOSI*%
X7499984Y-46250000D03*
X20245000Y-18460000D03*
%TO.N,SCLK*%
X8300000Y-47050000D03*
X11500000Y-25450000D03*
%TO.N,OC4A*%
X21590000Y-50210000D03*
X13899976Y-31650000D03*
%TO.N,PB4*%
X12300000Y-28450000D03*
%TO.N,RST*%
X3400000Y-43750022D03*
X10115000Y-15920000D03*
%TO.N,+12V*%
X57850000Y-62190000D03*
X56580000Y-62190000D03*
X55310000Y-62190000D03*
%TO.N,+5V*%
X48960000Y-62190000D03*
X50230000Y-62190000D03*
X47690000Y-62190000D03*
%TD*%
D25*
%TO.N,Net-(AVR0-Pad17)*%
X3800002Y-38950000D02*
X3400000Y-38549998D01*
X5000000Y-38950000D02*
X3800002Y-38950000D01*
%TO.N,Net-(AVR0-Pad16)*%
X3800000Y-39750000D02*
X5000000Y-39750000D01*
X3400000Y-40150000D02*
X3800000Y-39750000D01*
%TO.N,Net-(AVR0-Pad6)*%
X10700000Y-44650000D02*
X10700000Y-47985000D01*
%TO.N,Net-(CPUIN0-Pad4)*%
X16975000Y-54580000D02*
X16975000Y-55380000D01*
X16975000Y-55380000D02*
X17775000Y-56180000D01*
%TO.N,Net-(DATA2-Pad7)*%
X26100000Y-41110000D02*
X26100000Y-39110000D01*
%TO.N,Net-(DATA2-Pad6)*%
X27370000Y-41110000D02*
X27370000Y-39110000D01*
%TO.N,Net-(DATA2-Pad5)*%
X28640000Y-41110000D02*
X28640000Y-39110000D01*
%TO.N,Net-(DATA2-Pad4)*%
X29910000Y-41110000D02*
X29910000Y-39110000D01*
%TO.N,Net-(DATA2-Pad3)*%
X31180000Y-41110000D02*
X31180000Y-39110000D01*
%TO.N,Net-(DATA2-Pad2)*%
X32450000Y-41110000D02*
X32450000Y-39110000D01*
%TO.N,Net-(DATA2-Pad1)*%
X33720000Y-41110000D02*
X33720000Y-39110000D01*
%TO.N,Net-(DATA3-Pad7)*%
X26100000Y-57110000D02*
X26100000Y-54760000D01*
%TO.N,Net-(DATA3-Pad6)*%
X27370000Y-57110000D02*
X27370000Y-54760000D01*
%TO.N,Net-(DATA3-Pad5)*%
X28640000Y-57110000D02*
X28640000Y-54760000D01*
%TO.N,Net-(DATA3-Pad4)*%
X29910000Y-57110000D02*
X29910000Y-54760000D01*
%TO.N,Net-(DATA3-Pad3)*%
X31180000Y-57110000D02*
X31180000Y-54760000D01*
%TO.N,Net-(DATA3-Pad2)*%
X32450000Y-57110000D02*
X32450000Y-54760000D01*
%TO.N,Net-(DATA3-Pad1)*%
X33720000Y-57110000D02*
X33720000Y-54760000D01*
%TO.N,Net-(DATA0-Pad7)*%
X26100000Y-9110000D02*
X26100000Y-6760000D01*
%TO.N,Net-(DATA0-Pad6)*%
X27370000Y-9110000D02*
X27370000Y-6760000D01*
%TO.N,Net-(DATA0-Pad5)*%
X28640000Y-9110000D02*
X28640000Y-6760000D01*
%TO.N,Net-(DATA0-Pad4)*%
X29910000Y-9110000D02*
X29910000Y-6760000D01*
%TO.N,Net-(DATA0-Pad3)*%
X31180000Y-9110000D02*
X31180000Y-6760000D01*
%TO.N,Net-(DATA0-Pad2)*%
X32450000Y-9110000D02*
X32450000Y-6760000D01*
%TO.N,Net-(DATA0-Pad1)*%
X33720000Y-9110000D02*
X33720000Y-6760000D01*
%TO.N,Net-(DATA1-Pad7)*%
X26100000Y-25110000D02*
X26100000Y-22760000D01*
%TO.N,Net-(DATA1-Pad6)*%
X27370000Y-25110000D02*
X27370000Y-22760000D01*
%TO.N,Net-(DATA1-Pad5)*%
X28640000Y-25110000D02*
X28640000Y-22760000D01*
%TO.N,Net-(DATA1-Pad4)*%
X29910000Y-25110000D02*
X29910000Y-22760000D01*
%TO.N,Net-(DATA1-Pad3)*%
X31180000Y-25110000D02*
X31180000Y-22760000D01*
%TO.N,Net-(DATA1-Pad2)*%
X32450000Y-25110000D02*
X32450000Y-22760000D01*
%TO.N,Net-(DATA1-Pad1)*%
X33720000Y-25110000D02*
X33720000Y-22760000D01*
%TO.N,Net-(AVR0-Pad3)*%
X13970000Y-62590000D02*
X13970000Y-62260000D01*
X13970000Y-62260000D02*
X13100000Y-61390000D01*
X13100000Y-61390000D02*
X13100000Y-44650000D01*
%TO.N,Net-(AVR0-Pad4)*%
X12300000Y-44650000D02*
X12300000Y-61390000D01*
X11430000Y-62260000D02*
X12300000Y-61390000D01*
X11430000Y-62590000D02*
X11430000Y-62260000D01*
%TO.N,Net-(PFP0-Pad4)*%
X22860000Y-69260000D02*
X22860000Y-67040000D01*
%TO.N,Net-(R1-Pad1)*%
X13970000Y-65450000D02*
X13970000Y-63230000D01*
%TO.N,OC1B*%
X12300000Y-33250000D02*
X12300000Y-31650000D01*
X12300000Y-31650000D02*
X13900000Y-30050000D01*
X45720000Y-64180000D02*
X41910000Y-64180000D01*
X40640000Y-62910000D02*
X40640000Y-51480000D01*
X40640000Y-51480000D02*
X38100000Y-48940000D01*
X49530000Y-67990000D02*
X45720000Y-64180000D01*
X41910000Y-64180000D02*
X40640000Y-62910000D01*
X38100000Y-48940000D02*
X25400000Y-48940000D01*
%TO.N,OC1A*%
X16475000Y-54580000D02*
X16475000Y-55579994D01*
X16475000Y-55579994D02*
X15975000Y-56079994D01*
X11500000Y-30850000D02*
X13100000Y-29250000D01*
X11500000Y-33250000D02*
X11500000Y-30850000D01*
%TO.N,Net-(CPUMUX0-Pad5)*%
X13970000Y-51480000D02*
X15475000Y-51480000D01*
X35560000Y-51480000D02*
X38100000Y-54020000D01*
X22860000Y-51480000D02*
X35560000Y-51480000D01*
X38100000Y-54020000D02*
X38100000Y-67990000D01*
%TO.N,VCC*%
X16400000Y-42950000D02*
X17600001Y-42950001D01*
X17600001Y-42950001D02*
X18000000Y-43350000D01*
X7500000Y-31664230D02*
X7507115Y-31657115D01*
X7500000Y-33250000D02*
X7500000Y-31664230D01*
X16975000Y-51480000D02*
X17775000Y-50680000D01*
X13900000Y-44650000D02*
X13900000Y-46250000D01*
X5000000Y-41350000D02*
X4000000Y-41350000D01*
X4000000Y-41350000D02*
X3200000Y-42150000D01*
X3200000Y-42150000D02*
X2600000Y-42150000D01*
X9900000Y-44650000D02*
X9900000Y-47050000D01*
X16400000Y-34950000D02*
X17600001Y-34949999D01*
X17600001Y-34949999D02*
X18000000Y-34550000D01*
X17705000Y-21000000D02*
X20245000Y-21000000D01*
%TO.N,PE6*%
X14700000Y-48650000D02*
X14700000Y-44650000D01*
X15975000Y-51480000D02*
X15975000Y-49925000D01*
X15975000Y-49925000D02*
X14700000Y-48650000D01*
%TO.N,GND*%
X16400000Y-42150000D02*
X18000000Y-42150000D01*
X16400000Y-35750000D02*
X18000000Y-35750000D01*
X6700000Y-33250000D02*
X6699999Y-32049999D01*
X6699999Y-32049999D02*
X6300000Y-31650000D01*
X16475000Y-51480000D02*
X16475000Y-50480000D01*
X16475000Y-50480000D02*
X16975000Y-49980000D01*
X5000000Y-40550000D02*
X4073002Y-40550000D01*
X3673002Y-40950000D02*
X2600000Y-40950000D01*
X4073002Y-40550000D02*
X3673002Y-40950000D01*
X15475000Y-54580000D02*
X15475000Y-54830000D01*
X15475000Y-54830000D02*
X14475000Y-55830000D01*
X14475000Y-55830000D02*
X14475000Y-56080000D01*
X10700000Y-48625000D02*
X11500000Y-48625000D01*
X11500000Y-44650000D02*
X11500000Y-50250000D01*
X2000000Y-25450000D02*
X5200000Y-25450000D01*
X8300000Y-25450000D02*
X5200000Y-25450000D01*
X17705000Y-15920000D02*
X20245000Y-15920000D01*
%TO.N,MISO*%
X6700000Y-44650000D02*
X6700000Y-47050000D01*
X12655000Y-21000000D02*
X10115012Y-21000000D01*
%TO.N,MOSI*%
X7500000Y-44650000D02*
X7500000Y-46249984D01*
X7500000Y-46249984D02*
X7499984Y-46250000D01*
X17705000Y-18460000D02*
X20245000Y-18460000D01*
%TO.N,SCLK*%
X8300000Y-44650000D02*
X8300000Y-47050000D01*
X9100000Y-23050000D02*
X11500000Y-25450000D01*
X12655000Y-18460000D02*
X10490000Y-18460000D01*
X9100000Y-19850000D02*
X9100000Y-23050000D01*
X10490000Y-18460000D02*
X9100000Y-19850000D01*
%TO.N,Net-(R0-Pad1)*%
X11430000Y-65450000D02*
X11430000Y-63230000D01*
%TO.N,ADC5*%
X39370000Y-47670000D02*
X41910000Y-50210000D01*
X23520000Y-47670000D02*
X39370000Y-47670000D01*
X41910000Y-50210000D02*
X41910000Y-61640000D01*
X21200000Y-45350000D02*
X23520000Y-47670000D01*
X16400000Y-38150000D02*
X19600000Y-38150000D01*
X46990000Y-62910000D02*
X52070000Y-67990000D01*
X21200000Y-39750000D02*
X21200000Y-45350000D01*
X19600000Y-38150000D02*
X21200000Y-39750000D01*
X41910000Y-61640000D02*
X43180000Y-62910000D01*
X43180000Y-62910000D02*
X46990000Y-62910000D01*
%TO.N,ADC4*%
X24130000Y-50210000D02*
X36830000Y-50210000D01*
X36830000Y-50210000D02*
X39370000Y-52750000D01*
X20400000Y-46480000D02*
X24130000Y-50210000D01*
X20400000Y-40550000D02*
X20400000Y-46480000D01*
X16400000Y-38950000D02*
X18800000Y-38950000D01*
X39370000Y-66720000D02*
X40640000Y-67990000D01*
X18800000Y-38950000D02*
X20400000Y-40550000D01*
X39370000Y-52750000D02*
X39370000Y-66720000D01*
%TO.N,ADC1*%
X19600000Y-67440000D02*
X17780000Y-69260000D01*
X19600000Y-40950000D02*
X19600000Y-67440000D01*
X16400000Y-39750000D02*
X18400000Y-39750000D01*
X18400000Y-39750000D02*
X19600000Y-40950000D01*
%TO.N,ADC0*%
X18000000Y-40550000D02*
X16400000Y-40550000D01*
X18800000Y-41350000D02*
X18000000Y-40550000D01*
X18800000Y-66335000D02*
X18800000Y-41350000D01*
X17780000Y-67355000D02*
X18800000Y-66335000D01*
X11430000Y-69260000D02*
X13335000Y-67355000D01*
X13335000Y-67355000D02*
X17780000Y-67355000D01*
%TO.N,OC4A*%
X21590000Y-50210000D02*
X20300000Y-51500000D01*
X20300000Y-63840000D02*
X22860000Y-66400000D01*
X20300000Y-51500000D02*
X20300000Y-63840000D01*
X13900000Y-31650024D02*
X13899976Y-31650000D01*
X13900000Y-33250000D02*
X13900000Y-31650024D01*
%TO.N,PB4*%
X10700000Y-33250000D02*
X10700000Y-29250000D01*
X8300000Y-29250000D02*
X10700000Y-29250000D01*
X8300000Y-29250000D02*
X2000000Y-29250000D01*
X11500000Y-29250000D02*
X12300000Y-28450000D01*
X10700000Y-29250000D02*
X11500000Y-29250000D01*
%TO.N,RST*%
X4000000Y-42150000D02*
X3400000Y-42750000D01*
X5000000Y-42150000D02*
X4000000Y-42150000D01*
X3400000Y-42750000D02*
X3400000Y-43750022D01*
X12655000Y-15920000D02*
X10115000Y-15920000D01*
%TD*%
M02*
